# Sinh tự động bởi tools/mesh_kit.py - đừng sửa tay
o bench_base
v 1.2415 0.0085 0.1815
v 1.2441 0.0059 0.1700
v 1.2441 0.0059 -0.1700
v 1.2415 0.0085 -0.1815
v 1.2441 0.0200 0.1841
v 1.2500 0.0200 0.1700
v 1.2500 0.0200 -0.1700
v 1.2441 0.0200 -0.1841
v 1.2441 0.3700 0.1841
v 1.2500 0.3700 0.1700
v 1.2500 0.3700 -0.1700
v 1.2441 0.3700 -0.1841
v 1.2415 0.3815 0.1815
v 1.2441 0.3841 0.1700
v 1.2441 0.3841 -0.1700
v 1.2415 0.3815 -0.1815
v -1.2415 0.0085 -0.1815
v -1.2441 0.0059 -0.1700
v -1.2441 0.0059 0.1700
v -1.2415 0.0085 0.1815
v -1.2441 0.0200 -0.1841
v -1.2500 0.0200 -0.1700
v -1.2500 0.0200 0.1700
v -1.2441 0.0200 0.1841
v -1.2441 0.3700 -0.1841
v -1.2500 0.3700 -0.1700
v -1.2500 0.3700 0.1700
v -1.2441 0.3700 0.1841
v -1.2415 0.3815 -0.1815
v -1.2441 0.3841 -0.1700
v -1.2441 0.3841 0.1700
v -1.2415 0.3815 0.1815
v -1.2415 0.3815 0.1815
v -1.2300 0.3841 0.1841
v 1.2300 0.3841 0.1841
v 1.2415 0.3815 0.1815
v -1.2441 0.3841 0.1700
v -1.2300 0.3900 0.1700
v 1.2300 0.3900 0.1700
v 1.2441 0.3841 0.1700
v -1.2441 0.3841 -0.1700
v -1.2300 0.3900 -0.1700
v 1.2300 0.3900 -0.1700
v 1.2441 0.3841 -0.1700
v -1.2415 0.3815 -0.1815
v -1.2300 0.3841 -0.1841
v 1.2300 0.3841 -0.1841
v 1.2415 0.3815 -0.1815
v -1.2415 0.0085 -0.1815
v -1.2300 0.0059 -0.1841
v 1.2300 0.0059 -0.1841
v 1.2415 0.0085 -0.1815
v -1.2441 0.0059 -0.1700
v -1.2300 0.0000 -0.1700
v 1.2300 0.0000 -0.1700
v 1.2441 0.0059 -0.1700
v -1.2441 0.0059 0.1700
v -1.2300 0.0000 0.1700
v 1.2300 0.0000 0.1700
v 1.2441 0.0059 0.1700
v -1.2415 0.0085 0.1815
v -1.2300 0.0059 0.1841
v 1.2300 0.0059 0.1841
v 1.2415 0.0085 0.1815
v -1.2415 0.0085 0.1815
v -1.2300 0.0059 0.1841
v 1.2300 0.0059 0.1841
v 1.2415 0.0085 0.1815
v -1.2441 0.0200 0.1841
v -1.2300 0.0200 0.1900
v 1.2300 0.0200 0.1900
v 1.2441 0.0200 0.1841
v -1.2441 0.3700 0.1841
v -1.2300 0.3700 0.1900
v 1.2300 0.3700 0.1900
v 1.2441 0.3700 0.1841
v -1.2415 0.3815 0.1815
v -1.2300 0.3841 0.1841
v 1.2300 0.3841 0.1841
v 1.2415 0.3815 0.1815
v 1.2415 0.0085 -0.1815
v 1.2300 0.0059 -0.1841
v -1.2300 0.0059 -0.1841
v -1.2415 0.0085 -0.1815
v 1.2441 0.0200 -0.1841
v 1.2300 0.0200 -0.1900
v -1.2300 0.0200 -0.1900
v -1.2441 0.0200 -0.1841
v 1.2441 0.3700 -0.1841
v 1.2300 0.3700 -0.1900
v -1.2300 0.3700 -0.1900
v -1.2441 0.3700 -0.1841
v 1.2415 0.3815 -0.1815
v 1.2300 0.3841 -0.1841
v -1.2300 0.3841 -0.1841
v -1.2415 0.3815 -0.1815
vt 0.0000 0.0000
vt 0.0200 0.0000
vt 0.3600 0.0000
vt 0.3800 0.0000
vt 0.0000 0.0200
vt 0.0200 0.0200
vt 0.3600 0.0200
vt 0.3800 0.0200
vt 0.0000 0.3700
vt 0.0200 0.3700
vt 0.3600 0.3700
vt 0.3800 0.3700
vt 0.0000 0.3900
vt 0.0200 0.3900
vt 0.3600 0.3900
vt 0.3800 0.3900
vt 0.0000 0.0000
vt 0.0200 0.0000
vt 0.3600 0.0000
vt 0.3800 0.0000
vt 0.0000 0.0200
vt 0.0200 0.0200
vt 0.3600 0.0200
vt 0.3800 0.0200
vt 0.0000 0.3700
vt 0.0200 0.3700
vt 0.3600 0.3700
vt 0.3800 0.3700
vt 0.0000 0.3900
vt 0.0200 0.3900
vt 0.3600 0.3900
vt 0.3800 0.3900
vt 0.0000 0.0000
vt 0.0200 0.0000
vt 2.4800 0.0000
vt 2.5000 0.0000
vt 0.0000 0.0200
vt 0.0200 0.0200
vt 2.4800 0.0200
vt 2.5000 0.0200
vt 0.0000 0.3600
vt 0.0200 0.3600
vt 2.4800 0.3600
vt 2.5000 0.3600
vt 0.0000 0.3800
vt 0.0200 0.3800
vt 2.4800 0.3800
vt 2.5000 0.3800
vt 0.0000 0.0000
vt 0.0200 0.0000
vt 2.4800 0.0000
vt 2.5000 0.0000
vt 0.0000 0.0200
vt 0.0200 0.0200
vt 2.4800 0.0200
vt 2.5000 0.0200
vt 0.0000 0.3600
vt 0.0200 0.3600
vt 2.4800 0.3600
vt 2.5000 0.3600
vt 0.0000 0.3800
vt 0.0200 0.3800
vt 2.4800 0.3800
vt 2.5000 0.3800
vt 0.0000 0.0000
vt 0.0200 0.0000
vt 2.4800 0.0000
vt 2.5000 0.0000
vt 0.0000 0.0200
vt 0.0200 0.0200
vt 2.4800 0.0200
vt 2.5000 0.0200
vt 0.0000 0.3700
vt 0.0200 0.3700
vt 2.4800 0.3700
vt 2.5000 0.3700
vt 0.0000 0.3900
vt 0.0200 0.3900
vt 2.4800 0.3900
vt 2.5000 0.3900
vt 0.0000 0.0000
vt 0.0200 0.0000
vt 2.4800 0.0000
vt 2.5000 0.0000
vt 0.0000 0.0200
vt 0.0200 0.0200
vt 2.4800 0.0200
vt 2.5000 0.0200
vt 0.0000 0.3700
vt 0.0200 0.3700
vt 2.4800 0.3700
vt 2.5000 0.3700
vt 0.0000 0.3900
vt 0.0200 0.3900
vt 2.4800 0.3900
vt 2.5000 0.3900
vn 0.577 -0.577 0.577
vn 0.707 -0.707 0.000
vn 0.707 -0.707 0.000
vn 0.577 -0.577 -0.577
vn 0.707 0.000 0.707
vn 1.000 0.000 0.000
vn 1.000 0.000 0.000
vn 0.707 0.000 -0.707
vn 0.707 0.000 0.707
vn 1.000 0.000 0.000
vn 1.000 0.000 0.000
vn 0.707 0.000 -0.707
vn 0.577 0.577 0.577
vn 0.707 0.707 0.000
vn 0.707 0.707 0.000
vn 0.577 0.577 -0.577
vn -0.577 -0.577 -0.577
vn -0.707 -0.707 0.000
vn -0.707 -0.707 0.000
vn -0.577 -0.577 0.577
vn -0.707 0.000 -0.707
vn -1.000 0.000 0.000
vn -1.000 0.000 0.000
vn -0.707 0.000 0.707
vn -0.707 0.000 -0.707
vn -1.000 0.000 0.000
vn -1.000 0.000 0.000
vn -0.707 0.000 0.707
vn -0.577 0.577 -0.577
vn -0.707 0.707 0.000
vn -0.707 0.707 0.000
vn -0.577 0.577 0.577
vn -0.577 0.577 0.577
vn 0.000 0.707 0.707
vn 0.000 0.707 0.707
vn 0.577 0.577 0.577
vn -0.707 0.707 0.000
vn 0.000 1.000 0.000
vn 0.000 1.000 0.000
vn 0.707 0.707 0.000
vn -0.707 0.707 0.000
vn 0.000 1.000 0.000
vn 0.000 1.000 0.000
vn 0.707 0.707 0.000
vn -0.577 0.577 -0.577
vn 0.000 0.707 -0.707
vn 0.000 0.707 -0.707
vn 0.577 0.577 -0.577
vn -0.577 -0.577 -0.577
vn 0.000 -0.707 -0.707
vn 0.000 -0.707 -0.707
vn 0.577 -0.577 -0.577
vn -0.707 -0.707 0.000
vn 0.000 -1.000 0.000
vn 0.000 -1.000 0.000
vn 0.707 -0.707 0.000
vn -0.707 -0.707 0.000
vn 0.000 -1.000 0.000
vn 0.000 -1.000 0.000
vn 0.707 -0.707 0.000
vn -0.577 -0.577 0.577
vn 0.000 -0.707 0.707
vn 0.000 -0.707 0.707
vn 0.577 -0.577 0.577
vn -0.577 -0.577 0.577
vn 0.000 -0.707 0.707
vn 0.000 -0.707 0.707
vn 0.577 -0.577 0.577
vn -0.707 0.000 0.707
vn 0.000 0.000 1.000
vn 0.000 0.000 1.000
vn 0.707 0.000 0.707
vn -0.707 0.000 0.707
vn 0.000 0.000 1.000
vn 0.000 0.000 1.000
vn 0.707 0.000 0.707
vn -0.577 0.577 0.577
vn 0.000 0.707 0.707
vn 0.000 0.707 0.707
vn 0.577 0.577 0.577
vn 0.577 -0.577 -0.577
vn 0.000 -0.707 -0.707
vn 0.000 -0.707 -0.707
vn -0.577 -0.577 -0.577
vn 0.707 0.000 -0.707
vn 0.000 0.000 -1.000
vn 0.000 0.000 -1.000
vn -0.707 0.000 -0.707
vn 0.707 0.000 -0.707
vn 0.000 0.000 -1.000
vn 0.000 0.000 -1.000
vn -0.707 0.000 -0.707
vn 0.577 0.577 -0.577
vn 0.000 0.707 -0.707
vn 0.000 0.707 -0.707
vn -0.577 0.577 -0.577
v 1.2458 0.3787 0.1958
v 1.2471 0.3774 0.1900
v 1.2471 0.3774 -0.2100
v 1.2458 0.3787 -0.2158
v 1.2471 0.3845 0.1971
v 1.2500 0.3845 0.1900
v 1.2500 0.3845 -0.2100
v 1.2471 0.3845 -0.2171
v 1.2471 0.3995 0.1971
v 1.2500 0.3995 0.1900
v 1.2500 0.3995 -0.2100
v 1.2471 0.3995 -0.2171
v 1.2458 0.4053 0.1958
v 1.2471 0.4066 0.1900
v 1.2471 0.4066 -0.2100
v 1.2458 0.4053 -0.2158
v -1.2458 0.3787 -0.2158
v -1.2471 0.3774 -0.2100
v -1.2471 0.3774 0.1900
v -1.2458 0.3787 0.1958
v -1.2471 0.3845 -0.2171
v -1.2500 0.3845 -0.2100
v -1.2500 0.3845 0.1900
v -1.2471 0.3845 0.1971
v -1.2471 0.3995 -0.2171
v -1.2500 0.3995 -0.2100
v -1.2500 0.3995 0.1900
v -1.2471 0.3995 0.1971
v -1.2458 0.4053 -0.2158
v -1.2471 0.4066 -0.2100
v -1.2471 0.4066 0.1900
v -1.2458 0.4053 0.1958
v -1.2458 0.4053 0.1958
v -1.2400 0.4066 0.1971
v 1.2400 0.4066 0.1971
v 1.2458 0.4053 0.1958
v -1.2471 0.4066 0.1900
v -1.2400 0.4095 0.1900
v 1.2400 0.4095 0.1900
v 1.2471 0.4066 0.1900
v -1.2471 0.4066 -0.2100
v -1.2400 0.4095 -0.2100
v 1.2400 0.4095 -0.2100
v 1.2471 0.4066 -0.2100
v -1.2458 0.4053 -0.2158
v -1.2400 0.4066 -0.2171
v 1.2400 0.4066 -0.2171
v 1.2458 0.4053 -0.2158
v -1.2458 0.3787 -0.2158
v -1.2400 0.3774 -0.2171
v 1.2400 0.3774 -0.2171
v 1.2458 0.3787 -0.2158
v -1.2471 0.3774 -0.2100
v -1.2400 0.3745 -0.2100
v 1.2400 0.3745 -0.2100
v 1.2471 0.3774 -0.2100
v -1.2471 0.3774 0.1900
v -1.2400 0.3745 0.1900
v 1.2400 0.3745 0.1900
v 1.2471 0.3774 0.1900
v -1.2458 0.3787 0.1958
v -1.2400 0.3774 0.1971
v 1.2400 0.3774 0.1971
v 1.2458 0.3787 0.1958
v -1.2458 0.3787 0.1958
v -1.2400 0.3774 0.1971
v 1.2400 0.3774 0.1971
v 1.2458 0.3787 0.1958
v -1.2471 0.3845 0.1971
v -1.2400 0.3845 0.2000
v 1.2400 0.3845 0.2000
v 1.2471 0.3845 0.1971
v -1.2471 0.3995 0.1971
v -1.2400 0.3995 0.2000
v 1.2400 0.3995 0.2000
v 1.2471 0.3995 0.1971
v -1.2458 0.4053 0.1958
v -1.2400 0.4066 0.1971
v 1.2400 0.4066 0.1971
v 1.2458 0.4053 0.1958
v 1.2458 0.3787 -0.2158
v 1.2400 0.3774 -0.2171
v -1.2400 0.3774 -0.2171
v -1.2458 0.3787 -0.2158
v 1.2471 0.3845 -0.2171
v 1.2400 0.3845 -0.2200
v -1.2400 0.3845 -0.2200
v -1.2471 0.3845 -0.2171
v 1.2471 0.3995 -0.2171
v 1.2400 0.3995 -0.2200
v -1.2400 0.3995 -0.2200
v -1.2471 0.3995 -0.2171
v 1.2458 0.4053 -0.2158
v 1.2400 0.4066 -0.2171
v -1.2400 0.4066 -0.2171
v -1.2458 0.4053 -0.2158
vt 0.0000 0.0000
vt 0.0100 0.0000
vt 0.4100 0.0000
vt 0.4200 0.0000
vt 0.0000 0.0100
vt 0.0100 0.0100
vt 0.4100 0.0100
vt 0.4200 0.0100
vt 0.0000 0.0250
vt 0.0100 0.0250
vt 0.4100 0.0250
vt 0.4200 0.0250
vt 0.0000 0.0350
vt 0.0100 0.0350
vt 0.4100 0.0350
vt 0.4200 0.0350
vt 0.0000 0.0000
vt 0.0100 0.0000
vt 0.4100 0.0000
vt 0.4200 0.0000
vt 0.0000 0.0100
vt 0.0100 0.0100
vt 0.4100 0.0100
vt 0.4200 0.0100
vt 0.0000 0.0250
vt 0.0100 0.0250
vt 0.4100 0.0250
vt 0.4200 0.0250
vt 0.0000 0.0350
vt 0.0100 0.0350
vt 0.4100 0.0350
vt 0.4200 0.0350
vt 0.0000 0.0000
vt 0.0100 0.0000
vt 2.4900 0.0000
vt 2.5000 0.0000
vt 0.0000 0.0100
vt 0.0100 0.0100
vt 2.4900 0.0100
vt 2.5000 0.0100
vt 0.0000 0.4100
vt 0.0100 0.4100
vt 2.4900 0.4100
vt 2.5000 0.4100
vt 0.0000 0.4200
vt 0.0100 0.4200
vt 2.4900 0.4200
vt 2.5000 0.4200
vt 0.0000 0.0000
vt 0.0100 0.0000
vt 2.4900 0.0000
vt 2.5000 0.0000
vt 0.0000 0.0100
vt 0.0100 0.0100
vt 2.4900 0.0100
vt 2.5000 0.0100
vt 0.0000 0.4100
vt 0.0100 0.4100
vt 2.4900 0.4100
vt 2.5000 0.4100
vt 0.0000 0.4200
vt 0.0100 0.4200
vt 2.4900 0.4200
vt 2.5000 0.4200
vt 0.0000 0.0000
vt 0.0100 0.0000
vt 2.4900 0.0000
vt 2.5000 0.0000
vt 0.0000 0.0100
vt 0.0100 0.0100
vt 2.4900 0.0100
vt 2.5000 0.0100
vt 0.0000 0.0250
vt 0.0100 0.0250
vt 2.4900 0.0250
vt 2.5000 0.0250
vt 0.0000 0.0350
vt 0.0100 0.0350
vt 2.4900 0.0350
vt 2.5000 0.0350
vt 0.0000 0.0000
vt 0.0100 0.0000
vt 2.4900 0.0000
vt 2.5000 0.0000
vt 0.0000 0.0100
vt 0.0100 0.0100
vt 2.4900 0.0100
vt 2.5000 0.0100
vt 0.0000 0.0250
vt 0.0100 0.0250
vt 2.4900 0.0250
vt 2.5000 0.0250
vt 0.0000 0.0350
vt 0.0100 0.0350
vt 2.4900 0.0350
vt 2.5000 0.0350
vn 0.577 -0.577 0.577
vn 0.707 -0.707 0.000
vn 0.707 -0.707 0.000
vn 0.577 -0.577 -0.577
vn 0.707 0.000 0.707
vn 1.000 0.000 0.000
vn 1.000 0.000 0.000
vn 0.707 0.000 -0.707
vn 0.707 0.000 0.707
vn 1.000 0.000 0.000
vn 1.000 0.000 0.000
vn 0.707 0.000 -0.707
vn 0.577 0.577 0.577
vn 0.707 0.707 0.000
vn 0.707 0.707 0.000
vn 0.577 0.577 -0.577
vn -0.577 -0.577 -0.577
vn -0.707 -0.707 0.000
vn -0.707 -0.707 0.000
vn -0.577 -0.577 0.577
vn -0.707 0.000 -0.707
vn -1.000 0.000 0.000
vn -1.000 0.000 0.000
vn -0.707 0.000 0.707
vn -0.707 0.000 -0.707
vn -1.000 0.000 0.000
vn -1.000 0.000 0.000
vn -0.707 0.000 0.707
vn -0.577 0.577 -0.577
vn -0.707 0.707 0.000
vn -0.707 0.707 0.000
vn -0.577 0.577 0.577
vn -0.577 0.577 0.577
vn 0.000 0.707 0.707
vn 0.000 0.707 0.707
vn 0.577 0.577 0.577
vn -0.707 0.707 0.000
vn 0.000 1.000 0.000
vn 0.000 1.000 0.000
vn 0.707 0.707 0.000
vn -0.707 0.707 0.000
vn 0.000 1.000 0.000
vn 0.000 1.000 0.000
vn 0.707 0.707 0.000
vn -0.577 0.577 -0.577
vn 0.000 0.707 -0.707
vn 0.000 0.707 -0.707
vn 0.577 0.577 -0.577
vn -0.577 -0.577 -0.577
vn 0.000 -0.707 -0.707
vn 0.000 -0.707 -0.707
vn 0.577 -0.577 -0.577
vn -0.707 -0.707 0.000
vn 0.000 -1.000 0.000
vn 0.000 -1.000 0.000
vn 0.707 -0.707 0.000
vn -0.707 -0.707 0.000
vn 0.000 -1.000 0.000
vn 0.000 -1.000 0.000
vn 0.707 -0.707 0.000
vn -0.577 -0.577 0.577
vn 0.000 -0.707 0.707
vn 0.000 -0.707 0.707
vn 0.577 -0.577 0.577
vn -0.577 -0.577 0.577
vn 0.000 -0.707 0.707
vn 0.000 -0.707 0.707
vn 0.577 -0.577 0.577
vn -0.707 0.000 0.707
vn 0.000 0.000 1.000
vn 0.000 0.000 1.000
vn 0.707 0.000 0.707
vn -0.707 0.000 0.707
vn 0.000 0.000 1.000
vn 0.000 0.000 1.000
vn 0.707 0.000 0.707
vn -0.577 0.577 0.577
vn 0.000 0.707 0.707
vn 0.000 0.707 0.707
vn 0.577 0.577 0.577
vn 0.577 -0.577 -0.577
vn 0.000 -0.707 -0.707
vn 0.000 -0.707 -0.707
vn -0.577 -0.577 -0.577
vn 0.707 0.000 -0.707
vn 0.000 0.000 -1.000
vn 0.000 0.000 -1.000
vn -0.707 0.000 -0.707
vn 0.707 0.000 -0.707
vn 0.000 0.000 -1.000
vn 0.000 0.000 -1.000
vn -0.707 0.000 -0.707
vn 0.577 0.577 -0.577
vn 0.000 0.707 -0.707
vn 0.000 0.707 -0.707
vn -0.577 0.577 -0.577
usemtl shell
f 1/1/1 2/2/2 6/6/6
f 1/1/1 6/6/6 5/5/5
f 2/2/2 3/3/3 7/7/7
f 2/2/2 7/7/7 6/6/6
f 3/3/3 4/4/4 8/8/8
f 3/3/3 8/8/8 7/7/7
f 5/5/5 6/6/6 10/10/10
f 5/5/5 10/10/10 9/9/9
f 6/6/6 7/7/7 11/11/11
f 6/6/6 11/11/11 10/10/10
f 7/7/7 8/8/8 12/12/12
f 7/7/7 12/12/12 11/11/11
f 9/9/9 10/10/10 14/14/14
f 9/9/9 14/14/14 13/13/13
f 10/10/10 11/11/11 15/15/15
f 10/10/10 15/15/15 14/14/14
f 11/11/11 12/12/12 16/16/16
f 11/11/11 16/16/16 15/15/15
f 17/17/17 18/18/18 22/22/22
f 17/17/17 22/22/22 21/21/21
f 18/18/18 19/19/19 23/23/23
f 18/18/18 23/23/23 22/22/22
f 19/19/19 20/20/20 24/24/24
f 19/19/19 24/24/24 23/23/23
f 21/21/21 22/22/22 26/26/26
f 21/21/21 26/26/26 25/25/25
f 22/22/22 23/23/23 27/27/27
f 22/22/22 27/27/27 26/26/26
f 23/23/23 24/24/24 28/28/28
f 23/23/23 28/28/28 27/27/27
f 25/25/25 26/26/26 30/30/30
f 25/25/25 30/30/30 29/29/29
f 26/26/26 27/27/27 31/31/31
f 26/26/26 31/31/31 30/30/30
f 27/27/27 28/28/28 32/32/32
f 27/27/27 32/32/32 31/31/31
f 33/33/33 34/34/34 38/38/38
f 33/33/33 38/38/38 37/37/37
f 34/34/34 35/35/35 39/39/39
f 34/34/34 39/39/39 38/38/38
f 35/35/35 36/36/36 40/40/40
f 35/35/35 40/40/40 39/39/39
f 37/37/37 38/38/38 42/42/42
f 37/37/37 42/42/42 41/41/41
f 38/38/38 39/39/39 43/43/43
f 38/38/38 43/43/43 42/42/42
f 39/39/39 40/40/40 44/44/44
f 39/39/39 44/44/44 43/43/43
f 41/41/41 42/42/42 46/46/46
f 41/41/41 46/46/46 45/45/45
f 42/42/42 43/43/43 47/47/47
f 42/42/42 47/47/47 46/46/46
f 43/43/43 44/44/44 48/48/48
f 43/43/43 48/48/48 47/47/47
f 49/49/49 50/50/50 54/54/54
f 49/49/49 54/54/54 53/53/53
f 50/50/50 51/51/51 55/55/55
f 50/50/50 55/55/55 54/54/54
f 51/51/51 52/52/52 56/56/56
f 51/51/51 56/56/56 55/55/55
f 53/53/53 54/54/54 58/58/58
f 53/53/53 58/58/58 57/57/57
f 54/54/54 55/55/55 59/59/59
f 54/54/54 59/59/59 58/58/58
f 55/55/55 56/56/56 60/60/60
f 55/55/55 60/60/60 59/59/59
f 57/57/57 58/58/58 62/62/62
f 57/57/57 62/62/62 61/61/61
f 58/58/58 59/59/59 63/63/63
f 58/58/58 63/63/63 62/62/62
f 59/59/59 60/60/60 64/64/64
f 59/59/59 64/64/64 63/63/63
f 65/65/65 66/66/66 70/70/70
f 65/65/65 70/70/70 69/69/69
f 66/66/66 67/67/67 71/71/71
f 66/66/66 71/71/71 70/70/70
f 67/67/67 68/68/68 72/72/72
f 67/67/67 72/72/72 71/71/71
f 69/69/69 70/70/70 74/74/74
f 69/69/69 74/74/74 73/73/73
f 70/70/70 71/71/71 75/75/75
f 70/70/70 75/75/75 74/74/74
f 71/71/71 72/72/72 76/76/76
f 71/71/71 76/76/76 75/75/75
f 73/73/73 74/74/74 78/78/78
f 73/73/73 78/78/78 77/77/77
f 74/74/74 75/75/75 79/79/79
f 74/74/74 79/79/79 78/78/78
f 75/75/75 76/76/76 80/80/80
f 75/75/75 80/80/80 79/79/79
f 81/81/81 82/82/82 86/86/86
f 81/81/81 86/86/86 85/85/85
f 82/82/82 83/83/83 87/87/87
f 82/82/82 87/87/87 86/86/86
f 83/83/83 84/84/84 88/88/88
f 83/83/83 88/88/88 87/87/87
f 85/85/85 86/86/86 90/90/90
f 85/85/85 90/90/90 89/89/89
f 86/86/86 87/87/87 91/91/91
f 86/86/86 91/91/91 90/90/90
f 87/87/87 88/88/88 92/92/92
f 87/87/87 92/92/92 91/91/91
f 89/89/89 90/90/90 94/94/94
f 89/89/89 94/94/94 93/93/93
f 90/90/90 91/91/91 95/95/95
f 90/90/90 95/95/95 94/94/94
f 91/91/91 92/92/92 96/96/96
f 91/91/91 96/96/96 95/95/95
usemtl frame
f 97/97/97 98/98/98 102/102/102
f 97/97/97 102/102/102 101/101/101
f 98/98/98 99/99/99 103/103/103
f 98/98/98 103/103/103 102/102/102
f 99/99/99 100/100/100 104/104/104
f 99/99/99 104/104/104 103/103/103
f 101/101/101 102/102/102 106/106/106
f 101/101/101 106/106/106 105/105/105
f 102/102/102 103/103/103 107/107/107
f 102/102/102 107/107/107 106/106/106
f 103/103/103 104/104/104 108/108/108
f 103/103/103 108/108/108 107/107/107
f 105/105/105 106/106/106 110/110/110
f 105/105/105 110/110/110 109/109/109
f 106/106/106 107/107/107 111/111/111
f 106/106/106 111/111/111 110/110/110
f 107/107/107 108/108/108 112/112/112
f 107/107/107 112/112/112 111/111/111
f 113/113/113 114/114/114 118/118/118
f 113/113/113 118/118/118 117/117/117
f 114/114/114 115/115/115 119/119/119
f 114/114/114 119/119/119 118/118/118
f 115/115/115 116/116/116 120/120/120
f 115/115/115 120/120/120 119/119/119
f 117/117/117 118/118/118 122/122/122
f 117/117/117 122/122/122 121/121/121
f 118/118/118 119/119/119 123/123/123
f 118/118/118 123/123/123 122/122/122
f 119/119/119 120/120/120 124/124/124
f 119/119/119 124/124/124 123/123/123
f 121/121/121 122/122/122 126/126/126
f 121/121/121 126/126/126 125/125/125
f 122/122/122 123/123/123 127/127/127
f 122/122/122 127/127/127 126/126/126
f 123/123/123 124/124/124 128/128/128
f 123/123/123 128/128/128 127/127/127
f 129/129/129 130/130/130 134/134/134
f 129/129/129 134/134/134 133/133/133
f 130/130/130 131/131/131 135/135/135
f 130/130/130 135/135/135 134/134/134
f 131/131/131 132/132/132 136/136/136
f 131/131/131 136/136/136 135/135/135
f 133/133/133 134/134/134 138/138/138
f 133/133/133 138/138/138 137/137/137
f 134/134/134 135/135/135 139/139/139
f 134/134/134 139/139/139 138/138/138
f 135/135/135 136/136/136 140/140/140
f 135/135/135 140/140/140 139/139/139
f 137/137/137 138/138/138 142/142/142
f 137/137/137 142/142/142 141/141/141
f 138/138/138 139/139/139 143/143/143
f 138/138/138 143/143/143 142/142/142
f 139/139/139 140/140/140 144/144/144
f 139/139/139 144/144/144 143/143/143
f 145/145/145 146/146/146 150/150/150
f 145/145/145 150/150/150 149/149/149
f 146/146/146 147/147/147 151/151/151
f 146/146/146 151/151/151 150/150/150
f 147/147/147 148/148/148 152/152/152
f 147/147/147 152/152/152 151/151/151
f 149/149/149 150/150/150 154/154/154
f 149/149/149 154/154/154 153/153/153
f 150/150/150 151/151/151 155/155/155
f 150/150/150 155/155/155 154/154/154
f 151/151/151 152/152/152 156/156/156
f 151/151/151 156/156/156 155/155/155
f 153/153/153 154/154/154 158/158/158
f 153/153/153 158/158/158 157/157/157
f 154/154/154 155/155/155 159/159/159
f 154/154/154 159/159/159 158/158/158
f 155/155/155 156/156/156 160/160/160
f 155/155/155 160/160/160 159/159/159
f 161/161/161 162/162/162 166/166/166
f 161/161/161 166/166/166 165/165/165
f 162/162/162 163/163/163 167/167/167
f 162/162/162 167/167/167 166/166/166
f 163/163/163 164/164/164 168/168/168
f 163/163/163 168/168/168 167/167/167
f 165/165/165 166/166/166 170/170/170
f 165/165/165 170/170/170 169/169/169
f 166/166/166 167/167/167 171/171/171
f 166/166/166 171/171/171 170/170/170
f 167/167/167 168/168/168 172/172/172
f 167/167/167 172/172/172 171/171/171
f 169/169/169 170/170/170 174/174/174
f 169/169/169 174/174/174 173/173/173
f 170/170/170 171/171/171 175/175/175
f 170/170/170 175/175/175 174/174/174
f 171/171/171 172/172/172 176/176/176
f 171/171/171 176/176/176 175/175/175
f 177/177/177 178/178/178 182/182/182
f 177/177/177 182/182/182 181/181/181
f 178/178/178 179/179/179 183/183/183
f 178/178/178 183/183/183 182/182/182
f 179/179/179 180/180/180 184/184/184
f 179/179/179 184/184/184 183/183/183
f 181/181/181 182/182/182 186/186/186
f 181/181/181 186/186/186 185/185/185
f 182/182/182 183/183/183 187/187/187
f 182/182/182 187/187/187 186/186/186
f 183/183/183 184/184/184 188/188/188
f 183/183/183 188/188/188 187/187/187
f 185/185/185 186/186/186 190/190/190
f 185/185/185 190/190/190 189/189/189
f 186/186/186 187/187/187 191/191/191
f 186/186/186 191/191/191 190/190/190
f 187/187/187 188/188/188 192/192/192
f 187/187/187 192/192/192 191/191/191
