# Sinh tự động bởi tools/mesh_kit.py - đừng sửa tay
o bus_ceiling_lights
v 0.0799 2.1106 -1.8751
v 0.0815 2.1090 -1.8820
v 0.0815 2.1090 -3.1180
v 0.0799 2.1106 -3.1249
v 0.0815 2.1175 -1.8735
v 0.0850 2.1175 -1.8820
v 0.0850 2.1175 -3.1180
v 0.0815 2.1175 -3.1265
v 0.0815 2.1385 -1.8735
v 0.0850 2.1385 -1.8820
v 0.0850 2.1385 -3.1180
v 0.0815 2.1385 -3.1265
v 0.0799 2.1454 -1.8751
v 0.0815 2.1470 -1.8820
v 0.0815 2.1470 -3.1180
v 0.0799 2.1454 -3.1249
v -0.0799 2.1106 -3.1249
v -0.0815 2.1090 -3.1180
v -0.0815 2.1090 -1.8820
v -0.0799 2.1106 -1.8751
v -0.0815 2.1175 -3.1265
v -0.0850 2.1175 -3.1180
v -0.0850 2.1175 -1.8820
v -0.0815 2.1175 -1.8735
v -0.0815 2.1385 -3.1265
v -0.0850 2.1385 -3.1180
v -0.0850 2.1385 -1.8820
v -0.0815 2.1385 -1.8735
v -0.0799 2.1454 -3.1249
v -0.0815 2.1470 -3.1180
v -0.0815 2.1470 -1.8820
v -0.0799 2.1454 -1.8751
v -0.0799 2.1454 -1.8751
v -0.0730 2.1470 -1.8735
v 0.0730 2.1470 -1.8735
v 0.0799 2.1454 -1.8751
v -0.0815 2.1470 -1.8820
v -0.0730 2.1505 -1.8820
v 0.0730 2.1505 -1.8820
v 0.0815 2.1470 -1.8820
v -0.0815 2.1470 -3.1180
v -0.0730 2.1505 -3.1180
v 0.0730 2.1505 -3.1180
v 0.0815 2.1470 -3.1180
v -0.0799 2.1454 -3.1249
v -0.0730 2.1470 -3.1265
v 0.0730 2.1470 -3.1265
v 0.0799 2.1454 -3.1249
v -0.0799 2.1106 -3.1249
v -0.0730 2.1090 -3.1265
v 0.0730 2.1090 -3.1265
v 0.0799 2.1106 -3.1249
v -0.0815 2.1090 -3.1180
v -0.0730 2.1055 -3.1180
v 0.0730 2.1055 -3.1180
v 0.0815 2.1090 -3.1180
v -0.0815 2.1090 -1.8820
v -0.0730 2.1055 -1.8820
v 0.0730 2.1055 -1.8820
v 0.0815 2.1090 -1.8820
v -0.0799 2.1106 -1.8751
v -0.0730 2.1090 -1.8735
v 0.0730 2.1090 -1.8735
v 0.0799 2.1106 -1.8751
v -0.0799 2.1106 -1.8751
v -0.0730 2.1090 -1.8735
v 0.0730 2.1090 -1.8735
v 0.0799 2.1106 -1.8751
v -0.0815 2.1175 -1.8735
v -0.0730 2.1175 -1.8700
v 0.0730 2.1175 -1.8700
v 0.0815 2.1175 -1.8735
v -0.0815 2.1385 -1.8735
v -0.0730 2.1385 -1.8700
v 0.0730 2.1385 -1.8700
v 0.0815 2.1385 -1.8735
v -0.0799 2.1454 -1.8751
v -0.0730 2.1470 -1.8735
v 0.0730 2.1470 -1.8735
v 0.0799 2.1454 -1.8751
v 0.0799 2.1106 -3.1249
v 0.0730 2.1090 -3.1265
v -0.0730 2.1090 -3.1265
v -0.0799 2.1106 -3.1249
v 0.0815 2.1175 -3.1265
v 0.0730 2.1175 -3.1300
v -0.0730 2.1175 -3.1300
v -0.0815 2.1175 -3.1265
v 0.0815 2.1385 -3.1265
v 0.0730 2.1385 -3.1300
v -0.0730 2.1385 -3.1300
v -0.0815 2.1385 -3.1265
v 0.0799 2.1454 -3.1249
v 0.0730 2.1470 -3.1265
v -0.0730 2.1470 -3.1265
v -0.0799 2.1454 -3.1249
v 0.0799 2.1106 1.1249
v 0.0815 2.1090 1.1180
v 0.0815 2.1090 -0.1180
v 0.0799 2.1106 -0.1249
v 0.0815 2.1175 1.1265
v 0.0850 2.1175 1.1180
v 0.0850 2.1175 -0.1180
v 0.0815 2.1175 -0.1265
v 0.0815 2.1385 1.1265
v 0.0850 2.1385 1.1180
v 0.0850 2.1385 -0.1180
v 0.0815 2.1385 -0.1265
v 0.0799 2.1454 1.1249
v 0.0815 2.1470 1.1180
v 0.0815 2.1470 -0.1180
v 0.0799 2.1454 -0.1249
v -0.0799 2.1106 -0.1249
v -0.0815 2.1090 -0.1180
v -0.0815 2.1090 1.1180
v -0.0799 2.1106 1.1249
v -0.0815 2.1175 -0.1265
v -0.0850 2.1175 -0.1180
v -0.0850 2.1175 1.1180
v -0.0815 2.1175 1.1265
v -0.0815 2.1385 -0.1265
v -0.0850 2.1385 -0.1180
v -0.0850 2.1385 1.1180
v -0.0815 2.1385 1.1265
v -0.0799 2.1454 -0.1249
v -0.0815 2.1470 -0.1180
v -0.0815 2.1470 1.1180
v -0.0799 2.1454 1.1249
v -0.0799 2.1454 1.1249
v -0.0730 2.1470 1.1265
v 0.0730 2.1470 1.1265
v 0.0799 2.1454 1.1249
v -0.0815 2.1470 1.1180
v -0.0730 2.1505 1.1180
v 0.0730 2.1505 1.1180
v 0.0815 2.1470 1.1180
v -0.0815 2.1470 -0.1180
v -0.0730 2.1505 -0.1180
v 0.0730 2.1505 -0.1180
v 0.0815 2.1470 -0.1180
v -0.0799 2.1454 -0.1249
v -0.0730 2.1470 -0.1265
v 0.0730 2.1470 -0.1265
v 0.0799 2.1454 -0.1249
v -0.0799 2.1106 -0.1249
v -0.0730 2.1090 -0.1265
v 0.0730 2.1090 -0.1265
v 0.0799 2.1106 -0.1249
v -0.0815 2.1090 -0.1180
v -0.0730 2.1055 -0.1180
v 0.0730 2.1055 -0.1180
v 0.0815 2.1090 -0.1180
v -0.0815 2.1090 1.1180
v -0.0730 2.1055 1.1180
v 0.0730 2.1055 1.1180
v 0.0815 2.1090 1.1180
v -0.0799 2.1106 1.1249
v -0.0730 2.1090 1.1265
v 0.0730 2.1090 1.1265
v 0.0799 2.1106 1.1249
v -0.0799 2.1106 1.1249
v -0.0730 2.1090 1.1265
v 0.0730 2.1090 1.1265
v 0.0799 2.1106 1.1249
v -0.0815 2.1175 1.1265
v -0.0730 2.1175 1.1300
v 0.0730 2.1175 1.1300
v 0.0815 2.1175 1.1265
v -0.0815 2.1385 1.1265
v -0.0730 2.1385 1.1300
v 0.0730 2.1385 1.1300
v 0.0815 2.1385 1.1265
v -0.0799 2.1454 1.1249
v -0.0730 2.1470 1.1265
v 0.0730 2.1470 1.1265
v 0.0799 2.1454 1.1249
v 0.0799 2.1106 -0.1249
v 0.0730 2.1090 -0.1265
v -0.0730 2.1090 -0.1265
v -0.0799 2.1106 -0.1249
v 0.0815 2.1175 -0.1265
v 0.0730 2.1175 -0.1300
v -0.0730 2.1175 -0.1300
v -0.0815 2.1175 -0.1265
v 0.0815 2.1385 -0.1265
v 0.0730 2.1385 -0.1300
v -0.0730 2.1385 -0.1300
v -0.0815 2.1385 -0.1265
v 0.0799 2.1454 -0.1249
v 0.0730 2.1470 -0.1265
v -0.0730 2.1470 -0.1265
v -0.0799 2.1454 -0.1249
v 0.0799 2.1106 3.6249
v 0.0815 2.1090 3.6180
v 0.0815 2.1090 2.3820
v 0.0799 2.1106 2.3751
v 0.0815 2.1175 3.6265
v 0.0850 2.1175 3.6180
v 0.0850 2.1175 2.3820
v 0.0815 2.1175 2.3735
v 0.0815 2.1385 3.6265
v 0.0850 2.1385 3.6180
v 0.0850 2.1385 2.3820
v 0.0815 2.1385 2.3735
v 0.0799 2.1454 3.6249
v 0.0815 2.1470 3.6180
v 0.0815 2.1470 2.3820
v 0.0799 2.1454 2.3751
v -0.0799 2.1106 2.3751
v -0.0815 2.1090 2.3820
v -0.0815 2.1090 3.6180
v -0.0799 2.1106 3.6249
v -0.0815 2.1175 2.3735
v -0.0850 2.1175 2.3820
v -0.0850 2.1175 3.6180
v -0.0815 2.1175 3.6265
v -0.0815 2.1385 2.3735
v -0.0850 2.1385 2.3820
v -0.0850 2.1385 3.6180
v -0.0815 2.1385 3.6265
v -0.0799 2.1454 2.3751
v -0.0815 2.1470 2.3820
v -0.0815 2.1470 3.6180
v -0.0799 2.1454 3.6249
v -0.0799 2.1454 3.6249
v -0.0730 2.1470 3.6265
v 0.0730 2.1470 3.6265
v 0.0799 2.1454 3.6249
v -0.0815 2.1470 3.6180
v -0.0730 2.1505 3.6180
v 0.0730 2.1505 3.6180
v 0.0815 2.1470 3.6180
v -0.0815 2.1470 2.3820
v -0.0730 2.1505 2.3820
v 0.0730 2.1505 2.3820
v 0.0815 2.1470 2.3820
v -0.0799 2.1454 2.3751
v -0.0730 2.1470 2.3735
v 0.0730 2.1470 2.3735
v 0.0799 2.1454 2.3751
v -0.0799 2.1106 2.3751
v -0.0730 2.1090 2.3735
v 0.0730 2.1090 2.3735
v 0.0799 2.1106 2.3751
v -0.0815 2.1090 2.3820
v -0.0730 2.1055 2.3820
v 0.0730 2.1055 2.3820
v 0.0815 2.1090 2.3820
v -0.0815 2.1090 3.6180
v -0.0730 2.1055 3.6180
v 0.0730 2.1055 3.6180
v 0.0815 2.1090 3.6180
v -0.0799 2.1106 3.6249
v -0.0730 2.1090 3.6265
v 0.0730 2.1090 3.6265
v 0.0799 2.1106 3.6249
v -0.0799 2.1106 3.6249
v -0.0730 2.1090 3.6265
v 0.0730 2.1090 3.6265
v 0.0799 2.1106 3.6249
v -0.0815 2.1175 3.6265
v -0.0730 2.1175 3.6300
v 0.0730 2.1175 3.6300
v 0.0815 2.1175 3.6265
v -0.0815 2.1385 3.6265
v -0.0730 2.1385 3.6300
v 0.0730 2.1385 3.6300
v 0.0815 2.1385 3.6265
v -0.0799 2.1454 3.6249
v -0.0730 2.1470 3.6265
v 0.0730 2.1470 3.6265
v 0.0799 2.1454 3.6249
v 0.0799 2.1106 2.3751
v 0.0730 2.1090 2.3735
v -0.0730 2.1090 2.3735
v -0.0799 2.1106 2.3751
v 0.0815 2.1175 2.3735
v 0.0730 2.1175 2.3700
v -0.0730 2.1175 2.3700
v -0.0815 2.1175 2.3735
v 0.0815 2.1385 2.3735
v 0.0730 2.1385 2.3700
v -0.0730 2.1385 2.3700
v -0.0815 2.1385 2.3735
v 0.0799 2.1454 2.3751
v 0.0730 2.1470 2.3735
v -0.0730 2.1470 2.3735
v -0.0799 2.1454 2.3751
v 0.0000 2.1380 -1.0000
v 0.0700 2.1380 -1.0000
v 0.0750 2.1500 -1.0000
v 0.0000 2.1500 -1.0000
v 0.0000 2.1380 -1.0000
v 0.0658 2.1380 -1.0239
v 0.0705 2.1500 -1.0257
v 0.0000 2.1500 -1.0000
v 0.0000 2.1380 -1.0000
v 0.0536 2.1380 -1.0450
v 0.0575 2.1500 -1.0482
v 0.0000 2.1500 -1.0000
v 0.0000 2.1380 -1.0000
v 0.0350 2.1380 -1.0606
v 0.0375 2.1500 -1.0650
v 0.0000 2.1500 -1.0000
v 0.0000 2.1380 -1.0000
v 0.0122 2.1380 -1.0689
v 0.0130 2.1500 -1.0739
v 0.0000 2.1500 -1.0000
v 0.0000 2.1380 -1.0000
v -0.0122 2.1380 -1.0689
v -0.0130 2.1500 -1.0739
v 0.0000 2.1500 -1.0000
v 0.0000 2.1380 -1.0000
v -0.0350 2.1380 -1.0606
v -0.0375 2.1500 -1.0650
v 0.0000 2.1500 -1.0000
v 0.0000 2.1380 -1.0000
v -0.0536 2.1380 -1.0450
v -0.0575 2.1500 -1.0482
v 0.0000 2.1500 -1.0000
v 0.0000 2.1380 -1.0000
v -0.0658 2.1380 -1.0239
v -0.0705 2.1500 -1.0257
v 0.0000 2.1500 -1.0000
v 0.0000 2.1380 -1.0000
v -0.0700 2.1380 -1.0000
v -0.0750 2.1500 -1.0000
v 0.0000 2.1500 -1.0000
v 0.0000 2.1380 -1.0000
v -0.0658 2.1380 -0.9761
v -0.0705 2.1500 -0.9743
v 0.0000 2.1500 -1.0000
v 0.0000 2.1380 -1.0000
v -0.0536 2.1380 -0.9550
v -0.0575 2.1500 -0.9518
v 0.0000 2.1500 -1.0000
v 0.0000 2.1380 -1.0000
v -0.0350 2.1380 -0.9394
v -0.0375 2.1500 -0.9350
v 0.0000 2.1500 -1.0000
v 0.0000 2.1380 -1.0000
v -0.0122 2.1380 -0.9311
v -0.0130 2.1500 -0.9261
v 0.0000 2.1500 -1.0000
v 0.0000 2.1380 -1.0000
v 0.0122 2.1380 -0.9311
v 0.0130 2.1500 -0.9261
v 0.0000 2.1500 -1.0000
v 0.0000 2.1380 -1.0000
v 0.0350 2.1380 -0.9394
v 0.0375 2.1500 -0.9350
v 0.0000 2.1500 -1.0000
v 0.0000 2.1380 -1.0000
v 0.0536 2.1380 -0.9550
v 0.0575 2.1500 -0.9518
v 0.0000 2.1500 -1.0000
v 0.0000 2.1380 -1.0000
v 0.0658 2.1380 -0.9761
v 0.0705 2.1500 -0.9743
v 0.0000 2.1500 -1.0000
v 0.0000 2.1380 -1.0000
v 0.0700 2.1380 -1.0000
v 0.0750 2.1500 -1.0000
v 0.0000 2.1500 -1.0000
v 0.0000 2.1380 1.9000
v 0.0700 2.1380 1.9000
v 0.0750 2.1500 1.9000
v 0.0000 2.1500 1.9000
v 0.0000 2.1380 1.9000
v 0.0658 2.1380 1.8761
v 0.0705 2.1500 1.8743
v 0.0000 2.1500 1.9000
v 0.0000 2.1380 1.9000
v 0.0536 2.1380 1.8550
v 0.0575 2.1500 1.8518
v 0.0000 2.1500 1.9000
v 0.0000 2.1380 1.9000
v 0.0350 2.1380 1.8394
v 0.0375 2.1500 1.8350
v 0.0000 2.1500 1.9000
v 0.0000 2.1380 1.9000
v 0.0122 2.1380 1.8311
v 0.0130 2.1500 1.8261
v 0.0000 2.1500 1.9000
v 0.0000 2.1380 1.9000
v -0.0122 2.1380 1.8311
v -0.0130 2.1500 1.8261
v 0.0000 2.1500 1.9000
v 0.0000 2.1380 1.9000
v -0.0350 2.1380 1.8394
v -0.0375 2.1500 1.8350
v 0.0000 2.1500 1.9000
v 0.0000 2.1380 1.9000
v -0.0536 2.1380 1.8550
v -0.0575 2.1500 1.8518
v 0.0000 2.1500 1.9000
v 0.0000 2.1380 1.9000
v -0.0658 2.1380 1.8761
v -0.0705 2.1500 1.8743
v 0.0000 2.1500 1.9000
v 0.0000 2.1380 1.9000
v -0.0700 2.1380 1.9000
v -0.0750 2.1500 1.9000
v 0.0000 2.1500 1.9000
v 0.0000 2.1380 1.9000
v -0.0658 2.1380 1.9239
v -0.0705 2.1500 1.9257
v 0.0000 2.1500 1.9000
v 0.0000 2.1380 1.9000
v -0.0536 2.1380 1.9450
v -0.0575 2.1500 1.9482
v 0.0000 2.1500 1.9000
v 0.0000 2.1380 1.9000
v -0.0350 2.1380 1.9606
v -0.0375 2.1500 1.9650
v 0.0000 2.1500 1.9000
v 0.0000 2.1380 1.9000
v -0.0122 2.1380 1.9689
v -0.0130 2.1500 1.9739
v 0.0000 2.1500 1.9000
v 0.0000 2.1380 1.9000
v 0.0122 2.1380 1.9689
v 0.0130 2.1500 1.9739
v 0.0000 2.1500 1.9000
v 0.0000 2.1380 1.9000
v 0.0350 2.1380 1.9606
v 0.0375 2.1500 1.9650
v 0.0000 2.1500 1.9000
v 0.0000 2.1380 1.9000
v 0.0536 2.1380 1.9450
v 0.0575 2.1500 1.9482
v 0.0000 2.1500 1.9000
v 0.0000 2.1380 1.9000
v 0.0658 2.1380 1.9239
v 0.0705 2.1500 1.9257
v 0.0000 2.1500 1.9000
v 0.0000 2.1380 1.9000
v 0.0700 2.1380 1.9000
v 0.0750 2.1500 1.9000
v 0.0000 2.1500 1.9000
vt 0.0000 0.0000
vt 0.0120 0.0000
vt 1.2480 0.0000
vt 1.2600 0.0000
vt 0.0000 0.0120
vt 0.0120 0.0120
vt 1.2480 0.0120
vt 1.2600 0.0120
vt 0.0000 0.0330
vt 0.0120 0.0330
vt 1.2480 0.0330
vt 1.2600 0.0330
vt 0.0000 0.0450
vt 0.0120 0.0450
vt 1.2480 0.0450
vt 1.2600 0.0450
vt 0.0000 0.0000
vt 0.0120 0.0000
vt 1.2480 0.0000
vt 1.2600 0.0000
vt 0.0000 0.0120
vt 0.0120 0.0120
vt 1.2480 0.0120
vt 1.2600 0.0120
vt 0.0000 0.0330
vt 0.0120 0.0330
vt 1.2480 0.0330
vt 1.2600 0.0330
vt 0.0000 0.0450
vt 0.0120 0.0450
vt 1.2480 0.0450
vt 1.2600 0.0450
vt 0.0000 0.0000
vt 0.0120 0.0000
vt 0.1580 0.0000
vt 0.1700 0.0000
vt 0.0000 0.0120
vt 0.0120 0.0120
vt 0.1580 0.0120
vt 0.1700 0.0120
vt 0.0000 1.2480
vt 0.0120 1.2480
vt 0.1580 1.2480
vt 0.1700 1.2480
vt 0.0000 1.2600
vt 0.0120 1.2600
vt 0.1580 1.2600
vt 0.1700 1.2600
vt 0.0000 0.0000
vt 0.0120 0.0000
vt 0.1580 0.0000
vt 0.1700 0.0000
vt 0.0000 0.0120
vt 0.0120 0.0120
vt 0.1580 0.0120
vt 0.1700 0.0120
vt 0.0000 1.2480
vt 0.0120 1.2480
vt 0.1580 1.2480
vt 0.1700 1.2480
vt 0.0000 1.2600
vt 0.0120 1.2600
vt 0.1580 1.2600
vt 0.1700 1.2600
vt 0.0000 0.0000
vt 0.0120 0.0000
vt 0.1580 0.0000
vt 0.1700 0.0000
vt 0.0000 0.0120
vt 0.0120 0.0120
vt 0.1580 0.0120
vt 0.1700 0.0120
vt 0.0000 0.0330
vt 0.0120 0.0330
vt 0.1580 0.0330
vt 0.1700 0.0330
vt 0.0000 0.0450
vt 0.0120 0.0450
vt 0.1580 0.0450
vt 0.1700 0.0450
vt 0.0000 0.0000
vt 0.0120 0.0000
vt 0.1580 0.0000
vt 0.1700 0.0000
vt 0.0000 0.0120
vt 0.0120 0.0120
vt 0.1580 0.0120
vt 0.1700 0.0120
vt 0.0000 0.0330
vt 0.0120 0.0330
vt 0.1580 0.0330
vt 0.1700 0.0330
vt 0.0000 0.0450
vt 0.0120 0.0450
vt 0.1580 0.0450
vt 0.1700 0.0450
vt 0.0000 0.0000
vt 0.0120 0.0000
vt 1.2480 0.0000
vt 1.2600 0.0000
vt 0.0000 0.0120
vt 0.0120 0.0120
vt 1.2480 0.0120
vt 1.2600 0.0120
vt 0.0000 0.0330
vt 0.0120 0.0330
vt 1.2480 0.0330
vt 1.2600 0.0330
vt 0.0000 0.0450
vt 0.0120 0.0450
vt 1.2480 0.0450
vt 1.2600 0.0450
vt 0.0000 0.0000
vt 0.0120 0.0000
vt 1.2480 0.0000
vt 1.2600 0.0000
vt 0.0000 0.0120
vt 0.0120 0.0120
vt 1.2480 0.0120
vt 1.2600 0.0120
vt 0.0000 0.0330
vt 0.0120 0.0330
vt 1.2480 0.0330
vt 1.2600 0.0330
vt 0.0000 0.0450
vt 0.0120 0.0450
vt 1.2480 0.0450
vt 1.2600 0.0450
vt 0.0000 0.0000
vt 0.0120 0.0000
vt 0.1580 0.0000
vt 0.1700 0.0000
vt 0.0000 0.0120
vt 0.0120 0.0120
vt 0.1580 0.0120
vt 0.1700 0.0120
vt 0.0000 1.2480
vt 0.0120 1.2480
vt 0.1580 1.2480
vt 0.1700 1.2480
vt 0.0000 1.2600
vt 0.0120 1.2600
vt 0.1580 1.2600
vt 0.1700 1.2600
vt 0.0000 0.0000
vt 0.0120 0.0000
vt 0.1580 0.0000
vt 0.1700 0.0000
vt 0.0000 0.0120
vt 0.0120 0.0120
vt 0.1580 0.0120
vt 0.1700 0.0120
vt 0.0000 1.2480
vt 0.0120 1.2480
vt 0.1580 1.2480
vt 0.1700 1.2480
vt 0.0000 1.2600
vt 0.0120 1.2600
vt 0.1580 1.2600
vt 0.1700 1.2600
vt 0.0000 0.0000
vt 0.0120 0.0000
vt 0.1580 0.0000
vt 0.1700 0.0000
vt 0.0000 0.0120
vt 0.0120 0.0120
vt 0.1580 0.0120
vt 0.1700 0.0120
vt 0.0000 0.0330
vt 0.0120 0.0330
vt 0.1580 0.0330
vt 0.1700 0.0330
vt 0.0000 0.0450
vt 0.0120 0.0450
vt 0.1580 0.0450
vt 0.1700 0.0450
vt 0.0000 0.0000
vt 0.0120 0.0000
vt 0.1580 0.0000
vt 0.1700 0.0000
vt 0.0000 0.0120
vt 0.0120 0.0120
vt 0.1580 0.0120
vt 0.1700 0.0120
vt 0.0000 0.0330
vt 0.0120 0.0330
vt 0.1580 0.0330
vt 0.1700 0.0330
vt 0.0000 0.0450
vt 0.0120 0.0450
vt 0.1580 0.0450
vt 0.1700 0.0450
vt 0.0000 0.0000
vt 0.0120 0.0000
vt 1.2480 0.0000
vt 1.2600 0.0000
vt 0.0000 0.0120
vt 0.0120 0.0120
vt 1.2480 0.0120
vt 1.2600 0.0120
vt 0.0000 0.0330
vt 0.0120 0.0330
vt 1.2480 0.0330
vt 1.2600 0.0330
vt 0.0000 0.0450
vt 0.0120 0.0450
vt 1.2480 0.0450
vt 1.2600 0.0450
vt 0.0000 0.0000
vt 0.0120 0.0000
vt 1.2480 0.0000
vt 1.2600 0.0000
vt 0.0000 0.0120
vt 0.0120 0.0120
vt 1.2480 0.0120
vt 1.2600 0.0120
vt 0.0000 0.0330
vt 0.0120 0.0330
vt 1.2480 0.0330
vt 1.2600 0.0330
vt 0.0000 0.0450
vt 0.0120 0.0450
vt 1.2480 0.0450
vt 1.2600 0.0450
vt 0.0000 0.0000
vt 0.0120 0.0000
vt 0.1580 0.0000
vt 0.1700 0.0000
vt 0.0000 0.0120
vt 0.0120 0.0120
vt 0.1580 0.0120
vt 0.1700 0.0120
vt 0.0000 1.2480
vt 0.0120 1.2480
vt 0.1580 1.2480
vt 0.1700 1.2480
vt 0.0000 1.2600
vt 0.0120 1.2600
vt 0.1580 1.2600
vt 0.1700 1.2600
vt 0.0000 0.0000
vt 0.0120 0.0000
vt 0.1580 0.0000
vt 0.1700 0.0000
vt 0.0000 0.0120
vt 0.0120 0.0120
vt 0.1580 0.0120
vt 0.1700 0.0120
vt 0.0000 1.2480
vt 0.0120 1.2480
vt 0.1580 1.2480
vt 0.1700 1.2480
vt 0.0000 1.2600
vt 0.0120 1.2600
vt 0.1580 1.2600
vt 0.1700 1.2600
vt 0.0000 0.0000
vt 0.0120 0.0000
vt 0.1580 0.0000
vt 0.1700 0.0000
vt 0.0000 0.0120
vt 0.0120 0.0120
vt 0.1580 0.0120
vt 0.1700 0.0120
vt 0.0000 0.0330
vt 0.0120 0.0330
vt 0.1580 0.0330
vt 0.1700 0.0330
vt 0.0000 0.0450
vt 0.0120 0.0450
vt 0.1580 0.0450
vt 0.1700 0.0450
vt 0.0000 0.0000
vt 0.0120 0.0000
vt 0.1580 0.0000
vt 0.1700 0.0000
vt 0.0000 0.0120
vt 0.0120 0.0120
vt 0.1580 0.0120
vt 0.1700 0.0120
vt 0.0000 0.0330
vt 0.0120 0.0330
vt 0.1580 0.0330
vt 0.1700 0.0330
vt 0.0000 0.0450
vt 0.0120 0.0450
vt 0.1580 0.0450
vt 0.1700 0.0450
vt 0.0000 0.0000
vt 0.0000 0.0700
vt 0.0000 0.0830
vt 0.0000 0.1580
vt 0.0262 0.0000
vt 0.0262 0.0700
vt 0.0262 0.0830
vt 0.0262 0.1580
vt 0.0524 0.0000
vt 0.0524 0.0700
vt 0.0524 0.0830
vt 0.0524 0.1580
vt 0.0785 0.0000
vt 0.0785 0.0700
vt 0.0785 0.0830
vt 0.0785 0.1580
vt 0.1047 0.0000
vt 0.1047 0.0700
vt 0.1047 0.0830
vt 0.1047 0.1580
vt 0.1309 0.0000
vt 0.1309 0.0700
vt 0.1309 0.0830
vt 0.1309 0.1580
vt 0.1571 0.0000
vt 0.1571 0.0700
vt 0.1571 0.0830
vt 0.1571 0.1580
vt 0.1833 0.0000
vt 0.1833 0.0700
vt 0.1833 0.0830
vt 0.1833 0.1580
vt 0.2094 0.0000
vt 0.2094 0.0700
vt 0.2094 0.0830
vt 0.2094 0.1580
vt 0.2356 0.0000
vt 0.2356 0.0700
vt 0.2356 0.0830
vt 0.2356 0.1580
vt 0.2618 0.0000
vt 0.2618 0.0700
vt 0.2618 0.0830
vt 0.2618 0.1580
vt 0.2880 0.0000
vt 0.2880 0.0700
vt 0.2880 0.0830
vt 0.2880 0.1580
vt 0.3142 0.0000
vt 0.3142 0.0700
vt 0.3142 0.0830
vt 0.3142 0.1580
vt 0.3403 0.0000
vt 0.3403 0.0700
vt 0.3403 0.0830
vt 0.3403 0.1580
vt 0.3665 0.0000
vt 0.3665 0.0700
vt 0.3665 0.0830
vt 0.3665 0.1580
vt 0.3927 0.0000
vt 0.3927 0.0700
vt 0.3927 0.0830
vt 0.3927 0.1580
vt 0.4189 0.0000
vt 0.4189 0.0700
vt 0.4189 0.0830
vt 0.4189 0.1580
vt 0.4451 0.0000
vt 0.4451 0.0700
vt 0.4451 0.0830
vt 0.4451 0.1580
vt 0.4712 0.0000
vt 0.4712 0.0700
vt 0.4712 0.0830
vt 0.4712 0.1580
vt 0.0000 0.0000
vt 0.0000 0.0700
vt 0.0000 0.0830
vt 0.0000 0.1580
vt 0.0262 0.0000
vt 0.0262 0.0700
vt 0.0262 0.0830
vt 0.0262 0.1580
vt 0.0524 0.0000
vt 0.0524 0.0700
vt 0.0524 0.0830
vt 0.0524 0.1580
vt 0.0785 0.0000
vt 0.0785 0.0700
vt 0.0785 0.0830
vt 0.0785 0.1580
vt 0.1047 0.0000
vt 0.1047 0.0700
vt 0.1047 0.0830
vt 0.1047 0.1580
vt 0.1309 0.0000
vt 0.1309 0.0700
vt 0.1309 0.0830
vt 0.1309 0.1580
vt 0.1571 0.0000
vt 0.1571 0.0700
vt 0.1571 0.0830
vt 0.1571 0.1580
vt 0.1833 0.0000
vt 0.1833 0.0700
vt 0.1833 0.0830
vt 0.1833 0.1580
vt 0.2094 0.0000
vt 0.2094 0.0700
vt 0.2094 0.0830
vt 0.2094 0.1580
vt 0.2356 0.0000
vt 0.2356 0.0700
vt 0.2356 0.0830
vt 0.2356 0.1580
vt 0.2618 0.0000
vt 0.2618 0.0700
vt 0.2618 0.0830
vt 0.2618 0.1580
vt 0.2880 0.0000
vt 0.2880 0.0700
vt 0.2880 0.0830
vt 0.2880 0.1580
vt 0.3142 0.0000
vt 0.3142 0.0700
vt 0.3142 0.0830
vt 0.3142 0.1580
vt 0.3403 0.0000
vt 0.3403 0.0700
vt 0.3403 0.0830
vt 0.3403 0.1580
vt 0.3665 0.0000
vt 0.3665 0.0700
vt 0.3665 0.0830
vt 0.3665 0.1580
vt 0.3927 0.0000
vt 0.3927 0.0700
vt 0.3927 0.0830
vt 0.3927 0.1580
vt 0.4189 0.0000
vt 0.4189 0.0700
vt 0.4189 0.0830
vt 0.4189 0.1580
vt 0.4451 0.0000
vt 0.4451 0.0700
vt 0.4451 0.0830
vt 0.4451 0.1580
vt 0.4712 0.0000
vt 0.4712 0.0700
vt 0.4712 0.0830
vt 0.4712 0.1580
vn 0.577 -0.577 0.577
vn 0.707 -0.707 0.000
vn 0.707 -0.707 0.000
vn 0.577 -0.577 -0.577
vn 0.707 0.000 0.707
vn 1.000 0.000 0.000
vn 1.000 0.000 0.000
vn 0.707 0.000 -0.707
vn 0.707 0.000 0.707
vn 1.000 0.000 0.000
vn 1.000 0.000 0.000
vn 0.707 0.000 -0.707
vn 0.577 0.577 0.577
vn 0.707 0.707 0.000
vn 0.707 0.707 0.000
vn 0.577 0.577 -0.577
vn -0.577 -0.577 -0.577
vn -0.707 -0.707 0.000
vn -0.707 -0.707 0.000
vn -0.577 -0.577 0.577
vn -0.707 0.000 -0.707
vn -1.000 0.000 0.000
vn -1.000 0.000 0.000
vn -0.707 0.000 0.707
vn -0.707 0.000 -0.707
vn -1.000 0.000 0.000
vn -1.000 0.000 0.000
vn -0.707 0.000 0.707
vn -0.577 0.577 -0.577
vn -0.707 0.707 0.000
vn -0.707 0.707 0.000
vn -0.577 0.577 0.577
vn -0.577 0.577 0.577
vn 0.000 0.707 0.707
vn 0.000 0.707 0.707
vn 0.577 0.577 0.577
vn -0.707 0.707 0.000
vn 0.000 1.000 0.000
vn 0.000 1.000 0.000
vn 0.707 0.707 0.000
vn -0.707 0.707 0.000
vn 0.000 1.000 0.000
vn 0.000 1.000 0.000
vn 0.707 0.707 0.000
vn -0.577 0.577 -0.577
vn 0.000 0.707 -0.707
vn 0.000 0.707 -0.707
vn 0.577 0.577 -0.577
vn -0.577 -0.577 -0.577
vn 0.000 -0.707 -0.707
vn 0.000 -0.707 -0.707
vn 0.577 -0.577 -0.577
vn -0.707 -0.707 0.000
vn 0.000 -1.000 0.000
vn 0.000 -1.000 0.000
vn 0.707 -0.707 0.000
vn -0.707 -0.707 0.000
vn 0.000 -1.000 0.000
vn 0.000 -1.000 0.000
vn 0.707 -0.707 0.000
vn -0.577 -0.577 0.577
vn 0.000 -0.707 0.707
vn 0.000 -0.707 0.707
vn 0.577 -0.577 0.577
vn -0.577 -0.577 0.577
vn 0.000 -0.707 0.707
vn 0.000 -0.707 0.707
vn 0.577 -0.577 0.577
vn -0.707 0.000 0.707
vn 0.000 0.000 1.000
vn 0.000 0.000 1.000
vn 0.707 0.000 0.707
vn -0.707 0.000 0.707
vn 0.000 0.000 1.000
vn 0.000 0.000 1.000
vn 0.707 0.000 0.707
vn -0.577 0.577 0.577
vn 0.000 0.707 0.707
vn 0.000 0.707 0.707
vn 0.577 0.577 0.577
vn 0.577 -0.577 -0.577
vn 0.000 -0.707 -0.707
vn 0.000 -0.707 -0.707
vn -0.577 -0.577 -0.577
vn 0.707 0.000 -0.707
vn 0.000 0.000 -1.000
vn 0.000 0.000 -1.000
vn -0.707 0.000 -0.707
vn 0.707 0.000 -0.707
vn 0.000 0.000 -1.000
vn 0.000 0.000 -1.000
vn -0.707 0.000 -0.707
vn 0.577 0.577 -0.577
vn 0.000 0.707 -0.707
vn 0.000 0.707 -0.707
vn -0.577 0.577 -0.577
vn 0.577 -0.577 0.577
vn 0.707 -0.707 0.000
vn 0.707 -0.707 0.000
vn 0.577 -0.577 -0.577
vn 0.707 0.000 0.707
vn 1.000 0.000 0.000
vn 1.000 0.000 0.000
vn 0.707 0.000 -0.707
vn 0.707 0.000 0.707
vn 1.000 0.000 0.000
vn 1.000 0.000 0.000
vn 0.707 0.000 -0.707
vn 0.577 0.577 0.577
vn 0.707 0.707 0.000
vn 0.707 0.707 0.000
vn 0.577 0.577 -0.577
vn -0.577 -0.577 -0.577
vn -0.707 -0.707 0.000
vn -0.707 -0.707 0.000
vn -0.577 -0.577 0.577
vn -0.707 0.000 -0.707
vn -1.000 0.000 0.000
vn -1.000 0.000 0.000
vn -0.707 0.000 0.707
vn -0.707 0.000 -0.707
vn -1.000 0.000 0.000
vn -1.000 0.000 0.000
vn -0.707 0.000 0.707
vn -0.577 0.577 -0.577
vn -0.707 0.707 0.000
vn -0.707 0.707 0.000
vn -0.577 0.577 0.577
vn -0.577 0.577 0.577
vn 0.000 0.707 0.707
vn 0.000 0.707 0.707
vn 0.577 0.577 0.577
vn -0.707 0.707 0.000
vn 0.000 1.000 0.000
vn 0.000 1.000 0.000
vn 0.707 0.707 0.000
vn -0.707 0.707 0.000
vn 0.000 1.000 0.000
vn 0.000 1.000 0.000
vn 0.707 0.707 0.000
vn -0.577 0.577 -0.577
vn 0.000 0.707 -0.707
vn 0.000 0.707 -0.707
vn 0.577 0.577 -0.577
vn -0.577 -0.577 -0.577
vn 0.000 -0.707 -0.707
vn 0.000 -0.707 -0.707
vn 0.577 -0.577 -0.577
vn -0.707 -0.707 0.000
vn 0.000 -1.000 0.000
vn 0.000 -1.000 0.000
vn 0.707 -0.707 0.000
vn -0.707 -0.707 0.000
vn 0.000 -1.000 0.000
vn 0.000 -1.000 0.000
vn 0.707 -0.707 0.000
vn -0.577 -0.577 0.577
vn 0.000 -0.707 0.707
vn 0.000 -0.707 0.707
vn 0.577 -0.577 0.577
vn -0.577 -0.577 0.577
vn 0.000 -0.707 0.707
vn 0.000 -0.707 0.707
vn 0.577 -0.577 0.577
vn -0.707 0.000 0.707
vn 0.000 0.000 1.000
vn 0.000 0.000 1.000
vn 0.707 0.000 0.707
vn -0.707 0.000 0.707
vn 0.000 0.000 1.000
vn 0.000 0.000 1.000
vn 0.707 0.000 0.707
vn -0.577 0.577 0.577
vn 0.000 0.707 0.707
vn 0.000 0.707 0.707
vn 0.577 0.577 0.577
vn 0.577 -0.577 -0.577
vn 0.000 -0.707 -0.707
vn 0.000 -0.707 -0.707
vn -0.577 -0.577 -0.577
vn 0.707 0.000 -0.707
vn 0.000 0.000 -1.000
vn 0.000 0.000 -1.000
vn -0.707 0.000 -0.707
vn 0.707 0.000 -0.707
vn 0.000 0.000 -1.000
vn 0.000 0.000 -1.000
vn -0.707 0.000 -0.707
vn 0.577 0.577 -0.577
vn 0.000 0.707 -0.707
vn 0.000 0.707 -0.707
vn -0.577 0.577 -0.577
vn 0.577 -0.577 0.577
vn 0.707 -0.707 0.000
vn 0.707 -0.707 0.000
vn 0.577 -0.577 -0.577
vn 0.707 0.000 0.707
vn 1.000 0.000 0.000
vn 1.000 0.000 0.000
vn 0.707 0.000 -0.707
vn 0.707 0.000 0.707
vn 1.000 0.000 0.000
vn 1.000 0.000 0.000
vn 0.707 0.000 -0.707
vn 0.577 0.577 0.577
vn 0.707 0.707 0.000
vn 0.707 0.707 0.000
vn 0.577 0.577 -0.577
vn -0.577 -0.577 -0.577
vn -0.707 -0.707 0.000
vn -0.707 -0.707 0.000
vn -0.577 -0.577 0.577
vn -0.707 0.000 -0.707
vn -1.000 0.000 0.000
vn -1.000 0.000 0.000
vn -0.707 0.000 0.707
vn -0.707 0.000 -0.707
vn -1.000 0.000 0.000
vn -1.000 0.000 0.000
vn -0.707 0.000 0.707
vn -0.577 0.577 -0.577
vn -0.707 0.707 0.000
vn -0.707 0.707 0.000
vn -0.577 0.577 0.577
vn -0.577 0.577 0.577
vn 0.000 0.707 0.707
vn 0.000 0.707 0.707
vn 0.577 0.577 0.577
vn -0.707 0.707 0.000
vn 0.000 1.000 0.000
vn 0.000 1.000 0.000
vn 0.707 0.707 0.000
vn -0.707 0.707 0.000
vn 0.000 1.000 0.000
vn 0.000 1.000 0.000
vn 0.707 0.707 0.000
vn -0.577 0.577 -0.577
vn 0.000 0.707 -0.707
vn 0.000 0.707 -0.707
vn 0.577 0.577 -0.577
vn -0.577 -0.577 -0.577
vn 0.000 -0.707 -0.707
vn 0.000 -0.707 -0.707
vn 0.577 -0.577 -0.577
vn -0.707 -0.707 0.000
vn 0.000 -1.000 0.000
vn 0.000 -1.000 0.000
vn 0.707 -0.707 0.000
vn -0.707 -0.707 0.000
vn 0.000 -1.000 0.000
vn 0.000 -1.000 0.000
vn 0.707 -0.707 0.000
vn -0.577 -0.577 0.577
vn 0.000 -0.707 0.707
vn 0.000 -0.707 0.707
vn 0.577 -0.577 0.577
vn -0.577 -0.577 0.577
vn 0.000 -0.707 0.707
vn 0.000 -0.707 0.707
vn 0.577 -0.577 0.577
vn -0.707 0.000 0.707
vn 0.000 0.000 1.000
vn 0.000 0.000 1.000
vn 0.707 0.000 0.707
vn -0.707 0.000 0.707
vn 0.000 0.000 1.000
vn 0.000 0.000 1.000
vn 0.707 0.000 0.707
vn -0.577 0.577 0.577
vn 0.000 0.707 0.707
vn 0.000 0.707 0.707
vn 0.577 0.577 0.577
vn 0.577 -0.577 -0.577
vn 0.000 -0.707 -0.707
vn 0.000 -0.707 -0.707
vn -0.577 -0.577 -0.577
vn 0.707 0.000 -0.707
vn 0.000 0.000 -1.000
vn 0.000 0.000 -1.000
vn -0.707 0.000 -0.707
vn 0.707 0.000 -0.707
vn 0.000 0.000 -1.000
vn 0.000 0.000 -1.000
vn -0.707 0.000 -0.707
vn 0.577 0.577 -0.577
vn 0.000 0.707 -0.707
vn 0.000 0.707 -0.707
vn -0.577 0.577 -0.577
vn 0.000 -1.000 0.000
vn 0.158 -0.987 0.000
vn 0.169 0.986 0.000
vn 0.000 1.000 0.000
vn 0.000 -1.000 0.000
vn 0.148 -0.987 -0.054
vn 0.159 0.986 -0.058
vn 0.000 1.000 0.000
vn 0.000 -1.000 0.000
vn 0.121 -0.987 -0.102
vn 0.129 0.986 -0.109
vn 0.000 1.000 0.000
vn 0.000 -1.000 0.000
vn 0.079 -0.987 -0.137
vn 0.084 0.986 -0.146
vn 0.000 1.000 0.000
vn 0.000 -1.000 0.000
vn 0.027 -0.987 -0.156
vn 0.029 0.986 -0.166
vn 0.000 1.000 0.000
vn -0.000 -1.000 -0.000
vn -0.027 -0.987 -0.156
vn -0.029 0.986 -0.166
vn 0.000 1.000 0.000
vn -0.000 -1.000 -0.000
vn -0.079 -0.987 -0.137
vn -0.084 0.986 -0.146
vn 0.000 1.000 0.000
vn -0.000 -1.000 -0.000
vn -0.121 -0.987 -0.102
vn -0.129 0.986 -0.109
vn 0.000 1.000 0.000
vn -0.000 -1.000 -0.000
vn -0.148 -0.987 -0.054
vn -0.159 0.986 -0.058
vn 0.000 1.000 0.000
vn -0.000 -1.000 -0.000
vn -0.158 -0.987 -0.000
vn -0.169 0.986 -0.000
vn 0.000 1.000 0.000
vn 0.000 -1.000 0.000
vn -0.148 -0.987 0.054
vn -0.159 0.986 0.058
vn 0.000 1.000 0.000
vn 0.000 -1.000 0.000
vn -0.121 -0.987 0.102
vn -0.129 0.986 0.109
vn 0.000 1.000 0.000
vn 0.000 -1.000 0.000
vn -0.079 -0.987 0.137
vn -0.084 0.986 0.146
vn 0.000 1.000 0.000
vn 0.000 -1.000 0.000
vn -0.027 -0.987 0.156
vn -0.029 0.986 0.166
vn 0.000 1.000 0.000
vn 0.000 -1.000 0.000
vn 0.027 -0.987 0.156
vn 0.029 0.986 0.166
vn 0.000 1.000 0.000
vn 0.000 -1.000 0.000
vn 0.079 -0.987 0.137
vn 0.084 0.986 0.146
vn 0.000 1.000 0.000
vn 0.000 -1.000 0.000
vn 0.121 -0.987 0.102
vn 0.129 0.986 0.109
vn 0.000 1.000 0.000
vn 0.000 -1.000 0.000
vn 0.148 -0.987 0.054
vn 0.159 0.986 0.058
vn 0.000 1.000 0.000
vn 0.000 -1.000 0.000
vn 0.158 -0.987 0.000
vn 0.169 0.986 0.000
vn 0.000 1.000 0.000
vn 0.000 -1.000 0.000
vn 0.158 -0.987 0.000
vn 0.169 0.986 0.000
vn 0.000 1.000 0.000
vn 0.000 -1.000 0.000
vn 0.148 -0.987 -0.054
vn 0.159 0.986 -0.058
vn 0.000 1.000 0.000
vn 0.000 -1.000 0.000
vn 0.121 -0.987 -0.102
vn 0.129 0.986 -0.109
vn 0.000 1.000 0.000
vn 0.000 -1.000 0.000
vn 0.079 -0.987 -0.137
vn 0.084 0.986 -0.146
vn 0.000 1.000 0.000
vn 0.000 -1.000 0.000
vn 0.027 -0.987 -0.156
vn 0.029 0.986 -0.166
vn 0.000 1.000 0.000
vn -0.000 -1.000 -0.000
vn -0.027 -0.987 -0.156
vn -0.029 0.986 -0.166
vn 0.000 1.000 0.000
vn -0.000 -1.000 -0.000
vn -0.079 -0.987 -0.137
vn -0.084 0.986 -0.146
vn 0.000 1.000 0.000
vn -0.000 -1.000 -0.000
vn -0.121 -0.987 -0.102
vn -0.129 0.986 -0.109
vn 0.000 1.000 0.000
vn -0.000 -1.000 -0.000
vn -0.148 -0.987 -0.054
vn -0.159 0.986 -0.058
vn 0.000 1.000 0.000
vn -0.000 -1.000 -0.000
vn -0.158 -0.987 -0.000
vn -0.169 0.986 -0.000
vn 0.000 1.000 0.000
vn 0.000 -1.000 0.000
vn -0.148 -0.987 0.054
vn -0.159 0.986 0.058
vn 0.000 1.000 0.000
vn 0.000 -1.000 0.000
vn -0.121 -0.987 0.102
vn -0.129 0.986 0.109
vn 0.000 1.000 0.000
vn 0.000 -1.000 0.000
vn -0.079 -0.987 0.137
vn -0.084 0.986 0.146
vn 0.000 1.000 0.000
vn 0.000 -1.000 0.000
vn -0.027 -0.987 0.156
vn -0.029 0.986 0.166
vn 0.000 1.000 0.000
vn 0.000 -1.000 0.000
vn 0.027 -0.987 0.156
vn 0.029 0.986 0.166
vn 0.000 1.000 0.000
vn 0.000 -1.000 0.000
vn 0.079 -0.987 0.137
vn 0.084 0.986 0.146
vn 0.000 1.000 0.000
vn 0.000 -1.000 0.000
vn 0.121 -0.987 0.102
vn 0.129 0.986 0.109
vn 0.000 1.000 0.000
vn 0.000 -1.000 0.000
vn 0.148 -0.987 0.054
vn 0.159 0.986 0.058
vn 0.000 1.000 0.000
vn 0.000 -1.000 0.000
vn 0.158 -0.987 0.000
vn 0.169 0.986 0.000
vn 0.000 1.000 0.000
v 0.0629 2.1001 -1.9021
v 0.0635 2.0995 -1.9050
v 0.0635 2.0995 -3.0950
v 0.0629 2.1001 -3.0979
v 0.0635 2.1030 -1.9015
v 0.0650 2.1030 -1.9050
v 0.0650 2.1030 -3.0950
v 0.0635 2.1030 -3.0985
v 0.0635 2.1050 -1.9015
v 0.0650 2.1050 -1.9050
v 0.0650 2.1050 -3.0950
v 0.0635 2.1050 -3.0985
v 0.0629 2.1079 -1.9021
v 0.0635 2.1085 -1.9050
v 0.0635 2.1085 -3.0950
v 0.0629 2.1079 -3.0979
v -0.0629 2.1001 -3.0979
v -0.0635 2.0995 -3.0950
v -0.0635 2.0995 -1.9050
v -0.0629 2.1001 -1.9021
v -0.0635 2.1030 -3.0985
v -0.0650 2.1030 -3.0950
v -0.0650 2.1030 -1.9050
v -0.0635 2.1030 -1.9015
v -0.0635 2.1050 -3.0985
v -0.0650 2.1050 -3.0950
v -0.0650 2.1050 -1.9050
v -0.0635 2.1050 -1.9015
v -0.0629 2.1079 -3.0979
v -0.0635 2.1085 -3.0950
v -0.0635 2.1085 -1.9050
v -0.0629 2.1079 -1.9021
v -0.0629 2.1079 -1.9021
v -0.0600 2.1085 -1.9015
v 0.0600 2.1085 -1.9015
v 0.0629 2.1079 -1.9021
v -0.0635 2.1085 -1.9050
v -0.0600 2.1100 -1.9050
v 0.0600 2.1100 -1.9050
v 0.0635 2.1085 -1.9050
v -0.0635 2.1085 -3.0950
v -0.0600 2.1100 -3.0950
v 0.0600 2.1100 -3.0950
v 0.0635 2.1085 -3.0950
v -0.0629 2.1079 -3.0979
v -0.0600 2.1085 -3.0985
v 0.0600 2.1085 -3.0985
v 0.0629 2.1079 -3.0979
v -0.0629 2.1001 -3.0979
v -0.0600 2.0995 -3.0985
v 0.0600 2.0995 -3.0985
v 0.0629 2.1001 -3.0979
v -0.0635 2.0995 -3.0950
v -0.0600 2.0980 -3.0950
v 0.0600 2.0980 -3.0950
v 0.0635 2.0995 -3.0950
v -0.0635 2.0995 -1.9050
v -0.0600 2.0980 -1.9050
v 0.0600 2.0980 -1.9050
v 0.0635 2.0995 -1.9050
v -0.0629 2.1001 -1.9021
v -0.0600 2.0995 -1.9015
v 0.0600 2.0995 -1.9015
v 0.0629 2.1001 -1.9021
v -0.0629 2.1001 -1.9021
v -0.0600 2.0995 -1.9015
v 0.0600 2.0995 -1.9015
v 0.0629 2.1001 -1.9021
v -0.0635 2.1030 -1.9015
v -0.0600 2.1030 -1.9000
v 0.0600 2.1030 -1.9000
v 0.0635 2.1030 -1.9015
v -0.0635 2.1050 -1.9015
v -0.0600 2.1050 -1.9000
v 0.0600 2.1050 -1.9000
v 0.0635 2.1050 -1.9015
v -0.0629 2.1079 -1.9021
v -0.0600 2.1085 -1.9015
v 0.0600 2.1085 -1.9015
v 0.0629 2.1079 -1.9021
v 0.0629 2.1001 -3.0979
v 0.0600 2.0995 -3.0985
v -0.0600 2.0995 -3.0985
v -0.0629 2.1001 -3.0979
v 0.0635 2.1030 -3.0985
v 0.0600 2.1030 -3.1000
v -0.0600 2.1030 -3.1000
v -0.0635 2.1030 -3.0985
v 0.0635 2.1050 -3.0985
v 0.0600 2.1050 -3.1000
v -0.0600 2.1050 -3.1000
v -0.0635 2.1050 -3.0985
v 0.0629 2.1079 -3.0979
v 0.0600 2.1085 -3.0985
v -0.0600 2.1085 -3.0985
v -0.0629 2.1079 -3.0979
v 0.0629 2.1001 1.0979
v 0.0635 2.0995 1.0950
v 0.0635 2.0995 -0.0950
v 0.0629 2.1001 -0.0979
v 0.0635 2.1030 1.0985
v 0.0650 2.1030 1.0950
v 0.0650 2.1030 -0.0950
v 0.0635 2.1030 -0.0985
v 0.0635 2.1050 1.0985
v 0.0650 2.1050 1.0950
v 0.0650 2.1050 -0.0950
v 0.0635 2.1050 -0.0985
v 0.0629 2.1079 1.0979
v 0.0635 2.1085 1.0950
v 0.0635 2.1085 -0.0950
v 0.0629 2.1079 -0.0979
v -0.0629 2.1001 -0.0979
v -0.0635 2.0995 -0.0950
v -0.0635 2.0995 1.0950
v -0.0629 2.1001 1.0979
v -0.0635 2.1030 -0.0985
v -0.0650 2.1030 -0.0950
v -0.0650 2.1030 1.0950
v -0.0635 2.1030 1.0985
v -0.0635 2.1050 -0.0985
v -0.0650 2.1050 -0.0950
v -0.0650 2.1050 1.0950
v -0.0635 2.1050 1.0985
v -0.0629 2.1079 -0.0979
v -0.0635 2.1085 -0.0950
v -0.0635 2.1085 1.0950
v -0.0629 2.1079 1.0979
v -0.0629 2.1079 1.0979
v -0.0600 2.1085 1.0985
v 0.0600 2.1085 1.0985
v 0.0629 2.1079 1.0979
v -0.0635 2.1085 1.0950
v -0.0600 2.1100 1.0950
v 0.0600 2.1100 1.0950
v 0.0635 2.1085 1.0950
v -0.0635 2.1085 -0.0950
v -0.0600 2.1100 -0.0950
v 0.0600 2.1100 -0.0950
v 0.0635 2.1085 -0.0950
v -0.0629 2.1079 -0.0979
v -0.0600 2.1085 -0.0985
v 0.0600 2.1085 -0.0985
v 0.0629 2.1079 -0.0979
v -0.0629 2.1001 -0.0979
v -0.0600 2.0995 -0.0985
v 0.0600 2.0995 -0.0985
v 0.0629 2.1001 -0.0979
v -0.0635 2.0995 -0.0950
v -0.0600 2.0980 -0.0950
v 0.0600 2.0980 -0.0950
v 0.0635 2.0995 -0.0950
v -0.0635 2.0995 1.0950
v -0.0600 2.0980 1.0950
v 0.0600 2.0980 1.0950
v 0.0635 2.0995 1.0950
v -0.0629 2.1001 1.0979
v -0.0600 2.0995 1.0985
v 0.0600 2.0995 1.0985
v 0.0629 2.1001 1.0979
v -0.0629 2.1001 1.0979
v -0.0600 2.0995 1.0985
v 0.0600 2.0995 1.0985
v 0.0629 2.1001 1.0979
v -0.0635 2.1030 1.0985
v -0.0600 2.1030 1.1000
v 0.0600 2.1030 1.1000
v 0.0635 2.1030 1.0985
v -0.0635 2.1050 1.0985
v -0.0600 2.1050 1.1000
v 0.0600 2.1050 1.1000
v 0.0635 2.1050 1.0985
v -0.0629 2.1079 1.0979
v -0.0600 2.1085 1.0985
v 0.0600 2.1085 1.0985
v 0.0629 2.1079 1.0979
v 0.0629 2.1001 -0.0979
v 0.0600 2.0995 -0.0985
v -0.0600 2.0995 -0.0985
v -0.0629 2.1001 -0.0979
v 0.0635 2.1030 -0.0985
v 0.0600 2.1030 -0.1000
v -0.0600 2.1030 -0.1000
v -0.0635 2.1030 -0.0985
v 0.0635 2.1050 -0.0985
v 0.0600 2.1050 -0.1000
v -0.0600 2.1050 -0.1000
v -0.0635 2.1050 -0.0985
v 0.0629 2.1079 -0.0979
v 0.0600 2.1085 -0.0985
v -0.0600 2.1085 -0.0985
v -0.0629 2.1079 -0.0979
v 0.0629 2.1001 3.5979
v 0.0635 2.0995 3.5950
v 0.0635 2.0995 2.4050
v 0.0629 2.1001 2.4021
v 0.0635 2.1030 3.5985
v 0.0650 2.1030 3.5950
v 0.0650 2.1030 2.4050
v 0.0635 2.1030 2.4015
v 0.0635 2.1050 3.5985
v 0.0650 2.1050 3.5950
v 0.0650 2.1050 2.4050
v 0.0635 2.1050 2.4015
v 0.0629 2.1079 3.5979
v 0.0635 2.1085 3.5950
v 0.0635 2.1085 2.4050
v 0.0629 2.1079 2.4021
v -0.0629 2.1001 2.4021
v -0.0635 2.0995 2.4050
v -0.0635 2.0995 3.5950
v -0.0629 2.1001 3.5979
v -0.0635 2.1030 2.4015
v -0.0650 2.1030 2.4050
v -0.0650 2.1030 3.5950
v -0.0635 2.1030 3.5985
v -0.0635 2.1050 2.4015
v -0.0650 2.1050 2.4050
v -0.0650 2.1050 3.5950
v -0.0635 2.1050 3.5985
v -0.0629 2.1079 2.4021
v -0.0635 2.1085 2.4050
v -0.0635 2.1085 3.5950
v -0.0629 2.1079 3.5979
v -0.0629 2.1079 3.5979
v -0.0600 2.1085 3.5985
v 0.0600 2.1085 3.5985
v 0.0629 2.1079 3.5979
v -0.0635 2.1085 3.5950
v -0.0600 2.1100 3.5950
v 0.0600 2.1100 3.5950
v 0.0635 2.1085 3.5950
v -0.0635 2.1085 2.4050
v -0.0600 2.1100 2.4050
v 0.0600 2.1100 2.4050
v 0.0635 2.1085 2.4050
v -0.0629 2.1079 2.4021
v -0.0600 2.1085 2.4015
v 0.0600 2.1085 2.4015
v 0.0629 2.1079 2.4021
v -0.0629 2.1001 2.4021
v -0.0600 2.0995 2.4015
v 0.0600 2.0995 2.4015
v 0.0629 2.1001 2.4021
v -0.0635 2.0995 2.4050
v -0.0600 2.0980 2.4050
v 0.0600 2.0980 2.4050
v 0.0635 2.0995 2.4050
v -0.0635 2.0995 3.5950
v -0.0600 2.0980 3.5950
v 0.0600 2.0980 3.5950
v 0.0635 2.0995 3.5950
v -0.0629 2.1001 3.5979
v -0.0600 2.0995 3.5985
v 0.0600 2.0995 3.5985
v 0.0629 2.1001 3.5979
v -0.0629 2.1001 3.5979
v -0.0600 2.0995 3.5985
v 0.0600 2.0995 3.5985
v 0.0629 2.1001 3.5979
v -0.0635 2.1030 3.5985
v -0.0600 2.1030 3.6000
v 0.0600 2.1030 3.6000
v 0.0635 2.1030 3.5985
v -0.0635 2.1050 3.5985
v -0.0600 2.1050 3.6000
v 0.0600 2.1050 3.6000
v 0.0635 2.1050 3.5985
v -0.0629 2.1079 3.5979
v -0.0600 2.1085 3.5985
v 0.0600 2.1085 3.5985
v 0.0629 2.1079 3.5979
v 0.0629 2.1001 2.4021
v 0.0600 2.0995 2.4015
v -0.0600 2.0995 2.4015
v -0.0629 2.1001 2.4021
v 0.0635 2.1030 2.4015
v 0.0600 2.1030 2.4000
v -0.0600 2.1030 2.4000
v -0.0635 2.1030 2.4015
v 0.0635 2.1050 2.4015
v 0.0600 2.1050 2.4000
v -0.0600 2.1050 2.4000
v -0.0635 2.1050 2.4015
v 0.0629 2.1079 2.4021
v 0.0600 2.1085 2.4015
v -0.0600 2.1085 2.4015
v -0.0629 2.1079 2.4021
vt 0.0000 0.0000
vt 0.0050 0.0000
vt 1.1950 0.0000
vt 1.2000 0.0000
vt 0.0000 0.0050
vt 0.0050 0.0050
vt 1.1950 0.0050
vt 1.2000 0.0050
vt 0.0000 0.0070
vt 0.0050 0.0070
vt 1.1950 0.0070
vt 1.2000 0.0070
vt 0.0000 0.0120
vt 0.0050 0.0120
vt 1.1950 0.0120
vt 1.2000 0.0120
vt 0.0000 0.0000
vt 0.0050 0.0000
vt 1.1950 0.0000
vt 1.2000 0.0000
vt 0.0000 0.0050
vt 0.0050 0.0050
vt 1.1950 0.0050
vt 1.2000 0.0050
vt 0.0000 0.0070
vt 0.0050 0.0070
vt 1.1950 0.0070
vt 1.2000 0.0070
vt 0.0000 0.0120
vt 0.0050 0.0120
vt 1.1950 0.0120
vt 1.2000 0.0120
vt 0.0000 0.0000
vt 0.0050 0.0000
vt 0.1250 0.0000
vt 0.1300 0.0000
vt 0.0000 0.0050
vt 0.0050 0.0050
vt 0.1250 0.0050
vt 0.1300 0.0050
vt 0.0000 1.1950
vt 0.0050 1.1950
vt 0.1250 1.1950
vt 0.1300 1.1950
vt 0.0000 1.2000
vt 0.0050 1.2000
vt 0.1250 1.2000
vt 0.1300 1.2000
vt 0.0000 0.0000
vt 0.0050 0.0000
vt 0.1250 0.0000
vt 0.1300 0.0000
vt 0.0000 0.0050
vt 0.0050 0.0050
vt 0.1250 0.0050
vt 0.1300 0.0050
vt 0.0000 1.1950
vt 0.0050 1.1950
vt 0.1250 1.1950
vt 0.1300 1.1950
vt 0.0000 1.2000
vt 0.0050 1.2000
vt 0.1250 1.2000
vt 0.1300 1.2000
vt 0.0000 0.0000
vt 0.0050 0.0000
vt 0.1250 0.0000
vt 0.1300 0.0000
vt 0.0000 0.0050
vt 0.0050 0.0050
vt 0.1250 0.0050
vt 0.1300 0.0050
vt 0.0000 0.0070
vt 0.0050 0.0070
vt 0.1250 0.0070
vt 0.1300 0.0070
vt 0.0000 0.0120
vt 0.0050 0.0120
vt 0.1250 0.0120
vt 0.1300 0.0120
vt 0.0000 0.0000
vt 0.0050 0.0000
vt 0.1250 0.0000
vt 0.1300 0.0000
vt 0.0000 0.0050
vt 0.0050 0.0050
vt 0.1250 0.0050
vt 0.1300 0.0050
vt 0.0000 0.0070
vt 0.0050 0.0070
vt 0.1250 0.0070
vt 0.1300 0.0070
vt 0.0000 0.0120
vt 0.0050 0.0120
vt 0.1250 0.0120
vt 0.1300 0.0120
vt 0.0000 0.0000
vt 0.0050 0.0000
vt 1.1950 0.0000
vt 1.2000 0.0000
vt 0.0000 0.0050
vt 0.0050 0.0050
vt 1.1950 0.0050
vt 1.2000 0.0050
vt 0.0000 0.0070
vt 0.0050 0.0070
vt 1.1950 0.0070
vt 1.2000 0.0070
vt 0.0000 0.0120
vt 0.0050 0.0120
vt 1.1950 0.0120
vt 1.2000 0.0120
vt 0.0000 0.0000
vt 0.0050 0.0000
vt 1.1950 0.0000
vt 1.2000 0.0000
vt 0.0000 0.0050
vt 0.0050 0.0050
vt 1.1950 0.0050
vt 1.2000 0.0050
vt 0.0000 0.0070
vt 0.0050 0.0070
vt 1.1950 0.0070
vt 1.2000 0.0070
vt 0.0000 0.0120
vt 0.0050 0.0120
vt 1.1950 0.0120
vt 1.2000 0.0120
vt 0.0000 0.0000
vt 0.0050 0.0000
vt 0.1250 0.0000
vt 0.1300 0.0000
vt 0.0000 0.0050
vt 0.0050 0.0050
vt 0.1250 0.0050
vt 0.1300 0.0050
vt 0.0000 1.1950
vt 0.0050 1.1950
vt 0.1250 1.1950
vt 0.1300 1.1950
vt 0.0000 1.2000
vt 0.0050 1.2000
vt 0.1250 1.2000
vt 0.1300 1.2000
vt 0.0000 0.0000
vt 0.0050 0.0000
vt 0.1250 0.0000
vt 0.1300 0.0000
vt 0.0000 0.0050
vt 0.0050 0.0050
vt 0.1250 0.0050
vt 0.1300 0.0050
vt 0.0000 1.1950
vt 0.0050 1.1950
vt 0.1250 1.1950
vt 0.1300 1.1950
vt 0.0000 1.2000
vt 0.0050 1.2000
vt 0.1250 1.2000
vt 0.1300 1.2000
vt 0.0000 0.0000
vt 0.0050 0.0000
vt 0.1250 0.0000
vt 0.1300 0.0000
vt 0.0000 0.0050
vt 0.0050 0.0050
vt 0.1250 0.0050
vt 0.1300 0.0050
vt 0.0000 0.0070
vt 0.0050 0.0070
vt 0.1250 0.0070
vt 0.1300 0.0070
vt 0.0000 0.0120
vt 0.0050 0.0120
vt 0.1250 0.0120
vt 0.1300 0.0120
vt 0.0000 0.0000
vt 0.0050 0.0000
vt 0.1250 0.0000
vt 0.1300 0.0000
vt 0.0000 0.0050
vt 0.0050 0.0050
vt 0.1250 0.0050
vt 0.1300 0.0050
vt 0.0000 0.0070
vt 0.0050 0.0070
vt 0.1250 0.0070
vt 0.1300 0.0070
vt 0.0000 0.0120
vt 0.0050 0.0120
vt 0.1250 0.0120
vt 0.1300 0.0120
vt 0.0000 0.0000
vt 0.0050 0.0000
vt 1.1950 0.0000
vt 1.2000 0.0000
vt 0.0000 0.0050
vt 0.0050 0.0050
vt 1.1950 0.0050
vt 1.2000 0.0050
vt 0.0000 0.0070
vt 0.0050 0.0070
vt 1.1950 0.0070
vt 1.2000 0.0070
vt 0.0000 0.0120
vt 0.0050 0.0120
vt 1.1950 0.0120
vt 1.2000 0.0120
vt 0.0000 0.0000
vt 0.0050 0.0000
vt 1.1950 0.0000
vt 1.2000 0.0000
vt 0.0000 0.0050
vt 0.0050 0.0050
vt 1.1950 0.0050
vt 1.2000 0.0050
vt 0.0000 0.0070
vt 0.0050 0.0070
vt 1.1950 0.0070
vt 1.2000 0.0070
vt 0.0000 0.0120
vt 0.0050 0.0120
vt 1.1950 0.0120
vt 1.2000 0.0120
vt 0.0000 0.0000
vt 0.0050 0.0000
vt 0.1250 0.0000
vt 0.1300 0.0000
vt 0.0000 0.0050
vt 0.0050 0.0050
vt 0.1250 0.0050
vt 0.1300 0.0050
vt 0.0000 1.1950
vt 0.0050 1.1950
vt 0.1250 1.1950
vt 0.1300 1.1950
vt 0.0000 1.2000
vt 0.0050 1.2000
vt 0.1250 1.2000
vt 0.1300 1.2000
vt 0.0000 0.0000
vt 0.0050 0.0000
vt 0.1250 0.0000
vt 0.1300 0.0000
vt 0.0000 0.0050
vt 0.0050 0.0050
vt 0.1250 0.0050
vt 0.1300 0.0050
vt 0.0000 1.1950
vt 0.0050 1.1950
vt 0.1250 1.1950
vt 0.1300 1.1950
vt 0.0000 1.2000
vt 0.0050 1.2000
vt 0.1250 1.2000
vt 0.1300 1.2000
vt 0.0000 0.0000
vt 0.0050 0.0000
vt 0.1250 0.0000
vt 0.1300 0.0000
vt 0.0000 0.0050
vt 0.0050 0.0050
vt 0.1250 0.0050
vt 0.1300 0.0050
vt 0.0000 0.0070
vt 0.0050 0.0070
vt 0.1250 0.0070
vt 0.1300 0.0070
vt 0.0000 0.0120
vt 0.0050 0.0120
vt 0.1250 0.0120
vt 0.1300 0.0120
vt 0.0000 0.0000
vt 0.0050 0.0000
vt 0.1250 0.0000
vt 0.1300 0.0000
vt 0.0000 0.0050
vt 0.0050 0.0050
vt 0.1250 0.0050
vt 0.1300 0.0050
vt 0.0000 0.0070
vt 0.0050 0.0070
vt 0.1250 0.0070
vt 0.1300 0.0070
vt 0.0000 0.0120
vt 0.0050 0.0120
vt 0.1250 0.0120
vt 0.1300 0.0120
vn 0.577 -0.577 0.577
vn 0.707 -0.707 0.000
vn 0.707 -0.707 0.000
vn 0.577 -0.577 -0.577
vn 0.707 0.000 0.707
vn 1.000 0.000 0.000
vn 1.000 0.000 0.000
vn 0.707 0.000 -0.707
vn 0.707 0.000 0.707
vn 1.000 0.000 0.000
vn 1.000 0.000 0.000
vn 0.707 0.000 -0.707
vn 0.577 0.577 0.577
vn 0.707 0.707 0.000
vn 0.707 0.707 0.000
vn 0.577 0.577 -0.577
vn -0.577 -0.577 -0.577
vn -0.707 -0.707 0.000
vn -0.707 -0.707 0.000
vn -0.577 -0.577 0.577
vn -0.707 0.000 -0.707
vn -1.000 0.000 0.000
vn -1.000 0.000 0.000
vn -0.707 0.000 0.707
vn -0.707 0.000 -0.707
vn -1.000 0.000 0.000
vn -1.000 0.000 0.000
vn -0.707 0.000 0.707
vn -0.577 0.577 -0.577
vn -0.707 0.707 0.000
vn -0.707 0.707 0.000
vn -0.577 0.577 0.577
vn -0.577 0.577 0.577
vn 0.000 0.707 0.707
vn 0.000 0.707 0.707
vn 0.577 0.577 0.577
vn -0.707 0.707 0.000
vn 0.000 1.000 0.000
vn 0.000 1.000 0.000
vn 0.707 0.707 0.000
vn -0.707 0.707 0.000
vn 0.000 1.000 0.000
vn 0.000 1.000 0.000
vn 0.707 0.707 0.000
vn -0.577 0.577 -0.577
vn 0.000 0.707 -0.707
vn 0.000 0.707 -0.707
vn 0.577 0.577 -0.577
vn -0.577 -0.577 -0.577
vn 0.000 -0.707 -0.707
vn 0.000 -0.707 -0.707
vn 0.577 -0.577 -0.577
vn -0.707 -0.707 0.000
vn 0.000 -1.000 0.000
vn 0.000 -1.000 0.000
vn 0.707 -0.707 0.000
vn -0.707 -0.707 0.000
vn 0.000 -1.000 0.000
vn 0.000 -1.000 0.000
vn 0.707 -0.707 0.000
vn -0.577 -0.577 0.577
vn 0.000 -0.707 0.707
vn 0.000 -0.707 0.707
vn 0.577 -0.577 0.577
vn -0.577 -0.577 0.577
vn 0.000 -0.707 0.707
vn 0.000 -0.707 0.707
vn 0.577 -0.577 0.577
vn -0.707 0.000 0.707
vn 0.000 0.000 1.000
vn 0.000 0.000 1.000
vn 0.707 0.000 0.707
vn -0.707 0.000 0.707
vn 0.000 0.000 1.000
vn 0.000 0.000 1.000
vn 0.707 0.000 0.707
vn -0.577 0.577 0.577
vn 0.000 0.707 0.707
vn 0.000 0.707 0.707
vn 0.577 0.577 0.577
vn 0.577 -0.577 -0.577
vn 0.000 -0.707 -0.707
vn 0.000 -0.707 -0.707
vn -0.577 -0.577 -0.577
vn 0.707 0.000 -0.707
vn 0.000 0.000 -1.000
vn 0.000 0.000 -1.000
vn -0.707 0.000 -0.707
vn 0.707 0.000 -0.707
vn 0.000 0.000 -1.000
vn 0.000 0.000 -1.000
vn -0.707 0.000 -0.707
vn 0.577 0.577 -0.577
vn 0.000 0.707 -0.707
vn 0.000 0.707 -0.707
vn -0.577 0.577 -0.577
vn 0.577 -0.577 0.577
vn 0.707 -0.707 0.000
vn 0.707 -0.707 0.000
vn 0.577 -0.577 -0.577
vn 0.707 0.000 0.707
vn 1.000 0.000 0.000
vn 1.000 0.000 0.000
vn 0.707 0.000 -0.707
vn 0.707 0.000 0.707
vn 1.000 0.000 0.000
vn 1.000 0.000 0.000
vn 0.707 0.000 -0.707
vn 0.577 0.577 0.577
vn 0.707 0.707 0.000
vn 0.707 0.707 0.000
vn 0.577 0.577 -0.577
vn -0.577 -0.577 -0.577
vn -0.707 -0.707 0.000
vn -0.707 -0.707 0.000
vn -0.577 -0.577 0.577
vn -0.707 0.000 -0.707
vn -1.000 0.000 0.000
vn -1.000 0.000 0.000
vn -0.707 0.000 0.707
vn -0.707 0.000 -0.707
vn -1.000 0.000 0.000
vn -1.000 0.000 0.000
vn -0.707 0.000 0.707
vn -0.577 0.577 -0.577
vn -0.707 0.707 0.000
vn -0.707 0.707 0.000
vn -0.577 0.577 0.577
vn -0.577 0.577 0.577
vn 0.000 0.707 0.707
vn 0.000 0.707 0.707
vn 0.577 0.577 0.577
vn -0.707 0.707 0.000
vn 0.000 1.000 0.000
vn 0.000 1.000 0.000
vn 0.707 0.707 0.000
vn -0.707 0.707 0.000
vn 0.000 1.000 0.000
vn 0.000 1.000 0.000
vn 0.707 0.707 0.000
vn -0.577 0.577 -0.577
vn 0.000 0.707 -0.707
vn 0.000 0.707 -0.707
vn 0.577 0.577 -0.577
vn -0.577 -0.577 -0.577
vn 0.000 -0.707 -0.707
vn 0.000 -0.707 -0.707
vn 0.577 -0.577 -0.577
vn -0.707 -0.707 0.000
vn 0.000 -1.000 0.000
vn 0.000 -1.000 0.000
vn 0.707 -0.707 0.000
vn -0.707 -0.707 0.000
vn 0.000 -1.000 0.000
vn 0.000 -1.000 0.000
vn 0.707 -0.707 0.000
vn -0.577 -0.577 0.577
vn 0.000 -0.707 0.707
vn 0.000 -0.707 0.707
vn 0.577 -0.577 0.577
vn -0.577 -0.577 0.577
vn 0.000 -0.707 0.707
vn 0.000 -0.707 0.707
vn 0.577 -0.577 0.577
vn -0.707 0.000 0.707
vn 0.000 0.000 1.000
vn 0.000 0.000 1.000
vn 0.707 0.000 0.707
vn -0.707 0.000 0.707
vn 0.000 0.000 1.000
vn 0.000 0.000 1.000
vn 0.707 0.000 0.707
vn -0.577 0.577 0.577
vn 0.000 0.707 0.707
vn 0.000 0.707 0.707
vn 0.577 0.577 0.577
vn 0.577 -0.577 -0.577
vn 0.000 -0.707 -0.707
vn 0.000 -0.707 -0.707
vn -0.577 -0.577 -0.577
vn 0.707 0.000 -0.707
vn 0.000 0.000 -1.000
vn 0.000 0.000 -1.000
vn -0.707 0.000 -0.707
vn 0.707 0.000 -0.707
vn 0.000 0.000 -1.000
vn 0.000 0.000 -1.000
vn -0.707 0.000 -0.707
vn 0.577 0.577 -0.577
vn 0.000 0.707 -0.707
vn 0.000 0.707 -0.707
vn -0.577 0.577 -0.577
vn 0.577 -0.577 0.577
vn 0.707 -0.707 0.000
vn 0.707 -0.707 0.000
vn 0.577 -0.577 -0.577
vn 0.707 0.000 0.707
vn 1.000 0.000 0.000
vn 1.000 0.000 0.000
vn 0.707 0.000 -0.707
vn 0.707 0.000 0.707
vn 1.000 0.000 0.000
vn 1.000 0.000 0.000
vn 0.707 0.000 -0.707
vn 0.577 0.577 0.577
vn 0.707 0.707 0.000
vn 0.707 0.707 0.000
vn 0.577 0.577 -0.577
vn -0.577 -0.577 -0.577
vn -0.707 -0.707 0.000
vn -0.707 -0.707 0.000
vn -0.577 -0.577 0.577
vn -0.707 0.000 -0.707
vn -1.000 0.000 0.000
vn -1.000 0.000 0.000
vn -0.707 0.000 0.707
vn -0.707 0.000 -0.707
vn -1.000 0.000 0.000
vn -1.000 0.000 0.000
vn -0.707 0.000 0.707
vn -0.577 0.577 -0.577
vn -0.707 0.707 0.000
vn -0.707 0.707 0.000
vn -0.577 0.577 0.577
vn -0.577 0.577 0.577
vn 0.000 0.707 0.707
vn 0.000 0.707 0.707
vn 0.577 0.577 0.577
vn -0.707 0.707 0.000
vn 0.000 1.000 0.000
vn 0.000 1.000 0.000
vn 0.707 0.707 0.000
vn -0.707 0.707 0.000
vn 0.000 1.000 0.000
vn 0.000 1.000 0.000
vn 0.707 0.707 0.000
vn -0.577 0.577 -0.577
vn 0.000 0.707 -0.707
vn 0.000 0.707 -0.707
vn 0.577 0.577 -0.577
vn -0.577 -0.577 -0.577
vn 0.000 -0.707 -0.707
vn 0.000 -0.707 -0.707
vn 0.577 -0.577 -0.577
vn -0.707 -0.707 0.000
vn 0.000 -1.000 0.000
vn 0.000 -1.000 0.000
vn 0.707 -0.707 0.000
vn -0.707 -0.707 0.000
vn 0.000 -1.000 0.000
vn 0.000 -1.000 0.000
vn 0.707 -0.707 0.000
vn -0.577 -0.577 0.577
vn 0.000 -0.707 0.707
vn 0.000 -0.707 0.707
vn 0.577 -0.577 0.577
vn -0.577 -0.577 0.577
vn 0.000 -0.707 0.707
vn 0.000 -0.707 0.707
vn 0.577 -0.577 0.577
vn -0.707 0.000 0.707
vn 0.000 0.000 1.000
vn 0.000 0.000 1.000
vn 0.707 0.000 0.707
vn -0.707 0.000 0.707
vn 0.000 0.000 1.000
vn 0.000 0.000 1.000
vn 0.707 0.000 0.707
vn -0.577 0.577 0.577
vn 0.000 0.707 0.707
vn 0.000 0.707 0.707
vn 0.577 0.577 0.577
vn 0.577 -0.577 -0.577
vn 0.000 -0.707 -0.707
vn 0.000 -0.707 -0.707
vn -0.577 -0.577 -0.577
vn 0.707 0.000 -0.707
vn 0.000 0.000 -1.000
vn 0.000 0.000 -1.000
vn -0.707 0.000 -0.707
vn 0.707 0.000 -0.707
vn 0.000 0.000 -1.000
vn 0.000 0.000 -1.000
vn -0.707 0.000 -0.707
vn 0.577 0.577 -0.577
vn 0.000 0.707 -0.707
vn 0.000 0.707 -0.707
vn -0.577 0.577 -0.577
v 0.0000 2.1370 -1.0000
v 0.0600 2.1370 -1.0000
v 0.0000 2.1370 -1.0000
v 0.0564 2.1370 -1.0205
v 0.0000 2.1370 -1.0000
v 0.0460 2.1370 -1.0386
v 0.0000 2.1370 -1.0000
v 0.0300 2.1370 -1.0520
v 0.0000 2.1370 -1.0000
v 0.0104 2.1370 -1.0591
v 0.0000 2.1370 -1.0000
v -0.0104 2.1370 -1.0591
v 0.0000 2.1370 -1.0000
v -0.0300 2.1370 -1.0520
v 0.0000 2.1370 -1.0000
v -0.0460 2.1370 -1.0386
v 0.0000 2.1370 -1.0000
v -0.0564 2.1370 -1.0205
v 0.0000 2.1370 -1.0000
v -0.0600 2.1370 -1.0000
v 0.0000 2.1370 -1.0000
v -0.0564 2.1370 -0.9795
v 0.0000 2.1370 -1.0000
v -0.0460 2.1370 -0.9614
v 0.0000 2.1370 -1.0000
v -0.0300 2.1370 -0.9480
v 0.0000 2.1370 -1.0000
v -0.0104 2.1370 -0.9409
v 0.0000 2.1370 -1.0000
v 0.0104 2.1370 -0.9409
v 0.0000 2.1370 -1.0000
v 0.0300 2.1370 -0.9480
v 0.0000 2.1370 -1.0000
v 0.0460 2.1370 -0.9614
v 0.0000 2.1370 -1.0000
v 0.0564 2.1370 -0.9795
v 0.0000 2.1370 -1.0000
v 0.0600 2.1370 -1.0000
v 0.0000 2.1370 1.9000
v 0.0600 2.1370 1.9000
v 0.0000 2.1370 1.9000
v 0.0564 2.1370 1.8795
v 0.0000 2.1370 1.9000
v 0.0460 2.1370 1.8614
v 0.0000 2.1370 1.9000
v 0.0300 2.1370 1.8480
v 0.0000 2.1370 1.9000
v 0.0104 2.1370 1.8409
v 0.0000 2.1370 1.9000
v -0.0104 2.1370 1.8409
v 0.0000 2.1370 1.9000
v -0.0300 2.1370 1.8480
v 0.0000 2.1370 1.9000
v -0.0460 2.1370 1.8614
v 0.0000 2.1370 1.9000
v -0.0564 2.1370 1.8795
v 0.0000 2.1370 1.9000
v -0.0600 2.1370 1.9000
v 0.0000 2.1370 1.9000
v -0.0564 2.1370 1.9205
v 0.0000 2.1370 1.9000
v -0.0460 2.1370 1.9386
v 0.0000 2.1370 1.9000
v -0.0300 2.1370 1.9520
v 0.0000 2.1370 1.9000
v -0.0104 2.1370 1.9591
v 0.0000 2.1370 1.9000
v 0.0104 2.1370 1.9591
v 0.0000 2.1370 1.9000
v 0.0300 2.1370 1.9520
v 0.0000 2.1370 1.9000
v 0.0460 2.1370 1.9386
v 0.0000 2.1370 1.9000
v 0.0564 2.1370 1.9205
v 0.0000 2.1370 1.9000
v 0.0600 2.1370 1.9000
vt 0.0000 0.0000
vt 0.0000 0.0600
vt 0.0209 0.0000
vt 0.0209 0.0600
vt 0.0419 0.0000
vt 0.0419 0.0600
vt 0.0628 0.0000
vt 0.0628 0.0600
vt 0.0838 0.0000
vt 0.0838 0.0600
vt 0.1047 0.0000
vt 0.1047 0.0600
vt 0.1257 0.0000
vt 0.1257 0.0600
vt 0.1466 0.0000
vt 0.1466 0.0600
vt 0.1676 0.0000
vt 0.1676 0.0600
vt 0.1885 0.0000
vt 0.1885 0.0600
vt 0.2094 0.0000
vt 0.2094 0.0600
vt 0.2304 0.0000
vt 0.2304 0.0600
vt 0.2513 0.0000
vt 0.2513 0.0600
vt 0.2723 0.0000
vt 0.2723 0.0600
vt 0.2932 0.0000
vt 0.2932 0.0600
vt 0.3142 0.0000
vt 0.3142 0.0600
vt 0.3351 0.0000
vt 0.3351 0.0600
vt 0.3560 0.0000
vt 0.3560 0.0600
vt 0.3770 0.0000
vt 0.3770 0.0600
vt 0.0000 0.0000
vt 0.0000 0.0600
vt 0.0209 0.0000
vt 0.0209 0.0600
vt 0.0419 0.0000
vt 0.0419 0.0600
vt 0.0628 0.0000
vt 0.0628 0.0600
vt 0.0838 0.0000
vt 0.0838 0.0600
vt 0.1047 0.0000
vt 0.1047 0.0600
vt 0.1257 0.0000
vt 0.1257 0.0600
vt 0.1466 0.0000
vt 0.1466 0.0600
vt 0.1676 0.0000
vt 0.1676 0.0600
vt 0.1885 0.0000
vt 0.1885 0.0600
vt 0.2094 0.0000
vt 0.2094 0.0600
vt 0.2304 0.0000
vt 0.2304 0.0600
vt 0.2513 0.0000
vt 0.2513 0.0600
vt 0.2723 0.0000
vt 0.2723 0.0600
vt 0.2932 0.0000
vt 0.2932 0.0600
vt 0.3142 0.0000
vt 0.3142 0.0600
vt 0.3351 0.0000
vt 0.3351 0.0600
vt 0.3560 0.0000
vt 0.3560 0.0600
vt 0.3770 0.0000
vt 0.3770 0.0600
vn 0.000 -1.000 0.000
vn 0.000 -1.000 0.000
vn 0.000 -1.000 0.000
vn 0.000 -1.000 0.000
vn 0.000 -1.000 0.000
vn 0.000 -1.000 0.000
vn 0.000 -1.000 0.000
vn 0.000 -1.000 0.000
vn 0.000 -1.000 0.000
vn 0.000 -1.000 0.000
vn -0.000 -1.000 -0.000
vn -0.000 -1.000 -0.000
vn -0.000 -1.000 -0.000
vn -0.000 -1.000 -0.000
vn -0.000 -1.000 -0.000
vn -0.000 -1.000 -0.000
vn -0.000 -1.000 -0.000
vn -0.000 -1.000 -0.000
vn -0.000 -1.000 -0.000
vn -0.000 -1.000 -0.000
vn 0.000 -1.000 0.000
vn 0.000 -1.000 0.000
vn 0.000 -1.000 0.000
vn 0.000 -1.000 0.000
vn 0.000 -1.000 0.000
vn 0.000 -1.000 0.000
vn 0.000 -1.000 0.000
vn 0.000 -1.000 0.000
vn 0.000 -1.000 0.000
vn 0.000 -1.000 0.000
vn 0.000 -1.000 0.000
vn 0.000 -1.000 0.000
vn 0.000 -1.000 0.000
vn 0.000 -1.000 0.000
vn 0.000 -1.000 0.000
vn 0.000 -1.000 0.000
vn 0.000 -1.000 0.000
vn 0.000 -1.000 0.000
vn 0.000 -1.000 0.000
vn 0.000 -1.000 0.000
vn 0.000 -1.000 0.000
vn 0.000 -1.000 0.000
vn 0.000 -1.000 0.000
vn 0.000 -1.000 0.000
vn 0.000 -1.000 0.000
vn 0.000 -1.000 0.000
vn 0.000 -1.000 0.000
vn 0.000 -1.000 0.000
vn -0.000 -1.000 -0.000
vn -0.000 -1.000 -0.000
vn -0.000 -1.000 -0.000
vn -0.000 -1.000 -0.000
vn -0.000 -1.000 -0.000
vn -0.000 -1.000 -0.000
vn -0.000 -1.000 -0.000
vn -0.000 -1.000 -0.000
vn -0.000 -1.000 -0.000
vn -0.000 -1.000 -0.000
vn 0.000 -1.000 0.000
vn 0.000 -1.000 0.000
vn 0.000 -1.000 0.000
vn 0.000 -1.000 0.000
vn 0.000 -1.000 0.000
vn 0.000 -1.000 0.000
vn 0.000 -1.000 0.000
vn 0.000 -1.000 0.000
vn 0.000 -1.000 0.000
vn 0.000 -1.000 0.000
vn 0.000 -1.000 0.000
vn 0.000 -1.000 0.000
vn 0.000 -1.000 0.000
vn 0.000 -1.000 0.000
vn 0.000 -1.000 0.000
vn 0.000 -1.000 0.000
vn 0.000 -1.000 0.000
vn 0.000 -1.000 0.000
usemtl housing
f 1/1/1 2/2/2 6/6/6
f 1/1/1 6/6/6 5/5/5
f 2/2/2 3/3/3 7/7/7
f 2/2/2 7/7/7 6/6/6
f 3/3/3 4/4/4 8/8/8
f 3/3/3 8/8/8 7/7/7
f 5/5/5 6/6/6 10/10/10
f 5/5/5 10/10/10 9/9/9
f 6/6/6 7/7/7 11/11/11
f 6/6/6 11/11/11 10/10/10
f 7/7/7 8/8/8 12/12/12
f 7/7/7 12/12/12 11/11/11
f 9/9/9 10/10/10 14/14/14
f 9/9/9 14/14/14 13/13/13
f 10/10/10 11/11/11 15/15/15
f 10/10/10 15/15/15 14/14/14
f 11/11/11 12/12/12 16/16/16
f 11/11/11 16/16/16 15/15/15
f 17/17/17 18/18/18 22/22/22
f 17/17/17 22/22/22 21/21/21
f 18/18/18 19/19/19 23/23/23
f 18/18/18 23/23/23 22/22/22
f 19/19/19 20/20/20 24/24/24
f 19/19/19 24/24/24 23/23/23
f 21/21/21 22/22/22 26/26/26
f 21/21/21 26/26/26 25/25/25
f 22/22/22 23/23/23 27/27/27
f 22/22/22 27/27/27 26/26/26
f 23/23/23 24/24/24 28/28/28
f 23/23/23 28/28/28 27/27/27
f 25/25/25 26/26/26 30/30/30
f 25/25/25 30/30/30 29/29/29
f 26/26/26 27/27/27 31/31/31
f 26/26/26 31/31/31 30/30/30
f 27/27/27 28/28/28 32/32/32
f 27/27/27 32/32/32 31/31/31
f 33/33/33 34/34/34 38/38/38
f 33/33/33 38/38/38 37/37/37
f 34/34/34 35/35/35 39/39/39
f 34/34/34 39/39/39 38/38/38
f 35/35/35 36/36/36 40/40/40
f 35/35/35 40/40/40 39/39/39
f 37/37/37 38/38/38 42/42/42
f 37/37/37 42/42/42 41/41/41
f 38/38/38 39/39/39 43/43/43
f 38/38/38 43/43/43 42/42/42
f 39/39/39 40/40/40 44/44/44
f 39/39/39 44/44/44 43/43/43
f 41/41/41 42/42/42 46/46/46
f 41/41/41 46/46/46 45/45/45
f 42/42/42 43/43/43 47/47/47
f 42/42/42 47/47/47 46/46/46
f 43/43/43 44/44/44 48/48/48
f 43/43/43 48/48/48 47/47/47
f 49/49/49 50/50/50 54/54/54
f 49/49/49 54/54/54 53/53/53
f 50/50/50 51/51/51 55/55/55
f 50/50/50 55/55/55 54/54/54
f 51/51/51 52/52/52 56/56/56
f 51/51/51 56/56/56 55/55/55
f 53/53/53 54/54/54 58/58/58
f 53/53/53 58/58/58 57/57/57
f 54/54/54 55/55/55 59/59/59
f 54/54/54 59/59/59 58/58/58
f 55/55/55 56/56/56 60/60/60
f 55/55/55 60/60/60 59/59/59
f 57/57/57 58/58/58 62/62/62
f 57/57/57 62/62/62 61/61/61
f 58/58/58 59/59/59 63/63/63
f 58/58/58 63/63/63 62/62/62
f 59/59/59 60/60/60 64/64/64
f 59/59/59 64/64/64 63/63/63
f 65/65/65 66/66/66 70/70/70
f 65/65/65 70/70/70 69/69/69
f 66/66/66 67/67/67 71/71/71
f 66/66/66 71/71/71 70/70/70
f 67/67/67 68/68/68 72/72/72
f 67/67/67 72/72/72 71/71/71
f 69/69/69 70/70/70 74/74/74
f 69/69/69 74/74/74 73/73/73
f 70/70/70 71/71/71 75/75/75
f 70/70/70 75/75/75 74/74/74
f 71/71/71 72/72/72 76/76/76
f 71/71/71 76/76/76 75/75/75
f 73/73/73 74/74/74 78/78/78
f 73/73/73 78/78/78 77/77/77
f 74/74/74 75/75/75 79/79/79
f 74/74/74 79/79/79 78/78/78
f 75/75/75 76/76/76 80/80/80
f 75/75/75 80/80/80 79/79/79
f 81/81/81 82/82/82 86/86/86
f 81/81/81 86/86/86 85/85/85
f 82/82/82 83/83/83 87/87/87
f 82/82/82 87/87/87 86/86/86
f 83/83/83 84/84/84 88/88/88
f 83/83/83 88/88/88 87/87/87
f 85/85/85 86/86/86 90/90/90
f 85/85/85 90/90/90 89/89/89
f 86/86/86 87/87/87 91/91/91
f 86/86/86 91/91/91 90/90/90
f 87/87/87 88/88/88 92/92/92
f 87/87/87 92/92/92 91/91/91
f 89/89/89 90/90/90 94/94/94
f 89/89/89 94/94/94 93/93/93
f 90/90/90 91/91/91 95/95/95
f 90/90/90 95/95/95 94/94/94
f 91/91/91 92/92/92 96/96/96
f 91/91/91 96/96/96 95/95/95
f 97/97/97 98/98/98 102/102/102
f 97/97/97 102/102/102 101/101/101
f 98/98/98 99/99/99 103/103/103
f 98/98/98 103/103/103 102/102/102
f 99/99/99 100/100/100 104/104/104
f 99/99/99 104/104/104 103/103/103
f 101/101/101 102/102/102 106/106/106
f 101/101/101 106/106/106 105/105/105
f 102/102/102 103/103/103 107/107/107
f 102/102/102 107/107/107 106/106/106
f 103/103/103 104/104/104 108/108/108
f 103/103/103 108/108/108 107/107/107
f 105/105/105 106/106/106 110/110/110
f 105/105/105 110/110/110 109/109/109
f 106/106/106 107/107/107 111/111/111
f 106/106/106 111/111/111 110/110/110
f 107/107/107 108/108/108 112/112/112
f 107/107/107 112/112/112 111/111/111
f 113/113/113 114/114/114 118/118/118
f 113/113/113 118/118/118 117/117/117
f 114/114/114 115/115/115 119/119/119
f 114/114/114 119/119/119 118/118/118
f 115/115/115 116/116/116 120/120/120
f 115/115/115 120/120/120 119/119/119
f 117/117/117 118/118/118 122/122/122
f 117/117/117 122/122/122 121/121/121
f 118/118/118 119/119/119 123/123/123
f 118/118/118 123/123/123 122/122/122
f 119/119/119 120/120/120 124/124/124
f 119/119/119 124/124/124 123/123/123
f 121/121/121 122/122/122 126/126/126
f 121/121/121 126/126/126 125/125/125
f 122/122/122 123/123/123 127/127/127
f 122/122/122 127/127/127 126/126/126
f 123/123/123 124/124/124 128/128/128
f 123/123/123 128/128/128 127/127/127
f 129/129/129 130/130/130 134/134/134
f 129/129/129 134/134/134 133/133/133
f 130/130/130 131/131/131 135/135/135
f 130/130/130 135/135/135 134/134/134
f 131/131/131 132/132/132 136/136/136
f 131/131/131 136/136/136 135/135/135
f 133/133/133 134/134/134 138/138/138
f 133/133/133 138/138/138 137/137/137
f 134/134/134 135/135/135 139/139/139
f 134/134/134 139/139/139 138/138/138
f 135/135/135 136/136/136 140/140/140
f 135/135/135 140/140/140 139/139/139
f 137/137/137 138/138/138 142/142/142
f 137/137/137 142/142/142 141/141/141
f 138/138/138 139/139/139 143/143/143
f 138/138/138 143/143/143 142/142/142
f 139/139/139 140/140/140 144/144/144
f 139/139/139 144/144/144 143/143/143
f 145/145/145 146/146/146 150/150/150
f 145/145/145 150/150/150 149/149/149
f 146/146/146 147/147/147 151/151/151
f 146/146/146 151/151/151 150/150/150
f 147/147/147 148/148/148 152/152/152
f 147/147/147 152/152/152 151/151/151
f 149/149/149 150/150/150 154/154/154
f 149/149/149 154/154/154 153/153/153
f 150/150/150 151/151/151 155/155/155
f 150/150/150 155/155/155 154/154/154
f 151/151/151 152/152/152 156/156/156
f 151/151/151 156/156/156 155/155/155
f 153/153/153 154/154/154 158/158/158
f 153/153/153 158/158/158 157/157/157
f 154/154/154 155/155/155 159/159/159
f 154/154/154 159/159/159 158/158/158
f 155/155/155 156/156/156 160/160/160
f 155/155/155 160/160/160 159/159/159
f 161/161/161 162/162/162 166/166/166
f 161/161/161 166/166/166 165/165/165
f 162/162/162 163/163/163 167/167/167
f 162/162/162 167/167/167 166/166/166
f 163/163/163 164/164/164 168/168/168
f 163/163/163 168/168/168 167/167/167
f 165/165/165 166/166/166 170/170/170
f 165/165/165 170/170/170 169/169/169
f 166/166/166 167/167/167 171/171/171
f 166/166/166 171/171/171 170/170/170
f 167/167/167 168/168/168 172/172/172
f 167/167/167 172/172/172 171/171/171
f 169/169/169 170/170/170 174/174/174
f 169/169/169 174/174/174 173/173/173
f 170/170/170 171/171/171 175/175/175
f 170/170/170 175/175/175 174/174/174
f 171/171/171 172/172/172 176/176/176
f 171/171/171 176/176/176 175/175/175
f 177/177/177 178/178/178 182/182/182
f 177/177/177 182/182/182 181/181/181
f 178/178/178 179/179/179 183/183/183
f 178/178/178 183/183/183 182/182/182
f 179/179/179 180/180/180 184/184/184
f 179/179/179 184/184/184 183/183/183
f 181/181/181 182/182/182 186/186/186
f 181/181/181 186/186/186 185/185/185
f 182/182/182 183/183/183 187/187/187
f 182/182/182 187/187/187 186/186/186
f 183/183/183 184/184/184 188/188/188
f 183/183/183 188/188/188 187/187/187
f 185/185/185 186/186/186 190/190/190
f 185/185/185 190/190/190 189/189/189
f 186/186/186 187/187/187 191/191/191
f 186/186/186 191/191/191 190/190/190
f 187/187/187 188/188/188 192/192/192
f 187/187/187 192/192/192 191/191/191
f 193/193/193 194/194/194 198/198/198
f 193/193/193 198/198/198 197/197/197
f 194/194/194 195/195/195 199/199/199
f 194/194/194 199/199/199 198/198/198
f 195/195/195 196/196/196 200/200/200
f 195/195/195 200/200/200 199/199/199
f 197/197/197 198/198/198 202/202/202
f 197/197/197 202/202/202 201/201/201
f 198/198/198 199/199/199 203/203/203
f 198/198/198 203/203/203 202/202/202
f 199/199/199 200/200/200 204/204/204
f 199/199/199 204/204/204 203/203/203
f 201/201/201 202/202/202 206/206/206
f 201/201/201 206/206/206 205/205/205
f 202/202/202 203/203/203 207/207/207
f 202/202/202 207/207/207 206/206/206
f 203/203/203 204/204/204 208/208/208
f 203/203/203 208/208/208 207/207/207
f 209/209/209 210/210/210 214/214/214
f 209/209/209 214/214/214 213/213/213
f 210/210/210 211/211/211 215/215/215
f 210/210/210 215/215/215 214/214/214
f 211/211/211 212/212/212 216/216/216
f 211/211/211 216/216/216 215/215/215
f 213/213/213 214/214/214 218/218/218
f 213/213/213 218/218/218 217/217/217
f 214/214/214 215/215/215 219/219/219
f 214/214/214 219/219/219 218/218/218
f 215/215/215 216/216/216 220/220/220
f 215/215/215 220/220/220 219/219/219
f 217/217/217 218/218/218 222/222/222
f 217/217/217 222/222/222 221/221/221
f 218/218/218 219/219/219 223/223/223
f 218/218/218 223/223/223 222/222/222
f 219/219/219 220/220/220 224/224/224
f 219/219/219 224/224/224 223/223/223
f 225/225/225 226/226/226 230/230/230
f 225/225/225 230/230/230 229/229/229
f 226/226/226 227/227/227 231/231/231
f 226/226/226 231/231/231 230/230/230
f 227/227/227 228/228/228 232/232/232
f 227/227/227 232/232/232 231/231/231
f 229/229/229 230/230/230 234/234/234
f 229/229/229 234/234/234 233/233/233
f 230/230/230 231/231/231 235/235/235
f 230/230/230 235/235/235 234/234/234
f 231/231/231 232/232/232 236/236/236
f 231/231/231 236/236/236 235/235/235
f 233/233/233 234/234/234 238/238/238
f 233/233/233 238/238/238 237/237/237
f 234/234/234 235/235/235 239/239/239
f 234/234/234 239/239/239 238/238/238
f 235/235/235 236/236/236 240/240/240
f 235/235/235 240/240/240 239/239/239
f 241/241/241 242/242/242 246/246/246
f 241/241/241 246/246/246 245/245/245
f 242/242/242 243/243/243 247/247/247
f 242/242/242 247/247/247 246/246/246
f 243/243/243 244/244/244 248/248/248
f 243/243/243 248/248/248 247/247/247
f 245/245/245 246/246/246 250/250/250
f 245/245/245 250/250/250 249/249/249
f 246/246/246 247/247/247 251/251/251
f 246/246/246 251/251/251 250/250/250
f 247/247/247 248/248/248 252/252/252
f 247/247/247 252/252/252 251/251/251
f 249/249/249 250/250/250 254/254/254
f 249/249/249 254/254/254 253/253/253
f 250/250/250 251/251/251 255/255/255
f 250/250/250 255/255/255 254/254/254
f 251/251/251 252/252/252 256/256/256
f 251/251/251 256/256/256 255/255/255
f 257/257/257 258/258/258 262/262/262
f 257/257/257 262/262/262 261/261/261
f 258/258/258 259/259/259 263/263/263
f 258/258/258 263/263/263 262/262/262
f 259/259/259 260/260/260 264/264/264
f 259/259/259 264/264/264 263/263/263
f 261/261/261 262/262/262 266/266/266
f 261/261/261 266/266/266 265/265/265
f 262/262/262 263/263/263 267/267/267
f 262/262/262 267/267/267 266/266/266
f 263/263/263 264/264/264 268/268/268
f 263/263/263 268/268/268 267/267/267
f 265/265/265 266/266/266 270/270/270
f 265/265/265 270/270/270 269/269/269
f 266/266/266 267/267/267 271/271/271
f 266/266/266 271/271/271 270/270/270
f 267/267/267 268/268/268 272/272/272
f 267/267/267 272/272/272 271/271/271
f 273/273/273 274/274/274 278/278/278
f 273/273/273 278/278/278 277/277/277
f 274/274/274 275/275/275 279/279/279
f 274/274/274 279/279/279 278/278/278
f 275/275/275 276/276/276 280/280/280
f 275/275/275 280/280/280 279/279/279
f 277/277/277 278/278/278 282/282/282
f 277/277/277 282/282/282 281/281/281
f 278/278/278 279/279/279 283/283/283
f 278/278/278 283/283/283 282/282/282
f 279/279/279 280/280/280 284/284/284
f 279/279/279 284/284/284 283/283/283
f 281/281/281 282/282/282 286/286/286
f 281/281/281 286/286/286 285/285/285
f 282/282/282 283/283/283 287/287/287
f 282/282/282 287/287/287 286/286/286
f 283/283/283 284/284/284 288/288/288
f 283/283/283 288/288/288 287/287/287
f 289/289/289 293/293/293 294/294/294
f 289/289/289 294/294/294 290/290/290
f 290/290/290 294/294/294 295/295/295
f 290/290/290 295/295/295 291/291/291
f 291/291/291 295/295/295 296/296/296
f 291/291/291 296/296/296 292/292/292
f 293/293/293 297/297/297 298/298/298
f 293/293/293 298/298/298 294/294/294
f 294/294/294 298/298/298 299/299/299
f 294/294/294 299/299/299 295/295/295
f 295/295/295 299/299/299 300/300/300
f 295/295/295 300/300/300 296/296/296
f 297/297/297 301/301/301 302/302/302
f 297/297/297 302/302/302 298/298/298
f 298/298/298 302/302/302 303/303/303
f 298/298/298 303/303/303 299/299/299
f 299/299/299 303/303/303 304/304/304
f 299/299/299 304/304/304 300/300/300
f 301/301/301 305/305/305 306/306/306
f 301/301/301 306/306/306 302/302/302
f 302/302/302 306/306/306 307/307/307
f 302/302/302 307/307/307 303/303/303
f 303/303/303 307/307/307 308/308/308
f 303/303/303 308/308/308 304/304/304
f 305/305/305 309/309/309 310/310/310
f 305/305/305 310/310/310 306/306/306
f 306/306/306 310/310/310 311/311/311
f 306/306/306 311/311/311 307/307/307
f 307/307/307 311/311/311 312/312/312
f 307/307/307 312/312/312 308/308/308
f 309/309/309 313/313/313 314/314/314
f 309/309/309 314/314/314 310/310/310
f 310/310/310 314/314/314 315/315/315
f 310/310/310 315/315/315 311/311/311
f 311/311/311 315/315/315 316/316/316
f 311/311/311 316/316/316 312/312/312
f 313/313/313 317/317/317 318/318/318
f 313/313/313 318/318/318 314/314/314
f 314/314/314 318/318/318 319/319/319
f 314/314/314 319/319/319 315/315/315
f 315/315/315 319/319/319 320/320/320
f 315/315/315 320/320/320 316/316/316
f 317/317/317 321/321/321 322/322/322
f 317/317/317 322/322/322 318/318/318
f 318/318/318 322/322/322 323/323/323
f 318/318/318 323/323/323 319/319/319
f 319/319/319 323/323/323 324/324/324
f 319/319/319 324/324/324 320/320/320
f 321/321/321 325/325/325 326/326/326
f 321/321/321 326/326/326 322/322/322
f 322/322/322 326/326/326 327/327/327
f 322/322/322 327/327/327 323/323/323
f 323/323/323 327/327/327 328/328/328
f 323/323/323 328/328/328 324/324/324
f 325/325/325 329/329/329 330/330/330
f 325/325/325 330/330/330 326/326/326
f 326/326/326 330/330/330 331/331/331
f 326/326/326 331/331/331 327/327/327
f 327/327/327 331/331/331 332/332/332
f 327/327/327 332/332/332 328/328/328
f 329/329/329 333/333/333 334/334/334
f 329/329/329 334/334/334 330/330/330
f 330/330/330 334/334/334 335/335/335
f 330/330/330 335/335/335 331/331/331
f 331/331/331 335/335/335 336/336/336
f 331/331/331 336/336/336 332/332/332
f 333/333/333 337/337/337 338/338/338
f 333/333/333 338/338/338 334/334/334
f 334/334/334 338/338/338 339/339/339
f 334/334/334 339/339/339 335/335/335
f 335/335/335 339/339/339 340/340/340
f 335/335/335 340/340/340 336/336/336
f 337/337/337 341/341/341 342/342/342
f 337/337/337 342/342/342 338/338/338
f 338/338/338 342/342/342 343/343/343
f 338/338/338 343/343/343 339/339/339
f 339/339/339 343/343/343 344/344/344
f 339/339/339 344/344/344 340/340/340
f 341/341/341 345/345/345 346/346/346
f 341/341/341 346/346/346 342/342/342
f 342/342/342 346/346/346 347/347/347
f 342/342/342 347/347/347 343/343/343
f 343/343/343 347/347/347 348/348/348
f 343/343/343 348/348/348 344/344/344
f 345/345/345 349/349/349 350/350/350
f 345/345/345 350/350/350 346/346/346
f 346/346/346 350/350/350 351/351/351
f 346/346/346 351/351/351 347/347/347
f 347/347/347 351/351/351 352/352/352
f 347/347/347 352/352/352 348/348/348
f 349/349/349 353/353/353 354/354/354
f 349/349/349 354/354/354 350/350/350
f 350/350/350 354/354/354 355/355/355
f 350/350/350 355/355/355 351/351/351
f 351/351/351 355/355/355 356/356/356
f 351/351/351 356/356/356 352/352/352
f 353/353/353 357/357/357 358/358/358
f 353/353/353 358/358/358 354/354/354
f 354/354/354 358/358/358 359/359/359
f 354/354/354 359/359/359 355/355/355
f 355/355/355 359/359/359 360/360/360
f 355/355/355 360/360/360 356/356/356
f 357/357/357 361/361/361 362/362/362
f 357/357/357 362/362/362 358/358/358
f 358/358/358 362/362/362 363/363/363
f 358/358/358 363/363/363 359/359/359
f 359/359/359 363/363/363 364/364/364
f 359/359/359 364/364/364 360/360/360
f 365/365/365 369/369/369 370/370/370
f 365/365/365 370/370/370 366/366/366
f 366/366/366 370/370/370 371/371/371
f 366/366/366 371/371/371 367/367/367
f 367/367/367 371/371/371 372/372/372
f 367/367/367 372/372/372 368/368/368
f 369/369/369 373/373/373 374/374/374
f 369/369/369 374/374/374 370/370/370
f 370/370/370 374/374/374 375/375/375
f 370/370/370 375/375/375 371/371/371
f 371/371/371 375/375/375 376/376/376
f 371/371/371 376/376/376 372/372/372
f 373/373/373 377/377/377 378/378/378
f 373/373/373 378/378/378 374/374/374
f 374/374/374 378/378/378 379/379/379
f 374/374/374 379/379/379 375/375/375
f 375/375/375 379/379/379 380/380/380
f 375/375/375 380/380/380 376/376/376
f 377/377/377 381/381/381 382/382/382
f 377/377/377 382/382/382 378/378/378
f 378/378/378 382/382/382 383/383/383
f 378/378/378 383/383/383 379/379/379
f 379/379/379 383/383/383 384/384/384
f 379/379/379 384/384/384 380/380/380
f 381/381/381 385/385/385 386/386/386
f 381/381/381 386/386/386 382/382/382
f 382/382/382 386/386/386 387/387/387
f 382/382/382 387/387/387 383/383/383
f 383/383/383 387/387/387 388/388/388
f 383/383/383 388/388/388 384/384/384
f 385/385/385 389/389/389 390/390/390
f 385/385/385 390/390/390 386/386/386
f 386/386/386 390/390/390 391/391/391
f 386/386/386 391/391/391 387/387/387
f 387/387/387 391/391/391 392/392/392
f 387/387/387 392/392/392 388/388/388
f 389/389/389 393/393/393 394/394/394
f 389/389/389 394/394/394 390/390/390
f 390/390/390 394/394/394 395/395/395
f 390/390/390 395/395/395 391/391/391
f 391/391/391 395/395/395 396/396/396
f 391/391/391 396/396/396 392/392/392
f 393/393/393 397/397/397 398/398/398
f 393/393/393 398/398/398 394/394/394
f 394/394/394 398/398/398 399/399/399
f 394/394/394 399/399/399 395/395/395
f 395/395/395 399/399/399 400/400/400
f 395/395/395 400/400/400 396/396/396
f 397/397/397 401/401/401 402/402/402
f 397/397/397 402/402/402 398/398/398
f 398/398/398 402/402/402 403/403/403
f 398/398/398 403/403/403 399/399/399
f 399/399/399 403/403/403 404/404/404
f 399/399/399 404/404/404 400/400/400
f 401/401/401 405/405/405 406/406/406
f 401/401/401 406/406/406 402/402/402
f 402/402/402 406/406/406 407/407/407
f 402/402/402 407/407/407 403/403/403
f 403/403/403 407/407/407 408/408/408
f 403/403/403 408/408/408 404/404/404
f 405/405/405 409/409/409 410/410/410
f 405/405/405 410/410/410 406/406/406
f 406/406/406 410/410/410 411/411/411
f 406/406/406 411/411/411 407/407/407
f 407/407/407 411/411/411 412/412/412
f 407/407/407 412/412/412 408/408/408
f 409/409/409 413/413/413 414/414/414
f 409/409/409 414/414/414 410/410/410
f 410/410/410 414/414/414 415/415/415
f 410/410/410 415/415/415 411/411/411
f 411/411/411 415/415/415 416/416/416
f 411/411/411 416/416/416 412/412/412
f 413/413/413 417/417/417 418/418/418
f 413/413/413 418/418/418 414/414/414
f 414/414/414 418/418/418 419/419/419
f 414/414/414 419/419/419 415/415/415
f 415/415/415 419/419/419 420/420/420
f 415/415/415 420/420/420 416/416/416
f 417/417/417 421/421/421 422/422/422
f 417/417/417 422/422/422 418/418/418
f 418/418/418 422/422/422 423/423/423
f 418/418/418 423/423/423 419/419/419
f 419/419/419 423/423/423 424/424/424
f 419/419/419 424/424/424 420/420/420
f 421/421/421 425/425/425 426/426/426
f 421/421/421 426/426/426 422/422/422
f 422/422/422 426/426/426 427/427/427
f 422/422/422 427/427/427 423/423/423
f 423/423/423 427/427/427 428/428/428
f 423/423/423 428/428/428 424/424/424
f 425/425/425 429/429/429 430/430/430
f 425/425/425 430/430/430 426/426/426
f 426/426/426 430/430/430 431/431/431
f 426/426/426 431/431/431 427/427/427
f 427/427/427 431/431/431 432/432/432
f 427/427/427 432/432/432 428/428/428
f 429/429/429 433/433/433 434/434/434
f 429/429/429 434/434/434 430/430/430
f 430/430/430 434/434/434 435/435/435
f 430/430/430 435/435/435 431/431/431
f 431/431/431 435/435/435 436/436/436
f 431/431/431 436/436/436 432/432/432
f 433/433/433 437/437/437 438/438/438
f 433/433/433 438/438/438 434/434/434
f 434/434/434 438/438/438 439/439/439
f 434/434/434 439/439/439 435/435/435
f 435/435/435 439/439/439 440/440/440
f 435/435/435 440/440/440 436/436/436
usemtl diffuser
f 441/441/441 442/442/442 446/446/446
f 441/441/441 446/446/446 445/445/445
f 442/442/442 443/443/443 447/447/447
f 442/442/442 447/447/447 446/446/446
f 443/443/443 444/444/444 448/448/448
f 443/443/443 448/448/448 447/447/447
f 445/445/445 446/446/446 450/450/450
f 445/445/445 450/450/450 449/449/449
f 446/446/446 447/447/447 451/451/451
f 446/446/446 451/451/451 450/450/450
f 447/447/447 448/448/448 452/452/452
f 447/447/447 452/452/452 451/451/451
f 449/449/449 450/450/450 454/454/454
f 449/449/449 454/454/454 453/453/453
f 450/450/450 451/451/451 455/455/455
f 450/450/450 455/455/455 454/454/454
f 451/451/451 452/452/452 456/456/456
f 451/451/451 456/456/456 455/455/455
f 457/457/457 458/458/458 462/462/462
f 457/457/457 462/462/462 461/461/461
f 458/458/458 459/459/459 463/463/463
f 458/458/458 463/463/463 462/462/462
f 459/459/459 460/460/460 464/464/464
f 459/459/459 464/464/464 463/463/463
f 461/461/461 462/462/462 466/466/466
f 461/461/461 466/466/466 465/465/465
f 462/462/462 463/463/463 467/467/467
f 462/462/462 467/467/467 466/466/466
f 463/463/463 464/464/464 468/468/468
f 463/463/463 468/468/468 467/467/467
f 465/465/465 466/466/466 470/470/470
f 465/465/465 470/470/470 469/469/469
f 466/466/466 467/467/467 471/471/471
f 466/466/466 471/471/471 470/470/470
f 467/467/467 468/468/468 472/472/472
f 467/467/467 472/472/472 471/471/471
f 473/473/473 474/474/474 478/478/478
f 473/473/473 478/478/478 477/477/477
f 474/474/474 475/475/475 479/479/479
f 474/474/474 479/479/479 478/478/478
f 475/475/475 476/476/476 480/480/480
f 475/475/475 480/480/480 479/479/479
f 477/477/477 478/478/478 482/482/482
f 477/477/477 482/482/482 481/481/481
f 478/478/478 479/479/479 483/483/483
f 478/478/478 483/483/483 482/482/482
f 479/479/479 480/480/480 484/484/484
f 479/479/479 484/484/484 483/483/483
f 481/481/481 482/482/482 486/486/486
f 481/481/481 486/486/486 485/485/485
f 482/482/482 483/483/483 487/487/487
f 482/482/482 487/487/487 486/486/486
f 483/483/483 484/484/484 488/488/488
f 483/483/483 488/488/488 487/487/487
f 489/489/489 490/490/490 494/494/494
f 489/489/489 494/494/494 493/493/493
f 490/490/490 491/491/491 495/495/495
f 490/490/490 495/495/495 494/494/494
f 491/491/491 492/492/492 496/496/496
f 491/491/491 496/496/496 495/495/495
f 493/493/493 494/494/494 498/498/498
f 493/493/493 498/498/498 497/497/497
f 494/494/494 495/495/495 499/499/499
f 494/494/494 499/499/499 498/498/498
f 495/495/495 496/496/496 500/500/500
f 495/495/495 500/500/500 499/499/499
f 497/497/497 498/498/498 502/502/502
f 497/497/497 502/502/502 501/501/501
f 498/498/498 499/499/499 503/503/503
f 498/498/498 503/503/503 502/502/502
f 499/499/499 500/500/500 504/504/504
f 499/499/499 504/504/504 503/503/503
f 505/505/505 506/506/506 510/510/510
f 505/505/505 510/510/510 509/509/509
f 506/506/506 507/507/507 511/511/511
f 506/506/506 511/511/511 510/510/510
f 507/507/507 508/508/508 512/512/512
f 507/507/507 512/512/512 511/511/511
f 509/509/509 510/510/510 514/514/514
f 509/509/509 514/514/514 513/513/513
f 510/510/510 511/511/511 515/515/515
f 510/510/510 515/515/515 514/514/514
f 511/511/511 512/512/512 516/516/516
f 511/511/511 516/516/516 515/515/515
f 513/513/513 514/514/514 518/518/518
f 513/513/513 518/518/518 517/517/517
f 514/514/514 515/515/515 519/519/519
f 514/514/514 519/519/519 518/518/518
f 515/515/515 516/516/516 520/520/520
f 515/515/515 520/520/520 519/519/519
f 521/521/521 522/522/522 526/526/526
f 521/521/521 526/526/526 525/525/525
f 522/522/522 523/523/523 527/527/527
f 522/522/522 527/527/527 526/526/526
f 523/523/523 524/524/524 528/528/528
f 523/523/523 528/528/528 527/527/527
f 525/525/525 526/526/526 530/530/530
f 525/525/525 530/530/530 529/529/529
f 526/526/526 527/527/527 531/531/531
f 526/526/526 531/531/531 530/530/530
f 527/527/527 528/528/528 532/532/532
f 527/527/527 532/532/532 531/531/531
f 529/529/529 530/530/530 534/534/534
f 529/529/529 534/534/534 533/533/533
f 530/530/530 531/531/531 535/535/535
f 530/530/530 535/535/535 534/534/534
f 531/531/531 532/532/532 536/536/536
f 531/531/531 536/536/536 535/535/535
f 537/537/537 538/538/538 542/542/542
f 537/537/537 542/542/542 541/541/541
f 538/538/538 539/539/539 543/543/543
f 538/538/538 543/543/543 542/542/542
f 539/539/539 540/540/540 544/544/544
f 539/539/539 544/544/544 543/543/543
f 541/541/541 542/542/542 546/546/546
f 541/541/541 546/546/546 545/545/545
f 542/542/542 543/543/543 547/547/547
f 542/542/542 547/547/547 546/546/546
f 543/543/543 544/544/544 548/548/548
f 543/543/543 548/548/548 547/547/547
f 545/545/545 546/546/546 550/550/550
f 545/545/545 550/550/550 549/549/549
f 546/546/546 547/547/547 551/551/551
f 546/546/546 551/551/551 550/550/550
f 547/547/547 548/548/548 552/552/552
f 547/547/547 552/552/552 551/551/551
f 553/553/553 554/554/554 558/558/558
f 553/553/553 558/558/558 557/557/557
f 554/554/554 555/555/555 559/559/559
f 554/554/554 559/559/559 558/558/558
f 555/555/555 556/556/556 560/560/560
f 555/555/555 560/560/560 559/559/559
f 557/557/557 558/558/558 562/562/562
f 557/557/557 562/562/562 561/561/561
f 558/558/558 559/559/559 563/563/563
f 558/558/558 563/563/563 562/562/562
f 559/559/559 560/560/560 564/564/564
f 559/559/559 564/564/564 563/563/563
f 561/561/561 562/562/562 566/566/566
f 561/561/561 566/566/566 565/565/565
f 562/562/562 563/563/563 567/567/567
f 562/562/562 567/567/567 566/566/566
f 563/563/563 564/564/564 568/568/568
f 563/563/563 568/568/568 567/567/567
f 569/569/569 570/570/570 574/574/574
f 569/569/569 574/574/574 573/573/573
f 570/570/570 571/571/571 575/575/575
f 570/570/570 575/575/575 574/574/574
f 571/571/571 572/572/572 576/576/576
f 571/571/571 576/576/576 575/575/575
f 573/573/573 574/574/574 578/578/578
f 573/573/573 578/578/578 577/577/577
f 574/574/574 575/575/575 579/579/579
f 574/574/574 579/579/579 578/578/578
f 575/575/575 576/576/576 580/580/580
f 575/575/575 580/580/580 579/579/579
f 577/577/577 578/578/578 582/582/582
f 577/577/577 582/582/582 581/581/581
f 578/578/578 579/579/579 583/583/583
f 578/578/578 583/583/583 582/582/582
f 579/579/579 580/580/580 584/584/584
f 579/579/579 584/584/584 583/583/583
f 585/585/585 586/586/586 590/590/590
f 585/585/585 590/590/590 589/589/589
f 586/586/586 587/587/587 591/591/591
f 586/586/586 591/591/591 590/590/590
f 587/587/587 588/588/588 592/592/592
f 587/587/587 592/592/592 591/591/591
f 589/589/589 590/590/590 594/594/594
f 589/589/589 594/594/594 593/593/593
f 590/590/590 591/591/591 595/595/595
f 590/590/590 595/595/595 594/594/594
f 591/591/591 592/592/592 596/596/596
f 591/591/591 596/596/596 595/595/595
f 593/593/593 594/594/594 598/598/598
f 593/593/593 598/598/598 597/597/597
f 594/594/594 595/595/595 599/599/599
f 594/594/594 599/599/599 598/598/598
f 595/595/595 596/596/596 600/600/600
f 595/595/595 600/600/600 599/599/599
f 601/601/601 602/602/602 606/606/606
f 601/601/601 606/606/606 605/605/605
f 602/602/602 603/603/603 607/607/607
f 602/602/602 607/607/607 606/606/606
f 603/603/603 604/604/604 608/608/608
f 603/603/603 608/608/608 607/607/607
f 605/605/605 606/606/606 610/610/610
f 605/605/605 610/610/610 609/609/609
f 606/606/606 607/607/607 611/611/611
f 606/606/606 611/611/611 610/610/610
f 607/607/607 608/608/608 612/612/612
f 607/607/607 612/612/612 611/611/611
f 609/609/609 610/610/610 614/614/614
f 609/609/609 614/614/614 613/613/613
f 610/610/610 611/611/611 615/615/615
f 610/610/610 615/615/615 614/614/614
f 611/611/611 612/612/612 616/616/616
f 611/611/611 616/616/616 615/615/615
f 617/617/617 618/618/618 622/622/622
f 617/617/617 622/622/622 621/621/621
f 618/618/618 619/619/619 623/623/623
f 618/618/618 623/623/623 622/622/622
f 619/619/619 620/620/620 624/624/624
f 619/619/619 624/624/624 623/623/623
f 621/621/621 622/622/622 626/626/626
f 621/621/621 626/626/626 625/625/625
f 622/622/622 623/623/623 627/627/627
f 622/622/622 627/627/627 626/626/626
f 623/623/623 624/624/624 628/628/628
f 623/623/623 628/628/628 627/627/627
f 625/625/625 626/626/626 630/630/630
f 625/625/625 630/630/630 629/629/629
f 626/626/626 627/627/627 631/631/631
f 626/626/626 631/631/631 630/630/630
f 627/627/627 628/628/628 632/632/632
f 627/627/627 632/632/632 631/631/631
f 633/633/633 634/634/634 638/638/638
f 633/633/633 638/638/638 637/637/637
f 634/634/634 635/635/635 639/639/639
f 634/634/634 639/639/639 638/638/638
f 635/635/635 636/636/636 640/640/640
f 635/635/635 640/640/640 639/639/639
f 637/637/637 638/638/638 642/642/642
f 637/637/637 642/642/642 641/641/641
f 638/638/638 639/639/639 643/643/643
f 638/638/638 643/643/643 642/642/642
f 639/639/639 640/640/640 644/644/644
f 639/639/639 644/644/644 643/643/643
f 641/641/641 642/642/642 646/646/646
f 641/641/641 646/646/646 645/645/645
f 642/642/642 643/643/643 647/647/647
f 642/642/642 647/647/647 646/646/646
f 643/643/643 644/644/644 648/648/648
f 643/643/643 648/648/648 647/647/647
f 649/649/649 650/650/650 654/654/654
f 649/649/649 654/654/654 653/653/653
f 650/650/650 651/651/651 655/655/655
f 650/650/650 655/655/655 654/654/654
f 651/651/651 652/652/652 656/656/656
f 651/651/651 656/656/656 655/655/655
f 653/653/653 654/654/654 658/658/658
f 653/653/653 658/658/658 657/657/657
f 654/654/654 655/655/655 659/659/659
f 654/654/654 659/659/659 658/658/658
f 655/655/655 656/656/656 660/660/660
f 655/655/655 660/660/660 659/659/659
f 657/657/657 658/658/658 662/662/662
f 657/657/657 662/662/662 661/661/661
f 658/658/658 659/659/659 663/663/663
f 658/658/658 663/663/663 662/662/662
f 659/659/659 660/660/660 664/664/664
f 659/659/659 664/664/664 663/663/663
f 665/665/665 666/666/666 670/670/670
f 665/665/665 670/670/670 669/669/669
f 666/666/666 667/667/667 671/671/671
f 666/666/666 671/671/671 670/670/670
f 667/667/667 668/668/668 672/672/672
f 667/667/667 672/672/672 671/671/671
f 669/669/669 670/670/670 674/674/674
f 669/669/669 674/674/674 673/673/673
f 670/670/670 671/671/671 675/675/675
f 670/670/670 675/675/675 674/674/674
f 671/671/671 672/672/672 676/676/676
f 671/671/671 676/676/676 675/675/675
f 673/673/673 674/674/674 678/678/678
f 673/673/673 678/678/678 677/677/677
f 674/674/674 675/675/675 679/679/679
f 674/674/674 679/679/679 678/678/678
f 675/675/675 676/676/676 680/680/680
f 675/675/675 680/680/680 679/679/679
f 681/681/681 682/682/682 686/686/686
f 681/681/681 686/686/686 685/685/685
f 682/682/682 683/683/683 687/687/687
f 682/682/682 687/687/687 686/686/686
f 683/683/683 684/684/684 688/688/688
f 683/683/683 688/688/688 687/687/687
f 685/685/685 686/686/686 690/690/690
f 685/685/685 690/690/690 689/689/689
f 686/686/686 687/687/687 691/691/691
f 686/686/686 691/691/691 690/690/690
f 687/687/687 688/688/688 692/692/692
f 687/687/687 692/692/692 691/691/691
f 689/689/689 690/690/690 694/694/694
f 689/689/689 694/694/694 693/693/693
f 690/690/690 691/691/691 695/695/695
f 690/690/690 695/695/695 694/694/694
f 691/691/691 692/692/692 696/696/696
f 691/691/691 696/696/696 695/695/695
f 697/697/697 698/698/698 702/702/702
f 697/697/697 702/702/702 701/701/701
f 698/698/698 699/699/699 703/703/703
f 698/698/698 703/703/703 702/702/702
f 699/699/699 700/700/700 704/704/704
f 699/699/699 704/704/704 703/703/703
f 701/701/701 702/702/702 706/706/706
f 701/701/701 706/706/706 705/705/705
f 702/702/702 703/703/703 707/707/707
f 702/702/702 707/707/707 706/706/706
f 703/703/703 704/704/704 708/708/708
f 703/703/703 708/708/708 707/707/707
f 705/705/705 706/706/706 710/710/710
f 705/705/705 710/710/710 709/709/709
f 706/706/706 707/707/707 711/711/711
f 706/706/706 711/711/711 710/710/710
f 707/707/707 708/708/708 712/712/712
f 707/707/707 712/712/712 711/711/711
f 713/713/713 714/714/714 718/718/718
f 713/713/713 718/718/718 717/717/717
f 714/714/714 715/715/715 719/719/719
f 714/714/714 719/719/719 718/718/718
f 715/715/715 716/716/716 720/720/720
f 715/715/715 720/720/720 719/719/719
f 717/717/717 718/718/718 722/722/722
f 717/717/717 722/722/722 721/721/721
f 718/718/718 719/719/719 723/723/723
f 718/718/718 723/723/723 722/722/722
f 719/719/719 720/720/720 724/724/724
f 719/719/719 724/724/724 723/723/723
f 721/721/721 722/722/722 726/726/726
f 721/721/721 726/726/726 725/725/725
f 722/722/722 723/723/723 727/727/727
f 722/722/722 727/727/727 726/726/726
f 723/723/723 724/724/724 728/728/728
f 723/723/723 728/728/728 727/727/727
usemtl grille
f 729/729/729 731/731/731 732/732/732
f 729/729/729 732/732/732 730/730/730
f 731/731/731 733/733/733 734/734/734
f 731/731/731 734/734/734 732/732/732
f 733/733/733 735/735/735 736/736/736
f 733/733/733 736/736/736 734/734/734
f 735/735/735 737/737/737 738/738/738
f 735/735/735 738/738/738 736/736/736
f 737/737/737 739/739/739 740/740/740
f 737/737/737 740/740/740 738/738/738
f 739/739/739 741/741/741 742/742/742
f 739/739/739 742/742/742 740/740/740
f 741/741/741 743/743/743 744/744/744
f 741/741/741 744/744/744 742/742/742
f 743/743/743 745/745/745 746/746/746
f 743/743/743 746/746/746 744/744/744
f 745/745/745 747/747/747 748/748/748
f 745/745/745 748/748/748 746/746/746
f 747/747/747 749/749/749 750/750/750
f 747/747/747 750/750/750 748/748/748
f 749/749/749 751/751/751 752/752/752
f 749/749/749 752/752/752 750/750/750
f 751/751/751 753/753/753 754/754/754
f 751/751/751 754/754/754 752/752/752
f 753/753/753 755/755/755 756/756/756
f 753/753/753 756/756/756 754/754/754
f 755/755/755 757/757/757 758/758/758
f 755/755/755 758/758/758 756/756/756
f 757/757/757 759/759/759 760/760/760
f 757/757/757 760/760/760 758/758/758
f 759/759/759 761/761/761 762/762/762
f 759/759/759 762/762/762 760/760/760
f 761/761/761 763/763/763 764/764/764
f 761/761/761 764/764/764 762/762/762
f 763/763/763 765/765/765 766/766/766
f 763/763/763 766/766/766 764/764/764
f 767/767/767 769/769/769 770/770/770
f 767/767/767 770/770/770 768/768/768
f 769/769/769 771/771/771 772/772/772
f 769/769/769 772/772/772 770/770/770
f 771/771/771 773/773/773 774/774/774
f 771/771/771 774/774/774 772/772/772
f 773/773/773 775/775/775 776/776/776
f 773/773/773 776/776/776 774/774/774
f 775/775/775 777/777/777 778/778/778
f 775/775/775 778/778/778 776/776/776
f 777/777/777 779/779/779 780/780/780
f 777/777/777 780/780/780 778/778/778
f 779/779/779 781/781/781 782/782/782
f 779/779/779 782/782/782 780/780/780
f 781/781/781 783/783/783 784/784/784
f 781/781/781 784/784/784 782/782/782
f 783/783/783 785/785/785 786/786/786
f 783/783/783 786/786/786 784/784/784
f 785/785/785 787/787/787 788/788/788
f 785/785/785 788/788/788 786/786/786
f 787/787/787 789/789/789 790/790/790
f 787/787/787 790/790/790 788/788/788
f 789/789/789 791/791/791 792/792/792
f 789/789/789 792/792/792 790/790/790
f 791/791/791 793/793/793 794/794/794
f 791/791/791 794/794/794 792/792/792
f 793/793/793 795/795/795 796/796/796
f 793/793/793 796/796/796 794/794/794
f 795/795/795 797/797/797 798/798/798
f 795/795/795 798/798/798 796/796/796
f 797/797/797 799/799/799 800/800/800
f 797/797/797 800/800/800 798/798/798
f 799/799/799 801/801/801 802/802/802
f 799/799/799 802/802/802 800/800/800
f 801/801/801 803/803/803 804/804/804
f 801/801/801 804/804/804 802/802/802
