# Sinh tự động bởi tools/mesh_kit.py - đừng sửa tay
o e_arms_seated
v -0.1307 0.4408 -0.0015
v -0.1604 0.4372 0.0506
v -0.2196 0.4464 0.0520
v -0.2493 0.4592 0.0015
v -0.2196 0.4628 -0.0506
v -0.1604 0.4536 -0.0520
v -0.1307 0.4408 -0.0015
v -0.1707 0.1908 -0.0415
v -0.2004 0.1872 0.0106
v -0.2596 0.1964 0.0120
v -0.2893 0.2092 -0.0385
v -0.2596 0.2128 -0.0906
v -0.2004 0.2036 -0.0920
v -0.1707 0.1908 -0.0415
v -0.1900 0.4500 0.0000
v -0.1307 0.4408 -0.0015
v -0.1604 0.4372 0.0506
v -0.2196 0.4464 0.0520
v -0.2493 0.4592 0.0015
v -0.2196 0.4628 -0.0506
v -0.1604 0.4536 -0.0520
v -0.2300 0.2000 -0.0400
v -0.1707 0.1908 -0.0415
v -0.2004 0.1872 0.0106
v -0.2596 0.1964 0.0120
v -0.2893 0.2092 -0.0385
v -0.2596 0.2128 -0.0906
v -0.2004 0.2036 -0.0920
v -0.2232 0.2496 -0.0628
v -0.1810 0.2248 -0.0377
v -0.1878 0.1752 -0.0149
v -0.2368 0.1504 -0.0172
v -0.2790 0.1752 -0.0423
v -0.2722 0.2248 -0.0651
v -0.2232 0.2496 -0.0628
v -0.1591 0.1794 -0.2764
v -0.0915 0.1397 -0.2363
v -0.1025 0.0603 -0.1999
v -0.1809 0.0206 -0.2036
v -0.2485 0.0603 -0.2437
v -0.2375 0.1397 -0.2801
v -0.1591 0.1794 -0.2764
v 0.2493 0.4592 0.0015
v 0.2196 0.4464 0.0520
v 0.1604 0.4372 0.0506
v 0.1307 0.4408 -0.0015
v 0.1604 0.4536 -0.0520
v 0.2196 0.4628 -0.0506
v 0.2493 0.4592 0.0015
v 0.2893 0.2092 -0.0385
v 0.2596 0.1964 0.0120
v 0.2004 0.1872 0.0106
v 0.1707 0.1908 -0.0415
v 0.2004 0.2036 -0.0920
v 0.2596 0.2128 -0.0906
v 0.2893 0.2092 -0.0385
v 0.1900 0.4500 0.0000
v 0.2493 0.4592 0.0015
v 0.2196 0.4464 0.0520
v 0.1604 0.4372 0.0506
v 0.1307 0.4408 -0.0015
v 0.1604 0.4536 -0.0520
v 0.2196 0.4628 -0.0506
v 0.2300 0.2000 -0.0400
v 0.2893 0.2092 -0.0385
v 0.2596 0.1964 0.0120
v 0.2004 0.1872 0.0106
v 0.1707 0.1908 -0.0415
v 0.2004 0.2036 -0.0920
v 0.2596 0.2128 -0.0906
v 0.2232 0.2496 -0.0628
v 0.2722 0.2248 -0.0651
v 0.2790 0.1752 -0.0423
v 0.2368 0.1504 -0.0172
v 0.1878 0.1752 -0.0149
v 0.1810 0.2248 -0.0377
v 0.2232 0.2496 -0.0628
v 0.1591 0.1794 -0.2764
v 0.2375 0.1397 -0.2801
v 0.2485 0.0603 -0.2437
v 0.1809 0.0206 -0.2036
v 0.1025 0.0603 -0.1999
v 0.0915 0.1397 -0.2363
v 0.1591 0.1794 -0.2764
vt 0.0000 0.0000
vt 0.0000 0.0628
vt 0.0000 0.1257
vt 0.0000 0.1885
vt 0.0000 0.2513
vt 0.0000 0.3142
vt 0.0000 0.3770
vt 0.2563 0.0000
vt 0.2563 0.0628
vt 0.2563 0.1257
vt 0.2563 0.1885
vt 0.2563 0.2513
vt 0.2563 0.3142
vt 0.2563 0.3770
vt 0.0000 0.0000
vt 0.0600 0.0000
vt 0.0300 0.0520
vt -0.0300 0.0520
vt -0.0600 0.0000
vt -0.0300 -0.0520
vt 0.0300 -0.0520
vt 0.0000 0.0000
vt 0.0600 0.0000
vt 0.0300 0.0520
vt -0.0300 0.0520
vt -0.0600 0.0000
vt -0.0300 -0.0520
vt 0.0300 -0.0520
vt 0.0000 0.0000
vt 0.0000 0.0576
vt 0.0000 0.1152
vt 0.0000 0.1728
vt 0.0000 0.2304
vt 0.0000 0.2880
vt 0.0000 0.3456
vt 0.2315 0.0000
vt 0.2315 0.0576
vt 0.2315 0.1152
vt 0.2315 0.1728
vt 0.2315 0.2304
vt 0.2315 0.2880
vt 0.2315 0.3456
vt 0.0000 0.0000
vt 0.0000 0.0628
vt 0.0000 0.1257
vt 0.0000 0.1885
vt 0.0000 0.2513
vt 0.0000 0.3142
vt 0.0000 0.3770
vt 0.2563 0.0000
vt 0.2563 0.0628
vt 0.2563 0.1257
vt 0.2563 0.1885
vt 0.2563 0.2513
vt 0.2563 0.3142
vt 0.2563 0.3770
vt 0.0000 0.0000
vt 0.0600 0.0000
vt 0.0300 0.0520
vt -0.0300 0.0520
vt -0.0600 0.0000
vt -0.0300 -0.0520
vt 0.0300 -0.0520
vt 0.0000 0.0000
vt 0.0600 0.0000
vt 0.0300 0.0520
vt -0.0300 0.0520
vt -0.0600 0.0000
vt -0.0300 -0.0520
vt 0.0300 -0.0520
vt 0.0000 0.0000
vt 0.0000 0.0576
vt 0.0000 0.1152
vt 0.0000 0.1728
vt 0.0000 0.2304
vt 0.0000 0.2880
vt 0.0000 0.3456
vt 0.2315 0.0000
vt 0.2315 0.0576
vt 0.2315 0.1152
vt 0.2315 0.1728
vt 0.2315 0.2304
vt 0.2315 0.2880
vt 0.2315 0.3456
vn 0.988 -0.154 -0.025
vn 0.494 -0.214 0.843
vn -0.494 -0.060 0.867
vn -0.988 0.154 0.025
vn -0.494 0.214 -0.843
vn 0.494 0.060 -0.867
vn 0.988 -0.154 -0.025
vn 0.988 -0.154 -0.025
vn 0.494 -0.214 0.843
vn -0.494 -0.060 0.867
vn -0.988 0.154 0.025
vn -0.494 0.214 -0.843
vn 0.494 0.060 -0.867
vn 0.988 -0.154 -0.025
vn 0.156 0.975 0.156
vn 0.156 0.975 0.156
vn 0.156 0.975 0.156
vn 0.156 0.975 0.156
vn 0.156 0.975 0.156
vn 0.156 0.975 0.156
vn 0.156 0.975 0.156
vn -0.156 -0.975 -0.156
vn -0.156 -0.975 -0.156
vn -0.156 -0.975 -0.156
vn -0.156 -0.975 -0.156
vn -0.156 -0.975 -0.156
vn -0.156 -0.975 -0.156
vn -0.156 -0.975 -0.156
vn 0.124 0.902 -0.414
vn 0.892 0.451 0.042
vn 0.767 -0.451 0.456
vn -0.124 -0.902 0.414
vn -0.892 -0.451 -0.042
vn -0.767 0.451 -0.456
vn 0.124 0.902 -0.414
vn 0.124 0.902 -0.414
vn 0.892 0.451 0.042
vn 0.767 -0.451 0.456
vn -0.124 -0.902 0.414
vn -0.892 -0.451 -0.042
vn -0.767 0.451 -0.456
vn 0.124 0.902 -0.414
vn 0.988 0.154 0.025
vn 0.494 -0.060 0.867
vn -0.494 -0.214 0.843
vn -0.988 -0.154 -0.025
vn -0.494 0.060 -0.867
vn 0.494 0.214 -0.843
vn 0.988 0.154 0.025
vn 0.988 0.154 0.025
vn 0.494 -0.060 0.867
vn -0.494 -0.214 0.843
vn -0.988 -0.154 -0.025
vn -0.494 0.060 -0.867
vn 0.494 0.214 -0.843
vn 0.988 0.154 0.025
vn -0.156 0.975 0.156
vn -0.156 0.975 0.156
vn -0.156 0.975 0.156
vn -0.156 0.975 0.156
vn -0.156 0.975 0.156
vn -0.156 0.975 0.156
vn -0.156 0.975 0.156
vn 0.156 -0.975 -0.156
vn 0.156 -0.975 -0.156
vn 0.156 -0.975 -0.156
vn 0.156 -0.975 -0.156
vn 0.156 -0.975 -0.156
vn 0.156 -0.975 -0.156
vn 0.156 -0.975 -0.156
vn -0.124 0.902 -0.414
vn 0.767 0.451 -0.456
vn 0.892 -0.451 -0.042
vn 0.124 -0.902 0.414
vn -0.767 -0.451 0.456
vn -0.892 0.451 0.042
vn -0.124 0.902 -0.414
vn -0.124 0.902 -0.414
vn 0.767 0.451 -0.456
vn 0.892 -0.451 -0.042
vn 0.124 -0.902 0.414
vn -0.767 -0.451 0.456
vn -0.892 0.451 0.042
vn -0.124 0.902 -0.414
v -0.1652 0.1885 -0.2560
v -0.0984 0.1492 -0.2163
v -0.1092 0.0708 -0.1804
v -0.1868 0.0315 -0.1840
v -0.2536 0.0708 -0.2237
v -0.2428 0.1492 -0.2596
v -0.1652 0.1885 -0.2560
v -0.1592 0.1785 -0.2760
v -0.0924 0.1392 -0.2363
v -0.1032 0.0608 -0.2004
v -0.1808 0.0215 -0.2040
v -0.2476 0.0608 -0.2437
v -0.2368 0.1392 -0.2796
v -0.1592 0.1785 -0.2760
v 0.1652 0.1885 -0.2560
v 0.2428 0.1492 -0.2596
v 0.2536 0.0708 -0.2237
v 0.1868 0.0315 -0.1840
v 0.1092 0.0708 -0.1804
v 0.0984 0.1492 -0.2163
v 0.1652 0.1885 -0.2560
v 0.1592 0.1785 -0.2760
v 0.2368 0.1392 -0.2796
v 0.2476 0.0608 -0.2437
v 0.1808 0.0215 -0.2040
v 0.1032 0.0608 -0.2004
v 0.0924 0.1392 -0.2363
v 0.1592 0.1785 -0.2760
vt 0.0000 0.0000
vt 0.0000 0.0911
vt 0.0000 0.1822
vt 0.0000 0.2733
vt 0.0000 0.3644
vt 0.0000 0.4555
vt 0.0000 0.5466
vt 0.0232 0.0000
vt 0.0232 0.0911
vt 0.0232 0.1822
vt 0.0232 0.2733
vt 0.0232 0.3644
vt 0.0232 0.4555
vt 0.0232 0.5466
vt 0.0000 0.0000
vt 0.0000 0.0911
vt 0.0000 0.1822
vt 0.0000 0.2733
vt 0.0000 0.3644
vt 0.0000 0.4555
vt 0.0000 0.5466
vt 0.0232 0.0000
vt 0.0232 0.0911
vt 0.0232 0.1822
vt 0.0232 0.2733
vt 0.0232 0.3644
vt 0.0232 0.4555
vt 0.0232 0.5466
vn 0.124 0.902 -0.414
vn 0.892 0.451 0.042
vn 0.767 -0.451 0.456
vn -0.124 -0.902 0.414
vn -0.892 -0.451 -0.042
vn -0.767 0.451 -0.456
vn 0.124 0.902 -0.414
vn 0.124 0.902 -0.414
vn 0.892 0.451 0.042
vn 0.767 -0.451 0.456
vn -0.124 -0.902 0.414
vn -0.892 -0.451 -0.042
vn -0.767 0.451 -0.456
vn 0.124 0.902 -0.414
vn -0.124 0.902 -0.414
vn 0.767 0.451 -0.456
vn 0.892 -0.451 -0.042
vn 0.124 -0.902 0.414
vn -0.767 -0.451 0.456
vn -0.892 0.451 0.042
vn -0.124 0.902 -0.414
vn -0.124 0.902 -0.414
vn 0.767 0.451 -0.456
vn 0.892 -0.451 -0.042
vn 0.124 -0.902 0.414
vn -0.767 -0.451 0.456
vn -0.892 0.451 0.042
vn -0.124 0.902 -0.414
v -0.1931 0.1474 -0.1629
v -0.1864 0.1423 -0.1588
v -0.1902 0.1340 -0.1563
v -0.1992 0.1340 -0.1589
v -0.2010 0.1423 -0.1631
v -0.1931 0.1474 -0.1629
v -0.1491 0.0824 -0.3129
v -0.1424 0.0773 -0.3088
v -0.1462 0.0690 -0.3063
v -0.1552 0.0690 -0.3089
v -0.1570 0.0773 -0.3131
v -0.1491 0.0824 -0.3129
v -0.1940 0.1400 -0.1600
v -0.1931 0.1474 -0.1629
v -0.1864 0.1423 -0.1588
v -0.1902 0.1340 -0.1563
v -0.1992 0.1340 -0.1589
v -0.2010 0.1423 -0.1631
v -0.1500 0.0750 -0.3100
v -0.1491 0.0824 -0.3129
v -0.1424 0.0773 -0.3088
v -0.1462 0.0690 -0.3063
v -0.1552 0.0690 -0.3089
v -0.1570 0.0773 -0.3131
v 0.1931 0.1474 -0.1629
v 0.2010 0.1423 -0.1631
v 0.1992 0.1340 -0.1589
v 0.1902 0.1340 -0.1563
v 0.1864 0.1423 -0.1588
v 0.1931 0.1474 -0.1629
v 0.1491 0.0824 -0.3129
v 0.1570 0.0773 -0.3131
v 0.1552 0.0690 -0.3089
v 0.1462 0.0690 -0.3063
v 0.1424 0.0773 -0.3088
v 0.1491 0.0824 -0.3129
v 0.1940 0.1400 -0.1600
v 0.1931 0.1474 -0.1629
v 0.2010 0.1423 -0.1631
v 0.1992 0.1340 -0.1589
v 0.1902 0.1340 -0.1563
v 0.1864 0.1423 -0.1588
v 0.1500 0.0750 -0.3100
v 0.1491 0.0824 -0.3129
v 0.1570 0.0773 -0.3131
v 0.1552 0.0690 -0.3089
v 0.1462 0.0690 -0.3063
v 0.1424 0.0773 -0.3088
vt 0.0000 0.0000
vt 0.0000 0.0101
vt 0.0000 0.0201
vt 0.0000 0.0302
vt 0.0000 0.0402
vt 0.0000 0.0503
vt 0.1693 0.0000
vt 0.1693 0.0101
vt 0.1693 0.0201
vt 0.1693 0.0302
vt 0.1693 0.0402
vt 0.1693 0.0503
vt 0.0000 0.0000
vt 0.0080 0.0000
vt 0.0025 0.0076
vt -0.0065 0.0047
vt -0.0065 -0.0047
vt 0.0025 -0.0076
vt 0.0000 0.0000
vt 0.0080 0.0000
vt 0.0025 0.0076
vt -0.0065 0.0047
vt -0.0065 -0.0047
vt 0.0025 -0.0076
vt 0.0000 0.0000
vt 0.0000 0.0101
vt 0.0000 0.0201
vt 0.0000 0.0302
vt 0.0000 0.0402
vt 0.0000 0.0503
vt 0.1693 0.0000
vt 0.1693 0.0101
vt 0.1693 0.0201
vt 0.1693 0.0302
vt 0.1693 0.0402
vt 0.1693 0.0503
vt 0.0000 0.0000
vt 0.0080 0.0000
vt 0.0025 0.0076
vt -0.0065 0.0047
vt -0.0065 -0.0047
vt 0.0025 -0.0076
vt 0.0000 0.0000
vt 0.0080 0.0000
vt 0.0025 0.0076
vt -0.0065 0.0047
vt -0.0065 -0.0047
vt 0.0025 -0.0076
vn 0.108 0.923 -0.368
vn 0.946 0.285 0.154
vn 0.477 -0.747 0.464
vn -0.651 -0.747 0.133
vn -0.879 0.285 -0.382
vn 0.108 0.923 -0.368
vn 0.108 0.923 -0.368
vn 0.946 0.285 0.154
vn 0.477 -0.747 0.464
vn -0.651 -0.747 0.133
vn -0.879 0.285 -0.382
vn 0.108 0.923 -0.368
vn -0.260 0.384 0.886
vn -0.260 0.384 0.886
vn -0.260 0.384 0.886
vn -0.260 0.384 0.886
vn -0.260 0.384 0.886
vn -0.260 0.384 0.886
vn 0.260 -0.384 -0.886
vn 0.260 -0.384 -0.886
vn 0.260 -0.384 -0.886
vn 0.260 -0.384 -0.886
vn 0.260 -0.384 -0.886
vn 0.260 -0.384 -0.886
vn -0.108 0.923 -0.368
vn 0.879 0.285 -0.382
vn 0.651 -0.747 0.133
vn -0.477 -0.747 0.464
vn -0.946 0.285 0.154
vn -0.108 0.923 -0.368
vn -0.108 0.923 -0.368
vn 0.879 0.285 -0.382
vn 0.651 -0.747 0.133
vn -0.477 -0.747 0.464
vn -0.946 0.285 0.154
vn -0.108 0.923 -0.368
vn 0.260 0.384 0.886
vn 0.260 0.384 0.886
vn 0.260 0.384 0.886
vn 0.260 0.384 0.886
vn 0.260 0.384 0.886
vn 0.260 0.384 0.886
vn -0.260 -0.384 -0.886
vn -0.260 -0.384 -0.886
vn -0.260 -0.384 -0.886
vn -0.260 -0.384 -0.886
vn -0.260 -0.384 -0.886
vn -0.260 -0.384 -0.886
v -0.1791 0.0782 -0.3041
v -0.1209 0.0658 -0.2959
v -0.1064 0.0647 -0.3646
v -0.1222 0.0689 -0.3920
v -0.1513 0.0751 -0.3961
v -0.1742 0.0793 -0.3741
v -0.1742 0.0793 -0.3741
v -0.1513 0.0751 -0.3961
v -0.1222 0.0689 -0.3920
v -0.1064 0.0647 -0.3646
v -0.1209 0.0658 -0.2959
v -0.1791 0.0782 -0.3041
v 0.1209 0.0658 -0.2959
v 0.1791 0.0782 -0.3041
v 0.1742 0.0793 -0.3741
v 0.1513 0.0751 -0.3961
v 0.1222 0.0689 -0.3920
v 0.1064 0.0647 -0.3646
v 0.1064 0.0647 -0.3646
v 0.1222 0.0689 -0.3920
v 0.1513 0.0751 -0.3961
v 0.1742 0.0793 -0.3741
v 0.1791 0.0782 -0.3041
v 0.1209 0.0658 -0.2959
vt 0.0000 0.0300
vt 0.0000 -0.0300
vt 0.0700 -0.0350
vt 0.0950 -0.0150
vt 0.0950 0.0150
vt 0.0700 0.0350
vt -0.0700 0.0350
vt -0.0950 0.0150
vt -0.0950 -0.0150
vt -0.0700 -0.0350
vt 0.0000 -0.0300
vt 0.0000 0.0300
vt 0.0000 0.0300
vt 0.0000 -0.0300
vt 0.0700 -0.0350
vt 0.0950 -0.0150
vt 0.0950 0.0150
vt 0.0700 0.0350
vt -0.0700 0.0350
vt -0.0950 0.0150
vt -0.0950 -0.0150
vt -0.0700 -0.0350
vt 0.0000 -0.0300
vt 0.0000 0.0300
vn 0.206 0.978 0.029
vn 0.206 0.978 0.029
vn 0.206 0.978 0.029
vn 0.206 0.978 0.029
vn 0.206 0.978 0.029
vn 0.206 0.978 0.029
vn -0.206 -0.978 -0.029
vn -0.206 -0.978 -0.029
vn -0.206 -0.978 -0.029
vn -0.206 -0.978 -0.029
vn -0.206 -0.978 -0.029
vn -0.206 -0.978 -0.029
vn -0.206 0.978 0.029
vn -0.206 0.978 0.029
vn -0.206 0.978 0.029
vn -0.206 0.978 0.029
vn -0.206 0.978 0.029
vn -0.206 0.978 0.029
vn 0.206 -0.978 -0.029
vn 0.206 -0.978 -0.029
vn 0.206 -0.978 -0.029
vn 0.206 -0.978 -0.029
vn 0.206 -0.978 -0.029
vn 0.206 -0.978 -0.029
usemtl paper
f 1/1/1 2/2/2 9/9/9
f 1/1/1 9/9/9 8/8/8
f 2/2/2 3/3/3 10/10/10
f 2/2/2 10/10/10 9/9/9
f 3/3/3 4/4/4 11/11/11
f 3/3/3 11/11/11 10/10/10
f 4/4/4 5/5/5 12/12/12
f 4/4/4 12/12/12 11/11/11
f 5/5/5 6/6/6 13/13/13
f 5/5/5 13/13/13 12/12/12
f 6/6/6 7/7/7 14/14/14
f 6/6/6 14/14/14 13/13/13
f 15/15/15 17/17/17 16/16/16
f 15/15/15 18/18/18 17/17/17
f 15/15/15 19/19/19 18/18/18
f 15/15/15 20/20/20 19/19/19
f 15/15/15 21/21/21 20/20/20
f 15/15/15 16/16/16 21/21/21
f 22/22/22 23/23/23 24/24/24
f 22/22/22 24/24/24 25/25/25
f 22/22/22 25/25/25 26/26/26
f 22/22/22 26/26/26 27/27/27
f 22/22/22 27/27/27 28/28/28
f 22/22/22 28/28/28 23/23/23
f 29/29/29 30/30/30 37/37/37
f 29/29/29 37/37/37 36/36/36
f 30/30/30 31/31/31 38/38/38
f 30/30/30 38/38/38 37/37/37
f 31/31/31 32/32/32 39/39/39
f 31/31/31 39/39/39 38/38/38
f 32/32/32 33/33/33 40/40/40
f 32/32/32 40/40/40 39/39/39
f 33/33/33 34/34/34 41/41/41
f 33/33/33 41/41/41 40/40/40
f 34/34/34 35/35/35 42/42/42
f 34/34/34 42/42/42 41/41/41
f 43/43/43 44/44/44 51/51/51
f 43/43/43 51/51/51 50/50/50
f 44/44/44 45/45/45 52/52/52
f 44/44/44 52/52/52 51/51/51
f 45/45/45 46/46/46 53/53/53
f 45/45/45 53/53/53 52/52/52
f 46/46/46 47/47/47 54/54/54
f 46/46/46 54/54/54 53/53/53
f 47/47/47 48/48/48 55/55/55
f 47/47/47 55/55/55 54/54/54
f 48/48/48 49/49/49 56/56/56
f 48/48/48 56/56/56 55/55/55
f 57/57/57 59/59/59 58/58/58
f 57/57/57 60/60/60 59/59/59
f 57/57/57 61/61/61 60/60/60
f 57/57/57 62/62/62 61/61/61
f 57/57/57 63/63/63 62/62/62
f 57/57/57 58/58/58 63/63/63
f 64/64/64 65/65/65 66/66/66
f 64/64/64 66/66/66 67/67/67
f 64/64/64 67/67/67 68/68/68
f 64/64/64 68/68/68 69/69/69
f 64/64/64 69/69/69 70/70/70
f 64/64/64 70/70/70 65/65/65
f 71/71/71 72/72/72 79/79/79
f 71/71/71 79/79/79 78/78/78
f 72/72/72 73/73/73 80/80/80
f 72/72/72 80/80/80 79/79/79
f 73/73/73 74/74/74 81/81/81
f 73/73/73 81/81/81 80/80/80
f 74/74/74 75/75/75 82/82/82
f 74/74/74 82/82/82 81/81/81
f 75/75/75 76/76/76 83/83/83
f 75/75/75 83/83/83 82/82/82
f 76/76/76 77/77/77 84/84/84
f 76/76/76 84/84/84 83/83/83
usemtl trim
f 85/85/85 86/86/86 93/93/93
f 85/85/85 93/93/93 92/92/92
f 86/86/86 87/87/87 94/94/94
f 86/86/86 94/94/94 93/93/93
f 87/87/87 88/88/88 95/95/95
f 87/87/87 95/95/95 94/94/94
f 88/88/88 89/89/89 96/96/96
f 88/88/88 96/96/96 95/95/95
f 89/89/89 90/90/90 97/97/97
f 89/89/89 97/97/97 96/96/96
f 90/90/90 91/91/91 98/98/98
f 90/90/90 98/98/98 97/97/97
f 99/99/99 100/100/100 107/107/107
f 99/99/99 107/107/107 106/106/106
f 100/100/100 101/101/101 108/108/108
f 100/100/100 108/108/108 107/107/107
f 101/101/101 102/102/102 109/109/109
f 101/101/101 109/109/109 108/108/108
f 102/102/102 103/103/103 110/110/110
f 102/102/102 110/110/110 109/109/109
f 103/103/103 104/104/104 111/111/111
f 103/103/103 111/111/111 110/110/110
f 104/104/104 105/105/105 112/112/112
f 104/104/104 112/112/112 111/111/111
usemtl bamboo
f 113/113/113 114/114/114 120/120/120
f 113/113/113 120/120/120 119/119/119
f 114/114/114 115/115/115 121/121/121
f 114/114/114 121/121/121 120/120/120
f 115/115/115 116/116/116 122/122/122
f 115/115/115 122/122/122 121/121/121
f 116/116/116 117/117/117 123/123/123
f 116/116/116 123/123/123 122/122/122
f 117/117/117 118/118/118 124/124/124
f 117/117/117 124/124/124 123/123/123
f 125/125/125 127/127/127 126/126/126
f 125/125/125 128/128/128 127/127/127
f 125/125/125 129/129/129 128/128/128
f 125/125/125 130/130/130 129/129/129
f 125/125/125 126/126/126 130/130/130
f 131/131/131 132/132/132 133/133/133
f 131/131/131 133/133/133 134/134/134
f 131/131/131 134/134/134 135/135/135
f 131/131/131 135/135/135 136/136/136
f 131/131/131 136/136/136 132/132/132
f 137/137/137 138/138/138 144/144/144
f 137/137/137 144/144/144 143/143/143
f 138/138/138 139/139/139 145/145/145
f 138/138/138 145/145/145 144/144/144
f 139/139/139 140/140/140 146/146/146
f 139/139/139 146/146/146 145/145/145
f 140/140/140 141/141/141 147/147/147
f 140/140/140 147/147/147 146/146/146
f 141/141/141 142/142/142 148/148/148
f 141/141/141 148/148/148 147/147/147
f 149/149/149 151/151/151 150/150/150
f 149/149/149 152/152/152 151/151/151
f 149/149/149 153/153/153 152/152/152
f 149/149/149 154/154/154 153/153/153
f 149/149/149 150/150/150 154/154/154
f 155/155/155 156/156/156 157/157/157
f 155/155/155 157/157/157 158/158/158
f 155/155/155 158/158/158 159/159/159
f 155/155/155 159/159/159 160/160/160
f 155/155/155 160/160/160 156/156/156
usemtl hand
f 166/166/166 161/161/161 162/162/162
f 166/166/166 162/162/162 163/163/163
f 166/166/166 163/163/163 164/164/164
f 164/164/164 165/165/165 166/166/166
f 172/172/172 167/167/167 168/168/168
f 172/172/172 168/168/168 169/169/169
f 172/172/172 169/169/169 170/170/170
f 170/170/170 171/171/171 172/172/172
f 178/178/178 173/173/173 174/174/174
f 178/178/178 174/174/174 175/175/175
f 178/178/178 175/175/175 176/176/176
f 176/176/176 177/177/177 178/178/178
f 184/184/184 179/179/179 180/180/180
f 184/184/184 180/180/180 181/181/181
f 184/184/184 181/181/181 182/182/182
f 182/182/182 183/183/183 184/184/184
