# Sinh tự động bởi tools/mesh_kit.py - đừng sửa tay
o e_feet_shoes
v -0.0585 0.0085 -0.3285
v -0.0559 0.0059 -0.3400
v -0.0559 0.0059 -0.5200
v -0.0585 0.0085 -0.5315
v -0.0559 0.0200 -0.3259
v -0.0500 0.0200 -0.3400
v -0.0500 0.0200 -0.5200
v -0.0559 0.0200 -0.5341
v -0.0559 0.0300 -0.3259
v -0.0500 0.0300 -0.3400
v -0.0500 0.0300 -0.5200
v -0.0559 0.0300 -0.5341
v -0.0585 0.0415 -0.3285
v -0.0559 0.0441 -0.3400
v -0.0559 0.0441 -0.5200
v -0.0585 0.0415 -0.5315
v -0.1415 0.0085 -0.5315
v -0.1441 0.0059 -0.5200
v -0.1441 0.0059 -0.3400
v -0.1415 0.0085 -0.3285
v -0.1441 0.0200 -0.5341
v -0.1500 0.0200 -0.5200
v -0.1500 0.0200 -0.3400
v -0.1441 0.0200 -0.3259
v -0.1441 0.0300 -0.5341
v -0.1500 0.0300 -0.5200
v -0.1500 0.0300 -0.3400
v -0.1441 0.0300 -0.3259
v -0.1415 0.0415 -0.5315
v -0.1441 0.0441 -0.5200
v -0.1441 0.0441 -0.3400
v -0.1415 0.0415 -0.3285
v -0.1415 0.0415 -0.3285
v -0.1300 0.0441 -0.3259
v -0.0700 0.0441 -0.3259
v -0.0585 0.0415 -0.3285
v -0.1441 0.0441 -0.3400
v -0.1300 0.0500 -0.3400
v -0.0700 0.0500 -0.3400
v -0.0559 0.0441 -0.3400
v -0.1441 0.0441 -0.5200
v -0.1300 0.0500 -0.5200
v -0.0700 0.0500 -0.5200
v -0.0559 0.0441 -0.5200
v -0.1415 0.0415 -0.5315
v -0.1300 0.0441 -0.5341
v -0.0700 0.0441 -0.5341
v -0.0585 0.0415 -0.5315
v -0.1415 0.0085 -0.5315
v -0.1300 0.0059 -0.5341
v -0.0700 0.0059 -0.5341
v -0.0585 0.0085 -0.5315
v -0.1441 0.0059 -0.5200
v -0.1300 0.0000 -0.5200
v -0.0700 0.0000 -0.5200
v -0.0559 0.0059 -0.5200
v -0.1441 0.0059 -0.3400
v -0.1300 0.0000 -0.3400
v -0.0700 0.0000 -0.3400
v -0.0559 0.0059 -0.3400
v -0.1415 0.0085 -0.3285
v -0.1300 0.0059 -0.3259
v -0.0700 0.0059 -0.3259
v -0.0585 0.0085 -0.3285
v -0.1415 0.0085 -0.3285
v -0.1300 0.0059 -0.3259
v -0.0700 0.0059 -0.3259
v -0.0585 0.0085 -0.3285
v -0.1441 0.0200 -0.3259
v -0.1300 0.0200 -0.3200
v -0.0700 0.0200 -0.3200
v -0.0559 0.0200 -0.3259
v -0.1441 0.0300 -0.3259
v -0.1300 0.0300 -0.3200
v -0.0700 0.0300 -0.3200
v -0.0559 0.0300 -0.3259
v -0.1415 0.0415 -0.3285
v -0.1300 0.0441 -0.3259
v -0.0700 0.0441 -0.3259
v -0.0585 0.0415 -0.3285
v -0.0585 0.0085 -0.5315
v -0.0700 0.0059 -0.5341
v -0.1300 0.0059 -0.5341
v -0.1415 0.0085 -0.5315
v -0.0559 0.0200 -0.5341
v -0.0700 0.0200 -0.5400
v -0.1300 0.0200 -0.5400
v -0.1441 0.0200 -0.5341
v -0.0559 0.0300 -0.5341
v -0.0700 0.0300 -0.5400
v -0.1300 0.0300 -0.5400
v -0.1441 0.0300 -0.5341
v -0.0585 0.0415 -0.5315
v -0.0700 0.0441 -0.5341
v -0.1300 0.0441 -0.5341
v -0.1415 0.0415 -0.5315
v 0.1415 0.0085 -0.3285
v 0.1441 0.0059 -0.3400
v 0.1441 0.0059 -0.5200
v 0.1415 0.0085 -0.5315
v 0.1441 0.0200 -0.3259
v 0.1500 0.0200 -0.3400
v 0.1500 0.0200 -0.5200
v 0.1441 0.0200 -0.5341
v 0.1441 0.0300 -0.3259
v 0.1500 0.0300 -0.3400
v 0.1500 0.0300 -0.5200
v 0.1441 0.0300 -0.5341
v 0.1415 0.0415 -0.3285
v 0.1441 0.0441 -0.3400
v 0.1441 0.0441 -0.5200
v 0.1415 0.0415 -0.5315
v 0.0585 0.0085 -0.5315
v 0.0559 0.0059 -0.5200
v 0.0559 0.0059 -0.3400
v 0.0585 0.0085 -0.3285
v 0.0559 0.0200 -0.5341
v 0.0500 0.0200 -0.5200
v 0.0500 0.0200 -0.3400
v 0.0559 0.0200 -0.3259
v 0.0559 0.0300 -0.5341
v 0.0500 0.0300 -0.5200
v 0.0500 0.0300 -0.3400
v 0.0559 0.0300 -0.3259
v 0.0585 0.0415 -0.5315
v 0.0559 0.0441 -0.5200
v 0.0559 0.0441 -0.3400
v 0.0585 0.0415 -0.3285
v 0.0585 0.0415 -0.3285
v 0.0700 0.0441 -0.3259
v 0.1300 0.0441 -0.3259
v 0.1415 0.0415 -0.3285
v 0.0559 0.0441 -0.3400
v 0.0700 0.0500 -0.3400
v 0.1300 0.0500 -0.3400
v 0.1441 0.0441 -0.3400
v 0.0559 0.0441 -0.5200
v 0.0700 0.0500 -0.5200
v 0.1300 0.0500 -0.5200
v 0.1441 0.0441 -0.5200
v 0.0585 0.0415 -0.5315
v 0.0700 0.0441 -0.5341
v 0.1300 0.0441 -0.5341
v 0.1415 0.0415 -0.5315
v 0.0585 0.0085 -0.5315
v 0.0700 0.0059 -0.5341
v 0.1300 0.0059 -0.5341
v 0.1415 0.0085 -0.5315
v 0.0559 0.0059 -0.5200
v 0.0700 0.0000 -0.5200
v 0.1300 0.0000 -0.5200
v 0.1441 0.0059 -0.5200
v 0.0559 0.0059 -0.3400
v 0.0700 0.0000 -0.3400
v 0.1300 0.0000 -0.3400
v 0.1441 0.0059 -0.3400
v 0.0585 0.0085 -0.3285
v 0.0700 0.0059 -0.3259
v 0.1300 0.0059 -0.3259
v 0.1415 0.0085 -0.3285
v 0.0585 0.0085 -0.3285
v 0.0700 0.0059 -0.3259
v 0.1300 0.0059 -0.3259
v 0.1415 0.0085 -0.3285
v 0.0559 0.0200 -0.3259
v 0.0700 0.0200 -0.3200
v 0.1300 0.0200 -0.3200
v 0.1441 0.0200 -0.3259
v 0.0559 0.0300 -0.3259
v 0.0700 0.0300 -0.3200
v 0.1300 0.0300 -0.3200
v 0.1441 0.0300 -0.3259
v 0.0585 0.0415 -0.3285
v 0.0700 0.0441 -0.3259
v 0.1300 0.0441 -0.3259
v 0.1415 0.0415 -0.3285
v 0.1415 0.0085 -0.5315
v 0.1300 0.0059 -0.5341
v 0.0700 0.0059 -0.5341
v 0.0585 0.0085 -0.5315
v 0.1441 0.0200 -0.5341
v 0.1300 0.0200 -0.5400
v 0.0700 0.0200 -0.5400
v 0.0559 0.0200 -0.5341
v 0.1441 0.0300 -0.5341
v 0.1300 0.0300 -0.5400
v 0.0700 0.0300 -0.5400
v 0.0559 0.0300 -0.5341
v 0.1415 0.0415 -0.5315
v 0.1300 0.0441 -0.5341
v 0.0700 0.0441 -0.5341
v 0.0585 0.0415 -0.5315
vt 0.0000 0.0000
vt 0.0200 0.0000
vt 0.2000 0.0000
vt 0.2200 0.0000
vt 0.0000 0.0200
vt 0.0200 0.0200
vt 0.2000 0.0200
vt 0.2200 0.0200
vt 0.0000 0.0300
vt 0.0200 0.0300
vt 0.2000 0.0300
vt 0.2200 0.0300
vt 0.0000 0.0500
vt 0.0200 0.0500
vt 0.2000 0.0500
vt 0.2200 0.0500
vt 0.0000 0.0000
vt 0.0200 0.0000
vt 0.2000 0.0000
vt 0.2200 0.0000
vt 0.0000 0.0200
vt 0.0200 0.0200
vt 0.2000 0.0200
vt 0.2200 0.0200
vt 0.0000 0.0300
vt 0.0200 0.0300
vt 0.2000 0.0300
vt 0.2200 0.0300
vt 0.0000 0.0500
vt 0.0200 0.0500
vt 0.2000 0.0500
vt 0.2200 0.0500
vt 0.0000 0.0000
vt 0.0200 0.0000
vt 0.0800 0.0000
vt 0.1000 0.0000
vt 0.0000 0.0200
vt 0.0200 0.0200
vt 0.0800 0.0200
vt 0.1000 0.0200
vt 0.0000 0.2000
vt 0.0200 0.2000
vt 0.0800 0.2000
vt 0.1000 0.2000
vt 0.0000 0.2200
vt 0.0200 0.2200
vt 0.0800 0.2200
vt 0.1000 0.2200
vt 0.0000 0.0000
vt 0.0200 0.0000
vt 0.0800 0.0000
vt 0.1000 0.0000
vt 0.0000 0.0200
vt 0.0200 0.0200
vt 0.0800 0.0200
vt 0.1000 0.0200
vt 0.0000 0.2000
vt 0.0200 0.2000
vt 0.0800 0.2000
vt 0.1000 0.2000
vt 0.0000 0.2200
vt 0.0200 0.2200
vt 0.0800 0.2200
vt 0.1000 0.2200
vt 0.0000 0.0000
vt 0.0200 0.0000
vt 0.0800 0.0000
vt 0.1000 0.0000
vt 0.0000 0.0200
vt 0.0200 0.0200
vt 0.0800 0.0200
vt 0.1000 0.0200
vt 0.0000 0.0300
vt 0.0200 0.0300
vt 0.0800 0.0300
vt 0.1000 0.0300
vt 0.0000 0.0500
vt 0.0200 0.0500
vt 0.0800 0.0500
vt 0.1000 0.0500
vt 0.0000 0.0000
vt 0.0200 0.0000
vt 0.0800 0.0000
vt 0.1000 0.0000
vt 0.0000 0.0200
vt 0.0200 0.0200
vt 0.0800 0.0200
vt 0.1000 0.0200
vt 0.0000 0.0300
vt 0.0200 0.0300
vt 0.0800 0.0300
vt 0.1000 0.0300
vt 0.0000 0.0500
vt 0.0200 0.0500
vt 0.0800 0.0500
vt 0.1000 0.0500
vt 0.0000 0.0000
vt 0.0200 0.0000
vt 0.2000 0.0000
vt 0.2200 0.0000
vt 0.0000 0.0200
vt 0.0200 0.0200
vt 0.2000 0.0200
vt 0.2200 0.0200
vt 0.0000 0.0300
vt 0.0200 0.0300
vt 0.2000 0.0300
vt 0.2200 0.0300
vt 0.0000 0.0500
vt 0.0200 0.0500
vt 0.2000 0.0500
vt 0.2200 0.0500
vt 0.0000 0.0000
vt 0.0200 0.0000
vt 0.2000 0.0000
vt 0.2200 0.0000
vt 0.0000 0.0200
vt 0.0200 0.0200
vt 0.2000 0.0200
vt 0.2200 0.0200
vt 0.0000 0.0300
vt 0.0200 0.0300
vt 0.2000 0.0300
vt 0.2200 0.0300
vt 0.0000 0.0500
vt 0.0200 0.0500
vt 0.2000 0.0500
vt 0.2200 0.0500
vt 0.0000 0.0000
vt 0.0200 0.0000
vt 0.0800 0.0000
vt 0.1000 0.0000
vt 0.0000 0.0200
vt 0.0200 0.0200
vt 0.0800 0.0200
vt 0.1000 0.0200
vt 0.0000 0.2000
vt 0.0200 0.2000
vt 0.0800 0.2000
vt 0.1000 0.2000
vt 0.0000 0.2200
vt 0.0200 0.2200
vt 0.0800 0.2200
vt 0.1000 0.2200
vt 0.0000 0.0000
vt 0.0200 0.0000
vt 0.0800 0.0000
vt 0.1000 0.0000
vt 0.0000 0.0200
vt 0.0200 0.0200
vt 0.0800 0.0200
vt 0.1000 0.0200
vt 0.0000 0.2000
vt 0.0200 0.2000
vt 0.0800 0.2000
vt 0.1000 0.2000
vt 0.0000 0.2200
vt 0.0200 0.2200
vt 0.0800 0.2200
vt 0.1000 0.2200
vt 0.0000 0.0000
vt 0.0200 0.0000
vt 0.0800 0.0000
vt 0.1000 0.0000
vt 0.0000 0.0200
vt 0.0200 0.0200
vt 0.0800 0.0200
vt 0.1000 0.0200
vt 0.0000 0.0300
vt 0.0200 0.0300
vt 0.0800 0.0300
vt 0.1000 0.0300
vt 0.0000 0.0500
vt 0.0200 0.0500
vt 0.0800 0.0500
vt 0.1000 0.0500
vt 0.0000 0.0000
vt 0.0200 0.0000
vt 0.0800 0.0000
vt 0.1000 0.0000
vt 0.0000 0.0200
vt 0.0200 0.0200
vt 0.0800 0.0200
vt 0.1000 0.0200
vt 0.0000 0.0300
vt 0.0200 0.0300
vt 0.0800 0.0300
vt 0.1000 0.0300
vt 0.0000 0.0500
vt 0.0200 0.0500
vt 0.0800 0.0500
vt 0.1000 0.0500
vn 0.577 -0.577 0.577
vn 0.707 -0.707 0.000
vn 0.707 -0.707 0.000
vn 0.577 -0.577 -0.577
vn 0.707 0.000 0.707
vn 1.000 0.000 0.000
vn 1.000 0.000 0.000
vn 0.707 0.000 -0.707
vn 0.707 0.000 0.707
vn 1.000 0.000 0.000
vn 1.000 0.000 0.000
vn 0.707 0.000 -0.707
vn 0.577 0.577 0.577
vn 0.707 0.707 0.000
vn 0.707 0.707 0.000
vn 0.577 0.577 -0.577
vn -0.577 -0.577 -0.577
vn -0.707 -0.707 0.000
vn -0.707 -0.707 0.000
vn -0.577 -0.577 0.577
vn -0.707 0.000 -0.707
vn -1.000 0.000 0.000
vn -1.000 0.000 0.000
vn -0.707 0.000 0.707
vn -0.707 0.000 -0.707
vn -1.000 0.000 0.000
vn -1.000 0.000 0.000
vn -0.707 0.000 0.707
vn -0.577 0.577 -0.577
vn -0.707 0.707 0.000
vn -0.707 0.707 0.000
vn -0.577 0.577 0.577
vn -0.577 0.577 0.577
vn 0.000 0.707 0.707
vn 0.000 0.707 0.707
vn 0.577 0.577 0.577
vn -0.707 0.707 0.000
vn 0.000 1.000 0.000
vn 0.000 1.000 0.000
vn 0.707 0.707 0.000
vn -0.707 0.707 0.000
vn 0.000 1.000 0.000
vn 0.000 1.000 0.000
vn 0.707 0.707 0.000
vn -0.577 0.577 -0.577
vn 0.000 0.707 -0.707
vn 0.000 0.707 -0.707
vn 0.577 0.577 -0.577
vn -0.577 -0.577 -0.577
vn 0.000 -0.707 -0.707
vn 0.000 -0.707 -0.707
vn 0.577 -0.577 -0.577
vn -0.707 -0.707 0.000
vn 0.000 -1.000 0.000
vn 0.000 -1.000 0.000
vn 0.707 -0.707 0.000
vn -0.707 -0.707 0.000
vn 0.000 -1.000 0.000
vn 0.000 -1.000 0.000
vn 0.707 -0.707 0.000
vn -0.577 -0.577 0.577
vn 0.000 -0.707 0.707
vn 0.000 -0.707 0.707
vn 0.577 -0.577 0.577
vn -0.577 -0.577 0.577
vn 0.000 -0.707 0.707
vn 0.000 -0.707 0.707
vn 0.577 -0.577 0.577
vn -0.707 0.000 0.707
vn 0.000 0.000 1.000
vn 0.000 0.000 1.000
vn 0.707 0.000 0.707
vn -0.707 0.000 0.707
vn 0.000 0.000 1.000
vn 0.000 0.000 1.000
vn 0.707 0.000 0.707
vn -0.577 0.577 0.577
vn 0.000 0.707 0.707
vn 0.000 0.707 0.707
vn 0.577 0.577 0.577
vn 0.577 -0.577 -0.577
vn 0.000 -0.707 -0.707
vn 0.000 -0.707 -0.707
vn -0.577 -0.577 -0.577
vn 0.707 0.000 -0.707
vn 0.000 0.000 -1.000
vn 0.000 0.000 -1.000
vn -0.707 0.000 -0.707
vn 0.707 0.000 -0.707
vn 0.000 0.000 -1.000
vn 0.000 0.000 -1.000
vn -0.707 0.000 -0.707
vn 0.577 0.577 -0.577
vn 0.000 0.707 -0.707
vn 0.000 0.707 -0.707
vn -0.577 0.577 -0.577
vn 0.577 -0.577 0.577
vn 0.707 -0.707 0.000
vn 0.707 -0.707 0.000
vn 0.577 -0.577 -0.577
vn 0.707 0.000 0.707
vn 1.000 0.000 0.000
vn 1.000 0.000 0.000
vn 0.707 0.000 -0.707
vn 0.707 0.000 0.707
vn 1.000 0.000 0.000
vn 1.000 0.000 0.000
vn 0.707 0.000 -0.707
vn 0.577 0.577 0.577
vn 0.707 0.707 0.000
vn 0.707 0.707 0.000
vn 0.577 0.577 -0.577
vn -0.577 -0.577 -0.577
vn -0.707 -0.707 0.000
vn -0.707 -0.707 0.000
vn -0.577 -0.577 0.577
vn -0.707 0.000 -0.707
vn -1.000 0.000 0.000
vn -1.000 0.000 0.000
vn -0.707 0.000 0.707
vn -0.707 0.000 -0.707
vn -1.000 0.000 0.000
vn -1.000 0.000 0.000
vn -0.707 0.000 0.707
vn -0.577 0.577 -0.577
vn -0.707 0.707 0.000
vn -0.707 0.707 0.000
vn -0.577 0.577 0.577
vn -0.577 0.577 0.577
vn 0.000 0.707 0.707
vn 0.000 0.707 0.707
vn 0.577 0.577 0.577
vn -0.707 0.707 0.000
vn 0.000 1.000 0.000
vn 0.000 1.000 0.000
vn 0.707 0.707 0.000
vn -0.707 0.707 0.000
vn 0.000 1.000 0.000
vn 0.000 1.000 0.000
vn 0.707 0.707 0.000
vn -0.577 0.577 -0.577
vn 0.000 0.707 -0.707
vn 0.000 0.707 -0.707
vn 0.577 0.577 -0.577
vn -0.577 -0.577 -0.577
vn 0.000 -0.707 -0.707
vn 0.000 -0.707 -0.707
vn 0.577 -0.577 -0.577
vn -0.707 -0.707 0.000
vn 0.000 -1.000 0.000
vn 0.000 -1.000 0.000
vn 0.707 -0.707 0.000
vn -0.707 -0.707 0.000
vn 0.000 -1.000 0.000
vn 0.000 -1.000 0.000
vn 0.707 -0.707 0.000
vn -0.577 -0.577 0.577
vn 0.000 -0.707 0.707
vn 0.000 -0.707 0.707
vn 0.577 -0.577 0.577
vn -0.577 -0.577 0.577
vn 0.000 -0.707 0.707
vn 0.000 -0.707 0.707
vn 0.577 -0.577 0.577
vn -0.707 0.000 0.707
vn 0.000 0.000 1.000
vn 0.000 0.000 1.000
vn 0.707 0.000 0.707
vn -0.707 0.000 0.707
vn 0.000 0.000 1.000
vn 0.000 0.000 1.000
vn 0.707 0.000 0.707
vn -0.577 0.577 0.577
vn 0.000 0.707 0.707
vn 0.000 0.707 0.707
vn 0.577 0.577 0.577
vn 0.577 -0.577 -0.577
vn 0.000 -0.707 -0.707
vn 0.000 -0.707 -0.707
vn -0.577 -0.577 -0.577
vn 0.707 0.000 -0.707
vn 0.000 0.000 -1.000
vn 0.000 0.000 -1.000
vn -0.707 0.000 -0.707
vn 0.707 0.000 -0.707
vn 0.000 0.000 -1.000
vn 0.000 0.000 -1.000
vn -0.707 0.000 -0.707
vn 0.577 0.577 -0.577
vn 0.000 0.707 -0.707
vn 0.000 0.707 -0.707
vn -0.577 0.577 -0.577
v -0.0497 0.0477 -0.3317
v -0.0492 0.0472 -0.3340
v -0.0492 0.0472 -0.4860
v -0.0497 0.0477 -0.4883
v -0.0492 0.0500 -0.3312
v -0.0480 0.0500 -0.3340
v -0.0480 0.0500 -0.4860
v -0.0492 0.0500 -0.4888
v -0.0492 0.0540 -0.3312
v -0.0480 0.0540 -0.3340
v -0.0480 0.0540 -0.4860
v -0.0492 0.0540 -0.4888
v -0.0497 0.0563 -0.3317
v -0.0492 0.0568 -0.3340
v -0.0492 0.0568 -0.4860
v -0.0497 0.0563 -0.4883
v -0.1503 0.0477 -0.4883
v -0.1508 0.0472 -0.4860
v -0.1508 0.0472 -0.3340
v -0.1503 0.0477 -0.3317
v -0.1508 0.0500 -0.4888
v -0.1520 0.0500 -0.4860
v -0.1520 0.0500 -0.3340
v -0.1508 0.0500 -0.3312
v -0.1508 0.0540 -0.4888
v -0.1520 0.0540 -0.4860
v -0.1520 0.0540 -0.3340
v -0.1508 0.0540 -0.3312
v -0.1503 0.0563 -0.4883
v -0.1508 0.0568 -0.4860
v -0.1508 0.0568 -0.3340
v -0.1503 0.0563 -0.3317
v -0.1503 0.0563 -0.3317
v -0.1480 0.0568 -0.3312
v -0.0520 0.0568 -0.3312
v -0.0497 0.0563 -0.3317
v -0.1508 0.0568 -0.3340
v -0.1480 0.0580 -0.3340
v -0.0520 0.0580 -0.3340
v -0.0492 0.0568 -0.3340
v -0.1508 0.0568 -0.4860
v -0.1480 0.0580 -0.4860
v -0.0520 0.0580 -0.4860
v -0.0492 0.0568 -0.4860
v -0.1503 0.0563 -0.4883
v -0.1480 0.0568 -0.4888
v -0.0520 0.0568 -0.4888
v -0.0497 0.0563 -0.4883
v -0.1503 0.0477 -0.4883
v -0.1480 0.0472 -0.4888
v -0.0520 0.0472 -0.4888
v -0.0497 0.0477 -0.4883
v -0.1508 0.0472 -0.4860
v -0.1480 0.0460 -0.4860
v -0.0520 0.0460 -0.4860
v -0.0492 0.0472 -0.4860
v -0.1508 0.0472 -0.3340
v -0.1480 0.0460 -0.3340
v -0.0520 0.0460 -0.3340
v -0.0492 0.0472 -0.3340
v -0.1503 0.0477 -0.3317
v -0.1480 0.0472 -0.3312
v -0.0520 0.0472 -0.3312
v -0.0497 0.0477 -0.3317
v -0.1503 0.0477 -0.3317
v -0.1480 0.0472 -0.3312
v -0.0520 0.0472 -0.3312
v -0.0497 0.0477 -0.3317
v -0.1508 0.0500 -0.3312
v -0.1480 0.0500 -0.3300
v -0.0520 0.0500 -0.3300
v -0.0492 0.0500 -0.3312
v -0.1508 0.0540 -0.3312
v -0.1480 0.0540 -0.3300
v -0.0520 0.0540 -0.3300
v -0.0492 0.0540 -0.3312
v -0.1503 0.0563 -0.3317
v -0.1480 0.0568 -0.3312
v -0.0520 0.0568 -0.3312
v -0.0497 0.0563 -0.3317
v -0.0497 0.0477 -0.4883
v -0.0520 0.0472 -0.4888
v -0.1480 0.0472 -0.4888
v -0.1503 0.0477 -0.4883
v -0.0492 0.0500 -0.4888
v -0.0520 0.0500 -0.4900
v -0.1480 0.0500 -0.4900
v -0.1508 0.0500 -0.4888
v -0.0492 0.0540 -0.4888
v -0.0520 0.0540 -0.4900
v -0.1480 0.0540 -0.4900
v -0.1508 0.0540 -0.4888
v -0.0497 0.0563 -0.4883
v -0.0520 0.0568 -0.4888
v -0.1480 0.0568 -0.4888
v -0.1503 0.0563 -0.4883
v 0.1503 0.0477 -0.3317
v 0.1508 0.0472 -0.3340
v 0.1508 0.0472 -0.4860
v 0.1503 0.0477 -0.4883
v 0.1508 0.0500 -0.3312
v 0.1520 0.0500 -0.3340
v 0.1520 0.0500 -0.4860
v 0.1508 0.0500 -0.4888
v 0.1508 0.0540 -0.3312
v 0.1520 0.0540 -0.3340
v 0.1520 0.0540 -0.4860
v 0.1508 0.0540 -0.4888
v 0.1503 0.0563 -0.3317
v 0.1508 0.0568 -0.3340
v 0.1508 0.0568 -0.4860
v 0.1503 0.0563 -0.4883
v 0.0497 0.0477 -0.4883
v 0.0492 0.0472 -0.4860
v 0.0492 0.0472 -0.3340
v 0.0497 0.0477 -0.3317
v 0.0492 0.0500 -0.4888
v 0.0480 0.0500 -0.4860
v 0.0480 0.0500 -0.3340
v 0.0492 0.0500 -0.3312
v 0.0492 0.0540 -0.4888
v 0.0480 0.0540 -0.4860
v 0.0480 0.0540 -0.3340
v 0.0492 0.0540 -0.3312
v 0.0497 0.0563 -0.4883
v 0.0492 0.0568 -0.4860
v 0.0492 0.0568 -0.3340
v 0.0497 0.0563 -0.3317
v 0.0497 0.0563 -0.3317
v 0.0520 0.0568 -0.3312
v 0.1480 0.0568 -0.3312
v 0.1503 0.0563 -0.3317
v 0.0492 0.0568 -0.3340
v 0.0520 0.0580 -0.3340
v 0.1480 0.0580 -0.3340
v 0.1508 0.0568 -0.3340
v 0.0492 0.0568 -0.4860
v 0.0520 0.0580 -0.4860
v 0.1480 0.0580 -0.4860
v 0.1508 0.0568 -0.4860
v 0.0497 0.0563 -0.4883
v 0.0520 0.0568 -0.4888
v 0.1480 0.0568 -0.4888
v 0.1503 0.0563 -0.4883
v 0.0497 0.0477 -0.4883
v 0.0520 0.0472 -0.4888
v 0.1480 0.0472 -0.4888
v 0.1503 0.0477 -0.4883
v 0.0492 0.0472 -0.4860
v 0.0520 0.0460 -0.4860
v 0.1480 0.0460 -0.4860
v 0.1508 0.0472 -0.4860
v 0.0492 0.0472 -0.3340
v 0.0520 0.0460 -0.3340
v 0.1480 0.0460 -0.3340
v 0.1508 0.0472 -0.3340
v 0.0497 0.0477 -0.3317
v 0.0520 0.0472 -0.3312
v 0.1480 0.0472 -0.3312
v 0.1503 0.0477 -0.3317
v 0.0497 0.0477 -0.3317
v 0.0520 0.0472 -0.3312
v 0.1480 0.0472 -0.3312
v 0.1503 0.0477 -0.3317
v 0.0492 0.0500 -0.3312
v 0.0520 0.0500 -0.3300
v 0.1480 0.0500 -0.3300
v 0.1508 0.0500 -0.3312
v 0.0492 0.0540 -0.3312
v 0.0520 0.0540 -0.3300
v 0.1480 0.0540 -0.3300
v 0.1508 0.0540 -0.3312
v 0.0497 0.0563 -0.3317
v 0.0520 0.0568 -0.3312
v 0.1480 0.0568 -0.3312
v 0.1503 0.0563 -0.3317
v 0.1503 0.0477 -0.4883
v 0.1480 0.0472 -0.4888
v 0.0520 0.0472 -0.4888
v 0.0497 0.0477 -0.4883
v 0.1508 0.0500 -0.4888
v 0.1480 0.0500 -0.4900
v 0.0520 0.0500 -0.4900
v 0.0492 0.0500 -0.4888
v 0.1508 0.0540 -0.4888
v 0.1480 0.0540 -0.4900
v 0.0520 0.0540 -0.4900
v 0.0492 0.0540 -0.4888
v 0.1503 0.0563 -0.4883
v 0.1480 0.0568 -0.4888
v 0.0520 0.0568 -0.4888
v 0.0497 0.0563 -0.4883
vt 0.0000 0.0000
vt 0.0040 0.0000
vt 0.1560 0.0000
vt 0.1600 0.0000
vt 0.0000 0.0040
vt 0.0040 0.0040
vt 0.1560 0.0040
vt 0.1600 0.0040
vt 0.0000 0.0080
vt 0.0040 0.0080
vt 0.1560 0.0080
vt 0.1600 0.0080
vt 0.0000 0.0120
vt 0.0040 0.0120
vt 0.1560 0.0120
vt 0.1600 0.0120
vt 0.0000 0.0000
vt 0.0040 0.0000
vt 0.1560 0.0000
vt 0.1600 0.0000
vt 0.0000 0.0040
vt 0.0040 0.0040
vt 0.1560 0.0040
vt 0.1600 0.0040
vt 0.0000 0.0080
vt 0.0040 0.0080
vt 0.1560 0.0080
vt 0.1600 0.0080
vt 0.0000 0.0120
vt 0.0040 0.0120
vt 0.1560 0.0120
vt 0.1600 0.0120
vt 0.0000 0.0000
vt 0.0040 0.0000
vt 0.1000 0.0000
vt 0.1040 0.0000
vt 0.0000 0.0040
vt 0.0040 0.0040
vt 0.1000 0.0040
vt 0.1040 0.0040
vt 0.0000 0.1560
vt 0.0040 0.1560
vt 0.1000 0.1560
vt 0.1040 0.1560
vt 0.0000 0.1600
vt 0.0040 0.1600
vt 0.1000 0.1600
vt 0.1040 0.1600
vt 0.0000 0.0000
vt 0.0040 0.0000
vt 0.1000 0.0000
vt 0.1040 0.0000
vt 0.0000 0.0040
vt 0.0040 0.0040
vt 0.1000 0.0040
vt 0.1040 0.0040
vt 0.0000 0.1560
vt 0.0040 0.1560
vt 0.1000 0.1560
vt 0.1040 0.1560
vt 0.0000 0.1600
vt 0.0040 0.1600
vt 0.1000 0.1600
vt 0.1040 0.1600
vt 0.0000 0.0000
vt 0.0040 0.0000
vt 0.1000 0.0000
vt 0.1040 0.0000
vt 0.0000 0.0040
vt 0.0040 0.0040
vt 0.1000 0.0040
vt 0.1040 0.0040
vt 0.0000 0.0080
vt 0.0040 0.0080
vt 0.1000 0.0080
vt 0.1040 0.0080
vt 0.0000 0.0120
vt 0.0040 0.0120
vt 0.1000 0.0120
vt 0.1040 0.0120
vt 0.0000 0.0000
vt 0.0040 0.0000
vt 0.1000 0.0000
vt 0.1040 0.0000
vt 0.0000 0.0040
vt 0.0040 0.0040
vt 0.1000 0.0040
vt 0.1040 0.0040
vt 0.0000 0.0080
vt 0.0040 0.0080
vt 0.1000 0.0080
vt 0.1040 0.0080
vt 0.0000 0.0120
vt 0.0040 0.0120
vt 0.1000 0.0120
vt 0.1040 0.0120
vt 0.0000 0.0000
vt 0.0040 0.0000
vt 0.1560 0.0000
vt 0.1600 0.0000
vt 0.0000 0.0040
vt 0.0040 0.0040
vt 0.1560 0.0040
vt 0.1600 0.0040
vt 0.0000 0.0080
vt 0.0040 0.0080
vt 0.1560 0.0080
vt 0.1600 0.0080
vt 0.0000 0.0120
vt 0.0040 0.0120
vt 0.1560 0.0120
vt 0.1600 0.0120
vt 0.0000 0.0000
vt 0.0040 0.0000
vt 0.1560 0.0000
vt 0.1600 0.0000
vt 0.0000 0.0040
vt 0.0040 0.0040
vt 0.1560 0.0040
vt 0.1600 0.0040
vt 0.0000 0.0080
vt 0.0040 0.0080
vt 0.1560 0.0080
vt 0.1600 0.0080
vt 0.0000 0.0120
vt 0.0040 0.0120
vt 0.1560 0.0120
vt 0.1600 0.0120
vt 0.0000 0.0000
vt 0.0040 0.0000
vt 0.1000 0.0000
vt 0.1040 0.0000
vt 0.0000 0.0040
vt 0.0040 0.0040
vt 0.1000 0.0040
vt 0.1040 0.0040
vt 0.0000 0.1560
vt 0.0040 0.1560
vt 0.1000 0.1560
vt 0.1040 0.1560
vt 0.0000 0.1600
vt 0.0040 0.1600
vt 0.1000 0.1600
vt 0.1040 0.1600
vt 0.0000 0.0000
vt 0.0040 0.0000
vt 0.1000 0.0000
vt 0.1040 0.0000
vt 0.0000 0.0040
vt 0.0040 0.0040
vt 0.1000 0.0040
vt 0.1040 0.0040
vt 0.0000 0.1560
vt 0.0040 0.1560
vt 0.1000 0.1560
vt 0.1040 0.1560
vt 0.0000 0.1600
vt 0.0040 0.1600
vt 0.1000 0.1600
vt 0.1040 0.1600
vt 0.0000 0.0000
vt 0.0040 0.0000
vt 0.1000 0.0000
vt 0.1040 0.0000
vt 0.0000 0.0040
vt 0.0040 0.0040
vt 0.1000 0.0040
vt 0.1040 0.0040
vt 0.0000 0.0080
vt 0.0040 0.0080
vt 0.1000 0.0080
vt 0.1040 0.0080
vt 0.0000 0.0120
vt 0.0040 0.0120
vt 0.1000 0.0120
vt 0.1040 0.0120
vt 0.0000 0.0000
vt 0.0040 0.0000
vt 0.1000 0.0000
vt 0.1040 0.0000
vt 0.0000 0.0040
vt 0.0040 0.0040
vt 0.1000 0.0040
vt 0.1040 0.0040
vt 0.0000 0.0080
vt 0.0040 0.0080
vt 0.1000 0.0080
vt 0.1040 0.0080
vt 0.0000 0.0120
vt 0.0040 0.0120
vt 0.1000 0.0120
vt 0.1040 0.0120
vn 0.577 -0.577 0.577
vn 0.707 -0.707 0.000
vn 0.707 -0.707 0.000
vn 0.577 -0.577 -0.577
vn 0.707 0.000 0.707
vn 1.000 0.000 0.000
vn 1.000 0.000 0.000
vn 0.707 0.000 -0.707
vn 0.707 0.000 0.707
vn 1.000 0.000 0.000
vn 1.000 0.000 0.000
vn 0.707 0.000 -0.707
vn 0.577 0.577 0.577
vn 0.707 0.707 0.000
vn 0.707 0.707 0.000
vn 0.577 0.577 -0.577
vn -0.577 -0.577 -0.577
vn -0.707 -0.707 0.000
vn -0.707 -0.707 0.000
vn -0.577 -0.577 0.577
vn -0.707 0.000 -0.707
vn -1.000 0.000 0.000
vn -1.000 0.000 0.000
vn -0.707 0.000 0.707
vn -0.707 0.000 -0.707
vn -1.000 0.000 0.000
vn -1.000 0.000 0.000
vn -0.707 0.000 0.707
vn -0.577 0.577 -0.577
vn -0.707 0.707 0.000
vn -0.707 0.707 0.000
vn -0.577 0.577 0.577
vn -0.577 0.577 0.577
vn 0.000 0.707 0.707
vn 0.000 0.707 0.707
vn 0.577 0.577 0.577
vn -0.707 0.707 0.000
vn 0.000 1.000 0.000
vn 0.000 1.000 0.000
vn 0.707 0.707 0.000
vn -0.707 0.707 0.000
vn 0.000 1.000 0.000
vn 0.000 1.000 0.000
vn 0.707 0.707 0.000
vn -0.577 0.577 -0.577
vn 0.000 0.707 -0.707
vn 0.000 0.707 -0.707
vn 0.577 0.577 -0.577
vn -0.577 -0.577 -0.577
vn 0.000 -0.707 -0.707
vn 0.000 -0.707 -0.707
vn 0.577 -0.577 -0.577
vn -0.707 -0.707 0.000
vn 0.000 -1.000 0.000
vn 0.000 -1.000 0.000
vn 0.707 -0.707 0.000
vn -0.707 -0.707 0.000
vn 0.000 -1.000 0.000
vn 0.000 -1.000 0.000
vn 0.707 -0.707 0.000
vn -0.577 -0.577 0.577
vn 0.000 -0.707 0.707
vn 0.000 -0.707 0.707
vn 0.577 -0.577 0.577
vn -0.577 -0.577 0.577
vn 0.000 -0.707 0.707
vn 0.000 -0.707 0.707
vn 0.577 -0.577 0.577
vn -0.707 0.000 0.707
vn 0.000 0.000 1.000
vn 0.000 0.000 1.000
vn 0.707 0.000 0.707
vn -0.707 0.000 0.707
vn 0.000 0.000 1.000
vn 0.000 0.000 1.000
vn 0.707 0.000 0.707
vn -0.577 0.577 0.577
vn 0.000 0.707 0.707
vn 0.000 0.707 0.707
vn 0.577 0.577 0.577
vn 0.577 -0.577 -0.577
vn 0.000 -0.707 -0.707
vn 0.000 -0.707 -0.707
vn -0.577 -0.577 -0.577
vn 0.707 0.000 -0.707
vn 0.000 0.000 -1.000
vn 0.000 0.000 -1.000
vn -0.707 0.000 -0.707
vn 0.707 0.000 -0.707
vn 0.000 0.000 -1.000
vn 0.000 0.000 -1.000
vn -0.707 0.000 -0.707
vn 0.577 0.577 -0.577
vn 0.000 0.707 -0.707
vn 0.000 0.707 -0.707
vn -0.577 0.577 -0.577
vn 0.577 -0.577 0.577
vn 0.707 -0.707 0.000
vn 0.707 -0.707 0.000
vn 0.577 -0.577 -0.577
vn 0.707 0.000 0.707
vn 1.000 0.000 0.000
vn 1.000 0.000 0.000
vn 0.707 0.000 -0.707
vn 0.707 0.000 0.707
vn 1.000 0.000 0.000
vn 1.000 0.000 0.000
vn 0.707 0.000 -0.707
vn 0.577 0.577 0.577
vn 0.707 0.707 0.000
vn 0.707 0.707 0.000
vn 0.577 0.577 -0.577
vn -0.577 -0.577 -0.577
vn -0.707 -0.707 0.000
vn -0.707 -0.707 0.000
vn -0.577 -0.577 0.577
vn -0.707 0.000 -0.707
vn -1.000 0.000 0.000
vn -1.000 0.000 0.000
vn -0.707 0.000 0.707
vn -0.707 0.000 -0.707
vn -1.000 0.000 0.000
vn -1.000 0.000 0.000
vn -0.707 0.000 0.707
vn -0.577 0.577 -0.577
vn -0.707 0.707 0.000
vn -0.707 0.707 0.000
vn -0.577 0.577 0.577
vn -0.577 0.577 0.577
vn 0.000 0.707 0.707
vn 0.000 0.707 0.707
vn 0.577 0.577 0.577
vn -0.707 0.707 0.000
vn 0.000 1.000 0.000
vn 0.000 1.000 0.000
vn 0.707 0.707 0.000
vn -0.707 0.707 0.000
vn 0.000 1.000 0.000
vn 0.000 1.000 0.000
vn 0.707 0.707 0.000
vn -0.577 0.577 -0.577
vn 0.000 0.707 -0.707
vn 0.000 0.707 -0.707
vn 0.577 0.577 -0.577
vn -0.577 -0.577 -0.577
vn 0.000 -0.707 -0.707
vn 0.000 -0.707 -0.707
vn 0.577 -0.577 -0.577
vn -0.707 -0.707 0.000
vn 0.000 -1.000 0.000
vn 0.000 -1.000 0.000
vn 0.707 -0.707 0.000
vn -0.707 -0.707 0.000
vn 0.000 -1.000 0.000
vn 0.000 -1.000 0.000
vn 0.707 -0.707 0.000
vn -0.577 -0.577 0.577
vn 0.000 -0.707 0.707
vn 0.000 -0.707 0.707
vn 0.577 -0.577 0.577
vn -0.577 -0.577 0.577
vn 0.000 -0.707 0.707
vn 0.000 -0.707 0.707
vn 0.577 -0.577 0.577
vn -0.707 0.000 0.707
vn 0.000 0.000 1.000
vn 0.000 0.000 1.000
vn 0.707 0.000 0.707
vn -0.707 0.000 0.707
vn 0.000 0.000 1.000
vn 0.000 0.000 1.000
vn 0.707 0.000 0.707
vn -0.577 0.577 0.577
vn 0.000 0.707 0.707
vn 0.000 0.707 0.707
vn 0.577 0.577 0.577
vn 0.577 -0.577 -0.577
vn 0.000 -0.707 -0.707
vn 0.000 -0.707 -0.707
vn -0.577 -0.577 -0.577
vn 0.707 0.000 -0.707
vn 0.000 0.000 -1.000
vn 0.000 0.000 -1.000
vn -0.707 0.000 -0.707
vn 0.707 0.000 -0.707
vn 0.000 0.000 -1.000
vn 0.000 0.000 -1.000
vn -0.707 0.000 -0.707
vn 0.577 0.577 -0.577
vn 0.000 0.707 -0.707
vn 0.000 0.707 -0.707
vn -0.577 0.577 -0.577
usemtl shoe
f 1/1/1 2/2/2 6/6/6
f 1/1/1 6/6/6 5/5/5
f 2/2/2 3/3/3 7/7/7
f 2/2/2 7/7/7 6/6/6
f 3/3/3 4/4/4 8/8/8
f 3/3/3 8/8/8 7/7/7
f 5/5/5 6/6/6 10/10/10
f 5/5/5 10/10/10 9/9/9
f 6/6/6 7/7/7 11/11/11
f 6/6/6 11/11/11 10/10/10
f 7/7/7 8/8/8 12/12/12
f 7/7/7 12/12/12 11/11/11
f 9/9/9 10/10/10 14/14/14
f 9/9/9 14/14/14 13/13/13
f 10/10/10 11/11/11 15/15/15
f 10/10/10 15/15/15 14/14/14
f 11/11/11 12/12/12 16/16/16
f 11/11/11 16/16/16 15/15/15
f 17/17/17 18/18/18 22/22/22
f 17/17/17 22/22/22 21/21/21
f 18/18/18 19/19/19 23/23/23
f 18/18/18 23/23/23 22/22/22
f 19/19/19 20/20/20 24/24/24
f 19/19/19 24/24/24 23/23/23
f 21/21/21 22/22/22 26/26/26
f 21/21/21 26/26/26 25/25/25
f 22/22/22 23/23/23 27/27/27
f 22/22/22 27/27/27 26/26/26
f 23/23/23 24/24/24 28/28/28
f 23/23/23 28/28/28 27/27/27
f 25/25/25 26/26/26 30/30/30
f 25/25/25 30/30/30 29/29/29
f 26/26/26 27/27/27 31/31/31
f 26/26/26 31/31/31 30/30/30
f 27/27/27 28/28/28 32/32/32
f 27/27/27 32/32/32 31/31/31
f 33/33/33 34/34/34 38/38/38
f 33/33/33 38/38/38 37/37/37
f 34/34/34 35/35/35 39/39/39
f 34/34/34 39/39/39 38/38/38
f 35/35/35 36/36/36 40/40/40
f 35/35/35 40/40/40 39/39/39
f 37/37/37 38/38/38 42/42/42
f 37/37/37 42/42/42 41/41/41
f 38/38/38 39/39/39 43/43/43
f 38/38/38 43/43/43 42/42/42
f 39/39/39 40/40/40 44/44/44
f 39/39/39 44/44/44 43/43/43
f 41/41/41 42/42/42 46/46/46
f 41/41/41 46/46/46 45/45/45
f 42/42/42 43/43/43 47/47/47
f 42/42/42 47/47/47 46/46/46
f 43/43/43 44/44/44 48/48/48
f 43/43/43 48/48/48 47/47/47
f 49/49/49 50/50/50 54/54/54
f 49/49/49 54/54/54 53/53/53
f 50/50/50 51/51/51 55/55/55
f 50/50/50 55/55/55 54/54/54
f 51/51/51 52/52/52 56/56/56
f 51/51/51 56/56/56 55/55/55
f 53/53/53 54/54/54 58/58/58
f 53/53/53 58/58/58 57/57/57
f 54/54/54 55/55/55 59/59/59
f 54/54/54 59/59/59 58/58/58
f 55/55/55 56/56/56 60/60/60
f 55/55/55 60/60/60 59/59/59
f 57/57/57 58/58/58 62/62/62
f 57/57/57 62/62/62 61/61/61
f 58/58/58 59/59/59 63/63/63
f 58/58/58 63/63/63 62/62/62
f 59/59/59 60/60/60 64/64/64
f 59/59/59 64/64/64 63/63/63
f 65/65/65 66/66/66 70/70/70
f 65/65/65 70/70/70 69/69/69
f 66/66/66 67/67/67 71/71/71
f 66/66/66 71/71/71 70/70/70
f 67/67/67 68/68/68 72/72/72
f 67/67/67 72/72/72 71/71/71
f 69/69/69 70/70/70 74/74/74
f 69/69/69 74/74/74 73/73/73
f 70/70/70 71/71/71 75/75/75
f 70/70/70 75/75/75 74/74/74
f 71/71/71 72/72/72 76/76/76
f 71/71/71 76/76/76 75/75/75
f 73/73/73 74/74/74 78/78/78
f 73/73/73 78/78/78 77/77/77
f 74/74/74 75/75/75 79/79/79
f 74/74/74 79/79/79 78/78/78
f 75/75/75 76/76/76 80/80/80
f 75/75/75 80/80/80 79/79/79
f 81/81/81 82/82/82 86/86/86
f 81/81/81 86/86/86 85/85/85
f 82/82/82 83/83/83 87/87/87
f 82/82/82 87/87/87 86/86/86
f 83/83/83 84/84/84 88/88/88
f 83/83/83 88/88/88 87/87/87
f 85/85/85 86/86/86 90/90/90
f 85/85/85 90/90/90 89/89/89
f 86/86/86 87/87/87 91/91/91
f 86/86/86 91/91/91 90/90/90
f 87/87/87 88/88/88 92/92/92
f 87/87/87 92/92/92 91/91/91
f 89/89/89 90/90/90 94/94/94
f 89/89/89 94/94/94 93/93/93
f 90/90/90 91/91/91 95/95/95
f 90/90/90 95/95/95 94/94/94
f 91/91/91 92/92/92 96/96/96
f 91/91/91 96/96/96 95/95/95
f 97/97/97 98/98/98 102/102/102
f 97/97/97 102/102/102 101/101/101
f 98/98/98 99/99/99 103/103/103
f 98/98/98 103/103/103 102/102/102
f 99/99/99 100/100/100 104/104/104
f 99/99/99 104/104/104 103/103/103
f 101/101/101 102/102/102 106/106/106
f 101/101/101 106/106/106 105/105/105
f 102/102/102 103/103/103 107/107/107
f 102/102/102 107/107/107 106/106/106
f 103/103/103 104/104/104 108/108/108
f 103/103/103 108/108/108 107/107/107
f 105/105/105 106/106/106 110/110/110
f 105/105/105 110/110/110 109/109/109
f 106/106/106 107/107/107 111/111/111
f 106/106/106 111/111/111 110/110/110
f 107/107/107 108/108/108 112/112/112
f 107/107/107 112/112/112 111/111/111
f 113/113/113 114/114/114 118/118/118
f 113/113/113 118/118/118 117/117/117
f 114/114/114 115/115/115 119/119/119
f 114/114/114 119/119/119 118/118/118
f 115/115/115 116/116/116 120/120/120
f 115/115/115 120/120/120 119/119/119
f 117/117/117 118/118/118 122/122/122
f 117/117/117 122/122/122 121/121/121
f 118/118/118 119/119/119 123/123/123
f 118/118/118 123/123/123 122/122/122
f 119/119/119 120/120/120 124/124/124
f 119/119/119 124/124/124 123/123/123
f 121/121/121 122/122/122 126/126/126
f 121/121/121 126/126/126 125/125/125
f 122/122/122 123/123/123 127/127/127
f 122/122/122 127/127/127 126/126/126
f 123/123/123 124/124/124 128/128/128
f 123/123/123 128/128/128 127/127/127
f 129/129/129 130/130/130 134/134/134
f 129/129/129 134/134/134 133/133/133
f 130/130/130 131/131/131 135/135/135
f 130/130/130 135/135/135 134/134/134
f 131/131/131 132/132/132 136/136/136
f 131/131/131 136/136/136 135/135/135
f 133/133/133 134/134/134 138/138/138
f 133/133/133 138/138/138 137/137/137
f 134/134/134 135/135/135 139/139/139
f 134/134/134 139/139/139 138/138/138
f 135/135/135 136/136/136 140/140/140
f 135/135/135 140/140/140 139/139/139
f 137/137/137 138/138/138 142/142/142
f 137/137/137 142/142/142 141/141/141
f 138/138/138 139/139/139 143/143/143
f 138/138/138 143/143/143 142/142/142
f 139/139/139 140/140/140 144/144/144
f 139/139/139 144/144/144 143/143/143
f 145/145/145 146/146/146 150/150/150
f 145/145/145 150/150/150 149/149/149
f 146/146/146 147/147/147 151/151/151
f 146/146/146 151/151/151 150/150/150
f 147/147/147 148/148/148 152/152/152
f 147/147/147 152/152/152 151/151/151
f 149/149/149 150/150/150 154/154/154
f 149/149/149 154/154/154 153/153/153
f 150/150/150 151/151/151 155/155/155
f 150/150/150 155/155/155 154/154/154
f 151/151/151 152/152/152 156/156/156
f 151/151/151 156/156/156 155/155/155
f 153/153/153 154/154/154 158/158/158
f 153/153/153 158/158/158 157/157/157
f 154/154/154 155/155/155 159/159/159
f 154/154/154 159/159/159 158/158/158
f 155/155/155 156/156/156 160/160/160
f 155/155/155 160/160/160 159/159/159
f 161/161/161 162/162/162 166/166/166
f 161/161/161 166/166/166 165/165/165
f 162/162/162 163/163/163 167/167/167
f 162/162/162 167/167/167 166/166/166
f 163/163/163 164/164/164 168/168/168
f 163/163/163 168/168/168 167/167/167
f 165/165/165 166/166/166 170/170/170
f 165/165/165 170/170/170 169/169/169
f 166/166/166 167/167/167 171/171/171
f 166/166/166 171/171/171 170/170/170
f 167/167/167 168/168/168 172/172/172
f 167/167/167 172/172/172 171/171/171
f 169/169/169 170/170/170 174/174/174
f 169/169/169 174/174/174 173/173/173
f 170/170/170 171/171/171 175/175/175
f 170/170/170 175/175/175 174/174/174
f 171/171/171 172/172/172 176/176/176
f 171/171/171 176/176/176 175/175/175
f 177/177/177 178/178/178 182/182/182
f 177/177/177 182/182/182 181/181/181
f 178/178/178 179/179/179 183/183/183
f 178/178/178 183/183/183 182/182/182
f 179/179/179 180/180/180 184/184/184
f 179/179/179 184/184/184 183/183/183
f 181/181/181 182/182/182 186/186/186
f 181/181/181 186/186/186 185/185/185
f 182/182/182 183/183/183 187/187/187
f 182/182/182 187/187/187 186/186/186
f 183/183/183 184/184/184 188/188/188
f 183/183/183 188/188/188 187/187/187
f 185/185/185 186/186/186 190/190/190
f 185/185/185 190/190/190 189/189/189
f 186/186/186 187/187/187 191/191/191
f 186/186/186 191/191/191 190/190/190
f 187/187/187 188/188/188 192/192/192
f 187/187/187 192/192/192 191/191/191
usemtl trim
f 193/193/193 194/194/194 198/198/198
f 193/193/193 198/198/198 197/197/197
f 194/194/194 195/195/195 199/199/199
f 194/194/194 199/199/199 198/198/198
f 195/195/195 196/196/196 200/200/200
f 195/195/195 200/200/200 199/199/199
f 197/197/197 198/198/198 202/202/202
f 197/197/197 202/202/202 201/201/201
f 198/198/198 199/199/199 203/203/203
f 198/198/198 203/203/203 202/202/202
f 199/199/199 200/200/200 204/204/204
f 199/199/199 204/204/204 203/203/203
f 201/201/201 202/202/202 206/206/206
f 201/201/201 206/206/206 205/205/205
f 202/202/202 203/203/203 207/207/207
f 202/202/202 207/207/207 206/206/206
f 203/203/203 204/204/204 208/208/208
f 203/203/203 208/208/208 207/207/207
f 209/209/209 210/210/210 214/214/214
f 209/209/209 214/214/214 213/213/213
f 210/210/210 211/211/211 215/215/215
f 210/210/210 215/215/215 214/214/214
f 211/211/211 212/212/212 216/216/216
f 211/211/211 216/216/216 215/215/215
f 213/213/213 214/214/214 218/218/218
f 213/213/213 218/218/218 217/217/217
f 214/214/214 215/215/215 219/219/219
f 214/214/214 219/219/219 218/218/218
f 215/215/215 216/216/216 220/220/220
f 215/215/215 220/220/220 219/219/219
f 217/217/217 218/218/218 222/222/222
f 217/217/217 222/222/222 221/221/221
f 218/218/218 219/219/219 223/223/223
f 218/218/218 223/223/223 222/222/222
f 219/219/219 220/220/220 224/224/224
f 219/219/219 224/224/224 223/223/223
f 225/225/225 226/226/226 230/230/230
f 225/225/225 230/230/230 229/229/229
f 226/226/226 227/227/227 231/231/231
f 226/226/226 231/231/231 230/230/230
f 227/227/227 228/228/228 232/232/232
f 227/227/227 232/232/232 231/231/231
f 229/229/229 230/230/230 234/234/234
f 229/229/229 234/234/234 233/233/233
f 230/230/230 231/231/231 235/235/235
f 230/230/230 235/235/235 234/234/234
f 231/231/231 232/232/232 236/236/236
f 231/231/231 236/236/236 235/235/235
f 233/233/233 234/234/234 238/238/238
f 233/233/233 238/238/238 237/237/237
f 234/234/234 235/235/235 239/239/239
f 234/234/234 239/239/239 238/238/238
f 235/235/235 236/236/236 240/240/240
f 235/235/235 240/240/240 239/239/239
f 241/241/241 242/242/242 246/246/246
f 241/241/241 246/246/246 245/245/245
f 242/242/242 243/243/243 247/247/247
f 242/242/242 247/247/247 246/246/246
f 243/243/243 244/244/244 248/248/248
f 243/243/243 248/248/248 247/247/247
f 245/245/245 246/246/246 250/250/250
f 245/245/245 250/250/250 249/249/249
f 246/246/246 247/247/247 251/251/251
f 246/246/246 251/251/251 250/250/250
f 247/247/247 248/248/248 252/252/252
f 247/247/247 252/252/252 251/251/251
f 249/249/249 250/250/250 254/254/254
f 249/249/249 254/254/254 253/253/253
f 250/250/250 251/251/251 255/255/255
f 250/250/250 255/255/255 254/254/254
f 251/251/251 252/252/252 256/256/256
f 251/251/251 256/256/256 255/255/255
f 257/257/257 258/258/258 262/262/262
f 257/257/257 262/262/262 261/261/261
f 258/258/258 259/259/259 263/263/263
f 258/258/258 263/263/263 262/262/262
f 259/259/259 260/260/260 264/264/264
f 259/259/259 264/264/264 263/263/263
f 261/261/261 262/262/262 266/266/266
f 261/261/261 266/266/266 265/265/265
f 262/262/262 263/263/263 267/267/267
f 262/262/262 267/267/267 266/266/266
f 263/263/263 264/264/264 268/268/268
f 263/263/263 268/268/268 267/267/267
f 265/265/265 266/266/266 270/270/270
f 265/265/265 270/270/270 269/269/269
f 266/266/266 267/267/267 271/271/271
f 266/266/266 271/271/271 270/270/270
f 267/267/267 268/268/268 272/272/272
f 267/267/267 272/272/272 271/271/271
f 273/273/273 274/274/274 278/278/278
f 273/273/273 278/278/278 277/277/277
f 274/274/274 275/275/275 279/279/279
f 274/274/274 279/279/279 278/278/278
f 275/275/275 276/276/276 280/280/280
f 275/275/275 280/280/280 279/279/279
f 277/277/277 278/278/278 282/282/282
f 277/277/277 282/282/282 281/281/281
f 278/278/278 279/279/279 283/283/283
f 278/278/278 283/283/283 282/282/282
f 279/279/279 280/280/280 284/284/284
f 279/279/279 284/284/284 283/283/283
f 281/281/281 282/282/282 286/286/286
f 281/281/281 286/286/286 285/285/285
f 282/282/282 283/283/283 287/287/287
f 282/282/282 287/287/287 286/286/286
f 283/283/283 284/284/284 288/288/288
f 283/283/283 288/288/288 287/287/287
f 289/289/289 290/290/290 294/294/294
f 289/289/289 294/294/294 293/293/293
f 290/290/290 291/291/291 295/295/295
f 290/290/290 295/295/295 294/294/294
f 291/291/291 292/292/292 296/296/296
f 291/291/291 296/296/296 295/295/295
f 293/293/293 294/294/294 298/298/298
f 293/293/293 298/298/298 297/297/297
f 294/294/294 295/295/295 299/299/299
f 294/294/294 299/299/299 298/298/298
f 295/295/295 296/296/296 300/300/300
f 295/295/295 300/300/300 299/299/299
f 297/297/297 298/298/298 302/302/302
f 297/297/297 302/302/302 301/301/301
f 298/298/298 299/299/299 303/303/303
f 298/298/298 303/303/303 302/302/302
f 299/299/299 300/300/300 304/304/304
f 299/299/299 304/304/304 303/303/303
f 305/305/305 306/306/306 310/310/310
f 305/305/305 310/310/310 309/309/309
f 306/306/306 307/307/307 311/311/311
f 306/306/306 311/311/311 310/310/310
f 307/307/307 308/308/308 312/312/312
f 307/307/307 312/312/312 311/311/311
f 309/309/309 310/310/310 314/314/314
f 309/309/309 314/314/314 313/313/313
f 310/310/310 311/311/311 315/315/315
f 310/310/310 315/315/315 314/314/314
f 311/311/311 312/312/312 316/316/316
f 311/311/311 316/316/316 315/315/315
f 313/313/313 314/314/314 318/318/318
f 313/313/313 318/318/318 317/317/317
f 314/314/314 315/315/315 319/319/319
f 314/314/314 319/319/319 318/318/318
f 315/315/315 316/316/316 320/320/320
f 315/315/315 320/320/320 319/319/319
f 321/321/321 322/322/322 326/326/326
f 321/321/321 326/326/326 325/325/325
f 322/322/322 323/323/323 327/327/327
f 322/322/322 327/327/327 326/326/326
f 323/323/323 324/324/324 328/328/328
f 323/323/323 328/328/328 327/327/327
f 325/325/325 326/326/326 330/330/330
f 325/325/325 330/330/330 329/329/329
f 326/326/326 327/327/327 331/331/331
f 326/326/326 331/331/331 330/330/330
f 327/327/327 328/328/328 332/332/332
f 327/327/327 332/332/332 331/331/331
f 329/329/329 330/330/330 334/334/334
f 329/329/329 334/334/334 333/333/333
f 330/330/330 331/331/331 335/335/335
f 330/330/330 335/335/335 334/334/334
f 331/331/331 332/332/332 336/336/336
f 331/331/331 336/336/336 335/335/335
f 337/337/337 338/338/338 342/342/342
f 337/337/337 342/342/342 341/341/341
f 338/338/338 339/339/339 343/343/343
f 338/338/338 343/343/343 342/342/342
f 339/339/339 340/340/340 344/344/344
f 339/339/339 344/344/344 343/343/343
f 341/341/341 342/342/342 346/346/346
f 341/341/341 346/346/346 345/345/345
f 342/342/342 343/343/343 347/347/347
f 342/342/342 347/347/347 346/346/346
f 343/343/343 344/344/344 348/348/348
f 343/343/343 348/348/348 347/347/347
f 345/345/345 346/346/346 350/350/350
f 345/345/345 350/350/350 349/349/349
f 346/346/346 347/347/347 351/351/351
f 346/346/346 351/351/351 350/350/350
f 347/347/347 348/348/348 352/352/352
f 347/347/347 352/352/352 351/351/351
f 353/353/353 354/354/354 358/358/358
f 353/353/353 358/358/358 357/357/357
f 354/354/354 355/355/355 359/359/359
f 354/354/354 359/359/359 358/358/358
f 355/355/355 356/356/356 360/360/360
f 355/355/355 360/360/360 359/359/359
f 357/357/357 358/358/358 362/362/362
f 357/357/357 362/362/362 361/361/361
f 358/358/358 359/359/359 363/363/363
f 358/358/358 363/363/363 362/362/362
f 359/359/359 360/360/360 364/364/364
f 359/359/359 364/364/364 363/363/363
f 361/361/361 362/362/362 366/366/366
f 361/361/361 366/366/366 365/365/365
f 362/362/362 363/363/363 367/367/367
f 362/362/362 367/367/367 366/366/366
f 363/363/363 364/364/364 368/368/368
f 363/363/363 368/368/368 367/367/367
f 369/369/369 370/370/370 374/374/374
f 369/369/369 374/374/374 373/373/373
f 370/370/370 371/371/371 375/375/375
f 370/370/370 375/375/375 374/374/374
f 371/371/371 372/372/372 376/376/376
f 371/371/371 376/376/376 375/375/375
f 373/373/373 374/374/374 378/378/378
f 373/373/373 378/378/378 377/377/377
f 374/374/374 375/375/375 379/379/379
f 374/374/374 379/379/379 378/378/378
f 375/375/375 376/376/376 380/380/380
f 375/375/375 380/380/380 379/379/379
f 377/377/377 378/378/378 382/382/382
f 377/377/377 382/382/382 381/381/381
f 378/378/378 379/379/379 383/383/383
f 378/378/378 383/383/383 382/382/382
f 379/379/379 380/380/380 384/384/384
f 379/379/379 384/384/384 383/383/383
