# Sinh tự động bởi tools/mesh_kit.py - đừng sửa tay
o e_feet_bare
v -0.1400 0.0120 -0.3600
v -0.0600 0.0120 -0.3600
v -0.0550 0.0120 -0.5300
v -0.1000 0.0120 -0.5600
v -0.1450 0.0120 -0.5300
v -0.1450 0.0120 -0.5300
v -0.1000 0.0120 -0.5600
v -0.0550 0.0120 -0.5300
v -0.0600 0.0120 -0.3600
v -0.1400 0.0120 -0.3600
v 0.0600 0.0120 -0.3600
v 0.1400 0.0120 -0.3600
v 0.1450 0.0120 -0.5300
v 0.1000 0.0120 -0.5600
v 0.0550 0.0120 -0.5300
v 0.0550 0.0120 -0.5300
v 0.1000 0.0120 -0.5600
v 0.1450 0.0120 -0.5300
v 0.1400 0.0120 -0.3600
v 0.0600 0.0120 -0.3600
vt 0.0000 0.0400
vt 0.0000 -0.0400
vt 0.1700 -0.0450
vt 0.2000 0.0000
vt 0.1700 0.0450
vt -0.1700 0.0450
vt -0.2000 -0.0000
vt -0.1700 -0.0450
vt 0.0000 -0.0400
vt 0.0000 0.0400
vt 0.0000 0.0400
vt 0.0000 -0.0400
vt 0.1700 -0.0450
vt 0.2000 0.0000
vt 0.1700 0.0450
vt -0.1700 0.0450
vt -0.2000 -0.0000
vt -0.1700 -0.0450
vt 0.0000 -0.0400
vt 0.0000 0.0400
vn 0.000 1.000 0.000
vn 0.000 1.000 0.000
vn 0.000 1.000 0.000
vn 0.000 1.000 0.000
vn 0.000 1.000 0.000
vn 0.000 -1.000 0.000
vn 0.000 -1.000 0.000
vn 0.000 -1.000 0.000
vn 0.000 -1.000 0.000
vn 0.000 -1.000 0.000
vn 0.000 1.000 0.000
vn 0.000 1.000 0.000
vn 0.000 1.000 0.000
vn 0.000 1.000 0.000
vn 0.000 1.000 0.000
vn 0.000 -1.000 0.000
vn 0.000 -1.000 0.000
vn 0.000 -1.000 0.000
vn 0.000 -1.000 0.000
vn 0.000 -1.000 0.000
usemtl hand
f 5/5/5 1/1/1 2/2/2
f 5/5/5 2/2/2 3/3/3
f 3/3/3 4/4/4 5/5/5
f 10/10/10 6/6/6 7/7/7
f 10/10/10 7/7/7 8/8/8
f 8/8/8 9/9/9 10/10/10
f 15/15/15 11/11/11 12/12/12
f 15/15/15 12/12/12 13/13/13
f 13/13/13 14/14/14 15/15/15
f 20/20/20 16/16/16 17/17/17
f 20/20/20 17/17/17 18/18/18
f 18/18/18 19/19/19 20/20/20
