# Sinh tự động bởi tools/mesh_kit.py - đừng sửa tay
o e_hair_khan
v 0.0980 0.0858 0.0012
v 0.0668 0.0679 0.0031
v 0.0668 0.0321 0.0069
v 0.0980 0.0142 0.0088
v 0.1292 0.0321 0.0069
v 0.1292 0.0679 0.0031
v 0.0980 0.0858 0.0012
v 0.0883 0.0902 0.0435
v 0.0602 0.0709 0.0320
v 0.0602 0.0351 0.0357
v 0.0883 0.0186 0.0511
v 0.1164 0.0380 0.0626
v 0.1164 0.0738 0.0589
v 0.0883 0.0902 0.0435
v 0.0611 0.0938 0.0774
v 0.0417 0.0734 0.0551
v 0.0417 0.0376 0.0588
v 0.0611 0.0222 0.0850
v 0.0805 0.0427 0.1073
v 0.0805 0.0785 0.1036
v 0.0611 0.0938 0.0774
v 0.0218 0.0958 0.0963
v 0.0149 0.0747 0.0679
v 0.0149 0.0389 0.0717
v 0.0218 0.0242 0.1038
v 0.0287 0.0453 0.1321
v 0.0287 0.0811 0.1284
v 0.0218 0.0958 0.0963
v -0.0218 0.0958 0.0963
v -0.0149 0.0747 0.0679
v -0.0149 0.0389 0.0717
v -0.0218 0.0242 0.1038
v -0.0287 0.0453 0.1321
v -0.0287 0.0811 0.1284
v -0.0218 0.0958 0.0963
v -0.0611 0.0938 0.0774
v -0.0417 0.0734 0.0551
v -0.0417 0.0376 0.0588
v -0.0611 0.0222 0.0850
v -0.0805 0.0427 0.1073
v -0.0805 0.0785 0.1036
v -0.0611 0.0938 0.0774
v -0.0883 0.0902 0.0435
v -0.0602 0.0709 0.0320
v -0.0602 0.0351 0.0357
v -0.0883 0.0186 0.0511
v -0.1164 0.0380 0.0626
v -0.1164 0.0738 0.0589
v -0.0883 0.0902 0.0435
v -0.0980 0.0858 0.0012
v -0.0668 0.0679 0.0031
v -0.0668 0.0321 0.0069
v -0.0980 0.0142 0.0088
v -0.1292 0.0321 0.0069
v -0.1292 0.0679 0.0031
v -0.0980 0.0858 0.0012
v -0.0883 0.0814 -0.0411
v -0.0602 0.0649 -0.0257
v -0.0602 0.0291 -0.0220
v -0.0883 0.0098 -0.0335
v -0.1164 0.0262 -0.0489
v -0.1164 0.0620 -0.0526
v -0.0883 0.0814 -0.0411
v -0.0611 0.0778 -0.0750
v -0.0417 0.0624 -0.0488
v -0.0417 0.0266 -0.0451
v -0.0611 0.0062 -0.0674
v -0.0805 0.0215 -0.0936
v -0.0805 0.0573 -0.0973
v -0.0611 0.0778 -0.0750
v -0.0218 0.0758 -0.0938
v -0.0149 0.0611 -0.0617
v -0.0149 0.0253 -0.0579
v -0.0218 0.0042 -0.0863
v -0.0287 0.0189 -0.1184
v -0.0287 0.0547 -0.1221
v -0.0218 0.0758 -0.0938
v 0.0218 0.0758 -0.0938
v 0.0149 0.0611 -0.0617
v 0.0149 0.0253 -0.0579
v 0.0218 0.0042 -0.0863
v 0.0287 0.0189 -0.1184
v 0.0287 0.0547 -0.1221
v 0.0218 0.0758 -0.0938
v 0.0611 0.0778 -0.0750
v 0.0417 0.0624 -0.0488
v 0.0417 0.0266 -0.0451
v 0.0611 0.0062 -0.0674
v 0.0805 0.0215 -0.0936
v 0.0805 0.0573 -0.0973
v 0.0611 0.0778 -0.0750
v 0.0883 0.0814 -0.0411
v 0.0602 0.0649 -0.0257
v 0.0602 0.0291 -0.0220
v 0.0883 0.0098 -0.0335
v 0.1164 0.0262 -0.0489
v 0.1164 0.0620 -0.0526
v 0.0883 0.0814 -0.0411
v 0.0980 0.0858 0.0012
v 0.0668 0.0679 0.0031
v 0.0668 0.0321 0.0069
v 0.0980 0.0142 0.0088
v 0.1292 0.0321 0.0069
v 0.1292 0.0679 0.0031
v 0.0980 0.0858 0.0012
v 0.0900 0.1248 0.0019
v 0.0640 0.1099 0.0034
v 0.0640 0.0801 0.0066
v 0.0900 0.0652 0.0081
v 0.1160 0.0801 0.0066
v 0.1160 0.1099 0.0034
v 0.0900 0.1248 0.0019
v 0.0811 0.1289 0.0407
v 0.0577 0.1128 0.0311
v 0.0577 0.0830 0.0342
v 0.0811 0.0692 0.0470
v 0.1045 0.0853 0.0566
v 0.1045 0.1152 0.0535
v 0.0811 0.1289 0.0407
v 0.0561 0.1322 0.0718
v 0.0399 0.1151 0.0532
v 0.0399 0.0853 0.0563
v 0.0561 0.0725 0.0781
v 0.0723 0.0896 0.0967
v 0.0723 0.1194 0.0936
v 0.0561 0.1322 0.0718
v 0.0200 0.1340 0.0891
v 0.0142 0.1164 0.0655
v 0.0142 0.0866 0.0686
v 0.0200 0.0743 0.0954
v 0.0258 0.0919 0.1190
v 0.0258 0.1217 0.1159
v 0.0200 0.1340 0.0891
v -0.0200 0.1340 0.0891
v -0.0142 0.1164 0.0655
v -0.0142 0.0866 0.0686
v -0.0200 0.0743 0.0954
v -0.0258 0.0919 0.1190
v -0.0258 0.1217 0.1159
v -0.0200 0.1340 0.0891
v -0.0561 0.1322 0.0718
v -0.0399 0.1151 0.0532
v -0.0399 0.0853 0.0563
v -0.0561 0.0725 0.0781
v -0.0723 0.0896 0.0967
v -0.0723 0.1194 0.0936
v -0.0561 0.1322 0.0718
v -0.0811 0.1289 0.0407
v -0.0577 0.1128 0.0311
v -0.0577 0.0830 0.0342
v -0.0811 0.0692 0.0470
v -0.1045 0.0853 0.0566
v -0.1045 0.1152 0.0535
v -0.0811 0.1289 0.0407
v -0.0900 0.1248 0.0019
v -0.0640 0.1099 0.0034
v -0.0640 0.0801 0.0066
v -0.0900 0.0652 0.0081
v -0.1160 0.0801 0.0066
v -0.1160 0.1099 0.0034
v -0.0900 0.1248 0.0019
v -0.0811 0.1208 -0.0370
v -0.0577 0.1070 -0.0242
v -0.0577 0.0772 -0.0211
v -0.0811 0.0611 -0.0307
v -0.1045 0.0748 -0.0435
v -0.1045 0.1047 -0.0466
v -0.0811 0.1208 -0.0370
v -0.0561 0.1175 -0.0681
v -0.0399 0.1047 -0.0463
v -0.0399 0.0749 -0.0432
v -0.0561 0.0578 -0.0618
v -0.0723 0.0706 -0.0836
v -0.0723 0.1004 -0.0867
v -0.0561 0.1175 -0.0681
v -0.0200 0.1157 -0.0854
v -0.0142 0.1034 -0.0586
v -0.0142 0.0736 -0.0555
v -0.0200 0.0560 -0.0791
v -0.0258 0.0683 -0.1059
v -0.0258 0.0981 -0.1090
v -0.0200 0.1157 -0.0854
v 0.0200 0.1157 -0.0854
v 0.0142 0.1034 -0.0586
v 0.0142 0.0736 -0.0555
v 0.0200 0.0560 -0.0791
v 0.0258 0.0683 -0.1059
v 0.0258 0.0981 -0.1090
v 0.0200 0.1157 -0.0854
v 0.0561 0.1175 -0.0681
v 0.0399 0.1047 -0.0463
v 0.0399 0.0749 -0.0432
v 0.0561 0.0578 -0.0618
v 0.0723 0.0706 -0.0836
v 0.0723 0.1004 -0.0867
v 0.0561 0.1175 -0.0681
v 0.0811 0.1208 -0.0370
v 0.0577 0.1070 -0.0242
v 0.0577 0.0772 -0.0211
v 0.0811 0.0611 -0.0307
v 0.1045 0.0748 -0.0435
v 0.1045 0.1047 -0.0466
v 0.0811 0.1208 -0.0370
v 0.0900 0.1248 0.0019
v 0.0640 0.1099 0.0034
v 0.0640 0.0801 0.0066
v 0.0900 0.0652 0.0081
v 0.1160 0.0801 0.0066
v 0.1160 0.1099 0.0034
v 0.0900 0.1248 0.0019
vt 0.0000 0.0000
vt 0.0000 0.0377
vt 0.0000 0.0754
vt 0.0000 0.1131
vt 0.0000 0.1508
vt 0.0000 0.1885
vt 0.0000 0.2262
vt 0.0436 0.0000
vt 0.0436 0.0377
vt 0.0436 0.0754
vt 0.0436 0.1131
vt 0.0436 0.1508
vt 0.0436 0.1885
vt 0.0436 0.2262
vt 0.0872 0.0000
vt 0.0872 0.0377
vt 0.0872 0.0754
vt 0.0872 0.1131
vt 0.0872 0.1508
vt 0.0872 0.1885
vt 0.0872 0.2262
vt 0.1308 0.0000
vt 0.1308 0.0377
vt 0.1308 0.0754
vt 0.1308 0.1131
vt 0.1308 0.1508
vt 0.1308 0.1885
vt 0.1308 0.2262
vt 0.1745 0.0000
vt 0.1745 0.0377
vt 0.1745 0.0754
vt 0.1745 0.1131
vt 0.1745 0.1508
vt 0.1745 0.1885
vt 0.1745 0.2262
vt 0.2181 0.0000
vt 0.2181 0.0377
vt 0.2181 0.0754
vt 0.2181 0.1131
vt 0.2181 0.1508
vt 0.2181 0.1885
vt 0.2181 0.2262
vt 0.2617 0.0000
vt 0.2617 0.0377
vt 0.2617 0.0754
vt 0.2617 0.1131
vt 0.2617 0.1508
vt 0.2617 0.1885
vt 0.2617 0.2262
vt 0.3053 0.0000
vt 0.3053 0.0377
vt 0.3053 0.0754
vt 0.3053 0.1131
vt 0.3053 0.1508
vt 0.3053 0.1885
vt 0.3053 0.2262
vt 0.3489 0.0000
vt 0.3489 0.0377
vt 0.3489 0.0754
vt 0.3489 0.1131
vt 0.3489 0.1508
vt 0.3489 0.1885
vt 0.3489 0.2262
vt 0.3925 0.0000
vt 0.3925 0.0377
vt 0.3925 0.0754
vt 0.3925 0.1131
vt 0.3925 0.1508
vt 0.3925 0.1885
vt 0.3925 0.2262
vt 0.4361 0.0000
vt 0.4361 0.0377
vt 0.4361 0.0754
vt 0.4361 0.1131
vt 0.4361 0.1508
vt 0.4361 0.1885
vt 0.4361 0.2262
vt 0.4798 0.0000
vt 0.4798 0.0377
vt 0.4798 0.0754
vt 0.4798 0.1131
vt 0.4798 0.1508
vt 0.4798 0.1885
vt 0.4798 0.2262
vt 0.5234 0.0000
vt 0.5234 0.0377
vt 0.5234 0.0754
vt 0.5234 0.1131
vt 0.5234 0.1508
vt 0.5234 0.1885
vt 0.5234 0.2262
vt 0.5670 0.0000
vt 0.5670 0.0377
vt 0.5670 0.0754
vt 0.5670 0.1131
vt 0.5670 0.1508
vt 0.5670 0.1885
vt 0.5670 0.2262
vt 0.6106 0.0000
vt 0.6106 0.0377
vt 0.6106 0.0754
vt 0.6106 0.1131
vt 0.6106 0.1508
vt 0.6106 0.1885
vt 0.6106 0.2262
vt 0.0000 0.0000
vt 0.0000 0.0314
vt 0.0000 0.0628
vt 0.0000 0.0942
vt 0.0000 0.1257
vt 0.0000 0.1571
vt 0.0000 0.1885
vt 0.0401 0.0000
vt 0.0401 0.0314
vt 0.0401 0.0628
vt 0.0401 0.0942
vt 0.0401 0.1257
vt 0.0401 0.1571
vt 0.0401 0.1885
vt 0.0801 0.0000
vt 0.0801 0.0314
vt 0.0801 0.0628
vt 0.0801 0.0942
vt 0.0801 0.1257
vt 0.0801 0.1571
vt 0.0801 0.1885
vt 0.1202 0.0000
vt 0.1202 0.0314
vt 0.1202 0.0628
vt 0.1202 0.0942
vt 0.1202 0.1257
vt 0.1202 0.1571
vt 0.1202 0.1885
vt 0.1602 0.0000
vt 0.1602 0.0314
vt 0.1602 0.0628
vt 0.1602 0.0942
vt 0.1602 0.1257
vt 0.1602 0.1571
vt 0.1602 0.1885
vt 0.2003 0.0000
vt 0.2003 0.0314
vt 0.2003 0.0628
vt 0.2003 0.0942
vt 0.2003 0.1257
vt 0.2003 0.1571
vt 0.2003 0.1885
vt 0.2403 0.0000
vt 0.2403 0.0314
vt 0.2403 0.0628
vt 0.2403 0.0942
vt 0.2403 0.1257
vt 0.2403 0.1571
vt 0.2403 0.1885
vt 0.2804 0.0000
vt 0.2804 0.0314
vt 0.2804 0.0628
vt 0.2804 0.0942
vt 0.2804 0.1257
vt 0.2804 0.1571
vt 0.2804 0.1885
vt 0.3204 0.0000
vt 0.3204 0.0314
vt 0.3204 0.0628
vt 0.3204 0.0942
vt 0.3204 0.1257
vt 0.3204 0.1571
vt 0.3204 0.1885
vt 0.3605 0.0000
vt 0.3605 0.0314
vt 0.3605 0.0628
vt 0.3605 0.0942
vt 0.3605 0.1257
vt 0.3605 0.1571
vt 0.3605 0.1885
vt 0.4005 0.0000
vt 0.4005 0.0314
vt 0.4005 0.0628
vt 0.4005 0.0942
vt 0.4005 0.1257
vt 0.4005 0.1571
vt 0.4005 0.1885
vt 0.4406 0.0000
vt 0.4406 0.0314
vt 0.4406 0.0628
vt 0.4406 0.0942
vt 0.4406 0.1257
vt 0.4406 0.1571
vt 0.4406 0.1885
vt 0.4806 0.0000
vt 0.4806 0.0314
vt 0.4806 0.0628
vt 0.4806 0.0942
vt 0.4806 0.1257
vt 0.4806 0.1571
vt 0.4806 0.1885
vt 0.5207 0.0000
vt 0.5207 0.0314
vt 0.5207 0.0628
vt 0.5207 0.0942
vt 0.5207 0.1257
vt 0.5207 0.1571
vt 0.5207 0.1885
vt 0.5608 0.0000
vt 0.5608 0.0314
vt 0.5608 0.0628
vt 0.5608 0.0942
vt 0.5608 0.1257
vt 0.5608 0.1571
vt 0.5608 0.1885
vn 0.000 0.995 -0.105
vn -0.866 0.497 -0.052
vn -0.866 -0.497 0.052
vn -0.000 -0.995 0.105
vn 0.866 -0.497 0.052
vn 0.866 0.497 -0.052
vn 0.000 0.995 -0.105
vn 0.000 0.995 -0.105
vn -0.780 0.458 -0.426
vn -0.780 -0.537 -0.321
vn -0.000 -0.995 0.105
vn 0.780 -0.458 0.426
vn 0.780 0.537 0.321
vn 0.000 0.995 -0.105
vn 0.000 0.995 -0.105
vn -0.540 0.426 -0.726
vn -0.540 -0.568 -0.621
vn -0.000 -0.995 0.105
vn 0.540 -0.426 0.726
vn 0.540 0.568 0.621
vn 0.000 0.995 -0.105
vn 0.000 0.995 -0.105
vn -0.193 0.409 -0.892
vn -0.193 -0.586 -0.787
vn -0.000 -0.995 0.105
vn 0.193 -0.409 0.892
vn 0.193 0.586 0.787
vn 0.000 0.995 -0.105
vn 0.000 0.995 -0.105
vn 0.193 0.409 -0.892
vn 0.193 -0.586 -0.787
vn 0.000 -0.995 0.105
vn -0.193 -0.409 0.892
vn -0.193 0.586 0.787
vn -0.000 0.995 -0.105
vn 0.000 0.995 -0.105
vn 0.540 0.426 -0.726
vn 0.540 -0.568 -0.621
vn 0.000 -0.995 0.105
vn -0.540 -0.426 0.726
vn -0.540 0.568 0.621
vn -0.000 0.995 -0.105
vn 0.000 0.995 -0.105
vn 0.780 0.458 -0.426
vn 0.780 -0.537 -0.321
vn 0.000 -0.995 0.105
vn -0.780 -0.458 0.426
vn -0.780 0.537 0.321
vn -0.000 0.995 -0.105
vn 0.000 0.995 -0.105
vn 0.866 0.497 -0.052
vn 0.866 -0.497 0.052
vn 0.000 -0.995 0.105
vn -0.866 -0.497 0.052
vn -0.866 0.497 -0.052
vn -0.000 0.995 -0.105
vn 0.000 0.995 -0.105
vn 0.780 0.537 0.321
vn 0.780 -0.458 0.426
vn 0.000 -0.995 0.105
vn -0.780 -0.537 -0.321
vn -0.780 0.458 -0.426
vn -0.000 0.995 -0.105
vn 0.000 0.995 -0.105
vn 0.540 0.568 0.621
vn 0.540 -0.426 0.726
vn 0.000 -0.995 0.105
vn -0.540 -0.568 -0.621
vn -0.540 0.426 -0.726
vn -0.000 0.995 -0.105
vn 0.000 0.995 -0.105
vn 0.193 0.586 0.787
vn 0.193 -0.409 0.892
vn 0.000 -0.995 0.105
vn -0.193 -0.586 -0.787
vn -0.193 0.409 -0.892
vn -0.000 0.995 -0.105
vn 0.000 0.995 -0.105
vn -0.193 0.586 0.787
vn -0.193 -0.409 0.892
vn -0.000 -0.995 0.105
vn 0.193 -0.586 -0.787
vn 0.193 0.409 -0.892
vn 0.000 0.995 -0.105
vn 0.000 0.995 -0.105
vn -0.540 0.568 0.621
vn -0.540 -0.426 0.726
vn -0.000 -0.995 0.105
vn 0.540 -0.568 -0.621
vn 0.540 0.426 -0.726
vn 0.000 0.995 -0.105
vn 0.000 0.995 -0.105
vn -0.780 0.537 0.321
vn -0.780 -0.458 0.426
vn -0.000 -0.995 0.105
vn 0.780 -0.537 -0.321
vn 0.780 0.458 -0.426
vn 0.000 0.995 -0.105
vn 0.000 0.995 -0.105
vn -0.866 0.497 -0.052
vn -0.866 -0.497 0.052
vn -0.000 -0.995 0.105
vn 0.866 -0.497 0.052
vn 0.866 0.497 -0.052
vn 0.000 0.995 -0.105
vn 0.000 0.995 -0.105
vn -0.866 0.497 -0.052
vn -0.866 -0.497 0.052
vn -0.000 -0.995 0.105
vn 0.866 -0.497 0.052
vn 0.866 0.497 -0.052
vn 0.000 0.995 -0.105
vn 0.000 0.995 -0.105
vn -0.780 0.458 -0.426
vn -0.780 -0.537 -0.321
vn -0.000 -0.995 0.105
vn 0.780 -0.458 0.426
vn 0.780 0.537 0.321
vn 0.000 0.995 -0.105
vn 0.000 0.995 -0.105
vn -0.540 0.426 -0.726
vn -0.540 -0.568 -0.621
vn -0.000 -0.995 0.105
vn 0.540 -0.426 0.726
vn 0.540 0.568 0.621
vn 0.000 0.995 -0.105
vn 0.000 0.995 -0.105
vn -0.193 0.409 -0.892
vn -0.193 -0.586 -0.787
vn -0.000 -0.995 0.105
vn 0.193 -0.409 0.892
vn 0.193 0.586 0.787
vn 0.000 0.995 -0.105
vn 0.000 0.995 -0.105
vn 0.193 0.409 -0.892
vn 0.193 -0.586 -0.787
vn 0.000 -0.995 0.105
vn -0.193 -0.409 0.892
vn -0.193 0.586 0.787
vn -0.000 0.995 -0.105
vn 0.000 0.995 -0.105
vn 0.540 0.426 -0.726
vn 0.540 -0.568 -0.621
vn 0.000 -0.995 0.105
vn -0.540 -0.426 0.726
vn -0.540 0.568 0.621
vn -0.000 0.995 -0.105
vn 0.000 0.995 -0.105
vn 0.780 0.458 -0.426
vn 0.780 -0.537 -0.321
vn 0.000 -0.995 0.105
vn -0.780 -0.458 0.426
vn -0.780 0.537 0.321
vn -0.000 0.995 -0.105
vn 0.000 0.995 -0.105
vn 0.866 0.497 -0.052
vn 0.866 -0.497 0.052
vn 0.000 -0.995 0.105
vn -0.866 -0.497 0.052
vn -0.866 0.497 -0.052
vn -0.000 0.995 -0.105
vn 0.000 0.995 -0.105
vn 0.780 0.537 0.321
vn 0.780 -0.458 0.426
vn 0.000 -0.995 0.105
vn -0.780 -0.537 -0.321
vn -0.780 0.458 -0.426
vn -0.000 0.995 -0.105
vn 0.000 0.995 -0.105
vn 0.540 0.568 0.621
vn 0.540 -0.426 0.726
vn 0.000 -0.995 0.105
vn -0.540 -0.568 -0.621
vn -0.540 0.426 -0.726
vn -0.000 0.995 -0.105
vn 0.000 0.995 -0.105
vn 0.193 0.586 0.787
vn 0.193 -0.409 0.892
vn 0.000 -0.995 0.105
vn -0.193 -0.586 -0.787
vn -0.193 0.409 -0.892
vn -0.000 0.995 -0.105
vn 0.000 0.995 -0.105
vn -0.193 0.586 0.787
vn -0.193 -0.409 0.892
vn -0.000 -0.995 0.105
vn 0.193 -0.586 -0.787
vn 0.193 0.409 -0.892
vn 0.000 0.995 -0.105
vn 0.000 0.995 -0.105
vn -0.540 0.568 0.621
vn -0.540 -0.426 0.726
vn -0.000 -0.995 0.105
vn 0.540 -0.568 -0.621
vn 0.540 0.426 -0.726
vn 0.000 0.995 -0.105
vn 0.000 0.995 -0.105
vn -0.780 0.537 0.321
vn -0.780 -0.458 0.426
vn -0.000 -0.995 0.105
vn 0.780 -0.537 -0.321
vn 0.780 0.458 -0.426
vn 0.000 0.995 -0.105
vn 0.000 0.995 -0.105
vn -0.866 0.497 -0.052
vn -0.866 -0.497 0.052
vn -0.000 -0.995 0.105
vn 0.866 -0.497 0.052
vn 0.866 0.497 -0.052
vn 0.000 0.995 -0.105
usemtl hat
f 1/1/1 2/2/2 9/9/9
f 1/1/1 9/9/9 8/8/8
f 2/2/2 3/3/3 10/10/10
f 2/2/2 10/10/10 9/9/9
f 3/3/3 4/4/4 11/11/11
f 3/3/3 11/11/11 10/10/10
f 4/4/4 5/5/5 12/12/12
f 4/4/4 12/12/12 11/11/11
f 5/5/5 6/6/6 13/13/13
f 5/5/5 13/13/13 12/12/12
f 6/6/6 7/7/7 14/14/14
f 6/6/6 14/14/14 13/13/13
f 8/8/8 9/9/9 16/16/16
f 8/8/8 16/16/16 15/15/15
f 9/9/9 10/10/10 17/17/17
f 9/9/9 17/17/17 16/16/16
f 10/10/10 11/11/11 18/18/18
f 10/10/10 18/18/18 17/17/17
f 11/11/11 12/12/12 19/19/19
f 11/11/11 19/19/19 18/18/18
f 12/12/12 13/13/13 20/20/20
f 12/12/12 20/20/20 19/19/19
f 13/13/13 14/14/14 21/21/21
f 13/13/13 21/21/21 20/20/20
f 15/15/15 16/16/16 23/23/23
f 15/15/15 23/23/23 22/22/22
f 16/16/16 17/17/17 24/24/24
f 16/16/16 24/24/24 23/23/23
f 17/17/17 18/18/18 25/25/25
f 17/17/17 25/25/25 24/24/24
f 18/18/18 19/19/19 26/26/26
f 18/18/18 26/26/26 25/25/25
f 19/19/19 20/20/20 27/27/27
f 19/19/19 27/27/27 26/26/26
f 20/20/20 21/21/21 28/28/28
f 20/20/20 28/28/28 27/27/27
f 22/22/22 23/23/23 30/30/30
f 22/22/22 30/30/30 29/29/29
f 23/23/23 24/24/24 31/31/31
f 23/23/23 31/31/31 30/30/30
f 24/24/24 25/25/25 32/32/32
f 24/24/24 32/32/32 31/31/31
f 25/25/25 26/26/26 33/33/33
f 25/25/25 33/33/33 32/32/32
f 26/26/26 27/27/27 34/34/34
f 26/26/26 34/34/34 33/33/33
f 27/27/27 28/28/28 35/35/35
f 27/27/27 35/35/35 34/34/34
f 29/29/29 30/30/30 37/37/37
f 29/29/29 37/37/37 36/36/36
f 30/30/30 31/31/31 38/38/38
f 30/30/30 38/38/38 37/37/37
f 31/31/31 32/32/32 39/39/39
f 31/31/31 39/39/39 38/38/38
f 32/32/32 33/33/33 40/40/40
f 32/32/32 40/40/40 39/39/39
f 33/33/33 34/34/34 41/41/41
f 33/33/33 41/41/41 40/40/40
f 34/34/34 35/35/35 42/42/42
f 34/34/34 42/42/42 41/41/41
f 36/36/36 37/37/37 44/44/44
f 36/36/36 44/44/44 43/43/43
f 37/37/37 38/38/38 45/45/45
f 37/37/37 45/45/45 44/44/44
f 38/38/38 39/39/39 46/46/46
f 38/38/38 46/46/46 45/45/45
f 39/39/39 40/40/40 47/47/47
f 39/39/39 47/47/47 46/46/46
f 40/40/40 41/41/41 48/48/48
f 40/40/40 48/48/48 47/47/47
f 41/41/41 42/42/42 49/49/49
f 41/41/41 49/49/49 48/48/48
f 43/43/43 44/44/44 51/51/51
f 43/43/43 51/51/51 50/50/50
f 44/44/44 45/45/45 52/52/52
f 44/44/44 52/52/52 51/51/51
f 45/45/45 46/46/46 53/53/53
f 45/45/45 53/53/53 52/52/52
f 46/46/46 47/47/47 54/54/54
f 46/46/46 54/54/54 53/53/53
f 47/47/47 48/48/48 55/55/55
f 47/47/47 55/55/55 54/54/54
f 48/48/48 49/49/49 56/56/56
f 48/48/48 56/56/56 55/55/55
f 50/50/50 51/51/51 58/58/58
f 50/50/50 58/58/58 57/57/57
f 51/51/51 52/52/52 59/59/59
f 51/51/51 59/59/59 58/58/58
f 52/52/52 53/53/53 60/60/60
f 52/52/52 60/60/60 59/59/59
f 53/53/53 54/54/54 61/61/61
f 53/53/53 61/61/61 60/60/60
f 54/54/54 55/55/55 62/62/62
f 54/54/54 62/62/62 61/61/61
f 55/55/55 56/56/56 63/63/63
f 55/55/55 63/63/63 62/62/62
f 57/57/57 58/58/58 65/65/65
f 57/57/57 65/65/65 64/64/64
f 58/58/58 59/59/59 66/66/66
f 58/58/58 66/66/66 65/65/65
f 59/59/59 60/60/60 67/67/67
f 59/59/59 67/67/67 66/66/66
f 60/60/60 61/61/61 68/68/68
f 60/60/60 68/68/68 67/67/67
f 61/61/61 62/62/62 69/69/69
f 61/61/61 69/69/69 68/68/68
f 62/62/62 63/63/63 70/70/70
f 62/62/62 70/70/70 69/69/69
f 64/64/64 65/65/65 72/72/72
f 64/64/64 72/72/72 71/71/71
f 65/65/65 66/66/66 73/73/73
f 65/65/65 73/73/73 72/72/72
f 66/66/66 67/67/67 74/74/74
f 66/66/66 74/74/74 73/73/73
f 67/67/67 68/68/68 75/75/75
f 67/67/67 75/75/75 74/74/74
f 68/68/68 69/69/69 76/76/76
f 68/68/68 76/76/76 75/75/75
f 69/69/69 70/70/70 77/77/77
f 69/69/69 77/77/77 76/76/76
f 71/71/71 72/72/72 79/79/79
f 71/71/71 79/79/79 78/78/78
f 72/72/72 73/73/73 80/80/80
f 72/72/72 80/80/80 79/79/79
f 73/73/73 74/74/74 81/81/81
f 73/73/73 81/81/81 80/80/80
f 74/74/74 75/75/75 82/82/82
f 74/74/74 82/82/82 81/81/81
f 75/75/75 76/76/76 83/83/83
f 75/75/75 83/83/83 82/82/82
f 76/76/76 77/77/77 84/84/84
f 76/76/76 84/84/84 83/83/83
f 78/78/78 79/79/79 86/86/86
f 78/78/78 86/86/86 85/85/85
f 79/79/79 80/80/80 87/87/87
f 79/79/79 87/87/87 86/86/86
f 80/80/80 81/81/81 88/88/88
f 80/80/80 88/88/88 87/87/87
f 81/81/81 82/82/82 89/89/89
f 81/81/81 89/89/89 88/88/88
f 82/82/82 83/83/83 90/90/90
f 82/82/82 90/90/90 89/89/89
f 83/83/83 84/84/84 91/91/91
f 83/83/83 91/91/91 90/90/90
f 85/85/85 86/86/86 93/93/93
f 85/85/85 93/93/93 92/92/92
f 86/86/86 87/87/87 94/94/94
f 86/86/86 94/94/94 93/93/93
f 87/87/87 88/88/88 95/95/95
f 87/87/87 95/95/95 94/94/94
f 88/88/88 89/89/89 96/96/96
f 88/88/88 96/96/96 95/95/95
f 89/89/89 90/90/90 97/97/97
f 89/89/89 97/97/97 96/96/96
f 90/90/90 91/91/91 98/98/98
f 90/90/90 98/98/98 97/97/97
f 92/92/92 93/93/93 100/100/100
f 92/92/92 100/100/100 99/99/99
f 93/93/93 94/94/94 101/101/101
f 93/93/93 101/101/101 100/100/100
f 94/94/94 95/95/95 102/102/102
f 94/94/94 102/102/102 101/101/101
f 95/95/95 96/96/96 103/103/103
f 95/95/95 103/103/103 102/102/102
f 96/96/96 97/97/97 104/104/104
f 96/96/96 104/104/104 103/103/103
f 97/97/97 98/98/98 105/105/105
f 97/97/97 105/105/105 104/104/104
f 106/106/106 107/107/107 114/114/114
f 106/106/106 114/114/114 113/113/113
f 107/107/107 108/108/108 115/115/115
f 107/107/107 115/115/115 114/114/114
f 108/108/108 109/109/109 116/116/116
f 108/108/108 116/116/116 115/115/115
f 109/109/109 110/110/110 117/117/117
f 109/109/109 117/117/117 116/116/116
f 110/110/110 111/111/111 118/118/118
f 110/110/110 118/118/118 117/117/117
f 111/111/111 112/112/112 119/119/119
f 111/111/111 119/119/119 118/118/118
f 113/113/113 114/114/114 121/121/121
f 113/113/113 121/121/121 120/120/120
f 114/114/114 115/115/115 122/122/122
f 114/114/114 122/122/122 121/121/121
f 115/115/115 116/116/116 123/123/123
f 115/115/115 123/123/123 122/122/122
f 116/116/116 117/117/117 124/124/124
f 116/116/116 124/124/124 123/123/123
f 117/117/117 118/118/118 125/125/125
f 117/117/117 125/125/125 124/124/124
f 118/118/118 119/119/119 126/126/126
f 118/118/118 126/126/126 125/125/125
f 120/120/120 121/121/121 128/128/128
f 120/120/120 128/128/128 127/127/127
f 121/121/121 122/122/122 129/129/129
f 121/121/121 129/129/129 128/128/128
f 122/122/122 123/123/123 130/130/130
f 122/122/122 130/130/130 129/129/129
f 123/123/123 124/124/124 131/131/131
f 123/123/123 131/131/131 130/130/130
f 124/124/124 125/125/125 132/132/132
f 124/124/124 132/132/132 131/131/131
f 125/125/125 126/126/126 133/133/133
f 125/125/125 133/133/133 132/132/132
f 127/127/127 128/128/128 135/135/135
f 127/127/127 135/135/135 134/134/134
f 128/128/128 129/129/129 136/136/136
f 128/128/128 136/136/136 135/135/135
f 129/129/129 130/130/130 137/137/137
f 129/129/129 137/137/137 136/136/136
f 130/130/130 131/131/131 138/138/138
f 130/130/130 138/138/138 137/137/137
f 131/131/131 132/132/132 139/139/139
f 131/131/131 139/139/139 138/138/138
f 132/132/132 133/133/133 140/140/140
f 132/132/132 140/140/140 139/139/139
f 134/134/134 135/135/135 142/142/142
f 134/134/134 142/142/142 141/141/141
f 135/135/135 136/136/136 143/143/143
f 135/135/135 143/143/143 142/142/142
f 136/136/136 137/137/137 144/144/144
f 136/136/136 144/144/144 143/143/143
f 137/137/137 138/138/138 145/145/145
f 137/137/137 145/145/145 144/144/144
f 138/138/138 139/139/139 146/146/146
f 138/138/138 146/146/146 145/145/145
f 139/139/139 140/140/140 147/147/147
f 139/139/139 147/147/147 146/146/146
f 141/141/141 142/142/142 149/149/149
f 141/141/141 149/149/149 148/148/148
f 142/142/142 143/143/143 150/150/150
f 142/142/142 150/150/150 149/149/149
f 143/143/143 144/144/144 151/151/151
f 143/143/143 151/151/151 150/150/150
f 144/144/144 145/145/145 152/152/152
f 144/144/144 152/152/152 151/151/151
f 145/145/145 146/146/146 153/153/153
f 145/145/145 153/153/153 152/152/152
f 146/146/146 147/147/147 154/154/154
f 146/146/146 154/154/154 153/153/153
f 148/148/148 149/149/149 156/156/156
f 148/148/148 156/156/156 155/155/155
f 149/149/149 150/150/150 157/157/157
f 149/149/149 157/157/157 156/156/156
f 150/150/150 151/151/151 158/158/158
f 150/150/150 158/158/158 157/157/157
f 151/151/151 152/152/152 159/159/159
f 151/151/151 159/159/159 158/158/158
f 152/152/152 153/153/153 160/160/160
f 152/152/152 160/160/160 159/159/159
f 153/153/153 154/154/154 161/161/161
f 153/153/153 161/161/161 160/160/160
f 155/155/155 156/156/156 163/163/163
f 155/155/155 163/163/163 162/162/162
f 156/156/156 157/157/157 164/164/164
f 156/156/156 164/164/164 163/163/163
f 157/157/157 158/158/158 165/165/165
f 157/157/157 165/165/165 164/164/164
f 158/158/158 159/159/159 166/166/166
f 158/158/158 166/166/166 165/165/165
f 159/159/159 160/160/160 167/167/167
f 159/159/159 167/167/167 166/166/166
f 160/160/160 161/161/161 168/168/168
f 160/160/160 168/168/168 167/167/167
f 162/162/162 163/163/163 170/170/170
f 162/162/162 170/170/170 169/169/169
f 163/163/163 164/164/164 171/171/171
f 163/163/163 171/171/171 170/170/170
f 164/164/164 165/165/165 172/172/172
f 164/164/164 172/172/172 171/171/171
f 165/165/165 166/166/166 173/173/173
f 165/165/165 173/173/173 172/172/172
f 166/166/166 167/167/167 174/174/174
f 166/166/166 174/174/174 173/173/173
f 167/167/167 168/168/168 175/175/175
f 167/167/167 175/175/175 174/174/174
f 169/169/169 170/170/170 177/177/177
f 169/169/169 177/177/177 176/176/176
f 170/170/170 171/171/171 178/178/178
f 170/170/170 178/178/178 177/177/177
f 171/171/171 172/172/172 179/179/179
f 171/171/171 179/179/179 178/178/178
f 172/172/172 173/173/173 180/180/180
f 172/172/172 180/180/180 179/179/179
f 173/173/173 174/174/174 181/181/181
f 173/173/173 181/181/181 180/180/180
f 174/174/174 175/175/175 182/182/182
f 174/174/174 182/182/182 181/181/181
f 176/176/176 177/177/177 184/184/184
f 176/176/176 184/184/184 183/183/183
f 177/177/177 178/178/178 185/185/185
f 177/177/177 185/185/185 184/184/184
f 178/178/178 179/179/179 186/186/186
f 178/178/178 186/186/186 185/185/185
f 179/179/179 180/180/180 187/187/187
f 179/179/179 187/187/187 186/186/186
f 180/180/180 181/181/181 188/188/188
f 180/180/180 188/188/188 187/187/187
f 181/181/181 182/182/182 189/189/189
f 181/181/181 189/189/189 188/188/188
f 183/183/183 184/184/184 191/191/191
f 183/183/183 191/191/191 190/190/190
f 184/184/184 185/185/185 192/192/192
f 184/184/184 192/192/192 191/191/191
f 185/185/185 186/186/186 193/193/193
f 185/185/185 193/193/193 192/192/192
f 186/186/186 187/187/187 194/194/194
f 186/186/186 194/194/194 193/193/193
f 187/187/187 188/188/188 195/195/195
f 187/187/187 195/195/195 194/194/194
f 188/188/188 189/189/189 196/196/196
f 188/188/188 196/196/196 195/195/195
f 190/190/190 191/191/191 198/198/198
f 190/190/190 198/198/198 197/197/197
f 191/191/191 192/192/192 199/199/199
f 191/191/191 199/199/199 198/198/198
f 192/192/192 193/193/193 200/200/200
f 192/192/192 200/200/200 199/199/199
f 193/193/193 194/194/194 201/201/201
f 193/193/193 201/201/201 200/200/200
f 194/194/194 195/195/195 202/202/202
f 194/194/194 202/202/202 201/201/201
f 195/195/195 196/196/196 203/203/203
f 195/195/195 203/203/203 202/202/202
f 197/197/197 198/198/198 205/205/205
f 197/197/197 205/205/205 204/204/204
f 198/198/198 199/199/199 206/206/206
f 198/198/198 206/206/206 205/205/205
f 199/199/199 200/200/200 207/207/207
f 199/199/199 207/207/207 206/206/206
f 200/200/200 201/201/201 208/208/208
f 200/200/200 208/208/208 207/207/207
f 201/201/201 202/202/202 209/209/209
f 201/201/201 209/209/209 208/208/208
f 202/202/202 203/203/203 210/210/210
f 202/202/202 210/210/210 209/209/209
