# Sinh tự động bởi tools/mesh_kit.py - đừng sửa tay
o e_hair_bun
v 0.0000 -0.0650 0.1100
v 0.0000 -0.0650 0.1100
v 0.0000 -0.0650 0.1100
v 0.0000 -0.0650 0.1100
v 0.0000 -0.0650 0.1100
v 0.0000 -0.0650 0.1100
v -0.0000 -0.0650 0.1100
v -0.0000 -0.0650 0.1100
v -0.0000 -0.0650 0.1100
v -0.0000 -0.0650 0.1100
v -0.0000 -0.0650 0.1100
v 0.0000 -0.0590 0.1325
v 0.0153 -0.0590 0.1282
v 0.0247 -0.0590 0.1170
v 0.0247 -0.0590 0.1030
v 0.0153 -0.0590 0.0918
v 0.0000 -0.0590 0.0875
v -0.0153 -0.0590 0.0918
v -0.0247 -0.0590 0.1030
v -0.0247 -0.0590 0.1170
v -0.0153 -0.0590 0.1282
v -0.0000 -0.0590 0.1325
v 0.0000 -0.0425 0.1490
v 0.0265 -0.0425 0.1415
v 0.0428 -0.0425 0.1220
v 0.0428 -0.0425 0.0980
v 0.0265 -0.0425 0.0785
v 0.0000 -0.0425 0.0710
v -0.0265 -0.0425 0.0785
v -0.0428 -0.0425 0.0980
v -0.0428 -0.0425 0.1220
v -0.0265 -0.0425 0.1415
v -0.0000 -0.0425 0.1490
v 0.0000 -0.0200 0.1550
v 0.0306 -0.0200 0.1464
v 0.0495 -0.0200 0.1239
v 0.0495 -0.0200 0.0961
v 0.0306 -0.0200 0.0736
v 0.0000 -0.0200 0.0650
v -0.0306 -0.0200 0.0736
v -0.0495 -0.0200 0.0961
v -0.0495 -0.0200 0.1239
v -0.0306 -0.0200 0.1464
v -0.0000 -0.0200 0.1550
v 0.0000 0.0025 0.1490
v 0.0265 0.0025 0.1415
v 0.0428 0.0025 0.1220
v 0.0428 0.0025 0.0980
v 0.0265 0.0025 0.0785
v 0.0000 0.0025 0.0710
v -0.0265 0.0025 0.0785
v -0.0428 0.0025 0.0980
v -0.0428 0.0025 0.1220
v -0.0265 0.0025 0.1415
v -0.0000 0.0025 0.1490
v 0.0000 0.0190 0.1325
v 0.0153 0.0190 0.1282
v 0.0247 0.0190 0.1170
v 0.0247 0.0190 0.1030
v 0.0153 0.0190 0.0918
v 0.0000 0.0190 0.0875
v -0.0153 0.0190 0.0918
v -0.0247 0.0190 0.1030
v -0.0247 0.0190 0.1170
v -0.0153 0.0190 0.1282
v -0.0000 0.0190 0.1325
v 0.0000 0.0250 0.1100
v 0.0000 0.0250 0.1100
v 0.0000 0.0250 0.1100
v 0.0000 0.0250 0.1100
v 0.0000 0.0250 0.1100
v 0.0000 0.0250 0.1100
v -0.0000 0.0250 0.1100
v -0.0000 0.0250 0.1100
v -0.0000 0.0250 0.1100
v -0.0000 0.0250 0.1100
v -0.0000 0.0250 0.1100
vt 0.0000 0.0000
vt 0.0318 0.0000
vt 0.0611 0.0000
vt 0.0889 0.0000
vt 0.1183 0.0000
vt 0.1501 0.0000
vt 0.1818 0.0000
vt 0.2112 0.0000
vt 0.2390 0.0000
vt 0.2684 0.0000
vt 0.3001 0.0000
vt 0.0000 0.0233
vt 0.0318 0.0233
vt 0.0611 0.0233
vt 0.0889 0.0233
vt 0.1183 0.0233
vt 0.1501 0.0233
vt 0.1818 0.0233
vt 0.2112 0.0233
vt 0.2390 0.0233
vt 0.2684 0.0233
vt 0.3001 0.0233
vt 0.0000 0.0466
vt 0.0318 0.0466
vt 0.0611 0.0466
vt 0.0889 0.0466
vt 0.1183 0.0466
vt 0.1501 0.0466
vt 0.1818 0.0466
vt 0.2112 0.0466
vt 0.2390 0.0466
vt 0.2684 0.0466
vt 0.3001 0.0466
vt 0.0000 0.0699
vt 0.0318 0.0699
vt 0.0611 0.0699
vt 0.0889 0.0699
vt 0.1183 0.0699
vt 0.1501 0.0699
vt 0.1818 0.0699
vt 0.2112 0.0699
vt 0.2390 0.0699
vt 0.2684 0.0699
vt 0.3001 0.0699
vt 0.0000 0.0932
vt 0.0318 0.0932
vt 0.0611 0.0932
vt 0.0889 0.0932
vt 0.1183 0.0932
vt 0.1501 0.0932
vt 0.1818 0.0932
vt 0.2112 0.0932
vt 0.2390 0.0932
vt 0.2684 0.0932
vt 0.3001 0.0932
vt 0.0000 0.1165
vt 0.0318 0.1165
vt 0.0611 0.1165
vt 0.0889 0.1165
vt 0.1183 0.1165
vt 0.1501 0.1165
vt 0.1818 0.1165
vt 0.2112 0.1165
vt 0.2390 0.1165
vt 0.2684 0.1165
vt 0.3001 0.1165
vt 0.0000 0.1398
vt 0.0318 0.1398
vt 0.0611 0.1398
vt 0.0889 0.1398
vt 0.1183 0.1398
vt 0.1501 0.1398
vt 0.1818 0.1398
vt 0.2112 0.1398
vt 0.2390 0.1398
vt 0.2684 0.1398
vt 0.3001 0.1398
vn 0.000 -0.866 0.500
vn 0.257 -0.876 0.409
vn 0.424 -0.892 0.159
vn 0.424 -0.892 -0.159
vn 0.257 -0.876 -0.409
vn 0.000 -0.866 -0.500
vn -0.257 -0.876 -0.409
vn -0.424 -0.892 -0.159
vn -0.424 -0.892 0.159
vn -0.257 -0.876 0.409
vn 0.000 -0.866 0.500
vn 0.000 -0.866 0.500
vn 0.257 -0.876 0.409
vn 0.424 -0.892 0.159
vn 0.424 -0.892 -0.159
vn 0.257 -0.876 -0.409
vn 0.000 -0.866 -0.500
vn -0.257 -0.876 -0.409
vn -0.424 -0.892 -0.159
vn -0.424 -0.892 0.159
vn -0.257 -0.876 0.409
vn 0.000 -0.866 0.500
vn 0.000 -0.500 0.866
vn 0.456 -0.517 0.725
vn 0.783 -0.549 0.294
vn 0.783 -0.549 -0.294
vn 0.456 -0.517 -0.725
vn 0.000 -0.500 -0.866
vn -0.456 -0.517 -0.725
vn -0.783 -0.549 -0.294
vn -0.783 -0.549 0.294
vn -0.456 -0.517 0.725
vn 0.000 -0.500 0.866
vn -0.000 -0.000 1.000
vn 0.532 -0.000 0.847
vn 0.936 -0.000 0.352
vn 0.936 -0.000 -0.352
vn 0.532 -0.000 -0.847
vn 0.000 -0.000 -1.000
vn -0.532 -0.000 -0.847
vn -0.936 -0.000 -0.352
vn -0.936 -0.000 0.352
vn -0.532 -0.000 0.847
vn -0.000 -0.000 1.000
vn -0.000 0.500 0.866
vn 0.456 0.517 0.725
vn 0.783 0.549 0.294
vn 0.783 0.549 -0.294
vn 0.456 0.517 -0.725
vn 0.000 0.500 -0.866
vn -0.456 0.517 -0.725
vn -0.783 0.549 -0.294
vn -0.783 0.549 0.294
vn -0.456 0.517 0.725
vn -0.000 0.500 0.866
vn 0.000 0.866 0.500
vn 0.257 0.876 0.409
vn 0.424 0.892 0.159
vn 0.424 0.892 -0.159
vn 0.257 0.876 -0.409
vn 0.000 0.866 -0.500
vn -0.257 0.876 -0.409
vn -0.424 0.892 -0.159
vn -0.424 0.892 0.159
vn -0.257 0.876 0.409
vn 0.000 0.866 0.500
vn 0.000 0.866 0.500
vn 0.257 0.876 0.409
vn 0.424 0.892 0.159
vn 0.424 0.892 -0.159
vn 0.257 0.876 -0.409
vn 0.000 0.866 -0.500
vn -0.257 0.876 -0.409
vn -0.424 0.892 -0.159
vn -0.424 0.892 0.159
vn -0.257 0.876 0.409
vn 0.000 0.866 0.500
v 0.0120 -0.0200 0.1520
v 0.0120 -0.0200 0.1680
v 0.0085 -0.0115 0.1520
v 0.0085 -0.0115 0.1680
v 0.0000 -0.0080 0.1520
v 0.0000 -0.0080 0.1680
v -0.0085 -0.0115 0.1520
v -0.0085 -0.0115 0.1680
v -0.0120 -0.0200 0.1520
v -0.0120 -0.0200 0.1680
v -0.0085 -0.0285 0.1520
v -0.0085 -0.0285 0.1680
v -0.0000 -0.0320 0.1520
v -0.0000 -0.0320 0.1680
v 0.0085 -0.0285 0.1520
v 0.0085 -0.0285 0.1680
v 0.0120 -0.0200 0.1520
v 0.0120 -0.0200 0.1680
vt 0.0000 0.0000
vt 0.0000 0.0160
vt 0.0094 0.0000
vt 0.0094 0.0160
vt 0.0188 0.0000
vt 0.0188 0.0160
vt 0.0283 0.0000
vt 0.0283 0.0160
vt 0.0377 0.0000
vt 0.0377 0.0160
vt 0.0471 0.0000
vt 0.0471 0.0160
vt 0.0565 0.0000
vt 0.0565 0.0160
vt 0.0660 0.0000
vt 0.0660 0.0160
vt 0.0754 0.0000
vt 0.0754 0.0160
vn 1.000 0.000 -0.000
vn 1.000 0.000 -0.000
vn 0.707 0.707 -0.000
vn 0.707 0.707 -0.000
vn 0.000 1.000 -0.000
vn 0.000 1.000 -0.000
vn -0.707 0.707 -0.000
vn -0.707 0.707 -0.000
vn -1.000 0.000 -0.000
vn -1.000 0.000 -0.000
vn -0.707 -0.707 0.000
vn -0.707 -0.707 0.000
vn -0.000 -1.000 0.000
vn -0.000 -1.000 0.000
vn 0.707 -0.707 0.000
vn 0.707 -0.707 0.000
vn 1.000 -0.000 0.000
vn 1.000 -0.000 0.000
usemtl hair
f 1/1/1 2/2/2 13/13/13
f 1/1/1 13/13/13 12/12/12
f 2/2/2 3/3/3 14/14/14
f 2/2/2 14/14/14 13/13/13
f 3/3/3 4/4/4 15/15/15
f 3/3/3 15/15/15 14/14/14
f 4/4/4 5/5/5 16/16/16
f 4/4/4 16/16/16 15/15/15
f 5/5/5 6/6/6 17/17/17
f 5/5/5 17/17/17 16/16/16
f 6/6/6 7/7/7 18/18/18
f 6/6/6 18/18/18 17/17/17
f 7/7/7 8/8/8 19/19/19
f 7/7/7 19/19/19 18/18/18
f 8/8/8 9/9/9 20/20/20
f 8/8/8 20/20/20 19/19/19
f 9/9/9 10/10/10 21/21/21
f 9/9/9 21/21/21 20/20/20
f 10/10/10 11/11/11 22/22/22
f 10/10/10 22/22/22 21/21/21
f 12/12/12 13/13/13 24/24/24
f 12/12/12 24/24/24 23/23/23
f 13/13/13 14/14/14 25/25/25
f 13/13/13 25/25/25 24/24/24
f 14/14/14 15/15/15 26/26/26
f 14/14/14 26/26/26 25/25/25
f 15/15/15 16/16/16 27/27/27
f 15/15/15 27/27/27 26/26/26
f 16/16/16 17/17/17 28/28/28
f 16/16/16 28/28/28 27/27/27
f 17/17/17 18/18/18 29/29/29
f 17/17/17 29/29/29 28/28/28
f 18/18/18 19/19/19 30/30/30
f 18/18/18 30/30/30 29/29/29
f 19/19/19 20/20/20 31/31/31
f 19/19/19 31/31/31 30/30/30
f 20/20/20 21/21/21 32/32/32
f 20/20/20 32/32/32 31/31/31
f 21/21/21 22/22/22 33/33/33
f 21/21/21 33/33/33 32/32/32
f 23/23/23 24/24/24 35/35/35
f 23/23/23 35/35/35 34/34/34
f 24/24/24 25/25/25 36/36/36
f 24/24/24 36/36/36 35/35/35
f 25/25/25 26/26/26 37/37/37
f 25/25/25 37/37/37 36/36/36
f 26/26/26 27/27/27 38/38/38
f 26/26/26 38/38/38 37/37/37
f 27/27/27 28/28/28 39/39/39
f 27/27/27 39/39/39 38/38/38
f 28/28/28 29/29/29 40/40/40
f 28/28/28 40/40/40 39/39/39
f 29/29/29 30/30/30 41/41/41
f 29/29/29 41/41/41 40/40/40
f 30/30/30 31/31/31 42/42/42
f 30/30/30 42/42/42 41/41/41
f 31/31/31 32/32/32 43/43/43
f 31/31/31 43/43/43 42/42/42
f 32/32/32 33/33/33 44/44/44
f 32/32/32 44/44/44 43/43/43
f 34/34/34 35/35/35 46/46/46
f 34/34/34 46/46/46 45/45/45
f 35/35/35 36/36/36 47/47/47
f 35/35/35 47/47/47 46/46/46
f 36/36/36 37/37/37 48/48/48
f 36/36/36 48/48/48 47/47/47
f 37/37/37 38/38/38 49/49/49
f 37/37/37 49/49/49 48/48/48
f 38/38/38 39/39/39 50/50/50
f 38/38/38 50/50/50 49/49/49
f 39/39/39 40/40/40 51/51/51
f 39/39/39 51/51/51 50/50/50
f 40/40/40 41/41/41 52/52/52
f 40/40/40 52/52/52 51/51/51
f 41/41/41 42/42/42 53/53/53
f 41/41/41 53/53/53 52/52/52
f 42/42/42 43/43/43 54/54/54
f 42/42/42 54/54/54 53/53/53
f 43/43/43 44/44/44 55/55/55
f 43/43/43 55/55/55 54/54/54
f 45/45/45 46/46/46 57/57/57
f 45/45/45 57/57/57 56/56/56
f 46/46/46 47/47/47 58/58/58
f 46/46/46 58/58/58 57/57/57
f 47/47/47 48/48/48 59/59/59
f 47/47/47 59/59/59 58/58/58
f 48/48/48 49/49/49 60/60/60
f 48/48/48 60/60/60 59/59/59
f 49/49/49 50/50/50 61/61/61
f 49/49/49 61/61/61 60/60/60
f 50/50/50 51/51/51 62/62/62
f 50/50/50 62/62/62 61/61/61
f 51/51/51 52/52/52 63/63/63
f 51/51/51 63/63/63 62/62/62
f 52/52/52 53/53/53 64/64/64
f 52/52/52 64/64/64 63/63/63
f 53/53/53 54/54/54 65/65/65
f 53/53/53 65/65/65 64/64/64
f 54/54/54 55/55/55 66/66/66
f 54/54/54 66/66/66 65/65/65
f 56/56/56 57/57/57 68/68/68
f 56/56/56 68/68/68 67/67/67
f 57/57/57 58/58/58 69/69/69
f 57/57/57 69/69/69 68/68/68
f 58/58/58 59/59/59 70/70/70
f 58/58/58 70/70/70 69/69/69
f 59/59/59 60/60/60 71/71/71
f 59/59/59 71/71/71 70/70/70
f 60/60/60 61/61/61 72/72/72
f 60/60/60 72/72/72 71/71/71
f 61/61/61 62/62/62 73/73/73
f 61/61/61 73/73/73 72/72/72
f 62/62/62 63/63/63 74/74/74
f 62/62/62 74/74/74 73/73/73
f 63/63/63 64/64/64 75/75/75
f 63/63/63 75/75/75 74/74/74
f 64/64/64 65/65/65 76/76/76
f 64/64/64 76/76/76 75/75/75
f 65/65/65 66/66/66 77/77/77
f 65/65/65 77/77/77 76/76/76
usemtl trim
f 78/78/78 80/80/80 81/81/81
f 78/78/78 81/81/81 79/79/79
f 80/80/80 82/82/82 83/83/83
f 80/80/80 83/83/83 81/81/81
f 82/82/82 84/84/84 85/85/85
f 82/82/82 85/85/85 83/83/83
f 84/84/84 86/86/86 87/87/87
f 84/84/84 87/87/87 85/85/85
f 86/86/86 88/88/88 89/89/89
f 86/86/86 89/89/89 87/87/87
f 88/88/88 90/90/90 91/91/91
f 88/88/88 91/91/91 89/89/89
f 90/90/90 92/92/92 93/93/93
f 90/90/90 93/93/93 91/91/91
f 92/92/92 94/94/94 95/95/95
f 92/92/92 95/95/95 93/93/93
