# Sinh tự động bởi tools/mesh_kit.py - đừng sửa tay
o e_head
v 0.0000 -0.1180 0.0000
v 0.0000 -0.1180 -0.0000
v 0.0000 -0.1180 -0.0000
v 0.0000 -0.1180 -0.0000
v 0.0000 -0.1180 -0.0000
v 0.0000 -0.1180 -0.0000
v 0.0000 -0.1180 -0.0000
v 0.0000 -0.1180 -0.0000
v 0.0000 -0.1180 -0.0000
v -0.0000 -0.1180 -0.0000
v -0.0000 -0.1180 -0.0000
v -0.0000 -0.1180 -0.0000
v -0.0000 -0.1180 -0.0000
v -0.0000 -0.1180 -0.0000
v -0.0000 -0.1180 -0.0000
v -0.0000 -0.1180 -0.0000
v -0.0000 -0.1180 -0.0000
v 0.0194 -0.1150 0.0000
v 0.0191 -0.1150 -0.0036
v 0.0180 -0.1150 -0.0070
v 0.0162 -0.1150 -0.0101
v 0.0138 -0.1150 -0.0129
v 0.0108 -0.1150 -0.0152
v 0.0074 -0.1150 -0.0169
v 0.0038 -0.1150 -0.0179
v 0.0000 -0.1150 -0.0182
v -0.0038 -0.1150 -0.0179
v -0.0074 -0.1150 -0.0169
v -0.0108 -0.1150 -0.0152
v -0.0138 -0.1150 -0.0129
v -0.0162 -0.1150 -0.0101
v -0.0180 -0.1150 -0.0070
v -0.0191 -0.1150 -0.0036
v -0.0194 -0.1150 -0.0000
v 0.0379 -0.1063 0.0000
v 0.0372 -0.1063 -0.0069
v 0.0350 -0.1063 -0.0136
v 0.0315 -0.1063 -0.0198
v 0.0268 -0.1063 -0.0252
v 0.0211 -0.1063 -0.0296
v 0.0145 -0.1063 -0.0329
v 0.0074 -0.1063 -0.0349
v 0.0000 -0.1063 -0.0356
v -0.0074 -0.1063 -0.0349
v -0.0145 -0.1063 -0.0329
v -0.0211 -0.1063 -0.0296
v -0.0268 -0.1063 -0.0252
v -0.0315 -0.1063 -0.0198
v -0.0350 -0.1063 -0.0136
v -0.0372 -0.1063 -0.0069
v -0.0379 -0.1063 -0.0000
v 0.0545 -0.0923 0.0000
v 0.0534 -0.0923 -0.0100
v 0.0503 -0.0923 -0.0196
v 0.0453 -0.0923 -0.0284
v 0.0385 -0.0923 -0.0362
v 0.0303 -0.0923 -0.0425
v 0.0209 -0.0923 -0.0472
v 0.0106 -0.0923 -0.0501
v 0.0000 -0.0923 -0.0511
v -0.0106 -0.0923 -0.0501
v -0.0209 -0.0923 -0.0472
v -0.0303 -0.0923 -0.0425
v -0.0385 -0.0923 -0.0362
v -0.0453 -0.0923 -0.0284
v -0.0503 -0.0923 -0.0196
v -0.0534 -0.0923 -0.0100
v -0.0545 -0.0923 -0.0000
v 0.0683 -0.0736 0.0000
v 0.0670 -0.0736 -0.0125
v 0.0631 -0.0736 -0.0245
v 0.0568 -0.0736 -0.0356
v 0.0483 -0.0736 -0.0453
v 0.0380 -0.0736 -0.0533
v 0.0261 -0.0736 -0.0592
v 0.0133 -0.0736 -0.0629
v 0.0000 -0.0736 -0.0641
v -0.0133 -0.0736 -0.0629
v -0.0261 -0.0736 -0.0592
v -0.0380 -0.0736 -0.0533
v -0.0483 -0.0736 -0.0453
v -0.0568 -0.0736 -0.0356
v -0.0631 -0.0736 -0.0245
v -0.0670 -0.0736 -0.0125
v -0.0683 -0.0736 -0.0000
v 0.0787 -0.0512 0.0000
v 0.0772 -0.0512 -0.0144
v 0.0728 -0.0512 -0.0283
v 0.0655 -0.0512 -0.0410
v 0.0557 -0.0512 -0.0522
v 0.0437 -0.0512 -0.0614
v 0.0301 -0.0512 -0.0683
v 0.0154 -0.0512 -0.0725
v 0.0000 -0.0512 -0.0739
v -0.0154 -0.0512 -0.0725
v -0.0301 -0.0512 -0.0683
v -0.0437 -0.0512 -0.0614
v -0.0557 -0.0512 -0.0522
v -0.0655 -0.0512 -0.0410
v -0.0728 -0.0512 -0.0283
v -0.0772 -0.0512 -0.0144
v -0.0787 -0.0512 -0.0000
v 0.0852 -0.0263 0.0000
v 0.0836 -0.0263 -0.0156
v 0.0787 -0.0263 -0.0306
v 0.0708 -0.0263 -0.0444
v 0.0603 -0.0263 -0.0565
v 0.0473 -0.0263 -0.0665
v 0.0326 -0.0263 -0.0739
v 0.0166 -0.0263 -0.0784
v 0.0000 -0.0263 -0.0799
v -0.0166 -0.0263 -0.0784
v -0.0326 -0.0263 -0.0739
v -0.0473 -0.0263 -0.0665
v -0.0603 -0.0263 -0.0565
v -0.0708 -0.0263 -0.0444
v -0.0787 -0.0263 -0.0306
v -0.0836 -0.0263 -0.0156
v -0.0852 -0.0263 -0.0000
v 0.0950 0.0000 0.0000
v 0.0932 0.0000 -0.0160
v 0.0878 0.0000 -0.0314
v 0.0790 0.0000 -0.0456
v 0.0672 0.0000 -0.0580
v 0.0528 0.0000 -0.0682
v 0.0364 0.0000 -0.0758
v 0.0185 0.0000 -0.0804
v 0.0000 0.0000 -0.0820
v -0.0185 0.0000 -0.0804
v -0.0364 0.0000 -0.0758
v -0.0528 0.0000 -0.0682
v -0.0672 0.0000 -0.0580
v -0.0790 0.0000 -0.0456
v -0.0878 0.0000 -0.0314
v -0.0932 0.0000 -0.0160
v -0.0950 0.0000 -0.0000
v 0.0926 0.0263 0.0000
v 0.0908 0.0263 -0.0156
v 0.0856 0.0263 -0.0306
v 0.0770 0.0263 -0.0444
v 0.0655 0.0263 -0.0565
v 0.0515 0.0263 -0.0665
v 0.0354 0.0263 -0.0739
v 0.0181 0.0263 -0.0784
v 0.0000 0.0263 -0.0799
v -0.0181 0.0263 -0.0784
v -0.0354 0.0263 -0.0739
v -0.0515 0.0263 -0.0665
v -0.0655 0.0263 -0.0565
v -0.0770 0.0263 -0.0444
v -0.0856 0.0263 -0.0306
v -0.0908 0.0263 -0.0156
v -0.0926 0.0263 -0.0000
v 0.0856 0.0512 0.0000
v 0.0839 0.0512 -0.0144
v 0.0791 0.0512 -0.0283
v 0.0712 0.0512 -0.0410
v 0.0605 0.0512 -0.0522
v 0.0476 0.0512 -0.0614
v 0.0328 0.0512 -0.0683
v 0.0167 0.0512 -0.0725
v 0.0000 0.0512 -0.0739
v -0.0167 0.0512 -0.0725
v -0.0328 0.0512 -0.0683
v -0.0476 0.0512 -0.0614
v -0.0605 0.0512 -0.0522
v -0.0712 0.0512 -0.0410
v -0.0791 0.0512 -0.0283
v -0.0839 0.0512 -0.0144
v -0.0856 0.0512 -0.0000
v 0.0743 0.0736 0.0000
v 0.0728 0.0736 -0.0125
v 0.0686 0.0736 -0.0245
v 0.0618 0.0736 -0.0356
v 0.0525 0.0736 -0.0453
v 0.0413 0.0736 -0.0533
v 0.0284 0.0736 -0.0592
v 0.0145 0.0736 -0.0629
v 0.0000 0.0736 -0.0641
v -0.0145 0.0736 -0.0629
v -0.0284 0.0736 -0.0592
v -0.0413 0.0736 -0.0533
v -0.0525 0.0736 -0.0453
v -0.0618 0.0736 -0.0356
v -0.0686 0.0736 -0.0245
v -0.0728 0.0736 -0.0125
v -0.0743 0.0736 -0.0000
v 0.0592 0.0923 0.0000
v 0.0581 0.0923 -0.0100
v 0.0547 0.0923 -0.0196
v 0.0492 0.0923 -0.0284
v 0.0419 0.0923 -0.0362
v 0.0329 0.0923 -0.0425
v 0.0227 0.0923 -0.0472
v 0.0116 0.0923 -0.0501
v 0.0000 0.0923 -0.0511
v -0.0116 0.0923 -0.0501
v -0.0227 0.0923 -0.0472
v -0.0329 0.0923 -0.0425
v -0.0419 0.0923 -0.0362
v -0.0492 0.0923 -0.0284
v -0.0547 0.0923 -0.0196
v -0.0581 0.0923 -0.0100
v -0.0592 0.0923 -0.0000
v 0.0412 0.1063 0.0000
v 0.0404 0.1063 -0.0069
v 0.0381 0.1063 -0.0136
v 0.0343 0.1063 -0.0198
v 0.0291 0.1063 -0.0252
v 0.0229 0.1063 -0.0296
v 0.0158 0.1063 -0.0329
v 0.0080 0.1063 -0.0349
v 0.0000 0.1063 -0.0356
v -0.0080 0.1063 -0.0349
v -0.0158 0.1063 -0.0329
v -0.0229 0.1063 -0.0296
v -0.0291 0.1063 -0.0252
v -0.0343 0.1063 -0.0198
v -0.0381 0.1063 -0.0136
v -0.0404 0.1063 -0.0069
v -0.0412 0.1063 -0.0000
v 0.0211 0.1150 0.0000
v 0.0207 0.1150 -0.0036
v 0.0195 0.1150 -0.0070
v 0.0176 0.1150 -0.0101
v 0.0149 0.1150 -0.0129
v 0.0117 0.1150 -0.0152
v 0.0081 0.1150 -0.0169
v 0.0041 0.1150 -0.0179
v 0.0000 0.1150 -0.0182
v -0.0041 0.1150 -0.0179
v -0.0081 0.1150 -0.0169
v -0.0117 0.1150 -0.0152
v -0.0149 0.1150 -0.0129
v -0.0176 0.1150 -0.0101
v -0.0195 0.1150 -0.0070
v -0.0207 0.1150 -0.0036
v -0.0211 0.1150 -0.0000
v 0.0000 0.1180 0.0000
v 0.0000 0.1180 -0.0000
v 0.0000 0.1180 -0.0000
v 0.0000 0.1180 -0.0000
v 0.0000 0.1180 -0.0000
v 0.0000 0.1180 -0.0000
v 0.0000 0.1180 -0.0000
v 0.0000 0.1180 -0.0000
v 0.0000 0.1180 -0.0000
v -0.0000 0.1180 -0.0000
v -0.0000 0.1180 -0.0000
v -0.0000 0.1180 -0.0000
v -0.0000 0.1180 -0.0000
v -0.0000 0.1180 -0.0000
v -0.0000 0.1180 -0.0000
v -0.0000 0.1180 -0.0000
v -0.0000 0.1180 -0.0000
vt 0.5000 0.0000
vt 0.5000 0.0000
vt 0.5000 0.0000
vt 0.5000 0.0000
vt 0.5000 0.0000
vt 0.5000 0.0000
vt 0.5000 0.0000
vt 0.5000 0.0000
vt 0.5000 0.0000
vt 0.5000 0.0000
vt 0.5000 0.0000
vt 0.5000 0.0000
vt 0.5000 0.0000
vt 0.5000 0.0000
vt 0.5000 0.0000
vt 0.5000 0.0000
vt 0.5000 0.0000
vt 0.3976 0.0125
vt 0.3996 0.0125
vt 0.4054 0.0125
vt 0.4149 0.0125
vt 0.4276 0.0125
vt 0.4431 0.0125
vt 0.4608 0.0125
vt 0.4800 0.0125
vt 0.5000 0.0125
vt 0.5200 0.0125
vt 0.5392 0.0125
vt 0.5569 0.0125
vt 0.5724 0.0125
vt 0.5851 0.0125
vt 0.5946 0.0125
vt 0.6004 0.0125
vt 0.6024 0.0125
vt 0.3004 0.0495
vt 0.3042 0.0495
vt 0.3156 0.0495
vt 0.3340 0.0495
vt 0.3589 0.0495
vt 0.3891 0.0495
vt 0.4236 0.0495
vt 0.4611 0.0495
vt 0.5000 0.0495
vt 0.5389 0.0495
vt 0.5764 0.0495
vt 0.6109 0.0495
vt 0.6411 0.0495
vt 0.6660 0.0495
vt 0.6844 0.0495
vt 0.6958 0.0495
vt 0.6996 0.0495
vt 0.2132 0.1091
vt 0.2187 0.1091
vt 0.2350 0.1091
vt 0.2615 0.1091
vt 0.2972 0.1091
vt 0.3407 0.1091
vt 0.3902 0.1091
vt 0.4440 0.1091
vt 0.5000 0.1091
vt 0.5560 0.1091
vt 0.6098 0.1091
vt 0.6593 0.1091
vt 0.7028 0.1091
vt 0.7385 0.1091
vt 0.7650 0.1091
vt 0.7813 0.1091
vt 0.7868 0.1091
vt 0.1404 0.1883
vt 0.1473 0.1883
vt 0.1677 0.1883
vt 0.2010 0.1883
vt 0.2457 0.1883
vt 0.3002 0.1883
vt 0.3624 0.1883
vt 0.4298 0.1883
vt 0.5000 0.1883
vt 0.5702 0.1883
vt 0.6376 0.1883
vt 0.6998 0.1883
vt 0.7543 0.1883
vt 0.7990 0.1883
vt 0.8323 0.1883
vt 0.8527 0.1883
vt 0.8596 0.1883
vt 0.0856 0.2831
vt 0.0935 0.2831
vt 0.1171 0.2831
vt 0.1554 0.2831
vt 0.2069 0.2831
vt 0.2697 0.2831
vt 0.3414 0.2831
vt 0.4191 0.2831
vt 0.5000 0.2831
vt 0.5809 0.2831
vt 0.6586 0.2831
vt 0.7303 0.2831
vt 0.7931 0.2831
vt 0.8446 0.2831
vt 0.8829 0.2831
vt 0.9065 0.2831
vt 0.9144 0.2831
vt 0.0515 0.3887
vt 0.0602 0.3887
vt 0.0857 0.3887
vt 0.1271 0.3887
vt 0.1829 0.3887
vt 0.2508 0.3887
vt 0.3284 0.3887
vt 0.4125 0.3887
vt 0.5000 0.3887
vt 0.5875 0.3887
vt 0.6716 0.3887
vt 0.7492 0.3887
vt 0.8171 0.3887
vt 0.8729 0.3887
vt 0.9143 0.3887
vt 0.9398 0.3887
vt 0.9485 0.3887
vt 0.0000 0.5000
vt 0.0096 0.5000
vt 0.0381 0.5000
vt 0.0843 0.5000
vt 0.1464 0.5000
vt 0.2222 0.5000
vt 0.3087 0.5000
vt 0.4025 0.5000
vt 0.5000 0.5000
vt 0.5975 0.5000
vt 0.6913 0.5000
vt 0.7778 0.5000
vt 0.8536 0.5000
vt 0.9157 0.5000
vt 0.9619 0.5000
vt 0.9904 0.5000
vt 1.0000 0.5000
vt 0.0125 0.6113
vt 0.0219 0.6113
vt 0.0496 0.6113
vt 0.0947 0.6113
vt 0.1553 0.6113
vt 0.2292 0.6113
vt 0.3135 0.6113
vt 0.4049 0.6113
vt 0.5000 0.6113
vt 0.5951 0.6113
vt 0.6865 0.6113
vt 0.7708 0.6113
vt 0.8447 0.6113
vt 0.9053 0.6113
vt 0.9504 0.6113
vt 0.9781 0.6113
vt 0.9875 0.6113
vt 0.0495 0.7169
vt 0.0582 0.7169
vt 0.0838 0.7169
vt 0.1254 0.7169
vt 0.1815 0.7169
vt 0.2497 0.7169
vt 0.3276 0.7169
vt 0.4121 0.7169
vt 0.5000 0.7169
vt 0.5879 0.7169
vt 0.6724 0.7169
vt 0.7503 0.7169
vt 0.8185 0.7169
vt 0.8746 0.7169
vt 0.9162 0.7169
vt 0.9418 0.7169
vt 0.9505 0.7169
vt 0.1091 0.8117
vt 0.1166 0.8117
vt 0.1388 0.8117
vt 0.1750 0.8117
vt 0.2236 0.8117
vt 0.2828 0.8117
vt 0.3504 0.8117
vt 0.4237 0.8117
vt 0.5000 0.8117
vt 0.5763 0.8117
vt 0.6496 0.8117
vt 0.7172 0.8117
vt 0.7764 0.8117
vt 0.8250 0.8117
vt 0.8612 0.8117
vt 0.8834 0.8117
vt 0.8909 0.8117
vt 0.1883 0.8909
vt 0.1942 0.8909
vt 0.2120 0.8909
vt 0.2408 0.8909
vt 0.2796 0.8909
vt 0.3268 0.8909
vt 0.3807 0.8909
vt 0.4392 0.8909
vt 0.5000 0.8909
vt 0.5608 0.8909
vt 0.6193 0.8909
vt 0.6732 0.8909
vt 0.7204 0.8909
vt 0.7592 0.8909
vt 0.7880 0.8909
vt 0.8058 0.8909
vt 0.8117 0.8909
vt 0.2831 0.9505
vt 0.2872 0.9505
vt 0.2996 0.9505
vt 0.3196 0.9505
vt 0.3466 0.9505
vt 0.3795 0.9505
vt 0.4170 0.9505
vt 0.4577 0.9505
vt 0.5000 0.9505
vt 0.5423 0.9505
vt 0.5830 0.9505
vt 0.6205 0.9505
vt 0.6534 0.9505
vt 0.6804 0.9505
vt 0.7004 0.9505
vt 0.7128 0.9505
vt 0.7169 0.9505
vt 0.3887 0.9875
vt 0.3909 0.9875
vt 0.3972 0.9875
vt 0.4075 0.9875
vt 0.4213 0.9875
vt 0.4382 0.9875
vt 0.4574 0.9875
vt 0.4783 0.9875
vt 0.5000 0.9875
vt 0.5217 0.9875
vt 0.5426 0.9875
vt 0.5618 0.9875
vt 0.5787 0.9875
vt 0.5925 0.9875
vt 0.6028 0.9875
vt 0.6091 0.9875
vt 0.6113 0.9875
vt 0.5000 1.0000
vt 0.5000 1.0000
vt 0.5000 1.0000
vt 0.5000 1.0000
vt 0.5000 1.0000
vt 0.5000 1.0000
vt 0.5000 1.0000
vt 0.5000 1.0000
vt 0.5000 1.0000
vt 0.5000 1.0000
vt 0.5000 1.0000
vt 0.5000 1.0000
vt 0.5000 1.0000
vt 0.5000 1.0000
vt 0.5000 1.0000
vt 0.5000 1.0000
vt 0.5000 1.0000
vn 0.294 -0.955 -0.031
vn 0.289 -0.955 -0.061
vn 0.272 -0.955 -0.120
vn 0.244 -0.954 -0.174
vn 0.208 -0.953 -0.221
vn 0.163 -0.952 -0.260
vn 0.112 -0.951 -0.289
vn 0.057 -0.950 -0.306
vn -0.000 -0.950 -0.312
vn -0.057 -0.950 -0.306
vn -0.112 -0.951 -0.289
vn -0.163 -0.952 -0.260
vn -0.208 -0.953 -0.221
vn -0.244 -0.954 -0.174
vn -0.272 -0.955 -0.120
vn -0.289 -0.955 -0.061
vn -0.294 -0.955 -0.031
vn 0.294 -0.955 -0.031
vn 0.289 -0.955 -0.061
vn 0.272 -0.955 -0.120
vn 0.244 -0.954 -0.174
vn 0.208 -0.953 -0.221
vn 0.163 -0.952 -0.260
vn 0.112 -0.951 -0.289
vn 0.057 -0.950 -0.306
vn -0.000 -0.950 -0.312
vn -0.057 -0.950 -0.306
vn -0.112 -0.951 -0.289
vn -0.163 -0.952 -0.260
vn -0.208 -0.953 -0.221
vn -0.244 -0.954 -0.174
vn -0.272 -0.955 -0.120
vn -0.289 -0.955 -0.061
vn -0.294 -0.955 -0.031
vn 0.544 -0.837 -0.057
vn 0.534 -0.838 -0.113
vn 0.502 -0.836 -0.222
vn 0.450 -0.833 -0.321
vn 0.382 -0.830 -0.407
vn 0.299 -0.827 -0.476
vn 0.205 -0.824 -0.528
vn 0.104 -0.823 -0.559
vn -0.000 -0.822 -0.570
vn -0.104 -0.823 -0.559
vn -0.205 -0.824 -0.528
vn -0.299 -0.827 -0.476
vn -0.382 -0.830 -0.407
vn -0.450 -0.833 -0.321
vn -0.502 -0.836 -0.222
vn -0.534 -0.838 -0.113
vn -0.544 -0.837 -0.057
vn 0.731 -0.679 -0.077
vn 0.718 -0.680 -0.152
vn 0.673 -0.677 -0.297
vn 0.602 -0.673 -0.429
vn 0.509 -0.668 -0.542
vn 0.397 -0.664 -0.634
vn 0.272 -0.660 -0.700
vn 0.138 -0.658 -0.740
vn -0.000 -0.657 -0.754
vn -0.138 -0.658 -0.740
vn -0.272 -0.660 -0.700
vn -0.397 -0.664 -0.634
vn -0.509 -0.668 -0.542
vn -0.602 -0.673 -0.429
vn -0.673 -0.677 -0.297
vn -0.718 -0.680 -0.152
vn -0.731 -0.679 -0.077
vn 0.858 -0.507 -0.090
vn 0.843 -0.508 -0.179
vn 0.790 -0.505 -0.349
vn 0.705 -0.501 -0.502
vn 0.594 -0.496 -0.633
vn 0.463 -0.492 -0.738
vn 0.316 -0.488 -0.814
vn 0.160 -0.486 -0.859
vn -0.000 -0.485 -0.875
vn -0.160 -0.486 -0.859
vn -0.316 -0.488 -0.814
vn -0.463 -0.492 -0.738
vn -0.594 -0.496 -0.633
vn -0.705 -0.501 -0.502
vn -0.790 -0.505 -0.349
vn -0.843 -0.508 -0.179
vn -0.858 -0.507 -0.090
vn 0.937 -0.334 -0.098
vn 0.922 -0.335 -0.195
vn 0.863 -0.333 -0.381
vn 0.769 -0.330 -0.548
vn 0.647 -0.326 -0.689
vn 0.503 -0.323 -0.802
vn 0.343 -0.320 -0.883
vn 0.174 -0.318 -0.932
vn -0.000 -0.317 -0.948
vn -0.174 -0.318 -0.932
vn -0.343 -0.320 -0.883
vn -0.503 -0.323 -0.802
vn -0.647 -0.326 -0.689
vn -0.769 -0.330 -0.548
vn -0.863 -0.333 -0.381
vn -0.922 -0.335 -0.195
vn -0.937 -0.334 -0.098
vn 0.948 -0.301 -0.100
vn 0.934 -0.297 -0.198
vn 0.878 -0.281 -0.388
vn 0.787 -0.257 -0.561
vn 0.666 -0.229 -0.710
vn 0.520 -0.201 -0.830
vn 0.356 -0.178 -0.917
vn 0.181 -0.162 -0.970
vn -0.000 -0.157 -0.988
vn -0.181 -0.162 -0.970
vn -0.356 -0.178 -0.917
vn -0.520 -0.201 -0.830
vn -0.666 -0.229 -0.710
vn -0.787 -0.257 -0.561
vn -0.878 -0.281 -0.388
vn -0.934 -0.297 -0.198
vn -0.948 -0.301 -0.100
vn 0.984 -0.139 -0.112
vn 0.966 -0.134 -0.223
vn 0.895 -0.117 -0.430
vn 0.787 -0.092 -0.610
vn 0.652 -0.065 -0.755
vn 0.499 -0.039 -0.866
vn 0.337 -0.018 -0.941
vn 0.169 -0.005 -0.986
vn 0.000 0.000 -1.000
vn -0.169 -0.005 -0.986
vn -0.337 -0.018 -0.941
vn -0.499 -0.039 -0.866
vn -0.652 -0.065 -0.755
vn -0.787 -0.092 -0.610
vn -0.895 -0.117 -0.430
vn -0.966 -0.134 -0.223
vn -0.984 -0.139 -0.112
vn 0.977 0.180 -0.112
vn 0.959 0.180 -0.221
vn 0.887 0.177 -0.426
vn 0.779 0.172 -0.603
vn 0.644 0.167 -0.746
vn 0.493 0.163 -0.855
vn 0.332 0.160 -0.930
vn 0.167 0.157 -0.973
vn 0.000 0.157 -0.988
vn -0.167 0.157 -0.973
vn -0.332 0.160 -0.930
vn -0.493 0.163 -0.855
vn -0.644 0.167 -0.746
vn -0.779 0.172 -0.603
vn -0.887 0.177 -0.426
vn -0.959 0.180 -0.221
vn -0.977 0.180 -0.112
vn 0.927 0.359 -0.106
vn 0.909 0.359 -0.210
vn 0.843 0.354 -0.405
vn 0.742 0.346 -0.574
vn 0.615 0.337 -0.713
vn 0.472 0.329 -0.818
vn 0.319 0.323 -0.891
vn 0.160 0.319 -0.934
vn 0.000 0.317 -0.948
vn -0.160 0.319 -0.934
vn -0.319 0.323 -0.891
vn -0.472 0.329 -0.818
vn -0.615 0.337 -0.713
vn -0.742 0.346 -0.574
vn -0.843 0.354 -0.405
vn -0.909 0.359 -0.210
vn -0.927 0.359 -0.106
vn 0.838 0.538 -0.096
vn 0.822 0.538 -0.189
vn 0.764 0.531 -0.367
vn 0.675 0.521 -0.522
vn 0.562 0.510 -0.651
vn 0.433 0.500 -0.750
vn 0.293 0.492 -0.820
vn 0.148 0.487 -0.861
vn 0.000 0.485 -0.875
vn -0.148 0.487 -0.861
vn -0.293 0.492 -0.820
vn -0.433 0.500 -0.750
vn -0.562 0.510 -0.651
vn -0.675 0.521 -0.522
vn -0.764 0.531 -0.367
vn -0.822 0.538 -0.189
vn -0.838 0.538 -0.096
vn 0.701 0.708 -0.080
vn 0.688 0.708 -0.159
vn 0.642 0.702 -0.308
vn 0.570 0.693 -0.442
vn 0.478 0.682 -0.554
vn 0.370 0.672 -0.641
vn 0.252 0.664 -0.704
vn 0.127 0.659 -0.741
vn 0.000 0.657 -0.754
vn -0.127 0.659 -0.741
vn -0.252 0.664 -0.704
vn -0.370 0.672 -0.641
vn -0.478 0.682 -0.554
vn -0.570 0.693 -0.442
vn -0.642 0.702 -0.308
vn -0.688 0.708 -0.159
vn -0.701 0.708 -0.080
vn 0.512 0.857 -0.058
vn 0.503 0.857 -0.116
vn 0.471 0.853 -0.226
vn 0.421 0.846 -0.326
vn 0.355 0.839 -0.411
vn 0.277 0.833 -0.480
vn 0.189 0.827 -0.529
vn 0.096 0.823 -0.560
vn 0.000 0.822 -0.570
vn -0.096 0.823 -0.560
vn -0.189 0.827 -0.529
vn -0.277 0.833 -0.480
vn -0.355 0.839 -0.411
vn -0.421 0.846 -0.326
vn -0.471 0.853 -0.226
vn -0.503 0.857 -0.116
vn -0.512 0.857 -0.058
vn 0.273 0.962 -0.031
vn 0.267 0.962 -0.062
vn 0.252 0.960 -0.121
vn 0.226 0.958 -0.175
vn 0.192 0.956 -0.222
vn 0.150 0.954 -0.260
vn 0.103 0.952 -0.289
vn 0.053 0.951 -0.306
vn 0.000 0.950 -0.312
vn -0.053 0.951 -0.306
vn -0.103 0.952 -0.289
vn -0.150 0.954 -0.260
vn -0.192 0.956 -0.222
vn -0.226 0.958 -0.175
vn -0.252 0.960 -0.121
vn -0.267 0.962 -0.062
vn -0.273 0.962 -0.031
vn 0.273 0.962 -0.031
vn 0.267 0.962 -0.062
vn 0.252 0.960 -0.121
vn 0.226 0.958 -0.175
vn 0.192 0.956 -0.222
vn 0.150 0.954 -0.260
vn 0.103 0.952 -0.289
vn 0.053 0.951 -0.306
vn 0.000 0.950 -0.312
vn -0.053 0.951 -0.306
vn -0.103 0.952 -0.289
vn -0.150 0.954 -0.260
vn -0.192 0.956 -0.222
vn -0.226 0.958 -0.175
vn -0.252 0.960 -0.121
vn -0.267 0.962 -0.062
vn -0.273 0.962 -0.031
v -0.0000 -0.1180 -0.0000
v -0.0000 -0.1180 0.0000
v -0.0000 -0.1180 0.0000
v -0.0000 -0.1180 0.0000
v -0.0000 -0.1180 0.0000
v -0.0000 -0.1180 0.0000
v -0.0000 -0.1180 0.0000
v -0.0000 -0.1180 0.0000
v -0.0000 -0.1180 0.0000
v 0.0000 -0.1180 0.0000
v 0.0000 -0.1180 0.0000
v 0.0000 -0.1180 0.0000
v 0.0000 -0.1180 0.0000
v 0.0000 -0.1180 0.0000
v 0.0000 -0.1180 0.0000
v 0.0000 -0.1180 0.0000
v 0.0000 -0.1180 0.0000
v -0.0194 -0.1150 -0.0000
v -0.0191 -0.1150 0.0043
v -0.0180 -0.1150 0.0085
v -0.0162 -0.1150 0.0124
v -0.0138 -0.1150 0.0157
v -0.0108 -0.1150 0.0185
v -0.0074 -0.1150 0.0206
v -0.0038 -0.1150 0.0218
v -0.0000 -0.1150 0.0223
v 0.0038 -0.1150 0.0218
v 0.0074 -0.1150 0.0206
v 0.0108 -0.1150 0.0185
v 0.0138 -0.1150 0.0157
v 0.0162 -0.1150 0.0124
v 0.0180 -0.1150 0.0085
v 0.0191 -0.1150 0.0043
v 0.0194 -0.1150 0.0000
v -0.0379 -0.1063 -0.0000
v -0.0372 -0.1063 0.0085
v -0.0350 -0.1063 0.0166
v -0.0315 -0.1063 0.0241
v -0.0268 -0.1063 0.0307
v -0.0211 -0.1063 0.0361
v -0.0145 -0.1063 0.0401
v -0.0074 -0.1063 0.0426
v -0.0000 -0.1063 0.0434
v 0.0074 -0.1063 0.0426
v 0.0145 -0.1063 0.0401
v 0.0211 -0.1063 0.0361
v 0.0268 -0.1063 0.0307
v 0.0315 -0.1063 0.0241
v 0.0350 -0.1063 0.0166
v 0.0372 -0.1063 0.0085
v 0.0379 -0.1063 0.0000
v -0.0545 -0.0923 -0.0000
v -0.0534 -0.0923 0.0122
v -0.0503 -0.0923 0.0239
v -0.0453 -0.0923 0.0346
v -0.0385 -0.0923 0.0441
v -0.0303 -0.0923 0.0518
v -0.0209 -0.0923 0.0576
v -0.0106 -0.0923 0.0612
v -0.0000 -0.0923 0.0623
v 0.0106 -0.0923 0.0612
v 0.0209 -0.0923 0.0576
v 0.0303 -0.0923 0.0518
v 0.0385 -0.0923 0.0441
v 0.0453 -0.0923 0.0346
v 0.0503 -0.0923 0.0239
v 0.0534 -0.0923 0.0122
v 0.0545 -0.0923 0.0000
v -0.0683 -0.0736 -0.0000
v -0.0670 -0.0736 0.0153
v -0.0631 -0.0736 0.0299
v -0.0568 -0.0736 0.0434
v -0.0483 -0.0736 0.0553
v -0.0380 -0.0736 0.0650
v -0.0261 -0.0736 0.0722
v -0.0133 -0.0736 0.0767
v -0.0000 -0.0736 0.0782
v 0.0133 -0.0736 0.0767
v 0.0261 -0.0736 0.0722
v 0.0380 -0.0736 0.0650
v 0.0483 -0.0736 0.0553
v 0.0568 -0.0736 0.0434
v 0.0631 -0.0736 0.0299
v 0.0670 -0.0736 0.0153
v 0.0683 -0.0736 0.0000
v -0.0787 -0.0512 -0.0000
v -0.0772 -0.0512 0.0176
v -0.0728 -0.0512 0.0345
v -0.0655 -0.0512 0.0501
v -0.0557 -0.0512 0.0637
v -0.0437 -0.0512 0.0749
v -0.0301 -0.0512 0.0832
v -0.0154 -0.0512 0.0884
v -0.0000 -0.0512 0.0901
v 0.0154 -0.0512 0.0884
v 0.0301 -0.0512 0.0832
v 0.0437 -0.0512 0.0749
v 0.0557 -0.0512 0.0637
v 0.0655 -0.0512 0.0501
v 0.0728 -0.0512 0.0345
v 0.0772 -0.0512 0.0176
v 0.0787 -0.0512 0.0000
v -0.0852 -0.0263 -0.0000
v -0.0836 -0.0263 0.0190
v -0.0787 -0.0263 0.0373
v -0.0708 -0.0263 0.0542
v -0.0603 -0.0263 0.0689
v -0.0473 -0.0263 0.0811
v -0.0326 -0.0263 0.0901
v -0.0166 -0.0263 0.0956
v -0.0000 -0.0263 0.0975
v 0.0166 -0.0263 0.0956
v 0.0326 -0.0263 0.0901
v 0.0473 -0.0263 0.0811
v 0.0603 -0.0263 0.0689
v 0.0708 -0.0263 0.0542
v 0.0787 -0.0263 0.0373
v 0.0836 -0.0263 0.0190
v 0.0852 -0.0263 0.0000
v -0.0950 0.0000 -0.0000
v -0.0932 0.0000 0.0195
v -0.0878 0.0000 0.0383
v -0.0790 0.0000 0.0556
v -0.0672 0.0000 0.0707
v -0.0528 0.0000 0.0831
v -0.0364 0.0000 0.0924
v -0.0185 0.0000 0.0981
v -0.0000 0.0000 0.1000
v 0.0185 0.0000 0.0981
v 0.0364 0.0000 0.0924
v 0.0528 0.0000 0.0831
v 0.0672 0.0000 0.0707
v 0.0790 0.0000 0.0556
v 0.0878 0.0000 0.0383
v 0.0932 0.0000 0.0195
v 0.0950 0.0000 0.0000
v -0.0926 0.0263 -0.0000
v -0.0908 0.0263 0.0190
v -0.0856 0.0263 0.0373
v -0.0770 0.0263 0.0542
v -0.0655 0.0263 0.0689
v -0.0515 0.0263 0.0811
v -0.0354 0.0263 0.0901
v -0.0181 0.0263 0.0956
v -0.0000 0.0263 0.0975
v 0.0181 0.0263 0.0956
v 0.0354 0.0263 0.0901
v 0.0515 0.0263 0.0811
v 0.0655 0.0263 0.0689
v 0.0770 0.0263 0.0542
v 0.0856 0.0263 0.0373
v 0.0908 0.0263 0.0190
v 0.0926 0.0263 0.0000
v -0.0856 0.0512 -0.0000
v -0.0839 0.0512 0.0176
v -0.0791 0.0512 0.0345
v -0.0712 0.0512 0.0501
v -0.0605 0.0512 0.0637
v -0.0476 0.0512 0.0749
v -0.0328 0.0512 0.0832
v -0.0167 0.0512 0.0884
v -0.0000 0.0512 0.0901
v 0.0167 0.0512 0.0884
v 0.0328 0.0512 0.0832
v 0.0476 0.0512 0.0749
v 0.0605 0.0512 0.0637
v 0.0712 0.0512 0.0501
v 0.0791 0.0512 0.0345
v 0.0839 0.0512 0.0176
v 0.0856 0.0512 0.0000
v -0.0743 0.0736 -0.0000
v -0.0728 0.0736 0.0153
v -0.0686 0.0736 0.0299
v -0.0618 0.0736 0.0434
v -0.0525 0.0736 0.0553
v -0.0413 0.0736 0.0650
v -0.0284 0.0736 0.0722
v -0.0145 0.0736 0.0767
v -0.0000 0.0736 0.0782
v 0.0145 0.0736 0.0767
v 0.0284 0.0736 0.0722
v 0.0413 0.0736 0.0650
v 0.0525 0.0736 0.0553
v 0.0618 0.0736 0.0434
v 0.0686 0.0736 0.0299
v 0.0728 0.0736 0.0153
v 0.0743 0.0736 0.0000
v -0.0592 0.0923 -0.0000
v -0.0581 0.0923 0.0122
v -0.0547 0.0923 0.0239
v -0.0492 0.0923 0.0346
v -0.0419 0.0923 0.0441
v -0.0329 0.0923 0.0518
v -0.0227 0.0923 0.0576
v -0.0116 0.0923 0.0612
v -0.0000 0.0923 0.0623
v 0.0116 0.0923 0.0612
v 0.0227 0.0923 0.0576
v 0.0329 0.0923 0.0518
v 0.0419 0.0923 0.0441
v 0.0492 0.0923 0.0346
v 0.0547 0.0923 0.0239
v 0.0581 0.0923 0.0122
v 0.0592 0.0923 0.0000
v -0.0412 0.1063 -0.0000
v -0.0404 0.1063 0.0085
v -0.0381 0.1063 0.0166
v -0.0343 0.1063 0.0241
v -0.0291 0.1063 0.0307
v -0.0229 0.1063 0.0361
v -0.0158 0.1063 0.0401
v -0.0080 0.1063 0.0426
v -0.0000 0.1063 0.0434
v 0.0080 0.1063 0.0426
v 0.0158 0.1063 0.0401
v 0.0229 0.1063 0.0361
v 0.0291 0.1063 0.0307
v 0.0343 0.1063 0.0241
v 0.0381 0.1063 0.0166
v 0.0404 0.1063 0.0085
v 0.0412 0.1063 0.0000
v -0.0211 0.1150 -0.0000
v -0.0207 0.1150 0.0043
v -0.0195 0.1150 0.0085
v -0.0176 0.1150 0.0124
v -0.0149 0.1150 0.0157
v -0.0117 0.1150 0.0185
v -0.0081 0.1150 0.0206
v -0.0041 0.1150 0.0218
v -0.0000 0.1150 0.0223
v 0.0041 0.1150 0.0218
v 0.0081 0.1150 0.0206
v 0.0117 0.1150 0.0185
v 0.0149 0.1150 0.0157
v 0.0176 0.1150 0.0124
v 0.0195 0.1150 0.0085
v 0.0207 0.1150 0.0043
v 0.0211 0.1150 0.0000
v -0.0000 0.1180 -0.0000
v -0.0000 0.1180 0.0000
v -0.0000 0.1180 0.0000
v -0.0000 0.1180 0.0000
v -0.0000 0.1180 0.0000
v -0.0000 0.1180 0.0000
v -0.0000 0.1180 0.0000
v -0.0000 0.1180 0.0000
v -0.0000 0.1180 0.0000
v 0.0000 0.1180 0.0000
v 0.0000 0.1180 0.0000
v 0.0000 0.1180 0.0000
v 0.0000 0.1180 0.0000
v 0.0000 0.1180 0.0000
v 0.0000 0.1180 0.0000
v 0.0000 0.1180 0.0000
v 0.0000 0.1180 0.0000
vt 0.0000 0.0000
vt 0.0196 0.0000
vt 0.0391 0.0000
vt 0.0585 0.0000
vt 0.0777 0.0000
vt 0.0967 0.0000
vt 0.1156 0.0000
vt 0.1343 0.0000
vt 0.1529 0.0000
vt 0.1716 0.0000
vt 0.1903 0.0000
vt 0.2091 0.0000
vt 0.2281 0.0000
vt 0.2474 0.0000
vt 0.2667 0.0000
vt 0.2863 0.0000
vt 0.3059 0.0000
vt 0.0000 0.0224
vt 0.0196 0.0224
vt 0.0391 0.0224
vt 0.0585 0.0224
vt 0.0777 0.0224
vt 0.0967 0.0224
vt 0.1156 0.0224
vt 0.1343 0.0224
vt 0.1529 0.0224
vt 0.1716 0.0224
vt 0.1903 0.0224
vt 0.2091 0.0224
vt 0.2281 0.0224
vt 0.2474 0.0224
vt 0.2667 0.0224
vt 0.2863 0.0224
vt 0.3059 0.0224
vt 0.0000 0.0453
vt 0.0196 0.0453
vt 0.0391 0.0453
vt 0.0585 0.0453
vt 0.0777 0.0453
vt 0.0967 0.0453
vt 0.1156 0.0453
vt 0.1343 0.0453
vt 0.1529 0.0453
vt 0.1716 0.0453
vt 0.1903 0.0453
vt 0.2091 0.0453
vt 0.2281 0.0453
vt 0.2474 0.0453
vt 0.2667 0.0453
vt 0.2863 0.0453
vt 0.3059 0.0453
vt 0.0000 0.0689
vt 0.0196 0.0689
vt 0.0391 0.0689
vt 0.0585 0.0689
vt 0.0777 0.0689
vt 0.0967 0.0689
vt 0.1156 0.0689
vt 0.1343 0.0689
vt 0.1529 0.0689
vt 0.1716 0.0689
vt 0.1903 0.0689
vt 0.2091 0.0689
vt 0.2281 0.0689
vt 0.2474 0.0689
vt 0.2667 0.0689
vt 0.2863 0.0689
vt 0.3059 0.0689
vt 0.0000 0.0934
vt 0.0196 0.0934
vt 0.0391 0.0934
vt 0.0585 0.0934
vt 0.0777 0.0934
vt 0.0967 0.0934
vt 0.1156 0.0934
vt 0.1343 0.0934
vt 0.1529 0.0934
vt 0.1716 0.0934
vt 0.1903 0.0934
vt 0.2091 0.0934
vt 0.2281 0.0934
vt 0.2474 0.0934
vt 0.2667 0.0934
vt 0.2863 0.0934
vt 0.3059 0.0934
vt 0.0000 0.1188
vt 0.0196 0.1188
vt 0.0391 0.1188
vt 0.0585 0.1188
vt 0.0777 0.1188
vt 0.0967 0.1188
vt 0.1156 0.1188
vt 0.1343 0.1188
vt 0.1529 0.1188
vt 0.1716 0.1188
vt 0.1903 0.1188
vt 0.2091 0.1188
vt 0.2281 0.1188
vt 0.2474 0.1188
vt 0.2667 0.1188
vt 0.2863 0.1188
vt 0.3059 0.1188
vt 0.0000 0.1448
vt 0.0196 0.1448
vt 0.0391 0.1448
vt 0.0585 0.1448
vt 0.0777 0.1448
vt 0.0967 0.1448
vt 0.1156 0.1448
vt 0.1343 0.1448
vt 0.1529 0.1448
vt 0.1716 0.1448
vt 0.1903 0.1448
vt 0.2091 0.1448
vt 0.2281 0.1448
vt 0.2474 0.1448
vt 0.2667 0.1448
vt 0.2863 0.1448
vt 0.3059 0.1448
vt 0.0000 0.1711
vt 0.0196 0.1711
vt 0.0391 0.1711
vt 0.0585 0.1711
vt 0.0777 0.1711
vt 0.0967 0.1711
vt 0.1156 0.1711
vt 0.1343 0.1711
vt 0.1529 0.1711
vt 0.1716 0.1711
vt 0.1903 0.1711
vt 0.2091 0.1711
vt 0.2281 0.1711
vt 0.2474 0.1711
vt 0.2667 0.1711
vt 0.2863 0.1711
vt 0.3059 0.1711
vt 0.0000 0.1975
vt 0.0196 0.1975
vt 0.0391 0.1975
vt 0.0585 0.1975
vt 0.0777 0.1975
vt 0.0967 0.1975
vt 0.1156 0.1975
vt 0.1343 0.1975
vt 0.1529 0.1975
vt 0.1716 0.1975
vt 0.1903 0.1975
vt 0.2091 0.1975
vt 0.2281 0.1975
vt 0.2474 0.1975
vt 0.2667 0.1975
vt 0.2863 0.1975
vt 0.3059 0.1975
vt 0.0000 0.2235
vt 0.0196 0.2235
vt 0.0391 0.2235
vt 0.0585 0.2235
vt 0.0777 0.2235
vt 0.0967 0.2235
vt 0.1156 0.2235
vt 0.1343 0.2235
vt 0.1529 0.2235
vt 0.1716 0.2235
vt 0.1903 0.2235
vt 0.2091 0.2235
vt 0.2281 0.2235
vt 0.2474 0.2235
vt 0.2667 0.2235
vt 0.2863 0.2235
vt 0.3059 0.2235
vt 0.0000 0.2489
vt 0.0196 0.2489
vt 0.0391 0.2489
vt 0.0585 0.2489
vt 0.0777 0.2489
vt 0.0967 0.2489
vt 0.1156 0.2489
vt 0.1343 0.2489
vt 0.1529 0.2489
vt 0.1716 0.2489
vt 0.1903 0.2489
vt 0.2091 0.2489
vt 0.2281 0.2489
vt 0.2474 0.2489
vt 0.2667 0.2489
vt 0.2863 0.2489
vt 0.3059 0.2489
vt 0.0000 0.2734
vt 0.0196 0.2734
vt 0.0391 0.2734
vt 0.0585 0.2734
vt 0.0777 0.2734
vt 0.0967 0.2734
vt 0.1156 0.2734
vt 0.1343 0.2734
vt 0.1529 0.2734
vt 0.1716 0.2734
vt 0.1903 0.2734
vt 0.2091 0.2734
vt 0.2281 0.2734
vt 0.2474 0.2734
vt 0.2667 0.2734
vt 0.2863 0.2734
vt 0.3059 0.2734
vt 0.0000 0.2970
vt 0.0196 0.2970
vt 0.0391 0.2970
vt 0.0585 0.2970
vt 0.0777 0.2970
vt 0.0967 0.2970
vt 0.1156 0.2970
vt 0.1343 0.2970
vt 0.1529 0.2970
vt 0.1716 0.2970
vt 0.1903 0.2970
vt 0.2091 0.2970
vt 0.2281 0.2970
vt 0.2474 0.2970
vt 0.2667 0.2970
vt 0.2863 0.2970
vt 0.3059 0.2970
vt 0.0000 0.3199
vt 0.0196 0.3199
vt 0.0391 0.3199
vt 0.0585 0.3199
vt 0.0777 0.3199
vt 0.0967 0.3199
vt 0.1156 0.3199
vt 0.1343 0.3199
vt 0.1529 0.3199
vt 0.1716 0.3199
vt 0.1903 0.3199
vt 0.2091 0.3199
vt 0.2281 0.3199
vt 0.2474 0.3199
vt 0.2667 0.3199
vt 0.2863 0.3199
vt 0.3059 0.3199
vt 0.0000 0.3423
vt 0.0196 0.3423
vt 0.0391 0.3423
vt 0.0585 0.3423
vt 0.0777 0.3423
vt 0.0967 0.3423
vt 0.1156 0.3423
vt 0.1343 0.3423
vt 0.1529 0.3423
vt 0.1716 0.3423
vt 0.1903 0.3423
vt 0.2091 0.3423
vt 0.2281 0.3423
vt 0.2474 0.3423
vt 0.2667 0.3423
vt 0.2863 0.3423
vt 0.3059 0.3423
vn -0.294 -0.955 0.025
vn -0.289 -0.956 0.050
vn -0.272 -0.957 0.099
vn -0.246 -0.959 0.143
vn -0.209 -0.961 0.183
vn -0.165 -0.962 0.216
vn -0.114 -0.964 0.240
vn -0.058 -0.965 0.255
vn -0.000 -0.966 0.260
vn 0.058 -0.965 0.255
vn 0.114 -0.964 0.240
vn 0.165 -0.962 0.216
vn 0.209 -0.961 0.183
vn 0.246 -0.959 0.143
vn 0.272 -0.957 0.099
vn 0.289 -0.956 0.050
vn 0.294 -0.955 0.025
vn -0.294 -0.955 0.025
vn -0.289 -0.956 0.050
vn -0.272 -0.957 0.099
vn -0.246 -0.959 0.143
vn -0.209 -0.961 0.183
vn -0.165 -0.962 0.216
vn -0.114 -0.964 0.240
vn -0.058 -0.965 0.255
vn -0.000 -0.966 0.260
vn 0.058 -0.965 0.255
vn 0.114 -0.964 0.240
vn 0.165 -0.962 0.216
vn 0.209 -0.961 0.183
vn 0.246 -0.959 0.143
vn 0.272 -0.957 0.099
vn 0.289 -0.956 0.050
vn 0.294 -0.955 0.025
vn -0.544 -0.837 0.047
vn -0.535 -0.839 0.093
vn -0.506 -0.843 0.183
vn -0.458 -0.848 0.268
vn -0.392 -0.853 0.343
vn -0.310 -0.859 0.406
vn -0.215 -0.865 0.454
vn -0.110 -0.868 0.484
vn 0.000 -0.869 0.494
vn 0.110 -0.868 0.484
vn 0.215 -0.865 0.454
vn 0.310 -0.859 0.406
vn 0.392 -0.853 0.343
vn 0.458 -0.848 0.268
vn 0.506 -0.843 0.183
vn 0.535 -0.839 0.093
vn 0.544 -0.837 0.047
vn -0.731 -0.679 0.063
vn -0.720 -0.682 0.125
vn -0.683 -0.687 0.247
vn -0.622 -0.694 0.363
vn -0.535 -0.703 0.468
vn -0.426 -0.712 0.557
vn -0.297 -0.721 0.627
vn -0.153 -0.726 0.670
vn -0.000 -0.728 0.685
vn 0.153 -0.726 0.670
vn 0.297 -0.721 0.627
vn 0.426 -0.712 0.557
vn 0.535 -0.703 0.468
vn 0.622 -0.694 0.363
vn 0.683 -0.687 0.247
vn 0.720 -0.682 0.125
vn 0.731 -0.679 0.063
vn -0.859 -0.507 0.074
vn -0.847 -0.510 0.147
vn -0.806 -0.515 0.292
vn -0.736 -0.523 0.430
vn -0.637 -0.532 0.557
vn -0.510 -0.542 0.667
vn -0.357 -0.551 0.754
vn -0.184 -0.558 0.809
vn 0.000 -0.560 0.829
vn 0.184 -0.558 0.809
vn 0.357 -0.551 0.754
vn 0.510 -0.542 0.667
vn 0.637 -0.532 0.557
vn 0.736 -0.523 0.430
vn 0.806 -0.515 0.292
vn 0.847 -0.510 0.147
vn 0.859 -0.507 0.074
vn -0.939 -0.335 0.081
vn -0.927 -0.337 0.161
vn -0.884 -0.341 0.320
vn -0.810 -0.347 0.473
vn -0.704 -0.355 0.615
vn -0.566 -0.363 0.740
vn -0.398 -0.371 0.839
vn -0.206 -0.376 0.904
vn -0.000 -0.378 0.926
vn 0.206 -0.376 0.904
vn 0.398 -0.371 0.839
vn 0.566 -0.363 0.740
vn 0.704 -0.355 0.615
vn 0.810 -0.347 0.473
vn 0.884 -0.341 0.320
vn 0.927 -0.337 0.161
vn 0.939 -0.335 0.081
vn -0.950 -0.302 0.082
vn -0.940 -0.299 0.163
vn -0.900 -0.288 0.326
vn -0.831 -0.272 0.485
vn -0.729 -0.251 0.637
vn -0.591 -0.229 0.773
vn -0.419 -0.209 0.884
vn -0.218 -0.195 0.956
vn 0.000 -0.190 0.982
vn 0.218 -0.195 0.956
vn 0.419 -0.209 0.884
vn 0.591 -0.229 0.773
vn 0.729 -0.251 0.637
vn 0.831 -0.272 0.485
vn 0.900 -0.288 0.326
vn 0.940 -0.299 0.163
vn 0.950 -0.302 0.082
vn -0.986 -0.139 0.092
vn -0.974 -0.135 0.184
vn -0.924 -0.120 0.364
vn -0.840 -0.099 0.533
vn -0.723 -0.072 0.687
vn -0.575 -0.045 0.817
vn -0.400 -0.022 0.916
vn -0.205 -0.006 0.979
vn -0.000 -0.000 1.000
vn 0.205 -0.006 0.979
vn 0.400 -0.022 0.916
vn 0.575 -0.045 0.817
vn 0.723 -0.072 0.687
vn 0.840 -0.099 0.533
vn 0.924 -0.120 0.364
vn 0.974 -0.135 0.184
vn 0.986 -0.139 0.092
vn -0.979 0.180 0.092
vn -0.966 0.181 0.183
vn -0.915 0.182 0.360
vn -0.830 0.183 0.527
vn -0.712 0.185 0.677
vn -0.565 0.187 0.804
vn -0.393 0.188 0.900
vn -0.201 0.190 0.961
vn -0.000 0.190 0.982
vn 0.201 0.190 0.961
vn 0.393 0.188 0.900
vn 0.565 0.187 0.804
vn 0.712 0.185 0.677
vn 0.830 0.183 0.527
vn 0.915 0.182 0.360
vn 0.966 0.181 0.183
vn 0.979 0.180 0.092
vn -0.929 0.360 0.087
vn -0.916 0.362 0.173
vn -0.867 0.364 0.341
vn -0.786 0.366 0.499
vn -0.674 0.369 0.640
vn -0.534 0.373 0.759
vn -0.370 0.375 0.850
vn -0.190 0.377 0.906
vn -0.000 0.378 0.926
vn 0.190 0.377 0.906
vn 0.370 0.375 0.850
vn 0.534 0.373 0.759
vn 0.674 0.369 0.640
vn 0.786 0.366 0.499
vn 0.867 0.364 0.341
vn 0.916 0.362 0.173
vn 0.929 0.360 0.087
vn -0.839 0.539 0.078
vn -0.826 0.541 0.156
vn -0.781 0.543 0.307
vn -0.707 0.546 0.449
vn -0.606 0.550 0.575
vn -0.479 0.554 0.681
vn -0.332 0.557 0.761
vn -0.170 0.559 0.811
vn -0.000 0.560 0.829
vn 0.170 0.559 0.811
vn 0.332 0.557 0.761
vn 0.479 0.554 0.681
vn 0.606 0.550 0.575
vn 0.707 0.546 0.449
vn 0.781 0.543 0.307
vn 0.826 0.541 0.156
vn 0.839 0.539 0.078
vn -0.702 0.709 0.066
vn -0.691 0.711 0.131
vn -0.652 0.713 0.257
vn -0.590 0.716 0.374
vn -0.504 0.719 0.479
vn -0.398 0.723 0.565
vn -0.275 0.726 0.631
vn -0.141 0.728 0.671
vn -0.000 0.728 0.685
vn 0.141 0.728 0.671
vn 0.275 0.726 0.631
vn 0.398 0.723 0.565
vn 0.504 0.719 0.479
vn 0.590 0.716 0.374
vn 0.652 0.713 0.257
vn 0.691 0.711 0.131
vn 0.702 0.709 0.066
vn -0.513 0.857 0.048
vn -0.504 0.859 0.095
vn -0.475 0.860 0.187
vn -0.429 0.862 0.272
vn -0.365 0.864 0.347
vn -0.288 0.866 0.409
vn -0.199 0.868 0.456
vn -0.101 0.869 0.484
vn -0.000 0.869 0.494
vn 0.101 0.869 0.484
vn 0.199 0.868 0.456
vn 0.288 0.866 0.409
vn 0.365 0.864 0.347
vn 0.429 0.862 0.272
vn 0.475 0.860 0.187
vn 0.504 0.859 0.095
vn 0.513 0.857 0.048
vn -0.273 0.962 0.026
vn -0.268 0.962 0.051
vn -0.252 0.963 0.099
vn -0.227 0.963 0.144
vn -0.193 0.964 0.184
vn -0.152 0.965 0.216
vn -0.105 0.965 0.240
vn -0.053 0.965 0.255
vn -0.000 0.966 0.260
vn 0.053 0.965 0.255
vn 0.105 0.965 0.240
vn 0.152 0.965 0.216
vn 0.193 0.964 0.184
vn 0.227 0.963 0.144
vn 0.252 0.963 0.099
vn 0.268 0.962 0.051
vn 0.273 0.962 0.026
vn -0.273 0.962 0.026
vn -0.268 0.962 0.051
vn -0.252 0.963 0.099
vn -0.227 0.963 0.144
vn -0.193 0.964 0.184
vn -0.152 0.965 0.216
vn -0.105 0.965 0.240
vn -0.053 0.965 0.255
vn -0.000 0.966 0.260
vn 0.053 0.965 0.255
vn 0.105 0.965 0.240
vn 0.152 0.965 0.216
vn 0.193 0.964 0.184
vn 0.227 0.963 0.144
vn 0.252 0.963 0.099
vn 0.268 0.962 0.051
vn 0.273 0.962 0.026
v 0.0160 -0.2000 0.0100
v 0.0080 -0.2000 -0.0039
v -0.0080 -0.2000 -0.0039
v -0.0160 -0.2000 0.0100
v -0.0080 -0.2000 0.0239
v 0.0080 -0.2000 0.0239
v 0.0160 -0.2000 0.0100
v 0.0160 -0.0900 0.0100
v 0.0080 -0.0900 -0.0039
v -0.0080 -0.0900 -0.0039
v -0.0160 -0.0900 0.0100
v -0.0080 -0.0900 0.0239
v 0.0080 -0.0900 0.0239
v 0.0160 -0.0900 0.0100
v 0.0000 -0.2000 0.0100
v 0.0160 -0.2000 0.0100
v 0.0080 -0.2000 -0.0039
v -0.0080 -0.2000 -0.0039
v -0.0160 -0.2000 0.0100
v -0.0080 -0.2000 0.0239
v 0.0080 -0.2000 0.0239
v 0.0000 -0.0900 0.0100
v 0.0160 -0.0900 0.0100
v 0.0080 -0.0900 -0.0039
v -0.0080 -0.0900 -0.0039
v -0.0160 -0.0900 0.0100
v -0.0080 -0.0900 0.0239
v 0.0080 -0.0900 0.0239
vt 0.0000 0.0000
vt 0.0000 0.0168
vt 0.0000 0.0335
vt 0.0000 0.0503
vt 0.0000 0.0670
vt 0.0000 0.0838
vt 0.0000 0.1005
vt 0.1100 0.0000
vt 0.1100 0.0168
vt 0.1100 0.0335
vt 0.1100 0.0503
vt 0.1100 0.0670
vt 0.1100 0.0838
vt 0.1100 0.1005
vt 0.0000 0.0000
vt 0.0160 0.0000
vt 0.0080 0.0139
vt -0.0080 0.0139
vt -0.0160 0.0000
vt -0.0080 -0.0139
vt 0.0080 -0.0139
vt 0.0000 0.0000
vt 0.0160 0.0000
vt 0.0080 0.0139
vt -0.0080 0.0139
vt -0.0160 0.0000
vt -0.0080 -0.0139
vt 0.0080 -0.0139
vn 1.000 0.000 0.000
vn 0.500 0.000 -0.866
vn -0.500 0.000 -0.866
vn -1.000 0.000 -0.000
vn -0.500 0.000 0.866
vn 0.500 -0.000 0.866
vn 1.000 -0.000 0.000
vn 1.000 0.000 0.000
vn 0.500 0.000 -0.866
vn -0.500 0.000 -0.866
vn -1.000 0.000 -0.000
vn -0.500 0.000 0.866
vn 0.500 -0.000 0.866
vn 1.000 -0.000 0.000
vn -0.000 -1.000 -0.000
vn -0.000 -1.000 -0.000
vn -0.000 -1.000 -0.000
vn -0.000 -1.000 -0.000
vn -0.000 -1.000 -0.000
vn -0.000 -1.000 -0.000
vn -0.000 -1.000 -0.000
vn 0.000 1.000 0.000
vn 0.000 1.000 0.000
vn 0.000 1.000 0.000
vn 0.000 1.000 0.000
vn 0.000 1.000 0.000
vn 0.000 1.000 0.000
vn 0.000 1.000 0.000
v 0.0350 -0.2000 -0.0000
v 0.0550 -0.1750 -0.0000
v 0.0500 -0.1600 -0.0000
v 0.0300 -0.1500 -0.0000
v 0.0283 -0.2000 -0.0206
v 0.0445 -0.1750 -0.0323
v 0.0405 -0.1600 -0.0294
v 0.0243 -0.1500 -0.0176
v 0.0108 -0.2000 -0.0333
v 0.0170 -0.1750 -0.0523
v 0.0155 -0.1600 -0.0476
v 0.0093 -0.1500 -0.0285
v -0.0108 -0.2000 -0.0333
v -0.0170 -0.1750 -0.0523
v -0.0155 -0.1600 -0.0476
v -0.0093 -0.1500 -0.0285
v -0.0283 -0.2000 -0.0206
v -0.0445 -0.1750 -0.0323
v -0.0405 -0.1600 -0.0294
v -0.0243 -0.1500 -0.0176
v -0.0350 -0.2000 -0.0000
v -0.0550 -0.1750 -0.0000
v -0.0500 -0.1600 -0.0000
v -0.0300 -0.1500 -0.0000
v -0.0283 -0.2000 0.0206
v -0.0445 -0.1750 0.0323
v -0.0405 -0.1600 0.0294
v -0.0243 -0.1500 0.0176
v -0.0108 -0.2000 0.0333
v -0.0170 -0.1750 0.0523
v -0.0155 -0.1600 0.0476
v -0.0093 -0.1500 0.0285
v 0.0108 -0.2000 0.0333
v 0.0170 -0.1750 0.0523
v 0.0155 -0.1600 0.0476
v 0.0093 -0.1500 0.0285
v 0.0283 -0.2000 0.0206
v 0.0445 -0.1750 0.0323
v 0.0405 -0.1600 0.0294
v 0.0243 -0.1500 0.0176
v 0.0350 -0.2000 0.0000
v 0.0550 -0.1750 0.0000
v 0.0500 -0.1600 0.0000
v 0.0300 -0.1500 0.0000
vt 0.0000 0.0000
vt 0.0000 0.0320
vt 0.0000 0.0478
vt 0.0000 0.0702
vt 0.0346 0.0000
vt 0.0346 0.0320
vt 0.0346 0.0478
vt 0.0346 0.0702
vt 0.0691 0.0000
vt 0.0691 0.0320
vt 0.0691 0.0478
vt 0.0691 0.0702
vt 0.1037 0.0000
vt 0.1037 0.0320
vt 0.1037 0.0478
vt 0.1037 0.0702
vt 0.1382 0.0000
vt 0.1382 0.0320
vt 0.1382 0.0478
vt 0.1382 0.0702
vt 0.1728 0.0000
vt 0.1728 0.0320
vt 0.1728 0.0478
vt 0.1728 0.0702
vt 0.2073 0.0000
vt 0.2073 0.0320
vt 0.2073 0.0478
vt 0.2073 0.0702
vt 0.2419 0.0000
vt 0.2419 0.0320
vt 0.2419 0.0478
vt 0.2419 0.0702
vt 0.2765 0.0000
vt 0.2765 0.0320
vt 0.2765 0.0478
vt 0.2765 0.0702
vt 0.3110 0.0000
vt 0.3110 0.0320
vt 0.3110 0.0478
vt 0.3110 0.0702
vt 0.3456 0.0000
vt 0.3456 0.0320
vt 0.3456 0.0478
vt 0.3456 0.0702
vn 0.781 -0.625 -0.000
vn 0.936 -0.351 -0.000
vn 0.707 0.707 -0.000
vn 0.447 0.894 -0.000
vn 0.632 -0.625 -0.459
vn 0.758 -0.351 -0.550
vn 0.572 0.707 -0.416
vn 0.362 0.894 -0.263
vn 0.241 -0.625 -0.743
vn 0.289 -0.351 -0.891
vn 0.219 0.707 -0.672
vn 0.138 0.894 -0.425
vn -0.241 -0.625 -0.743
vn -0.289 -0.351 -0.891
vn -0.219 0.707 -0.672
vn -0.138 0.894 -0.425
vn -0.632 -0.625 -0.459
vn -0.758 -0.351 -0.550
vn -0.572 0.707 -0.416
vn -0.362 0.894 -0.263
vn -0.781 -0.625 -0.000
vn -0.936 -0.351 -0.000
vn -0.707 0.707 -0.000
vn -0.447 0.894 -0.000
vn -0.632 -0.625 0.459
vn -0.758 -0.351 0.550
vn -0.572 0.707 0.416
vn -0.362 0.894 0.263
vn -0.241 -0.625 0.743
vn -0.289 -0.351 0.891
vn -0.219 0.707 0.672
vn -0.138 0.894 0.425
vn 0.241 -0.625 0.743
vn 0.289 -0.351 0.891
vn 0.219 0.707 0.672
vn 0.138 0.894 0.425
vn 0.632 -0.625 0.459
vn 0.758 -0.351 0.550
vn 0.572 0.707 0.416
vn 0.362 0.894 0.263
vn 0.781 -0.625 0.000
vn 0.936 -0.351 0.000
vn 0.707 0.707 0.000
vn 0.447 0.894 0.000
v -0.0930 -0.0350 0.0100
v -0.0930 -0.0350 0.0100
v -0.0930 -0.0350 0.0100
v -0.0930 -0.0350 0.0100
v -0.0930 -0.0350 0.0100
v -0.0930 -0.0350 0.0100
v -0.0930 -0.0350 0.0100
v -0.0930 -0.0262 0.0256
v -0.0881 -0.0262 0.0178
v -0.0881 -0.0262 0.0022
v -0.0930 -0.0262 -0.0056
v -0.0979 -0.0262 0.0022
v -0.0979 -0.0262 0.0178
v -0.0930 -0.0262 0.0256
v -0.0930 -0.0050 0.0320
v -0.0861 -0.0050 0.0210
v -0.0861 -0.0050 -0.0010
v -0.0930 -0.0050 -0.0120
v -0.0999 -0.0050 -0.0010
v -0.0999 -0.0050 0.0210
v -0.0930 -0.0050 0.0320
v -0.0930 0.0162 0.0256
v -0.0881 0.0162 0.0178
v -0.0881 0.0162 0.0022
v -0.0930 0.0162 -0.0056
v -0.0979 0.0162 0.0022
v -0.0979 0.0162 0.0178
v -0.0930 0.0162 0.0256
v -0.0930 0.0250 0.0100
v -0.0930 0.0250 0.0100
v -0.0930 0.0250 0.0100
v -0.0930 0.0250 0.0100
v -0.0930 0.0250 0.0100
v -0.0930 0.0250 0.0100
v -0.0930 0.0250 0.0100
v 0.0930 -0.0350 0.0100
v 0.0930 -0.0350 0.0100
v 0.0930 -0.0350 0.0100
v 0.0930 -0.0350 0.0100
v 0.0930 -0.0350 0.0100
v 0.0930 -0.0350 0.0100
v 0.0930 -0.0350 0.0100
v 0.0930 -0.0262 0.0256
v 0.0979 -0.0262 0.0178
v 0.0979 -0.0262 0.0022
v 0.0930 -0.0262 -0.0056
v 0.0881 -0.0262 0.0022
v 0.0881 -0.0262 0.0178
v 0.0930 -0.0262 0.0256
v 0.0930 -0.0050 0.0320
v 0.0999 -0.0050 0.0210
v 0.0999 -0.0050 -0.0010
v 0.0930 -0.0050 -0.0120
v 0.0861 -0.0050 -0.0010
v 0.0861 -0.0050 0.0210
v 0.0930 -0.0050 0.0320
v 0.0930 0.0162 0.0256
v 0.0979 0.0162 0.0178
v 0.0979 0.0162 0.0022
v 0.0930 0.0162 -0.0056
v 0.0881 0.0162 0.0022
v 0.0881 0.0162 0.0178
v 0.0930 0.0162 0.0256
v 0.0930 0.0250 0.0100
v 0.0930 0.0250 0.0100
v 0.0930 0.0250 0.0100
v 0.0930 0.0250 0.0100
v 0.0930 0.0250 0.0100
v 0.0930 0.0250 0.0100
v 0.0930 0.0250 0.0100
vt 0.0000 0.0000
vt 0.0130 0.0000
vt 0.0350 0.0000
vt 0.0480 0.0000
vt 0.0610 0.0000
vt 0.0830 0.0000
vt 0.0960 0.0000
vt 0.0000 0.0179
vt 0.0130 0.0179
vt 0.0350 0.0179
vt 0.0480 0.0179
vt 0.0610 0.0179
vt 0.0830 0.0179
vt 0.0960 0.0179
vt 0.0000 0.0400
vt 0.0130 0.0400
vt 0.0350 0.0400
vt 0.0480 0.0400
vt 0.0610 0.0400
vt 0.0830 0.0400
vt 0.0960 0.0400
vt 0.0000 0.0622
vt 0.0130 0.0622
vt 0.0350 0.0622
vt 0.0480 0.0622
vt 0.0610 0.0622
vt 0.0830 0.0622
vt 0.0960 0.0622
vt 0.0000 0.0801
vt 0.0130 0.0801
vt 0.0350 0.0801
vt 0.0480 0.0801
vt 0.0610 0.0801
vt 0.0830 0.0801
vt 0.0960 0.0801
vt 0.0000 0.0000
vt 0.0130 0.0000
vt 0.0350 0.0000
vt 0.0480 0.0000
vt 0.0610 0.0000
vt 0.0830 0.0000
vt 0.0960 0.0000
vt 0.0000 0.0179
vt 0.0130 0.0179
vt 0.0350 0.0179
vt 0.0480 0.0179
vt 0.0610 0.0179
vt 0.0830 0.0179
vt 0.0960 0.0179
vt 0.0000 0.0400
vt 0.0130 0.0400
vt 0.0350 0.0400
vt 0.0480 0.0400
vt 0.0610 0.0400
vt 0.0830 0.0400
vt 0.0960 0.0400
vt 0.0000 0.0622
vt 0.0130 0.0622
vt 0.0350 0.0622
vt 0.0480 0.0622
vt 0.0610 0.0622
vt 0.0830 0.0622
vt 0.0960 0.0622
vt 0.0000 0.0801
vt 0.0130 0.0801
vt 0.0350 0.0801
vt 0.0480 0.0801
vt 0.0610 0.0801
vt 0.0830 0.0801
vt 0.0960 0.0801
vn 0.000 -0.591 0.806
vn 0.937 -0.289 0.197
vn 0.937 -0.289 -0.197
vn 0.000 -0.591 -0.806
vn -0.937 -0.289 -0.197
vn -0.937 -0.289 0.197
vn 0.000 -0.591 0.806
vn 0.000 -0.591 0.806
vn 0.937 -0.289 0.197
vn 0.937 -0.289 -0.197
vn 0.000 -0.591 -0.806
vn -0.937 -0.289 -0.197
vn -0.937 -0.289 0.197
vn 0.000 -0.591 0.806
vn 0.000 0.000 1.000
vn 0.979 0.000 0.205
vn 0.979 0.000 -0.205
vn 0.000 0.000 -1.000
vn -0.979 0.000 -0.205
vn -0.979 0.000 0.205
vn 0.000 0.000 1.000
vn 0.000 0.591 0.806
vn 0.937 0.289 0.197
vn 0.937 0.289 -0.197
vn 0.000 0.591 -0.806
vn -0.937 0.289 -0.197
vn -0.937 0.289 0.197
vn 0.000 0.591 0.806
vn 0.000 0.591 0.806
vn 0.937 0.289 0.197
vn 0.937 0.289 -0.197
vn 0.000 0.591 -0.806
vn -0.937 0.289 -0.197
vn -0.937 0.289 0.197
vn 0.000 0.591 0.806
vn 0.000 -0.591 0.806
vn 0.937 -0.289 0.197
vn 0.937 -0.289 -0.197
vn 0.000 -0.591 -0.806
vn -0.937 -0.289 -0.197
vn -0.937 -0.289 0.197
vn 0.000 -0.591 0.806
vn 0.000 -0.591 0.806
vn 0.937 -0.289 0.197
vn 0.937 -0.289 -0.197
vn 0.000 -0.591 -0.806
vn -0.937 -0.289 -0.197
vn -0.937 -0.289 0.197
vn 0.000 -0.591 0.806
vn 0.000 0.000 1.000
vn 0.979 0.000 0.205
vn 0.979 0.000 -0.205
vn 0.000 0.000 -1.000
vn -0.979 0.000 -0.205
vn -0.979 0.000 0.205
vn 0.000 0.000 1.000
vn 0.000 0.591 0.806
vn 0.937 0.289 0.197
vn 0.937 0.289 -0.197
vn 0.000 0.591 -0.806
vn -0.937 0.289 -0.197
vn -0.937 0.289 0.197
vn 0.000 0.591 0.806
vn 0.000 0.591 0.806
vn 0.937 0.289 0.197
vn 0.937 0.289 -0.197
vn 0.000 0.591 -0.806
vn -0.937 0.289 -0.197
vn -0.937 0.289 0.197
vn 0.000 0.591 0.806
usemtl face
f 1/1/1 2/2/2 19/19/19
f 1/1/1 19/19/19 18/18/18
f 2/2/2 3/3/3 20/20/20
f 2/2/2 20/20/20 19/19/19
f 3/3/3 4/4/4 21/21/21
f 3/3/3 21/21/21 20/20/20
f 4/4/4 5/5/5 22/22/22
f 4/4/4 22/22/22 21/21/21
f 5/5/5 6/6/6 23/23/23
f 5/5/5 23/23/23 22/22/22
f 6/6/6 7/7/7 24/24/24
f 6/6/6 24/24/24 23/23/23
f 7/7/7 8/8/8 25/25/25
f 7/7/7 25/25/25 24/24/24
f 8/8/8 9/9/9 26/26/26
f 8/8/8 26/26/26 25/25/25
f 9/9/9 10/10/10 27/27/27
f 9/9/9 27/27/27 26/26/26
f 10/10/10 11/11/11 28/28/28
f 10/10/10 28/28/28 27/27/27
f 11/11/11 12/12/12 29/29/29
f 11/11/11 29/29/29 28/28/28
f 12/12/12 13/13/13 30/30/30
f 12/12/12 30/30/30 29/29/29
f 13/13/13 14/14/14 31/31/31
f 13/13/13 31/31/31 30/30/30
f 14/14/14 15/15/15 32/32/32
f 14/14/14 32/32/32 31/31/31
f 15/15/15 16/16/16 33/33/33
f 15/15/15 33/33/33 32/32/32
f 16/16/16 17/17/17 34/34/34
f 16/16/16 34/34/34 33/33/33
f 18/18/18 19/19/19 36/36/36
f 18/18/18 36/36/36 35/35/35
f 19/19/19 20/20/20 37/37/37
f 19/19/19 37/37/37 36/36/36
f 20/20/20 21/21/21 38/38/38
f 20/20/20 38/38/38 37/37/37
f 21/21/21 22/22/22 39/39/39
f 21/21/21 39/39/39 38/38/38
f 22/22/22 23/23/23 40/40/40
f 22/22/22 40/40/40 39/39/39
f 23/23/23 24/24/24 41/41/41
f 23/23/23 41/41/41 40/40/40
f 24/24/24 25/25/25 42/42/42
f 24/24/24 42/42/42 41/41/41
f 25/25/25 26/26/26 43/43/43
f 25/25/25 43/43/43 42/42/42
f 26/26/26 27/27/27 44/44/44
f 26/26/26 44/44/44 43/43/43
f 27/27/27 28/28/28 45/45/45
f 27/27/27 45/45/45 44/44/44
f 28/28/28 29/29/29 46/46/46
f 28/28/28 46/46/46 45/45/45
f 29/29/29 30/30/30 47/47/47
f 29/29/29 47/47/47 46/46/46
f 30/30/30 31/31/31 48/48/48
f 30/30/30 48/48/48 47/47/47
f 31/31/31 32/32/32 49/49/49
f 31/31/31 49/49/49 48/48/48
f 32/32/32 33/33/33 50/50/50
f 32/32/32 50/50/50 49/49/49
f 33/33/33 34/34/34 51/51/51
f 33/33/33 51/51/51 50/50/50
f 35/35/35 36/36/36 53/53/53
f 35/35/35 53/53/53 52/52/52
f 36/36/36 37/37/37 54/54/54
f 36/36/36 54/54/54 53/53/53
f 37/37/37 38/38/38 55/55/55
f 37/37/37 55/55/55 54/54/54
f 38/38/38 39/39/39 56/56/56
f 38/38/38 56/56/56 55/55/55
f 39/39/39 40/40/40 57/57/57
f 39/39/39 57/57/57 56/56/56
f 40/40/40 41/41/41 58/58/58
f 40/40/40 58/58/58 57/57/57
f 41/41/41 42/42/42 59/59/59
f 41/41/41 59/59/59 58/58/58
f 42/42/42 43/43/43 60/60/60
f 42/42/42 60/60/60 59/59/59
f 43/43/43 44/44/44 61/61/61
f 43/43/43 61/61/61 60/60/60
f 44/44/44 45/45/45 62/62/62
f 44/44/44 62/62/62 61/61/61
f 45/45/45 46/46/46 63/63/63
f 45/45/45 63/63/63 62/62/62
f 46/46/46 47/47/47 64/64/64
f 46/46/46 64/64/64 63/63/63
f 47/47/47 48/48/48 65/65/65
f 47/47/47 65/65/65 64/64/64
f 48/48/48 49/49/49 66/66/66
f 48/48/48 66/66/66 65/65/65
f 49/49/49 50/50/50 67/67/67
f 49/49/49 67/67/67 66/66/66
f 50/50/50 51/51/51 68/68/68
f 50/50/50 68/68/68 67/67/67
f 52/52/52 53/53/53 70/70/70
f 52/52/52 70/70/70 69/69/69
f 53/53/53 54/54/54 71/71/71
f 53/53/53 71/71/71 70/70/70
f 54/54/54 55/55/55 72/72/72
f 54/54/54 72/72/72 71/71/71
f 55/55/55 56/56/56 73/73/73
f 55/55/55 73/73/73 72/72/72
f 56/56/56 57/57/57 74/74/74
f 56/56/56 74/74/74 73/73/73
f 57/57/57 58/58/58 75/75/75
f 57/57/57 75/75/75 74/74/74
f 58/58/58 59/59/59 76/76/76
f 58/58/58 76/76/76 75/75/75
f 59/59/59 60/60/60 77/77/77
f 59/59/59 77/77/77 76/76/76
f 60/60/60 61/61/61 78/78/78
f 60/60/60 78/78/78 77/77/77
f 61/61/61 62/62/62 79/79/79
f 61/61/61 79/79/79 78/78/78
f 62/62/62 63/63/63 80/80/80
f 62/62/62 80/80/80 79/79/79
f 63/63/63 64/64/64 81/81/81
f 63/63/63 81/81/81 80/80/80
f 64/64/64 65/65/65 82/82/82
f 64/64/64 82/82/82 81/81/81
f 65/65/65 66/66/66 83/83/83
f 65/65/65 83/83/83 82/82/82
f 66/66/66 67/67/67 84/84/84
f 66/66/66 84/84/84 83/83/83
f 67/67/67 68/68/68 85/85/85
f 67/67/67 85/85/85 84/84/84
f 69/69/69 70/70/70 87/87/87
f 69/69/69 87/87/87 86/86/86
f 70/70/70 71/71/71 88/88/88
f 70/70/70 88/88/88 87/87/87
f 71/71/71 72/72/72 89/89/89
f 71/71/71 89/89/89 88/88/88
f 72/72/72 73/73/73 90/90/90
f 72/72/72 90/90/90 89/89/89
f 73/73/73 74/74/74 91/91/91
f 73/73/73 91/91/91 90/90/90
f 74/74/74 75/75/75 92/92/92
f 74/74/74 92/92/92 91/91/91
f 75/75/75 76/76/76 93/93/93
f 75/75/75 93/93/93 92/92/92
f 76/76/76 77/77/77 94/94/94
f 76/76/76 94/94/94 93/93/93
f 77/77/77 78/78/78 95/95/95
f 77/77/77 95/95/95 94/94/94
f 78/78/78 79/79/79 96/96/96
f 78/78/78 96/96/96 95/95/95
f 79/79/79 80/80/80 97/97/97
f 79/79/79 97/97/97 96/96/96
f 80/80/80 81/81/81 98/98/98
f 80/80/80 98/98/98 97/97/97
f 81/81/81 82/82/82 99/99/99
f 81/81/81 99/99/99 98/98/98
f 82/82/82 83/83/83 100/100/100
f 82/82/82 100/100/100 99/99/99
f 83/83/83 84/84/84 101/101/101
f 83/83/83 101/101/101 100/100/100
f 84/84/84 85/85/85 102/102/102
f 84/84/84 102/102/102 101/101/101
f 86/86/86 87/87/87 104/104/104
f 86/86/86 104/104/104 103/103/103
f 87/87/87 88/88/88 105/105/105
f 87/87/87 105/105/105 104/104/104
f 88/88/88 89/89/89 106/106/106
f 88/88/88 106/106/106 105/105/105
f 89/89/89 90/90/90 107/107/107
f 89/89/89 107/107/107 106/106/106
f 90/90/90 91/91/91 108/108/108
f 90/90/90 108/108/108 107/107/107
f 91/91/91 92/92/92 109/109/109
f 91/91/91 109/109/109 108/108/108
f 92/92/92 93/93/93 110/110/110
f 92/92/92 110/110/110 109/109/109
f 93/93/93 94/94/94 111/111/111
f 93/93/93 111/111/111 110/110/110
f 94/94/94 95/95/95 112/112/112
f 94/94/94 112/112/112 111/111/111
f 95/95/95 96/96/96 113/113/113
f 95/95/95 113/113/113 112/112/112
f 96/96/96 97/97/97 114/114/114
f 96/96/96 114/114/114 113/113/113
f 97/97/97 98/98/98 115/115/115
f 97/97/97 115/115/115 114/114/114
f 98/98/98 99/99/99 116/116/116
f 98/98/98 116/116/116 115/115/115
f 99/99/99 100/100/100 117/117/117
f 99/99/99 117/117/117 116/116/116
f 100/100/100 101/101/101 118/118/118
f 100/100/100 118/118/118 117/117/117
f 101/101/101 102/102/102 119/119/119
f 101/101/101 119/119/119 118/118/118
f 103/103/103 104/104/104 121/121/121
f 103/103/103 121/121/121 120/120/120
f 104/104/104 105/105/105 122/122/122
f 104/104/104 122/122/122 121/121/121
f 105/105/105 106/106/106 123/123/123
f 105/105/105 123/123/123 122/122/122
f 106/106/106 107/107/107 124/124/124
f 106/106/106 124/124/124 123/123/123
f 107/107/107 108/108/108 125/125/125
f 107/107/107 125/125/125 124/124/124
f 108/108/108 109/109/109 126/126/126
f 108/108/108 126/126/126 125/125/125
f 109/109/109 110/110/110 127/127/127
f 109/109/109 127/127/127 126/126/126
f 110/110/110 111/111/111 128/128/128
f 110/110/110 128/128/128 127/127/127
f 111/111/111 112/112/112 129/129/129
f 111/111/111 129/129/129 128/128/128
f 112/112/112 113/113/113 130/130/130
f 112/112/112 130/130/130 129/129/129
f 113/113/113 114/114/114 131/131/131
f 113/113/113 131/131/131 130/130/130
f 114/114/114 115/115/115 132/132/132
f 114/114/114 132/132/132 131/131/131
f 115/115/115 116/116/116 133/133/133
f 115/115/115 133/133/133 132/132/132
f 116/116/116 117/117/117 134/134/134
f 116/116/116 134/134/134 133/133/133
f 117/117/117 118/118/118 135/135/135
f 117/117/117 135/135/135 134/134/134
f 118/118/118 119/119/119 136/136/136
f 118/118/118 136/136/136 135/135/135
f 120/120/120 121/121/121 138/138/138
f 120/120/120 138/138/138 137/137/137
f 121/121/121 122/122/122 139/139/139
f 121/121/121 139/139/139 138/138/138
f 122/122/122 123/123/123 140/140/140
f 122/122/122 140/140/140 139/139/139
f 123/123/123 124/124/124 141/141/141
f 123/123/123 141/141/141 140/140/140
f 124/124/124 125/125/125 142/142/142
f 124/124/124 142/142/142 141/141/141
f 125/125/125 126/126/126 143/143/143
f 125/125/125 143/143/143 142/142/142
f 126/126/126 127/127/127 144/144/144
f 126/126/126 144/144/144 143/143/143
f 127/127/127 128/128/128 145/145/145
f 127/127/127 145/145/145 144/144/144
f 128/128/128 129/129/129 146/146/146
f 128/128/128 146/146/146 145/145/145
f 129/129/129 130/130/130 147/147/147
f 129/129/129 147/147/147 146/146/146
f 130/130/130 131/131/131 148/148/148
f 130/130/130 148/148/148 147/147/147
f 131/131/131 132/132/132 149/149/149
f 131/131/131 149/149/149 148/148/148
f 132/132/132 133/133/133 150/150/150
f 132/132/132 150/150/150 149/149/149
f 133/133/133 134/134/134 151/151/151
f 133/133/133 151/151/151 150/150/150
f 134/134/134 135/135/135 152/152/152
f 134/134/134 152/152/152 151/151/151
f 135/135/135 136/136/136 153/153/153
f 135/135/135 153/153/153 152/152/152
f 137/137/137 138/138/138 155/155/155
f 137/137/137 155/155/155 154/154/154
f 138/138/138 139/139/139 156/156/156
f 138/138/138 156/156/156 155/155/155
f 139/139/139 140/140/140 157/157/157
f 139/139/139 157/157/157 156/156/156
f 140/140/140 141/141/141 158/158/158
f 140/140/140 158/158/158 157/157/157
f 141/141/141 142/142/142 159/159/159
f 141/141/141 159/159/159 158/158/158
f 142/142/142 143/143/143 160/160/160
f 142/142/142 160/160/160 159/159/159
f 143/143/143 144/144/144 161/161/161
f 143/143/143 161/161/161 160/160/160
f 144/144/144 145/145/145 162/162/162
f 144/144/144 162/162/162 161/161/161
f 145/145/145 146/146/146 163/163/163
f 145/145/145 163/163/163 162/162/162
f 146/146/146 147/147/147 164/164/164
f 146/146/146 164/164/164 163/163/163
f 147/147/147 148/148/148 165/165/165
f 147/147/147 165/165/165 164/164/164
f 148/148/148 149/149/149 166/166/166
f 148/148/148 166/166/166 165/165/165
f 149/149/149 150/150/150 167/167/167
f 149/149/149 167/167/167 166/166/166
f 150/150/150 151/151/151 168/168/168
f 150/150/150 168/168/168 167/167/167
f 151/151/151 152/152/152 169/169/169
f 151/151/151 169/169/169 168/168/168
f 152/152/152 153/153/153 170/170/170
f 152/152/152 170/170/170 169/169/169
f 154/154/154 155/155/155 172/172/172
f 154/154/154 172/172/172 171/171/171
f 155/155/155 156/156/156 173/173/173
f 155/155/155 173/173/173 172/172/172
f 156/156/156 157/157/157 174/174/174
f 156/156/156 174/174/174 173/173/173
f 157/157/157 158/158/158 175/175/175
f 157/157/157 175/175/175 174/174/174
f 158/158/158 159/159/159 176/176/176
f 158/158/158 176/176/176 175/175/175
f 159/159/159 160/160/160 177/177/177
f 159/159/159 177/177/177 176/176/176
f 160/160/160 161/161/161 178/178/178
f 160/160/160 178/178/178 177/177/177
f 161/161/161 162/162/162 179/179/179
f 161/161/161 179/179/179 178/178/178
f 162/162/162 163/163/163 180/180/180
f 162/162/162 180/180/180 179/179/179
f 163/163/163 164/164/164 181/181/181
f 163/163/163 181/181/181 180/180/180
f 164/164/164 165/165/165 182/182/182
f 164/164/164 182/182/182 181/181/181
f 165/165/165 166/166/166 183/183/183
f 165/165/165 183/183/183 182/182/182
f 166/166/166 167/167/167 184/184/184
f 166/166/166 184/184/184 183/183/183
f 167/167/167 168/168/168 185/185/185
f 167/167/167 185/185/185 184/184/184
f 168/168/168 169/169/169 186/186/186
f 168/168/168 186/186/186 185/185/185
f 169/169/169 170/170/170 187/187/187
f 169/169/169 187/187/187 186/186/186
f 171/171/171 172/172/172 189/189/189
f 171/171/171 189/189/189 188/188/188
f 172/172/172 173/173/173 190/190/190
f 172/172/172 190/190/190 189/189/189
f 173/173/173 174/174/174 191/191/191
f 173/173/173 191/191/191 190/190/190
f 174/174/174 175/175/175 192/192/192
f 174/174/174 192/192/192 191/191/191
f 175/175/175 176/176/176 193/193/193
f 175/175/175 193/193/193 192/192/192
f 176/176/176 177/177/177 194/194/194
f 176/176/176 194/194/194 193/193/193
f 177/177/177 178/178/178 195/195/195
f 177/177/177 195/195/195 194/194/194
f 178/178/178 179/179/179 196/196/196
f 178/178/178 196/196/196 195/195/195
f 179/179/179 180/180/180 197/197/197
f 179/179/179 197/197/197 196/196/196
f 180/180/180 181/181/181 198/198/198
f 180/180/180 198/198/198 197/197/197
f 181/181/181 182/182/182 199/199/199
f 181/181/181 199/199/199 198/198/198
f 182/182/182 183/183/183 200/200/200
f 182/182/182 200/200/200 199/199/199
f 183/183/183 184/184/184 201/201/201
f 183/183/183 201/201/201 200/200/200
f 184/184/184 185/185/185 202/202/202
f 184/184/184 202/202/202 201/201/201
f 185/185/185 186/186/186 203/203/203
f 185/185/185 203/203/203 202/202/202
f 186/186/186 187/187/187 204/204/204
f 186/186/186 204/204/204 203/203/203
f 188/188/188 189/189/189 206/206/206
f 188/188/188 206/206/206 205/205/205
f 189/189/189 190/190/190 207/207/207
f 189/189/189 207/207/207 206/206/206
f 190/190/190 191/191/191 208/208/208
f 190/190/190 208/208/208 207/207/207
f 191/191/191 192/192/192 209/209/209
f 191/191/191 209/209/209 208/208/208
f 192/192/192 193/193/193 210/210/210
f 192/192/192 210/210/210 209/209/209
f 193/193/193 194/194/194 211/211/211
f 193/193/193 211/211/211 210/210/210
f 194/194/194 195/195/195 212/212/212
f 194/194/194 212/212/212 211/211/211
f 195/195/195 196/196/196 213/213/213
f 195/195/195 213/213/213 212/212/212
f 196/196/196 197/197/197 214/214/214
f 196/196/196 214/214/214 213/213/213
f 197/197/197 198/198/198 215/215/215
f 197/197/197 215/215/215 214/214/214
f 198/198/198 199/199/199 216/216/216
f 198/198/198 216/216/216 215/215/215
f 199/199/199 200/200/200 217/217/217
f 199/199/199 217/217/217 216/216/216
f 200/200/200 201/201/201 218/218/218
f 200/200/200 218/218/218 217/217/217
f 201/201/201 202/202/202 219/219/219
f 201/201/201 219/219/219 218/218/218
f 202/202/202 203/203/203 220/220/220
f 202/202/202 220/220/220 219/219/219
f 203/203/203 204/204/204 221/221/221
f 203/203/203 221/221/221 220/220/220
f 205/205/205 206/206/206 223/223/223
f 205/205/205 223/223/223 222/222/222
f 206/206/206 207/207/207 224/224/224
f 206/206/206 224/224/224 223/223/223
f 207/207/207 208/208/208 225/225/225
f 207/207/207 225/225/225 224/224/224
f 208/208/208 209/209/209 226/226/226
f 208/208/208 226/226/226 225/225/225
f 209/209/209 210/210/210 227/227/227
f 209/209/209 227/227/227 226/226/226
f 210/210/210 211/211/211 228/228/228
f 210/210/210 228/228/228 227/227/227
f 211/211/211 212/212/212 229/229/229
f 211/211/211 229/229/229 228/228/228
f 212/212/212 213/213/213 230/230/230
f 212/212/212 230/230/230 229/229/229
f 213/213/213 214/214/214 231/231/231
f 213/213/213 231/231/231 230/230/230
f 214/214/214 215/215/215 232/232/232
f 214/214/214 232/232/232 231/231/231
f 215/215/215 216/216/216 233/233/233
f 215/215/215 233/233/233 232/232/232
f 216/216/216 217/217/217 234/234/234
f 216/216/216 234/234/234 233/233/233
f 217/217/217 218/218/218 235/235/235
f 217/217/217 235/235/235 234/234/234
f 218/218/218 219/219/219 236/236/236
f 218/218/218 236/236/236 235/235/235
f 219/219/219 220/220/220 237/237/237
f 219/219/219 237/237/237 236/236/236
f 220/220/220 221/221/221 238/238/238
f 220/220/220 238/238/238 237/237/237
f 222/222/222 223/223/223 240/240/240
f 222/222/222 240/240/240 239/239/239
f 223/223/223 224/224/224 241/241/241
f 223/223/223 241/241/241 240/240/240
f 224/224/224 225/225/225 242/242/242
f 224/224/224 242/242/242 241/241/241
f 225/225/225 226/226/226 243/243/243
f 225/225/225 243/243/243 242/242/242
f 226/226/226 227/227/227 244/244/244
f 226/226/226 244/244/244 243/243/243
f 227/227/227 228/228/228 245/245/245
f 227/227/227 245/245/245 244/244/244
f 228/228/228 229/229/229 246/246/246
f 228/228/228 246/246/246 245/245/245
f 229/229/229 230/230/230 247/247/247
f 229/229/229 247/247/247 246/246/246
f 230/230/230 231/231/231 248/248/248
f 230/230/230 248/248/248 247/247/247
f 231/231/231 232/232/232 249/249/249
f 231/231/231 249/249/249 248/248/248
f 232/232/232 233/233/233 250/250/250
f 232/232/232 250/250/250 249/249/249
f 233/233/233 234/234/234 251/251/251
f 233/233/233 251/251/251 250/250/250
f 234/234/234 235/235/235 252/252/252
f 234/234/234 252/252/252 251/251/251
f 235/235/235 236/236/236 253/253/253
f 235/235/235 253/253/253 252/252/252
f 236/236/236 237/237/237 254/254/254
f 236/236/236 254/254/254 253/253/253
f 237/237/237 238/238/238 255/255/255
f 237/237/237 255/255/255 254/254/254
usemtl hair
f 256/256/256 257/257/257 274/274/274
f 256/256/256 274/274/274 273/273/273
f 257/257/257 258/258/258 275/275/275
f 257/257/257 275/275/275 274/274/274
f 258/258/258 259/259/259 276/276/276
f 258/258/258 276/276/276 275/275/275
f 259/259/259 260/260/260 277/277/277
f 259/259/259 277/277/277 276/276/276
f 260/260/260 261/261/261 278/278/278
f 260/260/260 278/278/278 277/277/277
f 261/261/261 262/262/262 279/279/279
f 261/261/261 279/279/279 278/278/278
f 262/262/262 263/263/263 280/280/280
f 262/262/262 280/280/280 279/279/279
f 263/263/263 264/264/264 281/281/281
f 263/263/263 281/281/281 280/280/280
f 264/264/264 265/265/265 282/282/282
f 264/264/264 282/282/282 281/281/281
f 265/265/265 266/266/266 283/283/283
f 265/265/265 283/283/283 282/282/282
f 266/266/266 267/267/267 284/284/284
f 266/266/266 284/284/284 283/283/283
f 267/267/267 268/268/268 285/285/285
f 267/267/267 285/285/285 284/284/284
f 268/268/268 269/269/269 286/286/286
f 268/268/268 286/286/286 285/285/285
f 269/269/269 270/270/270 287/287/287
f 269/269/269 287/287/287 286/286/286
f 270/270/270 271/271/271 288/288/288
f 270/270/270 288/288/288 287/287/287
f 271/271/271 272/272/272 289/289/289
f 271/271/271 289/289/289 288/288/288
f 273/273/273 274/274/274 291/291/291
f 273/273/273 291/291/291 290/290/290
f 274/274/274 275/275/275 292/292/292
f 274/274/274 292/292/292 291/291/291
f 275/275/275 276/276/276 293/293/293
f 275/275/275 293/293/293 292/292/292
f 276/276/276 277/277/277 294/294/294
f 276/276/276 294/294/294 293/293/293
f 277/277/277 278/278/278 295/295/295
f 277/277/277 295/295/295 294/294/294
f 278/278/278 279/279/279 296/296/296
f 278/278/278 296/296/296 295/295/295
f 279/279/279 280/280/280 297/297/297
f 279/279/279 297/297/297 296/296/296
f 280/280/280 281/281/281 298/298/298
f 280/280/280 298/298/298 297/297/297
f 281/281/281 282/282/282 299/299/299
f 281/281/281 299/299/299 298/298/298
f 282/282/282 283/283/283 300/300/300
f 282/282/282 300/300/300 299/299/299
f 283/283/283 284/284/284 301/301/301
f 283/283/283 301/301/301 300/300/300
f 284/284/284 285/285/285 302/302/302
f 284/284/284 302/302/302 301/301/301
f 285/285/285 286/286/286 303/303/303
f 285/285/285 303/303/303 302/302/302
f 286/286/286 287/287/287 304/304/304
f 286/286/286 304/304/304 303/303/303
f 287/287/287 288/288/288 305/305/305
f 287/287/287 305/305/305 304/304/304
f 288/288/288 289/289/289 306/306/306
f 288/288/288 306/306/306 305/305/305
f 290/290/290 291/291/291 308/308/308
f 290/290/290 308/308/308 307/307/307
f 291/291/291 292/292/292 309/309/309
f 291/291/291 309/309/309 308/308/308
f 292/292/292 293/293/293 310/310/310
f 292/292/292 310/310/310 309/309/309
f 293/293/293 294/294/294 311/311/311
f 293/293/293 311/311/311 310/310/310
f 294/294/294 295/295/295 312/312/312
f 294/294/294 312/312/312 311/311/311
f 295/295/295 296/296/296 313/313/313
f 295/295/295 313/313/313 312/312/312
f 296/296/296 297/297/297 314/314/314
f 296/296/296 314/314/314 313/313/313
f 297/297/297 298/298/298 315/315/315
f 297/297/297 315/315/315 314/314/314
f 298/298/298 299/299/299 316/316/316
f 298/298/298 316/316/316 315/315/315
f 299/299/299 300/300/300 317/317/317
f 299/299/299 317/317/317 316/316/316
f 300/300/300 301/301/301 318/318/318
f 300/300/300 318/318/318 317/317/317
f 301/301/301 302/302/302 319/319/319
f 301/301/301 319/319/319 318/318/318
f 302/302/302 303/303/303 320/320/320
f 302/302/302 320/320/320 319/319/319
f 303/303/303 304/304/304 321/321/321
f 303/303/303 321/321/321 320/320/320
f 304/304/304 305/305/305 322/322/322
f 304/304/304 322/322/322 321/321/321
f 305/305/305 306/306/306 323/323/323
f 305/305/305 323/323/323 322/322/322
f 307/307/307 308/308/308 325/325/325
f 307/307/307 325/325/325 324/324/324
f 308/308/308 309/309/309 326/326/326
f 308/308/308 326/326/326 325/325/325
f 309/309/309 310/310/310 327/327/327
f 309/309/309 327/327/327 326/326/326
f 310/310/310 311/311/311 328/328/328
f 310/310/310 328/328/328 327/327/327
f 311/311/311 312/312/312 329/329/329
f 311/311/311 329/329/329 328/328/328
f 312/312/312 313/313/313 330/330/330
f 312/312/312 330/330/330 329/329/329
f 313/313/313 314/314/314 331/331/331
f 313/313/313 331/331/331 330/330/330
f 314/314/314 315/315/315 332/332/332
f 314/314/314 332/332/332 331/331/331
f 315/315/315 316/316/316 333/333/333
f 315/315/315 333/333/333 332/332/332
f 316/316/316 317/317/317 334/334/334
f 316/316/316 334/334/334 333/333/333
f 317/317/317 318/318/318 335/335/335
f 317/317/317 335/335/335 334/334/334
f 318/318/318 319/319/319 336/336/336
f 318/318/318 336/336/336 335/335/335
f 319/319/319 320/320/320 337/337/337
f 319/319/319 337/337/337 336/336/336
f 320/320/320 321/321/321 338/338/338
f 320/320/320 338/338/338 337/337/337
f 321/321/321 322/322/322 339/339/339
f 321/321/321 339/339/339 338/338/338
f 322/322/322 323/323/323 340/340/340
f 322/322/322 340/340/340 339/339/339
f 324/324/324 325/325/325 342/342/342
f 324/324/324 342/342/342 341/341/341
f 325/325/325 326/326/326 343/343/343
f 325/325/325 343/343/343 342/342/342
f 326/326/326 327/327/327 344/344/344
f 326/326/326 344/344/344 343/343/343
f 327/327/327 328/328/328 345/345/345
f 327/327/327 345/345/345 344/344/344
f 328/328/328 329/329/329 346/346/346
f 328/328/328 346/346/346 345/345/345
f 329/329/329 330/330/330 347/347/347
f 329/329/329 347/347/347 346/346/346
f 330/330/330 331/331/331 348/348/348
f 330/330/330 348/348/348 347/347/347
f 331/331/331 332/332/332 349/349/349
f 331/331/331 349/349/349 348/348/348
f 332/332/332 333/333/333 350/350/350
f 332/332/332 350/350/350 349/349/349
f 333/333/333 334/334/334 351/351/351
f 333/333/333 351/351/351 350/350/350
f 334/334/334 335/335/335 352/352/352
f 334/334/334 352/352/352 351/351/351
f 335/335/335 336/336/336 353/353/353
f 335/335/335 353/353/353 352/352/352
f 336/336/336 337/337/337 354/354/354
f 336/336/336 354/354/354 353/353/353
f 337/337/337 338/338/338 355/355/355
f 337/337/337 355/355/355 354/354/354
f 338/338/338 339/339/339 356/356/356
f 338/338/338 356/356/356 355/355/355
f 339/339/339 340/340/340 357/357/357
f 339/339/339 357/357/357 356/356/356
f 341/341/341 342/342/342 359/359/359
f 341/341/341 359/359/359 358/358/358
f 342/342/342 343/343/343 360/360/360
f 342/342/342 360/360/360 359/359/359
f 343/343/343 344/344/344 361/361/361
f 343/343/343 361/361/361 360/360/360
f 344/344/344 345/345/345 362/362/362
f 344/344/344 362/362/362 361/361/361
f 345/345/345 346/346/346 363/363/363
f 345/345/345 363/363/363 362/362/362
f 346/346/346 347/347/347 364/364/364
f 346/346/346 364/364/364 363/363/363
f 347/347/347 348/348/348 365/365/365
f 347/347/347 365/365/365 364/364/364
f 348/348/348 349/349/349 366/366/366
f 348/348/348 366/366/366 365/365/365
f 349/349/349 350/350/350 367/367/367
f 349/349/349 367/367/367 366/366/366
f 350/350/350 351/351/351 368/368/368
f 350/350/350 368/368/368 367/367/367
f 351/351/351 352/352/352 369/369/369
f 351/351/351 369/369/369 368/368/368
f 352/352/352 353/353/353 370/370/370
f 352/352/352 370/370/370 369/369/369
f 353/353/353 354/354/354 371/371/371
f 353/353/353 371/371/371 370/370/370
f 354/354/354 355/355/355 372/372/372
f 354/354/354 372/372/372 371/371/371
f 355/355/355 356/356/356 373/373/373
f 355/355/355 373/373/373 372/372/372
f 356/356/356 357/357/357 374/374/374
f 356/356/356 374/374/374 373/373/373
f 358/358/358 359/359/359 376/376/376
f 358/358/358 376/376/376 375/375/375
f 359/359/359 360/360/360 377/377/377
f 359/359/359 377/377/377 376/376/376
f 360/360/360 361/361/361 378/378/378
f 360/360/360 378/378/378 377/377/377
f 361/361/361 362/362/362 379/379/379
f 361/361/361 379/379/379 378/378/378
f 362/362/362 363/363/363 380/380/380
f 362/362/362 380/380/380 379/379/379
f 363/363/363 364/364/364 381/381/381
f 363/363/363 381/381/381 380/380/380
f 364/364/364 365/365/365 382/382/382
f 364/364/364 382/382/382 381/381/381
f 365/365/365 366/366/366 383/383/383
f 365/365/365 383/383/383 382/382/382
f 366/366/366 367/367/367 384/384/384
f 366/366/366 384/384/384 383/383/383
f 367/367/367 368/368/368 385/385/385
f 367/367/367 385/385/385 384/384/384
f 368/368/368 369/369/369 386/386/386
f 368/368/368 386/386/386 385/385/385
f 369/369/369 370/370/370 387/387/387
f 369/369/369 387/387/387 386/386/386
f 370/370/370 371/371/371 388/388/388
f 370/370/370 388/388/388 387/387/387
f 371/371/371 372/372/372 389/389/389
f 371/371/371 389/389/389 388/388/388
f 372/372/372 373/373/373 390/390/390
f 372/372/372 390/390/390 389/389/389
f 373/373/373 374/374/374 391/391/391
f 373/373/373 391/391/391 390/390/390
f 375/375/375 376/376/376 393/393/393
f 375/375/375 393/393/393 392/392/392
f 376/376/376 377/377/377 394/394/394
f 376/376/376 394/394/394 393/393/393
f 377/377/377 378/378/378 395/395/395
f 377/377/377 395/395/395 394/394/394
f 378/378/378 379/379/379 396/396/396
f 378/378/378 396/396/396 395/395/395
f 379/379/379 380/380/380 397/397/397
f 379/379/379 397/397/397 396/396/396
f 380/380/380 381/381/381 398/398/398
f 380/380/380 398/398/398 397/397/397
f 381/381/381 382/382/382 399/399/399
f 381/381/381 399/399/399 398/398/398
f 382/382/382 383/383/383 400/400/400
f 382/382/382 400/400/400 399/399/399
f 383/383/383 384/384/384 401/401/401
f 383/383/383 401/401/401 400/400/400
f 384/384/384 385/385/385 402/402/402
f 384/384/384 402/402/402 401/401/401
f 385/385/385 386/386/386 403/403/403
f 385/385/385 403/403/403 402/402/402
f 386/386/386 387/387/387 404/404/404
f 386/386/386 404/404/404 403/403/403
f 387/387/387 388/388/388 405/405/405
f 387/387/387 405/405/405 404/404/404
f 388/388/388 389/389/389 406/406/406
f 388/388/388 406/406/406 405/405/405
f 389/389/389 390/390/390 407/407/407
f 389/389/389 407/407/407 406/406/406
f 390/390/390 391/391/391 408/408/408
f 390/390/390 408/408/408 407/407/407
f 392/392/392 393/393/393 410/410/410
f 392/392/392 410/410/410 409/409/409
f 393/393/393 394/394/394 411/411/411
f 393/393/393 411/411/411 410/410/410
f 394/394/394 395/395/395 412/412/412
f 394/394/394 412/412/412 411/411/411
f 395/395/395 396/396/396 413/413/413
f 395/395/395 413/413/413 412/412/412
f 396/396/396 397/397/397 414/414/414
f 396/396/396 414/414/414 413/413/413
f 397/397/397 398/398/398 415/415/415
f 397/397/397 415/415/415 414/414/414
f 398/398/398 399/399/399 416/416/416
f 398/398/398 416/416/416 415/415/415
f 399/399/399 400/400/400 417/417/417
f 399/399/399 417/417/417 416/416/416
f 400/400/400 401/401/401 418/418/418
f 400/400/400 418/418/418 417/417/417
f 401/401/401 402/402/402 419/419/419
f 401/401/401 419/419/419 418/418/418
f 402/402/402 403/403/403 420/420/420
f 402/402/402 420/420/420 419/419/419
f 403/403/403 404/404/404 421/421/421
f 403/403/403 421/421/421 420/420/420
f 404/404/404 405/405/405 422/422/422
f 404/404/404 422/422/422 421/421/421
f 405/405/405 406/406/406 423/423/423
f 405/405/405 423/423/423 422/422/422
f 406/406/406 407/407/407 424/424/424
f 406/406/406 424/424/424 423/423/423
f 407/407/407 408/408/408 425/425/425
f 407/407/407 425/425/425 424/424/424
f 409/409/409 410/410/410 427/427/427
f 409/409/409 427/427/427 426/426/426
f 410/410/410 411/411/411 428/428/428
f 410/410/410 428/428/428 427/427/427
f 411/411/411 412/412/412 429/429/429
f 411/411/411 429/429/429 428/428/428
f 412/412/412 413/413/413 430/430/430
f 412/412/412 430/430/430 429/429/429
f 413/413/413 414/414/414 431/431/431
f 413/413/413 431/431/431 430/430/430
f 414/414/414 415/415/415 432/432/432
f 414/414/414 432/432/432 431/431/431
f 415/415/415 416/416/416 433/433/433
f 415/415/415 433/433/433 432/432/432
f 416/416/416 417/417/417 434/434/434
f 416/416/416 434/434/434 433/433/433
f 417/417/417 418/418/418 435/435/435
f 417/417/417 435/435/435 434/434/434
f 418/418/418 419/419/419 436/436/436
f 418/418/418 436/436/436 435/435/435
f 419/419/419 420/420/420 437/437/437
f 419/419/419 437/437/437 436/436/436
f 420/420/420 421/421/421 438/438/438
f 420/420/420 438/438/438 437/437/437
f 421/421/421 422/422/422 439/439/439
f 421/421/421 439/439/439 438/438/438
f 422/422/422 423/423/423 440/440/440
f 422/422/422 440/440/440 439/439/439
f 423/423/423 424/424/424 441/441/441
f 423/423/423 441/441/441 440/440/440
f 424/424/424 425/425/425 442/442/442
f 424/424/424 442/442/442 441/441/441
f 426/426/426 427/427/427 444/444/444
f 426/426/426 444/444/444 443/443/443
f 427/427/427 428/428/428 445/445/445
f 427/427/427 445/445/445 444/444/444
f 428/428/428 429/429/429 446/446/446
f 428/428/428 446/446/446 445/445/445
f 429/429/429 430/430/430 447/447/447
f 429/429/429 447/447/447 446/446/446
f 430/430/430 431/431/431 448/448/448
f 430/430/430 448/448/448 447/447/447
f 431/431/431 432/432/432 449/449/449
f 431/431/431 449/449/449 448/448/448
f 432/432/432 433/433/433 450/450/450
f 432/432/432 450/450/450 449/449/449
f 433/433/433 434/434/434 451/451/451
f 433/433/433 451/451/451 450/450/450
f 434/434/434 435/435/435 452/452/452
f 434/434/434 452/452/452 451/451/451
f 435/435/435 436/436/436 453/453/453
f 435/435/435 453/453/453 452/452/452
f 436/436/436 437/437/437 454/454/454
f 436/436/436 454/454/454 453/453/453
f 437/437/437 438/438/438 455/455/455
f 437/437/437 455/455/455 454/454/454
f 438/438/438 439/439/439 456/456/456
f 438/438/438 456/456/456 455/455/455
f 439/439/439 440/440/440 457/457/457
f 439/439/439 457/457/457 456/456/456
f 440/440/440 441/441/441 458/458/458
f 440/440/440 458/458/458 457/457/457
f 441/441/441 442/442/442 459/459/459
f 441/441/441 459/459/459 458/458/458
f 443/443/443 444/444/444 461/461/461
f 443/443/443 461/461/461 460/460/460
f 444/444/444 445/445/445 462/462/462
f 444/444/444 462/462/462 461/461/461
f 445/445/445 446/446/446 463/463/463
f 445/445/445 463/463/463 462/462/462
f 446/446/446 447/447/447 464/464/464
f 446/446/446 464/464/464 463/463/463
f 447/447/447 448/448/448 465/465/465
f 447/447/447 465/465/465 464/464/464
f 448/448/448 449/449/449 466/466/466
f 448/448/448 466/466/466 465/465/465
f 449/449/449 450/450/450 467/467/467
f 449/449/449 467/467/467 466/466/466
f 450/450/450 451/451/451 468/468/468
f 450/450/450 468/468/468 467/467/467
f 451/451/451 452/452/452 469/469/469
f 451/451/451 469/469/469 468/468/468
f 452/452/452 453/453/453 470/470/470
f 452/452/452 470/470/470 469/469/469
f 453/453/453 454/454/454 471/471/471
f 453/453/453 471/471/471 470/470/470
f 454/454/454 455/455/455 472/472/472
f 454/454/454 472/472/472 471/471/471
f 455/455/455 456/456/456 473/473/473
f 455/455/455 473/473/473 472/472/472
f 456/456/456 457/457/457 474/474/474
f 456/456/456 474/474/474 473/473/473
f 457/457/457 458/458/458 475/475/475
f 457/457/457 475/475/475 474/474/474
f 458/458/458 459/459/459 476/476/476
f 458/458/458 476/476/476 475/475/475
f 460/460/460 461/461/461 478/478/478
f 460/460/460 478/478/478 477/477/477
f 461/461/461 462/462/462 479/479/479
f 461/461/461 479/479/479 478/478/478
f 462/462/462 463/463/463 480/480/480
f 462/462/462 480/480/480 479/479/479
f 463/463/463 464/464/464 481/481/481
f 463/463/463 481/481/481 480/480/480
f 464/464/464 465/465/465 482/482/482
f 464/464/464 482/482/482 481/481/481
f 465/465/465 466/466/466 483/483/483
f 465/465/465 483/483/483 482/482/482
f 466/466/466 467/467/467 484/484/484
f 466/466/466 484/484/484 483/483/483
f 467/467/467 468/468/468 485/485/485
f 467/467/467 485/485/485 484/484/484
f 468/468/468 469/469/469 486/486/486
f 468/468/468 486/486/486 485/485/485
f 469/469/469 470/470/470 487/487/487
f 469/469/469 487/487/487 486/486/486
f 470/470/470 471/471/471 488/488/488
f 470/470/470 488/488/488 487/487/487
f 471/471/471 472/472/472 489/489/489
f 471/471/471 489/489/489 488/488/488
f 472/472/472 473/473/473 490/490/490
f 472/472/472 490/490/490 489/489/489
f 473/473/473 474/474/474 491/491/491
f 473/473/473 491/491/491 490/490/490
f 474/474/474 475/475/475 492/492/492
f 474/474/474 492/492/492 491/491/491
f 475/475/475 476/476/476 493/493/493
f 475/475/475 493/493/493 492/492/492
f 477/477/477 478/478/478 495/495/495
f 477/477/477 495/495/495 494/494/494
f 478/478/478 479/479/479 496/496/496
f 478/478/478 496/496/496 495/495/495
f 479/479/479 480/480/480 497/497/497
f 479/479/479 497/497/497 496/496/496
f 480/480/480 481/481/481 498/498/498
f 480/480/480 498/498/498 497/497/497
f 481/481/481 482/482/482 499/499/499
f 481/481/481 499/499/499 498/498/498
f 482/482/482 483/483/483 500/500/500
f 482/482/482 500/500/500 499/499/499
f 483/483/483 484/484/484 501/501/501
f 483/483/483 501/501/501 500/500/500
f 484/484/484 485/485/485 502/502/502
f 484/484/484 502/502/502 501/501/501
f 485/485/485 486/486/486 503/503/503
f 485/485/485 503/503/503 502/502/502
f 486/486/486 487/487/487 504/504/504
f 486/486/486 504/504/504 503/503/503
f 487/487/487 488/488/488 505/505/505
f 487/487/487 505/505/505 504/504/504
f 488/488/488 489/489/489 506/506/506
f 488/488/488 506/506/506 505/505/505
f 489/489/489 490/490/490 507/507/507
f 489/489/489 507/507/507 506/506/506
f 490/490/490 491/491/491 508/508/508
f 490/490/490 508/508/508 507/507/507
f 491/491/491 492/492/492 509/509/509
f 491/491/491 509/509/509 508/508/508
f 492/492/492 493/493/493 510/510/510
f 492/492/492 510/510/510 509/509/509
usemtl bamboo
f 511/511/511 512/512/512 519/519/519
f 511/511/511 519/519/519 518/518/518
f 512/512/512 513/513/513 520/520/520
f 512/512/512 520/520/520 519/519/519
f 513/513/513 514/514/514 521/521/521
f 513/513/513 521/521/521 520/520/520
f 514/514/514 515/515/515 522/522/522
f 514/514/514 522/522/522 521/521/521
f 515/515/515 516/516/516 523/523/523
f 515/515/515 523/523/523 522/522/522
f 516/516/516 517/517/517 524/524/524
f 516/516/516 524/524/524 523/523/523
f 525/525/525 527/527/527 526/526/526
f 525/525/525 528/528/528 527/527/527
f 525/525/525 529/529/529 528/528/528
f 525/525/525 530/530/530 529/529/529
f 525/525/525 531/531/531 530/530/530
f 525/525/525 526/526/526 531/531/531
f 532/532/532 533/533/533 534/534/534
f 532/532/532 534/534/534 535/535/535
f 532/532/532 535/535/535 536/536/536
f 532/532/532 536/536/536 537/537/537
f 532/532/532 537/537/537 538/538/538
f 532/532/532 538/538/538 533/533/533
usemtl trim
f 539/539/539 543/543/543 544/544/544
f 539/539/539 544/544/544 540/540/540
f 540/540/540 544/544/544 545/545/545
f 540/540/540 545/545/545 541/541/541
f 541/541/541 545/545/545 546/546/546
f 541/541/541 546/546/546 542/542/542
f 543/543/543 547/547/547 548/548/548
f 543/543/543 548/548/548 544/544/544
f 544/544/544 548/548/548 549/549/549
f 544/544/544 549/549/549 545/545/545
f 545/545/545 549/549/549 550/550/550
f 545/545/545 550/550/550 546/546/546
f 547/547/547 551/551/551 552/552/552
f 547/547/547 552/552/552 548/548/548
f 548/548/548 552/552/552 553/553/553
f 548/548/548 553/553/553 549/549/549
f 549/549/549 553/553/553 554/554/554
f 549/549/549 554/554/554 550/550/550
f 551/551/551 555/555/555 556/556/556
f 551/551/551 556/556/556 552/552/552
f 552/552/552 556/556/556 557/557/557
f 552/552/552 557/557/557 553/553/553
f 553/553/553 557/557/557 558/558/558
f 553/553/553 558/558/558 554/554/554
f 555/555/555 559/559/559 560/560/560
f 555/555/555 560/560/560 556/556/556
f 556/556/556 560/560/560 561/561/561
f 556/556/556 561/561/561 557/557/557
f 557/557/557 561/561/561 562/562/562
f 557/557/557 562/562/562 558/558/558
f 559/559/559 563/563/563 564/564/564
f 559/559/559 564/564/564 560/560/560
f 560/560/560 564/564/564 565/565/565
f 560/560/560 565/565/565 561/561/561
f 561/561/561 565/565/565 566/566/566
f 561/561/561 566/566/566 562/562/562
f 563/563/563 567/567/567 568/568/568
f 563/563/563 568/568/568 564/564/564
f 564/564/564 568/568/568 569/569/569
f 564/564/564 569/569/569 565/565/565
f 565/565/565 569/569/569 570/570/570
f 565/565/565 570/570/570 566/566/566
f 567/567/567 571/571/571 572/572/572
f 567/567/567 572/572/572 568/568/568
f 568/568/568 572/572/572 573/573/573
f 568/568/568 573/573/573 569/569/569
f 569/569/569 573/573/573 574/574/574
f 569/569/569 574/574/574 570/570/570
f 571/571/571 575/575/575 576/576/576
f 571/571/571 576/576/576 572/572/572
f 572/572/572 576/576/576 577/577/577
f 572/572/572 577/577/577 573/573/573
f 573/573/573 577/577/577 578/578/578
f 573/573/573 578/578/578 574/574/574
f 575/575/575 579/579/579 580/580/580
f 575/575/575 580/580/580 576/576/576
f 576/576/576 580/580/580 581/581/581
f 576/576/576 581/581/581 577/577/577
f 577/577/577 581/581/581 582/582/582
f 577/577/577 582/582/582 578/578/578
usemtl face_plain
f 583/583/583 584/584/584 591/591/591
f 583/583/583 591/591/591 590/590/590
f 584/584/584 585/585/585 592/592/592
f 584/584/584 592/592/592 591/591/591
f 585/585/585 586/586/586 593/593/593
f 585/585/585 593/593/593 592/592/592
f 586/586/586 587/587/587 594/594/594
f 586/586/586 594/594/594 593/593/593
f 587/587/587 588/588/588 595/595/595
f 587/587/587 595/595/595 594/594/594
f 588/588/588 589/589/589 596/596/596
f 588/588/588 596/596/596 595/595/595
f 590/590/590 591/591/591 598/598/598
f 590/590/590 598/598/598 597/597/597
f 591/591/591 592/592/592 599/599/599
f 591/591/591 599/599/599 598/598/598
f 592/592/592 593/593/593 600/600/600
f 592/592/592 600/600/600 599/599/599
f 593/593/593 594/594/594 601/601/601
f 593/593/593 601/601/601 600/600/600
f 594/594/594 595/595/595 602/602/602
f 594/594/594 602/602/602 601/601/601
f 595/595/595 596/596/596 603/603/603
f 595/595/595 603/603/603 602/602/602
f 597/597/597 598/598/598 605/605/605
f 597/597/597 605/605/605 604/604/604
f 598/598/598 599/599/599 606/606/606
f 598/598/598 606/606/606 605/605/605
f 599/599/599 600/600/600 607/607/607
f 599/599/599 607/607/607 606/606/606
f 600/600/600 601/601/601 608/608/608
f 600/600/600 608/608/608 607/607/607
f 601/601/601 602/602/602 609/609/609
f 601/601/601 609/609/609 608/608/608
f 602/602/602 603/603/603 610/610/610
f 602/602/602 610/610/610 609/609/609
f 604/604/604 605/605/605 612/612/612
f 604/604/604 612/612/612 611/611/611
f 605/605/605 606/606/606 613/613/613
f 605/605/605 613/613/613 612/612/612
f 606/606/606 607/607/607 614/614/614
f 606/606/606 614/614/614 613/613/613
f 607/607/607 608/608/608 615/615/615
f 607/607/607 615/615/615 614/614/614
f 608/608/608 609/609/609 616/616/616
f 608/608/608 616/616/616 615/615/615
f 609/609/609 610/610/610 617/617/617
f 609/609/609 617/617/617 616/616/616
f 618/618/618 619/619/619 626/626/626
f 618/618/618 626/626/626 625/625/625
f 619/619/619 620/620/620 627/627/627
f 619/619/619 627/627/627 626/626/626
f 620/620/620 621/621/621 628/628/628
f 620/620/620 628/628/628 627/627/627
f 621/621/621 622/622/622 629/629/629
f 621/621/621 629/629/629 628/628/628
f 622/622/622 623/623/623 630/630/630
f 622/622/622 630/630/630 629/629/629
f 623/623/623 624/624/624 631/631/631
f 623/623/623 631/631/631 630/630/630
f 625/625/625 626/626/626 633/633/633
f 625/625/625 633/633/633 632/632/632
f 626/626/626 627/627/627 634/634/634
f 626/626/626 634/634/634 633/633/633
f 627/627/627 628/628/628 635/635/635
f 627/627/627 635/635/635 634/634/634
f 628/628/628 629/629/629 636/636/636
f 628/628/628 636/636/636 635/635/635
f 629/629/629 630/630/630 637/637/637
f 629/629/629 637/637/637 636/636/636
f 630/630/630 631/631/631 638/638/638
f 630/630/630 638/638/638 637/637/637
f 632/632/632 633/633/633 640/640/640
f 632/632/632 640/640/640 639/639/639
f 633/633/633 634/634/634 641/641/641
f 633/633/633 641/641/641 640/640/640
f 634/634/634 635/635/635 642/642/642
f 634/634/634 642/642/642 641/641/641
f 635/635/635 636/636/636 643/643/643
f 635/635/635 643/643/643 642/642/642
f 636/636/636 637/637/637 644/644/644
f 636/636/636 644/644/644 643/643/643
f 637/637/637 638/638/638 645/645/645
f 637/637/637 645/645/645 644/644/644
f 639/639/639 640/640/640 647/647/647
f 639/639/639 647/647/647 646/646/646
f 640/640/640 641/641/641 648/648/648
f 640/640/640 648/648/648 647/647/647
f 641/641/641 642/642/642 649/649/649
f 641/641/641 649/649/649 648/648/648
f 642/642/642 643/643/643 650/650/650
f 642/642/642 650/650/650 649/649/649
f 643/643/643 644/644/644 651/651/651
f 643/643/643 651/651/651 650/650/650
f 644/644/644 645/645/645 652/652/652
f 644/644/644 652/652/652 651/651/651
