# Sinh tự động bởi tools/mesh_kit.py - đừng sửa tay
o e_torso_ao_dai
v 0.0000 -0.0200 -0.1200
v 0.1172 -0.0200 -0.1035
v 0.1141 0.0750 -0.0996
v 0.0000 -0.0200 -0.1200
v 0.1141 0.0750 -0.0996
v 0.0000 0.0750 -0.1156
v 0.1172 -0.0200 -0.1035
v 0.1641 -0.0200 -0.0527
v 0.1598 0.0750 -0.0508
v 0.1172 -0.0200 -0.1035
v 0.1598 0.0750 -0.0508
v 0.1141 0.0750 -0.0996
v 0.1641 -0.0200 -0.0527
v 0.1641 -0.0200 0.0527
v 0.1598 0.0750 0.0508
v 0.1641 -0.0200 -0.0527
v 0.1598 0.0750 0.0508
v 0.1598 0.0750 -0.0508
v 0.1641 -0.0200 0.0527
v 0.1172 -0.0200 0.1035
v 0.1141 0.0750 0.0996
v 0.1641 -0.0200 0.0527
v 0.1141 0.0750 0.0996
v 0.1598 0.0750 0.0508
v 0.1172 -0.0200 0.1035
v 0.0000 -0.0200 0.1200
v 0.0000 0.0750 0.1156
v 0.1172 -0.0200 0.1035
v 0.0000 0.0750 0.1156
v 0.1141 0.0750 0.0996
v 0.0000 -0.0200 0.1200
v -0.1172 -0.0200 0.1035
v -0.1141 0.0750 0.0996
v 0.0000 -0.0200 0.1200
v -0.1141 0.0750 0.0996
v 0.0000 0.0750 0.1156
v -0.1172 -0.0200 0.1035
v -0.1641 -0.0200 0.0527
v -0.1598 0.0750 0.0508
v -0.1172 -0.0200 0.1035
v -0.1598 0.0750 0.0508
v -0.1141 0.0750 0.0996
v -0.1641 -0.0200 0.0527
v -0.1641 -0.0200 -0.0527
v -0.1598 0.0750 -0.0508
v -0.1641 -0.0200 0.0527
v -0.1598 0.0750 -0.0508
v -0.1598 0.0750 0.0508
v -0.1641 -0.0200 -0.0527
v -0.1172 -0.0200 -0.1035
v -0.1141 0.0750 -0.0996
v -0.1641 -0.0200 -0.0527
v -0.1141 0.0750 -0.0996
v -0.1598 0.0750 -0.0508
v -0.1172 -0.0200 -0.1035
v -0.0000 -0.0200 -0.1200
v -0.0000 0.0750 -0.1156
v -0.1172 -0.0200 -0.1035
v -0.0000 0.0750 -0.1156
v -0.1141 0.0750 -0.0996
v 0.0000 0.0750 -0.1156
v 0.1141 0.0750 -0.0996
v 0.1167 0.1700 -0.1018
v 0.0000 0.0750 -0.1156
v 0.1167 0.1700 -0.1018
v 0.0000 0.1700 -0.1178
v 0.1141 0.0750 -0.0996
v 0.1598 0.0750 -0.0508
v 0.1634 0.1700 -0.0526
v 0.1141 0.0750 -0.0996
v 0.1634 0.1700 -0.0526
v 0.1167 0.1700 -0.1018
v 0.1598 0.0750 -0.0508
v 0.1598 0.0750 0.0508
v 0.1634 0.1700 0.0498
v 0.1598 0.0750 -0.0508
v 0.1634 0.1700 0.0498
v 0.1634 0.1700 -0.0526
v 0.1598 0.0750 0.0508
v 0.1141 0.0750 0.0996
v 0.1167 0.1700 0.0990
v 0.1598 0.0750 0.0508
v 0.1167 0.1700 0.0990
v 0.1634 0.1700 0.0498
v 0.1141 0.0750 0.0996
v 0.0000 0.0750 0.1156
v 0.0000 0.1700 0.1150
v 0.1141 0.0750 0.0996
v 0.0000 0.1700 0.1150
v 0.1167 0.1700 0.0990
v 0.0000 0.0750 0.1156
v -0.1141 0.0750 0.0996
v -0.1167 0.1700 0.0990
v 0.0000 0.0750 0.1156
v -0.1167 0.1700 0.0990
v 0.0000 0.1700 0.1150
v -0.1141 0.0750 0.0996
v -0.1598 0.0750 0.0508
v -0.1634 0.1700 0.0498
v -0.1141 0.0750 0.0996
v -0.1634 0.1700 0.0498
v -0.1167 0.1700 0.0990
v -0.1598 0.0750 0.0508
v -0.1598 0.0750 -0.0508
v -0.1634 0.1700 -0.0526
v -0.1598 0.0750 0.0508
v -0.1634 0.1700 -0.0526
v -0.1634 0.1700 0.0498
v -0.1598 0.0750 -0.0508
v -0.1141 0.0750 -0.0996
v -0.1167 0.1700 -0.1018
v -0.1598 0.0750 -0.0508
v -0.1167 0.1700 -0.1018
v -0.1634 0.1700 -0.0526
v -0.1141 0.0750 -0.0996
v -0.0000 0.0750 -0.1156
v -0.0000 0.1700 -0.1178
v -0.1141 0.0750 -0.0996
v -0.0000 0.1700 -0.1178
v -0.1167 0.1700 -0.1018
v 0.0000 0.1700 -0.1178
v 0.1167 0.1700 -0.1018
v 0.1232 0.2650 -0.1077
v 0.0000 0.1700 -0.1178
v 0.1232 0.2650 -0.1077
v 0.0000 0.2650 -0.1242
v 0.1167 0.1700 -0.1018
v 0.1634 0.1700 -0.0526
v 0.1726 0.2650 -0.0572
v 0.1167 0.1700 -0.1018
v 0.1726 0.2650 -0.0572
v 0.1232 0.2650 -0.1077
v 0.1634 0.1700 -0.0526
v 0.1634 0.1700 0.0498
v 0.1726 0.2650 0.0480
v 0.1634 0.1700 -0.0526
v 0.1726 0.2650 0.0480
v 0.1726 0.2650 -0.0572
v 0.1634 0.1700 0.0498
v 0.1167 0.1700 0.0990
v 0.1232 0.2650 0.0985
v 0.1634 0.1700 0.0498
v 0.1232 0.2650 0.0985
v 0.1726 0.2650 0.0480
v 0.1167 0.1700 0.0990
v 0.0000 0.1700 0.1150
v 0.0000 0.2650 0.1150
v 0.1167 0.1700 0.0990
v 0.0000 0.2650 0.1150
v 0.1232 0.2650 0.0985
v 0.0000 0.1700 0.1150
v -0.1167 0.1700 0.0990
v -0.1232 0.2650 0.0985
v 0.0000 0.1700 0.1150
v -0.1232 0.2650 0.0985
v 0.0000 0.2650 0.1150
v -0.1167 0.1700 0.0990
v -0.1634 0.1700 0.0498
v -0.1726 0.2650 0.0480
v -0.1167 0.1700 0.0990
v -0.1726 0.2650 0.0480
v -0.1232 0.2650 0.0985
v -0.1634 0.1700 0.0498
v -0.1634 0.1700 -0.0526
v -0.1726 0.2650 -0.0572
v -0.1634 0.1700 0.0498
v -0.1726 0.2650 -0.0572
v -0.1726 0.2650 0.0480
v -0.1634 0.1700 -0.0526
v -0.1167 0.1700 -0.1018
v -0.1232 0.2650 -0.1077
v -0.1634 0.1700 -0.0526
v -0.1232 0.2650 -0.1077
v -0.1726 0.2650 -0.0572
v -0.1167 0.1700 -0.1018
v -0.0000 0.1700 -0.1178
v -0.0000 0.2650 -0.1242
v -0.1167 0.1700 -0.1018
v -0.0000 0.2650 -0.1242
v -0.1232 0.2650 -0.1077
v 0.0000 0.2650 -0.1242
v 0.1232 0.2650 -0.1077
v 0.1302 0.3600 -0.1024
v 0.0000 0.2650 -0.1242
v 0.1302 0.3600 -0.1024
v 0.0000 0.3600 -0.1184
v 0.1232 0.2650 -0.1077
v 0.1726 0.2650 -0.0572
v 0.1823 0.3600 -0.0536
v 0.1232 0.2650 -0.1077
v 0.1823 0.3600 -0.0536
v 0.1302 0.3600 -0.1024
v 0.1726 0.2650 -0.0572
v 0.1726 0.2650 0.0480
v 0.1823 0.3600 0.0480
v 0.1726 0.2650 -0.0572
v 0.1823 0.3600 0.0480
v 0.1823 0.3600 -0.0536
v 0.1726 0.2650 0.0480
v 0.1232 0.2650 0.0985
v 0.1302 0.3600 0.0969
v 0.1726 0.2650 0.0480
v 0.1302 0.3600 0.0969
v 0.1823 0.3600 0.0480
v 0.1232 0.2650 0.0985
v 0.0000 0.2650 0.1150
v 0.0000 0.3600 0.1128
v 0.1232 0.2650 0.0985
v 0.0000 0.3600 0.1128
v 0.1302 0.3600 0.0969
v 0.0000 0.2650 0.1150
v -0.1232 0.2650 0.0985
v -0.1302 0.3600 0.0969
v 0.0000 0.2650 0.1150
v -0.1302 0.3600 0.0969
v 0.0000 0.3600 0.1128
v -0.1232 0.2650 0.0985
v -0.1726 0.2650 0.0480
v -0.1823 0.3600 0.0480
v -0.1232 0.2650 0.0985
v -0.1823 0.3600 0.0480
v -0.1302 0.3600 0.0969
v -0.1726 0.2650 0.0480
v -0.1726 0.2650 -0.0572
v -0.1823 0.3600 -0.0536
v -0.1726 0.2650 0.0480
v -0.1823 0.3600 -0.0536
v -0.1823 0.3600 0.0480
v -0.1726 0.2650 -0.0572
v -0.1232 0.2650 -0.1077
v -0.1302 0.3600 -0.1024
v -0.1726 0.2650 -0.0572
v -0.1302 0.3600 -0.1024
v -0.1823 0.3600 -0.0536
v -0.1232 0.2650 -0.1077
v -0.0000 0.2650 -0.1242
v -0.0000 0.3600 -0.1184
v -0.1232 0.2650 -0.1077
v -0.0000 0.3600 -0.1184
v -0.1302 0.3600 -0.1024
v 0.0000 0.3600 -0.1184
v 0.1302 0.3600 -0.1024
v 0.1278 0.4550 -0.0883
v 0.0000 0.3600 -0.1184
v 0.1278 0.4550 -0.0883
v 0.0000 0.4550 -0.1027
v 0.1302 0.3600 -0.1024
v 0.1823 0.3600 -0.0536
v 0.1790 0.4550 -0.0443
v 0.1302 0.3600 -0.1024
v 0.1790 0.4550 -0.0443
v 0.1278 0.4550 -0.0883
v 0.1823 0.3600 -0.0536
v 0.1823 0.3600 0.0480
v 0.1790 0.4550 0.0472
v 0.1823 0.3600 -0.0536
v 0.1790 0.4550 0.0472
v 0.1790 0.4550 -0.0443
v 0.1823 0.3600 0.0480
v 0.1302 0.3600 0.0969
v 0.1278 0.4550 0.0913
v 0.1823 0.3600 0.0480
v 0.1278 0.4550 0.0913
v 0.1790 0.4550 0.0472
v 0.1302 0.3600 0.0969
v 0.0000 0.3600 0.1128
v 0.0000 0.4550 0.1056
v 0.1302 0.3600 0.0969
v 0.0000 0.4550 0.1056
v 0.1278 0.4550 0.0913
v 0.0000 0.3600 0.1128
v -0.1302 0.3600 0.0969
v -0.1278 0.4550 0.0913
v 0.0000 0.3600 0.1128
v -0.1278 0.4550 0.0913
v 0.0000 0.4550 0.1056
v -0.1302 0.3600 0.0969
v -0.1823 0.3600 0.0480
v -0.1790 0.4550 0.0472
v -0.1302 0.3600 0.0969
v -0.1790 0.4550 0.0472
v -0.1278 0.4550 0.0913
v -0.1823 0.3600 0.0480
v -0.1823 0.3600 -0.0536
v -0.1790 0.4550 -0.0443
v -0.1823 0.3600 0.0480
v -0.1790 0.4550 -0.0443
v -0.1790 0.4550 0.0472
v -0.1823 0.3600 -0.0536
v -0.1302 0.3600 -0.1024
v -0.1278 0.4550 -0.0883
v -0.1823 0.3600 -0.0536
v -0.1278 0.4550 -0.0883
v -0.1790 0.4550 -0.0443
v -0.1302 0.3600 -0.1024
v -0.0000 0.3600 -0.1184
v -0.0000 0.4550 -0.1027
v -0.1302 0.3600 -0.1024
v -0.0000 0.4550 -0.1027
v -0.1278 0.4550 -0.0883
v 0.0000 0.4550 -0.1027
v 0.1278 0.4550 -0.0883
v 0.0517 0.5500 -0.0417
v 0.0000 0.4550 -0.1027
v 0.0517 0.5500 -0.0417
v 0.0000 0.5500 -0.0500
v 0.1278 0.4550 -0.0883
v 0.1790 0.4550 -0.0443
v 0.0724 0.5500 -0.0164
v 0.1278 0.4550 -0.0883
v 0.0724 0.5500 -0.0164
v 0.0517 0.5500 -0.0417
v 0.1790 0.4550 -0.0443
v 0.1790 0.4550 0.0472
v 0.0724 0.5500 0.0364
v 0.1790 0.4550 -0.0443
v 0.0724 0.5500 0.0364
v 0.0724 0.5500 -0.0164
v 0.1790 0.4550 0.0472
v 0.1278 0.4550 0.0913
v 0.0517 0.5500 0.0617
v 0.1790 0.4550 0.0472
v 0.0517 0.5500 0.0617
v 0.0724 0.5500 0.0364
v 0.1278 0.4550 0.0913
v 0.0000 0.4550 0.1056
v 0.0000 0.5500 0.0700
v 0.1278 0.4550 0.0913
v 0.0000 0.5500 0.0700
v 0.0517 0.5500 0.0617
v 0.0000 0.4550 0.1056
v -0.1278 0.4550 0.0913
v -0.0517 0.5500 0.0617
v 0.0000 0.4550 0.1056
v -0.0517 0.5500 0.0617
v 0.0000 0.5500 0.0700
v -0.1278 0.4550 0.0913
v -0.1790 0.4550 0.0472
v -0.0724 0.5500 0.0364
v -0.1278 0.4550 0.0913
v -0.0724 0.5500 0.0364
v -0.0517 0.5500 0.0617
v -0.1790 0.4550 0.0472
v -0.1790 0.4550 -0.0443
v -0.0724 0.5500 -0.0164
v -0.1790 0.4550 0.0472
v -0.0724 0.5500 -0.0164
v -0.0724 0.5500 0.0364
v -0.1790 0.4550 -0.0443
v -0.1278 0.4550 -0.0883
v -0.0517 0.5500 -0.0417
v -0.1790 0.4550 -0.0443
v -0.0517 0.5500 -0.0417
v -0.0724 0.5500 -0.0164
v -0.1278 0.4550 -0.0883
v -0.0000 0.4550 -0.1027
v -0.0000 0.5500 -0.0500
v -0.1278 0.4550 -0.0883
v -0.0000 0.5500 -0.0500
v -0.0517 0.5500 -0.0417
v -0.1500 0.0000 -0.1100
v -0.0750 0.0085 -0.1100
v -0.0788 0.0018 -0.2300
v -0.1500 0.0000 -0.1100
v -0.0788 0.0018 -0.2300
v -0.1575 -0.0067 -0.2300
v -0.0750 0.0085 -0.1100
v 0.0000 0.0120 -0.1100
v 0.0000 0.0053 -0.2300
v -0.0750 0.0085 -0.1100
v 0.0000 0.0053 -0.2300
v -0.0788 0.0018 -0.2300
v 0.0000 0.0120 -0.1100
v 0.0750 0.0085 -0.1100
v 0.0788 0.0018 -0.2300
v 0.0000 0.0120 -0.1100
v 0.0788 0.0018 -0.2300
v 0.0000 0.0053 -0.2300
v 0.0750 0.0085 -0.1100
v 0.1500 0.0000 -0.1100
v 0.1575 -0.0067 -0.2300
v 0.0750 0.0085 -0.1100
v 0.1575 -0.0067 -0.2300
v 0.0788 0.0018 -0.2300
v -0.1575 -0.0067 -0.2300
v -0.0788 0.0018 -0.2300
v -0.0825 -0.0048 -0.3500
v -0.1575 -0.0067 -0.2300
v -0.0825 -0.0048 -0.3500
v -0.1650 -0.0133 -0.3500
v -0.0788 0.0018 -0.2300
v 0.0000 0.0053 -0.2300
v 0.0000 -0.0013 -0.3500
v -0.0788 0.0018 -0.2300
v 0.0000 -0.0013 -0.3500
v -0.0825 -0.0048 -0.3500
v 0.0000 0.0053 -0.2300
v 0.0788 0.0018 -0.2300
v 0.0825 -0.0048 -0.3500
v 0.0000 0.0053 -0.2300
v 0.0825 -0.0048 -0.3500
v 0.0000 -0.0013 -0.3500
v 0.0788 0.0018 -0.2300
v 0.1575 -0.0067 -0.2300
v 0.1650 -0.0133 -0.3500
v 0.0788 0.0018 -0.2300
v 0.1650 -0.0133 -0.3500
v 0.0825 -0.0048 -0.3500
v -0.1650 -0.0133 -0.3500
v -0.0825 -0.0048 -0.3500
v -0.0862 -0.0115 -0.4700
v -0.1650 -0.0133 -0.3500
v -0.0862 -0.0115 -0.4700
v -0.1725 -0.0200 -0.4700
v -0.0825 -0.0048 -0.3500
v 0.0000 -0.0013 -0.3500
v 0.0000 -0.0080 -0.4700
v -0.0825 -0.0048 -0.3500
v 0.0000 -0.0080 -0.4700
v -0.0862 -0.0115 -0.4700
v 0.0000 -0.0013 -0.3500
v 0.0825 -0.0048 -0.3500
v 0.0862 -0.0115 -0.4700
v 0.0000 -0.0013 -0.3500
v 0.0862 -0.0115 -0.4700
v 0.0000 -0.0080 -0.4700
v 0.0825 -0.0048 -0.3500
v 0.1650 -0.0133 -0.3500
v 0.1725 -0.0200 -0.4700
v 0.0825 -0.0048 -0.3500
v 0.1725 -0.0200 -0.4700
v 0.0862 -0.0115 -0.4700
v -0.1500 0.0000 -0.1100
v -0.0750 0.0085 -0.1100
v -0.0788 0.0018 -0.2300
v -0.1500 0.0000 -0.1100
v -0.0788 0.0018 -0.2300
v -0.1575 -0.0067 -0.2300
v -0.0750 0.0085 -0.1100
v 0.0000 0.0120 -0.1100
v 0.0000 0.0053 -0.2300
v -0.0750 0.0085 -0.1100
v 0.0000 0.0053 -0.2300
v -0.0788 0.0018 -0.2300
v 0.0000 0.0120 -0.1100
v 0.0750 0.0085 -0.1100
v 0.0788 0.0018 -0.2300
v 0.0000 0.0120 -0.1100
v 0.0788 0.0018 -0.2300
v 0.0000 0.0053 -0.2300
v 0.0750 0.0085 -0.1100
v 0.1500 0.0000 -0.1100
v 0.1575 -0.0067 -0.2300
v 0.0750 0.0085 -0.1100
v 0.1575 -0.0067 -0.2300
v 0.0788 0.0018 -0.2300
v -0.1575 -0.0067 -0.2300
v -0.0788 0.0018 -0.2300
v -0.0825 -0.0048 -0.3500
v -0.1575 -0.0067 -0.2300
v -0.0825 -0.0048 -0.3500
v -0.1650 -0.0133 -0.3500
v -0.0788 0.0018 -0.2300
v 0.0000 0.0053 -0.2300
v 0.0000 -0.0013 -0.3500
v -0.0788 0.0018 -0.2300
v 0.0000 -0.0013 -0.3500
v -0.0825 -0.0048 -0.3500
v 0.0000 0.0053 -0.2300
v 0.0788 0.0018 -0.2300
v 0.0825 -0.0048 -0.3500
v 0.0000 0.0053 -0.2300
v 0.0825 -0.0048 -0.3500
v 0.0000 -0.0013 -0.3500
v 0.0788 0.0018 -0.2300
v 0.1575 -0.0067 -0.2300
v 0.1650 -0.0133 -0.3500
v 0.0788 0.0018 -0.2300
v 0.1650 -0.0133 -0.3500
v 0.0825 -0.0048 -0.3500
v -0.1650 -0.0133 -0.3500
v -0.0825 -0.0048 -0.3500
v -0.0862 -0.0115 -0.4700
v -0.1650 -0.0133 -0.3500
v -0.0862 -0.0115 -0.4700
v -0.1725 -0.0200 -0.4700
v -0.0825 -0.0048 -0.3500
v 0.0000 -0.0013 -0.3500
v 0.0000 -0.0080 -0.4700
v -0.0825 -0.0048 -0.3500
v 0.0000 -0.0080 -0.4700
v -0.0862 -0.0115 -0.4700
v 0.0000 -0.0013 -0.3500
v 0.0825 -0.0048 -0.3500
v 0.0862 -0.0115 -0.4700
v 0.0000 -0.0013 -0.3500
v 0.0862 -0.0115 -0.4700
v 0.0000 -0.0080 -0.4700
v 0.0825 -0.0048 -0.3500
v 0.1650 -0.0133 -0.3500
v 0.1725 -0.0200 -0.4700
v 0.0825 -0.0048 -0.3500
v 0.1725 -0.0200 -0.4700
v 0.0862 -0.0115 -0.4700
v 0.0000 -0.0200 -0.1300
v 0.1117 -0.0200 -0.1052
v 0.1284 -0.1000 -0.1262
v 0.0000 -0.0200 -0.1300
v 0.1284 -0.1000 -0.1262
v 0.0000 -0.1000 -0.1560
v 0.1117 -0.0200 -0.1052
v 0.1807 -0.0200 -0.0402
v 0.2078 -0.1000 -0.0482
v 0.1117 -0.0200 -0.1052
v 0.2078 -0.1000 -0.0482
v 0.1284 -0.1000 -0.1262
v 0.1807 -0.0200 -0.0402
v 0.1807 -0.0200 0.0402
v 0.2078 -0.1000 0.0482
v 0.1807 -0.0200 -0.0402
v 0.2078 -0.1000 0.0482
v 0.2078 -0.1000 -0.0482
v 0.1807 -0.0200 0.0402
v 0.1117 -0.0200 0.1052
v 0.1284 -0.1000 0.1262
v 0.1807 -0.0200 0.0402
v 0.1284 -0.1000 0.1262
v 0.2078 -0.1000 0.0482
v 0.1117 -0.0200 0.1052
v 0.0000 -0.0200 0.1300
v 0.0000 -0.1000 0.1560
v 0.1117 -0.0200 0.1052
v 0.0000 -0.1000 0.1560
v 0.1284 -0.1000 0.1262
v 0.0000 -0.0200 0.1300
v -0.1117 -0.0200 0.1052
v -0.1284 -0.1000 0.1262
v 0.0000 -0.0200 0.1300
v -0.1284 -0.1000 0.1262
v 0.0000 -0.1000 0.1560
v -0.1117 -0.0200 0.1052
v -0.1807 -0.0200 0.0402
v -0.2078 -0.1000 0.0482
v -0.1117 -0.0200 0.1052
v -0.2078 -0.1000 0.0482
v -0.1284 -0.1000 0.1262
v -0.1807 -0.0200 0.0402
v -0.1807 -0.0200 -0.0402
v -0.2078 -0.1000 -0.0482
v -0.1807 -0.0200 0.0402
v -0.2078 -0.1000 -0.0482
v -0.2078 -0.1000 0.0482
v -0.1807 -0.0200 -0.0402
v -0.1117 -0.0200 -0.1052
v -0.1284 -0.1000 -0.1262
v -0.1807 -0.0200 -0.0402
v -0.1284 -0.1000 -0.1262
v -0.2078 -0.1000 -0.0482
v -0.1117 -0.0200 -0.1052
v -0.0000 -0.0200 -0.1300
v -0.0000 -0.1000 -0.1560
v -0.1117 -0.0200 -0.1052
v -0.0000 -0.1000 -0.1560
v -0.1284 -0.1000 -0.1262
v 0.0000 -0.0200 -0.1300
v 0.1117 -0.0200 -0.1052
v 0.1284 -0.1000 -0.1262
v 0.0000 -0.0200 -0.1300
v 0.1284 -0.1000 -0.1262
v 0.0000 -0.1000 -0.1560
v 0.1117 -0.0200 -0.1052
v 0.1807 -0.0200 -0.0402
v 0.2078 -0.1000 -0.0482
v 0.1117 -0.0200 -0.1052
v 0.2078 -0.1000 -0.0482
v 0.1284 -0.1000 -0.1262
v 0.1807 -0.0200 -0.0402
v 0.1807 -0.0200 0.0402
v 0.2078 -0.1000 0.0482
v 0.1807 -0.0200 -0.0402
v 0.2078 -0.1000 0.0482
v 0.2078 -0.1000 -0.0482
v 0.1807 -0.0200 0.0402
v 0.1117 -0.0200 0.1052
v 0.1284 -0.1000 0.1262
v 0.1807 -0.0200 0.0402
v 0.1284 -0.1000 0.1262
v 0.2078 -0.1000 0.0482
v 0.1117 -0.0200 0.1052
v 0.0000 -0.0200 0.1300
v 0.0000 -0.1000 0.1560
v 0.1117 -0.0200 0.1052
v 0.0000 -0.1000 0.1560
v 0.1284 -0.1000 0.1262
v 0.0000 -0.0200 0.1300
v -0.1117 -0.0200 0.1052
v -0.1284 -0.1000 0.1262
v 0.0000 -0.0200 0.1300
v -0.1284 -0.1000 0.1262
v 0.0000 -0.1000 0.1560
v -0.1117 -0.0200 0.1052
v -0.1807 -0.0200 0.0402
v -0.2078 -0.1000 0.0482
v -0.1117 -0.0200 0.1052
v -0.2078 -0.1000 0.0482
v -0.1284 -0.1000 0.1262
v -0.1807 -0.0200 0.0402
v -0.1807 -0.0200 -0.0402
v -0.2078 -0.1000 -0.0482
v -0.1807 -0.0200 0.0402
v -0.2078 -0.1000 -0.0482
v -0.2078 -0.1000 0.0482
v -0.1807 -0.0200 -0.0402
v -0.1117 -0.0200 -0.1052
v -0.1284 -0.1000 -0.1262
v -0.1807 -0.0200 -0.0402
v -0.1284 -0.1000 -0.1262
v -0.2078 -0.1000 -0.0482
v -0.1117 -0.0200 -0.1052
v -0.0000 -0.0200 -0.1300
v -0.0000 -0.1000 -0.1560
v -0.1117 -0.0200 -0.1052
v -0.0000 -0.1000 -0.1560
v -0.1284 -0.1000 -0.1262
vt 0.0000 0.0000
vt 0.1243 0.0000
vt 0.1243 0.0951
vt 0.0000 0.0000
vt 0.1243 0.0951
vt 0.0000 0.0951
vt 0.1243 0.0000
vt 0.1950 0.0000
vt 0.1950 0.0951
vt 0.1243 0.0000
vt 0.1950 0.0951
vt 0.1243 0.0951
vt 0.1950 0.0000
vt 0.3001 0.0000
vt 0.3001 0.0951
vt 0.1950 0.0000
vt 0.3001 0.0951
vt 0.1950 0.0951
vt 0.3001 0.0000
vt 0.3708 0.0000
vt 0.3708 0.0951
vt 0.3001 0.0000
vt 0.3708 0.0951
vt 0.3001 0.0951
vt 0.3708 0.0000
vt 0.4951 0.0000
vt 0.4951 0.0951
vt 0.3708 0.0000
vt 0.4951 0.0951
vt 0.3708 0.0951
vt 0.4951 0.0000
vt 0.6195 0.0000
vt 0.6195 0.0951
vt 0.4951 0.0000
vt 0.6195 0.0951
vt 0.4951 0.0951
vt 0.6195 0.0000
vt 0.6901 0.0000
vt 0.6901 0.0951
vt 0.6195 0.0000
vt 0.6901 0.0951
vt 0.6195 0.0951
vt 0.6901 0.0000
vt 0.7952 0.0000
vt 0.7952 0.0951
vt 0.6901 0.0000
vt 0.7952 0.0951
vt 0.6901 0.0951
vt 0.7952 0.0000
vt 0.8659 0.0000
vt 0.8659 0.0951
vt 0.7952 0.0000
vt 0.8659 0.0951
vt 0.7952 0.0951
vt 0.8659 0.0000
vt 0.9902 0.0000
vt 0.9902 0.0951
vt 0.8659 0.0000
vt 0.9902 0.0951
vt 0.8659 0.0951
vt 0.0000 0.0951
vt 0.1243 0.0951
vt 0.1243 0.1901
vt 0.0000 0.0951
vt 0.1243 0.1901
vt 0.0000 0.1901
vt 0.1243 0.0951
vt 0.1950 0.0951
vt 0.1950 0.1901
vt 0.1243 0.0951
vt 0.1950 0.1901
vt 0.1243 0.1901
vt 0.1950 0.0951
vt 0.3001 0.0951
vt 0.3001 0.1901
vt 0.1950 0.0951
vt 0.3001 0.1901
vt 0.1950 0.1901
vt 0.3001 0.0951
vt 0.3708 0.0951
vt 0.3708 0.1901
vt 0.3001 0.0951
vt 0.3708 0.1901
vt 0.3001 0.1901
vt 0.3708 0.0951
vt 0.4951 0.0951
vt 0.4951 0.1901
vt 0.3708 0.0951
vt 0.4951 0.1901
vt 0.3708 0.1901
vt 0.4951 0.0951
vt 0.6195 0.0951
vt 0.6195 0.1901
vt 0.4951 0.0951
vt 0.6195 0.1901
vt 0.4951 0.1901
vt 0.6195 0.0951
vt 0.6901 0.0951
vt 0.6901 0.1901
vt 0.6195 0.0951
vt 0.6901 0.1901
vt 0.6195 0.1901
vt 0.6901 0.0951
vt 0.7952 0.0951
vt 0.7952 0.1901
vt 0.6901 0.0951
vt 0.7952 0.1901
vt 0.6901 0.1901
vt 0.7952 0.0951
vt 0.8659 0.0951
vt 0.8659 0.1901
vt 0.7952 0.0951
vt 0.8659 0.1901
vt 0.7952 0.1901
vt 0.8659 0.0951
vt 0.9902 0.0951
vt 0.9902 0.1901
vt 0.8659 0.0951
vt 0.9902 0.1901
vt 0.8659 0.1901
vt 0.0000 0.1901
vt 0.1243 0.1901
vt 0.1243 0.2851
vt 0.0000 0.1901
vt 0.1243 0.2851
vt 0.0000 0.2851
vt 0.1243 0.1901
vt 0.1950 0.1901
vt 0.1950 0.2851
vt 0.1243 0.1901
vt 0.1950 0.2851
vt 0.1243 0.2851
vt 0.1950 0.1901
vt 0.3001 0.1901
vt 0.3001 0.2851
vt 0.1950 0.1901
vt 0.3001 0.2851
vt 0.1950 0.2851
vt 0.3001 0.1901
vt 0.3708 0.1901
vt 0.3708 0.2851
vt 0.3001 0.1901
vt 0.3708 0.2851
vt 0.3001 0.2851
vt 0.3708 0.1901
vt 0.4951 0.1901
vt 0.4951 0.2851
vt 0.3708 0.1901
vt 0.4951 0.2851
vt 0.3708 0.2851
vt 0.4951 0.1901
vt 0.6195 0.1901
vt 0.6195 0.2851
vt 0.4951 0.1901
vt 0.6195 0.2851
vt 0.4951 0.2851
vt 0.6195 0.1901
vt 0.6901 0.1901
vt 0.6901 0.2851
vt 0.6195 0.1901
vt 0.6901 0.2851
vt 0.6195 0.2851
vt 0.6901 0.1901
vt 0.7952 0.1901
vt 0.7952 0.2851
vt 0.6901 0.1901
vt 0.7952 0.2851
vt 0.6901 0.2851
vt 0.7952 0.1901
vt 0.8659 0.1901
vt 0.8659 0.2851
vt 0.7952 0.1901
vt 0.8659 0.2851
vt 0.7952 0.2851
vt 0.8659 0.1901
vt 0.9902 0.1901
vt 0.9902 0.2851
vt 0.8659 0.1901
vt 0.9902 0.2851
vt 0.8659 0.2851
vt 0.0000 0.2851
vt 0.1243 0.2851
vt 0.1243 0.3801
vt 0.0000 0.2851
vt 0.1243 0.3801
vt 0.0000 0.3801
vt 0.1243 0.2851
vt 0.1950 0.2851
vt 0.1950 0.3801
vt 0.1243 0.2851
vt 0.1950 0.3801
vt 0.1243 0.3801
vt 0.1950 0.2851
vt 0.3001 0.2851
vt 0.3001 0.3801
vt 0.1950 0.2851
vt 0.3001 0.3801
vt 0.1950 0.3801
vt 0.3001 0.2851
vt 0.3708 0.2851
vt 0.3708 0.3801
vt 0.3001 0.2851
vt 0.3708 0.3801
vt 0.3001 0.3801
vt 0.3708 0.2851
vt 0.4951 0.2851
vt 0.4951 0.3801
vt 0.3708 0.2851
vt 0.4951 0.3801
vt 0.3708 0.3801
vt 0.4951 0.2851
vt 0.6195 0.2851
vt 0.6195 0.3801
vt 0.4951 0.2851
vt 0.6195 0.3801
vt 0.4951 0.3801
vt 0.6195 0.2851
vt 0.6901 0.2851
vt 0.6901 0.3801
vt 0.6195 0.2851
vt 0.6901 0.3801
vt 0.6195 0.3801
vt 0.6901 0.2851
vt 0.7952 0.2851
vt 0.7952 0.3801
vt 0.6901 0.2851
vt 0.7952 0.3801
vt 0.6901 0.3801
vt 0.7952 0.2851
vt 0.8659 0.2851
vt 0.8659 0.3801
vt 0.7952 0.2851
vt 0.8659 0.3801
vt 0.7952 0.3801
vt 0.8659 0.2851
vt 0.9902 0.2851
vt 0.9902 0.3801
vt 0.8659 0.2851
vt 0.9902 0.3801
vt 0.8659 0.3801
vt 0.0000 0.3801
vt 0.1243 0.3801
vt 0.1243 0.4754
vt 0.0000 0.3801
vt 0.1243 0.4754
vt 0.0000 0.4754
vt 0.1243 0.3801
vt 0.1950 0.3801
vt 0.1950 0.4754
vt 0.1243 0.3801
vt 0.1950 0.4754
vt 0.1243 0.4754
vt 0.1950 0.3801
vt 0.3001 0.3801
vt 0.3001 0.4754
vt 0.1950 0.3801
vt 0.3001 0.4754
vt 0.1950 0.4754
vt 0.3001 0.3801
vt 0.3708 0.3801
vt 0.3708 0.4754
vt 0.3001 0.3801
vt 0.3708 0.4754
vt 0.3001 0.4754
vt 0.3708 0.3801
vt 0.4951 0.3801
vt 0.4951 0.4754
vt 0.3708 0.3801
vt 0.4951 0.4754
vt 0.3708 0.4754
vt 0.4951 0.3801
vt 0.6195 0.3801
vt 0.6195 0.4754
vt 0.4951 0.3801
vt 0.6195 0.4754
vt 0.4951 0.4754
vt 0.6195 0.3801
vt 0.6901 0.3801
vt 0.6901 0.4754
vt 0.6195 0.3801
vt 0.6901 0.4754
vt 0.6195 0.4754
vt 0.6901 0.3801
vt 0.7952 0.3801
vt 0.7952 0.4754
vt 0.6901 0.3801
vt 0.7952 0.4754
vt 0.6901 0.4754
vt 0.7952 0.3801
vt 0.8659 0.3801
vt 0.8659 0.4754
vt 0.7952 0.3801
vt 0.8659 0.4754
vt 0.7952 0.4754
vt 0.8659 0.3801
vt 0.9902 0.3801
vt 0.9902 0.4754
vt 0.8659 0.3801
vt 0.9902 0.4754
vt 0.8659 0.4754
vt 0.0000 0.4754
vt 0.1243 0.4754
vt 0.1243 0.5769
vt 0.0000 0.4754
vt 0.1243 0.5769
vt 0.0000 0.5769
vt 0.1243 0.4754
vt 0.1950 0.4754
vt 0.1950 0.5769
vt 0.1243 0.4754
vt 0.1950 0.5769
vt 0.1243 0.5769
vt 0.1950 0.4754
vt 0.3001 0.4754
vt 0.3001 0.5769
vt 0.1950 0.4754
vt 0.3001 0.5769
vt 0.1950 0.5769
vt 0.3001 0.4754
vt 0.3708 0.4754
vt 0.3708 0.5769
vt 0.3001 0.4754
vt 0.3708 0.5769
vt 0.3001 0.5769
vt 0.3708 0.4754
vt 0.4951 0.4754
vt 0.4951 0.5769
vt 0.3708 0.4754
vt 0.4951 0.5769
vt 0.3708 0.5769
vt 0.4951 0.4754
vt 0.6195 0.4754
vt 0.6195 0.5769
vt 0.4951 0.4754
vt 0.6195 0.5769
vt 0.4951 0.5769
vt 0.6195 0.4754
vt 0.6901 0.4754
vt 0.6901 0.5769
vt 0.6195 0.4754
vt 0.6901 0.5769
vt 0.6195 0.5769
vt 0.6901 0.4754
vt 0.7952 0.4754
vt 0.7952 0.5769
vt 0.6901 0.4754
vt 0.7952 0.5769
vt 0.6901 0.5769
vt 0.7952 0.4754
vt 0.8659 0.4754
vt 0.8659 0.5769
vt 0.7952 0.4754
vt 0.8659 0.5769
vt 0.7952 0.5769
vt 0.8659 0.4754
vt 0.9902 0.4754
vt 0.9902 0.5769
vt 0.8659 0.4754
vt 0.9902 0.5769
vt 0.8659 0.5769
vt 0.0000 0.0000
vt 0.0792 0.0000
vt 0.0792 0.1202
vt 0.0000 0.0000
vt 0.0792 0.1202
vt 0.0000 0.1202
vt 0.0792 0.0000
vt 0.1580 0.0000
vt 0.1580 0.1202
vt 0.0792 0.0000
vt 0.1580 0.1202
vt 0.0792 0.1202
vt 0.1580 0.0000
vt 0.2369 0.0000
vt 0.2369 0.1202
vt 0.1580 0.0000
vt 0.2369 0.1202
vt 0.1580 0.1202
vt 0.2369 0.0000
vt 0.3161 0.0000
vt 0.3161 0.1202
vt 0.2369 0.0000
vt 0.3161 0.1202
vt 0.2369 0.1202
vt 0.0000 0.1202
vt 0.0792 0.1202
vt 0.0792 0.2404
vt 0.0000 0.1202
vt 0.0792 0.2404
vt 0.0000 0.2404
vt 0.0792 0.1202
vt 0.1580 0.1202
vt 0.1580 0.2404
vt 0.0792 0.1202
vt 0.1580 0.2404
vt 0.0792 0.2404
vt 0.1580 0.1202
vt 0.2369 0.1202
vt 0.2369 0.2404
vt 0.1580 0.1202
vt 0.2369 0.2404
vt 0.1580 0.2404
vt 0.2369 0.1202
vt 0.3161 0.1202
vt 0.3161 0.2404
vt 0.2369 0.1202
vt 0.3161 0.2404
vt 0.2369 0.2404
vt 0.0000 0.2404
vt 0.0792 0.2404
vt 0.0792 0.3606
vt 0.0000 0.2404
vt 0.0792 0.3606
vt 0.0000 0.3606
vt 0.0792 0.2404
vt 0.1580 0.2404
vt 0.1580 0.3606
vt 0.0792 0.2404
vt 0.1580 0.3606
vt 0.0792 0.3606
vt 0.1580 0.2404
vt 0.2369 0.2404
vt 0.2369 0.3606
vt 0.1580 0.2404
vt 0.2369 0.3606
vt 0.1580 0.3606
vt 0.2369 0.2404
vt 0.3161 0.2404
vt 0.3161 0.3606
vt 0.2369 0.2404
vt 0.3161 0.3606
vt 0.2369 0.3606
vt 0.0000 0.0000
vt 0.0792 0.0000
vt 0.0792 0.1202
vt 0.0000 0.0000
vt 0.0792 0.1202
vt 0.0000 0.1202
vt 0.0792 0.0000
vt 0.1580 0.0000
vt 0.1580 0.1202
vt 0.0792 0.0000
vt 0.1580 0.1202
vt 0.0792 0.1202
vt 0.1580 0.0000
vt 0.2369 0.0000
vt 0.2369 0.1202
vt 0.1580 0.0000
vt 0.2369 0.1202
vt 0.1580 0.1202
vt 0.2369 0.0000
vt 0.3161 0.0000
vt 0.3161 0.1202
vt 0.2369 0.0000
vt 0.3161 0.1202
vt 0.2369 0.1202
vt 0.0000 0.1202
vt 0.0792 0.1202
vt 0.0792 0.2404
vt 0.0000 0.1202
vt 0.0792 0.2404
vt 0.0000 0.2404
vt 0.0792 0.1202
vt 0.1580 0.1202
vt 0.1580 0.2404
vt 0.0792 0.1202
vt 0.1580 0.2404
vt 0.0792 0.2404
vt 0.1580 0.1202
vt 0.2369 0.1202
vt 0.2369 0.2404
vt 0.1580 0.1202
vt 0.2369 0.2404
vt 0.1580 0.2404
vt 0.2369 0.1202
vt 0.3161 0.1202
vt 0.3161 0.2404
vt 0.2369 0.1202
vt 0.3161 0.2404
vt 0.2369 0.2404
vt 0.0000 0.2404
vt 0.0792 0.2404
vt 0.0792 0.3606
vt 0.0000 0.2404
vt 0.0792 0.3606
vt 0.0000 0.3606
vt 0.0792 0.2404
vt 0.1580 0.2404
vt 0.1580 0.3606
vt 0.0792 0.2404
vt 0.1580 0.3606
vt 0.0792 0.3606
vt 0.1580 0.2404
vt 0.2369 0.2404
vt 0.2369 0.3606
vt 0.1580 0.2404
vt 0.2369 0.3606
vt 0.1580 0.3606
vt 0.2369 0.2404
vt 0.3161 0.2404
vt 0.3161 0.3606
vt 0.2369 0.2404
vt 0.3161 0.3606
vt 0.2369 0.3606
vt 0.0000 0.0000
vt 0.1144 0.0000
vt 0.1144 0.0841
vt 0.0000 0.0000
vt 0.1144 0.0841
vt 0.0000 0.0841
vt 0.1144 0.0000
vt 0.2092 0.0000
vt 0.2092 0.0841
vt 0.1144 0.0000
vt 0.2092 0.0841
vt 0.1144 0.0841
vt 0.2092 0.0000
vt 0.2896 0.0000
vt 0.2896 0.0841
vt 0.2092 0.0000
vt 0.2896 0.0841
vt 0.2092 0.0841
vt 0.2896 0.0000
vt 0.3844 0.0000
vt 0.3844 0.0841
vt 0.2896 0.0000
vt 0.3844 0.0841
vt 0.2896 0.0841
vt 0.3844 0.0000
vt 0.4988 0.0000
vt 0.4988 0.0841
vt 0.3844 0.0000
vt 0.4988 0.0841
vt 0.3844 0.0841
vt 0.4988 0.0000
vt 0.6132 0.0000
vt 0.6132 0.0841
vt 0.4988 0.0000
vt 0.6132 0.0841
vt 0.4988 0.0841
vt 0.6132 0.0000
vt 0.7080 0.0000
vt 0.7080 0.0841
vt 0.6132 0.0000
vt 0.7080 0.0841
vt 0.6132 0.0841
vt 0.7080 0.0000
vt 0.7883 0.0000
vt 0.7883 0.0841
vt 0.7080 0.0000
vt 0.7883 0.0841
vt 0.7080 0.0841
vt 0.7883 0.0000
vt 0.8831 0.0000
vt 0.8831 0.0841
vt 0.7883 0.0000
vt 0.8831 0.0841
vt 0.7883 0.0841
vt 0.8831 0.0000
vt 0.9976 0.0000
vt 0.9976 0.0841
vt 0.8831 0.0000
vt 0.9976 0.0841
vt 0.8831 0.0841
vt 0.0000 0.0000
vt 0.1144 0.0000
vt 0.1144 0.0841
vt 0.0000 0.0000
vt 0.1144 0.0841
vt 0.0000 0.0841
vt 0.1144 0.0000
vt 0.2092 0.0000
vt 0.2092 0.0841
vt 0.1144 0.0000
vt 0.2092 0.0841
vt 0.1144 0.0841
vt 0.2092 0.0000
vt 0.2896 0.0000
vt 0.2896 0.0841
vt 0.2092 0.0000
vt 0.2896 0.0841
vt 0.2092 0.0841
vt 0.2896 0.0000
vt 0.3844 0.0000
vt 0.3844 0.0841
vt 0.2896 0.0000
vt 0.3844 0.0841
vt 0.2896 0.0841
vt 0.3844 0.0000
vt 0.4988 0.0000
vt 0.4988 0.0841
vt 0.3844 0.0000
vt 0.4988 0.0841
vt 0.3844 0.0841
vt 0.4988 0.0000
vt 0.6132 0.0000
vt 0.6132 0.0841
vt 0.4988 0.0000
vt 0.6132 0.0841
vt 0.4988 0.0841
vt 0.6132 0.0000
vt 0.7080 0.0000
vt 0.7080 0.0841
vt 0.6132 0.0000
vt 0.7080 0.0841
vt 0.6132 0.0841
vt 0.7080 0.0000
vt 0.7883 0.0000
vt 0.7883 0.0841
vt 0.7080 0.0000
vt 0.7883 0.0841
vt 0.7080 0.0841
vt 0.7883 0.0000
vt 0.8831 0.0000
vt 0.8831 0.0841
vt 0.7883 0.0000
vt 0.8831 0.0841
vt 0.7883 0.0841
vt 0.8831 0.0000
vt 0.9976 0.0000
vt 0.9976 0.0841
vt 0.8831 0.0000
vt 0.9976 0.0841
vt 0.8831 0.0841
vn -0.140 -0.044 0.989
vn -0.140 -0.044 0.989
vn -0.140 -0.044 0.989
vn -0.138 -0.046 0.989
vn -0.138 -0.046 0.989
vn -0.138 -0.046 0.989
vn -0.733 -0.047 0.679
vn -0.733 -0.047 0.679
vn -0.733 -0.047 0.679
vn -0.729 -0.051 0.682
vn -0.729 -0.051 0.682
vn -0.729 -0.051 0.682
vn -0.999 -0.045 0.000
vn -0.999 -0.045 0.000
vn -0.999 -0.045 0.000
vn -0.999 -0.045 0.000
vn -0.999 -0.045 0.000
vn -0.999 -0.045 0.000
vn -0.733 -0.051 -0.678
vn -0.733 -0.051 -0.678
vn -0.733 -0.051 -0.678
vn -0.729 -0.047 -0.683
vn -0.729 -0.047 -0.683
vn -0.729 -0.047 -0.683
vn -0.140 -0.046 -0.989
vn -0.140 -0.046 -0.989
vn -0.140 -0.046 -0.989
vn -0.138 -0.044 -0.989
vn -0.138 -0.044 -0.989
vn -0.138 -0.044 -0.989
vn 0.140 -0.044 -0.989
vn 0.140 -0.044 -0.989
vn 0.140 -0.044 -0.989
vn 0.138 -0.046 -0.989
vn 0.138 -0.046 -0.989
vn 0.138 -0.046 -0.989
vn 0.733 -0.047 -0.679
vn 0.733 -0.047 -0.679
vn 0.733 -0.047 -0.679
vn 0.729 -0.051 -0.682
vn 0.729 -0.051 -0.682
vn 0.729 -0.051 -0.682
vn 0.999 -0.045 -0.000
vn 0.999 -0.045 -0.000
vn 0.999 -0.045 -0.000
vn 0.999 -0.045 -0.000
vn 0.999 -0.045 -0.000
vn 0.999 -0.045 -0.000
vn 0.733 -0.051 0.678
vn 0.733 -0.051 0.678
vn 0.733 -0.051 0.678
vn 0.729 -0.047 0.683
vn 0.729 -0.047 0.683
vn 0.729 -0.047 0.683
vn 0.140 -0.046 0.989
vn 0.140 -0.046 0.989
vn 0.140 -0.046 0.989
vn 0.138 -0.044 0.989
vn 0.138 -0.044 0.989
vn 0.138 -0.044 0.989
vn -0.138 0.026 0.990
vn -0.138 0.026 0.990
vn -0.138 0.026 0.990
vn -0.136 0.024 0.990
vn -0.136 0.024 0.990
vn -0.136 0.024 0.990
vn -0.729 0.040 0.683
vn -0.729 0.040 0.683
vn -0.729 0.040 0.683
vn -0.725 0.035 0.688
vn -0.725 0.035 0.688
vn -0.725 0.035 0.688
vn -0.999 0.037 0.000
vn -0.999 0.037 0.000
vn -0.999 0.037 0.000
vn -0.999 0.037 0.000
vn -0.999 0.037 0.000
vn -0.999 0.037 0.000
vn -0.730 0.015 -0.683
vn -0.730 0.015 -0.683
vn -0.730 0.015 -0.683
vn -0.725 0.019 -0.689
vn -0.725 0.019 -0.689
vn -0.725 0.019 -0.689
vn -0.138 -0.006 -0.990
vn -0.138 -0.006 -0.990
vn -0.138 -0.006 -0.990
vn -0.136 -0.003 -0.991
vn -0.136 -0.003 -0.991
vn -0.136 -0.003 -0.991
vn 0.138 -0.003 -0.990
vn 0.138 -0.003 -0.990
vn 0.138 -0.003 -0.990
vn 0.136 -0.006 -0.991
vn 0.136 -0.006 -0.991
vn 0.136 -0.006 -0.991
vn 0.730 0.020 -0.683
vn 0.730 0.020 -0.683
vn 0.730 0.020 -0.683
vn 0.725 0.014 -0.689
vn 0.725 0.014 -0.689
vn 0.725 0.014 -0.689
vn 0.999 0.037 -0.000
vn 0.999 0.037 -0.000
vn 0.999 0.037 -0.000
vn 0.999 0.037 -0.000
vn 0.999 0.037 -0.000
vn 0.999 0.037 -0.000
vn 0.730 0.035 0.683
vn 0.730 0.035 0.683
vn 0.730 0.035 0.683
vn 0.724 0.040 0.688
vn 0.724 0.040 0.688
vn 0.724 0.040 0.688
vn 0.138 0.024 0.990
vn 0.138 0.024 0.990
vn 0.138 0.024 0.990
vn 0.136 0.026 0.990
vn 0.136 0.026 0.990
vn 0.136 0.026 0.990
vn -0.136 0.071 0.988
vn -0.136 0.071 0.988
vn -0.136 0.071 0.988
vn -0.132 0.066 0.989
vn -0.132 0.066 0.989
vn -0.132 0.066 0.989
vn -0.721 0.103 0.685
vn -0.721 0.103 0.685
vn -0.721 0.103 0.685
vn -0.712 0.093 0.696
vn -0.712 0.093 0.696
vn -0.712 0.093 0.696
vn -0.995 0.097 0.000
vn -0.995 0.097 0.000
vn -0.995 0.097 0.000
vn -0.995 0.097 0.000
vn -0.995 0.097 0.000
vn -0.995 0.097 0.000
vn -0.724 0.047 -0.688
vn -0.724 0.047 -0.688
vn -0.724 0.047 -0.688
vn -0.714 0.056 -0.698
vn -0.714 0.056 -0.698
vn -0.714 0.056 -0.698
vn -0.136 0.000 -0.991
vn -0.136 0.000 -0.991
vn -0.136 0.000 -0.991
vn -0.133 0.005 -0.991
vn -0.133 0.005 -0.991
vn -0.133 0.005 -0.991
vn 0.136 0.005 -0.991
vn 0.136 0.005 -0.991
vn 0.136 0.005 -0.991
vn 0.133 -0.000 -0.991
vn 0.133 -0.000 -0.991
vn 0.133 -0.000 -0.991
vn 0.724 0.057 -0.688
vn 0.724 0.057 -0.688
vn 0.724 0.057 -0.688
vn 0.715 0.046 -0.698
vn 0.715 0.046 -0.698
vn 0.715 0.046 -0.698
vn 0.995 0.097 -0.000
vn 0.995 0.097 -0.000
vn 0.995 0.097 -0.000
vn 0.995 0.097 -0.000
vn 0.995 0.097 -0.000
vn 0.995 0.097 -0.000
vn 0.722 0.093 0.686
vn 0.722 0.093 0.686
vn 0.722 0.093 0.686
vn 0.712 0.103 0.695
vn 0.712 0.103 0.695
vn 0.712 0.103 0.695
vn 0.136 0.066 0.988
vn 0.136 0.066 0.988
vn 0.136 0.066 0.988
vn 0.132 0.071 0.989
vn 0.132 0.071 0.989
vn 0.132 0.071 0.989
vn -0.132 -0.045 0.990
vn -0.132 -0.045 0.990
vn -0.132 -0.045 0.990
vn -0.121 -0.061 0.991
vn -0.121 -0.061 0.991
vn -0.121 -0.061 0.991
vn -0.715 0.047 0.698
vn -0.715 0.047 0.698
vn -0.715 0.047 0.698
vn -0.684 0.009 0.730
vn -0.684 0.009 0.730
vn -0.684 0.009 0.730
vn -0.995 0.102 0.000
vn -0.995 0.102 0.000
vn -0.995 0.102 0.000
vn -0.995 0.102 0.000
vn -0.995 0.102 0.000
vn -0.995 0.102 0.000
vn -0.715 0.040 -0.698
vn -0.715 0.040 -0.698
vn -0.715 0.040 -0.698
vn -0.682 0.070 -0.728
vn -0.682 0.070 -0.728
vn -0.682 0.070 -0.728
vn -0.133 -0.023 -0.991
vn -0.133 -0.023 -0.991
vn -0.133 -0.023 -0.991
vn -0.121 -0.008 -0.993
vn -0.121 -0.008 -0.993
vn -0.121 -0.008 -0.993
vn 0.133 -0.008 -0.991
vn 0.133 -0.008 -0.991
vn 0.133 -0.008 -0.991
vn 0.121 -0.023 -0.992
vn 0.121 -0.023 -0.992
vn 0.121 -0.023 -0.992
vn 0.713 0.073 -0.697
vn 0.713 0.073 -0.697
vn 0.713 0.073 -0.697
vn 0.683 0.037 -0.729
vn 0.683 0.037 -0.729
vn 0.683 0.037 -0.729
vn 0.995 0.102 -0.000
vn 0.995 0.102 -0.000
vn 0.995 0.102 -0.000
vn 0.995 0.102 -0.000
vn 0.995 0.102 -0.000
vn 0.995 0.102 -0.000
vn 0.715 0.013 0.699
vn 0.715 0.013 0.699
vn 0.715 0.013 0.699
vn 0.683 0.042 0.729
vn 0.683 0.042 0.729
vn 0.683 0.042 0.729
vn 0.132 -0.061 0.989
vn 0.132 -0.061 0.989
vn 0.132 -0.061 0.989
vn 0.121 -0.046 0.992
vn 0.121 -0.046 0.992
vn 0.121 -0.046 0.992
vn -0.120 -0.148 0.982
vn -0.120 -0.148 0.982
vn -0.120 -0.148 0.982
vn -0.110 -0.162 0.981
vn -0.110 -0.162 0.981
vn -0.110 -0.162 0.981
vn -0.681 -0.095 0.727
vn -0.681 -0.095 0.727
vn -0.681 -0.095 0.727
vn -0.647 -0.128 0.752
vn -0.647 -0.128 0.752
vn -0.647 -0.128 0.752
vn -0.999 -0.035 0.000
vn -0.999 -0.035 0.000
vn -0.999 -0.035 0.000
vn -0.999 -0.035 0.000
vn -0.999 -0.035 0.000
vn -0.999 -0.035 0.000
vn -0.682 -0.060 -0.729
vn -0.682 -0.060 -0.729
vn -0.682 -0.060 -0.729
vn -0.652 -0.029 -0.758
vn -0.652 -0.029 -0.758
vn -0.652 -0.029 -0.758
vn -0.121 -0.075 -0.990
vn -0.121 -0.075 -0.990
vn -0.121 -0.075 -0.990
vn -0.111 -0.061 -0.992
vn -0.111 -0.061 -0.992
vn -0.111 -0.061 -0.992
vn 0.121 -0.061 -0.991
vn 0.121 -0.061 -0.991
vn 0.121 -0.061 -0.991
vn 0.111 -0.075 -0.991
vn 0.111 -0.075 -0.991
vn 0.111 -0.075 -0.991
vn 0.683 -0.030 -0.730
vn 0.683 -0.030 -0.730
vn 0.683 -0.030 -0.730
vn 0.651 -0.061 -0.757
vn 0.651 -0.061 -0.757
vn 0.651 -0.061 -0.757
vn 0.999 -0.035 -0.000
vn 0.999 -0.035 -0.000
vn 0.999 -0.035 -0.000
vn 0.999 -0.035 0.000
vn 0.999 -0.035 0.000
vn 0.999 -0.035 0.000
vn 0.678 -0.124 0.724
vn 0.678 -0.124 0.724
vn 0.678 -0.124 0.724
vn 0.649 -0.096 0.755
vn 0.649 -0.096 0.755
vn 0.649 -0.096 0.755
vn 0.120 -0.161 0.980
vn 0.120 -0.161 0.980
vn 0.120 -0.161 0.980
vn 0.110 -0.148 0.983
vn 0.110 -0.148 0.983
vn 0.110 -0.148 0.983
vn -0.097 -0.500 0.861
vn -0.097 -0.500 0.861
vn -0.097 -0.500 0.861
vn -0.139 -0.480 0.866
vn -0.139 -0.480 0.866
vn -0.139 -0.480 0.866
vn -0.472 -0.691 0.548
vn -0.472 -0.691 0.548
vn -0.472 -0.691 0.548
vn -0.567 -0.681 0.463
vn -0.567 -0.681 0.463
vn -0.567 -0.681 0.463
vn -0.665 -0.747 0.000
vn -0.665 -0.747 0.000
vn -0.665 -0.747 0.000
vn -0.665 -0.747 0.000
vn -0.665 -0.747 0.000
vn -0.665 -0.747 0.000
vn -0.520 -0.604 -0.604
vn -0.520 -0.604 -0.604
vn -0.520 -0.604 -0.604
vn -0.564 -0.686 -0.461
vn -0.564 -0.686 -0.461
vn -0.564 -0.686 -0.461
vn -0.105 -0.349 -0.931
vn -0.105 -0.349 -0.931
vn -0.105 -0.349 -0.931
vn -0.145 -0.398 -0.906
vn -0.145 -0.398 -0.906
vn -0.145 -0.398 -0.906
vn 0.104 -0.370 -0.923
vn 0.104 -0.370 -0.923
vn 0.104 -0.370 -0.923
vn 0.148 -0.347 -0.926
vn 0.148 -0.347 -0.926
vn 0.148 -0.347 -0.926
vn 0.505 -0.633 -0.587
vn 0.505 -0.633 -0.587
vn 0.505 -0.633 -0.587
vn 0.600 -0.633 -0.490
vn 0.600 -0.633 -0.490
vn 0.600 -0.633 -0.490
vn 0.665 -0.747 0.000
vn 0.665 -0.747 0.000
vn 0.665 -0.747 0.000
vn 0.665 -0.747 -0.000
vn 0.665 -0.747 -0.000
vn 0.665 -0.747 -0.000
vn 0.486 -0.667 0.565
vn 0.486 -0.667 0.565
vn 0.486 -0.667 0.565
vn 0.533 -0.726 0.435
vn 0.533 -0.726 0.435
vn 0.533 -0.726 0.435
vn 0.098 -0.483 0.870
vn 0.098 -0.483 0.870
vn 0.098 -0.483 0.870
vn 0.135 -0.521 0.843
vn 0.135 -0.521 0.843
vn 0.135 -0.521 0.843
vn -0.112 0.992 -0.052
vn -0.112 0.992 -0.052
vn -0.112 0.992 -0.052
vn -0.107 0.993 -0.048
vn -0.107 0.993 -0.048
vn -0.107 0.993 -0.048
vn -0.047 0.997 -0.055
vn -0.047 0.997 -0.055
vn -0.047 0.997 -0.055
vn -0.045 0.998 -0.054
vn -0.045 0.998 -0.054
vn -0.045 0.998 -0.054
vn 0.047 0.997 -0.054
vn 0.047 0.997 -0.054
vn 0.047 0.997 -0.054
vn 0.045 0.997 -0.055
vn 0.045 0.997 -0.055
vn 0.045 0.997 -0.055
vn 0.112 0.993 -0.048
vn 0.112 0.993 -0.048
vn 0.112 0.993 -0.048
vn 0.107 0.993 -0.052
vn 0.107 0.993 -0.052
vn 0.107 0.993 -0.052
vn -0.107 0.993 -0.052
vn -0.107 0.993 -0.052
vn -0.107 0.993 -0.052
vn -0.102 0.994 -0.049
vn -0.102 0.994 -0.049
vn -0.102 0.994 -0.049
vn -0.045 0.997 -0.055
vn -0.045 0.997 -0.055
vn -0.045 0.997 -0.055
vn -0.043 0.998 -0.054
vn -0.043 0.998 -0.054
vn -0.043 0.998 -0.054
vn 0.045 0.998 -0.054
vn 0.045 0.998 -0.054
vn 0.045 0.998 -0.054
vn 0.042 0.998 -0.055
vn 0.042 0.998 -0.055
vn 0.042 0.998 -0.055
vn 0.107 0.993 -0.048
vn 0.107 0.993 -0.048
vn 0.107 0.993 -0.048
vn 0.102 0.993 -0.052
vn 0.102 0.993 -0.052
vn 0.102 0.993 -0.052
vn -0.102 0.993 -0.052
vn -0.102 0.993 -0.052
vn -0.102 0.993 -0.052
vn -0.098 0.994 -0.049
vn -0.098 0.994 -0.049
vn -0.098 0.994 -0.049
vn -0.042 0.998 -0.055
vn -0.042 0.998 -0.055
vn -0.042 0.998 -0.055
vn -0.041 0.998 -0.054
vn -0.041 0.998 -0.054
vn -0.041 0.998 -0.054
vn 0.043 0.998 -0.054
vn 0.043 0.998 -0.054
vn 0.043 0.998 -0.054
vn 0.041 0.998 -0.055
vn 0.041 0.998 -0.055
vn 0.041 0.998 -0.055
vn 0.102 0.994 -0.049
vn 0.102 0.994 -0.049
vn 0.102 0.994 -0.049
vn 0.098 0.994 -0.052
vn 0.098 0.994 -0.052
vn 0.098 0.994 -0.052
vn 0.112 -0.992 0.052
vn 0.112 -0.992 0.052
vn 0.112 -0.992 0.052
vn 0.107 -0.993 0.048
vn 0.107 -0.993 0.048
vn 0.107 -0.993 0.048
vn 0.047 -0.997 0.055
vn 0.047 -0.997 0.055
vn 0.047 -0.997 0.055
vn 0.045 -0.998 0.054
vn 0.045 -0.998 0.054
vn 0.045 -0.998 0.054
vn -0.047 -0.997 0.054
vn -0.047 -0.997 0.054
vn -0.047 -0.997 0.054
vn -0.045 -0.997 0.055
vn -0.045 -0.997 0.055
vn -0.045 -0.997 0.055
vn -0.112 -0.993 0.048
vn -0.112 -0.993 0.048
vn -0.112 -0.993 0.048
vn -0.107 -0.993 0.052
vn -0.107 -0.993 0.052
vn -0.107 -0.993 0.052
vn 0.107 -0.993 0.052
vn 0.107 -0.993 0.052
vn 0.107 -0.993 0.052
vn 0.102 -0.994 0.049
vn 0.102 -0.994 0.049
vn 0.102 -0.994 0.049
vn 0.045 -0.997 0.055
vn 0.045 -0.997 0.055
vn 0.045 -0.997 0.055
vn 0.043 -0.998 0.054
vn 0.043 -0.998 0.054
vn 0.043 -0.998 0.054
vn -0.045 -0.998 0.054
vn -0.045 -0.998 0.054
vn -0.045 -0.998 0.054
vn -0.042 -0.998 0.055
vn -0.042 -0.998 0.055
vn -0.042 -0.998 0.055
vn -0.107 -0.993 0.048
vn -0.107 -0.993 0.048
vn -0.107 -0.993 0.048
vn -0.102 -0.993 0.052
vn -0.102 -0.993 0.052
vn -0.102 -0.993 0.052
vn 0.102 -0.993 0.052
vn 0.102 -0.993 0.052
vn 0.102 -0.993 0.052
vn 0.098 -0.994 0.049
vn 0.098 -0.994 0.049
vn 0.098 -0.994 0.049
vn 0.042 -0.998 0.055
vn 0.042 -0.998 0.055
vn 0.042 -0.998 0.055
vn 0.041 -0.998 0.054
vn 0.041 -0.998 0.054
vn 0.041 -0.998 0.054
vn -0.043 -0.998 0.054
vn -0.043 -0.998 0.054
vn -0.043 -0.998 0.054
vn -0.041 -0.998 0.055
vn -0.041 -0.998 0.055
vn -0.041 -0.998 0.055
vn -0.102 -0.994 0.049
vn -0.102 -0.994 0.049
vn -0.102 -0.994 0.049
vn -0.098 -0.994 0.052
vn -0.098 -0.994 0.052
vn -0.098 -0.994 0.052
vn 0.208 0.289 -0.934
vn 0.208 0.289 -0.934
vn 0.208 0.289 -0.934
vn 0.215 0.302 -0.929
vn 0.215 0.302 -0.929
vn 0.215 0.302 -0.929
vn 0.656 0.292 -0.696
vn 0.656 0.292 -0.696
vn 0.656 0.292 -0.696
vn 0.665 0.317 -0.676
vn 0.665 0.317 -0.676
vn 0.665 0.317 -0.676
vn 0.947 0.321 -0.000
vn 0.947 0.321 -0.000
vn 0.947 0.321 -0.000
vn 0.947 0.321 -0.000
vn 0.947 0.321 -0.000
vn 0.947 0.321 -0.000
vn 0.650 0.318 0.690
vn 0.650 0.318 0.690
vn 0.650 0.318 0.690
vn 0.670 0.295 0.681
vn 0.670 0.295 0.681
vn 0.670 0.295 0.681
vn 0.207 0.302 0.930
vn 0.207 0.302 0.930
vn 0.207 0.302 0.930
vn 0.216 0.290 0.932
vn 0.216 0.290 0.932
vn 0.216 0.290 0.932
vn -0.208 0.289 0.934
vn -0.208 0.289 0.934
vn -0.208 0.289 0.934
vn -0.215 0.302 0.929
vn -0.215 0.302 0.929
vn -0.215 0.302 0.929
vn -0.656 0.292 0.696
vn -0.656 0.292 0.696
vn -0.656 0.292 0.696
vn -0.665 0.317 0.676
vn -0.665 0.317 0.676
vn -0.665 0.317 0.676
vn -0.947 0.321 0.000
vn -0.947 0.321 0.000
vn -0.947 0.321 0.000
vn -0.947 0.321 0.000
vn -0.947 0.321 0.000
vn -0.947 0.321 0.000
vn -0.650 0.318 -0.690
vn -0.650 0.318 -0.690
vn -0.650 0.318 -0.690
vn -0.670 0.295 -0.681
vn -0.670 0.295 -0.681
vn -0.670 0.295 -0.681
vn -0.207 0.302 -0.930
vn -0.207 0.302 -0.930
vn -0.207 0.302 -0.930
vn -0.216 0.290 -0.932
vn -0.216 0.290 -0.932
vn -0.216 0.290 -0.932
vn -0.208 -0.289 0.934
vn -0.208 -0.289 0.934
vn -0.208 -0.289 0.934
vn -0.215 -0.302 0.929
vn -0.215 -0.302 0.929
vn -0.215 -0.302 0.929
vn -0.656 -0.292 0.696
vn -0.656 -0.292 0.696
vn -0.656 -0.292 0.696
vn -0.665 -0.317 0.676
vn -0.665 -0.317 0.676
vn -0.665 -0.317 0.676
vn -0.947 -0.321 0.000
vn -0.947 -0.321 0.000
vn -0.947 -0.321 0.000
vn -0.947 -0.321 0.000
vn -0.947 -0.321 0.000
vn -0.947 -0.321 0.000
vn -0.650 -0.318 -0.690
vn -0.650 -0.318 -0.690
vn -0.650 -0.318 -0.690
vn -0.670 -0.295 -0.681
vn -0.670 -0.295 -0.681
vn -0.670 -0.295 -0.681
vn -0.207 -0.302 -0.930
vn -0.207 -0.302 -0.930
vn -0.207 -0.302 -0.930
vn -0.216 -0.290 -0.932
vn -0.216 -0.290 -0.932
vn -0.216 -0.290 -0.932
vn 0.208 -0.289 -0.934
vn 0.208 -0.289 -0.934
vn 0.208 -0.289 -0.934
vn 0.215 -0.302 -0.929
vn 0.215 -0.302 -0.929
vn 0.215 -0.302 -0.929
vn 0.656 -0.292 -0.696
vn 0.656 -0.292 -0.696
vn 0.656 -0.292 -0.696
vn 0.665 -0.317 -0.676
vn 0.665 -0.317 -0.676
vn 0.665 -0.317 -0.676
vn 0.947 -0.321 -0.000
vn 0.947 -0.321 -0.000
vn 0.947 -0.321 -0.000
vn 0.947 -0.321 -0.000
vn 0.947 -0.321 -0.000
vn 0.947 -0.321 -0.000
vn 0.650 -0.318 0.690
vn 0.650 -0.318 0.690
vn 0.650 -0.318 0.690
vn 0.670 -0.295 0.681
vn 0.670 -0.295 0.681
vn 0.670 -0.295 0.681
vn 0.207 -0.302 0.930
vn 0.207 -0.302 0.930
vn 0.207 -0.302 0.930
vn 0.216 -0.290 0.932
vn 0.216 -0.290 0.932
vn 0.216 -0.290 0.932
v 0.0700 0.5490 0.0120
v 0.0560 0.5350 0.0120
v 0.0700 0.5210 0.0120
v 0.0840 0.5350 0.0120
v 0.0700 0.5490 0.0120
v 0.0566 0.5490 0.0531
v 0.0453 0.5350 0.0449
v 0.0566 0.5210 0.0531
v 0.0680 0.5350 0.0614
v 0.0566 0.5490 0.0531
v 0.0216 0.5490 0.0786
v 0.0173 0.5350 0.0653
v 0.0216 0.5210 0.0786
v 0.0260 0.5350 0.0919
v 0.0216 0.5490 0.0786
v -0.0216 0.5490 0.0786
v -0.0173 0.5350 0.0653
v -0.0216 0.5210 0.0786
v -0.0260 0.5350 0.0919
v -0.0216 0.5490 0.0786
v -0.0566 0.5490 0.0531
v -0.0453 0.5350 0.0449
v -0.0566 0.5210 0.0531
v -0.0680 0.5350 0.0614
v -0.0566 0.5490 0.0531
v -0.0700 0.5490 0.0120
v -0.0560 0.5350 0.0120
v -0.0700 0.5210 0.0120
v -0.0840 0.5350 0.0120
v -0.0700 0.5490 0.0120
v -0.0566 0.5490 -0.0291
v -0.0453 0.5350 -0.0209
v -0.0566 0.5210 -0.0291
v -0.0680 0.5350 -0.0374
v -0.0566 0.5490 -0.0291
v -0.0216 0.5490 -0.0546
v -0.0173 0.5350 -0.0413
v -0.0216 0.5210 -0.0546
v -0.0260 0.5350 -0.0679
v -0.0216 0.5490 -0.0546
v 0.0216 0.5490 -0.0546
v 0.0173 0.5350 -0.0413
v 0.0216 0.5210 -0.0546
v 0.0260 0.5350 -0.0679
v 0.0216 0.5490 -0.0546
v 0.0566 0.5490 -0.0291
v 0.0453 0.5350 -0.0209
v 0.0566 0.5210 -0.0291
v 0.0680 0.5350 -0.0374
v 0.0566 0.5490 -0.0291
v 0.0700 0.5490 0.0120
v 0.0560 0.5350 0.0120
v 0.0700 0.5210 0.0120
v 0.0840 0.5350 0.0120
v 0.0700 0.5490 0.0120
v 0.0044 0.5265 -0.0764
v 0.0024 0.5200 -0.0674
v -0.0044 0.5135 -0.0736
v -0.0024 0.5200 -0.0826
v 0.0044 0.5265 -0.0764
v 0.0853 0.4658 -0.1014
v 0.0811 0.4609 -0.0921
v 0.0747 0.4542 -0.0986
v 0.0789 0.4591 -0.1079
v 0.0853 0.4658 -0.1014
v 0.1576 0.3818 -0.0818
v 0.1518 0.3802 -0.0722
v 0.1424 0.3782 -0.0782
v 0.1482 0.3798 -0.0878
v 0.1576 0.3818 -0.0818
v 0.1727 0.1006 -0.1120
v 0.1671 0.0993 -0.1023
v 0.1573 0.0994 -0.1080
v 0.1629 0.1007 -0.1177
v 0.1727 0.1006 -0.1120
v 0.0000 0.5200 -0.0750
v 0.0044 0.5265 -0.0764
v 0.0024 0.5200 -0.0674
v -0.0044 0.5135 -0.0736
v -0.0024 0.5200 -0.0826
v 0.1650 0.1000 -0.1100
v 0.1727 0.1006 -0.1120
v 0.1671 0.0993 -0.1023
v 0.1573 0.0994 -0.1080
v 0.1629 0.1007 -0.1177
v -0.1500 0.0030 -0.1100
v -0.0750 0.0115 -0.1100
v -0.0764 0.0091 -0.1532
v -0.1500 0.0030 -0.1100
v -0.0764 0.0091 -0.1532
v -0.1527 0.0006 -0.1532
v -0.0750 0.0115 -0.1100
v 0.0000 0.0150 -0.1100
v 0.0000 0.0126 -0.1532
v -0.0750 0.0115 -0.1100
v 0.0000 0.0126 -0.1532
v -0.0764 0.0091 -0.1532
v 0.0000 0.0150 -0.1100
v 0.0750 0.0115 -0.1100
v 0.0764 0.0091 -0.1532
v 0.0000 0.0150 -0.1100
v 0.0764 0.0091 -0.1532
v 0.0000 0.0126 -0.1532
v 0.0750 0.0115 -0.1100
v 0.1500 0.0030 -0.1100
v 0.1527 0.0006 -0.1532
v 0.0750 0.0115 -0.1100
v 0.1527 0.0006 -0.1532
v 0.0764 0.0091 -0.1532
v -0.1500 0.0030 -0.1100
v -0.0750 0.0115 -0.1100
v -0.0764 0.0091 -0.1532
v -0.1500 0.0030 -0.1100
v -0.0764 0.0091 -0.1532
v -0.1527 0.0006 -0.1532
v -0.0750 0.0115 -0.1100
v 0.0000 0.0150 -0.1100
v 0.0000 0.0126 -0.1532
v -0.0750 0.0115 -0.1100
v 0.0000 0.0126 -0.1532
v -0.0764 0.0091 -0.1532
v 0.0000 0.0150 -0.1100
v 0.0750 0.0115 -0.1100
v 0.0764 0.0091 -0.1532
v 0.0000 0.0150 -0.1100
v 0.0764 0.0091 -0.1532
v 0.0000 0.0126 -0.1532
v 0.0750 0.0115 -0.1100
v 0.1500 0.0030 -0.1100
v 0.1527 0.0006 -0.1532
v 0.0750 0.0115 -0.1100
v 0.1527 0.0006 -0.1532
v 0.0764 0.0091 -0.1532
v -0.1500 0.0030 -0.1100
v -0.1556 -0.0020 -0.2000
v -0.1183 0.0024 -0.2000
v -0.1500 0.0030 -0.1100
v -0.1183 0.0024 -0.2000
v -0.1140 0.0074 -0.1100
v -0.1556 -0.0020 -0.2000
v -0.1612 -0.0070 -0.2900
v -0.1225 -0.0026 -0.2900
v -0.1556 -0.0020 -0.2000
v -0.1225 -0.0026 -0.2900
v -0.1183 0.0024 -0.2000
v -0.1612 -0.0070 -0.2900
v -0.1669 -0.0120 -0.3800
v -0.1268 -0.0076 -0.3800
v -0.1612 -0.0070 -0.2900
v -0.1268 -0.0076 -0.3800
v -0.1225 -0.0026 -0.2900
v -0.1669 -0.0120 -0.3800
v -0.1725 -0.0170 -0.4700
v -0.1311 -0.0126 -0.4700
v -0.1669 -0.0120 -0.3800
v -0.1311 -0.0126 -0.4700
v -0.1268 -0.0076 -0.3800
v -0.1500 0.0030 -0.1100
v -0.1556 -0.0020 -0.2000
v -0.1183 0.0024 -0.2000
v -0.1500 0.0030 -0.1100
v -0.1183 0.0024 -0.2000
v -0.1140 0.0074 -0.1100
v -0.1556 -0.0020 -0.2000
v -0.1612 -0.0070 -0.2900
v -0.1225 -0.0026 -0.2900
v -0.1556 -0.0020 -0.2000
v -0.1225 -0.0026 -0.2900
v -0.1183 0.0024 -0.2000
v -0.1612 -0.0070 -0.2900
v -0.1669 -0.0120 -0.3800
v -0.1268 -0.0076 -0.3800
v -0.1612 -0.0070 -0.2900
v -0.1268 -0.0076 -0.3800
v -0.1225 -0.0026 -0.2900
v -0.1669 -0.0120 -0.3800
v -0.1725 -0.0170 -0.4700
v -0.1311 -0.0126 -0.4700
v -0.1669 -0.0120 -0.3800
v -0.1311 -0.0126 -0.4700
v -0.1268 -0.0076 -0.3800
v 0.1500 0.0030 -0.1100
v 0.1556 -0.0020 -0.2000
v 0.1183 0.0024 -0.2000
v 0.1500 0.0030 -0.1100
v 0.1183 0.0024 -0.2000
v 0.1140 0.0074 -0.1100
v 0.1556 -0.0020 -0.2000
v 0.1612 -0.0070 -0.2900
v 0.1225 -0.0026 -0.2900
v 0.1556 -0.0020 -0.2000
v 0.1225 -0.0026 -0.2900
v 0.1183 0.0024 -0.2000
v 0.1612 -0.0070 -0.2900
v 0.1669 -0.0120 -0.3800
v 0.1268 -0.0076 -0.3800
v 0.1612 -0.0070 -0.2900
v 0.1268 -0.0076 -0.3800
v 0.1225 -0.0026 -0.2900
v 0.1669 -0.0120 -0.3800
v 0.1725 -0.0170 -0.4700
v 0.1311 -0.0126 -0.4700
v 0.1669 -0.0120 -0.3800
v 0.1311 -0.0126 -0.4700
v 0.1268 -0.0076 -0.3800
v 0.1500 0.0030 -0.1100
v 0.1556 -0.0020 -0.2000
v 0.1183 0.0024 -0.2000
v 0.1500 0.0030 -0.1100
v 0.1183 0.0024 -0.2000
v 0.1140 0.0074 -0.1100
v 0.1556 -0.0020 -0.2000
v 0.1612 -0.0070 -0.2900
v 0.1225 -0.0026 -0.2900
v 0.1556 -0.0020 -0.2000
v 0.1225 -0.0026 -0.2900
v 0.1183 0.0024 -0.2000
v 0.1612 -0.0070 -0.2900
v 0.1669 -0.0120 -0.3800
v 0.1268 -0.0076 -0.3800
v 0.1612 -0.0070 -0.2900
v 0.1268 -0.0076 -0.3800
v 0.1225 -0.0026 -0.2900
v 0.1669 -0.0120 -0.3800
v 0.1725 -0.0170 -0.4700
v 0.1311 -0.0126 -0.4700
v 0.1669 -0.0120 -0.3800
v 0.1311 -0.0126 -0.4700
v 0.1268 -0.0076 -0.3800
vt 0.0000 0.0000
vt 0.0000 0.0220
vt 0.0000 0.0440
vt 0.0000 0.0660
vt 0.0000 0.0880
vt 0.0433 0.0000
vt 0.0433 0.0220
vt 0.0433 0.0440
vt 0.0433 0.0660
vt 0.0433 0.0880
vt 0.0865 0.0000
vt 0.0865 0.0220
vt 0.0865 0.0440
vt 0.0865 0.0660
vt 0.0865 0.0880
vt 0.1298 0.0000
vt 0.1298 0.0220
vt 0.1298 0.0440
vt 0.1298 0.0660
vt 0.1298 0.0880
vt 0.1730 0.0000
vt 0.1730 0.0220
vt 0.1730 0.0440
vt 0.1730 0.0660
vt 0.1730 0.0880
vt 0.2163 0.0000
vt 0.2163 0.0220
vt 0.2163 0.0440
vt 0.2163 0.0660
vt 0.2163 0.0880
vt 0.2596 0.0000
vt 0.2596 0.0220
vt 0.2596 0.0440
vt 0.2596 0.0660
vt 0.2596 0.0880
vt 0.3028 0.0000
vt 0.3028 0.0220
vt 0.3028 0.0440
vt 0.3028 0.0660
vt 0.3028 0.0880
vt 0.3461 0.0000
vt 0.3461 0.0220
vt 0.3461 0.0440
vt 0.3461 0.0660
vt 0.3461 0.0880
vt 0.3894 0.0000
vt 0.3894 0.0220
vt 0.3894 0.0440
vt 0.3894 0.0660
vt 0.3894 0.0880
vt 0.4326 0.0000
vt 0.4326 0.0220
vt 0.4326 0.0440
vt 0.4326 0.0660
vt 0.4326 0.0880
vt 0.0000 0.0000
vt 0.0000 0.0126
vt 0.0000 0.0251
vt 0.0000 0.0377
vt 0.0000 0.0503
vt 0.1031 0.0000
vt 0.1031 0.0126
vt 0.1031 0.0251
vt 0.1031 0.0377
vt 0.1031 0.0503
vt 0.2112 0.0000
vt 0.2112 0.0126
vt 0.2112 0.0251
vt 0.2112 0.0377
vt 0.2112 0.0503
vt 0.4932 0.0000
vt 0.4932 0.0126
vt 0.4932 0.0251
vt 0.4932 0.0377
vt 0.4932 0.0503
vt 0.0000 0.0000
vt 0.0080 0.0000
vt 0.0000 0.0080
vt -0.0080 0.0000
vt -0.0000 -0.0080
vt 0.0000 0.0000
vt 0.0080 0.0000
vt 0.0000 0.0080
vt -0.0080 0.0000
vt -0.0000 -0.0080
vt 0.0000 0.0000
vt 1.0000 0.0000
vt 1.0000 1.0000
vt 0.0000 0.0000
vt 1.0000 1.0000
vt 0.0000 1.0000
vt 1.0000 0.0000
vt 2.0000 0.0000
vt 2.0000 1.0000
vt 1.0000 0.0000
vt 2.0000 1.0000
vt 1.0000 1.0000
vt 2.0000 0.0000
vt 3.0000 0.0000
vt 3.0000 1.0000
vt 2.0000 0.0000
vt 3.0000 1.0000
vt 2.0000 1.0000
vt 3.0000 0.0000
vt 4.0000 0.0000
vt 4.0000 1.0000
vt 3.0000 0.0000
vt 4.0000 1.0000
vt 3.0000 1.0000
vt 0.0000 0.0000
vt 1.0000 0.0000
vt 1.0000 1.0000
vt 0.0000 0.0000
vt 1.0000 1.0000
vt 0.0000 1.0000
vt 1.0000 0.0000
vt 2.0000 0.0000
vt 2.0000 1.0000
vt 1.0000 0.0000
vt 2.0000 1.0000
vt 1.0000 1.0000
vt 2.0000 0.0000
vt 3.0000 0.0000
vt 3.0000 1.0000
vt 2.0000 0.0000
vt 3.0000 1.0000
vt 2.0000 1.0000
vt 3.0000 0.0000
vt 4.0000 0.0000
vt 4.0000 1.0000
vt 3.0000 0.0000
vt 4.0000 1.0000
vt 3.0000 1.0000
vt 0.0000 0.0000
vt 1.0000 0.0000
vt 1.0000 1.0000
vt 0.0000 0.0000
vt 1.0000 1.0000
vt 0.0000 1.0000
vt 1.0000 0.0000
vt 2.0000 0.0000
vt 2.0000 1.0000
vt 1.0000 0.0000
vt 2.0000 1.0000
vt 1.0000 1.0000
vt 2.0000 0.0000
vt 3.0000 0.0000
vt 3.0000 1.0000
vt 2.0000 0.0000
vt 3.0000 1.0000
vt 2.0000 1.0000
vt 3.0000 0.0000
vt 4.0000 0.0000
vt 4.0000 1.0000
vt 3.0000 0.0000
vt 4.0000 1.0000
vt 3.0000 1.0000
vt 0.0000 0.0000
vt 1.0000 0.0000
vt 1.0000 1.0000
vt 0.0000 0.0000
vt 1.0000 1.0000
vt 0.0000 1.0000
vt 1.0000 0.0000
vt 2.0000 0.0000
vt 2.0000 1.0000
vt 1.0000 0.0000
vt 2.0000 1.0000
vt 1.0000 1.0000
vt 2.0000 0.0000
vt 3.0000 0.0000
vt 3.0000 1.0000
vt 2.0000 0.0000
vt 3.0000 1.0000
vt 2.0000 1.0000
vt 3.0000 0.0000
vt 4.0000 0.0000
vt 4.0000 1.0000
vt 3.0000 0.0000
vt 4.0000 1.0000
vt 3.0000 1.0000
vt 0.0000 0.0000
vt 1.0000 0.0000
vt 1.0000 1.0000
vt 0.0000 0.0000
vt 1.0000 1.0000
vt 0.0000 1.0000
vt 1.0000 0.0000
vt 2.0000 0.0000
vt 2.0000 1.0000
vt 1.0000 0.0000
vt 2.0000 1.0000
vt 1.0000 1.0000
vt 2.0000 0.0000
vt 3.0000 0.0000
vt 3.0000 1.0000
vt 2.0000 0.0000
vt 3.0000 1.0000
vt 2.0000 1.0000
vt 3.0000 0.0000
vt 4.0000 0.0000
vt 4.0000 1.0000
vt 3.0000 0.0000
vt 4.0000 1.0000
vt 3.0000 1.0000
vt 0.0000 0.0000
vt 1.0000 0.0000
vt 1.0000 1.0000
vt 0.0000 0.0000
vt 1.0000 1.0000
vt 0.0000 1.0000
vt 1.0000 0.0000
vt 2.0000 0.0000
vt 2.0000 1.0000
vt 1.0000 0.0000
vt 2.0000 1.0000
vt 1.0000 1.0000
vt 2.0000 0.0000
vt 3.0000 0.0000
vt 3.0000 1.0000
vt 2.0000 0.0000
vt 3.0000 1.0000
vt 2.0000 1.0000
vt 3.0000 0.0000
vt 4.0000 0.0000
vt 4.0000 1.0000
vt 3.0000 0.0000
vt 4.0000 1.0000
vt 3.0000 1.0000
vn 0.000 1.000 0.000
vn -1.000 0.000 0.000
vn -0.000 -1.000 0.000
vn 1.000 -0.000 -0.000
vn 0.000 1.000 -0.000
vn 0.000 1.000 -0.000
vn -0.809 0.000 -0.588
vn -0.000 -1.000 -0.000
vn 0.809 -0.000 0.588
vn 0.000 1.000 0.000
vn 0.000 1.000 -0.000
vn -0.309 0.000 -0.951
vn -0.000 -1.000 -0.000
vn 0.309 -0.000 0.951
vn 0.000 1.000 0.000
vn 0.000 1.000 0.000
vn 0.309 0.000 -0.951
vn 0.000 -1.000 -0.000
vn -0.309 -0.000 0.951
vn -0.000 1.000 0.000
vn 0.000 1.000 0.000
vn 0.809 0.000 -0.588
vn 0.000 -1.000 -0.000
vn -0.809 -0.000 0.588
vn -0.000 1.000 0.000
vn 0.000 1.000 0.000
vn 1.000 0.000 -0.000
vn 0.000 -1.000 -0.000
vn -1.000 -0.000 0.000
vn -0.000 1.000 0.000
vn 0.000 1.000 0.000
vn 0.809 0.000 0.588
vn 0.000 -1.000 0.000
vn -0.809 -0.000 -0.588
vn -0.000 1.000 -0.000
vn 0.000 1.000 0.000
vn 0.309 0.000 0.951
vn 0.000 -1.000 0.000
vn -0.309 -0.000 -0.951
vn -0.000 1.000 -0.000
vn 0.000 1.000 0.000
vn -0.309 0.000 0.951
vn -0.000 -1.000 0.000
vn 0.309 -0.000 -0.951
vn 0.000 1.000 -0.000
vn 0.000 1.000 0.000
vn -0.809 0.000 0.588
vn -0.000 -1.000 0.000
vn 0.809 -0.000 -0.588
vn 0.000 1.000 -0.000
vn 0.000 1.000 0.000
vn -1.000 0.000 0.000
vn -0.000 -1.000 0.000
vn 1.000 -0.000 -0.000
vn 0.000 1.000 -0.000
vn 0.556 0.813 -0.174
vn 0.298 0.000 0.954
vn -0.556 -0.813 0.174
vn -0.298 -0.000 -0.954
vn 0.556 0.813 -0.174
vn 0.668 0.722 -0.179
vn 0.140 0.115 0.984
vn -0.668 -0.722 0.179
vn -0.140 -0.115 -0.984
vn 0.668 0.722 -0.179
vn 0.945 0.230 -0.231
vn 0.231 0.027 0.973
vn -0.945 -0.230 0.231
vn -0.231 -0.027 -0.973
vn 0.945 0.230 -0.231
vn 0.965 0.079 -0.250
vn 0.257 -0.089 0.962
vn -0.965 -0.079 0.250
vn -0.257 0.089 -0.962
vn 0.965 0.079 -0.250
vn -0.776 0.582 0.243
vn -0.776 0.582 0.243
vn -0.776 0.582 0.243
vn -0.776 0.582 0.243
vn -0.776 0.582 0.243
vn 0.053 -0.993 -0.106
vn 0.053 -0.993 -0.106
vn 0.053 -0.993 -0.106
vn 0.053 -0.993 -0.106
vn 0.053 -0.993 -0.106
vn -0.112 0.992 -0.052
vn -0.112 0.992 -0.052
vn -0.112 0.992 -0.052
vn -0.110 0.993 -0.048
vn -0.110 0.993 -0.048
vn -0.110 0.993 -0.048
vn -0.047 0.997 -0.055
vn -0.047 0.997 -0.055
vn -0.047 0.997 -0.055
vn -0.046 0.997 -0.054
vn -0.046 0.997 -0.054
vn -0.046 0.997 -0.054
vn 0.047 0.997 -0.054
vn 0.047 0.997 -0.054
vn 0.047 0.997 -0.054
vn 0.046 0.997 -0.055
vn 0.046 0.997 -0.055
vn 0.046 0.997 -0.055
vn 0.112 0.993 -0.048
vn 0.112 0.993 -0.048
vn 0.112 0.993 -0.048
vn 0.110 0.993 -0.052
vn 0.110 0.993 -0.052
vn 0.110 0.993 -0.052
vn 0.112 -0.992 0.052
vn 0.112 -0.992 0.052
vn 0.112 -0.992 0.052
vn 0.110 -0.993 0.048
vn 0.110 -0.993 0.048
vn 0.110 -0.993 0.048
vn 0.047 -0.997 0.055
vn 0.047 -0.997 0.055
vn 0.047 -0.997 0.055
vn 0.046 -0.997 0.054
vn 0.046 -0.997 0.054
vn 0.046 -0.997 0.054
vn -0.047 -0.997 0.054
vn -0.047 -0.997 0.054
vn -0.047 -0.997 0.054
vn -0.046 -0.997 0.055
vn -0.046 -0.997 0.055
vn -0.046 -0.997 0.055
vn -0.112 -0.993 0.048
vn -0.112 -0.993 0.048
vn -0.112 -0.993 0.048
vn -0.110 -0.993 0.052
vn -0.110 -0.993 0.052
vn -0.110 -0.993 0.052
vn 0.117 -0.992 0.048
vn 0.117 -0.992 0.048
vn 0.117 -0.992 0.048
vn 0.122 -0.991 0.049
vn 0.122 -0.991 0.049
vn 0.122 -0.991 0.049
vn 0.113 -0.992 0.048
vn 0.113 -0.992 0.048
vn 0.113 -0.992 0.048
vn 0.117 -0.992 0.050
vn 0.117 -0.992 0.050
vn 0.117 -0.992 0.050
vn 0.110 -0.993 0.048
vn 0.110 -0.993 0.048
vn 0.110 -0.993 0.048
vn 0.113 -0.992 0.050
vn 0.113 -0.992 0.050
vn 0.113 -0.992 0.050
vn 0.106 -0.993 0.049
vn 0.106 -0.993 0.049
vn 0.106 -0.993 0.049
vn 0.109 -0.993 0.050
vn 0.109 -0.993 0.050
vn 0.109 -0.993 0.050
vn -0.117 0.992 -0.048
vn -0.117 0.992 -0.048
vn -0.117 0.992 -0.048
vn -0.122 0.991 -0.049
vn -0.122 0.991 -0.049
vn -0.122 0.991 -0.049
vn -0.113 0.992 -0.048
vn -0.113 0.992 -0.048
vn -0.113 0.992 -0.048
vn -0.117 0.992 -0.050
vn -0.117 0.992 -0.050
vn -0.117 0.992 -0.050
vn -0.110 0.993 -0.048
vn -0.110 0.993 -0.048
vn -0.110 0.993 -0.048
vn -0.113 0.992 -0.050
vn -0.113 0.992 -0.050
vn -0.113 0.992 -0.050
vn -0.106 0.993 -0.049
vn -0.106 0.993 -0.049
vn -0.106 0.993 -0.049
vn -0.109 0.993 -0.050
vn -0.109 0.993 -0.050
vn -0.109 0.993 -0.050
vn 0.117 0.992 -0.048
vn 0.117 0.992 -0.048
vn 0.117 0.992 -0.048
vn 0.122 0.991 -0.049
vn 0.122 0.991 -0.049
vn 0.122 0.991 -0.049
vn 0.113 0.992 -0.048
vn 0.113 0.992 -0.048
vn 0.113 0.992 -0.048
vn 0.117 0.992 -0.050
vn 0.117 0.992 -0.050
vn 0.117 0.992 -0.050
vn 0.110 0.993 -0.048
vn 0.110 0.993 -0.048
vn 0.110 0.993 -0.048
vn 0.113 0.992 -0.050
vn 0.113 0.992 -0.050
vn 0.113 0.992 -0.050
vn 0.106 0.993 -0.049
vn 0.106 0.993 -0.049
vn 0.106 0.993 -0.049
vn 0.109 0.993 -0.050
vn 0.109 0.993 -0.050
vn 0.109 0.993 -0.050
vn -0.117 -0.992 0.048
vn -0.117 -0.992 0.048
vn -0.117 -0.992 0.048
vn -0.122 -0.991 0.049
vn -0.122 -0.991 0.049
vn -0.122 -0.991 0.049
vn -0.113 -0.992 0.048
vn -0.113 -0.992 0.048
vn -0.113 -0.992 0.048
vn -0.117 -0.992 0.050
vn -0.117 -0.992 0.050
vn -0.117 -0.992 0.050
vn -0.110 -0.993 0.048
vn -0.110 -0.993 0.048
vn -0.110 -0.993 0.048
vn -0.113 -0.992 0.050
vn -0.113 -0.992 0.050
vn -0.113 -0.992 0.050
vn -0.106 -0.993 0.049
vn -0.106 -0.993 0.049
vn -0.106 -0.993 0.049
vn -0.109 -0.993 0.050
vn -0.109 -0.993 0.050
vn -0.109 -0.993 0.050
v -0.0590 0.2499 0.0900
v -0.0645 0.2507 0.0995
v -0.0755 0.2509 0.0995
v -0.0810 0.2501 0.0900
v -0.0755 0.2493 0.0805
v -0.0645 0.2491 0.0805
v -0.0590 0.2499 0.0900
v -0.0690 -0.5801 0.1600
v -0.0745 -0.5793 0.1695
v -0.0855 -0.5791 0.1695
v -0.0910 -0.5799 0.1600
v -0.0855 -0.5807 0.1505
v -0.0745 -0.5809 0.1505
v -0.0690 -0.5801 0.1600
v -0.0700 0.2500 0.0900
v -0.0590 0.2499 0.0900
v -0.0645 0.2507 0.0995
v -0.0755 0.2509 0.0995
v -0.0810 0.2501 0.0900
v -0.0755 0.2493 0.0805
v -0.0645 0.2491 0.0805
v -0.0800 -0.5800 0.1600
v -0.0690 -0.5801 0.1600
v -0.0745 -0.5793 0.1695
v -0.0855 -0.5791 0.1695
v -0.0910 -0.5799 0.1600
v -0.0855 -0.5807 0.1505
v -0.0745 -0.5809 0.1505
v 0.0810 0.2501 0.0900
v 0.0755 0.2509 0.0995
v 0.0645 0.2507 0.0995
v 0.0590 0.2499 0.0900
v 0.0645 0.2491 0.0805
v 0.0755 0.2493 0.0805
v 0.0810 0.2501 0.0900
v 0.0910 -0.5799 0.1600
v 0.0855 -0.5791 0.1695
v 0.0745 -0.5793 0.1695
v 0.0690 -0.5801 0.1600
v 0.0745 -0.5809 0.1505
v 0.0855 -0.5807 0.1505
v 0.0910 -0.5799 0.1600
v 0.0700 0.2500 0.0900
v 0.0810 0.2501 0.0900
v 0.0755 0.2509 0.0995
v 0.0645 0.2507 0.0995
v 0.0590 0.2499 0.0900
v 0.0645 0.2491 0.0805
v 0.0755 0.2493 0.0805
v 0.0800 -0.5800 0.1600
v 0.0910 -0.5799 0.1600
v 0.0855 -0.5791 0.1695
v 0.0745 -0.5793 0.1695
v 0.0690 -0.5801 0.1600
v 0.0745 -0.5809 0.1505
v 0.0855 -0.5807 0.1505
vt 0.0000 0.0000
vt 0.0000 0.0115
vt 0.0000 0.0230
vt 0.0000 0.0346
vt 0.0000 0.0461
vt 0.0000 0.0576
vt 0.0000 0.0691
vt 0.8330 0.0000
vt 0.8330 0.0115
vt 0.8330 0.0230
vt 0.8330 0.0346
vt 0.8330 0.0461
vt 0.8330 0.0576
vt 0.8330 0.0691
vt 0.0000 0.0000
vt 0.0110 0.0000
vt 0.0055 0.0095
vt -0.0055 0.0095
vt -0.0110 0.0000
vt -0.0055 -0.0095
vt 0.0055 -0.0095
vt 0.0000 0.0000
vt 0.0110 0.0000
vt 0.0055 0.0095
vt -0.0055 0.0095
vt -0.0110 0.0000
vt -0.0055 -0.0095
vt 0.0055 -0.0095
vt 0.0000 0.0000
vt 0.0000 0.0115
vt 0.0000 0.0230
vt 0.0000 0.0346
vt 0.0000 0.0461
vt 0.0000 0.0576
vt 0.0000 0.0691
vt 0.8330 0.0000
vt 0.8330 0.0115
vt 0.8330 0.0230
vt 0.8330 0.0346
vt 0.8330 0.0461
vt 0.8330 0.0576
vt 0.8330 0.0691
vt 0.0000 0.0000
vt 0.0110 0.0000
vt 0.0055 0.0095
vt -0.0055 0.0095
vt -0.0110 0.0000
vt -0.0055 -0.0095
vt 0.0055 -0.0095
vt 0.0000 0.0000
vt 0.0110 0.0000
vt 0.0055 0.0095
vt -0.0055 0.0095
vt -0.0110 0.0000
vt -0.0055 -0.0095
vt 0.0055 -0.0095
vn 1.000 -0.012 0.001
vn 0.500 0.067 0.863
vn -0.500 0.079 0.862
vn -1.000 0.012 -0.001
vn -0.500 -0.067 -0.863
vn 0.500 -0.079 -0.862
vn 1.000 -0.012 0.001
vn 1.000 -0.012 0.001
vn 0.500 0.067 0.863
vn -0.500 0.079 0.862
vn -1.000 0.012 -0.001
vn -0.500 -0.067 -0.863
vn 0.500 -0.079 -0.862
vn 1.000 -0.012 0.001
vn 0.012 0.996 -0.084
vn 0.012 0.996 -0.084
vn 0.012 0.996 -0.084
vn 0.012 0.996 -0.084
vn 0.012 0.996 -0.084
vn 0.012 0.996 -0.084
vn 0.012 0.996 -0.084
vn -0.012 -0.996 0.084
vn -0.012 -0.996 0.084
vn -0.012 -0.996 0.084
vn -0.012 -0.996 0.084
vn -0.012 -0.996 0.084
vn -0.012 -0.996 0.084
vn -0.012 -0.996 0.084
vn 1.000 0.012 -0.001
vn 0.500 0.079 0.862
vn -0.500 0.067 0.863
vn -1.000 -0.012 0.001
vn -0.500 -0.079 -0.862
vn 0.500 -0.067 -0.863
vn 1.000 0.012 -0.001
vn 1.000 0.012 -0.001
vn 0.500 0.079 0.862
vn -0.500 0.067 0.863
vn -1.000 -0.012 0.001
vn -0.500 -0.079 -0.862
vn 0.500 -0.067 -0.863
vn 1.000 0.012 -0.001
vn -0.012 0.996 -0.084
vn -0.012 0.996 -0.084
vn -0.012 0.996 -0.084
vn -0.012 0.996 -0.084
vn -0.012 0.996 -0.084
vn -0.012 0.996 -0.084
vn -0.012 0.996 -0.084
vn 0.012 -0.996 0.084
vn 0.012 -0.996 0.084
vn 0.012 -0.996 0.084
vn 0.012 -0.996 0.084
vn 0.012 -0.996 0.084
vn 0.012 -0.996 0.084
vn 0.012 -0.996 0.084
usemtl paper
f 1/1/1 2/2/2 3/3/3
f 4/4/4 5/5/5 6/6/6
f 7/7/7 8/8/8 9/9/9
f 10/10/10 11/11/11 12/12/12
f 13/13/13 14/14/14 15/15/15
f 16/16/16 17/17/17 18/18/18
f 19/19/19 20/20/20 21/21/21
f 22/22/22 23/23/23 24/24/24
f 25/25/25 26/26/26 27/27/27
f 28/28/28 29/29/29 30/30/30
f 31/31/31 32/32/32 33/33/33
f 34/34/34 35/35/35 36/36/36
f 37/37/37 38/38/38 39/39/39
f 40/40/40 41/41/41 42/42/42
f 43/43/43 44/44/44 45/45/45
f 46/46/46 47/47/47 48/48/48
f 49/49/49 50/50/50 51/51/51
f 52/52/52 53/53/53 54/54/54
f 55/55/55 56/56/56 57/57/57
f 58/58/58 59/59/59 60/60/60
f 61/61/61 62/62/62 63/63/63
f 64/64/64 65/65/65 66/66/66
f 67/67/67 68/68/68 69/69/69
f 70/70/70 71/71/71 72/72/72
f 73/73/73 74/74/74 75/75/75
f 76/76/76 77/77/77 78/78/78
f 79/79/79 80/80/80 81/81/81
f 82/82/82 83/83/83 84/84/84
f 85/85/85 86/86/86 87/87/87
f 88/88/88 89/89/89 90/90/90
f 91/91/91 92/92/92 93/93/93
f 94/94/94 95/95/95 96/96/96
f 97/97/97 98/98/98 99/99/99
f 100/100/100 101/101/101 102/102/102
f 103/103/103 104/104/104 105/105/105
f 106/106/106 107/107/107 108/108/108
f 109/109/109 110/110/110 111/111/111
f 112/112/112 113/113/113 114/114/114
f 115/115/115 116/116/116 117/117/117
f 118/118/118 119/119/119 120/120/120
f 121/121/121 122/122/122 123/123/123
f 124/124/124 125/125/125 126/126/126
f 127/127/127 128/128/128 129/129/129
f 130/130/130 131/131/131 132/132/132
f 133/133/133 134/134/134 135/135/135
f 136/136/136 137/137/137 138/138/138
f 139/139/139 140/140/140 141/141/141
f 142/142/142 143/143/143 144/144/144
f 145/145/145 146/146/146 147/147/147
f 148/148/148 149/149/149 150/150/150
f 151/151/151 152/152/152 153/153/153
f 154/154/154 155/155/155 156/156/156
f 157/157/157 158/158/158 159/159/159
f 160/160/160 161/161/161 162/162/162
f 163/163/163 164/164/164 165/165/165
f 166/166/166 167/167/167 168/168/168
f 169/169/169 170/170/170 171/171/171
f 172/172/172 173/173/173 174/174/174
f 175/175/175 176/176/176 177/177/177
f 178/178/178 179/179/179 180/180/180
f 181/181/181 182/182/182 183/183/183
f 184/184/184 185/185/185 186/186/186
f 187/187/187 188/188/188 189/189/189
f 190/190/190 191/191/191 192/192/192
f 193/193/193 194/194/194 195/195/195
f 196/196/196 197/197/197 198/198/198
f 199/199/199 200/200/200 201/201/201
f 202/202/202 203/203/203 204/204/204
f 205/205/205 206/206/206 207/207/207
f 208/208/208 209/209/209 210/210/210
f 211/211/211 212/212/212 213/213/213
f 214/214/214 215/215/215 216/216/216
f 217/217/217 218/218/218 219/219/219
f 220/220/220 221/221/221 222/222/222
f 223/223/223 224/224/224 225/225/225
f 226/226/226 227/227/227 228/228/228
f 229/229/229 230/230/230 231/231/231
f 232/232/232 233/233/233 234/234/234
f 235/235/235 236/236/236 237/237/237
f 238/238/238 239/239/239 240/240/240
f 241/241/241 242/242/242 243/243/243
f 244/244/244 245/245/245 246/246/246
f 247/247/247 248/248/248 249/249/249
f 250/250/250 251/251/251 252/252/252
f 253/253/253 254/254/254 255/255/255
f 256/256/256 257/257/257 258/258/258
f 259/259/259 260/260/260 261/261/261
f 262/262/262 263/263/263 264/264/264
f 265/265/265 266/266/266 267/267/267
f 268/268/268 269/269/269 270/270/270
f 271/271/271 272/272/272 273/273/273
f 274/274/274 275/275/275 276/276/276
f 277/277/277 278/278/278 279/279/279
f 280/280/280 281/281/281 282/282/282
f 283/283/283 284/284/284 285/285/285
f 286/286/286 287/287/287 288/288/288
f 289/289/289 290/290/290 291/291/291
f 292/292/292 293/293/293 294/294/294
f 295/295/295 296/296/296 297/297/297
f 298/298/298 299/299/299 300/300/300
f 301/301/301 302/302/302 303/303/303
f 304/304/304 305/305/305 306/306/306
f 307/307/307 308/308/308 309/309/309
f 310/310/310 311/311/311 312/312/312
f 313/313/313 314/314/314 315/315/315
f 316/316/316 317/317/317 318/318/318
f 319/319/319 320/320/320 321/321/321
f 322/322/322 323/323/323 324/324/324
f 325/325/325 326/326/326 327/327/327
f 328/328/328 329/329/329 330/330/330
f 331/331/331 332/332/332 333/333/333
f 334/334/334 335/335/335 336/336/336
f 337/337/337 338/338/338 339/339/339
f 340/340/340 341/341/341 342/342/342
f 343/343/343 344/344/344 345/345/345
f 346/346/346 347/347/347 348/348/348
f 349/349/349 350/350/350 351/351/351
f 352/352/352 353/353/353 354/354/354
f 355/355/355 356/356/356 357/357/357
f 358/358/358 359/359/359 360/360/360
f 361/361/361 362/362/362 363/363/363
f 364/364/364 365/365/365 366/366/366
f 367/367/367 368/368/368 369/369/369
f 370/370/370 371/371/371 372/372/372
f 373/373/373 374/374/374 375/375/375
f 376/376/376 377/377/377 378/378/378
f 379/379/379 380/380/380 381/381/381
f 382/382/382 383/383/383 384/384/384
f 385/385/385 386/386/386 387/387/387
f 388/388/388 389/389/389 390/390/390
f 391/391/391 392/392/392 393/393/393
f 394/394/394 395/395/395 396/396/396
f 397/397/397 398/398/398 399/399/399
f 400/400/400 401/401/401 402/402/402
f 403/403/403 404/404/404 405/405/405
f 406/406/406 407/407/407 408/408/408
f 409/409/409 410/410/410 411/411/411
f 412/412/412 413/413/413 414/414/414
f 415/415/415 416/416/416 417/417/417
f 418/418/418 419/419/419 420/420/420
f 421/421/421 422/422/422 423/423/423
f 424/424/424 425/425/425 426/426/426
f 427/427/427 428/428/428 429/429/429
f 430/430/430 431/431/431 432/432/432
f 433/433/433 435/435/435 434/434/434
f 436/436/436 438/438/438 437/437/437
f 439/439/439 441/441/441 440/440/440
f 442/442/442 444/444/444 443/443/443
f 445/445/445 447/447/447 446/446/446
f 448/448/448 450/450/450 449/449/449
f 451/451/451 453/453/453 452/452/452
f 454/454/454 456/456/456 455/455/455
f 457/457/457 459/459/459 458/458/458
f 460/460/460 462/462/462 461/461/461
f 463/463/463 465/465/465 464/464/464
f 466/466/466 468/468/468 467/467/467
f 469/469/469 471/471/471 470/470/470
f 472/472/472 474/474/474 473/473/473
f 475/475/475 477/477/477 476/476/476
f 478/478/478 480/480/480 479/479/479
f 481/481/481 483/483/483 482/482/482
f 484/484/484 486/486/486 485/485/485
f 487/487/487 489/489/489 488/488/488
f 490/490/490 492/492/492 491/491/491
f 493/493/493 495/495/495 494/494/494
f 496/496/496 498/498/498 497/497/497
f 499/499/499 501/501/501 500/500/500
f 502/502/502 504/504/504 503/503/503
f 505/505/505 506/506/506 507/507/507
f 508/508/508 509/509/509 510/510/510
f 511/511/511 512/512/512 513/513/513
f 514/514/514 515/515/515 516/516/516
f 517/517/517 518/518/518 519/519/519
f 520/520/520 521/521/521 522/522/522
f 523/523/523 524/524/524 525/525/525
f 526/526/526 527/527/527 528/528/528
f 529/529/529 530/530/530 531/531/531
f 532/532/532 533/533/533 534/534/534
f 535/535/535 536/536/536 537/537/537
f 538/538/538 539/539/539 540/540/540
f 541/541/541 542/542/542 543/543/543
f 544/544/544 545/545/545 546/546/546
f 547/547/547 548/548/548 549/549/549
f 550/550/550 551/551/551 552/552/552
f 553/553/553 554/554/554 555/555/555
f 556/556/556 557/557/557 558/558/558
f 559/559/559 560/560/560 561/561/561
f 562/562/562 563/563/563 564/564/564
f 565/565/565 567/567/567 566/566/566
f 568/568/568 570/570/570 569/569/569
f 571/571/571 573/573/573 572/572/572
f 574/574/574 576/576/576 575/575/575
f 577/577/577 579/579/579 578/578/578
f 580/580/580 582/582/582 581/581/581
f 583/583/583 585/585/585 584/584/584
f 586/586/586 588/588/588 587/587/587
f 589/589/589 591/591/591 590/590/590
f 592/592/592 594/594/594 593/593/593
f 595/595/595 597/597/597 596/596/596
f 598/598/598 600/600/600 599/599/599
f 601/601/601 603/603/603 602/602/602
f 604/604/604 606/606/606 605/605/605
f 607/607/607 609/609/609 608/608/608
f 610/610/610 612/612/612 611/611/611
f 613/613/613 615/615/615 614/614/614
f 616/616/616 618/618/618 617/617/617
f 619/619/619 621/621/621 620/620/620
f 622/622/622 624/624/624 623/623/623
usemtl trim
f 625/625/625 626/626/626 631/631/631
f 625/625/625 631/631/631 630/630/630
f 626/626/626 627/627/627 632/632/632
f 626/626/626 632/632/632 631/631/631
f 627/627/627 628/628/628 633/633/633
f 627/627/627 633/633/633 632/632/632
f 628/628/628 629/629/629 634/634/634
f 628/628/628 634/634/634 633/633/633
f 630/630/630 631/631/631 636/636/636
f 630/630/630 636/636/636 635/635/635
f 631/631/631 632/632/632 637/637/637
f 631/631/631 637/637/637 636/636/636
f 632/632/632 633/633/633 638/638/638
f 632/632/632 638/638/638 637/637/637
f 633/633/633 634/634/634 639/639/639
f 633/633/633 639/639/639 638/638/638
f 635/635/635 636/636/636 641/641/641
f 635/635/635 641/641/641 640/640/640
f 636/636/636 637/637/637 642/642/642
f 636/636/636 642/642/642 641/641/641
f 637/637/637 638/638/638 643/643/643
f 637/637/637 643/643/643 642/642/642
f 638/638/638 639/639/639 644/644/644
f 638/638/638 644/644/644 643/643/643
f 640/640/640 641/641/641 646/646/646
f 640/640/640 646/646/646 645/645/645
f 641/641/641 642/642/642 647/647/647
f 641/641/641 647/647/647 646/646/646
f 642/642/642 643/643/643 648/648/648
f 642/642/642 648/648/648 647/647/647
f 643/643/643 644/644/644 649/649/649
f 643/643/643 649/649/649 648/648/648
f 645/645/645 646/646/646 651/651/651
f 645/645/645 651/651/651 650/650/650
f 646/646/646 647/647/647 652/652/652
f 646/646/646 652/652/652 651/651/651
f 647/647/647 648/648/648 653/653/653
f 647/647/647 653/653/653 652/652/652
f 648/648/648 649/649/649 654/654/654
f 648/648/648 654/654/654 653/653/653
f 650/650/650 651/651/651 656/656/656
f 650/650/650 656/656/656 655/655/655
f 651/651/651 652/652/652 657/657/657
f 651/651/651 657/657/657 656/656/656
f 652/652/652 653/653/653 658/658/658
f 652/652/652 658/658/658 657/657/657
f 653/653/653 654/654/654 659/659/659
f 653/653/653 659/659/659 658/658/658
f 655/655/655 656/656/656 661/661/661
f 655/655/655 661/661/661 660/660/660
f 656/656/656 657/657/657 662/662/662
f 656/656/656 662/662/662 661/661/661
f 657/657/657 658/658/658 663/663/663
f 657/657/657 663/663/663 662/662/662
f 658/658/658 659/659/659 664/664/664
f 658/658/658 664/664/664 663/663/663
f 660/660/660 661/661/661 666/666/666
f 660/660/660 666/666/666 665/665/665
f 661/661/661 662/662/662 667/667/667
f 661/661/661 667/667/667 666/666/666
f 662/662/662 663/663/663 668/668/668
f 662/662/662 668/668/668 667/667/667
f 663/663/663 664/664/664 669/669/669
f 663/663/663 669/669/669 668/668/668
f 665/665/665 666/666/666 671/671/671
f 665/665/665 671/671/671 670/670/670
f 666/666/666 667/667/667 672/672/672
f 666/666/666 672/672/672 671/671/671
f 667/667/667 668/668/668 673/673/673
f 667/667/667 673/673/673 672/672/672
f 668/668/668 669/669/669 674/674/674
f 668/668/668 674/674/674 673/673/673
f 670/670/670 671/671/671 676/676/676
f 670/670/670 676/676/676 675/675/675
f 671/671/671 672/672/672 677/677/677
f 671/671/671 677/677/677 676/676/676
f 672/672/672 673/673/673 678/678/678
f 672/672/672 678/678/678 677/677/677
f 673/673/673 674/674/674 679/679/679
f 673/673/673 679/679/679 678/678/678
f 680/680/680 681/681/681 686/686/686
f 680/680/680 686/686/686 685/685/685
f 681/681/681 682/682/682 687/687/687
f 681/681/681 687/687/687 686/686/686
f 682/682/682 683/683/683 688/688/688
f 682/682/682 688/688/688 687/687/687
f 683/683/683 684/684/684 689/689/689
f 683/683/683 689/689/689 688/688/688
f 685/685/685 686/686/686 691/691/691
f 685/685/685 691/691/691 690/690/690
f 686/686/686 687/687/687 692/692/692
f 686/686/686 692/692/692 691/691/691
f 687/687/687 688/688/688 693/693/693
f 687/687/687 693/693/693 692/692/692
f 688/688/688 689/689/689 694/694/694
f 688/688/688 694/694/694 693/693/693
f 690/690/690 691/691/691 696/696/696
f 690/690/690 696/696/696 695/695/695
f 691/691/691 692/692/692 697/697/697
f 691/691/691 697/697/697 696/696/696
f 692/692/692 693/693/693 698/698/698
f 692/692/692 698/698/698 697/697/697
f 693/693/693 694/694/694 699/699/699
f 693/693/693 699/699/699 698/698/698
f 700/700/700 702/702/702 701/701/701
f 700/700/700 703/703/703 702/702/702
f 700/700/700 704/704/704 703/703/703
f 700/700/700 701/701/701 704/704/704
f 705/705/705 706/706/706 707/707/707
f 705/705/705 707/707/707 708/708/708
f 705/705/705 708/708/708 709/709/709
f 705/705/705 709/709/709 706/706/706
f 710/710/710 711/711/711 712/712/712
f 713/713/713 714/714/714 715/715/715
f 716/716/716 717/717/717 718/718/718
f 719/719/719 720/720/720 721/721/721
f 722/722/722 723/723/723 724/724/724
f 725/725/725 726/726/726 727/727/727
f 728/728/728 729/729/729 730/730/730
f 731/731/731 732/732/732 733/733/733
f 734/734/734 736/736/736 735/735/735
f 737/737/737 739/739/739 738/738/738
f 740/740/740 742/742/742 741/741/741
f 743/743/743 745/745/745 744/744/744
f 746/746/746 748/748/748 747/747/747
f 749/749/749 751/751/751 750/750/750
f 752/752/752 754/754/754 753/753/753
f 755/755/755 757/757/757 756/756/756
f 758/758/758 759/759/759 760/760/760
f 761/761/761 762/762/762 763/763/763
f 764/764/764 765/765/765 766/766/766
f 767/767/767 768/768/768 769/769/769
f 770/770/770 771/771/771 772/772/772
f 773/773/773 774/774/774 775/775/775
f 776/776/776 777/777/777 778/778/778
f 779/779/779 780/780/780 781/781/781
f 782/782/782 784/784/784 783/783/783
f 785/785/785 787/787/787 786/786/786
f 788/788/788 790/790/790 789/789/789
f 791/791/791 793/793/793 792/792/792
f 794/794/794 796/796/796 795/795/795
f 797/797/797 799/799/799 798/798/798
f 800/800/800 802/802/802 801/801/801
f 803/803/803 805/805/805 804/804/804
f 806/806/806 807/807/807 808/808/808
f 809/809/809 810/810/810 811/811/811
f 812/812/812 813/813/813 814/814/814
f 815/815/815 816/816/816 817/817/817
f 818/818/818 819/819/819 820/820/820
f 821/821/821 822/822/822 823/823/823
f 824/824/824 825/825/825 826/826/826
f 827/827/827 828/828/828 829/829/829
f 830/830/830 832/832/832 831/831/831
f 833/833/833 835/835/835 834/834/834
f 836/836/836 838/838/838 837/837/837
f 839/839/839 841/841/841 840/840/840
f 842/842/842 844/844/844 843/843/843
f 845/845/845 847/847/847 846/846/846
f 848/848/848 850/850/850 849/849/849
f 851/851/851 853/853/853 852/852/852
usemtl bamboo
f 854/854/854 855/855/855 862/862/862
f 854/854/854 862/862/862 861/861/861
f 855/855/855 856/856/856 863/863/863
f 855/855/855 863/863/863 862/862/862
f 856/856/856 857/857/857 864/864/864
f 856/856/856 864/864/864 863/863/863
f 857/857/857 858/858/858 865/865/865
f 857/857/857 865/865/865 864/864/864
f 858/858/858 859/859/859 866/866/866
f 858/858/858 866/866/866 865/865/865
f 859/859/859 860/860/860 867/867/867
f 859/859/859 867/867/867 866/866/866
f 868/868/868 870/870/870 869/869/869
f 868/868/868 871/871/871 870/870/870
f 868/868/868 872/872/872 871/871/871
f 868/868/868 873/873/873 872/872/872
f 868/868/868 874/874/874 873/873/873
f 868/868/868 869/869/869 874/874/874
f 875/875/875 876/876/876 877/877/877
f 875/875/875 877/877/877 878/878/878
f 875/875/875 878/878/878 879/879/879
f 875/875/875 879/879/879 880/880/880
f 875/875/875 880/880/880 881/881/881
f 875/875/875 881/881/881 876/876/876
f 882/882/882 883/883/883 890/890/890
f 882/882/882 890/890/890 889/889/889
f 883/883/883 884/884/884 891/891/891
f 883/883/883 891/891/891 890/890/890
f 884/884/884 885/885/885 892/892/892
f 884/884/884 892/892/892 891/891/891
f 885/885/885 886/886/886 893/893/893
f 885/885/885 893/893/893 892/892/892
f 886/886/886 887/887/887 894/894/894
f 886/886/886 894/894/894 893/893/893
f 887/887/887 888/888/888 895/895/895
f 887/887/887 895/895/895 894/894/894
f 896/896/896 898/898/898 897/897/897
f 896/896/896 899/899/899 898/898/898
f 896/896/896 900/900/900 899/899/899
f 896/896/896 901/901/901 900/900/900
f 896/896/896 902/902/902 901/901/901
f 896/896/896 897/897/897 902/902/902
f 903/903/903 904/904/904 905/905/905
f 903/903/903 905/905/905 906/906/906
f 903/903/903 906/906/906 907/907/907
f 903/903/903 907/907/907 908/908/908
f 903/903/903 908/908/908 909/909/909
f 903/903/903 909/909/909 904/904/904
