# Sinh tự động bởi tools/mesh_kit.py - đừng sửa tay
o e_torso_shirt
v 0.0000 -0.0200 -0.1200
v 0.1172 -0.0200 -0.1035
v 0.1141 0.0750 -0.0996
v 0.0000 -0.0200 -0.1200
v 0.1141 0.0750 -0.0996
v 0.0000 0.0750 -0.1156
v 0.1172 -0.0200 -0.1035
v 0.1641 -0.0200 -0.0527
v 0.1598 0.0750 -0.0508
v 0.1172 -0.0200 -0.1035
v 0.1598 0.0750 -0.0508
v 0.1141 0.0750 -0.0996
v 0.1641 -0.0200 -0.0527
v 0.1641 -0.0200 0.0527
v 0.1598 0.0750 0.0508
v 0.1641 -0.0200 -0.0527
v 0.1598 0.0750 0.0508
v 0.1598 0.0750 -0.0508
v 0.1641 -0.0200 0.0527
v 0.1172 -0.0200 0.1035
v 0.1141 0.0750 0.0996
v 0.1641 -0.0200 0.0527
v 0.1141 0.0750 0.0996
v 0.1598 0.0750 0.0508
v 0.1172 -0.0200 0.1035
v 0.0000 -0.0200 0.1200
v 0.0000 0.0750 0.1156
v 0.1172 -0.0200 0.1035
v 0.0000 0.0750 0.1156
v 0.1141 0.0750 0.0996
v 0.0000 -0.0200 0.1200
v -0.1172 -0.0200 0.1035
v -0.1141 0.0750 0.0996
v 0.0000 -0.0200 0.1200
v -0.1141 0.0750 0.0996
v 0.0000 0.0750 0.1156
v -0.1172 -0.0200 0.1035
v -0.1641 -0.0200 0.0527
v -0.1598 0.0750 0.0508
v -0.1172 -0.0200 0.1035
v -0.1598 0.0750 0.0508
v -0.1141 0.0750 0.0996
v -0.1641 -0.0200 0.0527
v -0.1641 -0.0200 -0.0527
v -0.1598 0.0750 -0.0508
v -0.1641 -0.0200 0.0527
v -0.1598 0.0750 -0.0508
v -0.1598 0.0750 0.0508
v -0.1641 -0.0200 -0.0527
v -0.1172 -0.0200 -0.1035
v -0.1141 0.0750 -0.0996
v -0.1641 -0.0200 -0.0527
v -0.1141 0.0750 -0.0996
v -0.1598 0.0750 -0.0508
v -0.1172 -0.0200 -0.1035
v -0.0000 -0.0200 -0.1200
v -0.0000 0.0750 -0.1156
v -0.1172 -0.0200 -0.1035
v -0.0000 0.0750 -0.1156
v -0.1141 0.0750 -0.0996
v 0.0000 0.0750 -0.1156
v 0.1141 0.0750 -0.0996
v 0.1167 0.1700 -0.1018
v 0.0000 0.0750 -0.1156
v 0.1167 0.1700 -0.1018
v 0.0000 0.1700 -0.1178
v 0.1141 0.0750 -0.0996
v 0.1598 0.0750 -0.0508
v 0.1634 0.1700 -0.0526
v 0.1141 0.0750 -0.0996
v 0.1634 0.1700 -0.0526
v 0.1167 0.1700 -0.1018
v 0.1598 0.0750 -0.0508
v 0.1598 0.0750 0.0508
v 0.1634 0.1700 0.0498
v 0.1598 0.0750 -0.0508
v 0.1634 0.1700 0.0498
v 0.1634 0.1700 -0.0526
v 0.1598 0.0750 0.0508
v 0.1141 0.0750 0.0996
v 0.1167 0.1700 0.0990
v 0.1598 0.0750 0.0508
v 0.1167 0.1700 0.0990
v 0.1634 0.1700 0.0498
v 0.1141 0.0750 0.0996
v 0.0000 0.0750 0.1156
v 0.0000 0.1700 0.1150
v 0.1141 0.0750 0.0996
v 0.0000 0.1700 0.1150
v 0.1167 0.1700 0.0990
v 0.0000 0.0750 0.1156
v -0.1141 0.0750 0.0996
v -0.1167 0.1700 0.0990
v 0.0000 0.0750 0.1156
v -0.1167 0.1700 0.0990
v 0.0000 0.1700 0.1150
v -0.1141 0.0750 0.0996
v -0.1598 0.0750 0.0508
v -0.1634 0.1700 0.0498
v -0.1141 0.0750 0.0996
v -0.1634 0.1700 0.0498
v -0.1167 0.1700 0.0990
v -0.1598 0.0750 0.0508
v -0.1598 0.0750 -0.0508
v -0.1634 0.1700 -0.0526
v -0.1598 0.0750 0.0508
v -0.1634 0.1700 -0.0526
v -0.1634 0.1700 0.0498
v -0.1598 0.0750 -0.0508
v -0.1141 0.0750 -0.0996
v -0.1167 0.1700 -0.1018
v -0.1598 0.0750 -0.0508
v -0.1167 0.1700 -0.1018
v -0.1634 0.1700 -0.0526
v -0.1141 0.0750 -0.0996
v -0.0000 0.0750 -0.1156
v -0.0000 0.1700 -0.1178
v -0.1141 0.0750 -0.0996
v -0.0000 0.1700 -0.1178
v -0.1167 0.1700 -0.1018
v 0.0000 0.1700 -0.1178
v 0.1167 0.1700 -0.1018
v 0.1232 0.2650 -0.1077
v 0.0000 0.1700 -0.1178
v 0.1232 0.2650 -0.1077
v 0.0000 0.2650 -0.1242
v 0.1167 0.1700 -0.1018
v 0.1634 0.1700 -0.0526
v 0.1726 0.2650 -0.0572
v 0.1167 0.1700 -0.1018
v 0.1726 0.2650 -0.0572
v 0.1232 0.2650 -0.1077
v 0.1634 0.1700 -0.0526
v 0.1634 0.1700 0.0498
v 0.1726 0.2650 0.0480
v 0.1634 0.1700 -0.0526
v 0.1726 0.2650 0.0480
v 0.1726 0.2650 -0.0572
v 0.1634 0.1700 0.0498
v 0.1167 0.1700 0.0990
v 0.1232 0.2650 0.0985
v 0.1634 0.1700 0.0498
v 0.1232 0.2650 0.0985
v 0.1726 0.2650 0.0480
v 0.1167 0.1700 0.0990
v 0.0000 0.1700 0.1150
v 0.0000 0.2650 0.1150
v 0.1167 0.1700 0.0990
v 0.0000 0.2650 0.1150
v 0.1232 0.2650 0.0985
v 0.0000 0.1700 0.1150
v -0.1167 0.1700 0.0990
v -0.1232 0.2650 0.0985
v 0.0000 0.1700 0.1150
v -0.1232 0.2650 0.0985
v 0.0000 0.2650 0.1150
v -0.1167 0.1700 0.0990
v -0.1634 0.1700 0.0498
v -0.1726 0.2650 0.0480
v -0.1167 0.1700 0.0990
v -0.1726 0.2650 0.0480
v -0.1232 0.2650 0.0985
v -0.1634 0.1700 0.0498
v -0.1634 0.1700 -0.0526
v -0.1726 0.2650 -0.0572
v -0.1634 0.1700 0.0498
v -0.1726 0.2650 -0.0572
v -0.1726 0.2650 0.0480
v -0.1634 0.1700 -0.0526
v -0.1167 0.1700 -0.1018
v -0.1232 0.2650 -0.1077
v -0.1634 0.1700 -0.0526
v -0.1232 0.2650 -0.1077
v -0.1726 0.2650 -0.0572
v -0.1167 0.1700 -0.1018
v -0.0000 0.1700 -0.1178
v -0.0000 0.2650 -0.1242
v -0.1167 0.1700 -0.1018
v -0.0000 0.2650 -0.1242
v -0.1232 0.2650 -0.1077
v 0.0000 0.2650 -0.1242
v 0.1232 0.2650 -0.1077
v 0.1302 0.3600 -0.1024
v 0.0000 0.2650 -0.1242
v 0.1302 0.3600 -0.1024
v 0.0000 0.3600 -0.1184
v 0.1232 0.2650 -0.1077
v 0.1726 0.2650 -0.0572
v 0.1823 0.3600 -0.0536
v 0.1232 0.2650 -0.1077
v 0.1823 0.3600 -0.0536
v 0.1302 0.3600 -0.1024
v 0.1726 0.2650 -0.0572
v 0.1726 0.2650 0.0480
v 0.1823 0.3600 0.0480
v 0.1726 0.2650 -0.0572
v 0.1823 0.3600 0.0480
v 0.1823 0.3600 -0.0536
v 0.1726 0.2650 0.0480
v 0.1232 0.2650 0.0985
v 0.1302 0.3600 0.0969
v 0.1726 0.2650 0.0480
v 0.1302 0.3600 0.0969
v 0.1823 0.3600 0.0480
v 0.1232 0.2650 0.0985
v 0.0000 0.2650 0.1150
v 0.0000 0.3600 0.1128
v 0.1232 0.2650 0.0985
v 0.0000 0.3600 0.1128
v 0.1302 0.3600 0.0969
v 0.0000 0.2650 0.1150
v -0.1232 0.2650 0.0985
v -0.1302 0.3600 0.0969
v 0.0000 0.2650 0.1150
v -0.1302 0.3600 0.0969
v 0.0000 0.3600 0.1128
v -0.1232 0.2650 0.0985
v -0.1726 0.2650 0.0480
v -0.1823 0.3600 0.0480
v -0.1232 0.2650 0.0985
v -0.1823 0.3600 0.0480
v -0.1302 0.3600 0.0969
v -0.1726 0.2650 0.0480
v -0.1726 0.2650 -0.0572
v -0.1823 0.3600 -0.0536
v -0.1726 0.2650 0.0480
v -0.1823 0.3600 -0.0536
v -0.1823 0.3600 0.0480
v -0.1726 0.2650 -0.0572
v -0.1232 0.2650 -0.1077
v -0.1302 0.3600 -0.1024
v -0.1726 0.2650 -0.0572
v -0.1302 0.3600 -0.1024
v -0.1823 0.3600 -0.0536
v -0.1232 0.2650 -0.1077
v -0.0000 0.2650 -0.1242
v -0.0000 0.3600 -0.1184
v -0.1232 0.2650 -0.1077
v -0.0000 0.3600 -0.1184
v -0.1302 0.3600 -0.1024
v 0.0000 0.3600 -0.1184
v 0.1302 0.3600 -0.1024
v 0.1278 0.4550 -0.0883
v 0.0000 0.3600 -0.1184
v 0.1278 0.4550 -0.0883
v 0.0000 0.4550 -0.1027
v 0.1302 0.3600 -0.1024
v 0.1823 0.3600 -0.0536
v 0.1790 0.4550 -0.0443
v 0.1302 0.3600 -0.1024
v 0.1790 0.4550 -0.0443
v 0.1278 0.4550 -0.0883
v 0.1823 0.3600 -0.0536
v 0.1823 0.3600 0.0480
v 0.1790 0.4550 0.0472
v 0.1823 0.3600 -0.0536
v 0.1790 0.4550 0.0472
v 0.1790 0.4550 -0.0443
v 0.1823 0.3600 0.0480
v 0.1302 0.3600 0.0969
v 0.1278 0.4550 0.0913
v 0.1823 0.3600 0.0480
v 0.1278 0.4550 0.0913
v 0.1790 0.4550 0.0472
v 0.1302 0.3600 0.0969
v 0.0000 0.3600 0.1128
v 0.0000 0.4550 0.1056
v 0.1302 0.3600 0.0969
v 0.0000 0.4550 0.1056
v 0.1278 0.4550 0.0913
v 0.0000 0.3600 0.1128
v -0.1302 0.3600 0.0969
v -0.1278 0.4550 0.0913
v 0.0000 0.3600 0.1128
v -0.1278 0.4550 0.0913
v 0.0000 0.4550 0.1056
v -0.1302 0.3600 0.0969
v -0.1823 0.3600 0.0480
v -0.1790 0.4550 0.0472
v -0.1302 0.3600 0.0969
v -0.1790 0.4550 0.0472
v -0.1278 0.4550 0.0913
v -0.1823 0.3600 0.0480
v -0.1823 0.3600 -0.0536
v -0.1790 0.4550 -0.0443
v -0.1823 0.3600 0.0480
v -0.1790 0.4550 -0.0443
v -0.1790 0.4550 0.0472
v -0.1823 0.3600 -0.0536
v -0.1302 0.3600 -0.1024
v -0.1278 0.4550 -0.0883
v -0.1823 0.3600 -0.0536
v -0.1278 0.4550 -0.0883
v -0.1790 0.4550 -0.0443
v -0.1302 0.3600 -0.1024
v -0.0000 0.3600 -0.1184
v -0.0000 0.4550 -0.1027
v -0.1302 0.3600 -0.1024
v -0.0000 0.4550 -0.1027
v -0.1278 0.4550 -0.0883
v 0.0000 0.4550 -0.1027
v 0.1278 0.4550 -0.0883
v 0.0517 0.5500 -0.0417
v 0.0000 0.4550 -0.1027
v 0.0517 0.5500 -0.0417
v 0.0000 0.5500 -0.0500
v 0.1278 0.4550 -0.0883
v 0.1790 0.4550 -0.0443
v 0.0724 0.5500 -0.0164
v 0.1278 0.4550 -0.0883
v 0.0724 0.5500 -0.0164
v 0.0517 0.5500 -0.0417
v 0.1790 0.4550 -0.0443
v 0.1790 0.4550 0.0472
v 0.0724 0.5500 0.0364
v 0.1790 0.4550 -0.0443
v 0.0724 0.5500 0.0364
v 0.0724 0.5500 -0.0164
v 0.1790 0.4550 0.0472
v 0.1278 0.4550 0.0913
v 0.0517 0.5500 0.0617
v 0.1790 0.4550 0.0472
v 0.0517 0.5500 0.0617
v 0.0724 0.5500 0.0364
v 0.1278 0.4550 0.0913
v 0.0000 0.4550 0.1056
v 0.0000 0.5500 0.0700
v 0.1278 0.4550 0.0913
v 0.0000 0.5500 0.0700
v 0.0517 0.5500 0.0617
v 0.0000 0.4550 0.1056
v -0.1278 0.4550 0.0913
v -0.0517 0.5500 0.0617
v 0.0000 0.4550 0.1056
v -0.0517 0.5500 0.0617
v 0.0000 0.5500 0.0700
v -0.1278 0.4550 0.0913
v -0.1790 0.4550 0.0472
v -0.0724 0.5500 0.0364
v -0.1278 0.4550 0.0913
v -0.0724 0.5500 0.0364
v -0.0517 0.5500 0.0617
v -0.1790 0.4550 0.0472
v -0.1790 0.4550 -0.0443
v -0.0724 0.5500 -0.0164
v -0.1790 0.4550 0.0472
v -0.0724 0.5500 -0.0164
v -0.0724 0.5500 0.0364
v -0.1790 0.4550 -0.0443
v -0.1278 0.4550 -0.0883
v -0.0517 0.5500 -0.0417
v -0.1790 0.4550 -0.0443
v -0.0517 0.5500 -0.0417
v -0.0724 0.5500 -0.0164
v -0.1278 0.4550 -0.0883
v -0.0000 0.4550 -0.1027
v -0.0000 0.5500 -0.0500
v -0.1278 0.4550 -0.0883
v -0.0000 0.5500 -0.0500
v -0.0517 0.5500 -0.0417
vt 0.0000 0.0000
vt 0.1243 0.0000
vt 0.1243 0.0951
vt 0.0000 0.0000
vt 0.1243 0.0951
vt 0.0000 0.0951
vt 0.1243 0.0000
vt 0.1950 0.0000
vt 0.1950 0.0951
vt 0.1243 0.0000
vt 0.1950 0.0951
vt 0.1243 0.0951
vt 0.1950 0.0000
vt 0.3001 0.0000
vt 0.3001 0.0951
vt 0.1950 0.0000
vt 0.3001 0.0951
vt 0.1950 0.0951
vt 0.3001 0.0000
vt 0.3708 0.0000
vt 0.3708 0.0951
vt 0.3001 0.0000
vt 0.3708 0.0951
vt 0.3001 0.0951
vt 0.3708 0.0000
vt 0.4951 0.0000
vt 0.4951 0.0951
vt 0.3708 0.0000
vt 0.4951 0.0951
vt 0.3708 0.0951
vt 0.4951 0.0000
vt 0.6195 0.0000
vt 0.6195 0.0951
vt 0.4951 0.0000
vt 0.6195 0.0951
vt 0.4951 0.0951
vt 0.6195 0.0000
vt 0.6901 0.0000
vt 0.6901 0.0951
vt 0.6195 0.0000
vt 0.6901 0.0951
vt 0.6195 0.0951
vt 0.6901 0.0000
vt 0.7952 0.0000
vt 0.7952 0.0951
vt 0.6901 0.0000
vt 0.7952 0.0951
vt 0.6901 0.0951
vt 0.7952 0.0000
vt 0.8659 0.0000
vt 0.8659 0.0951
vt 0.7952 0.0000
vt 0.8659 0.0951
vt 0.7952 0.0951
vt 0.8659 0.0000
vt 0.9902 0.0000
vt 0.9902 0.0951
vt 0.8659 0.0000
vt 0.9902 0.0951
vt 0.8659 0.0951
vt 0.0000 0.0951
vt 0.1243 0.0951
vt 0.1243 0.1901
vt 0.0000 0.0951
vt 0.1243 0.1901
vt 0.0000 0.1901
vt 0.1243 0.0951
vt 0.1950 0.0951
vt 0.1950 0.1901
vt 0.1243 0.0951
vt 0.1950 0.1901
vt 0.1243 0.1901
vt 0.1950 0.0951
vt 0.3001 0.0951
vt 0.3001 0.1901
vt 0.1950 0.0951
vt 0.3001 0.1901
vt 0.1950 0.1901
vt 0.3001 0.0951
vt 0.3708 0.0951
vt 0.3708 0.1901
vt 0.3001 0.0951
vt 0.3708 0.1901
vt 0.3001 0.1901
vt 0.3708 0.0951
vt 0.4951 0.0951
vt 0.4951 0.1901
vt 0.3708 0.0951
vt 0.4951 0.1901
vt 0.3708 0.1901
vt 0.4951 0.0951
vt 0.6195 0.0951
vt 0.6195 0.1901
vt 0.4951 0.0951
vt 0.6195 0.1901
vt 0.4951 0.1901
vt 0.6195 0.0951
vt 0.6901 0.0951
vt 0.6901 0.1901
vt 0.6195 0.0951
vt 0.6901 0.1901
vt 0.6195 0.1901
vt 0.6901 0.0951
vt 0.7952 0.0951
vt 0.7952 0.1901
vt 0.6901 0.0951
vt 0.7952 0.1901
vt 0.6901 0.1901
vt 0.7952 0.0951
vt 0.8659 0.0951
vt 0.8659 0.1901
vt 0.7952 0.0951
vt 0.8659 0.1901
vt 0.7952 0.1901
vt 0.8659 0.0951
vt 0.9902 0.0951
vt 0.9902 0.1901
vt 0.8659 0.0951
vt 0.9902 0.1901
vt 0.8659 0.1901
vt 0.0000 0.1901
vt 0.1243 0.1901
vt 0.1243 0.2851
vt 0.0000 0.1901
vt 0.1243 0.2851
vt 0.0000 0.2851
vt 0.1243 0.1901
vt 0.1950 0.1901
vt 0.1950 0.2851
vt 0.1243 0.1901
vt 0.1950 0.2851
vt 0.1243 0.2851
vt 0.1950 0.1901
vt 0.3001 0.1901
vt 0.3001 0.2851
vt 0.1950 0.1901
vt 0.3001 0.2851
vt 0.1950 0.2851
vt 0.3001 0.1901
vt 0.3708 0.1901
vt 0.3708 0.2851
vt 0.3001 0.1901
vt 0.3708 0.2851
vt 0.3001 0.2851
vt 0.3708 0.1901
vt 0.4951 0.1901
vt 0.4951 0.2851
vt 0.3708 0.1901
vt 0.4951 0.2851
vt 0.3708 0.2851
vt 0.4951 0.1901
vt 0.6195 0.1901
vt 0.6195 0.2851
vt 0.4951 0.1901
vt 0.6195 0.2851
vt 0.4951 0.2851
vt 0.6195 0.1901
vt 0.6901 0.1901
vt 0.6901 0.2851
vt 0.6195 0.1901
vt 0.6901 0.2851
vt 0.6195 0.2851
vt 0.6901 0.1901
vt 0.7952 0.1901
vt 0.7952 0.2851
vt 0.6901 0.1901
vt 0.7952 0.2851
vt 0.6901 0.2851
vt 0.7952 0.1901
vt 0.8659 0.1901
vt 0.8659 0.2851
vt 0.7952 0.1901
vt 0.8659 0.2851
vt 0.7952 0.2851
vt 0.8659 0.1901
vt 0.9902 0.1901
vt 0.9902 0.2851
vt 0.8659 0.1901
vt 0.9902 0.2851
vt 0.8659 0.2851
vt 0.0000 0.2851
vt 0.1243 0.2851
vt 0.1243 0.3801
vt 0.0000 0.2851
vt 0.1243 0.3801
vt 0.0000 0.3801
vt 0.1243 0.2851
vt 0.1950 0.2851
vt 0.1950 0.3801
vt 0.1243 0.2851
vt 0.1950 0.3801
vt 0.1243 0.3801
vt 0.1950 0.2851
vt 0.3001 0.2851
vt 0.3001 0.3801
vt 0.1950 0.2851
vt 0.3001 0.3801
vt 0.1950 0.3801
vt 0.3001 0.2851
vt 0.3708 0.2851
vt 0.3708 0.3801
vt 0.3001 0.2851
vt 0.3708 0.3801
vt 0.3001 0.3801
vt 0.3708 0.2851
vt 0.4951 0.2851
vt 0.4951 0.3801
vt 0.3708 0.2851
vt 0.4951 0.3801
vt 0.3708 0.3801
vt 0.4951 0.2851
vt 0.6195 0.2851
vt 0.6195 0.3801
vt 0.4951 0.2851
vt 0.6195 0.3801
vt 0.4951 0.3801
vt 0.6195 0.2851
vt 0.6901 0.2851
vt 0.6901 0.3801
vt 0.6195 0.2851
vt 0.6901 0.3801
vt 0.6195 0.3801
vt 0.6901 0.2851
vt 0.7952 0.2851
vt 0.7952 0.3801
vt 0.6901 0.2851
vt 0.7952 0.3801
vt 0.6901 0.3801
vt 0.7952 0.2851
vt 0.8659 0.2851
vt 0.8659 0.3801
vt 0.7952 0.2851
vt 0.8659 0.3801
vt 0.7952 0.3801
vt 0.8659 0.2851
vt 0.9902 0.2851
vt 0.9902 0.3801
vt 0.8659 0.2851
vt 0.9902 0.3801
vt 0.8659 0.3801
vt 0.0000 0.3801
vt 0.1243 0.3801
vt 0.1243 0.4754
vt 0.0000 0.3801
vt 0.1243 0.4754
vt 0.0000 0.4754
vt 0.1243 0.3801
vt 0.1950 0.3801
vt 0.1950 0.4754
vt 0.1243 0.3801
vt 0.1950 0.4754
vt 0.1243 0.4754
vt 0.1950 0.3801
vt 0.3001 0.3801
vt 0.3001 0.4754
vt 0.1950 0.3801
vt 0.3001 0.4754
vt 0.1950 0.4754
vt 0.3001 0.3801
vt 0.3708 0.3801
vt 0.3708 0.4754
vt 0.3001 0.3801
vt 0.3708 0.4754
vt 0.3001 0.4754
vt 0.3708 0.3801
vt 0.4951 0.3801
vt 0.4951 0.4754
vt 0.3708 0.3801
vt 0.4951 0.4754
vt 0.3708 0.4754
vt 0.4951 0.3801
vt 0.6195 0.3801
vt 0.6195 0.4754
vt 0.4951 0.3801
vt 0.6195 0.4754
vt 0.4951 0.4754
vt 0.6195 0.3801
vt 0.6901 0.3801
vt 0.6901 0.4754
vt 0.6195 0.3801
vt 0.6901 0.4754
vt 0.6195 0.4754
vt 0.6901 0.3801
vt 0.7952 0.3801
vt 0.7952 0.4754
vt 0.6901 0.3801
vt 0.7952 0.4754
vt 0.6901 0.4754
vt 0.7952 0.3801
vt 0.8659 0.3801
vt 0.8659 0.4754
vt 0.7952 0.3801
vt 0.8659 0.4754
vt 0.7952 0.4754
vt 0.8659 0.3801
vt 0.9902 0.3801
vt 0.9902 0.4754
vt 0.8659 0.3801
vt 0.9902 0.4754
vt 0.8659 0.4754
vt 0.0000 0.4754
vt 0.1243 0.4754
vt 0.1243 0.5769
vt 0.0000 0.4754
vt 0.1243 0.5769
vt 0.0000 0.5769
vt 0.1243 0.4754
vt 0.1950 0.4754
vt 0.1950 0.5769
vt 0.1243 0.4754
vt 0.1950 0.5769
vt 0.1243 0.5769
vt 0.1950 0.4754
vt 0.3001 0.4754
vt 0.3001 0.5769
vt 0.1950 0.4754
vt 0.3001 0.5769
vt 0.1950 0.5769
vt 0.3001 0.4754
vt 0.3708 0.4754
vt 0.3708 0.5769
vt 0.3001 0.4754
vt 0.3708 0.5769
vt 0.3001 0.5769
vt 0.3708 0.4754
vt 0.4951 0.4754
vt 0.4951 0.5769
vt 0.3708 0.4754
vt 0.4951 0.5769
vt 0.3708 0.5769
vt 0.4951 0.4754
vt 0.6195 0.4754
vt 0.6195 0.5769
vt 0.4951 0.4754
vt 0.6195 0.5769
vt 0.4951 0.5769
vt 0.6195 0.4754
vt 0.6901 0.4754
vt 0.6901 0.5769
vt 0.6195 0.4754
vt 0.6901 0.5769
vt 0.6195 0.5769
vt 0.6901 0.4754
vt 0.7952 0.4754
vt 0.7952 0.5769
vt 0.6901 0.4754
vt 0.7952 0.5769
vt 0.6901 0.5769
vt 0.7952 0.4754
vt 0.8659 0.4754
vt 0.8659 0.5769
vt 0.7952 0.4754
vt 0.8659 0.5769
vt 0.7952 0.5769
vt 0.8659 0.4754
vt 0.9902 0.4754
vt 0.9902 0.5769
vt 0.8659 0.4754
vt 0.9902 0.5769
vt 0.8659 0.5769
vn -0.140 -0.044 0.989
vn -0.140 -0.044 0.989
vn -0.140 -0.044 0.989
vn -0.138 -0.046 0.989
vn -0.138 -0.046 0.989
vn -0.138 -0.046 0.989
vn -0.733 -0.047 0.679
vn -0.733 -0.047 0.679
vn -0.733 -0.047 0.679
vn -0.729 -0.051 0.682
vn -0.729 -0.051 0.682
vn -0.729 -0.051 0.682
vn -0.999 -0.045 0.000
vn -0.999 -0.045 0.000
vn -0.999 -0.045 0.000
vn -0.999 -0.045 0.000
vn -0.999 -0.045 0.000
vn -0.999 -0.045 0.000
vn -0.733 -0.051 -0.678
vn -0.733 -0.051 -0.678
vn -0.733 -0.051 -0.678
vn -0.729 -0.047 -0.683
vn -0.729 -0.047 -0.683
vn -0.729 -0.047 -0.683
vn -0.140 -0.046 -0.989
vn -0.140 -0.046 -0.989
vn -0.140 -0.046 -0.989
vn -0.138 -0.044 -0.989
vn -0.138 -0.044 -0.989
vn -0.138 -0.044 -0.989
vn 0.140 -0.044 -0.989
vn 0.140 -0.044 -0.989
vn 0.140 -0.044 -0.989
vn 0.138 -0.046 -0.989
vn 0.138 -0.046 -0.989
vn 0.138 -0.046 -0.989
vn 0.733 -0.047 -0.679
vn 0.733 -0.047 -0.679
vn 0.733 -0.047 -0.679
vn 0.729 -0.051 -0.682
vn 0.729 -0.051 -0.682
vn 0.729 -0.051 -0.682
vn 0.999 -0.045 -0.000
vn 0.999 -0.045 -0.000
vn 0.999 -0.045 -0.000
vn 0.999 -0.045 -0.000
vn 0.999 -0.045 -0.000
vn 0.999 -0.045 -0.000
vn 0.733 -0.051 0.678
vn 0.733 -0.051 0.678
vn 0.733 -0.051 0.678
vn 0.729 -0.047 0.683
vn 0.729 -0.047 0.683
vn 0.729 -0.047 0.683
vn 0.140 -0.046 0.989
vn 0.140 -0.046 0.989
vn 0.140 -0.046 0.989
vn 0.138 -0.044 0.989
vn 0.138 -0.044 0.989
vn 0.138 -0.044 0.989
vn -0.138 0.026 0.990
vn -0.138 0.026 0.990
vn -0.138 0.026 0.990
vn -0.136 0.024 0.990
vn -0.136 0.024 0.990
vn -0.136 0.024 0.990
vn -0.729 0.040 0.683
vn -0.729 0.040 0.683
vn -0.729 0.040 0.683
vn -0.725 0.035 0.688
vn -0.725 0.035 0.688
vn -0.725 0.035 0.688
vn -0.999 0.037 0.000
vn -0.999 0.037 0.000
vn -0.999 0.037 0.000
vn -0.999 0.037 0.000
vn -0.999 0.037 0.000
vn -0.999 0.037 0.000
vn -0.730 0.015 -0.683
vn -0.730 0.015 -0.683
vn -0.730 0.015 -0.683
vn -0.725 0.019 -0.689
vn -0.725 0.019 -0.689
vn -0.725 0.019 -0.689
vn -0.138 -0.006 -0.990
vn -0.138 -0.006 -0.990
vn -0.138 -0.006 -0.990
vn -0.136 -0.003 -0.991
vn -0.136 -0.003 -0.991
vn -0.136 -0.003 -0.991
vn 0.138 -0.003 -0.990
vn 0.138 -0.003 -0.990
vn 0.138 -0.003 -0.990
vn 0.136 -0.006 -0.991
vn 0.136 -0.006 -0.991
vn 0.136 -0.006 -0.991
vn 0.730 0.020 -0.683
vn 0.730 0.020 -0.683
vn 0.730 0.020 -0.683
vn 0.725 0.014 -0.689
vn 0.725 0.014 -0.689
vn 0.725 0.014 -0.689
vn 0.999 0.037 -0.000
vn 0.999 0.037 -0.000
vn 0.999 0.037 -0.000
vn 0.999 0.037 -0.000
vn 0.999 0.037 -0.000
vn 0.999 0.037 -0.000
vn 0.730 0.035 0.683
vn 0.730 0.035 0.683
vn 0.730 0.035 0.683
vn 0.724 0.040 0.688
vn 0.724 0.040 0.688
vn 0.724 0.040 0.688
vn 0.138 0.024 0.990
vn 0.138 0.024 0.990
vn 0.138 0.024 0.990
vn 0.136 0.026 0.990
vn 0.136 0.026 0.990
vn 0.136 0.026 0.990
vn -0.136 0.071 0.988
vn -0.136 0.071 0.988
vn -0.136 0.071 0.988
vn -0.132 0.066 0.989
vn -0.132 0.066 0.989
vn -0.132 0.066 0.989
vn -0.721 0.103 0.685
vn -0.721 0.103 0.685
vn -0.721 0.103 0.685
vn -0.712 0.093 0.696
vn -0.712 0.093 0.696
vn -0.712 0.093 0.696
vn -0.995 0.097 0.000
vn -0.995 0.097 0.000
vn -0.995 0.097 0.000
vn -0.995 0.097 0.000
vn -0.995 0.097 0.000
vn -0.995 0.097 0.000
vn -0.724 0.047 -0.688
vn -0.724 0.047 -0.688
vn -0.724 0.047 -0.688
vn -0.714 0.056 -0.698
vn -0.714 0.056 -0.698
vn -0.714 0.056 -0.698
vn -0.136 0.000 -0.991
vn -0.136 0.000 -0.991
vn -0.136 0.000 -0.991
vn -0.133 0.005 -0.991
vn -0.133 0.005 -0.991
vn -0.133 0.005 -0.991
vn 0.136 0.005 -0.991
vn 0.136 0.005 -0.991
vn 0.136 0.005 -0.991
vn 0.133 -0.000 -0.991
vn 0.133 -0.000 -0.991
vn 0.133 -0.000 -0.991
vn 0.724 0.057 -0.688
vn 0.724 0.057 -0.688
vn 0.724 0.057 -0.688
vn 0.715 0.046 -0.698
vn 0.715 0.046 -0.698
vn 0.715 0.046 -0.698
vn 0.995 0.097 -0.000
vn 0.995 0.097 -0.000
vn 0.995 0.097 -0.000
vn 0.995 0.097 -0.000
vn 0.995 0.097 -0.000
vn 0.995 0.097 -0.000
vn 0.722 0.093 0.686
vn 0.722 0.093 0.686
vn 0.722 0.093 0.686
vn 0.712 0.103 0.695
vn 0.712 0.103 0.695
vn 0.712 0.103 0.695
vn 0.136 0.066 0.988
vn 0.136 0.066 0.988
vn 0.136 0.066 0.988
vn 0.132 0.071 0.989
vn 0.132 0.071 0.989
vn 0.132 0.071 0.989
vn -0.132 -0.045 0.990
vn -0.132 -0.045 0.990
vn -0.132 -0.045 0.990
vn -0.121 -0.061 0.991
vn -0.121 -0.061 0.991
vn -0.121 -0.061 0.991
vn -0.715 0.047 0.698
vn -0.715 0.047 0.698
vn -0.715 0.047 0.698
vn -0.684 0.009 0.730
vn -0.684 0.009 0.730
vn -0.684 0.009 0.730
vn -0.995 0.102 0.000
vn -0.995 0.102 0.000
vn -0.995 0.102 0.000
vn -0.995 0.102 0.000
vn -0.995 0.102 0.000
vn -0.995 0.102 0.000
vn -0.715 0.040 -0.698
vn -0.715 0.040 -0.698
vn -0.715 0.040 -0.698
vn -0.682 0.070 -0.728
vn -0.682 0.070 -0.728
vn -0.682 0.070 -0.728
vn -0.133 -0.023 -0.991
vn -0.133 -0.023 -0.991
vn -0.133 -0.023 -0.991
vn -0.121 -0.008 -0.993
vn -0.121 -0.008 -0.993
vn -0.121 -0.008 -0.993
vn 0.133 -0.008 -0.991
vn 0.133 -0.008 -0.991
vn 0.133 -0.008 -0.991
vn 0.121 -0.023 -0.992
vn 0.121 -0.023 -0.992
vn 0.121 -0.023 -0.992
vn 0.713 0.073 -0.697
vn 0.713 0.073 -0.697
vn 0.713 0.073 -0.697
vn 0.683 0.037 -0.729
vn 0.683 0.037 -0.729
vn 0.683 0.037 -0.729
vn 0.995 0.102 -0.000
vn 0.995 0.102 -0.000
vn 0.995 0.102 -0.000
vn 0.995 0.102 -0.000
vn 0.995 0.102 -0.000
vn 0.995 0.102 -0.000
vn 0.715 0.013 0.699
vn 0.715 0.013 0.699
vn 0.715 0.013 0.699
vn 0.683 0.042 0.729
vn 0.683 0.042 0.729
vn 0.683 0.042 0.729
vn 0.132 -0.061 0.989
vn 0.132 -0.061 0.989
vn 0.132 -0.061 0.989
vn 0.121 -0.046 0.992
vn 0.121 -0.046 0.992
vn 0.121 -0.046 0.992
vn -0.120 -0.148 0.982
vn -0.120 -0.148 0.982
vn -0.120 -0.148 0.982
vn -0.110 -0.162 0.981
vn -0.110 -0.162 0.981
vn -0.110 -0.162 0.981
vn -0.681 -0.095 0.727
vn -0.681 -0.095 0.727
vn -0.681 -0.095 0.727
vn -0.647 -0.128 0.752
vn -0.647 -0.128 0.752
vn -0.647 -0.128 0.752
vn -0.999 -0.035 0.000
vn -0.999 -0.035 0.000
vn -0.999 -0.035 0.000
vn -0.999 -0.035 0.000
vn -0.999 -0.035 0.000
vn -0.999 -0.035 0.000
vn -0.682 -0.060 -0.729
vn -0.682 -0.060 -0.729
vn -0.682 -0.060 -0.729
vn -0.652 -0.029 -0.758
vn -0.652 -0.029 -0.758
vn -0.652 -0.029 -0.758
vn -0.121 -0.075 -0.990
vn -0.121 -0.075 -0.990
vn -0.121 -0.075 -0.990
vn -0.111 -0.061 -0.992
vn -0.111 -0.061 -0.992
vn -0.111 -0.061 -0.992
vn 0.121 -0.061 -0.991
vn 0.121 -0.061 -0.991
vn 0.121 -0.061 -0.991
vn 0.111 -0.075 -0.991
vn 0.111 -0.075 -0.991
vn 0.111 -0.075 -0.991
vn 0.683 -0.030 -0.730
vn 0.683 -0.030 -0.730
vn 0.683 -0.030 -0.730
vn 0.651 -0.061 -0.757
vn 0.651 -0.061 -0.757
vn 0.651 -0.061 -0.757
vn 0.999 -0.035 -0.000
vn 0.999 -0.035 -0.000
vn 0.999 -0.035 -0.000
vn 0.999 -0.035 0.000
vn 0.999 -0.035 0.000
vn 0.999 -0.035 0.000
vn 0.678 -0.124 0.724
vn 0.678 -0.124 0.724
vn 0.678 -0.124 0.724
vn 0.649 -0.096 0.755
vn 0.649 -0.096 0.755
vn 0.649 -0.096 0.755
vn 0.120 -0.161 0.980
vn 0.120 -0.161 0.980
vn 0.120 -0.161 0.980
vn 0.110 -0.148 0.983
vn 0.110 -0.148 0.983
vn 0.110 -0.148 0.983
vn -0.097 -0.500 0.861
vn -0.097 -0.500 0.861
vn -0.097 -0.500 0.861
vn -0.139 -0.480 0.866
vn -0.139 -0.480 0.866
vn -0.139 -0.480 0.866
vn -0.472 -0.691 0.548
vn -0.472 -0.691 0.548
vn -0.472 -0.691 0.548
vn -0.567 -0.681 0.463
vn -0.567 -0.681 0.463
vn -0.567 -0.681 0.463
vn -0.665 -0.747 0.000
vn -0.665 -0.747 0.000
vn -0.665 -0.747 0.000
vn -0.665 -0.747 0.000
vn -0.665 -0.747 0.000
vn -0.665 -0.747 0.000
vn -0.520 -0.604 -0.604
vn -0.520 -0.604 -0.604
vn -0.520 -0.604 -0.604
vn -0.564 -0.686 -0.461
vn -0.564 -0.686 -0.461
vn -0.564 -0.686 -0.461
vn -0.105 -0.349 -0.931
vn -0.105 -0.349 -0.931
vn -0.105 -0.349 -0.931
vn -0.145 -0.398 -0.906
vn -0.145 -0.398 -0.906
vn -0.145 -0.398 -0.906
vn 0.104 -0.370 -0.923
vn 0.104 -0.370 -0.923
vn 0.104 -0.370 -0.923
vn 0.148 -0.347 -0.926
vn 0.148 -0.347 -0.926
vn 0.148 -0.347 -0.926
vn 0.505 -0.633 -0.587
vn 0.505 -0.633 -0.587
vn 0.505 -0.633 -0.587
vn 0.600 -0.633 -0.490
vn 0.600 -0.633 -0.490
vn 0.600 -0.633 -0.490
vn 0.665 -0.747 0.000
vn 0.665 -0.747 0.000
vn 0.665 -0.747 0.000
vn 0.665 -0.747 -0.000
vn 0.665 -0.747 -0.000
vn 0.665 -0.747 -0.000
vn 0.486 -0.667 0.565
vn 0.486 -0.667 0.565
vn 0.486 -0.667 0.565
vn 0.533 -0.726 0.435
vn 0.533 -0.726 0.435
vn 0.533 -0.726 0.435
vn 0.098 -0.483 0.870
vn 0.098 -0.483 0.870
vn 0.098 -0.483 0.870
vn 0.135 -0.521 0.843
vn 0.135 -0.521 0.843
vn 0.135 -0.521 0.843
v 0.0700 0.5490 0.0120
v 0.0560 0.5350 0.0120
v 0.0700 0.5210 0.0120
v 0.0840 0.5350 0.0120
v 0.0700 0.5490 0.0120
v 0.0566 0.5490 0.0531
v 0.0453 0.5350 0.0449
v 0.0566 0.5210 0.0531
v 0.0680 0.5350 0.0614
v 0.0566 0.5490 0.0531
v 0.0216 0.5490 0.0786
v 0.0173 0.5350 0.0653
v 0.0216 0.5210 0.0786
v 0.0260 0.5350 0.0919
v 0.0216 0.5490 0.0786
v -0.0216 0.5490 0.0786
v -0.0173 0.5350 0.0653
v -0.0216 0.5210 0.0786
v -0.0260 0.5350 0.0919
v -0.0216 0.5490 0.0786
v -0.0566 0.5490 0.0531
v -0.0453 0.5350 0.0449
v -0.0566 0.5210 0.0531
v -0.0680 0.5350 0.0614
v -0.0566 0.5490 0.0531
v -0.0700 0.5490 0.0120
v -0.0560 0.5350 0.0120
v -0.0700 0.5210 0.0120
v -0.0840 0.5350 0.0120
v -0.0700 0.5490 0.0120
v -0.0566 0.5490 -0.0291
v -0.0453 0.5350 -0.0209
v -0.0566 0.5210 -0.0291
v -0.0680 0.5350 -0.0374
v -0.0566 0.5490 -0.0291
v -0.0216 0.5490 -0.0546
v -0.0173 0.5350 -0.0413
v -0.0216 0.5210 -0.0546
v -0.0260 0.5350 -0.0679
v -0.0216 0.5490 -0.0546
v 0.0216 0.5490 -0.0546
v 0.0173 0.5350 -0.0413
v 0.0216 0.5210 -0.0546
v 0.0260 0.5350 -0.0679
v 0.0216 0.5490 -0.0546
v 0.0566 0.5490 -0.0291
v 0.0453 0.5350 -0.0209
v 0.0566 0.5210 -0.0291
v 0.0680 0.5350 -0.0374
v 0.0566 0.5490 -0.0291
v 0.0700 0.5490 0.0120
v 0.0560 0.5350 0.0120
v 0.0700 0.5210 0.0120
v 0.0840 0.5350 0.0120
v 0.0700 0.5490 0.0120
v 0.0060 0.5200 -0.0800
v 0.0000 0.5195 -0.0740
v -0.0060 0.5200 -0.0800
v -0.0000 0.5205 -0.0860
v 0.0060 0.5200 -0.0800
v 0.0060 0.0200 -0.1250
v 0.0000 0.0195 -0.1190
v -0.0060 0.0200 -0.1250
v -0.0000 0.0205 -0.1310
v 0.0060 0.0200 -0.1250
v 0.0000 0.5200 -0.0800
v 0.0060 0.5200 -0.0800
v 0.0000 0.5195 -0.0740
v -0.0060 0.5200 -0.0800
v -0.0000 0.5205 -0.0860
v 0.0000 0.0200 -0.1250
v 0.0060 0.0200 -0.1250
v 0.0000 0.0195 -0.1190
v -0.0060 0.0200 -0.1250
v -0.0000 0.0205 -0.1310
v 0.0000 0.4380 -0.1280
v 0.0000 0.4380 -0.1280
v 0.0000 0.4380 -0.1280
v 0.0000 0.4380 -0.1280
v -0.0000 0.4380 -0.1280
v -0.0000 0.4380 -0.1280
v -0.0000 0.4380 -0.1280
v 0.0000 0.4415 -0.1238
v 0.0073 0.4415 -0.1259
v 0.0073 0.4415 -0.1301
v 0.0000 0.4415 -0.1322
v -0.0073 0.4415 -0.1301
v -0.0073 0.4415 -0.1259
v -0.0000 0.4415 -0.1238
v 0.0000 0.4500 -0.1220
v 0.0104 0.4500 -0.1250
v 0.0104 0.4500 -0.1310
v 0.0000 0.4500 -0.1340
v -0.0104 0.4500 -0.1310
v -0.0104 0.4500 -0.1250
v -0.0000 0.4500 -0.1220
v 0.0000 0.4585 -0.1238
v 0.0073 0.4585 -0.1259
v 0.0073 0.4585 -0.1301
v 0.0000 0.4585 -0.1322
v -0.0073 0.4585 -0.1301
v -0.0073 0.4585 -0.1259
v -0.0000 0.4585 -0.1238
v 0.0000 0.4620 -0.1280
v 0.0000 0.4620 -0.1280
v 0.0000 0.4620 -0.1280
v 0.0000 0.4620 -0.1280
v -0.0000 0.4620 -0.1280
v -0.0000 0.4620 -0.1280
v -0.0000 0.4620 -0.1280
v 0.0000 0.3480 -0.1280
v 0.0000 0.3480 -0.1280
v 0.0000 0.3480 -0.1280
v 0.0000 0.3480 -0.1280
v -0.0000 0.3480 -0.1280
v -0.0000 0.3480 -0.1280
v -0.0000 0.3480 -0.1280
v 0.0000 0.3515 -0.1238
v 0.0073 0.3515 -0.1259
v 0.0073 0.3515 -0.1301
v 0.0000 0.3515 -0.1322
v -0.0073 0.3515 -0.1301
v -0.0073 0.3515 -0.1259
v -0.0000 0.3515 -0.1238
v 0.0000 0.3600 -0.1220
v 0.0104 0.3600 -0.1250
v 0.0104 0.3600 -0.1310
v 0.0000 0.3600 -0.1340
v -0.0104 0.3600 -0.1310
v -0.0104 0.3600 -0.1250
v -0.0000 0.3600 -0.1220
v 0.0000 0.3685 -0.1238
v 0.0073 0.3685 -0.1259
v 0.0073 0.3685 -0.1301
v 0.0000 0.3685 -0.1322
v -0.0073 0.3685 -0.1301
v -0.0073 0.3685 -0.1259
v -0.0000 0.3685 -0.1238
v 0.0000 0.3720 -0.1280
v 0.0000 0.3720 -0.1280
v 0.0000 0.3720 -0.1280
v 0.0000 0.3720 -0.1280
v -0.0000 0.3720 -0.1280
v -0.0000 0.3720 -0.1280
v -0.0000 0.3720 -0.1280
v 0.0000 0.2580 -0.1280
v 0.0000 0.2580 -0.1280
v 0.0000 0.2580 -0.1280
v 0.0000 0.2580 -0.1280
v -0.0000 0.2580 -0.1280
v -0.0000 0.2580 -0.1280
v -0.0000 0.2580 -0.1280
v 0.0000 0.2615 -0.1238
v 0.0073 0.2615 -0.1259
v 0.0073 0.2615 -0.1301
v 0.0000 0.2615 -0.1322
v -0.0073 0.2615 -0.1301
v -0.0073 0.2615 -0.1259
v -0.0000 0.2615 -0.1238
v 0.0000 0.2700 -0.1220
v 0.0104 0.2700 -0.1250
v 0.0104 0.2700 -0.1310
v 0.0000 0.2700 -0.1340
v -0.0104 0.2700 -0.1310
v -0.0104 0.2700 -0.1250
v -0.0000 0.2700 -0.1220
v 0.0000 0.2785 -0.1238
v 0.0073 0.2785 -0.1259
v 0.0073 0.2785 -0.1301
v 0.0000 0.2785 -0.1322
v -0.0073 0.2785 -0.1301
v -0.0073 0.2785 -0.1259
v -0.0000 0.2785 -0.1238
v 0.0000 0.2820 -0.1280
v 0.0000 0.2820 -0.1280
v 0.0000 0.2820 -0.1280
v 0.0000 0.2820 -0.1280
v -0.0000 0.2820 -0.1280
v -0.0000 0.2820 -0.1280
v -0.0000 0.2820 -0.1280
v 0.0000 0.1680 -0.1280
v 0.0000 0.1680 -0.1280
v 0.0000 0.1680 -0.1280
v 0.0000 0.1680 -0.1280
v -0.0000 0.1680 -0.1280
v -0.0000 0.1680 -0.1280
v -0.0000 0.1680 -0.1280
v 0.0000 0.1715 -0.1238
v 0.0073 0.1715 -0.1259
v 0.0073 0.1715 -0.1301
v 0.0000 0.1715 -0.1322
v -0.0073 0.1715 -0.1301
v -0.0073 0.1715 -0.1259
v -0.0000 0.1715 -0.1238
v 0.0000 0.1800 -0.1220
v 0.0104 0.1800 -0.1250
v 0.0104 0.1800 -0.1310
v 0.0000 0.1800 -0.1340
v -0.0104 0.1800 -0.1310
v -0.0104 0.1800 -0.1250
v -0.0000 0.1800 -0.1220
v 0.0000 0.1885 -0.1238
v 0.0073 0.1885 -0.1259
v 0.0073 0.1885 -0.1301
v 0.0000 0.1885 -0.1322
v -0.0073 0.1885 -0.1301
v -0.0073 0.1885 -0.1259
v -0.0000 0.1885 -0.1238
v 0.0000 0.1920 -0.1280
v 0.0000 0.1920 -0.1280
v 0.0000 0.1920 -0.1280
v 0.0000 0.1920 -0.1280
v -0.0000 0.1920 -0.1280
v -0.0000 0.1920 -0.1280
v -0.0000 0.1920 -0.1280
v 0.0000 0.0780 -0.1280
v 0.0000 0.0780 -0.1280
v 0.0000 0.0780 -0.1280
v 0.0000 0.0780 -0.1280
v -0.0000 0.0780 -0.1280
v -0.0000 0.0780 -0.1280
v -0.0000 0.0780 -0.1280
v 0.0000 0.0815 -0.1238
v 0.0073 0.0815 -0.1259
v 0.0073 0.0815 -0.1301
v 0.0000 0.0815 -0.1322
v -0.0073 0.0815 -0.1301
v -0.0073 0.0815 -0.1259
v -0.0000 0.0815 -0.1238
v 0.0000 0.0900 -0.1220
v 0.0104 0.0900 -0.1250
v 0.0104 0.0900 -0.1310
v 0.0000 0.0900 -0.1340
v -0.0104 0.0900 -0.1310
v -0.0104 0.0900 -0.1250
v -0.0000 0.0900 -0.1220
v 0.0000 0.0985 -0.1238
v 0.0073 0.0985 -0.1259
v 0.0073 0.0985 -0.1301
v 0.0000 0.0985 -0.1322
v -0.0073 0.0985 -0.1301
v -0.0073 0.0985 -0.1259
v -0.0000 0.0985 -0.1238
v 0.0000 0.1020 -0.1280
v 0.0000 0.1020 -0.1280
v 0.0000 0.1020 -0.1280
v 0.0000 0.1020 -0.1280
v -0.0000 0.1020 -0.1280
v -0.0000 0.1020 -0.1280
v -0.0000 0.1020 -0.1280
vt 0.0000 0.0000
vt 0.0000 0.0220
vt 0.0000 0.0440
vt 0.0000 0.0660
vt 0.0000 0.0880
vt 0.0433 0.0000
vt 0.0433 0.0220
vt 0.0433 0.0440
vt 0.0433 0.0660
vt 0.0433 0.0880
vt 0.0865 0.0000
vt 0.0865 0.0220
vt 0.0865 0.0440
vt 0.0865 0.0660
vt 0.0865 0.0880
vt 0.1298 0.0000
vt 0.1298 0.0220
vt 0.1298 0.0440
vt 0.1298 0.0660
vt 0.1298 0.0880
vt 0.1730 0.0000
vt 0.1730 0.0220
vt 0.1730 0.0440
vt 0.1730 0.0660
vt 0.1730 0.0880
vt 0.2163 0.0000
vt 0.2163 0.0220
vt 0.2163 0.0440
vt 0.2163 0.0660
vt 0.2163 0.0880
vt 0.2596 0.0000
vt 0.2596 0.0220
vt 0.2596 0.0440
vt 0.2596 0.0660
vt 0.2596 0.0880
vt 0.3028 0.0000
vt 0.3028 0.0220
vt 0.3028 0.0440
vt 0.3028 0.0660
vt 0.3028 0.0880
vt 0.3461 0.0000
vt 0.3461 0.0220
vt 0.3461 0.0440
vt 0.3461 0.0660
vt 0.3461 0.0880
vt 0.3894 0.0000
vt 0.3894 0.0220
vt 0.3894 0.0440
vt 0.3894 0.0660
vt 0.3894 0.0880
vt 0.4326 0.0000
vt 0.4326 0.0220
vt 0.4326 0.0440
vt 0.4326 0.0660
vt 0.4326 0.0880
vt 0.0000 0.0000
vt 0.0000 0.0094
vt 0.0000 0.0188
vt 0.0000 0.0283
vt 0.0000 0.0377
vt 0.5020 0.0000
vt 0.5020 0.0094
vt 0.5020 0.0188
vt 0.5020 0.0283
vt 0.5020 0.0377
vt 0.0000 0.0000
vt 0.0060 0.0000
vt 0.0000 0.0060
vt -0.0060 0.0000
vt -0.0000 -0.0060
vt 0.0000 0.0000
vt 0.0060 0.0000
vt 0.0000 0.0060
vt -0.0060 0.0000
vt -0.0000 -0.0060
vt 0.0000 0.0000
vt 0.0108 0.0000
vt 0.0168 0.0000
vt 0.0276 0.0000
vt 0.0384 0.0000
vt 0.0444 0.0000
vt 0.0553 0.0000
vt 0.0000 0.0055
vt 0.0108 0.0055
vt 0.0168 0.0055
vt 0.0276 0.0055
vt 0.0384 0.0055
vt 0.0444 0.0055
vt 0.0553 0.0055
vt 0.0000 0.0142
vt 0.0108 0.0142
vt 0.0168 0.0142
vt 0.0276 0.0142
vt 0.0384 0.0142
vt 0.0444 0.0142
vt 0.0553 0.0142
vt 0.0000 0.0228
vt 0.0108 0.0228
vt 0.0168 0.0228
vt 0.0276 0.0228
vt 0.0384 0.0228
vt 0.0444 0.0228
vt 0.0553 0.0228
vt 0.0000 0.0283
vt 0.0108 0.0283
vt 0.0168 0.0283
vt 0.0276 0.0283
vt 0.0384 0.0283
vt 0.0444 0.0283
vt 0.0553 0.0283
vt 0.0000 0.0000
vt 0.0108 0.0000
vt 0.0168 0.0000
vt 0.0276 0.0000
vt 0.0384 0.0000
vt 0.0444 0.0000
vt 0.0553 0.0000
vt 0.0000 0.0055
vt 0.0108 0.0055
vt 0.0168 0.0055
vt 0.0276 0.0055
vt 0.0384 0.0055
vt 0.0444 0.0055
vt 0.0553 0.0055
vt 0.0000 0.0142
vt 0.0108 0.0142
vt 0.0168 0.0142
vt 0.0276 0.0142
vt 0.0384 0.0142
vt 0.0444 0.0142
vt 0.0553 0.0142
vt 0.0000 0.0228
vt 0.0108 0.0228
vt 0.0168 0.0228
vt 0.0276 0.0228
vt 0.0384 0.0228
vt 0.0444 0.0228
vt 0.0553 0.0228
vt 0.0000 0.0283
vt 0.0108 0.0283
vt 0.0168 0.0283
vt 0.0276 0.0283
vt 0.0384 0.0283
vt 0.0444 0.0283
vt 0.0553 0.0283
vt 0.0000 0.0000
vt 0.0108 0.0000
vt 0.0168 0.0000
vt 0.0276 0.0000
vt 0.0384 0.0000
vt 0.0444 0.0000
vt 0.0553 0.0000
vt 0.0000 0.0055
vt 0.0108 0.0055
vt 0.0168 0.0055
vt 0.0276 0.0055
vt 0.0384 0.0055
vt 0.0444 0.0055
vt 0.0553 0.0055
vt 0.0000 0.0142
vt 0.0108 0.0142
vt 0.0168 0.0142
vt 0.0276 0.0142
vt 0.0384 0.0142
vt 0.0444 0.0142
vt 0.0553 0.0142
vt 0.0000 0.0228
vt 0.0108 0.0228
vt 0.0168 0.0228
vt 0.0276 0.0228
vt 0.0384 0.0228
vt 0.0444 0.0228
vt 0.0553 0.0228
vt 0.0000 0.0283
vt 0.0108 0.0283
vt 0.0168 0.0283
vt 0.0276 0.0283
vt 0.0384 0.0283
vt 0.0444 0.0283
vt 0.0553 0.0283
vt 0.0000 0.0000
vt 0.0108 0.0000
vt 0.0168 0.0000
vt 0.0276 0.0000
vt 0.0384 0.0000
vt 0.0444 0.0000
vt 0.0553 0.0000
vt 0.0000 0.0055
vt 0.0108 0.0055
vt 0.0168 0.0055
vt 0.0276 0.0055
vt 0.0384 0.0055
vt 0.0444 0.0055
vt 0.0553 0.0055
vt 0.0000 0.0142
vt 0.0108 0.0142
vt 0.0168 0.0142
vt 0.0276 0.0142
vt 0.0384 0.0142
vt 0.0444 0.0142
vt 0.0553 0.0142
vt 0.0000 0.0228
vt 0.0108 0.0228
vt 0.0168 0.0228
vt 0.0276 0.0228
vt 0.0384 0.0228
vt 0.0444 0.0228
vt 0.0553 0.0228
vt 0.0000 0.0283
vt 0.0108 0.0283
vt 0.0168 0.0283
vt 0.0276 0.0283
vt 0.0384 0.0283
vt 0.0444 0.0283
vt 0.0553 0.0283
vt 0.0000 0.0000
vt 0.0108 0.0000
vt 0.0168 0.0000
vt 0.0276 0.0000
vt 0.0384 0.0000
vt 0.0444 0.0000
vt 0.0553 0.0000
vt 0.0000 0.0055
vt 0.0108 0.0055
vt 0.0168 0.0055
vt 0.0276 0.0055
vt 0.0384 0.0055
vt 0.0444 0.0055
vt 0.0553 0.0055
vt 0.0000 0.0142
vt 0.0108 0.0142
vt 0.0168 0.0142
vt 0.0276 0.0142
vt 0.0384 0.0142
vt 0.0444 0.0142
vt 0.0553 0.0142
vt 0.0000 0.0228
vt 0.0108 0.0228
vt 0.0168 0.0228
vt 0.0276 0.0228
vt 0.0384 0.0228
vt 0.0444 0.0228
vt 0.0553 0.0228
vt 0.0000 0.0283
vt 0.0108 0.0283
vt 0.0168 0.0283
vt 0.0276 0.0283
vt 0.0384 0.0283
vt 0.0444 0.0283
vt 0.0553 0.0283
vn 0.000 1.000 0.000
vn -1.000 0.000 0.000
vn -0.000 -1.000 0.000
vn 1.000 -0.000 -0.000
vn 0.000 1.000 -0.000
vn 0.000 1.000 -0.000
vn -0.809 0.000 -0.588
vn -0.000 -1.000 -0.000
vn 0.809 -0.000 0.588
vn 0.000 1.000 0.000
vn 0.000 1.000 -0.000
vn -0.309 0.000 -0.951
vn -0.000 -1.000 -0.000
vn 0.309 -0.000 0.951
vn 0.000 1.000 0.000
vn 0.000 1.000 0.000
vn 0.309 0.000 -0.951
vn 0.000 -1.000 -0.000
vn -0.309 -0.000 0.951
vn -0.000 1.000 0.000
vn 0.000 1.000 0.000
vn 0.809 0.000 -0.588
vn 0.000 -1.000 -0.000
vn -0.809 -0.000 0.588
vn -0.000 1.000 0.000
vn 0.000 1.000 0.000
vn 1.000 0.000 -0.000
vn 0.000 -1.000 -0.000
vn -1.000 -0.000 0.000
vn -0.000 1.000 0.000
vn 0.000 1.000 0.000
vn 0.809 0.000 0.588
vn 0.000 -1.000 0.000
vn -0.809 -0.000 -0.588
vn -0.000 1.000 -0.000
vn 0.000 1.000 0.000
vn 0.309 0.000 0.951
vn 0.000 -1.000 0.000
vn -0.309 -0.000 -0.951
vn -0.000 1.000 -0.000
vn 0.000 1.000 0.000
vn -0.309 0.000 0.951
vn -0.000 -1.000 0.000
vn 0.309 -0.000 -0.951
vn 0.000 1.000 -0.000
vn 0.000 1.000 0.000
vn -0.809 0.000 0.588
vn -0.000 -1.000 0.000
vn 0.809 -0.000 -0.588
vn 0.000 1.000 -0.000
vn 0.000 1.000 0.000
vn -1.000 0.000 0.000
vn -0.000 -1.000 0.000
vn 1.000 -0.000 -0.000
vn 0.000 1.000 -0.000
vn 1.000 0.000 0.000
vn 0.000 -0.090 0.996
vn -1.000 -0.000 0.000
vn -0.000 0.090 -0.996
vn 1.000 0.000 -0.000
vn 1.000 0.000 0.000
vn 0.000 -0.090 0.996
vn -1.000 -0.000 0.000
vn -0.000 0.090 -0.996
vn 1.000 0.000 -0.000
vn -0.000 0.996 0.090
vn -0.000 0.996 0.090
vn -0.000 0.996 0.090
vn -0.000 0.996 0.090
vn -0.000 0.996 0.090
vn 0.000 -0.996 -0.090
vn 0.000 -0.996 -0.090
vn 0.000 -0.996 -0.090
vn 0.000 -0.996 -0.090
vn 0.000 -0.996 -0.090
vn 0.000 -0.447 0.894
vn 0.522 -0.603 0.603
vn 0.522 -0.603 -0.603
vn 0.000 -0.447 -0.894
vn -0.522 -0.603 -0.603
vn -0.522 -0.603 0.603
vn 0.000 -0.447 0.894
vn 0.000 -0.447 0.894
vn 0.522 -0.603 0.603
vn 0.522 -0.603 -0.603
vn 0.000 -0.447 -0.894
vn -0.522 -0.603 -0.603
vn -0.522 -0.603 0.603
vn 0.000 -0.447 0.894
vn 0.000 0.000 1.000
vn 0.655 0.000 0.756
vn 0.655 0.000 -0.756
vn 0.000 0.000 -1.000
vn -0.655 0.000 -0.756
vn -0.655 0.000 0.756
vn 0.000 0.000 1.000
vn 0.000 0.447 0.894
vn 0.522 0.603 0.603
vn 0.522 0.603 -0.603
vn 0.000 0.447 -0.894
vn -0.522 0.603 -0.603
vn -0.522 0.603 0.603
vn 0.000 0.447 0.894
vn 0.000 0.447 0.894
vn 0.522 0.603 0.603
vn 0.522 0.603 -0.603
vn 0.000 0.447 -0.894
vn -0.522 0.603 -0.603
vn -0.522 0.603 0.603
vn 0.000 0.447 0.894
vn 0.000 -0.447 0.894
vn 0.522 -0.603 0.603
vn 0.522 -0.603 -0.603
vn 0.000 -0.447 -0.894
vn -0.522 -0.603 -0.603
vn -0.522 -0.603 0.603
vn 0.000 -0.447 0.894
vn 0.000 -0.447 0.894
vn 0.522 -0.603 0.603
vn 0.522 -0.603 -0.603
vn 0.000 -0.447 -0.894
vn -0.522 -0.603 -0.603
vn -0.522 -0.603 0.603
vn 0.000 -0.447 0.894
vn 0.000 0.000 1.000
vn 0.655 0.000 0.756
vn 0.655 0.000 -0.756
vn 0.000 0.000 -1.000
vn -0.655 0.000 -0.756
vn -0.655 0.000 0.756
vn 0.000 0.000 1.000
vn 0.000 0.447 0.894
vn 0.522 0.603 0.603
vn 0.522 0.603 -0.603
vn 0.000 0.447 -0.894
vn -0.522 0.603 -0.603
vn -0.522 0.603 0.603
vn 0.000 0.447 0.894
vn 0.000 0.447 0.894
vn 0.522 0.603 0.603
vn 0.522 0.603 -0.603
vn 0.000 0.447 -0.894
vn -0.522 0.603 -0.603
vn -0.522 0.603 0.603
vn 0.000 0.447 0.894
vn 0.000 -0.447 0.894
vn 0.522 -0.603 0.603
vn 0.522 -0.603 -0.603
vn 0.000 -0.447 -0.894
vn -0.522 -0.603 -0.603
vn -0.522 -0.603 0.603
vn 0.000 -0.447 0.894
vn 0.000 -0.447 0.894
vn 0.522 -0.603 0.603
vn 0.522 -0.603 -0.603
vn 0.000 -0.447 -0.894
vn -0.522 -0.603 -0.603
vn -0.522 -0.603 0.603
vn 0.000 -0.447 0.894
vn 0.000 0.000 1.000
vn 0.655 0.000 0.756
vn 0.655 0.000 -0.756
vn 0.000 0.000 -1.000
vn -0.655 0.000 -0.756
vn -0.655 0.000 0.756
vn 0.000 0.000 1.000
vn 0.000 0.447 0.894
vn 0.522 0.603 0.603
vn 0.522 0.603 -0.603
vn 0.000 0.447 -0.894
vn -0.522 0.603 -0.603
vn -0.522 0.603 0.603
vn 0.000 0.447 0.894
vn 0.000 0.447 0.894
vn 0.522 0.603 0.603
vn 0.522 0.603 -0.603
vn 0.000 0.447 -0.894
vn -0.522 0.603 -0.603
vn -0.522 0.603 0.603
vn 0.000 0.447 0.894
vn 0.000 -0.447 0.894
vn 0.522 -0.603 0.603
vn 0.522 -0.603 -0.603
vn 0.000 -0.447 -0.894
vn -0.522 -0.603 -0.603
vn -0.522 -0.603 0.603
vn 0.000 -0.447 0.894
vn 0.000 -0.447 0.894
vn 0.522 -0.603 0.603
vn 0.522 -0.603 -0.603
vn 0.000 -0.447 -0.894
vn -0.522 -0.603 -0.603
vn -0.522 -0.603 0.603
vn 0.000 -0.447 0.894
vn 0.000 0.000 1.000
vn 0.655 0.000 0.756
vn 0.655 0.000 -0.756
vn 0.000 0.000 -1.000
vn -0.655 0.000 -0.756
vn -0.655 0.000 0.756
vn 0.000 0.000 1.000
vn 0.000 0.447 0.894
vn 0.522 0.603 0.603
vn 0.522 0.603 -0.603
vn 0.000 0.447 -0.894
vn -0.522 0.603 -0.603
vn -0.522 0.603 0.603
vn 0.000 0.447 0.894
vn 0.000 0.447 0.894
vn 0.522 0.603 0.603
vn 0.522 0.603 -0.603
vn 0.000 0.447 -0.894
vn -0.522 0.603 -0.603
vn -0.522 0.603 0.603
vn 0.000 0.447 0.894
vn 0.000 -0.447 0.894
vn 0.522 -0.603 0.603
vn 0.522 -0.603 -0.603
vn 0.000 -0.447 -0.894
vn -0.522 -0.603 -0.603
vn -0.522 -0.603 0.603
vn 0.000 -0.447 0.894
vn 0.000 -0.447 0.894
vn 0.522 -0.603 0.603
vn 0.522 -0.603 -0.603
vn 0.000 -0.447 -0.894
vn -0.522 -0.603 -0.603
vn -0.522 -0.603 0.603
vn 0.000 -0.447 0.894
vn 0.000 0.000 1.000
vn 0.655 0.000 0.756
vn 0.655 0.000 -0.756
vn 0.000 0.000 -1.000
vn -0.655 0.000 -0.756
vn -0.655 0.000 0.756
vn 0.000 0.000 1.000
vn 0.000 0.447 0.894
vn 0.522 0.603 0.603
vn 0.522 0.603 -0.603
vn 0.000 0.447 -0.894
vn -0.522 0.603 -0.603
vn -0.522 0.603 0.603
vn 0.000 0.447 0.894
vn 0.000 0.447 0.894
vn 0.522 0.603 0.603
vn 0.522 0.603 -0.603
vn 0.000 0.447 -0.894
vn -0.522 0.603 -0.603
vn -0.522 0.603 0.603
vn 0.000 0.447 0.894
v -0.0590 0.2499 0.0900
v -0.0645 0.2507 0.0995
v -0.0755 0.2509 0.0995
v -0.0810 0.2501 0.0900
v -0.0755 0.2493 0.0805
v -0.0645 0.2491 0.0805
v -0.0590 0.2499 0.0900
v -0.0690 -0.5801 0.1600
v -0.0745 -0.5793 0.1695
v -0.0855 -0.5791 0.1695
v -0.0910 -0.5799 0.1600
v -0.0855 -0.5807 0.1505
v -0.0745 -0.5809 0.1505
v -0.0690 -0.5801 0.1600
v -0.0700 0.2500 0.0900
v -0.0590 0.2499 0.0900
v -0.0645 0.2507 0.0995
v -0.0755 0.2509 0.0995
v -0.0810 0.2501 0.0900
v -0.0755 0.2493 0.0805
v -0.0645 0.2491 0.0805
v -0.0800 -0.5800 0.1600
v -0.0690 -0.5801 0.1600
v -0.0745 -0.5793 0.1695
v -0.0855 -0.5791 0.1695
v -0.0910 -0.5799 0.1600
v -0.0855 -0.5807 0.1505
v -0.0745 -0.5809 0.1505
v 0.0810 0.2501 0.0900
v 0.0755 0.2509 0.0995
v 0.0645 0.2507 0.0995
v 0.0590 0.2499 0.0900
v 0.0645 0.2491 0.0805
v 0.0755 0.2493 0.0805
v 0.0810 0.2501 0.0900
v 0.0910 -0.5799 0.1600
v 0.0855 -0.5791 0.1695
v 0.0745 -0.5793 0.1695
v 0.0690 -0.5801 0.1600
v 0.0745 -0.5809 0.1505
v 0.0855 -0.5807 0.1505
v 0.0910 -0.5799 0.1600
v 0.0700 0.2500 0.0900
v 0.0810 0.2501 0.0900
v 0.0755 0.2509 0.0995
v 0.0645 0.2507 0.0995
v 0.0590 0.2499 0.0900
v 0.0645 0.2491 0.0805
v 0.0755 0.2493 0.0805
v 0.0800 -0.5800 0.1600
v 0.0910 -0.5799 0.1600
v 0.0855 -0.5791 0.1695
v 0.0745 -0.5793 0.1695
v 0.0690 -0.5801 0.1600
v 0.0745 -0.5809 0.1505
v 0.0855 -0.5807 0.1505
vt 0.0000 0.0000
vt 0.0000 0.0115
vt 0.0000 0.0230
vt 0.0000 0.0346
vt 0.0000 0.0461
vt 0.0000 0.0576
vt 0.0000 0.0691
vt 0.8330 0.0000
vt 0.8330 0.0115
vt 0.8330 0.0230
vt 0.8330 0.0346
vt 0.8330 0.0461
vt 0.8330 0.0576
vt 0.8330 0.0691
vt 0.0000 0.0000
vt 0.0110 0.0000
vt 0.0055 0.0095
vt -0.0055 0.0095
vt -0.0110 0.0000
vt -0.0055 -0.0095
vt 0.0055 -0.0095
vt 0.0000 0.0000
vt 0.0110 0.0000
vt 0.0055 0.0095
vt -0.0055 0.0095
vt -0.0110 0.0000
vt -0.0055 -0.0095
vt 0.0055 -0.0095
vt 0.0000 0.0000
vt 0.0000 0.0115
vt 0.0000 0.0230
vt 0.0000 0.0346
vt 0.0000 0.0461
vt 0.0000 0.0576
vt 0.0000 0.0691
vt 0.8330 0.0000
vt 0.8330 0.0115
vt 0.8330 0.0230
vt 0.8330 0.0346
vt 0.8330 0.0461
vt 0.8330 0.0576
vt 0.8330 0.0691
vt 0.0000 0.0000
vt 0.0110 0.0000
vt 0.0055 0.0095
vt -0.0055 0.0095
vt -0.0110 0.0000
vt -0.0055 -0.0095
vt 0.0055 -0.0095
vt 0.0000 0.0000
vt 0.0110 0.0000
vt 0.0055 0.0095
vt -0.0055 0.0095
vt -0.0110 0.0000
vt -0.0055 -0.0095
vt 0.0055 -0.0095
vn 1.000 -0.012 0.001
vn 0.500 0.067 0.863
vn -0.500 0.079 0.862
vn -1.000 0.012 -0.001
vn -0.500 -0.067 -0.863
vn 0.500 -0.079 -0.862
vn 1.000 -0.012 0.001
vn 1.000 -0.012 0.001
vn 0.500 0.067 0.863
vn -0.500 0.079 0.862
vn -1.000 0.012 -0.001
vn -0.500 -0.067 -0.863
vn 0.500 -0.079 -0.862
vn 1.000 -0.012 0.001
vn 0.012 0.996 -0.084
vn 0.012 0.996 -0.084
vn 0.012 0.996 -0.084
vn 0.012 0.996 -0.084
vn 0.012 0.996 -0.084
vn 0.012 0.996 -0.084
vn 0.012 0.996 -0.084
vn -0.012 -0.996 0.084
vn -0.012 -0.996 0.084
vn -0.012 -0.996 0.084
vn -0.012 -0.996 0.084
vn -0.012 -0.996 0.084
vn -0.012 -0.996 0.084
vn -0.012 -0.996 0.084
vn 1.000 0.012 -0.001
vn 0.500 0.079 0.862
vn -0.500 0.067 0.863
vn -1.000 -0.012 0.001
vn -0.500 -0.079 -0.862
vn 0.500 -0.067 -0.863
vn 1.000 0.012 -0.001
vn 1.000 0.012 -0.001
vn 0.500 0.079 0.862
vn -0.500 0.067 0.863
vn -1.000 -0.012 0.001
vn -0.500 -0.079 -0.862
vn 0.500 -0.067 -0.863
vn 1.000 0.012 -0.001
vn -0.012 0.996 -0.084
vn -0.012 0.996 -0.084
vn -0.012 0.996 -0.084
vn -0.012 0.996 -0.084
vn -0.012 0.996 -0.084
vn -0.012 0.996 -0.084
vn -0.012 0.996 -0.084
vn 0.012 -0.996 0.084
vn 0.012 -0.996 0.084
vn 0.012 -0.996 0.084
vn 0.012 -0.996 0.084
vn 0.012 -0.996 0.084
vn 0.012 -0.996 0.084
vn 0.012 -0.996 0.084
usemtl paper
f 1/1/1 2/2/2 3/3/3
f 4/4/4 5/5/5 6/6/6
f 7/7/7 8/8/8 9/9/9
f 10/10/10 11/11/11 12/12/12
f 13/13/13 14/14/14 15/15/15
f 16/16/16 17/17/17 18/18/18
f 19/19/19 20/20/20 21/21/21
f 22/22/22 23/23/23 24/24/24
f 25/25/25 26/26/26 27/27/27
f 28/28/28 29/29/29 30/30/30
f 31/31/31 32/32/32 33/33/33
f 34/34/34 35/35/35 36/36/36
f 37/37/37 38/38/38 39/39/39
f 40/40/40 41/41/41 42/42/42
f 43/43/43 44/44/44 45/45/45
f 46/46/46 47/47/47 48/48/48
f 49/49/49 50/50/50 51/51/51
f 52/52/52 53/53/53 54/54/54
f 55/55/55 56/56/56 57/57/57
f 58/58/58 59/59/59 60/60/60
f 61/61/61 62/62/62 63/63/63
f 64/64/64 65/65/65 66/66/66
f 67/67/67 68/68/68 69/69/69
f 70/70/70 71/71/71 72/72/72
f 73/73/73 74/74/74 75/75/75
f 76/76/76 77/77/77 78/78/78
f 79/79/79 80/80/80 81/81/81
f 82/82/82 83/83/83 84/84/84
f 85/85/85 86/86/86 87/87/87
f 88/88/88 89/89/89 90/90/90
f 91/91/91 92/92/92 93/93/93
f 94/94/94 95/95/95 96/96/96
f 97/97/97 98/98/98 99/99/99
f 100/100/100 101/101/101 102/102/102
f 103/103/103 104/104/104 105/105/105
f 106/106/106 107/107/107 108/108/108
f 109/109/109 110/110/110 111/111/111
f 112/112/112 113/113/113 114/114/114
f 115/115/115 116/116/116 117/117/117
f 118/118/118 119/119/119 120/120/120
f 121/121/121 122/122/122 123/123/123
f 124/124/124 125/125/125 126/126/126
f 127/127/127 128/128/128 129/129/129
f 130/130/130 131/131/131 132/132/132
f 133/133/133 134/134/134 135/135/135
f 136/136/136 137/137/137 138/138/138
f 139/139/139 140/140/140 141/141/141
f 142/142/142 143/143/143 144/144/144
f 145/145/145 146/146/146 147/147/147
f 148/148/148 149/149/149 150/150/150
f 151/151/151 152/152/152 153/153/153
f 154/154/154 155/155/155 156/156/156
f 157/157/157 158/158/158 159/159/159
f 160/160/160 161/161/161 162/162/162
f 163/163/163 164/164/164 165/165/165
f 166/166/166 167/167/167 168/168/168
f 169/169/169 170/170/170 171/171/171
f 172/172/172 173/173/173 174/174/174
f 175/175/175 176/176/176 177/177/177
f 178/178/178 179/179/179 180/180/180
f 181/181/181 182/182/182 183/183/183
f 184/184/184 185/185/185 186/186/186
f 187/187/187 188/188/188 189/189/189
f 190/190/190 191/191/191 192/192/192
f 193/193/193 194/194/194 195/195/195
f 196/196/196 197/197/197 198/198/198
f 199/199/199 200/200/200 201/201/201
f 202/202/202 203/203/203 204/204/204
f 205/205/205 206/206/206 207/207/207
f 208/208/208 209/209/209 210/210/210
f 211/211/211 212/212/212 213/213/213
f 214/214/214 215/215/215 216/216/216
f 217/217/217 218/218/218 219/219/219
f 220/220/220 221/221/221 222/222/222
f 223/223/223 224/224/224 225/225/225
f 226/226/226 227/227/227 228/228/228
f 229/229/229 230/230/230 231/231/231
f 232/232/232 233/233/233 234/234/234
f 235/235/235 236/236/236 237/237/237
f 238/238/238 239/239/239 240/240/240
f 241/241/241 242/242/242 243/243/243
f 244/244/244 245/245/245 246/246/246
f 247/247/247 248/248/248 249/249/249
f 250/250/250 251/251/251 252/252/252
f 253/253/253 254/254/254 255/255/255
f 256/256/256 257/257/257 258/258/258
f 259/259/259 260/260/260 261/261/261
f 262/262/262 263/263/263 264/264/264
f 265/265/265 266/266/266 267/267/267
f 268/268/268 269/269/269 270/270/270
f 271/271/271 272/272/272 273/273/273
f 274/274/274 275/275/275 276/276/276
f 277/277/277 278/278/278 279/279/279
f 280/280/280 281/281/281 282/282/282
f 283/283/283 284/284/284 285/285/285
f 286/286/286 287/287/287 288/288/288
f 289/289/289 290/290/290 291/291/291
f 292/292/292 293/293/293 294/294/294
f 295/295/295 296/296/296 297/297/297
f 298/298/298 299/299/299 300/300/300
f 301/301/301 302/302/302 303/303/303
f 304/304/304 305/305/305 306/306/306
f 307/307/307 308/308/308 309/309/309
f 310/310/310 311/311/311 312/312/312
f 313/313/313 314/314/314 315/315/315
f 316/316/316 317/317/317 318/318/318
f 319/319/319 320/320/320 321/321/321
f 322/322/322 323/323/323 324/324/324
f 325/325/325 326/326/326 327/327/327
f 328/328/328 329/329/329 330/330/330
f 331/331/331 332/332/332 333/333/333
f 334/334/334 335/335/335 336/336/336
f 337/337/337 338/338/338 339/339/339
f 340/340/340 341/341/341 342/342/342
f 343/343/343 344/344/344 345/345/345
f 346/346/346 347/347/347 348/348/348
f 349/349/349 350/350/350 351/351/351
f 352/352/352 353/353/353 354/354/354
f 355/355/355 356/356/356 357/357/357
f 358/358/358 359/359/359 360/360/360
usemtl trim
f 361/361/361 362/362/362 367/367/367
f 361/361/361 367/367/367 366/366/366
f 362/362/362 363/363/363 368/368/368
f 362/362/362 368/368/368 367/367/367
f 363/363/363 364/364/364 369/369/369
f 363/363/363 369/369/369 368/368/368
f 364/364/364 365/365/365 370/370/370
f 364/364/364 370/370/370 369/369/369
f 366/366/366 367/367/367 372/372/372
f 366/366/366 372/372/372 371/371/371
f 367/367/367 368/368/368 373/373/373
f 367/367/367 373/373/373 372/372/372
f 368/368/368 369/369/369 374/374/374
f 368/368/368 374/374/374 373/373/373
f 369/369/369 370/370/370 375/375/375
f 369/369/369 375/375/375 374/374/374
f 371/371/371 372/372/372 377/377/377
f 371/371/371 377/377/377 376/376/376
f 372/372/372 373/373/373 378/378/378
f 372/372/372 378/378/378 377/377/377
f 373/373/373 374/374/374 379/379/379
f 373/373/373 379/379/379 378/378/378
f 374/374/374 375/375/375 380/380/380
f 374/374/374 380/380/380 379/379/379
f 376/376/376 377/377/377 382/382/382
f 376/376/376 382/382/382 381/381/381
f 377/377/377 378/378/378 383/383/383
f 377/377/377 383/383/383 382/382/382
f 378/378/378 379/379/379 384/384/384
f 378/378/378 384/384/384 383/383/383
f 379/379/379 380/380/380 385/385/385
f 379/379/379 385/385/385 384/384/384
f 381/381/381 382/382/382 387/387/387
f 381/381/381 387/387/387 386/386/386
f 382/382/382 383/383/383 388/388/388
f 382/382/382 388/388/388 387/387/387
f 383/383/383 384/384/384 389/389/389
f 383/383/383 389/389/389 388/388/388
f 384/384/384 385/385/385 390/390/390
f 384/384/384 390/390/390 389/389/389
f 386/386/386 387/387/387 392/392/392
f 386/386/386 392/392/392 391/391/391
f 387/387/387 388/388/388 393/393/393
f 387/387/387 393/393/393 392/392/392
f 388/388/388 389/389/389 394/394/394
f 388/388/388 394/394/394 393/393/393
f 389/389/389 390/390/390 395/395/395
f 389/389/389 395/395/395 394/394/394
f 391/391/391 392/392/392 397/397/397
f 391/391/391 397/397/397 396/396/396
f 392/392/392 393/393/393 398/398/398
f 392/392/392 398/398/398 397/397/397
f 393/393/393 394/394/394 399/399/399
f 393/393/393 399/399/399 398/398/398
f 394/394/394 395/395/395 400/400/400
f 394/394/394 400/400/400 399/399/399
f 396/396/396 397/397/397 402/402/402
f 396/396/396 402/402/402 401/401/401
f 397/397/397 398/398/398 403/403/403
f 397/397/397 403/403/403 402/402/402
f 398/398/398 399/399/399 404/404/404
f 398/398/398 404/404/404 403/403/403
f 399/399/399 400/400/400 405/405/405
f 399/399/399 405/405/405 404/404/404
f 401/401/401 402/402/402 407/407/407
f 401/401/401 407/407/407 406/406/406
f 402/402/402 403/403/403 408/408/408
f 402/402/402 408/408/408 407/407/407
f 403/403/403 404/404/404 409/409/409
f 403/403/403 409/409/409 408/408/408
f 404/404/404 405/405/405 410/410/410
f 404/404/404 410/410/410 409/409/409
f 406/406/406 407/407/407 412/412/412
f 406/406/406 412/412/412 411/411/411
f 407/407/407 408/408/408 413/413/413
f 407/407/407 413/413/413 412/412/412
f 408/408/408 409/409/409 414/414/414
f 408/408/408 414/414/414 413/413/413
f 409/409/409 410/410/410 415/415/415
f 409/409/409 415/415/415 414/414/414
f 416/416/416 417/417/417 422/422/422
f 416/416/416 422/422/422 421/421/421
f 417/417/417 418/418/418 423/423/423
f 417/417/417 423/423/423 422/422/422
f 418/418/418 419/419/419 424/424/424
f 418/418/418 424/424/424 423/423/423
f 419/419/419 420/420/420 425/425/425
f 419/419/419 425/425/425 424/424/424
f 426/426/426 428/428/428 427/427/427
f 426/426/426 429/429/429 428/428/428
f 426/426/426 430/430/430 429/429/429
f 426/426/426 427/427/427 430/430/430
f 431/431/431 432/432/432 433/433/433
f 431/431/431 433/433/433 434/434/434
f 431/431/431 434/434/434 435/435/435
f 431/431/431 435/435/435 432/432/432
f 436/436/436 437/437/437 444/444/444
f 436/436/436 444/444/444 443/443/443
f 437/437/437 438/438/438 445/445/445
f 437/437/437 445/445/445 444/444/444
f 438/438/438 439/439/439 446/446/446
f 438/438/438 446/446/446 445/445/445
f 439/439/439 440/440/440 447/447/447
f 439/439/439 447/447/447 446/446/446
f 440/440/440 441/441/441 448/448/448
f 440/440/440 448/448/448 447/447/447
f 441/441/441 442/442/442 449/449/449
f 441/441/441 449/449/449 448/448/448
f 443/443/443 444/444/444 451/451/451
f 443/443/443 451/451/451 450/450/450
f 444/444/444 445/445/445 452/452/452
f 444/444/444 452/452/452 451/451/451
f 445/445/445 446/446/446 453/453/453
f 445/445/445 453/453/453 452/452/452
f 446/446/446 447/447/447 454/454/454
f 446/446/446 454/454/454 453/453/453
f 447/447/447 448/448/448 455/455/455
f 447/447/447 455/455/455 454/454/454
f 448/448/448 449/449/449 456/456/456
f 448/448/448 456/456/456 455/455/455
f 450/450/450 451/451/451 458/458/458
f 450/450/450 458/458/458 457/457/457
f 451/451/451 452/452/452 459/459/459
f 451/451/451 459/459/459 458/458/458
f 452/452/452 453/453/453 460/460/460
f 452/452/452 460/460/460 459/459/459
f 453/453/453 454/454/454 461/461/461
f 453/453/453 461/461/461 460/460/460
f 454/454/454 455/455/455 462/462/462
f 454/454/454 462/462/462 461/461/461
f 455/455/455 456/456/456 463/463/463
f 455/455/455 463/463/463 462/462/462
f 457/457/457 458/458/458 465/465/465
f 457/457/457 465/465/465 464/464/464
f 458/458/458 459/459/459 466/466/466
f 458/458/458 466/466/466 465/465/465
f 459/459/459 460/460/460 467/467/467
f 459/459/459 467/467/467 466/466/466
f 460/460/460 461/461/461 468/468/468
f 460/460/460 468/468/468 467/467/467
f 461/461/461 462/462/462 469/469/469
f 461/461/461 469/469/469 468/468/468
f 462/462/462 463/463/463 470/470/470
f 462/462/462 470/470/470 469/469/469
f 471/471/471 472/472/472 479/479/479
f 471/471/471 479/479/479 478/478/478
f 472/472/472 473/473/473 480/480/480
f 472/472/472 480/480/480 479/479/479
f 473/473/473 474/474/474 481/481/481
f 473/473/473 481/481/481 480/480/480
f 474/474/474 475/475/475 482/482/482
f 474/474/474 482/482/482 481/481/481
f 475/475/475 476/476/476 483/483/483
f 475/475/475 483/483/483 482/482/482
f 476/476/476 477/477/477 484/484/484
f 476/476/476 484/484/484 483/483/483
f 478/478/478 479/479/479 486/486/486
f 478/478/478 486/486/486 485/485/485
f 479/479/479 480/480/480 487/487/487
f 479/479/479 487/487/487 486/486/486
f 480/480/480 481/481/481 488/488/488
f 480/480/480 488/488/488 487/487/487
f 481/481/481 482/482/482 489/489/489
f 481/481/481 489/489/489 488/488/488
f 482/482/482 483/483/483 490/490/490
f 482/482/482 490/490/490 489/489/489
f 483/483/483 484/484/484 491/491/491
f 483/483/483 491/491/491 490/490/490
f 485/485/485 486/486/486 493/493/493
f 485/485/485 493/493/493 492/492/492
f 486/486/486 487/487/487 494/494/494
f 486/486/486 494/494/494 493/493/493
f 487/487/487 488/488/488 495/495/495
f 487/487/487 495/495/495 494/494/494
f 488/488/488 489/489/489 496/496/496
f 488/488/488 496/496/496 495/495/495
f 489/489/489 490/490/490 497/497/497
f 489/489/489 497/497/497 496/496/496
f 490/490/490 491/491/491 498/498/498
f 490/490/490 498/498/498 497/497/497
f 492/492/492 493/493/493 500/500/500
f 492/492/492 500/500/500 499/499/499
f 493/493/493 494/494/494 501/501/501
f 493/493/493 501/501/501 500/500/500
f 494/494/494 495/495/495 502/502/502
f 494/494/494 502/502/502 501/501/501
f 495/495/495 496/496/496 503/503/503
f 495/495/495 503/503/503 502/502/502
f 496/496/496 497/497/497 504/504/504
f 496/496/496 504/504/504 503/503/503
f 497/497/497 498/498/498 505/505/505
f 497/497/497 505/505/505 504/504/504
f 506/506/506 507/507/507 514/514/514
f 506/506/506 514/514/514 513/513/513
f 507/507/507 508/508/508 515/515/515
f 507/507/507 515/515/515 514/514/514
f 508/508/508 509/509/509 516/516/516
f 508/508/508 516/516/516 515/515/515
f 509/509/509 510/510/510 517/517/517
f 509/509/509 517/517/517 516/516/516
f 510/510/510 511/511/511 518/518/518
f 510/510/510 518/518/518 517/517/517
f 511/511/511 512/512/512 519/519/519
f 511/511/511 519/519/519 518/518/518
f 513/513/513 514/514/514 521/521/521
f 513/513/513 521/521/521 520/520/520
f 514/514/514 515/515/515 522/522/522
f 514/514/514 522/522/522 521/521/521
f 515/515/515 516/516/516 523/523/523
f 515/515/515 523/523/523 522/522/522
f 516/516/516 517/517/517 524/524/524
f 516/516/516 524/524/524 523/523/523
f 517/517/517 518/518/518 525/525/525
f 517/517/517 525/525/525 524/524/524
f 518/518/518 519/519/519 526/526/526
f 518/518/518 526/526/526 525/525/525
f 520/520/520 521/521/521 528/528/528
f 520/520/520 528/528/528 527/527/527
f 521/521/521 522/522/522 529/529/529
f 521/521/521 529/529/529 528/528/528
f 522/522/522 523/523/523 530/530/530
f 522/522/522 530/530/530 529/529/529
f 523/523/523 524/524/524 531/531/531
f 523/523/523 531/531/531 530/530/530
f 524/524/524 525/525/525 532/532/532
f 524/524/524 532/532/532 531/531/531
f 525/525/525 526/526/526 533/533/533
f 525/525/525 533/533/533 532/532/532
f 527/527/527 528/528/528 535/535/535
f 527/527/527 535/535/535 534/534/534
f 528/528/528 529/529/529 536/536/536
f 528/528/528 536/536/536 535/535/535
f 529/529/529 530/530/530 537/537/537
f 529/529/529 537/537/537 536/536/536
f 530/530/530 531/531/531 538/538/538
f 530/530/530 538/538/538 537/537/537
f 531/531/531 532/532/532 539/539/539
f 531/531/531 539/539/539 538/538/538
f 532/532/532 533/533/533 540/540/540
f 532/532/532 540/540/540 539/539/539
f 541/541/541 542/542/542 549/549/549
f 541/541/541 549/549/549 548/548/548
f 542/542/542 543/543/543 550/550/550
f 542/542/542 550/550/550 549/549/549
f 543/543/543 544/544/544 551/551/551
f 543/543/543 551/551/551 550/550/550
f 544/544/544 545/545/545 552/552/552
f 544/544/544 552/552/552 551/551/551
f 545/545/545 546/546/546 553/553/553
f 545/545/545 553/553/553 552/552/552
f 546/546/546 547/547/547 554/554/554
f 546/546/546 554/554/554 553/553/553
f 548/548/548 549/549/549 556/556/556
f 548/548/548 556/556/556 555/555/555
f 549/549/549 550/550/550 557/557/557
f 549/549/549 557/557/557 556/556/556
f 550/550/550 551/551/551 558/558/558
f 550/550/550 558/558/558 557/557/557
f 551/551/551 552/552/552 559/559/559
f 551/551/551 559/559/559 558/558/558
f 552/552/552 553/553/553 560/560/560
f 552/552/552 560/560/560 559/559/559
f 553/553/553 554/554/554 561/561/561
f 553/553/553 561/561/561 560/560/560
f 555/555/555 556/556/556 563/563/563
f 555/555/555 563/563/563 562/562/562
f 556/556/556 557/557/557 564/564/564
f 556/556/556 564/564/564 563/563/563
f 557/557/557 558/558/558 565/565/565
f 557/557/557 565/565/565 564/564/564
f 558/558/558 559/559/559 566/566/566
f 558/558/558 566/566/566 565/565/565
f 559/559/559 560/560/560 567/567/567
f 559/559/559 567/567/567 566/566/566
f 560/560/560 561/561/561 568/568/568
f 560/560/560 568/568/568 567/567/567
f 562/562/562 563/563/563 570/570/570
f 562/562/562 570/570/570 569/569/569
f 563/563/563 564/564/564 571/571/571
f 563/563/563 571/571/571 570/570/570
f 564/564/564 565/565/565 572/572/572
f 564/564/564 572/572/572 571/571/571
f 565/565/565 566/566/566 573/573/573
f 565/565/565 573/573/573 572/572/572
f 566/566/566 567/567/567 574/574/574
f 566/566/566 574/574/574 573/573/573
f 567/567/567 568/568/568 575/575/575
f 567/567/567 575/575/575 574/574/574
f 576/576/576 577/577/577 584/584/584
f 576/576/576 584/584/584 583/583/583
f 577/577/577 578/578/578 585/585/585
f 577/577/577 585/585/585 584/584/584
f 578/578/578 579/579/579 586/586/586
f 578/578/578 586/586/586 585/585/585
f 579/579/579 580/580/580 587/587/587
f 579/579/579 587/587/587 586/586/586
f 580/580/580 581/581/581 588/588/588
f 580/580/580 588/588/588 587/587/587
f 581/581/581 582/582/582 589/589/589
f 581/581/581 589/589/589 588/588/588
f 583/583/583 584/584/584 591/591/591
f 583/583/583 591/591/591 590/590/590
f 584/584/584 585/585/585 592/592/592
f 584/584/584 592/592/592 591/591/591
f 585/585/585 586/586/586 593/593/593
f 585/585/585 593/593/593 592/592/592
f 586/586/586 587/587/587 594/594/594
f 586/586/586 594/594/594 593/593/593
f 587/587/587 588/588/588 595/595/595
f 587/587/587 595/595/595 594/594/594
f 588/588/588 589/589/589 596/596/596
f 588/588/588 596/596/596 595/595/595
f 590/590/590 591/591/591 598/598/598
f 590/590/590 598/598/598 597/597/597
f 591/591/591 592/592/592 599/599/599
f 591/591/591 599/599/599 598/598/598
f 592/592/592 593/593/593 600/600/600
f 592/592/592 600/600/600 599/599/599
f 593/593/593 594/594/594 601/601/601
f 593/593/593 601/601/601 600/600/600
f 594/594/594 595/595/595 602/602/602
f 594/594/594 602/602/602 601/601/601
f 595/595/595 596/596/596 603/603/603
f 595/595/595 603/603/603 602/602/602
f 597/597/597 598/598/598 605/605/605
f 597/597/597 605/605/605 604/604/604
f 598/598/598 599/599/599 606/606/606
f 598/598/598 606/606/606 605/605/605
f 599/599/599 600/600/600 607/607/607
f 599/599/599 607/607/607 606/606/606
f 600/600/600 601/601/601 608/608/608
f 600/600/600 608/608/608 607/607/607
f 601/601/601 602/602/602 609/609/609
f 601/601/601 609/609/609 608/608/608
f 602/602/602 603/603/603 610/610/610
f 602/602/602 610/610/610 609/609/609
usemtl bamboo
f 611/611/611 612/612/612 619/619/619
f 611/611/611 619/619/619 618/618/618
f 612/612/612 613/613/613 620/620/620
f 612/612/612 620/620/620 619/619/619
f 613/613/613 614/614/614 621/621/621
f 613/613/613 621/621/621 620/620/620
f 614/614/614 615/615/615 622/622/622
f 614/614/614 622/622/622 621/621/621
f 615/615/615 616/616/616 623/623/623
f 615/615/615 623/623/623 622/622/622
f 616/616/616 617/617/617 624/624/624
f 616/616/616 624/624/624 623/623/623
f 625/625/625 627/627/627 626/626/626
f 625/625/625 628/628/628 627/627/627
f 625/625/625 629/629/629 628/628/628
f 625/625/625 630/630/630 629/629/629
f 625/625/625 631/631/631 630/630/630
f 625/625/625 626/626/626 631/631/631
f 632/632/632 633/633/633 634/634/634
f 632/632/632 634/634/634 635/635/635
f 632/632/632 635/635/635 636/636/636
f 632/632/632 636/636/636 637/637/637
f 632/632/632 637/637/637 638/638/638
f 632/632/632 638/638/638 633/633/633
f 639/639/639 640/640/640 647/647/647
f 639/639/639 647/647/647 646/646/646
f 640/640/640 641/641/641 648/648/648
f 640/640/640 648/648/648 647/647/647
f 641/641/641 642/642/642 649/649/649
f 641/641/641 649/649/649 648/648/648
f 642/642/642 643/643/643 650/650/650
f 642/642/642 650/650/650 649/649/649
f 643/643/643 644/644/644 651/651/651
f 643/643/643 651/651/651 650/650/650
f 644/644/644 645/645/645 652/652/652
f 644/644/644 652/652/652 651/651/651
f 653/653/653 655/655/655 654/654/654
f 653/653/653 656/656/656 655/655/655
f 653/653/653 657/657/657 656/656/656
f 653/653/653 658/658/658 657/657/657
f 653/653/653 659/659/659 658/658/658
f 653/653/653 654/654/654 659/659/659
f 660/660/660 661/661/661 662/662/662
f 660/660/660 662/662/662 663/663/663
f 660/660/660 663/663/663 664/664/664
f 660/660/660 664/664/664 665/665/665
f 660/660/660 665/665/665 666/666/666
f 660/660/660 666/666/666 661/661/661
