# Sinh tự động bởi tools/mesh_kit.py - đừng sửa tay
o hat_mu_coi
v 0.0000 0.1700 -0.0000
v 0.0600 0.1650 -0.0000
v 0.1000 0.1400 -0.0000
v 0.1250 0.0900 -0.0000
v 0.1300 0.0400 -0.0000
v 0.1700 0.0120 -0.0000
v 0.1750 0.0000 -0.0000
v 0.1600 -0.0040 -0.0000
v 0.1200 0.0200 -0.0000
v 0.1100 0.0300 -0.0000
v 0.0000 0.1700 -0.0000
v 0.0580 0.1650 -0.0155
v 0.0966 0.1400 -0.0259
v 0.1207 0.0900 -0.0324
v 0.1256 0.0400 -0.0336
v 0.1642 0.0120 -0.0440
v 0.1690 0.0000 -0.0453
v 0.1545 -0.0040 -0.0414
v 0.1159 0.0200 -0.0311
v 0.1063 0.0300 -0.0285
v 0.0000 0.1700 -0.0000
v 0.0520 0.1650 -0.0300
v 0.0866 0.1400 -0.0500
v 0.1083 0.0900 -0.0625
v 0.1126 0.0400 -0.0650
v 0.1472 0.0120 -0.0850
v 0.1516 0.0000 -0.0875
v 0.1386 -0.0040 -0.0800
v 0.1039 0.0200 -0.0600
v 0.0953 0.0300 -0.0550
v 0.0000 0.1700 -0.0000
v 0.0424 0.1650 -0.0424
v 0.0707 0.1400 -0.0707
v 0.0884 0.0900 -0.0884
v 0.0919 0.0400 -0.0919
v 0.1202 0.0120 -0.1202
v 0.1237 0.0000 -0.1237
v 0.1131 -0.0040 -0.1131
v 0.0849 0.0200 -0.0849
v 0.0778 0.0300 -0.0778
v 0.0000 0.1700 -0.0000
v 0.0300 0.1650 -0.0520
v 0.0500 0.1400 -0.0866
v 0.0625 0.0900 -0.1083
v 0.0650 0.0400 -0.1126
v 0.0850 0.0120 -0.1472
v 0.0875 0.0000 -0.1516
v 0.0800 -0.0040 -0.1386
v 0.0600 0.0200 -0.1039
v 0.0550 0.0300 -0.0953
v 0.0000 0.1700 -0.0000
v 0.0155 0.1650 -0.0580
v 0.0259 0.1400 -0.0966
v 0.0324 0.0900 -0.1207
v 0.0336 0.0400 -0.1256
v 0.0440 0.0120 -0.1642
v 0.0453 0.0000 -0.1690
v 0.0414 -0.0040 -0.1545
v 0.0311 0.0200 -0.1159
v 0.0285 0.0300 -0.1063
v 0.0000 0.1700 -0.0000
v 0.0000 0.1650 -0.0600
v 0.0000 0.1400 -0.1000
v 0.0000 0.0900 -0.1250
v 0.0000 0.0400 -0.1300
v 0.0000 0.0120 -0.1700
v 0.0000 0.0000 -0.1750
v 0.0000 -0.0040 -0.1600
v 0.0000 0.0200 -0.1200
v 0.0000 0.0300 -0.1100
v -0.0000 0.1700 -0.0000
v -0.0155 0.1650 -0.0580
v -0.0259 0.1400 -0.0966
v -0.0324 0.0900 -0.1207
v -0.0336 0.0400 -0.1256
v -0.0440 0.0120 -0.1642
v -0.0453 0.0000 -0.1690
v -0.0414 -0.0040 -0.1545
v -0.0311 0.0200 -0.1159
v -0.0285 0.0300 -0.1063
v -0.0000 0.1700 -0.0000
v -0.0300 0.1650 -0.0520
v -0.0500 0.1400 -0.0866
v -0.0625 0.0900 -0.1083
v -0.0650 0.0400 -0.1126
v -0.0850 0.0120 -0.1472
v -0.0875 0.0000 -0.1516
v -0.0800 -0.0040 -0.1386
v -0.0600 0.0200 -0.1039
v -0.0550 0.0300 -0.0953
v -0.0000 0.1700 -0.0000
v -0.0424 0.1650 -0.0424
v -0.0707 0.1400 -0.0707
v -0.0884 0.0900 -0.0884
v -0.0919 0.0400 -0.0919
v -0.1202 0.0120 -0.1202
v -0.1237 0.0000 -0.1237
v -0.1131 -0.0040 -0.1131
v -0.0849 0.0200 -0.0849
v -0.0778 0.0300 -0.0778
v -0.0000 0.1700 -0.0000
v -0.0520 0.1650 -0.0300
v -0.0866 0.1400 -0.0500
v -0.1083 0.0900 -0.0625
v -0.1126 0.0400 -0.0650
v -0.1472 0.0120 -0.0850
v -0.1516 0.0000 -0.0875
v -0.1386 -0.0040 -0.0800
v -0.1039 0.0200 -0.0600
v -0.0953 0.0300 -0.0550
v -0.0000 0.1700 -0.0000
v -0.0580 0.1650 -0.0155
v -0.0966 0.1400 -0.0259
v -0.1207 0.0900 -0.0324
v -0.1256 0.0400 -0.0336
v -0.1642 0.0120 -0.0440
v -0.1690 0.0000 -0.0453
v -0.1545 -0.0040 -0.0414
v -0.1159 0.0200 -0.0311
v -0.1063 0.0300 -0.0285
v -0.0000 0.1700 -0.0000
v -0.0600 0.1650 -0.0000
v -0.1000 0.1400 -0.0000
v -0.1250 0.0900 -0.0000
v -0.1300 0.0400 -0.0000
v -0.1700 0.0120 -0.0000
v -0.1750 0.0000 -0.0000
v -0.1600 -0.0040 -0.0000
v -0.1200 0.0200 -0.0000
v -0.1100 0.0300 -0.0000
v -0.0000 0.1700 0.0000
v -0.0580 0.1650 0.0155
v -0.0966 0.1400 0.0259
v -0.1207 0.0900 0.0324
v -0.1256 0.0400 0.0336
v -0.1642 0.0120 0.0440
v -0.1690 0.0000 0.0453
v -0.1545 -0.0040 0.0414
v -0.1159 0.0200 0.0311
v -0.1063 0.0300 0.0285
v -0.0000 0.1700 0.0000
v -0.0520 0.1650 0.0300
v -0.0866 0.1400 0.0500
v -0.1083 0.0900 0.0625
v -0.1126 0.0400 0.0650
v -0.1472 0.0120 0.0850
v -0.1516 0.0000 0.0875
v -0.1386 -0.0040 0.0800
v -0.1039 0.0200 0.0600
v -0.0953 0.0300 0.0550
v -0.0000 0.1700 0.0000
v -0.0424 0.1650 0.0424
v -0.0707 0.1400 0.0707
v -0.0884 0.0900 0.0884
v -0.0919 0.0400 0.0919
v -0.1202 0.0120 0.1202
v -0.1237 0.0000 0.1237
v -0.1131 -0.0040 0.1131
v -0.0849 0.0200 0.0849
v -0.0778 0.0300 0.0778
v -0.0000 0.1700 0.0000
v -0.0300 0.1650 0.0520
v -0.0500 0.1400 0.0866
v -0.0625 0.0900 0.1083
v -0.0650 0.0400 0.1126
v -0.0850 0.0120 0.1472
v -0.0875 0.0000 0.1516
v -0.0800 -0.0040 0.1386
v -0.0600 0.0200 0.1039
v -0.0550 0.0300 0.0953
v -0.0000 0.1700 0.0000
v -0.0155 0.1650 0.0580
v -0.0259 0.1400 0.0966
v -0.0324 0.0900 0.1207
v -0.0336 0.0400 0.1256
v -0.0440 0.0120 0.1642
v -0.0453 0.0000 0.1690
v -0.0414 -0.0040 0.1545
v -0.0311 0.0200 0.1159
v -0.0285 0.0300 0.1063
v -0.0000 0.1700 0.0000
v -0.0000 0.1650 0.0600
v -0.0000 0.1400 0.1000
v -0.0000 0.0900 0.1250
v -0.0000 0.0400 0.1300
v -0.0000 0.0120 0.1700
v -0.0000 0.0000 0.1750
v -0.0000 -0.0040 0.1600
v -0.0000 0.0200 0.1200
v -0.0000 0.0300 0.1100
v 0.0000 0.1700 0.0000
v 0.0155 0.1650 0.0580
v 0.0259 0.1400 0.0966
v 0.0324 0.0900 0.1207
v 0.0336 0.0400 0.1256
v 0.0440 0.0120 0.1642
v 0.0453 0.0000 0.1690
v 0.0414 -0.0040 0.1545
v 0.0311 0.0200 0.1159
v 0.0285 0.0300 0.1063
v 0.0000 0.1700 0.0000
v 0.0300 0.1650 0.0520
v 0.0500 0.1400 0.0866
v 0.0625 0.0900 0.1083
v 0.0650 0.0400 0.1126
v 0.0850 0.0120 0.1472
v 0.0875 0.0000 0.1516
v 0.0800 -0.0040 0.1386
v 0.0600 0.0200 0.1039
v 0.0550 0.0300 0.0953
v 0.0000 0.1700 0.0000
v 0.0424 0.1650 0.0424
v 0.0707 0.1400 0.0707
v 0.0884 0.0900 0.0884
v 0.0919 0.0400 0.0919
v 0.1202 0.0120 0.1202
v 0.1237 0.0000 0.1237
v 0.1131 -0.0040 0.1131
v 0.0849 0.0200 0.0849
v 0.0778 0.0300 0.0778
v 0.0000 0.1700 0.0000
v 0.0520 0.1650 0.0300
v 0.0866 0.1400 0.0500
v 0.1083 0.0900 0.0625
v 0.1126 0.0400 0.0650
v 0.1472 0.0120 0.0850
v 0.1516 0.0000 0.0875
v 0.1386 -0.0040 0.0800
v 0.1039 0.0200 0.0600
v 0.0953 0.0300 0.0550
v 0.0000 0.1700 0.0000
v 0.0580 0.1650 0.0155
v 0.0966 0.1400 0.0259
v 0.1207 0.0900 0.0324
v 0.1256 0.0400 0.0336
v 0.1642 0.0120 0.0440
v 0.1690 0.0000 0.0453
v 0.1545 -0.0040 0.0414
v 0.1159 0.0200 0.0311
v 0.1063 0.0300 0.0285
v 0.0000 0.1700 0.0000
v 0.0600 0.1650 0.0000
v 0.1000 0.1400 0.0000
v 0.1250 0.0900 0.0000
v 0.1300 0.0400 0.0000
v 0.1700 0.0120 0.0000
v 0.1750 0.0000 0.0000
v 0.1600 -0.0040 0.0000
v 0.1200 0.0200 0.0000
v 0.1100 0.0300 0.0000
v 0.0000 0.1800 -0.0000
v 0.0120 0.1800 -0.0000
v 0.0120 0.1680 -0.0000
v 0.0000 0.1680 -0.0000
v 0.0000 0.1800 -0.0000
v 0.0097 0.1800 -0.0071
v 0.0097 0.1680 -0.0071
v 0.0000 0.1680 -0.0000
v 0.0000 0.1800 -0.0000
v 0.0037 0.1800 -0.0114
v 0.0037 0.1680 -0.0114
v 0.0000 0.1680 -0.0000
v -0.0000 0.1800 -0.0000
v -0.0037 0.1800 -0.0114
v -0.0037 0.1680 -0.0114
v -0.0000 0.1680 -0.0000
v -0.0000 0.1800 -0.0000
v -0.0097 0.1800 -0.0071
v -0.0097 0.1680 -0.0071
v -0.0000 0.1680 -0.0000
v -0.0000 0.1800 -0.0000
v -0.0120 0.1800 -0.0000
v -0.0120 0.1680 -0.0000
v -0.0000 0.1680 -0.0000
v -0.0000 0.1800 0.0000
v -0.0097 0.1800 0.0071
v -0.0097 0.1680 0.0071
v -0.0000 0.1680 0.0000
v -0.0000 0.1800 0.0000
v -0.0037 0.1800 0.0114
v -0.0037 0.1680 0.0114
v -0.0000 0.1680 0.0000
v 0.0000 0.1800 0.0000
v 0.0037 0.1800 0.0114
v 0.0037 0.1680 0.0114
v 0.0000 0.1680 0.0000
v 0.0000 0.1800 0.0000
v 0.0097 0.1800 0.0071
v 0.0097 0.1680 0.0071
v 0.0000 0.1680 0.0000
v 0.0000 0.1800 0.0000
v 0.0120 0.1800 0.0000
v 0.0120 0.1680 0.0000
v 0.0000 0.1680 0.0000
vt 0.0000 0.0000
vt 0.0000 0.0602
vt 0.0000 0.1074
vt 0.0000 0.1633
vt 0.0000 0.2135
vt 0.0000 0.2624
vt 0.0000 0.2754
vt 0.0000 0.2909
vt 0.0000 0.3375
vt 0.0000 0.3517
vt 0.0458 0.0000
vt 0.0458 0.0602
vt 0.0458 0.1074
vt 0.0458 0.1633
vt 0.0458 0.2135
vt 0.0458 0.2624
vt 0.0458 0.2754
vt 0.0458 0.2909
vt 0.0458 0.3375
vt 0.0458 0.3517
vt 0.0916 0.0000
vt 0.0916 0.0602
vt 0.0916 0.1074
vt 0.0916 0.1633
vt 0.0916 0.2135
vt 0.0916 0.2624
vt 0.0916 0.2754
vt 0.0916 0.2909
vt 0.0916 0.3375
vt 0.0916 0.3517
vt 0.1374 0.0000
vt 0.1374 0.0602
vt 0.1374 0.1074
vt 0.1374 0.1633
vt 0.1374 0.2135
vt 0.1374 0.2624
vt 0.1374 0.2754
vt 0.1374 0.2909
vt 0.1374 0.3375
vt 0.1374 0.3517
vt 0.1833 0.0000
vt 0.1833 0.0602
vt 0.1833 0.1074
vt 0.1833 0.1633
vt 0.1833 0.2135
vt 0.1833 0.2624
vt 0.1833 0.2754
vt 0.1833 0.2909
vt 0.1833 0.3375
vt 0.1833 0.3517
vt 0.2291 0.0000
vt 0.2291 0.0602
vt 0.2291 0.1074
vt 0.2291 0.1633
vt 0.2291 0.2135
vt 0.2291 0.2624
vt 0.2291 0.2754
vt 0.2291 0.2909
vt 0.2291 0.3375
vt 0.2291 0.3517
vt 0.2749 0.0000
vt 0.2749 0.0602
vt 0.2749 0.1074
vt 0.2749 0.1633
vt 0.2749 0.2135
vt 0.2749 0.2624
vt 0.2749 0.2754
vt 0.2749 0.2909
vt 0.2749 0.3375
vt 0.2749 0.3517
vt 0.3207 0.0000
vt 0.3207 0.0602
vt 0.3207 0.1074
vt 0.3207 0.1633
vt 0.3207 0.2135
vt 0.3207 0.2624
vt 0.3207 0.2754
vt 0.3207 0.2909
vt 0.3207 0.3375
vt 0.3207 0.3517
vt 0.3665 0.0000
vt 0.3665 0.0602
vt 0.3665 0.1074
vt 0.3665 0.1633
vt 0.3665 0.2135
vt 0.3665 0.2624
vt 0.3665 0.2754
vt 0.3665 0.2909
vt 0.3665 0.3375
vt 0.3665 0.3517
vt 0.4123 0.0000
vt 0.4123 0.0602
vt 0.4123 0.1074
vt 0.4123 0.1633
vt 0.4123 0.2135
vt 0.4123 0.2624
vt 0.4123 0.2754
vt 0.4123 0.2909
vt 0.4123 0.3375
vt 0.4123 0.3517
vt 0.4581 0.0000
vt 0.4581 0.0602
vt 0.4581 0.1074
vt 0.4581 0.1633
vt 0.4581 0.2135
vt 0.4581 0.2624
vt 0.4581 0.2754
vt 0.4581 0.2909
vt 0.4581 0.3375
vt 0.4581 0.3517
vt 0.5040 0.0000
vt 0.5040 0.0602
vt 0.5040 0.1074
vt 0.5040 0.1633
vt 0.5040 0.2135
vt 0.5040 0.2624
vt 0.5040 0.2754
vt 0.5040 0.2909
vt 0.5040 0.3375
vt 0.5040 0.3517
vt 0.5498 0.0000
vt 0.5498 0.0602
vt 0.5498 0.1074
vt 0.5498 0.1633
vt 0.5498 0.2135
vt 0.5498 0.2624
vt 0.5498 0.2754
vt 0.5498 0.2909
vt 0.5498 0.3375
vt 0.5498 0.3517
vt 0.5956 0.0000
vt 0.5956 0.0602
vt 0.5956 0.1074
vt 0.5956 0.1633
vt 0.5956 0.2135
vt 0.5956 0.2624
vt 0.5956 0.2754
vt 0.5956 0.2909
vt 0.5956 0.3375
vt 0.5956 0.3517
vt 0.6414 0.0000
vt 0.6414 0.0602
vt 0.6414 0.1074
vt 0.6414 0.1633
vt 0.6414 0.2135
vt 0.6414 0.2624
vt 0.6414 0.2754
vt 0.6414 0.2909
vt 0.6414 0.3375
vt 0.6414 0.3517
vt 0.6872 0.0000
vt 0.6872 0.0602
vt 0.6872 0.1074
vt 0.6872 0.1633
vt 0.6872 0.2135
vt 0.6872 0.2624
vt 0.6872 0.2754
vt 0.6872 0.2909
vt 0.6872 0.3375
vt 0.6872 0.3517
vt 0.7330 0.0000
vt 0.7330 0.0602
vt 0.7330 0.1074
vt 0.7330 0.1633
vt 0.7330 0.2135
vt 0.7330 0.2624
vt 0.7330 0.2754
vt 0.7330 0.2909
vt 0.7330 0.3375
vt 0.7330 0.3517
vt 0.7789 0.0000
vt 0.7789 0.0602
vt 0.7789 0.1074
vt 0.7789 0.1633
vt 0.7789 0.2135
vt 0.7789 0.2624
vt 0.7789 0.2754
vt 0.7789 0.2909
vt 0.7789 0.3375
vt 0.7789 0.3517
vt 0.8247 0.0000
vt 0.8247 0.0602
vt 0.8247 0.1074
vt 0.8247 0.1633
vt 0.8247 0.2135
vt 0.8247 0.2624
vt 0.8247 0.2754
vt 0.8247 0.2909
vt 0.8247 0.3375
vt 0.8247 0.3517
vt 0.8705 0.0000
vt 0.8705 0.0602
vt 0.8705 0.1074
vt 0.8705 0.1633
vt 0.8705 0.2135
vt 0.8705 0.2624
vt 0.8705 0.2754
vt 0.8705 0.2909
vt 0.8705 0.3375
vt 0.8705 0.3517
vt 0.9163 0.0000
vt 0.9163 0.0602
vt 0.9163 0.1074
vt 0.9163 0.1633
vt 0.9163 0.2135
vt 0.9163 0.2624
vt 0.9163 0.2754
vt 0.9163 0.2909
vt 0.9163 0.3375
vt 0.9163 0.3517
vt 0.9621 0.0000
vt 0.9621 0.0602
vt 0.9621 0.1074
vt 0.9621 0.1633
vt 0.9621 0.2135
vt 0.9621 0.2624
vt 0.9621 0.2754
vt 0.9621 0.2909
vt 0.9621 0.3375
vt 0.9621 0.3517
vt 1.0079 0.0000
vt 1.0079 0.0602
vt 1.0079 0.1074
vt 1.0079 0.1633
vt 1.0079 0.2135
vt 1.0079 0.2624
vt 1.0079 0.2754
vt 1.0079 0.2909
vt 1.0079 0.3375
vt 1.0079 0.3517
vt 1.0537 0.0000
vt 1.0537 0.0602
vt 1.0537 0.1074
vt 1.0537 0.1633
vt 1.0537 0.2135
vt 1.0537 0.2624
vt 1.0537 0.2754
vt 1.0537 0.2909
vt 1.0537 0.3375
vt 1.0537 0.3517
vt 1.0996 0.0000
vt 1.0996 0.0602
vt 1.0996 0.1074
vt 1.0996 0.1633
vt 1.0996 0.2135
vt 1.0996 0.2624
vt 1.0996 0.2754
vt 1.0996 0.2909
vt 1.0996 0.3375
vt 1.0996 0.3517
vt 0.0000 0.0000
vt 0.0000 0.0120
vt 0.0000 0.0240
vt 0.0000 0.0360
vt 0.0075 0.0000
vt 0.0075 0.0120
vt 0.0075 0.0240
vt 0.0075 0.0360
vt 0.0151 0.0000
vt 0.0151 0.0120
vt 0.0151 0.0240
vt 0.0151 0.0360
vt 0.0226 0.0000
vt 0.0226 0.0120
vt 0.0226 0.0240
vt 0.0226 0.0360
vt 0.0302 0.0000
vt 0.0302 0.0120
vt 0.0302 0.0240
vt 0.0302 0.0360
vt 0.0377 0.0000
vt 0.0377 0.0120
vt 0.0377 0.0240
vt 0.0377 0.0360
vt 0.0452 0.0000
vt 0.0452 0.0120
vt 0.0452 0.0240
vt 0.0452 0.0360
vt 0.0528 0.0000
vt 0.0528 0.0120
vt 0.0528 0.0240
vt 0.0528 0.0360
vt 0.0603 0.0000
vt 0.0603 0.0120
vt 0.0603 0.0240
vt 0.0603 0.0360
vt 0.0679 0.0000
vt 0.0679 0.0120
vt 0.0679 0.0240
vt 0.0679 0.0360
vt 0.0754 0.0000
vt 0.0754 0.0120
vt 0.0754 0.0240
vt 0.0754 0.0360
vn -0.083 -0.997 0.000
vn -0.287 -0.958 0.000
vn -0.756 -0.655 0.000
vn -0.958 -0.287 0.000
vn -0.866 -0.500 0.000
vn -0.664 -0.747 0.000
vn -0.848 0.530 0.000
vn 0.342 0.940 -0.000
vn 0.562 0.827 -0.000
vn 0.707 0.707 -0.000
vn -0.080 -0.997 0.021
vn -0.278 -0.958 0.074
vn -0.730 -0.655 0.196
vn -0.925 -0.287 0.248
vn -0.837 -0.500 0.224
vn -0.642 -0.747 0.172
vn -0.819 0.530 0.219
vn 0.330 0.940 -0.088
vn 0.543 0.827 -0.146
vn 0.683 0.707 -0.183
vn -0.072 -0.997 0.042
vn -0.249 -0.958 0.144
vn -0.654 -0.655 0.378
vn -0.830 -0.287 0.479
vn -0.750 -0.500 0.433
vn -0.575 -0.747 0.332
vn -0.734 0.530 0.424
vn 0.296 0.940 -0.171
vn 0.487 0.827 -0.281
vn 0.612 0.707 -0.354
vn -0.059 -0.997 0.059
vn -0.203 -0.958 0.203
vn -0.534 -0.655 0.534
vn -0.677 -0.287 0.677
vn -0.612 -0.500 0.612
vn -0.470 -0.747 0.470
vn -0.600 0.530 0.600
vn 0.242 0.940 -0.242
vn 0.398 0.827 -0.398
vn 0.500 0.707 -0.500
vn -0.042 -0.997 0.072
vn -0.144 -0.958 0.249
vn -0.378 -0.655 0.654
vn -0.479 -0.287 0.830
vn -0.433 -0.500 0.750
vn -0.332 -0.747 0.575
vn -0.424 0.530 0.734
vn 0.171 0.940 -0.296
vn 0.281 0.827 -0.487
vn 0.354 0.707 -0.612
vn -0.021 -0.997 0.080
vn -0.074 -0.958 0.278
vn -0.196 -0.655 0.730
vn -0.248 -0.287 0.925
vn -0.224 -0.500 0.837
vn -0.172 -0.747 0.642
vn -0.219 0.530 0.819
vn 0.088 0.940 -0.330
vn 0.146 0.827 -0.543
vn 0.183 0.707 -0.683
vn -0.000 -0.997 0.083
vn -0.000 -0.958 0.287
vn -0.000 -0.655 0.756
vn -0.000 -0.287 0.958
vn -0.000 -0.500 0.866
vn -0.000 -0.747 0.664
vn -0.000 0.530 0.848
vn 0.000 0.940 -0.342
vn 0.000 0.827 -0.562
vn 0.000 0.707 -0.707
vn 0.021 -0.997 0.080
vn 0.074 -0.958 0.278
vn 0.196 -0.655 0.730
vn 0.248 -0.287 0.925
vn 0.224 -0.500 0.837
vn 0.172 -0.747 0.642
vn 0.219 0.530 0.819
vn -0.088 0.940 -0.330
vn -0.146 0.827 -0.543
vn -0.183 0.707 -0.683
vn 0.042 -0.997 0.072
vn 0.144 -0.958 0.249
vn 0.378 -0.655 0.654
vn 0.479 -0.287 0.830
vn 0.433 -0.500 0.750
vn 0.332 -0.747 0.575
vn 0.424 0.530 0.734
vn -0.171 0.940 -0.296
vn -0.281 0.827 -0.487
vn -0.354 0.707 -0.612
vn 0.059 -0.997 0.059
vn 0.203 -0.958 0.203
vn 0.534 -0.655 0.534
vn 0.677 -0.287 0.677
vn 0.612 -0.500 0.612
vn 0.470 -0.747 0.470
vn 0.600 0.530 0.600
vn -0.242 0.940 -0.242
vn -0.398 0.827 -0.398
vn -0.500 0.707 -0.500
vn 0.072 -0.997 0.042
vn 0.249 -0.958 0.144
vn 0.654 -0.655 0.378
vn 0.830 -0.287 0.479
vn 0.750 -0.500 0.433
vn 0.575 -0.747 0.332
vn 0.734 0.530 0.424
vn -0.296 0.940 -0.171
vn -0.487 0.827 -0.281
vn -0.612 0.707 -0.354
vn 0.080 -0.997 0.021
vn 0.278 -0.958 0.074
vn 0.730 -0.655 0.196
vn 0.925 -0.287 0.248
vn 0.837 -0.500 0.224
vn 0.642 -0.747 0.172
vn 0.819 0.530 0.219
vn -0.330 0.940 -0.088
vn -0.543 0.827 -0.146
vn -0.683 0.707 -0.183
vn 0.083 -0.997 0.000
vn 0.287 -0.958 0.000
vn 0.756 -0.655 0.000
vn 0.958 -0.287 0.000
vn 0.866 -0.500 0.000
vn 0.664 -0.747 0.000
vn 0.848 0.530 0.000
vn -0.342 0.940 -0.000
vn -0.562 0.827 -0.000
vn -0.707 0.707 -0.000
vn 0.080 -0.997 -0.021
vn 0.278 -0.958 -0.074
vn 0.730 -0.655 -0.196
vn 0.925 -0.287 -0.248
vn 0.837 -0.500 -0.224
vn 0.642 -0.747 -0.172
vn 0.819 0.530 -0.219
vn -0.330 0.940 0.088
vn -0.543 0.827 0.146
vn -0.683 0.707 0.183
vn 0.072 -0.997 -0.042
vn 0.249 -0.958 -0.144
vn 0.654 -0.655 -0.378
vn 0.830 -0.287 -0.479
vn 0.750 -0.500 -0.433
vn 0.575 -0.747 -0.332
vn 0.734 0.530 -0.424
vn -0.296 0.940 0.171
vn -0.487 0.827 0.281
vn -0.612 0.707 0.354
vn 0.059 -0.997 -0.059
vn 0.203 -0.958 -0.203
vn 0.534 -0.655 -0.534
vn 0.677 -0.287 -0.677
vn 0.612 -0.500 -0.612
vn 0.470 -0.747 -0.470
vn 0.600 0.530 -0.600
vn -0.242 0.940 0.242
vn -0.398 0.827 0.398
vn -0.500 0.707 0.500
vn 0.042 -0.997 -0.072
vn 0.144 -0.958 -0.249
vn 0.378 -0.655 -0.654
vn 0.479 -0.287 -0.830
vn 0.433 -0.500 -0.750
vn 0.332 -0.747 -0.575
vn 0.424 0.530 -0.734
vn -0.171 0.940 0.296
vn -0.281 0.827 0.487
vn -0.354 0.707 0.612
vn 0.021 -0.997 -0.080
vn 0.074 -0.958 -0.278
vn 0.196 -0.655 -0.730
vn 0.248 -0.287 -0.925
vn 0.224 -0.500 -0.837
vn 0.172 -0.747 -0.642
vn 0.219 0.530 -0.819
vn -0.088 0.940 0.330
vn -0.146 0.827 0.543
vn -0.183 0.707 0.683
vn 0.000 -0.997 -0.083
vn 0.000 -0.958 -0.287
vn 0.000 -0.655 -0.756
vn 0.000 -0.287 -0.958
vn 0.000 -0.500 -0.866
vn 0.000 -0.747 -0.664
vn 0.000 0.530 -0.848
vn -0.000 0.940 0.342
vn -0.000 0.827 0.562
vn -0.000 0.707 0.707
vn -0.021 -0.997 -0.080
vn -0.074 -0.958 -0.278
vn -0.196 -0.655 -0.730
vn -0.248 -0.287 -0.925
vn -0.224 -0.500 -0.837
vn -0.172 -0.747 -0.642
vn -0.219 0.530 -0.819
vn 0.088 0.940 0.330
vn 0.146 0.827 0.543
vn 0.183 0.707 0.683
vn -0.042 -0.997 -0.072
vn -0.144 -0.958 -0.249
vn -0.378 -0.655 -0.654
vn -0.479 -0.287 -0.830
vn -0.433 -0.500 -0.750
vn -0.332 -0.747 -0.575
vn -0.424 0.530 -0.734
vn 0.171 0.940 0.296
vn 0.281 0.827 0.487
vn 0.354 0.707 0.612
vn -0.059 -0.997 -0.059
vn -0.203 -0.958 -0.203
vn -0.534 -0.655 -0.534
vn -0.677 -0.287 -0.677
vn -0.612 -0.500 -0.612
vn -0.470 -0.747 -0.470
vn -0.600 0.530 -0.600
vn 0.242 0.940 0.242
vn 0.398 0.827 0.398
vn 0.500 0.707 0.500
vn -0.072 -0.997 -0.042
vn -0.249 -0.958 -0.144
vn -0.654 -0.655 -0.378
vn -0.830 -0.287 -0.479
vn -0.750 -0.500 -0.433
vn -0.575 -0.747 -0.332
vn -0.734 0.530 -0.424
vn 0.296 0.940 0.171
vn 0.487 0.827 0.281
vn 0.612 0.707 0.354
vn -0.080 -0.997 -0.021
vn -0.278 -0.958 -0.074
vn -0.730 -0.655 -0.196
vn -0.925 -0.287 -0.248
vn -0.837 -0.500 -0.224
vn -0.642 -0.747 -0.172
vn -0.819 0.530 -0.219
vn 0.330 0.940 0.088
vn 0.543 0.827 0.146
vn 0.683 0.707 0.183
vn -0.083 -0.997 -0.000
vn -0.287 -0.958 -0.000
vn -0.756 -0.655 -0.000
vn -0.958 -0.287 -0.000
vn -0.866 -0.500 -0.000
vn -0.664 -0.747 -0.000
vn -0.848 0.530 -0.000
vn 0.342 0.940 0.000
vn 0.562 0.827 0.000
vn 0.707 0.707 0.000
vn 0.000 -1.000 -0.000
vn -0.707 -0.707 0.000
vn -0.707 0.707 0.000
vn 0.000 1.000 -0.000
vn 0.000 -1.000 -0.000
vn -0.572 -0.707 0.416
vn -0.572 0.707 0.416
vn 0.000 1.000 -0.000
vn 0.000 -1.000 -0.000
vn -0.219 -0.707 0.672
vn -0.219 0.707 0.672
vn 0.000 1.000 -0.000
vn -0.000 -1.000 -0.000
vn 0.219 -0.707 0.672
vn 0.219 0.707 0.672
vn -0.000 1.000 -0.000
vn -0.000 -1.000 -0.000
vn 0.572 -0.707 0.416
vn 0.572 0.707 0.416
vn -0.000 1.000 -0.000
vn -0.000 -1.000 -0.000
vn 0.707 -0.707 0.000
vn 0.707 0.707 0.000
vn -0.000 1.000 -0.000
vn -0.000 -1.000 0.000
vn 0.572 -0.707 -0.416
vn 0.572 0.707 -0.416
vn -0.000 1.000 0.000
vn -0.000 -1.000 0.000
vn 0.219 -0.707 -0.672
vn 0.219 0.707 -0.672
vn -0.000 1.000 0.000
vn 0.000 -1.000 0.000
vn -0.219 -0.707 -0.672
vn -0.219 0.707 -0.672
vn 0.000 1.000 0.000
vn 0.000 -1.000 0.000
vn -0.572 -0.707 -0.416
vn -0.572 0.707 -0.416
vn 0.000 1.000 0.000
vn 0.000 -1.000 0.000
vn -0.707 -0.707 -0.000
vn -0.707 0.707 -0.000
vn 0.000 1.000 0.000
usemtl hat
f 1/1/1 11/11/11 12/12/12
f 1/1/1 12/12/12 2/2/2
f 2/2/2 12/12/12 13/13/13
f 2/2/2 13/13/13 3/3/3
f 3/3/3 13/13/13 14/14/14
f 3/3/3 14/14/14 4/4/4
f 4/4/4 14/14/14 15/15/15
f 4/4/4 15/15/15 5/5/5
f 5/5/5 15/15/15 16/16/16
f 5/5/5 16/16/16 6/6/6
f 6/6/6 16/16/16 17/17/17
f 6/6/6 17/17/17 7/7/7
f 7/7/7 17/17/17 18/18/18
f 7/7/7 18/18/18 8/8/8
f 8/8/8 18/18/18 19/19/19
f 8/8/8 19/19/19 9/9/9
f 9/9/9 19/19/19 20/20/20
f 9/9/9 20/20/20 10/10/10
f 11/11/11 21/21/21 22/22/22
f 11/11/11 22/22/22 12/12/12
f 12/12/12 22/22/22 23/23/23
f 12/12/12 23/23/23 13/13/13
f 13/13/13 23/23/23 24/24/24
f 13/13/13 24/24/24 14/14/14
f 14/14/14 24/24/24 25/25/25
f 14/14/14 25/25/25 15/15/15
f 15/15/15 25/25/25 26/26/26
f 15/15/15 26/26/26 16/16/16
f 16/16/16 26/26/26 27/27/27
f 16/16/16 27/27/27 17/17/17
f 17/17/17 27/27/27 28/28/28
f 17/17/17 28/28/28 18/18/18
f 18/18/18 28/28/28 29/29/29
f 18/18/18 29/29/29 19/19/19
f 19/19/19 29/29/29 30/30/30
f 19/19/19 30/30/30 20/20/20
f 21/21/21 31/31/31 32/32/32
f 21/21/21 32/32/32 22/22/22
f 22/22/22 32/32/32 33/33/33
f 22/22/22 33/33/33 23/23/23
f 23/23/23 33/33/33 34/34/34
f 23/23/23 34/34/34 24/24/24
f 24/24/24 34/34/34 35/35/35
f 24/24/24 35/35/35 25/25/25
f 25/25/25 35/35/35 36/36/36
f 25/25/25 36/36/36 26/26/26
f 26/26/26 36/36/36 37/37/37
f 26/26/26 37/37/37 27/27/27
f 27/27/27 37/37/37 38/38/38
f 27/27/27 38/38/38 28/28/28
f 28/28/28 38/38/38 39/39/39
f 28/28/28 39/39/39 29/29/29
f 29/29/29 39/39/39 40/40/40
f 29/29/29 40/40/40 30/30/30
f 31/31/31 41/41/41 42/42/42
f 31/31/31 42/42/42 32/32/32
f 32/32/32 42/42/42 43/43/43
f 32/32/32 43/43/43 33/33/33
f 33/33/33 43/43/43 44/44/44
f 33/33/33 44/44/44 34/34/34
f 34/34/34 44/44/44 45/45/45
f 34/34/34 45/45/45 35/35/35
f 35/35/35 45/45/45 46/46/46
f 35/35/35 46/46/46 36/36/36
f 36/36/36 46/46/46 47/47/47
f 36/36/36 47/47/47 37/37/37
f 37/37/37 47/47/47 48/48/48
f 37/37/37 48/48/48 38/38/38
f 38/38/38 48/48/48 49/49/49
f 38/38/38 49/49/49 39/39/39
f 39/39/39 49/49/49 50/50/50
f 39/39/39 50/50/50 40/40/40
f 41/41/41 51/51/51 52/52/52
f 41/41/41 52/52/52 42/42/42
f 42/42/42 52/52/52 53/53/53
f 42/42/42 53/53/53 43/43/43
f 43/43/43 53/53/53 54/54/54
f 43/43/43 54/54/54 44/44/44
f 44/44/44 54/54/54 55/55/55
f 44/44/44 55/55/55 45/45/45
f 45/45/45 55/55/55 56/56/56
f 45/45/45 56/56/56 46/46/46
f 46/46/46 56/56/56 57/57/57
f 46/46/46 57/57/57 47/47/47
f 47/47/47 57/57/57 58/58/58
f 47/47/47 58/58/58 48/48/48
f 48/48/48 58/58/58 59/59/59
f 48/48/48 59/59/59 49/49/49
f 49/49/49 59/59/59 60/60/60
f 49/49/49 60/60/60 50/50/50
f 51/51/51 61/61/61 62/62/62
f 51/51/51 62/62/62 52/52/52
f 52/52/52 62/62/62 63/63/63
f 52/52/52 63/63/63 53/53/53
f 53/53/53 63/63/63 64/64/64
f 53/53/53 64/64/64 54/54/54
f 54/54/54 64/64/64 65/65/65
f 54/54/54 65/65/65 55/55/55
f 55/55/55 65/65/65 66/66/66
f 55/55/55 66/66/66 56/56/56
f 56/56/56 66/66/66 67/67/67
f 56/56/56 67/67/67 57/57/57
f 57/57/57 67/67/67 68/68/68
f 57/57/57 68/68/68 58/58/58
f 58/58/58 68/68/68 69/69/69
f 58/58/58 69/69/69 59/59/59
f 59/59/59 69/69/69 70/70/70
f 59/59/59 70/70/70 60/60/60
f 61/61/61 71/71/71 72/72/72
f 61/61/61 72/72/72 62/62/62
f 62/62/62 72/72/72 73/73/73
f 62/62/62 73/73/73 63/63/63
f 63/63/63 73/73/73 74/74/74
f 63/63/63 74/74/74 64/64/64
f 64/64/64 74/74/74 75/75/75
f 64/64/64 75/75/75 65/65/65
f 65/65/65 75/75/75 76/76/76
f 65/65/65 76/76/76 66/66/66
f 66/66/66 76/76/76 77/77/77
f 66/66/66 77/77/77 67/67/67
f 67/67/67 77/77/77 78/78/78
f 67/67/67 78/78/78 68/68/68
f 68/68/68 78/78/78 79/79/79
f 68/68/68 79/79/79 69/69/69
f 69/69/69 79/79/79 80/80/80
f 69/69/69 80/80/80 70/70/70
f 71/71/71 81/81/81 82/82/82
f 71/71/71 82/82/82 72/72/72
f 72/72/72 82/82/82 83/83/83
f 72/72/72 83/83/83 73/73/73
f 73/73/73 83/83/83 84/84/84
f 73/73/73 84/84/84 74/74/74
f 74/74/74 84/84/84 85/85/85
f 74/74/74 85/85/85 75/75/75
f 75/75/75 85/85/85 86/86/86
f 75/75/75 86/86/86 76/76/76
f 76/76/76 86/86/86 87/87/87
f 76/76/76 87/87/87 77/77/77
f 77/77/77 87/87/87 88/88/88
f 77/77/77 88/88/88 78/78/78
f 78/78/78 88/88/88 89/89/89
f 78/78/78 89/89/89 79/79/79
f 79/79/79 89/89/89 90/90/90
f 79/79/79 90/90/90 80/80/80
f 81/81/81 91/91/91 92/92/92
f 81/81/81 92/92/92 82/82/82
f 82/82/82 92/92/92 93/93/93
f 82/82/82 93/93/93 83/83/83
f 83/83/83 93/93/93 94/94/94
f 83/83/83 94/94/94 84/84/84
f 84/84/84 94/94/94 95/95/95
f 84/84/84 95/95/95 85/85/85
f 85/85/85 95/95/95 96/96/96
f 85/85/85 96/96/96 86/86/86
f 86/86/86 96/96/96 97/97/97
f 86/86/86 97/97/97 87/87/87
f 87/87/87 97/97/97 98/98/98
f 87/87/87 98/98/98 88/88/88
f 88/88/88 98/98/98 99/99/99
f 88/88/88 99/99/99 89/89/89
f 89/89/89 99/99/99 100/100/100
f 89/89/89 100/100/100 90/90/90
f 91/91/91 101/101/101 102/102/102
f 91/91/91 102/102/102 92/92/92
f 92/92/92 102/102/102 103/103/103
f 92/92/92 103/103/103 93/93/93
f 93/93/93 103/103/103 104/104/104
f 93/93/93 104/104/104 94/94/94
f 94/94/94 104/104/104 105/105/105
f 94/94/94 105/105/105 95/95/95
f 95/95/95 105/105/105 106/106/106
f 95/95/95 106/106/106 96/96/96
f 96/96/96 106/106/106 107/107/107
f 96/96/96 107/107/107 97/97/97
f 97/97/97 107/107/107 108/108/108
f 97/97/97 108/108/108 98/98/98
f 98/98/98 108/108/108 109/109/109
f 98/98/98 109/109/109 99/99/99
f 99/99/99 109/109/109 110/110/110
f 99/99/99 110/110/110 100/100/100
f 101/101/101 111/111/111 112/112/112
f 101/101/101 112/112/112 102/102/102
f 102/102/102 112/112/112 113/113/113
f 102/102/102 113/113/113 103/103/103
f 103/103/103 113/113/113 114/114/114
f 103/103/103 114/114/114 104/104/104
f 104/104/104 114/114/114 115/115/115
f 104/104/104 115/115/115 105/105/105
f 105/105/105 115/115/115 116/116/116
f 105/105/105 116/116/116 106/106/106
f 106/106/106 116/116/116 117/117/117
f 106/106/106 117/117/117 107/107/107
f 107/107/107 117/117/117 118/118/118
f 107/107/107 118/118/118 108/108/108
f 108/108/108 118/118/118 119/119/119
f 108/108/108 119/119/119 109/109/109
f 109/109/109 119/119/119 120/120/120
f 109/109/109 120/120/120 110/110/110
f 111/111/111 121/121/121 122/122/122
f 111/111/111 122/122/122 112/112/112
f 112/112/112 122/122/122 123/123/123
f 112/112/112 123/123/123 113/113/113
f 113/113/113 123/123/123 124/124/124
f 113/113/113 124/124/124 114/114/114
f 114/114/114 124/124/124 125/125/125
f 114/114/114 125/125/125 115/115/115
f 115/115/115 125/125/125 126/126/126
f 115/115/115 126/126/126 116/116/116
f 116/116/116 126/126/126 127/127/127
f 116/116/116 127/127/127 117/117/117
f 117/117/117 127/127/127 128/128/128
f 117/117/117 128/128/128 118/118/118
f 118/118/118 128/128/128 129/129/129
f 118/118/118 129/129/129 119/119/119
f 119/119/119 129/129/129 130/130/130
f 119/119/119 130/130/130 120/120/120
f 121/121/121 131/131/131 132/132/132
f 121/121/121 132/132/132 122/122/122
f 122/122/122 132/132/132 133/133/133
f 122/122/122 133/133/133 123/123/123
f 123/123/123 133/133/133 134/134/134
f 123/123/123 134/134/134 124/124/124
f 124/124/124 134/134/134 135/135/135
f 124/124/124 135/135/135 125/125/125
f 125/125/125 135/135/135 136/136/136
f 125/125/125 136/136/136 126/126/126
f 126/126/126 136/136/136 137/137/137
f 126/126/126 137/137/137 127/127/127
f 127/127/127 137/137/137 138/138/138
f 127/127/127 138/138/138 128/128/128
f 128/128/128 138/138/138 139/139/139
f 128/128/128 139/139/139 129/129/129
f 129/129/129 139/139/139 140/140/140
f 129/129/129 140/140/140 130/130/130
f 131/131/131 141/141/141 142/142/142
f 131/131/131 142/142/142 132/132/132
f 132/132/132 142/142/142 143/143/143
f 132/132/132 143/143/143 133/133/133
f 133/133/133 143/143/143 144/144/144
f 133/133/133 144/144/144 134/134/134
f 134/134/134 144/144/144 145/145/145
f 134/134/134 145/145/145 135/135/135
f 135/135/135 145/145/145 146/146/146
f 135/135/135 146/146/146 136/136/136
f 136/136/136 146/146/146 147/147/147
f 136/136/136 147/147/147 137/137/137
f 137/137/137 147/147/147 148/148/148
f 137/137/137 148/148/148 138/138/138
f 138/138/138 148/148/148 149/149/149
f 138/138/138 149/149/149 139/139/139
f 139/139/139 149/149/149 150/150/150
f 139/139/139 150/150/150 140/140/140
f 141/141/141 151/151/151 152/152/152
f 141/141/141 152/152/152 142/142/142
f 142/142/142 152/152/152 153/153/153
f 142/142/142 153/153/153 143/143/143
f 143/143/143 153/153/153 154/154/154
f 143/143/143 154/154/154 144/144/144
f 144/144/144 154/154/154 155/155/155
f 144/144/144 155/155/155 145/145/145
f 145/145/145 155/155/155 156/156/156
f 145/145/145 156/156/156 146/146/146
f 146/146/146 156/156/156 157/157/157
f 146/146/146 157/157/157 147/147/147
f 147/147/147 157/157/157 158/158/158
f 147/147/147 158/158/158 148/148/148
f 148/148/148 158/158/158 159/159/159
f 148/148/148 159/159/159 149/149/149
f 149/149/149 159/159/159 160/160/160
f 149/149/149 160/160/160 150/150/150
f 151/151/151 161/161/161 162/162/162
f 151/151/151 162/162/162 152/152/152
f 152/152/152 162/162/162 163/163/163
f 152/152/152 163/163/163 153/153/153
f 153/153/153 163/163/163 164/164/164
f 153/153/153 164/164/164 154/154/154
f 154/154/154 164/164/164 165/165/165
f 154/154/154 165/165/165 155/155/155
f 155/155/155 165/165/165 166/166/166
f 155/155/155 166/166/166 156/156/156
f 156/156/156 166/166/166 167/167/167
f 156/156/156 167/167/167 157/157/157
f 157/157/157 167/167/167 168/168/168
f 157/157/157 168/168/168 158/158/158
f 158/158/158 168/168/168 169/169/169
f 158/158/158 169/169/169 159/159/159
f 159/159/159 169/169/169 170/170/170
f 159/159/159 170/170/170 160/160/160
f 161/161/161 171/171/171 172/172/172
f 161/161/161 172/172/172 162/162/162
f 162/162/162 172/172/172 173/173/173
f 162/162/162 173/173/173 163/163/163
f 163/163/163 173/173/173 174/174/174
f 163/163/163 174/174/174 164/164/164
f 164/164/164 174/174/174 175/175/175
f 164/164/164 175/175/175 165/165/165
f 165/165/165 175/175/175 176/176/176
f 165/165/165 176/176/176 166/166/166
f 166/166/166 176/176/176 177/177/177
f 166/166/166 177/177/177 167/167/167
f 167/167/167 177/177/177 178/178/178
f 167/167/167 178/178/178 168/168/168
f 168/168/168 178/178/178 179/179/179
f 168/168/168 179/179/179 169/169/169
f 169/169/169 179/179/179 180/180/180
f 169/169/169 180/180/180 170/170/170
f 171/171/171 181/181/181 182/182/182
f 171/171/171 182/182/182 172/172/172
f 172/172/172 182/182/182 183/183/183
f 172/172/172 183/183/183 173/173/173
f 173/173/173 183/183/183 184/184/184
f 173/173/173 184/184/184 174/174/174
f 174/174/174 184/184/184 185/185/185
f 174/174/174 185/185/185 175/175/175
f 175/175/175 185/185/185 186/186/186
f 175/175/175 186/186/186 176/176/176
f 176/176/176 186/186/186 187/187/187
f 176/176/176 187/187/187 177/177/177
f 177/177/177 187/187/187 188/188/188
f 177/177/177 188/188/188 178/178/178
f 178/178/178 188/188/188 189/189/189
f 178/178/178 189/189/189 179/179/179
f 179/179/179 189/189/189 190/190/190
f 179/179/179 190/190/190 180/180/180
f 181/181/181 191/191/191 192/192/192
f 181/181/181 192/192/192 182/182/182
f 182/182/182 192/192/192 193/193/193
f 182/182/182 193/193/193 183/183/183
f 183/183/183 193/193/193 194/194/194
f 183/183/183 194/194/194 184/184/184
f 184/184/184 194/194/194 195/195/195
f 184/184/184 195/195/195 185/185/185
f 185/185/185 195/195/195 196/196/196
f 185/185/185 196/196/196 186/186/186
f 186/186/186 196/196/196 197/197/197
f 186/186/186 197/197/197 187/187/187
f 187/187/187 197/197/197 198/198/198
f 187/187/187 198/198/198 188/188/188
f 188/188/188 198/198/198 199/199/199
f 188/188/188 199/199/199 189/189/189
f 189/189/189 199/199/199 200/200/200
f 189/189/189 200/200/200 190/190/190
f 191/191/191 201/201/201 202/202/202
f 191/191/191 202/202/202 192/192/192
f 192/192/192 202/202/202 203/203/203
f 192/192/192 203/203/203 193/193/193
f 193/193/193 203/203/203 204/204/204
f 193/193/193 204/204/204 194/194/194
f 194/194/194 204/204/204 205/205/205
f 194/194/194 205/205/205 195/195/195
f 195/195/195 205/205/205 206/206/206
f 195/195/195 206/206/206 196/196/196
f 196/196/196 206/206/206 207/207/207
f 196/196/196 207/207/207 197/197/197
f 197/197/197 207/207/207 208/208/208
f 197/197/197 208/208/208 198/198/198
f 198/198/198 208/208/208 209/209/209
f 198/198/198 209/209/209 199/199/199
f 199/199/199 209/209/209 210/210/210
f 199/199/199 210/210/210 200/200/200
f 201/201/201 211/211/211 212/212/212
f 201/201/201 212/212/212 202/202/202
f 202/202/202 212/212/212 213/213/213
f 202/202/202 213/213/213 203/203/203
f 203/203/203 213/213/213 214/214/214
f 203/203/203 214/214/214 204/204/204
f 204/204/204 214/214/214 215/215/215
f 204/204/204 215/215/215 205/205/205
f 205/205/205 215/215/215 216/216/216
f 205/205/205 216/216/216 206/206/206
f 206/206/206 216/216/216 217/217/217
f 206/206/206 217/217/217 207/207/207
f 207/207/207 217/217/217 218/218/218
f 207/207/207 218/218/218 208/208/208
f 208/208/208 218/218/218 219/219/219
f 208/208/208 219/219/219 209/209/209
f 209/209/209 219/219/219 220/220/220
f 209/209/209 220/220/220 210/210/210
f 211/211/211 221/221/221 222/222/222
f 211/211/211 222/222/222 212/212/212
f 212/212/212 222/222/222 223/223/223
f 212/212/212 223/223/223 213/213/213
f 213/213/213 223/223/223 224/224/224
f 213/213/213 224/224/224 214/214/214
f 214/214/214 224/224/224 225/225/225
f 214/214/214 225/225/225 215/215/215
f 215/215/215 225/225/225 226/226/226
f 215/215/215 226/226/226 216/216/216
f 216/216/216 226/226/226 227/227/227
f 216/216/216 227/227/227 217/217/217
f 217/217/217 227/227/227 228/228/228
f 217/217/217 228/228/228 218/218/218
f 218/218/218 228/228/228 229/229/229
f 218/218/218 229/229/229 219/219/219
f 219/219/219 229/229/229 230/230/230
f 219/219/219 230/230/230 220/220/220
f 221/221/221 231/231/231 232/232/232
f 221/221/221 232/232/232 222/222/222
f 222/222/222 232/232/232 233/233/233
f 222/222/222 233/233/233 223/223/223
f 223/223/223 233/233/233 234/234/234
f 223/223/223 234/234/234 224/224/224
f 224/224/224 234/234/234 235/235/235
f 224/224/224 235/235/235 225/225/225
f 225/225/225 235/235/235 236/236/236
f 225/225/225 236/236/236 226/226/226
f 226/226/226 236/236/236 237/237/237
f 226/226/226 237/237/237 227/227/227
f 227/227/227 237/237/237 238/238/238
f 227/227/227 238/238/238 228/228/228
f 228/228/228 238/238/238 239/239/239
f 228/228/228 239/239/239 229/229/229
f 229/229/229 239/239/239 240/240/240
f 229/229/229 240/240/240 230/230/230
f 231/231/231 241/241/241 242/242/242
f 231/231/231 242/242/242 232/232/232
f 232/232/232 242/242/242 243/243/243
f 232/232/232 243/243/243 233/233/233
f 233/233/233 243/243/243 244/244/244
f 233/233/233 244/244/244 234/234/234
f 234/234/234 244/244/244 245/245/245
f 234/234/234 245/245/245 235/235/235
f 235/235/235 245/245/245 246/246/246
f 235/235/235 246/246/246 236/236/236
f 236/236/236 246/246/246 247/247/247
f 236/236/236 247/247/247 237/237/237
f 237/237/237 247/247/247 248/248/248
f 237/237/237 248/248/248 238/238/238
f 238/238/238 248/248/248 249/249/249
f 238/238/238 249/249/249 239/239/239
f 239/239/239 249/249/249 250/250/250
f 239/239/239 250/250/250 240/240/240
f 251/251/251 255/255/255 256/256/256
f 251/251/251 256/256/256 252/252/252
f 252/252/252 256/256/256 257/257/257
f 252/252/252 257/257/257 253/253/253
f 253/253/253 257/257/257 258/258/258
f 253/253/253 258/258/258 254/254/254
f 255/255/255 259/259/259 260/260/260
f 255/255/255 260/260/260 256/256/256
f 256/256/256 260/260/260 261/261/261
f 256/256/256 261/261/261 257/257/257
f 257/257/257 261/261/261 262/262/262
f 257/257/257 262/262/262 258/258/258
f 259/259/259 263/263/263 264/264/264
f 259/259/259 264/264/264 260/260/260
f 260/260/260 264/264/264 265/265/265
f 260/260/260 265/265/265 261/261/261
f 261/261/261 265/265/265 266/266/266
f 261/261/261 266/266/266 262/262/262
f 263/263/263 267/267/267 268/268/268
f 263/263/263 268/268/268 264/264/264
f 264/264/264 268/268/268 269/269/269
f 264/264/264 269/269/269 265/265/265
f 265/265/265 269/269/269 270/270/270
f 265/265/265 270/270/270 266/266/266
f 267/267/267 271/271/271 272/272/272
f 267/267/267 272/272/272 268/268/268
f 268/268/268 272/272/272 273/273/273
f 268/268/268 273/273/273 269/269/269
f 269/269/269 273/273/273 274/274/274
f 269/269/269 274/274/274 270/270/270
f 271/271/271 275/275/275 276/276/276
f 271/271/271 276/276/276 272/272/272
f 272/272/272 276/276/276 277/277/277
f 272/272/272 277/277/277 273/273/273
f 273/273/273 277/277/277 278/278/278
f 273/273/273 278/278/278 274/274/274
f 275/275/275 279/279/279 280/280/280
f 275/275/275 280/280/280 276/276/276
f 276/276/276 280/280/280 281/281/281
f 276/276/276 281/281/281 277/277/277
f 277/277/277 281/281/281 282/282/282
f 277/277/277 282/282/282 278/278/278
f 279/279/279 283/283/283 284/284/284
f 279/279/279 284/284/284 280/280/280
f 280/280/280 284/284/284 285/285/285
f 280/280/280 285/285/285 281/281/281
f 281/281/281 285/285/285 286/286/286
f 281/281/281 286/286/286 282/282/282
f 283/283/283 287/287/287 288/288/288
f 283/283/283 288/288/288 284/284/284
f 284/284/284 288/288/288 289/289/289
f 284/284/284 289/289/289 285/285/285
f 285/285/285 289/289/289 290/290/290
f 285/285/285 290/290/290 286/286/286
f 287/287/287 291/291/291 292/292/292
f 287/287/287 292/292/292 288/288/288
f 288/288/288 292/292/292 293/293/293
f 288/288/288 293/293/293 289/289/289
f 289/289/289 293/293/293 294/294/294
f 289/289/289 294/294/294 290/290/290
