# Sinh tự động bởi tools/mesh_kit.py - đừng sửa tay
o hat_khan
v 0.0880 0.0600 0.0050
v 0.0704 0.0543 0.0050
v 0.0595 0.0393 0.0050
v 0.0595 0.0207 0.0050
v 0.0704 0.0057 0.0050
v 0.0880 0.0000 0.0050
v 0.1056 0.0057 0.0050
v 0.1165 0.0207 0.0050
v 0.1165 0.0393 0.0050
v 0.1056 0.0543 0.0050
v 0.0880 0.0600 0.0050
v 0.0850 0.0600 0.0278
v 0.0680 0.0543 0.0232
v 0.0574 0.0393 0.0204
v 0.0574 0.0207 0.0204
v 0.0680 0.0057 0.0232
v 0.0850 0.0000 0.0278
v 0.1020 0.0057 0.0323
v 0.1126 0.0207 0.0352
v 0.1126 0.0393 0.0352
v 0.1020 0.0543 0.0323
v 0.0850 0.0600 0.0278
v 0.0762 0.0600 0.0490
v 0.0609 0.0543 0.0402
v 0.0515 0.0393 0.0347
v 0.0515 0.0207 0.0347
v 0.0609 0.0057 0.0402
v 0.0762 0.0000 0.0490
v 0.0915 0.0057 0.0578
v 0.1009 0.0207 0.0633
v 0.1009 0.0393 0.0633
v 0.0915 0.0543 0.0578
v 0.0762 0.0600 0.0490
v 0.0622 0.0600 0.0672
v 0.0498 0.0543 0.0548
v 0.0421 0.0393 0.0471
v 0.0421 0.0207 0.0471
v 0.0498 0.0057 0.0548
v 0.0622 0.0000 0.0672
v 0.0747 0.0057 0.0797
v 0.0824 0.0207 0.0874
v 0.0824 0.0393 0.0874
v 0.0747 0.0543 0.0797
v 0.0622 0.0600 0.0672
v 0.0440 0.0600 0.0812
v 0.0352 0.0543 0.0659
v 0.0297 0.0393 0.0565
v 0.0297 0.0207 0.0565
v 0.0352 0.0057 0.0659
v 0.0440 0.0000 0.0812
v 0.0528 0.0057 0.0965
v 0.0583 0.0207 0.1059
v 0.0583 0.0393 0.1059
v 0.0528 0.0543 0.0965
v 0.0440 0.0600 0.0812
v 0.0228 0.0600 0.0900
v 0.0182 0.0543 0.0730
v 0.0154 0.0393 0.0624
v 0.0154 0.0207 0.0624
v 0.0182 0.0057 0.0730
v 0.0228 0.0000 0.0900
v 0.0273 0.0057 0.1070
v 0.0302 0.0207 0.1176
v 0.0302 0.0393 0.1176
v 0.0273 0.0543 0.1070
v 0.0228 0.0600 0.0900
v 0.0000 0.0600 0.0930
v 0.0000 0.0543 0.0754
v 0.0000 0.0393 0.0645
v 0.0000 0.0207 0.0645
v 0.0000 0.0057 0.0754
v 0.0000 0.0000 0.0930
v 0.0000 0.0057 0.1106
v 0.0000 0.0207 0.1215
v 0.0000 0.0393 0.1215
v 0.0000 0.0543 0.1106
v 0.0000 0.0600 0.0930
v -0.0228 0.0600 0.0900
v -0.0182 0.0543 0.0730
v -0.0154 0.0393 0.0624
v -0.0154 0.0207 0.0624
v -0.0182 0.0057 0.0730
v -0.0228 0.0000 0.0900
v -0.0273 0.0057 0.1070
v -0.0302 0.0207 0.1176
v -0.0302 0.0393 0.1176
v -0.0273 0.0543 0.1070
v -0.0228 0.0600 0.0900
v -0.0440 0.0600 0.0812
v -0.0352 0.0543 0.0659
v -0.0297 0.0393 0.0565
v -0.0297 0.0207 0.0565
v -0.0352 0.0057 0.0659
v -0.0440 0.0000 0.0812
v -0.0528 0.0057 0.0965
v -0.0583 0.0207 0.1059
v -0.0583 0.0393 0.1059
v -0.0528 0.0543 0.0965
v -0.0440 0.0600 0.0812
v -0.0622 0.0600 0.0672
v -0.0498 0.0543 0.0548
v -0.0421 0.0393 0.0471
v -0.0421 0.0207 0.0471
v -0.0498 0.0057 0.0548
v -0.0622 0.0000 0.0672
v -0.0747 0.0057 0.0797
v -0.0824 0.0207 0.0874
v -0.0824 0.0393 0.0874
v -0.0747 0.0543 0.0797
v -0.0622 0.0600 0.0672
v -0.0762 0.0600 0.0490
v -0.0609 0.0543 0.0402
v -0.0515 0.0393 0.0347
v -0.0515 0.0207 0.0347
v -0.0609 0.0057 0.0402
v -0.0762 0.0000 0.0490
v -0.0915 0.0057 0.0578
v -0.1009 0.0207 0.0633
v -0.1009 0.0393 0.0633
v -0.0915 0.0543 0.0578
v -0.0762 0.0600 0.0490
v -0.0850 0.0600 0.0278
v -0.0680 0.0543 0.0232
v -0.0574 0.0393 0.0204
v -0.0574 0.0207 0.0204
v -0.0680 0.0057 0.0232
v -0.0850 0.0000 0.0278
v -0.1020 0.0057 0.0323
v -0.1126 0.0207 0.0352
v -0.1126 0.0393 0.0352
v -0.1020 0.0543 0.0323
v -0.0850 0.0600 0.0278
v -0.0880 0.0600 0.0050
v -0.0704 0.0543 0.0050
v -0.0595 0.0393 0.0050
v -0.0595 0.0207 0.0050
v -0.0704 0.0057 0.0050
v -0.0880 0.0000 0.0050
v -0.1056 0.0057 0.0050
v -0.1165 0.0207 0.0050
v -0.1165 0.0393 0.0050
v -0.1056 0.0543 0.0050
v -0.0880 0.0600 0.0050
v -0.0850 0.0600 -0.0178
v -0.0680 0.0543 -0.0132
v -0.0574 0.0393 -0.0104
v -0.0574 0.0207 -0.0104
v -0.0680 0.0057 -0.0132
v -0.0850 0.0000 -0.0178
v -0.1020 0.0057 -0.0223
v -0.1126 0.0207 -0.0252
v -0.1126 0.0393 -0.0252
v -0.1020 0.0543 -0.0223
v -0.0850 0.0600 -0.0178
v -0.0762 0.0600 -0.0390
v -0.0609 0.0543 -0.0302
v -0.0515 0.0393 -0.0247
v -0.0515 0.0207 -0.0247
v -0.0609 0.0057 -0.0302
v -0.0762 0.0000 -0.0390
v -0.0915 0.0057 -0.0478
v -0.1009 0.0207 -0.0533
v -0.1009 0.0393 -0.0533
v -0.0915 0.0543 -0.0478
v -0.0762 0.0600 -0.0390
v -0.0622 0.0600 -0.0572
v -0.0498 0.0543 -0.0448
v -0.0421 0.0393 -0.0371
v -0.0421 0.0207 -0.0371
v -0.0498 0.0057 -0.0448
v -0.0622 0.0000 -0.0572
v -0.0747 0.0057 -0.0697
v -0.0824 0.0207 -0.0774
v -0.0824 0.0393 -0.0774
v -0.0747 0.0543 -0.0697
v -0.0622 0.0600 -0.0572
v -0.0440 0.0600 -0.0712
v -0.0352 0.0543 -0.0559
v -0.0297 0.0393 -0.0465
v -0.0297 0.0207 -0.0465
v -0.0352 0.0057 -0.0559
v -0.0440 0.0000 -0.0712
v -0.0528 0.0057 -0.0865
v -0.0583 0.0207 -0.0959
v -0.0583 0.0393 -0.0959
v -0.0528 0.0543 -0.0865
v -0.0440 0.0600 -0.0712
v -0.0228 0.0600 -0.0800
v -0.0182 0.0543 -0.0630
v -0.0154 0.0393 -0.0524
v -0.0154 0.0207 -0.0524
v -0.0182 0.0057 -0.0630
v -0.0228 0.0000 -0.0800
v -0.0273 0.0057 -0.0970
v -0.0302 0.0207 -0.1076
v -0.0302 0.0393 -0.1076
v -0.0273 0.0543 -0.0970
v -0.0228 0.0600 -0.0800
v -0.0000 0.0600 -0.0830
v -0.0000 0.0543 -0.0654
v -0.0000 0.0393 -0.0545
v -0.0000 0.0207 -0.0545
v -0.0000 0.0057 -0.0654
v -0.0000 0.0000 -0.0830
v -0.0000 0.0057 -0.1006
v -0.0000 0.0207 -0.1115
v -0.0000 0.0393 -0.1115
v -0.0000 0.0543 -0.1006
v -0.0000 0.0600 -0.0830
v 0.0228 0.0600 -0.0800
v 0.0182 0.0543 -0.0630
v 0.0154 0.0393 -0.0524
v 0.0154 0.0207 -0.0524
v 0.0182 0.0057 -0.0630
v 0.0228 0.0000 -0.0800
v 0.0273 0.0057 -0.0970
v 0.0302 0.0207 -0.1076
v 0.0302 0.0393 -0.1076
v 0.0273 0.0543 -0.0970
v 0.0228 0.0600 -0.0800
v 0.0440 0.0600 -0.0712
v 0.0352 0.0543 -0.0559
v 0.0297 0.0393 -0.0465
v 0.0297 0.0207 -0.0465
v 0.0352 0.0057 -0.0559
v 0.0440 0.0000 -0.0712
v 0.0528 0.0057 -0.0865
v 0.0583 0.0207 -0.0959
v 0.0583 0.0393 -0.0959
v 0.0528 0.0543 -0.0865
v 0.0440 0.0600 -0.0712
v 0.0622 0.0600 -0.0572
v 0.0498 0.0543 -0.0448
v 0.0421 0.0393 -0.0371
v 0.0421 0.0207 -0.0371
v 0.0498 0.0057 -0.0448
v 0.0622 0.0000 -0.0572
v 0.0747 0.0057 -0.0697
v 0.0824 0.0207 -0.0774
v 0.0824 0.0393 -0.0774
v 0.0747 0.0543 -0.0697
v 0.0622 0.0600 -0.0572
v 0.0762 0.0600 -0.0390
v 0.0609 0.0543 -0.0302
v 0.0515 0.0393 -0.0247
v 0.0515 0.0207 -0.0247
v 0.0609 0.0057 -0.0302
v 0.0762 0.0000 -0.0390
v 0.0915 0.0057 -0.0478
v 0.1009 0.0207 -0.0533
v 0.1009 0.0393 -0.0533
v 0.0915 0.0543 -0.0478
v 0.0762 0.0600 -0.0390
v 0.0850 0.0600 -0.0178
v 0.0680 0.0543 -0.0132
v 0.0574 0.0393 -0.0104
v 0.0574 0.0207 -0.0104
v 0.0680 0.0057 -0.0132
v 0.0850 0.0000 -0.0178
v 0.1020 0.0057 -0.0223
v 0.1126 0.0207 -0.0252
v 0.1126 0.0393 -0.0252
v 0.1020 0.0543 -0.0223
v 0.0850 0.0600 -0.0178
v 0.0880 0.0600 0.0050
v 0.0704 0.0543 0.0050
v 0.0595 0.0393 0.0050
v 0.0595 0.0207 0.0050
v 0.0704 0.0057 0.0050
v 0.0880 0.0000 0.0050
v 0.1056 0.0057 0.0050
v 0.1165 0.0207 0.0050
v 0.1165 0.0393 0.0050
v 0.1056 0.0543 0.0050
v 0.0880 0.0600 0.0050
v 0.0000 0.0500 0.1000
v 0.0369 0.0500 0.0906
v 0.0665 0.0500 0.0642
v 0.0829 0.0500 0.0261
v 0.0829 0.0500 -0.0161
v 0.0665 0.0500 -0.0542
v 0.0369 0.0500 -0.0806
v 0.0000 0.0500 -0.0900
v -0.0369 0.0500 -0.0806
v -0.0665 0.0500 -0.0542
v -0.0829 0.0500 -0.0161
v -0.0829 0.0500 0.0261
v -0.0665 0.0500 0.0642
v -0.0369 0.0500 0.0906
v -0.0000 0.0500 0.1000
v 0.0000 0.0655 0.0968
v 0.0356 0.0655 0.0877
v 0.0642 0.0655 0.0622
v 0.0800 0.0655 0.0254
v 0.0800 0.0655 -0.0154
v 0.0642 0.0655 -0.0522
v 0.0356 0.0655 -0.0777
v 0.0000 0.0655 -0.0868
v -0.0356 0.0655 -0.0777
v -0.0642 0.0655 -0.0522
v -0.0800 0.0655 -0.0154
v -0.0800 0.0655 0.0254
v -0.0642 0.0655 0.0622
v -0.0356 0.0655 0.0877
v -0.0000 0.0655 0.0968
v 0.0000 0.0800 0.0873
v 0.0319 0.0800 0.0791
v 0.0576 0.0800 0.0563
v 0.0718 0.0800 0.0233
v 0.0718 0.0800 -0.0133
v 0.0576 0.0800 -0.0463
v 0.0319 0.0800 -0.0691
v 0.0000 0.0800 -0.0773
v -0.0319 0.0800 -0.0691
v -0.0576 0.0800 -0.0463
v -0.0718 0.0800 -0.0133
v -0.0718 0.0800 0.0233
v -0.0576 0.0800 0.0563
v -0.0319 0.0800 0.0791
v -0.0000 0.0800 0.0873
v 0.0000 0.0924 0.0722
v 0.0261 0.0924 0.0655
v 0.0470 0.0924 0.0469
v 0.0586 0.0924 0.0199
v 0.0586 0.0924 -0.0099
v 0.0470 0.0924 -0.0369
v 0.0261 0.0924 -0.0555
v 0.0000 0.0924 -0.0622
v -0.0261 0.0924 -0.0555
v -0.0470 0.0924 -0.0369
v -0.0586 0.0924 -0.0099
v -0.0586 0.0924 0.0199
v -0.0470 0.0924 0.0469
v -0.0261 0.0924 0.0655
v -0.0000 0.0924 0.0722
v 0.0000 0.1020 0.0525
v 0.0184 0.1020 0.0478
v 0.0332 0.1020 0.0346
v 0.0414 0.1020 0.0156
v 0.0414 0.1020 -0.0056
v 0.0332 0.1020 -0.0246
v 0.0184 0.1020 -0.0378
v 0.0000 0.1020 -0.0425
v -0.0184 0.1020 -0.0378
v -0.0332 0.1020 -0.0246
v -0.0414 0.1020 -0.0056
v -0.0414 0.1020 0.0156
v -0.0332 0.1020 0.0346
v -0.0184 0.1020 0.0478
v -0.0000 0.1020 0.0525
v 0.0000 0.1080 0.0296
v 0.0095 0.1080 0.0272
v 0.0172 0.1080 0.0203
v 0.0214 0.1080 0.0105
v 0.0214 0.1080 -0.0005
v 0.0172 0.1080 -0.0103
v 0.0095 0.1080 -0.0172
v 0.0000 0.1080 -0.0196
v -0.0095 0.1080 -0.0172
v -0.0172 0.1080 -0.0103
v -0.0214 0.1080 -0.0005
v -0.0214 0.1080 0.0105
v -0.0172 0.1080 0.0203
v -0.0095 0.1080 0.0272
v -0.0000 0.1080 0.0296
v 0.0000 0.1100 0.0050
v 0.0000 0.1100 0.0050
v 0.0000 0.1100 0.0050
v 0.0000 0.1100 0.0050
v 0.0000 0.1100 0.0050
v 0.0000 0.1100 0.0050
v 0.0000 0.1100 0.0050
v 0.0000 0.1100 0.0050
v -0.0000 0.1100 0.0050
v -0.0000 0.1100 0.0050
v -0.0000 0.1100 0.0050
v -0.0000 0.1100 0.0050
v -0.0000 0.1100 0.0050
v -0.0000 0.1100 0.0050
v -0.0000 0.1100 0.0050
vt 0.0000 0.0000
vt 0.0000 0.0188
vt 0.0000 0.0377
vt 0.0000 0.0565
vt 0.0000 0.0754
vt 0.0000 0.0942
vt 0.0000 0.1131
vt 0.0000 0.1319
vt 0.0000 0.1508
vt 0.0000 0.1696
vt 0.0000 0.1885
vt 0.0230 0.0000
vt 0.0230 0.0188
vt 0.0230 0.0377
vt 0.0230 0.0565
vt 0.0230 0.0754
vt 0.0230 0.0942
vt 0.0230 0.1131
vt 0.0230 0.1319
vt 0.0230 0.1508
vt 0.0230 0.1696
vt 0.0230 0.1885
vt 0.0459 0.0000
vt 0.0459 0.0188
vt 0.0459 0.0377
vt 0.0459 0.0565
vt 0.0459 0.0754
vt 0.0459 0.0942
vt 0.0459 0.1131
vt 0.0459 0.1319
vt 0.0459 0.1508
vt 0.0459 0.1696
vt 0.0459 0.1885
vt 0.0689 0.0000
vt 0.0689 0.0188
vt 0.0689 0.0377
vt 0.0689 0.0565
vt 0.0689 0.0754
vt 0.0689 0.0942
vt 0.0689 0.1131
vt 0.0689 0.1319
vt 0.0689 0.1508
vt 0.0689 0.1696
vt 0.0689 0.1885
vt 0.0919 0.0000
vt 0.0919 0.0188
vt 0.0919 0.0377
vt 0.0919 0.0565
vt 0.0919 0.0754
vt 0.0919 0.0942
vt 0.0919 0.1131
vt 0.0919 0.1319
vt 0.0919 0.1508
vt 0.0919 0.1696
vt 0.0919 0.1885
vt 0.1149 0.0000
vt 0.1149 0.0188
vt 0.1149 0.0377
vt 0.1149 0.0565
vt 0.1149 0.0754
vt 0.1149 0.0942
vt 0.1149 0.1131
vt 0.1149 0.1319
vt 0.1149 0.1508
vt 0.1149 0.1696
vt 0.1149 0.1885
vt 0.1378 0.0000
vt 0.1378 0.0188
vt 0.1378 0.0377
vt 0.1378 0.0565
vt 0.1378 0.0754
vt 0.1378 0.0942
vt 0.1378 0.1131
vt 0.1378 0.1319
vt 0.1378 0.1508
vt 0.1378 0.1696
vt 0.1378 0.1885
vt 0.1608 0.0000
vt 0.1608 0.0188
vt 0.1608 0.0377
vt 0.1608 0.0565
vt 0.1608 0.0754
vt 0.1608 0.0942
vt 0.1608 0.1131
vt 0.1608 0.1319
vt 0.1608 0.1508
vt 0.1608 0.1696
vt 0.1608 0.1885
vt 0.1838 0.0000
vt 0.1838 0.0188
vt 0.1838 0.0377
vt 0.1838 0.0565
vt 0.1838 0.0754
vt 0.1838 0.0942
vt 0.1838 0.1131
vt 0.1838 0.1319
vt 0.1838 0.1508
vt 0.1838 0.1696
vt 0.1838 0.1885
vt 0.2068 0.0000
vt 0.2068 0.0188
vt 0.2068 0.0377
vt 0.2068 0.0565
vt 0.2068 0.0754
vt 0.2068 0.0942
vt 0.2068 0.1131
vt 0.2068 0.1319
vt 0.2068 0.1508
vt 0.2068 0.1696
vt 0.2068 0.1885
vt 0.2297 0.0000
vt 0.2297 0.0188
vt 0.2297 0.0377
vt 0.2297 0.0565
vt 0.2297 0.0754
vt 0.2297 0.0942
vt 0.2297 0.1131
vt 0.2297 0.1319
vt 0.2297 0.1508
vt 0.2297 0.1696
vt 0.2297 0.1885
vt 0.2527 0.0000
vt 0.2527 0.0188
vt 0.2527 0.0377
vt 0.2527 0.0565
vt 0.2527 0.0754
vt 0.2527 0.0942
vt 0.2527 0.1131
vt 0.2527 0.1319
vt 0.2527 0.1508
vt 0.2527 0.1696
vt 0.2527 0.1885
vt 0.2757 0.0000
vt 0.2757 0.0188
vt 0.2757 0.0377
vt 0.2757 0.0565
vt 0.2757 0.0754
vt 0.2757 0.0942
vt 0.2757 0.1131
vt 0.2757 0.1319
vt 0.2757 0.1508
vt 0.2757 0.1696
vt 0.2757 0.1885
vt 0.2986 0.0000
vt 0.2986 0.0188
vt 0.2986 0.0377
vt 0.2986 0.0565
vt 0.2986 0.0754
vt 0.2986 0.0942
vt 0.2986 0.1131
vt 0.2986 0.1319
vt 0.2986 0.1508
vt 0.2986 0.1696
vt 0.2986 0.1885
vt 0.3216 0.0000
vt 0.3216 0.0188
vt 0.3216 0.0377
vt 0.3216 0.0565
vt 0.3216 0.0754
vt 0.3216 0.0942
vt 0.3216 0.1131
vt 0.3216 0.1319
vt 0.3216 0.1508
vt 0.3216 0.1696
vt 0.3216 0.1885
vt 0.3446 0.0000
vt 0.3446 0.0188
vt 0.3446 0.0377
vt 0.3446 0.0565
vt 0.3446 0.0754
vt 0.3446 0.0942
vt 0.3446 0.1131
vt 0.3446 0.1319
vt 0.3446 0.1508
vt 0.3446 0.1696
vt 0.3446 0.1885
vt 0.3676 0.0000
vt 0.3676 0.0188
vt 0.3676 0.0377
vt 0.3676 0.0565
vt 0.3676 0.0754
vt 0.3676 0.0942
vt 0.3676 0.1131
vt 0.3676 0.1319
vt 0.3676 0.1508
vt 0.3676 0.1696
vt 0.3676 0.1885
vt 0.3905 0.0000
vt 0.3905 0.0188
vt 0.3905 0.0377
vt 0.3905 0.0565
vt 0.3905 0.0754
vt 0.3905 0.0942
vt 0.3905 0.1131
vt 0.3905 0.1319
vt 0.3905 0.1508
vt 0.3905 0.1696
vt 0.3905 0.1885
vt 0.4135 0.0000
vt 0.4135 0.0188
vt 0.4135 0.0377
vt 0.4135 0.0565
vt 0.4135 0.0754
vt 0.4135 0.0942
vt 0.4135 0.1131
vt 0.4135 0.1319
vt 0.4135 0.1508
vt 0.4135 0.1696
vt 0.4135 0.1885
vt 0.4365 0.0000
vt 0.4365 0.0188
vt 0.4365 0.0377
vt 0.4365 0.0565
vt 0.4365 0.0754
vt 0.4365 0.0942
vt 0.4365 0.1131
vt 0.4365 0.1319
vt 0.4365 0.1508
vt 0.4365 0.1696
vt 0.4365 0.1885
vt 0.4595 0.0000
vt 0.4595 0.0188
vt 0.4595 0.0377
vt 0.4595 0.0565
vt 0.4595 0.0754
vt 0.4595 0.0942
vt 0.4595 0.1131
vt 0.4595 0.1319
vt 0.4595 0.1508
vt 0.4595 0.1696
vt 0.4595 0.1885
vt 0.4824 0.0000
vt 0.4824 0.0188
vt 0.4824 0.0377
vt 0.4824 0.0565
vt 0.4824 0.0754
vt 0.4824 0.0942
vt 0.4824 0.1131
vt 0.4824 0.1319
vt 0.4824 0.1508
vt 0.4824 0.1696
vt 0.4824 0.1885
vt 0.5054 0.0000
vt 0.5054 0.0188
vt 0.5054 0.0377
vt 0.5054 0.0565
vt 0.5054 0.0754
vt 0.5054 0.0942
vt 0.5054 0.1131
vt 0.5054 0.1319
vt 0.5054 0.1508
vt 0.5054 0.1696
vt 0.5054 0.1885
vt 0.5284 0.0000
vt 0.5284 0.0188
vt 0.5284 0.0377
vt 0.5284 0.0565
vt 0.5284 0.0754
vt 0.5284 0.0942
vt 0.5284 0.1131
vt 0.5284 0.1319
vt 0.5284 0.1508
vt 0.5284 0.1696
vt 0.5284 0.1885
vt 0.5513 0.0000
vt 0.5513 0.0188
vt 0.5513 0.0377
vt 0.5513 0.0565
vt 0.5513 0.0754
vt 0.5513 0.0942
vt 0.5513 0.1131
vt 0.5513 0.1319
vt 0.5513 0.1508
vt 0.5513 0.1696
vt 0.5513 0.1885
vt 0.0000 0.0000
vt 0.0269 0.0000
vt 0.0549 0.0000
vt 0.0843 0.0000
vt 0.1142 0.0000
vt 0.1435 0.0000
vt 0.1715 0.0000
vt 0.1984 0.0000
vt 0.2253 0.0000
vt 0.2533 0.0000
vt 0.2827 0.0000
vt 0.3126 0.0000
vt 0.3419 0.0000
vt 0.3699 0.0000
vt 0.3968 0.0000
vt 0.0000 0.0159
vt 0.0269 0.0159
vt 0.0549 0.0159
vt 0.0843 0.0159
vt 0.1142 0.0159
vt 0.1435 0.0159
vt 0.1715 0.0159
vt 0.1984 0.0159
vt 0.2253 0.0159
vt 0.2533 0.0159
vt 0.2827 0.0159
vt 0.3126 0.0159
vt 0.3419 0.0159
vt 0.3699 0.0159
vt 0.3968 0.0159
vt 0.0000 0.0332
vt 0.0269 0.0332
vt 0.0549 0.0332
vt 0.0843 0.0332
vt 0.1142 0.0332
vt 0.1435 0.0332
vt 0.1715 0.0332
vt 0.1984 0.0332
vt 0.2253 0.0332
vt 0.2533 0.0332
vt 0.2827 0.0332
vt 0.3126 0.0332
vt 0.3419 0.0332
vt 0.3699 0.0332
vt 0.3968 0.0332
vt 0.0000 0.0527
vt 0.0269 0.0527
vt 0.0549 0.0527
vt 0.0843 0.0527
vt 0.1142 0.0527
vt 0.1435 0.0527
vt 0.1715 0.0527
vt 0.1984 0.0527
vt 0.2253 0.0527
vt 0.2533 0.0527
vt 0.2827 0.0527
vt 0.3126 0.0527
vt 0.3419 0.0527
vt 0.3699 0.0527
vt 0.3968 0.0527
vt 0.0000 0.0746
vt 0.0269 0.0746
vt 0.0549 0.0746
vt 0.0843 0.0746
vt 0.1142 0.0746
vt 0.1435 0.0746
vt 0.1715 0.0746
vt 0.1984 0.0746
vt 0.2253 0.0746
vt 0.2533 0.0746
vt 0.2827 0.0746
vt 0.3126 0.0746
vt 0.3419 0.0746
vt 0.3699 0.0746
vt 0.3968 0.0746
vt 0.0000 0.0983
vt 0.0269 0.0983
vt 0.0549 0.0983
vt 0.0843 0.0983
vt 0.1142 0.0983
vt 0.1435 0.0983
vt 0.1715 0.0983
vt 0.1984 0.0983
vt 0.2253 0.0983
vt 0.2533 0.0983
vt 0.2827 0.0983
vt 0.3126 0.0983
vt 0.3419 0.0983
vt 0.3699 0.0983
vt 0.3968 0.0983
vt 0.0000 0.1229
vt 0.0269 0.1229
vt 0.0549 0.1229
vt 0.0843 0.1229
vt 0.1142 0.1229
vt 0.1435 0.1229
vt 0.1715 0.1229
vt 0.1984 0.1229
vt 0.2253 0.1229
vt 0.2533 0.1229
vt 0.2827 0.1229
vt 0.3126 0.1229
vt 0.3419 0.1229
vt 0.3699 0.1229
vt 0.3968 0.1229
vn 0.000 1.000 0.000
vn -0.588 0.809 0.000
vn -0.951 0.309 0.000
vn -0.951 -0.309 0.000
vn -0.588 -0.809 0.000
vn -0.000 -1.000 0.000
vn 0.588 -0.809 0.000
vn 0.951 -0.309 0.000
vn 0.951 0.309 0.000
vn 0.588 0.809 0.000
vn 0.000 1.000 0.000
vn 0.000 1.000 0.000
vn -0.568 0.809 -0.152
vn -0.919 0.309 -0.246
vn -0.919 -0.309 -0.246
vn -0.568 -0.809 -0.152
vn -0.000 -1.000 -0.000
vn 0.568 -0.809 0.152
vn 0.919 -0.309 0.246
vn 0.919 0.309 0.246
vn 0.568 0.809 0.152
vn 0.000 1.000 0.000
vn 0.000 1.000 0.000
vn -0.509 0.809 -0.294
vn -0.824 0.309 -0.476
vn -0.824 -0.309 -0.476
vn -0.509 -0.809 -0.294
vn -0.000 -1.000 -0.000
vn 0.509 -0.809 0.294
vn 0.824 -0.309 0.476
vn 0.824 0.309 0.476
vn 0.509 0.809 0.294
vn 0.000 1.000 0.000
vn 0.000 1.000 0.000
vn -0.416 0.809 -0.416
vn -0.672 0.309 -0.672
vn -0.672 -0.309 -0.672
vn -0.416 -0.809 -0.416
vn -0.000 -1.000 -0.000
vn 0.416 -0.809 0.416
vn 0.672 -0.309 0.672
vn 0.672 0.309 0.672
vn 0.416 0.809 0.416
vn 0.000 1.000 0.000
vn 0.000 1.000 0.000
vn -0.294 0.809 -0.509
vn -0.476 0.309 -0.824
vn -0.476 -0.309 -0.824
vn -0.294 -0.809 -0.509
vn -0.000 -1.000 -0.000
vn 0.294 -0.809 0.509
vn 0.476 -0.309 0.824
vn 0.476 0.309 0.824
vn 0.294 0.809 0.509
vn 0.000 1.000 0.000
vn 0.000 1.000 0.000
vn -0.152 0.809 -0.568
vn -0.246 0.309 -0.919
vn -0.246 -0.309 -0.919
vn -0.152 -0.809 -0.568
vn -0.000 -1.000 -0.000
vn 0.152 -0.809 0.568
vn 0.246 -0.309 0.919
vn 0.246 0.309 0.919
vn 0.152 0.809 0.568
vn 0.000 1.000 0.000
vn 0.000 1.000 0.000
vn 0.000 0.809 -0.588
vn 0.000 0.309 -0.951
vn -0.000 -0.309 -0.951
vn -0.000 -0.809 -0.588
vn -0.000 -1.000 -0.000
vn 0.000 -0.809 0.588
vn 0.000 -0.309 0.951
vn 0.000 0.309 0.951
vn 0.000 0.809 0.588
vn 0.000 1.000 0.000
vn 0.000 1.000 0.000
vn 0.152 0.809 -0.568
vn 0.246 0.309 -0.919
vn 0.246 -0.309 -0.919
vn 0.152 -0.809 -0.568
vn 0.000 -1.000 -0.000
vn -0.152 -0.809 0.568
vn -0.246 -0.309 0.919
vn -0.246 0.309 0.919
vn -0.152 0.809 0.568
vn -0.000 1.000 0.000
vn 0.000 1.000 0.000
vn 0.294 0.809 -0.509
vn 0.476 0.309 -0.824
vn 0.476 -0.309 -0.824
vn 0.294 -0.809 -0.509
vn 0.000 -1.000 -0.000
vn -0.294 -0.809 0.509
vn -0.476 -0.309 0.824
vn -0.476 0.309 0.824
vn -0.294 0.809 0.509
vn -0.000 1.000 0.000
vn 0.000 1.000 0.000
vn 0.416 0.809 -0.416
vn 0.672 0.309 -0.672
vn 0.672 -0.309 -0.672
vn 0.416 -0.809 -0.416
vn 0.000 -1.000 -0.000
vn -0.416 -0.809 0.416
vn -0.672 -0.309 0.672
vn -0.672 0.309 0.672
vn -0.416 0.809 0.416
vn -0.000 1.000 0.000
vn 0.000 1.000 0.000
vn 0.509 0.809 -0.294
vn 0.824 0.309 -0.476
vn 0.824 -0.309 -0.476
vn 0.509 -0.809 -0.294
vn 0.000 -1.000 -0.000
vn -0.509 -0.809 0.294
vn -0.824 -0.309 0.476
vn -0.824 0.309 0.476
vn -0.509 0.809 0.294
vn -0.000 1.000 0.000
vn 0.000 1.000 0.000
vn 0.568 0.809 -0.152
vn 0.919 0.309 -0.246
vn 0.919 -0.309 -0.246
vn 0.568 -0.809 -0.152
vn 0.000 -1.000 -0.000
vn -0.568 -0.809 0.152
vn -0.919 -0.309 0.246
vn -0.919 0.309 0.246
vn -0.568 0.809 0.152
vn -0.000 1.000 0.000
vn 0.000 1.000 0.000
vn 0.588 0.809 -0.000
vn 0.951 0.309 -0.000
vn 0.951 -0.309 -0.000
vn 0.588 -0.809 -0.000
vn 0.000 -1.000 -0.000
vn -0.588 -0.809 0.000
vn -0.951 -0.309 0.000
vn -0.951 0.309 0.000
vn -0.588 0.809 0.000
vn -0.000 1.000 0.000
vn 0.000 1.000 0.000
vn 0.568 0.809 0.152
vn 0.919 0.309 0.246
vn 0.919 -0.309 0.246
vn 0.568 -0.809 0.152
vn 0.000 -1.000 0.000
vn -0.568 -0.809 -0.152
vn -0.919 -0.309 -0.246
vn -0.919 0.309 -0.246
vn -0.568 0.809 -0.152
vn -0.000 1.000 -0.000
vn 0.000 1.000 0.000
vn 0.509 0.809 0.294
vn 0.824 0.309 0.476
vn 0.824 -0.309 0.476
vn 0.509 -0.809 0.294
vn 0.000 -1.000 0.000
vn -0.509 -0.809 -0.294
vn -0.824 -0.309 -0.476
vn -0.824 0.309 -0.476
vn -0.509 0.809 -0.294
vn -0.000 1.000 -0.000
vn 0.000 1.000 0.000
vn 0.416 0.809 0.416
vn 0.672 0.309 0.672
vn 0.672 -0.309 0.672
vn 0.416 -0.809 0.416
vn 0.000 -1.000 0.000
vn -0.416 -0.809 -0.416
vn -0.672 -0.309 -0.672
vn -0.672 0.309 -0.672
vn -0.416 0.809 -0.416
vn -0.000 1.000 -0.000
vn 0.000 1.000 0.000
vn 0.294 0.809 0.509
vn 0.476 0.309 0.824
vn 0.476 -0.309 0.824
vn 0.294 -0.809 0.509
vn 0.000 -1.000 0.000
vn -0.294 -0.809 -0.509
vn -0.476 -0.309 -0.824
vn -0.476 0.309 -0.824
vn -0.294 0.809 -0.509
vn -0.000 1.000 -0.000
vn 0.000 1.000 0.000
vn 0.152 0.809 0.568
vn 0.246 0.309 0.919
vn 0.246 -0.309 0.919
vn 0.152 -0.809 0.568
vn 0.000 -1.000 0.000
vn -0.152 -0.809 -0.568
vn -0.246 -0.309 -0.919
vn -0.246 0.309 -0.919
vn -0.152 0.809 -0.568
vn -0.000 1.000 -0.000
vn 0.000 1.000 0.000
vn 0.000 0.809 0.588
vn 0.000 0.309 0.951
vn 0.000 -0.309 0.951
vn 0.000 -0.809 0.588
vn 0.000 -1.000 0.000
vn -0.000 -0.809 -0.588
vn -0.000 -0.309 -0.951
vn 0.000 0.309 -0.951
vn 0.000 0.809 -0.588
vn 0.000 1.000 -0.000
vn 0.000 1.000 0.000
vn -0.152 0.809 0.568
vn -0.246 0.309 0.919
vn -0.246 -0.309 0.919
vn -0.152 -0.809 0.568
vn -0.000 -1.000 0.000
vn 0.152 -0.809 -0.568
vn 0.246 -0.309 -0.919
vn 0.246 0.309 -0.919
vn 0.152 0.809 -0.568
vn 0.000 1.000 -0.000
vn 0.000 1.000 0.000
vn -0.294 0.809 0.509
vn -0.476 0.309 0.824
vn -0.476 -0.309 0.824
vn -0.294 -0.809 0.509
vn -0.000 -1.000 0.000
vn 0.294 -0.809 -0.509
vn 0.476 -0.309 -0.824
vn 0.476 0.309 -0.824
vn 0.294 0.809 -0.509
vn 0.000 1.000 -0.000
vn 0.000 1.000 0.000
vn -0.416 0.809 0.416
vn -0.672 0.309 0.672
vn -0.672 -0.309 0.672
vn -0.416 -0.809 0.416
vn -0.000 -1.000 0.000
vn 0.416 -0.809 -0.416
vn 0.672 -0.309 -0.672
vn 0.672 0.309 -0.672
vn 0.416 0.809 -0.416
vn 0.000 1.000 -0.000
vn 0.000 1.000 0.000
vn -0.509 0.809 0.294
vn -0.824 0.309 0.476
vn -0.824 -0.309 0.476
vn -0.509 -0.809 0.294
vn -0.000 -1.000 0.000
vn 0.509 -0.809 -0.294
vn 0.824 -0.309 -0.476
vn 0.824 0.309 -0.476
vn 0.509 0.809 -0.294
vn 0.000 1.000 -0.000
vn 0.000 1.000 0.000
vn -0.568 0.809 0.152
vn -0.919 0.309 0.246
vn -0.919 -0.309 0.246
vn -0.568 -0.809 0.152
vn -0.000 -1.000 0.000
vn 0.568 -0.809 -0.152
vn 0.919 -0.309 -0.246
vn 0.919 0.309 -0.246
vn 0.568 0.809 -0.152
vn 0.000 1.000 -0.000
vn 0.000 1.000 0.000
vn -0.588 0.809 0.000
vn -0.951 0.309 0.000
vn -0.951 -0.309 0.000
vn -0.588 -0.809 0.000
vn -0.000 -1.000 0.000
vn 0.588 -0.809 0.000
vn 0.951 -0.309 0.000
vn 0.951 0.309 0.000
vn 0.588 0.809 0.000
vn 0.000 1.000 0.000
vn -0.000 0.204 0.979
vn 0.464 0.200 0.863
vn 0.799 0.191 0.570
vn 0.963 0.184 0.197
vn 0.963 0.184 -0.197
vn 0.799 0.191 -0.570
vn 0.464 0.200 -0.863
vn 0.000 0.204 -0.979
vn -0.464 0.200 -0.863
vn -0.799 0.191 -0.570
vn -0.963 0.184 -0.197
vn -0.963 0.184 0.197
vn -0.799 0.191 0.570
vn -0.464 0.200 0.863
vn -0.000 0.204 0.979
vn -0.000 0.391 0.921
vn 0.438 0.383 0.813
vn 0.757 0.368 0.540
vn 0.915 0.356 0.187
vn 0.915 0.356 -0.187
vn 0.757 0.368 -0.540
vn 0.438 0.383 -0.813
vn 0.000 0.391 -0.921
vn -0.438 0.383 -0.813
vn -0.757 0.368 -0.540
vn -0.915 0.356 -0.187
vn -0.915 0.356 0.187
vn -0.757 0.368 0.540
vn -0.438 0.383 0.813
vn -0.000 0.391 0.921
vn -0.000 0.675 0.738
vn 0.353 0.666 0.657
vn 0.620 0.648 0.442
vn 0.757 0.635 0.155
vn 0.757 0.635 -0.155
vn 0.620 0.648 -0.442
vn 0.353 0.666 -0.657
vn 0.000 0.675 -0.738
vn -0.353 0.666 -0.657
vn -0.620 0.648 -0.442
vn -0.757 0.635 -0.155
vn -0.757 0.635 0.155
vn -0.620 0.648 0.442
vn -0.353 0.666 0.657
vn -0.000 0.675 0.738
vn -0.000 0.845 0.534
vn 0.257 0.840 0.478
vn 0.457 0.828 0.326
vn 0.563 0.818 0.115
vn 0.563 0.818 -0.115
vn 0.457 0.828 -0.326
vn 0.257 0.840 -0.478
vn 0.000 0.845 -0.534
vn -0.257 0.840 -0.478
vn -0.457 0.828 -0.326
vn -0.563 0.818 -0.115
vn -0.563 0.818 0.115
vn -0.457 0.828 0.326
vn -0.257 0.840 0.478
vn -0.000 0.845 0.534
vn 0.000 0.939 0.343
vn 0.166 0.937 0.308
vn 0.297 0.931 0.212
vn 0.368 0.927 0.075
vn 0.368 0.927 -0.075
vn 0.297 0.931 -0.212
vn 0.166 0.937 -0.308
vn 0.000 0.939 -0.343
vn -0.166 0.937 -0.308
vn -0.297 0.931 -0.212
vn -0.368 0.927 -0.075
vn -0.368 0.927 0.075
vn -0.297 0.931 0.212
vn -0.166 0.937 0.308
vn 0.000 0.939 0.343
vn -0.000 0.986 0.167
vn 0.081 0.985 0.150
vn 0.145 0.984 0.104
vn 0.181 0.983 0.037
vn 0.181 0.983 -0.037
vn 0.145 0.984 -0.104
vn 0.081 0.985 -0.150
vn 0.000 0.986 -0.167
vn -0.081 0.985 -0.150
vn -0.145 0.984 -0.104
vn -0.181 0.983 -0.037
vn -0.181 0.983 0.037
vn -0.145 0.984 0.104
vn -0.081 0.985 0.150
vn -0.000 0.986 0.167
vn -0.000 0.986 0.167
vn 0.081 0.985 0.150
vn 0.145 0.984 0.104
vn 0.181 0.983 0.037
vn 0.181 0.983 -0.037
vn 0.145 0.984 -0.104
vn 0.081 0.985 -0.150
vn 0.000 0.986 -0.167
vn -0.081 0.985 -0.150
vn -0.145 0.984 -0.104
vn -0.181 0.983 -0.037
vn -0.181 0.983 0.037
vn -0.145 0.984 0.104
vn -0.081 0.985 0.150
vn -0.000 0.986 0.167
usemtl hat
f 1/1/1 2/2/2 13/13/13
f 1/1/1 13/13/13 12/12/12
f 2/2/2 3/3/3 14/14/14
f 2/2/2 14/14/14 13/13/13
f 3/3/3 4/4/4 15/15/15
f 3/3/3 15/15/15 14/14/14
f 4/4/4 5/5/5 16/16/16
f 4/4/4 16/16/16 15/15/15
f 5/5/5 6/6/6 17/17/17
f 5/5/5 17/17/17 16/16/16
f 6/6/6 7/7/7 18/18/18
f 6/6/6 18/18/18 17/17/17
f 7/7/7 8/8/8 19/19/19
f 7/7/7 19/19/19 18/18/18
f 8/8/8 9/9/9 20/20/20
f 8/8/8 20/20/20 19/19/19
f 9/9/9 10/10/10 21/21/21
f 9/9/9 21/21/21 20/20/20
f 10/10/10 11/11/11 22/22/22
f 10/10/10 22/22/22 21/21/21
f 12/12/12 13/13/13 24/24/24
f 12/12/12 24/24/24 23/23/23
f 13/13/13 14/14/14 25/25/25
f 13/13/13 25/25/25 24/24/24
f 14/14/14 15/15/15 26/26/26
f 14/14/14 26/26/26 25/25/25
f 15/15/15 16/16/16 27/27/27
f 15/15/15 27/27/27 26/26/26
f 16/16/16 17/17/17 28/28/28
f 16/16/16 28/28/28 27/27/27
f 17/17/17 18/18/18 29/29/29
f 17/17/17 29/29/29 28/28/28
f 18/18/18 19/19/19 30/30/30
f 18/18/18 30/30/30 29/29/29
f 19/19/19 20/20/20 31/31/31
f 19/19/19 31/31/31 30/30/30
f 20/20/20 21/21/21 32/32/32
f 20/20/20 32/32/32 31/31/31
f 21/21/21 22/22/22 33/33/33
f 21/21/21 33/33/33 32/32/32
f 23/23/23 24/24/24 35/35/35
f 23/23/23 35/35/35 34/34/34
f 24/24/24 25/25/25 36/36/36
f 24/24/24 36/36/36 35/35/35
f 25/25/25 26/26/26 37/37/37
f 25/25/25 37/37/37 36/36/36
f 26/26/26 27/27/27 38/38/38
f 26/26/26 38/38/38 37/37/37
f 27/27/27 28/28/28 39/39/39
f 27/27/27 39/39/39 38/38/38
f 28/28/28 29/29/29 40/40/40
f 28/28/28 40/40/40 39/39/39
f 29/29/29 30/30/30 41/41/41
f 29/29/29 41/41/41 40/40/40
f 30/30/30 31/31/31 42/42/42
f 30/30/30 42/42/42 41/41/41
f 31/31/31 32/32/32 43/43/43
f 31/31/31 43/43/43 42/42/42
f 32/32/32 33/33/33 44/44/44
f 32/32/32 44/44/44 43/43/43
f 34/34/34 35/35/35 46/46/46
f 34/34/34 46/46/46 45/45/45
f 35/35/35 36/36/36 47/47/47
f 35/35/35 47/47/47 46/46/46
f 36/36/36 37/37/37 48/48/48
f 36/36/36 48/48/48 47/47/47
f 37/37/37 38/38/38 49/49/49
f 37/37/37 49/49/49 48/48/48
f 38/38/38 39/39/39 50/50/50
f 38/38/38 50/50/50 49/49/49
f 39/39/39 40/40/40 51/51/51
f 39/39/39 51/51/51 50/50/50
f 40/40/40 41/41/41 52/52/52
f 40/40/40 52/52/52 51/51/51
f 41/41/41 42/42/42 53/53/53
f 41/41/41 53/53/53 52/52/52
f 42/42/42 43/43/43 54/54/54
f 42/42/42 54/54/54 53/53/53
f 43/43/43 44/44/44 55/55/55
f 43/43/43 55/55/55 54/54/54
f 45/45/45 46/46/46 57/57/57
f 45/45/45 57/57/57 56/56/56
f 46/46/46 47/47/47 58/58/58
f 46/46/46 58/58/58 57/57/57
f 47/47/47 48/48/48 59/59/59
f 47/47/47 59/59/59 58/58/58
f 48/48/48 49/49/49 60/60/60
f 48/48/48 60/60/60 59/59/59
f 49/49/49 50/50/50 61/61/61
f 49/49/49 61/61/61 60/60/60
f 50/50/50 51/51/51 62/62/62
f 50/50/50 62/62/62 61/61/61
f 51/51/51 52/52/52 63/63/63
f 51/51/51 63/63/63 62/62/62
f 52/52/52 53/53/53 64/64/64
f 52/52/52 64/64/64 63/63/63
f 53/53/53 54/54/54 65/65/65
f 53/53/53 65/65/65 64/64/64
f 54/54/54 55/55/55 66/66/66
f 54/54/54 66/66/66 65/65/65
f 56/56/56 57/57/57 68/68/68
f 56/56/56 68/68/68 67/67/67
f 57/57/57 58/58/58 69/69/69
f 57/57/57 69/69/69 68/68/68
f 58/58/58 59/59/59 70/70/70
f 58/58/58 70/70/70 69/69/69
f 59/59/59 60/60/60 71/71/71
f 59/59/59 71/71/71 70/70/70
f 60/60/60 61/61/61 72/72/72
f 60/60/60 72/72/72 71/71/71
f 61/61/61 62/62/62 73/73/73
f 61/61/61 73/73/73 72/72/72
f 62/62/62 63/63/63 74/74/74
f 62/62/62 74/74/74 73/73/73
f 63/63/63 64/64/64 75/75/75
f 63/63/63 75/75/75 74/74/74
f 64/64/64 65/65/65 76/76/76
f 64/64/64 76/76/76 75/75/75
f 65/65/65 66/66/66 77/77/77
f 65/65/65 77/77/77 76/76/76
f 67/67/67 68/68/68 79/79/79
f 67/67/67 79/79/79 78/78/78
f 68/68/68 69/69/69 80/80/80
f 68/68/68 80/80/80 79/79/79
f 69/69/69 70/70/70 81/81/81
f 69/69/69 81/81/81 80/80/80
f 70/70/70 71/71/71 82/82/82
f 70/70/70 82/82/82 81/81/81
f 71/71/71 72/72/72 83/83/83
f 71/71/71 83/83/83 82/82/82
f 72/72/72 73/73/73 84/84/84
f 72/72/72 84/84/84 83/83/83
f 73/73/73 74/74/74 85/85/85
f 73/73/73 85/85/85 84/84/84
f 74/74/74 75/75/75 86/86/86
f 74/74/74 86/86/86 85/85/85
f 75/75/75 76/76/76 87/87/87
f 75/75/75 87/87/87 86/86/86
f 76/76/76 77/77/77 88/88/88
f 76/76/76 88/88/88 87/87/87
f 78/78/78 79/79/79 90/90/90
f 78/78/78 90/90/90 89/89/89
f 79/79/79 80/80/80 91/91/91
f 79/79/79 91/91/91 90/90/90
f 80/80/80 81/81/81 92/92/92
f 80/80/80 92/92/92 91/91/91
f 81/81/81 82/82/82 93/93/93
f 81/81/81 93/93/93 92/92/92
f 82/82/82 83/83/83 94/94/94
f 82/82/82 94/94/94 93/93/93
f 83/83/83 84/84/84 95/95/95
f 83/83/83 95/95/95 94/94/94
f 84/84/84 85/85/85 96/96/96
f 84/84/84 96/96/96 95/95/95
f 85/85/85 86/86/86 97/97/97
f 85/85/85 97/97/97 96/96/96
f 86/86/86 87/87/87 98/98/98
f 86/86/86 98/98/98 97/97/97
f 87/87/87 88/88/88 99/99/99
f 87/87/87 99/99/99 98/98/98
f 89/89/89 90/90/90 101/101/101
f 89/89/89 101/101/101 100/100/100
f 90/90/90 91/91/91 102/102/102
f 90/90/90 102/102/102 101/101/101
f 91/91/91 92/92/92 103/103/103
f 91/91/91 103/103/103 102/102/102
f 92/92/92 93/93/93 104/104/104
f 92/92/92 104/104/104 103/103/103
f 93/93/93 94/94/94 105/105/105
f 93/93/93 105/105/105 104/104/104
f 94/94/94 95/95/95 106/106/106
f 94/94/94 106/106/106 105/105/105
f 95/95/95 96/96/96 107/107/107
f 95/95/95 107/107/107 106/106/106
f 96/96/96 97/97/97 108/108/108
f 96/96/96 108/108/108 107/107/107
f 97/97/97 98/98/98 109/109/109
f 97/97/97 109/109/109 108/108/108
f 98/98/98 99/99/99 110/110/110
f 98/98/98 110/110/110 109/109/109
f 100/100/100 101/101/101 112/112/112
f 100/100/100 112/112/112 111/111/111
f 101/101/101 102/102/102 113/113/113
f 101/101/101 113/113/113 112/112/112
f 102/102/102 103/103/103 114/114/114
f 102/102/102 114/114/114 113/113/113
f 103/103/103 104/104/104 115/115/115
f 103/103/103 115/115/115 114/114/114
f 104/104/104 105/105/105 116/116/116
f 104/104/104 116/116/116 115/115/115
f 105/105/105 106/106/106 117/117/117
f 105/105/105 117/117/117 116/116/116
f 106/106/106 107/107/107 118/118/118
f 106/106/106 118/118/118 117/117/117
f 107/107/107 108/108/108 119/119/119
f 107/107/107 119/119/119 118/118/118
f 108/108/108 109/109/109 120/120/120
f 108/108/108 120/120/120 119/119/119
f 109/109/109 110/110/110 121/121/121
f 109/109/109 121/121/121 120/120/120
f 111/111/111 112/112/112 123/123/123
f 111/111/111 123/123/123 122/122/122
f 112/112/112 113/113/113 124/124/124
f 112/112/112 124/124/124 123/123/123
f 113/113/113 114/114/114 125/125/125
f 113/113/113 125/125/125 124/124/124
f 114/114/114 115/115/115 126/126/126
f 114/114/114 126/126/126 125/125/125
f 115/115/115 116/116/116 127/127/127
f 115/115/115 127/127/127 126/126/126
f 116/116/116 117/117/117 128/128/128
f 116/116/116 128/128/128 127/127/127
f 117/117/117 118/118/118 129/129/129
f 117/117/117 129/129/129 128/128/128
f 118/118/118 119/119/119 130/130/130
f 118/118/118 130/130/130 129/129/129
f 119/119/119 120/120/120 131/131/131
f 119/119/119 131/131/131 130/130/130
f 120/120/120 121/121/121 132/132/132
f 120/120/120 132/132/132 131/131/131
f 122/122/122 123/123/123 134/134/134
f 122/122/122 134/134/134 133/133/133
f 123/123/123 124/124/124 135/135/135
f 123/123/123 135/135/135 134/134/134
f 124/124/124 125/125/125 136/136/136
f 124/124/124 136/136/136 135/135/135
f 125/125/125 126/126/126 137/137/137
f 125/125/125 137/137/137 136/136/136
f 126/126/126 127/127/127 138/138/138
f 126/126/126 138/138/138 137/137/137
f 127/127/127 128/128/128 139/139/139
f 127/127/127 139/139/139 138/138/138
f 128/128/128 129/129/129 140/140/140
f 128/128/128 140/140/140 139/139/139
f 129/129/129 130/130/130 141/141/141
f 129/129/129 141/141/141 140/140/140
f 130/130/130 131/131/131 142/142/142
f 130/130/130 142/142/142 141/141/141
f 131/131/131 132/132/132 143/143/143
f 131/131/131 143/143/143 142/142/142
f 133/133/133 134/134/134 145/145/145
f 133/133/133 145/145/145 144/144/144
f 134/134/134 135/135/135 146/146/146
f 134/134/134 146/146/146 145/145/145
f 135/135/135 136/136/136 147/147/147
f 135/135/135 147/147/147 146/146/146
f 136/136/136 137/137/137 148/148/148
f 136/136/136 148/148/148 147/147/147
f 137/137/137 138/138/138 149/149/149
f 137/137/137 149/149/149 148/148/148
f 138/138/138 139/139/139 150/150/150
f 138/138/138 150/150/150 149/149/149
f 139/139/139 140/140/140 151/151/151
f 139/139/139 151/151/151 150/150/150
f 140/140/140 141/141/141 152/152/152
f 140/140/140 152/152/152 151/151/151
f 141/141/141 142/142/142 153/153/153
f 141/141/141 153/153/153 152/152/152
f 142/142/142 143/143/143 154/154/154
f 142/142/142 154/154/154 153/153/153
f 144/144/144 145/145/145 156/156/156
f 144/144/144 156/156/156 155/155/155
f 145/145/145 146/146/146 157/157/157
f 145/145/145 157/157/157 156/156/156
f 146/146/146 147/147/147 158/158/158
f 146/146/146 158/158/158 157/157/157
f 147/147/147 148/148/148 159/159/159
f 147/147/147 159/159/159 158/158/158
f 148/148/148 149/149/149 160/160/160
f 148/148/148 160/160/160 159/159/159
f 149/149/149 150/150/150 161/161/161
f 149/149/149 161/161/161 160/160/160
f 150/150/150 151/151/151 162/162/162
f 150/150/150 162/162/162 161/161/161
f 151/151/151 152/152/152 163/163/163
f 151/151/151 163/163/163 162/162/162
f 152/152/152 153/153/153 164/164/164
f 152/152/152 164/164/164 163/163/163
f 153/153/153 154/154/154 165/165/165
f 153/153/153 165/165/165 164/164/164
f 155/155/155 156/156/156 167/167/167
f 155/155/155 167/167/167 166/166/166
f 156/156/156 157/157/157 168/168/168
f 156/156/156 168/168/168 167/167/167
f 157/157/157 158/158/158 169/169/169
f 157/157/157 169/169/169 168/168/168
f 158/158/158 159/159/159 170/170/170
f 158/158/158 170/170/170 169/169/169
f 159/159/159 160/160/160 171/171/171
f 159/159/159 171/171/171 170/170/170
f 160/160/160 161/161/161 172/172/172
f 160/160/160 172/172/172 171/171/171
f 161/161/161 162/162/162 173/173/173
f 161/161/161 173/173/173 172/172/172
f 162/162/162 163/163/163 174/174/174
f 162/162/162 174/174/174 173/173/173
f 163/163/163 164/164/164 175/175/175
f 163/163/163 175/175/175 174/174/174
f 164/164/164 165/165/165 176/176/176
f 164/164/164 176/176/176 175/175/175
f 166/166/166 167/167/167 178/178/178
f 166/166/166 178/178/178 177/177/177
f 167/167/167 168/168/168 179/179/179
f 167/167/167 179/179/179 178/178/178
f 168/168/168 169/169/169 180/180/180
f 168/168/168 180/180/180 179/179/179
f 169/169/169 170/170/170 181/181/181
f 169/169/169 181/181/181 180/180/180
f 170/170/170 171/171/171 182/182/182
f 170/170/170 182/182/182 181/181/181
f 171/171/171 172/172/172 183/183/183
f 171/171/171 183/183/183 182/182/182
f 172/172/172 173/173/173 184/184/184
f 172/172/172 184/184/184 183/183/183
f 173/173/173 174/174/174 185/185/185
f 173/173/173 185/185/185 184/184/184
f 174/174/174 175/175/175 186/186/186
f 174/174/174 186/186/186 185/185/185
f 175/175/175 176/176/176 187/187/187
f 175/175/175 187/187/187 186/186/186
f 177/177/177 178/178/178 189/189/189
f 177/177/177 189/189/189 188/188/188
f 178/178/178 179/179/179 190/190/190
f 178/178/178 190/190/190 189/189/189
f 179/179/179 180/180/180 191/191/191
f 179/179/179 191/191/191 190/190/190
f 180/180/180 181/181/181 192/192/192
f 180/180/180 192/192/192 191/191/191
f 181/181/181 182/182/182 193/193/193
f 181/181/181 193/193/193 192/192/192
f 182/182/182 183/183/183 194/194/194
f 182/182/182 194/194/194 193/193/193
f 183/183/183 184/184/184 195/195/195
f 183/183/183 195/195/195 194/194/194
f 184/184/184 185/185/185 196/196/196
f 184/184/184 196/196/196 195/195/195
f 185/185/185 186/186/186 197/197/197
f 185/185/185 197/197/197 196/196/196
f 186/186/186 187/187/187 198/198/198
f 186/186/186 198/198/198 197/197/197
f 188/188/188 189/189/189 200/200/200
f 188/188/188 200/200/200 199/199/199
f 189/189/189 190/190/190 201/201/201
f 189/189/189 201/201/201 200/200/200
f 190/190/190 191/191/191 202/202/202
f 190/190/190 202/202/202 201/201/201
f 191/191/191 192/192/192 203/203/203
f 191/191/191 203/203/203 202/202/202
f 192/192/192 193/193/193 204/204/204
f 192/192/192 204/204/204 203/203/203
f 193/193/193 194/194/194 205/205/205
f 193/193/193 205/205/205 204/204/204
f 194/194/194 195/195/195 206/206/206
f 194/194/194 206/206/206 205/205/205
f 195/195/195 196/196/196 207/207/207
f 195/195/195 207/207/207 206/206/206
f 196/196/196 197/197/197 208/208/208
f 196/196/196 208/208/208 207/207/207
f 197/197/197 198/198/198 209/209/209
f 197/197/197 209/209/209 208/208/208
f 199/199/199 200/200/200 211/211/211
f 199/199/199 211/211/211 210/210/210
f 200/200/200 201/201/201 212/212/212
f 200/200/200 212/212/212 211/211/211
f 201/201/201 202/202/202 213/213/213
f 201/201/201 213/213/213 212/212/212
f 202/202/202 203/203/203 214/214/214
f 202/202/202 214/214/214 213/213/213
f 203/203/203 204/204/204 215/215/215
f 203/203/203 215/215/215 214/214/214
f 204/204/204 205/205/205 216/216/216
f 204/204/204 216/216/216 215/215/215
f 205/205/205 206/206/206 217/217/217
f 205/205/205 217/217/217 216/216/216
f 206/206/206 207/207/207 218/218/218
f 206/206/206 218/218/218 217/217/217
f 207/207/207 208/208/208 219/219/219
f 207/207/207 219/219/219 218/218/218
f 208/208/208 209/209/209 220/220/220
f 208/208/208 220/220/220 219/219/219
f 210/210/210 211/211/211 222/222/222
f 210/210/210 222/222/222 221/221/221
f 211/211/211 212/212/212 223/223/223
f 211/211/211 223/223/223 222/222/222
f 212/212/212 213/213/213 224/224/224
f 212/212/212 224/224/224 223/223/223
f 213/213/213 214/214/214 225/225/225
f 213/213/213 225/225/225 224/224/224
f 214/214/214 215/215/215 226/226/226
f 214/214/214 226/226/226 225/225/225
f 215/215/215 216/216/216 227/227/227
f 215/215/215 227/227/227 226/226/226
f 216/216/216 217/217/217 228/228/228
f 216/216/216 228/228/228 227/227/227
f 217/217/217 218/218/218 229/229/229
f 217/217/217 229/229/229 228/228/228
f 218/218/218 219/219/219 230/230/230
f 218/218/218 230/230/230 229/229/229
f 219/219/219 220/220/220 231/231/231
f 219/219/219 231/231/231 230/230/230
f 221/221/221 222/222/222 233/233/233
f 221/221/221 233/233/233 232/232/232
f 222/222/222 223/223/223 234/234/234
f 222/222/222 234/234/234 233/233/233
f 223/223/223 224/224/224 235/235/235
f 223/223/223 235/235/235 234/234/234
f 224/224/224 225/225/225 236/236/236
f 224/224/224 236/236/236 235/235/235
f 225/225/225 226/226/226 237/237/237
f 225/225/225 237/237/237 236/236/236
f 226/226/226 227/227/227 238/238/238
f 226/226/226 238/238/238 237/237/237
f 227/227/227 228/228/228 239/239/239
f 227/227/227 239/239/239 238/238/238
f 228/228/228 229/229/229 240/240/240
f 228/228/228 240/240/240 239/239/239
f 229/229/229 230/230/230 241/241/241
f 229/229/229 241/241/241 240/240/240
f 230/230/230 231/231/231 242/242/242
f 230/230/230 242/242/242 241/241/241
f 232/232/232 233/233/233 244/244/244
f 232/232/232 244/244/244 243/243/243
f 233/233/233 234/234/234 245/245/245
f 233/233/233 245/245/245 244/244/244
f 234/234/234 235/235/235 246/246/246
f 234/234/234 246/246/246 245/245/245
f 235/235/235 236/236/236 247/247/247
f 235/235/235 247/247/247 246/246/246
f 236/236/236 237/237/237 248/248/248
f 236/236/236 248/248/248 247/247/247
f 237/237/237 238/238/238 249/249/249
f 237/237/237 249/249/249 248/248/248
f 238/238/238 239/239/239 250/250/250
f 238/238/238 250/250/250 249/249/249
f 239/239/239 240/240/240 251/251/251
f 239/239/239 251/251/251 250/250/250
f 240/240/240 241/241/241 252/252/252
f 240/240/240 252/252/252 251/251/251
f 241/241/241 242/242/242 253/253/253
f 241/241/241 253/253/253 252/252/252
f 243/243/243 244/244/244 255/255/255
f 243/243/243 255/255/255 254/254/254
f 244/244/244 245/245/245 256/256/256
f 244/244/244 256/256/256 255/255/255
f 245/245/245 246/246/246 257/257/257
f 245/245/245 257/257/257 256/256/256
f 246/246/246 247/247/247 258/258/258
f 246/246/246 258/258/258 257/257/257
f 247/247/247 248/248/248 259/259/259
f 247/247/247 259/259/259 258/258/258
f 248/248/248 249/249/249 260/260/260
f 248/248/248 260/260/260 259/259/259
f 249/249/249 250/250/250 261/261/261
f 249/249/249 261/261/261 260/260/260
f 250/250/250 251/251/251 262/262/262
f 250/250/250 262/262/262 261/261/261
f 251/251/251 252/252/252 263/263/263
f 251/251/251 263/263/263 262/262/262
f 252/252/252 253/253/253 264/264/264
f 252/252/252 264/264/264 263/263/263
f 254/254/254 255/255/255 266/266/266
f 254/254/254 266/266/266 265/265/265
f 255/255/255 256/256/256 267/267/267
f 255/255/255 267/267/267 266/266/266
f 256/256/256 257/257/257 268/268/268
f 256/256/256 268/268/268 267/267/267
f 257/257/257 258/258/258 269/269/269
f 257/257/257 269/269/269 268/268/268
f 258/258/258 259/259/259 270/270/270
f 258/258/258 270/270/270 269/269/269
f 259/259/259 260/260/260 271/271/271
f 259/259/259 271/271/271 270/270/270
f 260/260/260 261/261/261 272/272/272
f 260/260/260 272/272/272 271/271/271
f 261/261/261 262/262/262 273/273/273
f 261/261/261 273/273/273 272/272/272
f 262/262/262 263/263/263 274/274/274
f 262/262/262 274/274/274 273/273/273
f 263/263/263 264/264/264 275/275/275
f 263/263/263 275/275/275 274/274/274
f 276/276/276 277/277/277 292/292/292
f 276/276/276 292/292/292 291/291/291
f 277/277/277 278/278/278 293/293/293
f 277/277/277 293/293/293 292/292/292
f 278/278/278 279/279/279 294/294/294
f 278/278/278 294/294/294 293/293/293
f 279/279/279 280/280/280 295/295/295
f 279/279/279 295/295/295 294/294/294
f 280/280/280 281/281/281 296/296/296
f 280/280/280 296/296/296 295/295/295
f 281/281/281 282/282/282 297/297/297
f 281/281/281 297/297/297 296/296/296
f 282/282/282 283/283/283 298/298/298
f 282/282/282 298/298/298 297/297/297
f 283/283/283 284/284/284 299/299/299
f 283/283/283 299/299/299 298/298/298
f 284/284/284 285/285/285 300/300/300
f 284/284/284 300/300/300 299/299/299
f 285/285/285 286/286/286 301/301/301
f 285/285/285 301/301/301 300/300/300
f 286/286/286 287/287/287 302/302/302
f 286/286/286 302/302/302 301/301/301
f 287/287/287 288/288/288 303/303/303
f 287/287/287 303/303/303 302/302/302
f 288/288/288 289/289/289 304/304/304
f 288/288/288 304/304/304 303/303/303
f 289/289/289 290/290/290 305/305/305
f 289/289/289 305/305/305 304/304/304
f 291/291/291 292/292/292 307/307/307
f 291/291/291 307/307/307 306/306/306
f 292/292/292 293/293/293 308/308/308
f 292/292/292 308/308/308 307/307/307
f 293/293/293 294/294/294 309/309/309
f 293/293/293 309/309/309 308/308/308
f 294/294/294 295/295/295 310/310/310
f 294/294/294 310/310/310 309/309/309
f 295/295/295 296/296/296 311/311/311
f 295/295/295 311/311/311 310/310/310
f 296/296/296 297/297/297 312/312/312
f 296/296/296 312/312/312 311/311/311
f 297/297/297 298/298/298 313/313/313
f 297/297/297 313/313/313 312/312/312
f 298/298/298 299/299/299 314/314/314
f 298/298/298 314/314/314 313/313/313
f 299/299/299 300/300/300 315/315/315
f 299/299/299 315/315/315 314/314/314
f 300/300/300 301/301/301 316/316/316
f 300/300/300 316/316/316 315/315/315
f 301/301/301 302/302/302 317/317/317
f 301/301/301 317/317/317 316/316/316
f 302/302/302 303/303/303 318/318/318
f 302/302/302 318/318/318 317/317/317
f 303/303/303 304/304/304 319/319/319
f 303/303/303 319/319/319 318/318/318
f 304/304/304 305/305/305 320/320/320
f 304/304/304 320/320/320 319/319/319
f 306/306/306 307/307/307 322/322/322
f 306/306/306 322/322/322 321/321/321
f 307/307/307 308/308/308 323/323/323
f 307/307/307 323/323/323 322/322/322
f 308/308/308 309/309/309 324/324/324
f 308/308/308 324/324/324 323/323/323
f 309/309/309 310/310/310 325/325/325
f 309/309/309 325/325/325 324/324/324
f 310/310/310 311/311/311 326/326/326
f 310/310/310 326/326/326 325/325/325
f 311/311/311 312/312/312 327/327/327
f 311/311/311 327/327/327 326/326/326
f 312/312/312 313/313/313 328/328/328
f 312/312/312 328/328/328 327/327/327
f 313/313/313 314/314/314 329/329/329
f 313/313/313 329/329/329 328/328/328
f 314/314/314 315/315/315 330/330/330
f 314/314/314 330/330/330 329/329/329
f 315/315/315 316/316/316 331/331/331
f 315/315/315 331/331/331 330/330/330
f 316/316/316 317/317/317 332/332/332
f 316/316/316 332/332/332 331/331/331
f 317/317/317 318/318/318 333/333/333
f 317/317/317 333/333/333 332/332/332
f 318/318/318 319/319/319 334/334/334
f 318/318/318 334/334/334 333/333/333
f 319/319/319 320/320/320 335/335/335
f 319/319/319 335/335/335 334/334/334
f 321/321/321 322/322/322 337/337/337
f 321/321/321 337/337/337 336/336/336
f 322/322/322 323/323/323 338/338/338
f 322/322/322 338/338/338 337/337/337
f 323/323/323 324/324/324 339/339/339
f 323/323/323 339/339/339 338/338/338
f 324/324/324 325/325/325 340/340/340
f 324/324/324 340/340/340 339/339/339
f 325/325/325 326/326/326 341/341/341
f 325/325/325 341/341/341 340/340/340
f 326/326/326 327/327/327 342/342/342
f 326/326/326 342/342/342 341/341/341
f 327/327/327 328/328/328 343/343/343
f 327/327/327 343/343/343 342/342/342
f 328/328/328 329/329/329 344/344/344
f 328/328/328 344/344/344 343/343/343
f 329/329/329 330/330/330 345/345/345
f 329/329/329 345/345/345 344/344/344
f 330/330/330 331/331/331 346/346/346
f 330/330/330 346/346/346 345/345/345
f 331/331/331 332/332/332 347/347/347
f 331/331/331 347/347/347 346/346/346
f 332/332/332 333/333/333 348/348/348
f 332/332/332 348/348/348 347/347/347
f 333/333/333 334/334/334 349/349/349
f 333/333/333 349/349/349 348/348/348
f 334/334/334 335/335/335 350/350/350
f 334/334/334 350/350/350 349/349/349
f 336/336/336 337/337/337 352/352/352
f 336/336/336 352/352/352 351/351/351
f 337/337/337 338/338/338 353/353/353
f 337/337/337 353/353/353 352/352/352
f 338/338/338 339/339/339 354/354/354
f 338/338/338 354/354/354 353/353/353
f 339/339/339 340/340/340 355/355/355
f 339/339/339 355/355/355 354/354/354
f 340/340/340 341/341/341 356/356/356
f 340/340/340 356/356/356 355/355/355
f 341/341/341 342/342/342 357/357/357
f 341/341/341 357/357/357 356/356/356
f 342/342/342 343/343/343 358/358/358
f 342/342/342 358/358/358 357/357/357
f 343/343/343 344/344/344 359/359/359
f 343/343/343 359/359/359 358/358/358
f 344/344/344 345/345/345 360/360/360
f 344/344/344 360/360/360 359/359/359
f 345/345/345 346/346/346 361/361/361
f 345/345/345 361/361/361 360/360/360
f 346/346/346 347/347/347 362/362/362
f 346/346/346 362/362/362 361/361/361
f 347/347/347 348/348/348 363/363/363
f 347/347/347 363/363/363 362/362/362
f 348/348/348 349/349/349 364/364/364
f 348/348/348 364/364/364 363/363/363
f 349/349/349 350/350/350 365/365/365
f 349/349/349 365/365/365 364/364/364
f 351/351/351 352/352/352 367/367/367
f 351/351/351 367/367/367 366/366/366
f 352/352/352 353/353/353 368/368/368
f 352/352/352 368/368/368 367/367/367
f 353/353/353 354/354/354 369/369/369
f 353/353/353 369/369/369 368/368/368
f 354/354/354 355/355/355 370/370/370
f 354/354/354 370/370/370 369/369/369
f 355/355/355 356/356/356 371/371/371
f 355/355/355 371/371/371 370/370/370
f 356/356/356 357/357/357 372/372/372
f 356/356/356 372/372/372 371/371/371
f 357/357/357 358/358/358 373/373/373
f 357/357/357 373/373/373 372/372/372
f 358/358/358 359/359/359 374/374/374
f 358/358/358 374/374/374 373/373/373
f 359/359/359 360/360/360 375/375/375
f 359/359/359 375/375/375 374/374/374
f 360/360/360 361/361/361 376/376/376
f 360/360/360 376/376/376 375/375/375
f 361/361/361 362/362/362 377/377/377
f 361/361/361 377/377/377 376/376/376
f 362/362/362 363/363/363 378/378/378
f 362/362/362 378/378/378 377/377/377
f 363/363/363 364/364/364 379/379/379
f 363/363/363 379/379/379 378/378/378
f 364/364/364 365/365/365 380/380/380
f 364/364/364 380/380/380 379/379/379
