# Sinh tự động bởi tools/mesh_kit.py - đừng sửa tay
o headlight
v 0.0000 -0.0000 0.0600
v 0.1000 -0.0000 0.0500
v 0.1150 0.0000 0.0000
v 0.1050 0.0000 -0.0120
v 0.0000 -0.0000 0.0600
v 0.0951 -0.0309 0.0500
v 0.1094 -0.0355 -0.0000
v 0.0999 -0.0324 -0.0120
v 0.0000 -0.0000 0.0600
v 0.0809 -0.0588 0.0500
v 0.0930 -0.0676 -0.0000
v 0.0849 -0.0617 -0.0120
v 0.0000 -0.0000 0.0600
v 0.0588 -0.0809 0.0500
v 0.0676 -0.0930 -0.0000
v 0.0617 -0.0849 -0.0120
v 0.0000 -0.0000 0.0600
v 0.0309 -0.0951 0.0500
v 0.0355 -0.1094 -0.0000
v 0.0324 -0.0999 -0.0120
v 0.0000 -0.0000 0.0600
v 0.0000 -0.1000 0.0500
v 0.0000 -0.1150 -0.0000
v 0.0000 -0.1050 -0.0120
v 0.0000 -0.0000 0.0600
v -0.0309 -0.0951 0.0500
v -0.0355 -0.1094 -0.0000
v -0.0324 -0.0999 -0.0120
v 0.0000 -0.0000 0.0600
v -0.0588 -0.0809 0.0500
v -0.0676 -0.0930 -0.0000
v -0.0617 -0.0849 -0.0120
v 0.0000 -0.0000 0.0600
v -0.0809 -0.0588 0.0500
v -0.0930 -0.0676 -0.0000
v -0.0849 -0.0617 -0.0120
v 0.0000 -0.0000 0.0600
v -0.0951 -0.0309 0.0500
v -0.1094 -0.0355 -0.0000
v -0.0999 -0.0324 -0.0120
v 0.0000 -0.0000 0.0600
v -0.1000 -0.0000 0.0500
v -0.1150 -0.0000 -0.0000
v -0.1050 -0.0000 -0.0120
v 0.0000 -0.0000 0.0600
v -0.0951 0.0309 0.0500
v -0.1094 0.0355 0.0000
v -0.0999 0.0324 -0.0120
v 0.0000 -0.0000 0.0600
v -0.0809 0.0588 0.0500
v -0.0930 0.0676 0.0000
v -0.0849 0.0617 -0.0120
v 0.0000 -0.0000 0.0600
v -0.0588 0.0809 0.0500
v -0.0676 0.0930 0.0000
v -0.0617 0.0849 -0.0120
v 0.0000 -0.0000 0.0600
v -0.0309 0.0951 0.0500
v -0.0355 0.1094 0.0000
v -0.0324 0.0999 -0.0120
v 0.0000 -0.0000 0.0600
v -0.0000 0.1000 0.0500
v -0.0000 0.1150 0.0000
v -0.0000 0.1050 -0.0120
v 0.0000 -0.0000 0.0600
v 0.0309 0.0951 0.0500
v 0.0355 0.1094 0.0000
v 0.0324 0.0999 -0.0120
v 0.0000 -0.0000 0.0600
v 0.0588 0.0809 0.0500
v 0.0676 0.0930 0.0000
v 0.0617 0.0849 -0.0120
v 0.0000 -0.0000 0.0600
v 0.0809 0.0588 0.0500
v 0.0930 0.0676 0.0000
v 0.0849 0.0617 -0.0120
v 0.0000 -0.0000 0.0600
v 0.0951 0.0309 0.0500
v 0.1094 0.0355 0.0000
v 0.0999 0.0324 -0.0120
v 0.0000 -0.0000 0.0600
v 0.1000 0.0000 0.0500
v 0.1150 0.0000 0.0000
v 0.1050 0.0000 -0.0120
vt 0.0000 0.0000
vt 0.0000 0.1005
vt 0.0000 0.1527
vt 0.0000 0.1683
vt 0.0361 0.0000
vt 0.0361 0.1005
vt 0.0361 0.1527
vt 0.0361 0.1683
vt 0.0723 0.0000
vt 0.0723 0.1005
vt 0.0723 0.1527
vt 0.0723 0.1683
vt 0.1084 0.0000
vt 0.1084 0.1005
vt 0.1084 0.1527
vt 0.1084 0.1683
vt 0.1445 0.0000
vt 0.1445 0.1005
vt 0.1445 0.1527
vt 0.1445 0.1683
vt 0.1806 0.0000
vt 0.1806 0.1005
vt 0.1806 0.1527
vt 0.1806 0.1683
vt 0.2168 0.0000
vt 0.2168 0.1005
vt 0.2168 0.1527
vt 0.2168 0.1683
vt 0.2529 0.0000
vt 0.2529 0.1005
vt 0.2529 0.1527
vt 0.2529 0.1683
vt 0.2890 0.0000
vt 0.2890 0.1005
vt 0.2890 0.1527
vt 0.2890 0.1683
vt 0.3252 0.0000
vt 0.3252 0.1005
vt 0.3252 0.1527
vt 0.3252 0.1683
vt 0.3613 0.0000
vt 0.3613 0.1005
vt 0.3613 0.1527
vt 0.3613 0.1683
vt 0.3974 0.0000
vt 0.3974 0.1005
vt 0.3974 0.1527
vt 0.3974 0.1683
vt 0.4335 0.0000
vt 0.4335 0.1005
vt 0.4335 0.1527
vt 0.4335 0.1683
vt 0.4697 0.0000
vt 0.4697 0.1005
vt 0.4697 0.1527
vt 0.4697 0.1683
vt 0.5058 0.0000
vt 0.5058 0.1005
vt 0.5058 0.1527
vt 0.5058 0.1683
vt 0.5419 0.0000
vt 0.5419 0.1005
vt 0.5419 0.1527
vt 0.5419 0.1683
vt 0.5781 0.0000
vt 0.5781 0.1005
vt 0.5781 0.1527
vt 0.5781 0.1683
vt 0.6142 0.0000
vt 0.6142 0.1005
vt 0.6142 0.1527
vt 0.6142 0.1683
vt 0.6503 0.0000
vt 0.6503 0.1005
vt 0.6503 0.1527
vt 0.6503 0.1683
vt 0.6864 0.0000
vt 0.6864 0.1005
vt 0.6864 0.1527
vt 0.6864 0.1683
vt 0.7226 0.0000
vt 0.7226 0.1005
vt 0.7226 0.1527
vt 0.7226 0.1683
vn 0.100 -0.000 0.995
vn 0.463 -0.000 0.887
vn 0.997 -0.000 0.080
vn 0.768 0.000 -0.640
vn 0.095 -0.031 0.995
vn 0.440 -0.143 0.887
vn 0.948 -0.308 0.080
vn 0.731 -0.237 -0.640
vn 0.081 -0.058 0.995
vn 0.374 -0.272 0.887
vn 0.806 -0.586 0.080
vn 0.622 -0.452 -0.640
vn 0.058 -0.081 0.995
vn 0.272 -0.374 0.887
vn 0.586 -0.806 0.080
vn 0.452 -0.622 -0.640
vn 0.031 -0.095 0.995
vn 0.143 -0.440 0.887
vn 0.308 -0.948 0.080
vn 0.237 -0.731 -0.640
vn 0.000 -0.100 0.995
vn 0.000 -0.463 0.887
vn 0.000 -0.997 0.080
vn 0.000 -0.768 -0.640
vn -0.031 -0.095 0.995
vn -0.143 -0.440 0.887
vn -0.308 -0.948 0.080
vn -0.237 -0.731 -0.640
vn -0.058 -0.081 0.995
vn -0.272 -0.374 0.887
vn -0.586 -0.806 0.080
vn -0.452 -0.622 -0.640
vn -0.081 -0.058 0.995
vn -0.374 -0.272 0.887
vn -0.806 -0.586 0.080
vn -0.622 -0.452 -0.640
vn -0.095 -0.031 0.995
vn -0.440 -0.143 0.887
vn -0.948 -0.308 0.080
vn -0.731 -0.237 -0.640
vn -0.100 -0.000 0.995
vn -0.463 -0.000 0.887
vn -0.997 -0.000 0.080
vn -0.768 -0.000 -0.640
vn -0.095 0.031 0.995
vn -0.440 0.143 0.887
vn -0.948 0.308 0.080
vn -0.731 0.237 -0.640
vn -0.081 0.058 0.995
vn -0.374 0.272 0.887
vn -0.806 0.586 0.080
vn -0.622 0.452 -0.640
vn -0.058 0.081 0.995
vn -0.272 0.374 0.887
vn -0.586 0.806 0.080
vn -0.452 0.622 -0.640
vn -0.031 0.095 0.995
vn -0.143 0.440 0.887
vn -0.308 0.948 0.080
vn -0.237 0.731 -0.640
vn -0.000 0.100 0.995
vn -0.000 0.463 0.887
vn -0.000 0.997 0.080
vn -0.000 0.768 -0.640
vn 0.031 0.095 0.995
vn 0.143 0.440 0.887
vn 0.308 0.948 0.080
vn 0.237 0.731 -0.640
vn 0.058 0.081 0.995
vn 0.272 0.374 0.887
vn 0.586 0.806 0.080
vn 0.452 0.622 -0.640
vn 0.081 0.058 0.995
vn 0.374 0.272 0.887
vn 0.806 0.586 0.080
vn 0.622 0.452 -0.640
vn 0.095 0.031 0.995
vn 0.440 0.143 0.887
vn 0.948 0.308 0.080
vn 0.731 0.237 -0.640
vn 0.100 -0.000 0.995
vn 0.463 0.000 0.887
vn 0.997 0.000 0.080
vn 0.768 0.000 -0.640
v 0.0000 0.0000 -0.0180
v 0.1000 0.0000 -0.0080
v 0.0000 0.0000 -0.0180
v 0.0951 -0.0309 -0.0080
v 0.0000 0.0000 -0.0180
v 0.0809 -0.0588 -0.0080
v 0.0000 0.0000 -0.0180
v 0.0588 -0.0809 -0.0080
v 0.0000 0.0000 -0.0180
v 0.0309 -0.0951 -0.0080
v 0.0000 0.0000 -0.0180
v 0.0000 -0.1000 -0.0080
v 0.0000 0.0000 -0.0180
v -0.0309 -0.0951 -0.0080
v 0.0000 0.0000 -0.0180
v -0.0588 -0.0809 -0.0080
v 0.0000 0.0000 -0.0180
v -0.0809 -0.0588 -0.0080
v 0.0000 0.0000 -0.0180
v -0.0951 -0.0309 -0.0080
v 0.0000 0.0000 -0.0180
v -0.1000 -0.0000 -0.0080
v 0.0000 0.0000 -0.0180
v -0.0951 0.0309 -0.0080
v 0.0000 0.0000 -0.0180
v -0.0809 0.0588 -0.0080
v 0.0000 0.0000 -0.0180
v -0.0588 0.0809 -0.0080
v 0.0000 0.0000 -0.0180
v -0.0309 0.0951 -0.0080
v 0.0000 0.0000 -0.0180
v -0.0000 0.1000 -0.0080
v 0.0000 0.0000 -0.0180
v 0.0309 0.0951 -0.0080
v 0.0000 0.0000 -0.0180
v 0.0588 0.0809 -0.0080
v 0.0000 0.0000 -0.0180
v 0.0809 0.0588 -0.0080
v 0.0000 0.0000 -0.0180
v 0.0951 0.0309 -0.0080
v 0.0000 0.0000 -0.0180
v 0.1000 0.0000 -0.0080
vt 0.0000 0.0000
vt 0.0000 0.1005
vt 0.0314 0.0000
vt 0.0314 0.1005
vt 0.0628 0.0000
vt 0.0628 0.1005
vt 0.0942 0.0000
vt 0.0942 0.1005
vt 0.1257 0.0000
vt 0.1257 0.1005
vt 0.1571 0.0000
vt 0.1571 0.1005
vt 0.1885 0.0000
vt 0.1885 0.1005
vt 0.2199 0.0000
vt 0.2199 0.1005
vt 0.2513 0.0000
vt 0.2513 0.1005
vt 0.2827 0.0000
vt 0.2827 0.1005
vt 0.3142 0.0000
vt 0.3142 0.1005
vt 0.3456 0.0000
vt 0.3456 0.1005
vt 0.3770 0.0000
vt 0.3770 0.1005
vt 0.4084 0.0000
vt 0.4084 0.1005
vt 0.4398 0.0000
vt 0.4398 0.1005
vt 0.4712 0.0000
vt 0.4712 0.1005
vt 0.5027 0.0000
vt 0.5027 0.1005
vt 0.5341 0.0000
vt 0.5341 0.1005
vt 0.5655 0.0000
vt 0.5655 0.1005
vt 0.5969 0.0000
vt 0.5969 0.1005
vt 0.6283 0.0000
vt 0.6283 0.1005
vn -0.100 -0.000 0.995
vn -0.100 -0.000 0.995
vn -0.095 0.031 0.995
vn -0.095 0.031 0.995
vn -0.081 0.058 0.995
vn -0.081 0.058 0.995
vn -0.058 0.081 0.995
vn -0.058 0.081 0.995
vn -0.031 0.095 0.995
vn -0.031 0.095 0.995
vn -0.000 0.100 0.995
vn -0.000 0.100 0.995
vn 0.031 0.095 0.995
vn 0.031 0.095 0.995
vn 0.058 0.081 0.995
vn 0.058 0.081 0.995
vn 0.081 0.058 0.995
vn 0.081 0.058 0.995
vn 0.095 0.031 0.995
vn 0.095 0.031 0.995
vn 0.100 -0.000 0.995
vn 0.100 -0.000 0.995
vn 0.095 -0.031 0.995
vn 0.095 -0.031 0.995
vn 0.081 -0.058 0.995
vn 0.081 -0.058 0.995
vn 0.058 -0.081 0.995
vn 0.058 -0.081 0.995
vn 0.031 -0.095 0.995
vn 0.031 -0.095 0.995
vn 0.000 -0.100 0.995
vn 0.000 -0.100 0.995
vn -0.031 -0.095 0.995
vn -0.031 -0.095 0.995
vn -0.058 -0.081 0.995
vn -0.058 -0.081 0.995
vn -0.081 -0.058 0.995
vn -0.081 -0.058 0.995
vn -0.095 -0.031 0.995
vn -0.095 -0.031 0.995
vn -0.100 -0.000 0.995
vn -0.100 -0.000 0.995
usemtl chrome
f 1/1/1 5/5/5 6/6/6
f 1/1/1 6/6/6 2/2/2
f 2/2/2 6/6/6 7/7/7
f 2/2/2 7/7/7 3/3/3
f 3/3/3 7/7/7 8/8/8
f 3/3/3 8/8/8 4/4/4
f 5/5/5 9/9/9 10/10/10
f 5/5/5 10/10/10 6/6/6
f 6/6/6 10/10/10 11/11/11
f 6/6/6 11/11/11 7/7/7
f 7/7/7 11/11/11 12/12/12
f 7/7/7 12/12/12 8/8/8
f 9/9/9 13/13/13 14/14/14
f 9/9/9 14/14/14 10/10/10
f 10/10/10 14/14/14 15/15/15
f 10/10/10 15/15/15 11/11/11
f 11/11/11 15/15/15 16/16/16
f 11/11/11 16/16/16 12/12/12
f 13/13/13 17/17/17 18/18/18
f 13/13/13 18/18/18 14/14/14
f 14/14/14 18/18/18 19/19/19
f 14/14/14 19/19/19 15/15/15
f 15/15/15 19/19/19 20/20/20
f 15/15/15 20/20/20 16/16/16
f 17/17/17 21/21/21 22/22/22
f 17/17/17 22/22/22 18/18/18
f 18/18/18 22/22/22 23/23/23
f 18/18/18 23/23/23 19/19/19
f 19/19/19 23/23/23 24/24/24
f 19/19/19 24/24/24 20/20/20
f 21/21/21 25/25/25 26/26/26
f 21/21/21 26/26/26 22/22/22
f 22/22/22 26/26/26 27/27/27
f 22/22/22 27/27/27 23/23/23
f 23/23/23 27/27/27 28/28/28
f 23/23/23 28/28/28 24/24/24
f 25/25/25 29/29/29 30/30/30
f 25/25/25 30/30/30 26/26/26
f 26/26/26 30/30/30 31/31/31
f 26/26/26 31/31/31 27/27/27
f 27/27/27 31/31/31 32/32/32
f 27/27/27 32/32/32 28/28/28
f 29/29/29 33/33/33 34/34/34
f 29/29/29 34/34/34 30/30/30
f 30/30/30 34/34/34 35/35/35
f 30/30/30 35/35/35 31/31/31
f 31/31/31 35/35/35 36/36/36
f 31/31/31 36/36/36 32/32/32
f 33/33/33 37/37/37 38/38/38
f 33/33/33 38/38/38 34/34/34
f 34/34/34 38/38/38 39/39/39
f 34/34/34 39/39/39 35/35/35
f 35/35/35 39/39/39 40/40/40
f 35/35/35 40/40/40 36/36/36
f 37/37/37 41/41/41 42/42/42
f 37/37/37 42/42/42 38/38/38
f 38/38/38 42/42/42 43/43/43
f 38/38/38 43/43/43 39/39/39
f 39/39/39 43/43/43 44/44/44
f 39/39/39 44/44/44 40/40/40
f 41/41/41 45/45/45 46/46/46
f 41/41/41 46/46/46 42/42/42
f 42/42/42 46/46/46 47/47/47
f 42/42/42 47/47/47 43/43/43
f 43/43/43 47/47/47 48/48/48
f 43/43/43 48/48/48 44/44/44
f 45/45/45 49/49/49 50/50/50
f 45/45/45 50/50/50 46/46/46
f 46/46/46 50/50/50 51/51/51
f 46/46/46 51/51/51 47/47/47
f 47/47/47 51/51/51 52/52/52
f 47/47/47 52/52/52 48/48/48
f 49/49/49 53/53/53 54/54/54
f 49/49/49 54/54/54 50/50/50
f 50/50/50 54/54/54 55/55/55
f 50/50/50 55/55/55 51/51/51
f 51/51/51 55/55/55 56/56/56
f 51/51/51 56/56/56 52/52/52
f 53/53/53 57/57/57 58/58/58
f 53/53/53 58/58/58 54/54/54
f 54/54/54 58/58/58 59/59/59
f 54/54/54 59/59/59 55/55/55
f 55/55/55 59/59/59 60/60/60
f 55/55/55 60/60/60 56/56/56
f 57/57/57 61/61/61 62/62/62
f 57/57/57 62/62/62 58/58/58
f 58/58/58 62/62/62 63/63/63
f 58/58/58 63/63/63 59/59/59
f 59/59/59 63/63/63 64/64/64
f 59/59/59 64/64/64 60/60/60
f 61/61/61 65/65/65 66/66/66
f 61/61/61 66/66/66 62/62/62
f 62/62/62 66/66/66 67/67/67
f 62/62/62 67/67/67 63/63/63
f 63/63/63 67/67/67 68/68/68
f 63/63/63 68/68/68 64/64/64
f 65/65/65 69/69/69 70/70/70
f 65/65/65 70/70/70 66/66/66
f 66/66/66 70/70/70 71/71/71
f 66/66/66 71/71/71 67/67/67
f 67/67/67 71/71/71 72/72/72
f 67/67/67 72/72/72 68/68/68
f 69/69/69 73/73/73 74/74/74
f 69/69/69 74/74/74 70/70/70
f 70/70/70 74/74/74 75/75/75
f 70/70/70 75/75/75 71/71/71
f 71/71/71 75/75/75 76/76/76
f 71/71/71 76/76/76 72/72/72
f 73/73/73 77/77/77 78/78/78
f 73/73/73 78/78/78 74/74/74
f 74/74/74 78/78/78 79/79/79
f 74/74/74 79/79/79 75/75/75
f 75/75/75 79/79/79 80/80/80
f 75/75/75 80/80/80 76/76/76
f 77/77/77 81/81/81 82/82/82
f 77/77/77 82/82/82 78/78/78
f 78/78/78 82/82/82 83/83/83
f 78/78/78 83/83/83 79/79/79
f 79/79/79 83/83/83 84/84/84
f 79/79/79 84/84/84 80/80/80
usemtl lens
f 85/85/85 87/87/87 88/88/88
f 85/85/85 88/88/88 86/86/86
f 87/87/87 89/89/89 90/90/90
f 87/87/87 90/90/90 88/88/88
f 89/89/89 91/91/91 92/92/92
f 89/89/89 92/92/92 90/90/90
f 91/91/91 93/93/93 94/94/94
f 91/91/91 94/94/94 92/92/92
f 93/93/93 95/95/95 96/96/96
f 93/93/93 96/96/96 94/94/94
f 95/95/95 97/97/97 98/98/98
f 95/95/95 98/98/98 96/96/96
f 97/97/97 99/99/99 100/100/100
f 97/97/97 100/100/100 98/98/98
f 99/99/99 101/101/101 102/102/102
f 99/99/99 102/102/102 100/100/100
f 101/101/101 103/103/103 104/104/104
f 101/101/101 104/104/104 102/102/102
f 103/103/103 105/105/105 106/106/106
f 103/103/103 106/106/106 104/104/104
f 105/105/105 107/107/107 108/108/108
f 105/105/105 108/108/108 106/106/106
f 107/107/107 109/109/109 110/110/110
f 107/107/107 110/110/110 108/108/108
f 109/109/109 111/111/111 112/112/112
f 109/109/109 112/112/112 110/110/110
f 111/111/111 113/113/113 114/114/114
f 111/111/111 114/114/114 112/112/112
f 113/113/113 115/115/115 116/116/116
f 113/113/113 116/116/116 114/114/114
f 115/115/115 117/117/117 118/118/118
f 115/115/115 118/118/118 116/116/116
f 117/117/117 119/119/119 120/120/120
f 117/117/117 120/120/120 118/118/118
f 119/119/119 121/121/121 122/122/122
f 119/119/119 122/122/122 120/120/120
f 121/121/121 123/123/123 124/124/124
f 121/121/121 124/124/124 122/122/122
f 123/123/123 125/125/125 126/126/126
f 123/123/123 126/126/126 124/124/124
