# Sinh tự động bởi tools/mesh_kit.py - đừng sửa tay
o luggage_box
v 0.1749 -0.0949 0.2049
v 0.1765 -0.0965 0.1980
v 0.1765 -0.0965 -0.1980
v 0.1749 -0.0949 -0.2049
v 0.1765 -0.0880 0.2065
v 0.1800 -0.0880 0.1980
v 0.1800 -0.0880 -0.1980
v 0.1765 -0.0880 -0.2065
v 0.1765 0.0880 0.2065
v 0.1800 0.0880 0.1980
v 0.1800 0.0880 -0.1980
v 0.1765 0.0880 -0.2065
v 0.1749 0.0949 0.2049
v 0.1765 0.0965 0.1980
v 0.1765 0.0965 -0.1980
v 0.1749 0.0949 -0.2049
v -0.1749 -0.0949 -0.2049
v -0.1765 -0.0965 -0.1980
v -0.1765 -0.0965 0.1980
v -0.1749 -0.0949 0.2049
v -0.1765 -0.0880 -0.2065
v -0.1800 -0.0880 -0.1980
v -0.1800 -0.0880 0.1980
v -0.1765 -0.0880 0.2065
v -0.1765 0.0880 -0.2065
v -0.1800 0.0880 -0.1980
v -0.1800 0.0880 0.1980
v -0.1765 0.0880 0.2065
v -0.1749 0.0949 -0.2049
v -0.1765 0.0965 -0.1980
v -0.1765 0.0965 0.1980
v -0.1749 0.0949 0.2049
v -0.1749 0.0949 0.2049
v -0.1680 0.0965 0.2065
v 0.1680 0.0965 0.2065
v 0.1749 0.0949 0.2049
v -0.1765 0.0965 0.1980
v -0.1680 0.1000 0.1980
v 0.1680 0.1000 0.1980
v 0.1765 0.0965 0.1980
v -0.1765 0.0965 -0.1980
v -0.1680 0.1000 -0.1980
v 0.1680 0.1000 -0.1980
v 0.1765 0.0965 -0.1980
v -0.1749 0.0949 -0.2049
v -0.1680 0.0965 -0.2065
v 0.1680 0.0965 -0.2065
v 0.1749 0.0949 -0.2049
v -0.1749 -0.0949 -0.2049
v -0.1680 -0.0965 -0.2065
v 0.1680 -0.0965 -0.2065
v 0.1749 -0.0949 -0.2049
v -0.1765 -0.0965 -0.1980
v -0.1680 -0.1000 -0.1980
v 0.1680 -0.1000 -0.1980
v 0.1765 -0.0965 -0.1980
v -0.1765 -0.0965 0.1980
v -0.1680 -0.1000 0.1980
v 0.1680 -0.1000 0.1980
v 0.1765 -0.0965 0.1980
v -0.1749 -0.0949 0.2049
v -0.1680 -0.0965 0.2065
v 0.1680 -0.0965 0.2065
v 0.1749 -0.0949 0.2049
v -0.1749 -0.0949 0.2049
v -0.1680 -0.0965 0.2065
v 0.1680 -0.0965 0.2065
v 0.1749 -0.0949 0.2049
v -0.1765 -0.0880 0.2065
v -0.1680 -0.0880 0.2100
v 0.1680 -0.0880 0.2100
v 0.1765 -0.0880 0.2065
v -0.1765 0.0880 0.2065
v -0.1680 0.0880 0.2100
v 0.1680 0.0880 0.2100
v 0.1765 0.0880 0.2065
v -0.1749 0.0949 0.2049
v -0.1680 0.0965 0.2065
v 0.1680 0.0965 0.2065
v 0.1749 0.0949 0.2049
v 0.1749 -0.0949 -0.2049
v 0.1680 -0.0965 -0.2065
v -0.1680 -0.0965 -0.2065
v -0.1749 -0.0949 -0.2049
v 0.1765 -0.0880 -0.2065
v 0.1680 -0.0880 -0.2100
v -0.1680 -0.0880 -0.2100
v -0.1765 -0.0880 -0.2065
v 0.1765 0.0880 -0.2065
v 0.1680 0.0880 -0.2100
v -0.1680 0.0880 -0.2100
v -0.1765 0.0880 -0.2065
v 0.1749 0.0949 -0.2049
v 0.1680 0.0965 -0.2065
v -0.1680 0.0965 -0.2065
v -0.1749 0.0949 -0.2049
vt 0.0000 0.0000
vt 0.0120 0.0000
vt 0.4080 0.0000
vt 0.4200 0.0000
vt 0.0000 0.0120
vt 0.0120 0.0120
vt 0.4080 0.0120
vt 0.4200 0.0120
vt 0.0000 0.1880
vt 0.0120 0.1880
vt 0.4080 0.1880
vt 0.4200 0.1880
vt 0.0000 0.2000
vt 0.0120 0.2000
vt 0.4080 0.2000
vt 0.4200 0.2000
vt 0.0000 0.0000
vt 0.0120 0.0000
vt 0.4080 0.0000
vt 0.4200 0.0000
vt 0.0000 0.0120
vt 0.0120 0.0120
vt 0.4080 0.0120
vt 0.4200 0.0120
vt 0.0000 0.1880
vt 0.0120 0.1880
vt 0.4080 0.1880
vt 0.4200 0.1880
vt 0.0000 0.2000
vt 0.0120 0.2000
vt 0.4080 0.2000
vt 0.4200 0.2000
vt 0.0000 0.0000
vt 0.0120 0.0000
vt 0.3480 0.0000
vt 0.3600 0.0000
vt 0.0000 0.0120
vt 0.0120 0.0120
vt 0.3480 0.0120
vt 0.3600 0.0120
vt 0.0000 0.4080
vt 0.0120 0.4080
vt 0.3480 0.4080
vt 0.3600 0.4080
vt 0.0000 0.4200
vt 0.0120 0.4200
vt 0.3480 0.4200
vt 0.3600 0.4200
vt 0.0000 0.0000
vt 0.0120 0.0000
vt 0.3480 0.0000
vt 0.3600 0.0000
vt 0.0000 0.0120
vt 0.0120 0.0120
vt 0.3480 0.0120
vt 0.3600 0.0120
vt 0.0000 0.4080
vt 0.0120 0.4080
vt 0.3480 0.4080
vt 0.3600 0.4080
vt 0.0000 0.4200
vt 0.0120 0.4200
vt 0.3480 0.4200
vt 0.3600 0.4200
vt 0.0000 0.0000
vt 0.0120 0.0000
vt 0.3480 0.0000
vt 0.3600 0.0000
vt 0.0000 0.0120
vt 0.0120 0.0120
vt 0.3480 0.0120
vt 0.3600 0.0120
vt 0.0000 0.1880
vt 0.0120 0.1880
vt 0.3480 0.1880
vt 0.3600 0.1880
vt 0.0000 0.2000
vt 0.0120 0.2000
vt 0.3480 0.2000
vt 0.3600 0.2000
vt 0.0000 0.0000
vt 0.0120 0.0000
vt 0.3480 0.0000
vt 0.3600 0.0000
vt 0.0000 0.0120
vt 0.0120 0.0120
vt 0.3480 0.0120
vt 0.3600 0.0120
vt 0.0000 0.1880
vt 0.0120 0.1880
vt 0.3480 0.1880
vt 0.3600 0.1880
vt 0.0000 0.2000
vt 0.0120 0.2000
vt 0.3480 0.2000
vt 0.3600 0.2000
vn 0.577 -0.577 0.577
vn 0.707 -0.707 0.000
vn 0.707 -0.707 0.000
vn 0.577 -0.577 -0.577
vn 0.707 0.000 0.707
vn 1.000 0.000 0.000
vn 1.000 0.000 0.000
vn 0.707 0.000 -0.707
vn 0.707 0.000 0.707
vn 1.000 0.000 0.000
vn 1.000 0.000 0.000
vn 0.707 0.000 -0.707
vn 0.577 0.577 0.577
vn 0.707 0.707 0.000
vn 0.707 0.707 0.000
vn 0.577 0.577 -0.577
vn -0.577 -0.577 -0.577
vn -0.707 -0.707 0.000
vn -0.707 -0.707 0.000
vn -0.577 -0.577 0.577
vn -0.707 0.000 -0.707
vn -1.000 0.000 0.000
vn -1.000 0.000 0.000
vn -0.707 0.000 0.707
vn -0.707 0.000 -0.707
vn -1.000 0.000 0.000
vn -1.000 0.000 0.000
vn -0.707 0.000 0.707
vn -0.577 0.577 -0.577
vn -0.707 0.707 0.000
vn -0.707 0.707 0.000
vn -0.577 0.577 0.577
vn -0.577 0.577 0.577
vn 0.000 0.707 0.707
vn 0.000 0.707 0.707
vn 0.577 0.577 0.577
vn -0.707 0.707 0.000
vn 0.000 1.000 0.000
vn 0.000 1.000 0.000
vn 0.707 0.707 0.000
vn -0.707 0.707 0.000
vn 0.000 1.000 0.000
vn 0.000 1.000 0.000
vn 0.707 0.707 0.000
vn -0.577 0.577 -0.577
vn 0.000 0.707 -0.707
vn 0.000 0.707 -0.707
vn 0.577 0.577 -0.577
vn -0.577 -0.577 -0.577
vn 0.000 -0.707 -0.707
vn 0.000 -0.707 -0.707
vn 0.577 -0.577 -0.577
vn -0.707 -0.707 0.000
vn 0.000 -1.000 0.000
vn 0.000 -1.000 0.000
vn 0.707 -0.707 0.000
vn -0.707 -0.707 0.000
vn 0.000 -1.000 0.000
vn 0.000 -1.000 0.000
vn 0.707 -0.707 0.000
vn -0.577 -0.577 0.577
vn 0.000 -0.707 0.707
vn 0.000 -0.707 0.707
vn 0.577 -0.577 0.577
vn -0.577 -0.577 0.577
vn 0.000 -0.707 0.707
vn 0.000 -0.707 0.707
vn 0.577 -0.577 0.577
vn -0.707 0.000 0.707
vn 0.000 0.000 1.000
vn 0.000 0.000 1.000
vn 0.707 0.000 0.707
vn -0.707 0.000 0.707
vn 0.000 0.000 1.000
vn 0.000 0.000 1.000
vn 0.707 0.000 0.707
vn -0.577 0.577 0.577
vn 0.000 0.707 0.707
vn 0.000 0.707 0.707
vn 0.577 0.577 0.577
vn 0.577 -0.577 -0.577
vn 0.000 -0.707 -0.707
vn 0.000 -0.707 -0.707
vn -0.577 -0.577 -0.577
vn 0.707 0.000 -0.707
vn 0.000 0.000 -1.000
vn 0.000 0.000 -1.000
vn -0.707 0.000 -0.707
vn 0.707 0.000 -0.707
vn 0.000 0.000 -1.000
vn 0.000 0.000 -1.000
vn -0.707 0.000 -0.707
vn 0.577 0.577 -0.577
vn 0.000 0.707 -0.707
vn 0.000 0.707 -0.707
vn -0.577 0.577 -0.577
v -0.1900 0.1100 -0.1000
v -0.1900 0.1075 -0.0957
v -0.1900 0.1025 -0.0957
v -0.1900 0.1000 -0.1000
v -0.1900 0.1025 -0.1043
v -0.1900 0.1075 -0.1043
v -0.1900 0.1100 -0.1000
v 0.1900 0.1100 -0.1000
v 0.1900 0.1075 -0.0957
v 0.1900 0.1025 -0.0957
v 0.1900 0.1000 -0.1000
v 0.1900 0.1025 -0.1043
v 0.1900 0.1075 -0.1043
v 0.1900 0.1100 -0.1000
v -0.1900 0.1050 -0.1000
v -0.1900 0.1100 -0.1000
v -0.1900 0.1075 -0.0957
v -0.1900 0.1025 -0.0957
v -0.1900 0.1000 -0.1000
v -0.1900 0.1025 -0.1043
v -0.1900 0.1075 -0.1043
v 0.1900 0.1050 -0.1000
v 0.1900 0.1100 -0.1000
v 0.1900 0.1075 -0.0957
v 0.1900 0.1025 -0.0957
v 0.1900 0.1000 -0.1000
v 0.1900 0.1025 -0.1043
v 0.1900 0.1075 -0.1043
v -0.1800 0.1050 -0.1000
v -0.1825 0.1050 -0.0957
v -0.1875 0.1050 -0.0957
v -0.1900 0.1050 -0.1000
v -0.1875 0.1050 -0.1043
v -0.1825 0.1050 -0.1043
v -0.1800 0.1050 -0.1000
v -0.1800 -0.1000 -0.1000
v -0.1825 -0.1000 -0.0957
v -0.1875 -0.1000 -0.0957
v -0.1900 -0.1000 -0.1000
v -0.1875 -0.1000 -0.1043
v -0.1825 -0.1000 -0.1043
v -0.1800 -0.1000 -0.1000
v -0.1850 0.1050 -0.1000
v -0.1800 0.1050 -0.1000
v -0.1825 0.1050 -0.0957
v -0.1875 0.1050 -0.0957
v -0.1900 0.1050 -0.1000
v -0.1875 0.1050 -0.1043
v -0.1825 0.1050 -0.1043
v -0.1850 -0.1000 -0.1000
v -0.1800 -0.1000 -0.1000
v -0.1825 -0.1000 -0.0957
v -0.1875 -0.1000 -0.0957
v -0.1900 -0.1000 -0.1000
v -0.1875 -0.1000 -0.1043
v -0.1825 -0.1000 -0.1043
v 0.1900 0.1050 -0.1000
v 0.1875 0.1050 -0.0957
v 0.1825 0.1050 -0.0957
v 0.1800 0.1050 -0.1000
v 0.1825 0.1050 -0.1043
v 0.1875 0.1050 -0.1043
v 0.1900 0.1050 -0.1000
v 0.1900 -0.1000 -0.1000
v 0.1875 -0.1000 -0.0957
v 0.1825 -0.1000 -0.0957
v 0.1800 -0.1000 -0.1000
v 0.1825 -0.1000 -0.1043
v 0.1875 -0.1000 -0.1043
v 0.1900 -0.1000 -0.1000
v 0.1850 0.1050 -0.1000
v 0.1900 0.1050 -0.1000
v 0.1875 0.1050 -0.0957
v 0.1825 0.1050 -0.0957
v 0.1800 0.1050 -0.1000
v 0.1825 0.1050 -0.1043
v 0.1875 0.1050 -0.1043
v 0.1850 -0.1000 -0.1000
v 0.1900 -0.1000 -0.1000
v 0.1875 -0.1000 -0.0957
v 0.1825 -0.1000 -0.0957
v 0.1800 -0.1000 -0.1000
v 0.1825 -0.1000 -0.1043
v 0.1875 -0.1000 -0.1043
v -0.1900 0.1100 0.1000
v -0.1900 0.1075 0.1043
v -0.1900 0.1025 0.1043
v -0.1900 0.1000 0.1000
v -0.1900 0.1025 0.0957
v -0.1900 0.1075 0.0957
v -0.1900 0.1100 0.1000
v 0.1900 0.1100 0.1000
v 0.1900 0.1075 0.1043
v 0.1900 0.1025 0.1043
v 0.1900 0.1000 0.1000
v 0.1900 0.1025 0.0957
v 0.1900 0.1075 0.0957
v 0.1900 0.1100 0.1000
v -0.1900 0.1050 0.1000
v -0.1900 0.1100 0.1000
v -0.1900 0.1075 0.1043
v -0.1900 0.1025 0.1043
v -0.1900 0.1000 0.1000
v -0.1900 0.1025 0.0957
v -0.1900 0.1075 0.0957
v 0.1900 0.1050 0.1000
v 0.1900 0.1100 0.1000
v 0.1900 0.1075 0.1043
v 0.1900 0.1025 0.1043
v 0.1900 0.1000 0.1000
v 0.1900 0.1025 0.0957
v 0.1900 0.1075 0.0957
v -0.1800 0.1050 0.1000
v -0.1825 0.1050 0.1043
v -0.1875 0.1050 0.1043
v -0.1900 0.1050 0.1000
v -0.1875 0.1050 0.0957
v -0.1825 0.1050 0.0957
v -0.1800 0.1050 0.1000
v -0.1800 -0.1000 0.1000
v -0.1825 -0.1000 0.1043
v -0.1875 -0.1000 0.1043
v -0.1900 -0.1000 0.1000
v -0.1875 -0.1000 0.0957
v -0.1825 -0.1000 0.0957
v -0.1800 -0.1000 0.1000
v -0.1850 0.1050 0.1000
v -0.1800 0.1050 0.1000
v -0.1825 0.1050 0.1043
v -0.1875 0.1050 0.1043
v -0.1900 0.1050 0.1000
v -0.1875 0.1050 0.0957
v -0.1825 0.1050 0.0957
v -0.1850 -0.1000 0.1000
v -0.1800 -0.1000 0.1000
v -0.1825 -0.1000 0.1043
v -0.1875 -0.1000 0.1043
v -0.1900 -0.1000 0.1000
v -0.1875 -0.1000 0.0957
v -0.1825 -0.1000 0.0957
v 0.1900 0.1050 0.1000
v 0.1875 0.1050 0.1043
v 0.1825 0.1050 0.1043
v 0.1800 0.1050 0.1000
v 0.1825 0.1050 0.0957
v 0.1875 0.1050 0.0957
v 0.1900 0.1050 0.1000
v 0.1900 -0.1000 0.1000
v 0.1875 -0.1000 0.1043
v 0.1825 -0.1000 0.1043
v 0.1800 -0.1000 0.1000
v 0.1825 -0.1000 0.0957
v 0.1875 -0.1000 0.0957
v 0.1900 -0.1000 0.1000
v 0.1850 0.1050 0.1000
v 0.1900 0.1050 0.1000
v 0.1875 0.1050 0.1043
v 0.1825 0.1050 0.1043
v 0.1800 0.1050 0.1000
v 0.1825 0.1050 0.0957
v 0.1875 0.1050 0.0957
v 0.1850 -0.1000 0.1000
v 0.1900 -0.1000 0.1000
v 0.1875 -0.1000 0.1043
v 0.1825 -0.1000 0.1043
v 0.1800 -0.1000 0.1000
v 0.1825 -0.1000 0.0957
v 0.1875 -0.1000 0.0957
vt 0.0000 0.0000
vt 0.0000 0.0052
vt 0.0000 0.0105
vt 0.0000 0.0157
vt 0.0000 0.0209
vt 0.0000 0.0262
vt 0.0000 0.0314
vt 0.3800 0.0000
vt 0.3800 0.0052
vt 0.3800 0.0105
vt 0.3800 0.0157
vt 0.3800 0.0209
vt 0.3800 0.0262
vt 0.3800 0.0314
vt 0.0000 0.0000
vt 0.0050 0.0000
vt 0.0025 0.0043
vt -0.0025 0.0043
vt -0.0050 0.0000
vt -0.0025 -0.0043
vt 0.0025 -0.0043
vt 0.0000 0.0000
vt 0.0050 0.0000
vt 0.0025 0.0043
vt -0.0025 0.0043
vt -0.0050 0.0000
vt -0.0025 -0.0043
vt 0.0025 -0.0043
vt 0.0000 0.0000
vt 0.0000 0.0052
vt 0.0000 0.0105
vt 0.0000 0.0157
vt 0.0000 0.0209
vt 0.0000 0.0262
vt 0.0000 0.0314
vt 0.2050 0.0000
vt 0.2050 0.0052
vt 0.2050 0.0105
vt 0.2050 0.0157
vt 0.2050 0.0209
vt 0.2050 0.0262
vt 0.2050 0.0314
vt 0.0000 0.0000
vt 0.0050 0.0000
vt 0.0025 0.0043
vt -0.0025 0.0043
vt -0.0050 0.0000
vt -0.0025 -0.0043
vt 0.0025 -0.0043
vt 0.0000 0.0000
vt 0.0050 0.0000
vt 0.0025 0.0043
vt -0.0025 0.0043
vt -0.0050 0.0000
vt -0.0025 -0.0043
vt 0.0025 -0.0043
vt 0.0000 0.0000
vt 0.0000 0.0052
vt 0.0000 0.0105
vt 0.0000 0.0157
vt 0.0000 0.0209
vt 0.0000 0.0262
vt 0.0000 0.0314
vt 0.2050 0.0000
vt 0.2050 0.0052
vt 0.2050 0.0105
vt 0.2050 0.0157
vt 0.2050 0.0209
vt 0.2050 0.0262
vt 0.2050 0.0314
vt 0.0000 0.0000
vt 0.0050 0.0000
vt 0.0025 0.0043
vt -0.0025 0.0043
vt -0.0050 0.0000
vt -0.0025 -0.0043
vt 0.0025 -0.0043
vt 0.0000 0.0000
vt 0.0050 0.0000
vt 0.0025 0.0043
vt -0.0025 0.0043
vt -0.0050 0.0000
vt -0.0025 -0.0043
vt 0.0025 -0.0043
vt 0.0000 0.0000
vt 0.0000 0.0052
vt 0.0000 0.0105
vt 0.0000 0.0157
vt 0.0000 0.0209
vt 0.0000 0.0262
vt 0.0000 0.0314
vt 0.3800 0.0000
vt 0.3800 0.0052
vt 0.3800 0.0105
vt 0.3800 0.0157
vt 0.3800 0.0209
vt 0.3800 0.0262
vt 0.3800 0.0314
vt 0.0000 0.0000
vt 0.0050 0.0000
vt 0.0025 0.0043
vt -0.0025 0.0043
vt -0.0050 0.0000
vt -0.0025 -0.0043
vt 0.0025 -0.0043
vt 0.0000 0.0000
vt 0.0050 0.0000
vt 0.0025 0.0043
vt -0.0025 0.0043
vt -0.0050 0.0000
vt -0.0025 -0.0043
vt 0.0025 -0.0043
vt 0.0000 0.0000
vt 0.0000 0.0052
vt 0.0000 0.0105
vt 0.0000 0.0157
vt 0.0000 0.0209
vt 0.0000 0.0262
vt 0.0000 0.0314
vt 0.2050 0.0000
vt 0.2050 0.0052
vt 0.2050 0.0105
vt 0.2050 0.0157
vt 0.2050 0.0209
vt 0.2050 0.0262
vt 0.2050 0.0314
vt 0.0000 0.0000
vt 0.0050 0.0000
vt 0.0025 0.0043
vt -0.0025 0.0043
vt -0.0050 0.0000
vt -0.0025 -0.0043
vt 0.0025 -0.0043
vt 0.0000 0.0000
vt 0.0050 0.0000
vt 0.0025 0.0043
vt -0.0025 0.0043
vt -0.0050 0.0000
vt -0.0025 -0.0043
vt 0.0025 -0.0043
vt 0.0000 0.0000
vt 0.0000 0.0052
vt 0.0000 0.0105
vt 0.0000 0.0157
vt 0.0000 0.0209
vt 0.0000 0.0262
vt 0.0000 0.0314
vt 0.2050 0.0000
vt 0.2050 0.0052
vt 0.2050 0.0105
vt 0.2050 0.0157
vt 0.2050 0.0209
vt 0.2050 0.0262
vt 0.2050 0.0314
vt 0.0000 0.0000
vt 0.0050 0.0000
vt 0.0025 0.0043
vt -0.0025 0.0043
vt -0.0050 0.0000
vt -0.0025 -0.0043
vt 0.0025 -0.0043
vt 0.0000 0.0000
vt 0.0050 0.0000
vt 0.0025 0.0043
vt -0.0025 0.0043
vt -0.0050 0.0000
vt -0.0025 -0.0043
vt 0.0025 -0.0043
vn 0.000 1.000 0.000
vn 0.000 0.500 0.866
vn 0.000 -0.500 0.866
vn 0.000 -1.000 0.000
vn -0.000 -0.500 -0.866
vn 0.000 0.500 -0.866
vn 0.000 1.000 -0.000
vn 0.000 1.000 0.000
vn 0.000 0.500 0.866
vn 0.000 -0.500 0.866
vn 0.000 -1.000 0.000
vn -0.000 -0.500 -0.866
vn 0.000 0.500 -0.866
vn 0.000 1.000 -0.000
vn -1.000 -0.000 -0.000
vn -1.000 -0.000 -0.000
vn -1.000 -0.000 -0.000
vn -1.000 -0.000 -0.000
vn -1.000 -0.000 -0.000
vn -1.000 -0.000 -0.000
vn -1.000 -0.000 -0.000
vn 1.000 0.000 0.000
vn 1.000 0.000 0.000
vn 1.000 0.000 0.000
vn 1.000 0.000 0.000
vn 1.000 0.000 0.000
vn 1.000 0.000 0.000
vn 1.000 0.000 0.000
vn 1.000 0.000 0.000
vn 0.500 0.000 0.866
vn -0.500 0.000 0.866
vn -1.000 0.000 0.000
vn -0.500 -0.000 -0.866
vn 0.500 0.000 -0.866
vn 1.000 0.000 -0.000
vn 1.000 0.000 0.000
vn 0.500 0.000 0.866
vn -0.500 0.000 0.866
vn -1.000 0.000 0.000
vn -0.500 -0.000 -0.866
vn 0.500 0.000 -0.866
vn 1.000 0.000 -0.000
vn -0.000 1.000 -0.000
vn -0.000 1.000 -0.000
vn -0.000 1.000 -0.000
vn -0.000 1.000 -0.000
vn -0.000 1.000 -0.000
vn -0.000 1.000 -0.000
vn -0.000 1.000 -0.000
vn 0.000 -1.000 0.000
vn 0.000 -1.000 0.000
vn 0.000 -1.000 0.000
vn 0.000 -1.000 0.000
vn 0.000 -1.000 0.000
vn 0.000 -1.000 0.000
vn 0.000 -1.000 0.000
vn 1.000 0.000 0.000
vn 0.500 0.000 0.866
vn -0.500 0.000 0.866
vn -1.000 0.000 0.000
vn -0.500 -0.000 -0.866
vn 0.500 0.000 -0.866
vn 1.000 0.000 -0.000
vn 1.000 0.000 0.000
vn 0.500 0.000 0.866
vn -0.500 0.000 0.866
vn -1.000 0.000 0.000
vn -0.500 -0.000 -0.866
vn 0.500 0.000 -0.866
vn 1.000 0.000 -0.000
vn -0.000 1.000 -0.000
vn -0.000 1.000 -0.000
vn -0.000 1.000 -0.000
vn -0.000 1.000 -0.000
vn -0.000 1.000 -0.000
vn -0.000 1.000 -0.000
vn -0.000 1.000 -0.000
vn 0.000 -1.000 0.000
vn 0.000 -1.000 0.000
vn 0.000 -1.000 0.000
vn 0.000 -1.000 0.000
vn 0.000 -1.000 0.000
vn 0.000 -1.000 0.000
vn 0.000 -1.000 0.000
vn 0.000 1.000 0.000
vn 0.000 0.500 0.866
vn 0.000 -0.500 0.866
vn 0.000 -1.000 0.000
vn -0.000 -0.500 -0.866
vn 0.000 0.500 -0.866
vn 0.000 1.000 -0.000
vn 0.000 1.000 0.000
vn 0.000 0.500 0.866
vn 0.000 -0.500 0.866
vn 0.000 -1.000 0.000
vn -0.000 -0.500 -0.866
vn 0.000 0.500 -0.866
vn 0.000 1.000 -0.000
vn -1.000 -0.000 -0.000
vn -1.000 -0.000 -0.000
vn -1.000 -0.000 -0.000
vn -1.000 -0.000 -0.000
vn -1.000 -0.000 -0.000
vn -1.000 -0.000 -0.000
vn -1.000 -0.000 -0.000
vn 1.000 0.000 0.000
vn 1.000 0.000 0.000
vn 1.000 0.000 0.000
vn 1.000 0.000 0.000
vn 1.000 0.000 0.000
vn 1.000 0.000 0.000
vn 1.000 0.000 0.000
vn 1.000 0.000 0.000
vn 0.500 0.000 0.866
vn -0.500 0.000 0.866
vn -1.000 0.000 0.000
vn -0.500 -0.000 -0.866
vn 0.500 0.000 -0.866
vn 1.000 0.000 -0.000
vn 1.000 0.000 0.000
vn 0.500 0.000 0.866
vn -0.500 0.000 0.866
vn -1.000 0.000 0.000
vn -0.500 -0.000 -0.866
vn 0.500 0.000 -0.866
vn 1.000 0.000 -0.000
vn -0.000 1.000 -0.000
vn -0.000 1.000 -0.000
vn -0.000 1.000 -0.000
vn -0.000 1.000 -0.000
vn -0.000 1.000 -0.000
vn -0.000 1.000 -0.000
vn -0.000 1.000 -0.000
vn 0.000 -1.000 0.000
vn 0.000 -1.000 0.000
vn 0.000 -1.000 0.000
vn 0.000 -1.000 0.000
vn 0.000 -1.000 0.000
vn 0.000 -1.000 0.000
vn 0.000 -1.000 0.000
vn 1.000 0.000 0.000
vn 0.500 0.000 0.866
vn -0.500 0.000 0.866
vn -1.000 0.000 0.000
vn -0.500 -0.000 -0.866
vn 0.500 0.000 -0.866
vn 1.000 0.000 -0.000
vn 1.000 0.000 0.000
vn 0.500 0.000 0.866
vn -0.500 0.000 0.866
vn -1.000 0.000 0.000
vn -0.500 -0.000 -0.866
vn 0.500 0.000 -0.866
vn 1.000 0.000 -0.000
vn -0.000 1.000 -0.000
vn -0.000 1.000 -0.000
vn -0.000 1.000 -0.000
vn -0.000 1.000 -0.000
vn -0.000 1.000 -0.000
vn -0.000 1.000 -0.000
vn -0.000 1.000 -0.000
vn 0.000 -1.000 0.000
vn 0.000 -1.000 0.000
vn 0.000 -1.000 0.000
vn 0.000 -1.000 0.000
vn 0.000 -1.000 0.000
vn 0.000 -1.000 0.000
vn 0.000 -1.000 0.000
usemtl carton
f 1/1/1 2/2/2 6/6/6
f 1/1/1 6/6/6 5/5/5
f 2/2/2 3/3/3 7/7/7
f 2/2/2 7/7/7 6/6/6
f 3/3/3 4/4/4 8/8/8
f 3/3/3 8/8/8 7/7/7
f 5/5/5 6/6/6 10/10/10
f 5/5/5 10/10/10 9/9/9
f 6/6/6 7/7/7 11/11/11
f 6/6/6 11/11/11 10/10/10
f 7/7/7 8/8/8 12/12/12
f 7/7/7 12/12/12 11/11/11
f 9/9/9 10/10/10 14/14/14
f 9/9/9 14/14/14 13/13/13
f 10/10/10 11/11/11 15/15/15
f 10/10/10 15/15/15 14/14/14
f 11/11/11 12/12/12 16/16/16
f 11/11/11 16/16/16 15/15/15
f 17/17/17 18/18/18 22/22/22
f 17/17/17 22/22/22 21/21/21
f 18/18/18 19/19/19 23/23/23
f 18/18/18 23/23/23 22/22/22
f 19/19/19 20/20/20 24/24/24
f 19/19/19 24/24/24 23/23/23
f 21/21/21 22/22/22 26/26/26
f 21/21/21 26/26/26 25/25/25
f 22/22/22 23/23/23 27/27/27
f 22/22/22 27/27/27 26/26/26
f 23/23/23 24/24/24 28/28/28
f 23/23/23 28/28/28 27/27/27
f 25/25/25 26/26/26 30/30/30
f 25/25/25 30/30/30 29/29/29
f 26/26/26 27/27/27 31/31/31
f 26/26/26 31/31/31 30/30/30
f 27/27/27 28/28/28 32/32/32
f 27/27/27 32/32/32 31/31/31
f 33/33/33 34/34/34 38/38/38
f 33/33/33 38/38/38 37/37/37
f 34/34/34 35/35/35 39/39/39
f 34/34/34 39/39/39 38/38/38
f 35/35/35 36/36/36 40/40/40
f 35/35/35 40/40/40 39/39/39
f 37/37/37 38/38/38 42/42/42
f 37/37/37 42/42/42 41/41/41
f 38/38/38 39/39/39 43/43/43
f 38/38/38 43/43/43 42/42/42
f 39/39/39 40/40/40 44/44/44
f 39/39/39 44/44/44 43/43/43
f 41/41/41 42/42/42 46/46/46
f 41/41/41 46/46/46 45/45/45
f 42/42/42 43/43/43 47/47/47
f 42/42/42 47/47/47 46/46/46
f 43/43/43 44/44/44 48/48/48
f 43/43/43 48/48/48 47/47/47
f 49/49/49 50/50/50 54/54/54
f 49/49/49 54/54/54 53/53/53
f 50/50/50 51/51/51 55/55/55
f 50/50/50 55/55/55 54/54/54
f 51/51/51 52/52/52 56/56/56
f 51/51/51 56/56/56 55/55/55
f 53/53/53 54/54/54 58/58/58
f 53/53/53 58/58/58 57/57/57
f 54/54/54 55/55/55 59/59/59
f 54/54/54 59/59/59 58/58/58
f 55/55/55 56/56/56 60/60/60
f 55/55/55 60/60/60 59/59/59
f 57/57/57 58/58/58 62/62/62
f 57/57/57 62/62/62 61/61/61
f 58/58/58 59/59/59 63/63/63
f 58/58/58 63/63/63 62/62/62
f 59/59/59 60/60/60 64/64/64
f 59/59/59 64/64/64 63/63/63
f 65/65/65 66/66/66 70/70/70
f 65/65/65 70/70/70 69/69/69
f 66/66/66 67/67/67 71/71/71
f 66/66/66 71/71/71 70/70/70
f 67/67/67 68/68/68 72/72/72
f 67/67/67 72/72/72 71/71/71
f 69/69/69 70/70/70 74/74/74
f 69/69/69 74/74/74 73/73/73
f 70/70/70 71/71/71 75/75/75
f 70/70/70 75/75/75 74/74/74
f 71/71/71 72/72/72 76/76/76
f 71/71/71 76/76/76 75/75/75
f 73/73/73 74/74/74 78/78/78
f 73/73/73 78/78/78 77/77/77
f 74/74/74 75/75/75 79/79/79
f 74/74/74 79/79/79 78/78/78
f 75/75/75 76/76/76 80/80/80
f 75/75/75 80/80/80 79/79/79
f 81/81/81 82/82/82 86/86/86
f 81/81/81 86/86/86 85/85/85
f 82/82/82 83/83/83 87/87/87
f 82/82/82 87/87/87 86/86/86
f 83/83/83 84/84/84 88/88/88
f 83/83/83 88/88/88 87/87/87
f 85/85/85 86/86/86 90/90/90
f 85/85/85 90/90/90 89/89/89
f 86/86/86 87/87/87 91/91/91
f 86/86/86 91/91/91 90/90/90
f 87/87/87 88/88/88 92/92/92
f 87/87/87 92/92/92 91/91/91
f 89/89/89 90/90/90 94/94/94
f 89/89/89 94/94/94 93/93/93
f 90/90/90 91/91/91 95/95/95
f 90/90/90 95/95/95 94/94/94
f 91/91/91 92/92/92 96/96/96
f 91/91/91 96/96/96 95/95/95
usemtl rope
f 97/97/97 98/98/98 105/105/105
f 97/97/97 105/105/105 104/104/104
f 98/98/98 99/99/99 106/106/106
f 98/98/98 106/106/106 105/105/105
f 99/99/99 100/100/100 107/107/107
f 99/99/99 107/107/107 106/106/106
f 100/100/100 101/101/101 108/108/108
f 100/100/100 108/108/108 107/107/107
f 101/101/101 102/102/102 109/109/109
f 101/101/101 109/109/109 108/108/108
f 102/102/102 103/103/103 110/110/110
f 102/102/102 110/110/110 109/109/109
f 111/111/111 113/113/113 112/112/112
f 111/111/111 114/114/114 113/113/113
f 111/111/111 115/115/115 114/114/114
f 111/111/111 116/116/116 115/115/115
f 111/111/111 117/117/117 116/116/116
f 111/111/111 112/112/112 117/117/117
f 118/118/118 119/119/119 120/120/120
f 118/118/118 120/120/120 121/121/121
f 118/118/118 121/121/121 122/122/122
f 118/118/118 122/122/122 123/123/123
f 118/118/118 123/123/123 124/124/124
f 118/118/118 124/124/124 119/119/119
f 125/125/125 126/126/126 133/133/133
f 125/125/125 133/133/133 132/132/132
f 126/126/126 127/127/127 134/134/134
f 126/126/126 134/134/134 133/133/133
f 127/127/127 128/128/128 135/135/135
f 127/127/127 135/135/135 134/134/134
f 128/128/128 129/129/129 136/136/136
f 128/128/128 136/136/136 135/135/135
f 129/129/129 130/130/130 137/137/137
f 129/129/129 137/137/137 136/136/136
f 130/130/130 131/131/131 138/138/138
f 130/130/130 138/138/138 137/137/137
f 139/139/139 141/141/141 140/140/140
f 139/139/139 142/142/142 141/141/141
f 139/139/139 143/143/143 142/142/142
f 139/139/139 144/144/144 143/143/143
f 139/139/139 145/145/145 144/144/144
f 139/139/139 140/140/140 145/145/145
f 146/146/146 147/147/147 148/148/148
f 146/146/146 148/148/148 149/149/149
f 146/146/146 149/149/149 150/150/150
f 146/146/146 150/150/150 151/151/151
f 146/146/146 151/151/151 152/152/152
f 146/146/146 152/152/152 147/147/147
f 153/153/153 154/154/154 161/161/161
f 153/153/153 161/161/161 160/160/160
f 154/154/154 155/155/155 162/162/162
f 154/154/154 162/162/162 161/161/161
f 155/155/155 156/156/156 163/163/163
f 155/155/155 163/163/163 162/162/162
f 156/156/156 157/157/157 164/164/164
f 156/156/156 164/164/164 163/163/163
f 157/157/157 158/158/158 165/165/165
f 157/157/157 165/165/165 164/164/164
f 158/158/158 159/159/159 166/166/166
f 158/158/158 166/166/166 165/165/165
f 167/167/167 169/169/169 168/168/168
f 167/167/167 170/170/170 169/169/169
f 167/167/167 171/171/171 170/170/170
f 167/167/167 172/172/172 171/171/171
f 167/167/167 173/173/173 172/172/172
f 167/167/167 168/168/168 173/173/173
f 174/174/174 175/175/175 176/176/176
f 174/174/174 176/176/176 177/177/177
f 174/174/174 177/177/177 178/178/178
f 174/174/174 178/178/178 179/179/179
f 174/174/174 179/179/179 180/180/180
f 174/174/174 180/180/180 175/175/175
f 181/181/181 182/182/182 189/189/189
f 181/181/181 189/189/189 188/188/188
f 182/182/182 183/183/183 190/190/190
f 182/182/182 190/190/190 189/189/189
f 183/183/183 184/184/184 191/191/191
f 183/183/183 191/191/191 190/190/190
f 184/184/184 185/185/185 192/192/192
f 184/184/184 192/192/192 191/191/191
f 185/185/185 186/186/186 193/193/193
f 185/185/185 193/193/193 192/192/192
f 186/186/186 187/187/187 194/194/194
f 186/186/186 194/194/194 193/193/193
f 195/195/195 197/197/197 196/196/196
f 195/195/195 198/198/198 197/197/197
f 195/195/195 199/199/199 198/198/198
f 195/195/195 200/200/200 199/199/199
f 195/195/195 201/201/201 200/200/200
f 195/195/195 196/196/196 201/201/201
f 202/202/202 203/203/203 204/204/204
f 202/202/202 204/204/204 205/205/205
f 202/202/202 205/205/205 206/206/206
f 202/202/202 206/206/206 207/207/207
f 202/202/202 207/207/207 208/208/208
f 202/202/202 208/208/208 203/203/203
f 209/209/209 210/210/210 217/217/217
f 209/209/209 217/217/217 216/216/216
f 210/210/210 211/211/211 218/218/218
f 210/210/210 218/218/218 217/217/217
f 211/211/211 212/212/212 219/219/219
f 211/211/211 219/219/219 218/218/218
f 212/212/212 213/213/213 220/220/220
f 212/212/212 220/220/220 219/219/219
f 213/213/213 214/214/214 221/221/221
f 213/213/213 221/221/221 220/220/220
f 214/214/214 215/215/215 222/222/222
f 214/214/214 222/222/222 221/221/221
f 223/223/223 225/225/225 224/224/224
f 223/223/223 226/226/226 225/225/225
f 223/223/223 227/227/227 226/226/226
f 223/223/223 228/228/228 227/227/227
f 223/223/223 229/229/229 228/228/228
f 223/223/223 224/224/224 229/229/229
f 230/230/230 231/231/231 232/232/232
f 230/230/230 232/232/232 233/233/233
f 230/230/230 233/233/233 234/234/234
f 230/230/230 234/234/234 235/235/235
f 230/230/230 235/235/235 236/236/236
f 230/230/230 236/236/236 231/231/231
f 237/237/237 238/238/238 245/245/245
f 237/237/237 245/245/245 244/244/244
f 238/238/238 239/239/239 246/246/246
f 238/238/238 246/246/246 245/245/245
f 239/239/239 240/240/240 247/247/247
f 239/239/239 247/247/247 246/246/246
f 240/240/240 241/241/241 248/248/248
f 240/240/240 248/248/248 247/247/247
f 241/241/241 242/242/242 249/249/249
f 241/241/241 249/249/249 248/248/248
f 242/242/242 243/243/243 250/250/250
f 242/242/242 250/250/250 249/249/249
f 251/251/251 253/253/253 252/252/252
f 251/251/251 254/254/254 253/253/253
f 251/251/251 255/255/255 254/254/254
f 251/251/251 256/256/256 255/255/255
f 251/251/251 257/257/257 256/256/256
f 251/251/251 252/252/252 257/257/257
f 258/258/258 259/259/259 260/260/260
f 258/258/258 260/260/260 261/261/261
f 258/258/258 261/261/261 262/262/262
f 258/258/258 262/262/262 263/263/263
f 258/258/258 263/263/263 264/264/264
f 258/258/258 264/264/264 259/259/259
