# Sinh tự động bởi tools/mesh_kit.py - đừng sửa tay
o luggage_case
v 0.1952 -0.0652 0.2652
v 0.1961 -0.0661 0.2633
v 0.1983 -0.0683 0.2567
v 0.1997 -0.0697 0.2450
v 0.1997 -0.0697 -0.2450
v 0.1983 -0.0683 -0.2567
v 0.1961 -0.0661 -0.2633
v 0.1952 -0.0652 -0.2652
v 0.1961 -0.0633 0.2661
v 0.1971 -0.0642 0.2642
v 0.1997 -0.0664 0.2574
v 0.2015 -0.0679 0.2450
v 0.2015 -0.0679 -0.2450
v 0.1997 -0.0664 -0.2574
v 0.1971 -0.0642 -0.2642
v 0.1961 -0.0633 -0.2661
v 0.1983 -0.0567 0.2683
v 0.1997 -0.0574 0.2664
v 0.2036 -0.0593 0.2593
v 0.2063 -0.0607 0.2450
v 0.2063 -0.0607 -0.2450
v 0.2036 -0.0593 -0.2593
v 0.1997 -0.0574 -0.2664
v 0.1983 -0.0567 -0.2683
v 0.1997 -0.0450 0.2697
v 0.2015 -0.0450 0.2679
v 0.2063 -0.0450 0.2607
v 0.2100 -0.0450 0.2450
v 0.2100 -0.0450 -0.2450
v 0.2063 -0.0450 -0.2607
v 0.2015 -0.0450 -0.2679
v 0.1997 -0.0450 -0.2697
v 0.1997 0.0450 0.2697
v 0.2015 0.0450 0.2679
v 0.2063 0.0450 0.2607
v 0.2100 0.0450 0.2450
v 0.2100 0.0450 -0.2450
v 0.2063 0.0450 -0.2607
v 0.2015 0.0450 -0.2679
v 0.1997 0.0450 -0.2697
v 0.1983 0.0567 0.2683
v 0.1997 0.0574 0.2664
v 0.2036 0.0593 0.2593
v 0.2063 0.0607 0.2450
v 0.2063 0.0607 -0.2450
v 0.2036 0.0593 -0.2593
v 0.1997 0.0574 -0.2664
v 0.1983 0.0567 -0.2683
v 0.1961 0.0633 0.2661
v 0.1971 0.0642 0.2642
v 0.1997 0.0664 0.2574
v 0.2015 0.0679 0.2450
v 0.2015 0.0679 -0.2450
v 0.1997 0.0664 -0.2574
v 0.1971 0.0642 -0.2642
v 0.1961 0.0633 -0.2661
v 0.1952 0.0652 0.2652
v 0.1961 0.0661 0.2633
v 0.1983 0.0683 0.2567
v 0.1997 0.0697 0.2450
v 0.1997 0.0697 -0.2450
v 0.1983 0.0683 -0.2567
v 0.1961 0.0661 -0.2633
v 0.1952 0.0652 -0.2652
v -0.1952 -0.0652 -0.2652
v -0.1961 -0.0661 -0.2633
v -0.1983 -0.0683 -0.2567
v -0.1997 -0.0697 -0.2450
v -0.1997 -0.0697 0.2450
v -0.1983 -0.0683 0.2567
v -0.1961 -0.0661 0.2633
v -0.1952 -0.0652 0.2652
v -0.1961 -0.0633 -0.2661
v -0.1971 -0.0642 -0.2642
v -0.1997 -0.0664 -0.2574
v -0.2015 -0.0679 -0.2450
v -0.2015 -0.0679 0.2450
v -0.1997 -0.0664 0.2574
v -0.1971 -0.0642 0.2642
v -0.1961 -0.0633 0.2661
v -0.1983 -0.0567 -0.2683
v -0.1997 -0.0574 -0.2664
v -0.2036 -0.0593 -0.2593
v -0.2063 -0.0607 -0.2450
v -0.2063 -0.0607 0.2450
v -0.2036 -0.0593 0.2593
v -0.1997 -0.0574 0.2664
v -0.1983 -0.0567 0.2683
v -0.1997 -0.0450 -0.2697
v -0.2015 -0.0450 -0.2679
v -0.2063 -0.0450 -0.2607
v -0.2100 -0.0450 -0.2450
v -0.2100 -0.0450 0.2450
v -0.2063 -0.0450 0.2607
v -0.2015 -0.0450 0.2679
v -0.1997 -0.0450 0.2697
v -0.1997 0.0450 -0.2697
v -0.2015 0.0450 -0.2679
v -0.2063 0.0450 -0.2607
v -0.2100 0.0450 -0.2450
v -0.2100 0.0450 0.2450
v -0.2063 0.0450 0.2607
v -0.2015 0.0450 0.2679
v -0.1997 0.0450 0.2697
v -0.1983 0.0567 -0.2683
v -0.1997 0.0574 -0.2664
v -0.2036 0.0593 -0.2593
v -0.2063 0.0607 -0.2450
v -0.2063 0.0607 0.2450
v -0.2036 0.0593 0.2593
v -0.1997 0.0574 0.2664
v -0.1983 0.0567 0.2683
v -0.1961 0.0633 -0.2661
v -0.1971 0.0642 -0.2642
v -0.1997 0.0664 -0.2574
v -0.2015 0.0679 -0.2450
v -0.2015 0.0679 0.2450
v -0.1997 0.0664 0.2574
v -0.1971 0.0642 0.2642
v -0.1961 0.0633 0.2661
v -0.1952 0.0652 -0.2652
v -0.1961 0.0661 -0.2633
v -0.1983 0.0683 -0.2567
v -0.1997 0.0697 -0.2450
v -0.1997 0.0697 0.2450
v -0.1983 0.0683 0.2567
v -0.1961 0.0661 0.2633
v -0.1952 0.0652 0.2652
v -0.1952 0.0652 0.2652
v -0.1933 0.0661 0.2661
v -0.1867 0.0683 0.2683
v -0.1750 0.0697 0.2697
v 0.1750 0.0697 0.2697
v 0.1867 0.0683 0.2683
v 0.1933 0.0661 0.2661
v 0.1952 0.0652 0.2652
v -0.1961 0.0661 0.2633
v -0.1942 0.0671 0.2642
v -0.1874 0.0697 0.2664
v -0.1750 0.0715 0.2679
v 0.1750 0.0715 0.2679
v 0.1874 0.0697 0.2664
v 0.1942 0.0671 0.2642
v 0.1961 0.0661 0.2633
v -0.1983 0.0683 0.2567
v -0.1964 0.0697 0.2574
v -0.1893 0.0736 0.2593
v -0.1750 0.0763 0.2607
v 0.1750 0.0763 0.2607
v 0.1893 0.0736 0.2593
v 0.1964 0.0697 0.2574
v 0.1983 0.0683 0.2567
v -0.1997 0.0697 0.2450
v -0.1979 0.0715 0.2450
v -0.1907 0.0763 0.2450
v -0.1750 0.0800 0.2450
v 0.1750 0.0800 0.2450
v 0.1907 0.0763 0.2450
v 0.1979 0.0715 0.2450
v 0.1997 0.0697 0.2450
v -0.1997 0.0697 -0.2450
v -0.1979 0.0715 -0.2450
v -0.1907 0.0763 -0.2450
v -0.1750 0.0800 -0.2450
v 0.1750 0.0800 -0.2450
v 0.1907 0.0763 -0.2450
v 0.1979 0.0715 -0.2450
v 0.1997 0.0697 -0.2450
v -0.1983 0.0683 -0.2567
v -0.1964 0.0697 -0.2574
v -0.1893 0.0736 -0.2593
v -0.1750 0.0763 -0.2607
v 0.1750 0.0763 -0.2607
v 0.1893 0.0736 -0.2593
v 0.1964 0.0697 -0.2574
v 0.1983 0.0683 -0.2567
v -0.1961 0.0661 -0.2633
v -0.1942 0.0671 -0.2642
v -0.1874 0.0697 -0.2664
v -0.1750 0.0715 -0.2679
v 0.1750 0.0715 -0.2679
v 0.1874 0.0697 -0.2664
v 0.1942 0.0671 -0.2642
v 0.1961 0.0661 -0.2633
v -0.1952 0.0652 -0.2652
v -0.1933 0.0661 -0.2661
v -0.1867 0.0683 -0.2683
v -0.1750 0.0697 -0.2697
v 0.1750 0.0697 -0.2697
v 0.1867 0.0683 -0.2683
v 0.1933 0.0661 -0.2661
v 0.1952 0.0652 -0.2652
v -0.1952 -0.0652 -0.2652
v -0.1933 -0.0661 -0.2661
v -0.1867 -0.0683 -0.2683
v -0.1750 -0.0697 -0.2697
v 0.1750 -0.0697 -0.2697
v 0.1867 -0.0683 -0.2683
v 0.1933 -0.0661 -0.2661
v 0.1952 -0.0652 -0.2652
v -0.1961 -0.0661 -0.2633
v -0.1942 -0.0671 -0.2642
v -0.1874 -0.0697 -0.2664
v -0.1750 -0.0715 -0.2679
v 0.1750 -0.0715 -0.2679
v 0.1874 -0.0697 -0.2664
v 0.1942 -0.0671 -0.2642
v 0.1961 -0.0661 -0.2633
v -0.1983 -0.0683 -0.2567
v -0.1964 -0.0697 -0.2574
v -0.1893 -0.0736 -0.2593
v -0.1750 -0.0763 -0.2607
v 0.1750 -0.0763 -0.2607
v 0.1893 -0.0736 -0.2593
v 0.1964 -0.0697 -0.2574
v 0.1983 -0.0683 -0.2567
v -0.1997 -0.0697 -0.2450
v -0.1979 -0.0715 -0.2450
v -0.1907 -0.0763 -0.2450
v -0.1750 -0.0800 -0.2450
v 0.1750 -0.0800 -0.2450
v 0.1907 -0.0763 -0.2450
v 0.1979 -0.0715 -0.2450
v 0.1997 -0.0697 -0.2450
v -0.1997 -0.0697 0.2450
v -0.1979 -0.0715 0.2450
v -0.1907 -0.0763 0.2450
v -0.1750 -0.0800 0.2450
v 0.1750 -0.0800 0.2450
v 0.1907 -0.0763 0.2450
v 0.1979 -0.0715 0.2450
v 0.1997 -0.0697 0.2450
v -0.1983 -0.0683 0.2567
v -0.1964 -0.0697 0.2574
v -0.1893 -0.0736 0.2593
v -0.1750 -0.0763 0.2607
v 0.1750 -0.0763 0.2607
v 0.1893 -0.0736 0.2593
v 0.1964 -0.0697 0.2574
v 0.1983 -0.0683 0.2567
v -0.1961 -0.0661 0.2633
v -0.1942 -0.0671 0.2642
v -0.1874 -0.0697 0.2664
v -0.1750 -0.0715 0.2679
v 0.1750 -0.0715 0.2679
v 0.1874 -0.0697 0.2664
v 0.1942 -0.0671 0.2642
v 0.1961 -0.0661 0.2633
v -0.1952 -0.0652 0.2652
v -0.1933 -0.0661 0.2661
v -0.1867 -0.0683 0.2683
v -0.1750 -0.0697 0.2697
v 0.1750 -0.0697 0.2697
v 0.1867 -0.0683 0.2683
v 0.1933 -0.0661 0.2661
v 0.1952 -0.0652 0.2652
v -0.1952 -0.0652 0.2652
v -0.1933 -0.0661 0.2661
v -0.1867 -0.0683 0.2683
v -0.1750 -0.0697 0.2697
v 0.1750 -0.0697 0.2697
v 0.1867 -0.0683 0.2683
v 0.1933 -0.0661 0.2661
v 0.1952 -0.0652 0.2652
v -0.1961 -0.0633 0.2661
v -0.1942 -0.0642 0.2671
v -0.1874 -0.0664 0.2697
v -0.1750 -0.0679 0.2715
v 0.1750 -0.0679 0.2715
v 0.1874 -0.0664 0.2697
v 0.1942 -0.0642 0.2671
v 0.1961 -0.0633 0.2661
v -0.1983 -0.0567 0.2683
v -0.1964 -0.0574 0.2697
v -0.1893 -0.0593 0.2736
v -0.1750 -0.0607 0.2763
v 0.1750 -0.0607 0.2763
v 0.1893 -0.0593 0.2736
v 0.1964 -0.0574 0.2697
v 0.1983 -0.0567 0.2683
v -0.1997 -0.0450 0.2697
v -0.1979 -0.0450 0.2715
v -0.1907 -0.0450 0.2763
v -0.1750 -0.0450 0.2800
v 0.1750 -0.0450 0.2800
v 0.1907 -0.0450 0.2763
v 0.1979 -0.0450 0.2715
v 0.1997 -0.0450 0.2697
v -0.1997 0.0450 0.2697
v -0.1979 0.0450 0.2715
v -0.1907 0.0450 0.2763
v -0.1750 0.0450 0.2800
v 0.1750 0.0450 0.2800
v 0.1907 0.0450 0.2763
v 0.1979 0.0450 0.2715
v 0.1997 0.0450 0.2697
v -0.1983 0.0567 0.2683
v -0.1964 0.0574 0.2697
v -0.1893 0.0593 0.2736
v -0.1750 0.0607 0.2763
v 0.1750 0.0607 0.2763
v 0.1893 0.0593 0.2736
v 0.1964 0.0574 0.2697
v 0.1983 0.0567 0.2683
v -0.1961 0.0633 0.2661
v -0.1942 0.0642 0.2671
v -0.1874 0.0664 0.2697
v -0.1750 0.0679 0.2715
v 0.1750 0.0679 0.2715
v 0.1874 0.0664 0.2697
v 0.1942 0.0642 0.2671
v 0.1961 0.0633 0.2661
v -0.1952 0.0652 0.2652
v -0.1933 0.0661 0.2661
v -0.1867 0.0683 0.2683
v -0.1750 0.0697 0.2697
v 0.1750 0.0697 0.2697
v 0.1867 0.0683 0.2683
v 0.1933 0.0661 0.2661
v 0.1952 0.0652 0.2652
v 0.1952 -0.0652 -0.2652
v 0.1933 -0.0661 -0.2661
v 0.1867 -0.0683 -0.2683
v 0.1750 -0.0697 -0.2697
v -0.1750 -0.0697 -0.2697
v -0.1867 -0.0683 -0.2683
v -0.1933 -0.0661 -0.2661
v -0.1952 -0.0652 -0.2652
v 0.1961 -0.0633 -0.2661
v 0.1942 -0.0642 -0.2671
v 0.1874 -0.0664 -0.2697
v 0.1750 -0.0679 -0.2715
v -0.1750 -0.0679 -0.2715
v -0.1874 -0.0664 -0.2697
v -0.1942 -0.0642 -0.2671
v -0.1961 -0.0633 -0.2661
v 0.1983 -0.0567 -0.2683
v 0.1964 -0.0574 -0.2697
v 0.1893 -0.0593 -0.2736
v 0.1750 -0.0607 -0.2763
v -0.1750 -0.0607 -0.2763
v -0.1893 -0.0593 -0.2736
v -0.1964 -0.0574 -0.2697
v -0.1983 -0.0567 -0.2683
v 0.1997 -0.0450 -0.2697
v 0.1979 -0.0450 -0.2715
v 0.1907 -0.0450 -0.2763
v 0.1750 -0.0450 -0.2800
v -0.1750 -0.0450 -0.2800
v -0.1907 -0.0450 -0.2763
v -0.1979 -0.0450 -0.2715
v -0.1997 -0.0450 -0.2697
v 0.1997 0.0450 -0.2697
v 0.1979 0.0450 -0.2715
v 0.1907 0.0450 -0.2763
v 0.1750 0.0450 -0.2800
v -0.1750 0.0450 -0.2800
v -0.1907 0.0450 -0.2763
v -0.1979 0.0450 -0.2715
v -0.1997 0.0450 -0.2697
v 0.1983 0.0567 -0.2683
v 0.1964 0.0574 -0.2697
v 0.1893 0.0593 -0.2736
v 0.1750 0.0607 -0.2763
v -0.1750 0.0607 -0.2763
v -0.1893 0.0593 -0.2736
v -0.1964 0.0574 -0.2697
v -0.1983 0.0567 -0.2683
v 0.1961 0.0633 -0.2661
v 0.1942 0.0642 -0.2671
v 0.1874 0.0664 -0.2697
v 0.1750 0.0679 -0.2715
v -0.1750 0.0679 -0.2715
v -0.1874 0.0664 -0.2697
v -0.1942 0.0642 -0.2671
v -0.1961 0.0633 -0.2661
v 0.1952 0.0652 -0.2652
v 0.1933 0.0661 -0.2661
v 0.1867 0.0683 -0.2683
v 0.1750 0.0697 -0.2697
v -0.1750 0.0697 -0.2697
v -0.1867 0.0683 -0.2683
v -0.1933 0.0661 -0.2661
v -0.1952 0.0652 -0.2652
vt 0.0000 0.0000
vt 0.0047 0.0000
vt 0.0175 0.0000
vt 0.0350 0.0000
vt 0.5250 0.0000
vt 0.5425 0.0000
vt 0.5553 0.0000
vt 0.5600 0.0000
vt 0.0000 0.0047
vt 0.0047 0.0047
vt 0.0175 0.0047
vt 0.0350 0.0047
vt 0.5250 0.0047
vt 0.5425 0.0047
vt 0.5553 0.0047
vt 0.5600 0.0047
vt 0.0000 0.0175
vt 0.0047 0.0175
vt 0.0175 0.0175
vt 0.0350 0.0175
vt 0.5250 0.0175
vt 0.5425 0.0175
vt 0.5553 0.0175
vt 0.5600 0.0175
vt 0.0000 0.0350
vt 0.0047 0.0350
vt 0.0175 0.0350
vt 0.0350 0.0350
vt 0.5250 0.0350
vt 0.5425 0.0350
vt 0.5553 0.0350
vt 0.5600 0.0350
vt 0.0000 0.1250
vt 0.0047 0.1250
vt 0.0175 0.1250
vt 0.0350 0.1250
vt 0.5250 0.1250
vt 0.5425 0.1250
vt 0.5553 0.1250
vt 0.5600 0.1250
vt 0.0000 0.1425
vt 0.0047 0.1425
vt 0.0175 0.1425
vt 0.0350 0.1425
vt 0.5250 0.1425
vt 0.5425 0.1425
vt 0.5553 0.1425
vt 0.5600 0.1425
vt 0.0000 0.1553
vt 0.0047 0.1553
vt 0.0175 0.1553
vt 0.0350 0.1553
vt 0.5250 0.1553
vt 0.5425 0.1553
vt 0.5553 0.1553
vt 0.5600 0.1553
vt 0.0000 0.1600
vt 0.0047 0.1600
vt 0.0175 0.1600
vt 0.0350 0.1600
vt 0.5250 0.1600
vt 0.5425 0.1600
vt 0.5553 0.1600
vt 0.5600 0.1600
vt 0.0000 0.0000
vt 0.0047 0.0000
vt 0.0175 0.0000
vt 0.0350 0.0000
vt 0.5250 0.0000
vt 0.5425 0.0000
vt 0.5553 0.0000
vt 0.5600 0.0000
vt 0.0000 0.0047
vt 0.0047 0.0047
vt 0.0175 0.0047
vt 0.0350 0.0047
vt 0.5250 0.0047
vt 0.5425 0.0047
vt 0.5553 0.0047
vt 0.5600 0.0047
vt 0.0000 0.0175
vt 0.0047 0.0175
vt 0.0175 0.0175
vt 0.0350 0.0175
vt 0.5250 0.0175
vt 0.5425 0.0175
vt 0.5553 0.0175
vt 0.5600 0.0175
vt 0.0000 0.0350
vt 0.0047 0.0350
vt 0.0175 0.0350
vt 0.0350 0.0350
vt 0.5250 0.0350
vt 0.5425 0.0350
vt 0.5553 0.0350
vt 0.5600 0.0350
vt 0.0000 0.1250
vt 0.0047 0.1250
vt 0.0175 0.1250
vt 0.0350 0.1250
vt 0.5250 0.1250
vt 0.5425 0.1250
vt 0.5553 0.1250
vt 0.5600 0.1250
vt 0.0000 0.1425
vt 0.0047 0.1425
vt 0.0175 0.1425
vt 0.0350 0.1425
vt 0.5250 0.1425
vt 0.5425 0.1425
vt 0.5553 0.1425
vt 0.5600 0.1425
vt 0.0000 0.1553
vt 0.0047 0.1553
vt 0.0175 0.1553
vt 0.0350 0.1553
vt 0.5250 0.1553
vt 0.5425 0.1553
vt 0.5553 0.1553
vt 0.5600 0.1553
vt 0.0000 0.1600
vt 0.0047 0.1600
vt 0.0175 0.1600
vt 0.0350 0.1600
vt 0.5250 0.1600
vt 0.5425 0.1600
vt 0.5553 0.1600
vt 0.5600 0.1600
vt 0.0000 0.0000
vt 0.0047 0.0000
vt 0.0175 0.0000
vt 0.0350 0.0000
vt 0.3850 0.0000
vt 0.4025 0.0000
vt 0.4153 0.0000
vt 0.4200 0.0000
vt 0.0000 0.0047
vt 0.0047 0.0047
vt 0.0175 0.0047
vt 0.0350 0.0047
vt 0.3850 0.0047
vt 0.4025 0.0047
vt 0.4153 0.0047
vt 0.4200 0.0047
vt 0.0000 0.0175
vt 0.0047 0.0175
vt 0.0175 0.0175
vt 0.0350 0.0175
vt 0.3850 0.0175
vt 0.4025 0.0175
vt 0.4153 0.0175
vt 0.4200 0.0175
vt 0.0000 0.0350
vt 0.0047 0.0350
vt 0.0175 0.0350
vt 0.0350 0.0350
vt 0.3850 0.0350
vt 0.4025 0.0350
vt 0.4153 0.0350
vt 0.4200 0.0350
vt 0.0000 0.5250
vt 0.0047 0.5250
vt 0.0175 0.5250
vt 0.0350 0.5250
vt 0.3850 0.5250
vt 0.4025 0.5250
vt 0.4153 0.5250
vt 0.4200 0.5250
vt 0.0000 0.5425
vt 0.0047 0.5425
vt 0.0175 0.5425
vt 0.0350 0.5425
vt 0.3850 0.5425
vt 0.4025 0.5425
vt 0.4153 0.5425
vt 0.4200 0.5425
vt 0.0000 0.5553
vt 0.0047 0.5553
vt 0.0175 0.5553
vt 0.0350 0.5553
vt 0.3850 0.5553
vt 0.4025 0.5553
vt 0.4153 0.5553
vt 0.4200 0.5553
vt 0.0000 0.5600
vt 0.0047 0.5600
vt 0.0175 0.5600
vt 0.0350 0.5600
vt 0.3850 0.5600
vt 0.4025 0.5600
vt 0.4153 0.5600
vt 0.4200 0.5600
vt 0.0000 0.0000
vt 0.0047 0.0000
vt 0.0175 0.0000
vt 0.0350 0.0000
vt 0.3850 0.0000
vt 0.4025 0.0000
vt 0.4153 0.0000
vt 0.4200 0.0000
vt 0.0000 0.0047
vt 0.0047 0.0047
vt 0.0175 0.0047
vt 0.0350 0.0047
vt 0.3850 0.0047
vt 0.4025 0.0047
vt 0.4153 0.0047
vt 0.4200 0.0047
vt 0.0000 0.0175
vt 0.0047 0.0175
vt 0.0175 0.0175
vt 0.0350 0.0175
vt 0.3850 0.0175
vt 0.4025 0.0175
vt 0.4153 0.0175
vt 0.4200 0.0175
vt 0.0000 0.0350
vt 0.0047 0.0350
vt 0.0175 0.0350
vt 0.0350 0.0350
vt 0.3850 0.0350
vt 0.4025 0.0350
vt 0.4153 0.0350
vt 0.4200 0.0350
vt 0.0000 0.5250
vt 0.0047 0.5250
vt 0.0175 0.5250
vt 0.0350 0.5250
vt 0.3850 0.5250
vt 0.4025 0.5250
vt 0.4153 0.5250
vt 0.4200 0.5250
vt 0.0000 0.5425
vt 0.0047 0.5425
vt 0.0175 0.5425
vt 0.0350 0.5425
vt 0.3850 0.5425
vt 0.4025 0.5425
vt 0.4153 0.5425
vt 0.4200 0.5425
vt 0.0000 0.5553
vt 0.0047 0.5553
vt 0.0175 0.5553
vt 0.0350 0.5553
vt 0.3850 0.5553
vt 0.4025 0.5553
vt 0.4153 0.5553
vt 0.4200 0.5553
vt 0.0000 0.5600
vt 0.0047 0.5600
vt 0.0175 0.5600
vt 0.0350 0.5600
vt 0.3850 0.5600
vt 0.4025 0.5600
vt 0.4153 0.5600
vt 0.4200 0.5600
vt 0.0000 0.0000
vt 0.0047 0.0000
vt 0.0175 0.0000
vt 0.0350 0.0000
vt 0.3850 0.0000
vt 0.4025 0.0000
vt 0.4153 0.0000
vt 0.4200 0.0000
vt 0.0000 0.0047
vt 0.0047 0.0047
vt 0.0175 0.0047
vt 0.0350 0.0047
vt 0.3850 0.0047
vt 0.4025 0.0047
vt 0.4153 0.0047
vt 0.4200 0.0047
vt 0.0000 0.0175
vt 0.0047 0.0175
vt 0.0175 0.0175
vt 0.0350 0.0175
vt 0.3850 0.0175
vt 0.4025 0.0175
vt 0.4153 0.0175
vt 0.4200 0.0175
vt 0.0000 0.0350
vt 0.0047 0.0350
vt 0.0175 0.0350
vt 0.0350 0.0350
vt 0.3850 0.0350
vt 0.4025 0.0350
vt 0.4153 0.0350
vt 0.4200 0.0350
vt 0.0000 0.1250
vt 0.0047 0.1250
vt 0.0175 0.1250
vt 0.0350 0.1250
vt 0.3850 0.1250
vt 0.4025 0.1250
vt 0.4153 0.1250
vt 0.4200 0.1250
vt 0.0000 0.1425
vt 0.0047 0.1425
vt 0.0175 0.1425
vt 0.0350 0.1425
vt 0.3850 0.1425
vt 0.4025 0.1425
vt 0.4153 0.1425
vt 0.4200 0.1425
vt 0.0000 0.1553
vt 0.0047 0.1553
vt 0.0175 0.1553
vt 0.0350 0.1553
vt 0.3850 0.1553
vt 0.4025 0.1553
vt 0.4153 0.1553
vt 0.4200 0.1553
vt 0.0000 0.1600
vt 0.0047 0.1600
vt 0.0175 0.1600
vt 0.0350 0.1600
vt 0.3850 0.1600
vt 0.4025 0.1600
vt 0.4153 0.1600
vt 0.4200 0.1600
vt 0.0000 0.0000
vt 0.0047 0.0000
vt 0.0175 0.0000
vt 0.0350 0.0000
vt 0.3850 0.0000
vt 0.4025 0.0000
vt 0.4153 0.0000
vt 0.4200 0.0000
vt 0.0000 0.0047
vt 0.0047 0.0047
vt 0.0175 0.0047
vt 0.0350 0.0047
vt 0.3850 0.0047
vt 0.4025 0.0047
vt 0.4153 0.0047
vt 0.4200 0.0047
vt 0.0000 0.0175
vt 0.0047 0.0175
vt 0.0175 0.0175
vt 0.0350 0.0175
vt 0.3850 0.0175
vt 0.4025 0.0175
vt 0.4153 0.0175
vt 0.4200 0.0175
vt 0.0000 0.0350
vt 0.0047 0.0350
vt 0.0175 0.0350
vt 0.0350 0.0350
vt 0.3850 0.0350
vt 0.4025 0.0350
vt 0.4153 0.0350
vt 0.4200 0.0350
vt 0.0000 0.1250
vt 0.0047 0.1250
vt 0.0175 0.1250
vt 0.0350 0.1250
vt 0.3850 0.1250
vt 0.4025 0.1250
vt 0.4153 0.1250
vt 0.4200 0.1250
vt 0.0000 0.1425
vt 0.0047 0.1425
vt 0.0175 0.1425
vt 0.0350 0.1425
vt 0.3850 0.1425
vt 0.4025 0.1425
vt 0.4153 0.1425
vt 0.4200 0.1425
vt 0.0000 0.1553
vt 0.0047 0.1553
vt 0.0175 0.1553
vt 0.0350 0.1553
vt 0.3850 0.1553
vt 0.4025 0.1553
vt 0.4153 0.1553
vt 0.4200 0.1553
vt 0.0000 0.1600
vt 0.0047 0.1600
vt 0.0175 0.1600
vt 0.0350 0.1600
vt 0.3850 0.1600
vt 0.4025 0.1600
vt 0.4153 0.1600
vt 0.4200 0.1600
vn 0.577 -0.577 0.577
vn 0.603 -0.603 0.522
vn 0.667 -0.667 0.333
vn 0.707 -0.707 0.000
vn 0.707 -0.707 0.000
vn 0.667 -0.667 -0.333
vn 0.603 -0.603 -0.522
vn 0.577 -0.577 -0.577
vn 0.603 -0.522 0.603
vn 0.632 -0.548 0.548
vn 0.707 -0.612 0.354
vn 0.756 -0.655 0.000
vn 0.756 -0.655 0.000
vn 0.707 -0.612 -0.354
vn 0.632 -0.548 -0.548
vn 0.603 -0.522 -0.603
vn 0.667 -0.333 0.667
vn 0.707 -0.354 0.612
vn 0.816 -0.408 0.408
vn 0.894 -0.447 0.000
vn 0.894 -0.447 0.000
vn 0.816 -0.408 -0.408
vn 0.707 -0.354 -0.612
vn 0.667 -0.333 -0.667
vn 0.707 0.000 0.707
vn 0.756 0.000 0.655
vn 0.894 0.000 0.447
vn 1.000 0.000 0.000
vn 1.000 0.000 0.000
vn 0.894 0.000 -0.447
vn 0.756 0.000 -0.655
vn 0.707 0.000 -0.707
vn 0.707 0.000 0.707
vn 0.756 0.000 0.655
vn 0.894 0.000 0.447
vn 1.000 0.000 0.000
vn 1.000 0.000 0.000
vn 0.894 0.000 -0.447
vn 0.756 0.000 -0.655
vn 0.707 0.000 -0.707
vn 0.667 0.333 0.667
vn 0.707 0.354 0.612
vn 0.816 0.408 0.408
vn 0.894 0.447 0.000
vn 0.894 0.447 0.000
vn 0.816 0.408 -0.408
vn 0.707 0.354 -0.612
vn 0.667 0.333 -0.667
vn 0.603 0.522 0.603
vn 0.632 0.548 0.548
vn 0.707 0.612 0.354
vn 0.756 0.655 0.000
vn 0.756 0.655 0.000
vn 0.707 0.612 -0.354
vn 0.632 0.548 -0.548
vn 0.603 0.522 -0.603
vn 0.577 0.577 0.577
vn 0.603 0.603 0.522
vn 0.667 0.667 0.333
vn 0.707 0.707 0.000
vn 0.707 0.707 0.000
vn 0.667 0.667 -0.333
vn 0.603 0.603 -0.522
vn 0.577 0.577 -0.577
vn -0.577 -0.577 -0.577
vn -0.603 -0.603 -0.522
vn -0.667 -0.667 -0.333
vn -0.707 -0.707 0.000
vn -0.707 -0.707 0.000
vn -0.667 -0.667 0.333
vn -0.603 -0.603 0.522
vn -0.577 -0.577 0.577
vn -0.603 -0.522 -0.603
vn -0.632 -0.548 -0.548
vn -0.707 -0.612 -0.354
vn -0.756 -0.655 0.000
vn -0.756 -0.655 0.000
vn -0.707 -0.612 0.354
vn -0.632 -0.548 0.548
vn -0.603 -0.522 0.603
vn -0.667 -0.333 -0.667
vn -0.707 -0.354 -0.612
vn -0.816 -0.408 -0.408
vn -0.894 -0.447 0.000
vn -0.894 -0.447 0.000
vn -0.816 -0.408 0.408
vn -0.707 -0.354 0.612
vn -0.667 -0.333 0.667
vn -0.707 0.000 -0.707
vn -0.756 0.000 -0.655
vn -0.894 0.000 -0.447
vn -1.000 0.000 0.000
vn -1.000 0.000 0.000
vn -0.894 0.000 0.447
vn -0.756 0.000 0.655
vn -0.707 0.000 0.707
vn -0.707 0.000 -0.707
vn -0.756 0.000 -0.655
vn -0.894 0.000 -0.447
vn -1.000 0.000 0.000
vn -1.000 0.000 0.000
vn -0.894 0.000 0.447
vn -0.756 0.000 0.655
vn -0.707 0.000 0.707
vn -0.667 0.333 -0.667
vn -0.707 0.354 -0.612
vn -0.816 0.408 -0.408
vn -0.894 0.447 0.000
vn -0.894 0.447 0.000
vn -0.816 0.408 0.408
vn -0.707 0.354 0.612
vn -0.667 0.333 0.667
vn -0.603 0.522 -0.603
vn -0.632 0.548 -0.548
vn -0.707 0.612 -0.354
vn -0.756 0.655 0.000
vn -0.756 0.655 0.000
vn -0.707 0.612 0.354
vn -0.632 0.548 0.548
vn -0.603 0.522 0.603
vn -0.577 0.577 -0.577
vn -0.603 0.603 -0.522
vn -0.667 0.667 -0.333
vn -0.707 0.707 0.000
vn -0.707 0.707 0.000
vn -0.667 0.667 0.333
vn -0.603 0.603 0.522
vn -0.577 0.577 0.577
vn -0.577 0.577 0.577
vn -0.522 0.603 0.603
vn -0.333 0.667 0.667
vn 0.000 0.707 0.707
vn 0.000 0.707 0.707
vn 0.333 0.667 0.667
vn 0.522 0.603 0.603
vn 0.577 0.577 0.577
vn -0.603 0.603 0.522
vn -0.548 0.632 0.548
vn -0.354 0.707 0.612
vn 0.000 0.756 0.655
vn 0.000 0.756 0.655
vn 0.354 0.707 0.612
vn 0.548 0.632 0.548
vn 0.603 0.603 0.522
vn -0.667 0.667 0.333
vn -0.612 0.707 0.354
vn -0.408 0.816 0.408
vn 0.000 0.894 0.447
vn 0.000 0.894 0.447
vn 0.408 0.816 0.408
vn 0.612 0.707 0.354
vn 0.667 0.667 0.333
vn -0.707 0.707 0.000
vn -0.655 0.756 0.000
vn -0.447 0.894 0.000
vn 0.000 1.000 0.000
vn 0.000 1.000 0.000
vn 0.447 0.894 0.000
vn 0.655 0.756 0.000
vn 0.707 0.707 0.000
vn -0.707 0.707 0.000
vn -0.655 0.756 0.000
vn -0.447 0.894 0.000
vn 0.000 1.000 0.000
vn 0.000 1.000 0.000
vn 0.447 0.894 0.000
vn 0.655 0.756 0.000
vn 0.707 0.707 0.000
vn -0.667 0.667 -0.333
vn -0.612 0.707 -0.354
vn -0.408 0.816 -0.408
vn 0.000 0.894 -0.447
vn 0.000 0.894 -0.447
vn 0.408 0.816 -0.408
vn 0.612 0.707 -0.354
vn 0.667 0.667 -0.333
vn -0.603 0.603 -0.522
vn -0.548 0.632 -0.548
vn -0.354 0.707 -0.612
vn 0.000 0.756 -0.655
vn 0.000 0.756 -0.655
vn 0.354 0.707 -0.612
vn 0.548 0.632 -0.548
vn 0.603 0.603 -0.522
vn -0.577 0.577 -0.577
vn -0.522 0.603 -0.603
vn -0.333 0.667 -0.667
vn 0.000 0.707 -0.707
vn 0.000 0.707 -0.707
vn 0.333 0.667 -0.667
vn 0.522 0.603 -0.603
vn 0.577 0.577 -0.577
vn -0.577 -0.577 -0.577
vn -0.522 -0.603 -0.603
vn -0.333 -0.667 -0.667
vn 0.000 -0.707 -0.707
vn 0.000 -0.707 -0.707
vn 0.333 -0.667 -0.667
vn 0.522 -0.603 -0.603
vn 0.577 -0.577 -0.577
vn -0.603 -0.603 -0.522
vn -0.548 -0.632 -0.548
vn -0.354 -0.707 -0.612
vn 0.000 -0.756 -0.655
vn 0.000 -0.756 -0.655
vn 0.354 -0.707 -0.612
vn 0.548 -0.632 -0.548
vn 0.603 -0.603 -0.522
vn -0.667 -0.667 -0.333
vn -0.612 -0.707 -0.354
vn -0.408 -0.816 -0.408
vn 0.000 -0.894 -0.447
vn 0.000 -0.894 -0.447
vn 0.408 -0.816 -0.408
vn 0.612 -0.707 -0.354
vn 0.667 -0.667 -0.333
vn -0.707 -0.707 0.000
vn -0.655 -0.756 0.000
vn -0.447 -0.894 0.000
vn 0.000 -1.000 0.000
vn 0.000 -1.000 0.000
vn 0.447 -0.894 0.000
vn 0.655 -0.756 0.000
vn 0.707 -0.707 0.000
vn -0.707 -0.707 0.000
vn -0.655 -0.756 0.000
vn -0.447 -0.894 0.000
vn 0.000 -1.000 0.000
vn 0.000 -1.000 0.000
vn 0.447 -0.894 0.000
vn 0.655 -0.756 0.000
vn 0.707 -0.707 0.000
vn -0.667 -0.667 0.333
vn -0.612 -0.707 0.354
vn -0.408 -0.816 0.408
vn 0.000 -0.894 0.447
vn 0.000 -0.894 0.447
vn 0.408 -0.816 0.408
vn 0.612 -0.707 0.354
vn 0.667 -0.667 0.333
vn -0.603 -0.603 0.522
vn -0.548 -0.632 0.548
vn -0.354 -0.707 0.612
vn 0.000 -0.756 0.655
vn 0.000 -0.756 0.655
vn 0.354 -0.707 0.612
vn 0.548 -0.632 0.548
vn 0.603 -0.603 0.522
vn -0.577 -0.577 0.577
vn -0.522 -0.603 0.603
vn -0.333 -0.667 0.667
vn 0.000 -0.707 0.707
vn 0.000 -0.707 0.707
vn 0.333 -0.667 0.667
vn 0.522 -0.603 0.603
vn 0.577 -0.577 0.577
vn -0.577 -0.577 0.577
vn -0.522 -0.603 0.603
vn -0.333 -0.667 0.667
vn 0.000 -0.707 0.707
vn 0.000 -0.707 0.707
vn 0.333 -0.667 0.667
vn 0.522 -0.603 0.603
vn 0.577 -0.577 0.577
vn -0.603 -0.522 0.603
vn -0.548 -0.548 0.632
vn -0.354 -0.612 0.707
vn 0.000 -0.655 0.756
vn 0.000 -0.655 0.756
vn 0.354 -0.612 0.707
vn 0.548 -0.548 0.632
vn 0.603 -0.522 0.603
vn -0.667 -0.333 0.667
vn -0.612 -0.354 0.707
vn -0.408 -0.408 0.816
vn 0.000 -0.447 0.894
vn 0.000 -0.447 0.894
vn 0.408 -0.408 0.816
vn 0.612 -0.354 0.707
vn 0.667 -0.333 0.667
vn -0.707 0.000 0.707
vn -0.655 0.000 0.756
vn -0.447 0.000 0.894
vn 0.000 0.000 1.000
vn 0.000 0.000 1.000
vn 0.447 0.000 0.894
vn 0.655 0.000 0.756
vn 0.707 0.000 0.707
vn -0.707 0.000 0.707
vn -0.655 0.000 0.756
vn -0.447 0.000 0.894
vn 0.000 0.000 1.000
vn 0.000 0.000 1.000
vn 0.447 0.000 0.894
vn 0.655 0.000 0.756
vn 0.707 0.000 0.707
vn -0.667 0.333 0.667
vn -0.612 0.354 0.707
vn -0.408 0.408 0.816
vn 0.000 0.447 0.894
vn 0.000 0.447 0.894
vn 0.408 0.408 0.816
vn 0.612 0.354 0.707
vn 0.667 0.333 0.667
vn -0.603 0.522 0.603
vn -0.548 0.548 0.632
vn -0.354 0.612 0.707
vn 0.000 0.655 0.756
vn 0.000 0.655 0.756
vn 0.354 0.612 0.707
vn 0.548 0.548 0.632
vn 0.603 0.522 0.603
vn -0.577 0.577 0.577
vn -0.522 0.603 0.603
vn -0.333 0.667 0.667
vn 0.000 0.707 0.707
vn 0.000 0.707 0.707
vn 0.333 0.667 0.667
vn 0.522 0.603 0.603
vn 0.577 0.577 0.577
vn 0.577 -0.577 -0.577
vn 0.522 -0.603 -0.603
vn 0.333 -0.667 -0.667
vn 0.000 -0.707 -0.707
vn 0.000 -0.707 -0.707
vn -0.333 -0.667 -0.667
vn -0.522 -0.603 -0.603
vn -0.577 -0.577 -0.577
vn 0.603 -0.522 -0.603
vn 0.548 -0.548 -0.632
vn 0.354 -0.612 -0.707
vn 0.000 -0.655 -0.756
vn 0.000 -0.655 -0.756
vn -0.354 -0.612 -0.707
vn -0.548 -0.548 -0.632
vn -0.603 -0.522 -0.603
vn 0.667 -0.333 -0.667
vn 0.612 -0.354 -0.707
vn 0.408 -0.408 -0.816
vn 0.000 -0.447 -0.894
vn 0.000 -0.447 -0.894
vn -0.408 -0.408 -0.816
vn -0.612 -0.354 -0.707
vn -0.667 -0.333 -0.667
vn 0.707 0.000 -0.707
vn 0.655 0.000 -0.756
vn 0.447 0.000 -0.894
vn 0.000 0.000 -1.000
vn 0.000 0.000 -1.000
vn -0.447 0.000 -0.894
vn -0.655 0.000 -0.756
vn -0.707 0.000 -0.707
vn 0.707 0.000 -0.707
vn 0.655 0.000 -0.756
vn 0.447 0.000 -0.894
vn 0.000 0.000 -1.000
vn 0.000 0.000 -1.000
vn -0.447 0.000 -0.894
vn -0.655 0.000 -0.756
vn -0.707 0.000 -0.707
vn 0.667 0.333 -0.667
vn 0.612 0.354 -0.707
vn 0.408 0.408 -0.816
vn 0.000 0.447 -0.894
vn 0.000 0.447 -0.894
vn -0.408 0.408 -0.816
vn -0.612 0.354 -0.707
vn -0.667 0.333 -0.667
vn 0.603 0.522 -0.603
vn 0.548 0.548 -0.632
vn 0.354 0.612 -0.707
vn 0.000 0.655 -0.756
vn 0.000 0.655 -0.756
vn -0.354 0.612 -0.707
vn -0.548 0.548 -0.632
vn -0.603 0.522 -0.603
vn 0.577 0.577 -0.577
vn 0.522 0.603 -0.603
vn 0.333 0.667 -0.667
vn 0.000 0.707 -0.707
vn 0.000 0.707 -0.707
vn -0.333 0.667 -0.667
vn -0.522 0.603 -0.603
vn -0.577 0.577 -0.577
v 0.2125 -0.0800 -0.1950
v 0.2132 -0.0807 -0.1985
v 0.2132 -0.0807 -0.2015
v 0.2125 -0.0800 -0.2050
v 0.2132 -0.0765 -0.1943
v 0.2150 -0.0765 -0.1985
v 0.2150 -0.0765 -0.2015
v 0.2132 -0.0765 -0.2057
v 0.2132 0.0765 -0.1943
v 0.2150 0.0765 -0.1985
v 0.2150 0.0765 -0.2015
v 0.2132 0.0765 -0.2057
v 0.2125 0.0800 -0.1950
v 0.2132 0.0807 -0.1985
v 0.2132 0.0807 -0.2015
v 0.2125 0.0800 -0.2050
v -0.2125 -0.0800 -0.2050
v -0.2132 -0.0807 -0.2015
v -0.2132 -0.0807 -0.1985
v -0.2125 -0.0800 -0.1950
v -0.2132 -0.0765 -0.2057
v -0.2150 -0.0765 -0.2015
v -0.2150 -0.0765 -0.1985
v -0.2132 -0.0765 -0.1943
v -0.2132 0.0765 -0.2057
v -0.2150 0.0765 -0.2015
v -0.2150 0.0765 -0.1985
v -0.2132 0.0765 -0.1943
v -0.2125 0.0800 -0.2050
v -0.2132 0.0807 -0.2015
v -0.2132 0.0807 -0.1985
v -0.2125 0.0800 -0.1950
v -0.2125 0.0800 -0.1950
v -0.2090 0.0807 -0.1943
v 0.2090 0.0807 -0.1943
v 0.2125 0.0800 -0.1950
v -0.2132 0.0807 -0.1985
v -0.2090 0.0825 -0.1985
v 0.2090 0.0825 -0.1985
v 0.2132 0.0807 -0.1985
v -0.2132 0.0807 -0.2015
v -0.2090 0.0825 -0.2015
v 0.2090 0.0825 -0.2015
v 0.2132 0.0807 -0.2015
v -0.2125 0.0800 -0.2050
v -0.2090 0.0807 -0.2057
v 0.2090 0.0807 -0.2057
v 0.2125 0.0800 -0.2050
v -0.2125 -0.0800 -0.2050
v -0.2090 -0.0807 -0.2057
v 0.2090 -0.0807 -0.2057
v 0.2125 -0.0800 -0.2050
v -0.2132 -0.0807 -0.2015
v -0.2090 -0.0825 -0.2015
v 0.2090 -0.0825 -0.2015
v 0.2132 -0.0807 -0.2015
v -0.2132 -0.0807 -0.1985
v -0.2090 -0.0825 -0.1985
v 0.2090 -0.0825 -0.1985
v 0.2132 -0.0807 -0.1985
v -0.2125 -0.0800 -0.1950
v -0.2090 -0.0807 -0.1943
v 0.2090 -0.0807 -0.1943
v 0.2125 -0.0800 -0.1950
v -0.2125 -0.0800 -0.1950
v -0.2090 -0.0807 -0.1943
v 0.2090 -0.0807 -0.1943
v 0.2125 -0.0800 -0.1950
v -0.2132 -0.0765 -0.1943
v -0.2090 -0.0765 -0.1925
v 0.2090 -0.0765 -0.1925
v 0.2132 -0.0765 -0.1943
v -0.2132 0.0765 -0.1943
v -0.2090 0.0765 -0.1925
v 0.2090 0.0765 -0.1925
v 0.2132 0.0765 -0.1943
v -0.2125 0.0800 -0.1950
v -0.2090 0.0807 -0.1943
v 0.2090 0.0807 -0.1943
v 0.2125 0.0800 -0.1950
v 0.2125 -0.0800 -0.2050
v 0.2090 -0.0807 -0.2057
v -0.2090 -0.0807 -0.2057
v -0.2125 -0.0800 -0.2050
v 0.2132 -0.0765 -0.2057
v 0.2090 -0.0765 -0.2075
v -0.2090 -0.0765 -0.2075
v -0.2132 -0.0765 -0.2057
v 0.2132 0.0765 -0.2057
v 0.2090 0.0765 -0.2075
v -0.2090 0.0765 -0.2075
v -0.2132 0.0765 -0.2057
v 0.2125 0.0800 -0.2050
v 0.2090 0.0807 -0.2057
v -0.2090 0.0807 -0.2057
v -0.2125 0.0800 -0.2050
v 0.2125 -0.0800 0.2050
v 0.2132 -0.0807 0.2015
v 0.2132 -0.0807 0.1985
v 0.2125 -0.0800 0.1950
v 0.2132 -0.0765 0.2057
v 0.2150 -0.0765 0.2015
v 0.2150 -0.0765 0.1985
v 0.2132 -0.0765 0.1943
v 0.2132 0.0765 0.2057
v 0.2150 0.0765 0.2015
v 0.2150 0.0765 0.1985
v 0.2132 0.0765 0.1943
v 0.2125 0.0800 0.2050
v 0.2132 0.0807 0.2015
v 0.2132 0.0807 0.1985
v 0.2125 0.0800 0.1950
v -0.2125 -0.0800 0.1950
v -0.2132 -0.0807 0.1985
v -0.2132 -0.0807 0.2015
v -0.2125 -0.0800 0.2050
v -0.2132 -0.0765 0.1943
v -0.2150 -0.0765 0.1985
v -0.2150 -0.0765 0.2015
v -0.2132 -0.0765 0.2057
v -0.2132 0.0765 0.1943
v -0.2150 0.0765 0.1985
v -0.2150 0.0765 0.2015
v -0.2132 0.0765 0.2057
v -0.2125 0.0800 0.1950
v -0.2132 0.0807 0.1985
v -0.2132 0.0807 0.2015
v -0.2125 0.0800 0.2050
v -0.2125 0.0800 0.2050
v -0.2090 0.0807 0.2057
v 0.2090 0.0807 0.2057
v 0.2125 0.0800 0.2050
v -0.2132 0.0807 0.2015
v -0.2090 0.0825 0.2015
v 0.2090 0.0825 0.2015
v 0.2132 0.0807 0.2015
v -0.2132 0.0807 0.1985
v -0.2090 0.0825 0.1985
v 0.2090 0.0825 0.1985
v 0.2132 0.0807 0.1985
v -0.2125 0.0800 0.1950
v -0.2090 0.0807 0.1943
v 0.2090 0.0807 0.1943
v 0.2125 0.0800 0.1950
v -0.2125 -0.0800 0.1950
v -0.2090 -0.0807 0.1943
v 0.2090 -0.0807 0.1943
v 0.2125 -0.0800 0.1950
v -0.2132 -0.0807 0.1985
v -0.2090 -0.0825 0.1985
v 0.2090 -0.0825 0.1985
v 0.2132 -0.0807 0.1985
v -0.2132 -0.0807 0.2015
v -0.2090 -0.0825 0.2015
v 0.2090 -0.0825 0.2015
v 0.2132 -0.0807 0.2015
v -0.2125 -0.0800 0.2050
v -0.2090 -0.0807 0.2057
v 0.2090 -0.0807 0.2057
v 0.2125 -0.0800 0.2050
v -0.2125 -0.0800 0.2050
v -0.2090 -0.0807 0.2057
v 0.2090 -0.0807 0.2057
v 0.2125 -0.0800 0.2050
v -0.2132 -0.0765 0.2057
v -0.2090 -0.0765 0.2075
v 0.2090 -0.0765 0.2075
v 0.2132 -0.0765 0.2057
v -0.2132 0.0765 0.2057
v -0.2090 0.0765 0.2075
v 0.2090 0.0765 0.2075
v 0.2132 0.0765 0.2057
v -0.2125 0.0800 0.2050
v -0.2090 0.0807 0.2057
v 0.2090 0.0807 0.2057
v 0.2125 0.0800 0.2050
v 0.2125 -0.0800 0.1950
v 0.2090 -0.0807 0.1943
v -0.2090 -0.0807 0.1943
v -0.2125 -0.0800 0.1950
v 0.2132 -0.0765 0.1943
v 0.2090 -0.0765 0.1925
v -0.2090 -0.0765 0.1925
v -0.2132 -0.0765 0.1943
v 0.2132 0.0765 0.1943
v 0.2090 0.0765 0.1925
v -0.2090 0.0765 0.1925
v -0.2132 0.0765 0.1943
v 0.2125 0.0800 0.1950
v 0.2090 0.0807 0.1943
v -0.2090 0.0807 0.1943
v -0.2125 0.0800 0.1950
v -0.0700 0.0800 0.0000
v -0.0719 0.0800 -0.0059
v -0.0769 0.0800 -0.0095
v -0.0831 0.0800 -0.0095
v -0.0881 0.0800 -0.0059
v -0.0900 0.0800 -0.0000
v -0.0881 0.0800 0.0059
v -0.0831 0.0800 0.0095
v -0.0769 0.0800 0.0095
v -0.0719 0.0800 0.0059
v -0.0700 0.0800 0.0000
v -0.0700 0.1000 0.0000
v -0.0719 0.1001 -0.0059
v -0.0769 0.1003 -0.0095
v -0.0831 0.1005 -0.0095
v -0.0881 0.1007 -0.0059
v -0.0900 0.1008 -0.0000
v -0.0881 0.1007 0.0059
v -0.0831 0.1005 0.0095
v -0.0769 0.1003 0.0095
v -0.0719 0.1001 0.0059
v -0.0700 0.1000 0.0000
v -0.0693 0.1058 0.0000
v -0.0711 0.1064 -0.0059
v -0.0758 0.1080 -0.0095
v -0.0817 0.1100 -0.0095
v -0.0865 0.1115 -0.0059
v -0.0883 0.1121 -0.0000
v -0.0865 0.1115 0.0059
v -0.0817 0.1100 0.0095
v -0.0758 0.1080 0.0095
v -0.0711 0.1064 0.0059
v -0.0693 0.1058 0.0000
v -0.0680 0.1080 0.0000
v -0.0694 0.1094 -0.0059
v -0.0729 0.1129 -0.0095
v -0.0773 0.1173 -0.0095
v -0.0808 0.1208 -0.0059
v -0.0822 0.1222 -0.0000
v -0.0808 0.1208 0.0059
v -0.0773 0.1173 0.0095
v -0.0729 0.1129 0.0095
v -0.0694 0.1094 0.0059
v -0.0680 0.1080 0.0000
v -0.0658 0.1093 0.0000
v -0.0664 0.1111 -0.0059
v -0.0680 0.1158 -0.0095
v -0.0700 0.1217 -0.0095
v -0.0715 0.1265 -0.0059
v -0.0721 0.1283 -0.0000
v -0.0715 0.1265 0.0059
v -0.0700 0.1217 0.0095
v -0.0680 0.1158 0.0095
v -0.0664 0.1111 0.0059
v -0.0658 0.1093 0.0000
v -0.0603 0.1100 0.0000
v -0.0603 0.1119 -0.0059
v -0.0604 0.1169 -0.0095
v -0.0604 0.1231 -0.0095
v -0.0605 0.1281 -0.0059
v -0.0605 0.1300 -0.0000
v -0.0605 0.1281 0.0059
v -0.0604 0.1231 0.0095
v -0.0604 0.1169 0.0095
v -0.0603 0.1119 0.0059
v -0.0603 0.1100 0.0000
v 0.0603 0.1100 0.0000
v 0.0603 0.1119 -0.0059
v 0.0604 0.1169 -0.0095
v 0.0604 0.1231 -0.0095
v 0.0605 0.1281 -0.0059
v 0.0605 0.1300 -0.0000
v 0.0605 0.1281 0.0059
v 0.0604 0.1231 0.0095
v 0.0604 0.1169 0.0095
v 0.0603 0.1119 0.0059
v 0.0603 0.1100 0.0000
v 0.0658 0.1093 0.0000
v 0.0664 0.1111 -0.0059
v 0.0680 0.1158 -0.0095
v 0.0700 0.1217 -0.0095
v 0.0715 0.1265 -0.0059
v 0.0721 0.1283 -0.0000
v 0.0715 0.1265 0.0059
v 0.0700 0.1217 0.0095
v 0.0680 0.1158 0.0095
v 0.0664 0.1111 0.0059
v 0.0658 0.1093 0.0000
v 0.0680 0.1080 0.0000
v 0.0694 0.1094 -0.0059
v 0.0729 0.1129 -0.0095
v 0.0773 0.1173 -0.0095
v 0.0808 0.1208 -0.0059
v 0.0822 0.1222 -0.0000
v 0.0808 0.1208 0.0059
v 0.0773 0.1173 0.0095
v 0.0729 0.1129 0.0095
v 0.0694 0.1094 0.0059
v 0.0680 0.1080 0.0000
v 0.0693 0.1058 0.0000
v 0.0711 0.1064 -0.0059
v 0.0758 0.1080 -0.0095
v 0.0817 0.1100 -0.0095
v 0.0865 0.1115 -0.0059
v 0.0883 0.1121 -0.0000
v 0.0865 0.1115 0.0059
v 0.0817 0.1100 0.0095
v 0.0758 0.1080 0.0095
v 0.0711 0.1064 0.0059
v 0.0693 0.1058 0.0000
v 0.0700 0.1000 0.0000
v 0.0719 0.1001 -0.0059
v 0.0769 0.1003 -0.0095
v 0.0831 0.1005 -0.0095
v 0.0881 0.1007 -0.0059
v 0.0900 0.1008 -0.0000
v 0.0881 0.1007 0.0059
v 0.0831 0.1005 0.0095
v 0.0769 0.1003 0.0095
v 0.0719 0.1001 0.0059
v 0.0700 0.1000 0.0000
v 0.0700 0.0800 0.0000
v 0.0719 0.0800 -0.0059
v 0.0769 0.0800 -0.0095
v 0.0831 0.0800 -0.0095
v 0.0881 0.0800 -0.0059
v 0.0900 0.0800 -0.0000
v 0.0881 0.0800 0.0059
v 0.0831 0.0800 0.0095
v 0.0769 0.0800 0.0095
v 0.0719 0.0800 0.0059
v 0.0700 0.0800 0.0000
v -0.0800 0.0800 0.0000
v -0.0700 0.0800 0.0000
v -0.0719 0.0800 -0.0059
v -0.0769 0.0800 -0.0095
v -0.0831 0.0800 -0.0095
v -0.0881 0.0800 -0.0059
v -0.0900 0.0800 -0.0000
v -0.0881 0.0800 0.0059
v -0.0831 0.0800 0.0095
v -0.0769 0.0800 0.0095
v -0.0719 0.0800 0.0059
v 0.0800 0.0800 0.0000
v 0.0700 0.0800 0.0000
v 0.0719 0.0800 -0.0059
v 0.0769 0.0800 -0.0095
v 0.0831 0.0800 -0.0095
v 0.0881 0.0800 -0.0059
v 0.0900 0.0800 -0.0000
v 0.0881 0.0800 0.0059
v 0.0831 0.0800 0.0095
v 0.0769 0.0800 0.0095
v 0.0719 0.0800 0.0059
vt 0.0000 0.0000
vt 0.0060 0.0000
vt 0.0090 0.0000
vt 0.0150 0.0000
vt 0.0000 0.0060
vt 0.0060 0.0060
vt 0.0090 0.0060
vt 0.0150 0.0060
vt 0.0000 0.1590
vt 0.0060 0.1590
vt 0.0090 0.1590
vt 0.0150 0.1590
vt 0.0000 0.1650
vt 0.0060 0.1650
vt 0.0090 0.1650
vt 0.0150 0.1650
vt 0.0000 0.0000
vt 0.0060 0.0000
vt 0.0090 0.0000
vt 0.0150 0.0000
vt 0.0000 0.0060
vt 0.0060 0.0060
vt 0.0090 0.0060
vt 0.0150 0.0060
vt 0.0000 0.1590
vt 0.0060 0.1590
vt 0.0090 0.1590
vt 0.0150 0.1590
vt 0.0000 0.1650
vt 0.0060 0.1650
vt 0.0090 0.1650
vt 0.0150 0.1650
vt 0.0000 0.0000
vt 0.0060 0.0000
vt 0.4240 0.0000
vt 0.4300 0.0000
vt 0.0000 0.0060
vt 0.0060 0.0060
vt 0.4240 0.0060
vt 0.4300 0.0060
vt 0.0000 0.0090
vt 0.0060 0.0090
vt 0.4240 0.0090
vt 0.4300 0.0090
vt 0.0000 0.0150
vt 0.0060 0.0150
vt 0.4240 0.0150
vt 0.4300 0.0150
vt 0.0000 0.0000
vt 0.0060 0.0000
vt 0.4240 0.0000
vt 0.4300 0.0000
vt 0.0000 0.0060
vt 0.0060 0.0060
vt 0.4240 0.0060
vt 0.4300 0.0060
vt 0.0000 0.0090
vt 0.0060 0.0090
vt 0.4240 0.0090
vt 0.4300 0.0090
vt 0.0000 0.0150
vt 0.0060 0.0150
vt 0.4240 0.0150
vt 0.4300 0.0150
vt 0.0000 0.0000
vt 0.0060 0.0000
vt 0.4240 0.0000
vt 0.4300 0.0000
vt 0.0000 0.0060
vt 0.0060 0.0060
vt 0.4240 0.0060
vt 0.4300 0.0060
vt 0.0000 0.1590
vt 0.0060 0.1590
vt 0.4240 0.1590
vt 0.4300 0.1590
vt 0.0000 0.1650
vt 0.0060 0.1650
vt 0.4240 0.1650
vt 0.4300 0.1650
vt 0.0000 0.0000
vt 0.0060 0.0000
vt 0.4240 0.0000
vt 0.4300 0.0000
vt 0.0000 0.0060
vt 0.0060 0.0060
vt 0.4240 0.0060
vt 0.4300 0.0060
vt 0.0000 0.1590
vt 0.0060 0.1590
vt 0.4240 0.1590
vt 0.4300 0.1590
vt 0.0000 0.1650
vt 0.0060 0.1650
vt 0.4240 0.1650
vt 0.4300 0.1650
vt 0.0000 0.0000
vt 0.0060 0.0000
vt 0.0090 0.0000
vt 0.0150 0.0000
vt 0.0000 0.0060
vt 0.0060 0.0060
vt 0.0090 0.0060
vt 0.0150 0.0060
vt 0.0000 0.1590
vt 0.0060 0.1590
vt 0.0090 0.1590
vt 0.0150 0.1590
vt 0.0000 0.1650
vt 0.0060 0.1650
vt 0.0090 0.1650
vt 0.0150 0.1650
vt 0.0000 0.0000
vt 0.0060 0.0000
vt 0.0090 0.0000
vt 0.0150 0.0000
vt 0.0000 0.0060
vt 0.0060 0.0060
vt 0.0090 0.0060
vt 0.0150 0.0060
vt 0.0000 0.1590
vt 0.0060 0.1590
vt 0.0090 0.1590
vt 0.0150 0.1590
vt 0.0000 0.1650
vt 0.0060 0.1650
vt 0.0090 0.1650
vt 0.0150 0.1650
vt 0.0000 0.0000
vt 0.0060 0.0000
vt 0.4240 0.0000
vt 0.4300 0.0000
vt 0.0000 0.0060
vt 0.0060 0.0060
vt 0.4240 0.0060
vt 0.4300 0.0060
vt 0.0000 0.0090
vt 0.0060 0.0090
vt 0.4240 0.0090
vt 0.4300 0.0090
vt 0.0000 0.0150
vt 0.0060 0.0150
vt 0.4240 0.0150
vt 0.4300 0.0150
vt 0.0000 0.0000
vt 0.0060 0.0000
vt 0.4240 0.0000
vt 0.4300 0.0000
vt 0.0000 0.0060
vt 0.0060 0.0060
vt 0.4240 0.0060
vt 0.4300 0.0060
vt 0.0000 0.0090
vt 0.0060 0.0090
vt 0.4240 0.0090
vt 0.4300 0.0090
vt 0.0000 0.0150
vt 0.0060 0.0150
vt 0.4240 0.0150
vt 0.4300 0.0150
vt 0.0000 0.0000
vt 0.0060 0.0000
vt 0.4240 0.0000
vt 0.4300 0.0000
vt 0.0000 0.0060
vt 0.0060 0.0060
vt 0.4240 0.0060
vt 0.4300 0.0060
vt 0.0000 0.1590
vt 0.0060 0.1590
vt 0.4240 0.1590
vt 0.4300 0.1590
vt 0.0000 0.1650
vt 0.0060 0.1650
vt 0.4240 0.1650
vt 0.4300 0.1650
vt 0.0000 0.0000
vt 0.0060 0.0000
vt 0.4240 0.0000
vt 0.4300 0.0000
vt 0.0000 0.0060
vt 0.0060 0.0060
vt 0.4240 0.0060
vt 0.4300 0.0060
vt 0.0000 0.1590
vt 0.0060 0.1590
vt 0.4240 0.1590
vt 0.4300 0.1590
vt 0.0000 0.1650
vt 0.0060 0.1650
vt 0.4240 0.1650
vt 0.4300 0.1650
vt 0.0000 0.0000
vt 0.0000 0.0063
vt 0.0000 0.0126
vt 0.0000 0.0188
vt 0.0000 0.0251
vt 0.0000 0.0314
vt 0.0000 0.0377
vt 0.0000 0.0440
vt 0.0000 0.0503
vt 0.0000 0.0565
vt 0.0000 0.0628
vt 0.0204 0.0000
vt 0.0204 0.0063
vt 0.0204 0.0126
vt 0.0204 0.0188
vt 0.0204 0.0251
vt 0.0204 0.0314
vt 0.0204 0.0377
vt 0.0204 0.0440
vt 0.0204 0.0503
vt 0.0204 0.0565
vt 0.0204 0.0628
vt 0.0291 0.0000
vt 0.0291 0.0063
vt 0.0291 0.0126
vt 0.0291 0.0188
vt 0.0291 0.0251
vt 0.0291 0.0314
vt 0.0291 0.0377
vt 0.0291 0.0440
vt 0.0291 0.0503
vt 0.0291 0.0565
vt 0.0291 0.0628
vt 0.0362 0.0000
vt 0.0362 0.0063
vt 0.0362 0.0126
vt 0.0362 0.0188
vt 0.0362 0.0251
vt 0.0362 0.0314
vt 0.0362 0.0377
vt 0.0362 0.0440
vt 0.0362 0.0503
vt 0.0362 0.0565
vt 0.0362 0.0628
vt 0.0433 0.0000
vt 0.0433 0.0063
vt 0.0433 0.0126
vt 0.0433 0.0188
vt 0.0433 0.0251
vt 0.0433 0.0314
vt 0.0433 0.0377
vt 0.0433 0.0440
vt 0.0433 0.0503
vt 0.0433 0.0565
vt 0.0433 0.0628
vt 0.0520 0.0000
vt 0.0520 0.0063
vt 0.0520 0.0126
vt 0.0520 0.0188
vt 0.0520 0.0251
vt 0.0520 0.0314
vt 0.0520 0.0377
vt 0.0520 0.0440
vt 0.0520 0.0503
vt 0.0520 0.0565
vt 0.0520 0.0628
vt 0.1728 0.0000
vt 0.1728 0.0063
vt 0.1728 0.0126
vt 0.1728 0.0188
vt 0.1728 0.0251
vt 0.1728 0.0314
vt 0.1728 0.0377
vt 0.1728 0.0440
vt 0.1728 0.0503
vt 0.1728 0.0565
vt 0.1728 0.0628
vt 0.1815 0.0000
vt 0.1815 0.0063
vt 0.1815 0.0126
vt 0.1815 0.0188
vt 0.1815 0.0251
vt 0.1815 0.0314
vt 0.1815 0.0377
vt 0.1815 0.0440
vt 0.1815 0.0503
vt 0.1815 0.0565
vt 0.1815 0.0628
vt 0.1886 0.0000
vt 0.1886 0.0063
vt 0.1886 0.0126
vt 0.1886 0.0188
vt 0.1886 0.0251
vt 0.1886 0.0314
vt 0.1886 0.0377
vt 0.1886 0.0440
vt 0.1886 0.0503
vt 0.1886 0.0565
vt 0.1886 0.0628
vt 0.1958 0.0000
vt 0.1958 0.0063
vt 0.1958 0.0126
vt 0.1958 0.0188
vt 0.1958 0.0251
vt 0.1958 0.0314
vt 0.1958 0.0377
vt 0.1958 0.0440
vt 0.1958 0.0503
vt 0.1958 0.0565
vt 0.1958 0.0628
vt 0.2044 0.0000
vt 0.2044 0.0063
vt 0.2044 0.0126
vt 0.2044 0.0188
vt 0.2044 0.0251
vt 0.2044 0.0314
vt 0.2044 0.0377
vt 0.2044 0.0440
vt 0.2044 0.0503
vt 0.2044 0.0565
vt 0.2044 0.0628
vt 0.2248 0.0000
vt 0.2248 0.0063
vt 0.2248 0.0126
vt 0.2248 0.0188
vt 0.2248 0.0251
vt 0.2248 0.0314
vt 0.2248 0.0377
vt 0.2248 0.0440
vt 0.2248 0.0503
vt 0.2248 0.0565
vt 0.2248 0.0628
vt 0.0000 0.0000
vt 0.0100 0.0000
vt 0.0081 0.0059
vt 0.0031 0.0095
vt -0.0031 0.0095
vt -0.0081 0.0059
vt -0.0100 0.0000
vt -0.0081 -0.0059
vt -0.0031 -0.0095
vt 0.0031 -0.0095
vt 0.0081 -0.0059
vt 0.0000 0.0000
vt 0.0100 0.0000
vt 0.0081 0.0059
vt 0.0031 0.0095
vt -0.0031 0.0095
vt -0.0081 0.0059
vt -0.0100 0.0000
vt -0.0081 -0.0059
vt -0.0031 -0.0095
vt 0.0031 -0.0095
vt 0.0081 -0.0059
vn 0.577 -0.577 0.577
vn 0.707 -0.707 0.000
vn 0.707 -0.707 0.000
vn 0.577 -0.577 -0.577
vn 0.707 0.000 0.707
vn 1.000 0.000 0.000
vn 1.000 0.000 0.000
vn 0.707 0.000 -0.707
vn 0.707 0.000 0.707
vn 1.000 0.000 0.000
vn 1.000 0.000 0.000
vn 0.707 0.000 -0.707
vn 0.577 0.577 0.577
vn 0.707 0.707 0.000
vn 0.707 0.707 0.000
vn 0.577 0.577 -0.577
vn -0.577 -0.577 -0.577
vn -0.707 -0.707 0.000
vn -0.707 -0.707 0.000
vn -0.577 -0.577 0.577
vn -0.707 0.000 -0.707
vn -1.000 0.000 0.000
vn -1.000 0.000 0.000
vn -0.707 0.000 0.707
vn -0.707 0.000 -0.707
vn -1.000 0.000 0.000
vn -1.000 0.000 0.000
vn -0.707 0.000 0.707
vn -0.577 0.577 -0.577
vn -0.707 0.707 0.000
vn -0.707 0.707 0.000
vn -0.577 0.577 0.577
vn -0.577 0.577 0.577
vn 0.000 0.707 0.707
vn 0.000 0.707 0.707
vn 0.577 0.577 0.577
vn -0.707 0.707 0.000
vn 0.000 1.000 0.000
vn 0.000 1.000 0.000
vn 0.707 0.707 0.000
vn -0.707 0.707 0.000
vn 0.000 1.000 0.000
vn 0.000 1.000 0.000
vn 0.707 0.707 0.000
vn -0.577 0.577 -0.577
vn 0.000 0.707 -0.707
vn 0.000 0.707 -0.707
vn 0.577 0.577 -0.577
vn -0.577 -0.577 -0.577
vn 0.000 -0.707 -0.707
vn 0.000 -0.707 -0.707
vn 0.577 -0.577 -0.577
vn -0.707 -0.707 0.000
vn 0.000 -1.000 0.000
vn 0.000 -1.000 0.000
vn 0.707 -0.707 0.000
vn -0.707 -0.707 0.000
vn 0.000 -1.000 0.000
vn 0.000 -1.000 0.000
vn 0.707 -0.707 0.000
vn -0.577 -0.577 0.577
vn 0.000 -0.707 0.707
vn 0.000 -0.707 0.707
vn 0.577 -0.577 0.577
vn -0.577 -0.577 0.577
vn 0.000 -0.707 0.707
vn 0.000 -0.707 0.707
vn 0.577 -0.577 0.577
vn -0.707 0.000 0.707
vn 0.000 0.000 1.000
vn 0.000 0.000 1.000
vn 0.707 0.000 0.707
vn -0.707 0.000 0.707
vn 0.000 0.000 1.000
vn 0.000 0.000 1.000
vn 0.707 0.000 0.707
vn -0.577 0.577 0.577
vn 0.000 0.707 0.707
vn 0.000 0.707 0.707
vn 0.577 0.577 0.577
vn 0.577 -0.577 -0.577
vn 0.000 -0.707 -0.707
vn 0.000 -0.707 -0.707
vn -0.577 -0.577 -0.577
vn 0.707 0.000 -0.707
vn 0.000 0.000 -1.000
vn 0.000 0.000 -1.000
vn -0.707 0.000 -0.707
vn 0.707 0.000 -0.707
vn 0.000 0.000 -1.000
vn 0.000 0.000 -1.000
vn -0.707 0.000 -0.707
vn 0.577 0.577 -0.577
vn 0.000 0.707 -0.707
vn 0.000 0.707 -0.707
vn -0.577 0.577 -0.577
vn 0.577 -0.577 0.577
vn 0.707 -0.707 0.000
vn 0.707 -0.707 0.000
vn 0.577 -0.577 -0.577
vn 0.707 0.000 0.707
vn 1.000 0.000 0.000
vn 1.000 0.000 0.000
vn 0.707 0.000 -0.707
vn 0.707 0.000 0.707
vn 1.000 0.000 0.000
vn 1.000 0.000 0.000
vn 0.707 0.000 -0.707
vn 0.577 0.577 0.577
vn 0.707 0.707 0.000
vn 0.707 0.707 0.000
vn 0.577 0.577 -0.577
vn -0.577 -0.577 -0.577
vn -0.707 -0.707 0.000
vn -0.707 -0.707 0.000
vn -0.577 -0.577 0.577
vn -0.707 0.000 -0.707
vn -1.000 0.000 0.000
vn -1.000 0.000 0.000
vn -0.707 0.000 0.707
vn -0.707 0.000 -0.707
vn -1.000 0.000 0.000
vn -1.000 0.000 0.000
vn -0.707 0.000 0.707
vn -0.577 0.577 -0.577
vn -0.707 0.707 0.000
vn -0.707 0.707 0.000
vn -0.577 0.577 0.577
vn -0.577 0.577 0.577
vn 0.000 0.707 0.707
vn 0.000 0.707 0.707
vn 0.577 0.577 0.577
vn -0.707 0.707 0.000
vn 0.000 1.000 0.000
vn 0.000 1.000 0.000
vn 0.707 0.707 0.000
vn -0.707 0.707 0.000
vn 0.000 1.000 0.000
vn 0.000 1.000 0.000
vn 0.707 0.707 0.000
vn -0.577 0.577 -0.577
vn 0.000 0.707 -0.707
vn 0.000 0.707 -0.707
vn 0.577 0.577 -0.577
vn -0.577 -0.577 -0.577
vn 0.000 -0.707 -0.707
vn 0.000 -0.707 -0.707
vn 0.577 -0.577 -0.577
vn -0.707 -0.707 0.000
vn 0.000 -1.000 0.000
vn 0.000 -1.000 0.000
vn 0.707 -0.707 0.000
vn -0.707 -0.707 0.000
vn 0.000 -1.000 0.000
vn 0.000 -1.000 0.000
vn 0.707 -0.707 0.000
vn -0.577 -0.577 0.577
vn 0.000 -0.707 0.707
vn 0.000 -0.707 0.707
vn 0.577 -0.577 0.577
vn -0.577 -0.577 0.577
vn 0.000 -0.707 0.707
vn 0.000 -0.707 0.707
vn 0.577 -0.577 0.577
vn -0.707 0.000 0.707
vn 0.000 0.000 1.000
vn 0.000 0.000 1.000
vn 0.707 0.000 0.707
vn -0.707 0.000 0.707
vn 0.000 0.000 1.000
vn 0.000 0.000 1.000
vn 0.707 0.000 0.707
vn -0.577 0.577 0.577
vn 0.000 0.707 0.707
vn 0.000 0.707 0.707
vn 0.577 0.577 0.577
vn 0.577 -0.577 -0.577
vn 0.000 -0.707 -0.707
vn 0.000 -0.707 -0.707
vn -0.577 -0.577 -0.577
vn 0.707 0.000 -0.707
vn 0.000 0.000 -1.000
vn 0.000 0.000 -1.000
vn -0.707 0.000 -0.707
vn 0.707 0.000 -0.707
vn 0.000 0.000 -1.000
vn 0.000 0.000 -1.000
vn -0.707 0.000 -0.707
vn 0.577 0.577 -0.577
vn 0.000 0.707 -0.707
vn 0.000 0.707 -0.707
vn -0.577 0.577 -0.577
vn 1.000 0.000 0.000
vn 0.809 0.000 -0.588
vn 0.309 0.000 -0.951
vn -0.309 0.000 -0.951
vn -0.809 0.000 -0.588
vn -1.000 0.000 -0.000
vn -0.809 0.000 0.588
vn -0.309 0.000 0.951
vn 0.309 -0.000 0.951
vn 0.809 -0.000 0.588
vn 1.000 -0.000 0.000
vn 0.999 -0.042 0.000
vn 0.808 -0.034 -0.588
vn 0.309 -0.013 -0.951
vn -0.309 0.013 -0.951
vn -0.808 0.034 -0.588
vn -0.999 0.042 -0.000
vn -0.808 0.034 0.588
vn -0.309 0.013 0.951
vn 0.309 -0.013 0.951
vn 0.808 -0.034 0.588
vn 0.999 -0.042 0.000
vn 0.949 -0.316 0.000
vn 0.768 -0.256 -0.588
vn 0.293 -0.098 -0.951
vn -0.293 0.098 -0.951
vn -0.768 0.256 -0.588
vn -0.949 0.316 -0.000
vn -0.768 0.256 0.588
vn -0.293 0.098 0.951
vn 0.293 -0.098 0.951
vn 0.768 -0.256 0.588
vn 0.949 -0.316 0.000
vn 0.707 -0.707 0.000
vn 0.572 -0.572 -0.588
vn 0.219 -0.219 -0.951
vn -0.219 0.219 -0.951
vn -0.572 0.572 -0.588
vn -0.707 0.707 -0.000
vn -0.572 0.572 0.588
vn -0.219 0.219 0.951
vn 0.219 -0.219 0.951
vn 0.572 -0.572 0.588
vn 0.707 -0.707 0.000
vn 0.316 -0.949 0.000
vn 0.256 -0.768 -0.588
vn 0.098 -0.293 -0.951
vn -0.098 0.293 -0.951
vn -0.256 0.768 -0.588
vn -0.316 0.949 -0.000
vn -0.256 0.768 0.588
vn -0.098 0.293 0.951
vn 0.098 -0.293 0.951
vn 0.256 -0.768 0.588
vn 0.316 -0.949 0.000
vn 0.009 -1.000 0.000
vn 0.008 -0.809 -0.588
vn 0.003 -0.309 -0.951
vn -0.003 0.309 -0.951
vn -0.008 0.809 -0.588
vn -0.009 1.000 -0.000
vn -0.008 0.809 0.588
vn -0.003 0.309 0.951
vn 0.003 -0.309 0.951
vn 0.008 -0.809 0.588
vn 0.009 -1.000 0.000
vn -0.009 -1.000 0.000
vn -0.008 -0.809 -0.588
vn -0.003 -0.309 -0.951
vn 0.003 0.309 -0.951
vn 0.008 0.809 -0.588
vn 0.009 1.000 -0.000
vn 0.008 0.809 0.588
vn 0.003 0.309 0.951
vn -0.003 -0.309 0.951
vn -0.008 -0.809 0.588
vn -0.009 -1.000 0.000
vn -0.316 -0.949 0.000
vn -0.256 -0.768 -0.588
vn -0.098 -0.293 -0.951
vn 0.098 0.293 -0.951
vn 0.256 0.768 -0.588
vn 0.316 0.949 -0.000
vn 0.256 0.768 0.588
vn 0.098 0.293 0.951
vn -0.098 -0.293 0.951
vn -0.256 -0.768 0.588
vn -0.316 -0.949 0.000
vn -0.707 -0.707 0.000
vn -0.572 -0.572 -0.588
vn -0.219 -0.219 -0.951
vn 0.219 0.219 -0.951
vn 0.572 0.572 -0.588
vn 0.707 0.707 -0.000
vn 0.572 0.572 0.588
vn 0.219 0.219 0.951
vn -0.219 -0.219 0.951
vn -0.572 -0.572 0.588
vn -0.707 -0.707 0.000
vn -0.949 -0.316 0.000
vn -0.768 -0.256 -0.588
vn -0.293 -0.098 -0.951
vn 0.293 0.098 -0.951
vn 0.768 0.256 -0.588
vn 0.949 0.316 -0.000
vn 0.768 0.256 0.588
vn 0.293 0.098 0.951
vn -0.293 -0.098 0.951
vn -0.768 -0.256 0.588
vn -0.949 -0.316 0.000
vn -0.999 -0.042 0.000
vn -0.808 -0.034 -0.588
vn -0.309 -0.013 -0.951
vn 0.309 0.013 -0.951
vn 0.808 0.034 -0.588
vn 0.999 0.042 -0.000
vn 0.808 0.034 0.588
vn 0.309 0.013 0.951
vn -0.309 -0.013 0.951
vn -0.808 -0.034 0.588
vn -0.999 -0.042 0.000
vn -1.000 0.000 0.000
vn -0.809 0.000 -0.588
vn -0.309 0.000 -0.951
vn 0.309 -0.000 -0.951
vn 0.809 -0.000 -0.588
vn 1.000 -0.000 -0.000
vn 0.809 0.000 0.588
vn 0.309 0.000 0.951
vn -0.309 0.000 0.951
vn -0.809 0.000 0.588
vn -1.000 0.000 0.000
vn -0.000 -1.000 -0.000
vn -0.000 -1.000 -0.000
vn -0.000 -1.000 -0.000
vn -0.000 -1.000 -0.000
vn -0.000 -1.000 -0.000
vn -0.000 -1.000 -0.000
vn -0.000 -1.000 -0.000
vn -0.000 -1.000 -0.000
vn -0.000 -1.000 -0.000
vn -0.000 -1.000 -0.000
vn -0.000 -1.000 -0.000
vn 0.000 -1.000 0.000
vn 0.000 -1.000 0.000
vn 0.000 -1.000 0.000
vn 0.000 -1.000 0.000
vn 0.000 -1.000 0.000
vn 0.000 -1.000 0.000
vn 0.000 -1.000 0.000
vn 0.000 -1.000 0.000
vn 0.000 -1.000 0.000
vn 0.000 -1.000 0.000
vn 0.000 -1.000 0.000
usemtl case
f 1/1/1 2/2/2 10/10/10
f 1/1/1 10/10/10 9/9/9
f 2/2/2 3/3/3 11/11/11
f 2/2/2 11/11/11 10/10/10
f 3/3/3 4/4/4 12/12/12
f 3/3/3 12/12/12 11/11/11
f 4/4/4 5/5/5 13/13/13
f 4/4/4 13/13/13 12/12/12
f 5/5/5 6/6/6 14/14/14
f 5/5/5 14/14/14 13/13/13
f 6/6/6 7/7/7 15/15/15
f 6/6/6 15/15/15 14/14/14
f 7/7/7 8/8/8 16/16/16
f 7/7/7 16/16/16 15/15/15
f 9/9/9 10/10/10 18/18/18
f 9/9/9 18/18/18 17/17/17
f 10/10/10 11/11/11 19/19/19
f 10/10/10 19/19/19 18/18/18
f 11/11/11 12/12/12 20/20/20
f 11/11/11 20/20/20 19/19/19
f 12/12/12 13/13/13 21/21/21
f 12/12/12 21/21/21 20/20/20
f 13/13/13 14/14/14 22/22/22
f 13/13/13 22/22/22 21/21/21
f 14/14/14 15/15/15 23/23/23
f 14/14/14 23/23/23 22/22/22
f 15/15/15 16/16/16 24/24/24
f 15/15/15 24/24/24 23/23/23
f 17/17/17 18/18/18 26/26/26
f 17/17/17 26/26/26 25/25/25
f 18/18/18 19/19/19 27/27/27
f 18/18/18 27/27/27 26/26/26
f 19/19/19 20/20/20 28/28/28
f 19/19/19 28/28/28 27/27/27
f 20/20/20 21/21/21 29/29/29
f 20/20/20 29/29/29 28/28/28
f 21/21/21 22/22/22 30/30/30
f 21/21/21 30/30/30 29/29/29
f 22/22/22 23/23/23 31/31/31
f 22/22/22 31/31/31 30/30/30
f 23/23/23 24/24/24 32/32/32
f 23/23/23 32/32/32 31/31/31
f 25/25/25 26/26/26 34/34/34
f 25/25/25 34/34/34 33/33/33
f 26/26/26 27/27/27 35/35/35
f 26/26/26 35/35/35 34/34/34
f 27/27/27 28/28/28 36/36/36
f 27/27/27 36/36/36 35/35/35
f 28/28/28 29/29/29 37/37/37
f 28/28/28 37/37/37 36/36/36
f 29/29/29 30/30/30 38/38/38
f 29/29/29 38/38/38 37/37/37
f 30/30/30 31/31/31 39/39/39
f 30/30/30 39/39/39 38/38/38
f 31/31/31 32/32/32 40/40/40
f 31/31/31 40/40/40 39/39/39
f 33/33/33 34/34/34 42/42/42
f 33/33/33 42/42/42 41/41/41
f 34/34/34 35/35/35 43/43/43
f 34/34/34 43/43/43 42/42/42
f 35/35/35 36/36/36 44/44/44
f 35/35/35 44/44/44 43/43/43
f 36/36/36 37/37/37 45/45/45
f 36/36/36 45/45/45 44/44/44
f 37/37/37 38/38/38 46/46/46
f 37/37/37 46/46/46 45/45/45
f 38/38/38 39/39/39 47/47/47
f 38/38/38 47/47/47 46/46/46
f 39/39/39 40/40/40 48/48/48
f 39/39/39 48/48/48 47/47/47
f 41/41/41 42/42/42 50/50/50
f 41/41/41 50/50/50 49/49/49
f 42/42/42 43/43/43 51/51/51
f 42/42/42 51/51/51 50/50/50
f 43/43/43 44/44/44 52/52/52
f 43/43/43 52/52/52 51/51/51
f 44/44/44 45/45/45 53/53/53
f 44/44/44 53/53/53 52/52/52
f 45/45/45 46/46/46 54/54/54
f 45/45/45 54/54/54 53/53/53
f 46/46/46 47/47/47 55/55/55
f 46/46/46 55/55/55 54/54/54
f 47/47/47 48/48/48 56/56/56
f 47/47/47 56/56/56 55/55/55
f 49/49/49 50/50/50 58/58/58
f 49/49/49 58/58/58 57/57/57
f 50/50/50 51/51/51 59/59/59
f 50/50/50 59/59/59 58/58/58
f 51/51/51 52/52/52 60/60/60
f 51/51/51 60/60/60 59/59/59
f 52/52/52 53/53/53 61/61/61
f 52/52/52 61/61/61 60/60/60
f 53/53/53 54/54/54 62/62/62
f 53/53/53 62/62/62 61/61/61
f 54/54/54 55/55/55 63/63/63
f 54/54/54 63/63/63 62/62/62
f 55/55/55 56/56/56 64/64/64
f 55/55/55 64/64/64 63/63/63
f 65/65/65 66/66/66 74/74/74
f 65/65/65 74/74/74 73/73/73
f 66/66/66 67/67/67 75/75/75
f 66/66/66 75/75/75 74/74/74
f 67/67/67 68/68/68 76/76/76
f 67/67/67 76/76/76 75/75/75
f 68/68/68 69/69/69 77/77/77
f 68/68/68 77/77/77 76/76/76
f 69/69/69 70/70/70 78/78/78
f 69/69/69 78/78/78 77/77/77
f 70/70/70 71/71/71 79/79/79
f 70/70/70 79/79/79 78/78/78
f 71/71/71 72/72/72 80/80/80
f 71/71/71 80/80/80 79/79/79
f 73/73/73 74/74/74 82/82/82
f 73/73/73 82/82/82 81/81/81
f 74/74/74 75/75/75 83/83/83
f 74/74/74 83/83/83 82/82/82
f 75/75/75 76/76/76 84/84/84
f 75/75/75 84/84/84 83/83/83
f 76/76/76 77/77/77 85/85/85
f 76/76/76 85/85/85 84/84/84
f 77/77/77 78/78/78 86/86/86
f 77/77/77 86/86/86 85/85/85
f 78/78/78 79/79/79 87/87/87
f 78/78/78 87/87/87 86/86/86
f 79/79/79 80/80/80 88/88/88
f 79/79/79 88/88/88 87/87/87
f 81/81/81 82/82/82 90/90/90
f 81/81/81 90/90/90 89/89/89
f 82/82/82 83/83/83 91/91/91
f 82/82/82 91/91/91 90/90/90
f 83/83/83 84/84/84 92/92/92
f 83/83/83 92/92/92 91/91/91
f 84/84/84 85/85/85 93/93/93
f 84/84/84 93/93/93 92/92/92
f 85/85/85 86/86/86 94/94/94
f 85/85/85 94/94/94 93/93/93
f 86/86/86 87/87/87 95/95/95
f 86/86/86 95/95/95 94/94/94
f 87/87/87 88/88/88 96/96/96
f 87/87/87 96/96/96 95/95/95
f 89/89/89 90/90/90 98/98/98
f 89/89/89 98/98/98 97/97/97
f 90/90/90 91/91/91 99/99/99
f 90/90/90 99/99/99 98/98/98
f 91/91/91 92/92/92 100/100/100
f 91/91/91 100/100/100 99/99/99
f 92/92/92 93/93/93 101/101/101
f 92/92/92 101/101/101 100/100/100
f 93/93/93 94/94/94 102/102/102
f 93/93/93 102/102/102 101/101/101
f 94/94/94 95/95/95 103/103/103
f 94/94/94 103/103/103 102/102/102
f 95/95/95 96/96/96 104/104/104
f 95/95/95 104/104/104 103/103/103
f 97/97/97 98/98/98 106/106/106
f 97/97/97 106/106/106 105/105/105
f 98/98/98 99/99/99 107/107/107
f 98/98/98 107/107/107 106/106/106
f 99/99/99 100/100/100 108/108/108
f 99/99/99 108/108/108 107/107/107
f 100/100/100 101/101/101 109/109/109
f 100/100/100 109/109/109 108/108/108
f 101/101/101 102/102/102 110/110/110
f 101/101/101 110/110/110 109/109/109
f 102/102/102 103/103/103 111/111/111
f 102/102/102 111/111/111 110/110/110
f 103/103/103 104/104/104 112/112/112
f 103/103/103 112/112/112 111/111/111
f 105/105/105 106/106/106 114/114/114
f 105/105/105 114/114/114 113/113/113
f 106/106/106 107/107/107 115/115/115
f 106/106/106 115/115/115 114/114/114
f 107/107/107 108/108/108 116/116/116
f 107/107/107 116/116/116 115/115/115
f 108/108/108 109/109/109 117/117/117
f 108/108/108 117/117/117 116/116/116
f 109/109/109 110/110/110 118/118/118
f 109/109/109 118/118/118 117/117/117
f 110/110/110 111/111/111 119/119/119
f 110/110/110 119/119/119 118/118/118
f 111/111/111 112/112/112 120/120/120
f 111/111/111 120/120/120 119/119/119
f 113/113/113 114/114/114 122/122/122
f 113/113/113 122/122/122 121/121/121
f 114/114/114 115/115/115 123/123/123
f 114/114/114 123/123/123 122/122/122
f 115/115/115 116/116/116 124/124/124
f 115/115/115 124/124/124 123/123/123
f 116/116/116 117/117/117 125/125/125
f 116/116/116 125/125/125 124/124/124
f 117/117/117 118/118/118 126/126/126
f 117/117/117 126/126/126 125/125/125
f 118/118/118 119/119/119 127/127/127
f 118/118/118 127/127/127 126/126/126
f 119/119/119 120/120/120 128/128/128
f 119/119/119 128/128/128 127/127/127
f 129/129/129 130/130/130 138/138/138
f 129/129/129 138/138/138 137/137/137
f 130/130/130 131/131/131 139/139/139
f 130/130/130 139/139/139 138/138/138
f 131/131/131 132/132/132 140/140/140
f 131/131/131 140/140/140 139/139/139
f 132/132/132 133/133/133 141/141/141
f 132/132/132 141/141/141 140/140/140
f 133/133/133 134/134/134 142/142/142
f 133/133/133 142/142/142 141/141/141
f 134/134/134 135/135/135 143/143/143
f 134/134/134 143/143/143 142/142/142
f 135/135/135 136/136/136 144/144/144
f 135/135/135 144/144/144 143/143/143
f 137/137/137 138/138/138 146/146/146
f 137/137/137 146/146/146 145/145/145
f 138/138/138 139/139/139 147/147/147
f 138/138/138 147/147/147 146/146/146
f 139/139/139 140/140/140 148/148/148
f 139/139/139 148/148/148 147/147/147
f 140/140/140 141/141/141 149/149/149
f 140/140/140 149/149/149 148/148/148
f 141/141/141 142/142/142 150/150/150
f 141/141/141 150/150/150 149/149/149
f 142/142/142 143/143/143 151/151/151
f 142/142/142 151/151/151 150/150/150
f 143/143/143 144/144/144 152/152/152
f 143/143/143 152/152/152 151/151/151
f 145/145/145 146/146/146 154/154/154
f 145/145/145 154/154/154 153/153/153
f 146/146/146 147/147/147 155/155/155
f 146/146/146 155/155/155 154/154/154
f 147/147/147 148/148/148 156/156/156
f 147/147/147 156/156/156 155/155/155
f 148/148/148 149/149/149 157/157/157
f 148/148/148 157/157/157 156/156/156
f 149/149/149 150/150/150 158/158/158
f 149/149/149 158/158/158 157/157/157
f 150/150/150 151/151/151 159/159/159
f 150/150/150 159/159/159 158/158/158
f 151/151/151 152/152/152 160/160/160
f 151/151/151 160/160/160 159/159/159
f 153/153/153 154/154/154 162/162/162
f 153/153/153 162/162/162 161/161/161
f 154/154/154 155/155/155 163/163/163
f 154/154/154 163/163/163 162/162/162
f 155/155/155 156/156/156 164/164/164
f 155/155/155 164/164/164 163/163/163
f 156/156/156 157/157/157 165/165/165
f 156/156/156 165/165/165 164/164/164
f 157/157/157 158/158/158 166/166/166
f 157/157/157 166/166/166 165/165/165
f 158/158/158 159/159/159 167/167/167
f 158/158/158 167/167/167 166/166/166
f 159/159/159 160/160/160 168/168/168
f 159/159/159 168/168/168 167/167/167
f 161/161/161 162/162/162 170/170/170
f 161/161/161 170/170/170 169/169/169
f 162/162/162 163/163/163 171/171/171
f 162/162/162 171/171/171 170/170/170
f 163/163/163 164/164/164 172/172/172
f 163/163/163 172/172/172 171/171/171
f 164/164/164 165/165/165 173/173/173
f 164/164/164 173/173/173 172/172/172
f 165/165/165 166/166/166 174/174/174
f 165/165/165 174/174/174 173/173/173
f 166/166/166 167/167/167 175/175/175
f 166/166/166 175/175/175 174/174/174
f 167/167/167 168/168/168 176/176/176
f 167/167/167 176/176/176 175/175/175
f 169/169/169 170/170/170 178/178/178
f 169/169/169 178/178/178 177/177/177
f 170/170/170 171/171/171 179/179/179
f 170/170/170 179/179/179 178/178/178
f 171/171/171 172/172/172 180/180/180
f 171/171/171 180/180/180 179/179/179
f 172/172/172 173/173/173 181/181/181
f 172/172/172 181/181/181 180/180/180
f 173/173/173 174/174/174 182/182/182
f 173/173/173 182/182/182 181/181/181
f 174/174/174 175/175/175 183/183/183
f 174/174/174 183/183/183 182/182/182
f 175/175/175 176/176/176 184/184/184
f 175/175/175 184/184/184 183/183/183
f 177/177/177 178/178/178 186/186/186
f 177/177/177 186/186/186 185/185/185
f 178/178/178 179/179/179 187/187/187
f 178/178/178 187/187/187 186/186/186
f 179/179/179 180/180/180 188/188/188
f 179/179/179 188/188/188 187/187/187
f 180/180/180 181/181/181 189/189/189
f 180/180/180 189/189/189 188/188/188
f 181/181/181 182/182/182 190/190/190
f 181/181/181 190/190/190 189/189/189
f 182/182/182 183/183/183 191/191/191
f 182/182/182 191/191/191 190/190/190
f 183/183/183 184/184/184 192/192/192
f 183/183/183 192/192/192 191/191/191
f 193/193/193 194/194/194 202/202/202
f 193/193/193 202/202/202 201/201/201
f 194/194/194 195/195/195 203/203/203
f 194/194/194 203/203/203 202/202/202
f 195/195/195 196/196/196 204/204/204
f 195/195/195 204/204/204 203/203/203
f 196/196/196 197/197/197 205/205/205
f 196/196/196 205/205/205 204/204/204
f 197/197/197 198/198/198 206/206/206
f 197/197/197 206/206/206 205/205/205
f 198/198/198 199/199/199 207/207/207
f 198/198/198 207/207/207 206/206/206
f 199/199/199 200/200/200 208/208/208
f 199/199/199 208/208/208 207/207/207
f 201/201/201 202/202/202 210/210/210
f 201/201/201 210/210/210 209/209/209
f 202/202/202 203/203/203 211/211/211
f 202/202/202 211/211/211 210/210/210
f 203/203/203 204/204/204 212/212/212
f 203/203/203 212/212/212 211/211/211
f 204/204/204 205/205/205 213/213/213
f 204/204/204 213/213/213 212/212/212
f 205/205/205 206/206/206 214/214/214
f 205/205/205 214/214/214 213/213/213
f 206/206/206 207/207/207 215/215/215
f 206/206/206 215/215/215 214/214/214
f 207/207/207 208/208/208 216/216/216
f 207/207/207 216/216/216 215/215/215
f 209/209/209 210/210/210 218/218/218
f 209/209/209 218/218/218 217/217/217
f 210/210/210 211/211/211 219/219/219
f 210/210/210 219/219/219 218/218/218
f 211/211/211 212/212/212 220/220/220
f 211/211/211 220/220/220 219/219/219
f 212/212/212 213/213/213 221/221/221
f 212/212/212 221/221/221 220/220/220
f 213/213/213 214/214/214 222/222/222
f 213/213/213 222/222/222 221/221/221
f 214/214/214 215/215/215 223/223/223
f 214/214/214 223/223/223 222/222/222
f 215/215/215 216/216/216 224/224/224
f 215/215/215 224/224/224 223/223/223
f 217/217/217 218/218/218 226/226/226
f 217/217/217 226/226/226 225/225/225
f 218/218/218 219/219/219 227/227/227
f 218/218/218 227/227/227 226/226/226
f 219/219/219 220/220/220 228/228/228
f 219/219/219 228/228/228 227/227/227
f 220/220/220 221/221/221 229/229/229
f 220/220/220 229/229/229 228/228/228
f 221/221/221 222/222/222 230/230/230
f 221/221/221 230/230/230 229/229/229
f 222/222/222 223/223/223 231/231/231
f 222/222/222 231/231/231 230/230/230
f 223/223/223 224/224/224 232/232/232
f 223/223/223 232/232/232 231/231/231
f 225/225/225 226/226/226 234/234/234
f 225/225/225 234/234/234 233/233/233
f 226/226/226 227/227/227 235/235/235
f 226/226/226 235/235/235 234/234/234
f 227/227/227 228/228/228 236/236/236
f 227/227/227 236/236/236 235/235/235
f 228/228/228 229/229/229 237/237/237
f 228/228/228 237/237/237 236/236/236
f 229/229/229 230/230/230 238/238/238
f 229/229/229 238/238/238 237/237/237
f 230/230/230 231/231/231 239/239/239
f 230/230/230 239/239/239 238/238/238
f 231/231/231 232/232/232 240/240/240
f 231/231/231 240/240/240 239/239/239
f 233/233/233 234/234/234 242/242/242
f 233/233/233 242/242/242 241/241/241
f 234/234/234 235/235/235 243/243/243
f 234/234/234 243/243/243 242/242/242
f 235/235/235 236/236/236 244/244/244
f 235/235/235 244/244/244 243/243/243
f 236/236/236 237/237/237 245/245/245
f 236/236/236 245/245/245 244/244/244
f 237/237/237 238/238/238 246/246/246
f 237/237/237 246/246/246 245/245/245
f 238/238/238 239/239/239 247/247/247
f 238/238/238 247/247/247 246/246/246
f 239/239/239 240/240/240 248/248/248
f 239/239/239 248/248/248 247/247/247
f 241/241/241 242/242/242 250/250/250
f 241/241/241 250/250/250 249/249/249
f 242/242/242 243/243/243 251/251/251
f 242/242/242 251/251/251 250/250/250
f 243/243/243 244/244/244 252/252/252
f 243/243/243 252/252/252 251/251/251
f 244/244/244 245/245/245 253/253/253
f 244/244/244 253/253/253 252/252/252
f 245/245/245 246/246/246 254/254/254
f 245/245/245 254/254/254 253/253/253
f 246/246/246 247/247/247 255/255/255
f 246/246/246 255/255/255 254/254/254
f 247/247/247 248/248/248 256/256/256
f 247/247/247 256/256/256 255/255/255
f 257/257/257 258/258/258 266/266/266
f 257/257/257 266/266/266 265/265/265
f 258/258/258 259/259/259 267/267/267
f 258/258/258 267/267/267 266/266/266
f 259/259/259 260/260/260 268/268/268
f 259/259/259 268/268/268 267/267/267
f 260/260/260 261/261/261 269/269/269
f 260/260/260 269/269/269 268/268/268
f 261/261/261 262/262/262 270/270/270
f 261/261/261 270/270/270 269/269/269
f 262/262/262 263/263/263 271/271/271
f 262/262/262 271/271/271 270/270/270
f 263/263/263 264/264/264 272/272/272
f 263/263/263 272/272/272 271/271/271
f 265/265/265 266/266/266 274/274/274
f 265/265/265 274/274/274 273/273/273
f 266/266/266 267/267/267 275/275/275
f 266/266/266 275/275/275 274/274/274
f 267/267/267 268/268/268 276/276/276
f 267/267/267 276/276/276 275/275/275
f 268/268/268 269/269/269 277/277/277
f 268/268/268 277/277/277 276/276/276
f 269/269/269 270/270/270 278/278/278
f 269/269/269 278/278/278 277/277/277
f 270/270/270 271/271/271 279/279/279
f 270/270/270 279/279/279 278/278/278
f 271/271/271 272/272/272 280/280/280
f 271/271/271 280/280/280 279/279/279
f 273/273/273 274/274/274 282/282/282
f 273/273/273 282/282/282 281/281/281
f 274/274/274 275/275/275 283/283/283
f 274/274/274 283/283/283 282/282/282
f 275/275/275 276/276/276 284/284/284
f 275/275/275 284/284/284 283/283/283
f 276/276/276 277/277/277 285/285/285
f 276/276/276 285/285/285 284/284/284
f 277/277/277 278/278/278 286/286/286
f 277/277/277 286/286/286 285/285/285
f 278/278/278 279/279/279 287/287/287
f 278/278/278 287/287/287 286/286/286
f 279/279/279 280/280/280 288/288/288
f 279/279/279 288/288/288 287/287/287
f 281/281/281 282/282/282 290/290/290
f 281/281/281 290/290/290 289/289/289
f 282/282/282 283/283/283 291/291/291
f 282/282/282 291/291/291 290/290/290
f 283/283/283 284/284/284 292/292/292
f 283/283/283 292/292/292 291/291/291
f 284/284/284 285/285/285 293/293/293
f 284/284/284 293/293/293 292/292/292
f 285/285/285 286/286/286 294/294/294
f 285/285/285 294/294/294 293/293/293
f 286/286/286 287/287/287 295/295/295
f 286/286/286 295/295/295 294/294/294
f 287/287/287 288/288/288 296/296/296
f 287/287/287 296/296/296 295/295/295
f 289/289/289 290/290/290 298/298/298
f 289/289/289 298/298/298 297/297/297
f 290/290/290 291/291/291 299/299/299
f 290/290/290 299/299/299 298/298/298
f 291/291/291 292/292/292 300/300/300
f 291/291/291 300/300/300 299/299/299
f 292/292/292 293/293/293 301/301/301
f 292/292/292 301/301/301 300/300/300
f 293/293/293 294/294/294 302/302/302
f 293/293/293 302/302/302 301/301/301
f 294/294/294 295/295/295 303/303/303
f 294/294/294 303/303/303 302/302/302
f 295/295/295 296/296/296 304/304/304
f 295/295/295 304/304/304 303/303/303
f 297/297/297 298/298/298 306/306/306
f 297/297/297 306/306/306 305/305/305
f 298/298/298 299/299/299 307/307/307
f 298/298/298 307/307/307 306/306/306
f 299/299/299 300/300/300 308/308/308
f 299/299/299 308/308/308 307/307/307
f 300/300/300 301/301/301 309/309/309
f 300/300/300 309/309/309 308/308/308
f 301/301/301 302/302/302 310/310/310
f 301/301/301 310/310/310 309/309/309
f 302/302/302 303/303/303 311/311/311
f 302/302/302 311/311/311 310/310/310
f 303/303/303 304/304/304 312/312/312
f 303/303/303 312/312/312 311/311/311
f 305/305/305 306/306/306 314/314/314
f 305/305/305 314/314/314 313/313/313
f 306/306/306 307/307/307 315/315/315
f 306/306/306 315/315/315 314/314/314
f 307/307/307 308/308/308 316/316/316
f 307/307/307 316/316/316 315/315/315
f 308/308/308 309/309/309 317/317/317
f 308/308/308 317/317/317 316/316/316
f 309/309/309 310/310/310 318/318/318
f 309/309/309 318/318/318 317/317/317
f 310/310/310 311/311/311 319/319/319
f 310/310/310 319/319/319 318/318/318
f 311/311/311 312/312/312 320/320/320
f 311/311/311 320/320/320 319/319/319
f 321/321/321 322/322/322 330/330/330
f 321/321/321 330/330/330 329/329/329
f 322/322/322 323/323/323 331/331/331
f 322/322/322 331/331/331 330/330/330
f 323/323/323 324/324/324 332/332/332
f 323/323/323 332/332/332 331/331/331
f 324/324/324 325/325/325 333/333/333
f 324/324/324 333/333/333 332/332/332
f 325/325/325 326/326/326 334/334/334
f 325/325/325 334/334/334 333/333/333
f 326/326/326 327/327/327 335/335/335
f 326/326/326 335/335/335 334/334/334
f 327/327/327 328/328/328 336/336/336
f 327/327/327 336/336/336 335/335/335
f 329/329/329 330/330/330 338/338/338
f 329/329/329 338/338/338 337/337/337
f 330/330/330 331/331/331 339/339/339
f 330/330/330 339/339/339 338/338/338
f 331/331/331 332/332/332 340/340/340
f 331/331/331 340/340/340 339/339/339
f 332/332/332 333/333/333 341/341/341
f 332/332/332 341/341/341 340/340/340
f 333/333/333 334/334/334 342/342/342
f 333/333/333 342/342/342 341/341/341
f 334/334/334 335/335/335 343/343/343
f 334/334/334 343/343/343 342/342/342
f 335/335/335 336/336/336 344/344/344
f 335/335/335 344/344/344 343/343/343
f 337/337/337 338/338/338 346/346/346
f 337/337/337 346/346/346 345/345/345
f 338/338/338 339/339/339 347/347/347
f 338/338/338 347/347/347 346/346/346
f 339/339/339 340/340/340 348/348/348
f 339/339/339 348/348/348 347/347/347
f 340/340/340 341/341/341 349/349/349
f 340/340/340 349/349/349 348/348/348
f 341/341/341 342/342/342 350/350/350
f 341/341/341 350/350/350 349/349/349
f 342/342/342 343/343/343 351/351/351
f 342/342/342 351/351/351 350/350/350
f 343/343/343 344/344/344 352/352/352
f 343/343/343 352/352/352 351/351/351
f 345/345/345 346/346/346 354/354/354
f 345/345/345 354/354/354 353/353/353
f 346/346/346 347/347/347 355/355/355
f 346/346/346 355/355/355 354/354/354
f 347/347/347 348/348/348 356/356/356
f 347/347/347 356/356/356 355/355/355
f 348/348/348 349/349/349 357/357/357
f 348/348/348 357/357/357 356/356/356
f 349/349/349 350/350/350 358/358/358
f 349/349/349 358/358/358 357/357/357
f 350/350/350 351/351/351 359/359/359
f 350/350/350 359/359/359 358/358/358
f 351/351/351 352/352/352 360/360/360
f 351/351/351 360/360/360 359/359/359
f 353/353/353 354/354/354 362/362/362
f 353/353/353 362/362/362 361/361/361
f 354/354/354 355/355/355 363/363/363
f 354/354/354 363/363/363 362/362/362
f 355/355/355 356/356/356 364/364/364
f 355/355/355 364/364/364 363/363/363
f 356/356/356 357/357/357 365/365/365
f 356/356/356 365/365/365 364/364/364
f 357/357/357 358/358/358 366/366/366
f 357/357/357 366/366/366 365/365/365
f 358/358/358 359/359/359 367/367/367
f 358/358/358 367/367/367 366/366/366
f 359/359/359 360/360/360 368/368/368
f 359/359/359 368/368/368 367/367/367
f 361/361/361 362/362/362 370/370/370
f 361/361/361 370/370/370 369/369/369
f 362/362/362 363/363/363 371/371/371
f 362/362/362 371/371/371 370/370/370
f 363/363/363 364/364/364 372/372/372
f 363/363/363 372/372/372 371/371/371
f 364/364/364 365/365/365 373/373/373
f 364/364/364 373/373/373 372/372/372
f 365/365/365 366/366/366 374/374/374
f 365/365/365 374/374/374 373/373/373
f 366/366/366 367/367/367 375/375/375
f 366/366/366 375/375/375 374/374/374
f 367/367/367 368/368/368 376/376/376
f 367/367/367 376/376/376 375/375/375
f 369/369/369 370/370/370 378/378/378
f 369/369/369 378/378/378 377/377/377
f 370/370/370 371/371/371 379/379/379
f 370/370/370 379/379/379 378/378/378
f 371/371/371 372/372/372 380/380/380
f 371/371/371 380/380/380 379/379/379
f 372/372/372 373/373/373 381/381/381
f 372/372/372 381/381/381 380/380/380
f 373/373/373 374/374/374 382/382/382
f 373/373/373 382/382/382 381/381/381
f 374/374/374 375/375/375 383/383/383
f 374/374/374 383/383/383 382/382/382
f 375/375/375 376/376/376 384/384/384
f 375/375/375 384/384/384 383/383/383
usemtl metal
f 385/385/385 386/386/386 390/390/390
f 385/385/385 390/390/390 389/389/389
f 386/386/386 387/387/387 391/391/391
f 386/386/386 391/391/391 390/390/390
f 387/387/387 388/388/388 392/392/392
f 387/387/387 392/392/392 391/391/391
f 389/389/389 390/390/390 394/394/394
f 389/389/389 394/394/394 393/393/393
f 390/390/390 391/391/391 395/395/395
f 390/390/390 395/395/395 394/394/394
f 391/391/391 392/392/392 396/396/396
f 391/391/391 396/396/396 395/395/395
f 393/393/393 394/394/394 398/398/398
f 393/393/393 398/398/398 397/397/397
f 394/394/394 395/395/395 399/399/399
f 394/394/394 399/399/399 398/398/398
f 395/395/395 396/396/396 400/400/400
f 395/395/395 400/400/400 399/399/399
f 401/401/401 402/402/402 406/406/406
f 401/401/401 406/406/406 405/405/405
f 402/402/402 403/403/403 407/407/407
f 402/402/402 407/407/407 406/406/406
f 403/403/403 404/404/404 408/408/408
f 403/403/403 408/408/408 407/407/407
f 405/405/405 406/406/406 410/410/410
f 405/405/405 410/410/410 409/409/409
f 406/406/406 407/407/407 411/411/411
f 406/406/406 411/411/411 410/410/410
f 407/407/407 408/408/408 412/412/412
f 407/407/407 412/412/412 411/411/411
f 409/409/409 410/410/410 414/414/414
f 409/409/409 414/414/414 413/413/413
f 410/410/410 411/411/411 415/415/415
f 410/410/410 415/415/415 414/414/414
f 411/411/411 412/412/412 416/416/416
f 411/411/411 416/416/416 415/415/415
f 417/417/417 418/418/418 422/422/422
f 417/417/417 422/422/422 421/421/421
f 418/418/418 419/419/419 423/423/423
f 418/418/418 423/423/423 422/422/422
f 419/419/419 420/420/420 424/424/424
f 419/419/419 424/424/424 423/423/423
f 421/421/421 422/422/422 426/426/426
f 421/421/421 426/426/426 425/425/425
f 422/422/422 423/423/423 427/427/427
f 422/422/422 427/427/427 426/426/426
f 423/423/423 424/424/424 428/428/428
f 423/423/423 428/428/428 427/427/427
f 425/425/425 426/426/426 430/430/430
f 425/425/425 430/430/430 429/429/429
f 426/426/426 427/427/427 431/431/431
f 426/426/426 431/431/431 430/430/430
f 427/427/427 428/428/428 432/432/432
f 427/427/427 432/432/432 431/431/431
f 433/433/433 434/434/434 438/438/438
f 433/433/433 438/438/438 437/437/437
f 434/434/434 435/435/435 439/439/439
f 434/434/434 439/439/439 438/438/438
f 435/435/435 436/436/436 440/440/440
f 435/435/435 440/440/440 439/439/439
f 437/437/437 438/438/438 442/442/442
f 437/437/437 442/442/442 441/441/441
f 438/438/438 439/439/439 443/443/443
f 438/438/438 443/443/443 442/442/442
f 439/439/439 440/440/440 444/444/444
f 439/439/439 444/444/444 443/443/443
f 441/441/441 442/442/442 446/446/446
f 441/441/441 446/446/446 445/445/445
f 442/442/442 443/443/443 447/447/447
f 442/442/442 447/447/447 446/446/446
f 443/443/443 444/444/444 448/448/448
f 443/443/443 448/448/448 447/447/447
f 449/449/449 450/450/450 454/454/454
f 449/449/449 454/454/454 453/453/453
f 450/450/450 451/451/451 455/455/455
f 450/450/450 455/455/455 454/454/454
f 451/451/451 452/452/452 456/456/456
f 451/451/451 456/456/456 455/455/455
f 453/453/453 454/454/454 458/458/458
f 453/453/453 458/458/458 457/457/457
f 454/454/454 455/455/455 459/459/459
f 454/454/454 459/459/459 458/458/458
f 455/455/455 456/456/456 460/460/460
f 455/455/455 460/460/460 459/459/459
f 457/457/457 458/458/458 462/462/462
f 457/457/457 462/462/462 461/461/461
f 458/458/458 459/459/459 463/463/463
f 458/458/458 463/463/463 462/462/462
f 459/459/459 460/460/460 464/464/464
f 459/459/459 464/464/464 463/463/463
f 465/465/465 466/466/466 470/470/470
f 465/465/465 470/470/470 469/469/469
f 466/466/466 467/467/467 471/471/471
f 466/466/466 471/471/471 470/470/470
f 467/467/467 468/468/468 472/472/472
f 467/467/467 472/472/472 471/471/471
f 469/469/469 470/470/470 474/474/474
f 469/469/469 474/474/474 473/473/473
f 470/470/470 471/471/471 475/475/475
f 470/470/470 475/475/475 474/474/474
f 471/471/471 472/472/472 476/476/476
f 471/471/471 476/476/476 475/475/475
f 473/473/473 474/474/474 478/478/478
f 473/473/473 478/478/478 477/477/477
f 474/474/474 475/475/475 479/479/479
f 474/474/474 479/479/479 478/478/478
f 475/475/475 476/476/476 480/480/480
f 475/475/475 480/480/480 479/479/479
f 481/481/481 482/482/482 486/486/486
f 481/481/481 486/486/486 485/485/485
f 482/482/482 483/483/483 487/487/487
f 482/482/482 487/487/487 486/486/486
f 483/483/483 484/484/484 488/488/488
f 483/483/483 488/488/488 487/487/487
f 485/485/485 486/486/486 490/490/490
f 485/485/485 490/490/490 489/489/489
f 486/486/486 487/487/487 491/491/491
f 486/486/486 491/491/491 490/490/490
f 487/487/487 488/488/488 492/492/492
f 487/487/487 492/492/492 491/491/491
f 489/489/489 490/490/490 494/494/494
f 489/489/489 494/494/494 493/493/493
f 490/490/490 491/491/491 495/495/495
f 490/490/490 495/495/495 494/494/494
f 491/491/491 492/492/492 496/496/496
f 491/491/491 496/496/496 495/495/495
f 497/497/497 498/498/498 502/502/502
f 497/497/497 502/502/502 501/501/501
f 498/498/498 499/499/499 503/503/503
f 498/498/498 503/503/503 502/502/502
f 499/499/499 500/500/500 504/504/504
f 499/499/499 504/504/504 503/503/503
f 501/501/501 502/502/502 506/506/506
f 501/501/501 506/506/506 505/505/505
f 502/502/502 503/503/503 507/507/507
f 502/502/502 507/507/507 506/506/506
f 503/503/503 504/504/504 508/508/508
f 503/503/503 508/508/508 507/507/507
f 505/505/505 506/506/506 510/510/510
f 505/505/505 510/510/510 509/509/509
f 506/506/506 507/507/507 511/511/511
f 506/506/506 511/511/511 510/510/510
f 507/507/507 508/508/508 512/512/512
f 507/507/507 512/512/512 511/511/511
f 513/513/513 514/514/514 518/518/518
f 513/513/513 518/518/518 517/517/517
f 514/514/514 515/515/515 519/519/519
f 514/514/514 519/519/519 518/518/518
f 515/515/515 516/516/516 520/520/520
f 515/515/515 520/520/520 519/519/519
f 517/517/517 518/518/518 522/522/522
f 517/517/517 522/522/522 521/521/521
f 518/518/518 519/519/519 523/523/523
f 518/518/518 523/523/523 522/522/522
f 519/519/519 520/520/520 524/524/524
f 519/519/519 524/524/524 523/523/523
f 521/521/521 522/522/522 526/526/526
f 521/521/521 526/526/526 525/525/525
f 522/522/522 523/523/523 527/527/527
f 522/522/522 527/527/527 526/526/526
f 523/523/523 524/524/524 528/528/528
f 523/523/523 528/528/528 527/527/527
f 529/529/529 530/530/530 534/534/534
f 529/529/529 534/534/534 533/533/533
f 530/530/530 531/531/531 535/535/535
f 530/530/530 535/535/535 534/534/534
f 531/531/531 532/532/532 536/536/536
f 531/531/531 536/536/536 535/535/535
f 533/533/533 534/534/534 538/538/538
f 533/533/533 538/538/538 537/537/537
f 534/534/534 535/535/535 539/539/539
f 534/534/534 539/539/539 538/538/538
f 535/535/535 536/536/536 540/540/540
f 535/535/535 540/540/540 539/539/539
f 537/537/537 538/538/538 542/542/542
f 537/537/537 542/542/542 541/541/541
f 538/538/538 539/539/539 543/543/543
f 538/538/538 543/543/543 542/542/542
f 539/539/539 540/540/540 544/544/544
f 539/539/539 544/544/544 543/543/543
f 545/545/545 546/546/546 550/550/550
f 545/545/545 550/550/550 549/549/549
f 546/546/546 547/547/547 551/551/551
f 546/546/546 551/551/551 550/550/550
f 547/547/547 548/548/548 552/552/552
f 547/547/547 552/552/552 551/551/551
f 549/549/549 550/550/550 554/554/554
f 549/549/549 554/554/554 553/553/553
f 550/550/550 551/551/551 555/555/555
f 550/550/550 555/555/555 554/554/554
f 551/551/551 552/552/552 556/556/556
f 551/551/551 556/556/556 555/555/555
f 553/553/553 554/554/554 558/558/558
f 553/553/553 558/558/558 557/557/557
f 554/554/554 555/555/555 559/559/559
f 554/554/554 559/559/559 558/558/558
f 555/555/555 556/556/556 560/560/560
f 555/555/555 560/560/560 559/559/559
f 561/561/561 562/562/562 566/566/566
f 561/561/561 566/566/566 565/565/565
f 562/562/562 563/563/563 567/567/567
f 562/562/562 567/567/567 566/566/566
f 563/563/563 564/564/564 568/568/568
f 563/563/563 568/568/568 567/567/567
f 565/565/565 566/566/566 570/570/570
f 565/565/565 570/570/570 569/569/569
f 566/566/566 567/567/567 571/571/571
f 566/566/566 571/571/571 570/570/570
f 567/567/567 568/568/568 572/572/572
f 567/567/567 572/572/572 571/571/571
f 569/569/569 570/570/570 574/574/574
f 569/569/569 574/574/574 573/573/573
f 570/570/570 571/571/571 575/575/575
f 570/570/570 575/575/575 574/574/574
f 571/571/571 572/572/572 576/576/576
f 571/571/571 576/576/576 575/575/575
f 577/577/577 578/578/578 589/589/589
f 577/577/577 589/589/589 588/588/588
f 578/578/578 579/579/579 590/590/590
f 578/578/578 590/590/590 589/589/589
f 579/579/579 580/580/580 591/591/591
f 579/579/579 591/591/591 590/590/590
f 580/580/580 581/581/581 592/592/592
f 580/580/580 592/592/592 591/591/591
f 581/581/581 582/582/582 593/593/593
f 581/581/581 593/593/593 592/592/592
f 582/582/582 583/583/583 594/594/594
f 582/582/582 594/594/594 593/593/593
f 583/583/583 584/584/584 595/595/595
f 583/583/583 595/595/595 594/594/594
f 584/584/584 585/585/585 596/596/596
f 584/584/584 596/596/596 595/595/595
f 585/585/585 586/586/586 597/597/597
f 585/585/585 597/597/597 596/596/596
f 586/586/586 587/587/587 598/598/598
f 586/586/586 598/598/598 597/597/597
f 588/588/588 589/589/589 600/600/600
f 588/588/588 600/600/600 599/599/599
f 589/589/589 590/590/590 601/601/601
f 589/589/589 601/601/601 600/600/600
f 590/590/590 591/591/591 602/602/602
f 590/590/590 602/602/602 601/601/601
f 591/591/591 592/592/592 603/603/603
f 591/591/591 603/603/603 602/602/602
f 592/592/592 593/593/593 604/604/604
f 592/592/592 604/604/604 603/603/603
f 593/593/593 594/594/594 605/605/605
f 593/593/593 605/605/605 604/604/604
f 594/594/594 595/595/595 606/606/606
f 594/594/594 606/606/606 605/605/605
f 595/595/595 596/596/596 607/607/607
f 595/595/595 607/607/607 606/606/606
f 596/596/596 597/597/597 608/608/608
f 596/596/596 608/608/608 607/607/607
f 597/597/597 598/598/598 609/609/609
f 597/597/597 609/609/609 608/608/608
f 599/599/599 600/600/600 611/611/611
f 599/599/599 611/611/611 610/610/610
f 600/600/600 601/601/601 612/612/612
f 600/600/600 612/612/612 611/611/611
f 601/601/601 602/602/602 613/613/613
f 601/601/601 613/613/613 612/612/612
f 602/602/602 603/603/603 614/614/614
f 602/602/602 614/614/614 613/613/613
f 603/603/603 604/604/604 615/615/615
f 603/603/603 615/615/615 614/614/614
f 604/604/604 605/605/605 616/616/616
f 604/604/604 616/616/616 615/615/615
f 605/605/605 606/606/606 617/617/617
f 605/605/605 617/617/617 616/616/616
f 606/606/606 607/607/607 618/618/618
f 606/606/606 618/618/618 617/617/617
f 607/607/607 608/608/608 619/619/619
f 607/607/607 619/619/619 618/618/618
f 608/608/608 609/609/609 620/620/620
f 608/608/608 620/620/620 619/619/619
f 610/610/610 611/611/611 622/622/622
f 610/610/610 622/622/622 621/621/621
f 611/611/611 612/612/612 623/623/623
f 611/611/611 623/623/623 622/622/622
f 612/612/612 613/613/613 624/624/624
f 612/612/612 624/624/624 623/623/623
f 613/613/613 614/614/614 625/625/625
f 613/613/613 625/625/625 624/624/624
f 614/614/614 615/615/615 626/626/626
f 614/614/614 626/626/626 625/625/625
f 615/615/615 616/616/616 627/627/627
f 615/615/615 627/627/627 626/626/626
f 616/616/616 617/617/617 628/628/628
f 616/616/616 628/628/628 627/627/627
f 617/617/617 618/618/618 629/629/629
f 617/617/617 629/629/629 628/628/628
f 618/618/618 619/619/619 630/630/630
f 618/618/618 630/630/630 629/629/629
f 619/619/619 620/620/620 631/631/631
f 619/619/619 631/631/631 630/630/630
f 621/621/621 622/622/622 633/633/633
f 621/621/621 633/633/633 632/632/632
f 622/622/622 623/623/623 634/634/634
f 622/622/622 634/634/634 633/633/633
f 623/623/623 624/624/624 635/635/635
f 623/623/623 635/635/635 634/634/634
f 624/624/624 625/625/625 636/636/636
f 624/624/624 636/636/636 635/635/635
f 625/625/625 626/626/626 637/637/637
f 625/625/625 637/637/637 636/636/636
f 626/626/626 627/627/627 638/638/638
f 626/626/626 638/638/638 637/637/637
f 627/627/627 628/628/628 639/639/639
f 627/627/627 639/639/639 638/638/638
f 628/628/628 629/629/629 640/640/640
f 628/628/628 640/640/640 639/639/639
f 629/629/629 630/630/630 641/641/641
f 629/629/629 641/641/641 640/640/640
f 630/630/630 631/631/631 642/642/642
f 630/630/630 642/642/642 641/641/641
f 632/632/632 633/633/633 644/644/644
f 632/632/632 644/644/644 643/643/643
f 633/633/633 634/634/634 645/645/645
f 633/633/633 645/645/645 644/644/644
f 634/634/634 635/635/635 646/646/646
f 634/634/634 646/646/646 645/645/645
f 635/635/635 636/636/636 647/647/647
f 635/635/635 647/647/647 646/646/646
f 636/636/636 637/637/637 648/648/648
f 636/636/636 648/648/648 647/647/647
f 637/637/637 638/638/638 649/649/649
f 637/637/637 649/649/649 648/648/648
f 638/638/638 639/639/639 650/650/650
f 638/638/638 650/650/650 649/649/649
f 639/639/639 640/640/640 651/651/651
f 639/639/639 651/651/651 650/650/650
f 640/640/640 641/641/641 652/652/652
f 640/640/640 652/652/652 651/651/651
f 641/641/641 642/642/642 653/653/653
f 641/641/641 653/653/653 652/652/652
f 643/643/643 644/644/644 655/655/655
f 643/643/643 655/655/655 654/654/654
f 644/644/644 645/645/645 656/656/656
f 644/644/644 656/656/656 655/655/655
f 645/645/645 646/646/646 657/657/657
f 645/645/645 657/657/657 656/656/656
f 646/646/646 647/647/647 658/658/658
f 646/646/646 658/658/658 657/657/657
f 647/647/647 648/648/648 659/659/659
f 647/647/647 659/659/659 658/658/658
f 648/648/648 649/649/649 660/660/660
f 648/648/648 660/660/660 659/659/659
f 649/649/649 650/650/650 661/661/661
f 649/649/649 661/661/661 660/660/660
f 650/650/650 651/651/651 662/662/662
f 650/650/650 662/662/662 661/661/661
f 651/651/651 652/652/652 663/663/663
f 651/651/651 663/663/663 662/662/662
f 652/652/652 653/653/653 664/664/664
f 652/652/652 664/664/664 663/663/663
f 654/654/654 655/655/655 666/666/666
f 654/654/654 666/666/666 665/665/665
f 655/655/655 656/656/656 667/667/667
f 655/655/655 667/667/667 666/666/666
f 656/656/656 657/657/657 668/668/668
f 656/656/656 668/668/668 667/667/667
f 657/657/657 658/658/658 669/669/669
f 657/657/657 669/669/669 668/668/668
f 658/658/658 659/659/659 670/670/670
f 658/658/658 670/670/670 669/669/669
f 659/659/659 660/660/660 671/671/671
f 659/659/659 671/671/671 670/670/670
f 660/660/660 661/661/661 672/672/672
f 660/660/660 672/672/672 671/671/671
f 661/661/661 662/662/662 673/673/673
f 661/661/661 673/673/673 672/672/672
f 662/662/662 663/663/663 674/674/674
f 662/662/662 674/674/674 673/673/673
f 663/663/663 664/664/664 675/675/675
f 663/663/663 675/675/675 674/674/674
f 665/665/665 666/666/666 677/677/677
f 665/665/665 677/677/677 676/676/676
f 666/666/666 667/667/667 678/678/678
f 666/666/666 678/678/678 677/677/677
f 667/667/667 668/668/668 679/679/679
f 667/667/667 679/679/679 678/678/678
f 668/668/668 669/669/669 680/680/680
f 668/668/668 680/680/680 679/679/679
f 669/669/669 670/670/670 681/681/681
f 669/669/669 681/681/681 680/680/680
f 670/670/670 671/671/671 682/682/682
f 670/670/670 682/682/682 681/681/681
f 671/671/671 672/672/672 683/683/683
f 671/671/671 683/683/683 682/682/682
f 672/672/672 673/673/673 684/684/684
f 672/672/672 684/684/684 683/683/683
f 673/673/673 674/674/674 685/685/685
f 673/673/673 685/685/685 684/684/684
f 674/674/674 675/675/675 686/686/686
f 674/674/674 686/686/686 685/685/685
f 676/676/676 677/677/677 688/688/688
f 676/676/676 688/688/688 687/687/687
f 677/677/677 678/678/678 689/689/689
f 677/677/677 689/689/689 688/688/688
f 678/678/678 679/679/679 690/690/690
f 678/678/678 690/690/690 689/689/689
f 679/679/679 680/680/680 691/691/691
f 679/679/679 691/691/691 690/690/690
f 680/680/680 681/681/681 692/692/692
f 680/680/680 692/692/692 691/691/691
f 681/681/681 682/682/682 693/693/693
f 681/681/681 693/693/693 692/692/692
f 682/682/682 683/683/683 694/694/694
f 682/682/682 694/694/694 693/693/693
f 683/683/683 684/684/684 695/695/695
f 683/683/683 695/695/695 694/694/694
f 684/684/684 685/685/685 696/696/696
f 684/684/684 696/696/696 695/695/695
f 685/685/685 686/686/686 697/697/697
f 685/685/685 697/697/697 696/696/696
f 687/687/687 688/688/688 699/699/699
f 687/687/687 699/699/699 698/698/698
f 688/688/688 689/689/689 700/700/700
f 688/688/688 700/700/700 699/699/699
f 689/689/689 690/690/690 701/701/701
f 689/689/689 701/701/701 700/700/700
f 690/690/690 691/691/691 702/702/702
f 690/690/690 702/702/702 701/701/701
f 691/691/691 692/692/692 703/703/703
f 691/691/691 703/703/703 702/702/702
f 692/692/692 693/693/693 704/704/704
f 692/692/692 704/704/704 703/703/703
f 693/693/693 694/694/694 705/705/705
f 693/693/693 705/705/705 704/704/704
f 694/694/694 695/695/695 706/706/706
f 694/694/694 706/706/706 705/705/705
f 695/695/695 696/696/696 707/707/707
f 695/695/695 707/707/707 706/706/706
f 696/696/696 697/697/697 708/708/708
f 696/696/696 708/708/708 707/707/707
f 709/709/709 711/711/711 710/710/710
f 709/709/709 712/712/712 711/711/711
f 709/709/709 713/713/713 712/712/712
f 709/709/709 714/714/714 713/713/713
f 709/709/709 715/715/715 714/714/714
f 709/709/709 716/716/716 715/715/715
f 709/709/709 717/717/717 716/716/716
f 709/709/709 718/718/718 717/717/717
f 709/709/709 719/719/719 718/718/718
f 709/709/709 710/710/710 719/719/719
f 720/720/720 721/721/721 722/722/722
f 720/720/720 722/722/722 723/723/723
f 720/720/720 723/723/723 724/724/724
f 720/720/720 724/724/724 725/725/725
f 720/720/720 725/725/725 726/726/726
f 720/720/720 726/726/726 727/727/727
f 720/720/720 727/727/727 728/728/728
f 720/720/720 728/728/728 729/729/729
f 720/720/720 729/729/729 730/730/730
f 720/720/720 730/730/730 721/721/721
