# Sinh tự động bởi tools/mesh_kit.py - đừng sửa tay
o p_arms_seated
v -0.1323 0.4340 -0.0005
v -0.1433 0.4323 0.0336
v -0.1722 0.4336 0.0548
v -0.2078 0.4373 0.0551
v -0.2367 0.4420 0.0344
v -0.2477 0.4460 0.0005
v -0.2367 0.4477 -0.0336
v -0.2078 0.4464 -0.0548
v -0.1722 0.4427 -0.0551
v -0.1433 0.4380 -0.0344
v -0.1323 0.4340 -0.0005
v -0.1673 0.1951 -0.0204
v -0.1764 0.1937 0.0078
v -0.2002 0.1947 0.0254
v -0.2298 0.1977 0.0256
v -0.2536 0.2017 0.0084
v -0.2627 0.2049 -0.0196
v -0.2536 0.2063 -0.0478
v -0.2298 0.2053 -0.0654
v -0.2002 0.2023 -0.0656
v -0.1764 0.1983 -0.0484
v -0.1673 0.1951 -0.0204
v -0.1900 0.4400 0.0000
v -0.1323 0.4340 -0.0005
v -0.1433 0.4323 0.0336
v -0.1722 0.4336 0.0548
v -0.2078 0.4373 0.0551
v -0.2367 0.4420 0.0344
v -0.2477 0.4460 0.0005
v -0.2367 0.4477 -0.0336
v -0.2078 0.4464 -0.0548
v -0.1722 0.4427 -0.0551
v -0.1433 0.4380 -0.0344
v -0.2150 0.2000 -0.0200
v -0.1673 0.1951 -0.0204
v -0.1764 0.1937 0.0078
v -0.2002 0.1947 0.0254
v -0.2298 0.1977 0.0256
v -0.2536 0.2017 0.0084
v -0.2627 0.2049 -0.0196
v -0.2536 0.2063 -0.0478
v -0.2298 0.2053 -0.0654
v -0.2002 0.2023 -0.0656
v -0.1764 0.1983 -0.0484
v -0.1900 0.3800 0.0000
v -0.1900 0.3800 0.0000
v -0.1900 0.3800 0.0000
v -0.1900 0.3800 -0.0000
v -0.1900 0.3800 -0.0000
v -0.1900 0.3800 -0.0000
v -0.1900 0.3800 -0.0000
v -0.1900 0.3800 -0.0000
v -0.1900 0.3800 0.0000
v -0.1900 0.3800 0.0000
v -0.1900 0.3800 0.0000
v -0.1900 0.3880 0.0300
v -0.1724 0.3880 0.0243
v -0.1615 0.3880 0.0093
v -0.1615 0.3880 -0.0093
v -0.1724 0.3880 -0.0243
v -0.1900 0.3880 -0.0300
v -0.2076 0.3880 -0.0243
v -0.2185 0.3880 -0.0093
v -0.2185 0.3880 0.0093
v -0.2076 0.3880 0.0243
v -0.1900 0.3880 0.0300
v -0.1900 0.4100 0.0520
v -0.1595 0.4100 0.0420
v -0.1406 0.4100 0.0161
v -0.1406 0.4100 -0.0161
v -0.1595 0.4100 -0.0420
v -0.1900 0.4100 -0.0520
v -0.2205 0.4100 -0.0420
v -0.2394 0.4100 -0.0161
v -0.2394 0.4100 0.0161
v -0.2205 0.4100 0.0420
v -0.1900 0.4100 0.0520
v -0.1900 0.4400 0.0600
v -0.1547 0.4400 0.0485
v -0.1329 0.4400 0.0185
v -0.1329 0.4400 -0.0185
v -0.1547 0.4400 -0.0485
v -0.1900 0.4400 -0.0600
v -0.2253 0.4400 -0.0485
v -0.2471 0.4400 -0.0185
v -0.2471 0.4400 0.0185
v -0.2253 0.4400 0.0485
v -0.1900 0.4400 0.0600
v -0.1900 0.4700 0.0520
v -0.1595 0.4700 0.0420
v -0.1406 0.4700 0.0161
v -0.1406 0.4700 -0.0161
v -0.1595 0.4700 -0.0420
v -0.1900 0.4700 -0.0520
v -0.2205 0.4700 -0.0420
v -0.2394 0.4700 -0.0161
v -0.2394 0.4700 0.0161
v -0.2205 0.4700 0.0420
v -0.1900 0.4700 0.0520
v -0.1900 0.4920 0.0300
v -0.1724 0.4920 0.0243
v -0.1615 0.4920 0.0093
v -0.1615 0.4920 -0.0093
v -0.1724 0.4920 -0.0243
v -0.1900 0.4920 -0.0300
v -0.2076 0.4920 -0.0243
v -0.2185 0.4920 -0.0093
v -0.2185 0.4920 0.0093
v -0.2076 0.4920 0.0243
v -0.1900 0.4920 0.0300
v -0.1900 0.5000 0.0000
v -0.1900 0.5000 0.0000
v -0.1900 0.5000 0.0000
v -0.1900 0.5000 -0.0000
v -0.1900 0.5000 -0.0000
v -0.1900 0.5000 -0.0000
v -0.1900 0.5000 -0.0000
v -0.1900 0.5000 -0.0000
v -0.1900 0.5000 0.0000
v -0.1900 0.5000 0.0000
v -0.1900 0.5000 0.0000
v -0.2108 0.2438 -0.0392
v -0.1840 0.2354 -0.0295
v -0.1691 0.2135 -0.0161
v -0.1717 0.1865 -0.0043
v -0.1909 0.1646 0.0016
v -0.2192 0.1562 -0.0008
v -0.2460 0.1646 -0.0105
v -0.2609 0.1865 -0.0239
v -0.2583 0.2135 -0.0357
v -0.2391 0.2354 -0.0416
v -0.2108 0.2438 -0.0392
v -0.1565 0.1215 -0.2860
v -0.1342 0.1145 -0.2779
v -0.1218 0.0963 -0.2668
v -0.1239 0.0737 -0.2569
v -0.1399 0.0555 -0.2520
v -0.1635 0.0485 -0.2540
v -0.1858 0.0555 -0.2621
v -0.1982 0.0737 -0.2732
v -0.1961 0.0963 -0.2831
v -0.1801 0.1145 -0.2880
v -0.1565 0.1215 -0.2860
v -0.2150 0.2000 -0.0200
v -0.2108 0.2438 -0.0392
v -0.1840 0.2354 -0.0295
v -0.1691 0.2135 -0.0161
v -0.1717 0.1865 -0.0043
v -0.1909 0.1646 0.0016
v -0.2192 0.1562 -0.0008
v -0.2460 0.1646 -0.0105
v -0.2609 0.1865 -0.0239
v -0.2583 0.2135 -0.0357
v -0.2391 0.2354 -0.0416
v -0.1600 0.0850 -0.2700
v -0.1565 0.1215 -0.2860
v -0.1342 0.1145 -0.2779
v -0.1218 0.0963 -0.2668
v -0.1239 0.0737 -0.2569
v -0.1399 0.0555 -0.2520
v -0.1635 0.0485 -0.2540
v -0.1858 0.0555 -0.2621
v -0.1982 0.0737 -0.2732
v -0.1961 0.0963 -0.2831
v -0.1801 0.1145 -0.2880
v 0.2477 0.4460 0.0005
v 0.2367 0.4420 0.0344
v 0.2078 0.4373 0.0551
v 0.1722 0.4336 0.0548
v 0.1433 0.4323 0.0336
v 0.1323 0.4340 -0.0005
v 0.1433 0.4380 -0.0344
v 0.1722 0.4427 -0.0551
v 0.2078 0.4464 -0.0548
v 0.2367 0.4477 -0.0336
v 0.2477 0.4460 0.0005
v 0.2627 0.2049 -0.0196
v 0.2536 0.2017 0.0084
v 0.2298 0.1977 0.0256
v 0.2002 0.1947 0.0254
v 0.1764 0.1937 0.0078
v 0.1673 0.1951 -0.0204
v 0.1764 0.1983 -0.0484
v 0.2002 0.2023 -0.0656
v 0.2298 0.2053 -0.0654
v 0.2536 0.2063 -0.0478
v 0.2627 0.2049 -0.0196
v 0.1900 0.4400 0.0000
v 0.2477 0.4460 0.0005
v 0.2367 0.4420 0.0344
v 0.2078 0.4373 0.0551
v 0.1722 0.4336 0.0548
v 0.1433 0.4323 0.0336
v 0.1323 0.4340 -0.0005
v 0.1433 0.4380 -0.0344
v 0.1722 0.4427 -0.0551
v 0.2078 0.4464 -0.0548
v 0.2367 0.4477 -0.0336
v 0.2150 0.2000 -0.0200
v 0.2627 0.2049 -0.0196
v 0.2536 0.2017 0.0084
v 0.2298 0.1977 0.0256
v 0.2002 0.1947 0.0254
v 0.1764 0.1937 0.0078
v 0.1673 0.1951 -0.0204
v 0.1764 0.1983 -0.0484
v 0.2002 0.2023 -0.0656
v 0.2298 0.2053 -0.0654
v 0.2536 0.2063 -0.0478
v 0.1900 0.3800 0.0000
v 0.1900 0.3800 0.0000
v 0.1900 0.3800 0.0000
v 0.1900 0.3800 -0.0000
v 0.1900 0.3800 -0.0000
v 0.1900 0.3800 -0.0000
v 0.1900 0.3800 -0.0000
v 0.1900 0.3800 -0.0000
v 0.1900 0.3800 0.0000
v 0.1900 0.3800 0.0000
v 0.1900 0.3800 0.0000
v 0.1900 0.3880 0.0300
v 0.2076 0.3880 0.0243
v 0.2185 0.3880 0.0093
v 0.2185 0.3880 -0.0093
v 0.2076 0.3880 -0.0243
v 0.1900 0.3880 -0.0300
v 0.1724 0.3880 -0.0243
v 0.1615 0.3880 -0.0093
v 0.1615 0.3880 0.0093
v 0.1724 0.3880 0.0243
v 0.1900 0.3880 0.0300
v 0.1900 0.4100 0.0520
v 0.2205 0.4100 0.0420
v 0.2394 0.4100 0.0161
v 0.2394 0.4100 -0.0161
v 0.2205 0.4100 -0.0420
v 0.1900 0.4100 -0.0520
v 0.1595 0.4100 -0.0420
v 0.1406 0.4100 -0.0161
v 0.1406 0.4100 0.0161
v 0.1595 0.4100 0.0420
v 0.1900 0.4100 0.0520
v 0.1900 0.4400 0.0600
v 0.2253 0.4400 0.0485
v 0.2471 0.4400 0.0185
v 0.2471 0.4400 -0.0185
v 0.2253 0.4400 -0.0485
v 0.1900 0.4400 -0.0600
v 0.1547 0.4400 -0.0485
v 0.1329 0.4400 -0.0185
v 0.1329 0.4400 0.0185
v 0.1547 0.4400 0.0485
v 0.1900 0.4400 0.0600
v 0.1900 0.4700 0.0520
v 0.2205 0.4700 0.0420
v 0.2394 0.4700 0.0161
v 0.2394 0.4700 -0.0161
v 0.2205 0.4700 -0.0420
v 0.1900 0.4700 -0.0520
v 0.1595 0.4700 -0.0420
v 0.1406 0.4700 -0.0161
v 0.1406 0.4700 0.0161
v 0.1595 0.4700 0.0420
v 0.1900 0.4700 0.0520
v 0.1900 0.4920 0.0300
v 0.2076 0.4920 0.0243
v 0.2185 0.4920 0.0093
v 0.2185 0.4920 -0.0093
v 0.2076 0.4920 -0.0243
v 0.1900 0.4920 -0.0300
v 0.1724 0.4920 -0.0243
v 0.1615 0.4920 -0.0093
v 0.1615 0.4920 0.0093
v 0.1724 0.4920 0.0243
v 0.1900 0.4920 0.0300
v 0.1900 0.5000 0.0000
v 0.1900 0.5000 0.0000
v 0.1900 0.5000 0.0000
v 0.1900 0.5000 -0.0000
v 0.1900 0.5000 -0.0000
v 0.1900 0.5000 -0.0000
v 0.1900 0.5000 -0.0000
v 0.1900 0.5000 -0.0000
v 0.1900 0.5000 0.0000
v 0.1900 0.5000 0.0000
v 0.1900 0.5000 0.0000
v 0.2108 0.2438 -0.0392
v 0.2391 0.2354 -0.0416
v 0.2583 0.2135 -0.0357
v 0.2609 0.1865 -0.0239
v 0.2460 0.1646 -0.0105
v 0.2192 0.1562 -0.0008
v 0.1909 0.1646 0.0016
v 0.1717 0.1865 -0.0043
v 0.1691 0.2135 -0.0161
v 0.1840 0.2354 -0.0295
v 0.2108 0.2438 -0.0392
v 0.1565 0.1215 -0.2860
v 0.1801 0.1145 -0.2880
v 0.1961 0.0963 -0.2831
v 0.1982 0.0737 -0.2732
v 0.1858 0.0555 -0.2621
v 0.1635 0.0485 -0.2540
v 0.1399 0.0555 -0.2520
v 0.1239 0.0737 -0.2569
v 0.1218 0.0963 -0.2668
v 0.1342 0.1145 -0.2779
v 0.1565 0.1215 -0.2860
v 0.2150 0.2000 -0.0200
v 0.2108 0.2438 -0.0392
v 0.2391 0.2354 -0.0416
v 0.2583 0.2135 -0.0357
v 0.2609 0.1865 -0.0239
v 0.2460 0.1646 -0.0105
v 0.2192 0.1562 -0.0008
v 0.1909 0.1646 0.0016
v 0.1717 0.1865 -0.0043
v 0.1691 0.2135 -0.0161
v 0.1840 0.2354 -0.0295
v 0.1600 0.0850 -0.2700
v 0.1565 0.1215 -0.2860
v 0.1801 0.1145 -0.2880
v 0.1961 0.0963 -0.2831
v 0.1982 0.0737 -0.2732
v 0.1858 0.0555 -0.2621
v 0.1635 0.0485 -0.2540
v 0.1399 0.0555 -0.2520
v 0.1239 0.0737 -0.2569
v 0.1218 0.0963 -0.2668
v 0.1342 0.1145 -0.2779
vt 0.0000 0.0000
vt 0.0000 0.0364
vt 0.0000 0.0729
vt 0.0000 0.1093
vt 0.0000 0.1458
vt 0.0000 0.1822
vt 0.0000 0.2187
vt 0.0000 0.2551
vt 0.0000 0.2915
vt 0.0000 0.3280
vt 0.0000 0.3644
vt 0.2421 0.0000
vt 0.2421 0.0364
vt 0.2421 0.0729
vt 0.2421 0.1093
vt 0.2421 0.1458
vt 0.2421 0.1822
vt 0.2421 0.2187
vt 0.2421 0.2551
vt 0.2421 0.2915
vt 0.2421 0.3280
vt 0.2421 0.3644
vt 0.0000 0.0000
vt 0.0580 0.0000
vt 0.0469 0.0341
vt 0.0179 0.0552
vt -0.0179 0.0552
vt -0.0469 0.0341
vt -0.0580 0.0000
vt -0.0469 -0.0341
vt -0.0179 -0.0552
vt 0.0179 -0.0552
vt 0.0469 -0.0341
vt 0.0000 0.0000
vt 0.0480 0.0000
vt 0.0388 0.0282
vt 0.0148 0.0457
vt -0.0148 0.0457
vt -0.0388 0.0282
vt -0.0480 0.0000
vt -0.0388 -0.0282
vt -0.0148 -0.0457
vt 0.0148 -0.0457
vt 0.0388 -0.0282
vt 0.0000 0.0000
vt 0.0371 0.0000
vt 0.0742 0.0000
vt 0.1112 0.0000
vt 0.1483 0.0000
vt 0.1854 0.0000
vt 0.2225 0.0000
vt 0.2596 0.0000
vt 0.2967 0.0000
vt 0.3337 0.0000
vt 0.3708 0.0000
vt 0.0000 0.0311
vt 0.0371 0.0311
vt 0.0742 0.0311
vt 0.1112 0.0311
vt 0.1483 0.0311
vt 0.1854 0.0311
vt 0.2225 0.0311
vt 0.2596 0.0311
vt 0.2967 0.0311
vt 0.3337 0.0311
vt 0.3708 0.0311
vt 0.0000 0.0621
vt 0.0371 0.0621
vt 0.0742 0.0621
vt 0.1112 0.0621
vt 0.1483 0.0621
vt 0.1854 0.0621
vt 0.2225 0.0621
vt 0.2596 0.0621
vt 0.2967 0.0621
vt 0.3337 0.0621
vt 0.3708 0.0621
vt 0.0000 0.0932
vt 0.0371 0.0932
vt 0.0742 0.0932
vt 0.1112 0.0932
vt 0.1483 0.0932
vt 0.1854 0.0932
vt 0.2225 0.0932
vt 0.2596 0.0932
vt 0.2967 0.0932
vt 0.3337 0.0932
vt 0.3708 0.0932
vt 0.0000 0.1242
vt 0.0371 0.1242
vt 0.0742 0.1242
vt 0.1112 0.1242
vt 0.1483 0.1242
vt 0.1854 0.1242
vt 0.2225 0.1242
vt 0.2596 0.1242
vt 0.2967 0.1242
vt 0.3337 0.1242
vt 0.3708 0.1242
vt 0.0000 0.1553
vt 0.0371 0.1553
vt 0.0742 0.1553
vt 0.1112 0.1553
vt 0.1483 0.1553
vt 0.1854 0.1553
vt 0.2225 0.1553
vt 0.2596 0.1553
vt 0.2967 0.1553
vt 0.3337 0.1553
vt 0.3708 0.1553
vt 0.0000 0.1863
vt 0.0371 0.1863
vt 0.0742 0.1863
vt 0.1112 0.1863
vt 0.1483 0.1863
vt 0.1854 0.1863
vt 0.2225 0.1863
vt 0.2596 0.1863
vt 0.2967 0.1863
vt 0.3337 0.1863
vt 0.3708 0.1863
vt 0.0000 0.0000
vt 0.0000 0.0302
vt 0.0000 0.0603
vt 0.0000 0.0905
vt 0.0000 0.1206
vt 0.0000 0.1508
vt 0.0000 0.1810
vt 0.0000 0.2111
vt 0.0000 0.2413
vt 0.0000 0.2714
vt 0.0000 0.3016
vt 0.2806 0.0000
vt 0.2806 0.0302
vt 0.2806 0.0603
vt 0.2806 0.0905
vt 0.2806 0.1206
vt 0.2806 0.1508
vt 0.2806 0.1810
vt 0.2806 0.2111
vt 0.2806 0.2413
vt 0.2806 0.2714
vt 0.2806 0.3016
vt 0.0000 0.0000
vt 0.0480 0.0000
vt 0.0388 0.0282
vt 0.0148 0.0457
vt -0.0148 0.0457
vt -0.0388 0.0282
vt -0.0480 0.0000
vt -0.0388 -0.0282
vt -0.0148 -0.0457
vt 0.0148 -0.0457
vt 0.0388 -0.0282
vt 0.0000 0.0000
vt 0.0400 0.0000
vt 0.0324 0.0235
vt 0.0124 0.0380
vt -0.0124 0.0380
vt -0.0324 0.0235
vt -0.0400 0.0000
vt -0.0324 -0.0235
vt -0.0124 -0.0380
vt 0.0124 -0.0380
vt 0.0324 -0.0235
vt 0.0000 0.0000
vt 0.0000 0.0364
vt 0.0000 0.0729
vt 0.0000 0.1093
vt 0.0000 0.1458
vt 0.0000 0.1822
vt 0.0000 0.2187
vt 0.0000 0.2551
vt 0.0000 0.2915
vt 0.0000 0.3280
vt 0.0000 0.3644
vt 0.2421 0.0000
vt 0.2421 0.0364
vt 0.2421 0.0729
vt 0.2421 0.1093
vt 0.2421 0.1458
vt 0.2421 0.1822
vt 0.2421 0.2187
vt 0.2421 0.2551
vt 0.2421 0.2915
vt 0.2421 0.3280
vt 0.2421 0.3644
vt 0.0000 0.0000
vt 0.0580 0.0000
vt 0.0469 0.0341
vt 0.0179 0.0552
vt -0.0179 0.0552
vt -0.0469 0.0341
vt -0.0580 0.0000
vt -0.0469 -0.0341
vt -0.0179 -0.0552
vt 0.0179 -0.0552
vt 0.0469 -0.0341
vt 0.0000 0.0000
vt 0.0480 0.0000
vt 0.0388 0.0282
vt 0.0148 0.0457
vt -0.0148 0.0457
vt -0.0388 0.0282
vt -0.0480 0.0000
vt -0.0388 -0.0282
vt -0.0148 -0.0457
vt 0.0148 -0.0457
vt 0.0388 -0.0282
vt 0.0000 0.0000
vt 0.0371 0.0000
vt 0.0742 0.0000
vt 0.1112 0.0000
vt 0.1483 0.0000
vt 0.1854 0.0000
vt 0.2225 0.0000
vt 0.2596 0.0000
vt 0.2967 0.0000
vt 0.3337 0.0000
vt 0.3708 0.0000
vt 0.0000 0.0311
vt 0.0371 0.0311
vt 0.0742 0.0311
vt 0.1112 0.0311
vt 0.1483 0.0311
vt 0.1854 0.0311
vt 0.2225 0.0311
vt 0.2596 0.0311
vt 0.2967 0.0311
vt 0.3337 0.0311
vt 0.3708 0.0311
vt 0.0000 0.0621
vt 0.0371 0.0621
vt 0.0742 0.0621
vt 0.1112 0.0621
vt 0.1483 0.0621
vt 0.1854 0.0621
vt 0.2225 0.0621
vt 0.2596 0.0621
vt 0.2967 0.0621
vt 0.3337 0.0621
vt 0.3708 0.0621
vt 0.0000 0.0932
vt 0.0371 0.0932
vt 0.0742 0.0932
vt 0.1112 0.0932
vt 0.1483 0.0932
vt 0.1854 0.0932
vt 0.2225 0.0932
vt 0.2596 0.0932
vt 0.2967 0.0932
vt 0.3337 0.0932
vt 0.3708 0.0932
vt 0.0000 0.1242
vt 0.0371 0.1242
vt 0.0742 0.1242
vt 0.1112 0.1242
vt 0.1483 0.1242
vt 0.1854 0.1242
vt 0.2225 0.1242
vt 0.2596 0.1242
vt 0.2967 0.1242
vt 0.3337 0.1242
vt 0.3708 0.1242
vt 0.0000 0.1553
vt 0.0371 0.1553
vt 0.0742 0.1553
vt 0.1112 0.1553
vt 0.1483 0.1553
vt 0.1854 0.1553
vt 0.2225 0.1553
vt 0.2596 0.1553
vt 0.2967 0.1553
vt 0.3337 0.1553
vt 0.3708 0.1553
vt 0.0000 0.1863
vt 0.0371 0.1863
vt 0.0742 0.1863
vt 0.1112 0.1863
vt 0.1483 0.1863
vt 0.1854 0.1863
vt 0.2225 0.1863
vt 0.2596 0.1863
vt 0.2967 0.1863
vt 0.3337 0.1863
vt 0.3708 0.1863
vt 0.0000 0.0000
vt 0.0000 0.0302
vt 0.0000 0.0603
vt 0.0000 0.0905
vt 0.0000 0.1206
vt 0.0000 0.1508
vt 0.0000 0.1810
vt 0.0000 0.2111
vt 0.0000 0.2413
vt 0.0000 0.2714
vt 0.0000 0.3016
vt 0.2806 0.0000
vt 0.2806 0.0302
vt 0.2806 0.0603
vt 0.2806 0.0905
vt 0.2806 0.1206
vt 0.2806 0.1508
vt 0.2806 0.1810
vt 0.2806 0.2111
vt 0.2806 0.2413
vt 0.2806 0.2714
vt 0.2806 0.3016
vt 0.0000 0.0000
vt 0.0480 0.0000
vt 0.0388 0.0282
vt 0.0148 0.0457
vt -0.0148 0.0457
vt -0.0388 0.0282
vt -0.0480 0.0000
vt -0.0388 -0.0282
vt -0.0148 -0.0457
vt 0.0148 -0.0457
vt 0.0388 -0.0282
vt 0.0000 0.0000
vt 0.0400 0.0000
vt 0.0324 0.0235
vt 0.0124 0.0380
vt -0.0124 0.0380
vt -0.0324 0.0235
vt -0.0400 0.0000
vt -0.0324 -0.0235
vt -0.0124 -0.0380
vt 0.0124 -0.0380
vt 0.0324 -0.0235
vn 0.995 -0.103 -0.009
vn 0.805 -0.132 0.579
vn 0.307 -0.111 0.945
vn -0.307 -0.047 0.950
vn -0.805 0.034 0.593
vn -0.995 0.103 0.009
vn -0.805 0.132 -0.579
vn -0.307 0.111 -0.945
vn 0.307 0.047 -0.950
vn 0.805 -0.034 -0.593
vn 0.995 -0.103 -0.009
vn 0.995 -0.103 -0.009
vn 0.805 -0.132 0.579
vn 0.307 -0.111 0.945
vn -0.307 -0.047 0.950
vn -0.805 0.034 0.593
vn -0.995 0.103 0.009
vn -0.805 0.132 -0.579
vn -0.307 0.111 -0.945
vn 0.307 0.047 -0.950
vn 0.805 -0.034 -0.593
vn 0.995 -0.103 -0.009
vn 0.103 0.991 0.083
vn 0.103 0.991 0.083
vn 0.103 0.991 0.083
vn 0.103 0.991 0.083
vn 0.103 0.991 0.083
vn 0.103 0.991 0.083
vn 0.103 0.991 0.083
vn 0.103 0.991 0.083
vn 0.103 0.991 0.083
vn 0.103 0.991 0.083
vn 0.103 0.991 0.083
vn -0.103 -0.991 -0.083
vn -0.103 -0.991 -0.083
vn -0.103 -0.991 -0.083
vn -0.103 -0.991 -0.083
vn -0.103 -0.991 -0.083
vn -0.103 -0.991 -0.083
vn -0.103 -0.991 -0.083
vn -0.103 -0.991 -0.083
vn -0.103 -0.991 -0.083
vn -0.103 -0.991 -0.083
vn -0.103 -0.991 -0.083
vn -0.000 -0.866 0.500
vn 0.294 -0.866 0.405
vn 0.476 -0.866 0.155
vn 0.476 -0.866 -0.155
vn 0.294 -0.866 -0.405
vn 0.000 -0.866 -0.500
vn -0.294 -0.866 -0.405
vn -0.476 -0.866 -0.155
vn -0.476 -0.866 0.155
vn -0.294 -0.866 0.405
vn -0.000 -0.866 0.500
vn -0.000 -0.866 0.500
vn 0.294 -0.866 0.405
vn 0.476 -0.866 0.155
vn 0.476 -0.866 -0.155
vn 0.294 -0.866 -0.405
vn 0.000 -0.866 -0.500
vn -0.294 -0.866 -0.405
vn -0.476 -0.866 -0.155
vn -0.476 -0.866 0.155
vn -0.294 -0.866 0.405
vn -0.000 -0.866 0.500
vn -0.000 -0.500 0.866
vn 0.509 -0.500 0.701
vn 0.824 -0.500 0.268
vn 0.824 -0.500 -0.268
vn 0.509 -0.500 -0.701
vn 0.000 -0.500 -0.866
vn -0.509 -0.500 -0.701
vn -0.824 -0.500 -0.268
vn -0.824 -0.500 0.268
vn -0.509 -0.500 0.701
vn -0.000 -0.500 0.866
vn -0.000 -0.000 1.000
vn 0.588 -0.000 0.809
vn 0.951 -0.000 0.309
vn 0.951 -0.000 -0.309
vn 0.588 -0.000 -0.809
vn 0.000 -0.000 -1.000
vn -0.588 -0.000 -0.809
vn -0.951 -0.000 -0.309
vn -0.951 -0.000 0.309
vn -0.588 -0.000 0.809
vn -0.000 -0.000 1.000
vn 0.000 0.500 0.866
vn 0.509 0.500 0.701
vn 0.824 0.500 0.268
vn 0.824 0.500 -0.268
vn 0.509 0.500 -0.701
vn 0.000 0.500 -0.866
vn -0.509 0.500 -0.701
vn -0.824 0.500 -0.268
vn -0.824 0.500 0.268
vn -0.509 0.500 0.701
vn 0.000 0.500 0.866
vn -0.000 0.866 0.500
vn 0.294 0.866 0.405
vn 0.476 0.866 0.155
vn 0.476 0.866 -0.155
vn 0.294 0.866 -0.405
vn 0.000 0.866 -0.500
vn -0.294 0.866 -0.405
vn -0.476 0.866 -0.155
vn -0.476 0.866 0.155
vn -0.294 0.866 0.405
vn -0.000 0.866 0.500
vn -0.000 0.866 0.500
vn 0.294 0.866 0.405
vn 0.476 0.866 0.155
vn 0.476 0.866 -0.155
vn 0.294 0.866 -0.405
vn 0.000 0.866 -0.500
vn -0.294 0.866 -0.405
vn -0.476 0.866 -0.155
vn -0.476 0.866 0.155
vn -0.294 0.866 0.405
vn -0.000 0.866 0.500
vn 0.088 0.912 -0.400
vn 0.645 0.738 -0.197
vn 0.956 0.282 0.081
vn 0.902 -0.282 0.328
vn 0.503 -0.738 0.450
vn -0.088 -0.912 0.400
vn -0.645 -0.738 0.197
vn -0.956 -0.282 -0.081
vn -0.902 0.282 -0.328
vn -0.503 0.738 -0.450
vn 0.088 0.912 -0.400
vn 0.088 0.912 -0.400
vn 0.645 0.738 -0.197
vn 0.956 0.282 0.081
vn 0.902 -0.282 0.328
vn 0.503 -0.738 0.450
vn -0.088 -0.912 0.400
vn -0.645 -0.738 0.197
vn -0.956 -0.282 -0.081
vn -0.902 0.282 -0.328
vn -0.503 0.738 -0.450
vn 0.088 0.912 -0.400
vn -0.196 0.410 0.891
vn -0.196 0.410 0.891
vn -0.196 0.410 0.891
vn -0.196 0.410 0.891
vn -0.196 0.410 0.891
vn -0.196 0.410 0.891
vn -0.196 0.410 0.891
vn -0.196 0.410 0.891
vn -0.196 0.410 0.891
vn -0.196 0.410 0.891
vn -0.196 0.410 0.891
vn 0.196 -0.410 -0.891
vn 0.196 -0.410 -0.891
vn 0.196 -0.410 -0.891
vn 0.196 -0.410 -0.891
vn 0.196 -0.410 -0.891
vn 0.196 -0.410 -0.891
vn 0.196 -0.410 -0.891
vn 0.196 -0.410 -0.891
vn 0.196 -0.410 -0.891
vn 0.196 -0.410 -0.891
vn 0.196 -0.410 -0.891
vn 0.995 0.103 0.009
vn 0.805 0.034 0.593
vn 0.307 -0.047 0.950
vn -0.307 -0.111 0.945
vn -0.805 -0.132 0.579
vn -0.995 -0.103 -0.009
vn -0.805 -0.034 -0.593
vn -0.307 0.047 -0.950
vn 0.307 0.111 -0.945
vn 0.805 0.132 -0.579
vn 0.995 0.103 0.009
vn 0.995 0.103 0.009
vn 0.805 0.034 0.593
vn 0.307 -0.047 0.950
vn -0.307 -0.111 0.945
vn -0.805 -0.132 0.579
vn -0.995 -0.103 -0.009
vn -0.805 -0.034 -0.593
vn -0.307 0.047 -0.950
vn 0.307 0.111 -0.945
vn 0.805 0.132 -0.579
vn 0.995 0.103 0.009
vn -0.103 0.991 0.083
vn -0.103 0.991 0.083
vn -0.103 0.991 0.083
vn -0.103 0.991 0.083
vn -0.103 0.991 0.083
vn -0.103 0.991 0.083
vn -0.103 0.991 0.083
vn -0.103 0.991 0.083
vn -0.103 0.991 0.083
vn -0.103 0.991 0.083
vn -0.103 0.991 0.083
vn 0.103 -0.991 -0.083
vn 0.103 -0.991 -0.083
vn 0.103 -0.991 -0.083
vn 0.103 -0.991 -0.083
vn 0.103 -0.991 -0.083
vn 0.103 -0.991 -0.083
vn 0.103 -0.991 -0.083
vn 0.103 -0.991 -0.083
vn 0.103 -0.991 -0.083
vn 0.103 -0.991 -0.083
vn 0.103 -0.991 -0.083
vn -0.000 -0.866 0.500
vn 0.294 -0.866 0.405
vn 0.476 -0.866 0.155
vn 0.476 -0.866 -0.155
vn 0.294 -0.866 -0.405
vn 0.000 -0.866 -0.500
vn -0.294 -0.866 -0.405
vn -0.476 -0.866 -0.155
vn -0.476 -0.866 0.155
vn -0.294 -0.866 0.405
vn -0.000 -0.866 0.500
vn -0.000 -0.866 0.500
vn 0.294 -0.866 0.405
vn 0.476 -0.866 0.155
vn 0.476 -0.866 -0.155
vn 0.294 -0.866 -0.405
vn 0.000 -0.866 -0.500
vn -0.294 -0.866 -0.405
vn -0.476 -0.866 -0.155
vn -0.476 -0.866 0.155
vn -0.294 -0.866 0.405
vn -0.000 -0.866 0.500
vn -0.000 -0.500 0.866
vn 0.509 -0.500 0.701
vn 0.824 -0.500 0.268
vn 0.824 -0.500 -0.268
vn 0.509 -0.500 -0.701
vn 0.000 -0.500 -0.866
vn -0.509 -0.500 -0.701
vn -0.824 -0.500 -0.268
vn -0.824 -0.500 0.268
vn -0.509 -0.500 0.701
vn -0.000 -0.500 0.866
vn -0.000 -0.000 1.000
vn 0.588 -0.000 0.809
vn 0.951 -0.000 0.309
vn 0.951 -0.000 -0.309
vn 0.588 -0.000 -0.809
vn 0.000 -0.000 -1.000
vn -0.588 -0.000 -0.809
vn -0.951 -0.000 -0.309
vn -0.951 -0.000 0.309
vn -0.588 -0.000 0.809
vn -0.000 -0.000 1.000
vn 0.000 0.500 0.866
vn 0.509 0.500 0.701
vn 0.824 0.500 0.268
vn 0.824 0.500 -0.268
vn 0.509 0.500 -0.701
vn 0.000 0.500 -0.866
vn -0.509 0.500 -0.701
vn -0.824 0.500 -0.268
vn -0.824 0.500 0.268
vn -0.509 0.500 0.701
vn 0.000 0.500 0.866
vn -0.000 0.866 0.500
vn 0.294 0.866 0.405
vn 0.476 0.866 0.155
vn 0.476 0.866 -0.155
vn 0.294 0.866 -0.405
vn 0.000 0.866 -0.500
vn -0.294 0.866 -0.405
vn -0.476 0.866 -0.155
vn -0.476 0.866 0.155
vn -0.294 0.866 0.405
vn -0.000 0.866 0.500
vn -0.000 0.866 0.500
vn 0.294 0.866 0.405
vn 0.476 0.866 0.155
vn 0.476 0.866 -0.155
vn 0.294 0.866 -0.405
vn 0.000 0.866 -0.500
vn -0.294 0.866 -0.405
vn -0.476 0.866 -0.155
vn -0.476 0.866 0.155
vn -0.294 0.866 0.405
vn -0.000 0.866 0.500
vn -0.088 0.912 -0.400
vn 0.503 0.738 -0.450
vn 0.902 0.282 -0.328
vn 0.956 -0.282 -0.081
vn 0.645 -0.738 0.197
vn 0.088 -0.912 0.400
vn -0.503 -0.738 0.450
vn -0.902 -0.282 0.328
vn -0.956 0.282 0.081
vn -0.645 0.738 -0.197
vn -0.088 0.912 -0.400
vn -0.088 0.912 -0.400
vn 0.503 0.738 -0.450
vn 0.902 0.282 -0.328
vn 0.956 -0.282 -0.081
vn 0.645 -0.738 0.197
vn 0.088 -0.912 0.400
vn -0.503 -0.738 0.450
vn -0.902 -0.282 0.328
vn -0.956 0.282 0.081
vn -0.645 0.738 -0.197
vn -0.088 0.912 -0.400
vn 0.196 0.410 0.891
vn 0.196 0.410 0.891
vn 0.196 0.410 0.891
vn 0.196 0.410 0.891
vn 0.196 0.410 0.891
vn 0.196 0.410 0.891
vn 0.196 0.410 0.891
vn 0.196 0.410 0.891
vn 0.196 0.410 0.891
vn 0.196 0.410 0.891
vn 0.196 0.410 0.891
vn -0.196 -0.410 -0.891
vn -0.196 -0.410 -0.891
vn -0.196 -0.410 -0.891
vn -0.196 -0.410 -0.891
vn -0.196 -0.410 -0.891
vn -0.196 -0.410 -0.891
vn -0.196 -0.410 -0.891
vn -0.196 -0.410 -0.891
vn -0.196 -0.410 -0.891
vn -0.196 -0.410 -0.891
vn -0.196 -0.410 -0.891
v -0.1568 0.1174 -0.2797
v -0.1349 0.1079 -0.2693
v -0.1277 0.0850 -0.2592
v -0.1395 0.0621 -0.2555
v -0.1632 0.0526 -0.2603
v -0.1851 0.0621 -0.2707
v -0.1923 0.0850 -0.2808
v -0.1805 0.1079 -0.2845
v -0.1568 0.1174 -0.2797
v -0.1469 0.1055 -0.3092
v -0.1264 0.0966 -0.2993
v -0.1196 0.0750 -0.2899
v -0.1307 0.0534 -0.2864
v -0.1531 0.0445 -0.2908
v -0.1736 0.0534 -0.3007
v -0.1804 0.0750 -0.3101
v -0.1693 0.0966 -0.3136
v -0.1469 0.1055 -0.3092
v -0.1600 0.0850 -0.2700
v -0.1568 0.1174 -0.2797
v -0.1349 0.1079 -0.2693
v -0.1277 0.0850 -0.2592
v -0.1395 0.0621 -0.2555
v -0.1632 0.0526 -0.2603
v -0.1851 0.0621 -0.2707
v -0.1923 0.0850 -0.2808
v -0.1805 0.1079 -0.2845
v -0.1500 0.0750 -0.3000
v -0.1469 0.1055 -0.3092
v -0.1264 0.0966 -0.2993
v -0.1196 0.0750 -0.2899
v -0.1307 0.0534 -0.2864
v -0.1531 0.0445 -0.2908
v -0.1736 0.0534 -0.3007
v -0.1804 0.0750 -0.3101
v -0.1693 0.0966 -0.3136
v -0.1181 0.0559 -0.3065
v -0.1171 0.0551 -0.3081
v -0.1150 0.0541 -0.3141
v -0.1042 0.0541 -0.3752
v -0.1041 0.0551 -0.3815
v -0.1046 0.0559 -0.3834
v -0.1175 0.0577 -0.3056
v -0.1162 0.0570 -0.3072
v -0.1134 0.0559 -0.3138
v -0.1027 0.0559 -0.3749
v -0.1030 0.0570 -0.3821
v -0.1037 0.0577 -0.3841
v -0.1167 0.0640 -0.3044
v -0.1148 0.0640 -0.3059
v -0.1109 0.0640 -0.3134
v -0.1001 0.0640 -0.3745
v -0.1013 0.0640 -0.3829
v -0.1025 0.0640 -0.3849
v -0.1167 0.0660 -0.3044
v -0.1148 0.0660 -0.3059
v -0.1109 0.0660 -0.3134
v -0.1001 0.0660 -0.3745
v -0.1013 0.0660 -0.3829
v -0.1025 0.0660 -0.3849
v -0.1175 0.0723 -0.3056
v -0.1162 0.0730 -0.3072
v -0.1134 0.0741 -0.3138
v -0.1027 0.0741 -0.3749
v -0.1030 0.0730 -0.3821
v -0.1037 0.0723 -0.3841
v -0.1181 0.0741 -0.3065
v -0.1171 0.0749 -0.3081
v -0.1150 0.0759 -0.3141
v -0.1042 0.0759 -0.3752
v -0.1041 0.0749 -0.3815
v -0.1046 0.0741 -0.3834
v -0.1619 0.0559 -0.3935
v -0.1629 0.0551 -0.3919
v -0.1650 0.0541 -0.3859
v -0.1758 0.0541 -0.3248
v -0.1759 0.0551 -0.3185
v -0.1754 0.0559 -0.3166
v -0.1625 0.0577 -0.3944
v -0.1638 0.0570 -0.3928
v -0.1666 0.0559 -0.3862
v -0.1773 0.0559 -0.3251
v -0.1770 0.0570 -0.3179
v -0.1763 0.0577 -0.3159
v -0.1633 0.0640 -0.3956
v -0.1652 0.0640 -0.3941
v -0.1691 0.0640 -0.3866
v -0.1799 0.0640 -0.3255
v -0.1787 0.0640 -0.3171
v -0.1775 0.0640 -0.3151
v -0.1633 0.0660 -0.3956
v -0.1652 0.0660 -0.3941
v -0.1691 0.0660 -0.3866
v -0.1799 0.0660 -0.3255
v -0.1787 0.0660 -0.3171
v -0.1775 0.0660 -0.3151
v -0.1625 0.0723 -0.3944
v -0.1638 0.0730 -0.3928
v -0.1666 0.0741 -0.3862
v -0.1773 0.0741 -0.3251
v -0.1770 0.0730 -0.3179
v -0.1763 0.0723 -0.3159
v -0.1619 0.0741 -0.3935
v -0.1629 0.0749 -0.3919
v -0.1650 0.0759 -0.3859
v -0.1758 0.0759 -0.3248
v -0.1759 0.0749 -0.3185
v -0.1754 0.0741 -0.3166
v -0.1754 0.0741 -0.3166
v -0.1738 0.0749 -0.3155
v -0.1678 0.0759 -0.3134
v -0.1264 0.0759 -0.3061
v -0.1201 0.0749 -0.3060
v -0.1181 0.0741 -0.3065
v -0.1759 0.0749 -0.3185
v -0.1742 0.0759 -0.3174
v -0.1675 0.0774 -0.3152
v -0.1261 0.0774 -0.3079
v -0.1190 0.0759 -0.3077
v -0.1171 0.0749 -0.3081
v -0.1758 0.0759 -0.3248
v -0.1740 0.0774 -0.3245
v -0.1661 0.0800 -0.3231
v -0.1247 0.0800 -0.3158
v -0.1167 0.0774 -0.3144
v -0.1150 0.0759 -0.3141
v -0.1650 0.0759 -0.3859
v -0.1633 0.0774 -0.3856
v -0.1553 0.0800 -0.3842
v -0.1139 0.0800 -0.3769
v -0.1060 0.0774 -0.3755
v -0.1042 0.0759 -0.3752
v -0.1629 0.0749 -0.3919
v -0.1610 0.0759 -0.3923
v -0.1539 0.0774 -0.3921
v -0.1125 0.0774 -0.3848
v -0.1058 0.0759 -0.3826
v -0.1041 0.0749 -0.3815
v -0.1619 0.0741 -0.3935
v -0.1599 0.0749 -0.3940
v -0.1536 0.0759 -0.3939
v -0.1122 0.0759 -0.3866
v -0.1062 0.0749 -0.3845
v -0.1046 0.0741 -0.3834
v -0.1619 0.0559 -0.3935
v -0.1599 0.0551 -0.3940
v -0.1536 0.0541 -0.3939
v -0.1122 0.0541 -0.3866
v -0.1062 0.0551 -0.3845
v -0.1046 0.0559 -0.3834
v -0.1629 0.0551 -0.3919
v -0.1610 0.0541 -0.3923
v -0.1539 0.0526 -0.3921
v -0.1125 0.0526 -0.3848
v -0.1058 0.0541 -0.3826
v -0.1041 0.0551 -0.3815
v -0.1650 0.0541 -0.3859
v -0.1633 0.0526 -0.3856
v -0.1553 0.0500 -0.3842
v -0.1139 0.0500 -0.3769
v -0.1060 0.0526 -0.3755
v -0.1042 0.0541 -0.3752
v -0.1758 0.0541 -0.3248
v -0.1740 0.0526 -0.3245
v -0.1661 0.0500 -0.3231
v -0.1247 0.0500 -0.3158
v -0.1167 0.0526 -0.3144
v -0.1150 0.0541 -0.3141
v -0.1759 0.0551 -0.3185
v -0.1742 0.0541 -0.3174
v -0.1675 0.0526 -0.3152
v -0.1261 0.0526 -0.3079
v -0.1190 0.0541 -0.3077
v -0.1171 0.0551 -0.3081
v -0.1754 0.0559 -0.3166
v -0.1738 0.0551 -0.3155
v -0.1678 0.0541 -0.3134
v -0.1264 0.0541 -0.3061
v -0.1201 0.0551 -0.3060
v -0.1181 0.0559 -0.3065
v -0.1754 0.0559 -0.3166
v -0.1738 0.0551 -0.3155
v -0.1678 0.0541 -0.3134
v -0.1264 0.0541 -0.3061
v -0.1201 0.0551 -0.3060
v -0.1181 0.0559 -0.3065
v -0.1763 0.0577 -0.3159
v -0.1747 0.0570 -0.3146
v -0.1680 0.0559 -0.3119
v -0.1267 0.0559 -0.3046
v -0.1195 0.0570 -0.3049
v -0.1175 0.0577 -0.3056
v -0.1775 0.0640 -0.3151
v -0.1760 0.0640 -0.3133
v -0.1685 0.0640 -0.3093
v -0.1271 0.0640 -0.3020
v -0.1187 0.0640 -0.3032
v -0.1167 0.0640 -0.3044
v -0.1775 0.0660 -0.3151
v -0.1760 0.0660 -0.3133
v -0.1685 0.0660 -0.3093
v -0.1271 0.0660 -0.3020
v -0.1187 0.0660 -0.3032
v -0.1167 0.0660 -0.3044
v -0.1763 0.0723 -0.3159
v -0.1747 0.0730 -0.3146
v -0.1680 0.0741 -0.3119
v -0.1267 0.0741 -0.3046
v -0.1195 0.0730 -0.3049
v -0.1175 0.0723 -0.3056
v -0.1754 0.0741 -0.3166
v -0.1738 0.0749 -0.3155
v -0.1678 0.0759 -0.3134
v -0.1264 0.0759 -0.3061
v -0.1201 0.0749 -0.3060
v -0.1181 0.0741 -0.3065
v -0.1046 0.0559 -0.3834
v -0.1062 0.0551 -0.3845
v -0.1122 0.0541 -0.3866
v -0.1536 0.0541 -0.3939
v -0.1599 0.0551 -0.3940
v -0.1619 0.0559 -0.3935
v -0.1037 0.0577 -0.3841
v -0.1053 0.0570 -0.3854
v -0.1120 0.0559 -0.3881
v -0.1533 0.0559 -0.3954
v -0.1605 0.0570 -0.3951
v -0.1625 0.0577 -0.3944
v -0.1025 0.0640 -0.3849
v -0.1040 0.0640 -0.3867
v -0.1115 0.0640 -0.3907
v -0.1529 0.0640 -0.3980
v -0.1613 0.0640 -0.3968
v -0.1633 0.0640 -0.3956
v -0.1025 0.0660 -0.3849
v -0.1040 0.0660 -0.3867
v -0.1115 0.0660 -0.3907
v -0.1529 0.0660 -0.3980
v -0.1613 0.0660 -0.3968
v -0.1633 0.0660 -0.3956
v -0.1037 0.0723 -0.3841
v -0.1053 0.0730 -0.3854
v -0.1120 0.0741 -0.3881
v -0.1533 0.0741 -0.3954
v -0.1605 0.0730 -0.3951
v -0.1625 0.0723 -0.3944
v -0.1046 0.0741 -0.3834
v -0.1062 0.0749 -0.3845
v -0.1122 0.0759 -0.3866
v -0.1536 0.0759 -0.3939
v -0.1599 0.0749 -0.3940
v -0.1619 0.0741 -0.3935
v 0.1568 0.1174 -0.2797
v 0.1805 0.1079 -0.2845
v 0.1923 0.0850 -0.2808
v 0.1851 0.0621 -0.2707
v 0.1632 0.0526 -0.2603
v 0.1395 0.0621 -0.2555
v 0.1277 0.0850 -0.2592
v 0.1349 0.1079 -0.2693
v 0.1568 0.1174 -0.2797
v 0.1469 0.1055 -0.3092
v 0.1693 0.0966 -0.3136
v 0.1804 0.0750 -0.3101
v 0.1736 0.0534 -0.3007
v 0.1531 0.0445 -0.2908
v 0.1307 0.0534 -0.2864
v 0.1196 0.0750 -0.2899
v 0.1264 0.0966 -0.2993
v 0.1469 0.1055 -0.3092
v 0.1600 0.0850 -0.2700
v 0.1568 0.1174 -0.2797
v 0.1805 0.1079 -0.2845
v 0.1923 0.0850 -0.2808
v 0.1851 0.0621 -0.2707
v 0.1632 0.0526 -0.2603
v 0.1395 0.0621 -0.2555
v 0.1277 0.0850 -0.2592
v 0.1349 0.1079 -0.2693
v 0.1500 0.0750 -0.3000
v 0.1469 0.1055 -0.3092
v 0.1693 0.0966 -0.3136
v 0.1804 0.0750 -0.3101
v 0.1736 0.0534 -0.3007
v 0.1531 0.0445 -0.2908
v 0.1307 0.0534 -0.2864
v 0.1196 0.0750 -0.2899
v 0.1264 0.0966 -0.2993
v 0.1754 0.0559 -0.3166
v 0.1759 0.0551 -0.3185
v 0.1758 0.0541 -0.3248
v 0.1650 0.0541 -0.3859
v 0.1629 0.0551 -0.3919
v 0.1619 0.0559 -0.3935
v 0.1763 0.0577 -0.3159
v 0.1770 0.0570 -0.3179
v 0.1773 0.0559 -0.3251
v 0.1666 0.0559 -0.3862
v 0.1638 0.0570 -0.3928
v 0.1625 0.0577 -0.3944
v 0.1775 0.0640 -0.3151
v 0.1787 0.0640 -0.3171
v 0.1799 0.0640 -0.3255
v 0.1691 0.0640 -0.3866
v 0.1652 0.0640 -0.3941
v 0.1633 0.0640 -0.3956
v 0.1775 0.0660 -0.3151
v 0.1787 0.0660 -0.3171
v 0.1799 0.0660 -0.3255
v 0.1691 0.0660 -0.3866
v 0.1652 0.0660 -0.3941
v 0.1633 0.0660 -0.3956
v 0.1763 0.0723 -0.3159
v 0.1770 0.0730 -0.3179
v 0.1773 0.0741 -0.3251
v 0.1666 0.0741 -0.3862
v 0.1638 0.0730 -0.3928
v 0.1625 0.0723 -0.3944
v 0.1754 0.0741 -0.3166
v 0.1759 0.0749 -0.3185
v 0.1758 0.0759 -0.3248
v 0.1650 0.0759 -0.3859
v 0.1629 0.0749 -0.3919
v 0.1619 0.0741 -0.3935
v 0.1046 0.0559 -0.3834
v 0.1041 0.0551 -0.3815
v 0.1042 0.0541 -0.3752
v 0.1150 0.0541 -0.3141
v 0.1171 0.0551 -0.3081
v 0.1181 0.0559 -0.3065
v 0.1037 0.0577 -0.3841
v 0.1030 0.0570 -0.3821
v 0.1027 0.0559 -0.3749
v 0.1134 0.0559 -0.3138
v 0.1162 0.0570 -0.3072
v 0.1175 0.0577 -0.3056
v 0.1025 0.0640 -0.3849
v 0.1013 0.0640 -0.3829
v 0.1001 0.0640 -0.3745
v 0.1109 0.0640 -0.3134
v 0.1148 0.0640 -0.3059
v 0.1167 0.0640 -0.3044
v 0.1025 0.0660 -0.3849
v 0.1013 0.0660 -0.3829
v 0.1001 0.0660 -0.3745
v 0.1109 0.0660 -0.3134
v 0.1148 0.0660 -0.3059
v 0.1167 0.0660 -0.3044
v 0.1037 0.0723 -0.3841
v 0.1030 0.0730 -0.3821
v 0.1027 0.0741 -0.3749
v 0.1134 0.0741 -0.3138
v 0.1162 0.0730 -0.3072
v 0.1175 0.0723 -0.3056
v 0.1046 0.0741 -0.3834
v 0.1041 0.0749 -0.3815
v 0.1042 0.0759 -0.3752
v 0.1150 0.0759 -0.3141
v 0.1171 0.0749 -0.3081
v 0.1181 0.0741 -0.3065
v 0.1181 0.0741 -0.3065
v 0.1201 0.0749 -0.3060
v 0.1264 0.0759 -0.3061
v 0.1678 0.0759 -0.3134
v 0.1738 0.0749 -0.3155
v 0.1754 0.0741 -0.3166
v 0.1171 0.0749 -0.3081
v 0.1190 0.0759 -0.3077
v 0.1261 0.0774 -0.3079
v 0.1675 0.0774 -0.3152
v 0.1742 0.0759 -0.3174
v 0.1759 0.0749 -0.3185
v 0.1150 0.0759 -0.3141
v 0.1167 0.0774 -0.3144
v 0.1247 0.0800 -0.3158
v 0.1661 0.0800 -0.3231
v 0.1740 0.0774 -0.3245
v 0.1758 0.0759 -0.3248
v 0.1042 0.0759 -0.3752
v 0.1060 0.0774 -0.3755
v 0.1139 0.0800 -0.3769
v 0.1553 0.0800 -0.3842
v 0.1633 0.0774 -0.3856
v 0.1650 0.0759 -0.3859
v 0.1041 0.0749 -0.3815
v 0.1058 0.0759 -0.3826
v 0.1125 0.0774 -0.3848
v 0.1539 0.0774 -0.3921
v 0.1610 0.0759 -0.3923
v 0.1629 0.0749 -0.3919
v 0.1046 0.0741 -0.3834
v 0.1062 0.0749 -0.3845
v 0.1122 0.0759 -0.3866
v 0.1536 0.0759 -0.3939
v 0.1599 0.0749 -0.3940
v 0.1619 0.0741 -0.3935
v 0.1046 0.0559 -0.3834
v 0.1062 0.0551 -0.3845
v 0.1122 0.0541 -0.3866
v 0.1536 0.0541 -0.3939
v 0.1599 0.0551 -0.3940
v 0.1619 0.0559 -0.3935
v 0.1041 0.0551 -0.3815
v 0.1058 0.0541 -0.3826
v 0.1125 0.0526 -0.3848
v 0.1539 0.0526 -0.3921
v 0.1610 0.0541 -0.3923
v 0.1629 0.0551 -0.3919
v 0.1042 0.0541 -0.3752
v 0.1060 0.0526 -0.3755
v 0.1139 0.0500 -0.3769
v 0.1553 0.0500 -0.3842
v 0.1633 0.0526 -0.3856
v 0.1650 0.0541 -0.3859
v 0.1150 0.0541 -0.3141
v 0.1167 0.0526 -0.3144
v 0.1247 0.0500 -0.3158
v 0.1661 0.0500 -0.3231
v 0.1740 0.0526 -0.3245
v 0.1758 0.0541 -0.3248
v 0.1171 0.0551 -0.3081
v 0.1190 0.0541 -0.3077
v 0.1261 0.0526 -0.3079
v 0.1675 0.0526 -0.3152
v 0.1742 0.0541 -0.3174
v 0.1759 0.0551 -0.3185
v 0.1181 0.0559 -0.3065
v 0.1201 0.0551 -0.3060
v 0.1264 0.0541 -0.3061
v 0.1678 0.0541 -0.3134
v 0.1738 0.0551 -0.3155
v 0.1754 0.0559 -0.3166
v 0.1181 0.0559 -0.3065
v 0.1201 0.0551 -0.3060
v 0.1264 0.0541 -0.3061
v 0.1678 0.0541 -0.3134
v 0.1738 0.0551 -0.3155
v 0.1754 0.0559 -0.3166
v 0.1175 0.0577 -0.3056
v 0.1195 0.0570 -0.3049
v 0.1267 0.0559 -0.3046
v 0.1680 0.0559 -0.3119
v 0.1747 0.0570 -0.3146
v 0.1763 0.0577 -0.3159
v 0.1167 0.0640 -0.3044
v 0.1187 0.0640 -0.3032
v 0.1271 0.0640 -0.3020
v 0.1685 0.0640 -0.3093
v 0.1760 0.0640 -0.3133
v 0.1775 0.0640 -0.3151
v 0.1167 0.0660 -0.3044
v 0.1187 0.0660 -0.3032
v 0.1271 0.0660 -0.3020
v 0.1685 0.0660 -0.3093
v 0.1760 0.0660 -0.3133
v 0.1775 0.0660 -0.3151
v 0.1175 0.0723 -0.3056
v 0.1195 0.0730 -0.3049
v 0.1267 0.0741 -0.3046
v 0.1680 0.0741 -0.3119
v 0.1747 0.0730 -0.3146
v 0.1763 0.0723 -0.3159
v 0.1181 0.0741 -0.3065
v 0.1201 0.0749 -0.3060
v 0.1264 0.0759 -0.3061
v 0.1678 0.0759 -0.3134
v 0.1738 0.0749 -0.3155
v 0.1754 0.0741 -0.3166
v 0.1619 0.0559 -0.3935
v 0.1599 0.0551 -0.3940
v 0.1536 0.0541 -0.3939
v 0.1122 0.0541 -0.3866
v 0.1062 0.0551 -0.3845
v 0.1046 0.0559 -0.3834
v 0.1625 0.0577 -0.3944
v 0.1605 0.0570 -0.3951
v 0.1533 0.0559 -0.3954
v 0.1120 0.0559 -0.3881
v 0.1053 0.0570 -0.3854
v 0.1037 0.0577 -0.3841
v 0.1633 0.0640 -0.3956
v 0.1613 0.0640 -0.3968
v 0.1529 0.0640 -0.3980
v 0.1115 0.0640 -0.3907
v 0.1040 0.0640 -0.3867
v 0.1025 0.0640 -0.3849
v 0.1633 0.0660 -0.3956
v 0.1613 0.0660 -0.3968
v 0.1529 0.0660 -0.3980
v 0.1115 0.0660 -0.3907
v 0.1040 0.0660 -0.3867
v 0.1025 0.0660 -0.3849
v 0.1625 0.0723 -0.3944
v 0.1605 0.0730 -0.3951
v 0.1533 0.0741 -0.3954
v 0.1120 0.0741 -0.3881
v 0.1053 0.0730 -0.3854
v 0.1037 0.0723 -0.3841
v 0.1619 0.0741 -0.3935
v 0.1599 0.0749 -0.3940
v 0.1536 0.0759 -0.3939
v 0.1122 0.0759 -0.3866
v 0.1062 0.0749 -0.3845
v 0.1046 0.0741 -0.3834
vt 0.0000 0.0000
vt 0.0000 0.0267
vt 0.0000 0.0534
vt 0.0000 0.0801
vt 0.0000 0.1068
vt 0.0000 0.1335
vt 0.0000 0.1602
vt 0.0000 0.1869
vt 0.0000 0.2136
vt 0.0332 0.0000
vt 0.0332 0.0267
vt 0.0332 0.0534
vt 0.0332 0.0801
vt 0.0332 0.1068
vt 0.0332 0.1335
vt 0.0332 0.1602
vt 0.0332 0.1869
vt 0.0332 0.2136
vt 0.0000 0.0000
vt 0.0340 0.0000
vt 0.0240 0.0240
vt 0.0000 0.0340
vt -0.0240 0.0240
vt -0.0340 0.0000
vt -0.0240 -0.0240
vt -0.0000 -0.0340
vt 0.0240 -0.0240
vt 0.0000 0.0000
vt 0.0320 0.0000
vt 0.0226 0.0226
vt 0.0000 0.0320
vt -0.0226 0.0226
vt -0.0320 0.0000
vt -0.0226 -0.0226
vt -0.0000 -0.0320
vt 0.0226 -0.0226
vt 0.0000 0.0000
vt 0.0041 0.0000
vt 0.0140 0.0000
vt 0.0760 0.0000
vt 0.0859 0.0000
vt 0.0900 0.0000
vt 0.0000 0.0041
vt 0.0041 0.0041
vt 0.0140 0.0041
vt 0.0760 0.0041
vt 0.0859 0.0041
vt 0.0900 0.0041
vt 0.0000 0.0140
vt 0.0041 0.0140
vt 0.0140 0.0140
vt 0.0760 0.0140
vt 0.0859 0.0140
vt 0.0900 0.0140
vt 0.0000 0.0160
vt 0.0041 0.0160
vt 0.0140 0.0160
vt 0.0760 0.0160
vt 0.0859 0.0160
vt 0.0900 0.0160
vt 0.0000 0.0259
vt 0.0041 0.0259
vt 0.0140 0.0259
vt 0.0760 0.0259
vt 0.0859 0.0259
vt 0.0900 0.0259
vt 0.0000 0.0300
vt 0.0041 0.0300
vt 0.0140 0.0300
vt 0.0760 0.0300
vt 0.0859 0.0300
vt 0.0900 0.0300
vt 0.0000 0.0000
vt 0.0041 0.0000
vt 0.0140 0.0000
vt 0.0760 0.0000
vt 0.0859 0.0000
vt 0.0900 0.0000
vt 0.0000 0.0041
vt 0.0041 0.0041
vt 0.0140 0.0041
vt 0.0760 0.0041
vt 0.0859 0.0041
vt 0.0900 0.0041
vt 0.0000 0.0140
vt 0.0041 0.0140
vt 0.0140 0.0140
vt 0.0760 0.0140
vt 0.0859 0.0140
vt 0.0900 0.0140
vt 0.0000 0.0160
vt 0.0041 0.0160
vt 0.0140 0.0160
vt 0.0760 0.0160
vt 0.0859 0.0160
vt 0.0900 0.0160
vt 0.0000 0.0259
vt 0.0041 0.0259
vt 0.0140 0.0259
vt 0.0760 0.0259
vt 0.0859 0.0259
vt 0.0900 0.0259
vt 0.0000 0.0300
vt 0.0041 0.0300
vt 0.0140 0.0300
vt 0.0760 0.0300
vt 0.0859 0.0300
vt 0.0900 0.0300
vt 0.0000 0.0000
vt 0.0041 0.0000
vt 0.0140 0.0000
vt 0.0560 0.0000
vt 0.0659 0.0000
vt 0.0700 0.0000
vt 0.0000 0.0041
vt 0.0041 0.0041
vt 0.0140 0.0041
vt 0.0560 0.0041
vt 0.0659 0.0041
vt 0.0700 0.0041
vt 0.0000 0.0140
vt 0.0041 0.0140
vt 0.0140 0.0140
vt 0.0560 0.0140
vt 0.0659 0.0140
vt 0.0700 0.0140
vt 0.0000 0.0760
vt 0.0041 0.0760
vt 0.0140 0.0760
vt 0.0560 0.0760
vt 0.0659 0.0760
vt 0.0700 0.0760
vt 0.0000 0.0859
vt 0.0041 0.0859
vt 0.0140 0.0859
vt 0.0560 0.0859
vt 0.0659 0.0859
vt 0.0700 0.0859
vt 0.0000 0.0900
vt 0.0041 0.0900
vt 0.0140 0.0900
vt 0.0560 0.0900
vt 0.0659 0.0900
vt 0.0700 0.0900
vt 0.0000 0.0000
vt 0.0041 0.0000
vt 0.0140 0.0000
vt 0.0560 0.0000
vt 0.0659 0.0000
vt 0.0700 0.0000
vt 0.0000 0.0041
vt 0.0041 0.0041
vt 0.0140 0.0041
vt 0.0560 0.0041
vt 0.0659 0.0041
vt 0.0700 0.0041
vt 0.0000 0.0140
vt 0.0041 0.0140
vt 0.0140 0.0140
vt 0.0560 0.0140
vt 0.0659 0.0140
vt 0.0700 0.0140
vt 0.0000 0.0760
vt 0.0041 0.0760
vt 0.0140 0.0760
vt 0.0560 0.0760
vt 0.0659 0.0760
vt 0.0700 0.0760
vt 0.0000 0.0859
vt 0.0041 0.0859
vt 0.0140 0.0859
vt 0.0560 0.0859
vt 0.0659 0.0859
vt 0.0700 0.0859
vt 0.0000 0.0900
vt 0.0041 0.0900
vt 0.0140 0.0900
vt 0.0560 0.0900
vt 0.0659 0.0900
vt 0.0700 0.0900
vt 0.0000 0.0000
vt 0.0041 0.0000
vt 0.0140 0.0000
vt 0.0560 0.0000
vt 0.0659 0.0000
vt 0.0700 0.0000
vt 0.0000 0.0041
vt 0.0041 0.0041
vt 0.0140 0.0041
vt 0.0560 0.0041
vt 0.0659 0.0041
vt 0.0700 0.0041
vt 0.0000 0.0140
vt 0.0041 0.0140
vt 0.0140 0.0140
vt 0.0560 0.0140
vt 0.0659 0.0140
vt 0.0700 0.0140
vt 0.0000 0.0160
vt 0.0041 0.0160
vt 0.0140 0.0160
vt 0.0560 0.0160
vt 0.0659 0.0160
vt 0.0700 0.0160
vt 0.0000 0.0259
vt 0.0041 0.0259
vt 0.0140 0.0259
vt 0.0560 0.0259
vt 0.0659 0.0259
vt 0.0700 0.0259
vt 0.0000 0.0300
vt 0.0041 0.0300
vt 0.0140 0.0300
vt 0.0560 0.0300
vt 0.0659 0.0300
vt 0.0700 0.0300
vt 0.0000 0.0000
vt 0.0041 0.0000
vt 0.0140 0.0000
vt 0.0560 0.0000
vt 0.0659 0.0000
vt 0.0700 0.0000
vt 0.0000 0.0041
vt 0.0041 0.0041
vt 0.0140 0.0041
vt 0.0560 0.0041
vt 0.0659 0.0041
vt 0.0700 0.0041
vt 0.0000 0.0140
vt 0.0041 0.0140
vt 0.0140 0.0140
vt 0.0560 0.0140
vt 0.0659 0.0140
vt 0.0700 0.0140
vt 0.0000 0.0160
vt 0.0041 0.0160
vt 0.0140 0.0160
vt 0.0560 0.0160
vt 0.0659 0.0160
vt 0.0700 0.0160
vt 0.0000 0.0259
vt 0.0041 0.0259
vt 0.0140 0.0259
vt 0.0560 0.0259
vt 0.0659 0.0259
vt 0.0700 0.0259
vt 0.0000 0.0300
vt 0.0041 0.0300
vt 0.0140 0.0300
vt 0.0560 0.0300
vt 0.0659 0.0300
vt 0.0700 0.0300
vt 0.0000 0.0000
vt 0.0000 0.0267
vt 0.0000 0.0534
vt 0.0000 0.0801
vt 0.0000 0.1068
vt 0.0000 0.1335
vt 0.0000 0.1602
vt 0.0000 0.1869
vt 0.0000 0.2136
vt 0.0332 0.0000
vt 0.0332 0.0267
vt 0.0332 0.0534
vt 0.0332 0.0801
vt 0.0332 0.1068
vt 0.0332 0.1335
vt 0.0332 0.1602
vt 0.0332 0.1869
vt 0.0332 0.2136
vt 0.0000 0.0000
vt 0.0340 0.0000
vt 0.0240 0.0240
vt 0.0000 0.0340
vt -0.0240 0.0240
vt -0.0340 0.0000
vt -0.0240 -0.0240
vt -0.0000 -0.0340
vt 0.0240 -0.0240
vt 0.0000 0.0000
vt 0.0320 0.0000
vt 0.0226 0.0226
vt 0.0000 0.0320
vt -0.0226 0.0226
vt -0.0320 0.0000
vt -0.0226 -0.0226
vt -0.0000 -0.0320
vt 0.0226 -0.0226
vt 0.0000 0.0000
vt 0.0041 0.0000
vt 0.0140 0.0000
vt 0.0760 0.0000
vt 0.0859 0.0000
vt 0.0900 0.0000
vt 0.0000 0.0041
vt 0.0041 0.0041
vt 0.0140 0.0041
vt 0.0760 0.0041
vt 0.0859 0.0041
vt 0.0900 0.0041
vt 0.0000 0.0140
vt 0.0041 0.0140
vt 0.0140 0.0140
vt 0.0760 0.0140
vt 0.0859 0.0140
vt 0.0900 0.0140
vt 0.0000 0.0160
vt 0.0041 0.0160
vt 0.0140 0.0160
vt 0.0760 0.0160
vt 0.0859 0.0160
vt 0.0900 0.0160
vt 0.0000 0.0259
vt 0.0041 0.0259
vt 0.0140 0.0259
vt 0.0760 0.0259
vt 0.0859 0.0259
vt 0.0900 0.0259
vt 0.0000 0.0300
vt 0.0041 0.0300
vt 0.0140 0.0300
vt 0.0760 0.0300
vt 0.0859 0.0300
vt 0.0900 0.0300
vt 0.0000 0.0000
vt 0.0041 0.0000
vt 0.0140 0.0000
vt 0.0760 0.0000
vt 0.0859 0.0000
vt 0.0900 0.0000
vt 0.0000 0.0041
vt 0.0041 0.0041
vt 0.0140 0.0041
vt 0.0760 0.0041
vt 0.0859 0.0041
vt 0.0900 0.0041
vt 0.0000 0.0140
vt 0.0041 0.0140
vt 0.0140 0.0140
vt 0.0760 0.0140
vt 0.0859 0.0140
vt 0.0900 0.0140
vt 0.0000 0.0160
vt 0.0041 0.0160
vt 0.0140 0.0160
vt 0.0760 0.0160
vt 0.0859 0.0160
vt 0.0900 0.0160
vt 0.0000 0.0259
vt 0.0041 0.0259
vt 0.0140 0.0259
vt 0.0760 0.0259
vt 0.0859 0.0259
vt 0.0900 0.0259
vt 0.0000 0.0300
vt 0.0041 0.0300
vt 0.0140 0.0300
vt 0.0760 0.0300
vt 0.0859 0.0300
vt 0.0900 0.0300
vt 0.0000 0.0000
vt 0.0041 0.0000
vt 0.0140 0.0000
vt 0.0560 0.0000
vt 0.0659 0.0000
vt 0.0700 0.0000
vt 0.0000 0.0041
vt 0.0041 0.0041
vt 0.0140 0.0041
vt 0.0560 0.0041
vt 0.0659 0.0041
vt 0.0700 0.0041
vt 0.0000 0.0140
vt 0.0041 0.0140
vt 0.0140 0.0140
vt 0.0560 0.0140
vt 0.0659 0.0140
vt 0.0700 0.0140
vt 0.0000 0.0760
vt 0.0041 0.0760
vt 0.0140 0.0760
vt 0.0560 0.0760
vt 0.0659 0.0760
vt 0.0700 0.0760
vt 0.0000 0.0859
vt 0.0041 0.0859
vt 0.0140 0.0859
vt 0.0560 0.0859
vt 0.0659 0.0859
vt 0.0700 0.0859
vt 0.0000 0.0900
vt 0.0041 0.0900
vt 0.0140 0.0900
vt 0.0560 0.0900
vt 0.0659 0.0900
vt 0.0700 0.0900
vt 0.0000 0.0000
vt 0.0041 0.0000
vt 0.0140 0.0000
vt 0.0560 0.0000
vt 0.0659 0.0000
vt 0.0700 0.0000
vt 0.0000 0.0041
vt 0.0041 0.0041
vt 0.0140 0.0041
vt 0.0560 0.0041
vt 0.0659 0.0041
vt 0.0700 0.0041
vt 0.0000 0.0140
vt 0.0041 0.0140
vt 0.0140 0.0140
vt 0.0560 0.0140
vt 0.0659 0.0140
vt 0.0700 0.0140
vt 0.0000 0.0760
vt 0.0041 0.0760
vt 0.0140 0.0760
vt 0.0560 0.0760
vt 0.0659 0.0760
vt 0.0700 0.0760
vt 0.0000 0.0859
vt 0.0041 0.0859
vt 0.0140 0.0859
vt 0.0560 0.0859
vt 0.0659 0.0859
vt 0.0700 0.0859
vt 0.0000 0.0900
vt 0.0041 0.0900
vt 0.0140 0.0900
vt 0.0560 0.0900
vt 0.0659 0.0900
vt 0.0700 0.0900
vt 0.0000 0.0000
vt 0.0041 0.0000
vt 0.0140 0.0000
vt 0.0560 0.0000
vt 0.0659 0.0000
vt 0.0700 0.0000
vt 0.0000 0.0041
vt 0.0041 0.0041
vt 0.0140 0.0041
vt 0.0560 0.0041
vt 0.0659 0.0041
vt 0.0700 0.0041
vt 0.0000 0.0140
vt 0.0041 0.0140
vt 0.0140 0.0140
vt 0.0560 0.0140
vt 0.0659 0.0140
vt 0.0700 0.0140
vt 0.0000 0.0160
vt 0.0041 0.0160
vt 0.0140 0.0160
vt 0.0560 0.0160
vt 0.0659 0.0160
vt 0.0700 0.0160
vt 0.0000 0.0259
vt 0.0041 0.0259
vt 0.0140 0.0259
vt 0.0560 0.0259
vt 0.0659 0.0259
vt 0.0700 0.0259
vt 0.0000 0.0300
vt 0.0041 0.0300
vt 0.0140 0.0300
vt 0.0560 0.0300
vt 0.0659 0.0300
vt 0.0700 0.0300
vt 0.0000 0.0000
vt 0.0041 0.0000
vt 0.0140 0.0000
vt 0.0560 0.0000
vt 0.0659 0.0000
vt 0.0700 0.0000
vt 0.0000 0.0041
vt 0.0041 0.0041
vt 0.0140 0.0041
vt 0.0560 0.0041
vt 0.0659 0.0041
vt 0.0700 0.0041
vt 0.0000 0.0140
vt 0.0041 0.0140
vt 0.0140 0.0140
vt 0.0560 0.0140
vt 0.0659 0.0140
vt 0.0700 0.0140
vt 0.0000 0.0160
vt 0.0041 0.0160
vt 0.0140 0.0160
vt 0.0560 0.0160
vt 0.0659 0.0160
vt 0.0700 0.0160
vt 0.0000 0.0259
vt 0.0041 0.0259
vt 0.0140 0.0259
vt 0.0560 0.0259
vt 0.0659 0.0259
vt 0.0700 0.0259
vt 0.0000 0.0300
vt 0.0041 0.0300
vt 0.0140 0.0300
vt 0.0560 0.0300
vt 0.0659 0.0300
vt 0.0700 0.0300
vn 0.095 0.953 -0.286
vn 0.738 0.674 0.021
vn 0.949 0.000 0.316
vn 0.603 -0.674 0.426
vn -0.095 -0.953 0.286
vn -0.738 -0.674 -0.021
vn -0.949 -0.000 -0.316
vn -0.603 0.674 -0.426
vn 0.095 0.953 -0.286
vn 0.095 0.953 -0.286
vn 0.738 0.674 0.021
vn 0.949 0.000 0.316
vn 0.603 -0.674 0.426
vn -0.095 -0.953 0.286
vn -0.738 -0.674 -0.021
vn -0.949 -0.000 -0.316
vn -0.603 0.674 -0.426
vn 0.095 0.953 -0.286
vn -0.302 0.302 0.905
vn -0.302 0.302 0.905
vn -0.302 0.302 0.905
vn -0.302 0.302 0.905
vn -0.302 0.302 0.905
vn -0.302 0.302 0.905
vn -0.302 0.302 0.905
vn -0.302 0.302 0.905
vn -0.302 0.302 0.905
vn 0.302 -0.302 -0.905
vn 0.302 -0.302 -0.905
vn 0.302 -0.302 -0.905
vn 0.302 -0.302 -0.905
vn 0.302 -0.302 -0.905
vn 0.302 -0.302 -0.905
vn 0.302 -0.302 -0.905
vn 0.302 -0.302 -0.905
vn 0.302 -0.302 -0.905
vn 0.468 -0.577 0.669
vn 0.545 -0.632 0.550
vn 0.696 -0.707 0.123
vn 0.696 -0.707 0.123
vn 0.701 -0.632 -0.331
vn 0.669 -0.577 -0.468
vn 0.513 -0.447 0.733
vn 0.610 -0.500 0.615
vn 0.804 -0.577 0.142
vn 0.804 -0.577 0.142
vn 0.783 -0.500 -0.370
vn 0.733 -0.447 -0.513
vn 0.574 0.000 0.819
vn 0.704 0.000 0.710
vn 0.985 0.000 0.174
vn 0.985 0.000 0.174
vn 0.904 0.000 -0.427
vn 0.819 0.000 -0.574
vn 0.574 0.000 0.819
vn 0.704 0.000 0.710
vn 0.985 0.000 0.174
vn 0.985 0.000 0.174
vn 0.904 0.000 -0.427
vn 0.819 0.000 -0.574
vn 0.513 0.447 0.733
vn 0.610 0.500 0.615
vn 0.804 0.577 0.142
vn 0.804 0.577 0.142
vn 0.783 0.500 -0.370
vn 0.733 0.447 -0.513
vn 0.468 0.577 0.669
vn 0.545 0.632 0.550
vn 0.696 0.707 0.123
vn 0.696 0.707 0.123
vn 0.701 0.632 -0.331
vn 0.669 0.577 -0.468
vn -0.468 -0.577 -0.669
vn -0.545 -0.632 -0.550
vn -0.696 -0.707 -0.123
vn -0.696 -0.707 -0.123
vn -0.701 -0.632 0.331
vn -0.669 -0.577 0.468
vn -0.513 -0.447 -0.733
vn -0.610 -0.500 -0.615
vn -0.804 -0.577 -0.142
vn -0.804 -0.577 -0.142
vn -0.783 -0.500 0.370
vn -0.733 -0.447 0.513
vn -0.574 0.000 -0.819
vn -0.704 0.000 -0.710
vn -0.985 0.000 -0.174
vn -0.985 0.000 -0.174
vn -0.904 0.000 0.427
vn -0.819 0.000 0.574
vn -0.574 0.000 -0.819
vn -0.704 0.000 -0.710
vn -0.985 0.000 -0.174
vn -0.985 0.000 -0.174
vn -0.904 0.000 0.427
vn -0.819 0.000 0.574
vn -0.513 0.447 -0.733
vn -0.610 0.500 -0.615
vn -0.804 0.577 -0.142
vn -0.804 0.577 -0.142
vn -0.783 0.500 0.370
vn -0.733 0.447 0.513
vn -0.468 0.577 -0.669
vn -0.545 0.632 -0.550
vn -0.696 0.707 -0.123
vn -0.696 0.707 -0.123
vn -0.701 0.632 0.331
vn -0.669 0.577 0.468
vn -0.669 0.577 0.468
vn -0.550 0.632 0.545
vn -0.123 0.707 0.696
vn -0.123 0.707 0.696
vn 0.331 0.632 0.701
vn 0.468 0.577 0.669
vn -0.701 0.632 0.331
vn -0.579 0.707 0.406
vn -0.100 0.816 0.569
vn -0.100 0.816 0.569
vn 0.406 0.707 0.579
vn 0.545 0.632 0.550
vn -0.696 0.707 -0.123
vn -0.569 0.816 -0.100
vn 0.000 1.000 0.000
vn 0.000 1.000 0.000
vn 0.569 0.816 0.100
vn 0.696 0.707 0.123
vn -0.696 0.707 -0.123
vn -0.569 0.816 -0.100
vn 0.000 1.000 0.000
vn 0.000 1.000 0.000
vn 0.569 0.816 0.100
vn 0.696 0.707 0.123
vn -0.545 0.632 -0.550
vn -0.406 0.707 -0.579
vn 0.100 0.816 -0.569
vn 0.100 0.816 -0.569
vn 0.579 0.707 -0.406
vn 0.701 0.632 -0.331
vn -0.468 0.577 -0.669
vn -0.331 0.632 -0.701
vn 0.123 0.707 -0.696
vn 0.123 0.707 -0.696
vn 0.550 0.632 -0.545
vn 0.669 0.577 -0.468
vn -0.468 -0.577 -0.669
vn -0.331 -0.632 -0.701
vn 0.123 -0.707 -0.696
vn 0.123 -0.707 -0.696
vn 0.550 -0.632 -0.545
vn 0.669 -0.577 -0.468
vn -0.545 -0.632 -0.550
vn -0.406 -0.707 -0.579
vn 0.100 -0.816 -0.569
vn 0.100 -0.816 -0.569
vn 0.579 -0.707 -0.406
vn 0.701 -0.632 -0.331
vn -0.696 -0.707 -0.123
vn -0.569 -0.816 -0.100
vn 0.000 -1.000 0.000
vn 0.000 -1.000 0.000
vn 0.569 -0.816 0.100
vn 0.696 -0.707 0.123
vn -0.696 -0.707 -0.123
vn -0.569 -0.816 -0.100
vn 0.000 -1.000 0.000
vn 0.000 -1.000 0.000
vn 0.569 -0.816 0.100
vn 0.696 -0.707 0.123
vn -0.701 -0.632 0.331
vn -0.579 -0.707 0.406
vn -0.100 -0.816 0.569
vn -0.100 -0.816 0.569
vn 0.406 -0.707 0.579
vn 0.545 -0.632 0.550
vn -0.669 -0.577 0.468
vn -0.550 -0.632 0.545
vn -0.123 -0.707 0.696
vn -0.123 -0.707 0.696
vn 0.331 -0.632 0.701
vn 0.468 -0.577 0.669
vn -0.669 -0.577 0.468
vn -0.550 -0.632 0.545
vn -0.123 -0.707 0.696
vn -0.123 -0.707 0.696
vn 0.331 -0.632 0.701
vn 0.468 -0.577 0.669
vn -0.733 -0.447 0.513
vn -0.615 -0.500 0.610
vn -0.142 -0.577 0.804
vn -0.142 -0.577 0.804
vn 0.370 -0.500 0.783
vn 0.513 -0.447 0.733
vn -0.819 0.000 0.574
vn -0.710 0.000 0.704
vn -0.174 0.000 0.985
vn -0.174 0.000 0.985
vn 0.427 0.000 0.904
vn 0.574 0.000 0.819
vn -0.819 0.000 0.574
vn -0.710 0.000 0.704
vn -0.174 0.000 0.985
vn -0.174 0.000 0.985
vn 0.427 0.000 0.904
vn 0.574 0.000 0.819
vn -0.733 0.447 0.513
vn -0.615 0.500 0.610
vn -0.142 0.577 0.804
vn -0.142 0.577 0.804
vn 0.370 0.500 0.783
vn 0.513 0.447 0.733
vn -0.669 0.577 0.468
vn -0.550 0.632 0.545
vn -0.123 0.707 0.696
vn -0.123 0.707 0.696
vn 0.331 0.632 0.701
vn 0.468 0.577 0.669
vn 0.669 -0.577 -0.468
vn 0.550 -0.632 -0.545
vn 0.123 -0.707 -0.696
vn 0.123 -0.707 -0.696
vn -0.331 -0.632 -0.701
vn -0.468 -0.577 -0.669
vn 0.733 -0.447 -0.513
vn 0.615 -0.500 -0.610
vn 0.142 -0.577 -0.804
vn 0.142 -0.577 -0.804
vn -0.370 -0.500 -0.783
vn -0.513 -0.447 -0.733
vn 0.819 0.000 -0.574
vn 0.710 0.000 -0.704
vn 0.174 0.000 -0.985
vn 0.174 0.000 -0.985
vn -0.427 0.000 -0.904
vn -0.574 0.000 -0.819
vn 0.819 0.000 -0.574
vn 0.710 0.000 -0.704
vn 0.174 0.000 -0.985
vn 0.174 0.000 -0.985
vn -0.427 0.000 -0.904
vn -0.574 0.000 -0.819
vn 0.733 0.447 -0.513
vn 0.615 0.500 -0.610
vn 0.142 0.577 -0.804
vn 0.142 0.577 -0.804
vn -0.370 0.500 -0.783
vn -0.513 0.447 -0.733
vn 0.669 0.577 -0.468
vn 0.550 0.632 -0.545
vn 0.123 0.707 -0.696
vn 0.123 0.707 -0.696
vn -0.331 0.632 -0.701
vn -0.468 0.577 -0.669
vn -0.095 0.953 -0.286
vn 0.603 0.674 -0.426
vn 0.949 0.000 -0.316
vn 0.738 -0.674 -0.021
vn 0.095 -0.953 0.286
vn -0.603 -0.674 0.426
vn -0.949 -0.000 0.316
vn -0.738 0.674 0.021
vn -0.095 0.953 -0.286
vn -0.095 0.953 -0.286
vn 0.603 0.674 -0.426
vn 0.949 0.000 -0.316
vn 0.738 -0.674 -0.021
vn 0.095 -0.953 0.286
vn -0.603 -0.674 0.426
vn -0.949 -0.000 0.316
vn -0.738 0.674 0.021
vn -0.095 0.953 -0.286
vn 0.302 0.302 0.905
vn 0.302 0.302 0.905
vn 0.302 0.302 0.905
vn 0.302 0.302 0.905
vn 0.302 0.302 0.905
vn 0.302 0.302 0.905
vn 0.302 0.302 0.905
vn 0.302 0.302 0.905
vn 0.302 0.302 0.905
vn -0.302 -0.302 -0.905
vn -0.302 -0.302 -0.905
vn -0.302 -0.302 -0.905
vn -0.302 -0.302 -0.905
vn -0.302 -0.302 -0.905
vn -0.302 -0.302 -0.905
vn -0.302 -0.302 -0.905
vn -0.302 -0.302 -0.905
vn -0.302 -0.302 -0.905
vn 0.669 -0.577 0.468
vn 0.701 -0.632 0.331
vn 0.696 -0.707 -0.123
vn 0.696 -0.707 -0.123
vn 0.545 -0.632 -0.550
vn 0.468 -0.577 -0.669
vn 0.733 -0.447 0.513
vn 0.783 -0.500 0.370
vn 0.804 -0.577 -0.142
vn 0.804 -0.577 -0.142
vn 0.610 -0.500 -0.615
vn 0.513 -0.447 -0.733
vn 0.819 0.000 0.574
vn 0.904 0.000 0.427
vn 0.985 0.000 -0.174
vn 0.985 0.000 -0.174
vn 0.704 0.000 -0.710
vn 0.574 0.000 -0.819
vn 0.819 0.000 0.574
vn 0.904 0.000 0.427
vn 0.985 0.000 -0.174
vn 0.985 0.000 -0.174
vn 0.704 0.000 -0.710
vn 0.574 0.000 -0.819
vn 0.733 0.447 0.513
vn 0.783 0.500 0.370
vn 0.804 0.577 -0.142
vn 0.804 0.577 -0.142
vn 0.610 0.500 -0.615
vn 0.513 0.447 -0.733
vn 0.669 0.577 0.468
vn 0.701 0.632 0.331
vn 0.696 0.707 -0.123
vn 0.696 0.707 -0.123
vn 0.545 0.632 -0.550
vn 0.468 0.577 -0.669
vn -0.669 -0.577 -0.468
vn -0.701 -0.632 -0.331
vn -0.696 -0.707 0.123
vn -0.696 -0.707 0.123
vn -0.545 -0.632 0.550
vn -0.468 -0.577 0.669
vn -0.733 -0.447 -0.513
vn -0.783 -0.500 -0.370
vn -0.804 -0.577 0.142
vn -0.804 -0.577 0.142
vn -0.610 -0.500 0.615
vn -0.513 -0.447 0.733
vn -0.819 0.000 -0.574
vn -0.904 0.000 -0.427
vn -0.985 0.000 0.174
vn -0.985 0.000 0.174
vn -0.704 0.000 0.710
vn -0.574 0.000 0.819
vn -0.819 0.000 -0.574
vn -0.904 0.000 -0.427
vn -0.985 0.000 0.174
vn -0.985 0.000 0.174
vn -0.704 0.000 0.710
vn -0.574 0.000 0.819
vn -0.733 0.447 -0.513
vn -0.783 0.500 -0.370
vn -0.804 0.577 0.142
vn -0.804 0.577 0.142
vn -0.610 0.500 0.615
vn -0.513 0.447 0.733
vn -0.669 0.577 -0.468
vn -0.701 0.632 -0.331
vn -0.696 0.707 0.123
vn -0.696 0.707 0.123
vn -0.545 0.632 0.550
vn -0.468 0.577 0.669
vn -0.468 0.577 0.669
vn -0.331 0.632 0.701
vn 0.123 0.707 0.696
vn 0.123 0.707 0.696
vn 0.550 0.632 0.545
vn 0.669 0.577 0.468
vn -0.545 0.632 0.550
vn -0.406 0.707 0.579
vn 0.100 0.816 0.569
vn 0.100 0.816 0.569
vn 0.579 0.707 0.406
vn 0.701 0.632 0.331
vn -0.696 0.707 0.123
vn -0.569 0.816 0.100
vn 0.000 1.000 0.000
vn 0.000 1.000 0.000
vn 0.569 0.816 -0.100
vn 0.696 0.707 -0.123
vn -0.696 0.707 0.123
vn -0.569 0.816 0.100
vn 0.000 1.000 0.000
vn 0.000 1.000 0.000
vn 0.569 0.816 -0.100
vn 0.696 0.707 -0.123
vn -0.701 0.632 -0.331
vn -0.579 0.707 -0.406
vn -0.100 0.816 -0.569
vn -0.100 0.816 -0.569
vn 0.406 0.707 -0.579
vn 0.545 0.632 -0.550
vn -0.669 0.577 -0.468
vn -0.550 0.632 -0.545
vn -0.123 0.707 -0.696
vn -0.123 0.707 -0.696
vn 0.331 0.632 -0.701
vn 0.468 0.577 -0.669
vn -0.669 -0.577 -0.468
vn -0.550 -0.632 -0.545
vn -0.123 -0.707 -0.696
vn -0.123 -0.707 -0.696
vn 0.331 -0.632 -0.701
vn 0.468 -0.577 -0.669
vn -0.701 -0.632 -0.331
vn -0.579 -0.707 -0.406
vn -0.100 -0.816 -0.569
vn -0.100 -0.816 -0.569
vn 0.406 -0.707 -0.579
vn 0.545 -0.632 -0.550
vn -0.696 -0.707 0.123
vn -0.569 -0.816 0.100
vn 0.000 -1.000 0.000
vn 0.000 -1.000 0.000
vn 0.569 -0.816 -0.100
vn 0.696 -0.707 -0.123
vn -0.696 -0.707 0.123
vn -0.569 -0.816 0.100
vn 0.000 -1.000 0.000
vn 0.000 -1.000 0.000
vn 0.569 -0.816 -0.100
vn 0.696 -0.707 -0.123
vn -0.545 -0.632 0.550
vn -0.406 -0.707 0.579
vn 0.100 -0.816 0.569
vn 0.100 -0.816 0.569
vn 0.579 -0.707 0.406
vn 0.701 -0.632 0.331
vn -0.468 -0.577 0.669
vn -0.331 -0.632 0.701
vn 0.123 -0.707 0.696
vn 0.123 -0.707 0.696
vn 0.550 -0.632 0.545
vn 0.669 -0.577 0.468
vn -0.468 -0.577 0.669
vn -0.331 -0.632 0.701
vn 0.123 -0.707 0.696
vn 0.123 -0.707 0.696
vn 0.550 -0.632 0.545
vn 0.669 -0.577 0.468
vn -0.513 -0.447 0.733
vn -0.370 -0.500 0.783
vn 0.142 -0.577 0.804
vn 0.142 -0.577 0.804
vn 0.615 -0.500 0.610
vn 0.733 -0.447 0.513
vn -0.574 0.000 0.819
vn -0.427 0.000 0.904
vn 0.174 0.000 0.985
vn 0.174 0.000 0.985
vn 0.710 0.000 0.704
vn 0.819 0.000 0.574
vn -0.574 0.000 0.819
vn -0.427 0.000 0.904
vn 0.174 0.000 0.985
vn 0.174 0.000 0.985
vn 0.710 0.000 0.704
vn 0.819 0.000 0.574
vn -0.513 0.447 0.733
vn -0.370 0.500 0.783
vn 0.142 0.577 0.804
vn 0.142 0.577 0.804
vn 0.615 0.500 0.610
vn 0.733 0.447 0.513
vn -0.468 0.577 0.669
vn -0.331 0.632 0.701
vn 0.123 0.707 0.696
vn 0.123 0.707 0.696
vn 0.550 0.632 0.545
vn 0.669 0.577 0.468
vn 0.468 -0.577 -0.669
vn 0.331 -0.632 -0.701
vn -0.123 -0.707 -0.696
vn -0.123 -0.707 -0.696
vn -0.550 -0.632 -0.545
vn -0.669 -0.577 -0.468
vn 0.513 -0.447 -0.733
vn 0.370 -0.500 -0.783
vn -0.142 -0.577 -0.804
vn -0.142 -0.577 -0.804
vn -0.615 -0.500 -0.610
vn -0.733 -0.447 -0.513
vn 0.574 0.000 -0.819
vn 0.427 0.000 -0.904
vn -0.174 0.000 -0.985
vn -0.174 0.000 -0.985
vn -0.710 0.000 -0.704
vn -0.819 0.000 -0.574
vn 0.574 0.000 -0.819
vn 0.427 0.000 -0.904
vn -0.174 0.000 -0.985
vn -0.174 0.000 -0.985
vn -0.710 0.000 -0.704
vn -0.819 0.000 -0.574
vn 0.513 0.447 -0.733
vn 0.370 0.500 -0.783
vn -0.142 0.577 -0.804
vn -0.142 0.577 -0.804
vn -0.615 0.500 -0.610
vn -0.733 0.447 -0.513
vn 0.468 0.577 -0.669
vn 0.331 0.632 -0.701
vn -0.123 0.707 -0.696
vn -0.123 0.707 -0.696
vn -0.550 0.632 -0.545
vn -0.669 0.577 -0.468
usemtl shirt
f 1/1/1 2/2/2 13/13/13
f 1/1/1 13/13/13 12/12/12
f 2/2/2 3/3/3 14/14/14
f 2/2/2 14/14/14 13/13/13
f 3/3/3 4/4/4 15/15/15
f 3/3/3 15/15/15 14/14/14
f 4/4/4 5/5/5 16/16/16
f 4/4/4 16/16/16 15/15/15
f 5/5/5 6/6/6 17/17/17
f 5/5/5 17/17/17 16/16/16
f 6/6/6 7/7/7 18/18/18
f 6/6/6 18/18/18 17/17/17
f 7/7/7 8/8/8 19/19/19
f 7/7/7 19/19/19 18/18/18
f 8/8/8 9/9/9 20/20/20
f 8/8/8 20/20/20 19/19/19
f 9/9/9 10/10/10 21/21/21
f 9/9/9 21/21/21 20/20/20
f 10/10/10 11/11/11 22/22/22
f 10/10/10 22/22/22 21/21/21
f 23/23/23 25/25/25 24/24/24
f 23/23/23 26/26/26 25/25/25
f 23/23/23 27/27/27 26/26/26
f 23/23/23 28/28/28 27/27/27
f 23/23/23 29/29/29 28/28/28
f 23/23/23 30/30/30 29/29/29
f 23/23/23 31/31/31 30/30/30
f 23/23/23 32/32/32 31/31/31
f 23/23/23 33/33/33 32/32/32
f 23/23/23 24/24/24 33/33/33
f 34/34/34 35/35/35 36/36/36
f 34/34/34 36/36/36 37/37/37
f 34/34/34 37/37/37 38/38/38
f 34/34/34 38/38/38 39/39/39
f 34/34/34 39/39/39 40/40/40
f 34/34/34 40/40/40 41/41/41
f 34/34/34 41/41/41 42/42/42
f 34/34/34 42/42/42 43/43/43
f 34/34/34 43/43/43 44/44/44
f 34/34/34 44/44/44 35/35/35
f 45/45/45 46/46/46 57/57/57
f 45/45/45 57/57/57 56/56/56
f 46/46/46 47/47/47 58/58/58
f 46/46/46 58/58/58 57/57/57
f 47/47/47 48/48/48 59/59/59
f 47/47/47 59/59/59 58/58/58
f 48/48/48 49/49/49 60/60/60
f 48/48/48 60/60/60 59/59/59
f 49/49/49 50/50/50 61/61/61
f 49/49/49 61/61/61 60/60/60
f 50/50/50 51/51/51 62/62/62
f 50/50/50 62/62/62 61/61/61
f 51/51/51 52/52/52 63/63/63
f 51/51/51 63/63/63 62/62/62
f 52/52/52 53/53/53 64/64/64
f 52/52/52 64/64/64 63/63/63
f 53/53/53 54/54/54 65/65/65
f 53/53/53 65/65/65 64/64/64
f 54/54/54 55/55/55 66/66/66
f 54/54/54 66/66/66 65/65/65
f 56/56/56 57/57/57 68/68/68
f 56/56/56 68/68/68 67/67/67
f 57/57/57 58/58/58 69/69/69
f 57/57/57 69/69/69 68/68/68
f 58/58/58 59/59/59 70/70/70
f 58/58/58 70/70/70 69/69/69
f 59/59/59 60/60/60 71/71/71
f 59/59/59 71/71/71 70/70/70
f 60/60/60 61/61/61 72/72/72
f 60/60/60 72/72/72 71/71/71
f 61/61/61 62/62/62 73/73/73
f 61/61/61 73/73/73 72/72/72
f 62/62/62 63/63/63 74/74/74
f 62/62/62 74/74/74 73/73/73
f 63/63/63 64/64/64 75/75/75
f 63/63/63 75/75/75 74/74/74
f 64/64/64 65/65/65 76/76/76
f 64/64/64 76/76/76 75/75/75
f 65/65/65 66/66/66 77/77/77
f 65/65/65 77/77/77 76/76/76
f 67/67/67 68/68/68 79/79/79
f 67/67/67 79/79/79 78/78/78
f 68/68/68 69/69/69 80/80/80
f 68/68/68 80/80/80 79/79/79
f 69/69/69 70/70/70 81/81/81
f 69/69/69 81/81/81 80/80/80
f 70/70/70 71/71/71 82/82/82
f 70/70/70 82/82/82 81/81/81
f 71/71/71 72/72/72 83/83/83
f 71/71/71 83/83/83 82/82/82
f 72/72/72 73/73/73 84/84/84
f 72/72/72 84/84/84 83/83/83
f 73/73/73 74/74/74 85/85/85
f 73/73/73 85/85/85 84/84/84
f 74/74/74 75/75/75 86/86/86
f 74/74/74 86/86/86 85/85/85
f 75/75/75 76/76/76 87/87/87
f 75/75/75 87/87/87 86/86/86
f 76/76/76 77/77/77 88/88/88
f 76/76/76 88/88/88 87/87/87
f 78/78/78 79/79/79 90/90/90
f 78/78/78 90/90/90 89/89/89
f 79/79/79 80/80/80 91/91/91
f 79/79/79 91/91/91 90/90/90
f 80/80/80 81/81/81 92/92/92
f 80/80/80 92/92/92 91/91/91
f 81/81/81 82/82/82 93/93/93
f 81/81/81 93/93/93 92/92/92
f 82/82/82 83/83/83 94/94/94
f 82/82/82 94/94/94 93/93/93
f 83/83/83 84/84/84 95/95/95
f 83/83/83 95/95/95 94/94/94
f 84/84/84 85/85/85 96/96/96
f 84/84/84 96/96/96 95/95/95
f 85/85/85 86/86/86 97/97/97
f 85/85/85 97/97/97 96/96/96
f 86/86/86 87/87/87 98/98/98
f 86/86/86 98/98/98 97/97/97
f 87/87/87 88/88/88 99/99/99
f 87/87/87 99/99/99 98/98/98
f 89/89/89 90/90/90 101/101/101
f 89/89/89 101/101/101 100/100/100
f 90/90/90 91/91/91 102/102/102
f 90/90/90 102/102/102 101/101/101
f 91/91/91 92/92/92 103/103/103
f 91/91/91 103/103/103 102/102/102
f 92/92/92 93/93/93 104/104/104
f 92/92/92 104/104/104 103/103/103
f 93/93/93 94/94/94 105/105/105
f 93/93/93 105/105/105 104/104/104
f 94/94/94 95/95/95 106/106/106
f 94/94/94 106/106/106 105/105/105
f 95/95/95 96/96/96 107/107/107
f 95/95/95 107/107/107 106/106/106
f 96/96/96 97/97/97 108/108/108
f 96/96/96 108/108/108 107/107/107
f 97/97/97 98/98/98 109/109/109
f 97/97/97 109/109/109 108/108/108
f 98/98/98 99/99/99 110/110/110
f 98/98/98 110/110/110 109/109/109
f 100/100/100 101/101/101 112/112/112
f 100/100/100 112/112/112 111/111/111
f 101/101/101 102/102/102 113/113/113
f 101/101/101 113/113/113 112/112/112
f 102/102/102 103/103/103 114/114/114
f 102/102/102 114/114/114 113/113/113
f 103/103/103 104/104/104 115/115/115
f 103/103/103 115/115/115 114/114/114
f 104/104/104 105/105/105 116/116/116
f 104/104/104 116/116/116 115/115/115
f 105/105/105 106/106/106 117/117/117
f 105/105/105 117/117/117 116/116/116
f 106/106/106 107/107/107 118/118/118
f 106/106/106 118/118/118 117/117/117
f 107/107/107 108/108/108 119/119/119
f 107/107/107 119/119/119 118/118/118
f 108/108/108 109/109/109 120/120/120
f 108/108/108 120/120/120 119/119/119
f 109/109/109 110/110/110 121/121/121
f 109/109/109 121/121/121 120/120/120
f 122/122/122 123/123/123 134/134/134
f 122/122/122 134/134/134 133/133/133
f 123/123/123 124/124/124 135/135/135
f 123/123/123 135/135/135 134/134/134
f 124/124/124 125/125/125 136/136/136
f 124/124/124 136/136/136 135/135/135
f 125/125/125 126/126/126 137/137/137
f 125/125/125 137/137/137 136/136/136
f 126/126/126 127/127/127 138/138/138
f 126/126/126 138/138/138 137/137/137
f 127/127/127 128/128/128 139/139/139
f 127/127/127 139/139/139 138/138/138
f 128/128/128 129/129/129 140/140/140
f 128/128/128 140/140/140 139/139/139
f 129/129/129 130/130/130 141/141/141
f 129/129/129 141/141/141 140/140/140
f 130/130/130 131/131/131 142/142/142
f 130/130/130 142/142/142 141/141/141
f 131/131/131 132/132/132 143/143/143
f 131/131/131 143/143/143 142/142/142
f 144/144/144 146/146/146 145/145/145
f 144/144/144 147/147/147 146/146/146
f 144/144/144 148/148/148 147/147/147
f 144/144/144 149/149/149 148/148/148
f 144/144/144 150/150/150 149/149/149
f 144/144/144 151/151/151 150/150/150
f 144/144/144 152/152/152 151/151/151
f 144/144/144 153/153/153 152/152/152
f 144/144/144 154/154/154 153/153/153
f 144/144/144 145/145/145 154/154/154
f 155/155/155 156/156/156 157/157/157
f 155/155/155 157/157/157 158/158/158
f 155/155/155 158/158/158 159/159/159
f 155/155/155 159/159/159 160/160/160
f 155/155/155 160/160/160 161/161/161
f 155/155/155 161/161/161 162/162/162
f 155/155/155 162/162/162 163/163/163
f 155/155/155 163/163/163 164/164/164
f 155/155/155 164/164/164 165/165/165
f 155/155/155 165/165/165 156/156/156
f 166/166/166 167/167/167 178/178/178
f 166/166/166 178/178/178 177/177/177
f 167/167/167 168/168/168 179/179/179
f 167/167/167 179/179/179 178/178/178
f 168/168/168 169/169/169 180/180/180
f 168/168/168 180/180/180 179/179/179
f 169/169/169 170/170/170 181/181/181
f 169/169/169 181/181/181 180/180/180
f 170/170/170 171/171/171 182/182/182
f 170/170/170 182/182/182 181/181/181
f 171/171/171 172/172/172 183/183/183
f 171/171/171 183/183/183 182/182/182
f 172/172/172 173/173/173 184/184/184
f 172/172/172 184/184/184 183/183/183
f 173/173/173 174/174/174 185/185/185
f 173/173/173 185/185/185 184/184/184
f 174/174/174 175/175/175 186/186/186
f 174/174/174 186/186/186 185/185/185
f 175/175/175 176/176/176 187/187/187
f 175/175/175 187/187/187 186/186/186
f 188/188/188 190/190/190 189/189/189
f 188/188/188 191/191/191 190/190/190
f 188/188/188 192/192/192 191/191/191
f 188/188/188 193/193/193 192/192/192
f 188/188/188 194/194/194 193/193/193
f 188/188/188 195/195/195 194/194/194
f 188/188/188 196/196/196 195/195/195
f 188/188/188 197/197/197 196/196/196
f 188/188/188 198/198/198 197/197/197
f 188/188/188 189/189/189 198/198/198
f 199/199/199 200/200/200 201/201/201
f 199/199/199 201/201/201 202/202/202
f 199/199/199 202/202/202 203/203/203
f 199/199/199 203/203/203 204/204/204
f 199/199/199 204/204/204 205/205/205
f 199/199/199 205/205/205 206/206/206
f 199/199/199 206/206/206 207/207/207
f 199/199/199 207/207/207 208/208/208
f 199/199/199 208/208/208 209/209/209
f 199/199/199 209/209/209 200/200/200
f 210/210/210 211/211/211 222/222/222
f 210/210/210 222/222/222 221/221/221
f 211/211/211 212/212/212 223/223/223
f 211/211/211 223/223/223 222/222/222
f 212/212/212 213/213/213 224/224/224
f 212/212/212 224/224/224 223/223/223
f 213/213/213 214/214/214 225/225/225
f 213/213/213 225/225/225 224/224/224
f 214/214/214 215/215/215 226/226/226
f 214/214/214 226/226/226 225/225/225
f 215/215/215 216/216/216 227/227/227
f 215/215/215 227/227/227 226/226/226
f 216/216/216 217/217/217 228/228/228
f 216/216/216 228/228/228 227/227/227
f 217/217/217 218/218/218 229/229/229
f 217/217/217 229/229/229 228/228/228
f 218/218/218 219/219/219 230/230/230
f 218/218/218 230/230/230 229/229/229
f 219/219/219 220/220/220 231/231/231
f 219/219/219 231/231/231 230/230/230
f 221/221/221 222/222/222 233/233/233
f 221/221/221 233/233/233 232/232/232
f 222/222/222 223/223/223 234/234/234
f 222/222/222 234/234/234 233/233/233
f 223/223/223 224/224/224 235/235/235
f 223/223/223 235/235/235 234/234/234
f 224/224/224 225/225/225 236/236/236
f 224/224/224 236/236/236 235/235/235
f 225/225/225 226/226/226 237/237/237
f 225/225/225 237/237/237 236/236/236
f 226/226/226 227/227/227 238/238/238
f 226/226/226 238/238/238 237/237/237
f 227/227/227 228/228/228 239/239/239
f 227/227/227 239/239/239 238/238/238
f 228/228/228 229/229/229 240/240/240
f 228/228/228 240/240/240 239/239/239
f 229/229/229 230/230/230 241/241/241
f 229/229/229 241/241/241 240/240/240
f 230/230/230 231/231/231 242/242/242
f 230/230/230 242/242/242 241/241/241
f 232/232/232 233/233/233 244/244/244
f 232/232/232 244/244/244 243/243/243
f 233/233/233 234/234/234 245/245/245
f 233/233/233 245/245/245 244/244/244
f 234/234/234 235/235/235 246/246/246
f 234/234/234 246/246/246 245/245/245
f 235/235/235 236/236/236 247/247/247
f 235/235/235 247/247/247 246/246/246
f 236/236/236 237/237/237 248/248/248
f 236/236/236 248/248/248 247/247/247
f 237/237/237 238/238/238 249/249/249
f 237/237/237 249/249/249 248/248/248
f 238/238/238 239/239/239 250/250/250
f 238/238/238 250/250/250 249/249/249
f 239/239/239 240/240/240 251/251/251
f 239/239/239 251/251/251 250/250/250
f 240/240/240 241/241/241 252/252/252
f 240/240/240 252/252/252 251/251/251
f 241/241/241 242/242/242 253/253/253
f 241/241/241 253/253/253 252/252/252
f 243/243/243 244/244/244 255/255/255
f 243/243/243 255/255/255 254/254/254
f 244/244/244 245/245/245 256/256/256
f 244/244/244 256/256/256 255/255/255
f 245/245/245 246/246/246 257/257/257
f 245/245/245 257/257/257 256/256/256
f 246/246/246 247/247/247 258/258/258
f 246/246/246 258/258/258 257/257/257
f 247/247/247 248/248/248 259/259/259
f 247/247/247 259/259/259 258/258/258
f 248/248/248 249/249/249 260/260/260
f 248/248/248 260/260/260 259/259/259
f 249/249/249 250/250/250 261/261/261
f 249/249/249 261/261/261 260/260/260
f 250/250/250 251/251/251 262/262/262
f 250/250/250 262/262/262 261/261/261
f 251/251/251 252/252/252 263/263/263
f 251/251/251 263/263/263 262/262/262
f 252/252/252 253/253/253 264/264/264
f 252/252/252 264/264/264 263/263/263
f 254/254/254 255/255/255 266/266/266
f 254/254/254 266/266/266 265/265/265
f 255/255/255 256/256/256 267/267/267
f 255/255/255 267/267/267 266/266/266
f 256/256/256 257/257/257 268/268/268
f 256/256/256 268/268/268 267/267/267
f 257/257/257 258/258/258 269/269/269
f 257/257/257 269/269/269 268/268/268
f 258/258/258 259/259/259 270/270/270
f 258/258/258 270/270/270 269/269/269
f 259/259/259 260/260/260 271/271/271
f 259/259/259 271/271/271 270/270/270
f 260/260/260 261/261/261 272/272/272
f 260/260/260 272/272/272 271/271/271
f 261/261/261 262/262/262 273/273/273
f 261/261/261 273/273/273 272/272/272
f 262/262/262 263/263/263 274/274/274
f 262/262/262 274/274/274 273/273/273
f 263/263/263 264/264/264 275/275/275
f 263/263/263 275/275/275 274/274/274
f 265/265/265 266/266/266 277/277/277
f 265/265/265 277/277/277 276/276/276
f 266/266/266 267/267/267 278/278/278
f 266/266/266 278/278/278 277/277/277
f 267/267/267 268/268/268 279/279/279
f 267/267/267 279/279/279 278/278/278
f 268/268/268 269/269/269 280/280/280
f 268/268/268 280/280/280 279/279/279
f 269/269/269 270/270/270 281/281/281
f 269/269/269 281/281/281 280/280/280
f 270/270/270 271/271/271 282/282/282
f 270/270/270 282/282/282 281/281/281
f 271/271/271 272/272/272 283/283/283
f 271/271/271 283/283/283 282/282/282
f 272/272/272 273/273/273 284/284/284
f 272/272/272 284/284/284 283/283/283
f 273/273/273 274/274/274 285/285/285
f 273/273/273 285/285/285 284/284/284
f 274/274/274 275/275/275 286/286/286
f 274/274/274 286/286/286 285/285/285
f 287/287/287 288/288/288 299/299/299
f 287/287/287 299/299/299 298/298/298
f 288/288/288 289/289/289 300/300/300
f 288/288/288 300/300/300 299/299/299
f 289/289/289 290/290/290 301/301/301
f 289/289/289 301/301/301 300/300/300
f 290/290/290 291/291/291 302/302/302
f 290/290/290 302/302/302 301/301/301
f 291/291/291 292/292/292 303/303/303
f 291/291/291 303/303/303 302/302/302
f 292/292/292 293/293/293 304/304/304
f 292/292/292 304/304/304 303/303/303
f 293/293/293 294/294/294 305/305/305
f 293/293/293 305/305/305 304/304/304
f 294/294/294 295/295/295 306/306/306
f 294/294/294 306/306/306 305/305/305
f 295/295/295 296/296/296 307/307/307
f 295/295/295 307/307/307 306/306/306
f 296/296/296 297/297/297 308/308/308
f 296/296/296 308/308/308 307/307/307
f 309/309/309 311/311/311 310/310/310
f 309/309/309 312/312/312 311/311/311
f 309/309/309 313/313/313 312/312/312
f 309/309/309 314/314/314 313/313/313
f 309/309/309 315/315/315 314/314/314
f 309/309/309 316/316/316 315/315/315
f 309/309/309 317/317/317 316/316/316
f 309/309/309 318/318/318 317/317/317
f 309/309/309 319/319/319 318/318/318
f 309/309/309 310/310/310 319/319/319
f 320/320/320 321/321/321 322/322/322
f 320/320/320 322/322/322 323/323/323
f 320/320/320 323/323/323 324/324/324
f 320/320/320 324/324/324 325/325/325
f 320/320/320 325/325/325 326/326/326
f 320/320/320 326/326/326 327/327/327
f 320/320/320 327/327/327 328/328/328
f 320/320/320 328/328/328 329/329/329
f 320/320/320 329/329/329 330/330/330
f 320/320/320 330/330/330 321/321/321
usemtl skin
f 331/331/331 332/332/332 341/341/341
f 331/331/331 341/341/341 340/340/340
f 332/332/332 333/333/333 342/342/342
f 332/332/332 342/342/342 341/341/341
f 333/333/333 334/334/334 343/343/343
f 333/333/333 343/343/343 342/342/342
f 334/334/334 335/335/335 344/344/344
f 334/334/334 344/344/344 343/343/343
f 335/335/335 336/336/336 345/345/345
f 335/335/335 345/345/345 344/344/344
f 336/336/336 337/337/337 346/346/346
f 336/336/336 346/346/346 345/345/345
f 337/337/337 338/338/338 347/347/347
f 337/337/337 347/347/347 346/346/346
f 338/338/338 339/339/339 348/348/348
f 338/338/338 348/348/348 347/347/347
f 349/349/349 351/351/351 350/350/350
f 349/349/349 352/352/352 351/351/351
f 349/349/349 353/353/353 352/352/352
f 349/349/349 354/354/354 353/353/353
f 349/349/349 355/355/355 354/354/354
f 349/349/349 356/356/356 355/355/355
f 349/349/349 357/357/357 356/356/356
f 349/349/349 350/350/350 357/357/357
f 358/358/358 359/359/359 360/360/360
f 358/358/358 360/360/360 361/361/361
f 358/358/358 361/361/361 362/362/362
f 358/358/358 362/362/362 363/363/363
f 358/358/358 363/363/363 364/364/364
f 358/358/358 364/364/364 365/365/365
f 358/358/358 365/365/365 366/366/366
f 358/358/358 366/366/366 359/359/359
f 367/367/367 368/368/368 374/374/374
f 367/367/367 374/374/374 373/373/373
f 368/368/368 369/369/369 375/375/375
f 368/368/368 375/375/375 374/374/374
f 369/369/369 370/370/370 376/376/376
f 369/369/369 376/376/376 375/375/375
f 370/370/370 371/371/371 377/377/377
f 370/370/370 377/377/377 376/376/376
f 371/371/371 372/372/372 378/378/378
f 371/371/371 378/378/378 377/377/377
f 373/373/373 374/374/374 380/380/380
f 373/373/373 380/380/380 379/379/379
f 374/374/374 375/375/375 381/381/381
f 374/374/374 381/381/381 380/380/380
f 375/375/375 376/376/376 382/382/382
f 375/375/375 382/382/382 381/381/381
f 376/376/376 377/377/377 383/383/383
f 376/376/376 383/383/383 382/382/382
f 377/377/377 378/378/378 384/384/384
f 377/377/377 384/384/384 383/383/383
f 379/379/379 380/380/380 386/386/386
f 379/379/379 386/386/386 385/385/385
f 380/380/380 381/381/381 387/387/387
f 380/380/380 387/387/387 386/386/386
f 381/381/381 382/382/382 388/388/388
f 381/381/381 388/388/388 387/387/387
f 382/382/382 383/383/383 389/389/389
f 382/382/382 389/389/389 388/388/388
f 383/383/383 384/384/384 390/390/390
f 383/383/383 390/390/390 389/389/389
f 385/385/385 386/386/386 392/392/392
f 385/385/385 392/392/392 391/391/391
f 386/386/386 387/387/387 393/393/393
f 386/386/386 393/393/393 392/392/392
f 387/387/387 388/388/388 394/394/394
f 387/387/387 394/394/394 393/393/393
f 388/388/388 389/389/389 395/395/395
f 388/388/388 395/395/395 394/394/394
f 389/389/389 390/390/390 396/396/396
f 389/389/389 396/396/396 395/395/395
f 391/391/391 392/392/392 398/398/398
f 391/391/391 398/398/398 397/397/397
f 392/392/392 393/393/393 399/399/399
f 392/392/392 399/399/399 398/398/398
f 393/393/393 394/394/394 400/400/400
f 393/393/393 400/400/400 399/399/399
f 394/394/394 395/395/395 401/401/401
f 394/394/394 401/401/401 400/400/400
f 395/395/395 396/396/396 402/402/402
f 395/395/395 402/402/402 401/401/401
f 403/403/403 404/404/404 410/410/410
f 403/403/403 410/410/410 409/409/409
f 404/404/404 405/405/405 411/411/411
f 404/404/404 411/411/411 410/410/410
f 405/405/405 406/406/406 412/412/412
f 405/405/405 412/412/412 411/411/411
f 406/406/406 407/407/407 413/413/413
f 406/406/406 413/413/413 412/412/412
f 407/407/407 408/408/408 414/414/414
f 407/407/407 414/414/414 413/413/413
f 409/409/409 410/410/410 416/416/416
f 409/409/409 416/416/416 415/415/415
f 410/410/410 411/411/411 417/417/417
f 410/410/410 417/417/417 416/416/416
f 411/411/411 412/412/412 418/418/418
f 411/411/411 418/418/418 417/417/417
f 412/412/412 413/413/413 419/419/419
f 412/412/412 419/419/419 418/418/418
f 413/413/413 414/414/414 420/420/420
f 413/413/413 420/420/420 419/419/419
f 415/415/415 416/416/416 422/422/422
f 415/415/415 422/422/422 421/421/421
f 416/416/416 417/417/417 423/423/423
f 416/416/416 423/423/423 422/422/422
f 417/417/417 418/418/418 424/424/424
f 417/417/417 424/424/424 423/423/423
f 418/418/418 419/419/419 425/425/425
f 418/418/418 425/425/425 424/424/424
f 419/419/419 420/420/420 426/426/426
f 419/419/419 426/426/426 425/425/425
f 421/421/421 422/422/422 428/428/428
f 421/421/421 428/428/428 427/427/427
f 422/422/422 423/423/423 429/429/429
f 422/422/422 429/429/429 428/428/428
f 423/423/423 424/424/424 430/430/430
f 423/423/423 430/430/430 429/429/429
f 424/424/424 425/425/425 431/431/431
f 424/424/424 431/431/431 430/430/430
f 425/425/425 426/426/426 432/432/432
f 425/425/425 432/432/432 431/431/431
f 427/427/427 428/428/428 434/434/434
f 427/427/427 434/434/434 433/433/433
f 428/428/428 429/429/429 435/435/435
f 428/428/428 435/435/435 434/434/434
f 429/429/429 430/430/430 436/436/436
f 429/429/429 436/436/436 435/435/435
f 430/430/430 431/431/431 437/437/437
f 430/430/430 437/437/437 436/436/436
f 431/431/431 432/432/432 438/438/438
f 431/431/431 438/438/438 437/437/437
f 439/439/439 440/440/440 446/446/446
f 439/439/439 446/446/446 445/445/445
f 440/440/440 441/441/441 447/447/447
f 440/440/440 447/447/447 446/446/446
f 441/441/441 442/442/442 448/448/448
f 441/441/441 448/448/448 447/447/447
f 442/442/442 443/443/443 449/449/449
f 442/442/442 449/449/449 448/448/448
f 443/443/443 444/444/444 450/450/450
f 443/443/443 450/450/450 449/449/449
f 445/445/445 446/446/446 452/452/452
f 445/445/445 452/452/452 451/451/451
f 446/446/446 447/447/447 453/453/453
f 446/446/446 453/453/453 452/452/452
f 447/447/447 448/448/448 454/454/454
f 447/447/447 454/454/454 453/453/453
f 448/448/448 449/449/449 455/455/455
f 448/448/448 455/455/455 454/454/454
f 449/449/449 450/450/450 456/456/456
f 449/449/449 456/456/456 455/455/455
f 451/451/451 452/452/452 458/458/458
f 451/451/451 458/458/458 457/457/457
f 452/452/452 453/453/453 459/459/459
f 452/452/452 459/459/459 458/458/458
f 453/453/453 454/454/454 460/460/460
f 453/453/453 460/460/460 459/459/459
f 454/454/454 455/455/455 461/461/461
f 454/454/454 461/461/461 460/460/460
f 455/455/455 456/456/456 462/462/462
f 455/455/455 462/462/462 461/461/461
f 457/457/457 458/458/458 464/464/464
f 457/457/457 464/464/464 463/463/463
f 458/458/458 459/459/459 465/465/465
f 458/458/458 465/465/465 464/464/464
f 459/459/459 460/460/460 466/466/466
f 459/459/459 466/466/466 465/465/465
f 460/460/460 461/461/461 467/467/467
f 460/460/460 467/467/467 466/466/466
f 461/461/461 462/462/462 468/468/468
f 461/461/461 468/468/468 467/467/467
f 463/463/463 464/464/464 470/470/470
f 463/463/463 470/470/470 469/469/469
f 464/464/464 465/465/465 471/471/471
f 464/464/464 471/471/471 470/470/470
f 465/465/465 466/466/466 472/472/472
f 465/465/465 472/472/472 471/471/471
f 466/466/466 467/467/467 473/473/473
f 466/466/466 473/473/473 472/472/472
f 467/467/467 468/468/468 474/474/474
f 467/467/467 474/474/474 473/473/473
f 475/475/475 476/476/476 482/482/482
f 475/475/475 482/482/482 481/481/481
f 476/476/476 477/477/477 483/483/483
f 476/476/476 483/483/483 482/482/482
f 477/477/477 478/478/478 484/484/484
f 477/477/477 484/484/484 483/483/483
f 478/478/478 479/479/479 485/485/485
f 478/478/478 485/485/485 484/484/484
f 479/479/479 480/480/480 486/486/486
f 479/479/479 486/486/486 485/485/485
f 481/481/481 482/482/482 488/488/488
f 481/481/481 488/488/488 487/487/487
f 482/482/482 483/483/483 489/489/489
f 482/482/482 489/489/489 488/488/488
f 483/483/483 484/484/484 490/490/490
f 483/483/483 490/490/490 489/489/489
f 484/484/484 485/485/485 491/491/491
f 484/484/484 491/491/491 490/490/490
f 485/485/485 486/486/486 492/492/492
f 485/485/485 492/492/492 491/491/491
f 487/487/487 488/488/488 494/494/494
f 487/487/487 494/494/494 493/493/493
f 488/488/488 489/489/489 495/495/495
f 488/488/488 495/495/495 494/494/494
f 489/489/489 490/490/490 496/496/496
f 489/489/489 496/496/496 495/495/495
f 490/490/490 491/491/491 497/497/497
f 490/490/490 497/497/497 496/496/496
f 491/491/491 492/492/492 498/498/498
f 491/491/491 498/498/498 497/497/497
f 493/493/493 494/494/494 500/500/500
f 493/493/493 500/500/500 499/499/499
f 494/494/494 495/495/495 501/501/501
f 494/494/494 501/501/501 500/500/500
f 495/495/495 496/496/496 502/502/502
f 495/495/495 502/502/502 501/501/501
f 496/496/496 497/497/497 503/503/503
f 496/496/496 503/503/503 502/502/502
f 497/497/497 498/498/498 504/504/504
f 497/497/497 504/504/504 503/503/503
f 499/499/499 500/500/500 506/506/506
f 499/499/499 506/506/506 505/505/505
f 500/500/500 501/501/501 507/507/507
f 500/500/500 507/507/507 506/506/506
f 501/501/501 502/502/502 508/508/508
f 501/501/501 508/508/508 507/507/507
f 502/502/502 503/503/503 509/509/509
f 502/502/502 509/509/509 508/508/508
f 503/503/503 504/504/504 510/510/510
f 503/503/503 510/510/510 509/509/509
f 511/511/511 512/512/512 518/518/518
f 511/511/511 518/518/518 517/517/517
f 512/512/512 513/513/513 519/519/519
f 512/512/512 519/519/519 518/518/518
f 513/513/513 514/514/514 520/520/520
f 513/513/513 520/520/520 519/519/519
f 514/514/514 515/515/515 521/521/521
f 514/514/514 521/521/521 520/520/520
f 515/515/515 516/516/516 522/522/522
f 515/515/515 522/522/522 521/521/521
f 517/517/517 518/518/518 524/524/524
f 517/517/517 524/524/524 523/523/523
f 518/518/518 519/519/519 525/525/525
f 518/518/518 525/525/525 524/524/524
f 519/519/519 520/520/520 526/526/526
f 519/519/519 526/526/526 525/525/525
f 520/520/520 521/521/521 527/527/527
f 520/520/520 527/527/527 526/526/526
f 521/521/521 522/522/522 528/528/528
f 521/521/521 528/528/528 527/527/527
f 523/523/523 524/524/524 530/530/530
f 523/523/523 530/530/530 529/529/529
f 524/524/524 525/525/525 531/531/531
f 524/524/524 531/531/531 530/530/530
f 525/525/525 526/526/526 532/532/532
f 525/525/525 532/532/532 531/531/531
f 526/526/526 527/527/527 533/533/533
f 526/526/526 533/533/533 532/532/532
f 527/527/527 528/528/528 534/534/534
f 527/527/527 534/534/534 533/533/533
f 529/529/529 530/530/530 536/536/536
f 529/529/529 536/536/536 535/535/535
f 530/530/530 531/531/531 537/537/537
f 530/530/530 537/537/537 536/536/536
f 531/531/531 532/532/532 538/538/538
f 531/531/531 538/538/538 537/537/537
f 532/532/532 533/533/533 539/539/539
f 532/532/532 539/539/539 538/538/538
f 533/533/533 534/534/534 540/540/540
f 533/533/533 540/540/540 539/539/539
f 535/535/535 536/536/536 542/542/542
f 535/535/535 542/542/542 541/541/541
f 536/536/536 537/537/537 543/543/543
f 536/536/536 543/543/543 542/542/542
f 537/537/537 538/538/538 544/544/544
f 537/537/537 544/544/544 543/543/543
f 538/538/538 539/539/539 545/545/545
f 538/538/538 545/545/545 544/544/544
f 539/539/539 540/540/540 546/546/546
f 539/539/539 546/546/546 545/545/545
f 547/547/547 548/548/548 554/554/554
f 547/547/547 554/554/554 553/553/553
f 548/548/548 549/549/549 555/555/555
f 548/548/548 555/555/555 554/554/554
f 549/549/549 550/550/550 556/556/556
f 549/549/549 556/556/556 555/555/555
f 550/550/550 551/551/551 557/557/557
f 550/550/550 557/557/557 556/556/556
f 551/551/551 552/552/552 558/558/558
f 551/551/551 558/558/558 557/557/557
f 553/553/553 554/554/554 560/560/560
f 553/553/553 560/560/560 559/559/559
f 554/554/554 555/555/555 561/561/561
f 554/554/554 561/561/561 560/560/560
f 555/555/555 556/556/556 562/562/562
f 555/555/555 562/562/562 561/561/561
f 556/556/556 557/557/557 563/563/563
f 556/556/556 563/563/563 562/562/562
f 557/557/557 558/558/558 564/564/564
f 557/557/557 564/564/564 563/563/563
f 559/559/559 560/560/560 566/566/566
f 559/559/559 566/566/566 565/565/565
f 560/560/560 561/561/561 567/567/567
f 560/560/560 567/567/567 566/566/566
f 561/561/561 562/562/562 568/568/568
f 561/561/561 568/568/568 567/567/567
f 562/562/562 563/563/563 569/569/569
f 562/562/562 569/569/569 568/568/568
f 563/563/563 564/564/564 570/570/570
f 563/563/563 570/570/570 569/569/569
f 565/565/565 566/566/566 572/572/572
f 565/565/565 572/572/572 571/571/571
f 566/566/566 567/567/567 573/573/573
f 566/566/566 573/573/573 572/572/572
f 567/567/567 568/568/568 574/574/574
f 567/567/567 574/574/574 573/573/573
f 568/568/568 569/569/569 575/575/575
f 568/568/568 575/575/575 574/574/574
f 569/569/569 570/570/570 576/576/576
f 569/569/569 576/576/576 575/575/575
f 571/571/571 572/572/572 578/578/578
f 571/571/571 578/578/578 577/577/577
f 572/572/572 573/573/573 579/579/579
f 572/572/572 579/579/579 578/578/578
f 573/573/573 574/574/574 580/580/580
f 573/573/573 580/580/580 579/579/579
f 574/574/574 575/575/575 581/581/581
f 574/574/574 581/581/581 580/580/580
f 575/575/575 576/576/576 582/582/582
f 575/575/575 582/582/582 581/581/581
f 583/583/583 584/584/584 593/593/593
f 583/583/583 593/593/593 592/592/592
f 584/584/584 585/585/585 594/594/594
f 584/584/584 594/594/594 593/593/593
f 585/585/585 586/586/586 595/595/595
f 585/585/585 595/595/595 594/594/594
f 586/586/586 587/587/587 596/596/596
f 586/586/586 596/596/596 595/595/595
f 587/587/587 588/588/588 597/597/597
f 587/587/587 597/597/597 596/596/596
f 588/588/588 589/589/589 598/598/598
f 588/588/588 598/598/598 597/597/597
f 589/589/589 590/590/590 599/599/599
f 589/589/589 599/599/599 598/598/598
f 590/590/590 591/591/591 600/600/600
f 590/590/590 600/600/600 599/599/599
f 601/601/601 603/603/603 602/602/602
f 601/601/601 604/604/604 603/603/603
f 601/601/601 605/605/605 604/604/604
f 601/601/601 606/606/606 605/605/605
f 601/601/601 607/607/607 606/606/606
f 601/601/601 608/608/608 607/607/607
f 601/601/601 609/609/609 608/608/608
f 601/601/601 602/602/602 609/609/609
f 610/610/610 611/611/611 612/612/612
f 610/610/610 612/612/612 613/613/613
f 610/610/610 613/613/613 614/614/614
f 610/610/610 614/614/614 615/615/615
f 610/610/610 615/615/615 616/616/616
f 610/610/610 616/616/616 617/617/617
f 610/610/610 617/617/617 618/618/618
f 610/610/610 618/618/618 611/611/611
f 619/619/619 620/620/620 626/626/626
f 619/619/619 626/626/626 625/625/625
f 620/620/620 621/621/621 627/627/627
f 620/620/620 627/627/627 626/626/626
f 621/621/621 622/622/622 628/628/628
f 621/621/621 628/628/628 627/627/627
f 622/622/622 623/623/623 629/629/629
f 622/622/622 629/629/629 628/628/628
f 623/623/623 624/624/624 630/630/630
f 623/623/623 630/630/630 629/629/629
f 625/625/625 626/626/626 632/632/632
f 625/625/625 632/632/632 631/631/631
f 626/626/626 627/627/627 633/633/633
f 626/626/626 633/633/633 632/632/632
f 627/627/627 628/628/628 634/634/634
f 627/627/627 634/634/634 633/633/633
f 628/628/628 629/629/629 635/635/635
f 628/628/628 635/635/635 634/634/634
f 629/629/629 630/630/630 636/636/636
f 629/629/629 636/636/636 635/635/635
f 631/631/631 632/632/632 638/638/638
f 631/631/631 638/638/638 637/637/637
f 632/632/632 633/633/633 639/639/639
f 632/632/632 639/639/639 638/638/638
f 633/633/633 634/634/634 640/640/640
f 633/633/633 640/640/640 639/639/639
f 634/634/634 635/635/635 641/641/641
f 634/634/634 641/641/641 640/640/640
f 635/635/635 636/636/636 642/642/642
f 635/635/635 642/642/642 641/641/641
f 637/637/637 638/638/638 644/644/644
f 637/637/637 644/644/644 643/643/643
f 638/638/638 639/639/639 645/645/645
f 638/638/638 645/645/645 644/644/644
f 639/639/639 640/640/640 646/646/646
f 639/639/639 646/646/646 645/645/645
f 640/640/640 641/641/641 647/647/647
f 640/640/640 647/647/647 646/646/646
f 641/641/641 642/642/642 648/648/648
f 641/641/641 648/648/648 647/647/647
f 643/643/643 644/644/644 650/650/650
f 643/643/643 650/650/650 649/649/649
f 644/644/644 645/645/645 651/651/651
f 644/644/644 651/651/651 650/650/650
f 645/645/645 646/646/646 652/652/652
f 645/645/645 652/652/652 651/651/651
f 646/646/646 647/647/647 653/653/653
f 646/646/646 653/653/653 652/652/652
f 647/647/647 648/648/648 654/654/654
f 647/647/647 654/654/654 653/653/653
f 655/655/655 656/656/656 662/662/662
f 655/655/655 662/662/662 661/661/661
f 656/656/656 657/657/657 663/663/663
f 656/656/656 663/663/663 662/662/662
f 657/657/657 658/658/658 664/664/664
f 657/657/657 664/664/664 663/663/663
f 658/658/658 659/659/659 665/665/665
f 658/658/658 665/665/665 664/664/664
f 659/659/659 660/660/660 666/666/666
f 659/659/659 666/666/666 665/665/665
f 661/661/661 662/662/662 668/668/668
f 661/661/661 668/668/668 667/667/667
f 662/662/662 663/663/663 669/669/669
f 662/662/662 669/669/669 668/668/668
f 663/663/663 664/664/664 670/670/670
f 663/663/663 670/670/670 669/669/669
f 664/664/664 665/665/665 671/671/671
f 664/664/664 671/671/671 670/670/670
f 665/665/665 666/666/666 672/672/672
f 665/665/665 672/672/672 671/671/671
f 667/667/667 668/668/668 674/674/674
f 667/667/667 674/674/674 673/673/673
f 668/668/668 669/669/669 675/675/675
f 668/668/668 675/675/675 674/674/674
f 669/669/669 670/670/670 676/676/676
f 669/669/669 676/676/676 675/675/675
f 670/670/670 671/671/671 677/677/677
f 670/670/670 677/677/677 676/676/676
f 671/671/671 672/672/672 678/678/678
f 671/671/671 678/678/678 677/677/677
f 673/673/673 674/674/674 680/680/680
f 673/673/673 680/680/680 679/679/679
f 674/674/674 675/675/675 681/681/681
f 674/674/674 681/681/681 680/680/680
f 675/675/675 676/676/676 682/682/682
f 675/675/675 682/682/682 681/681/681
f 676/676/676 677/677/677 683/683/683
f 676/676/676 683/683/683 682/682/682
f 677/677/677 678/678/678 684/684/684
f 677/677/677 684/684/684 683/683/683
f 679/679/679 680/680/680 686/686/686
f 679/679/679 686/686/686 685/685/685
f 680/680/680 681/681/681 687/687/687
f 680/680/680 687/687/687 686/686/686
f 681/681/681 682/682/682 688/688/688
f 681/681/681 688/688/688 687/687/687
f 682/682/682 683/683/683 689/689/689
f 682/682/682 689/689/689 688/688/688
f 683/683/683 684/684/684 690/690/690
f 683/683/683 690/690/690 689/689/689
f 691/691/691 692/692/692 698/698/698
f 691/691/691 698/698/698 697/697/697
f 692/692/692 693/693/693 699/699/699
f 692/692/692 699/699/699 698/698/698
f 693/693/693 694/694/694 700/700/700
f 693/693/693 700/700/700 699/699/699
f 694/694/694 695/695/695 701/701/701
f 694/694/694 701/701/701 700/700/700
f 695/695/695 696/696/696 702/702/702
f 695/695/695 702/702/702 701/701/701
f 697/697/697 698/698/698 704/704/704
f 697/697/697 704/704/704 703/703/703
f 698/698/698 699/699/699 705/705/705
f 698/698/698 705/705/705 704/704/704
f 699/699/699 700/700/700 706/706/706
f 699/699/699 706/706/706 705/705/705
f 700/700/700 701/701/701 707/707/707
f 700/700/700 707/707/707 706/706/706
f 701/701/701 702/702/702 708/708/708
f 701/701/701 708/708/708 707/707/707
f 703/703/703 704/704/704 710/710/710
f 703/703/703 710/710/710 709/709/709
f 704/704/704 705/705/705 711/711/711
f 704/704/704 711/711/711 710/710/710
f 705/705/705 706/706/706 712/712/712
f 705/705/705 712/712/712 711/711/711
f 706/706/706 707/707/707 713/713/713
f 706/706/706 713/713/713 712/712/712
f 707/707/707 708/708/708 714/714/714
f 707/707/707 714/714/714 713/713/713
f 709/709/709 710/710/710 716/716/716
f 709/709/709 716/716/716 715/715/715
f 710/710/710 711/711/711 717/717/717
f 710/710/710 717/717/717 716/716/716
f 711/711/711 712/712/712 718/718/718
f 711/711/711 718/718/718 717/717/717
f 712/712/712 713/713/713 719/719/719
f 712/712/712 719/719/719 718/718/718
f 713/713/713 714/714/714 720/720/720
f 713/713/713 720/720/720 719/719/719
f 715/715/715 716/716/716 722/722/722
f 715/715/715 722/722/722 721/721/721
f 716/716/716 717/717/717 723/723/723
f 716/716/716 723/723/723 722/722/722
f 717/717/717 718/718/718 724/724/724
f 717/717/717 724/724/724 723/723/723
f 718/718/718 719/719/719 725/725/725
f 718/718/718 725/725/725 724/724/724
f 719/719/719 720/720/720 726/726/726
f 719/719/719 726/726/726 725/725/725
f 727/727/727 728/728/728 734/734/734
f 727/727/727 734/734/734 733/733/733
f 728/728/728 729/729/729 735/735/735
f 728/728/728 735/735/735 734/734/734
f 729/729/729 730/730/730 736/736/736
f 729/729/729 736/736/736 735/735/735
f 730/730/730 731/731/731 737/737/737
f 730/730/730 737/737/737 736/736/736
f 731/731/731 732/732/732 738/738/738
f 731/731/731 738/738/738 737/737/737
f 733/733/733 734/734/734 740/740/740
f 733/733/733 740/740/740 739/739/739
f 734/734/734 735/735/735 741/741/741
f 734/734/734 741/741/741 740/740/740
f 735/735/735 736/736/736 742/742/742
f 735/735/735 742/742/742 741/741/741
f 736/736/736 737/737/737 743/743/743
f 736/736/736 743/743/743 742/742/742
f 737/737/737 738/738/738 744/744/744
f 737/737/737 744/744/744 743/743/743
f 739/739/739 740/740/740 746/746/746
f 739/739/739 746/746/746 745/745/745
f 740/740/740 741/741/741 747/747/747
f 740/740/740 747/747/747 746/746/746
f 741/741/741 742/742/742 748/748/748
f 741/741/741 748/748/748 747/747/747
f 742/742/742 743/743/743 749/749/749
f 742/742/742 749/749/749 748/748/748
f 743/743/743 744/744/744 750/750/750
f 743/743/743 750/750/750 749/749/749
f 745/745/745 746/746/746 752/752/752
f 745/745/745 752/752/752 751/751/751
f 746/746/746 747/747/747 753/753/753
f 746/746/746 753/753/753 752/752/752
f 747/747/747 748/748/748 754/754/754
f 747/747/747 754/754/754 753/753/753
f 748/748/748 749/749/749 755/755/755
f 748/748/748 755/755/755 754/754/754
f 749/749/749 750/750/750 756/756/756
f 749/749/749 756/756/756 755/755/755
f 751/751/751 752/752/752 758/758/758
f 751/751/751 758/758/758 757/757/757
f 752/752/752 753/753/753 759/759/759
f 752/752/752 759/759/759 758/758/758
f 753/753/753 754/754/754 760/760/760
f 753/753/753 760/760/760 759/759/759
f 754/754/754 755/755/755 761/761/761
f 754/754/754 761/761/761 760/760/760
f 755/755/755 756/756/756 762/762/762
f 755/755/755 762/762/762 761/761/761
f 763/763/763 764/764/764 770/770/770
f 763/763/763 770/770/770 769/769/769
f 764/764/764 765/765/765 771/771/771
f 764/764/764 771/771/771 770/770/770
f 765/765/765 766/766/766 772/772/772
f 765/765/765 772/772/772 771/771/771
f 766/766/766 767/767/767 773/773/773
f 766/766/766 773/773/773 772/772/772
f 767/767/767 768/768/768 774/774/774
f 767/767/767 774/774/774 773/773/773
f 769/769/769 770/770/770 776/776/776
f 769/769/769 776/776/776 775/775/775
f 770/770/770 771/771/771 777/777/777
f 770/770/770 777/777/777 776/776/776
f 771/771/771 772/772/772 778/778/778
f 771/771/771 778/778/778 777/777/777
f 772/772/772 773/773/773 779/779/779
f 772/772/772 779/779/779 778/778/778
f 773/773/773 774/774/774 780/780/780
f 773/773/773 780/780/780 779/779/779
f 775/775/775 776/776/776 782/782/782
f 775/775/775 782/782/782 781/781/781
f 776/776/776 777/777/777 783/783/783
f 776/776/776 783/783/783 782/782/782
f 777/777/777 778/778/778 784/784/784
f 777/777/777 784/784/784 783/783/783
f 778/778/778 779/779/779 785/785/785
f 778/778/778 785/785/785 784/784/784
f 779/779/779 780/780/780 786/786/786
f 779/779/779 786/786/786 785/785/785
f 781/781/781 782/782/782 788/788/788
f 781/781/781 788/788/788 787/787/787
f 782/782/782 783/783/783 789/789/789
f 782/782/782 789/789/789 788/788/788
f 783/783/783 784/784/784 790/790/790
f 783/783/783 790/790/790 789/789/789
f 784/784/784 785/785/785 791/791/791
f 784/784/784 791/791/791 790/790/790
f 785/785/785 786/786/786 792/792/792
f 785/785/785 792/792/792 791/791/791
f 787/787/787 788/788/788 794/794/794
f 787/787/787 794/794/794 793/793/793
f 788/788/788 789/789/789 795/795/795
f 788/788/788 795/795/795 794/794/794
f 789/789/789 790/790/790 796/796/796
f 789/789/789 796/796/796 795/795/795
f 790/790/790 791/791/791 797/797/797
f 790/790/790 797/797/797 796/796/796
f 791/791/791 792/792/792 798/798/798
f 791/791/791 798/798/798 797/797/797
f 799/799/799 800/800/800 806/806/806
f 799/799/799 806/806/806 805/805/805
f 800/800/800 801/801/801 807/807/807
f 800/800/800 807/807/807 806/806/806
f 801/801/801 802/802/802 808/808/808
f 801/801/801 808/808/808 807/807/807
f 802/802/802 803/803/803 809/809/809
f 802/802/802 809/809/809 808/808/808
f 803/803/803 804/804/804 810/810/810
f 803/803/803 810/810/810 809/809/809
f 805/805/805 806/806/806 812/812/812
f 805/805/805 812/812/812 811/811/811
f 806/806/806 807/807/807 813/813/813
f 806/806/806 813/813/813 812/812/812
f 807/807/807 808/808/808 814/814/814
f 807/807/807 814/814/814 813/813/813
f 808/808/808 809/809/809 815/815/815
f 808/808/808 815/815/815 814/814/814
f 809/809/809 810/810/810 816/816/816
f 809/809/809 816/816/816 815/815/815
f 811/811/811 812/812/812 818/818/818
f 811/811/811 818/818/818 817/817/817
f 812/812/812 813/813/813 819/819/819
f 812/812/812 819/819/819 818/818/818
f 813/813/813 814/814/814 820/820/820
f 813/813/813 820/820/820 819/819/819
f 814/814/814 815/815/815 821/821/821
f 814/814/814 821/821/821 820/820/820
f 815/815/815 816/816/816 822/822/822
f 815/815/815 822/822/822 821/821/821
f 817/817/817 818/818/818 824/824/824
f 817/817/817 824/824/824 823/823/823
f 818/818/818 819/819/819 825/825/825
f 818/818/818 825/825/825 824/824/824
f 819/819/819 820/820/820 826/826/826
f 819/819/819 826/826/826 825/825/825
f 820/820/820 821/821/821 827/827/827
f 820/820/820 827/827/827 826/826/826
f 821/821/821 822/822/822 828/828/828
f 821/821/821 828/828/828 827/827/827
f 823/823/823 824/824/824 830/830/830
f 823/823/823 830/830/830 829/829/829
f 824/824/824 825/825/825 831/831/831
f 824/824/824 831/831/831 830/830/830
f 825/825/825 826/826/826 832/832/832
f 825/825/825 832/832/832 831/831/831
f 826/826/826 827/827/827 833/833/833
f 826/826/826 833/833/833 832/832/832
f 827/827/827 828/828/828 834/834/834
f 827/827/827 834/834/834 833/833/833
