# Sinh tự động bởi tools/mesh_kit.py - đừng sửa tay
o p_arm_down_R
v 0.2548 0.4442 0.0000
v 0.2444 0.4434 0.0323
v 0.2169 0.4413 0.0523
v 0.1831 0.4387 0.0523
v 0.1556 0.4366 0.0323
v 0.1452 0.4358 0.0000
v 0.1556 0.4366 -0.0323
v 0.1831 0.4387 -0.0523
v 0.2169 0.4413 -0.0523
v 0.2444 0.4434 -0.0323
v 0.2548 0.4442 -0.0000
v 0.2669 0.1871 -0.0000
v 0.2579 0.1864 0.0278
v 0.2343 0.1845 0.0450
v 0.2052 0.1823 0.0450
v 0.1816 0.1805 0.0278
v 0.1726 0.1798 0.0000
v 0.1816 0.1805 -0.0278
v 0.2052 0.1823 -0.0450
v 0.2343 0.1846 -0.0450
v 0.2579 0.1864 -0.0278
v 0.2669 0.1871 -0.0000
v 0.2671 0.1840 -0.0001
v 0.2581 0.1827 0.0277
v 0.2345 0.1810 0.0449
v 0.2054 0.1796 0.0449
v 0.1817 0.1790 0.0278
v 0.1726 0.1795 0.0000
v 0.1816 0.1808 -0.0278
v 0.2051 0.1824 -0.0450
v 0.2343 0.1838 -0.0450
v 0.2580 0.1844 -0.0278
v 0.2671 0.1840 -0.0001
v 0.2671 0.1809 -0.0002
v 0.2582 0.1790 0.0275
v 0.2347 0.1775 0.0447
v 0.2055 0.1770 0.0448
v 0.1818 0.1776 0.0277
v 0.1727 0.1792 0.0000
v 0.1816 0.1810 -0.0277
v 0.2051 0.1825 -0.0449
v 0.2343 0.1831 -0.0450
v 0.2580 0.1824 -0.0279
v 0.2671 0.1809 -0.0002
v 0.2671 0.1778 -0.0005
v 0.2582 0.1753 0.0272
v 0.2347 0.1739 0.0443
v 0.2055 0.1743 0.0445
v 0.1819 0.1761 0.0276
v 0.1727 0.1788 0.0000
v 0.1816 0.1813 -0.0276
v 0.2051 0.1826 -0.0448
v 0.2343 0.1823 -0.0450
v 0.2579 0.1804 -0.0281
v 0.2671 0.1778 -0.0005
v 0.2669 0.1747 -0.0009
v 0.2581 0.1716 0.0267
v 0.2346 0.1704 0.0439
v 0.2055 0.1716 0.0442
v 0.1819 0.1747 0.0274
v 0.1728 0.1785 0.0000
v 0.1817 0.1816 -0.0276
v 0.2051 0.1827 -0.0448
v 0.2342 0.1816 -0.0450
v 0.2578 0.1785 -0.0283
v 0.2669 0.1747 -0.0009
v 0.2500 -0.0616 -0.0304
v 0.2424 -0.0642 -0.0070
v 0.2225 -0.0652 0.0076
v 0.1978 -0.0642 0.0079
v 0.1778 -0.0616 -0.0064
v 0.1700 -0.0584 -0.0296
v 0.1776 -0.0558 -0.0530
v 0.1975 -0.0548 -0.0676
v 0.2222 -0.0558 -0.0679
v 0.2422 -0.0584 -0.0536
v 0.2500 -0.0616 -0.0304
v 0.2000 0.4400 0.0000
v 0.2548 0.4442 0.0000
v 0.2444 0.4434 0.0323
v 0.2169 0.4413 0.0523
v 0.1831 0.4387 0.0523
v 0.1556 0.4366 0.0323
v 0.1452 0.4358 0.0000
v 0.1556 0.4366 -0.0323
v 0.1831 0.4387 -0.0523
v 0.2169 0.4413 -0.0523
v 0.2444 0.4434 -0.0323
v 0.2100 -0.0600 -0.0300
v 0.2500 -0.0616 -0.0304
v 0.2424 -0.0642 -0.0070
v 0.2225 -0.0652 0.0076
v 0.1978 -0.0642 0.0079
v 0.1778 -0.0616 -0.0064
v 0.1700 -0.0584 -0.0296
v 0.1776 -0.0558 -0.0530
v 0.1975 -0.0548 -0.0676
v 0.2222 -0.0558 -0.0679
v 0.2422 -0.0584 -0.0536
v 0.2000 0.3800 0.0000
v 0.2000 0.3800 0.0000
v 0.2000 0.3800 0.0000
v 0.2000 0.3800 -0.0000
v 0.2000 0.3800 -0.0000
v 0.2000 0.3800 -0.0000
v 0.2000 0.3800 -0.0000
v 0.2000 0.3800 -0.0000
v 0.2000 0.3800 0.0000
v 0.2000 0.3800 0.0000
v 0.2000 0.3800 0.0000
v 0.2000 0.3880 0.0300
v 0.2176 0.3880 0.0243
v 0.2285 0.3880 0.0093
v 0.2285 0.3880 -0.0093
v 0.2176 0.3880 -0.0243
v 0.2000 0.3880 -0.0300
v 0.1824 0.3880 -0.0243
v 0.1715 0.3880 -0.0093
v 0.1715 0.3880 0.0093
v 0.1824 0.3880 0.0243
v 0.2000 0.3880 0.0300
v 0.2000 0.4100 0.0520
v 0.2305 0.4100 0.0420
v 0.2494 0.4100 0.0161
v 0.2494 0.4100 -0.0161
v 0.2305 0.4100 -0.0420
v 0.2000 0.4100 -0.0520
v 0.1695 0.4100 -0.0420
v 0.1506 0.4100 -0.0161
v 0.1506 0.4100 0.0161
v 0.1695 0.4100 0.0420
v 0.2000 0.4100 0.0520
v 0.2000 0.4400 0.0600
v 0.2353 0.4400 0.0485
v 0.2571 0.4400 0.0185
v 0.2571 0.4400 -0.0185
v 0.2353 0.4400 -0.0485
v 0.2000 0.4400 -0.0600
v 0.1647 0.4400 -0.0485
v 0.1429 0.4400 -0.0185
v 0.1429 0.4400 0.0185
v 0.1647 0.4400 0.0485
v 0.2000 0.4400 0.0600
v 0.2000 0.4700 0.0520
v 0.2305 0.4700 0.0420
v 0.2494 0.4700 0.0161
v 0.2494 0.4700 -0.0161
v 0.2305 0.4700 -0.0420
v 0.2000 0.4700 -0.0520
v 0.1695 0.4700 -0.0420
v 0.1506 0.4700 -0.0161
v 0.1506 0.4700 0.0161
v 0.1695 0.4700 0.0420
v 0.2000 0.4700 0.0520
v 0.2000 0.4920 0.0300
v 0.2176 0.4920 0.0243
v 0.2285 0.4920 0.0093
v 0.2285 0.4920 -0.0093
v 0.2176 0.4920 -0.0243
v 0.2000 0.4920 -0.0300
v 0.1824 0.4920 -0.0243
v 0.1715 0.4920 -0.0093
v 0.1715 0.4920 0.0093
v 0.1824 0.4920 0.0243
v 0.2000 0.4920 0.0300
v 0.2000 0.5000 0.0000
v 0.2000 0.5000 0.0000
v 0.2000 0.5000 0.0000
v 0.2000 0.5000 -0.0000
v 0.2000 0.5000 -0.0000
v 0.2000 0.5000 -0.0000
v 0.2000 0.5000 -0.0000
v 0.2000 0.5000 -0.0000
v 0.2000 0.5000 0.0000
v 0.2000 0.5000 0.0000
v 0.2000 0.5000 0.0000
vt 0.0000 0.0000
vt 0.0000 0.0346
vt 0.0000 0.0691
vt 0.0000 0.1037
vt 0.0000 0.1382
vt 0.0000 0.1728
vt 0.0000 0.2073
vt 0.0000 0.2419
vt 0.0000 0.2765
vt 0.0000 0.3110
vt 0.0000 0.3456
vt 0.2573 0.0000
vt 0.2573 0.0346
vt 0.2573 0.0691
vt 0.2573 0.1037
vt 0.2573 0.1382
vt 0.2573 0.1728
vt 0.2573 0.2073
vt 0.2573 0.2419
vt 0.2573 0.2765
vt 0.2573 0.3110
vt 0.2573 0.3456
vt 0.2590 0.0000
vt 0.2590 0.0346
vt 0.2590 0.0691
vt 0.2590 0.1037
vt 0.2590 0.1382
vt 0.2590 0.1728
vt 0.2590 0.2073
vt 0.2590 0.2419
vt 0.2590 0.2765
vt 0.2590 0.3110
vt 0.2590 0.3456
vt 0.2608 0.0000
vt 0.2608 0.0346
vt 0.2608 0.0691
vt 0.2608 0.1037
vt 0.2608 0.1382
vt 0.2608 0.1728
vt 0.2608 0.2073
vt 0.2608 0.2419
vt 0.2608 0.2765
vt 0.2608 0.3110
vt 0.2608 0.3456
vt 0.2625 0.0000
vt 0.2625 0.0346
vt 0.2625 0.0691
vt 0.2625 0.1037
vt 0.2625 0.1382
vt 0.2625 0.1728
vt 0.2625 0.2073
vt 0.2625 0.2419
vt 0.2625 0.2765
vt 0.2625 0.3110
vt 0.2625 0.3456
vt 0.2642 0.0000
vt 0.2642 0.0346
vt 0.2642 0.0691
vt 0.2642 0.1037
vt 0.2642 0.1382
vt 0.2642 0.1728
vt 0.2642 0.2073
vt 0.2642 0.2419
vt 0.2642 0.2765
vt 0.2642 0.3110
vt 0.2642 0.3456
vt 0.5028 0.0000
vt 0.5028 0.0346
vt 0.5028 0.0691
vt 0.5028 0.1037
vt 0.5028 0.1382
vt 0.5028 0.1728
vt 0.5028 0.2073
vt 0.5028 0.2419
vt 0.5028 0.2765
vt 0.5028 0.3110
vt 0.5028 0.3456
vt 0.0000 0.0000
vt 0.0550 0.0000
vt 0.0445 0.0323
vt 0.0170 0.0523
vt -0.0170 0.0523
vt -0.0445 0.0323
vt -0.0550 0.0000
vt -0.0445 -0.0323
vt -0.0170 -0.0523
vt 0.0170 -0.0523
vt 0.0445 -0.0323
vt 0.0000 0.0000
vt 0.0400 0.0000
vt 0.0324 0.0235
vt 0.0124 0.0380
vt -0.0124 0.0380
vt -0.0324 0.0235
vt -0.0400 0.0000
vt -0.0324 -0.0235
vt -0.0124 -0.0380
vt 0.0124 -0.0380
vt 0.0324 -0.0235
vt 0.0000 0.0000
vt 0.0371 0.0000
vt 0.0742 0.0000
vt 0.1112 0.0000
vt 0.1483 0.0000
vt 0.1854 0.0000
vt 0.2225 0.0000
vt 0.2596 0.0000
vt 0.2967 0.0000
vt 0.3337 0.0000
vt 0.3708 0.0000
vt 0.0000 0.0311
vt 0.0371 0.0311
vt 0.0742 0.0311
vt 0.1112 0.0311
vt 0.1483 0.0311
vt 0.1854 0.0311
vt 0.2225 0.0311
vt 0.2596 0.0311
vt 0.2967 0.0311
vt 0.3337 0.0311
vt 0.3708 0.0311
vt 0.0000 0.0621
vt 0.0371 0.0621
vt 0.0742 0.0621
vt 0.1112 0.0621
vt 0.1483 0.0621
vt 0.1854 0.0621
vt 0.2225 0.0621
vt 0.2596 0.0621
vt 0.2967 0.0621
vt 0.3337 0.0621
vt 0.3708 0.0621
vt 0.0000 0.0932
vt 0.0371 0.0932
vt 0.0742 0.0932
vt 0.1112 0.0932
vt 0.1483 0.0932
vt 0.1854 0.0932
vt 0.2225 0.0932
vt 0.2596 0.0932
vt 0.2967 0.0932
vt 0.3337 0.0932
vt 0.3708 0.0932
vt 0.0000 0.1242
vt 0.0371 0.1242
vt 0.0742 0.1242
vt 0.1112 0.1242
vt 0.1483 0.1242
vt 0.1854 0.1242
vt 0.2225 0.1242
vt 0.2596 0.1242
vt 0.2967 0.1242
vt 0.3337 0.1242
vt 0.3708 0.1242
vt 0.0000 0.1553
vt 0.0371 0.1553
vt 0.0742 0.1553
vt 0.1112 0.1553
vt 0.1483 0.1553
vt 0.1854 0.1553
vt 0.2225 0.1553
vt 0.2596 0.1553
vt 0.2967 0.1553
vt 0.3337 0.1553
vt 0.3708 0.1553
vt 0.0000 0.1863
vt 0.0371 0.1863
vt 0.0742 0.1863
vt 0.1112 0.1863
vt 0.1483 0.1863
vt 0.1854 0.1863
vt 0.2225 0.1863
vt 0.2596 0.1863
vt 0.2967 0.1863
vt 0.3337 0.1863
vt 0.3708 0.1863
vn 0.997 0.077 0.000
vn 0.807 0.062 0.588
vn 0.308 0.024 0.951
vn -0.308 -0.024 0.951
vn -0.807 -0.062 0.588
vn -0.997 -0.077 0.000
vn -0.807 -0.062 -0.588
vn -0.308 -0.024 -0.951
vn 0.308 0.024 -0.951
vn 0.807 0.062 -0.588
vn 0.997 0.077 -0.000
vn 0.997 0.077 -0.000
vn 0.807 0.062 0.588
vn 0.308 0.024 0.951
vn -0.308 -0.024 0.951
vn -0.807 -0.062 0.588
vn -0.997 -0.077 0.000
vn -0.807 -0.062 -0.588
vn -0.308 -0.024 -0.951
vn 0.308 0.024 -0.951
vn 0.807 0.062 -0.588
vn 0.997 0.077 -0.000
vn 0.999 0.047 -0.001
vn 0.810 0.020 0.587
vn 0.311 -0.015 0.950
vn -0.306 -0.044 0.951
vn -0.807 -0.057 0.588
vn -0.999 -0.047 0.001
vn -0.810 -0.020 -0.587
vn -0.311 0.015 -0.950
vn 0.306 0.044 -0.951
vn 0.807 0.057 -0.588
vn 0.999 0.047 -0.001
vn 1.000 0.018 -0.003
vn 0.811 -0.022 0.584
vn 0.313 -0.054 0.948
vn -0.305 -0.065 0.950
vn -0.807 -0.051 0.589
vn -1.000 -0.018 0.003
vn -0.811 0.022 -0.584
vn -0.313 0.054 -0.948
vn 0.305 0.065 -0.950
vn 0.807 0.051 -0.589
vn 1.000 0.018 -0.003
vn 1.000 -0.011 -0.005
vn 0.812 -0.064 0.581
vn 0.313 -0.092 0.945
vn -0.305 -0.085 0.949
vn -0.806 -0.046 0.590
vn -1.000 0.011 0.005
vn -0.812 0.064 -0.581
vn -0.313 0.092 -0.945
vn 0.305 0.085 -0.949
vn 0.806 0.046 -0.590
vn 1.000 -0.011 -0.005
vn 0.999 -0.040 -0.009
vn 0.811 -0.106 0.576
vn 0.313 -0.130 0.941
vn -0.305 -0.106 0.947
vn -0.806 -0.040 0.591
vn -0.999 0.040 0.009
vn -0.811 0.106 -0.576
vn -0.313 0.130 -0.941
vn 0.305 0.106 -0.947
vn 0.806 0.040 -0.591
vn 0.999 -0.040 -0.009
vn 0.999 -0.040 -0.009
vn 0.811 -0.106 0.576
vn 0.313 -0.131 0.941
vn -0.305 -0.106 0.947
vn -0.806 -0.040 0.591
vn -0.999 0.040 0.009
vn -0.811 0.106 -0.576
vn -0.313 0.131 -0.941
vn 0.305 0.106 -0.947
vn 0.806 0.040 -0.591
vn 0.999 -0.040 -0.009
vn -0.077 0.997 -0.000
vn -0.077 0.997 -0.000
vn -0.077 0.997 -0.000
vn -0.077 0.997 -0.000
vn -0.077 0.997 -0.000
vn -0.077 0.997 -0.000
vn -0.077 0.997 -0.000
vn -0.077 0.997 -0.000
vn -0.077 0.997 -0.000
vn -0.077 0.997 -0.000
vn -0.077 0.997 -0.000
vn -0.041 -0.991 -0.124
vn -0.041 -0.991 -0.124
vn -0.041 -0.991 -0.124
vn -0.041 -0.991 -0.124
vn -0.041 -0.991 -0.124
vn -0.041 -0.991 -0.124
vn -0.041 -0.991 -0.124
vn -0.041 -0.991 -0.124
vn -0.041 -0.991 -0.124
vn -0.041 -0.991 -0.124
vn -0.041 -0.991 -0.124
vn -0.000 -0.866 0.500
vn 0.294 -0.866 0.405
vn 0.476 -0.866 0.155
vn 0.476 -0.866 -0.155
vn 0.294 -0.866 -0.405
vn 0.000 -0.866 -0.500
vn -0.294 -0.866 -0.405
vn -0.476 -0.866 -0.155
vn -0.476 -0.866 0.155
vn -0.294 -0.866 0.405
vn -0.000 -0.866 0.500
vn -0.000 -0.866 0.500
vn 0.294 -0.866 0.405
vn 0.476 -0.866 0.155
vn 0.476 -0.866 -0.155
vn 0.294 -0.866 -0.405
vn 0.000 -0.866 -0.500
vn -0.294 -0.866 -0.405
vn -0.476 -0.866 -0.155
vn -0.476 -0.866 0.155
vn -0.294 -0.866 0.405
vn -0.000 -0.866 0.500
vn -0.000 -0.500 0.866
vn 0.509 -0.500 0.701
vn 0.824 -0.500 0.268
vn 0.824 -0.500 -0.268
vn 0.509 -0.500 -0.701
vn 0.000 -0.500 -0.866
vn -0.509 -0.500 -0.701
vn -0.824 -0.500 -0.268
vn -0.824 -0.500 0.268
vn -0.509 -0.500 0.701
vn -0.000 -0.500 0.866
vn -0.000 -0.000 1.000
vn 0.588 -0.000 0.809
vn 0.951 -0.000 0.309
vn 0.951 -0.000 -0.309
vn 0.588 -0.000 -0.809
vn 0.000 -0.000 -1.000
vn -0.588 -0.000 -0.809
vn -0.951 -0.000 -0.309
vn -0.951 -0.000 0.309
vn -0.588 -0.000 0.809
vn -0.000 -0.000 1.000
vn 0.000 0.500 0.866
vn 0.509 0.500 0.701
vn 0.824 0.500 0.268
vn 0.824 0.500 -0.268
vn 0.509 0.500 -0.701
vn 0.000 0.500 -0.866
vn -0.509 0.500 -0.701
vn -0.824 0.500 -0.268
vn -0.824 0.500 0.268
vn -0.509 0.500 0.701
vn 0.000 0.500 0.866
vn -0.000 0.866 0.500
vn 0.294 0.866 0.405
vn 0.476 0.866 0.155
vn 0.476 0.866 -0.155
vn 0.294 0.866 -0.405
vn 0.000 0.866 -0.500
vn -0.294 0.866 -0.405
vn -0.476 0.866 -0.155
vn -0.476 0.866 0.155
vn -0.294 0.866 0.405
vn -0.000 0.866 0.500
vn -0.000 0.866 0.500
vn 0.294 0.866 0.405
vn 0.476 0.866 0.155
vn 0.476 0.866 -0.155
vn 0.294 0.866 -0.405
vn 0.000 0.866 -0.500
vn -0.294 0.866 -0.405
vn -0.476 0.866 -0.155
vn -0.476 0.866 0.155
vn -0.294 0.866 0.405
vn -0.000 0.866 0.500
v 0.2216 -0.1641 -0.0009
v 0.2224 -0.1649 -0.0027
v 0.2234 -0.1659 -0.0090
v 0.2234 -0.1659 -0.0510
v 0.2224 -0.1649 -0.0573
v 0.2216 -0.1641 -0.0591
v 0.2224 -0.1623 -0.0001
v 0.2234 -0.1630 -0.0020
v 0.2249 -0.1641 -0.0090
v 0.2249 -0.1641 -0.0510
v 0.2234 -0.1630 -0.0580
v 0.2224 -0.1623 -0.0599
v 0.2234 -0.1560 0.0009
v 0.2249 -0.1560 -0.0009
v 0.2275 -0.1560 -0.0090
v 0.2275 -0.1560 -0.0510
v 0.2249 -0.1560 -0.0591
v 0.2234 -0.1560 -0.0609
v 0.2234 -0.0840 0.0009
v 0.2249 -0.0840 -0.0009
v 0.2275 -0.0840 -0.0090
v 0.2275 -0.0840 -0.0510
v 0.2249 -0.0840 -0.0591
v 0.2234 -0.0840 -0.0609
v 0.2224 -0.0777 -0.0001
v 0.2234 -0.0770 -0.0020
v 0.2249 -0.0759 -0.0090
v 0.2249 -0.0759 -0.0510
v 0.2234 -0.0770 -0.0580
v 0.2224 -0.0777 -0.0599
v 0.2216 -0.0759 -0.0009
v 0.2224 -0.0751 -0.0027
v 0.2234 -0.0741 -0.0090
v 0.2234 -0.0741 -0.0510
v 0.2224 -0.0751 -0.0573
v 0.2216 -0.0759 -0.0591
v 0.1984 -0.1641 -0.0591
v 0.1976 -0.1649 -0.0573
v 0.1966 -0.1659 -0.0510
v 0.1966 -0.1659 -0.0090
v 0.1976 -0.1649 -0.0027
v 0.1984 -0.1641 -0.0009
v 0.1976 -0.1623 -0.0599
v 0.1966 -0.1630 -0.0580
v 0.1951 -0.1641 -0.0510
v 0.1951 -0.1641 -0.0090
v 0.1966 -0.1630 -0.0020
v 0.1976 -0.1623 -0.0001
v 0.1966 -0.1560 -0.0609
v 0.1951 -0.1560 -0.0591
v 0.1925 -0.1560 -0.0510
v 0.1925 -0.1560 -0.0090
v 0.1951 -0.1560 -0.0009
v 0.1966 -0.1560 0.0009
v 0.1966 -0.0840 -0.0609
v 0.1951 -0.0840 -0.0591
v 0.1925 -0.0840 -0.0510
v 0.1925 -0.0840 -0.0090
v 0.1951 -0.0840 -0.0009
v 0.1966 -0.0840 0.0009
v 0.1976 -0.0777 -0.0599
v 0.1966 -0.0770 -0.0580
v 0.1951 -0.0759 -0.0510
v 0.1951 -0.0759 -0.0090
v 0.1966 -0.0770 -0.0020
v 0.1976 -0.0777 -0.0001
v 0.1984 -0.0759 -0.0591
v 0.1976 -0.0751 -0.0573
v 0.1966 -0.0741 -0.0510
v 0.1966 -0.0741 -0.0090
v 0.1976 -0.0751 -0.0027
v 0.1984 -0.0759 -0.0009
v 0.1984 -0.0759 -0.0009
v 0.2002 -0.0751 -0.0001
v 0.2065 -0.0741 0.0009
v 0.2135 -0.0741 0.0009
v 0.2198 -0.0751 -0.0001
v 0.2216 -0.0759 -0.0009
v 0.1976 -0.0751 -0.0027
v 0.1995 -0.0741 -0.0020
v 0.2065 -0.0726 -0.0009
v 0.2135 -0.0726 -0.0009
v 0.2205 -0.0741 -0.0020
v 0.2224 -0.0751 -0.0027
v 0.1966 -0.0741 -0.0090
v 0.1984 -0.0726 -0.0090
v 0.2065 -0.0700 -0.0090
v 0.2135 -0.0700 -0.0090
v 0.2216 -0.0726 -0.0090
v 0.2234 -0.0741 -0.0090
v 0.1966 -0.0741 -0.0510
v 0.1984 -0.0726 -0.0510
v 0.2065 -0.0700 -0.0510
v 0.2135 -0.0700 -0.0510
v 0.2216 -0.0726 -0.0510
v 0.2234 -0.0741 -0.0510
v 0.1976 -0.0751 -0.0573
v 0.1995 -0.0741 -0.0580
v 0.2065 -0.0726 -0.0591
v 0.2135 -0.0726 -0.0591
v 0.2205 -0.0741 -0.0580
v 0.2224 -0.0751 -0.0573
v 0.1984 -0.0759 -0.0591
v 0.2002 -0.0751 -0.0599
v 0.2065 -0.0741 -0.0609
v 0.2135 -0.0741 -0.0609
v 0.2198 -0.0751 -0.0599
v 0.2216 -0.0759 -0.0591
v 0.1984 -0.1641 -0.0591
v 0.2002 -0.1649 -0.0599
v 0.2065 -0.1659 -0.0609
v 0.2135 -0.1659 -0.0609
v 0.2198 -0.1649 -0.0599
v 0.2216 -0.1641 -0.0591
v 0.1976 -0.1649 -0.0573
v 0.1995 -0.1659 -0.0580
v 0.2065 -0.1674 -0.0591
v 0.2135 -0.1674 -0.0591
v 0.2205 -0.1659 -0.0580
v 0.2224 -0.1649 -0.0573
v 0.1966 -0.1659 -0.0510
v 0.1984 -0.1674 -0.0510
v 0.2065 -0.1700 -0.0510
v 0.2135 -0.1700 -0.0510
v 0.2216 -0.1674 -0.0510
v 0.2234 -0.1659 -0.0510
v 0.1966 -0.1659 -0.0090
v 0.1984 -0.1674 -0.0090
v 0.2065 -0.1700 -0.0090
v 0.2135 -0.1700 -0.0090
v 0.2216 -0.1674 -0.0090
v 0.2234 -0.1659 -0.0090
v 0.1976 -0.1649 -0.0027
v 0.1995 -0.1659 -0.0020
v 0.2065 -0.1674 -0.0009
v 0.2135 -0.1674 -0.0009
v 0.2205 -0.1659 -0.0020
v 0.2224 -0.1649 -0.0027
v 0.1984 -0.1641 -0.0009
v 0.2002 -0.1649 -0.0001
v 0.2065 -0.1659 0.0009
v 0.2135 -0.1659 0.0009
v 0.2198 -0.1649 -0.0001
v 0.2216 -0.1641 -0.0009
v 0.1984 -0.1641 -0.0009
v 0.2002 -0.1649 -0.0001
v 0.2065 -0.1659 0.0009
v 0.2135 -0.1659 0.0009
v 0.2198 -0.1649 -0.0001
v 0.2216 -0.1641 -0.0009
v 0.1976 -0.1623 -0.0001
v 0.1995 -0.1630 0.0009
v 0.2065 -0.1641 0.0024
v 0.2135 -0.1641 0.0024
v 0.2205 -0.1630 0.0009
v 0.2224 -0.1623 -0.0001
v 0.1966 -0.1560 0.0009
v 0.1984 -0.1560 0.0024
v 0.2065 -0.1560 0.0050
v 0.2135 -0.1560 0.0050
v 0.2216 -0.1560 0.0024
v 0.2234 -0.1560 0.0009
v 0.1966 -0.0840 0.0009
v 0.1984 -0.0840 0.0024
v 0.2065 -0.0840 0.0050
v 0.2135 -0.0840 0.0050
v 0.2216 -0.0840 0.0024
v 0.2234 -0.0840 0.0009
v 0.1976 -0.0777 -0.0001
v 0.1995 -0.0770 0.0009
v 0.2065 -0.0759 0.0024
v 0.2135 -0.0759 0.0024
v 0.2205 -0.0770 0.0009
v 0.2224 -0.0777 -0.0001
v 0.1984 -0.0759 -0.0009
v 0.2002 -0.0751 -0.0001
v 0.2065 -0.0741 0.0009
v 0.2135 -0.0741 0.0009
v 0.2198 -0.0751 -0.0001
v 0.2216 -0.0759 -0.0009
v 0.2216 -0.1641 -0.0591
v 0.2198 -0.1649 -0.0599
v 0.2135 -0.1659 -0.0609
v 0.2065 -0.1659 -0.0609
v 0.2002 -0.1649 -0.0599
v 0.1984 -0.1641 -0.0591
v 0.2224 -0.1623 -0.0599
v 0.2205 -0.1630 -0.0609
v 0.2135 -0.1641 -0.0624
v 0.2065 -0.1641 -0.0624
v 0.1995 -0.1630 -0.0609
v 0.1976 -0.1623 -0.0599
v 0.2234 -0.1560 -0.0609
v 0.2216 -0.1560 -0.0624
v 0.2135 -0.1560 -0.0650
v 0.2065 -0.1560 -0.0650
v 0.1984 -0.1560 -0.0624
v 0.1966 -0.1560 -0.0609
v 0.2234 -0.0840 -0.0609
v 0.2216 -0.0840 -0.0624
v 0.2135 -0.0840 -0.0650
v 0.2065 -0.0840 -0.0650
v 0.1984 -0.0840 -0.0624
v 0.1966 -0.0840 -0.0609
v 0.2224 -0.0777 -0.0599
v 0.2205 -0.0770 -0.0609
v 0.2135 -0.0759 -0.0624
v 0.2065 -0.0759 -0.0624
v 0.1995 -0.0770 -0.0609
v 0.1976 -0.0777 -0.0599
v 0.2216 -0.0759 -0.0591
v 0.2198 -0.0751 -0.0599
v 0.2135 -0.0741 -0.0609
v 0.2065 -0.0741 -0.0609
v 0.2002 -0.0751 -0.0599
v 0.1984 -0.0759 -0.0591
vt 0.0000 0.0000
vt 0.0041 0.0000
vt 0.0140 0.0000
vt 0.0560 0.0000
vt 0.0659 0.0000
vt 0.0700 0.0000
vt 0.0000 0.0041
vt 0.0041 0.0041
vt 0.0140 0.0041
vt 0.0560 0.0041
vt 0.0659 0.0041
vt 0.0700 0.0041
vt 0.0000 0.0140
vt 0.0041 0.0140
vt 0.0140 0.0140
vt 0.0560 0.0140
vt 0.0659 0.0140
vt 0.0700 0.0140
vt 0.0000 0.0860
vt 0.0041 0.0860
vt 0.0140 0.0860
vt 0.0560 0.0860
vt 0.0659 0.0860
vt 0.0700 0.0860
vt 0.0000 0.0959
vt 0.0041 0.0959
vt 0.0140 0.0959
vt 0.0560 0.0959
vt 0.0659 0.0959
vt 0.0700 0.0959
vt 0.0000 0.1000
vt 0.0041 0.1000
vt 0.0140 0.1000
vt 0.0560 0.1000
vt 0.0659 0.1000
vt 0.0700 0.1000
vt 0.0000 0.0000
vt 0.0041 0.0000
vt 0.0140 0.0000
vt 0.0560 0.0000
vt 0.0659 0.0000
vt 0.0700 0.0000
vt 0.0000 0.0041
vt 0.0041 0.0041
vt 0.0140 0.0041
vt 0.0560 0.0041
vt 0.0659 0.0041
vt 0.0700 0.0041
vt 0.0000 0.0140
vt 0.0041 0.0140
vt 0.0140 0.0140
vt 0.0560 0.0140
vt 0.0659 0.0140
vt 0.0700 0.0140
vt 0.0000 0.0860
vt 0.0041 0.0860
vt 0.0140 0.0860
vt 0.0560 0.0860
vt 0.0659 0.0860
vt 0.0700 0.0860
vt 0.0000 0.0959
vt 0.0041 0.0959
vt 0.0140 0.0959
vt 0.0560 0.0959
vt 0.0659 0.0959
vt 0.0700 0.0959
vt 0.0000 0.1000
vt 0.0041 0.1000
vt 0.0140 0.1000
vt 0.0560 0.1000
vt 0.0659 0.1000
vt 0.0700 0.1000
vt 0.0000 0.0000
vt 0.0041 0.0000
vt 0.0140 0.0000
vt 0.0210 0.0000
vt 0.0309 0.0000
vt 0.0350 0.0000
vt 0.0000 0.0041
vt 0.0041 0.0041
vt 0.0140 0.0041
vt 0.0210 0.0041
vt 0.0309 0.0041
vt 0.0350 0.0041
vt 0.0000 0.0140
vt 0.0041 0.0140
vt 0.0140 0.0140
vt 0.0210 0.0140
vt 0.0309 0.0140
vt 0.0350 0.0140
vt 0.0000 0.0560
vt 0.0041 0.0560
vt 0.0140 0.0560
vt 0.0210 0.0560
vt 0.0309 0.0560
vt 0.0350 0.0560
vt 0.0000 0.0659
vt 0.0041 0.0659
vt 0.0140 0.0659
vt 0.0210 0.0659
vt 0.0309 0.0659
vt 0.0350 0.0659
vt 0.0000 0.0700
vt 0.0041 0.0700
vt 0.0140 0.0700
vt 0.0210 0.0700
vt 0.0309 0.0700
vt 0.0350 0.0700
vt 0.0000 0.0000
vt 0.0041 0.0000
vt 0.0140 0.0000
vt 0.0210 0.0000
vt 0.0309 0.0000
vt 0.0350 0.0000
vt 0.0000 0.0041
vt 0.0041 0.0041
vt 0.0140 0.0041
vt 0.0210 0.0041
vt 0.0309 0.0041
vt 0.0350 0.0041
vt 0.0000 0.0140
vt 0.0041 0.0140
vt 0.0140 0.0140
vt 0.0210 0.0140
vt 0.0309 0.0140
vt 0.0350 0.0140
vt 0.0000 0.0560
vt 0.0041 0.0560
vt 0.0140 0.0560
vt 0.0210 0.0560
vt 0.0309 0.0560
vt 0.0350 0.0560
vt 0.0000 0.0659
vt 0.0041 0.0659
vt 0.0140 0.0659
vt 0.0210 0.0659
vt 0.0309 0.0659
vt 0.0350 0.0659
vt 0.0000 0.0700
vt 0.0041 0.0700
vt 0.0140 0.0700
vt 0.0210 0.0700
vt 0.0309 0.0700
vt 0.0350 0.0700
vt 0.0000 0.0000
vt 0.0041 0.0000
vt 0.0140 0.0000
vt 0.0210 0.0000
vt 0.0309 0.0000
vt 0.0350 0.0000
vt 0.0000 0.0041
vt 0.0041 0.0041
vt 0.0140 0.0041
vt 0.0210 0.0041
vt 0.0309 0.0041
vt 0.0350 0.0041
vt 0.0000 0.0140
vt 0.0041 0.0140
vt 0.0140 0.0140
vt 0.0210 0.0140
vt 0.0309 0.0140
vt 0.0350 0.0140
vt 0.0000 0.0860
vt 0.0041 0.0860
vt 0.0140 0.0860
vt 0.0210 0.0860
vt 0.0309 0.0860
vt 0.0350 0.0860
vt 0.0000 0.0959
vt 0.0041 0.0959
vt 0.0140 0.0959
vt 0.0210 0.0959
vt 0.0309 0.0959
vt 0.0350 0.0959
vt 0.0000 0.1000
vt 0.0041 0.1000
vt 0.0140 0.1000
vt 0.0210 0.1000
vt 0.0309 0.1000
vt 0.0350 0.1000
vt 0.0000 0.0000
vt 0.0041 0.0000
vt 0.0140 0.0000
vt 0.0210 0.0000
vt 0.0309 0.0000
vt 0.0350 0.0000
vt 0.0000 0.0041
vt 0.0041 0.0041
vt 0.0140 0.0041
vt 0.0210 0.0041
vt 0.0309 0.0041
vt 0.0350 0.0041
vt 0.0000 0.0140
vt 0.0041 0.0140
vt 0.0140 0.0140
vt 0.0210 0.0140
vt 0.0309 0.0140
vt 0.0350 0.0140
vt 0.0000 0.0860
vt 0.0041 0.0860
vt 0.0140 0.0860
vt 0.0210 0.0860
vt 0.0309 0.0860
vt 0.0350 0.0860
vt 0.0000 0.0959
vt 0.0041 0.0959
vt 0.0140 0.0959
vt 0.0210 0.0959
vt 0.0309 0.0959
vt 0.0350 0.0959
vt 0.0000 0.1000
vt 0.0041 0.1000
vt 0.0140 0.1000
vt 0.0210 0.1000
vt 0.0309 0.1000
vt 0.0350 0.1000
vn 0.577 -0.577 0.577
vn 0.632 -0.632 0.447
vn 0.707 -0.707 0.000
vn 0.707 -0.707 0.000
vn 0.632 -0.632 -0.447
vn 0.577 -0.577 -0.577
vn 0.632 -0.447 0.632
vn 0.707 -0.500 0.500
vn 0.816 -0.577 0.000
vn 0.816 -0.577 0.000
vn 0.707 -0.500 -0.500
vn 0.632 -0.447 -0.632
vn 0.707 0.000 0.707
vn 0.816 0.000 0.577
vn 1.000 0.000 0.000
vn 1.000 0.000 0.000
vn 0.816 0.000 -0.577
vn 0.707 0.000 -0.707
vn 0.707 0.000 0.707
vn 0.816 0.000 0.577
vn 1.000 0.000 0.000
vn 1.000 0.000 0.000
vn 0.816 0.000 -0.577
vn 0.707 0.000 -0.707
vn 0.632 0.447 0.632
vn 0.707 0.500 0.500
vn 0.816 0.577 0.000
vn 0.816 0.577 0.000
vn 0.707 0.500 -0.500
vn 0.632 0.447 -0.632
vn 0.577 0.577 0.577
vn 0.632 0.632 0.447
vn 0.707 0.707 0.000
vn 0.707 0.707 0.000
vn 0.632 0.632 -0.447
vn 0.577 0.577 -0.577
vn -0.577 -0.577 -0.577
vn -0.632 -0.632 -0.447
vn -0.707 -0.707 0.000
vn -0.707 -0.707 0.000
vn -0.632 -0.632 0.447
vn -0.577 -0.577 0.577
vn -0.632 -0.447 -0.632
vn -0.707 -0.500 -0.500
vn -0.816 -0.577 0.000
vn -0.816 -0.577 0.000
vn -0.707 -0.500 0.500
vn -0.632 -0.447 0.632
vn -0.707 0.000 -0.707
vn -0.816 0.000 -0.577
vn -1.000 0.000 0.000
vn -1.000 0.000 0.000
vn -0.816 0.000 0.577
vn -0.707 0.000 0.707
vn -0.707 0.000 -0.707
vn -0.816 0.000 -0.577
vn -1.000 0.000 0.000
vn -1.000 0.000 0.000
vn -0.816 0.000 0.577
vn -0.707 0.000 0.707
vn -0.632 0.447 -0.632
vn -0.707 0.500 -0.500
vn -0.816 0.577 0.000
vn -0.816 0.577 0.000
vn -0.707 0.500 0.500
vn -0.632 0.447 0.632
vn -0.577 0.577 -0.577
vn -0.632 0.632 -0.447
vn -0.707 0.707 0.000
vn -0.707 0.707 0.000
vn -0.632 0.632 0.447
vn -0.577 0.577 0.577
vn -0.577 0.577 0.577
vn -0.447 0.632 0.632
vn 0.000 0.707 0.707
vn 0.000 0.707 0.707
vn 0.447 0.632 0.632
vn 0.577 0.577 0.577
vn -0.632 0.632 0.447
vn -0.500 0.707 0.500
vn 0.000 0.816 0.577
vn 0.000 0.816 0.577
vn 0.500 0.707 0.500
vn 0.632 0.632 0.447
vn -0.707 0.707 0.000
vn -0.577 0.816 0.000
vn 0.000 1.000 0.000
vn 0.000 1.000 0.000
vn 0.577 0.816 0.000
vn 0.707 0.707 0.000
vn -0.707 0.707 0.000
vn -0.577 0.816 0.000
vn 0.000 1.000 0.000
vn 0.000 1.000 0.000
vn 0.577 0.816 0.000
vn 0.707 0.707 0.000
vn -0.632 0.632 -0.447
vn -0.500 0.707 -0.500
vn 0.000 0.816 -0.577
vn 0.000 0.816 -0.577
vn 0.500 0.707 -0.500
vn 0.632 0.632 -0.447
vn -0.577 0.577 -0.577
vn -0.447 0.632 -0.632
vn 0.000 0.707 -0.707
vn 0.000 0.707 -0.707
vn 0.447 0.632 -0.632
vn 0.577 0.577 -0.577
vn -0.577 -0.577 -0.577
vn -0.447 -0.632 -0.632
vn 0.000 -0.707 -0.707
vn 0.000 -0.707 -0.707
vn 0.447 -0.632 -0.632
vn 0.577 -0.577 -0.577
vn -0.632 -0.632 -0.447
vn -0.500 -0.707 -0.500
vn 0.000 -0.816 -0.577
vn 0.000 -0.816 -0.577
vn 0.500 -0.707 -0.500
vn 0.632 -0.632 -0.447
vn -0.707 -0.707 0.000
vn -0.577 -0.816 0.000
vn 0.000 -1.000 0.000
vn 0.000 -1.000 0.000
vn 0.577 -0.816 0.000
vn 0.707 -0.707 0.000
vn -0.707 -0.707 0.000
vn -0.577 -0.816 0.000
vn 0.000 -1.000 0.000
vn 0.000 -1.000 0.000
vn 0.577 -0.816 0.000
vn 0.707 -0.707 0.000
vn -0.632 -0.632 0.447
vn -0.500 -0.707 0.500
vn 0.000 -0.816 0.577
vn 0.000 -0.816 0.577
vn 0.500 -0.707 0.500
vn 0.632 -0.632 0.447
vn -0.577 -0.577 0.577
vn -0.447 -0.632 0.632
vn 0.000 -0.707 0.707
vn 0.000 -0.707 0.707
vn 0.447 -0.632 0.632
vn 0.577 -0.577 0.577
vn -0.577 -0.577 0.577
vn -0.447 -0.632 0.632
vn 0.000 -0.707 0.707
vn 0.000 -0.707 0.707
vn 0.447 -0.632 0.632
vn 0.577 -0.577 0.577
vn -0.632 -0.447 0.632
vn -0.500 -0.500 0.707
vn 0.000 -0.577 0.816
vn 0.000 -0.577 0.816
vn 0.500 -0.500 0.707
vn 0.632 -0.447 0.632
vn -0.707 0.000 0.707
vn -0.577 0.000 0.816
vn 0.000 0.000 1.000
vn 0.000 0.000 1.000
vn 0.577 0.000 0.816
vn 0.707 0.000 0.707
vn -0.707 0.000 0.707
vn -0.577 0.000 0.816
vn 0.000 0.000 1.000
vn 0.000 0.000 1.000
vn 0.577 0.000 0.816
vn 0.707 0.000 0.707
vn -0.632 0.447 0.632
vn -0.500 0.500 0.707
vn 0.000 0.577 0.816
vn 0.000 0.577 0.816
vn 0.500 0.500 0.707
vn 0.632 0.447 0.632
vn -0.577 0.577 0.577
vn -0.447 0.632 0.632
vn 0.000 0.707 0.707
vn 0.000 0.707 0.707
vn 0.447 0.632 0.632
vn 0.577 0.577 0.577
vn 0.577 -0.577 -0.577
vn 0.447 -0.632 -0.632
vn 0.000 -0.707 -0.707
vn 0.000 -0.707 -0.707
vn -0.447 -0.632 -0.632
vn -0.577 -0.577 -0.577
vn 0.632 -0.447 -0.632
vn 0.500 -0.500 -0.707
vn 0.000 -0.577 -0.816
vn 0.000 -0.577 -0.816
vn -0.500 -0.500 -0.707
vn -0.632 -0.447 -0.632
vn 0.707 0.000 -0.707
vn 0.577 0.000 -0.816
vn 0.000 0.000 -1.000
vn 0.000 0.000 -1.000
vn -0.577 0.000 -0.816
vn -0.707 0.000 -0.707
vn 0.707 0.000 -0.707
vn 0.577 0.000 -0.816
vn 0.000 0.000 -1.000
vn 0.000 0.000 -1.000
vn -0.577 0.000 -0.816
vn -0.707 0.000 -0.707
vn 0.632 0.447 -0.632
vn 0.500 0.500 -0.707
vn 0.000 0.577 -0.816
vn 0.000 0.577 -0.816
vn -0.500 0.500 -0.707
vn -0.632 0.447 -0.632
vn 0.577 0.577 -0.577
vn 0.447 0.632 -0.632
vn 0.000 0.707 -0.707
vn 0.000 0.707 -0.707
vn -0.447 0.632 -0.632
vn -0.577 0.577 -0.577
usemtl shirt
f 1/1/1 2/2/2 13/13/13
f 1/1/1 13/13/13 12/12/12
f 2/2/2 3/3/3 14/14/14
f 2/2/2 14/14/14 13/13/13
f 3/3/3 4/4/4 15/15/15
f 3/3/3 15/15/15 14/14/14
f 4/4/4 5/5/5 16/16/16
f 4/4/4 16/16/16 15/15/15
f 5/5/5 6/6/6 17/17/17
f 5/5/5 17/17/17 16/16/16
f 6/6/6 7/7/7 18/18/18
f 6/6/6 18/18/18 17/17/17
f 7/7/7 8/8/8 19/19/19
f 7/7/7 19/19/19 18/18/18
f 8/8/8 9/9/9 20/20/20
f 8/8/8 20/20/20 19/19/19
f 9/9/9 10/10/10 21/21/21
f 9/9/9 21/21/21 20/20/20
f 10/10/10 11/11/11 22/22/22
f 10/10/10 22/22/22 21/21/21
f 12/12/12 13/13/13 24/24/24
f 12/12/12 24/24/24 23/23/23
f 13/13/13 14/14/14 25/25/25
f 13/13/13 25/25/25 24/24/24
f 14/14/14 15/15/15 26/26/26
f 14/14/14 26/26/26 25/25/25
f 15/15/15 16/16/16 27/27/27
f 15/15/15 27/27/27 26/26/26
f 16/16/16 17/17/17 28/28/28
f 16/16/16 28/28/28 27/27/27
f 17/17/17 18/18/18 29/29/29
f 17/17/17 29/29/29 28/28/28
f 18/18/18 19/19/19 30/30/30
f 18/18/18 30/30/30 29/29/29
f 19/19/19 20/20/20 31/31/31
f 19/19/19 31/31/31 30/30/30
f 20/20/20 21/21/21 32/32/32
f 20/20/20 32/32/32 31/31/31
f 21/21/21 22/22/22 33/33/33
f 21/21/21 33/33/33 32/32/32
f 23/23/23 24/24/24 35/35/35
f 23/23/23 35/35/35 34/34/34
f 24/24/24 25/25/25 36/36/36
f 24/24/24 36/36/36 35/35/35
f 25/25/25 26/26/26 37/37/37
f 25/25/25 37/37/37 36/36/36
f 26/26/26 27/27/27 38/38/38
f 26/26/26 38/38/38 37/37/37
f 27/27/27 28/28/28 39/39/39
f 27/27/27 39/39/39 38/38/38
f 28/28/28 29/29/29 40/40/40
f 28/28/28 40/40/40 39/39/39
f 29/29/29 30/30/30 41/41/41
f 29/29/29 41/41/41 40/40/40
f 30/30/30 31/31/31 42/42/42
f 30/30/30 42/42/42 41/41/41
f 31/31/31 32/32/32 43/43/43
f 31/31/31 43/43/43 42/42/42
f 32/32/32 33/33/33 44/44/44
f 32/32/32 44/44/44 43/43/43
f 34/34/34 35/35/35 46/46/46
f 34/34/34 46/46/46 45/45/45
f 35/35/35 36/36/36 47/47/47
f 35/35/35 47/47/47 46/46/46
f 36/36/36 37/37/37 48/48/48
f 36/36/36 48/48/48 47/47/47
f 37/37/37 38/38/38 49/49/49
f 37/37/37 49/49/49 48/48/48
f 38/38/38 39/39/39 50/50/50
f 38/38/38 50/50/50 49/49/49
f 39/39/39 40/40/40 51/51/51
f 39/39/39 51/51/51 50/50/50
f 40/40/40 41/41/41 52/52/52
f 40/40/40 52/52/52 51/51/51
f 41/41/41 42/42/42 53/53/53
f 41/41/41 53/53/53 52/52/52
f 42/42/42 43/43/43 54/54/54
f 42/42/42 54/54/54 53/53/53
f 43/43/43 44/44/44 55/55/55
f 43/43/43 55/55/55 54/54/54
f 45/45/45 46/46/46 57/57/57
f 45/45/45 57/57/57 56/56/56
f 46/46/46 47/47/47 58/58/58
f 46/46/46 58/58/58 57/57/57
f 47/47/47 48/48/48 59/59/59
f 47/47/47 59/59/59 58/58/58
f 48/48/48 49/49/49 60/60/60
f 48/48/48 60/60/60 59/59/59
f 49/49/49 50/50/50 61/61/61
f 49/49/49 61/61/61 60/60/60
f 50/50/50 51/51/51 62/62/62
f 50/50/50 62/62/62 61/61/61
f 51/51/51 52/52/52 63/63/63
f 51/51/51 63/63/63 62/62/62
f 52/52/52 53/53/53 64/64/64
f 52/52/52 64/64/64 63/63/63
f 53/53/53 54/54/54 65/65/65
f 53/53/53 65/65/65 64/64/64
f 54/54/54 55/55/55 66/66/66
f 54/54/54 66/66/66 65/65/65
f 56/56/56 57/57/57 68/68/68
f 56/56/56 68/68/68 67/67/67
f 57/57/57 58/58/58 69/69/69
f 57/57/57 69/69/69 68/68/68
f 58/58/58 59/59/59 70/70/70
f 58/58/58 70/70/70 69/69/69
f 59/59/59 60/60/60 71/71/71
f 59/59/59 71/71/71 70/70/70
f 60/60/60 61/61/61 72/72/72
f 60/60/60 72/72/72 71/71/71
f 61/61/61 62/62/62 73/73/73
f 61/61/61 73/73/73 72/72/72
f 62/62/62 63/63/63 74/74/74
f 62/62/62 74/74/74 73/73/73
f 63/63/63 64/64/64 75/75/75
f 63/63/63 75/75/75 74/74/74
f 64/64/64 65/65/65 76/76/76
f 64/64/64 76/76/76 75/75/75
f 65/65/65 66/66/66 77/77/77
f 65/65/65 77/77/77 76/76/76
f 78/78/78 80/80/80 79/79/79
f 78/78/78 81/81/81 80/80/80
f 78/78/78 82/82/82 81/81/81
f 78/78/78 83/83/83 82/82/82
f 78/78/78 84/84/84 83/83/83
f 78/78/78 85/85/85 84/84/84
f 78/78/78 86/86/86 85/85/85
f 78/78/78 87/87/87 86/86/86
f 78/78/78 88/88/88 87/87/87
f 78/78/78 79/79/79 88/88/88
f 89/89/89 90/90/90 91/91/91
f 89/89/89 91/91/91 92/92/92
f 89/89/89 92/92/92 93/93/93
f 89/89/89 93/93/93 94/94/94
f 89/89/89 94/94/94 95/95/95
f 89/89/89 95/95/95 96/96/96
f 89/89/89 96/96/96 97/97/97
f 89/89/89 97/97/97 98/98/98
f 89/89/89 98/98/98 99/99/99
f 89/89/89 99/99/99 90/90/90
f 100/100/100 101/101/101 112/112/112
f 100/100/100 112/112/112 111/111/111
f 101/101/101 102/102/102 113/113/113
f 101/101/101 113/113/113 112/112/112
f 102/102/102 103/103/103 114/114/114
f 102/102/102 114/114/114 113/113/113
f 103/103/103 104/104/104 115/115/115
f 103/103/103 115/115/115 114/114/114
f 104/104/104 105/105/105 116/116/116
f 104/104/104 116/116/116 115/115/115
f 105/105/105 106/106/106 117/117/117
f 105/105/105 117/117/117 116/116/116
f 106/106/106 107/107/107 118/118/118
f 106/106/106 118/118/118 117/117/117
f 107/107/107 108/108/108 119/119/119
f 107/107/107 119/119/119 118/118/118
f 108/108/108 109/109/109 120/120/120
f 108/108/108 120/120/120 119/119/119
f 109/109/109 110/110/110 121/121/121
f 109/109/109 121/121/121 120/120/120
f 111/111/111 112/112/112 123/123/123
f 111/111/111 123/123/123 122/122/122
f 112/112/112 113/113/113 124/124/124
f 112/112/112 124/124/124 123/123/123
f 113/113/113 114/114/114 125/125/125
f 113/113/113 125/125/125 124/124/124
f 114/114/114 115/115/115 126/126/126
f 114/114/114 126/126/126 125/125/125
f 115/115/115 116/116/116 127/127/127
f 115/115/115 127/127/127 126/126/126
f 116/116/116 117/117/117 128/128/128
f 116/116/116 128/128/128 127/127/127
f 117/117/117 118/118/118 129/129/129
f 117/117/117 129/129/129 128/128/128
f 118/118/118 119/119/119 130/130/130
f 118/118/118 130/130/130 129/129/129
f 119/119/119 120/120/120 131/131/131
f 119/119/119 131/131/131 130/130/130
f 120/120/120 121/121/121 132/132/132
f 120/120/120 132/132/132 131/131/131
f 122/122/122 123/123/123 134/134/134
f 122/122/122 134/134/134 133/133/133
f 123/123/123 124/124/124 135/135/135
f 123/123/123 135/135/135 134/134/134
f 124/124/124 125/125/125 136/136/136
f 124/124/124 136/136/136 135/135/135
f 125/125/125 126/126/126 137/137/137
f 125/125/125 137/137/137 136/136/136
f 126/126/126 127/127/127 138/138/138
f 126/126/126 138/138/138 137/137/137
f 127/127/127 128/128/128 139/139/139
f 127/127/127 139/139/139 138/138/138
f 128/128/128 129/129/129 140/140/140
f 128/128/128 140/140/140 139/139/139
f 129/129/129 130/130/130 141/141/141
f 129/129/129 141/141/141 140/140/140
f 130/130/130 131/131/131 142/142/142
f 130/130/130 142/142/142 141/141/141
f 131/131/131 132/132/132 143/143/143
f 131/131/131 143/143/143 142/142/142
f 133/133/133 134/134/134 145/145/145
f 133/133/133 145/145/145 144/144/144
f 134/134/134 135/135/135 146/146/146
f 134/134/134 146/146/146 145/145/145
f 135/135/135 136/136/136 147/147/147
f 135/135/135 147/147/147 146/146/146
f 136/136/136 137/137/137 148/148/148
f 136/136/136 148/148/148 147/147/147
f 137/137/137 138/138/138 149/149/149
f 137/137/137 149/149/149 148/148/148
f 138/138/138 139/139/139 150/150/150
f 138/138/138 150/150/150 149/149/149
f 139/139/139 140/140/140 151/151/151
f 139/139/139 151/151/151 150/150/150
f 140/140/140 141/141/141 152/152/152
f 140/140/140 152/152/152 151/151/151
f 141/141/141 142/142/142 153/153/153
f 141/141/141 153/153/153 152/152/152
f 142/142/142 143/143/143 154/154/154
f 142/142/142 154/154/154 153/153/153
f 144/144/144 145/145/145 156/156/156
f 144/144/144 156/156/156 155/155/155
f 145/145/145 146/146/146 157/157/157
f 145/145/145 157/157/157 156/156/156
f 146/146/146 147/147/147 158/158/158
f 146/146/146 158/158/158 157/157/157
f 147/147/147 148/148/148 159/159/159
f 147/147/147 159/159/159 158/158/158
f 148/148/148 149/149/149 160/160/160
f 148/148/148 160/160/160 159/159/159
f 149/149/149 150/150/150 161/161/161
f 149/149/149 161/161/161 160/160/160
f 150/150/150 151/151/151 162/162/162
f 150/150/150 162/162/162 161/161/161
f 151/151/151 152/152/152 163/163/163
f 151/151/151 163/163/163 162/162/162
f 152/152/152 153/153/153 164/164/164
f 152/152/152 164/164/164 163/163/163
f 153/153/153 154/154/154 165/165/165
f 153/153/153 165/165/165 164/164/164
f 155/155/155 156/156/156 167/167/167
f 155/155/155 167/167/167 166/166/166
f 156/156/156 157/157/157 168/168/168
f 156/156/156 168/168/168 167/167/167
f 157/157/157 158/158/158 169/169/169
f 157/157/157 169/169/169 168/168/168
f 158/158/158 159/159/159 170/170/170
f 158/158/158 170/170/170 169/169/169
f 159/159/159 160/160/160 171/171/171
f 159/159/159 171/171/171 170/170/170
f 160/160/160 161/161/161 172/172/172
f 160/160/160 172/172/172 171/171/171
f 161/161/161 162/162/162 173/173/173
f 161/161/161 173/173/173 172/172/172
f 162/162/162 163/163/163 174/174/174
f 162/162/162 174/174/174 173/173/173
f 163/163/163 164/164/164 175/175/175
f 163/163/163 175/175/175 174/174/174
f 164/164/164 165/165/165 176/176/176
f 164/164/164 176/176/176 175/175/175
usemtl skin
f 177/177/177 178/178/178 184/184/184
f 177/177/177 184/184/184 183/183/183
f 178/178/178 179/179/179 185/185/185
f 178/178/178 185/185/185 184/184/184
f 179/179/179 180/180/180 186/186/186
f 179/179/179 186/186/186 185/185/185
f 180/180/180 181/181/181 187/187/187
f 180/180/180 187/187/187 186/186/186
f 181/181/181 182/182/182 188/188/188
f 181/181/181 188/188/188 187/187/187
f 183/183/183 184/184/184 190/190/190
f 183/183/183 190/190/190 189/189/189
f 184/184/184 185/185/185 191/191/191
f 184/184/184 191/191/191 190/190/190
f 185/185/185 186/186/186 192/192/192
f 185/185/185 192/192/192 191/191/191
f 186/186/186 187/187/187 193/193/193
f 186/186/186 193/193/193 192/192/192
f 187/187/187 188/188/188 194/194/194
f 187/187/187 194/194/194 193/193/193
f 189/189/189 190/190/190 196/196/196
f 189/189/189 196/196/196 195/195/195
f 190/190/190 191/191/191 197/197/197
f 190/190/190 197/197/197 196/196/196
f 191/191/191 192/192/192 198/198/198
f 191/191/191 198/198/198 197/197/197
f 192/192/192 193/193/193 199/199/199
f 192/192/192 199/199/199 198/198/198
f 193/193/193 194/194/194 200/200/200
f 193/193/193 200/200/200 199/199/199
f 195/195/195 196/196/196 202/202/202
f 195/195/195 202/202/202 201/201/201
f 196/196/196 197/197/197 203/203/203
f 196/196/196 203/203/203 202/202/202
f 197/197/197 198/198/198 204/204/204
f 197/197/197 204/204/204 203/203/203
f 198/198/198 199/199/199 205/205/205
f 198/198/198 205/205/205 204/204/204
f 199/199/199 200/200/200 206/206/206
f 199/199/199 206/206/206 205/205/205
f 201/201/201 202/202/202 208/208/208
f 201/201/201 208/208/208 207/207/207
f 202/202/202 203/203/203 209/209/209
f 202/202/202 209/209/209 208/208/208
f 203/203/203 204/204/204 210/210/210
f 203/203/203 210/210/210 209/209/209
f 204/204/204 205/205/205 211/211/211
f 204/204/204 211/211/211 210/210/210
f 205/205/205 206/206/206 212/212/212
f 205/205/205 212/212/212 211/211/211
f 213/213/213 214/214/214 220/220/220
f 213/213/213 220/220/220 219/219/219
f 214/214/214 215/215/215 221/221/221
f 214/214/214 221/221/221 220/220/220
f 215/215/215 216/216/216 222/222/222
f 215/215/215 222/222/222 221/221/221
f 216/216/216 217/217/217 223/223/223
f 216/216/216 223/223/223 222/222/222
f 217/217/217 218/218/218 224/224/224
f 217/217/217 224/224/224 223/223/223
f 219/219/219 220/220/220 226/226/226
f 219/219/219 226/226/226 225/225/225
f 220/220/220 221/221/221 227/227/227
f 220/220/220 227/227/227 226/226/226
f 221/221/221 222/222/222 228/228/228
f 221/221/221 228/228/228 227/227/227
f 222/222/222 223/223/223 229/229/229
f 222/222/222 229/229/229 228/228/228
f 223/223/223 224/224/224 230/230/230
f 223/223/223 230/230/230 229/229/229
f 225/225/225 226/226/226 232/232/232
f 225/225/225 232/232/232 231/231/231
f 226/226/226 227/227/227 233/233/233
f 226/226/226 233/233/233 232/232/232
f 227/227/227 228/228/228 234/234/234
f 227/227/227 234/234/234 233/233/233
f 228/228/228 229/229/229 235/235/235
f 228/228/228 235/235/235 234/234/234
f 229/229/229 230/230/230 236/236/236
f 229/229/229 236/236/236 235/235/235
f 231/231/231 232/232/232 238/238/238
f 231/231/231 238/238/238 237/237/237
f 232/232/232 233/233/233 239/239/239
f 232/232/232 239/239/239 238/238/238
f 233/233/233 234/234/234 240/240/240
f 233/233/233 240/240/240 239/239/239
f 234/234/234 235/235/235 241/241/241
f 234/234/234 241/241/241 240/240/240
f 235/235/235 236/236/236 242/242/242
f 235/235/235 242/242/242 241/241/241
f 237/237/237 238/238/238 244/244/244
f 237/237/237 244/244/244 243/243/243
f 238/238/238 239/239/239 245/245/245
f 238/238/238 245/245/245 244/244/244
f 239/239/239 240/240/240 246/246/246
f 239/239/239 246/246/246 245/245/245
f 240/240/240 241/241/241 247/247/247
f 240/240/240 247/247/247 246/246/246
f 241/241/241 242/242/242 248/248/248
f 241/241/241 248/248/248 247/247/247
f 249/249/249 250/250/250 256/256/256
f 249/249/249 256/256/256 255/255/255
f 250/250/250 251/251/251 257/257/257
f 250/250/250 257/257/257 256/256/256
f 251/251/251 252/252/252 258/258/258
f 251/251/251 258/258/258 257/257/257
f 252/252/252 253/253/253 259/259/259
f 252/252/252 259/259/259 258/258/258
f 253/253/253 254/254/254 260/260/260
f 253/253/253 260/260/260 259/259/259
f 255/255/255 256/256/256 262/262/262
f 255/255/255 262/262/262 261/261/261
f 256/256/256 257/257/257 263/263/263
f 256/256/256 263/263/263 262/262/262
f 257/257/257 258/258/258 264/264/264
f 257/257/257 264/264/264 263/263/263
f 258/258/258 259/259/259 265/265/265
f 258/258/258 265/265/265 264/264/264
f 259/259/259 260/260/260 266/266/266
f 259/259/259 266/266/266 265/265/265
f 261/261/261 262/262/262 268/268/268
f 261/261/261 268/268/268 267/267/267
f 262/262/262 263/263/263 269/269/269
f 262/262/262 269/269/269 268/268/268
f 263/263/263 264/264/264 270/270/270
f 263/263/263 270/270/270 269/269/269
f 264/264/264 265/265/265 271/271/271
f 264/264/264 271/271/271 270/270/270
f 265/265/265 266/266/266 272/272/272
f 265/265/265 272/272/272 271/271/271
f 267/267/267 268/268/268 274/274/274
f 267/267/267 274/274/274 273/273/273
f 268/268/268 269/269/269 275/275/275
f 268/268/268 275/275/275 274/274/274
f 269/269/269 270/270/270 276/276/276
f 269/269/269 276/276/276 275/275/275
f 270/270/270 271/271/271 277/277/277
f 270/270/270 277/277/277 276/276/276
f 271/271/271 272/272/272 278/278/278
f 271/271/271 278/278/278 277/277/277
f 273/273/273 274/274/274 280/280/280
f 273/273/273 280/280/280 279/279/279
f 274/274/274 275/275/275 281/281/281
f 274/274/274 281/281/281 280/280/280
f 275/275/275 276/276/276 282/282/282
f 275/275/275 282/282/282 281/281/281
f 276/276/276 277/277/277 283/283/283
f 276/276/276 283/283/283 282/282/282
f 277/277/277 278/278/278 284/284/284
f 277/277/277 284/284/284 283/283/283
f 285/285/285 286/286/286 292/292/292
f 285/285/285 292/292/292 291/291/291
f 286/286/286 287/287/287 293/293/293
f 286/286/286 293/293/293 292/292/292
f 287/287/287 288/288/288 294/294/294
f 287/287/287 294/294/294 293/293/293
f 288/288/288 289/289/289 295/295/295
f 288/288/288 295/295/295 294/294/294
f 289/289/289 290/290/290 296/296/296
f 289/289/289 296/296/296 295/295/295
f 291/291/291 292/292/292 298/298/298
f 291/291/291 298/298/298 297/297/297
f 292/292/292 293/293/293 299/299/299
f 292/292/292 299/299/299 298/298/298
f 293/293/293 294/294/294 300/300/300
f 293/293/293 300/300/300 299/299/299
f 294/294/294 295/295/295 301/301/301
f 294/294/294 301/301/301 300/300/300
f 295/295/295 296/296/296 302/302/302
f 295/295/295 302/302/302 301/301/301
f 297/297/297 298/298/298 304/304/304
f 297/297/297 304/304/304 303/303/303
f 298/298/298 299/299/299 305/305/305
f 298/298/298 305/305/305 304/304/304
f 299/299/299 300/300/300 306/306/306
f 299/299/299 306/306/306 305/305/305
f 300/300/300 301/301/301 307/307/307
f 300/300/300 307/307/307 306/306/306
f 301/301/301 302/302/302 308/308/308
f 301/301/301 308/308/308 307/307/307
f 303/303/303 304/304/304 310/310/310
f 303/303/303 310/310/310 309/309/309
f 304/304/304 305/305/305 311/311/311
f 304/304/304 311/311/311 310/310/310
f 305/305/305 306/306/306 312/312/312
f 305/305/305 312/312/312 311/311/311
f 306/306/306 307/307/307 313/313/313
f 306/306/306 313/313/313 312/312/312
f 307/307/307 308/308/308 314/314/314
f 307/307/307 314/314/314 313/313/313
f 309/309/309 310/310/310 316/316/316
f 309/309/309 316/316/316 315/315/315
f 310/310/310 311/311/311 317/317/317
f 310/310/310 317/317/317 316/316/316
f 311/311/311 312/312/312 318/318/318
f 311/311/311 318/318/318 317/317/317
f 312/312/312 313/313/313 319/319/319
f 312/312/312 319/319/319 318/318/318
f 313/313/313 314/314/314 320/320/320
f 313/313/313 320/320/320 319/319/319
f 321/321/321 322/322/322 328/328/328
f 321/321/321 328/328/328 327/327/327
f 322/322/322 323/323/323 329/329/329
f 322/322/322 329/329/329 328/328/328
f 323/323/323 324/324/324 330/330/330
f 323/323/323 330/330/330 329/329/329
f 324/324/324 325/325/325 331/331/331
f 324/324/324 331/331/331 330/330/330
f 325/325/325 326/326/326 332/332/332
f 325/325/325 332/332/332 331/331/331
f 327/327/327 328/328/328 334/334/334
f 327/327/327 334/334/334 333/333/333
f 328/328/328 329/329/329 335/335/335
f 328/328/328 335/335/335 334/334/334
f 329/329/329 330/330/330 336/336/336
f 329/329/329 336/336/336 335/335/335
f 330/330/330 331/331/331 337/337/337
f 330/330/330 337/337/337 336/336/336
f 331/331/331 332/332/332 338/338/338
f 331/331/331 338/338/338 337/337/337
f 333/333/333 334/334/334 340/340/340
f 333/333/333 340/340/340 339/339/339
f 334/334/334 335/335/335 341/341/341
f 334/334/334 341/341/341 340/340/340
f 335/335/335 336/336/336 342/342/342
f 335/335/335 342/342/342 341/341/341
f 336/336/336 337/337/337 343/343/343
f 336/336/336 343/343/343 342/342/342
f 337/337/337 338/338/338 344/344/344
f 337/337/337 344/344/344 343/343/343
f 339/339/339 340/340/340 346/346/346
f 339/339/339 346/346/346 345/345/345
f 340/340/340 341/341/341 347/347/347
f 340/340/340 347/347/347 346/346/346
f 341/341/341 342/342/342 348/348/348
f 341/341/341 348/348/348 347/347/347
f 342/342/342 343/343/343 349/349/349
f 342/342/342 349/349/349 348/348/348
f 343/343/343 344/344/344 350/350/350
f 343/343/343 350/350/350 349/349/349
f 345/345/345 346/346/346 352/352/352
f 345/345/345 352/352/352 351/351/351
f 346/346/346 347/347/347 353/353/353
f 346/346/346 353/353/353 352/352/352
f 347/347/347 348/348/348 354/354/354
f 347/347/347 354/354/354 353/353/353
f 348/348/348 349/349/349 355/355/355
f 348/348/348 355/355/355 354/354/354
f 349/349/349 350/350/350 356/356/356
f 349/349/349 356/356/356 355/355/355
f 357/357/357 358/358/358 364/364/364
f 357/357/357 364/364/364 363/363/363
f 358/358/358 359/359/359 365/365/365
f 358/358/358 365/365/365 364/364/364
f 359/359/359 360/360/360 366/366/366
f 359/359/359 366/366/366 365/365/365
f 360/360/360 361/361/361 367/367/367
f 360/360/360 367/367/367 366/366/366
f 361/361/361 362/362/362 368/368/368
f 361/361/361 368/368/368 367/367/367
f 363/363/363 364/364/364 370/370/370
f 363/363/363 370/370/370 369/369/369
f 364/364/364 365/365/365 371/371/371
f 364/364/364 371/371/371 370/370/370
f 365/365/365 366/366/366 372/372/372
f 365/365/365 372/372/372 371/371/371
f 366/366/366 367/367/367 373/373/373
f 366/366/366 373/373/373 372/372/372
f 367/367/367 368/368/368 374/374/374
f 367/367/367 374/374/374 373/373/373
f 369/369/369 370/370/370 376/376/376
f 369/369/369 376/376/376 375/375/375
f 370/370/370 371/371/371 377/377/377
f 370/370/370 377/377/377 376/376/376
f 371/371/371 372/372/372 378/378/378
f 371/371/371 378/378/378 377/377/377
f 372/372/372 373/373/373 379/379/379
f 372/372/372 379/379/379 378/378/378
f 373/373/373 374/374/374 380/380/380
f 373/373/373 380/380/380 379/379/379
f 375/375/375 376/376/376 382/382/382
f 375/375/375 382/382/382 381/381/381
f 376/376/376 377/377/377 383/383/383
f 376/376/376 383/383/383 382/382/382
f 377/377/377 378/378/378 384/384/384
f 377/377/377 384/384/384 383/383/383
f 378/378/378 379/379/379 385/385/385
f 378/378/378 385/385/385 384/384/384
f 379/379/379 380/380/380 386/386/386
f 379/379/379 386/386/386 385/385/385
f 381/381/381 382/382/382 388/388/388
f 381/381/381 388/388/388 387/387/387
f 382/382/382 383/383/383 389/389/389
f 382/382/382 389/389/389 388/388/388
f 383/383/383 384/384/384 390/390/390
f 383/383/383 390/390/390 389/389/389
f 384/384/384 385/385/385 391/391/391
f 384/384/384 391/391/391 390/390/390
f 385/385/385 386/386/386 392/392/392
f 385/385/385 392/392/392 391/391/391
