# Sinh tự động bởi tools/mesh_kit.py - đừng sửa tay
o p_feet
v -0.0542 0.0042 -0.2992
v -0.0537 0.0037 -0.3005
v -0.0529 0.0029 -0.3050
v -0.0529 0.0029 -0.5350
v -0.0537 0.0037 -0.5395
v -0.0542 0.0042 -0.5408
v -0.0537 0.0055 -0.2987
v -0.0529 0.0050 -0.3000
v -0.0518 0.0042 -0.3050
v -0.0518 0.0042 -0.5350
v -0.0529 0.0050 -0.5400
v -0.0537 0.0055 -0.5413
v -0.0529 0.0100 -0.2979
v -0.0518 0.0100 -0.2992
v -0.0500 0.0100 -0.3050
v -0.0500 0.0100 -0.5350
v -0.0518 0.0100 -0.5408
v -0.0529 0.0100 -0.5421
v -0.0529 0.0120 -0.2979
v -0.0518 0.0120 -0.2992
v -0.0500 0.0120 -0.3050
v -0.0500 0.0120 -0.5350
v -0.0518 0.0120 -0.5408
v -0.0529 0.0120 -0.5421
v -0.0537 0.0165 -0.2987
v -0.0529 0.0170 -0.3000
v -0.0518 0.0178 -0.3050
v -0.0518 0.0178 -0.5350
v -0.0529 0.0170 -0.5400
v -0.0537 0.0165 -0.5413
v -0.0542 0.0178 -0.2992
v -0.0537 0.0183 -0.3005
v -0.0529 0.0191 -0.3050
v -0.0529 0.0191 -0.5350
v -0.0537 0.0183 -0.5395
v -0.0542 0.0178 -0.5408
v -0.1458 0.0042 -0.5408
v -0.1463 0.0037 -0.5395
v -0.1471 0.0029 -0.5350
v -0.1471 0.0029 -0.3050
v -0.1463 0.0037 -0.3005
v -0.1458 0.0042 -0.2992
v -0.1463 0.0055 -0.5413
v -0.1471 0.0050 -0.5400
v -0.1482 0.0042 -0.5350
v -0.1482 0.0042 -0.3050
v -0.1471 0.0050 -0.3000
v -0.1463 0.0055 -0.2987
v -0.1471 0.0100 -0.5421
v -0.1482 0.0100 -0.5408
v -0.1500 0.0100 -0.5350
v -0.1500 0.0100 -0.3050
v -0.1482 0.0100 -0.2992
v -0.1471 0.0100 -0.2979
v -0.1471 0.0120 -0.5421
v -0.1482 0.0120 -0.5408
v -0.1500 0.0120 -0.5350
v -0.1500 0.0120 -0.3050
v -0.1482 0.0120 -0.2992
v -0.1471 0.0120 -0.2979
v -0.1463 0.0165 -0.5413
v -0.1471 0.0170 -0.5400
v -0.1482 0.0178 -0.5350
v -0.1482 0.0178 -0.3050
v -0.1471 0.0170 -0.3000
v -0.1463 0.0165 -0.2987
v -0.1458 0.0178 -0.5408
v -0.1463 0.0183 -0.5395
v -0.1471 0.0191 -0.5350
v -0.1471 0.0191 -0.3050
v -0.1463 0.0183 -0.3005
v -0.1458 0.0178 -0.2992
v -0.1458 0.0178 -0.2992
v -0.1445 0.0183 -0.2987
v -0.1400 0.0191 -0.2979
v -0.0600 0.0191 -0.2979
v -0.0555 0.0183 -0.2987
v -0.0542 0.0178 -0.2992
v -0.1463 0.0183 -0.3005
v -0.1450 0.0191 -0.3000
v -0.1400 0.0202 -0.2992
v -0.0600 0.0202 -0.2992
v -0.0550 0.0191 -0.3000
v -0.0537 0.0183 -0.3005
v -0.1471 0.0191 -0.3050
v -0.1458 0.0202 -0.3050
v -0.1400 0.0220 -0.3050
v -0.0600 0.0220 -0.3050
v -0.0542 0.0202 -0.3050
v -0.0529 0.0191 -0.3050
v -0.1471 0.0191 -0.5350
v -0.1458 0.0202 -0.5350
v -0.1400 0.0220 -0.5350
v -0.0600 0.0220 -0.5350
v -0.0542 0.0202 -0.5350
v -0.0529 0.0191 -0.5350
v -0.1463 0.0183 -0.5395
v -0.1450 0.0191 -0.5400
v -0.1400 0.0202 -0.5408
v -0.0600 0.0202 -0.5408
v -0.0550 0.0191 -0.5400
v -0.0537 0.0183 -0.5395
v -0.1458 0.0178 -0.5408
v -0.1445 0.0183 -0.5413
v -0.1400 0.0191 -0.5421
v -0.0600 0.0191 -0.5421
v -0.0555 0.0183 -0.5413
v -0.0542 0.0178 -0.5408
v -0.1458 0.0042 -0.5408
v -0.1445 0.0037 -0.5413
v -0.1400 0.0029 -0.5421
v -0.0600 0.0029 -0.5421
v -0.0555 0.0037 -0.5413
v -0.0542 0.0042 -0.5408
v -0.1463 0.0037 -0.5395
v -0.1450 0.0029 -0.5400
v -0.1400 0.0018 -0.5408
v -0.0600 0.0018 -0.5408
v -0.0550 0.0029 -0.5400
v -0.0537 0.0037 -0.5395
v -0.1471 0.0029 -0.5350
v -0.1458 0.0018 -0.5350
v -0.1400 0.0000 -0.5350
v -0.0600 0.0000 -0.5350
v -0.0542 0.0018 -0.5350
v -0.0529 0.0029 -0.5350
v -0.1471 0.0029 -0.3050
v -0.1458 0.0018 -0.3050
v -0.1400 0.0000 -0.3050
v -0.0600 0.0000 -0.3050
v -0.0542 0.0018 -0.3050
v -0.0529 0.0029 -0.3050
v -0.1463 0.0037 -0.3005
v -0.1450 0.0029 -0.3000
v -0.1400 0.0018 -0.2992
v -0.0600 0.0018 -0.2992
v -0.0550 0.0029 -0.3000
v -0.0537 0.0037 -0.3005
v -0.1458 0.0042 -0.2992
v -0.1445 0.0037 -0.2987
v -0.1400 0.0029 -0.2979
v -0.0600 0.0029 -0.2979
v -0.0555 0.0037 -0.2987
v -0.0542 0.0042 -0.2992
v -0.1458 0.0042 -0.2992
v -0.1445 0.0037 -0.2987
v -0.1400 0.0029 -0.2979
v -0.0600 0.0029 -0.2979
v -0.0555 0.0037 -0.2987
v -0.0542 0.0042 -0.2992
v -0.1463 0.0055 -0.2987
v -0.1450 0.0050 -0.2979
v -0.1400 0.0042 -0.2968
v -0.0600 0.0042 -0.2968
v -0.0550 0.0050 -0.2979
v -0.0537 0.0055 -0.2987
v -0.1471 0.0100 -0.2979
v -0.1458 0.0100 -0.2968
v -0.1400 0.0100 -0.2950
v -0.0600 0.0100 -0.2950
v -0.0542 0.0100 -0.2968
v -0.0529 0.0100 -0.2979
v -0.1471 0.0120 -0.2979
v -0.1458 0.0120 -0.2968
v -0.1400 0.0120 -0.2950
v -0.0600 0.0120 -0.2950
v -0.0542 0.0120 -0.2968
v -0.0529 0.0120 -0.2979
v -0.1463 0.0165 -0.2987
v -0.1450 0.0170 -0.2979
v -0.1400 0.0178 -0.2968
v -0.0600 0.0178 -0.2968
v -0.0550 0.0170 -0.2979
v -0.0537 0.0165 -0.2987
v -0.1458 0.0178 -0.2992
v -0.1445 0.0183 -0.2987
v -0.1400 0.0191 -0.2979
v -0.0600 0.0191 -0.2979
v -0.0555 0.0183 -0.2987
v -0.0542 0.0178 -0.2992
v -0.0542 0.0042 -0.5408
v -0.0555 0.0037 -0.5413
v -0.0600 0.0029 -0.5421
v -0.1400 0.0029 -0.5421
v -0.1445 0.0037 -0.5413
v -0.1458 0.0042 -0.5408
v -0.0537 0.0055 -0.5413
v -0.0550 0.0050 -0.5421
v -0.0600 0.0042 -0.5432
v -0.1400 0.0042 -0.5432
v -0.1450 0.0050 -0.5421
v -0.1463 0.0055 -0.5413
v -0.0529 0.0100 -0.5421
v -0.0542 0.0100 -0.5432
v -0.0600 0.0100 -0.5450
v -0.1400 0.0100 -0.5450
v -0.1458 0.0100 -0.5432
v -0.1471 0.0100 -0.5421
v -0.0529 0.0120 -0.5421
v -0.0542 0.0120 -0.5432
v -0.0600 0.0120 -0.5450
v -0.1400 0.0120 -0.5450
v -0.1458 0.0120 -0.5432
v -0.1471 0.0120 -0.5421
v -0.0537 0.0165 -0.5413
v -0.0550 0.0170 -0.5421
v -0.0600 0.0178 -0.5432
v -0.1400 0.0178 -0.5432
v -0.1450 0.0170 -0.5421
v -0.1463 0.0165 -0.5413
v -0.0542 0.0178 -0.5408
v -0.0555 0.0183 -0.5413
v -0.0600 0.0191 -0.5421
v -0.1400 0.0191 -0.5421
v -0.1445 0.0183 -0.5413
v -0.1458 0.0178 -0.5408
v -0.0521 0.0661 -0.4596
v -0.0515 0.0655 -0.4625
v -0.0515 0.0655 -0.4775
v -0.0521 0.0661 -0.4804
v -0.0515 0.0690 -0.4590
v -0.0500 0.0690 -0.4625
v -0.0500 0.0690 -0.4775
v -0.0515 0.0690 -0.4810
v -0.0515 0.0710 -0.4590
v -0.0500 0.0710 -0.4625
v -0.0500 0.0710 -0.4775
v -0.0515 0.0710 -0.4810
v -0.0521 0.0739 -0.4596
v -0.0515 0.0745 -0.4625
v -0.0515 0.0745 -0.4775
v -0.0521 0.0739 -0.4804
v -0.1479 0.0661 -0.4804
v -0.1485 0.0655 -0.4775
v -0.1485 0.0655 -0.4625
v -0.1479 0.0661 -0.4596
v -0.1485 0.0690 -0.4810
v -0.1500 0.0690 -0.4775
v -0.1500 0.0690 -0.4625
v -0.1485 0.0690 -0.4590
v -0.1485 0.0710 -0.4810
v -0.1500 0.0710 -0.4775
v -0.1500 0.0710 -0.4625
v -0.1485 0.0710 -0.4590
v -0.1479 0.0739 -0.4804
v -0.1485 0.0745 -0.4775
v -0.1485 0.0745 -0.4625
v -0.1479 0.0739 -0.4596
v -0.1479 0.0739 -0.4596
v -0.1450 0.0745 -0.4590
v -0.0550 0.0745 -0.4590
v -0.0521 0.0739 -0.4596
v -0.1485 0.0745 -0.4625
v -0.1450 0.0760 -0.4625
v -0.0550 0.0760 -0.4625
v -0.0515 0.0745 -0.4625
v -0.1485 0.0745 -0.4775
v -0.1450 0.0760 -0.4775
v -0.0550 0.0760 -0.4775
v -0.0515 0.0745 -0.4775
v -0.1479 0.0739 -0.4804
v -0.1450 0.0745 -0.4810
v -0.0550 0.0745 -0.4810
v -0.0521 0.0739 -0.4804
v -0.1479 0.0661 -0.4804
v -0.1450 0.0655 -0.4810
v -0.0550 0.0655 -0.4810
v -0.0521 0.0661 -0.4804
v -0.1485 0.0655 -0.4775
v -0.1450 0.0640 -0.4775
v -0.0550 0.0640 -0.4775
v -0.0515 0.0655 -0.4775
v -0.1485 0.0655 -0.4625
v -0.1450 0.0640 -0.4625
v -0.0550 0.0640 -0.4625
v -0.0515 0.0655 -0.4625
v -0.1479 0.0661 -0.4596
v -0.1450 0.0655 -0.4590
v -0.0550 0.0655 -0.4590
v -0.0521 0.0661 -0.4596
v -0.1479 0.0661 -0.4596
v -0.1450 0.0655 -0.4590
v -0.0550 0.0655 -0.4590
v -0.0521 0.0661 -0.4596
v -0.1485 0.0690 -0.4590
v -0.1450 0.0690 -0.4575
v -0.0550 0.0690 -0.4575
v -0.0515 0.0690 -0.4590
v -0.1485 0.0710 -0.4590
v -0.1450 0.0710 -0.4575
v -0.0550 0.0710 -0.4575
v -0.0515 0.0710 -0.4590
v -0.1479 0.0739 -0.4596
v -0.1450 0.0745 -0.4590
v -0.0550 0.0745 -0.4590
v -0.0521 0.0739 -0.4596
v -0.0521 0.0661 -0.4804
v -0.0550 0.0655 -0.4810
v -0.1450 0.0655 -0.4810
v -0.1479 0.0661 -0.4804
v -0.0515 0.0690 -0.4810
v -0.0550 0.0690 -0.4825
v -0.1450 0.0690 -0.4825
v -0.1485 0.0690 -0.4810
v -0.0515 0.0710 -0.4810
v -0.0550 0.0710 -0.4825
v -0.1450 0.0710 -0.4825
v -0.1485 0.0710 -0.4810
v -0.0521 0.0739 -0.4804
v -0.0550 0.0745 -0.4810
v -0.1450 0.0745 -0.4810
v -0.1479 0.0739 -0.4804
v 0.1458 0.0042 -0.2992
v 0.1463 0.0037 -0.3005
v 0.1471 0.0029 -0.3050
v 0.1471 0.0029 -0.5350
v 0.1463 0.0037 -0.5395
v 0.1458 0.0042 -0.5408
v 0.1463 0.0055 -0.2987
v 0.1471 0.0050 -0.3000
v 0.1482 0.0042 -0.3050
v 0.1482 0.0042 -0.5350
v 0.1471 0.0050 -0.5400
v 0.1463 0.0055 -0.5413
v 0.1471 0.0100 -0.2979
v 0.1482 0.0100 -0.2992
v 0.1500 0.0100 -0.3050
v 0.1500 0.0100 -0.5350
v 0.1482 0.0100 -0.5408
v 0.1471 0.0100 -0.5421
v 0.1471 0.0120 -0.2979
v 0.1482 0.0120 -0.2992
v 0.1500 0.0120 -0.3050
v 0.1500 0.0120 -0.5350
v 0.1482 0.0120 -0.5408
v 0.1471 0.0120 -0.5421
v 0.1463 0.0165 -0.2987
v 0.1471 0.0170 -0.3000
v 0.1482 0.0178 -0.3050
v 0.1482 0.0178 -0.5350
v 0.1471 0.0170 -0.5400
v 0.1463 0.0165 -0.5413
v 0.1458 0.0178 -0.2992
v 0.1463 0.0183 -0.3005
v 0.1471 0.0191 -0.3050
v 0.1471 0.0191 -0.5350
v 0.1463 0.0183 -0.5395
v 0.1458 0.0178 -0.5408
v 0.0542 0.0042 -0.5408
v 0.0537 0.0037 -0.5395
v 0.0529 0.0029 -0.5350
v 0.0529 0.0029 -0.3050
v 0.0537 0.0037 -0.3005
v 0.0542 0.0042 -0.2992
v 0.0537 0.0055 -0.5413
v 0.0529 0.0050 -0.5400
v 0.0518 0.0042 -0.5350
v 0.0518 0.0042 -0.3050
v 0.0529 0.0050 -0.3000
v 0.0537 0.0055 -0.2987
v 0.0529 0.0100 -0.5421
v 0.0518 0.0100 -0.5408
v 0.0500 0.0100 -0.5350
v 0.0500 0.0100 -0.3050
v 0.0518 0.0100 -0.2992
v 0.0529 0.0100 -0.2979
v 0.0529 0.0120 -0.5421
v 0.0518 0.0120 -0.5408
v 0.0500 0.0120 -0.5350
v 0.0500 0.0120 -0.3050
v 0.0518 0.0120 -0.2992
v 0.0529 0.0120 -0.2979
v 0.0537 0.0165 -0.5413
v 0.0529 0.0170 -0.5400
v 0.0518 0.0178 -0.5350
v 0.0518 0.0178 -0.3050
v 0.0529 0.0170 -0.3000
v 0.0537 0.0165 -0.2987
v 0.0542 0.0178 -0.5408
v 0.0537 0.0183 -0.5395
v 0.0529 0.0191 -0.5350
v 0.0529 0.0191 -0.3050
v 0.0537 0.0183 -0.3005
v 0.0542 0.0178 -0.2992
v 0.0542 0.0178 -0.2992
v 0.0555 0.0183 -0.2987
v 0.0600 0.0191 -0.2979
v 0.1400 0.0191 -0.2979
v 0.1445 0.0183 -0.2987
v 0.1458 0.0178 -0.2992
v 0.0537 0.0183 -0.3005
v 0.0550 0.0191 -0.3000
v 0.0600 0.0202 -0.2992
v 0.1400 0.0202 -0.2992
v 0.1450 0.0191 -0.3000
v 0.1463 0.0183 -0.3005
v 0.0529 0.0191 -0.3050
v 0.0542 0.0202 -0.3050
v 0.0600 0.0220 -0.3050
v 0.1400 0.0220 -0.3050
v 0.1458 0.0202 -0.3050
v 0.1471 0.0191 -0.3050
v 0.0529 0.0191 -0.5350
v 0.0542 0.0202 -0.5350
v 0.0600 0.0220 -0.5350
v 0.1400 0.0220 -0.5350
v 0.1458 0.0202 -0.5350
v 0.1471 0.0191 -0.5350
v 0.0537 0.0183 -0.5395
v 0.0550 0.0191 -0.5400
v 0.0600 0.0202 -0.5408
v 0.1400 0.0202 -0.5408
v 0.1450 0.0191 -0.5400
v 0.1463 0.0183 -0.5395
v 0.0542 0.0178 -0.5408
v 0.0555 0.0183 -0.5413
v 0.0600 0.0191 -0.5421
v 0.1400 0.0191 -0.5421
v 0.1445 0.0183 -0.5413
v 0.1458 0.0178 -0.5408
v 0.0542 0.0042 -0.5408
v 0.0555 0.0037 -0.5413
v 0.0600 0.0029 -0.5421
v 0.1400 0.0029 -0.5421
v 0.1445 0.0037 -0.5413
v 0.1458 0.0042 -0.5408
v 0.0537 0.0037 -0.5395
v 0.0550 0.0029 -0.5400
v 0.0600 0.0018 -0.5408
v 0.1400 0.0018 -0.5408
v 0.1450 0.0029 -0.5400
v 0.1463 0.0037 -0.5395
v 0.0529 0.0029 -0.5350
v 0.0542 0.0018 -0.5350
v 0.0600 0.0000 -0.5350
v 0.1400 0.0000 -0.5350
v 0.1458 0.0018 -0.5350
v 0.1471 0.0029 -0.5350
v 0.0529 0.0029 -0.3050
v 0.0542 0.0018 -0.3050
v 0.0600 0.0000 -0.3050
v 0.1400 0.0000 -0.3050
v 0.1458 0.0018 -0.3050
v 0.1471 0.0029 -0.3050
v 0.0537 0.0037 -0.3005
v 0.0550 0.0029 -0.3000
v 0.0600 0.0018 -0.2992
v 0.1400 0.0018 -0.2992
v 0.1450 0.0029 -0.3000
v 0.1463 0.0037 -0.3005
v 0.0542 0.0042 -0.2992
v 0.0555 0.0037 -0.2987
v 0.0600 0.0029 -0.2979
v 0.1400 0.0029 -0.2979
v 0.1445 0.0037 -0.2987
v 0.1458 0.0042 -0.2992
v 0.0542 0.0042 -0.2992
v 0.0555 0.0037 -0.2987
v 0.0600 0.0029 -0.2979
v 0.1400 0.0029 -0.2979
v 0.1445 0.0037 -0.2987
v 0.1458 0.0042 -0.2992
v 0.0537 0.0055 -0.2987
v 0.0550 0.0050 -0.2979
v 0.0600 0.0042 -0.2968
v 0.1400 0.0042 -0.2968
v 0.1450 0.0050 -0.2979
v 0.1463 0.0055 -0.2987
v 0.0529 0.0100 -0.2979
v 0.0542 0.0100 -0.2968
v 0.0600 0.0100 -0.2950
v 0.1400 0.0100 -0.2950
v 0.1458 0.0100 -0.2968
v 0.1471 0.0100 -0.2979
v 0.0529 0.0120 -0.2979
v 0.0542 0.0120 -0.2968
v 0.0600 0.0120 -0.2950
v 0.1400 0.0120 -0.2950
v 0.1458 0.0120 -0.2968
v 0.1471 0.0120 -0.2979
v 0.0537 0.0165 -0.2987
v 0.0550 0.0170 -0.2979
v 0.0600 0.0178 -0.2968
v 0.1400 0.0178 -0.2968
v 0.1450 0.0170 -0.2979
v 0.1463 0.0165 -0.2987
v 0.0542 0.0178 -0.2992
v 0.0555 0.0183 -0.2987
v 0.0600 0.0191 -0.2979
v 0.1400 0.0191 -0.2979
v 0.1445 0.0183 -0.2987
v 0.1458 0.0178 -0.2992
v 0.1458 0.0042 -0.5408
v 0.1445 0.0037 -0.5413
v 0.1400 0.0029 -0.5421
v 0.0600 0.0029 -0.5421
v 0.0555 0.0037 -0.5413
v 0.0542 0.0042 -0.5408
v 0.1463 0.0055 -0.5413
v 0.1450 0.0050 -0.5421
v 0.1400 0.0042 -0.5432
v 0.0600 0.0042 -0.5432
v 0.0550 0.0050 -0.5421
v 0.0537 0.0055 -0.5413
v 0.1471 0.0100 -0.5421
v 0.1458 0.0100 -0.5432
v 0.1400 0.0100 -0.5450
v 0.0600 0.0100 -0.5450
v 0.0542 0.0100 -0.5432
v 0.0529 0.0100 -0.5421
v 0.1471 0.0120 -0.5421
v 0.1458 0.0120 -0.5432
v 0.1400 0.0120 -0.5450
v 0.0600 0.0120 -0.5450
v 0.0542 0.0120 -0.5432
v 0.0529 0.0120 -0.5421
v 0.1463 0.0165 -0.5413
v 0.1450 0.0170 -0.5421
v 0.1400 0.0178 -0.5432
v 0.0600 0.0178 -0.5432
v 0.0550 0.0170 -0.5421
v 0.0537 0.0165 -0.5413
v 0.1458 0.0178 -0.5408
v 0.1445 0.0183 -0.5413
v 0.1400 0.0191 -0.5421
v 0.0600 0.0191 -0.5421
v 0.0555 0.0183 -0.5413
v 0.0542 0.0178 -0.5408
v 0.1479 0.0661 -0.4596
v 0.1485 0.0655 -0.4625
v 0.1485 0.0655 -0.4775
v 0.1479 0.0661 -0.4804
v 0.1485 0.0690 -0.4590
v 0.1500 0.0690 -0.4625
v 0.1500 0.0690 -0.4775
v 0.1485 0.0690 -0.4810
v 0.1485 0.0710 -0.4590
v 0.1500 0.0710 -0.4625
v 0.1500 0.0710 -0.4775
v 0.1485 0.0710 -0.4810
v 0.1479 0.0739 -0.4596
v 0.1485 0.0745 -0.4625
v 0.1485 0.0745 -0.4775
v 0.1479 0.0739 -0.4804
v 0.0521 0.0661 -0.4804
v 0.0515 0.0655 -0.4775
v 0.0515 0.0655 -0.4625
v 0.0521 0.0661 -0.4596
v 0.0515 0.0690 -0.4810
v 0.0500 0.0690 -0.4775
v 0.0500 0.0690 -0.4625
v 0.0515 0.0690 -0.4590
v 0.0515 0.0710 -0.4810
v 0.0500 0.0710 -0.4775
v 0.0500 0.0710 -0.4625
v 0.0515 0.0710 -0.4590
v 0.0521 0.0739 -0.4804
v 0.0515 0.0745 -0.4775
v 0.0515 0.0745 -0.4625
v 0.0521 0.0739 -0.4596
v 0.0521 0.0739 -0.4596
v 0.0550 0.0745 -0.4590
v 0.1450 0.0745 -0.4590
v 0.1479 0.0739 -0.4596
v 0.0515 0.0745 -0.4625
v 0.0550 0.0760 -0.4625
v 0.1450 0.0760 -0.4625
v 0.1485 0.0745 -0.4625
v 0.0515 0.0745 -0.4775
v 0.0550 0.0760 -0.4775
v 0.1450 0.0760 -0.4775
v 0.1485 0.0745 -0.4775
v 0.0521 0.0739 -0.4804
v 0.0550 0.0745 -0.4810
v 0.1450 0.0745 -0.4810
v 0.1479 0.0739 -0.4804
v 0.0521 0.0661 -0.4804
v 0.0550 0.0655 -0.4810
v 0.1450 0.0655 -0.4810
v 0.1479 0.0661 -0.4804
v 0.0515 0.0655 -0.4775
v 0.0550 0.0640 -0.4775
v 0.1450 0.0640 -0.4775
v 0.1485 0.0655 -0.4775
v 0.0515 0.0655 -0.4625
v 0.0550 0.0640 -0.4625
v 0.1450 0.0640 -0.4625
v 0.1485 0.0655 -0.4625
v 0.0521 0.0661 -0.4596
v 0.0550 0.0655 -0.4590
v 0.1450 0.0655 -0.4590
v 0.1479 0.0661 -0.4596
v 0.0521 0.0661 -0.4596
v 0.0550 0.0655 -0.4590
v 0.1450 0.0655 -0.4590
v 0.1479 0.0661 -0.4596
v 0.0515 0.0690 -0.4590
v 0.0550 0.0690 -0.4575
v 0.1450 0.0690 -0.4575
v 0.1485 0.0690 -0.4590
v 0.0515 0.0710 -0.4590
v 0.0550 0.0710 -0.4575
v 0.1450 0.0710 -0.4575
v 0.1485 0.0710 -0.4590
v 0.0521 0.0739 -0.4596
v 0.0550 0.0745 -0.4590
v 0.1450 0.0745 -0.4590
v 0.1479 0.0739 -0.4596
v 0.1479 0.0661 -0.4804
v 0.1450 0.0655 -0.4810
v 0.0550 0.0655 -0.4810
v 0.0521 0.0661 -0.4804
v 0.1485 0.0690 -0.4810
v 0.1450 0.0690 -0.4825
v 0.0550 0.0690 -0.4825
v 0.0515 0.0690 -0.4810
v 0.1485 0.0710 -0.4810
v 0.1450 0.0710 -0.4825
v 0.0550 0.0710 -0.4825
v 0.0515 0.0710 -0.4810
v 0.1479 0.0739 -0.4804
v 0.1450 0.0745 -0.4810
v 0.0550 0.0745 -0.4810
v 0.0521 0.0739 -0.4804
vt 0.0000 0.0000
vt 0.0029 0.0000
vt 0.0100 0.0000
vt 0.2400 0.0000
vt 0.2471 0.0000
vt 0.2500 0.0000
vt 0.0000 0.0029
vt 0.0029 0.0029
vt 0.0100 0.0029
vt 0.2400 0.0029
vt 0.2471 0.0029
vt 0.2500 0.0029
vt 0.0000 0.0100
vt 0.0029 0.0100
vt 0.0100 0.0100
vt 0.2400 0.0100
vt 0.2471 0.0100
vt 0.2500 0.0100
vt 0.0000 0.0120
vt 0.0029 0.0120
vt 0.0100 0.0120
vt 0.2400 0.0120
vt 0.2471 0.0120
vt 0.2500 0.0120
vt 0.0000 0.0191
vt 0.0029 0.0191
vt 0.0100 0.0191
vt 0.2400 0.0191
vt 0.2471 0.0191
vt 0.2500 0.0191
vt 0.0000 0.0220
vt 0.0029 0.0220
vt 0.0100 0.0220
vt 0.2400 0.0220
vt 0.2471 0.0220
vt 0.2500 0.0220
vt 0.0000 0.0000
vt 0.0029 0.0000
vt 0.0100 0.0000
vt 0.2400 0.0000
vt 0.2471 0.0000
vt 0.2500 0.0000
vt 0.0000 0.0029
vt 0.0029 0.0029
vt 0.0100 0.0029
vt 0.2400 0.0029
vt 0.2471 0.0029
vt 0.2500 0.0029
vt 0.0000 0.0100
vt 0.0029 0.0100
vt 0.0100 0.0100
vt 0.2400 0.0100
vt 0.2471 0.0100
vt 0.2500 0.0100
vt 0.0000 0.0120
vt 0.0029 0.0120
vt 0.0100 0.0120
vt 0.2400 0.0120
vt 0.2471 0.0120
vt 0.2500 0.0120
vt 0.0000 0.0191
vt 0.0029 0.0191
vt 0.0100 0.0191
vt 0.2400 0.0191
vt 0.2471 0.0191
vt 0.2500 0.0191
vt 0.0000 0.0220
vt 0.0029 0.0220
vt 0.0100 0.0220
vt 0.2400 0.0220
vt 0.2471 0.0220
vt 0.2500 0.0220
vt 0.0000 0.0000
vt 0.0029 0.0000
vt 0.0100 0.0000
vt 0.0900 0.0000
vt 0.0971 0.0000
vt 0.1000 0.0000
vt 0.0000 0.0029
vt 0.0029 0.0029
vt 0.0100 0.0029
vt 0.0900 0.0029
vt 0.0971 0.0029
vt 0.1000 0.0029
vt 0.0000 0.0100
vt 0.0029 0.0100
vt 0.0100 0.0100
vt 0.0900 0.0100
vt 0.0971 0.0100
vt 0.1000 0.0100
vt 0.0000 0.2400
vt 0.0029 0.2400
vt 0.0100 0.2400
vt 0.0900 0.2400
vt 0.0971 0.2400
vt 0.1000 0.2400
vt 0.0000 0.2471
vt 0.0029 0.2471
vt 0.0100 0.2471
vt 0.0900 0.2471
vt 0.0971 0.2471
vt 0.1000 0.2471
vt 0.0000 0.2500
vt 0.0029 0.2500
vt 0.0100 0.2500
vt 0.0900 0.2500
vt 0.0971 0.2500
vt 0.1000 0.2500
vt 0.0000 0.0000
vt 0.0029 0.0000
vt 0.0100 0.0000
vt 0.0900 0.0000
vt 0.0971 0.0000
vt 0.1000 0.0000
vt 0.0000 0.0029
vt 0.0029 0.0029
vt 0.0100 0.0029
vt 0.0900 0.0029
vt 0.0971 0.0029
vt 0.1000 0.0029
vt 0.0000 0.0100
vt 0.0029 0.0100
vt 0.0100 0.0100
vt 0.0900 0.0100
vt 0.0971 0.0100
vt 0.1000 0.0100
vt 0.0000 0.2400
vt 0.0029 0.2400
vt 0.0100 0.2400
vt 0.0900 0.2400
vt 0.0971 0.2400
vt 0.1000 0.2400
vt 0.0000 0.2471
vt 0.0029 0.2471
vt 0.0100 0.2471
vt 0.0900 0.2471
vt 0.0971 0.2471
vt 0.1000 0.2471
vt 0.0000 0.2500
vt 0.0029 0.2500
vt 0.0100 0.2500
vt 0.0900 0.2500
vt 0.0971 0.2500
vt 0.1000 0.2500
vt 0.0000 0.0000
vt 0.0029 0.0000
vt 0.0100 0.0000
vt 0.0900 0.0000
vt 0.0971 0.0000
vt 0.1000 0.0000
vt 0.0000 0.0029
vt 0.0029 0.0029
vt 0.0100 0.0029
vt 0.0900 0.0029
vt 0.0971 0.0029
vt 0.1000 0.0029
vt 0.0000 0.0100
vt 0.0029 0.0100
vt 0.0100 0.0100
vt 0.0900 0.0100
vt 0.0971 0.0100
vt 0.1000 0.0100
vt 0.0000 0.0120
vt 0.0029 0.0120
vt 0.0100 0.0120
vt 0.0900 0.0120
vt 0.0971 0.0120
vt 0.1000 0.0120
vt 0.0000 0.0191
vt 0.0029 0.0191
vt 0.0100 0.0191
vt 0.0900 0.0191
vt 0.0971 0.0191
vt 0.1000 0.0191
vt 0.0000 0.0220
vt 0.0029 0.0220
vt 0.0100 0.0220
vt 0.0900 0.0220
vt 0.0971 0.0220
vt 0.1000 0.0220
vt 0.0000 0.0000
vt 0.0029 0.0000
vt 0.0100 0.0000
vt 0.0900 0.0000
vt 0.0971 0.0000
vt 0.1000 0.0000
vt 0.0000 0.0029
vt 0.0029 0.0029
vt 0.0100 0.0029
vt 0.0900 0.0029
vt 0.0971 0.0029
vt 0.1000 0.0029
vt 0.0000 0.0100
vt 0.0029 0.0100
vt 0.0100 0.0100
vt 0.0900 0.0100
vt 0.0971 0.0100
vt 0.1000 0.0100
vt 0.0000 0.0120
vt 0.0029 0.0120
vt 0.0100 0.0120
vt 0.0900 0.0120
vt 0.0971 0.0120
vt 0.1000 0.0120
vt 0.0000 0.0191
vt 0.0029 0.0191
vt 0.0100 0.0191
vt 0.0900 0.0191
vt 0.0971 0.0191
vt 0.1000 0.0191
vt 0.0000 0.0220
vt 0.0029 0.0220
vt 0.0100 0.0220
vt 0.0900 0.0220
vt 0.0971 0.0220
vt 0.1000 0.0220
vt 0.0000 0.0000
vt 0.0050 0.0000
vt 0.0200 0.0000
vt 0.0250 0.0000
vt 0.0000 0.0050
vt 0.0050 0.0050
vt 0.0200 0.0050
vt 0.0250 0.0050
vt 0.0000 0.0070
vt 0.0050 0.0070
vt 0.0200 0.0070
vt 0.0250 0.0070
vt 0.0000 0.0120
vt 0.0050 0.0120
vt 0.0200 0.0120
vt 0.0250 0.0120
vt 0.0000 0.0000
vt 0.0050 0.0000
vt 0.0200 0.0000
vt 0.0250 0.0000
vt 0.0000 0.0050
vt 0.0050 0.0050
vt 0.0200 0.0050
vt 0.0250 0.0050
vt 0.0000 0.0070
vt 0.0050 0.0070
vt 0.0200 0.0070
vt 0.0250 0.0070
vt 0.0000 0.0120
vt 0.0050 0.0120
vt 0.0200 0.0120
vt 0.0250 0.0120
vt 0.0000 0.0000
vt 0.0050 0.0000
vt 0.0950 0.0000
vt 0.1000 0.0000
vt 0.0000 0.0050
vt 0.0050 0.0050
vt 0.0950 0.0050
vt 0.1000 0.0050
vt 0.0000 0.0200
vt 0.0050 0.0200
vt 0.0950 0.0200
vt 0.1000 0.0200
vt 0.0000 0.0250
vt 0.0050 0.0250
vt 0.0950 0.0250
vt 0.1000 0.0250
vt 0.0000 0.0000
vt 0.0050 0.0000
vt 0.0950 0.0000
vt 0.1000 0.0000
vt 0.0000 0.0050
vt 0.0050 0.0050
vt 0.0950 0.0050
vt 0.1000 0.0050
vt 0.0000 0.0200
vt 0.0050 0.0200
vt 0.0950 0.0200
vt 0.1000 0.0200
vt 0.0000 0.0250
vt 0.0050 0.0250
vt 0.0950 0.0250
vt 0.1000 0.0250
vt 0.0000 0.0000
vt 0.0050 0.0000
vt 0.0950 0.0000
vt 0.1000 0.0000
vt 0.0000 0.0050
vt 0.0050 0.0050
vt 0.0950 0.0050
vt 0.1000 0.0050
vt 0.0000 0.0070
vt 0.0050 0.0070
vt 0.0950 0.0070
vt 0.1000 0.0070
vt 0.0000 0.0120
vt 0.0050 0.0120
vt 0.0950 0.0120
vt 0.1000 0.0120
vt 0.0000 0.0000
vt 0.0050 0.0000
vt 0.0950 0.0000
vt 0.1000 0.0000
vt 0.0000 0.0050
vt 0.0050 0.0050
vt 0.0950 0.0050
vt 0.1000 0.0050
vt 0.0000 0.0070
vt 0.0050 0.0070
vt 0.0950 0.0070
vt 0.1000 0.0070
vt 0.0000 0.0120
vt 0.0050 0.0120
vt 0.0950 0.0120
vt 0.1000 0.0120
vt 0.0000 0.0000
vt 0.0029 0.0000
vt 0.0100 0.0000
vt 0.2400 0.0000
vt 0.2471 0.0000
vt 0.2500 0.0000
vt 0.0000 0.0029
vt 0.0029 0.0029
vt 0.0100 0.0029
vt 0.2400 0.0029
vt 0.2471 0.0029
vt 0.2500 0.0029
vt 0.0000 0.0100
vt 0.0029 0.0100
vt 0.0100 0.0100
vt 0.2400 0.0100
vt 0.2471 0.0100
vt 0.2500 0.0100
vt 0.0000 0.0120
vt 0.0029 0.0120
vt 0.0100 0.0120
vt 0.2400 0.0120
vt 0.2471 0.0120
vt 0.2500 0.0120
vt 0.0000 0.0191
vt 0.0029 0.0191
vt 0.0100 0.0191
vt 0.2400 0.0191
vt 0.2471 0.0191
vt 0.2500 0.0191
vt 0.0000 0.0220
vt 0.0029 0.0220
vt 0.0100 0.0220
vt 0.2400 0.0220
vt 0.2471 0.0220
vt 0.2500 0.0220
vt 0.0000 0.0000
vt 0.0029 0.0000
vt 0.0100 0.0000
vt 0.2400 0.0000
vt 0.2471 0.0000
vt 0.2500 0.0000
vt 0.0000 0.0029
vt 0.0029 0.0029
vt 0.0100 0.0029
vt 0.2400 0.0029
vt 0.2471 0.0029
vt 0.2500 0.0029
vt 0.0000 0.0100
vt 0.0029 0.0100
vt 0.0100 0.0100
vt 0.2400 0.0100
vt 0.2471 0.0100
vt 0.2500 0.0100
vt 0.0000 0.0120
vt 0.0029 0.0120
vt 0.0100 0.0120
vt 0.2400 0.0120
vt 0.2471 0.0120
vt 0.2500 0.0120
vt 0.0000 0.0191
vt 0.0029 0.0191
vt 0.0100 0.0191
vt 0.2400 0.0191
vt 0.2471 0.0191
vt 0.2500 0.0191
vt 0.0000 0.0220
vt 0.0029 0.0220
vt 0.0100 0.0220
vt 0.2400 0.0220
vt 0.2471 0.0220
vt 0.2500 0.0220
vt 0.0000 0.0000
vt 0.0029 0.0000
vt 0.0100 0.0000
vt 0.0900 0.0000
vt 0.0971 0.0000
vt 0.1000 0.0000
vt 0.0000 0.0029
vt 0.0029 0.0029
vt 0.0100 0.0029
vt 0.0900 0.0029
vt 0.0971 0.0029
vt 0.1000 0.0029
vt 0.0000 0.0100
vt 0.0029 0.0100
vt 0.0100 0.0100
vt 0.0900 0.0100
vt 0.0971 0.0100
vt 0.1000 0.0100
vt 0.0000 0.2400
vt 0.0029 0.2400
vt 0.0100 0.2400
vt 0.0900 0.2400
vt 0.0971 0.2400
vt 0.1000 0.2400
vt 0.0000 0.2471
vt 0.0029 0.2471
vt 0.0100 0.2471
vt 0.0900 0.2471
vt 0.0971 0.2471
vt 0.1000 0.2471
vt 0.0000 0.2500
vt 0.0029 0.2500
vt 0.0100 0.2500
vt 0.0900 0.2500
vt 0.0971 0.2500
vt 0.1000 0.2500
vt 0.0000 0.0000
vt 0.0029 0.0000
vt 0.0100 0.0000
vt 0.0900 0.0000
vt 0.0971 0.0000
vt 0.1000 0.0000
vt 0.0000 0.0029
vt 0.0029 0.0029
vt 0.0100 0.0029
vt 0.0900 0.0029
vt 0.0971 0.0029
vt 0.1000 0.0029
vt 0.0000 0.0100
vt 0.0029 0.0100
vt 0.0100 0.0100
vt 0.0900 0.0100
vt 0.0971 0.0100
vt 0.1000 0.0100
vt 0.0000 0.2400
vt 0.0029 0.2400
vt 0.0100 0.2400
vt 0.0900 0.2400
vt 0.0971 0.2400
vt 0.1000 0.2400
vt 0.0000 0.2471
vt 0.0029 0.2471
vt 0.0100 0.2471
vt 0.0900 0.2471
vt 0.0971 0.2471
vt 0.1000 0.2471
vt 0.0000 0.2500
vt 0.0029 0.2500
vt 0.0100 0.2500
vt 0.0900 0.2500
vt 0.0971 0.2500
vt 0.1000 0.2500
vt 0.0000 0.0000
vt 0.0029 0.0000
vt 0.0100 0.0000
vt 0.0900 0.0000
vt 0.0971 0.0000
vt 0.1000 0.0000
vt 0.0000 0.0029
vt 0.0029 0.0029
vt 0.0100 0.0029
vt 0.0900 0.0029
vt 0.0971 0.0029
vt 0.1000 0.0029
vt 0.0000 0.0100
vt 0.0029 0.0100
vt 0.0100 0.0100
vt 0.0900 0.0100
vt 0.0971 0.0100
vt 0.1000 0.0100
vt 0.0000 0.0120
vt 0.0029 0.0120
vt 0.0100 0.0120
vt 0.0900 0.0120
vt 0.0971 0.0120
vt 0.1000 0.0120
vt 0.0000 0.0191
vt 0.0029 0.0191
vt 0.0100 0.0191
vt 0.0900 0.0191
vt 0.0971 0.0191
vt 0.1000 0.0191
vt 0.0000 0.0220
vt 0.0029 0.0220
vt 0.0100 0.0220
vt 0.0900 0.0220
vt 0.0971 0.0220
vt 0.1000 0.0220
vt 0.0000 0.0000
vt 0.0029 0.0000
vt 0.0100 0.0000
vt 0.0900 0.0000
vt 0.0971 0.0000
vt 0.1000 0.0000
vt 0.0000 0.0029
vt 0.0029 0.0029
vt 0.0100 0.0029
vt 0.0900 0.0029
vt 0.0971 0.0029
vt 0.1000 0.0029
vt 0.0000 0.0100
vt 0.0029 0.0100
vt 0.0100 0.0100
vt 0.0900 0.0100
vt 0.0971 0.0100
vt 0.1000 0.0100
vt 0.0000 0.0120
vt 0.0029 0.0120
vt 0.0100 0.0120
vt 0.0900 0.0120
vt 0.0971 0.0120
vt 0.1000 0.0120
vt 0.0000 0.0191
vt 0.0029 0.0191
vt 0.0100 0.0191
vt 0.0900 0.0191
vt 0.0971 0.0191
vt 0.1000 0.0191
vt 0.0000 0.0220
vt 0.0029 0.0220
vt 0.0100 0.0220
vt 0.0900 0.0220
vt 0.0971 0.0220
vt 0.1000 0.0220
vt 0.0000 0.0000
vt 0.0050 0.0000
vt 0.0200 0.0000
vt 0.0250 0.0000
vt 0.0000 0.0050
vt 0.0050 0.0050
vt 0.0200 0.0050
vt 0.0250 0.0050
vt 0.0000 0.0070
vt 0.0050 0.0070
vt 0.0200 0.0070
vt 0.0250 0.0070
vt 0.0000 0.0120
vt 0.0050 0.0120
vt 0.0200 0.0120
vt 0.0250 0.0120
vt 0.0000 0.0000
vt 0.0050 0.0000
vt 0.0200 0.0000
vt 0.0250 0.0000
vt 0.0000 0.0050
vt 0.0050 0.0050
vt 0.0200 0.0050
vt 0.0250 0.0050
vt 0.0000 0.0070
vt 0.0050 0.0070
vt 0.0200 0.0070
vt 0.0250 0.0070
vt 0.0000 0.0120
vt 0.0050 0.0120
vt 0.0200 0.0120
vt 0.0250 0.0120
vt 0.0000 0.0000
vt 0.0050 0.0000
vt 0.0950 0.0000
vt 0.1000 0.0000
vt 0.0000 0.0050
vt 0.0050 0.0050
vt 0.0950 0.0050
vt 0.1000 0.0050
vt 0.0000 0.0200
vt 0.0050 0.0200
vt 0.0950 0.0200
vt 0.1000 0.0200
vt 0.0000 0.0250
vt 0.0050 0.0250
vt 0.0950 0.0250
vt 0.1000 0.0250
vt 0.0000 0.0000
vt 0.0050 0.0000
vt 0.0950 0.0000
vt 0.1000 0.0000
vt 0.0000 0.0050
vt 0.0050 0.0050
vt 0.0950 0.0050
vt 0.1000 0.0050
vt 0.0000 0.0200
vt 0.0050 0.0200
vt 0.0950 0.0200
vt 0.1000 0.0200
vt 0.0000 0.0250
vt 0.0050 0.0250
vt 0.0950 0.0250
vt 0.1000 0.0250
vt 0.0000 0.0000
vt 0.0050 0.0000
vt 0.0950 0.0000
vt 0.1000 0.0000
vt 0.0000 0.0050
vt 0.0050 0.0050
vt 0.0950 0.0050
vt 0.1000 0.0050
vt 0.0000 0.0070
vt 0.0050 0.0070
vt 0.0950 0.0070
vt 0.1000 0.0070
vt 0.0000 0.0120
vt 0.0050 0.0120
vt 0.0950 0.0120
vt 0.1000 0.0120
vt 0.0000 0.0000
vt 0.0050 0.0000
vt 0.0950 0.0000
vt 0.1000 0.0000
vt 0.0000 0.0050
vt 0.0050 0.0050
vt 0.0950 0.0050
vt 0.1000 0.0050
vt 0.0000 0.0070
vt 0.0050 0.0070
vt 0.0950 0.0070
vt 0.1000 0.0070
vt 0.0000 0.0120
vt 0.0050 0.0120
vt 0.0950 0.0120
vt 0.1000 0.0120
vn 0.577 -0.577 0.577
vn 0.632 -0.632 0.447
vn 0.707 -0.707 0.000
vn 0.707 -0.707 0.000
vn 0.632 -0.632 -0.447
vn 0.577 -0.577 -0.577
vn 0.632 -0.447 0.632
vn 0.707 -0.500 0.500
vn 0.816 -0.577 0.000
vn 0.816 -0.577 0.000
vn 0.707 -0.500 -0.500
vn 0.632 -0.447 -0.632
vn 0.707 0.000 0.707
vn 0.816 0.000 0.577
vn 1.000 0.000 0.000
vn 1.000 0.000 0.000
vn 0.816 0.000 -0.577
vn 0.707 0.000 -0.707
vn 0.707 0.000 0.707
vn 0.816 0.000 0.577
vn 1.000 0.000 0.000
vn 1.000 0.000 0.000
vn 0.816 0.000 -0.577
vn 0.707 0.000 -0.707
vn 0.632 0.447 0.632
vn 0.707 0.500 0.500
vn 0.816 0.577 0.000
vn 0.816 0.577 0.000
vn 0.707 0.500 -0.500
vn 0.632 0.447 -0.632
vn 0.577 0.577 0.577
vn 0.632 0.632 0.447
vn 0.707 0.707 0.000
vn 0.707 0.707 0.000
vn 0.632 0.632 -0.447
vn 0.577 0.577 -0.577
vn -0.577 -0.577 -0.577
vn -0.632 -0.632 -0.447
vn -0.707 -0.707 0.000
vn -0.707 -0.707 0.000
vn -0.632 -0.632 0.447
vn -0.577 -0.577 0.577
vn -0.632 -0.447 -0.632
vn -0.707 -0.500 -0.500
vn -0.816 -0.577 0.000
vn -0.816 -0.577 0.000
vn -0.707 -0.500 0.500
vn -0.632 -0.447 0.632
vn -0.707 0.000 -0.707
vn -0.816 0.000 -0.577
vn -1.000 0.000 0.000
vn -1.000 0.000 0.000
vn -0.816 0.000 0.577
vn -0.707 0.000 0.707
vn -0.707 0.000 -0.707
vn -0.816 0.000 -0.577
vn -1.000 0.000 0.000
vn -1.000 0.000 0.000
vn -0.816 0.000 0.577
vn -0.707 0.000 0.707
vn -0.632 0.447 -0.632
vn -0.707 0.500 -0.500
vn -0.816 0.577 0.000
vn -0.816 0.577 0.000
vn -0.707 0.500 0.500
vn -0.632 0.447 0.632
vn -0.577 0.577 -0.577
vn -0.632 0.632 -0.447
vn -0.707 0.707 0.000
vn -0.707 0.707 0.000
vn -0.632 0.632 0.447
vn -0.577 0.577 0.577
vn -0.577 0.577 0.577
vn -0.447 0.632 0.632
vn 0.000 0.707 0.707
vn 0.000 0.707 0.707
vn 0.447 0.632 0.632
vn 0.577 0.577 0.577
vn -0.632 0.632 0.447
vn -0.500 0.707 0.500
vn 0.000 0.816 0.577
vn 0.000 0.816 0.577
vn 0.500 0.707 0.500
vn 0.632 0.632 0.447
vn -0.707 0.707 0.000
vn -0.577 0.816 0.000
vn 0.000 1.000 0.000
vn 0.000 1.000 0.000
vn 0.577 0.816 0.000
vn 0.707 0.707 0.000
vn -0.707 0.707 0.000
vn -0.577 0.816 0.000
vn 0.000 1.000 0.000
vn 0.000 1.000 0.000
vn 0.577 0.816 0.000
vn 0.707 0.707 0.000
vn -0.632 0.632 -0.447
vn -0.500 0.707 -0.500
vn 0.000 0.816 -0.577
vn 0.000 0.816 -0.577
vn 0.500 0.707 -0.500
vn 0.632 0.632 -0.447
vn -0.577 0.577 -0.577
vn -0.447 0.632 -0.632
vn 0.000 0.707 -0.707
vn 0.000 0.707 -0.707
vn 0.447 0.632 -0.632
vn 0.577 0.577 -0.577
vn -0.577 -0.577 -0.577
vn -0.447 -0.632 -0.632
vn 0.000 -0.707 -0.707
vn 0.000 -0.707 -0.707
vn 0.447 -0.632 -0.632
vn 0.577 -0.577 -0.577
vn -0.632 -0.632 -0.447
vn -0.500 -0.707 -0.500
vn 0.000 -0.816 -0.577
vn 0.000 -0.816 -0.577
vn 0.500 -0.707 -0.500
vn 0.632 -0.632 -0.447
vn -0.707 -0.707 0.000
vn -0.577 -0.816 0.000
vn 0.000 -1.000 0.000
vn 0.000 -1.000 0.000
vn 0.577 -0.816 0.000
vn 0.707 -0.707 0.000
vn -0.707 -0.707 0.000
vn -0.577 -0.816 0.000
vn 0.000 -1.000 0.000
vn 0.000 -1.000 0.000
vn 0.577 -0.816 0.000
vn 0.707 -0.707 0.000
vn -0.632 -0.632 0.447
vn -0.500 -0.707 0.500
vn 0.000 -0.816 0.577
vn 0.000 -0.816 0.577
vn 0.500 -0.707 0.500
vn 0.632 -0.632 0.447
vn -0.577 -0.577 0.577
vn -0.447 -0.632 0.632
vn 0.000 -0.707 0.707
vn 0.000 -0.707 0.707
vn 0.447 -0.632 0.632
vn 0.577 -0.577 0.577
vn -0.577 -0.577 0.577
vn -0.447 -0.632 0.632
vn 0.000 -0.707 0.707
vn 0.000 -0.707 0.707
vn 0.447 -0.632 0.632
vn 0.577 -0.577 0.577
vn -0.632 -0.447 0.632
vn -0.500 -0.500 0.707
vn 0.000 -0.577 0.816
vn 0.000 -0.577 0.816
vn 0.500 -0.500 0.707
vn 0.632 -0.447 0.632
vn -0.707 0.000 0.707
vn -0.577 0.000 0.816
vn 0.000 0.000 1.000
vn 0.000 0.000 1.000
vn 0.577 0.000 0.816
vn 0.707 0.000 0.707
vn -0.707 0.000 0.707
vn -0.577 0.000 0.816
vn 0.000 0.000 1.000
vn 0.000 0.000 1.000
vn 0.577 0.000 0.816
vn 0.707 0.000 0.707
vn -0.632 0.447 0.632
vn -0.500 0.500 0.707
vn 0.000 0.577 0.816
vn 0.000 0.577 0.816
vn 0.500 0.500 0.707
vn 0.632 0.447 0.632
vn -0.577 0.577 0.577
vn -0.447 0.632 0.632
vn 0.000 0.707 0.707
vn 0.000 0.707 0.707
vn 0.447 0.632 0.632
vn 0.577 0.577 0.577
vn 0.577 -0.577 -0.577
vn 0.447 -0.632 -0.632
vn 0.000 -0.707 -0.707
vn 0.000 -0.707 -0.707
vn -0.447 -0.632 -0.632
vn -0.577 -0.577 -0.577
vn 0.632 -0.447 -0.632
vn 0.500 -0.500 -0.707
vn 0.000 -0.577 -0.816
vn 0.000 -0.577 -0.816
vn -0.500 -0.500 -0.707
vn -0.632 -0.447 -0.632
vn 0.707 0.000 -0.707
vn 0.577 0.000 -0.816
vn 0.000 0.000 -1.000
vn 0.000 0.000 -1.000
vn -0.577 0.000 -0.816
vn -0.707 0.000 -0.707
vn 0.707 0.000 -0.707
vn 0.577 0.000 -0.816
vn 0.000 0.000 -1.000
vn 0.000 0.000 -1.000
vn -0.577 0.000 -0.816
vn -0.707 0.000 -0.707
vn 0.632 0.447 -0.632
vn 0.500 0.500 -0.707
vn 0.000 0.577 -0.816
vn 0.000 0.577 -0.816
vn -0.500 0.500 -0.707
vn -0.632 0.447 -0.632
vn 0.577 0.577 -0.577
vn 0.447 0.632 -0.632
vn 0.000 0.707 -0.707
vn 0.000 0.707 -0.707
vn -0.447 0.632 -0.632
vn -0.577 0.577 -0.577
vn 0.577 -0.577 0.577
vn 0.707 -0.707 0.000
vn 0.707 -0.707 0.000
vn 0.577 -0.577 -0.577
vn 0.707 0.000 0.707
vn 1.000 0.000 0.000
vn 1.000 0.000 0.000
vn 0.707 0.000 -0.707
vn 0.707 0.000 0.707
vn 1.000 0.000 0.000
vn 1.000 0.000 0.000
vn 0.707 0.000 -0.707
vn 0.577 0.577 0.577
vn 0.707 0.707 0.000
vn 0.707 0.707 0.000
vn 0.577 0.577 -0.577
vn -0.577 -0.577 -0.577
vn -0.707 -0.707 0.000
vn -0.707 -0.707 0.000
vn -0.577 -0.577 0.577
vn -0.707 0.000 -0.707
vn -1.000 0.000 0.000
vn -1.000 0.000 0.000
vn -0.707 0.000 0.707
vn -0.707 0.000 -0.707
vn -1.000 0.000 0.000
vn -1.000 0.000 0.000
vn -0.707 0.000 0.707
vn -0.577 0.577 -0.577
vn -0.707 0.707 0.000
vn -0.707 0.707 0.000
vn -0.577 0.577 0.577
vn -0.577 0.577 0.577
vn 0.000 0.707 0.707
vn 0.000 0.707 0.707
vn 0.577 0.577 0.577
vn -0.707 0.707 0.000
vn 0.000 1.000 0.000
vn 0.000 1.000 0.000
vn 0.707 0.707 0.000
vn -0.707 0.707 0.000
vn 0.000 1.000 0.000
vn 0.000 1.000 0.000
vn 0.707 0.707 0.000
vn -0.577 0.577 -0.577
vn 0.000 0.707 -0.707
vn 0.000 0.707 -0.707
vn 0.577 0.577 -0.577
vn -0.577 -0.577 -0.577
vn 0.000 -0.707 -0.707
vn 0.000 -0.707 -0.707
vn 0.577 -0.577 -0.577
vn -0.707 -0.707 0.000
vn 0.000 -1.000 0.000
vn 0.000 -1.000 0.000
vn 0.707 -0.707 0.000
vn -0.707 -0.707 0.000
vn 0.000 -1.000 0.000
vn 0.000 -1.000 0.000
vn 0.707 -0.707 0.000
vn -0.577 -0.577 0.577
vn 0.000 -0.707 0.707
vn 0.000 -0.707 0.707
vn 0.577 -0.577 0.577
vn -0.577 -0.577 0.577
vn 0.000 -0.707 0.707
vn 0.000 -0.707 0.707
vn 0.577 -0.577 0.577
vn -0.707 0.000 0.707
vn 0.000 0.000 1.000
vn 0.000 0.000 1.000
vn 0.707 0.000 0.707
vn -0.707 0.000 0.707
vn 0.000 0.000 1.000
vn 0.000 0.000 1.000
vn 0.707 0.000 0.707
vn -0.577 0.577 0.577
vn 0.000 0.707 0.707
vn 0.000 0.707 0.707
vn 0.577 0.577 0.577
vn 0.577 -0.577 -0.577
vn 0.000 -0.707 -0.707
vn 0.000 -0.707 -0.707
vn -0.577 -0.577 -0.577
vn 0.707 0.000 -0.707
vn 0.000 0.000 -1.000
vn 0.000 0.000 -1.000
vn -0.707 0.000 -0.707
vn 0.707 0.000 -0.707
vn 0.000 0.000 -1.000
vn 0.000 0.000 -1.000
vn -0.707 0.000 -0.707
vn 0.577 0.577 -0.577
vn 0.000 0.707 -0.707
vn 0.000 0.707 -0.707
vn -0.577 0.577 -0.577
vn 0.577 -0.577 0.577
vn 0.632 -0.632 0.447
vn 0.707 -0.707 0.000
vn 0.707 -0.707 0.000
vn 0.632 -0.632 -0.447
vn 0.577 -0.577 -0.577
vn 0.632 -0.447 0.632
vn 0.707 -0.500 0.500
vn 0.816 -0.577 0.000
vn 0.816 -0.577 0.000
vn 0.707 -0.500 -0.500
vn 0.632 -0.447 -0.632
vn 0.707 0.000 0.707
vn 0.816 0.000 0.577
vn 1.000 0.000 0.000
vn 1.000 0.000 0.000
vn 0.816 0.000 -0.577
vn 0.707 0.000 -0.707
vn 0.707 0.000 0.707
vn 0.816 0.000 0.577
vn 1.000 0.000 0.000
vn 1.000 0.000 0.000
vn 0.816 0.000 -0.577
vn 0.707 0.000 -0.707
vn 0.632 0.447 0.632
vn 0.707 0.500 0.500
vn 0.816 0.577 0.000
vn 0.816 0.577 0.000
vn 0.707 0.500 -0.500
vn 0.632 0.447 -0.632
vn 0.577 0.577 0.577
vn 0.632 0.632 0.447
vn 0.707 0.707 0.000
vn 0.707 0.707 0.000
vn 0.632 0.632 -0.447
vn 0.577 0.577 -0.577
vn -0.577 -0.577 -0.577
vn -0.632 -0.632 -0.447
vn -0.707 -0.707 0.000
vn -0.707 -0.707 0.000
vn -0.632 -0.632 0.447
vn -0.577 -0.577 0.577
vn -0.632 -0.447 -0.632
vn -0.707 -0.500 -0.500
vn -0.816 -0.577 0.000
vn -0.816 -0.577 0.000
vn -0.707 -0.500 0.500
vn -0.632 -0.447 0.632
vn -0.707 0.000 -0.707
vn -0.816 0.000 -0.577
vn -1.000 0.000 0.000
vn -1.000 0.000 0.000
vn -0.816 0.000 0.577
vn -0.707 0.000 0.707
vn -0.707 0.000 -0.707
vn -0.816 0.000 -0.577
vn -1.000 0.000 0.000
vn -1.000 0.000 0.000
vn -0.816 0.000 0.577
vn -0.707 0.000 0.707
vn -0.632 0.447 -0.632
vn -0.707 0.500 -0.500
vn -0.816 0.577 0.000
vn -0.816 0.577 0.000
vn -0.707 0.500 0.500
vn -0.632 0.447 0.632
vn -0.577 0.577 -0.577
vn -0.632 0.632 -0.447
vn -0.707 0.707 0.000
vn -0.707 0.707 0.000
vn -0.632 0.632 0.447
vn -0.577 0.577 0.577
vn -0.577 0.577 0.577
vn -0.447 0.632 0.632
vn 0.000 0.707 0.707
vn 0.000 0.707 0.707
vn 0.447 0.632 0.632
vn 0.577 0.577 0.577
vn -0.632 0.632 0.447
vn -0.500 0.707 0.500
vn 0.000 0.816 0.577
vn 0.000 0.816 0.577
vn 0.500 0.707 0.500
vn 0.632 0.632 0.447
vn -0.707 0.707 0.000
vn -0.577 0.816 0.000
vn 0.000 1.000 0.000
vn 0.000 1.000 0.000
vn 0.577 0.816 0.000
vn 0.707 0.707 0.000
vn -0.707 0.707 0.000
vn -0.577 0.816 0.000
vn 0.000 1.000 0.000
vn 0.000 1.000 0.000
vn 0.577 0.816 0.000
vn 0.707 0.707 0.000
vn -0.632 0.632 -0.447
vn -0.500 0.707 -0.500
vn 0.000 0.816 -0.577
vn 0.000 0.816 -0.577
vn 0.500 0.707 -0.500
vn 0.632 0.632 -0.447
vn -0.577 0.577 -0.577
vn -0.447 0.632 -0.632
vn 0.000 0.707 -0.707
vn 0.000 0.707 -0.707
vn 0.447 0.632 -0.632
vn 0.577 0.577 -0.577
vn -0.577 -0.577 -0.577
vn -0.447 -0.632 -0.632
vn 0.000 -0.707 -0.707
vn 0.000 -0.707 -0.707
vn 0.447 -0.632 -0.632
vn 0.577 -0.577 -0.577
vn -0.632 -0.632 -0.447
vn -0.500 -0.707 -0.500
vn 0.000 -0.816 -0.577
vn 0.000 -0.816 -0.577
vn 0.500 -0.707 -0.500
vn 0.632 -0.632 -0.447
vn -0.707 -0.707 0.000
vn -0.577 -0.816 0.000
vn 0.000 -1.000 0.000
vn 0.000 -1.000 0.000
vn 0.577 -0.816 0.000
vn 0.707 -0.707 0.000
vn -0.707 -0.707 0.000
vn -0.577 -0.816 0.000
vn 0.000 -1.000 0.000
vn 0.000 -1.000 0.000
vn 0.577 -0.816 0.000
vn 0.707 -0.707 0.000
vn -0.632 -0.632 0.447
vn -0.500 -0.707 0.500
vn 0.000 -0.816 0.577
vn 0.000 -0.816 0.577
vn 0.500 -0.707 0.500
vn 0.632 -0.632 0.447
vn -0.577 -0.577 0.577
vn -0.447 -0.632 0.632
vn 0.000 -0.707 0.707
vn 0.000 -0.707 0.707
vn 0.447 -0.632 0.632
vn 0.577 -0.577 0.577
vn -0.577 -0.577 0.577
vn -0.447 -0.632 0.632
vn 0.000 -0.707 0.707
vn 0.000 -0.707 0.707
vn 0.447 -0.632 0.632
vn 0.577 -0.577 0.577
vn -0.632 -0.447 0.632
vn -0.500 -0.500 0.707
vn 0.000 -0.577 0.816
vn 0.000 -0.577 0.816
vn 0.500 -0.500 0.707
vn 0.632 -0.447 0.632
vn -0.707 0.000 0.707
vn -0.577 0.000 0.816
vn 0.000 0.000 1.000
vn 0.000 0.000 1.000
vn 0.577 0.000 0.816
vn 0.707 0.000 0.707
vn -0.707 0.000 0.707
vn -0.577 0.000 0.816
vn 0.000 0.000 1.000
vn 0.000 0.000 1.000
vn 0.577 0.000 0.816
vn 0.707 0.000 0.707
vn -0.632 0.447 0.632
vn -0.500 0.500 0.707
vn 0.000 0.577 0.816
vn 0.000 0.577 0.816
vn 0.500 0.500 0.707
vn 0.632 0.447 0.632
vn -0.577 0.577 0.577
vn -0.447 0.632 0.632
vn 0.000 0.707 0.707
vn 0.000 0.707 0.707
vn 0.447 0.632 0.632
vn 0.577 0.577 0.577
vn 0.577 -0.577 -0.577
vn 0.447 -0.632 -0.632
vn 0.000 -0.707 -0.707
vn 0.000 -0.707 -0.707
vn -0.447 -0.632 -0.632
vn -0.577 -0.577 -0.577
vn 0.632 -0.447 -0.632
vn 0.500 -0.500 -0.707
vn 0.000 -0.577 -0.816
vn 0.000 -0.577 -0.816
vn -0.500 -0.500 -0.707
vn -0.632 -0.447 -0.632
vn 0.707 0.000 -0.707
vn 0.577 0.000 -0.816
vn 0.000 0.000 -1.000
vn 0.000 0.000 -1.000
vn -0.577 0.000 -0.816
vn -0.707 0.000 -0.707
vn 0.707 0.000 -0.707
vn 0.577 0.000 -0.816
vn 0.000 0.000 -1.000
vn 0.000 0.000 -1.000
vn -0.577 0.000 -0.816
vn -0.707 0.000 -0.707
vn 0.632 0.447 -0.632
vn 0.500 0.500 -0.707
vn 0.000 0.577 -0.816
vn 0.000 0.577 -0.816
vn -0.500 0.500 -0.707
vn -0.632 0.447 -0.632
vn 0.577 0.577 -0.577
vn 0.447 0.632 -0.632
vn 0.000 0.707 -0.707
vn 0.000 0.707 -0.707
vn -0.447 0.632 -0.632
vn -0.577 0.577 -0.577
vn 0.577 -0.577 0.577
vn 0.707 -0.707 0.000
vn 0.707 -0.707 0.000
vn 0.577 -0.577 -0.577
vn 0.707 0.000 0.707
vn 1.000 0.000 0.000
vn 1.000 0.000 0.000
vn 0.707 0.000 -0.707
vn 0.707 0.000 0.707
vn 1.000 0.000 0.000
vn 1.000 0.000 0.000
vn 0.707 0.000 -0.707
vn 0.577 0.577 0.577
vn 0.707 0.707 0.000
vn 0.707 0.707 0.000
vn 0.577 0.577 -0.577
vn -0.577 -0.577 -0.577
vn -0.707 -0.707 0.000
vn -0.707 -0.707 0.000
vn -0.577 -0.577 0.577
vn -0.707 0.000 -0.707
vn -1.000 0.000 0.000
vn -1.000 0.000 0.000
vn -0.707 0.000 0.707
vn -0.707 0.000 -0.707
vn -1.000 0.000 0.000
vn -1.000 0.000 0.000
vn -0.707 0.000 0.707
vn -0.577 0.577 -0.577
vn -0.707 0.707 0.000
vn -0.707 0.707 0.000
vn -0.577 0.577 0.577
vn -0.577 0.577 0.577
vn 0.000 0.707 0.707
vn 0.000 0.707 0.707
vn 0.577 0.577 0.577
vn -0.707 0.707 0.000
vn 0.000 1.000 0.000
vn 0.000 1.000 0.000
vn 0.707 0.707 0.000
vn -0.707 0.707 0.000
vn 0.000 1.000 0.000
vn 0.000 1.000 0.000
vn 0.707 0.707 0.000
vn -0.577 0.577 -0.577
vn 0.000 0.707 -0.707
vn 0.000 0.707 -0.707
vn 0.577 0.577 -0.577
vn -0.577 -0.577 -0.577
vn 0.000 -0.707 -0.707
vn 0.000 -0.707 -0.707
vn 0.577 -0.577 -0.577
vn -0.707 -0.707 0.000
vn 0.000 -1.000 0.000
vn 0.000 -1.000 0.000
vn 0.707 -0.707 0.000
vn -0.707 -0.707 0.000
vn 0.000 -1.000 0.000
vn 0.000 -1.000 0.000
vn 0.707 -0.707 0.000
vn -0.577 -0.577 0.577
vn 0.000 -0.707 0.707
vn 0.000 -0.707 0.707
vn 0.577 -0.577 0.577
vn -0.577 -0.577 0.577
vn 0.000 -0.707 0.707
vn 0.000 -0.707 0.707
vn 0.577 -0.577 0.577
vn -0.707 0.000 0.707
vn 0.000 0.000 1.000
vn 0.000 0.000 1.000
vn 0.707 0.000 0.707
vn -0.707 0.000 0.707
vn 0.000 0.000 1.000
vn 0.000 0.000 1.000
vn 0.707 0.000 0.707
vn -0.577 0.577 0.577
vn 0.000 0.707 0.707
vn 0.000 0.707 0.707
vn 0.577 0.577 0.577
vn 0.577 -0.577 -0.577
vn 0.000 -0.707 -0.707
vn 0.000 -0.707 -0.707
vn -0.577 -0.577 -0.577
vn 0.707 0.000 -0.707
vn 0.000 0.000 -1.000
vn 0.000 0.000 -1.000
vn -0.707 0.000 -0.707
vn 0.707 0.000 -0.707
vn 0.000 0.000 -1.000
vn 0.000 0.000 -1.000
vn -0.707 0.000 -0.707
vn 0.577 0.577 -0.577
vn 0.000 0.707 -0.707
vn 0.000 0.707 -0.707
vn -0.577 0.577 -0.577
v -0.1000 0.0100 -0.4400
v -0.1000 0.0100 -0.4400
v -0.1000 0.0100 -0.4400
v -0.1000 0.0100 -0.4400
v -0.1000 0.0100 -0.4400
v -0.1000 0.0100 -0.4400
v -0.1000 0.0100 -0.4400
v -0.1000 0.0100 -0.4400
v -0.1000 0.0100 -0.4400
v -0.1000 0.0100 -0.4400
v -0.1000 0.0100 -0.4400
v -0.1000 0.0147 -0.3850
v -0.0868 0.0147 -0.3955
v -0.0786 0.0147 -0.4230
v -0.0786 0.0147 -0.4570
v -0.0868 0.0147 -0.4845
v -0.1000 0.0147 -0.4950
v -0.1132 0.0147 -0.4845
v -0.1214 0.0147 -0.4570
v -0.1214 0.0147 -0.4230
v -0.1132 0.0147 -0.3955
v -0.1000 0.0147 -0.3850
v -0.1000 0.0275 -0.3447
v -0.0771 0.0275 -0.3629
v -0.0629 0.0275 -0.4106
v -0.0629 0.0275 -0.4694
v -0.0771 0.0275 -0.5171
v -0.1000 0.0275 -0.5353
v -0.1229 0.0275 -0.5171
v -0.1371 0.0275 -0.4694
v -0.1371 0.0275 -0.4106
v -0.1229 0.0275 -0.3629
v -0.1000 0.0275 -0.3447
v -0.1000 0.0450 -0.3300
v -0.0735 0.0450 -0.3510
v -0.0572 0.0450 -0.4060
v -0.0572 0.0450 -0.4740
v -0.0735 0.0450 -0.5290
v -0.1000 0.0450 -0.5500
v -0.1265 0.0450 -0.5290
v -0.1428 0.0450 -0.4740
v -0.1428 0.0450 -0.4060
v -0.1265 0.0450 -0.3510
v -0.1000 0.0450 -0.3300
v -0.1000 0.0625 -0.3447
v -0.0771 0.0625 -0.3629
v -0.0629 0.0625 -0.4106
v -0.0629 0.0625 -0.4694
v -0.0771 0.0625 -0.5171
v -0.1000 0.0625 -0.5353
v -0.1229 0.0625 -0.5171
v -0.1371 0.0625 -0.4694
v -0.1371 0.0625 -0.4106
v -0.1229 0.0625 -0.3629
v -0.1000 0.0625 -0.3447
v -0.1000 0.0753 -0.3850
v -0.0868 0.0753 -0.3955
v -0.0786 0.0753 -0.4230
v -0.0786 0.0753 -0.4570
v -0.0868 0.0753 -0.4845
v -0.1000 0.0753 -0.4950
v -0.1132 0.0753 -0.4845
v -0.1214 0.0753 -0.4570
v -0.1214 0.0753 -0.4230
v -0.1132 0.0753 -0.3955
v -0.1000 0.0753 -0.3850
v -0.1000 0.0800 -0.4400
v -0.1000 0.0800 -0.4400
v -0.1000 0.0800 -0.4400
v -0.1000 0.0800 -0.4400
v -0.1000 0.0800 -0.4400
v -0.1000 0.0800 -0.4400
v -0.1000 0.0800 -0.4400
v -0.1000 0.0800 -0.4400
v -0.1000 0.0800 -0.4400
v -0.1000 0.0800 -0.4400
v -0.1000 0.0800 -0.4400
v -0.0620 0.0500 -0.3800
v -0.0731 0.0500 -0.4069
v -0.1000 0.0500 -0.4180
v -0.1269 0.0500 -0.4069
v -0.1380 0.0500 -0.3800
v -0.1269 0.0500 -0.3531
v -0.1000 0.0500 -0.3420
v -0.0731 0.0500 -0.3531
v -0.0620 0.0500 -0.3800
v -0.0620 0.1200 -0.3800
v -0.0731 0.1200 -0.4069
v -0.1000 0.1200 -0.4180
v -0.1269 0.1200 -0.4069
v -0.1380 0.1200 -0.3800
v -0.1269 0.1200 -0.3531
v -0.1000 0.1200 -0.3420
v -0.0731 0.1200 -0.3531
v -0.0620 0.1200 -0.3800
v -0.1000 0.0500 -0.3800
v -0.0620 0.0500 -0.3800
v -0.0731 0.0500 -0.4069
v -0.1000 0.0500 -0.4180
v -0.1269 0.0500 -0.4069
v -0.1380 0.0500 -0.3800
v -0.1269 0.0500 -0.3531
v -0.1000 0.0500 -0.3420
v -0.0731 0.0500 -0.3531
v -0.1000 0.1200 -0.3800
v -0.0620 0.1200 -0.3800
v -0.0731 0.1200 -0.4069
v -0.1000 0.1200 -0.4180
v -0.1269 0.1200 -0.4069
v -0.1380 0.1200 -0.3800
v -0.1269 0.1200 -0.3531
v -0.1000 0.1200 -0.3420
v -0.0731 0.1200 -0.3531
v 0.1000 0.0100 -0.4400
v 0.1000 0.0100 -0.4400
v 0.1000 0.0100 -0.4400
v 0.1000 0.0100 -0.4400
v 0.1000 0.0100 -0.4400
v 0.1000 0.0100 -0.4400
v 0.1000 0.0100 -0.4400
v 0.1000 0.0100 -0.4400
v 0.1000 0.0100 -0.4400
v 0.1000 0.0100 -0.4400
v 0.1000 0.0100 -0.4400
v 0.1000 0.0147 -0.3850
v 0.1132 0.0147 -0.3955
v 0.1214 0.0147 -0.4230
v 0.1214 0.0147 -0.4570
v 0.1132 0.0147 -0.4845
v 0.1000 0.0147 -0.4950
v 0.0868 0.0147 -0.4845
v 0.0786 0.0147 -0.4570
v 0.0786 0.0147 -0.4230
v 0.0868 0.0147 -0.3955
v 0.1000 0.0147 -0.3850
v 0.1000 0.0275 -0.3447
v 0.1229 0.0275 -0.3629
v 0.1371 0.0275 -0.4106
v 0.1371 0.0275 -0.4694
v 0.1229 0.0275 -0.5171
v 0.1000 0.0275 -0.5353
v 0.0771 0.0275 -0.5171
v 0.0629 0.0275 -0.4694
v 0.0629 0.0275 -0.4106
v 0.0771 0.0275 -0.3629
v 0.1000 0.0275 -0.3447
v 0.1000 0.0450 -0.3300
v 0.1265 0.0450 -0.3510
v 0.1428 0.0450 -0.4060
v 0.1428 0.0450 -0.4740
v 0.1265 0.0450 -0.5290
v 0.1000 0.0450 -0.5500
v 0.0735 0.0450 -0.5290
v 0.0572 0.0450 -0.4740
v 0.0572 0.0450 -0.4060
v 0.0735 0.0450 -0.3510
v 0.1000 0.0450 -0.3300
v 0.1000 0.0625 -0.3447
v 0.1229 0.0625 -0.3629
v 0.1371 0.0625 -0.4106
v 0.1371 0.0625 -0.4694
v 0.1229 0.0625 -0.5171
v 0.1000 0.0625 -0.5353
v 0.0771 0.0625 -0.5171
v 0.0629 0.0625 -0.4694
v 0.0629 0.0625 -0.4106
v 0.0771 0.0625 -0.3629
v 0.1000 0.0625 -0.3447
v 0.1000 0.0753 -0.3850
v 0.1132 0.0753 -0.3955
v 0.1214 0.0753 -0.4230
v 0.1214 0.0753 -0.4570
v 0.1132 0.0753 -0.4845
v 0.1000 0.0753 -0.4950
v 0.0868 0.0753 -0.4845
v 0.0786 0.0753 -0.4570
v 0.0786 0.0753 -0.4230
v 0.0868 0.0753 -0.3955
v 0.1000 0.0753 -0.3850
v 0.1000 0.0800 -0.4400
v 0.1000 0.0800 -0.4400
v 0.1000 0.0800 -0.4400
v 0.1000 0.0800 -0.4400
v 0.1000 0.0800 -0.4400
v 0.1000 0.0800 -0.4400
v 0.1000 0.0800 -0.4400
v 0.1000 0.0800 -0.4400
v 0.1000 0.0800 -0.4400
v 0.1000 0.0800 -0.4400
v 0.1000 0.0800 -0.4400
v 0.1380 0.0500 -0.3800
v 0.1269 0.0500 -0.4069
v 0.1000 0.0500 -0.4180
v 0.0731 0.0500 -0.4069
v 0.0620 0.0500 -0.3800
v 0.0731 0.0500 -0.3531
v 0.1000 0.0500 -0.3420
v 0.1269 0.0500 -0.3531
v 0.1380 0.0500 -0.3800
v 0.1380 0.1200 -0.3800
v 0.1269 0.1200 -0.4069
v 0.1000 0.1200 -0.4180
v 0.0731 0.1200 -0.4069
v 0.0620 0.1200 -0.3800
v 0.0731 0.1200 -0.3531
v 0.1000 0.1200 -0.3420
v 0.1269 0.1200 -0.3531
v 0.1380 0.1200 -0.3800
v 0.1000 0.0500 -0.3800
v 0.1380 0.0500 -0.3800
v 0.1269 0.0500 -0.4069
v 0.1000 0.0500 -0.4180
v 0.0731 0.0500 -0.4069
v 0.0620 0.0500 -0.3800
v 0.0731 0.0500 -0.3531
v 0.1000 0.0500 -0.3420
v 0.1269 0.0500 -0.3531
v 0.1000 0.1200 -0.3800
v 0.1380 0.1200 -0.3800
v 0.1269 0.1200 -0.4069
v 0.1000 0.1200 -0.4180
v 0.0731 0.1200 -0.4069
v 0.0620 0.1200 -0.3800
v 0.0731 0.1200 -0.3531
v 0.1000 0.1200 -0.3420
v 0.1269 0.1200 -0.3531
vt 0.0000 0.0000
vt 0.0338 0.0000
vt 0.0912 0.0000
vt 0.1591 0.0000
vt 0.2165 0.0000
vt 0.2503 0.0000
vt 0.2841 0.0000
vt 0.3415 0.0000
vt 0.4094 0.0000
vt 0.4668 0.0000
vt 0.5006 0.0000
vt 0.0000 0.0552
vt 0.0338 0.0552
vt 0.0912 0.0552
vt 0.1591 0.0552
vt 0.2165 0.0552
vt 0.2503 0.0552
vt 0.2841 0.0552
vt 0.3415 0.0552
vt 0.4094 0.0552
vt 0.4668 0.0552
vt 0.5006 0.0552
vt 0.0000 0.0975
vt 0.0338 0.0975
vt 0.0912 0.0975
vt 0.1591 0.0975
vt 0.2165 0.0975
vt 0.2503 0.0975
vt 0.2841 0.0975
vt 0.3415 0.0975
vt 0.4094 0.0975
vt 0.4668 0.0975
vt 0.5006 0.0975
vt 0.0000 0.1203
vt 0.0338 0.1203
vt 0.0912 0.1203
vt 0.1591 0.1203
vt 0.2165 0.1203
vt 0.2503 0.1203
vt 0.2841 0.1203
vt 0.3415 0.1203
vt 0.4094 0.1203
vt 0.4668 0.1203
vt 0.5006 0.1203
vt 0.0000 0.1432
vt 0.0338 0.1432
vt 0.0912 0.1432
vt 0.1591 0.1432
vt 0.2165 0.1432
vt 0.2503 0.1432
vt 0.2841 0.1432
vt 0.3415 0.1432
vt 0.4094 0.1432
vt 0.4668 0.1432
vt 0.5006 0.1432
vt 0.0000 0.1855
vt 0.0338 0.1855
vt 0.0912 0.1855
vt 0.1591 0.1855
vt 0.2165 0.1855
vt 0.2503 0.1855
vt 0.2841 0.1855
vt 0.3415 0.1855
vt 0.4094 0.1855
vt 0.4668 0.1855
vt 0.5006 0.1855
vt 0.0000 0.2407
vt 0.0338 0.2407
vt 0.0912 0.2407
vt 0.1591 0.2407
vt 0.2165 0.2407
vt 0.2503 0.2407
vt 0.2841 0.2407
vt 0.3415 0.2407
vt 0.4094 0.2407
vt 0.4668 0.2407
vt 0.5006 0.2407
vt 0.0000 0.0000
vt 0.0000 0.0298
vt 0.0000 0.0597
vt 0.0000 0.0895
vt 0.0000 0.1194
vt 0.0000 0.1492
vt 0.0000 0.1791
vt 0.0000 0.2089
vt 0.0000 0.2388
vt 0.0700 0.0000
vt 0.0700 0.0298
vt 0.0700 0.0597
vt 0.0700 0.0895
vt 0.0700 0.1194
vt 0.0700 0.1492
vt 0.0700 0.1791
vt 0.0700 0.2089
vt 0.0700 0.2388
vt 0.0000 0.0000
vt 0.0380 0.0000
vt 0.0269 0.0269
vt 0.0000 0.0380
vt -0.0269 0.0269
vt -0.0380 0.0000
vt -0.0269 -0.0269
vt -0.0000 -0.0380
vt 0.0269 -0.0269
vt 0.0000 0.0000
vt 0.0380 0.0000
vt 0.0269 0.0269
vt 0.0000 0.0380
vt -0.0269 0.0269
vt -0.0380 0.0000
vt -0.0269 -0.0269
vt -0.0000 -0.0380
vt 0.0269 -0.0269
vt 0.0000 0.0000
vt 0.0338 0.0000
vt 0.0912 0.0000
vt 0.1591 0.0000
vt 0.2165 0.0000
vt 0.2503 0.0000
vt 0.2841 0.0000
vt 0.3415 0.0000
vt 0.4094 0.0000
vt 0.4668 0.0000
vt 0.5006 0.0000
vt 0.0000 0.0552
vt 0.0338 0.0552
vt 0.0912 0.0552
vt 0.1591 0.0552
vt 0.2165 0.0552
vt 0.2503 0.0552
vt 0.2841 0.0552
vt 0.3415 0.0552
vt 0.4094 0.0552
vt 0.4668 0.0552
vt 0.5006 0.0552
vt 0.0000 0.0975
vt 0.0338 0.0975
vt 0.0912 0.0975
vt 0.1591 0.0975
vt 0.2165 0.0975
vt 0.2503 0.0975
vt 0.2841 0.0975
vt 0.3415 0.0975
vt 0.4094 0.0975
vt 0.4668 0.0975
vt 0.5006 0.0975
vt 0.0000 0.1203
vt 0.0338 0.1203
vt 0.0912 0.1203
vt 0.1591 0.1203
vt 0.2165 0.1203
vt 0.2503 0.1203
vt 0.2841 0.1203
vt 0.3415 0.1203
vt 0.4094 0.1203
vt 0.4668 0.1203
vt 0.5006 0.1203
vt 0.0000 0.1432
vt 0.0338 0.1432
vt 0.0912 0.1432
vt 0.1591 0.1432
vt 0.2165 0.1432
vt 0.2503 0.1432
vt 0.2841 0.1432
vt 0.3415 0.1432
vt 0.4094 0.1432
vt 0.4668 0.1432
vt 0.5006 0.1432
vt 0.0000 0.1855
vt 0.0338 0.1855
vt 0.0912 0.1855
vt 0.1591 0.1855
vt 0.2165 0.1855
vt 0.2503 0.1855
vt 0.2841 0.1855
vt 0.3415 0.1855
vt 0.4094 0.1855
vt 0.4668 0.1855
vt 0.5006 0.1855
vt 0.0000 0.2407
vt 0.0338 0.2407
vt 0.0912 0.2407
vt 0.1591 0.2407
vt 0.2165 0.2407
vt 0.2503 0.2407
vt 0.2841 0.2407
vt 0.3415 0.2407
vt 0.4094 0.2407
vt 0.4668 0.2407
vt 0.5006 0.2407
vt 0.0000 0.0000
vt 0.0000 0.0298
vt 0.0000 0.0597
vt 0.0000 0.0895
vt 0.0000 0.1194
vt 0.0000 0.1492
vt 0.0000 0.1791
vt 0.0000 0.2089
vt 0.0000 0.2388
vt 0.0700 0.0000
vt 0.0700 0.0298
vt 0.0700 0.0597
vt 0.0700 0.0895
vt 0.0700 0.1194
vt 0.0700 0.1492
vt 0.0700 0.1791
vt 0.0700 0.2089
vt 0.0700 0.2388
vt 0.0000 0.0000
vt 0.0380 0.0000
vt 0.0269 0.0269
vt 0.0000 0.0380
vt -0.0269 0.0269
vt -0.0380 0.0000
vt -0.0269 -0.0269
vt -0.0000 -0.0380
vt 0.0269 -0.0269
vt 0.0000 0.0000
vt 0.0380 0.0000
vt 0.0269 0.0269
vt 0.0000 0.0380
vt -0.0269 0.0269
vt -0.0380 0.0000
vt -0.0269 -0.0269
vt -0.0000 -0.0380
vt 0.0269 -0.0269
vn -0.000 -0.984 0.181
vn 0.253 -0.957 0.142
vn 0.392 -0.918 0.052
vn 0.392 -0.918 -0.052
vn 0.253 -0.957 -0.142
vn 0.000 -0.984 -0.181
vn -0.253 -0.957 -0.142
vn -0.392 -0.918 -0.052
vn -0.392 -0.918 0.052
vn -0.253 -0.957 0.142
vn -0.000 -0.984 0.181
vn -0.000 -0.984 0.181
vn 0.253 -0.957 0.142
vn 0.392 -0.918 0.052
vn 0.392 -0.918 -0.052
vn 0.253 -0.957 -0.142
vn 0.000 -0.984 -0.181
vn -0.253 -0.957 -0.142
vn -0.392 -0.918 -0.052
vn -0.392 -0.918 0.052
vn -0.253 -0.957 0.142
vn -0.000 -0.984 0.181
vn -0.000 -0.876 0.483
vn 0.586 -0.740 0.330
vn 0.784 -0.612 0.104
vn 0.784 -0.612 -0.104
vn 0.586 -0.740 -0.330
vn 0.000 -0.876 -0.483
vn -0.586 -0.740 -0.330
vn -0.784 -0.612 -0.104
vn -0.784 -0.612 0.104
vn -0.586 -0.740 0.330
vn -0.000 -0.876 0.483
vn -0.000 0.000 1.000
vn 0.871 -0.000 0.491
vn 0.991 -0.000 0.132
vn 0.991 -0.000 -0.132
vn 0.871 -0.000 -0.491
vn 0.000 -0.000 -1.000
vn -0.871 -0.000 -0.491
vn -0.991 -0.000 -0.132
vn -0.991 -0.000 0.132
vn -0.871 -0.000 0.491
vn -0.000 -0.000 1.000
vn -0.000 0.876 0.483
vn 0.586 0.740 0.330
vn 0.784 0.612 0.104
vn 0.784 0.612 -0.104
vn 0.586 0.740 -0.330
vn 0.000 0.876 -0.483
vn -0.586 0.740 -0.330
vn -0.784 0.612 -0.104
vn -0.784 0.612 0.104
vn -0.586 0.740 0.330
vn -0.000 0.876 0.483
vn -0.000 0.984 0.181
vn 0.253 0.957 0.142
vn 0.392 0.918 0.052
vn 0.392 0.918 -0.052
vn 0.253 0.957 -0.142
vn 0.000 0.984 -0.181
vn -0.253 0.957 -0.142
vn -0.392 0.918 -0.052
vn -0.392 0.918 0.052
vn -0.253 0.957 0.142
vn -0.000 0.984 0.181
vn -0.000 0.984 0.181
vn 0.253 0.957 0.142
vn 0.392 0.918 0.052
vn 0.392 0.918 -0.052
vn 0.253 0.957 -0.142
vn 0.000 0.984 -0.181
vn -0.253 0.957 -0.142
vn -0.392 0.918 -0.052
vn -0.392 0.918 0.052
vn -0.253 0.957 0.142
vn -0.000 0.984 0.181
vn 1.000 0.000 0.000
vn 0.707 0.000 -0.707
vn 0.000 0.000 -1.000
vn -0.707 0.000 -0.707
vn -1.000 0.000 -0.000
vn -0.707 0.000 0.707
vn -0.000 0.000 1.000
vn 0.707 -0.000 0.707
vn 1.000 -0.000 0.000
vn 1.000 0.000 0.000
vn 0.707 0.000 -0.707
vn 0.000 0.000 -1.000
vn -0.707 0.000 -0.707
vn -1.000 0.000 -0.000
vn -0.707 0.000 0.707
vn -0.000 0.000 1.000
vn 0.707 -0.000 0.707
vn 1.000 -0.000 0.000
vn -0.000 -1.000 -0.000
vn -0.000 -1.000 -0.000
vn -0.000 -1.000 -0.000
vn -0.000 -1.000 -0.000
vn -0.000 -1.000 -0.000
vn -0.000 -1.000 -0.000
vn -0.000 -1.000 -0.000
vn -0.000 -1.000 -0.000
vn -0.000 -1.000 -0.000
vn 0.000 1.000 0.000
vn 0.000 1.000 0.000
vn 0.000 1.000 0.000
vn 0.000 1.000 0.000
vn 0.000 1.000 0.000
vn 0.000 1.000 0.000
vn 0.000 1.000 0.000
vn 0.000 1.000 0.000
vn 0.000 1.000 0.000
vn -0.000 -0.984 0.181
vn 0.253 -0.957 0.142
vn 0.392 -0.918 0.052
vn 0.392 -0.918 -0.052
vn 0.253 -0.957 -0.142
vn 0.000 -0.984 -0.181
vn -0.253 -0.957 -0.142
vn -0.392 -0.918 -0.052
vn -0.392 -0.918 0.052
vn -0.253 -0.957 0.142
vn -0.000 -0.984 0.181
vn -0.000 -0.984 0.181
vn 0.253 -0.957 0.142
vn 0.392 -0.918 0.052
vn 0.392 -0.918 -0.052
vn 0.253 -0.957 -0.142
vn 0.000 -0.984 -0.181
vn -0.253 -0.957 -0.142
vn -0.392 -0.918 -0.052
vn -0.392 -0.918 0.052
vn -0.253 -0.957 0.142
vn -0.000 -0.984 0.181
vn -0.000 -0.876 0.483
vn 0.586 -0.740 0.330
vn 0.784 -0.612 0.104
vn 0.784 -0.612 -0.104
vn 0.586 -0.740 -0.330
vn 0.000 -0.876 -0.483
vn -0.586 -0.740 -0.330
vn -0.784 -0.612 -0.104
vn -0.784 -0.612 0.104
vn -0.586 -0.740 0.330
vn -0.000 -0.876 0.483
vn -0.000 0.000 1.000
vn 0.871 -0.000 0.491
vn 0.991 -0.000 0.132
vn 0.991 -0.000 -0.132
vn 0.871 -0.000 -0.491
vn 0.000 -0.000 -1.000
vn -0.871 -0.000 -0.491
vn -0.991 -0.000 -0.132
vn -0.991 -0.000 0.132
vn -0.871 -0.000 0.491
vn -0.000 -0.000 1.000
vn -0.000 0.876 0.483
vn 0.586 0.740 0.330
vn 0.784 0.612 0.104
vn 0.784 0.612 -0.104
vn 0.586 0.740 -0.330
vn 0.000 0.876 -0.483
vn -0.586 0.740 -0.330
vn -0.784 0.612 -0.104
vn -0.784 0.612 0.104
vn -0.586 0.740 0.330
vn -0.000 0.876 0.483
vn -0.000 0.984 0.181
vn 0.253 0.957 0.142
vn 0.392 0.918 0.052
vn 0.392 0.918 -0.052
vn 0.253 0.957 -0.142
vn 0.000 0.984 -0.181
vn -0.253 0.957 -0.142
vn -0.392 0.918 -0.052
vn -0.392 0.918 0.052
vn -0.253 0.957 0.142
vn -0.000 0.984 0.181
vn -0.000 0.984 0.181
vn 0.253 0.957 0.142
vn 0.392 0.918 0.052
vn 0.392 0.918 -0.052
vn 0.253 0.957 -0.142
vn 0.000 0.984 -0.181
vn -0.253 0.957 -0.142
vn -0.392 0.918 -0.052
vn -0.392 0.918 0.052
vn -0.253 0.957 0.142
vn -0.000 0.984 0.181
vn 1.000 0.000 0.000
vn 0.707 0.000 -0.707
vn 0.000 0.000 -1.000
vn -0.707 0.000 -0.707
vn -1.000 0.000 -0.000
vn -0.707 0.000 0.707
vn -0.000 0.000 1.000
vn 0.707 -0.000 0.707
vn 1.000 -0.000 0.000
vn 1.000 0.000 0.000
vn 0.707 0.000 -0.707
vn 0.000 0.000 -1.000
vn -0.707 0.000 -0.707
vn -1.000 0.000 -0.000
vn -0.707 0.000 0.707
vn -0.000 0.000 1.000
vn 0.707 -0.000 0.707
vn 1.000 -0.000 0.000
vn -0.000 -1.000 -0.000
vn -0.000 -1.000 -0.000
vn -0.000 -1.000 -0.000
vn -0.000 -1.000 -0.000
vn -0.000 -1.000 -0.000
vn -0.000 -1.000 -0.000
vn -0.000 -1.000 -0.000
vn -0.000 -1.000 -0.000
vn -0.000 -1.000 -0.000
vn 0.000 1.000 0.000
vn 0.000 1.000 0.000
vn 0.000 1.000 0.000
vn 0.000 1.000 0.000
vn 0.000 1.000 0.000
vn 0.000 1.000 0.000
vn 0.000 1.000 0.000
vn 0.000 1.000 0.000
vn 0.000 1.000 0.000
usemtl shoe
f 1/1/1 2/2/2 8/8/8
f 1/1/1 8/8/8 7/7/7
f 2/2/2 3/3/3 9/9/9
f 2/2/2 9/9/9 8/8/8
f 3/3/3 4/4/4 10/10/10
f 3/3/3 10/10/10 9/9/9
f 4/4/4 5/5/5 11/11/11
f 4/4/4 11/11/11 10/10/10
f 5/5/5 6/6/6 12/12/12
f 5/5/5 12/12/12 11/11/11
f 7/7/7 8/8/8 14/14/14
f 7/7/7 14/14/14 13/13/13
f 8/8/8 9/9/9 15/15/15
f 8/8/8 15/15/15 14/14/14
f 9/9/9 10/10/10 16/16/16
f 9/9/9 16/16/16 15/15/15
f 10/10/10 11/11/11 17/17/17
f 10/10/10 17/17/17 16/16/16
f 11/11/11 12/12/12 18/18/18
f 11/11/11 18/18/18 17/17/17
f 13/13/13 14/14/14 20/20/20
f 13/13/13 20/20/20 19/19/19
f 14/14/14 15/15/15 21/21/21
f 14/14/14 21/21/21 20/20/20
f 15/15/15 16/16/16 22/22/22
f 15/15/15 22/22/22 21/21/21
f 16/16/16 17/17/17 23/23/23
f 16/16/16 23/23/23 22/22/22
f 17/17/17 18/18/18 24/24/24
f 17/17/17 24/24/24 23/23/23
f 19/19/19 20/20/20 26/26/26
f 19/19/19 26/26/26 25/25/25
f 20/20/20 21/21/21 27/27/27
f 20/20/20 27/27/27 26/26/26
f 21/21/21 22/22/22 28/28/28
f 21/21/21 28/28/28 27/27/27
f 22/22/22 23/23/23 29/29/29
f 22/22/22 29/29/29 28/28/28
f 23/23/23 24/24/24 30/30/30
f 23/23/23 30/30/30 29/29/29
f 25/25/25 26/26/26 32/32/32
f 25/25/25 32/32/32 31/31/31
f 26/26/26 27/27/27 33/33/33
f 26/26/26 33/33/33 32/32/32
f 27/27/27 28/28/28 34/34/34
f 27/27/27 34/34/34 33/33/33
f 28/28/28 29/29/29 35/35/35
f 28/28/28 35/35/35 34/34/34
f 29/29/29 30/30/30 36/36/36
f 29/29/29 36/36/36 35/35/35
f 37/37/37 38/38/38 44/44/44
f 37/37/37 44/44/44 43/43/43
f 38/38/38 39/39/39 45/45/45
f 38/38/38 45/45/45 44/44/44
f 39/39/39 40/40/40 46/46/46
f 39/39/39 46/46/46 45/45/45
f 40/40/40 41/41/41 47/47/47
f 40/40/40 47/47/47 46/46/46
f 41/41/41 42/42/42 48/48/48
f 41/41/41 48/48/48 47/47/47
f 43/43/43 44/44/44 50/50/50
f 43/43/43 50/50/50 49/49/49
f 44/44/44 45/45/45 51/51/51
f 44/44/44 51/51/51 50/50/50
f 45/45/45 46/46/46 52/52/52
f 45/45/45 52/52/52 51/51/51
f 46/46/46 47/47/47 53/53/53
f 46/46/46 53/53/53 52/52/52
f 47/47/47 48/48/48 54/54/54
f 47/47/47 54/54/54 53/53/53
f 49/49/49 50/50/50 56/56/56
f 49/49/49 56/56/56 55/55/55
f 50/50/50 51/51/51 57/57/57
f 50/50/50 57/57/57 56/56/56
f 51/51/51 52/52/52 58/58/58
f 51/51/51 58/58/58 57/57/57
f 52/52/52 53/53/53 59/59/59
f 52/52/52 59/59/59 58/58/58
f 53/53/53 54/54/54 60/60/60
f 53/53/53 60/60/60 59/59/59
f 55/55/55 56/56/56 62/62/62
f 55/55/55 62/62/62 61/61/61
f 56/56/56 57/57/57 63/63/63
f 56/56/56 63/63/63 62/62/62
f 57/57/57 58/58/58 64/64/64
f 57/57/57 64/64/64 63/63/63
f 58/58/58 59/59/59 65/65/65
f 58/58/58 65/65/65 64/64/64
f 59/59/59 60/60/60 66/66/66
f 59/59/59 66/66/66 65/65/65
f 61/61/61 62/62/62 68/68/68
f 61/61/61 68/68/68 67/67/67
f 62/62/62 63/63/63 69/69/69
f 62/62/62 69/69/69 68/68/68
f 63/63/63 64/64/64 70/70/70
f 63/63/63 70/70/70 69/69/69
f 64/64/64 65/65/65 71/71/71
f 64/64/64 71/71/71 70/70/70
f 65/65/65 66/66/66 72/72/72
f 65/65/65 72/72/72 71/71/71
f 73/73/73 74/74/74 80/80/80
f 73/73/73 80/80/80 79/79/79
f 74/74/74 75/75/75 81/81/81
f 74/74/74 81/81/81 80/80/80
f 75/75/75 76/76/76 82/82/82
f 75/75/75 82/82/82 81/81/81
f 76/76/76 77/77/77 83/83/83
f 76/76/76 83/83/83 82/82/82
f 77/77/77 78/78/78 84/84/84
f 77/77/77 84/84/84 83/83/83
f 79/79/79 80/80/80 86/86/86
f 79/79/79 86/86/86 85/85/85
f 80/80/80 81/81/81 87/87/87
f 80/80/80 87/87/87 86/86/86
f 81/81/81 82/82/82 88/88/88
f 81/81/81 88/88/88 87/87/87
f 82/82/82 83/83/83 89/89/89
f 82/82/82 89/89/89 88/88/88
f 83/83/83 84/84/84 90/90/90
f 83/83/83 90/90/90 89/89/89
f 85/85/85 86/86/86 92/92/92
f 85/85/85 92/92/92 91/91/91
f 86/86/86 87/87/87 93/93/93
f 86/86/86 93/93/93 92/92/92
f 87/87/87 88/88/88 94/94/94
f 87/87/87 94/94/94 93/93/93
f 88/88/88 89/89/89 95/95/95
f 88/88/88 95/95/95 94/94/94
f 89/89/89 90/90/90 96/96/96
f 89/89/89 96/96/96 95/95/95
f 91/91/91 92/92/92 98/98/98
f 91/91/91 98/98/98 97/97/97
f 92/92/92 93/93/93 99/99/99
f 92/92/92 99/99/99 98/98/98
f 93/93/93 94/94/94 100/100/100
f 93/93/93 100/100/100 99/99/99
f 94/94/94 95/95/95 101/101/101
f 94/94/94 101/101/101 100/100/100
f 95/95/95 96/96/96 102/102/102
f 95/95/95 102/102/102 101/101/101
f 97/97/97 98/98/98 104/104/104
f 97/97/97 104/104/104 103/103/103
f 98/98/98 99/99/99 105/105/105
f 98/98/98 105/105/105 104/104/104
f 99/99/99 100/100/100 106/106/106
f 99/99/99 106/106/106 105/105/105
f 100/100/100 101/101/101 107/107/107
f 100/100/100 107/107/107 106/106/106
f 101/101/101 102/102/102 108/108/108
f 101/101/101 108/108/108 107/107/107
f 109/109/109 110/110/110 116/116/116
f 109/109/109 116/116/116 115/115/115
f 110/110/110 111/111/111 117/117/117
f 110/110/110 117/117/117 116/116/116
f 111/111/111 112/112/112 118/118/118
f 111/111/111 118/118/118 117/117/117
f 112/112/112 113/113/113 119/119/119
f 112/112/112 119/119/119 118/118/118
f 113/113/113 114/114/114 120/120/120
f 113/113/113 120/120/120 119/119/119
f 115/115/115 116/116/116 122/122/122
f 115/115/115 122/122/122 121/121/121
f 116/116/116 117/117/117 123/123/123
f 116/116/116 123/123/123 122/122/122
f 117/117/117 118/118/118 124/124/124
f 117/117/117 124/124/124 123/123/123
f 118/118/118 119/119/119 125/125/125
f 118/118/118 125/125/125 124/124/124
f 119/119/119 120/120/120 126/126/126
f 119/119/119 126/126/126 125/125/125
f 121/121/121 122/122/122 128/128/128
f 121/121/121 128/128/128 127/127/127
f 122/122/122 123/123/123 129/129/129
f 122/122/122 129/129/129 128/128/128
f 123/123/123 124/124/124 130/130/130
f 123/123/123 130/130/130 129/129/129
f 124/124/124 125/125/125 131/131/131
f 124/124/124 131/131/131 130/130/130
f 125/125/125 126/126/126 132/132/132
f 125/125/125 132/132/132 131/131/131
f 127/127/127 128/128/128 134/134/134
f 127/127/127 134/134/134 133/133/133
f 128/128/128 129/129/129 135/135/135
f 128/128/128 135/135/135 134/134/134
f 129/129/129 130/130/130 136/136/136
f 129/129/129 136/136/136 135/135/135
f 130/130/130 131/131/131 137/137/137
f 130/130/130 137/137/137 136/136/136
f 131/131/131 132/132/132 138/138/138
f 131/131/131 138/138/138 137/137/137
f 133/133/133 134/134/134 140/140/140
f 133/133/133 140/140/140 139/139/139
f 134/134/134 135/135/135 141/141/141
f 134/134/134 141/141/141 140/140/140
f 135/135/135 136/136/136 142/142/142
f 135/135/135 142/142/142 141/141/141
f 136/136/136 137/137/137 143/143/143
f 136/136/136 143/143/143 142/142/142
f 137/137/137 138/138/138 144/144/144
f 137/137/137 144/144/144 143/143/143
f 145/145/145 146/146/146 152/152/152
f 145/145/145 152/152/152 151/151/151
f 146/146/146 147/147/147 153/153/153
f 146/146/146 153/153/153 152/152/152
f 147/147/147 148/148/148 154/154/154
f 147/147/147 154/154/154 153/153/153
f 148/148/148 149/149/149 155/155/155
f 148/148/148 155/155/155 154/154/154
f 149/149/149 150/150/150 156/156/156
f 149/149/149 156/156/156 155/155/155
f 151/151/151 152/152/152 158/158/158
f 151/151/151 158/158/158 157/157/157
f 152/152/152 153/153/153 159/159/159
f 152/152/152 159/159/159 158/158/158
f 153/153/153 154/154/154 160/160/160
f 153/153/153 160/160/160 159/159/159
f 154/154/154 155/155/155 161/161/161
f 154/154/154 161/161/161 160/160/160
f 155/155/155 156/156/156 162/162/162
f 155/155/155 162/162/162 161/161/161
f 157/157/157 158/158/158 164/164/164
f 157/157/157 164/164/164 163/163/163
f 158/158/158 159/159/159 165/165/165
f 158/158/158 165/165/165 164/164/164
f 159/159/159 160/160/160 166/166/166
f 159/159/159 166/166/166 165/165/165
f 160/160/160 161/161/161 167/167/167
f 160/160/160 167/167/167 166/166/166
f 161/161/161 162/162/162 168/168/168
f 161/161/161 168/168/168 167/167/167
f 163/163/163 164/164/164 170/170/170
f 163/163/163 170/170/170 169/169/169
f 164/164/164 165/165/165 171/171/171
f 164/164/164 171/171/171 170/170/170
f 165/165/165 166/166/166 172/172/172
f 165/165/165 172/172/172 171/171/171
f 166/166/166 167/167/167 173/173/173
f 166/166/166 173/173/173 172/172/172
f 167/167/167 168/168/168 174/174/174
f 167/167/167 174/174/174 173/173/173
f 169/169/169 170/170/170 176/176/176
f 169/169/169 176/176/176 175/175/175
f 170/170/170 171/171/171 177/177/177
f 170/170/170 177/177/177 176/176/176
f 171/171/171 172/172/172 178/178/178
f 171/171/171 178/178/178 177/177/177
f 172/172/172 173/173/173 179/179/179
f 172/172/172 179/179/179 178/178/178
f 173/173/173 174/174/174 180/180/180
f 173/173/173 180/180/180 179/179/179
f 181/181/181 182/182/182 188/188/188
f 181/181/181 188/188/188 187/187/187
f 182/182/182 183/183/183 189/189/189
f 182/182/182 189/189/189 188/188/188
f 183/183/183 184/184/184 190/190/190
f 183/183/183 190/190/190 189/189/189
f 184/184/184 185/185/185 191/191/191
f 184/184/184 191/191/191 190/190/190
f 185/185/185 186/186/186 192/192/192
f 185/185/185 192/192/192 191/191/191
f 187/187/187 188/188/188 194/194/194
f 187/187/187 194/194/194 193/193/193
f 188/188/188 189/189/189 195/195/195
f 188/188/188 195/195/195 194/194/194
f 189/189/189 190/190/190 196/196/196
f 189/189/189 196/196/196 195/195/195
f 190/190/190 191/191/191 197/197/197
f 190/190/190 197/197/197 196/196/196
f 191/191/191 192/192/192 198/198/198
f 191/191/191 198/198/198 197/197/197
f 193/193/193 194/194/194 200/200/200
f 193/193/193 200/200/200 199/199/199
f 194/194/194 195/195/195 201/201/201
f 194/194/194 201/201/201 200/200/200
f 195/195/195 196/196/196 202/202/202
f 195/195/195 202/202/202 201/201/201
f 196/196/196 197/197/197 203/203/203
f 196/196/196 203/203/203 202/202/202
f 197/197/197 198/198/198 204/204/204
f 197/197/197 204/204/204 203/203/203
f 199/199/199 200/200/200 206/206/206
f 199/199/199 206/206/206 205/205/205
f 200/200/200 201/201/201 207/207/207
f 200/200/200 207/207/207 206/206/206
f 201/201/201 202/202/202 208/208/208
f 201/201/201 208/208/208 207/207/207
f 202/202/202 203/203/203 209/209/209
f 202/202/202 209/209/209 208/208/208
f 203/203/203 204/204/204 210/210/210
f 203/203/203 210/210/210 209/209/209
f 205/205/205 206/206/206 212/212/212
f 205/205/205 212/212/212 211/211/211
f 206/206/206 207/207/207 213/213/213
f 206/206/206 213/213/213 212/212/212
f 207/207/207 208/208/208 214/214/214
f 207/207/207 214/214/214 213/213/213
f 208/208/208 209/209/209 215/215/215
f 208/208/208 215/215/215 214/214/214
f 209/209/209 210/210/210 216/216/216
f 209/209/209 216/216/216 215/215/215
f 217/217/217 218/218/218 222/222/222
f 217/217/217 222/222/222 221/221/221
f 218/218/218 219/219/219 223/223/223
f 218/218/218 223/223/223 222/222/222
f 219/219/219 220/220/220 224/224/224
f 219/219/219 224/224/224 223/223/223
f 221/221/221 222/222/222 226/226/226
f 221/221/221 226/226/226 225/225/225
f 222/222/222 223/223/223 227/227/227
f 222/222/222 227/227/227 226/226/226
f 223/223/223 224/224/224 228/228/228
f 223/223/223 228/228/228 227/227/227
f 225/225/225 226/226/226 230/230/230
f 225/225/225 230/230/230 229/229/229
f 226/226/226 227/227/227 231/231/231
f 226/226/226 231/231/231 230/230/230
f 227/227/227 228/228/228 232/232/232
f 227/227/227 232/232/232 231/231/231
f 233/233/233 234/234/234 238/238/238
f 233/233/233 238/238/238 237/237/237
f 234/234/234 235/235/235 239/239/239
f 234/234/234 239/239/239 238/238/238
f 235/235/235 236/236/236 240/240/240
f 235/235/235 240/240/240 239/239/239
f 237/237/237 238/238/238 242/242/242
f 237/237/237 242/242/242 241/241/241
f 238/238/238 239/239/239 243/243/243
f 238/238/238 243/243/243 242/242/242
f 239/239/239 240/240/240 244/244/244
f 239/239/239 244/244/244 243/243/243
f 241/241/241 242/242/242 246/246/246
f 241/241/241 246/246/246 245/245/245
f 242/242/242 243/243/243 247/247/247
f 242/242/242 247/247/247 246/246/246
f 243/243/243 244/244/244 248/248/248
f 243/243/243 248/248/248 247/247/247
f 249/249/249 250/250/250 254/254/254
f 249/249/249 254/254/254 253/253/253
f 250/250/250 251/251/251 255/255/255
f 250/250/250 255/255/255 254/254/254
f 251/251/251 252/252/252 256/256/256
f 251/251/251 256/256/256 255/255/255
f 253/253/253 254/254/254 258/258/258
f 253/253/253 258/258/258 257/257/257
f 254/254/254 255/255/255 259/259/259
f 254/254/254 259/259/259 258/258/258
f 255/255/255 256/256/256 260/260/260
f 255/255/255 260/260/260 259/259/259
f 257/257/257 258/258/258 262/262/262
f 257/257/257 262/262/262 261/261/261
f 258/258/258 259/259/259 263/263/263
f 258/258/258 263/263/263 262/262/262
f 259/259/259 260/260/260 264/264/264
f 259/259/259 264/264/264 263/263/263
f 265/265/265 266/266/266 270/270/270
f 265/265/265 270/270/270 269/269/269
f 266/266/266 267/267/267 271/271/271
f 266/266/266 271/271/271 270/270/270
f 267/267/267 268/268/268 272/272/272
f 267/267/267 272/272/272 271/271/271
f 269/269/269 270/270/270 274/274/274
f 269/269/269 274/274/274 273/273/273
f 270/270/270 271/271/271 275/275/275
f 270/270/270 275/275/275 274/274/274
f 271/271/271 272/272/272 276/276/276
f 271/271/271 276/276/276 275/275/275
f 273/273/273 274/274/274 278/278/278
f 273/273/273 278/278/278 277/277/277
f 274/274/274 275/275/275 279/279/279
f 274/274/274 279/279/279 278/278/278
f 275/275/275 276/276/276 280/280/280
f 275/275/275 280/280/280 279/279/279
f 281/281/281 282/282/282 286/286/286
f 281/281/281 286/286/286 285/285/285
f 282/282/282 283/283/283 287/287/287
f 282/282/282 287/287/287 286/286/286
f 283/283/283 284/284/284 288/288/288
f 283/283/283 288/288/288 287/287/287
f 285/285/285 286/286/286 290/290/290
f 285/285/285 290/290/290 289/289/289
f 286/286/286 287/287/287 291/291/291
f 286/286/286 291/291/291 290/290/290
f 287/287/287 288/288/288 292/292/292
f 287/287/287 292/292/292 291/291/291
f 289/289/289 290/290/290 294/294/294
f 289/289/289 294/294/294 293/293/293
f 290/290/290 291/291/291 295/295/295
f 290/290/290 295/295/295 294/294/294
f 291/291/291 292/292/292 296/296/296
f 291/291/291 296/296/296 295/295/295
f 297/297/297 298/298/298 302/302/302
f 297/297/297 302/302/302 301/301/301
f 298/298/298 299/299/299 303/303/303
f 298/298/298 303/303/303 302/302/302
f 299/299/299 300/300/300 304/304/304
f 299/299/299 304/304/304 303/303/303
f 301/301/301 302/302/302 306/306/306
f 301/301/301 306/306/306 305/305/305
f 302/302/302 303/303/303 307/307/307
f 302/302/302 307/307/307 306/306/306
f 303/303/303 304/304/304 308/308/308
f 303/303/303 308/308/308 307/307/307
f 305/305/305 306/306/306 310/310/310
f 305/305/305 310/310/310 309/309/309
f 306/306/306 307/307/307 311/311/311
f 306/306/306 311/311/311 310/310/310
f 307/307/307 308/308/308 312/312/312
f 307/307/307 312/312/312 311/311/311
f 313/313/313 314/314/314 320/320/320
f 313/313/313 320/320/320 319/319/319
f 314/314/314 315/315/315 321/321/321
f 314/314/314 321/321/321 320/320/320
f 315/315/315 316/316/316 322/322/322
f 315/315/315 322/322/322 321/321/321
f 316/316/316 317/317/317 323/323/323
f 316/316/316 323/323/323 322/322/322
f 317/317/317 318/318/318 324/324/324
f 317/317/317 324/324/324 323/323/323
f 319/319/319 320/320/320 326/326/326
f 319/319/319 326/326/326 325/325/325
f 320/320/320 321/321/321 327/327/327
f 320/320/320 327/327/327 326/326/326
f 321/321/321 322/322/322 328/328/328
f 321/321/321 328/328/328 327/327/327
f 322/322/322 323/323/323 329/329/329
f 322/322/322 329/329/329 328/328/328
f 323/323/323 324/324/324 330/330/330
f 323/323/323 330/330/330 329/329/329
f 325/325/325 326/326/326 332/332/332
f 325/325/325 332/332/332 331/331/331
f 326/326/326 327/327/327 333/333/333
f 326/326/326 333/333/333 332/332/332
f 327/327/327 328/328/328 334/334/334
f 327/327/327 334/334/334 333/333/333
f 328/328/328 329/329/329 335/335/335
f 328/328/328 335/335/335 334/334/334
f 329/329/329 330/330/330 336/336/336
f 329/329/329 336/336/336 335/335/335
f 331/331/331 332/332/332 338/338/338
f 331/331/331 338/338/338 337/337/337
f 332/332/332 333/333/333 339/339/339
f 332/332/332 339/339/339 338/338/338
f 333/333/333 334/334/334 340/340/340
f 333/333/333 340/340/340 339/339/339
f 334/334/334 335/335/335 341/341/341
f 334/334/334 341/341/341 340/340/340
f 335/335/335 336/336/336 342/342/342
f 335/335/335 342/342/342 341/341/341
f 337/337/337 338/338/338 344/344/344
f 337/337/337 344/344/344 343/343/343
f 338/338/338 339/339/339 345/345/345
f 338/338/338 345/345/345 344/344/344
f 339/339/339 340/340/340 346/346/346
f 339/339/339 346/346/346 345/345/345
f 340/340/340 341/341/341 347/347/347
f 340/340/340 347/347/347 346/346/346
f 341/341/341 342/342/342 348/348/348
f 341/341/341 348/348/348 347/347/347
f 349/349/349 350/350/350 356/356/356
f 349/349/349 356/356/356 355/355/355
f 350/350/350 351/351/351 357/357/357
f 350/350/350 357/357/357 356/356/356
f 351/351/351 352/352/352 358/358/358
f 351/351/351 358/358/358 357/357/357
f 352/352/352 353/353/353 359/359/359
f 352/352/352 359/359/359 358/358/358
f 353/353/353 354/354/354 360/360/360
f 353/353/353 360/360/360 359/359/359
f 355/355/355 356/356/356 362/362/362
f 355/355/355 362/362/362 361/361/361
f 356/356/356 357/357/357 363/363/363
f 356/356/356 363/363/363 362/362/362
f 357/357/357 358/358/358 364/364/364
f 357/357/357 364/364/364 363/363/363
f 358/358/358 359/359/359 365/365/365
f 358/358/358 365/365/365 364/364/364
f 359/359/359 360/360/360 366/366/366
f 359/359/359 366/366/366 365/365/365
f 361/361/361 362/362/362 368/368/368
f 361/361/361 368/368/368 367/367/367
f 362/362/362 363/363/363 369/369/369
f 362/362/362 369/369/369 368/368/368
f 363/363/363 364/364/364 370/370/370
f 363/363/363 370/370/370 369/369/369
f 364/364/364 365/365/365 371/371/371
f 364/364/364 371/371/371 370/370/370
f 365/365/365 366/366/366 372/372/372
f 365/365/365 372/372/372 371/371/371
f 367/367/367 368/368/368 374/374/374
f 367/367/367 374/374/374 373/373/373
f 368/368/368 369/369/369 375/375/375
f 368/368/368 375/375/375 374/374/374
f 369/369/369 370/370/370 376/376/376
f 369/369/369 376/376/376 375/375/375
f 370/370/370 371/371/371 377/377/377
f 370/370/370 377/377/377 376/376/376
f 371/371/371 372/372/372 378/378/378
f 371/371/371 378/378/378 377/377/377
f 373/373/373 374/374/374 380/380/380
f 373/373/373 380/380/380 379/379/379
f 374/374/374 375/375/375 381/381/381
f 374/374/374 381/381/381 380/380/380
f 375/375/375 376/376/376 382/382/382
f 375/375/375 382/382/382 381/381/381
f 376/376/376 377/377/377 383/383/383
f 376/376/376 383/383/383 382/382/382
f 377/377/377 378/378/378 384/384/384
f 377/377/377 384/384/384 383/383/383
f 385/385/385 386/386/386 392/392/392
f 385/385/385 392/392/392 391/391/391
f 386/386/386 387/387/387 393/393/393
f 386/386/386 393/393/393 392/392/392
f 387/387/387 388/388/388 394/394/394
f 387/387/387 394/394/394 393/393/393
f 388/388/388 389/389/389 395/395/395
f 388/388/388 395/395/395 394/394/394
f 389/389/389 390/390/390 396/396/396
f 389/389/389 396/396/396 395/395/395
f 391/391/391 392/392/392 398/398/398
f 391/391/391 398/398/398 397/397/397
f 392/392/392 393/393/393 399/399/399
f 392/392/392 399/399/399 398/398/398
f 393/393/393 394/394/394 400/400/400
f 393/393/393 400/400/400 399/399/399
f 394/394/394 395/395/395 401/401/401
f 394/394/394 401/401/401 400/400/400
f 395/395/395 396/396/396 402/402/402
f 395/395/395 402/402/402 401/401/401
f 397/397/397 398/398/398 404/404/404
f 397/397/397 404/404/404 403/403/403
f 398/398/398 399/399/399 405/405/405
f 398/398/398 405/405/405 404/404/404
f 399/399/399 400/400/400 406/406/406
f 399/399/399 406/406/406 405/405/405
f 400/400/400 401/401/401 407/407/407
f 400/400/400 407/407/407 406/406/406
f 401/401/401 402/402/402 408/408/408
f 401/401/401 408/408/408 407/407/407
f 403/403/403 404/404/404 410/410/410
f 403/403/403 410/410/410 409/409/409
f 404/404/404 405/405/405 411/411/411
f 404/404/404 411/411/411 410/410/410
f 405/405/405 406/406/406 412/412/412
f 405/405/405 412/412/412 411/411/411
f 406/406/406 407/407/407 413/413/413
f 406/406/406 413/413/413 412/412/412
f 407/407/407 408/408/408 414/414/414
f 407/407/407 414/414/414 413/413/413
f 409/409/409 410/410/410 416/416/416
f 409/409/409 416/416/416 415/415/415
f 410/410/410 411/411/411 417/417/417
f 410/410/410 417/417/417 416/416/416
f 411/411/411 412/412/412 418/418/418
f 411/411/411 418/418/418 417/417/417
f 412/412/412 413/413/413 419/419/419
f 412/412/412 419/419/419 418/418/418
f 413/413/413 414/414/414 420/420/420
f 413/413/413 420/420/420 419/419/419
f 421/421/421 422/422/422 428/428/428
f 421/421/421 428/428/428 427/427/427
f 422/422/422 423/423/423 429/429/429
f 422/422/422 429/429/429 428/428/428
f 423/423/423 424/424/424 430/430/430
f 423/423/423 430/430/430 429/429/429
f 424/424/424 425/425/425 431/431/431
f 424/424/424 431/431/431 430/430/430
f 425/425/425 426/426/426 432/432/432
f 425/425/425 432/432/432 431/431/431
f 427/427/427 428/428/428 434/434/434
f 427/427/427 434/434/434 433/433/433
f 428/428/428 429/429/429 435/435/435
f 428/428/428 435/435/435 434/434/434
f 429/429/429 430/430/430 436/436/436
f 429/429/429 436/436/436 435/435/435
f 430/430/430 431/431/431 437/437/437
f 430/430/430 437/437/437 436/436/436
f 431/431/431 432/432/432 438/438/438
f 431/431/431 438/438/438 437/437/437
f 433/433/433 434/434/434 440/440/440
f 433/433/433 440/440/440 439/439/439
f 434/434/434 435/435/435 441/441/441
f 434/434/434 441/441/441 440/440/440
f 435/435/435 436/436/436 442/442/442
f 435/435/435 442/442/442 441/441/441
f 436/436/436 437/437/437 443/443/443
f 436/436/436 443/443/443 442/442/442
f 437/437/437 438/438/438 444/444/444
f 437/437/437 444/444/444 443/443/443
f 439/439/439 440/440/440 446/446/446
f 439/439/439 446/446/446 445/445/445
f 440/440/440 441/441/441 447/447/447
f 440/440/440 447/447/447 446/446/446
f 441/441/441 442/442/442 448/448/448
f 441/441/441 448/448/448 447/447/447
f 442/442/442 443/443/443 449/449/449
f 442/442/442 449/449/449 448/448/448
f 443/443/443 444/444/444 450/450/450
f 443/443/443 450/450/450 449/449/449
f 445/445/445 446/446/446 452/452/452
f 445/445/445 452/452/452 451/451/451
f 446/446/446 447/447/447 453/453/453
f 446/446/446 453/453/453 452/452/452
f 447/447/447 448/448/448 454/454/454
f 447/447/447 454/454/454 453/453/453
f 448/448/448 449/449/449 455/455/455
f 448/448/448 455/455/455 454/454/454
f 449/449/449 450/450/450 456/456/456
f 449/449/449 456/456/456 455/455/455
f 457/457/457 458/458/458 464/464/464
f 457/457/457 464/464/464 463/463/463
f 458/458/458 459/459/459 465/465/465
f 458/458/458 465/465/465 464/464/464
f 459/459/459 460/460/460 466/466/466
f 459/459/459 466/466/466 465/465/465
f 460/460/460 461/461/461 467/467/467
f 460/460/460 467/467/467 466/466/466
f 461/461/461 462/462/462 468/468/468
f 461/461/461 468/468/468 467/467/467
f 463/463/463 464/464/464 470/470/470
f 463/463/463 470/470/470 469/469/469
f 464/464/464 465/465/465 471/471/471
f 464/464/464 471/471/471 470/470/470
f 465/465/465 466/466/466 472/472/472
f 465/465/465 472/472/472 471/471/471
f 466/466/466 467/467/467 473/473/473
f 466/466/466 473/473/473 472/472/472
f 467/467/467 468/468/468 474/474/474
f 467/467/467 474/474/474 473/473/473
f 469/469/469 470/470/470 476/476/476
f 469/469/469 476/476/476 475/475/475
f 470/470/470 471/471/471 477/477/477
f 470/470/470 477/477/477 476/476/476
f 471/471/471 472/472/472 478/478/478
f 471/471/471 478/478/478 477/477/477
f 472/472/472 473/473/473 479/479/479
f 472/472/472 479/479/479 478/478/478
f 473/473/473 474/474/474 480/480/480
f 473/473/473 480/480/480 479/479/479
f 475/475/475 476/476/476 482/482/482
f 475/475/475 482/482/482 481/481/481
f 476/476/476 477/477/477 483/483/483
f 476/476/476 483/483/483 482/482/482
f 477/477/477 478/478/478 484/484/484
f 477/477/477 484/484/484 483/483/483
f 478/478/478 479/479/479 485/485/485
f 478/478/478 485/485/485 484/484/484
f 479/479/479 480/480/480 486/486/486
f 479/479/479 486/486/486 485/485/485
f 481/481/481 482/482/482 488/488/488
f 481/481/481 488/488/488 487/487/487
f 482/482/482 483/483/483 489/489/489
f 482/482/482 489/489/489 488/488/488
f 483/483/483 484/484/484 490/490/490
f 483/483/483 490/490/490 489/489/489
f 484/484/484 485/485/485 491/491/491
f 484/484/484 491/491/491 490/490/490
f 485/485/485 486/486/486 492/492/492
f 485/485/485 492/492/492 491/491/491
f 493/493/493 494/494/494 500/500/500
f 493/493/493 500/500/500 499/499/499
f 494/494/494 495/495/495 501/501/501
f 494/494/494 501/501/501 500/500/500
f 495/495/495 496/496/496 502/502/502
f 495/495/495 502/502/502 501/501/501
f 496/496/496 497/497/497 503/503/503
f 496/496/496 503/503/503 502/502/502
f 497/497/497 498/498/498 504/504/504
f 497/497/497 504/504/504 503/503/503
f 499/499/499 500/500/500 506/506/506
f 499/499/499 506/506/506 505/505/505
f 500/500/500 501/501/501 507/507/507
f 500/500/500 507/507/507 506/506/506
f 501/501/501 502/502/502 508/508/508
f 501/501/501 508/508/508 507/507/507
f 502/502/502 503/503/503 509/509/509
f 502/502/502 509/509/509 508/508/508
f 503/503/503 504/504/504 510/510/510
f 503/503/503 510/510/510 509/509/509
f 505/505/505 506/506/506 512/512/512
f 505/505/505 512/512/512 511/511/511
f 506/506/506 507/507/507 513/513/513
f 506/506/506 513/513/513 512/512/512
f 507/507/507 508/508/508 514/514/514
f 507/507/507 514/514/514 513/513/513
f 508/508/508 509/509/509 515/515/515
f 508/508/508 515/515/515 514/514/514
f 509/509/509 510/510/510 516/516/516
f 509/509/509 516/516/516 515/515/515
f 511/511/511 512/512/512 518/518/518
f 511/511/511 518/518/518 517/517/517
f 512/512/512 513/513/513 519/519/519
f 512/512/512 519/519/519 518/518/518
f 513/513/513 514/514/514 520/520/520
f 513/513/513 520/520/520 519/519/519
f 514/514/514 515/515/515 521/521/521
f 514/514/514 521/521/521 520/520/520
f 515/515/515 516/516/516 522/522/522
f 515/515/515 522/522/522 521/521/521
f 517/517/517 518/518/518 524/524/524
f 517/517/517 524/524/524 523/523/523
f 518/518/518 519/519/519 525/525/525
f 518/518/518 525/525/525 524/524/524
f 519/519/519 520/520/520 526/526/526
f 519/519/519 526/526/526 525/525/525
f 520/520/520 521/521/521 527/527/527
f 520/520/520 527/527/527 526/526/526
f 521/521/521 522/522/522 528/528/528
f 521/521/521 528/528/528 527/527/527
f 529/529/529 530/530/530 534/534/534
f 529/529/529 534/534/534 533/533/533
f 530/530/530 531/531/531 535/535/535
f 530/530/530 535/535/535 534/534/534
f 531/531/531 532/532/532 536/536/536
f 531/531/531 536/536/536 535/535/535
f 533/533/533 534/534/534 538/538/538
f 533/533/533 538/538/538 537/537/537
f 534/534/534 535/535/535 539/539/539
f 534/534/534 539/539/539 538/538/538
f 535/535/535 536/536/536 540/540/540
f 535/535/535 540/540/540 539/539/539
f 537/537/537 538/538/538 542/542/542
f 537/537/537 542/542/542 541/541/541
f 538/538/538 539/539/539 543/543/543
f 538/538/538 543/543/543 542/542/542
f 539/539/539 540/540/540 544/544/544
f 539/539/539 544/544/544 543/543/543
f 545/545/545 546/546/546 550/550/550
f 545/545/545 550/550/550 549/549/549
f 546/546/546 547/547/547 551/551/551
f 546/546/546 551/551/551 550/550/550
f 547/547/547 548/548/548 552/552/552
f 547/547/547 552/552/552 551/551/551
f 549/549/549 550/550/550 554/554/554
f 549/549/549 554/554/554 553/553/553
f 550/550/550 551/551/551 555/555/555
f 550/550/550 555/555/555 554/554/554
f 551/551/551 552/552/552 556/556/556
f 551/551/551 556/556/556 555/555/555
f 553/553/553 554/554/554 558/558/558
f 553/553/553 558/558/558 557/557/557
f 554/554/554 555/555/555 559/559/559
f 554/554/554 559/559/559 558/558/558
f 555/555/555 556/556/556 560/560/560
f 555/555/555 560/560/560 559/559/559
f 561/561/561 562/562/562 566/566/566
f 561/561/561 566/566/566 565/565/565
f 562/562/562 563/563/563 567/567/567
f 562/562/562 567/567/567 566/566/566
f 563/563/563 564/564/564 568/568/568
f 563/563/563 568/568/568 567/567/567
f 565/565/565 566/566/566 570/570/570
f 565/565/565 570/570/570 569/569/569
f 566/566/566 567/567/567 571/571/571
f 566/566/566 571/571/571 570/570/570
f 567/567/567 568/568/568 572/572/572
f 567/567/567 572/572/572 571/571/571
f 569/569/569 570/570/570 574/574/574
f 569/569/569 574/574/574 573/573/573
f 570/570/570 571/571/571 575/575/575
f 570/570/570 575/575/575 574/574/574
f 571/571/571 572/572/572 576/576/576
f 571/571/571 576/576/576 575/575/575
f 577/577/577 578/578/578 582/582/582
f 577/577/577 582/582/582 581/581/581
f 578/578/578 579/579/579 583/583/583
f 578/578/578 583/583/583 582/582/582
f 579/579/579 580/580/580 584/584/584
f 579/579/579 584/584/584 583/583/583
f 581/581/581 582/582/582 586/586/586
f 581/581/581 586/586/586 585/585/585
f 582/582/582 583/583/583 587/587/587
f 582/582/582 587/587/587 586/586/586
f 583/583/583 584/584/584 588/588/588
f 583/583/583 588/588/588 587/587/587
f 585/585/585 586/586/586 590/590/590
f 585/585/585 590/590/590 589/589/589
f 586/586/586 587/587/587 591/591/591
f 586/586/586 591/591/591 590/590/590
f 587/587/587 588/588/588 592/592/592
f 587/587/587 592/592/592 591/591/591
f 593/593/593 594/594/594 598/598/598
f 593/593/593 598/598/598 597/597/597
f 594/594/594 595/595/595 599/599/599
f 594/594/594 599/599/599 598/598/598
f 595/595/595 596/596/596 600/600/600
f 595/595/595 600/600/600 599/599/599
f 597/597/597 598/598/598 602/602/602
f 597/597/597 602/602/602 601/601/601
f 598/598/598 599/599/599 603/603/603
f 598/598/598 603/603/603 602/602/602
f 599/599/599 600/600/600 604/604/604
f 599/599/599 604/604/604 603/603/603
f 601/601/601 602/602/602 606/606/606
f 601/601/601 606/606/606 605/605/605
f 602/602/602 603/603/603 607/607/607
f 602/602/602 607/607/607 606/606/606
f 603/603/603 604/604/604 608/608/608
f 603/603/603 608/608/608 607/607/607
f 609/609/609 610/610/610 614/614/614
f 609/609/609 614/614/614 613/613/613
f 610/610/610 611/611/611 615/615/615
f 610/610/610 615/615/615 614/614/614
f 611/611/611 612/612/612 616/616/616
f 611/611/611 616/616/616 615/615/615
f 613/613/613 614/614/614 618/618/618
f 613/613/613 618/618/618 617/617/617
f 614/614/614 615/615/615 619/619/619
f 614/614/614 619/619/619 618/618/618
f 615/615/615 616/616/616 620/620/620
f 615/615/615 620/620/620 619/619/619
f 617/617/617 618/618/618 622/622/622
f 617/617/617 622/622/622 621/621/621
f 618/618/618 619/619/619 623/623/623
f 618/618/618 623/623/623 622/622/622
f 619/619/619 620/620/620 624/624/624
f 619/619/619 624/624/624 623/623/623
usemtl skin
f 625/625/625 626/626/626 637/637/637
f 625/625/625 637/637/637 636/636/636
f 626/626/626 627/627/627 638/638/638
f 626/626/626 638/638/638 637/637/637
f 627/627/627 628/628/628 639/639/639
f 627/627/627 639/639/639 638/638/638
f 628/628/628 629/629/629 640/640/640
f 628/628/628 640/640/640 639/639/639
f 629/629/629 630/630/630 641/641/641
f 629/629/629 641/641/641 640/640/640
f 630/630/630 631/631/631 642/642/642
f 630/630/630 642/642/642 641/641/641
f 631/631/631 632/632/632 643/643/643
f 631/631/631 643/643/643 642/642/642
f 632/632/632 633/633/633 644/644/644
f 632/632/632 644/644/644 643/643/643
f 633/633/633 634/634/634 645/645/645
f 633/633/633 645/645/645 644/644/644
f 634/634/634 635/635/635 646/646/646
f 634/634/634 646/646/646 645/645/645
f 636/636/636 637/637/637 648/648/648
f 636/636/636 648/648/648 647/647/647
f 637/637/637 638/638/638 649/649/649
f 637/637/637 649/649/649 648/648/648
f 638/638/638 639/639/639 650/650/650
f 638/638/638 650/650/650 649/649/649
f 639/639/639 640/640/640 651/651/651
f 639/639/639 651/651/651 650/650/650
f 640/640/640 641/641/641 652/652/652
f 640/640/640 652/652/652 651/651/651
f 641/641/641 642/642/642 653/653/653
f 641/641/641 653/653/653 652/652/652
f 642/642/642 643/643/643 654/654/654
f 642/642/642 654/654/654 653/653/653
f 643/643/643 644/644/644 655/655/655
f 643/643/643 655/655/655 654/654/654
f 644/644/644 645/645/645 656/656/656
f 644/644/644 656/656/656 655/655/655
f 645/645/645 646/646/646 657/657/657
f 645/645/645 657/657/657 656/656/656
f 647/647/647 648/648/648 659/659/659
f 647/647/647 659/659/659 658/658/658
f 648/648/648 649/649/649 660/660/660
f 648/648/648 660/660/660 659/659/659
f 649/649/649 650/650/650 661/661/661
f 649/649/649 661/661/661 660/660/660
f 650/650/650 651/651/651 662/662/662
f 650/650/650 662/662/662 661/661/661
f 651/651/651 652/652/652 663/663/663
f 651/651/651 663/663/663 662/662/662
f 652/652/652 653/653/653 664/664/664
f 652/652/652 664/664/664 663/663/663
f 653/653/653 654/654/654 665/665/665
f 653/653/653 665/665/665 664/664/664
f 654/654/654 655/655/655 666/666/666
f 654/654/654 666/666/666 665/665/665
f 655/655/655 656/656/656 667/667/667
f 655/655/655 667/667/667 666/666/666
f 656/656/656 657/657/657 668/668/668
f 656/656/656 668/668/668 667/667/667
f 658/658/658 659/659/659 670/670/670
f 658/658/658 670/670/670 669/669/669
f 659/659/659 660/660/660 671/671/671
f 659/659/659 671/671/671 670/670/670
f 660/660/660 661/661/661 672/672/672
f 660/660/660 672/672/672 671/671/671
f 661/661/661 662/662/662 673/673/673
f 661/661/661 673/673/673 672/672/672
f 662/662/662 663/663/663 674/674/674
f 662/662/662 674/674/674 673/673/673
f 663/663/663 664/664/664 675/675/675
f 663/663/663 675/675/675 674/674/674
f 664/664/664 665/665/665 676/676/676
f 664/664/664 676/676/676 675/675/675
f 665/665/665 666/666/666 677/677/677
f 665/665/665 677/677/677 676/676/676
f 666/666/666 667/667/667 678/678/678
f 666/666/666 678/678/678 677/677/677
f 667/667/667 668/668/668 679/679/679
f 667/667/667 679/679/679 678/678/678
f 669/669/669 670/670/670 681/681/681
f 669/669/669 681/681/681 680/680/680
f 670/670/670 671/671/671 682/682/682
f 670/670/670 682/682/682 681/681/681
f 671/671/671 672/672/672 683/683/683
f 671/671/671 683/683/683 682/682/682
f 672/672/672 673/673/673 684/684/684
f 672/672/672 684/684/684 683/683/683
f 673/673/673 674/674/674 685/685/685
f 673/673/673 685/685/685 684/684/684
f 674/674/674 675/675/675 686/686/686
f 674/674/674 686/686/686 685/685/685
f 675/675/675 676/676/676 687/687/687
f 675/675/675 687/687/687 686/686/686
f 676/676/676 677/677/677 688/688/688
f 676/676/676 688/688/688 687/687/687
f 677/677/677 678/678/678 689/689/689
f 677/677/677 689/689/689 688/688/688
f 678/678/678 679/679/679 690/690/690
f 678/678/678 690/690/690 689/689/689
f 680/680/680 681/681/681 692/692/692
f 680/680/680 692/692/692 691/691/691
f 681/681/681 682/682/682 693/693/693
f 681/681/681 693/693/693 692/692/692
f 682/682/682 683/683/683 694/694/694
f 682/682/682 694/694/694 693/693/693
f 683/683/683 684/684/684 695/695/695
f 683/683/683 695/695/695 694/694/694
f 684/684/684 685/685/685 696/696/696
f 684/684/684 696/696/696 695/695/695
f 685/685/685 686/686/686 697/697/697
f 685/685/685 697/697/697 696/696/696
f 686/686/686 687/687/687 698/698/698
f 686/686/686 698/698/698 697/697/697
f 687/687/687 688/688/688 699/699/699
f 687/687/687 699/699/699 698/698/698
f 688/688/688 689/689/689 700/700/700
f 688/688/688 700/700/700 699/699/699
f 689/689/689 690/690/690 701/701/701
f 689/689/689 701/701/701 700/700/700
f 702/702/702 703/703/703 712/712/712
f 702/702/702 712/712/712 711/711/711
f 703/703/703 704/704/704 713/713/713
f 703/703/703 713/713/713 712/712/712
f 704/704/704 705/705/705 714/714/714
f 704/704/704 714/714/714 713/713/713
f 705/705/705 706/706/706 715/715/715
f 705/705/705 715/715/715 714/714/714
f 706/706/706 707/707/707 716/716/716
f 706/706/706 716/716/716 715/715/715
f 707/707/707 708/708/708 717/717/717
f 707/707/707 717/717/717 716/716/716
f 708/708/708 709/709/709 718/718/718
f 708/708/708 718/718/718 717/717/717
f 709/709/709 710/710/710 719/719/719
f 709/709/709 719/719/719 718/718/718
f 720/720/720 722/722/722 721/721/721
f 720/720/720 723/723/723 722/722/722
f 720/720/720 724/724/724 723/723/723
f 720/720/720 725/725/725 724/724/724
f 720/720/720 726/726/726 725/725/725
f 720/720/720 727/727/727 726/726/726
f 720/720/720 728/728/728 727/727/727
f 720/720/720 721/721/721 728/728/728
f 729/729/729 730/730/730 731/731/731
f 729/729/729 731/731/731 732/732/732
f 729/729/729 732/732/732 733/733/733
f 729/729/729 733/733/733 734/734/734
f 729/729/729 734/734/734 735/735/735
f 729/729/729 735/735/735 736/736/736
f 729/729/729 736/736/736 737/737/737
f 729/729/729 737/737/737 730/730/730
f 738/738/738 739/739/739 750/750/750
f 738/738/738 750/750/750 749/749/749
f 739/739/739 740/740/740 751/751/751
f 739/739/739 751/751/751 750/750/750
f 740/740/740 741/741/741 752/752/752
f 740/740/740 752/752/752 751/751/751
f 741/741/741 742/742/742 753/753/753
f 741/741/741 753/753/753 752/752/752
f 742/742/742 743/743/743 754/754/754
f 742/742/742 754/754/754 753/753/753
f 743/743/743 744/744/744 755/755/755
f 743/743/743 755/755/755 754/754/754
f 744/744/744 745/745/745 756/756/756
f 744/744/744 756/756/756 755/755/755
f 745/745/745 746/746/746 757/757/757
f 745/745/745 757/757/757 756/756/756
f 746/746/746 747/747/747 758/758/758
f 746/746/746 758/758/758 757/757/757
f 747/747/747 748/748/748 759/759/759
f 747/747/747 759/759/759 758/758/758
f 749/749/749 750/750/750 761/761/761
f 749/749/749 761/761/761 760/760/760
f 750/750/750 751/751/751 762/762/762
f 750/750/750 762/762/762 761/761/761
f 751/751/751 752/752/752 763/763/763
f 751/751/751 763/763/763 762/762/762
f 752/752/752 753/753/753 764/764/764
f 752/752/752 764/764/764 763/763/763
f 753/753/753 754/754/754 765/765/765
f 753/753/753 765/765/765 764/764/764
f 754/754/754 755/755/755 766/766/766
f 754/754/754 766/766/766 765/765/765
f 755/755/755 756/756/756 767/767/767
f 755/755/755 767/767/767 766/766/766
f 756/756/756 757/757/757 768/768/768
f 756/756/756 768/768/768 767/767/767
f 757/757/757 758/758/758 769/769/769
f 757/757/757 769/769/769 768/768/768
f 758/758/758 759/759/759 770/770/770
f 758/758/758 770/770/770 769/769/769
f 760/760/760 761/761/761 772/772/772
f 760/760/760 772/772/772 771/771/771
f 761/761/761 762/762/762 773/773/773
f 761/761/761 773/773/773 772/772/772
f 762/762/762 763/763/763 774/774/774
f 762/762/762 774/774/774 773/773/773
f 763/763/763 764/764/764 775/775/775
f 763/763/763 775/775/775 774/774/774
f 764/764/764 765/765/765 776/776/776
f 764/764/764 776/776/776 775/775/775
f 765/765/765 766/766/766 777/777/777
f 765/765/765 777/777/777 776/776/776
f 766/766/766 767/767/767 778/778/778
f 766/766/766 778/778/778 777/777/777
f 767/767/767 768/768/768 779/779/779
f 767/767/767 779/779/779 778/778/778
f 768/768/768 769/769/769 780/780/780
f 768/768/768 780/780/780 779/779/779
f 769/769/769 770/770/770 781/781/781
f 769/769/769 781/781/781 780/780/780
f 771/771/771 772/772/772 783/783/783
f 771/771/771 783/783/783 782/782/782
f 772/772/772 773/773/773 784/784/784
f 772/772/772 784/784/784 783/783/783
f 773/773/773 774/774/774 785/785/785
f 773/773/773 785/785/785 784/784/784
f 774/774/774 775/775/775 786/786/786
f 774/774/774 786/786/786 785/785/785
f 775/775/775 776/776/776 787/787/787
f 775/775/775 787/787/787 786/786/786
f 776/776/776 777/777/777 788/788/788
f 776/776/776 788/788/788 787/787/787
f 777/777/777 778/778/778 789/789/789
f 777/777/777 789/789/789 788/788/788
f 778/778/778 779/779/779 790/790/790
f 778/778/778 790/790/790 789/789/789
f 779/779/779 780/780/780 791/791/791
f 779/779/779 791/791/791 790/790/790
f 780/780/780 781/781/781 792/792/792
f 780/780/780 792/792/792 791/791/791
f 782/782/782 783/783/783 794/794/794
f 782/782/782 794/794/794 793/793/793
f 783/783/783 784/784/784 795/795/795
f 783/783/783 795/795/795 794/794/794
f 784/784/784 785/785/785 796/796/796
f 784/784/784 796/796/796 795/795/795
f 785/785/785 786/786/786 797/797/797
f 785/785/785 797/797/797 796/796/796
f 786/786/786 787/787/787 798/798/798
f 786/786/786 798/798/798 797/797/797
f 787/787/787 788/788/788 799/799/799
f 787/787/787 799/799/799 798/798/798
f 788/788/788 789/789/789 800/800/800
f 788/788/788 800/800/800 799/799/799
f 789/789/789 790/790/790 801/801/801
f 789/789/789 801/801/801 800/800/800
f 790/790/790 791/791/791 802/802/802
f 790/790/790 802/802/802 801/801/801
f 791/791/791 792/792/792 803/803/803
f 791/791/791 803/803/803 802/802/802
f 793/793/793 794/794/794 805/805/805
f 793/793/793 805/805/805 804/804/804
f 794/794/794 795/795/795 806/806/806
f 794/794/794 806/806/806 805/805/805
f 795/795/795 796/796/796 807/807/807
f 795/795/795 807/807/807 806/806/806
f 796/796/796 797/797/797 808/808/808
f 796/796/796 808/808/808 807/807/807
f 797/797/797 798/798/798 809/809/809
f 797/797/797 809/809/809 808/808/808
f 798/798/798 799/799/799 810/810/810
f 798/798/798 810/810/810 809/809/809
f 799/799/799 800/800/800 811/811/811
f 799/799/799 811/811/811 810/810/810
f 800/800/800 801/801/801 812/812/812
f 800/800/800 812/812/812 811/811/811
f 801/801/801 802/802/802 813/813/813
f 801/801/801 813/813/813 812/812/812
f 802/802/802 803/803/803 814/814/814
f 802/802/802 814/814/814 813/813/813
f 815/815/815 816/816/816 825/825/825
f 815/815/815 825/825/825 824/824/824
f 816/816/816 817/817/817 826/826/826
f 816/816/816 826/826/826 825/825/825
f 817/817/817 818/818/818 827/827/827
f 817/817/817 827/827/827 826/826/826
f 818/818/818 819/819/819 828/828/828
f 818/818/818 828/828/828 827/827/827
f 819/819/819 820/820/820 829/829/829
f 819/819/819 829/829/829 828/828/828
f 820/820/820 821/821/821 830/830/830
f 820/820/820 830/830/830 829/829/829
f 821/821/821 822/822/822 831/831/831
f 821/821/821 831/831/831 830/830/830
f 822/822/822 823/823/823 832/832/832
f 822/822/822 832/832/832 831/831/831
f 833/833/833 835/835/835 834/834/834
f 833/833/833 836/836/836 835/835/835
f 833/833/833 837/837/837 836/836/836
f 833/833/833 838/838/838 837/837/837
f 833/833/833 839/839/839 838/838/838
f 833/833/833 840/840/840 839/839/839
f 833/833/833 841/841/841 840/840/840
f 833/833/833 834/834/834 841/841/841
f 842/842/842 843/843/843 844/844/844
f 842/842/842 844/844/844 845/845/845
f 842/842/842 845/845/845 846/846/846
f 842/842/842 846/846/846 847/847/847
f 842/842/842 847/847/847 848/848/848
f 842/842/842 848/848/848 849/849/849
f 842/842/842 849/849/849 850/850/850
f 842/842/842 850/850/850 843/843/843
