# Sinh tự động bởi tools/mesh_kit.py - đừng sửa tay
o p_hair_short
v 0.0000 -0.0199 0.1087
v 0.0263 -0.0199 0.1038
v 0.0501 -0.0199 0.0895
v 0.0690 -0.0199 0.0672
v 0.0811 -0.0199 0.0391
v 0.0852 -0.0199 0.0080
v 0.0811 -0.0199 -0.0231
v 0.0690 -0.0199 -0.0512
v 0.0501 -0.0199 -0.0735
v 0.0263 -0.0199 -0.0878
v 0.0000 -0.0199 -0.0927
v -0.0263 -0.0199 -0.0878
v -0.0501 -0.0199 -0.0735
v -0.0690 -0.0199 -0.0512
v -0.0811 -0.0199 -0.0231
v -0.0852 -0.0199 0.0080
v -0.0811 -0.0199 0.0391
v -0.0690 -0.0199 0.0672
v -0.0501 -0.0199 0.0895
v -0.0263 -0.0199 0.1038
v -0.0000 -0.0199 0.1087
v 0.0000 0.0003 0.1118
v 0.0271 0.0003 0.1067
v 0.0516 0.0003 0.0919
v 0.0710 0.0003 0.0690
v 0.0835 0.0003 0.0401
v 0.0878 0.0003 0.0080
v 0.0835 0.0003 -0.0241
v 0.0710 0.0003 -0.0530
v 0.0516 0.0003 -0.0759
v 0.0271 0.0003 -0.0907
v 0.0000 0.0003 -0.0958
v -0.0271 0.0003 -0.0907
v -0.0516 0.0003 -0.0759
v -0.0710 0.0003 -0.0530
v -0.0835 0.0003 -0.0241
v -0.0878 0.0003 0.0080
v -0.0835 0.0003 0.0401
v -0.0710 0.0003 0.0690
v -0.0516 0.0003 0.0919
v -0.0271 0.0003 0.1067
v -0.0000 0.0003 0.1118
v 0.0000 0.0206 0.1113
v 0.0270 0.0206 0.1063
v 0.0514 0.0206 0.0916
v 0.0707 0.0206 0.0687
v 0.0832 0.0206 0.0399
v 0.0874 0.0206 0.0080
v 0.0832 0.0206 -0.0239
v 0.0707 0.0206 -0.0527
v 0.0514 0.0206 -0.0756
v 0.0270 0.0206 -0.0903
v 0.0000 0.0206 -0.0953
v -0.0270 0.0206 -0.0903
v -0.0514 0.0206 -0.0756
v -0.0707 0.0206 -0.0527
v -0.0832 0.0206 -0.0239
v -0.0874 0.0206 0.0080
v -0.0832 0.0206 0.0399
v -0.0707 0.0206 0.0687
v -0.0514 0.0206 0.0916
v -0.0270 0.0206 0.1063
v -0.0000 0.0206 0.1113
v 0.0000 0.0406 0.1075
v 0.0260 0.0406 0.1026
v 0.0495 0.0406 0.0885
v 0.0681 0.0406 0.0665
v 0.0801 0.0406 0.0387
v 0.0842 0.0406 0.0080
v 0.0801 0.0406 -0.0227
v 0.0681 0.0406 -0.0505
v 0.0495 0.0406 -0.0725
v 0.0260 0.0406 -0.0866
v 0.0000 0.0406 -0.0915
v -0.0260 0.0406 -0.0866
v -0.0495 0.0406 -0.0725
v -0.0681 0.0406 -0.0505
v -0.0801 0.0406 -0.0227
v -0.0842 0.0406 0.0080
v -0.0801 0.0406 0.0387
v -0.0681 0.0406 0.0665
v -0.0495 0.0406 0.0885
v -0.0260 0.0406 0.1026
v -0.0000 0.0406 0.1075
v 0.0000 0.0595 0.1004
v 0.0242 0.0595 0.0958
v 0.0459 0.0595 0.0827
v 0.0632 0.0595 0.0623
v 0.0743 0.0595 0.0365
v 0.0782 0.0595 0.0080
v 0.0743 0.0595 -0.0205
v 0.0632 0.0595 -0.0463
v 0.0459 0.0595 -0.0667
v 0.0242 0.0595 -0.0798
v 0.0000 0.0595 -0.0844
v -0.0242 0.0595 -0.0798
v -0.0459 0.0595 -0.0667
v -0.0632 0.0595 -0.0463
v -0.0743 0.0595 -0.0205
v -0.0782 0.0595 0.0080
v -0.0743 0.0595 0.0365
v -0.0632 0.0595 0.0623
v -0.0459 0.0595 0.0827
v -0.0242 0.0595 0.0958
v -0.0000 0.0595 0.1004
v 0.0000 0.0766 0.0902
v 0.0215 0.0766 0.0862
v 0.0409 0.0766 0.0745
v 0.0563 0.0766 0.0563
v 0.0661 0.0766 0.0334
v 0.0695 0.0766 0.0080
v 0.0661 0.0766 -0.0174
v 0.0563 0.0766 -0.0403
v 0.0409 0.0766 -0.0585
v 0.0215 0.0766 -0.0702
v 0.0000 0.0766 -0.0742
v -0.0215 0.0766 -0.0702
v -0.0409 0.0766 -0.0585
v -0.0563 0.0766 -0.0403
v -0.0661 0.0766 -0.0174
v -0.0695 0.0766 0.0080
v -0.0661 0.0766 0.0334
v -0.0563 0.0766 0.0563
v -0.0409 0.0766 0.0745
v -0.0215 0.0766 0.0862
v -0.0000 0.0766 0.0902
v 0.0000 0.0915 0.0773
v 0.0181 0.0915 0.0739
v 0.0344 0.0915 0.0640
v 0.0474 0.0915 0.0487
v 0.0557 0.0915 0.0294
v 0.0586 0.0915 0.0080
v 0.0557 0.0915 -0.0134
v 0.0474 0.0915 -0.0327
v 0.0344 0.0915 -0.0480
v 0.0181 0.0915 -0.0579
v 0.0000 0.0915 -0.0613
v -0.0181 0.0915 -0.0579
v -0.0344 0.0915 -0.0480
v -0.0474 0.0915 -0.0327
v -0.0557 0.0915 -0.0134
v -0.0586 0.0915 0.0080
v -0.0557 0.0915 0.0294
v -0.0474 0.0915 0.0487
v -0.0344 0.0915 0.0640
v -0.0181 0.0915 0.0739
v -0.0000 0.0915 0.0773
v 0.0000 0.1037 0.0621
v 0.0141 0.1037 0.0594
v 0.0269 0.1037 0.0517
v 0.0370 0.1037 0.0398
v 0.0435 0.1037 0.0247
v 0.0457 0.1037 0.0080
v 0.0435 0.1037 -0.0087
v 0.0370 0.1037 -0.0238
v 0.0269 0.1037 -0.0357
v 0.0141 0.1037 -0.0434
v 0.0000 0.1037 -0.0461
v -0.0141 0.1037 -0.0434
v -0.0269 0.1037 -0.0357
v -0.0370 0.1037 -0.0238
v -0.0435 0.1037 -0.0087
v -0.0457 0.1037 0.0080
v -0.0435 0.1037 0.0247
v -0.0370 0.1037 0.0398
v -0.0269 0.1037 0.0517
v -0.0141 0.1037 0.0594
v -0.0000 0.1037 0.0621
v 0.0000 0.1126 0.0451
v 0.0097 0.1126 0.0433
v 0.0184 0.1126 0.0380
v 0.0254 0.1126 0.0298
v 0.0298 0.1126 0.0195
v 0.0314 0.1126 0.0080
v 0.0298 0.1126 -0.0035
v 0.0254 0.1126 -0.0138
v 0.0184 0.1126 -0.0220
v 0.0097 0.1126 -0.0273
v 0.0000 0.1126 -0.0291
v -0.0097 0.1126 -0.0273
v -0.0184 0.1126 -0.0220
v -0.0254 0.1126 -0.0138
v -0.0298 0.1126 -0.0035
v -0.0314 0.1126 0.0080
v -0.0298 0.1126 0.0195
v -0.0254 0.1126 0.0298
v -0.0184 0.1126 0.0380
v -0.0097 0.1126 0.0433
v -0.0000 0.1126 0.0451
v 0.0000 0.1181 0.0268
v 0.0049 0.1181 0.0259
v 0.0094 0.1181 0.0232
v 0.0129 0.1181 0.0191
v 0.0152 0.1181 0.0138
v 0.0159 0.1181 0.0080
v 0.0152 0.1181 0.0022
v 0.0129 0.1181 -0.0031
v 0.0094 0.1181 -0.0072
v 0.0049 0.1181 -0.0099
v 0.0000 0.1181 -0.0108
v -0.0049 0.1181 -0.0099
v -0.0094 0.1181 -0.0072
v -0.0129 0.1181 -0.0031
v -0.0152 0.1181 0.0022
v -0.0159 0.1181 0.0080
v -0.0152 0.1181 0.0138
v -0.0129 0.1181 0.0191
v -0.0094 0.1181 0.0232
v -0.0049 0.1181 0.0259
v -0.0000 0.1181 0.0268
v 0.0000 0.1200 0.0080
v 0.0000 0.1200 0.0080
v 0.0000 0.1200 0.0080
v 0.0000 0.1200 0.0080
v 0.0000 0.1200 0.0080
v 0.0000 0.1200 0.0080
v 0.0000 0.1200 0.0080
v 0.0000 0.1200 0.0080
v 0.0000 0.1200 0.0080
v 0.0000 0.1200 0.0080
v 0.0000 0.1200 0.0080
v -0.0000 0.1200 0.0080
v -0.0000 0.1200 0.0080
v -0.0000 0.1200 0.0080
v -0.0000 0.1200 0.0080
v -0.0000 0.1200 0.0080
v -0.0000 0.1200 0.0080
v -0.0000 0.1200 0.0080
v -0.0000 0.1200 0.0080
v -0.0000 0.1200 0.0080
v -0.0000 0.1200 0.0080
v 0.0000 -0.0800 0.0500
v 0.0000 -0.0800 0.0500
v 0.0000 -0.0800 0.0500
v 0.0000 -0.0800 0.0500
v 0.0000 -0.0800 0.0500
v 0.0000 -0.0800 0.0500
v 0.0000 -0.0800 0.0500
v 0.0000 -0.0800 0.0500
v -0.0000 -0.0800 0.0500
v -0.0000 -0.0800 0.0500
v -0.0000 -0.0800 0.0500
v -0.0000 -0.0800 0.0500
v -0.0000 -0.0800 0.0500
v -0.0000 -0.0800 0.0500
v -0.0000 -0.0800 0.0500
v 0.0000 -0.0720 0.0800
v 0.0182 -0.0720 0.0770
v 0.0328 -0.0720 0.0687
v 0.0409 -0.0720 0.0567
v 0.0409 -0.0720 0.0433
v 0.0328 -0.0720 0.0313
v 0.0182 -0.0720 0.0230
v 0.0000 -0.0720 0.0200
v -0.0182 -0.0720 0.0230
v -0.0328 -0.0720 0.0313
v -0.0409 -0.0720 0.0433
v -0.0409 -0.0720 0.0567
v -0.0328 -0.0720 0.0687
v -0.0182 -0.0720 0.0770
v -0.0000 -0.0720 0.0800
v 0.0000 -0.0500 0.1020
v 0.0316 -0.0500 0.0968
v 0.0569 -0.0500 0.0824
v 0.0709 -0.0500 0.0616
v 0.0709 -0.0500 0.0384
v 0.0569 -0.0500 0.0176
v 0.0316 -0.0500 0.0032
v 0.0000 -0.0500 -0.0020
v -0.0316 -0.0500 0.0032
v -0.0569 -0.0500 0.0176
v -0.0709 -0.0500 0.0384
v -0.0709 -0.0500 0.0616
v -0.0569 -0.0500 0.0824
v -0.0316 -0.0500 0.0968
v -0.0000 -0.0500 0.1020
v 0.0000 -0.0200 0.1100
v 0.0364 -0.0200 0.1041
v 0.0657 -0.0200 0.0874
v 0.0819 -0.0200 0.0634
v 0.0819 -0.0200 0.0366
v 0.0657 -0.0200 0.0126
v 0.0364 -0.0200 -0.0041
v 0.0000 -0.0200 -0.0100
v -0.0364 -0.0200 -0.0041
v -0.0657 -0.0200 0.0126
v -0.0819 -0.0200 0.0366
v -0.0819 -0.0200 0.0634
v -0.0657 -0.0200 0.0874
v -0.0364 -0.0200 0.1041
v -0.0000 -0.0200 0.1100
v 0.0000 0.0100 0.1020
v 0.0316 0.0100 0.0968
v 0.0569 0.0100 0.0824
v 0.0709 0.0100 0.0616
v 0.0709 0.0100 0.0384
v 0.0569 0.0100 0.0176
v 0.0316 0.0100 0.0032
v 0.0000 0.0100 -0.0020
v -0.0316 0.0100 0.0032
v -0.0569 0.0100 0.0176
v -0.0709 0.0100 0.0384
v -0.0709 0.0100 0.0616
v -0.0569 0.0100 0.0824
v -0.0316 0.0100 0.0968
v -0.0000 0.0100 0.1020
v 0.0000 0.0320 0.0800
v 0.0182 0.0320 0.0770
v 0.0328 0.0320 0.0687
v 0.0409 0.0320 0.0567
v 0.0409 0.0320 0.0433
v 0.0328 0.0320 0.0313
v 0.0182 0.0320 0.0230
v 0.0000 0.0320 0.0200
v -0.0182 0.0320 0.0230
v -0.0328 0.0320 0.0313
v -0.0409 0.0320 0.0433
v -0.0409 0.0320 0.0567
v -0.0328 0.0320 0.0687
v -0.0182 0.0320 0.0770
v -0.0000 0.0320 0.0800
v 0.0000 0.0400 0.0500
v 0.0000 0.0400 0.0500
v 0.0000 0.0400 0.0500
v 0.0000 0.0400 0.0500
v 0.0000 0.0400 0.0500
v 0.0000 0.0400 0.0500
v 0.0000 0.0400 0.0500
v 0.0000 0.0400 0.0500
v -0.0000 0.0400 0.0500
v -0.0000 0.0400 0.0500
v -0.0000 0.0400 0.0500
v -0.0000 0.0400 0.0500
v -0.0000 0.0400 0.0500
v -0.0000 0.0400 0.0500
v -0.0000 0.0400 0.0500
vt 0.0000 0.0000
vt 0.0219 0.0000
vt 0.0445 0.0000
vt 0.0683 0.0000
vt 0.0932 0.0000
vt 0.1189 0.0000
vt 0.1445 0.0000
vt 0.1694 0.0000
vt 0.1933 0.0000
vt 0.2159 0.0000
vt 0.2377 0.0000
vt 0.2596 0.0000
vt 0.2822 0.0000
vt 0.3060 0.0000
vt 0.3310 0.0000
vt 0.3566 0.0000
vt 0.3822 0.0000
vt 0.4072 0.0000
vt 0.4310 0.0000
vt 0.4536 0.0000
vt 0.4755 0.0000
vt 0.0000 0.0203
vt 0.0219 0.0203
vt 0.0445 0.0203
vt 0.0683 0.0203
vt 0.0932 0.0203
vt 0.1189 0.0203
vt 0.1445 0.0203
vt 0.1694 0.0203
vt 0.1933 0.0203
vt 0.2159 0.0203
vt 0.2377 0.0203
vt 0.2596 0.0203
vt 0.2822 0.0203
vt 0.3060 0.0203
vt 0.3310 0.0203
vt 0.3566 0.0203
vt 0.3822 0.0203
vt 0.4072 0.0203
vt 0.4310 0.0203
vt 0.4536 0.0203
vt 0.4755 0.0203
vt 0.0000 0.0407
vt 0.0219 0.0407
vt 0.0445 0.0407
vt 0.0683 0.0407
vt 0.0932 0.0407
vt 0.1189 0.0407
vt 0.1445 0.0407
vt 0.1694 0.0407
vt 0.1933 0.0407
vt 0.2159 0.0407
vt 0.2377 0.0407
vt 0.2596 0.0407
vt 0.2822 0.0407
vt 0.3060 0.0407
vt 0.3310 0.0407
vt 0.3566 0.0407
vt 0.3822 0.0407
vt 0.4072 0.0407
vt 0.4310 0.0407
vt 0.4536 0.0407
vt 0.4755 0.0407
vt 0.0000 0.0610
vt 0.0219 0.0610
vt 0.0445 0.0610
vt 0.0683 0.0610
vt 0.0932 0.0610
vt 0.1189 0.0610
vt 0.1445 0.0610
vt 0.1694 0.0610
vt 0.1933 0.0610
vt 0.2159 0.0610
vt 0.2377 0.0610
vt 0.2596 0.0610
vt 0.2822 0.0610
vt 0.3060 0.0610
vt 0.3310 0.0610
vt 0.3566 0.0610
vt 0.3822 0.0610
vt 0.4072 0.0610
vt 0.4310 0.0610
vt 0.4536 0.0610
vt 0.4755 0.0610
vt 0.0000 0.0812
vt 0.0219 0.0812
vt 0.0445 0.0812
vt 0.0683 0.0812
vt 0.0932 0.0812
vt 0.1189 0.0812
vt 0.1445 0.0812
vt 0.1694 0.0812
vt 0.1933 0.0812
vt 0.2159 0.0812
vt 0.2377 0.0812
vt 0.2596 0.0812
vt 0.2822 0.0812
vt 0.3060 0.0812
vt 0.3310 0.0812
vt 0.3566 0.0812
vt 0.3822 0.0812
vt 0.4072 0.0812
vt 0.4310 0.0812
vt 0.4536 0.0812
vt 0.4755 0.0812
vt 0.0000 0.1012
vt 0.0219 0.1012
vt 0.0445 0.1012
vt 0.0683 0.1012
vt 0.0932 0.1012
vt 0.1189 0.1012
vt 0.1445 0.1012
vt 0.1694 0.1012
vt 0.1933 0.1012
vt 0.2159 0.1012
vt 0.2377 0.1012
vt 0.2596 0.1012
vt 0.2822 0.1012
vt 0.3060 0.1012
vt 0.3310 0.1012
vt 0.3566 0.1012
vt 0.3822 0.1012
vt 0.4072 0.1012
vt 0.4310 0.1012
vt 0.4536 0.1012
vt 0.4755 0.1012
vt 0.0000 0.1209
vt 0.0219 0.1209
vt 0.0445 0.1209
vt 0.0683 0.1209
vt 0.0932 0.1209
vt 0.1189 0.1209
vt 0.1445 0.1209
vt 0.1694 0.1209
vt 0.1933 0.1209
vt 0.2159 0.1209
vt 0.2377 0.1209
vt 0.2596 0.1209
vt 0.2822 0.1209
vt 0.3060 0.1209
vt 0.3310 0.1209
vt 0.3566 0.1209
vt 0.3822 0.1209
vt 0.4072 0.1209
vt 0.4310 0.1209
vt 0.4536 0.1209
vt 0.4755 0.1209
vt 0.0000 0.1404
vt 0.0219 0.1404
vt 0.0445 0.1404
vt 0.0683 0.1404
vt 0.0932 0.1404
vt 0.1189 0.1404
vt 0.1445 0.1404
vt 0.1694 0.1404
vt 0.1933 0.1404
vt 0.2159 0.1404
vt 0.2377 0.1404
vt 0.2596 0.1404
vt 0.2822 0.1404
vt 0.3060 0.1404
vt 0.3310 0.1404
vt 0.3566 0.1404
vt 0.3822 0.1404
vt 0.4072 0.1404
vt 0.4310 0.1404
vt 0.4536 0.1404
vt 0.4755 0.1404
vt 0.0000 0.1596
vt 0.0219 0.1596
vt 0.0445 0.1596
vt 0.0683 0.1596
vt 0.0932 0.1596
vt 0.1189 0.1596
vt 0.1445 0.1596
vt 0.1694 0.1596
vt 0.1933 0.1596
vt 0.2159 0.1596
vt 0.2377 0.1596
vt 0.2596 0.1596
vt 0.2822 0.1596
vt 0.3060 0.1596
vt 0.3310 0.1596
vt 0.3566 0.1596
vt 0.3822 0.1596
vt 0.4072 0.1596
vt 0.4310 0.1596
vt 0.4536 0.1596
vt 0.4755 0.1596
vt 0.0000 0.1786
vt 0.0219 0.1786
vt 0.0445 0.1786
vt 0.0683 0.1786
vt 0.0932 0.1786
vt 0.1189 0.1786
vt 0.1445 0.1786
vt 0.1694 0.1786
vt 0.1933 0.1786
vt 0.2159 0.1786
vt 0.2377 0.1786
vt 0.2596 0.1786
vt 0.2822 0.1786
vt 0.3060 0.1786
vt 0.3310 0.1786
vt 0.3566 0.1786
vt 0.3822 0.1786
vt 0.4072 0.1786
vt 0.4310 0.1786
vt 0.4536 0.1786
vt 0.4755 0.1786
vt 0.0000 0.1975
vt 0.0219 0.1975
vt 0.0445 0.1975
vt 0.0683 0.1975
vt 0.0932 0.1975
vt 0.1189 0.1975
vt 0.1445 0.1975
vt 0.1694 0.1975
vt 0.1933 0.1975
vt 0.2159 0.1975
vt 0.2377 0.1975
vt 0.2596 0.1975
vt 0.2822 0.1975
vt 0.3060 0.1975
vt 0.3310 0.1975
vt 0.3566 0.1975
vt 0.3822 0.1975
vt 0.4072 0.1975
vt 0.4310 0.1975
vt 0.4536 0.1975
vt 0.4755 0.1975
vt 0.0000 0.0000
vt 0.0369 0.0000
vt 0.0706 0.0000
vt 0.0996 0.0000
vt 0.1263 0.0000
vt 0.1553 0.0000
vt 0.1889 0.0000
vt 0.2259 0.0000
vt 0.2628 0.0000
vt 0.2964 0.0000
vt 0.3254 0.0000
vt 0.3521 0.0000
vt 0.3812 0.0000
vt 0.4148 0.0000
vt 0.4517 0.0000
vt 0.0000 0.0311
vt 0.0369 0.0311
vt 0.0706 0.0311
vt 0.0996 0.0311
vt 0.1263 0.0311
vt 0.1553 0.0311
vt 0.1889 0.0311
vt 0.2259 0.0311
vt 0.2628 0.0311
vt 0.2964 0.0311
vt 0.3254 0.0311
vt 0.3521 0.0311
vt 0.3812 0.0311
vt 0.4148 0.0311
vt 0.4517 0.0311
vt 0.0000 0.0621
vt 0.0369 0.0621
vt 0.0706 0.0621
vt 0.0996 0.0621
vt 0.1263 0.0621
vt 0.1553 0.0621
vt 0.1889 0.0621
vt 0.2259 0.0621
vt 0.2628 0.0621
vt 0.2964 0.0621
vt 0.3254 0.0621
vt 0.3521 0.0621
vt 0.3812 0.0621
vt 0.4148 0.0621
vt 0.4517 0.0621
vt 0.0000 0.0932
vt 0.0369 0.0932
vt 0.0706 0.0932
vt 0.0996 0.0932
vt 0.1263 0.0932
vt 0.1553 0.0932
vt 0.1889 0.0932
vt 0.2259 0.0932
vt 0.2628 0.0932
vt 0.2964 0.0932
vt 0.3254 0.0932
vt 0.3521 0.0932
vt 0.3812 0.0932
vt 0.4148 0.0932
vt 0.4517 0.0932
vt 0.0000 0.1242
vt 0.0369 0.1242
vt 0.0706 0.1242
vt 0.0996 0.1242
vt 0.1263 0.1242
vt 0.1553 0.1242
vt 0.1889 0.1242
vt 0.2259 0.1242
vt 0.2628 0.1242
vt 0.2964 0.1242
vt 0.3254 0.1242
vt 0.3521 0.1242
vt 0.3812 0.1242
vt 0.4148 0.1242
vt 0.4517 0.1242
vt 0.0000 0.1553
vt 0.0369 0.1553
vt 0.0706 0.1553
vt 0.0996 0.1553
vt 0.1263 0.1553
vt 0.1553 0.1553
vt 0.1889 0.1553
vt 0.2259 0.1553
vt 0.2628 0.1553
vt 0.2964 0.1553
vt 0.3254 0.1553
vt 0.3521 0.1553
vt 0.3812 0.1553
vt 0.4148 0.1553
vt 0.4517 0.1553
vt 0.0000 0.1863
vt 0.0369 0.1863
vt 0.0706 0.1863
vt 0.0996 0.1863
vt 0.1263 0.1863
vt 0.1553 0.1863
vt 0.1889 0.1863
vt 0.2259 0.1863
vt 0.2628 0.1863
vt 0.2964 0.1863
vt 0.3254 0.1863
vt 0.3521 0.1863
vt 0.3812 0.1863
vt 0.4148 0.1863
vt 0.4517 0.1863
vn 0.000 -0.148 0.989
vn 0.355 -0.146 0.924
vn 0.645 -0.139 0.751
vn 0.844 -0.133 0.519
vn 0.956 -0.128 0.263
vn 0.992 -0.126 0.000
vn 0.956 -0.128 -0.263
vn 0.844 -0.133 -0.519
vn 0.645 -0.139 -0.751
vn 0.355 -0.146 -0.924
vn -0.000 -0.148 -0.989
vn -0.355 -0.146 -0.924
vn -0.645 -0.139 -0.751
vn -0.844 -0.133 -0.519
vn -0.956 -0.128 -0.263
vn -0.992 -0.126 -0.000
vn -0.956 -0.128 0.263
vn -0.844 -0.133 0.519
vn -0.645 -0.139 0.751
vn -0.355 -0.146 0.924
vn 0.000 -0.148 0.989
vn 0.000 -0.064 0.998
vn 0.358 -0.063 0.932
vn 0.650 -0.060 0.757
vn 0.850 -0.057 0.523
vn 0.963 -0.055 0.265
vn 0.999 -0.054 0.000
vn 0.963 -0.055 -0.265
vn 0.850 -0.057 -0.523
vn 0.650 -0.060 -0.757
vn 0.358 -0.063 -0.932
vn -0.000 -0.064 -0.998
vn -0.358 -0.063 -0.932
vn -0.650 -0.060 -0.757
vn -0.850 -0.057 -0.523
vn -0.963 -0.055 -0.265
vn -0.999 -0.054 -0.000
vn -0.963 -0.055 0.265
vn -0.850 -0.057 0.523
vn -0.650 -0.060 0.757
vn -0.358 -0.063 0.932
vn 0.000 -0.064 0.998
vn 0.000 0.105 0.994
vn 0.357 0.103 0.929
vn 0.648 0.098 0.755
vn 0.848 0.094 0.521
vn 0.960 0.090 0.264
vn 0.996 0.089 0.000
vn 0.960 0.090 -0.264
vn 0.848 0.094 -0.521
vn 0.648 0.098 -0.755
vn 0.357 0.103 -0.929
vn 0.000 0.105 -0.994
vn -0.357 0.103 -0.929
vn -0.648 0.098 -0.755
vn -0.848 0.094 -0.521
vn -0.960 0.090 -0.264
vn -0.996 0.089 0.000
vn -0.960 0.090 0.264
vn -0.848 0.094 0.521
vn -0.648 0.098 0.755
vn -0.357 0.103 0.929
vn 0.000 0.105 0.994
vn 0.000 0.272 0.962
vn 0.345 0.267 0.900
vn 0.630 0.256 0.733
vn 0.826 0.244 0.508
vn 0.937 0.236 0.258
vn 0.973 0.232 0.000
vn 0.937 0.236 -0.258
vn 0.826 0.244 -0.508
vn 0.630 0.256 -0.733
vn 0.345 0.267 -0.900
vn 0.000 0.272 -0.962
vn -0.345 0.267 -0.900
vn -0.630 0.256 -0.733
vn -0.826 0.244 -0.508
vn -0.937 0.236 -0.258
vn -0.973 0.232 0.000
vn -0.937 0.236 0.258
vn -0.826 0.244 0.508
vn -0.630 0.256 0.733
vn -0.345 0.267 0.900
vn 0.000 0.272 0.962
vn 0.000 0.433 0.901
vn 0.324 0.427 0.844
vn 0.594 0.411 0.692
vn 0.783 0.394 0.481
vn 0.891 0.381 0.245
vn 0.926 0.377 0.000
vn 0.891 0.381 -0.245
vn 0.783 0.394 -0.481
vn 0.594 0.411 -0.692
vn 0.324 0.427 -0.844
vn 0.000 0.433 -0.901
vn -0.324 0.427 -0.844
vn -0.594 0.411 -0.692
vn -0.783 0.394 -0.481
vn -0.891 0.381 -0.245
vn -0.926 0.377 -0.000
vn -0.891 0.381 0.245
vn -0.783 0.394 0.481
vn -0.594 0.411 0.692
vn -0.324 0.427 0.844
vn 0.000 0.433 0.901
vn 0.000 0.584 0.811
vn 0.293 0.577 0.762
vn 0.540 0.560 0.629
vn 0.717 0.540 0.441
vn 0.820 0.526 0.226
vn 0.854 0.520 0.000
vn 0.820 0.526 -0.226
vn 0.717 0.540 -0.441
vn 0.540 0.560 -0.629
vn 0.293 0.577 -0.762
vn 0.000 0.584 -0.811
vn -0.293 0.577 -0.762
vn -0.540 0.560 -0.629
vn -0.717 0.540 -0.441
vn -0.820 0.526 -0.226
vn -0.854 0.520 0.000
vn -0.820 0.526 0.226
vn -0.717 0.540 0.441
vn -0.540 0.560 0.629
vn -0.293 0.577 0.762
vn 0.000 0.584 0.811
vn 0.000 0.721 0.693
vn 0.251 0.714 0.653
vn 0.466 0.698 0.543
vn 0.625 0.680 0.384
vn 0.719 0.666 0.198
vn 0.751 0.661 0.000
vn 0.719 0.666 -0.198
vn 0.625 0.680 -0.384
vn 0.466 0.698 -0.543
vn 0.251 0.714 -0.653
vn 0.000 0.721 -0.693
vn -0.251 0.714 -0.653
vn -0.466 0.698 -0.543
vn -0.625 0.680 -0.384
vn -0.719 0.666 -0.198
vn -0.751 0.661 -0.000
vn -0.719 0.666 0.198
vn -0.625 0.680 0.384
vn -0.466 0.698 0.543
vn -0.251 0.714 0.653
vn 0.000 0.721 0.693
vn 0.000 0.836 0.548
vn 0.199 0.832 0.518
vn 0.373 0.820 0.435
vn 0.505 0.806 0.310
vn 0.585 0.795 0.161
vn 0.612 0.791 0.000
vn 0.585 0.795 -0.161
vn 0.505 0.806 -0.310
vn 0.373 0.820 -0.435
vn 0.199 0.832 -0.518
vn 0.000 0.836 -0.548
vn -0.199 0.832 -0.518
vn -0.373 0.820 -0.435
vn -0.505 0.806 -0.310
vn -0.585 0.795 -0.161
vn -0.612 0.791 -0.000
vn -0.585 0.795 0.161
vn -0.505 0.806 0.310
vn -0.373 0.820 0.435
vn -0.199 0.832 0.518
vn 0.000 0.836 0.548
vn 0.000 0.925 0.380
vn 0.138 0.922 0.360
vn 0.261 0.916 0.304
vn 0.357 0.908 0.219
vn 0.416 0.902 0.114
vn 0.437 0.900 0.000
vn 0.416 0.902 -0.114
vn 0.357 0.908 -0.219
vn 0.261 0.916 -0.304
vn 0.138 0.922 -0.360
vn 0.000 0.925 -0.380
vn -0.138 0.922 -0.360
vn -0.261 0.916 -0.304
vn -0.357 0.908 -0.219
vn -0.416 0.902 -0.114
vn -0.437 0.900 -0.000
vn -0.416 0.902 0.114
vn -0.357 0.908 0.219
vn -0.261 0.916 0.304
vn -0.138 0.922 0.360
vn 0.000 0.925 0.380
vn 0.000 0.981 0.195
vn 0.071 0.980 0.185
vn 0.135 0.978 0.157
vn 0.185 0.976 0.114
vn 0.217 0.974 0.060
vn 0.228 0.974 0.000
vn 0.217 0.974 -0.060
vn 0.185 0.976 -0.114
vn 0.135 0.978 -0.157
vn 0.071 0.980 -0.185
vn 0.000 0.981 -0.195
vn -0.071 0.980 -0.185
vn -0.135 0.978 -0.157
vn -0.185 0.976 -0.114
vn -0.217 0.974 -0.060
vn -0.228 0.974 -0.000
vn -0.217 0.974 0.060
vn -0.185 0.976 0.114
vn -0.135 0.978 0.157
vn -0.071 0.980 0.185
vn 0.000 0.981 0.195
vn 0.000 0.981 0.195
vn 0.071 0.980 0.185
vn 0.135 0.978 0.157
vn 0.185 0.976 0.114
vn 0.217 0.974 0.060
vn 0.228 0.974 0.000
vn 0.217 0.974 -0.060
vn 0.185 0.976 -0.114
vn 0.135 0.978 -0.157
vn 0.071 0.980 -0.185
vn 0.000 0.981 -0.195
vn -0.071 0.980 -0.185
vn -0.135 0.978 -0.157
vn -0.185 0.976 -0.114
vn -0.217 0.974 -0.060
vn -0.228 0.974 -0.000
vn -0.217 0.974 0.060
vn -0.185 0.976 0.114
vn -0.135 0.978 0.157
vn -0.071 0.980 0.185
vn 0.000 0.981 0.195
vn -0.000 -0.866 0.500
vn 0.157 -0.876 0.456
vn 0.290 -0.900 0.324
vn 0.370 -0.921 0.118
vn 0.370 -0.921 -0.118
vn 0.290 -0.900 -0.324
vn 0.157 -0.876 -0.456
vn 0.000 -0.866 -0.500
vn -0.157 -0.876 -0.456
vn -0.290 -0.900 -0.324
vn -0.370 -0.921 -0.118
vn -0.370 -0.921 0.118
vn -0.290 -0.900 0.324
vn -0.157 -0.876 0.456
vn -0.000 -0.866 0.500
vn -0.000 -0.866 0.500
vn 0.157 -0.876 0.456
vn 0.290 -0.900 0.324
vn 0.370 -0.921 0.118
vn 0.370 -0.921 -0.118
vn 0.290 -0.900 -0.324
vn 0.157 -0.876 -0.456
vn 0.000 -0.866 -0.500
vn -0.157 -0.876 -0.456
vn -0.290 -0.900 -0.324
vn -0.370 -0.921 -0.118
vn -0.370 -0.921 0.118
vn -0.290 -0.900 0.324
vn -0.157 -0.876 0.456
vn -0.000 -0.866 0.500
vn -0.000 -0.500 0.866
vn 0.278 -0.518 0.809
vn 0.549 -0.568 0.613
vn 0.748 -0.620 0.239
vn 0.748 -0.620 -0.239
vn 0.549 -0.568 -0.613
vn 0.278 -0.518 -0.809
vn 0.000 -0.500 -0.866
vn -0.278 -0.518 -0.809
vn -0.549 -0.568 -0.613
vn -0.748 -0.620 -0.239
vn -0.748 -0.620 0.239
vn -0.549 -0.568 0.613
vn -0.278 -0.518 0.809
vn -0.000 -0.500 0.866
vn -0.000 -0.000 1.000
vn 0.325 -0.000 0.946
vn 0.667 -0.000 0.745
vn 0.953 0.000 0.304
vn 0.953 -0.000 -0.304
vn 0.667 -0.000 -0.745
vn 0.325 -0.000 -0.946
vn 0.000 -0.000 -1.000
vn -0.325 -0.000 -0.946
vn -0.667 0.000 -0.745
vn -0.953 -0.000 -0.304
vn -0.953 -0.000 0.304
vn -0.667 -0.000 0.745
vn -0.325 -0.000 0.946
vn -0.000 -0.000 1.000
vn -0.000 0.500 0.866
vn 0.278 0.518 0.809
vn 0.549 0.568 0.613
vn 0.748 0.620 0.239
vn 0.748 0.620 -0.239
vn 0.549 0.568 -0.613
vn 0.278 0.518 -0.809
vn 0.000 0.500 -0.866
vn -0.278 0.518 -0.809
vn -0.549 0.568 -0.613
vn -0.748 0.620 -0.239
vn -0.748 0.620 0.239
vn -0.549 0.568 0.613
vn -0.278 0.518 0.809
vn -0.000 0.500 0.866
vn -0.000 0.866 0.500
vn 0.157 0.876 0.456
vn 0.290 0.900 0.324
vn 0.370 0.921 0.118
vn 0.370 0.921 -0.118
vn 0.290 0.900 -0.324
vn 0.157 0.876 -0.456
vn 0.000 0.866 -0.500
vn -0.157 0.876 -0.456
vn -0.290 0.900 -0.324
vn -0.370 0.921 -0.118
vn -0.370 0.921 0.118
vn -0.290 0.900 0.324
vn -0.157 0.876 0.456
vn -0.000 0.866 0.500
vn -0.000 0.866 0.500
vn 0.157 0.876 0.456
vn 0.290 0.900 0.324
vn 0.370 0.921 0.118
vn 0.370 0.921 -0.118
vn 0.290 0.900 -0.324
vn 0.157 0.876 -0.456
vn 0.000 0.866 -0.500
vn -0.157 0.876 -0.456
vn -0.290 0.900 -0.324
vn -0.370 0.921 -0.118
vn -0.370 0.921 0.118
vn -0.290 0.900 0.324
vn -0.157 0.876 0.456
vn -0.000 0.866 0.500
usemtl hair
f 1/1/1 2/2/2 23/23/23
f 1/1/1 23/23/23 22/22/22
f 2/2/2 3/3/3 24/24/24
f 2/2/2 24/24/24 23/23/23
f 3/3/3 4/4/4 25/25/25
f 3/3/3 25/25/25 24/24/24
f 4/4/4 5/5/5 26/26/26
f 4/4/4 26/26/26 25/25/25
f 5/5/5 6/6/6 27/27/27
f 5/5/5 27/27/27 26/26/26
f 6/6/6 7/7/7 28/28/28
f 6/6/6 28/28/28 27/27/27
f 7/7/7 8/8/8 29/29/29
f 7/7/7 29/29/29 28/28/28
f 8/8/8 9/9/9 30/30/30
f 8/8/8 30/30/30 29/29/29
f 9/9/9 10/10/10 31/31/31
f 9/9/9 31/31/31 30/30/30
f 10/10/10 11/11/11 32/32/32
f 10/10/10 32/32/32 31/31/31
f 11/11/11 12/12/12 33/33/33
f 11/11/11 33/33/33 32/32/32
f 12/12/12 13/13/13 34/34/34
f 12/12/12 34/34/34 33/33/33
f 13/13/13 14/14/14 35/35/35
f 13/13/13 35/35/35 34/34/34
f 14/14/14 15/15/15 36/36/36
f 14/14/14 36/36/36 35/35/35
f 15/15/15 16/16/16 37/37/37
f 15/15/15 37/37/37 36/36/36
f 16/16/16 17/17/17 38/38/38
f 16/16/16 38/38/38 37/37/37
f 17/17/17 18/18/18 39/39/39
f 17/17/17 39/39/39 38/38/38
f 18/18/18 19/19/19 40/40/40
f 18/18/18 40/40/40 39/39/39
f 19/19/19 20/20/20 41/41/41
f 19/19/19 41/41/41 40/40/40
f 20/20/20 21/21/21 42/42/42
f 20/20/20 42/42/42 41/41/41
f 22/22/22 23/23/23 44/44/44
f 22/22/22 44/44/44 43/43/43
f 23/23/23 24/24/24 45/45/45
f 23/23/23 45/45/45 44/44/44
f 24/24/24 25/25/25 46/46/46
f 24/24/24 46/46/46 45/45/45
f 25/25/25 26/26/26 47/47/47
f 25/25/25 47/47/47 46/46/46
f 26/26/26 27/27/27 48/48/48
f 26/26/26 48/48/48 47/47/47
f 27/27/27 28/28/28 49/49/49
f 27/27/27 49/49/49 48/48/48
f 28/28/28 29/29/29 50/50/50
f 28/28/28 50/50/50 49/49/49
f 29/29/29 30/30/30 51/51/51
f 29/29/29 51/51/51 50/50/50
f 30/30/30 31/31/31 52/52/52
f 30/30/30 52/52/52 51/51/51
f 31/31/31 32/32/32 53/53/53
f 31/31/31 53/53/53 52/52/52
f 32/32/32 33/33/33 54/54/54
f 32/32/32 54/54/54 53/53/53
f 33/33/33 34/34/34 55/55/55
f 33/33/33 55/55/55 54/54/54
f 34/34/34 35/35/35 56/56/56
f 34/34/34 56/56/56 55/55/55
f 35/35/35 36/36/36 57/57/57
f 35/35/35 57/57/57 56/56/56
f 36/36/36 37/37/37 58/58/58
f 36/36/36 58/58/58 57/57/57
f 37/37/37 38/38/38 59/59/59
f 37/37/37 59/59/59 58/58/58
f 38/38/38 39/39/39 60/60/60
f 38/38/38 60/60/60 59/59/59
f 39/39/39 40/40/40 61/61/61
f 39/39/39 61/61/61 60/60/60
f 40/40/40 41/41/41 62/62/62
f 40/40/40 62/62/62 61/61/61
f 41/41/41 42/42/42 63/63/63
f 41/41/41 63/63/63 62/62/62
f 43/43/43 44/44/44 65/65/65
f 43/43/43 65/65/65 64/64/64
f 44/44/44 45/45/45 66/66/66
f 44/44/44 66/66/66 65/65/65
f 45/45/45 46/46/46 67/67/67
f 45/45/45 67/67/67 66/66/66
f 46/46/46 47/47/47 68/68/68
f 46/46/46 68/68/68 67/67/67
f 47/47/47 48/48/48 69/69/69
f 47/47/47 69/69/69 68/68/68
f 48/48/48 49/49/49 70/70/70
f 48/48/48 70/70/70 69/69/69
f 49/49/49 50/50/50 71/71/71
f 49/49/49 71/71/71 70/70/70
f 50/50/50 51/51/51 72/72/72
f 50/50/50 72/72/72 71/71/71
f 51/51/51 52/52/52 73/73/73
f 51/51/51 73/73/73 72/72/72
f 52/52/52 53/53/53 74/74/74
f 52/52/52 74/74/74 73/73/73
f 53/53/53 54/54/54 75/75/75
f 53/53/53 75/75/75 74/74/74
f 54/54/54 55/55/55 76/76/76
f 54/54/54 76/76/76 75/75/75
f 55/55/55 56/56/56 77/77/77
f 55/55/55 77/77/77 76/76/76
f 56/56/56 57/57/57 78/78/78
f 56/56/56 78/78/78 77/77/77
f 57/57/57 58/58/58 79/79/79
f 57/57/57 79/79/79 78/78/78
f 58/58/58 59/59/59 80/80/80
f 58/58/58 80/80/80 79/79/79
f 59/59/59 60/60/60 81/81/81
f 59/59/59 81/81/81 80/80/80
f 60/60/60 61/61/61 82/82/82
f 60/60/60 82/82/82 81/81/81
f 61/61/61 62/62/62 83/83/83
f 61/61/61 83/83/83 82/82/82
f 62/62/62 63/63/63 84/84/84
f 62/62/62 84/84/84 83/83/83
f 64/64/64 65/65/65 86/86/86
f 64/64/64 86/86/86 85/85/85
f 65/65/65 66/66/66 87/87/87
f 65/65/65 87/87/87 86/86/86
f 66/66/66 67/67/67 88/88/88
f 66/66/66 88/88/88 87/87/87
f 67/67/67 68/68/68 89/89/89
f 67/67/67 89/89/89 88/88/88
f 68/68/68 69/69/69 90/90/90
f 68/68/68 90/90/90 89/89/89
f 69/69/69 70/70/70 91/91/91
f 69/69/69 91/91/91 90/90/90
f 70/70/70 71/71/71 92/92/92
f 70/70/70 92/92/92 91/91/91
f 71/71/71 72/72/72 93/93/93
f 71/71/71 93/93/93 92/92/92
f 72/72/72 73/73/73 94/94/94
f 72/72/72 94/94/94 93/93/93
f 73/73/73 74/74/74 95/95/95
f 73/73/73 95/95/95 94/94/94
f 74/74/74 75/75/75 96/96/96
f 74/74/74 96/96/96 95/95/95
f 75/75/75 76/76/76 97/97/97
f 75/75/75 97/97/97 96/96/96
f 76/76/76 77/77/77 98/98/98
f 76/76/76 98/98/98 97/97/97
f 77/77/77 78/78/78 99/99/99
f 77/77/77 99/99/99 98/98/98
f 78/78/78 79/79/79 100/100/100
f 78/78/78 100/100/100 99/99/99
f 79/79/79 80/80/80 101/101/101
f 79/79/79 101/101/101 100/100/100
f 80/80/80 81/81/81 102/102/102
f 80/80/80 102/102/102 101/101/101
f 81/81/81 82/82/82 103/103/103
f 81/81/81 103/103/103 102/102/102
f 82/82/82 83/83/83 104/104/104
f 82/82/82 104/104/104 103/103/103
f 83/83/83 84/84/84 105/105/105
f 83/83/83 105/105/105 104/104/104
f 85/85/85 86/86/86 107/107/107
f 85/85/85 107/107/107 106/106/106
f 86/86/86 87/87/87 108/108/108
f 86/86/86 108/108/108 107/107/107
f 87/87/87 88/88/88 109/109/109
f 87/87/87 109/109/109 108/108/108
f 88/88/88 89/89/89 110/110/110
f 88/88/88 110/110/110 109/109/109
f 89/89/89 90/90/90 111/111/111
f 89/89/89 111/111/111 110/110/110
f 90/90/90 91/91/91 112/112/112
f 90/90/90 112/112/112 111/111/111
f 91/91/91 92/92/92 113/113/113
f 91/91/91 113/113/113 112/112/112
f 92/92/92 93/93/93 114/114/114
f 92/92/92 114/114/114 113/113/113
f 93/93/93 94/94/94 115/115/115
f 93/93/93 115/115/115 114/114/114
f 94/94/94 95/95/95 116/116/116
f 94/94/94 116/116/116 115/115/115
f 95/95/95 96/96/96 117/117/117
f 95/95/95 117/117/117 116/116/116
f 96/96/96 97/97/97 118/118/118
f 96/96/96 118/118/118 117/117/117
f 97/97/97 98/98/98 119/119/119
f 97/97/97 119/119/119 118/118/118
f 98/98/98 99/99/99 120/120/120
f 98/98/98 120/120/120 119/119/119
f 99/99/99 100/100/100 121/121/121
f 99/99/99 121/121/121 120/120/120
f 100/100/100 101/101/101 122/122/122
f 100/100/100 122/122/122 121/121/121
f 101/101/101 102/102/102 123/123/123
f 101/101/101 123/123/123 122/122/122
f 102/102/102 103/103/103 124/124/124
f 102/102/102 124/124/124 123/123/123
f 103/103/103 104/104/104 125/125/125
f 103/103/103 125/125/125 124/124/124
f 104/104/104 105/105/105 126/126/126
f 104/104/104 126/126/126 125/125/125
f 106/106/106 107/107/107 128/128/128
f 106/106/106 128/128/128 127/127/127
f 107/107/107 108/108/108 129/129/129
f 107/107/107 129/129/129 128/128/128
f 108/108/108 109/109/109 130/130/130
f 108/108/108 130/130/130 129/129/129
f 109/109/109 110/110/110 131/131/131
f 109/109/109 131/131/131 130/130/130
f 110/110/110 111/111/111 132/132/132
f 110/110/110 132/132/132 131/131/131
f 111/111/111 112/112/112 133/133/133
f 111/111/111 133/133/133 132/132/132
f 112/112/112 113/113/113 134/134/134
f 112/112/112 134/134/134 133/133/133
f 113/113/113 114/114/114 135/135/135
f 113/113/113 135/135/135 134/134/134
f 114/114/114 115/115/115 136/136/136
f 114/114/114 136/136/136 135/135/135
f 115/115/115 116/116/116 137/137/137
f 115/115/115 137/137/137 136/136/136
f 116/116/116 117/117/117 138/138/138
f 116/116/116 138/138/138 137/137/137
f 117/117/117 118/118/118 139/139/139
f 117/117/117 139/139/139 138/138/138
f 118/118/118 119/119/119 140/140/140
f 118/118/118 140/140/140 139/139/139
f 119/119/119 120/120/120 141/141/141
f 119/119/119 141/141/141 140/140/140
f 120/120/120 121/121/121 142/142/142
f 120/120/120 142/142/142 141/141/141
f 121/121/121 122/122/122 143/143/143
f 121/121/121 143/143/143 142/142/142
f 122/122/122 123/123/123 144/144/144
f 122/122/122 144/144/144 143/143/143
f 123/123/123 124/124/124 145/145/145
f 123/123/123 145/145/145 144/144/144
f 124/124/124 125/125/125 146/146/146
f 124/124/124 146/146/146 145/145/145
f 125/125/125 126/126/126 147/147/147
f 125/125/125 147/147/147 146/146/146
f 127/127/127 128/128/128 149/149/149
f 127/127/127 149/149/149 148/148/148
f 128/128/128 129/129/129 150/150/150
f 128/128/128 150/150/150 149/149/149
f 129/129/129 130/130/130 151/151/151
f 129/129/129 151/151/151 150/150/150
f 130/130/130 131/131/131 152/152/152
f 130/130/130 152/152/152 151/151/151
f 131/131/131 132/132/132 153/153/153
f 131/131/131 153/153/153 152/152/152
f 132/132/132 133/133/133 154/154/154
f 132/132/132 154/154/154 153/153/153
f 133/133/133 134/134/134 155/155/155
f 133/133/133 155/155/155 154/154/154
f 134/134/134 135/135/135 156/156/156
f 134/134/134 156/156/156 155/155/155
f 135/135/135 136/136/136 157/157/157
f 135/135/135 157/157/157 156/156/156
f 136/136/136 137/137/137 158/158/158
f 136/136/136 158/158/158 157/157/157
f 137/137/137 138/138/138 159/159/159
f 137/137/137 159/159/159 158/158/158
f 138/138/138 139/139/139 160/160/160
f 138/138/138 160/160/160 159/159/159
f 139/139/139 140/140/140 161/161/161
f 139/139/139 161/161/161 160/160/160
f 140/140/140 141/141/141 162/162/162
f 140/140/140 162/162/162 161/161/161
f 141/141/141 142/142/142 163/163/163
f 141/141/141 163/163/163 162/162/162
f 142/142/142 143/143/143 164/164/164
f 142/142/142 164/164/164 163/163/163
f 143/143/143 144/144/144 165/165/165
f 143/143/143 165/165/165 164/164/164
f 144/144/144 145/145/145 166/166/166
f 144/144/144 166/166/166 165/165/165
f 145/145/145 146/146/146 167/167/167
f 145/145/145 167/167/167 166/166/166
f 146/146/146 147/147/147 168/168/168
f 146/146/146 168/168/168 167/167/167
f 148/148/148 149/149/149 170/170/170
f 148/148/148 170/170/170 169/169/169
f 149/149/149 150/150/150 171/171/171
f 149/149/149 171/171/171 170/170/170
f 150/150/150 151/151/151 172/172/172
f 150/150/150 172/172/172 171/171/171
f 151/151/151 152/152/152 173/173/173
f 151/151/151 173/173/173 172/172/172
f 152/152/152 153/153/153 174/174/174
f 152/152/152 174/174/174 173/173/173
f 153/153/153 154/154/154 175/175/175
f 153/153/153 175/175/175 174/174/174
f 154/154/154 155/155/155 176/176/176
f 154/154/154 176/176/176 175/175/175
f 155/155/155 156/156/156 177/177/177
f 155/155/155 177/177/177 176/176/176
f 156/156/156 157/157/157 178/178/178
f 156/156/156 178/178/178 177/177/177
f 157/157/157 158/158/158 179/179/179
f 157/157/157 179/179/179 178/178/178
f 158/158/158 159/159/159 180/180/180
f 158/158/158 180/180/180 179/179/179
f 159/159/159 160/160/160 181/181/181
f 159/159/159 181/181/181 180/180/180
f 160/160/160 161/161/161 182/182/182
f 160/160/160 182/182/182 181/181/181
f 161/161/161 162/162/162 183/183/183
f 161/161/161 183/183/183 182/182/182
f 162/162/162 163/163/163 184/184/184
f 162/162/162 184/184/184 183/183/183
f 163/163/163 164/164/164 185/185/185
f 163/163/163 185/185/185 184/184/184
f 164/164/164 165/165/165 186/186/186
f 164/164/164 186/186/186 185/185/185
f 165/165/165 166/166/166 187/187/187
f 165/165/165 187/187/187 186/186/186
f 166/166/166 167/167/167 188/188/188
f 166/166/166 188/188/188 187/187/187
f 167/167/167 168/168/168 189/189/189
f 167/167/167 189/189/189 188/188/188
f 169/169/169 170/170/170 191/191/191
f 169/169/169 191/191/191 190/190/190
f 170/170/170 171/171/171 192/192/192
f 170/170/170 192/192/192 191/191/191
f 171/171/171 172/172/172 193/193/193
f 171/171/171 193/193/193 192/192/192
f 172/172/172 173/173/173 194/194/194
f 172/172/172 194/194/194 193/193/193
f 173/173/173 174/174/174 195/195/195
f 173/173/173 195/195/195 194/194/194
f 174/174/174 175/175/175 196/196/196
f 174/174/174 196/196/196 195/195/195
f 175/175/175 176/176/176 197/197/197
f 175/175/175 197/197/197 196/196/196
f 176/176/176 177/177/177 198/198/198
f 176/176/176 198/198/198 197/197/197
f 177/177/177 178/178/178 199/199/199
f 177/177/177 199/199/199 198/198/198
f 178/178/178 179/179/179 200/200/200
f 178/178/178 200/200/200 199/199/199
f 179/179/179 180/180/180 201/201/201
f 179/179/179 201/201/201 200/200/200
f 180/180/180 181/181/181 202/202/202
f 180/180/180 202/202/202 201/201/201
f 181/181/181 182/182/182 203/203/203
f 181/181/181 203/203/203 202/202/202
f 182/182/182 183/183/183 204/204/204
f 182/182/182 204/204/204 203/203/203
f 183/183/183 184/184/184 205/205/205
f 183/183/183 205/205/205 204/204/204
f 184/184/184 185/185/185 206/206/206
f 184/184/184 206/206/206 205/205/205
f 185/185/185 186/186/186 207/207/207
f 185/185/185 207/207/207 206/206/206
f 186/186/186 187/187/187 208/208/208
f 186/186/186 208/208/208 207/207/207
f 187/187/187 188/188/188 209/209/209
f 187/187/187 209/209/209 208/208/208
f 188/188/188 189/189/189 210/210/210
f 188/188/188 210/210/210 209/209/209
f 190/190/190 191/191/191 212/212/212
f 190/190/190 212/212/212 211/211/211
f 191/191/191 192/192/192 213/213/213
f 191/191/191 213/213/213 212/212/212
f 192/192/192 193/193/193 214/214/214
f 192/192/192 214/214/214 213/213/213
f 193/193/193 194/194/194 215/215/215
f 193/193/193 215/215/215 214/214/214
f 194/194/194 195/195/195 216/216/216
f 194/194/194 216/216/216 215/215/215
f 195/195/195 196/196/196 217/217/217
f 195/195/195 217/217/217 216/216/216
f 196/196/196 197/197/197 218/218/218
f 196/196/196 218/218/218 217/217/217
f 197/197/197 198/198/198 219/219/219
f 197/197/197 219/219/219 218/218/218
f 198/198/198 199/199/199 220/220/220
f 198/198/198 220/220/220 219/219/219
f 199/199/199 200/200/200 221/221/221
f 199/199/199 221/221/221 220/220/220
f 200/200/200 201/201/201 222/222/222
f 200/200/200 222/222/222 221/221/221
f 201/201/201 202/202/202 223/223/223
f 201/201/201 223/223/223 222/222/222
f 202/202/202 203/203/203 224/224/224
f 202/202/202 224/224/224 223/223/223
f 203/203/203 204/204/204 225/225/225
f 203/203/203 225/225/225 224/224/224
f 204/204/204 205/205/205 226/226/226
f 204/204/204 226/226/226 225/225/225
f 205/205/205 206/206/206 227/227/227
f 205/205/205 227/227/227 226/226/226
f 206/206/206 207/207/207 228/228/228
f 206/206/206 228/228/228 227/227/227
f 207/207/207 208/208/208 229/229/229
f 207/207/207 229/229/229 228/228/228
f 208/208/208 209/209/209 230/230/230
f 208/208/208 230/230/230 229/229/229
f 209/209/209 210/210/210 231/231/231
f 209/209/209 231/231/231 230/230/230
f 232/232/232 233/233/233 248/248/248
f 232/232/232 248/248/248 247/247/247
f 233/233/233 234/234/234 249/249/249
f 233/233/233 249/249/249 248/248/248
f 234/234/234 235/235/235 250/250/250
f 234/234/234 250/250/250 249/249/249
f 235/235/235 236/236/236 251/251/251
f 235/235/235 251/251/251 250/250/250
f 236/236/236 237/237/237 252/252/252
f 236/236/236 252/252/252 251/251/251
f 237/237/237 238/238/238 253/253/253
f 237/237/237 253/253/253 252/252/252
f 238/238/238 239/239/239 254/254/254
f 238/238/238 254/254/254 253/253/253
f 239/239/239 240/240/240 255/255/255
f 239/239/239 255/255/255 254/254/254
f 240/240/240 241/241/241 256/256/256
f 240/240/240 256/256/256 255/255/255
f 241/241/241 242/242/242 257/257/257
f 241/241/241 257/257/257 256/256/256
f 242/242/242 243/243/243 258/258/258
f 242/242/242 258/258/258 257/257/257
f 243/243/243 244/244/244 259/259/259
f 243/243/243 259/259/259 258/258/258
f 244/244/244 245/245/245 260/260/260
f 244/244/244 260/260/260 259/259/259
f 245/245/245 246/246/246 261/261/261
f 245/245/245 261/261/261 260/260/260
f 247/247/247 248/248/248 263/263/263
f 247/247/247 263/263/263 262/262/262
f 248/248/248 249/249/249 264/264/264
f 248/248/248 264/264/264 263/263/263
f 249/249/249 250/250/250 265/265/265
f 249/249/249 265/265/265 264/264/264
f 250/250/250 251/251/251 266/266/266
f 250/250/250 266/266/266 265/265/265
f 251/251/251 252/252/252 267/267/267
f 251/251/251 267/267/267 266/266/266
f 252/252/252 253/253/253 268/268/268
f 252/252/252 268/268/268 267/267/267
f 253/253/253 254/254/254 269/269/269
f 253/253/253 269/269/269 268/268/268
f 254/254/254 255/255/255 270/270/270
f 254/254/254 270/270/270 269/269/269
f 255/255/255 256/256/256 271/271/271
f 255/255/255 271/271/271 270/270/270
f 256/256/256 257/257/257 272/272/272
f 256/256/256 272/272/272 271/271/271
f 257/257/257 258/258/258 273/273/273
f 257/257/257 273/273/273 272/272/272
f 258/258/258 259/259/259 274/274/274
f 258/258/258 274/274/274 273/273/273
f 259/259/259 260/260/260 275/275/275
f 259/259/259 275/275/275 274/274/274
f 260/260/260 261/261/261 276/276/276
f 260/260/260 276/276/276 275/275/275
f 262/262/262 263/263/263 278/278/278
f 262/262/262 278/278/278 277/277/277
f 263/263/263 264/264/264 279/279/279
f 263/263/263 279/279/279 278/278/278
f 264/264/264 265/265/265 280/280/280
f 264/264/264 280/280/280 279/279/279
f 265/265/265 266/266/266 281/281/281
f 265/265/265 281/281/281 280/280/280
f 266/266/266 267/267/267 282/282/282
f 266/266/266 282/282/282 281/281/281
f 267/267/267 268/268/268 283/283/283
f 267/267/267 283/283/283 282/282/282
f 268/268/268 269/269/269 284/284/284
f 268/268/268 284/284/284 283/283/283
f 269/269/269 270/270/270 285/285/285
f 269/269/269 285/285/285 284/284/284
f 270/270/270 271/271/271 286/286/286
f 270/270/270 286/286/286 285/285/285
f 271/271/271 272/272/272 287/287/287
f 271/271/271 287/287/287 286/286/286
f 272/272/272 273/273/273 288/288/288
f 272/272/272 288/288/288 287/287/287
f 273/273/273 274/274/274 289/289/289
f 273/273/273 289/289/289 288/288/288
f 274/274/274 275/275/275 290/290/290
f 274/274/274 290/290/290 289/289/289
f 275/275/275 276/276/276 291/291/291
f 275/275/275 291/291/291 290/290/290
f 277/277/277 278/278/278 293/293/293
f 277/277/277 293/293/293 292/292/292
f 278/278/278 279/279/279 294/294/294
f 278/278/278 294/294/294 293/293/293
f 279/279/279 280/280/280 295/295/295
f 279/279/279 295/295/295 294/294/294
f 280/280/280 281/281/281 296/296/296
f 280/280/280 296/296/296 295/295/295
f 281/281/281 282/282/282 297/297/297
f 281/281/281 297/297/297 296/296/296
f 282/282/282 283/283/283 298/298/298
f 282/282/282 298/298/298 297/297/297
f 283/283/283 284/284/284 299/299/299
f 283/283/283 299/299/299 298/298/298
f 284/284/284 285/285/285 300/300/300
f 284/284/284 300/300/300 299/299/299
f 285/285/285 286/286/286 301/301/301
f 285/285/285 301/301/301 300/300/300
f 286/286/286 287/287/287 302/302/302
f 286/286/286 302/302/302 301/301/301
f 287/287/287 288/288/288 303/303/303
f 287/287/287 303/303/303 302/302/302
f 288/288/288 289/289/289 304/304/304
f 288/288/288 304/304/304 303/303/303
f 289/289/289 290/290/290 305/305/305
f 289/289/289 305/305/305 304/304/304
f 290/290/290 291/291/291 306/306/306
f 290/290/290 306/306/306 305/305/305
f 292/292/292 293/293/293 308/308/308
f 292/292/292 308/308/308 307/307/307
f 293/293/293 294/294/294 309/309/309
f 293/293/293 309/309/309 308/308/308
f 294/294/294 295/295/295 310/310/310
f 294/294/294 310/310/310 309/309/309
f 295/295/295 296/296/296 311/311/311
f 295/295/295 311/311/311 310/310/310
f 296/296/296 297/297/297 312/312/312
f 296/296/296 312/312/312 311/311/311
f 297/297/297 298/298/298 313/313/313
f 297/297/297 313/313/313 312/312/312
f 298/298/298 299/299/299 314/314/314
f 298/298/298 314/314/314 313/313/313
f 299/299/299 300/300/300 315/315/315
f 299/299/299 315/315/315 314/314/314
f 300/300/300 301/301/301 316/316/316
f 300/300/300 316/316/316 315/315/315
f 301/301/301 302/302/302 317/317/317
f 301/301/301 317/317/317 316/316/316
f 302/302/302 303/303/303 318/318/318
f 302/302/302 318/318/318 317/317/317
f 303/303/303 304/304/304 319/319/319
f 303/303/303 319/319/319 318/318/318
f 304/304/304 305/305/305 320/320/320
f 304/304/304 320/320/320 319/319/319
f 305/305/305 306/306/306 321/321/321
f 305/305/305 321/321/321 320/320/320
f 307/307/307 308/308/308 323/323/323
f 307/307/307 323/323/323 322/322/322
f 308/308/308 309/309/309 324/324/324
f 308/308/308 324/324/324 323/323/323
f 309/309/309 310/310/310 325/325/325
f 309/309/309 325/325/325 324/324/324
f 310/310/310 311/311/311 326/326/326
f 310/310/310 326/326/326 325/325/325
f 311/311/311 312/312/312 327/327/327
f 311/311/311 327/327/327 326/326/326
f 312/312/312 313/313/313 328/328/328
f 312/312/312 328/328/328 327/327/327
f 313/313/313 314/314/314 329/329/329
f 313/313/313 329/329/329 328/328/328
f 314/314/314 315/315/315 330/330/330
f 314/314/314 330/330/330 329/329/329
f 315/315/315 316/316/316 331/331/331
f 315/315/315 331/331/331 330/330/330
f 316/316/316 317/317/317 332/332/332
f 316/316/316 332/332/332 331/331/331
f 317/317/317 318/318/318 333/333/333
f 317/317/317 333/333/333 332/332/332
f 318/318/318 319/319/319 334/334/334
f 318/318/318 334/334/334 333/333/333
f 319/319/319 320/320/320 335/335/335
f 319/319/319 335/335/335 334/334/334
f 320/320/320 321/321/321 336/336/336
f 320/320/320 336/336/336 335/335/335
