# Sinh tự động bởi tools/mesh_kit.py - đừng sửa tay
o p_head
v 0.0000 -0.1050 0.0000
v 0.0000 -0.1050 0.0000
v 0.0000 -0.1050 0.0000
v 0.0000 -0.1050 0.0000
v 0.0000 -0.1050 0.0000
v 0.0000 -0.1050 0.0000
v 0.0000 -0.1050 -0.0000
v 0.0000 -0.1050 -0.0000
v 0.0000 -0.1050 -0.0000
v 0.0000 -0.1050 -0.0000
v 0.0000 -0.1050 -0.0000
v -0.0000 -0.1050 -0.0000
v -0.0000 -0.1050 -0.0000
v -0.0000 -0.1050 -0.0000
v -0.0000 -0.1050 -0.0000
v -0.0000 -0.1050 -0.0000
v -0.0000 -0.1050 0.0000
v -0.0000 -0.1050 0.0000
v -0.0000 -0.1050 0.0000
v -0.0000 -0.1050 0.0000
v -0.0000 -0.1050 0.0000
v 0.0000 -0.1014 0.0254
v 0.0066 -0.1014 0.0241
v 0.0125 -0.1014 0.0205
v 0.0172 -0.1014 0.0149
v 0.0202 -0.1014 0.0078
v 0.0212 -0.1014 0.0000
v 0.0202 -0.1014 -0.0078
v 0.0172 -0.1014 -0.0149
v 0.0125 -0.1014 -0.0205
v 0.0066 -0.1014 -0.0241
v 0.0000 -0.1014 -0.0254
v -0.0066 -0.1014 -0.0241
v -0.0125 -0.1014 -0.0205
v -0.0172 -0.1014 -0.0149
v -0.0202 -0.1014 -0.0078
v -0.0212 -0.1014 -0.0000
v -0.0202 -0.1014 0.0078
v -0.0172 -0.1014 0.0149
v -0.0125 -0.1014 0.0205
v -0.0066 -0.1014 0.0241
v -0.0000 -0.1014 0.0254
v 0.0000 -0.0909 0.0490
v 0.0127 -0.0909 0.0466
v 0.0241 -0.0909 0.0396
v 0.0332 -0.0909 0.0288
v 0.0390 -0.0909 0.0151
v 0.0410 -0.0909 0.0000
v 0.0390 -0.0909 -0.0151
v 0.0332 -0.0909 -0.0288
v 0.0241 -0.0909 -0.0396
v 0.0127 -0.0909 -0.0466
v 0.0000 -0.0909 -0.0490
v -0.0127 -0.0909 -0.0466
v -0.0241 -0.0909 -0.0396
v -0.0332 -0.0909 -0.0288
v -0.0390 -0.0909 -0.0151
v -0.0410 -0.0909 -0.0000
v -0.0390 -0.0909 0.0151
v -0.0332 -0.0909 0.0288
v -0.0241 -0.0909 0.0396
v -0.0127 -0.0909 0.0466
v -0.0000 -0.0909 0.0490
v 0.0000 -0.0742 0.0693
v 0.0179 -0.0742 0.0659
v 0.0341 -0.0742 0.0561
v 0.0469 -0.0742 0.0407
v 0.0551 -0.0742 0.0214
v 0.0580 -0.0742 0.0000
v 0.0551 -0.0742 -0.0214
v 0.0469 -0.0742 -0.0407
v 0.0341 -0.0742 -0.0561
v 0.0179 -0.0742 -0.0659
v 0.0000 -0.0742 -0.0693
v -0.0179 -0.0742 -0.0659
v -0.0341 -0.0742 -0.0561
v -0.0469 -0.0742 -0.0407
v -0.0551 -0.0742 -0.0214
v -0.0580 -0.0742 -0.0000
v -0.0551 -0.0742 0.0214
v -0.0469 -0.0742 0.0407
v -0.0341 -0.0742 0.0561
v -0.0179 -0.0742 0.0659
v -0.0000 -0.0742 0.0693
v 0.0000 -0.0525 0.0849
v 0.0219 -0.0525 0.0807
v 0.0417 -0.0525 0.0687
v 0.0575 -0.0525 0.0499
v 0.0675 -0.0525 0.0262
v 0.0710 -0.0525 0.0000
v 0.0675 -0.0525 -0.0262
v 0.0575 -0.0525 -0.0499
v 0.0417 -0.0525 -0.0687
v 0.0219 -0.0525 -0.0807
v 0.0000 -0.0525 -0.0849
v -0.0219 -0.0525 -0.0807
v -0.0417 -0.0525 -0.0687
v -0.0575 -0.0525 -0.0499
v -0.0675 -0.0525 -0.0262
v -0.0710 -0.0525 -0.0000
v -0.0675 -0.0525 0.0262
v -0.0575 -0.0525 0.0499
v -0.0417 -0.0525 0.0687
v -0.0219 -0.0525 0.0807
v -0.0000 -0.0525 0.0849
v 0.0000 -0.0272 0.0947
v 0.0245 -0.0272 0.0900
v 0.0466 -0.0272 0.0766
v 0.0641 -0.0272 0.0556
v 0.0753 -0.0272 0.0293
v 0.0792 -0.0272 0.0000
v 0.0753 -0.0272 -0.0293
v 0.0641 -0.0272 -0.0556
v 0.0466 -0.0272 -0.0766
v 0.0245 -0.0272 -0.0900
v 0.0000 -0.0272 -0.0947
v -0.0245 -0.0272 -0.0900
v -0.0466 -0.0272 -0.0766
v -0.0641 -0.0272 -0.0556
v -0.0753 -0.0272 -0.0293
v -0.0792 -0.0272 -0.0000
v -0.0753 -0.0272 0.0293
v -0.0641 -0.0272 0.0556
v -0.0466 -0.0272 0.0766
v -0.0245 -0.0272 0.0900
v -0.0000 -0.0272 0.0947
v 0.0000 0.0000 0.0980
v 0.0253 0.0000 0.0932
v 0.0482 0.0000 0.0793
v 0.0663 0.0000 0.0576
v 0.0780 0.0000 0.0303
v 0.0820 0.0000 0.0000
v 0.0780 0.0000 -0.0303
v 0.0663 0.0000 -0.0576
v 0.0482 0.0000 -0.0793
v 0.0253 0.0000 -0.0932
v 0.0000 0.0000 -0.0980
v -0.0253 0.0000 -0.0932
v -0.0482 0.0000 -0.0793
v -0.0663 0.0000 -0.0576
v -0.0780 0.0000 -0.0303
v -0.0820 0.0000 -0.0000
v -0.0780 0.0000 0.0303
v -0.0663 0.0000 0.0576
v -0.0482 0.0000 0.0793
v -0.0253 0.0000 0.0932
v -0.0000 0.0000 0.0980
v 0.0000 0.0272 0.0947
v 0.0245 0.0272 0.0900
v 0.0466 0.0272 0.0766
v 0.0641 0.0272 0.0556
v 0.0753 0.0272 0.0293
v 0.0792 0.0272 0.0000
v 0.0753 0.0272 -0.0293
v 0.0641 0.0272 -0.0556
v 0.0466 0.0272 -0.0766
v 0.0245 0.0272 -0.0900
v 0.0000 0.0272 -0.0947
v -0.0245 0.0272 -0.0900
v -0.0466 0.0272 -0.0766
v -0.0641 0.0272 -0.0556
v -0.0753 0.0272 -0.0293
v -0.0792 0.0272 -0.0000
v -0.0753 0.0272 0.0293
v -0.0641 0.0272 0.0556
v -0.0466 0.0272 0.0766
v -0.0245 0.0272 0.0900
v -0.0000 0.0272 0.0947
v 0.0000 0.0525 0.0849
v 0.0219 0.0525 0.0807
v 0.0417 0.0525 0.0687
v 0.0575 0.0525 0.0499
v 0.0675 0.0525 0.0262
v 0.0710 0.0525 0.0000
v 0.0675 0.0525 -0.0262
v 0.0575 0.0525 -0.0499
v 0.0417 0.0525 -0.0687
v 0.0219 0.0525 -0.0807
v 0.0000 0.0525 -0.0849
v -0.0219 0.0525 -0.0807
v -0.0417 0.0525 -0.0687
v -0.0575 0.0525 -0.0499
v -0.0675 0.0525 -0.0262
v -0.0710 0.0525 -0.0000
v -0.0675 0.0525 0.0262
v -0.0575 0.0525 0.0499
v -0.0417 0.0525 0.0687
v -0.0219 0.0525 0.0807
v -0.0000 0.0525 0.0849
v 0.0000 0.0742 0.0693
v 0.0179 0.0742 0.0659
v 0.0341 0.0742 0.0561
v 0.0469 0.0742 0.0407
v 0.0551 0.0742 0.0214
v 0.0580 0.0742 0.0000
v 0.0551 0.0742 -0.0214
v 0.0469 0.0742 -0.0407
v 0.0341 0.0742 -0.0561
v 0.0179 0.0742 -0.0659
v 0.0000 0.0742 -0.0693
v -0.0179 0.0742 -0.0659
v -0.0341 0.0742 -0.0561
v -0.0469 0.0742 -0.0407
v -0.0551 0.0742 -0.0214
v -0.0580 0.0742 -0.0000
v -0.0551 0.0742 0.0214
v -0.0469 0.0742 0.0407
v -0.0341 0.0742 0.0561
v -0.0179 0.0742 0.0659
v -0.0000 0.0742 0.0693
v 0.0000 0.0909 0.0490
v 0.0127 0.0909 0.0466
v 0.0241 0.0909 0.0396
v 0.0332 0.0909 0.0288
v 0.0390 0.0909 0.0151
v 0.0410 0.0909 0.0000
v 0.0390 0.0909 -0.0151
v 0.0332 0.0909 -0.0288
v 0.0241 0.0909 -0.0396
v 0.0127 0.0909 -0.0466
v 0.0000 0.0909 -0.0490
v -0.0127 0.0909 -0.0466
v -0.0241 0.0909 -0.0396
v -0.0332 0.0909 -0.0288
v -0.0390 0.0909 -0.0151
v -0.0410 0.0909 -0.0000
v -0.0390 0.0909 0.0151
v -0.0332 0.0909 0.0288
v -0.0241 0.0909 0.0396
v -0.0127 0.0909 0.0466
v -0.0000 0.0909 0.0490
v 0.0000 0.1014 0.0254
v 0.0066 0.1014 0.0241
v 0.0125 0.1014 0.0205
v 0.0172 0.1014 0.0149
v 0.0202 0.1014 0.0078
v 0.0212 0.1014 0.0000
v 0.0202 0.1014 -0.0078
v 0.0172 0.1014 -0.0149
v 0.0125 0.1014 -0.0205
v 0.0066 0.1014 -0.0241
v 0.0000 0.1014 -0.0254
v -0.0066 0.1014 -0.0241
v -0.0125 0.1014 -0.0205
v -0.0172 0.1014 -0.0149
v -0.0202 0.1014 -0.0078
v -0.0212 0.1014 -0.0000
v -0.0202 0.1014 0.0078
v -0.0172 0.1014 0.0149
v -0.0125 0.1014 0.0205
v -0.0066 0.1014 0.0241
v -0.0000 0.1014 0.0254
v 0.0000 0.1050 0.0000
v 0.0000 0.1050 0.0000
v 0.0000 0.1050 0.0000
v 0.0000 0.1050 0.0000
v 0.0000 0.1050 0.0000
v 0.0000 0.1050 0.0000
v 0.0000 0.1050 -0.0000
v 0.0000 0.1050 -0.0000
v 0.0000 0.1050 -0.0000
v 0.0000 0.1050 -0.0000
v 0.0000 0.1050 -0.0000
v -0.0000 0.1050 -0.0000
v -0.0000 0.1050 -0.0000
v -0.0000 0.1050 -0.0000
v -0.0000 0.1050 -0.0000
v -0.0000 0.1050 -0.0000
v -0.0000 0.1050 0.0000
v -0.0000 0.1050 0.0000
v -0.0000 0.1050 0.0000
v -0.0000 0.1050 0.0000
v -0.0000 0.1050 0.0000
v 0.0000 -0.1200 -0.0250
v 0.0000 -0.1200 -0.0250
v 0.0000 -0.1200 -0.0250
v 0.0000 -0.1200 -0.0250
v 0.0000 -0.1200 -0.0250
v 0.0000 -0.1200 -0.0250
v 0.0000 -0.1200 -0.0250
v 0.0000 -0.1200 -0.0250
v -0.0000 -0.1200 -0.0250
v -0.0000 -0.1200 -0.0250
v -0.0000 -0.1200 -0.0250
v -0.0000 -0.1200 -0.0250
v -0.0000 -0.1200 -0.0250
v -0.0000 -0.1200 -0.0250
v -0.0000 -0.1200 -0.0250
v 0.0000 -0.1154 0.0018
v 0.0110 -0.1154 -0.0009
v 0.0197 -0.1154 -0.0083
v 0.0246 -0.1154 -0.0190
v 0.0246 -0.1154 -0.0310
v 0.0197 -0.1154 -0.0417
v 0.0110 -0.1154 -0.0491
v 0.0000 -0.1154 -0.0518
v -0.0110 -0.1154 -0.0491
v -0.0197 -0.1154 -0.0417
v -0.0246 -0.1154 -0.0310
v -0.0246 -0.1154 -0.0190
v -0.0197 -0.1154 -0.0083
v -0.0110 -0.1154 -0.0009
v -0.0000 -0.1154 0.0018
v 0.0000 -0.1024 0.0245
v 0.0202 -0.1024 0.0196
v 0.0365 -0.1024 0.0059
v 0.0455 -0.1024 -0.0140
v 0.0455 -0.1024 -0.0360
v 0.0365 -0.1024 -0.0559
v 0.0202 -0.1024 -0.0696
v 0.0000 -0.1024 -0.0745
v -0.0202 -0.1024 -0.0696
v -0.0365 -0.1024 -0.0559
v -0.0455 -0.1024 -0.0360
v -0.0455 -0.1024 -0.0140
v -0.0365 -0.1024 0.0059
v -0.0202 -0.1024 0.0196
v -0.0000 -0.1024 0.0245
v 0.0000 -0.0830 0.0397
v 0.0265 -0.0830 0.0333
v 0.0477 -0.0830 0.0153
v 0.0594 -0.0830 -0.0106
v 0.0594 -0.0830 -0.0394
v 0.0477 -0.0830 -0.0653
v 0.0265 -0.0830 -0.0833
v 0.0000 -0.0830 -0.0897
v -0.0265 -0.0830 -0.0833
v -0.0477 -0.0830 -0.0653
v -0.0594 -0.0830 -0.0394
v -0.0594 -0.0830 -0.0106
v -0.0477 -0.0830 0.0153
v -0.0265 -0.0830 0.0333
v -0.0000 -0.0830 0.0397
v 0.0000 -0.0600 0.0450
v 0.0286 -0.0600 0.0381
v 0.0516 -0.0600 0.0186
v 0.0643 -0.0600 -0.0094
v 0.0643 -0.0600 -0.0406
v 0.0516 -0.0600 -0.0686
v 0.0286 -0.0600 -0.0881
v 0.0000 -0.0600 -0.0950
v -0.0286 -0.0600 -0.0881
v -0.0516 -0.0600 -0.0686
v -0.0643 -0.0600 -0.0406
v -0.0643 -0.0600 -0.0094
v -0.0516 -0.0600 0.0186
v -0.0286 -0.0600 0.0381
v -0.0000 -0.0600 0.0450
v 0.0000 -0.0370 0.0397
v 0.0265 -0.0370 0.0333
v 0.0477 -0.0370 0.0153
v 0.0594 -0.0370 -0.0106
v 0.0594 -0.0370 -0.0394
v 0.0477 -0.0370 -0.0653
v 0.0265 -0.0370 -0.0833
v 0.0000 -0.0370 -0.0897
v -0.0265 -0.0370 -0.0833
v -0.0477 -0.0370 -0.0653
v -0.0594 -0.0370 -0.0394
v -0.0594 -0.0370 -0.0106
v -0.0477 -0.0370 0.0153
v -0.0265 -0.0370 0.0333
v -0.0000 -0.0370 0.0397
v 0.0000 -0.0176 0.0245
v 0.0202 -0.0176 0.0196
v 0.0365 -0.0176 0.0059
v 0.0455 -0.0176 -0.0140
v 0.0455 -0.0176 -0.0360
v 0.0365 -0.0176 -0.0559
v 0.0202 -0.0176 -0.0696
v 0.0000 -0.0176 -0.0745
v -0.0202 -0.0176 -0.0696
v -0.0365 -0.0176 -0.0559
v -0.0455 -0.0176 -0.0360
v -0.0455 -0.0176 -0.0140
v -0.0365 -0.0176 0.0059
v -0.0202 -0.0176 0.0196
v -0.0000 -0.0176 0.0245
v 0.0000 -0.0046 0.0018
v 0.0110 -0.0046 -0.0009
v 0.0197 -0.0046 -0.0083
v 0.0246 -0.0046 -0.0190
v 0.0246 -0.0046 -0.0310
v 0.0197 -0.0046 -0.0417
v 0.0110 -0.0046 -0.0491
v 0.0000 -0.0046 -0.0518
v -0.0110 -0.0046 -0.0491
v -0.0197 -0.0046 -0.0417
v -0.0246 -0.0046 -0.0310
v -0.0246 -0.0046 -0.0190
v -0.0197 -0.0046 -0.0083
v -0.0110 -0.0046 -0.0009
v -0.0000 -0.0046 0.0018
v 0.0000 0.0000 -0.0250
v 0.0000 0.0000 -0.0250
v 0.0000 0.0000 -0.0250
v 0.0000 0.0000 -0.0250
v 0.0000 0.0000 -0.0250
v 0.0000 0.0000 -0.0250
v 0.0000 0.0000 -0.0250
v 0.0000 0.0000 -0.0250
v -0.0000 0.0000 -0.0250
v -0.0000 0.0000 -0.0250
v -0.0000 0.0000 -0.0250
v -0.0000 0.0000 -0.0250
v -0.0000 0.0000 -0.0250
v -0.0000 0.0000 -0.0250
v -0.0000 0.0000 -0.0250
v 0.0000 -0.0420 -0.1000
v 0.0000 -0.0420 -0.1000
v 0.0000 -0.0420 -0.1000
v 0.0000 -0.0420 -0.1000
v 0.0000 -0.0420 -0.1000
v -0.0000 -0.0420 -0.1000
v -0.0000 -0.0420 -0.1000
v -0.0000 -0.0420 -0.1000
v -0.0000 -0.0420 -0.1000
v 0.0000 -0.0391 -0.0920
v 0.0049 -0.0391 -0.0943
v 0.0070 -0.0391 -0.1000
v 0.0049 -0.0391 -0.1057
v 0.0000 -0.0391 -0.1080
v -0.0049 -0.0391 -0.1057
v -0.0070 -0.0391 -0.1000
v -0.0049 -0.0391 -0.0943
v -0.0000 -0.0391 -0.0920
v 0.0000 -0.0310 -0.0861
v 0.0086 -0.0310 -0.0902
v 0.0121 -0.0310 -0.1000
v 0.0086 -0.0310 -0.1098
v 0.0000 -0.0310 -0.1139
v -0.0086 -0.0310 -0.1098
v -0.0121 -0.0310 -0.1000
v -0.0086 -0.0310 -0.0902
v -0.0000 -0.0310 -0.0861
v 0.0000 -0.0200 -0.0840
v 0.0099 -0.0200 -0.0887
v 0.0140 -0.0200 -0.1000
v 0.0099 -0.0200 -0.1113
v 0.0000 -0.0200 -0.1160
v -0.0099 -0.0200 -0.1113
v -0.0140 -0.0200 -0.1000
v -0.0099 -0.0200 -0.0887
v -0.0000 -0.0200 -0.0840
v 0.0000 -0.0090 -0.0861
v 0.0086 -0.0090 -0.0902
v 0.0121 -0.0090 -0.1000
v 0.0086 -0.0090 -0.1098
v 0.0000 -0.0090 -0.1139
v -0.0086 -0.0090 -0.1098
v -0.0121 -0.0090 -0.1000
v -0.0086 -0.0090 -0.0902
v -0.0000 -0.0090 -0.0861
v 0.0000 -0.0009 -0.0920
v 0.0049 -0.0009 -0.0943
v 0.0070 -0.0009 -0.1000
v 0.0049 -0.0009 -0.1057
v 0.0000 -0.0009 -0.1080
v -0.0049 -0.0009 -0.1057
v -0.0070 -0.0009 -0.1000
v -0.0049 -0.0009 -0.0943
v -0.0000 -0.0009 -0.0920
v 0.0000 0.0020 -0.1000
v 0.0000 0.0020 -0.1000
v 0.0000 0.0020 -0.1000
v 0.0000 0.0020 -0.1000
v 0.0000 0.0020 -0.1000
v -0.0000 0.0020 -0.1000
v -0.0000 0.0020 -0.1000
v -0.0000 0.0020 -0.1000
v -0.0000 0.0020 -0.1000
v -0.0820 -0.0380 0.0050
v -0.0820 -0.0380 0.0050
v -0.0820 -0.0380 0.0050
v -0.0820 -0.0380 0.0050
v -0.0820 -0.0380 0.0050
v -0.0820 -0.0380 0.0050
v -0.0820 -0.0380 0.0050
v -0.0820 -0.0380 0.0050
v -0.0820 -0.0380 0.0050
v -0.0820 -0.0342 0.0150
v -0.0778 -0.0342 0.0121
v -0.0760 -0.0342 0.0050
v -0.0778 -0.0342 -0.0021
v -0.0820 -0.0342 -0.0050
v -0.0862 -0.0342 -0.0021
v -0.0880 -0.0342 0.0050
v -0.0862 -0.0342 0.0121
v -0.0820 -0.0342 0.0150
v -0.0820 -0.0240 0.0223
v -0.0747 -0.0240 0.0172
v -0.0716 -0.0240 0.0050
v -0.0747 -0.0240 -0.0072
v -0.0820 -0.0240 -0.0123
v -0.0893 -0.0240 -0.0072
v -0.0924 -0.0240 0.0050
v -0.0893 -0.0240 0.0172
v -0.0820 -0.0240 0.0223
v -0.0820 -0.0100 0.0250
v -0.0735 -0.0100 0.0191
v -0.0700 -0.0100 0.0050
v -0.0735 -0.0100 -0.0091
v -0.0820 -0.0100 -0.0150
v -0.0905 -0.0100 -0.0091
v -0.0940 -0.0100 0.0050
v -0.0905 -0.0100 0.0191
v -0.0820 -0.0100 0.0250
v -0.0820 0.0040 0.0223
v -0.0747 0.0040 0.0172
v -0.0716 0.0040 0.0050
v -0.0747 0.0040 -0.0072
v -0.0820 0.0040 -0.0123
v -0.0893 0.0040 -0.0072
v -0.0924 0.0040 0.0050
v -0.0893 0.0040 0.0172
v -0.0820 0.0040 0.0223
v -0.0820 0.0142 0.0150
v -0.0778 0.0142 0.0121
v -0.0760 0.0142 0.0050
v -0.0778 0.0142 -0.0021
v -0.0820 0.0142 -0.0050
v -0.0862 0.0142 -0.0021
v -0.0880 0.0142 0.0050
v -0.0862 0.0142 0.0121
v -0.0820 0.0142 0.0150
v -0.0820 0.0180 0.0050
v -0.0820 0.0180 0.0050
v -0.0820 0.0180 0.0050
v -0.0820 0.0180 0.0050
v -0.0820 0.0180 0.0050
v -0.0820 0.0180 0.0050
v -0.0820 0.0180 0.0050
v -0.0820 0.0180 0.0050
v -0.0820 0.0180 0.0050
v 0.0820 -0.0380 0.0050
v 0.0820 -0.0380 0.0050
v 0.0820 -0.0380 0.0050
v 0.0820 -0.0380 0.0050
v 0.0820 -0.0380 0.0050
v 0.0820 -0.0380 0.0050
v 0.0820 -0.0380 0.0050
v 0.0820 -0.0380 0.0050
v 0.0820 -0.0380 0.0050
v 0.0820 -0.0342 0.0150
v 0.0862 -0.0342 0.0121
v 0.0880 -0.0342 0.0050
v 0.0862 -0.0342 -0.0021
v 0.0820 -0.0342 -0.0050
v 0.0778 -0.0342 -0.0021
v 0.0760 -0.0342 0.0050
v 0.0778 -0.0342 0.0121
v 0.0820 -0.0342 0.0150
v 0.0820 -0.0240 0.0223
v 0.0893 -0.0240 0.0172
v 0.0924 -0.0240 0.0050
v 0.0893 -0.0240 -0.0072
v 0.0820 -0.0240 -0.0123
v 0.0747 -0.0240 -0.0072
v 0.0716 -0.0240 0.0050
v 0.0747 -0.0240 0.0172
v 0.0820 -0.0240 0.0223
v 0.0820 -0.0100 0.0250
v 0.0905 -0.0100 0.0191
v 0.0940 -0.0100 0.0050
v 0.0905 -0.0100 -0.0091
v 0.0820 -0.0100 -0.0150
v 0.0735 -0.0100 -0.0091
v 0.0700 -0.0100 0.0050
v 0.0735 -0.0100 0.0191
v 0.0820 -0.0100 0.0250
v 0.0820 0.0040 0.0223
v 0.0893 0.0040 0.0172
v 0.0924 0.0040 0.0050
v 0.0893 0.0040 -0.0072
v 0.0820 0.0040 -0.0123
v 0.0747 0.0040 -0.0072
v 0.0716 0.0040 0.0050
v 0.0747 0.0040 0.0172
v 0.0820 0.0040 0.0223
v 0.0820 0.0142 0.0150
v 0.0862 0.0142 0.0121
v 0.0880 0.0142 0.0050
v 0.0862 0.0142 -0.0021
v 0.0820 0.0142 -0.0050
v 0.0778 0.0142 -0.0021
v 0.0760 0.0142 0.0050
v 0.0778 0.0142 0.0121
v 0.0820 0.0142 0.0150
v 0.0820 0.0180 0.0050
v 0.0820 0.0180 0.0050
v 0.0820 0.0180 0.0050
v 0.0820 0.0180 0.0050
v 0.0820 0.0180 0.0050
v 0.0820 0.0180 0.0050
v 0.0820 0.0180 0.0050
v 0.0820 0.0180 0.0050
v 0.0820 0.0180 0.0050
v 0.0450 -0.1650 0.0120
v 0.0390 -0.1650 -0.0105
v 0.0225 -0.1650 -0.0270
v 0.0000 -0.1650 -0.0330
v -0.0225 -0.1650 -0.0270
v -0.0390 -0.1650 -0.0105
v -0.0450 -0.1650 0.0120
v -0.0390 -0.1650 0.0345
v -0.0225 -0.1650 0.0510
v -0.0000 -0.1650 0.0570
v 0.0225 -0.1650 0.0510
v 0.0390 -0.1650 0.0345
v 0.0450 -0.1650 0.0120
v 0.0450 -0.0600 0.0120
v 0.0390 -0.0600 -0.0105
v 0.0225 -0.0600 -0.0270
v 0.0000 -0.0600 -0.0330
v -0.0225 -0.0600 -0.0270
v -0.0390 -0.0600 -0.0105
v -0.0450 -0.0600 0.0120
v -0.0390 -0.0600 0.0345
v -0.0225 -0.0600 0.0510
v -0.0000 -0.0600 0.0570
v 0.0225 -0.0600 0.0510
v 0.0390 -0.0600 0.0345
v 0.0450 -0.0600 0.0120
v 0.0000 -0.1650 0.0120
v 0.0450 -0.1650 0.0120
v 0.0390 -0.1650 -0.0105
v 0.0225 -0.1650 -0.0270
v 0.0000 -0.1650 -0.0330
v -0.0225 -0.1650 -0.0270
v -0.0390 -0.1650 -0.0105
v -0.0450 -0.1650 0.0120
v -0.0390 -0.1650 0.0345
v -0.0225 -0.1650 0.0510
v -0.0000 -0.1650 0.0570
v 0.0225 -0.1650 0.0510
v 0.0390 -0.1650 0.0345
v 0.0000 -0.0600 0.0120
v 0.0450 -0.0600 0.0120
v 0.0390 -0.0600 -0.0105
v 0.0225 -0.0600 -0.0270
v 0.0000 -0.0600 -0.0330
v -0.0225 -0.0600 -0.0270
v -0.0390 -0.0600 -0.0105
v -0.0450 -0.0600 0.0120
v -0.0390 -0.0600 0.0345
v -0.0225 -0.0600 0.0510
v -0.0000 -0.0600 0.0570
v 0.0225 -0.0600 0.0510
v 0.0390 -0.0600 0.0345
vt 0.0000 0.0000
vt 0.0258 0.0000
vt 0.0526 0.0000
vt 0.0808 0.0000
vt 0.1105 0.0000
vt 0.1411 0.0000
vt 0.1716 0.0000
vt 0.2013 0.0000
vt 0.2296 0.0000
vt 0.2563 0.0000
vt 0.2821 0.0000
vt 0.3079 0.0000
vt 0.3347 0.0000
vt 0.3630 0.0000
vt 0.3927 0.0000
vt 0.4232 0.0000
vt 0.4538 0.0000
vt 0.4835 0.0000
vt 0.5117 0.0000
vt 0.5385 0.0000
vt 0.5643 0.0000
vt 0.0000 0.0256
vt 0.0258 0.0256
vt 0.0526 0.0256
vt 0.0808 0.0256
vt 0.1105 0.0256
vt 0.1411 0.0256
vt 0.1716 0.0256
vt 0.2013 0.0256
vt 0.2296 0.0256
vt 0.2563 0.0256
vt 0.2821 0.0256
vt 0.3079 0.0256
vt 0.3347 0.0256
vt 0.3630 0.0256
vt 0.3927 0.0256
vt 0.4232 0.0256
vt 0.4538 0.0256
vt 0.4835 0.0256
vt 0.5117 0.0256
vt 0.5385 0.0256
vt 0.5643 0.0256
vt 0.0000 0.0515
vt 0.0258 0.0515
vt 0.0526 0.0515
vt 0.0808 0.0515
vt 0.1105 0.0515
vt 0.1411 0.0515
vt 0.1716 0.0515
vt 0.2013 0.0515
vt 0.2296 0.0515
vt 0.2563 0.0515
vt 0.2821 0.0515
vt 0.3079 0.0515
vt 0.3347 0.0515
vt 0.3630 0.0515
vt 0.3927 0.0515
vt 0.4232 0.0515
vt 0.4538 0.0515
vt 0.4835 0.0515
vt 0.5117 0.0515
vt 0.5385 0.0515
vt 0.5643 0.0515
vt 0.0000 0.0777
vt 0.0258 0.0777
vt 0.0526 0.0777
vt 0.0808 0.0777
vt 0.1105 0.0777
vt 0.1411 0.0777
vt 0.1716 0.0777
vt 0.2013 0.0777
vt 0.2296 0.0777
vt 0.2563 0.0777
vt 0.2821 0.0777
vt 0.3079 0.0777
vt 0.3347 0.0777
vt 0.3630 0.0777
vt 0.3927 0.0777
vt 0.4232 0.0777
vt 0.4538 0.0777
vt 0.4835 0.0777
vt 0.5117 0.0777
vt 0.5385 0.0777
vt 0.5643 0.0777
vt 0.0000 0.1045
vt 0.0258 0.1045
vt 0.0526 0.1045
vt 0.0808 0.1045
vt 0.1105 0.1045
vt 0.1411 0.1045
vt 0.1716 0.1045
vt 0.2013 0.1045
vt 0.2296 0.1045
vt 0.2563 0.1045
vt 0.2821 0.1045
vt 0.3079 0.1045
vt 0.3347 0.1045
vt 0.3630 0.1045
vt 0.3927 0.1045
vt 0.4232 0.1045
vt 0.4538 0.1045
vt 0.4835 0.1045
vt 0.5117 0.1045
vt 0.5385 0.1045
vt 0.5643 0.1045
vt 0.0000 0.1316
vt 0.0258 0.1316
vt 0.0526 0.1316
vt 0.0808 0.1316
vt 0.1105 0.1316
vt 0.1411 0.1316
vt 0.1716 0.1316
vt 0.2013 0.1316
vt 0.2296 0.1316
vt 0.2563 0.1316
vt 0.2821 0.1316
vt 0.3079 0.1316
vt 0.3347 0.1316
vt 0.3630 0.1316
vt 0.3927 0.1316
vt 0.4232 0.1316
vt 0.4538 0.1316
vt 0.4835 0.1316
vt 0.5117 0.1316
vt 0.5385 0.1316
vt 0.5643 0.1316
vt 0.0000 0.1590
vt 0.0258 0.1590
vt 0.0526 0.1590
vt 0.0808 0.1590
vt 0.1105 0.1590
vt 0.1411 0.1590
vt 0.1716 0.1590
vt 0.2013 0.1590
vt 0.2296 0.1590
vt 0.2563 0.1590
vt 0.2821 0.1590
vt 0.3079 0.1590
vt 0.3347 0.1590
vt 0.3630 0.1590
vt 0.3927 0.1590
vt 0.4232 0.1590
vt 0.4538 0.1590
vt 0.4835 0.1590
vt 0.5117 0.1590
vt 0.5385 0.1590
vt 0.5643 0.1590
vt 0.0000 0.1864
vt 0.0258 0.1864
vt 0.0526 0.1864
vt 0.0808 0.1864
vt 0.1105 0.1864
vt 0.1411 0.1864
vt 0.1716 0.1864
vt 0.2013 0.1864
vt 0.2296 0.1864
vt 0.2563 0.1864
vt 0.2821 0.1864
vt 0.3079 0.1864
vt 0.3347 0.1864
vt 0.3630 0.1864
vt 0.3927 0.1864
vt 0.4232 0.1864
vt 0.4538 0.1864
vt 0.4835 0.1864
vt 0.5117 0.1864
vt 0.5385 0.1864
vt 0.5643 0.1864
vt 0.0000 0.2136
vt 0.0258 0.2136
vt 0.0526 0.2136
vt 0.0808 0.2136
vt 0.1105 0.2136
vt 0.1411 0.2136
vt 0.1716 0.2136
vt 0.2013 0.2136
vt 0.2296 0.2136
vt 0.2563 0.2136
vt 0.2821 0.2136
vt 0.3079 0.2136
vt 0.3347 0.2136
vt 0.3630 0.2136
vt 0.3927 0.2136
vt 0.4232 0.2136
vt 0.4538 0.2136
vt 0.4835 0.2136
vt 0.5117 0.2136
vt 0.5385 0.2136
vt 0.5643 0.2136
vt 0.0000 0.2403
vt 0.0258 0.2403
vt 0.0526 0.2403
vt 0.0808 0.2403
vt 0.1105 0.2403
vt 0.1411 0.2403
vt 0.1716 0.2403
vt 0.2013 0.2403
vt 0.2296 0.2403
vt 0.2563 0.2403
vt 0.2821 0.2403
vt 0.3079 0.2403
vt 0.3347 0.2403
vt 0.3630 0.2403
vt 0.3927 0.2403
vt 0.4232 0.2403
vt 0.4538 0.2403
vt 0.4835 0.2403
vt 0.5117 0.2403
vt 0.5385 0.2403
vt 0.5643 0.2403
vt 0.0000 0.2666
vt 0.0258 0.2666
vt 0.0526 0.2666
vt 0.0808 0.2666
vt 0.1105 0.2666
vt 0.1411 0.2666
vt 0.1716 0.2666
vt 0.2013 0.2666
vt 0.2296 0.2666
vt 0.2563 0.2666
vt 0.2821 0.2666
vt 0.3079 0.2666
vt 0.3347 0.2666
vt 0.3630 0.2666
vt 0.3927 0.2666
vt 0.4232 0.2666
vt 0.4538 0.2666
vt 0.4835 0.2666
vt 0.5117 0.2666
vt 0.5385 0.2666
vt 0.5643 0.2666
vt 0.0000 0.2924
vt 0.0258 0.2924
vt 0.0526 0.2924
vt 0.0808 0.2924
vt 0.1105 0.2924
vt 0.1411 0.2924
vt 0.1716 0.2924
vt 0.2013 0.2924
vt 0.2296 0.2924
vt 0.2563 0.2924
vt 0.2821 0.2924
vt 0.3079 0.2924
vt 0.3347 0.2924
vt 0.3630 0.2924
vt 0.3927 0.2924
vt 0.4232 0.2924
vt 0.4538 0.2924
vt 0.4835 0.2924
vt 0.5117 0.2924
vt 0.5385 0.2924
vt 0.5643 0.2924
vt 0.0000 0.3181
vt 0.0258 0.3181
vt 0.0526 0.3181
vt 0.0808 0.3181
vt 0.1105 0.3181
vt 0.1411 0.3181
vt 0.1716 0.3181
vt 0.2013 0.3181
vt 0.2296 0.3181
vt 0.2563 0.3181
vt 0.2821 0.3181
vt 0.3079 0.3181
vt 0.3347 0.3181
vt 0.3630 0.3181
vt 0.3927 0.3181
vt 0.4232 0.3181
vt 0.4538 0.3181
vt 0.4835 0.3181
vt 0.5117 0.3181
vt 0.5385 0.3181
vt 0.5643 0.3181
vt 0.0000 0.0000
vt 0.0295 0.0000
vt 0.0595 0.0000
vt 0.0904 0.0000
vt 0.1215 0.0000
vt 0.1523 0.0000
vt 0.1824 0.0000
vt 0.2119 0.0000
vt 0.2413 0.0000
vt 0.2714 0.0000
vt 0.3023 0.0000
vt 0.3334 0.0000
vt 0.3642 0.0000
vt 0.3943 0.0000
vt 0.4238 0.0000
vt 0.0000 0.0272
vt 0.0295 0.0272
vt 0.0595 0.0272
vt 0.0904 0.0272
vt 0.1215 0.0272
vt 0.1523 0.0272
vt 0.1824 0.0272
vt 0.2119 0.0272
vt 0.2413 0.0272
vt 0.2714 0.0272
vt 0.3023 0.0272
vt 0.3334 0.0272
vt 0.3642 0.0272
vt 0.3943 0.0272
vt 0.4238 0.0272
vt 0.0000 0.0533
vt 0.0295 0.0533
vt 0.0595 0.0533
vt 0.0904 0.0533
vt 0.1215 0.0533
vt 0.1523 0.0533
vt 0.1824 0.0533
vt 0.2119 0.0533
vt 0.2413 0.0533
vt 0.2714 0.0533
vt 0.3023 0.0533
vt 0.3334 0.0533
vt 0.3642 0.0533
vt 0.3943 0.0533
vt 0.4238 0.0533
vt 0.0000 0.0780
vt 0.0295 0.0780
vt 0.0595 0.0780
vt 0.0904 0.0780
vt 0.1215 0.0780
vt 0.1523 0.0780
vt 0.1824 0.0780
vt 0.2119 0.0780
vt 0.2413 0.0780
vt 0.2714 0.0780
vt 0.3023 0.0780
vt 0.3334 0.0780
vt 0.3642 0.0780
vt 0.3943 0.0780
vt 0.4238 0.0780
vt 0.0000 0.1016
vt 0.0295 0.1016
vt 0.0595 0.1016
vt 0.0904 0.1016
vt 0.1215 0.1016
vt 0.1523 0.1016
vt 0.1824 0.1016
vt 0.2119 0.1016
vt 0.2413 0.1016
vt 0.2714 0.1016
vt 0.3023 0.1016
vt 0.3334 0.1016
vt 0.3642 0.1016
vt 0.3943 0.1016
vt 0.4238 0.1016
vt 0.0000 0.1252
vt 0.0295 0.1252
vt 0.0595 0.1252
vt 0.0904 0.1252
vt 0.1215 0.1252
vt 0.1523 0.1252
vt 0.1824 0.1252
vt 0.2119 0.1252
vt 0.2413 0.1252
vt 0.2714 0.1252
vt 0.3023 0.1252
vt 0.3334 0.1252
vt 0.3642 0.1252
vt 0.3943 0.1252
vt 0.4238 0.1252
vt 0.0000 0.1498
vt 0.0295 0.1498
vt 0.0595 0.1498
vt 0.0904 0.1498
vt 0.1215 0.1498
vt 0.1523 0.1498
vt 0.1824 0.1498
vt 0.2119 0.1498
vt 0.2413 0.1498
vt 0.2714 0.1498
vt 0.3023 0.1498
vt 0.3334 0.1498
vt 0.3642 0.1498
vt 0.3943 0.1498
vt 0.4238 0.1498
vt 0.0000 0.1760
vt 0.0295 0.1760
vt 0.0595 0.1760
vt 0.0904 0.1760
vt 0.1215 0.1760
vt 0.1523 0.1760
vt 0.1824 0.1760
vt 0.2119 0.1760
vt 0.2413 0.1760
vt 0.2714 0.1760
vt 0.3023 0.1760
vt 0.3334 0.1760
vt 0.3642 0.1760
vt 0.3943 0.1760
vt 0.4238 0.1760
vt 0.0000 0.2032
vt 0.0295 0.2032
vt 0.0595 0.2032
vt 0.0904 0.2032
vt 0.1215 0.2032
vt 0.1523 0.2032
vt 0.1824 0.2032
vt 0.2119 0.2032
vt 0.2413 0.2032
vt 0.2714 0.2032
vt 0.3023 0.2032
vt 0.3334 0.2032
vt 0.3642 0.2032
vt 0.3943 0.2032
vt 0.4238 0.2032
vt 0.0000 0.0000
vt 0.0110 0.0000
vt 0.0230 0.0000
vt 0.0350 0.0000
vt 0.0460 0.0000
vt 0.0569 0.0000
vt 0.0690 0.0000
vt 0.0810 0.0000
vt 0.0919 0.0000
vt 0.0000 0.0085
vt 0.0110 0.0085
vt 0.0230 0.0085
vt 0.0350 0.0085
vt 0.0460 0.0085
vt 0.0569 0.0085
vt 0.0690 0.0085
vt 0.0810 0.0085
vt 0.0919 0.0085
vt 0.0000 0.0185
vt 0.0110 0.0185
vt 0.0230 0.0185
vt 0.0350 0.0185
vt 0.0460 0.0185
vt 0.0569 0.0185
vt 0.0690 0.0185
vt 0.0810 0.0185
vt 0.0919 0.0185
vt 0.0000 0.0297
vt 0.0110 0.0297
vt 0.0230 0.0297
vt 0.0350 0.0297
vt 0.0460 0.0297
vt 0.0569 0.0297
vt 0.0690 0.0297
vt 0.0810 0.0297
vt 0.0919 0.0297
vt 0.0000 0.0409
vt 0.0110 0.0409
vt 0.0230 0.0409
vt 0.0350 0.0409
vt 0.0460 0.0409
vt 0.0569 0.0409
vt 0.0690 0.0409
vt 0.0810 0.0409
vt 0.0919 0.0409
vt 0.0000 0.0509
vt 0.0110 0.0509
vt 0.0230 0.0509
vt 0.0350 0.0509
vt 0.0460 0.0509
vt 0.0569 0.0509
vt 0.0690 0.0509
vt 0.0810 0.0509
vt 0.0919 0.0509
vt 0.0000 0.0594
vt 0.0110 0.0594
vt 0.0230 0.0594
vt 0.0350 0.0594
vt 0.0460 0.0594
vt 0.0569 0.0594
vt 0.0690 0.0594
vt 0.0810 0.0594
vt 0.0919 0.0594
vt 0.0000 0.0000
vt 0.0103 0.0000
vt 0.0249 0.0000
vt 0.0395 0.0000
vt 0.0498 0.0000
vt 0.0601 0.0000
vt 0.0746 0.0000
vt 0.0892 0.0000
vt 0.0995 0.0000
vt 0.0000 0.0107
vt 0.0103 0.0107
vt 0.0249 0.0107
vt 0.0395 0.0107
vt 0.0498 0.0107
vt 0.0601 0.0107
vt 0.0746 0.0107
vt 0.0892 0.0107
vt 0.0995 0.0107
vt 0.0000 0.0233
vt 0.0103 0.0233
vt 0.0249 0.0233
vt 0.0395 0.0233
vt 0.0498 0.0233
vt 0.0601 0.0233
vt 0.0746 0.0233
vt 0.0892 0.0233
vt 0.0995 0.0233
vt 0.0000 0.0375
vt 0.0103 0.0375
vt 0.0249 0.0375
vt 0.0395 0.0375
vt 0.0498 0.0375
vt 0.0601 0.0375
vt 0.0746 0.0375
vt 0.0892 0.0375
vt 0.0995 0.0375
vt 0.0000 0.0518
vt 0.0103 0.0518
vt 0.0249 0.0518
vt 0.0395 0.0518
vt 0.0498 0.0518
vt 0.0601 0.0518
vt 0.0746 0.0518
vt 0.0892 0.0518
vt 0.0995 0.0518
vt 0.0000 0.0644
vt 0.0103 0.0644
vt 0.0249 0.0644
vt 0.0395 0.0644
vt 0.0498 0.0644
vt 0.0601 0.0644
vt 0.0746 0.0644
vt 0.0892 0.0644
vt 0.0995 0.0644
vt 0.0000 0.0751
vt 0.0103 0.0751
vt 0.0249 0.0751
vt 0.0395 0.0751
vt 0.0498 0.0751
vt 0.0601 0.0751
vt 0.0746 0.0751
vt 0.0892 0.0751
vt 0.0995 0.0751
vt 0.0000 0.0000
vt 0.0103 0.0000
vt 0.0249 0.0000
vt 0.0395 0.0000
vt 0.0498 0.0000
vt 0.0601 0.0000
vt 0.0746 0.0000
vt 0.0892 0.0000
vt 0.0995 0.0000
vt 0.0000 0.0107
vt 0.0103 0.0107
vt 0.0249 0.0107
vt 0.0395 0.0107
vt 0.0498 0.0107
vt 0.0601 0.0107
vt 0.0746 0.0107
vt 0.0892 0.0107
vt 0.0995 0.0107
vt 0.0000 0.0233
vt 0.0103 0.0233
vt 0.0249 0.0233
vt 0.0395 0.0233
vt 0.0498 0.0233
vt 0.0601 0.0233
vt 0.0746 0.0233
vt 0.0892 0.0233
vt 0.0995 0.0233
vt 0.0000 0.0375
vt 0.0103 0.0375
vt 0.0249 0.0375
vt 0.0395 0.0375
vt 0.0498 0.0375
vt 0.0601 0.0375
vt 0.0746 0.0375
vt 0.0892 0.0375
vt 0.0995 0.0375
vt 0.0000 0.0518
vt 0.0103 0.0518
vt 0.0249 0.0518
vt 0.0395 0.0518
vt 0.0498 0.0518
vt 0.0601 0.0518
vt 0.0746 0.0518
vt 0.0892 0.0518
vt 0.0995 0.0518
vt 0.0000 0.0644
vt 0.0103 0.0644
vt 0.0249 0.0644
vt 0.0395 0.0644
vt 0.0498 0.0644
vt 0.0601 0.0644
vt 0.0746 0.0644
vt 0.0892 0.0644
vt 0.0995 0.0644
vt 0.0000 0.0751
vt 0.0103 0.0751
vt 0.0249 0.0751
vt 0.0395 0.0751
vt 0.0498 0.0751
vt 0.0601 0.0751
vt 0.0746 0.0751
vt 0.0892 0.0751
vt 0.0995 0.0751
vt 0.0000 0.0000
vt 0.0000 0.0236
vt 0.0000 0.0471
vt 0.0000 0.0707
vt 0.0000 0.0942
vt 0.0000 0.1178
vt 0.0000 0.1414
vt 0.0000 0.1649
vt 0.0000 0.1885
vt 0.0000 0.2121
vt 0.0000 0.2356
vt 0.0000 0.2592
vt 0.0000 0.2827
vt 0.1050 0.0000
vt 0.1050 0.0236
vt 0.1050 0.0471
vt 0.1050 0.0707
vt 0.1050 0.0942
vt 0.1050 0.1178
vt 0.1050 0.1414
vt 0.1050 0.1649
vt 0.1050 0.1885
vt 0.1050 0.2121
vt 0.1050 0.2356
vt 0.1050 0.2592
vt 0.1050 0.2827
vt 0.0000 0.0000
vt 0.0450 0.0000
vt 0.0390 0.0225
vt 0.0225 0.0390
vt 0.0000 0.0450
vt -0.0225 0.0390
vt -0.0390 0.0225
vt -0.0450 0.0000
vt -0.0390 -0.0225
vt -0.0225 -0.0390
vt -0.0000 -0.0450
vt 0.0225 -0.0390
vt 0.0390 -0.0225
vt 0.0000 0.0000
vt 0.0450 0.0000
vt 0.0390 0.0225
vt 0.0225 0.0390
vt 0.0000 0.0450
vt -0.0225 0.0390
vt -0.0390 0.0225
vt -0.0450 0.0000
vt -0.0390 -0.0225
vt -0.0225 -0.0390
vt -0.0000 -0.0450
vt 0.0225 -0.0390
vt 0.0390 -0.0225
vn 0.000 -0.961 0.276
vn 0.102 -0.960 0.262
vn 0.193 -0.956 0.222
vn 0.264 -0.951 0.160
vn 0.309 -0.947 0.084
vn 0.325 -0.946 0.000
vn 0.309 -0.947 -0.084
vn 0.264 -0.951 -0.160
vn 0.193 -0.956 -0.222
vn 0.102 -0.960 -0.262
vn -0.000 -0.961 -0.276
vn -0.102 -0.960 -0.262
vn -0.193 -0.956 -0.222
vn -0.264 -0.951 -0.160
vn -0.309 -0.947 -0.084
vn -0.325 -0.946 -0.000
vn -0.309 -0.947 0.084
vn -0.264 -0.951 0.160
vn -0.193 -0.956 0.222
vn -0.102 -0.960 0.262
vn 0.000 -0.961 0.276
vn 0.000 -0.961 0.276
vn 0.102 -0.960 0.262
vn 0.193 -0.956 0.222
vn 0.264 -0.951 0.160
vn 0.309 -0.947 0.084
vn 0.325 -0.946 0.000
vn 0.309 -0.947 -0.084
vn 0.264 -0.951 -0.160
vn 0.193 -0.956 -0.222
vn 0.102 -0.960 -0.262
vn -0.000 -0.961 -0.276
vn -0.102 -0.960 -0.262
vn -0.193 -0.956 -0.222
vn -0.264 -0.951 -0.160
vn -0.309 -0.947 -0.084
vn -0.325 -0.946 -0.000
vn -0.309 -0.947 0.084
vn -0.264 -0.951 0.160
vn -0.193 -0.956 0.222
vn -0.102 -0.960 0.262
vn 0.000 -0.961 0.276
vn 0.000 -0.850 0.526
vn 0.193 -0.846 0.498
vn 0.362 -0.834 0.417
vn 0.490 -0.819 0.298
vn 0.568 -0.808 0.154
vn 0.594 -0.804 0.000
vn 0.568 -0.808 -0.154
vn 0.490 -0.819 -0.298
vn 0.362 -0.834 -0.417
vn 0.193 -0.846 -0.498
vn -0.000 -0.850 -0.526
vn -0.193 -0.846 -0.498
vn -0.362 -0.834 -0.417
vn -0.490 -0.819 -0.298
vn -0.568 -0.808 -0.154
vn -0.594 -0.804 -0.000
vn -0.568 -0.808 0.154
vn -0.490 -0.819 0.298
vn -0.362 -0.834 0.417
vn -0.193 -0.846 0.498
vn 0.000 -0.850 0.526
vn 0.000 -0.682 0.731
vn 0.267 -0.675 0.688
vn 0.494 -0.657 0.569
vn 0.659 -0.636 0.401
vn 0.756 -0.621 0.206
vn 0.788 -0.615 0.000
vn 0.756 -0.621 -0.206
vn 0.659 -0.636 -0.401
vn 0.494 -0.657 -0.569
vn 0.267 -0.675 -0.688
vn -0.000 -0.682 -0.731
vn -0.267 -0.675 -0.688
vn -0.494 -0.657 -0.569
vn -0.659 -0.636 -0.401
vn -0.756 -0.621 -0.206
vn -0.788 -0.615 -0.000
vn -0.756 -0.621 0.206
vn -0.659 -0.636 0.401
vn -0.494 -0.657 0.569
vn -0.267 -0.675 0.688
vn 0.000 -0.682 0.731
vn 0.000 -0.474 0.880
vn 0.320 -0.467 0.824
vn 0.586 -0.449 0.675
vn 0.771 -0.430 0.469
vn 0.878 -0.416 0.239
vn 0.912 -0.411 0.000
vn 0.878 -0.416 -0.239
vn 0.771 -0.430 -0.469
vn 0.586 -0.449 -0.675
vn 0.320 -0.467 -0.824
vn -0.000 -0.474 -0.880
vn -0.320 -0.467 -0.824
vn -0.586 -0.449 -0.675
vn -0.771 -0.430 -0.469
vn -0.878 -0.416 -0.239
vn -0.912 -0.411 0.000
vn -0.878 -0.416 0.239
vn -0.771 -0.430 0.469
vn -0.586 -0.449 0.675
vn -0.320 -0.467 0.824
vn 0.000 -0.474 0.880
vn 0.000 -0.243 0.970
vn 0.352 -0.238 0.905
vn 0.638 -0.227 0.735
vn 0.834 -0.216 0.507
vn 0.944 -0.208 0.257
vn 0.979 -0.205 0.000
vn 0.944 -0.208 -0.257
vn 0.834 -0.216 -0.507
vn 0.638 -0.227 -0.735
vn 0.352 -0.238 -0.905
vn -0.000 -0.243 -0.970
vn -0.352 -0.238 -0.905
vn -0.638 -0.227 -0.735
vn -0.834 -0.216 -0.507
vn -0.944 -0.208 -0.257
vn -0.979 -0.205 -0.000
vn -0.944 -0.208 0.257
vn -0.834 -0.216 0.507
vn -0.638 -0.227 0.735
vn -0.352 -0.238 0.905
vn 0.000 -0.243 0.970
vn 0.000 0.000 1.000
vn 0.362 0.000 0.932
vn 0.656 0.000 0.755
vn 0.854 0.000 0.519
vn 0.965 0.000 0.262
vn 1.000 0.000 0.000
vn 0.965 0.000 -0.262
vn 0.854 0.000 -0.519
vn 0.656 0.000 -0.755
vn 0.362 0.000 -0.932
vn 0.000 0.000 -1.000
vn -0.362 0.000 -0.932
vn -0.656 0.000 -0.755
vn -0.854 0.000 -0.519
vn -0.965 0.000 -0.262
vn -1.000 0.000 -0.000
vn -0.965 0.000 0.262
vn -0.854 0.000 0.519
vn -0.656 0.000 0.755
vn -0.362 0.000 0.932
vn 0.000 0.000 1.000
vn 0.000 0.243 0.970
vn 0.352 0.238 0.905
vn 0.638 0.227 0.735
vn 0.834 0.216 0.507
vn 0.944 0.208 0.257
vn 0.979 0.205 0.000
vn 0.944 0.208 -0.257
vn 0.834 0.216 -0.507
vn 0.638 0.227 -0.735
vn 0.352 0.238 -0.905
vn 0.000 0.243 -0.970
vn -0.352 0.238 -0.905
vn -0.638 0.227 -0.735
vn -0.834 0.216 -0.507
vn -0.944 0.208 -0.257
vn -0.979 0.205 -0.000
vn -0.944 0.208 0.257
vn -0.834 0.216 0.507
vn -0.638 0.227 0.735
vn -0.352 0.238 0.905
vn 0.000 0.243 0.970
vn 0.000 0.474 0.880
vn 0.320 0.467 0.824
vn 0.586 0.449 0.675
vn 0.771 0.430 0.469
vn 0.878 0.416 0.239
vn 0.912 0.411 0.000
vn 0.878 0.416 -0.239
vn 0.771 0.430 -0.469
vn 0.586 0.449 -0.675
vn 0.320 0.467 -0.824
vn 0.000 0.474 -0.880
vn -0.320 0.467 -0.824
vn -0.586 0.449 -0.675
vn -0.771 0.430 -0.469
vn -0.878 0.416 -0.239
vn -0.912 0.411 0.000
vn -0.878 0.416 0.239
vn -0.771 0.430 0.469
vn -0.586 0.449 0.675
vn -0.320 0.467 0.824
vn 0.000 0.474 0.880
vn 0.000 0.682 0.731
vn 0.267 0.675 0.688
vn 0.494 0.657 0.569
vn 0.659 0.636 0.401
vn 0.756 0.621 0.206
vn 0.788 0.615 0.000
vn 0.756 0.621 -0.206
vn 0.659 0.636 -0.401
vn 0.494 0.657 -0.569
vn 0.267 0.675 -0.688
vn 0.000 0.682 -0.731
vn -0.267 0.675 -0.688
vn -0.494 0.657 -0.569
vn -0.659 0.636 -0.401
vn -0.756 0.621 -0.206
vn -0.788 0.615 -0.000
vn -0.756 0.621 0.206
vn -0.659 0.636 0.401
vn -0.494 0.657 0.569
vn -0.267 0.675 0.688
vn 0.000 0.682 0.731
vn 0.000 0.850 0.526
vn 0.193 0.846 0.498
vn 0.362 0.834 0.417
vn 0.490 0.819 0.298
vn 0.568 0.808 0.154
vn 0.594 0.804 0.000
vn 0.568 0.808 -0.154
vn 0.490 0.819 -0.298
vn 0.362 0.834 -0.417
vn 0.193 0.846 -0.498
vn 0.000 0.850 -0.526
vn -0.193 0.846 -0.498
vn -0.362 0.834 -0.417
vn -0.490 0.819 -0.298
vn -0.568 0.808 -0.154
vn -0.594 0.804 -0.000
vn -0.568 0.808 0.154
vn -0.490 0.819 0.298
vn -0.362 0.834 0.417
vn -0.193 0.846 0.498
vn 0.000 0.850 0.526
vn 0.000 0.961 0.276
vn 0.102 0.960 0.262
vn 0.193 0.956 0.222
vn 0.264 0.951 0.160
vn 0.309 0.947 0.084
vn 0.325 0.946 0.000
vn 0.309 0.947 -0.084
vn 0.264 0.951 -0.160
vn 0.193 0.956 -0.222
vn 0.102 0.960 -0.262
vn 0.000 0.961 -0.276
vn -0.102 0.960 -0.262
vn -0.193 0.956 -0.222
vn -0.264 0.951 -0.160
vn -0.309 0.947 -0.084
vn -0.325 0.946 0.000
vn -0.309 0.947 0.084
vn -0.264 0.951 0.160
vn -0.193 0.956 0.222
vn -0.102 0.960 0.262
vn 0.000 0.961 0.276
vn 0.000 0.961 0.276
vn 0.102 0.960 0.262
vn 0.193 0.956 0.222
vn 0.264 0.951 0.160
vn 0.309 0.947 0.084
vn 0.325 0.946 0.000
vn 0.309 0.947 -0.084
vn 0.264 0.951 -0.160
vn 0.193 0.956 -0.222
vn 0.102 0.960 -0.262
vn 0.000 0.961 -0.276
vn -0.102 0.960 -0.262
vn -0.193 0.956 -0.222
vn -0.264 0.951 -0.160
vn -0.309 0.947 -0.084
vn -0.325 0.946 0.000
vn -0.309 0.947 0.084
vn -0.264 0.951 0.160
vn -0.193 0.956 0.222
vn -0.102 0.960 0.262
vn 0.000 0.961 0.276
vn -0.000 -0.942 0.335
vn 0.154 -0.941 0.301
vn 0.276 -0.938 0.208
vn 0.344 -0.936 0.074
vn 0.344 -0.936 -0.074
vn 0.276 -0.938 -0.208
vn 0.154 -0.941 -0.301
vn 0.000 -0.942 -0.335
vn -0.154 -0.941 -0.301
vn -0.276 -0.938 -0.208
vn -0.344 -0.936 -0.074
vn -0.344 -0.936 0.074
vn -0.276 -0.938 0.208
vn -0.154 -0.941 0.301
vn -0.000 -0.942 0.335
vn -0.000 -0.942 0.335
vn 0.154 -0.941 0.301
vn 0.276 -0.938 0.208
vn 0.344 -0.936 0.074
vn 0.344 -0.936 -0.074
vn 0.276 -0.938 -0.208
vn 0.154 -0.941 -0.301
vn 0.000 -0.942 -0.335
vn -0.154 -0.941 -0.301
vn -0.276 -0.938 -0.208
vn -0.344 -0.936 -0.074
vn -0.344 -0.936 0.074
vn -0.276 -0.938 0.208
vn -0.154 -0.941 0.301
vn -0.000 -0.942 0.335
vn -0.000 -0.759 0.651
vn 0.298 -0.756 0.583
vn 0.531 -0.747 0.399
vn 0.657 -0.741 0.141
vn 0.657 -0.741 -0.141
vn 0.531 -0.747 -0.399
vn 0.298 -0.756 -0.583
vn 0.000 -0.759 -0.651
vn -0.298 -0.756 -0.583
vn -0.531 -0.747 -0.399
vn -0.657 -0.741 -0.141
vn -0.657 -0.741 0.141
vn -0.531 -0.747 0.399
vn -0.298 -0.756 0.583
vn -0.000 -0.759 0.651
vn -0.000 -0.435 0.900
vn 0.410 -0.431 0.804
vn 0.725 -0.422 0.545
vn 0.889 -0.416 0.191
vn 0.889 -0.416 -0.191
vn 0.725 -0.422 -0.545
vn 0.410 -0.431 -0.804
vn 0.000 -0.435 -0.900
vn -0.410 -0.431 -0.804
vn -0.725 -0.422 -0.545
vn -0.889 -0.416 -0.191
vn -0.889 -0.416 0.191
vn -0.725 -0.422 0.545
vn -0.410 -0.431 0.804
vn -0.000 -0.435 0.900
vn 0.000 0.000 1.000
vn 0.455 0.000 0.891
vn 0.799 0.000 0.601
vn 0.978 0.000 0.210
vn 0.978 0.000 -0.210
vn 0.799 0.000 -0.601
vn 0.455 0.000 -0.891
vn 0.000 0.000 -1.000
vn -0.455 0.000 -0.891
vn -0.799 0.000 -0.601
vn -0.978 0.000 -0.210
vn -0.978 0.000 0.210
vn -0.799 0.000 0.601
vn -0.455 0.000 0.891
vn 0.000 0.000 1.000
vn -0.000 0.435 0.900
vn 0.410 0.431 0.804
vn 0.725 0.422 0.545
vn 0.889 0.416 0.191
vn 0.889 0.416 -0.191
vn 0.725 0.422 -0.545
vn 0.410 0.431 -0.804
vn 0.000 0.435 -0.900
vn -0.410 0.431 -0.804
vn -0.725 0.422 -0.545
vn -0.889 0.416 -0.191
vn -0.889 0.416 0.191
vn -0.725 0.422 0.545
vn -0.410 0.431 0.804
vn -0.000 0.435 0.900
vn -0.000 0.759 0.651
vn 0.298 0.756 0.583
vn 0.531 0.747 0.399
vn 0.657 0.741 0.141
vn 0.657 0.741 -0.141
vn 0.531 0.747 -0.399
vn 0.298 0.756 -0.583
vn 0.000 0.759 -0.651
vn -0.298 0.756 -0.583
vn -0.531 0.747 -0.399
vn -0.657 0.741 -0.141
vn -0.657 0.741 0.141
vn -0.531 0.747 0.399
vn -0.298 0.756 0.583
vn -0.000 0.759 0.651
vn -0.000 0.942 0.335
vn 0.154 0.941 0.301
vn 0.276 0.938 0.208
vn 0.344 0.936 0.074
vn 0.344 0.936 -0.074
vn 0.276 0.938 -0.208
vn 0.154 0.941 -0.301
vn 0.000 0.942 -0.335
vn -0.154 0.941 -0.301
vn -0.276 0.938 -0.208
vn -0.344 0.936 -0.074
vn -0.344 0.936 0.074
vn -0.276 0.938 0.208
vn -0.154 0.941 0.301
vn -0.000 0.942 0.335
vn -0.000 0.942 0.335
vn 0.154 0.941 0.301
vn 0.276 0.938 0.208
vn 0.344 0.936 0.074
vn 0.344 0.936 -0.074
vn 0.276 0.938 -0.208
vn 0.154 0.941 -0.301
vn 0.000 0.942 -0.335
vn -0.154 0.941 -0.301
vn -0.276 0.938 -0.208
vn -0.344 0.936 -0.074
vn -0.344 0.936 0.074
vn -0.276 0.938 0.208
vn -0.154 0.941 0.301
vn -0.000 0.942 0.335
vn -0.000 -0.783 0.622
vn 0.488 -0.761 0.427
vn 0.672 -0.741 0.000
vn 0.488 -0.761 -0.427
vn 0.000 -0.783 -0.622
vn -0.488 -0.761 -0.427
vn -0.672 -0.741 -0.000
vn -0.488 -0.761 0.427
vn -0.000 -0.783 0.622
vn -0.000 -0.783 0.622
vn 0.488 -0.761 0.427
vn 0.672 -0.741 0.000
vn 0.488 -0.761 -0.427
vn 0.000 -0.783 -0.622
vn -0.488 -0.761 -0.427
vn -0.672 -0.741 -0.000
vn -0.488 -0.761 0.427
vn -0.000 -0.783 0.622
vn -0.000 -0.387 0.922
vn 0.701 -0.364 0.613
vn 0.939 -0.345 0.000
vn 0.701 -0.364 -0.613
vn 0.000 -0.387 -0.922
vn -0.701 -0.364 -0.613
vn -0.939 -0.345 -0.000
vn -0.701 -0.364 0.613
vn -0.000 -0.387 0.922
vn -0.000 -0.000 1.000
vn 0.753 -0.000 0.659
vn 1.000 -0.000 0.000
vn 0.753 0.000 -0.659
vn 0.000 -0.000 -1.000
vn -0.753 -0.000 -0.659
vn -1.000 -0.000 -0.000
vn -0.753 -0.000 0.659
vn -0.000 -0.000 1.000
vn -0.000 0.387 0.922
vn 0.701 0.364 0.613
vn 0.939 0.345 0.000
vn 0.701 0.364 -0.613
vn 0.000 0.387 -0.922
vn -0.701 0.364 -0.613
vn -0.939 0.345 -0.000
vn -0.701 0.364 0.613
vn -0.000 0.387 0.922
vn -0.000 0.783 0.622
vn 0.488 0.761 0.427
vn 0.672 0.741 0.000
vn 0.488 0.761 -0.427
vn 0.000 0.783 -0.622
vn -0.488 0.761 -0.427
vn -0.672 0.741 -0.000
vn -0.488 0.761 0.427
vn -0.000 0.783 0.622
vn -0.000 0.783 0.622
vn 0.488 0.761 0.427
vn 0.672 0.741 0.000
vn 0.488 0.761 -0.427
vn 0.000 0.783 -0.622
vn -0.488 0.761 -0.427
vn -0.672 0.741 -0.000
vn -0.488 0.761 0.427
vn -0.000 0.783 0.622
vn -0.000 -0.778 0.629
vn 0.637 -0.669 0.382
vn 0.803 -0.596 0.000
vn 0.637 -0.669 -0.382
vn 0.000 -0.778 -0.629
vn -0.637 -0.669 -0.382
vn -0.803 -0.596 -0.000
vn -0.637 -0.669 0.382
vn -0.000 -0.778 0.629
vn -0.000 -0.778 0.629
vn 0.637 -0.669 0.382
vn 0.803 -0.596 0.000
vn 0.637 -0.669 -0.382
vn 0.000 -0.778 -0.629
vn -0.637 -0.669 -0.382
vn -0.803 -0.596 -0.000
vn -0.637 -0.669 0.382
vn -0.000 -0.778 0.629
vn -0.000 -0.381 0.924
vn 0.821 -0.287 0.493
vn 0.971 -0.240 0.000
vn 0.821 -0.287 -0.493
vn 0.000 -0.381 -0.924
vn -0.821 -0.287 -0.493
vn -0.971 -0.240 -0.000
vn -0.821 -0.287 0.493
vn -0.000 -0.381 0.924
vn -0.000 0.000 1.000
vn 0.857 -0.000 0.514
vn 1.000 -0.000 0.000
vn 0.857 -0.000 -0.514
vn 0.000 -0.000 -1.000
vn -0.857 -0.000 -0.514
vn -1.000 -0.000 -0.000
vn -0.857 -0.000 0.514
vn -0.000 -0.000 1.000
vn -0.000 0.381 0.924
vn 0.821 0.287 0.493
vn 0.971 0.240 0.000
vn 0.821 0.287 -0.493
vn 0.000 0.381 -0.924
vn -0.821 0.287 -0.493
vn -0.971 0.240 -0.000
vn -0.821 0.287 0.493
vn -0.000 0.381 0.924
vn -0.000 0.778 0.629
vn 0.637 0.669 0.382
vn 0.803 0.596 0.000
vn 0.637 0.669 -0.382
vn 0.000 0.778 -0.629
vn -0.637 0.669 -0.382
vn -0.803 0.596 -0.000
vn -0.637 0.669 0.382
vn -0.000 0.778 0.629
vn -0.000 0.778 0.629
vn 0.637 0.669 0.382
vn 0.803 0.596 0.000
vn 0.637 0.669 -0.382
vn 0.000 0.778 -0.629
vn -0.637 0.669 -0.382
vn -0.803 0.596 -0.000
vn -0.637 0.669 0.382
vn -0.000 0.778 0.629
vn -0.000 -0.778 0.629
vn 0.637 -0.669 0.382
vn 0.803 -0.596 0.000
vn 0.637 -0.669 -0.382
vn 0.000 -0.778 -0.629
vn -0.637 -0.669 -0.382
vn -0.803 -0.596 -0.000
vn -0.637 -0.669 0.382
vn -0.000 -0.778 0.629
vn -0.000 -0.778 0.629
vn 0.637 -0.669 0.382
vn 0.803 -0.596 0.000
vn 0.637 -0.669 -0.382
vn 0.000 -0.778 -0.629
vn -0.637 -0.669 -0.382
vn -0.803 -0.596 -0.000
vn -0.637 -0.669 0.382
vn -0.000 -0.778 0.629
vn -0.000 -0.381 0.924
vn 0.821 -0.287 0.493
vn 0.971 -0.240 0.000
vn 0.821 -0.287 -0.493
vn 0.000 -0.381 -0.924
vn -0.821 -0.287 -0.493
vn -0.971 -0.240 -0.000
vn -0.821 -0.287 0.493
vn -0.000 -0.381 0.924
vn -0.000 0.000 1.000
vn 0.857 -0.000 0.514
vn 1.000 -0.000 0.000
vn 0.857 -0.000 -0.514
vn 0.000 -0.000 -1.000
vn -0.857 -0.000 -0.514
vn -1.000 -0.000 -0.000
vn -0.857 -0.000 0.514
vn -0.000 -0.000 1.000
vn -0.000 0.381 0.924
vn 0.821 0.287 0.493
vn 0.971 0.240 0.000
vn 0.821 0.287 -0.493
vn 0.000 0.381 -0.924
vn -0.821 0.287 -0.493
vn -0.971 0.240 -0.000
vn -0.821 0.287 0.493
vn -0.000 0.381 0.924
vn -0.000 0.778 0.629
vn 0.637 0.669 0.382
vn 0.803 0.596 0.000
vn 0.637 0.669 -0.382
vn 0.000 0.778 -0.629
vn -0.637 0.669 -0.382
vn -0.803 0.596 -0.000
vn -0.637 0.669 0.382
vn -0.000 0.778 0.629
vn -0.000 0.778 0.629
vn 0.637 0.669 0.382
vn 0.803 0.596 0.000
vn 0.637 0.669 -0.382
vn 0.000 0.778 -0.629
vn -0.637 0.669 -0.382
vn -0.803 0.596 -0.000
vn -0.637 0.669 0.382
vn -0.000 0.778 0.629
vn 1.000 0.000 0.000
vn 0.866 0.000 -0.500
vn 0.500 0.000 -0.866
vn 0.000 0.000 -1.000
vn -0.500 0.000 -0.866
vn -0.866 0.000 -0.500
vn -1.000 0.000 -0.000
vn -0.866 0.000 0.500
vn -0.500 0.000 0.866
vn -0.000 0.000 1.000
vn 0.500 -0.000 0.866
vn 0.866 -0.000 0.500
vn 1.000 -0.000 0.000
vn 1.000 0.000 0.000
vn 0.866 0.000 -0.500
vn 0.500 0.000 -0.866
vn 0.000 0.000 -1.000
vn -0.500 0.000 -0.866
vn -0.866 0.000 -0.500
vn -1.000 0.000 -0.000
vn -0.866 0.000 0.500
vn -0.500 0.000 0.866
vn -0.000 0.000 1.000
vn 0.500 -0.000 0.866
vn 0.866 -0.000 0.500
vn 1.000 -0.000 0.000
vn -0.000 -1.000 -0.000
vn -0.000 -1.000 -0.000
vn -0.000 -1.000 -0.000
vn -0.000 -1.000 -0.000
vn -0.000 -1.000 -0.000
vn -0.000 -1.000 -0.000
vn -0.000 -1.000 -0.000
vn -0.000 -1.000 -0.000
vn -0.000 -1.000 -0.000
vn -0.000 -1.000 -0.000
vn -0.000 -1.000 -0.000
vn -0.000 -1.000 -0.000
vn -0.000 -1.000 -0.000
vn 0.000 1.000 0.000
vn 0.000 1.000 0.000
vn 0.000 1.000 0.000
vn 0.000 1.000 0.000
vn 0.000 1.000 0.000
vn 0.000 1.000 0.000
vn 0.000 1.000 0.000
vn 0.000 1.000 0.000
vn 0.000 1.000 0.000
vn 0.000 1.000 0.000
vn 0.000 1.000 0.000
vn 0.000 1.000 0.000
vn 0.000 1.000 0.000
usemtl skin
f 1/1/1 2/2/2 23/23/23
f 1/1/1 23/23/23 22/22/22
f 2/2/2 3/3/3 24/24/24
f 2/2/2 24/24/24 23/23/23
f 3/3/3 4/4/4 25/25/25
f 3/3/3 25/25/25 24/24/24
f 4/4/4 5/5/5 26/26/26
f 4/4/4 26/26/26 25/25/25
f 5/5/5 6/6/6 27/27/27
f 5/5/5 27/27/27 26/26/26
f 6/6/6 7/7/7 28/28/28
f 6/6/6 28/28/28 27/27/27
f 7/7/7 8/8/8 29/29/29
f 7/7/7 29/29/29 28/28/28
f 8/8/8 9/9/9 30/30/30
f 8/8/8 30/30/30 29/29/29
f 9/9/9 10/10/10 31/31/31
f 9/9/9 31/31/31 30/30/30
f 10/10/10 11/11/11 32/32/32
f 10/10/10 32/32/32 31/31/31
f 11/11/11 12/12/12 33/33/33
f 11/11/11 33/33/33 32/32/32
f 12/12/12 13/13/13 34/34/34
f 12/12/12 34/34/34 33/33/33
f 13/13/13 14/14/14 35/35/35
f 13/13/13 35/35/35 34/34/34
f 14/14/14 15/15/15 36/36/36
f 14/14/14 36/36/36 35/35/35
f 15/15/15 16/16/16 37/37/37
f 15/15/15 37/37/37 36/36/36
f 16/16/16 17/17/17 38/38/38
f 16/16/16 38/38/38 37/37/37
f 17/17/17 18/18/18 39/39/39
f 17/17/17 39/39/39 38/38/38
f 18/18/18 19/19/19 40/40/40
f 18/18/18 40/40/40 39/39/39
f 19/19/19 20/20/20 41/41/41
f 19/19/19 41/41/41 40/40/40
f 20/20/20 21/21/21 42/42/42
f 20/20/20 42/42/42 41/41/41
f 22/22/22 23/23/23 44/44/44
f 22/22/22 44/44/44 43/43/43
f 23/23/23 24/24/24 45/45/45
f 23/23/23 45/45/45 44/44/44
f 24/24/24 25/25/25 46/46/46
f 24/24/24 46/46/46 45/45/45
f 25/25/25 26/26/26 47/47/47
f 25/25/25 47/47/47 46/46/46
f 26/26/26 27/27/27 48/48/48
f 26/26/26 48/48/48 47/47/47
f 27/27/27 28/28/28 49/49/49
f 27/27/27 49/49/49 48/48/48
f 28/28/28 29/29/29 50/50/50
f 28/28/28 50/50/50 49/49/49
f 29/29/29 30/30/30 51/51/51
f 29/29/29 51/51/51 50/50/50
f 30/30/30 31/31/31 52/52/52
f 30/30/30 52/52/52 51/51/51
f 31/31/31 32/32/32 53/53/53
f 31/31/31 53/53/53 52/52/52
f 32/32/32 33/33/33 54/54/54
f 32/32/32 54/54/54 53/53/53
f 33/33/33 34/34/34 55/55/55
f 33/33/33 55/55/55 54/54/54
f 34/34/34 35/35/35 56/56/56
f 34/34/34 56/56/56 55/55/55
f 35/35/35 36/36/36 57/57/57
f 35/35/35 57/57/57 56/56/56
f 36/36/36 37/37/37 58/58/58
f 36/36/36 58/58/58 57/57/57
f 37/37/37 38/38/38 59/59/59
f 37/37/37 59/59/59 58/58/58
f 38/38/38 39/39/39 60/60/60
f 38/38/38 60/60/60 59/59/59
f 39/39/39 40/40/40 61/61/61
f 39/39/39 61/61/61 60/60/60
f 40/40/40 41/41/41 62/62/62
f 40/40/40 62/62/62 61/61/61
f 41/41/41 42/42/42 63/63/63
f 41/41/41 63/63/63 62/62/62
f 43/43/43 44/44/44 65/65/65
f 43/43/43 65/65/65 64/64/64
f 44/44/44 45/45/45 66/66/66
f 44/44/44 66/66/66 65/65/65
f 45/45/45 46/46/46 67/67/67
f 45/45/45 67/67/67 66/66/66
f 46/46/46 47/47/47 68/68/68
f 46/46/46 68/68/68 67/67/67
f 47/47/47 48/48/48 69/69/69
f 47/47/47 69/69/69 68/68/68
f 48/48/48 49/49/49 70/70/70
f 48/48/48 70/70/70 69/69/69
f 49/49/49 50/50/50 71/71/71
f 49/49/49 71/71/71 70/70/70
f 50/50/50 51/51/51 72/72/72
f 50/50/50 72/72/72 71/71/71
f 51/51/51 52/52/52 73/73/73
f 51/51/51 73/73/73 72/72/72
f 52/52/52 53/53/53 74/74/74
f 52/52/52 74/74/74 73/73/73
f 53/53/53 54/54/54 75/75/75
f 53/53/53 75/75/75 74/74/74
f 54/54/54 55/55/55 76/76/76
f 54/54/54 76/76/76 75/75/75
f 55/55/55 56/56/56 77/77/77
f 55/55/55 77/77/77 76/76/76
f 56/56/56 57/57/57 78/78/78
f 56/56/56 78/78/78 77/77/77
f 57/57/57 58/58/58 79/79/79
f 57/57/57 79/79/79 78/78/78
f 58/58/58 59/59/59 80/80/80
f 58/58/58 80/80/80 79/79/79
f 59/59/59 60/60/60 81/81/81
f 59/59/59 81/81/81 80/80/80
f 60/60/60 61/61/61 82/82/82
f 60/60/60 82/82/82 81/81/81
f 61/61/61 62/62/62 83/83/83
f 61/61/61 83/83/83 82/82/82
f 62/62/62 63/63/63 84/84/84
f 62/62/62 84/84/84 83/83/83
f 64/64/64 65/65/65 86/86/86
f 64/64/64 86/86/86 85/85/85
f 65/65/65 66/66/66 87/87/87
f 65/65/65 87/87/87 86/86/86
f 66/66/66 67/67/67 88/88/88
f 66/66/66 88/88/88 87/87/87
f 67/67/67 68/68/68 89/89/89
f 67/67/67 89/89/89 88/88/88
f 68/68/68 69/69/69 90/90/90
f 68/68/68 90/90/90 89/89/89
f 69/69/69 70/70/70 91/91/91
f 69/69/69 91/91/91 90/90/90
f 70/70/70 71/71/71 92/92/92
f 70/70/70 92/92/92 91/91/91
f 71/71/71 72/72/72 93/93/93
f 71/71/71 93/93/93 92/92/92
f 72/72/72 73/73/73 94/94/94
f 72/72/72 94/94/94 93/93/93
f 73/73/73 74/74/74 95/95/95
f 73/73/73 95/95/95 94/94/94
f 74/74/74 75/75/75 96/96/96
f 74/74/74 96/96/96 95/95/95
f 75/75/75 76/76/76 97/97/97
f 75/75/75 97/97/97 96/96/96
f 76/76/76 77/77/77 98/98/98
f 76/76/76 98/98/98 97/97/97
f 77/77/77 78/78/78 99/99/99
f 77/77/77 99/99/99 98/98/98
f 78/78/78 79/79/79 100/100/100
f 78/78/78 100/100/100 99/99/99
f 79/79/79 80/80/80 101/101/101
f 79/79/79 101/101/101 100/100/100
f 80/80/80 81/81/81 102/102/102
f 80/80/80 102/102/102 101/101/101
f 81/81/81 82/82/82 103/103/103
f 81/81/81 103/103/103 102/102/102
f 82/82/82 83/83/83 104/104/104
f 82/82/82 104/104/104 103/103/103
f 83/83/83 84/84/84 105/105/105
f 83/83/83 105/105/105 104/104/104
f 85/85/85 86/86/86 107/107/107
f 85/85/85 107/107/107 106/106/106
f 86/86/86 87/87/87 108/108/108
f 86/86/86 108/108/108 107/107/107
f 87/87/87 88/88/88 109/109/109
f 87/87/87 109/109/109 108/108/108
f 88/88/88 89/89/89 110/110/110
f 88/88/88 110/110/110 109/109/109
f 89/89/89 90/90/90 111/111/111
f 89/89/89 111/111/111 110/110/110
f 90/90/90 91/91/91 112/112/112
f 90/90/90 112/112/112 111/111/111
f 91/91/91 92/92/92 113/113/113
f 91/91/91 113/113/113 112/112/112
f 92/92/92 93/93/93 114/114/114
f 92/92/92 114/114/114 113/113/113
f 93/93/93 94/94/94 115/115/115
f 93/93/93 115/115/115 114/114/114
f 94/94/94 95/95/95 116/116/116
f 94/94/94 116/116/116 115/115/115
f 95/95/95 96/96/96 117/117/117
f 95/95/95 117/117/117 116/116/116
f 96/96/96 97/97/97 118/118/118
f 96/96/96 118/118/118 117/117/117
f 97/97/97 98/98/98 119/119/119
f 97/97/97 119/119/119 118/118/118
f 98/98/98 99/99/99 120/120/120
f 98/98/98 120/120/120 119/119/119
f 99/99/99 100/100/100 121/121/121
f 99/99/99 121/121/121 120/120/120
f 100/100/100 101/101/101 122/122/122
f 100/100/100 122/122/122 121/121/121
f 101/101/101 102/102/102 123/123/123
f 101/101/101 123/123/123 122/122/122
f 102/102/102 103/103/103 124/124/124
f 102/102/102 124/124/124 123/123/123
f 103/103/103 104/104/104 125/125/125
f 103/103/103 125/125/125 124/124/124
f 104/104/104 105/105/105 126/126/126
f 104/104/104 126/126/126 125/125/125
f 106/106/106 107/107/107 128/128/128
f 106/106/106 128/128/128 127/127/127
f 107/107/107 108/108/108 129/129/129
f 107/107/107 129/129/129 128/128/128
f 108/108/108 109/109/109 130/130/130
f 108/108/108 130/130/130 129/129/129
f 109/109/109 110/110/110 131/131/131
f 109/109/109 131/131/131 130/130/130
f 110/110/110 111/111/111 132/132/132
f 110/110/110 132/132/132 131/131/131
f 111/111/111 112/112/112 133/133/133
f 111/111/111 133/133/133 132/132/132
f 112/112/112 113/113/113 134/134/134
f 112/112/112 134/134/134 133/133/133
f 113/113/113 114/114/114 135/135/135
f 113/113/113 135/135/135 134/134/134
f 114/114/114 115/115/115 136/136/136
f 114/114/114 136/136/136 135/135/135
f 115/115/115 116/116/116 137/137/137
f 115/115/115 137/137/137 136/136/136
f 116/116/116 117/117/117 138/138/138
f 116/116/116 138/138/138 137/137/137
f 117/117/117 118/118/118 139/139/139
f 117/117/117 139/139/139 138/138/138
f 118/118/118 119/119/119 140/140/140
f 118/118/118 140/140/140 139/139/139
f 119/119/119 120/120/120 141/141/141
f 119/119/119 141/141/141 140/140/140
f 120/120/120 121/121/121 142/142/142
f 120/120/120 142/142/142 141/141/141
f 121/121/121 122/122/122 143/143/143
f 121/121/121 143/143/143 142/142/142
f 122/122/122 123/123/123 144/144/144
f 122/122/122 144/144/144 143/143/143
f 123/123/123 124/124/124 145/145/145
f 123/123/123 145/145/145 144/144/144
f 124/124/124 125/125/125 146/146/146
f 124/124/124 146/146/146 145/145/145
f 125/125/125 126/126/126 147/147/147
f 125/125/125 147/147/147 146/146/146
f 127/127/127 128/128/128 149/149/149
f 127/127/127 149/149/149 148/148/148
f 128/128/128 129/129/129 150/150/150
f 128/128/128 150/150/150 149/149/149
f 129/129/129 130/130/130 151/151/151
f 129/129/129 151/151/151 150/150/150
f 130/130/130 131/131/131 152/152/152
f 130/130/130 152/152/152 151/151/151
f 131/131/131 132/132/132 153/153/153
f 131/131/131 153/153/153 152/152/152
f 132/132/132 133/133/133 154/154/154
f 132/132/132 154/154/154 153/153/153
f 133/133/133 134/134/134 155/155/155
f 133/133/133 155/155/155 154/154/154
f 134/134/134 135/135/135 156/156/156
f 134/134/134 156/156/156 155/155/155
f 135/135/135 136/136/136 157/157/157
f 135/135/135 157/157/157 156/156/156
f 136/136/136 137/137/137 158/158/158
f 136/136/136 158/158/158 157/157/157
f 137/137/137 138/138/138 159/159/159
f 137/137/137 159/159/159 158/158/158
f 138/138/138 139/139/139 160/160/160
f 138/138/138 160/160/160 159/159/159
f 139/139/139 140/140/140 161/161/161
f 139/139/139 161/161/161 160/160/160
f 140/140/140 141/141/141 162/162/162
f 140/140/140 162/162/162 161/161/161
f 141/141/141 142/142/142 163/163/163
f 141/141/141 163/163/163 162/162/162
f 142/142/142 143/143/143 164/164/164
f 142/142/142 164/164/164 163/163/163
f 143/143/143 144/144/144 165/165/165
f 143/143/143 165/165/165 164/164/164
f 144/144/144 145/145/145 166/166/166
f 144/144/144 166/166/166 165/165/165
f 145/145/145 146/146/146 167/167/167
f 145/145/145 167/167/167 166/166/166
f 146/146/146 147/147/147 168/168/168
f 146/146/146 168/168/168 167/167/167
f 148/148/148 149/149/149 170/170/170
f 148/148/148 170/170/170 169/169/169
f 149/149/149 150/150/150 171/171/171
f 149/149/149 171/171/171 170/170/170
f 150/150/150 151/151/151 172/172/172
f 150/150/150 172/172/172 171/171/171
f 151/151/151 152/152/152 173/173/173
f 151/151/151 173/173/173 172/172/172
f 152/152/152 153/153/153 174/174/174
f 152/152/152 174/174/174 173/173/173
f 153/153/153 154/154/154 175/175/175
f 153/153/153 175/175/175 174/174/174
f 154/154/154 155/155/155 176/176/176
f 154/154/154 176/176/176 175/175/175
f 155/155/155 156/156/156 177/177/177
f 155/155/155 177/177/177 176/176/176
f 156/156/156 157/157/157 178/178/178
f 156/156/156 178/178/178 177/177/177
f 157/157/157 158/158/158 179/179/179
f 157/157/157 179/179/179 178/178/178
f 158/158/158 159/159/159 180/180/180
f 158/158/158 180/180/180 179/179/179
f 159/159/159 160/160/160 181/181/181
f 159/159/159 181/181/181 180/180/180
f 160/160/160 161/161/161 182/182/182
f 160/160/160 182/182/182 181/181/181
f 161/161/161 162/162/162 183/183/183
f 161/161/161 183/183/183 182/182/182
f 162/162/162 163/163/163 184/184/184
f 162/162/162 184/184/184 183/183/183
f 163/163/163 164/164/164 185/185/185
f 163/163/163 185/185/185 184/184/184
f 164/164/164 165/165/165 186/186/186
f 164/164/164 186/186/186 185/185/185
f 165/165/165 166/166/166 187/187/187
f 165/165/165 187/187/187 186/186/186
f 166/166/166 167/167/167 188/188/188
f 166/166/166 188/188/188 187/187/187
f 167/167/167 168/168/168 189/189/189
f 167/167/167 189/189/189 188/188/188
f 169/169/169 170/170/170 191/191/191
f 169/169/169 191/191/191 190/190/190
f 170/170/170 171/171/171 192/192/192
f 170/170/170 192/192/192 191/191/191
f 171/171/171 172/172/172 193/193/193
f 171/171/171 193/193/193 192/192/192
f 172/172/172 173/173/173 194/194/194
f 172/172/172 194/194/194 193/193/193
f 173/173/173 174/174/174 195/195/195
f 173/173/173 195/195/195 194/194/194
f 174/174/174 175/175/175 196/196/196
f 174/174/174 196/196/196 195/195/195
f 175/175/175 176/176/176 197/197/197
f 175/175/175 197/197/197 196/196/196
f 176/176/176 177/177/177 198/198/198
f 176/176/176 198/198/198 197/197/197
f 177/177/177 178/178/178 199/199/199
f 177/177/177 199/199/199 198/198/198
f 178/178/178 179/179/179 200/200/200
f 178/178/178 200/200/200 199/199/199
f 179/179/179 180/180/180 201/201/201
f 179/179/179 201/201/201 200/200/200
f 180/180/180 181/181/181 202/202/202
f 180/180/180 202/202/202 201/201/201
f 181/181/181 182/182/182 203/203/203
f 181/181/181 203/203/203 202/202/202
f 182/182/182 183/183/183 204/204/204
f 182/182/182 204/204/204 203/203/203
f 183/183/183 184/184/184 205/205/205
f 183/183/183 205/205/205 204/204/204
f 184/184/184 185/185/185 206/206/206
f 184/184/184 206/206/206 205/205/205
f 185/185/185 186/186/186 207/207/207
f 185/185/185 207/207/207 206/206/206
f 186/186/186 187/187/187 208/208/208
f 186/186/186 208/208/208 207/207/207
f 187/187/187 188/188/188 209/209/209
f 187/187/187 209/209/209 208/208/208
f 188/188/188 189/189/189 210/210/210
f 188/188/188 210/210/210 209/209/209
f 190/190/190 191/191/191 212/212/212
f 190/190/190 212/212/212 211/211/211
f 191/191/191 192/192/192 213/213/213
f 191/191/191 213/213/213 212/212/212
f 192/192/192 193/193/193 214/214/214
f 192/192/192 214/214/214 213/213/213
f 193/193/193 194/194/194 215/215/215
f 193/193/193 215/215/215 214/214/214
f 194/194/194 195/195/195 216/216/216
f 194/194/194 216/216/216 215/215/215
f 195/195/195 196/196/196 217/217/217
f 195/195/195 217/217/217 216/216/216
f 196/196/196 197/197/197 218/218/218
f 196/196/196 218/218/218 217/217/217
f 197/197/197 198/198/198 219/219/219
f 197/197/197 219/219/219 218/218/218
f 198/198/198 199/199/199 220/220/220
f 198/198/198 220/220/220 219/219/219
f 199/199/199 200/200/200 221/221/221
f 199/199/199 221/221/221 220/220/220
f 200/200/200 201/201/201 222/222/222
f 200/200/200 222/222/222 221/221/221
f 201/201/201 202/202/202 223/223/223
f 201/201/201 223/223/223 222/222/222
f 202/202/202 203/203/203 224/224/224
f 202/202/202 224/224/224 223/223/223
f 203/203/203 204/204/204 225/225/225
f 203/203/203 225/225/225 224/224/224
f 204/204/204 205/205/205 226/226/226
f 204/204/204 226/226/226 225/225/225
f 205/205/205 206/206/206 227/227/227
f 205/205/205 227/227/227 226/226/226
f 206/206/206 207/207/207 228/228/228
f 206/206/206 228/228/228 227/227/227
f 207/207/207 208/208/208 229/229/229
f 207/207/207 229/229/229 228/228/228
f 208/208/208 209/209/209 230/230/230
f 208/208/208 230/230/230 229/229/229
f 209/209/209 210/210/210 231/231/231
f 209/209/209 231/231/231 230/230/230
f 211/211/211 212/212/212 233/233/233
f 211/211/211 233/233/233 232/232/232
f 212/212/212 213/213/213 234/234/234
f 212/212/212 234/234/234 233/233/233
f 213/213/213 214/214/214 235/235/235
f 213/213/213 235/235/235 234/234/234
f 214/214/214 215/215/215 236/236/236
f 214/214/214 236/236/236 235/235/235
f 215/215/215 216/216/216 237/237/237
f 215/215/215 237/237/237 236/236/236
f 216/216/216 217/217/217 238/238/238
f 216/216/216 238/238/238 237/237/237
f 217/217/217 218/218/218 239/239/239
f 217/217/217 239/239/239 238/238/238
f 218/218/218 219/219/219 240/240/240
f 218/218/218 240/240/240 239/239/239
f 219/219/219 220/220/220 241/241/241
f 219/219/219 241/241/241 240/240/240
f 220/220/220 221/221/221 242/242/242
f 220/220/220 242/242/242 241/241/241
f 221/221/221 222/222/222 243/243/243
f 221/221/221 243/243/243 242/242/242
f 222/222/222 223/223/223 244/244/244
f 222/222/222 244/244/244 243/243/243
f 223/223/223 224/224/224 245/245/245
f 223/223/223 245/245/245 244/244/244
f 224/224/224 225/225/225 246/246/246
f 224/224/224 246/246/246 245/245/245
f 225/225/225 226/226/226 247/247/247
f 225/225/225 247/247/247 246/246/246
f 226/226/226 227/227/227 248/248/248
f 226/226/226 248/248/248 247/247/247
f 227/227/227 228/228/228 249/249/249
f 227/227/227 249/249/249 248/248/248
f 228/228/228 229/229/229 250/250/250
f 228/228/228 250/250/250 249/249/249
f 229/229/229 230/230/230 251/251/251
f 229/229/229 251/251/251 250/250/250
f 230/230/230 231/231/231 252/252/252
f 230/230/230 252/252/252 251/251/251
f 232/232/232 233/233/233 254/254/254
f 232/232/232 254/254/254 253/253/253
f 233/233/233 234/234/234 255/255/255
f 233/233/233 255/255/255 254/254/254
f 234/234/234 235/235/235 256/256/256
f 234/234/234 256/256/256 255/255/255
f 235/235/235 236/236/236 257/257/257
f 235/235/235 257/257/257 256/256/256
f 236/236/236 237/237/237 258/258/258
f 236/236/236 258/258/258 257/257/257
f 237/237/237 238/238/238 259/259/259
f 237/237/237 259/259/259 258/258/258
f 238/238/238 239/239/239 260/260/260
f 238/238/238 260/260/260 259/259/259
f 239/239/239 240/240/240 261/261/261
f 239/239/239 261/261/261 260/260/260
f 240/240/240 241/241/241 262/262/262
f 240/240/240 262/262/262 261/261/261
f 241/241/241 242/242/242 263/263/263
f 241/241/241 263/263/263 262/262/262
f 242/242/242 243/243/243 264/264/264
f 242/242/242 264/264/264 263/263/263
f 243/243/243 244/244/244 265/265/265
f 243/243/243 265/265/265 264/264/264
f 244/244/244 245/245/245 266/266/266
f 244/244/244 266/266/266 265/265/265
f 245/245/245 246/246/246 267/267/267
f 245/245/245 267/267/267 266/266/266
f 246/246/246 247/247/247 268/268/268
f 246/246/246 268/268/268 267/267/267
f 247/247/247 248/248/248 269/269/269
f 247/247/247 269/269/269 268/268/268
f 248/248/248 249/249/249 270/270/270
f 248/248/248 270/270/270 269/269/269
f 249/249/249 250/250/250 271/271/271
f 249/249/249 271/271/271 270/270/270
f 250/250/250 251/251/251 272/272/272
f 250/250/250 272/272/272 271/271/271
f 251/251/251 252/252/252 273/273/273
f 251/251/251 273/273/273 272/272/272
f 274/274/274 275/275/275 290/290/290
f 274/274/274 290/290/290 289/289/289
f 275/275/275 276/276/276 291/291/291
f 275/275/275 291/291/291 290/290/290
f 276/276/276 277/277/277 292/292/292
f 276/276/276 292/292/292 291/291/291
f 277/277/277 278/278/278 293/293/293
f 277/277/277 293/293/293 292/292/292
f 278/278/278 279/279/279 294/294/294
f 278/278/278 294/294/294 293/293/293
f 279/279/279 280/280/280 295/295/295
f 279/279/279 295/295/295 294/294/294
f 280/280/280 281/281/281 296/296/296
f 280/280/280 296/296/296 295/295/295
f 281/281/281 282/282/282 297/297/297
f 281/281/281 297/297/297 296/296/296
f 282/282/282 283/283/283 298/298/298
f 282/282/282 298/298/298 297/297/297
f 283/283/283 284/284/284 299/299/299
f 283/283/283 299/299/299 298/298/298
f 284/284/284 285/285/285 300/300/300
f 284/284/284 300/300/300 299/299/299
f 285/285/285 286/286/286 301/301/301
f 285/285/285 301/301/301 300/300/300
f 286/286/286 287/287/287 302/302/302
f 286/286/286 302/302/302 301/301/301
f 287/287/287 288/288/288 303/303/303
f 287/287/287 303/303/303 302/302/302
f 289/289/289 290/290/290 305/305/305
f 289/289/289 305/305/305 304/304/304
f 290/290/290 291/291/291 306/306/306
f 290/290/290 306/306/306 305/305/305
f 291/291/291 292/292/292 307/307/307
f 291/291/291 307/307/307 306/306/306
f 292/292/292 293/293/293 308/308/308
f 292/292/292 308/308/308 307/307/307
f 293/293/293 294/294/294 309/309/309
f 293/293/293 309/309/309 308/308/308
f 294/294/294 295/295/295 310/310/310
f 294/294/294 310/310/310 309/309/309
f 295/295/295 296/296/296 311/311/311
f 295/295/295 311/311/311 310/310/310
f 296/296/296 297/297/297 312/312/312
f 296/296/296 312/312/312 311/311/311
f 297/297/297 298/298/298 313/313/313
f 297/297/297 313/313/313 312/312/312
f 298/298/298 299/299/299 314/314/314
f 298/298/298 314/314/314 313/313/313
f 299/299/299 300/300/300 315/315/315
f 299/299/299 315/315/315 314/314/314
f 300/300/300 301/301/301 316/316/316
f 300/300/300 316/316/316 315/315/315
f 301/301/301 302/302/302 317/317/317
f 301/301/301 317/317/317 316/316/316
f 302/302/302 303/303/303 318/318/318
f 302/302/302 318/318/318 317/317/317
f 304/304/304 305/305/305 320/320/320
f 304/304/304 320/320/320 319/319/319
f 305/305/305 306/306/306 321/321/321
f 305/305/305 321/321/321 320/320/320
f 306/306/306 307/307/307 322/322/322
f 306/306/306 322/322/322 321/321/321
f 307/307/307 308/308/308 323/323/323
f 307/307/307 323/323/323 322/322/322
f 308/308/308 309/309/309 324/324/324
f 308/308/308 324/324/324 323/323/323
f 309/309/309 310/310/310 325/325/325
f 309/309/309 325/325/325 324/324/324
f 310/310/310 311/311/311 326/326/326
f 310/310/310 326/326/326 325/325/325
f 311/311/311 312/312/312 327/327/327
f 311/311/311 327/327/327 326/326/326
f 312/312/312 313/313/313 328/328/328
f 312/312/312 328/328/328 327/327/327
f 313/313/313 314/314/314 329/329/329
f 313/313/313 329/329/329 328/328/328
f 314/314/314 315/315/315 330/330/330
f 314/314/314 330/330/330 329/329/329
f 315/315/315 316/316/316 331/331/331
f 315/315/315 331/331/331 330/330/330
f 316/316/316 317/317/317 332/332/332
f 316/316/316 332/332/332 331/331/331
f 317/317/317 318/318/318 333/333/333
f 317/317/317 333/333/333 332/332/332
f 319/319/319 320/320/320 335/335/335
f 319/319/319 335/335/335 334/334/334
f 320/320/320 321/321/321 336/336/336
f 320/320/320 336/336/336 335/335/335
f 321/321/321 322/322/322 337/337/337
f 321/321/321 337/337/337 336/336/336
f 322/322/322 323/323/323 338/338/338
f 322/322/322 338/338/338 337/337/337
f 323/323/323 324/324/324 339/339/339
f 323/323/323 339/339/339 338/338/338
f 324/324/324 325/325/325 340/340/340
f 324/324/324 340/340/340 339/339/339
f 325/325/325 326/326/326 341/341/341
f 325/325/325 341/341/341 340/340/340
f 326/326/326 327/327/327 342/342/342
f 326/326/326 342/342/342 341/341/341
f 327/327/327 328/328/328 343/343/343
f 327/327/327 343/343/343 342/342/342
f 328/328/328 329/329/329 344/344/344
f 328/328/328 344/344/344 343/343/343
f 329/329/329 330/330/330 345/345/345
f 329/329/329 345/345/345 344/344/344
f 330/330/330 331/331/331 346/346/346
f 330/330/330 346/346/346 345/345/345
f 331/331/331 332/332/332 347/347/347
f 331/331/331 347/347/347 346/346/346
f 332/332/332 333/333/333 348/348/348
f 332/332/332 348/348/348 347/347/347
f 334/334/334 335/335/335 350/350/350
f 334/334/334 350/350/350 349/349/349
f 335/335/335 336/336/336 351/351/351
f 335/335/335 351/351/351 350/350/350
f 336/336/336 337/337/337 352/352/352
f 336/336/336 352/352/352 351/351/351
f 337/337/337 338/338/338 353/353/353
f 337/337/337 353/353/353 352/352/352
f 338/338/338 339/339/339 354/354/354
f 338/338/338 354/354/354 353/353/353
f 339/339/339 340/340/340 355/355/355
f 339/339/339 355/355/355 354/354/354
f 340/340/340 341/341/341 356/356/356
f 340/340/340 356/356/356 355/355/355
f 341/341/341 342/342/342 357/357/357
f 341/341/341 357/357/357 356/356/356
f 342/342/342 343/343/343 358/358/358
f 342/342/342 358/358/358 357/357/357
f 343/343/343 344/344/344 359/359/359
f 343/343/343 359/359/359 358/358/358
f 344/344/344 345/345/345 360/360/360
f 344/344/344 360/360/360 359/359/359
f 345/345/345 346/346/346 361/361/361
f 345/345/345 361/361/361 360/360/360
f 346/346/346 347/347/347 362/362/362
f 346/346/346 362/362/362 361/361/361
f 347/347/347 348/348/348 363/363/363
f 347/347/347 363/363/363 362/362/362
f 349/349/349 350/350/350 365/365/365
f 349/349/349 365/365/365 364/364/364
f 350/350/350 351/351/351 366/366/366
f 350/350/350 366/366/366 365/365/365
f 351/351/351 352/352/352 367/367/367
f 351/351/351 367/367/367 366/366/366
f 352/352/352 353/353/353 368/368/368
f 352/352/352 368/368/368 367/367/367
f 353/353/353 354/354/354 369/369/369
f 353/353/353 369/369/369 368/368/368
f 354/354/354 355/355/355 370/370/370
f 354/354/354 370/370/370 369/369/369
f 355/355/355 356/356/356 371/371/371
f 355/355/355 371/371/371 370/370/370
f 356/356/356 357/357/357 372/372/372
f 356/356/356 372/372/372 371/371/371
f 357/357/357 358/358/358 373/373/373
f 357/357/357 373/373/373 372/372/372
f 358/358/358 359/359/359 374/374/374
f 358/358/358 374/374/374 373/373/373
f 359/359/359 360/360/360 375/375/375
f 359/359/359 375/375/375 374/374/374
f 360/360/360 361/361/361 376/376/376
f 360/360/360 376/376/376 375/375/375
f 361/361/361 362/362/362 377/377/377
f 361/361/361 377/377/377 376/376/376
f 362/362/362 363/363/363 378/378/378
f 362/362/362 378/378/378 377/377/377
f 364/364/364 365/365/365 380/380/380
f 364/364/364 380/380/380 379/379/379
f 365/365/365 366/366/366 381/381/381
f 365/365/365 381/381/381 380/380/380
f 366/366/366 367/367/367 382/382/382
f 366/366/366 382/382/382 381/381/381
f 367/367/367 368/368/368 383/383/383
f 367/367/367 383/383/383 382/382/382
f 368/368/368 369/369/369 384/384/384
f 368/368/368 384/384/384 383/383/383
f 369/369/369 370/370/370 385/385/385
f 369/369/369 385/385/385 384/384/384
f 370/370/370 371/371/371 386/386/386
f 370/370/370 386/386/386 385/385/385
f 371/371/371 372/372/372 387/387/387
f 371/371/371 387/387/387 386/386/386
f 372/372/372 373/373/373 388/388/388
f 372/372/372 388/388/388 387/387/387
f 373/373/373 374/374/374 389/389/389
f 373/373/373 389/389/389 388/388/388
f 374/374/374 375/375/375 390/390/390
f 374/374/374 390/390/390 389/389/389
f 375/375/375 376/376/376 391/391/391
f 375/375/375 391/391/391 390/390/390
f 376/376/376 377/377/377 392/392/392
f 376/376/376 392/392/392 391/391/391
f 377/377/377 378/378/378 393/393/393
f 377/377/377 393/393/393 392/392/392
f 379/379/379 380/380/380 395/395/395
f 379/379/379 395/395/395 394/394/394
f 380/380/380 381/381/381 396/396/396
f 380/380/380 396/396/396 395/395/395
f 381/381/381 382/382/382 397/397/397
f 381/381/381 397/397/397 396/396/396
f 382/382/382 383/383/383 398/398/398
f 382/382/382 398/398/398 397/397/397
f 383/383/383 384/384/384 399/399/399
f 383/383/383 399/399/399 398/398/398
f 384/384/384 385/385/385 400/400/400
f 384/384/384 400/400/400 399/399/399
f 385/385/385 386/386/386 401/401/401
f 385/385/385 401/401/401 400/400/400
f 386/386/386 387/387/387 402/402/402
f 386/386/386 402/402/402 401/401/401
f 387/387/387 388/388/388 403/403/403
f 387/387/387 403/403/403 402/402/402
f 388/388/388 389/389/389 404/404/404
f 388/388/388 404/404/404 403/403/403
f 389/389/389 390/390/390 405/405/405
f 389/389/389 405/405/405 404/404/404
f 390/390/390 391/391/391 406/406/406
f 390/390/390 406/406/406 405/405/405
f 391/391/391 392/392/392 407/407/407
f 391/391/391 407/407/407 406/406/406
f 392/392/392 393/393/393 408/408/408
f 392/392/392 408/408/408 407/407/407
f 409/409/409 410/410/410 419/419/419
f 409/409/409 419/419/419 418/418/418
f 410/410/410 411/411/411 420/420/420
f 410/410/410 420/420/420 419/419/419
f 411/411/411 412/412/412 421/421/421
f 411/411/411 421/421/421 420/420/420
f 412/412/412 413/413/413 422/422/422
f 412/412/412 422/422/422 421/421/421
f 413/413/413 414/414/414 423/423/423
f 413/413/413 423/423/423 422/422/422
f 414/414/414 415/415/415 424/424/424
f 414/414/414 424/424/424 423/423/423
f 415/415/415 416/416/416 425/425/425
f 415/415/415 425/425/425 424/424/424
f 416/416/416 417/417/417 426/426/426
f 416/416/416 426/426/426 425/425/425
f 418/418/418 419/419/419 428/428/428
f 418/418/418 428/428/428 427/427/427
f 419/419/419 420/420/420 429/429/429
f 419/419/419 429/429/429 428/428/428
f 420/420/420 421/421/421 430/430/430
f 420/420/420 430/430/430 429/429/429
f 421/421/421 422/422/422 431/431/431
f 421/421/421 431/431/431 430/430/430
f 422/422/422 423/423/423 432/432/432
f 422/422/422 432/432/432 431/431/431
f 423/423/423 424/424/424 433/433/433
f 423/423/423 433/433/433 432/432/432
f 424/424/424 425/425/425 434/434/434
f 424/424/424 434/434/434 433/433/433
f 425/425/425 426/426/426 435/435/435
f 425/425/425 435/435/435 434/434/434
f 427/427/427 428/428/428 437/437/437
f 427/427/427 437/437/437 436/436/436
f 428/428/428 429/429/429 438/438/438
f 428/428/428 438/438/438 437/437/437
f 429/429/429 430/430/430 439/439/439
f 429/429/429 439/439/439 438/438/438
f 430/430/430 431/431/431 440/440/440
f 430/430/430 440/440/440 439/439/439
f 431/431/431 432/432/432 441/441/441
f 431/431/431 441/441/441 440/440/440
f 432/432/432 433/433/433 442/442/442
f 432/432/432 442/442/442 441/441/441
f 433/433/433 434/434/434 443/443/443
f 433/433/433 443/443/443 442/442/442
f 434/434/434 435/435/435 444/444/444
f 434/434/434 444/444/444 443/443/443
f 436/436/436 437/437/437 446/446/446
f 436/436/436 446/446/446 445/445/445
f 437/437/437 438/438/438 447/447/447
f 437/437/437 447/447/447 446/446/446
f 438/438/438 439/439/439 448/448/448
f 438/438/438 448/448/448 447/447/447
f 439/439/439 440/440/440 449/449/449
f 439/439/439 449/449/449 448/448/448
f 440/440/440 441/441/441 450/450/450
f 440/440/440 450/450/450 449/449/449
f 441/441/441 442/442/442 451/451/451
f 441/441/441 451/451/451 450/450/450
f 442/442/442 443/443/443 452/452/452
f 442/442/442 452/452/452 451/451/451
f 443/443/443 444/444/444 453/453/453
f 443/443/443 453/453/453 452/452/452
f 445/445/445 446/446/446 455/455/455
f 445/445/445 455/455/455 454/454/454
f 446/446/446 447/447/447 456/456/456
f 446/446/446 456/456/456 455/455/455
f 447/447/447 448/448/448 457/457/457
f 447/447/447 457/457/457 456/456/456
f 448/448/448 449/449/449 458/458/458
f 448/448/448 458/458/458 457/457/457
f 449/449/449 450/450/450 459/459/459
f 449/449/449 459/459/459 458/458/458
f 450/450/450 451/451/451 460/460/460
f 450/450/450 460/460/460 459/459/459
f 451/451/451 452/452/452 461/461/461
f 451/451/451 461/461/461 460/460/460
f 452/452/452 453/453/453 462/462/462
f 452/452/452 462/462/462 461/461/461
f 454/454/454 455/455/455 464/464/464
f 454/454/454 464/464/464 463/463/463
f 455/455/455 456/456/456 465/465/465
f 455/455/455 465/465/465 464/464/464
f 456/456/456 457/457/457 466/466/466
f 456/456/456 466/466/466 465/465/465
f 457/457/457 458/458/458 467/467/467
f 457/457/457 467/467/467 466/466/466
f 458/458/458 459/459/459 468/468/468
f 458/458/458 468/468/468 467/467/467
f 459/459/459 460/460/460 469/469/469
f 459/459/459 469/469/469 468/468/468
f 460/460/460 461/461/461 470/470/470
f 460/460/460 470/470/470 469/469/469
f 461/461/461 462/462/462 471/471/471
f 461/461/461 471/471/471 470/470/470
f 472/472/472 473/473/473 482/482/482
f 472/472/472 482/482/482 481/481/481
f 473/473/473 474/474/474 483/483/483
f 473/473/473 483/483/483 482/482/482
f 474/474/474 475/475/475 484/484/484
f 474/474/474 484/484/484 483/483/483
f 475/475/475 476/476/476 485/485/485
f 475/475/475 485/485/485 484/484/484
f 476/476/476 477/477/477 486/486/486
f 476/476/476 486/486/486 485/485/485
f 477/477/477 478/478/478 487/487/487
f 477/477/477 487/487/487 486/486/486
f 478/478/478 479/479/479 488/488/488
f 478/478/478 488/488/488 487/487/487
f 479/479/479 480/480/480 489/489/489
f 479/479/479 489/489/489 488/488/488
f 481/481/481 482/482/482 491/491/491
f 481/481/481 491/491/491 490/490/490
f 482/482/482 483/483/483 492/492/492
f 482/482/482 492/492/492 491/491/491
f 483/483/483 484/484/484 493/493/493
f 483/483/483 493/493/493 492/492/492
f 484/484/484 485/485/485 494/494/494
f 484/484/484 494/494/494 493/493/493
f 485/485/485 486/486/486 495/495/495
f 485/485/485 495/495/495 494/494/494
f 486/486/486 487/487/487 496/496/496
f 486/486/486 496/496/496 495/495/495
f 487/487/487 488/488/488 497/497/497
f 487/487/487 497/497/497 496/496/496
f 488/488/488 489/489/489 498/498/498
f 488/488/488 498/498/498 497/497/497
f 490/490/490 491/491/491 500/500/500
f 490/490/490 500/500/500 499/499/499
f 491/491/491 492/492/492 501/501/501
f 491/491/491 501/501/501 500/500/500
f 492/492/492 493/493/493 502/502/502
f 492/492/492 502/502/502 501/501/501
f 493/493/493 494/494/494 503/503/503
f 493/493/493 503/503/503 502/502/502
f 494/494/494 495/495/495 504/504/504
f 494/494/494 504/504/504 503/503/503
f 495/495/495 496/496/496 505/505/505
f 495/495/495 505/505/505 504/504/504
f 496/496/496 497/497/497 506/506/506
f 496/496/496 506/506/506 505/505/505
f 497/497/497 498/498/498 507/507/507
f 497/497/497 507/507/507 506/506/506
f 499/499/499 500/500/500 509/509/509
f 499/499/499 509/509/509 508/508/508
f 500/500/500 501/501/501 510/510/510
f 500/500/500 510/510/510 509/509/509
f 501/501/501 502/502/502 511/511/511
f 501/501/501 511/511/511 510/510/510
f 502/502/502 503/503/503 512/512/512
f 502/502/502 512/512/512 511/511/511
f 503/503/503 504/504/504 513/513/513
f 503/503/503 513/513/513 512/512/512
f 504/504/504 505/505/505 514/514/514
f 504/504/504 514/514/514 513/513/513
f 505/505/505 506/506/506 515/515/515
f 505/505/505 515/515/515 514/514/514
f 506/506/506 507/507/507 516/516/516
f 506/506/506 516/516/516 515/515/515
f 508/508/508 509/509/509 518/518/518
f 508/508/508 518/518/518 517/517/517
f 509/509/509 510/510/510 519/519/519
f 509/509/509 519/519/519 518/518/518
f 510/510/510 511/511/511 520/520/520
f 510/510/510 520/520/520 519/519/519
f 511/511/511 512/512/512 521/521/521
f 511/511/511 521/521/521 520/520/520
f 512/512/512 513/513/513 522/522/522
f 512/512/512 522/522/522 521/521/521
f 513/513/513 514/514/514 523/523/523
f 513/513/513 523/523/523 522/522/522
f 514/514/514 515/515/515 524/524/524
f 514/514/514 524/524/524 523/523/523
f 515/515/515 516/516/516 525/525/525
f 515/515/515 525/525/525 524/524/524
f 517/517/517 518/518/518 527/527/527
f 517/517/517 527/527/527 526/526/526
f 518/518/518 519/519/519 528/528/528
f 518/518/518 528/528/528 527/527/527
f 519/519/519 520/520/520 529/529/529
f 519/519/519 529/529/529 528/528/528
f 520/520/520 521/521/521 530/530/530
f 520/520/520 530/530/530 529/529/529
f 521/521/521 522/522/522 531/531/531
f 521/521/521 531/531/531 530/530/530
f 522/522/522 523/523/523 532/532/532
f 522/522/522 532/532/532 531/531/531
f 523/523/523 524/524/524 533/533/533
f 523/523/523 533/533/533 532/532/532
f 524/524/524 525/525/525 534/534/534
f 524/524/524 534/534/534 533/533/533
f 535/535/535 536/536/536 545/545/545
f 535/535/535 545/545/545 544/544/544
f 536/536/536 537/537/537 546/546/546
f 536/536/536 546/546/546 545/545/545
f 537/537/537 538/538/538 547/547/547
f 537/537/537 547/547/547 546/546/546
f 538/538/538 539/539/539 548/548/548
f 538/538/538 548/548/548 547/547/547
f 539/539/539 540/540/540 549/549/549
f 539/539/539 549/549/549 548/548/548
f 540/540/540 541/541/541 550/550/550
f 540/540/540 550/550/550 549/549/549
f 541/541/541 542/542/542 551/551/551
f 541/541/541 551/551/551 550/550/550
f 542/542/542 543/543/543 552/552/552
f 542/542/542 552/552/552 551/551/551
f 544/544/544 545/545/545 554/554/554
f 544/544/544 554/554/554 553/553/553
f 545/545/545 546/546/546 555/555/555
f 545/545/545 555/555/555 554/554/554
f 546/546/546 547/547/547 556/556/556
f 546/546/546 556/556/556 555/555/555
f 547/547/547 548/548/548 557/557/557
f 547/547/547 557/557/557 556/556/556
f 548/548/548 549/549/549 558/558/558
f 548/548/548 558/558/558 557/557/557
f 549/549/549 550/550/550 559/559/559
f 549/549/549 559/559/559 558/558/558
f 550/550/550 551/551/551 560/560/560
f 550/550/550 560/560/560 559/559/559
f 551/551/551 552/552/552 561/561/561
f 551/551/551 561/561/561 560/560/560
f 553/553/553 554/554/554 563/563/563
f 553/553/553 563/563/563 562/562/562
f 554/554/554 555/555/555 564/564/564
f 554/554/554 564/564/564 563/563/563
f 555/555/555 556/556/556 565/565/565
f 555/555/555 565/565/565 564/564/564
f 556/556/556 557/557/557 566/566/566
f 556/556/556 566/566/566 565/565/565
f 557/557/557 558/558/558 567/567/567
f 557/557/557 567/567/567 566/566/566
f 558/558/558 559/559/559 568/568/568
f 558/558/558 568/568/568 567/567/567
f 559/559/559 560/560/560 569/569/569
f 559/559/559 569/569/569 568/568/568
f 560/560/560 561/561/561 570/570/570
f 560/560/560 570/570/570 569/569/569
f 562/562/562 563/563/563 572/572/572
f 562/562/562 572/572/572 571/571/571
f 563/563/563 564/564/564 573/573/573
f 563/563/563 573/573/573 572/572/572
f 564/564/564 565/565/565 574/574/574
f 564/564/564 574/574/574 573/573/573
f 565/565/565 566/566/566 575/575/575
f 565/565/565 575/575/575 574/574/574
f 566/566/566 567/567/567 576/576/576
f 566/566/566 576/576/576 575/575/575
f 567/567/567 568/568/568 577/577/577
f 567/567/567 577/577/577 576/576/576
f 568/568/568 569/569/569 578/578/578
f 568/568/568 578/578/578 577/577/577
f 569/569/569 570/570/570 579/579/579
f 569/569/569 579/579/579 578/578/578
f 571/571/571 572/572/572 581/581/581
f 571/571/571 581/581/581 580/580/580
f 572/572/572 573/573/573 582/582/582
f 572/572/572 582/582/582 581/581/581
f 573/573/573 574/574/574 583/583/583
f 573/573/573 583/583/583 582/582/582
f 574/574/574 575/575/575 584/584/584
f 574/574/574 584/584/584 583/583/583
f 575/575/575 576/576/576 585/585/585
f 575/575/575 585/585/585 584/584/584
f 576/576/576 577/577/577 586/586/586
f 576/576/576 586/586/586 585/585/585
f 577/577/577 578/578/578 587/587/587
f 577/577/577 587/587/587 586/586/586
f 578/578/578 579/579/579 588/588/588
f 578/578/578 588/588/588 587/587/587
f 580/580/580 581/581/581 590/590/590
f 580/580/580 590/590/590 589/589/589
f 581/581/581 582/582/582 591/591/591
f 581/581/581 591/591/591 590/590/590
f 582/582/582 583/583/583 592/592/592
f 582/582/582 592/592/592 591/591/591
f 583/583/583 584/584/584 593/593/593
f 583/583/583 593/593/593 592/592/592
f 584/584/584 585/585/585 594/594/594
f 584/584/584 594/594/594 593/593/593
f 585/585/585 586/586/586 595/595/595
f 585/585/585 595/595/595 594/594/594
f 586/586/586 587/587/587 596/596/596
f 586/586/586 596/596/596 595/595/595
f 587/587/587 588/588/588 597/597/597
f 587/587/587 597/597/597 596/596/596
f 598/598/598 599/599/599 612/612/612
f 598/598/598 612/612/612 611/611/611
f 599/599/599 600/600/600 613/613/613
f 599/599/599 613/613/613 612/612/612
f 600/600/600 601/601/601 614/614/614
f 600/600/600 614/614/614 613/613/613
f 601/601/601 602/602/602 615/615/615
f 601/601/601 615/615/615 614/614/614
f 602/602/602 603/603/603 616/616/616
f 602/602/602 616/616/616 615/615/615
f 603/603/603 604/604/604 617/617/617
f 603/603/603 617/617/617 616/616/616
f 604/604/604 605/605/605 618/618/618
f 604/604/604 618/618/618 617/617/617
f 605/605/605 606/606/606 619/619/619
f 605/605/605 619/619/619 618/618/618
f 606/606/606 607/607/607 620/620/620
f 606/606/606 620/620/620 619/619/619
f 607/607/607 608/608/608 621/621/621
f 607/607/607 621/621/621 620/620/620
f 608/608/608 609/609/609 622/622/622
f 608/608/608 622/622/622 621/621/621
f 609/609/609 610/610/610 623/623/623
f 609/609/609 623/623/623 622/622/622
f 624/624/624 626/626/626 625/625/625
f 624/624/624 627/627/627 626/626/626
f 624/624/624 628/628/628 627/627/627
f 624/624/624 629/629/629 628/628/628
f 624/624/624 630/630/630 629/629/629
f 624/624/624 631/631/631 630/630/630
f 624/624/624 632/632/632 631/631/631
f 624/624/624 633/633/633 632/632/632
f 624/624/624 634/634/634 633/633/633
f 624/624/624 635/635/635 634/634/634
f 624/624/624 636/636/636 635/635/635
f 624/624/624 625/625/625 636/636/636
f 637/637/637 638/638/638 639/639/639
f 637/637/637 639/639/639 640/640/640
f 637/637/637 640/640/640 641/641/641
f 637/637/637 641/641/641 642/642/642
f 637/637/637 642/642/642 643/643/643
f 637/637/637 643/643/643 644/644/644
f 637/637/637 644/644/644 645/645/645
f 637/637/637 645/645/645 646/646/646
f 637/637/637 646/646/646 647/647/647
f 637/637/637 647/647/647 648/648/648
f 637/637/637 648/648/648 649/649/649
f 637/637/637 649/649/649 638/638/638
