# Sinh tự động bởi tools/mesh_kit.py - đừng sửa tay
o p_legs_seated
v 0.1446 0.5204 0.1596
v 0.1462 0.5188 0.1563
v 0.1500 0.5150 0.1450
v 0.1524 0.5126 0.1250
v 0.1524 0.5126 -0.0250
v 0.1500 0.5150 -0.0450
v 0.1462 0.5188 -0.0563
v 0.1446 0.5204 -0.0596
v 0.1462 0.5237 0.1612
v 0.1479 0.5221 0.1579
v 0.1524 0.5183 0.1462
v 0.1554 0.5157 0.1250
v 0.1554 0.5157 -0.0250
v 0.1524 0.5183 -0.0462
v 0.1479 0.5221 -0.0579
v 0.1462 0.5237 -0.0612
v 0.1500 0.5350 0.1650
v 0.1524 0.5338 0.1617
v 0.1590 0.5305 0.1495
v 0.1637 0.5282 0.1250
v 0.1637 0.5282 -0.0250
v 0.1590 0.5305 -0.0495
v 0.1524 0.5338 -0.0617
v 0.1500 0.5350 -0.0650
v 0.1524 0.5550 0.1674
v 0.1554 0.5550 0.1643
v 0.1637 0.5550 0.1518
v 0.1700 0.5550 0.1250
v 0.1700 0.5550 -0.0250
v 0.1637 0.5550 -0.0518
v 0.1554 0.5550 -0.0643
v 0.1524 0.5550 -0.0674
v 0.1524 0.5750 0.1674
v 0.1554 0.5750 0.1643
v 0.1637 0.5750 0.1518
v 0.1700 0.5750 0.1250
v 0.1700 0.5750 -0.0250
v 0.1637 0.5750 -0.0518
v 0.1554 0.5750 -0.0643
v 0.1524 0.5750 -0.0674
v 0.1500 0.5950 0.1650
v 0.1524 0.5962 0.1617
v 0.1590 0.5995 0.1495
v 0.1637 0.6018 0.1250
v 0.1637 0.6018 -0.0250
v 0.1590 0.5995 -0.0495
v 0.1524 0.5962 -0.0617
v 0.1500 0.5950 -0.0650
v 0.1462 0.6063 0.1612
v 0.1479 0.6079 0.1579
v 0.1524 0.6117 0.1462
v 0.1554 0.6143 0.1250
v 0.1554 0.6143 -0.0250
v 0.1524 0.6117 -0.0462
v 0.1479 0.6079 -0.0579
v 0.1462 0.6063 -0.0612
v 0.1446 0.6096 0.1596
v 0.1462 0.6112 0.1563
v 0.1500 0.6150 0.1450
v 0.1524 0.6174 0.1250
v 0.1524 0.6174 -0.0250
v 0.1500 0.6150 -0.0450
v 0.1462 0.6112 -0.0563
v 0.1446 0.6096 -0.0596
v -0.1446 0.5204 -0.0596
v -0.1462 0.5188 -0.0563
v -0.1500 0.5150 -0.0450
v -0.1524 0.5126 -0.0250
v -0.1524 0.5126 0.1250
v -0.1500 0.5150 0.1450
v -0.1462 0.5188 0.1563
v -0.1446 0.5204 0.1596
v -0.1462 0.5237 -0.0612
v -0.1479 0.5221 -0.0579
v -0.1524 0.5183 -0.0462
v -0.1554 0.5157 -0.0250
v -0.1554 0.5157 0.1250
v -0.1524 0.5183 0.1462
v -0.1479 0.5221 0.1579
v -0.1462 0.5237 0.1612
v -0.1500 0.5350 -0.0650
v -0.1524 0.5338 -0.0617
v -0.1590 0.5305 -0.0495
v -0.1637 0.5282 -0.0250
v -0.1637 0.5282 0.1250
v -0.1590 0.5305 0.1495
v -0.1524 0.5338 0.1617
v -0.1500 0.5350 0.1650
v -0.1524 0.5550 -0.0674
v -0.1554 0.5550 -0.0643
v -0.1637 0.5550 -0.0518
v -0.1700 0.5550 -0.0250
v -0.1700 0.5550 0.1250
v -0.1637 0.5550 0.1518
v -0.1554 0.5550 0.1643
v -0.1524 0.5550 0.1674
v -0.1524 0.5750 -0.0674
v -0.1554 0.5750 -0.0643
v -0.1637 0.5750 -0.0518
v -0.1700 0.5750 -0.0250
v -0.1700 0.5750 0.1250
v -0.1637 0.5750 0.1518
v -0.1554 0.5750 0.1643
v -0.1524 0.5750 0.1674
v -0.1500 0.5950 -0.0650
v -0.1524 0.5962 -0.0617
v -0.1590 0.5995 -0.0495
v -0.1637 0.6018 -0.0250
v -0.1637 0.6018 0.1250
v -0.1590 0.5995 0.1495
v -0.1524 0.5962 0.1617
v -0.1500 0.5950 0.1650
v -0.1462 0.6063 -0.0612
v -0.1479 0.6079 -0.0579
v -0.1524 0.6117 -0.0462
v -0.1554 0.6143 -0.0250
v -0.1554 0.6143 0.1250
v -0.1524 0.6117 0.1462
v -0.1479 0.6079 0.1579
v -0.1462 0.6063 0.1612
v -0.1446 0.6096 -0.0596
v -0.1462 0.6112 -0.0563
v -0.1500 0.6150 -0.0450
v -0.1524 0.6174 -0.0250
v -0.1524 0.6174 0.1250
v -0.1500 0.6150 0.1450
v -0.1462 0.6112 0.1563
v -0.1446 0.6096 0.1596
v -0.1446 0.6096 0.1596
v -0.1413 0.6112 0.1612
v -0.1300 0.6150 0.1650
v -0.1100 0.6174 0.1674
v 0.1100 0.6174 0.1674
v 0.1300 0.6150 0.1650
v 0.1413 0.6112 0.1612
v 0.1446 0.6096 0.1596
v -0.1462 0.6112 0.1563
v -0.1429 0.6129 0.1579
v -0.1312 0.6174 0.1617
v -0.1100 0.6204 0.1643
v 0.1100 0.6204 0.1643
v 0.1312 0.6174 0.1617
v 0.1429 0.6129 0.1579
v 0.1462 0.6112 0.1563
v -0.1500 0.6150 0.1450
v -0.1467 0.6174 0.1462
v -0.1345 0.6240 0.1495
v -0.1100 0.6287 0.1518
v 0.1100 0.6287 0.1518
v 0.1345 0.6240 0.1495
v 0.1467 0.6174 0.1462
v 0.1500 0.6150 0.1450
v -0.1524 0.6174 0.1250
v -0.1493 0.6204 0.1250
v -0.1368 0.6287 0.1250
v -0.1100 0.6350 0.1250
v 0.1100 0.6350 0.1250
v 0.1368 0.6287 0.1250
v 0.1493 0.6204 0.1250
v 0.1524 0.6174 0.1250
v -0.1524 0.6174 -0.0250
v -0.1493 0.6204 -0.0250
v -0.1368 0.6287 -0.0250
v -0.1100 0.6350 -0.0250
v 0.1100 0.6350 -0.0250
v 0.1368 0.6287 -0.0250
v 0.1493 0.6204 -0.0250
v 0.1524 0.6174 -0.0250
v -0.1500 0.6150 -0.0450
v -0.1467 0.6174 -0.0462
v -0.1345 0.6240 -0.0495
v -0.1100 0.6287 -0.0518
v 0.1100 0.6287 -0.0518
v 0.1345 0.6240 -0.0495
v 0.1467 0.6174 -0.0462
v 0.1500 0.6150 -0.0450
v -0.1462 0.6112 -0.0563
v -0.1429 0.6129 -0.0579
v -0.1312 0.6174 -0.0617
v -0.1100 0.6204 -0.0643
v 0.1100 0.6204 -0.0643
v 0.1312 0.6174 -0.0617
v 0.1429 0.6129 -0.0579
v 0.1462 0.6112 -0.0563
v -0.1446 0.6096 -0.0596
v -0.1413 0.6112 -0.0612
v -0.1300 0.6150 -0.0650
v -0.1100 0.6174 -0.0674
v 0.1100 0.6174 -0.0674
v 0.1300 0.6150 -0.0650
v 0.1413 0.6112 -0.0612
v 0.1446 0.6096 -0.0596
v -0.1446 0.5204 -0.0596
v -0.1413 0.5188 -0.0612
v -0.1300 0.5150 -0.0650
v -0.1100 0.5126 -0.0674
v 0.1100 0.5126 -0.0674
v 0.1300 0.5150 -0.0650
v 0.1413 0.5188 -0.0612
v 0.1446 0.5204 -0.0596
v -0.1462 0.5188 -0.0563
v -0.1429 0.5171 -0.0579
v -0.1312 0.5126 -0.0617
v -0.1100 0.5096 -0.0643
v 0.1100 0.5096 -0.0643
v 0.1312 0.5126 -0.0617
v 0.1429 0.5171 -0.0579
v 0.1462 0.5188 -0.0563
v -0.1500 0.5150 -0.0450
v -0.1467 0.5126 -0.0462
v -0.1345 0.5060 -0.0495
v -0.1100 0.5013 -0.0518
v 0.1100 0.5013 -0.0518
v 0.1345 0.5060 -0.0495
v 0.1467 0.5126 -0.0462
v 0.1500 0.5150 -0.0450
v -0.1524 0.5126 -0.0250
v -0.1493 0.5096 -0.0250
v -0.1368 0.5013 -0.0250
v -0.1100 0.4950 -0.0250
v 0.1100 0.4950 -0.0250
v 0.1368 0.5013 -0.0250
v 0.1493 0.5096 -0.0250
v 0.1524 0.5126 -0.0250
v -0.1524 0.5126 0.1250
v -0.1493 0.5096 0.1250
v -0.1368 0.5013 0.1250
v -0.1100 0.4950 0.1250
v 0.1100 0.4950 0.1250
v 0.1368 0.5013 0.1250
v 0.1493 0.5096 0.1250
v 0.1524 0.5126 0.1250
v -0.1500 0.5150 0.1450
v -0.1467 0.5126 0.1462
v -0.1345 0.5060 0.1495
v -0.1100 0.5013 0.1518
v 0.1100 0.5013 0.1518
v 0.1345 0.5060 0.1495
v 0.1467 0.5126 0.1462
v 0.1500 0.5150 0.1450
v -0.1462 0.5188 0.1563
v -0.1429 0.5171 0.1579
v -0.1312 0.5126 0.1617
v -0.1100 0.5096 0.1643
v 0.1100 0.5096 0.1643
v 0.1312 0.5126 0.1617
v 0.1429 0.5171 0.1579
v 0.1462 0.5188 0.1563
v -0.1446 0.5204 0.1596
v -0.1413 0.5188 0.1612
v -0.1300 0.5150 0.1650
v -0.1100 0.5126 0.1674
v 0.1100 0.5126 0.1674
v 0.1300 0.5150 0.1650
v 0.1413 0.5188 0.1612
v 0.1446 0.5204 0.1596
v -0.1446 0.5204 0.1596
v -0.1413 0.5188 0.1612
v -0.1300 0.5150 0.1650
v -0.1100 0.5126 0.1674
v 0.1100 0.5126 0.1674
v 0.1300 0.5150 0.1650
v 0.1413 0.5188 0.1612
v 0.1446 0.5204 0.1596
v -0.1462 0.5237 0.1612
v -0.1429 0.5221 0.1629
v -0.1312 0.5183 0.1674
v -0.1100 0.5157 0.1704
v 0.1100 0.5157 0.1704
v 0.1312 0.5183 0.1674
v 0.1429 0.5221 0.1629
v 0.1462 0.5237 0.1612
v -0.1500 0.5350 0.1650
v -0.1467 0.5338 0.1674
v -0.1345 0.5305 0.1740
v -0.1100 0.5282 0.1787
v 0.1100 0.5282 0.1787
v 0.1345 0.5305 0.1740
v 0.1467 0.5338 0.1674
v 0.1500 0.5350 0.1650
v -0.1524 0.5550 0.1674
v -0.1493 0.5550 0.1704
v -0.1368 0.5550 0.1787
v -0.1100 0.5550 0.1850
v 0.1100 0.5550 0.1850
v 0.1368 0.5550 0.1787
v 0.1493 0.5550 0.1704
v 0.1524 0.5550 0.1674
v -0.1524 0.5750 0.1674
v -0.1493 0.5750 0.1704
v -0.1368 0.5750 0.1787
v -0.1100 0.5750 0.1850
v 0.1100 0.5750 0.1850
v 0.1368 0.5750 0.1787
v 0.1493 0.5750 0.1704
v 0.1524 0.5750 0.1674
v -0.1500 0.5950 0.1650
v -0.1467 0.5962 0.1674
v -0.1345 0.5995 0.1740
v -0.1100 0.6018 0.1787
v 0.1100 0.6018 0.1787
v 0.1345 0.5995 0.1740
v 0.1467 0.5962 0.1674
v 0.1500 0.5950 0.1650
v -0.1462 0.6063 0.1612
v -0.1429 0.6079 0.1629
v -0.1312 0.6117 0.1674
v -0.1100 0.6143 0.1704
v 0.1100 0.6143 0.1704
v 0.1312 0.6117 0.1674
v 0.1429 0.6079 0.1629
v 0.1462 0.6063 0.1612
v -0.1446 0.6096 0.1596
v -0.1413 0.6112 0.1612
v -0.1300 0.6150 0.1650
v -0.1100 0.6174 0.1674
v 0.1100 0.6174 0.1674
v 0.1300 0.6150 0.1650
v 0.1413 0.6112 0.1612
v 0.1446 0.6096 0.1596
v 0.1446 0.5204 -0.0596
v 0.1413 0.5188 -0.0612
v 0.1300 0.5150 -0.0650
v 0.1100 0.5126 -0.0674
v -0.1100 0.5126 -0.0674
v -0.1300 0.5150 -0.0650
v -0.1413 0.5188 -0.0612
v -0.1446 0.5204 -0.0596
v 0.1462 0.5237 -0.0612
v 0.1429 0.5221 -0.0629
v 0.1312 0.5183 -0.0674
v 0.1100 0.5157 -0.0704
v -0.1100 0.5157 -0.0704
v -0.1312 0.5183 -0.0674
v -0.1429 0.5221 -0.0629
v -0.1462 0.5237 -0.0612
v 0.1500 0.5350 -0.0650
v 0.1467 0.5338 -0.0674
v 0.1345 0.5305 -0.0740
v 0.1100 0.5282 -0.0787
v -0.1100 0.5282 -0.0787
v -0.1345 0.5305 -0.0740
v -0.1467 0.5338 -0.0674
v -0.1500 0.5350 -0.0650
v 0.1524 0.5550 -0.0674
v 0.1493 0.5550 -0.0704
v 0.1368 0.5550 -0.0787
v 0.1100 0.5550 -0.0850
v -0.1100 0.5550 -0.0850
v -0.1368 0.5550 -0.0787
v -0.1493 0.5550 -0.0704
v -0.1524 0.5550 -0.0674
v 0.1524 0.5750 -0.0674
v 0.1493 0.5750 -0.0704
v 0.1368 0.5750 -0.0787
v 0.1100 0.5750 -0.0850
v -0.1100 0.5750 -0.0850
v -0.1368 0.5750 -0.0787
v -0.1493 0.5750 -0.0704
v -0.1524 0.5750 -0.0674
v 0.1500 0.5950 -0.0650
v 0.1467 0.5962 -0.0674
v 0.1345 0.5995 -0.0740
v 0.1100 0.6018 -0.0787
v -0.1100 0.6018 -0.0787
v -0.1345 0.5995 -0.0740
v -0.1467 0.5962 -0.0674
v -0.1500 0.5950 -0.0650
v 0.1462 0.6063 -0.0612
v 0.1429 0.6079 -0.0629
v 0.1312 0.6117 -0.0674
v 0.1100 0.6143 -0.0704
v -0.1100 0.6143 -0.0704
v -0.1312 0.6117 -0.0674
v -0.1429 0.6079 -0.0629
v -0.1462 0.6063 -0.0612
v 0.1446 0.6096 -0.0596
v 0.1413 0.6112 -0.0612
v 0.1300 0.6150 -0.0650
v 0.1100 0.6174 -0.0674
v -0.1100 0.6174 -0.0674
v -0.1300 0.6150 -0.0650
v -0.1413 0.6112 -0.0612
v -0.1446 0.6096 -0.0596
v -0.0900 0.6450 0.0589
v -0.0500 0.6343 0.0579
v -0.0208 0.6050 0.0575
v -0.0100 0.5650 0.0578
v -0.0207 0.5250 0.0586
v -0.0500 0.4957 0.0599
v -0.0900 0.4850 0.0611
v -0.1300 0.4957 0.0621
v -0.1592 0.5250 0.0625
v -0.1700 0.5650 0.0622
v -0.1593 0.6050 0.0614
v -0.1300 0.6343 0.0601
v -0.0900 0.6450 0.0589
v -0.1000 0.6220 -0.3009
v -0.0690 0.6137 -0.3016
v -0.0463 0.5910 -0.3019
v -0.0380 0.5600 -0.3017
v -0.0463 0.5290 -0.3011
v -0.0690 0.5063 -0.3001
v -0.1000 0.4980 -0.2991
v -0.1310 0.5063 -0.2984
v -0.1537 0.5290 -0.2981
v -0.1620 0.5600 -0.2983
v -0.1537 0.5910 -0.2989
v -0.1310 0.6137 -0.2999
v -0.1000 0.6220 -0.3009
v -0.0900 0.5650 0.0600
v -0.0900 0.6450 0.0589
v -0.0500 0.6343 0.0579
v -0.0208 0.6050 0.0575
v -0.0100 0.5650 0.0578
v -0.0207 0.5250 0.0586
v -0.0500 0.4957 0.0599
v -0.0900 0.4850 0.0611
v -0.1300 0.4957 0.0621
v -0.1592 0.5250 0.0625
v -0.1700 0.5650 0.0622
v -0.1593 0.6050 0.0614
v -0.1300 0.6343 0.0601
v -0.1000 0.5600 -0.3000
v -0.1000 0.6220 -0.3009
v -0.0690 0.6137 -0.3016
v -0.0463 0.5910 -0.3019
v -0.0380 0.5600 -0.3017
v -0.0463 0.5290 -0.3011
v -0.0690 0.5063 -0.3001
v -0.1000 0.4980 -0.2991
v -0.1310 0.5063 -0.2984
v -0.1537 0.5290 -0.2981
v -0.1620 0.5600 -0.2983
v -0.1537 0.5910 -0.2989
v -0.1310 0.6137 -0.2999
v -0.0420 0.5400 -0.3300
v -0.0498 0.5367 -0.3012
v -0.0710 0.5343 -0.2801
v -0.1000 0.5335 -0.2724
v -0.1290 0.5343 -0.2801
v -0.1502 0.5367 -0.3012
v -0.1580 0.5400 -0.3300
v -0.1502 0.5433 -0.3588
v -0.1290 0.5457 -0.3799
v -0.1000 0.5465 -0.3876
v -0.0710 0.5457 -0.3799
v -0.0498 0.5433 -0.3588
v -0.0420 0.5400 -0.3300
v -0.0580 0.1000 -0.3800
v -0.0636 0.0976 -0.3591
v -0.0790 0.0959 -0.3439
v -0.1000 0.0953 -0.3383
v -0.1210 0.0959 -0.3439
v -0.1364 0.0976 -0.3591
v -0.1420 0.1000 -0.3800
v -0.1364 0.1024 -0.4009
v -0.1210 0.1041 -0.4161
v -0.1000 0.1047 -0.4217
v -0.0790 0.1041 -0.4161
v -0.0636 0.1024 -0.4009
v -0.0580 0.1000 -0.3800
v -0.1000 0.5400 -0.3300
v -0.0420 0.5400 -0.3300
v -0.0498 0.5367 -0.3012
v -0.0710 0.5343 -0.2801
v -0.1000 0.5335 -0.2724
v -0.1290 0.5343 -0.2801
v -0.1502 0.5367 -0.3012
v -0.1580 0.5400 -0.3300
v -0.1502 0.5433 -0.3588
v -0.1290 0.5457 -0.3799
v -0.1000 0.5465 -0.3876
v -0.0710 0.5457 -0.3799
v -0.0498 0.5433 -0.3588
v -0.1000 0.1000 -0.3800
v -0.0580 0.1000 -0.3800
v -0.0636 0.0976 -0.3591
v -0.0790 0.0959 -0.3439
v -0.1000 0.0953 -0.3383
v -0.1210 0.0959 -0.3439
v -0.1364 0.0976 -0.3591
v -0.1420 0.1000 -0.3800
v -0.1364 0.1024 -0.4009
v -0.1210 0.1041 -0.4161
v -0.1000 0.1047 -0.4217
v -0.0790 0.1041 -0.4161
v -0.0636 0.1024 -0.4009
v -0.1000 0.4700 -0.3200
v -0.1000 0.4700 -0.3200
v -0.1000 0.4700 -0.3200
v -0.1000 0.4700 -0.3200
v -0.1000 0.4700 -0.3200
v -0.1000 0.4700 -0.3200
v -0.1000 0.4700 -0.3200
v -0.1000 0.4700 -0.3200
v -0.1000 0.4700 -0.3200
v -0.1000 0.4700 -0.3200
v -0.1000 0.4700 -0.3200
v -0.1000 0.4700 -0.3200
v -0.1000 0.4700 -0.3200
v -0.1000 0.4746 -0.2970
v -0.0881 0.4746 -0.3001
v -0.0795 0.4746 -0.3085
v -0.0763 0.4746 -0.3200
v -0.0795 0.4746 -0.3315
v -0.0881 0.4746 -0.3399
v -0.1000 0.4746 -0.3430
v -0.1119 0.4746 -0.3399
v -0.1205 0.4746 -0.3315
v -0.1237 0.4746 -0.3200
v -0.1205 0.4746 -0.3085
v -0.1119 0.4746 -0.3001
v -0.1000 0.4746 -0.2970
v -0.1000 0.4876 -0.2776
v -0.0781 0.4876 -0.2833
v -0.0620 0.4876 -0.2988
v -0.0562 0.4876 -0.3200
v -0.0620 0.4876 -0.3412
v -0.0781 0.4876 -0.3567
v -0.1000 0.4876 -0.3624
v -0.1219 0.4876 -0.3567
v -0.1380 0.4876 -0.3412
v -0.1438 0.4876 -0.3200
v -0.1380 0.4876 -0.2988
v -0.1219 0.4876 -0.2833
v -0.1000 0.4876 -0.2776
v -0.1000 0.5070 -0.2646
v -0.0714 0.5070 -0.2720
v -0.0504 0.5070 -0.2923
v -0.0427 0.5070 -0.3200
v -0.0504 0.5070 -0.3477
v -0.0714 0.5070 -0.3680
v -0.1000 0.5070 -0.3754
v -0.1286 0.5070 -0.3680
v -0.1496 0.5070 -0.3477
v -0.1573 0.5070 -0.3200
v -0.1496 0.5070 -0.2923
v -0.1286 0.5070 -0.2720
v -0.1000 0.5070 -0.2646
v -0.1000 0.5300 -0.2600
v -0.0690 0.5300 -0.2680
v -0.0463 0.5300 -0.2900
v -0.0380 0.5300 -0.3200
v -0.0463 0.5300 -0.3500
v -0.0690 0.5300 -0.3720
v -0.1000 0.5300 -0.3800
v -0.1310 0.5300 -0.3720
v -0.1537 0.5300 -0.3500
v -0.1620 0.5300 -0.3200
v -0.1537 0.5300 -0.2900
v -0.1310 0.5300 -0.2680
v -0.1000 0.5300 -0.2600
v -0.1000 0.5530 -0.2646
v -0.0714 0.5530 -0.2720
v -0.0504 0.5530 -0.2923
v -0.0427 0.5530 -0.3200
v -0.0504 0.5530 -0.3477
v -0.0714 0.5530 -0.3680
v -0.1000 0.5530 -0.3754
v -0.1286 0.5530 -0.3680
v -0.1496 0.5530 -0.3477
v -0.1573 0.5530 -0.3200
v -0.1496 0.5530 -0.2923
v -0.1286 0.5530 -0.2720
v -0.1000 0.5530 -0.2646
v -0.1000 0.5724 -0.2776
v -0.0781 0.5724 -0.2833
v -0.0620 0.5724 -0.2988
v -0.0562 0.5724 -0.3200
v -0.0620 0.5724 -0.3412
v -0.0781 0.5724 -0.3567
v -0.1000 0.5724 -0.3624
v -0.1219 0.5724 -0.3567
v -0.1380 0.5724 -0.3412
v -0.1438 0.5724 -0.3200
v -0.1380 0.5724 -0.2988
v -0.1219 0.5724 -0.2833
v -0.1000 0.5724 -0.2776
v -0.1000 0.5854 -0.2970
v -0.0881 0.5854 -0.3001
v -0.0795 0.5854 -0.3085
v -0.0763 0.5854 -0.3200
v -0.0795 0.5854 -0.3315
v -0.0881 0.5854 -0.3399
v -0.1000 0.5854 -0.3430
v -0.1119 0.5854 -0.3399
v -0.1205 0.5854 -0.3315
v -0.1237 0.5854 -0.3200
v -0.1205 0.5854 -0.3085
v -0.1119 0.5854 -0.3001
v -0.1000 0.5854 -0.2970
v -0.1000 0.5900 -0.3200
v -0.1000 0.5900 -0.3200
v -0.1000 0.5900 -0.3200
v -0.1000 0.5900 -0.3200
v -0.1000 0.5900 -0.3200
v -0.1000 0.5900 -0.3200
v -0.1000 0.5900 -0.3200
v -0.1000 0.5900 -0.3200
v -0.1000 0.5900 -0.3200
v -0.1000 0.5900 -0.3200
v -0.1000 0.5900 -0.3200
v -0.1000 0.5900 -0.3200
v -0.1000 0.5900 -0.3200
v 0.0900 0.6450 0.0589
v 0.1300 0.6343 0.0601
v 0.1593 0.6050 0.0614
v 0.1700 0.5650 0.0622
v 0.1592 0.5250 0.0625
v 0.1300 0.4957 0.0621
v 0.0900 0.4850 0.0611
v 0.0500 0.4957 0.0599
v 0.0207 0.5250 0.0586
v 0.0100 0.5650 0.0578
v 0.0208 0.6050 0.0575
v 0.0500 0.6343 0.0579
v 0.0900 0.6450 0.0589
v 0.1000 0.6220 -0.3009
v 0.1310 0.6137 -0.2999
v 0.1537 0.5910 -0.2989
v 0.1620 0.5600 -0.2983
v 0.1537 0.5290 -0.2981
v 0.1310 0.5063 -0.2984
v 0.1000 0.4980 -0.2991
v 0.0690 0.5063 -0.3001
v 0.0463 0.5290 -0.3011
v 0.0380 0.5600 -0.3017
v 0.0463 0.5910 -0.3019
v 0.0690 0.6137 -0.3016
v 0.1000 0.6220 -0.3009
v 0.0900 0.5650 0.0600
v 0.0900 0.6450 0.0589
v 0.1300 0.6343 0.0601
v 0.1593 0.6050 0.0614
v 0.1700 0.5650 0.0622
v 0.1592 0.5250 0.0625
v 0.1300 0.4957 0.0621
v 0.0900 0.4850 0.0611
v 0.0500 0.4957 0.0599
v 0.0207 0.5250 0.0586
v 0.0100 0.5650 0.0578
v 0.0208 0.6050 0.0575
v 0.0500 0.6343 0.0579
v 0.1000 0.5600 -0.3000
v 0.1000 0.6220 -0.3009
v 0.1310 0.6137 -0.2999
v 0.1537 0.5910 -0.2989
v 0.1620 0.5600 -0.2983
v 0.1537 0.5290 -0.2981
v 0.1310 0.5063 -0.2984
v 0.1000 0.4980 -0.2991
v 0.0690 0.5063 -0.3001
v 0.0463 0.5290 -0.3011
v 0.0380 0.5600 -0.3017
v 0.0463 0.5910 -0.3019
v 0.0690 0.6137 -0.3016
v 0.1580 0.5400 -0.3300
v 0.1502 0.5367 -0.3012
v 0.1290 0.5343 -0.2801
v 0.1000 0.5335 -0.2724
v 0.0710 0.5343 -0.2801
v 0.0498 0.5367 -0.3012
v 0.0420 0.5400 -0.3300
v 0.0498 0.5433 -0.3588
v 0.0710 0.5457 -0.3799
v 0.1000 0.5465 -0.3876
v 0.1290 0.5457 -0.3799
v 0.1502 0.5433 -0.3588
v 0.1580 0.5400 -0.3300
v 0.1420 0.1000 -0.3800
v 0.1364 0.0976 -0.3591
v 0.1210 0.0959 -0.3439
v 0.1000 0.0953 -0.3383
v 0.0790 0.0959 -0.3439
v 0.0636 0.0976 -0.3591
v 0.0580 0.1000 -0.3800
v 0.0636 0.1024 -0.4009
v 0.0790 0.1041 -0.4161
v 0.1000 0.1047 -0.4217
v 0.1210 0.1041 -0.4161
v 0.1364 0.1024 -0.4009
v 0.1420 0.1000 -0.3800
v 0.1000 0.5400 -0.3300
v 0.1580 0.5400 -0.3300
v 0.1502 0.5367 -0.3012
v 0.1290 0.5343 -0.2801
v 0.1000 0.5335 -0.2724
v 0.0710 0.5343 -0.2801
v 0.0498 0.5367 -0.3012
v 0.0420 0.5400 -0.3300
v 0.0498 0.5433 -0.3588
v 0.0710 0.5457 -0.3799
v 0.1000 0.5465 -0.3876
v 0.1290 0.5457 -0.3799
v 0.1502 0.5433 -0.3588
v 0.1000 0.1000 -0.3800
v 0.1420 0.1000 -0.3800
v 0.1364 0.0976 -0.3591
v 0.1210 0.0959 -0.3439
v 0.1000 0.0953 -0.3383
v 0.0790 0.0959 -0.3439
v 0.0636 0.0976 -0.3591
v 0.0580 0.1000 -0.3800
v 0.0636 0.1024 -0.4009
v 0.0790 0.1041 -0.4161
v 0.1000 0.1047 -0.4217
v 0.1210 0.1041 -0.4161
v 0.1364 0.1024 -0.4009
v 0.1000 0.4700 -0.3200
v 0.1000 0.4700 -0.3200
v 0.1000 0.4700 -0.3200
v 0.1000 0.4700 -0.3200
v 0.1000 0.4700 -0.3200
v 0.1000 0.4700 -0.3200
v 0.1000 0.4700 -0.3200
v 0.1000 0.4700 -0.3200
v 0.1000 0.4700 -0.3200
v 0.1000 0.4700 -0.3200
v 0.1000 0.4700 -0.3200
v 0.1000 0.4700 -0.3200
v 0.1000 0.4700 -0.3200
v 0.1000 0.4746 -0.2970
v 0.1119 0.4746 -0.3001
v 0.1205 0.4746 -0.3085
v 0.1237 0.4746 -0.3200
v 0.1205 0.4746 -0.3315
v 0.1119 0.4746 -0.3399
v 0.1000 0.4746 -0.3430
v 0.0881 0.4746 -0.3399
v 0.0795 0.4746 -0.3315
v 0.0763 0.4746 -0.3200
v 0.0795 0.4746 -0.3085
v 0.0881 0.4746 -0.3001
v 0.1000 0.4746 -0.2970
v 0.1000 0.4876 -0.2776
v 0.1219 0.4876 -0.2833
v 0.1380 0.4876 -0.2988
v 0.1438 0.4876 -0.3200
v 0.1380 0.4876 -0.3412
v 0.1219 0.4876 -0.3567
v 0.1000 0.4876 -0.3624
v 0.0781 0.4876 -0.3567
v 0.0620 0.4876 -0.3412
v 0.0562 0.4876 -0.3200
v 0.0620 0.4876 -0.2988
v 0.0781 0.4876 -0.2833
v 0.1000 0.4876 -0.2776
v 0.1000 0.5070 -0.2646
v 0.1286 0.5070 -0.2720
v 0.1496 0.5070 -0.2923
v 0.1573 0.5070 -0.3200
v 0.1496 0.5070 -0.3477
v 0.1286 0.5070 -0.3680
v 0.1000 0.5070 -0.3754
v 0.0714 0.5070 -0.3680
v 0.0504 0.5070 -0.3477
v 0.0427 0.5070 -0.3200
v 0.0504 0.5070 -0.2923
v 0.0714 0.5070 -0.2720
v 0.1000 0.5070 -0.2646
v 0.1000 0.5300 -0.2600
v 0.1310 0.5300 -0.2680
v 0.1537 0.5300 -0.2900
v 0.1620 0.5300 -0.3200
v 0.1537 0.5300 -0.3500
v 0.1310 0.5300 -0.3720
v 0.1000 0.5300 -0.3800
v 0.0690 0.5300 -0.3720
v 0.0463 0.5300 -0.3500
v 0.0380 0.5300 -0.3200
v 0.0463 0.5300 -0.2900
v 0.0690 0.5300 -0.2680
v 0.1000 0.5300 -0.2600
v 0.1000 0.5530 -0.2646
v 0.1286 0.5530 -0.2720
v 0.1496 0.5530 -0.2923
v 0.1573 0.5530 -0.3200
v 0.1496 0.5530 -0.3477
v 0.1286 0.5530 -0.3680
v 0.1000 0.5530 -0.3754
v 0.0714 0.5530 -0.3680
v 0.0504 0.5530 -0.3477
v 0.0427 0.5530 -0.3200
v 0.0504 0.5530 -0.2923
v 0.0714 0.5530 -0.2720
v 0.1000 0.5530 -0.2646
v 0.1000 0.5724 -0.2776
v 0.1219 0.5724 -0.2833
v 0.1380 0.5724 -0.2988
v 0.1438 0.5724 -0.3200
v 0.1380 0.5724 -0.3412
v 0.1219 0.5724 -0.3567
v 0.1000 0.5724 -0.3624
v 0.0781 0.5724 -0.3567
v 0.0620 0.5724 -0.3412
v 0.0562 0.5724 -0.3200
v 0.0620 0.5724 -0.2988
v 0.0781 0.5724 -0.2833
v 0.1000 0.5724 -0.2776
v 0.1000 0.5854 -0.2970
v 0.1119 0.5854 -0.3001
v 0.1205 0.5854 -0.3085
v 0.1237 0.5854 -0.3200
v 0.1205 0.5854 -0.3315
v 0.1119 0.5854 -0.3399
v 0.1000 0.5854 -0.3430
v 0.0881 0.5854 -0.3399
v 0.0795 0.5854 -0.3315
v 0.0763 0.5854 -0.3200
v 0.0795 0.5854 -0.3085
v 0.0881 0.5854 -0.3001
v 0.1000 0.5854 -0.2970
v 0.1000 0.5900 -0.3200
v 0.1000 0.5900 -0.3200
v 0.1000 0.5900 -0.3200
v 0.1000 0.5900 -0.3200
v 0.1000 0.5900 -0.3200
v 0.1000 0.5900 -0.3200
v 0.1000 0.5900 -0.3200
v 0.1000 0.5900 -0.3200
v 0.1000 0.5900 -0.3200
v 0.1000 0.5900 -0.3200
v 0.1000 0.5900 -0.3200
v 0.1000 0.5900 -0.3200
v 0.1000 0.5900 -0.3200
vt 0.0000 0.0000
vt 0.0080 0.0000
vt 0.0300 0.0000
vt 0.0600 0.0000
vt 0.2100 0.0000
vt 0.2400 0.0000
vt 0.2620 0.0000
vt 0.2700 0.0000
vt 0.0000 0.0080
vt 0.0080 0.0080
vt 0.0300 0.0080
vt 0.0600 0.0080
vt 0.2100 0.0080
vt 0.2400 0.0080
vt 0.2620 0.0080
vt 0.2700 0.0080
vt 0.0000 0.0300
vt 0.0080 0.0300
vt 0.0300 0.0300
vt 0.0600 0.0300
vt 0.2100 0.0300
vt 0.2400 0.0300
vt 0.2620 0.0300
vt 0.2700 0.0300
vt 0.0000 0.0600
vt 0.0080 0.0600
vt 0.0300 0.0600
vt 0.0600 0.0600
vt 0.2100 0.0600
vt 0.2400 0.0600
vt 0.2620 0.0600
vt 0.2700 0.0600
vt 0.0000 0.0800
vt 0.0080 0.0800
vt 0.0300 0.0800
vt 0.0600 0.0800
vt 0.2100 0.0800
vt 0.2400 0.0800
vt 0.2620 0.0800
vt 0.2700 0.0800
vt 0.0000 0.1100
vt 0.0080 0.1100
vt 0.0300 0.1100
vt 0.0600 0.1100
vt 0.2100 0.1100
vt 0.2400 0.1100
vt 0.2620 0.1100
vt 0.2700 0.1100
vt 0.0000 0.1320
vt 0.0080 0.1320
vt 0.0300 0.1320
vt 0.0600 0.1320
vt 0.2100 0.1320
vt 0.2400 0.1320
vt 0.2620 0.1320
vt 0.2700 0.1320
vt 0.0000 0.1400
vt 0.0080 0.1400
vt 0.0300 0.1400
vt 0.0600 0.1400
vt 0.2100 0.1400
vt 0.2400 0.1400
vt 0.2620 0.1400
vt 0.2700 0.1400
vt 0.0000 0.0000
vt 0.0080 0.0000
vt 0.0300 0.0000
vt 0.0600 0.0000
vt 0.2100 0.0000
vt 0.2400 0.0000
vt 0.2620 0.0000
vt 0.2700 0.0000
vt 0.0000 0.0080
vt 0.0080 0.0080
vt 0.0300 0.0080
vt 0.0600 0.0080
vt 0.2100 0.0080
vt 0.2400 0.0080
vt 0.2620 0.0080
vt 0.2700 0.0080
vt 0.0000 0.0300
vt 0.0080 0.0300
vt 0.0300 0.0300
vt 0.0600 0.0300
vt 0.2100 0.0300
vt 0.2400 0.0300
vt 0.2620 0.0300
vt 0.2700 0.0300
vt 0.0000 0.0600
vt 0.0080 0.0600
vt 0.0300 0.0600
vt 0.0600 0.0600
vt 0.2100 0.0600
vt 0.2400 0.0600
vt 0.2620 0.0600
vt 0.2700 0.0600
vt 0.0000 0.0800
vt 0.0080 0.0800
vt 0.0300 0.0800
vt 0.0600 0.0800
vt 0.2100 0.0800
vt 0.2400 0.0800
vt 0.2620 0.0800
vt 0.2700 0.0800
vt 0.0000 0.1100
vt 0.0080 0.1100
vt 0.0300 0.1100
vt 0.0600 0.1100
vt 0.2100 0.1100
vt 0.2400 0.1100
vt 0.2620 0.1100
vt 0.2700 0.1100
vt 0.0000 0.1320
vt 0.0080 0.1320
vt 0.0300 0.1320
vt 0.0600 0.1320
vt 0.2100 0.1320
vt 0.2400 0.1320
vt 0.2620 0.1320
vt 0.2700 0.1320
vt 0.0000 0.1400
vt 0.0080 0.1400
vt 0.0300 0.1400
vt 0.0600 0.1400
vt 0.2100 0.1400
vt 0.2400 0.1400
vt 0.2620 0.1400
vt 0.2700 0.1400
vt 0.0000 0.0000
vt 0.0080 0.0000
vt 0.0300 0.0000
vt 0.0600 0.0000
vt 0.2800 0.0000
vt 0.3100 0.0000
vt 0.3320 0.0000
vt 0.3400 0.0000
vt 0.0000 0.0080
vt 0.0080 0.0080
vt 0.0300 0.0080
vt 0.0600 0.0080
vt 0.2800 0.0080
vt 0.3100 0.0080
vt 0.3320 0.0080
vt 0.3400 0.0080
vt 0.0000 0.0300
vt 0.0080 0.0300
vt 0.0300 0.0300
vt 0.0600 0.0300
vt 0.2800 0.0300
vt 0.3100 0.0300
vt 0.3320 0.0300
vt 0.3400 0.0300
vt 0.0000 0.0600
vt 0.0080 0.0600
vt 0.0300 0.0600
vt 0.0600 0.0600
vt 0.2800 0.0600
vt 0.3100 0.0600
vt 0.3320 0.0600
vt 0.3400 0.0600
vt 0.0000 0.2100
vt 0.0080 0.2100
vt 0.0300 0.2100
vt 0.0600 0.2100
vt 0.2800 0.2100
vt 0.3100 0.2100
vt 0.3320 0.2100
vt 0.3400 0.2100
vt 0.0000 0.2400
vt 0.0080 0.2400
vt 0.0300 0.2400
vt 0.0600 0.2400
vt 0.2800 0.2400
vt 0.3100 0.2400
vt 0.3320 0.2400
vt 0.3400 0.2400
vt 0.0000 0.2620
vt 0.0080 0.2620
vt 0.0300 0.2620
vt 0.0600 0.2620
vt 0.2800 0.2620
vt 0.3100 0.2620
vt 0.3320 0.2620
vt 0.3400 0.2620
vt 0.0000 0.2700
vt 0.0080 0.2700
vt 0.0300 0.2700
vt 0.0600 0.2700
vt 0.2800 0.2700
vt 0.3100 0.2700
vt 0.3320 0.2700
vt 0.3400 0.2700
vt 0.0000 0.0000
vt 0.0080 0.0000
vt 0.0300 0.0000
vt 0.0600 0.0000
vt 0.2800 0.0000
vt 0.3100 0.0000
vt 0.3320 0.0000
vt 0.3400 0.0000
vt 0.0000 0.0080
vt 0.0080 0.0080
vt 0.0300 0.0080
vt 0.0600 0.0080
vt 0.2800 0.0080
vt 0.3100 0.0080
vt 0.3320 0.0080
vt 0.3400 0.0080
vt 0.0000 0.0300
vt 0.0080 0.0300
vt 0.0300 0.0300
vt 0.0600 0.0300
vt 0.2800 0.0300
vt 0.3100 0.0300
vt 0.3320 0.0300
vt 0.3400 0.0300
vt 0.0000 0.0600
vt 0.0080 0.0600
vt 0.0300 0.0600
vt 0.0600 0.0600
vt 0.2800 0.0600
vt 0.3100 0.0600
vt 0.3320 0.0600
vt 0.3400 0.0600
vt 0.0000 0.2100
vt 0.0080 0.2100
vt 0.0300 0.2100
vt 0.0600 0.2100
vt 0.2800 0.2100
vt 0.3100 0.2100
vt 0.3320 0.2100
vt 0.3400 0.2100
vt 0.0000 0.2400
vt 0.0080 0.2400
vt 0.0300 0.2400
vt 0.0600 0.2400
vt 0.2800 0.2400
vt 0.3100 0.2400
vt 0.3320 0.2400
vt 0.3400 0.2400
vt 0.0000 0.2620
vt 0.0080 0.2620
vt 0.0300 0.2620
vt 0.0600 0.2620
vt 0.2800 0.2620
vt 0.3100 0.2620
vt 0.3320 0.2620
vt 0.3400 0.2620
vt 0.0000 0.2700
vt 0.0080 0.2700
vt 0.0300 0.2700
vt 0.0600 0.2700
vt 0.2800 0.2700
vt 0.3100 0.2700
vt 0.3320 0.2700
vt 0.3400 0.2700
vt 0.0000 0.0000
vt 0.0080 0.0000
vt 0.0300 0.0000
vt 0.0600 0.0000
vt 0.2800 0.0000
vt 0.3100 0.0000
vt 0.3320 0.0000
vt 0.3400 0.0000
vt 0.0000 0.0080
vt 0.0080 0.0080
vt 0.0300 0.0080
vt 0.0600 0.0080
vt 0.2800 0.0080
vt 0.3100 0.0080
vt 0.3320 0.0080
vt 0.3400 0.0080
vt 0.0000 0.0300
vt 0.0080 0.0300
vt 0.0300 0.0300
vt 0.0600 0.0300
vt 0.2800 0.0300
vt 0.3100 0.0300
vt 0.3320 0.0300
vt 0.3400 0.0300
vt 0.0000 0.0600
vt 0.0080 0.0600
vt 0.0300 0.0600
vt 0.0600 0.0600
vt 0.2800 0.0600
vt 0.3100 0.0600
vt 0.3320 0.0600
vt 0.3400 0.0600
vt 0.0000 0.0800
vt 0.0080 0.0800
vt 0.0300 0.0800
vt 0.0600 0.0800
vt 0.2800 0.0800
vt 0.3100 0.0800
vt 0.3320 0.0800
vt 0.3400 0.0800
vt 0.0000 0.1100
vt 0.0080 0.1100
vt 0.0300 0.1100
vt 0.0600 0.1100
vt 0.2800 0.1100
vt 0.3100 0.1100
vt 0.3320 0.1100
vt 0.3400 0.1100
vt 0.0000 0.1320
vt 0.0080 0.1320
vt 0.0300 0.1320
vt 0.0600 0.1320
vt 0.2800 0.1320
vt 0.3100 0.1320
vt 0.3320 0.1320
vt 0.3400 0.1320
vt 0.0000 0.1400
vt 0.0080 0.1400
vt 0.0300 0.1400
vt 0.0600 0.1400
vt 0.2800 0.1400
vt 0.3100 0.1400
vt 0.3320 0.1400
vt 0.3400 0.1400
vt 0.0000 0.0000
vt 0.0080 0.0000
vt 0.0300 0.0000
vt 0.0600 0.0000
vt 0.2800 0.0000
vt 0.3100 0.0000
vt 0.3320 0.0000
vt 0.3400 0.0000
vt 0.0000 0.0080
vt 0.0080 0.0080
vt 0.0300 0.0080
vt 0.0600 0.0080
vt 0.2800 0.0080
vt 0.3100 0.0080
vt 0.3320 0.0080
vt 0.3400 0.0080
vt 0.0000 0.0300
vt 0.0080 0.0300
vt 0.0300 0.0300
vt 0.0600 0.0300
vt 0.2800 0.0300
vt 0.3100 0.0300
vt 0.3320 0.0300
vt 0.3400 0.0300
vt 0.0000 0.0600
vt 0.0080 0.0600
vt 0.0300 0.0600
vt 0.0600 0.0600
vt 0.2800 0.0600
vt 0.3100 0.0600
vt 0.3320 0.0600
vt 0.3400 0.0600
vt 0.0000 0.0800
vt 0.0080 0.0800
vt 0.0300 0.0800
vt 0.0600 0.0800
vt 0.2800 0.0800
vt 0.3100 0.0800
vt 0.3320 0.0800
vt 0.3400 0.0800
vt 0.0000 0.1100
vt 0.0080 0.1100
vt 0.0300 0.1100
vt 0.0600 0.1100
vt 0.2800 0.1100
vt 0.3100 0.1100
vt 0.3320 0.1100
vt 0.3400 0.1100
vt 0.0000 0.1320
vt 0.0080 0.1320
vt 0.0300 0.1320
vt 0.0600 0.1320
vt 0.2800 0.1320
vt 0.3100 0.1320
vt 0.3320 0.1320
vt 0.3400 0.1320
vt 0.0000 0.1400
vt 0.0080 0.1400
vt 0.0300 0.1400
vt 0.0600 0.1400
vt 0.2800 0.1400
vt 0.3100 0.1400
vt 0.3320 0.1400
vt 0.3400 0.1400
vt 0.0000 0.0000
vt 0.0000 0.0419
vt 0.0000 0.0838
vt 0.0000 0.1257
vt 0.0000 0.1676
vt 0.0000 0.2094
vt 0.0000 0.2513
vt 0.0000 0.2932
vt 0.0000 0.3351
vt 0.0000 0.3770
vt 0.0000 0.4189
vt 0.0000 0.4608
vt 0.0000 0.5027
vt 0.3602 0.0000
vt 0.3602 0.0419
vt 0.3602 0.0838
vt 0.3602 0.1257
vt 0.3602 0.1676
vt 0.3602 0.2094
vt 0.3602 0.2513
vt 0.3602 0.2932
vt 0.3602 0.3351
vt 0.3602 0.3770
vt 0.3602 0.4189
vt 0.3602 0.4608
vt 0.3602 0.5027
vt 0.0000 0.0000
vt 0.0800 0.0000
vt 0.0693 0.0400
vt 0.0400 0.0693
vt 0.0000 0.0800
vt -0.0400 0.0693
vt -0.0693 0.0400
vt -0.0800 0.0000
vt -0.0693 -0.0400
vt -0.0400 -0.0693
vt -0.0000 -0.0800
vt 0.0400 -0.0693
vt 0.0693 -0.0400
vt 0.0000 0.0000
vt 0.0620 0.0000
vt 0.0537 0.0310
vt 0.0310 0.0537
vt 0.0000 0.0620
vt -0.0310 0.0537
vt -0.0537 0.0310
vt -0.0620 0.0000
vt -0.0537 -0.0310
vt -0.0310 -0.0537
vt -0.0000 -0.0620
vt 0.0310 -0.0537
vt 0.0537 -0.0310
vt 0.0000 0.0000
vt 0.0000 0.0304
vt 0.0000 0.0607
vt 0.0000 0.0911
vt 0.0000 0.1215
vt 0.0000 0.1518
vt 0.0000 0.1822
vt 0.0000 0.2126
vt 0.0000 0.2429
vt 0.0000 0.2733
vt 0.0000 0.3037
vt 0.0000 0.3341
vt 0.0000 0.3644
vt 0.4428 0.0000
vt 0.4428 0.0304
vt 0.4428 0.0607
vt 0.4428 0.0911
vt 0.4428 0.1215
vt 0.4428 0.1518
vt 0.4428 0.1822
vt 0.4428 0.2126
vt 0.4428 0.2429
vt 0.4428 0.2733
vt 0.4428 0.3037
vt 0.4428 0.3341
vt 0.4428 0.3644
vt 0.0000 0.0000
vt 0.0580 0.0000
vt 0.0502 0.0290
vt 0.0290 0.0502
vt 0.0000 0.0580
vt -0.0290 0.0502
vt -0.0502 0.0290
vt -0.0580 0.0000
vt -0.0502 -0.0290
vt -0.0290 -0.0502
vt -0.0000 -0.0580
vt 0.0290 -0.0502
vt 0.0502 -0.0290
vt 0.0000 0.0000
vt 0.0420 0.0000
vt 0.0364 0.0210
vt 0.0210 0.0364
vt 0.0000 0.0420
vt -0.0210 0.0364
vt -0.0364 0.0210
vt -0.0420 0.0000
vt -0.0364 -0.0210
vt -0.0210 -0.0364
vt -0.0000 -0.0420
vt 0.0210 -0.0364
vt 0.0364 -0.0210
vt 0.0000 0.0000
vt 0.0320 0.0000
vt 0.0636 0.0000
vt 0.0947 0.0000
vt 0.1259 0.0000
vt 0.1574 0.0000
vt 0.1895 0.0000
vt 0.2215 0.0000
vt 0.2531 0.0000
vt 0.2842 0.0000
vt 0.3153 0.0000
vt 0.3469 0.0000
vt 0.3789 0.0000
vt 0.0000 0.0234
vt 0.0320 0.0234
vt 0.0636 0.0234
vt 0.0947 0.0234
vt 0.1259 0.0234
vt 0.1574 0.0234
vt 0.1895 0.0234
vt 0.2215 0.0234
vt 0.2531 0.0234
vt 0.2842 0.0234
vt 0.3153 0.0234
vt 0.3469 0.0234
vt 0.3789 0.0234
vt 0.0000 0.0468
vt 0.0320 0.0468
vt 0.0636 0.0468
vt 0.0947 0.0468
vt 0.1259 0.0468
vt 0.1574 0.0468
vt 0.1895 0.0468
vt 0.2215 0.0468
vt 0.2531 0.0468
vt 0.2842 0.0468
vt 0.3153 0.0468
vt 0.3469 0.0468
vt 0.3789 0.0468
vt 0.0000 0.0702
vt 0.0320 0.0702
vt 0.0636 0.0702
vt 0.0947 0.0702
vt 0.1259 0.0702
vt 0.1574 0.0702
vt 0.1895 0.0702
vt 0.2215 0.0702
vt 0.2531 0.0702
vt 0.2842 0.0702
vt 0.3153 0.0702
vt 0.3469 0.0702
vt 0.3789 0.0702
vt 0.0000 0.0936
vt 0.0320 0.0936
vt 0.0636 0.0936
vt 0.0947 0.0936
vt 0.1259 0.0936
vt 0.1574 0.0936
vt 0.1895 0.0936
vt 0.2215 0.0936
vt 0.2531 0.0936
vt 0.2842 0.0936
vt 0.3153 0.0936
vt 0.3469 0.0936
vt 0.3789 0.0936
vt 0.0000 0.1171
vt 0.0320 0.1171
vt 0.0636 0.1171
vt 0.0947 0.1171
vt 0.1259 0.1171
vt 0.1574 0.1171
vt 0.1895 0.1171
vt 0.2215 0.1171
vt 0.2531 0.1171
vt 0.2842 0.1171
vt 0.3153 0.1171
vt 0.3469 0.1171
vt 0.3789 0.1171
vt 0.0000 0.1405
vt 0.0320 0.1405
vt 0.0636 0.1405
vt 0.0947 0.1405
vt 0.1259 0.1405
vt 0.1574 0.1405
vt 0.1895 0.1405
vt 0.2215 0.1405
vt 0.2531 0.1405
vt 0.2842 0.1405
vt 0.3153 0.1405
vt 0.3469 0.1405
vt 0.3789 0.1405
vt 0.0000 0.1639
vt 0.0320 0.1639
vt 0.0636 0.1639
vt 0.0947 0.1639
vt 0.1259 0.1639
vt 0.1574 0.1639
vt 0.1895 0.1639
vt 0.2215 0.1639
vt 0.2531 0.1639
vt 0.2842 0.1639
vt 0.3153 0.1639
vt 0.3469 0.1639
vt 0.3789 0.1639
vt 0.0000 0.1873
vt 0.0320 0.1873
vt 0.0636 0.1873
vt 0.0947 0.1873
vt 0.1259 0.1873
vt 0.1574 0.1873
vt 0.1895 0.1873
vt 0.2215 0.1873
vt 0.2531 0.1873
vt 0.2842 0.1873
vt 0.3153 0.1873
vt 0.3469 0.1873
vt 0.3789 0.1873
vt 0.0000 0.0000
vt 0.0000 0.0419
vt 0.0000 0.0838
vt 0.0000 0.1257
vt 0.0000 0.1676
vt 0.0000 0.2094
vt 0.0000 0.2513
vt 0.0000 0.2932
vt 0.0000 0.3351
vt 0.0000 0.3770
vt 0.0000 0.4189
vt 0.0000 0.4608
vt 0.0000 0.5027
vt 0.3602 0.0000
vt 0.3602 0.0419
vt 0.3602 0.0838
vt 0.3602 0.1257
vt 0.3602 0.1676
vt 0.3602 0.2094
vt 0.3602 0.2513
vt 0.3602 0.2932
vt 0.3602 0.3351
vt 0.3602 0.3770
vt 0.3602 0.4189
vt 0.3602 0.4608
vt 0.3602 0.5027
vt 0.0000 0.0000
vt 0.0800 0.0000
vt 0.0693 0.0400
vt 0.0400 0.0693
vt 0.0000 0.0800
vt -0.0400 0.0693
vt -0.0693 0.0400
vt -0.0800 0.0000
vt -0.0693 -0.0400
vt -0.0400 -0.0693
vt -0.0000 -0.0800
vt 0.0400 -0.0693
vt 0.0693 -0.0400
vt 0.0000 0.0000
vt 0.0620 0.0000
vt 0.0537 0.0310
vt 0.0310 0.0537
vt 0.0000 0.0620
vt -0.0310 0.0537
vt -0.0537 0.0310
vt -0.0620 0.0000
vt -0.0537 -0.0310
vt -0.0310 -0.0537
vt -0.0000 -0.0620
vt 0.0310 -0.0537
vt 0.0537 -0.0310
vt 0.0000 0.0000
vt 0.0000 0.0304
vt 0.0000 0.0607
vt 0.0000 0.0911
vt 0.0000 0.1215
vt 0.0000 0.1518
vt 0.0000 0.1822
vt 0.0000 0.2126
vt 0.0000 0.2429
vt 0.0000 0.2733
vt 0.0000 0.3037
vt 0.0000 0.3341
vt 0.0000 0.3644
vt 0.4428 0.0000
vt 0.4428 0.0304
vt 0.4428 0.0607
vt 0.4428 0.0911
vt 0.4428 0.1215
vt 0.4428 0.1518
vt 0.4428 0.1822
vt 0.4428 0.2126
vt 0.4428 0.2429
vt 0.4428 0.2733
vt 0.4428 0.3037
vt 0.4428 0.3341
vt 0.4428 0.3644
vt 0.0000 0.0000
vt 0.0580 0.0000
vt 0.0502 0.0290
vt 0.0290 0.0502
vt 0.0000 0.0580
vt -0.0290 0.0502
vt -0.0502 0.0290
vt -0.0580 0.0000
vt -0.0502 -0.0290
vt -0.0290 -0.0502
vt -0.0000 -0.0580
vt 0.0290 -0.0502
vt 0.0502 -0.0290
vt 0.0000 0.0000
vt 0.0420 0.0000
vt 0.0364 0.0210
vt 0.0210 0.0364
vt 0.0000 0.0420
vt -0.0210 0.0364
vt -0.0364 0.0210
vt -0.0420 0.0000
vt -0.0364 -0.0210
vt -0.0210 -0.0364
vt -0.0000 -0.0420
vt 0.0210 -0.0364
vt 0.0364 -0.0210
vt 0.0000 0.0000
vt 0.0320 0.0000
vt 0.0636 0.0000
vt 0.0947 0.0000
vt 0.1259 0.0000
vt 0.1574 0.0000
vt 0.1895 0.0000
vt 0.2215 0.0000
vt 0.2531 0.0000
vt 0.2842 0.0000
vt 0.3153 0.0000
vt 0.3469 0.0000
vt 0.3789 0.0000
vt 0.0000 0.0234
vt 0.0320 0.0234
vt 0.0636 0.0234
vt 0.0947 0.0234
vt 0.1259 0.0234
vt 0.1574 0.0234
vt 0.1895 0.0234
vt 0.2215 0.0234
vt 0.2531 0.0234
vt 0.2842 0.0234
vt 0.3153 0.0234
vt 0.3469 0.0234
vt 0.3789 0.0234
vt 0.0000 0.0468
vt 0.0320 0.0468
vt 0.0636 0.0468
vt 0.0947 0.0468
vt 0.1259 0.0468
vt 0.1574 0.0468
vt 0.1895 0.0468
vt 0.2215 0.0468
vt 0.2531 0.0468
vt 0.2842 0.0468
vt 0.3153 0.0468
vt 0.3469 0.0468
vt 0.3789 0.0468
vt 0.0000 0.0702
vt 0.0320 0.0702
vt 0.0636 0.0702
vt 0.0947 0.0702
vt 0.1259 0.0702
vt 0.1574 0.0702
vt 0.1895 0.0702
vt 0.2215 0.0702
vt 0.2531 0.0702
vt 0.2842 0.0702
vt 0.3153 0.0702
vt 0.3469 0.0702
vt 0.3789 0.0702
vt 0.0000 0.0936
vt 0.0320 0.0936
vt 0.0636 0.0936
vt 0.0947 0.0936
vt 0.1259 0.0936
vt 0.1574 0.0936
vt 0.1895 0.0936
vt 0.2215 0.0936
vt 0.2531 0.0936
vt 0.2842 0.0936
vt 0.3153 0.0936
vt 0.3469 0.0936
vt 0.3789 0.0936
vt 0.0000 0.1171
vt 0.0320 0.1171
vt 0.0636 0.1171
vt 0.0947 0.1171
vt 0.1259 0.1171
vt 0.1574 0.1171
vt 0.1895 0.1171
vt 0.2215 0.1171
vt 0.2531 0.1171
vt 0.2842 0.1171
vt 0.3153 0.1171
vt 0.3469 0.1171
vt 0.3789 0.1171
vt 0.0000 0.1405
vt 0.0320 0.1405
vt 0.0636 0.1405
vt 0.0947 0.1405
vt 0.1259 0.1405
vt 0.1574 0.1405
vt 0.1895 0.1405
vt 0.2215 0.1405
vt 0.2531 0.1405
vt 0.2842 0.1405
vt 0.3153 0.1405
vt 0.3469 0.1405
vt 0.3789 0.1405
vt 0.0000 0.1639
vt 0.0320 0.1639
vt 0.0636 0.1639
vt 0.0947 0.1639
vt 0.1259 0.1639
vt 0.1574 0.1639
vt 0.1895 0.1639
vt 0.2215 0.1639
vt 0.2531 0.1639
vt 0.2842 0.1639
vt 0.3153 0.1639
vt 0.3469 0.1639
vt 0.3789 0.1639
vt 0.0000 0.1873
vt 0.0320 0.1873
vt 0.0636 0.1873
vt 0.0947 0.1873
vt 0.1259 0.1873
vt 0.1574 0.1873
vt 0.1895 0.1873
vt 0.2215 0.1873
vt 0.2531 0.1873
vt 0.2842 0.1873
vt 0.3153 0.1873
vt 0.3469 0.1873
vt 0.3789 0.1873
vn 0.577 -0.577 0.577
vn 0.603 -0.603 0.522
vn 0.667 -0.667 0.333
vn 0.707 -0.707 0.000
vn 0.707 -0.707 0.000
vn 0.667 -0.667 -0.333
vn 0.603 -0.603 -0.522
vn 0.577 -0.577 -0.577
vn 0.603 -0.522 0.603
vn 0.632 -0.548 0.548
vn 0.707 -0.612 0.354
vn 0.756 -0.655 0.000
vn 0.756 -0.655 0.000
vn 0.707 -0.612 -0.354
vn 0.632 -0.548 -0.548
vn 0.603 -0.522 -0.603
vn 0.667 -0.333 0.667
vn 0.707 -0.354 0.612
vn 0.816 -0.408 0.408
vn 0.894 -0.447 0.000
vn 0.894 -0.447 0.000
vn 0.816 -0.408 -0.408
vn 0.707 -0.354 -0.612
vn 0.667 -0.333 -0.667
vn 0.707 0.000 0.707
vn 0.756 0.000 0.655
vn 0.894 0.000 0.447
vn 1.000 0.000 0.000
vn 1.000 0.000 0.000
vn 0.894 0.000 -0.447
vn 0.756 0.000 -0.655
vn 0.707 0.000 -0.707
vn 0.707 0.000 0.707
vn 0.756 0.000 0.655
vn 0.894 0.000 0.447
vn 1.000 0.000 0.000
vn 1.000 0.000 0.000
vn 0.894 0.000 -0.447
vn 0.756 0.000 -0.655
vn 0.707 0.000 -0.707
vn 0.667 0.333 0.667
vn 0.707 0.354 0.612
vn 0.816 0.408 0.408
vn 0.894 0.447 0.000
vn 0.894 0.447 0.000
vn 0.816 0.408 -0.408
vn 0.707 0.354 -0.612
vn 0.667 0.333 -0.667
vn 0.603 0.522 0.603
vn 0.632 0.548 0.548
vn 0.707 0.612 0.354
vn 0.756 0.655 0.000
vn 0.756 0.655 0.000
vn 0.707 0.612 -0.354
vn 0.632 0.548 -0.548
vn 0.603 0.522 -0.603
vn 0.577 0.577 0.577
vn 0.603 0.603 0.522
vn 0.667 0.667 0.333
vn 0.707 0.707 0.000
vn 0.707 0.707 0.000
vn 0.667 0.667 -0.333
vn 0.603 0.603 -0.522
vn 0.577 0.577 -0.577
vn -0.577 -0.577 -0.577
vn -0.603 -0.603 -0.522
vn -0.667 -0.667 -0.333
vn -0.707 -0.707 0.000
vn -0.707 -0.707 0.000
vn -0.667 -0.667 0.333
vn -0.603 -0.603 0.522
vn -0.577 -0.577 0.577
vn -0.603 -0.522 -0.603
vn -0.632 -0.548 -0.548
vn -0.707 -0.612 -0.354
vn -0.756 -0.655 0.000
vn -0.756 -0.655 0.000
vn -0.707 -0.612 0.354
vn -0.632 -0.548 0.548
vn -0.603 -0.522 0.603
vn -0.667 -0.333 -0.667
vn -0.707 -0.354 -0.612
vn -0.816 -0.408 -0.408
vn -0.894 -0.447 0.000
vn -0.894 -0.447 0.000
vn -0.816 -0.408 0.408
vn -0.707 -0.354 0.612
vn -0.667 -0.333 0.667
vn -0.707 0.000 -0.707
vn -0.756 0.000 -0.655
vn -0.894 0.000 -0.447
vn -1.000 0.000 0.000
vn -1.000 0.000 0.000
vn -0.894 0.000 0.447
vn -0.756 0.000 0.655
vn -0.707 0.000 0.707
vn -0.707 0.000 -0.707
vn -0.756 0.000 -0.655
vn -0.894 0.000 -0.447
vn -1.000 0.000 0.000
vn -1.000 0.000 0.000
vn -0.894 0.000 0.447
vn -0.756 0.000 0.655
vn -0.707 0.000 0.707
vn -0.667 0.333 -0.667
vn -0.707 0.354 -0.612
vn -0.816 0.408 -0.408
vn -0.894 0.447 0.000
vn -0.894 0.447 0.000
vn -0.816 0.408 0.408
vn -0.707 0.354 0.612
vn -0.667 0.333 0.667
vn -0.603 0.522 -0.603
vn -0.632 0.548 -0.548
vn -0.707 0.612 -0.354
vn -0.756 0.655 0.000
vn -0.756 0.655 0.000
vn -0.707 0.612 0.354
vn -0.632 0.548 0.548
vn -0.603 0.522 0.603
vn -0.577 0.577 -0.577
vn -0.603 0.603 -0.522
vn -0.667 0.667 -0.333
vn -0.707 0.707 0.000
vn -0.707 0.707 0.000
vn -0.667 0.667 0.333
vn -0.603 0.603 0.522
vn -0.577 0.577 0.577
vn -0.577 0.577 0.577
vn -0.522 0.603 0.603
vn -0.333 0.667 0.667
vn 0.000 0.707 0.707
vn 0.000 0.707 0.707
vn 0.333 0.667 0.667
vn 0.522 0.603 0.603
vn 0.577 0.577 0.577
vn -0.603 0.603 0.522
vn -0.548 0.632 0.548
vn -0.354 0.707 0.612
vn 0.000 0.756 0.655
vn 0.000 0.756 0.655
vn 0.354 0.707 0.612
vn 0.548 0.632 0.548
vn 0.603 0.603 0.522
vn -0.667 0.667 0.333
vn -0.612 0.707 0.354
vn -0.408 0.816 0.408
vn 0.000 0.894 0.447
vn 0.000 0.894 0.447
vn 0.408 0.816 0.408
vn 0.612 0.707 0.354
vn 0.667 0.667 0.333
vn -0.707 0.707 0.000
vn -0.655 0.756 0.000
vn -0.447 0.894 0.000
vn 0.000 1.000 0.000
vn 0.000 1.000 0.000
vn 0.447 0.894 0.000
vn 0.655 0.756 0.000
vn 0.707 0.707 0.000
vn -0.707 0.707 0.000
vn -0.655 0.756 0.000
vn -0.447 0.894 0.000
vn 0.000 1.000 0.000
vn 0.000 1.000 0.000
vn 0.447 0.894 0.000
vn 0.655 0.756 0.000
vn 0.707 0.707 0.000
vn -0.667 0.667 -0.333
vn -0.612 0.707 -0.354
vn -0.408 0.816 -0.408
vn 0.000 0.894 -0.447
vn 0.000 0.894 -0.447
vn 0.408 0.816 -0.408
vn 0.612 0.707 -0.354
vn 0.667 0.667 -0.333
vn -0.603 0.603 -0.522
vn -0.548 0.632 -0.548
vn -0.354 0.707 -0.612
vn 0.000 0.756 -0.655
vn 0.000 0.756 -0.655
vn 0.354 0.707 -0.612
vn 0.548 0.632 -0.548
vn 0.603 0.603 -0.522
vn -0.577 0.577 -0.577
vn -0.522 0.603 -0.603
vn -0.333 0.667 -0.667
vn 0.000 0.707 -0.707
vn 0.000 0.707 -0.707
vn 0.333 0.667 -0.667
vn 0.522 0.603 -0.603
vn 0.577 0.577 -0.577
vn -0.577 -0.577 -0.577
vn -0.522 -0.603 -0.603
vn -0.333 -0.667 -0.667
vn 0.000 -0.707 -0.707
vn 0.000 -0.707 -0.707
vn 0.333 -0.667 -0.667
vn 0.522 -0.603 -0.603
vn 0.577 -0.577 -0.577
vn -0.603 -0.603 -0.522
vn -0.548 -0.632 -0.548
vn -0.354 -0.707 -0.612
vn 0.000 -0.756 -0.655
vn 0.000 -0.756 -0.655
vn 0.354 -0.707 -0.612
vn 0.548 -0.632 -0.548
vn 0.603 -0.603 -0.522
vn -0.667 -0.667 -0.333
vn -0.612 -0.707 -0.354
vn -0.408 -0.816 -0.408
vn 0.000 -0.894 -0.447
vn 0.000 -0.894 -0.447
vn 0.408 -0.816 -0.408
vn 0.612 -0.707 -0.354
vn 0.667 -0.667 -0.333
vn -0.707 -0.707 0.000
vn -0.655 -0.756 0.000
vn -0.447 -0.894 0.000
vn 0.000 -1.000 0.000
vn 0.000 -1.000 0.000
vn 0.447 -0.894 0.000
vn 0.655 -0.756 0.000
vn 0.707 -0.707 0.000
vn -0.707 -0.707 0.000
vn -0.655 -0.756 0.000
vn -0.447 -0.894 0.000
vn 0.000 -1.000 0.000
vn 0.000 -1.000 0.000
vn 0.447 -0.894 0.000
vn 0.655 -0.756 0.000
vn 0.707 -0.707 0.000
vn -0.667 -0.667 0.333
vn -0.612 -0.707 0.354
vn -0.408 -0.816 0.408
vn 0.000 -0.894 0.447
vn 0.000 -0.894 0.447
vn 0.408 -0.816 0.408
vn 0.612 -0.707 0.354
vn 0.667 -0.667 0.333
vn -0.603 -0.603 0.522
vn -0.548 -0.632 0.548
vn -0.354 -0.707 0.612
vn 0.000 -0.756 0.655
vn 0.000 -0.756 0.655
vn 0.354 -0.707 0.612
vn 0.548 -0.632 0.548
vn 0.603 -0.603 0.522
vn -0.577 -0.577 0.577
vn -0.522 -0.603 0.603
vn -0.333 -0.667 0.667
vn 0.000 -0.707 0.707
vn 0.000 -0.707 0.707
vn 0.333 -0.667 0.667
vn 0.522 -0.603 0.603
vn 0.577 -0.577 0.577
vn -0.577 -0.577 0.577
vn -0.522 -0.603 0.603
vn -0.333 -0.667 0.667
vn 0.000 -0.707 0.707
vn 0.000 -0.707 0.707
vn 0.333 -0.667 0.667
vn 0.522 -0.603 0.603
vn 0.577 -0.577 0.577
vn -0.603 -0.522 0.603
vn -0.548 -0.548 0.632
vn -0.354 -0.612 0.707
vn 0.000 -0.655 0.756
vn 0.000 -0.655 0.756
vn 0.354 -0.612 0.707
vn 0.548 -0.548 0.632
vn 0.603 -0.522 0.603
vn -0.667 -0.333 0.667
vn -0.612 -0.354 0.707
vn -0.408 -0.408 0.816
vn 0.000 -0.447 0.894
vn 0.000 -0.447 0.894
vn 0.408 -0.408 0.816
vn 0.612 -0.354 0.707
vn 0.667 -0.333 0.667
vn -0.707 0.000 0.707
vn -0.655 0.000 0.756
vn -0.447 0.000 0.894
vn 0.000 0.000 1.000
vn 0.000 0.000 1.000
vn 0.447 0.000 0.894
vn 0.655 0.000 0.756
vn 0.707 0.000 0.707
vn -0.707 0.000 0.707
vn -0.655 0.000 0.756
vn -0.447 0.000 0.894
vn 0.000 0.000 1.000
vn 0.000 0.000 1.000
vn 0.447 0.000 0.894
vn 0.655 0.000 0.756
vn 0.707 0.000 0.707
vn -0.667 0.333 0.667
vn -0.612 0.354 0.707
vn -0.408 0.408 0.816
vn 0.000 0.447 0.894
vn 0.000 0.447 0.894
vn 0.408 0.408 0.816
vn 0.612 0.354 0.707
vn 0.667 0.333 0.667
vn -0.603 0.522 0.603
vn -0.548 0.548 0.632
vn -0.354 0.612 0.707
vn 0.000 0.655 0.756
vn 0.000 0.655 0.756
vn 0.354 0.612 0.707
vn 0.548 0.548 0.632
vn 0.603 0.522 0.603
vn -0.577 0.577 0.577
vn -0.522 0.603 0.603
vn -0.333 0.667 0.667
vn 0.000 0.707 0.707
vn 0.000 0.707 0.707
vn 0.333 0.667 0.667
vn 0.522 0.603 0.603
vn 0.577 0.577 0.577
vn 0.577 -0.577 -0.577
vn 0.522 -0.603 -0.603
vn 0.333 -0.667 -0.667
vn 0.000 -0.707 -0.707
vn 0.000 -0.707 -0.707
vn -0.333 -0.667 -0.667
vn -0.522 -0.603 -0.603
vn -0.577 -0.577 -0.577
vn 0.603 -0.522 -0.603
vn 0.548 -0.548 -0.632
vn 0.354 -0.612 -0.707
vn 0.000 -0.655 -0.756
vn 0.000 -0.655 -0.756
vn -0.354 -0.612 -0.707
vn -0.548 -0.548 -0.632
vn -0.603 -0.522 -0.603
vn 0.667 -0.333 -0.667
vn 0.612 -0.354 -0.707
vn 0.408 -0.408 -0.816
vn 0.000 -0.447 -0.894
vn 0.000 -0.447 -0.894
vn -0.408 -0.408 -0.816
vn -0.612 -0.354 -0.707
vn -0.667 -0.333 -0.667
vn 0.707 0.000 -0.707
vn 0.655 0.000 -0.756
vn 0.447 0.000 -0.894
vn 0.000 0.000 -1.000
vn 0.000 0.000 -1.000
vn -0.447 0.000 -0.894
vn -0.655 0.000 -0.756
vn -0.707 0.000 -0.707
vn 0.707 0.000 -0.707
vn 0.655 0.000 -0.756
vn 0.447 0.000 -0.894
vn 0.000 0.000 -1.000
vn 0.000 0.000 -1.000
vn -0.447 0.000 -0.894
vn -0.655 0.000 -0.756
vn -0.707 0.000 -0.707
vn 0.667 0.333 -0.667
vn 0.612 0.354 -0.707
vn 0.408 0.408 -0.816
vn 0.000 0.447 -0.894
vn 0.000 0.447 -0.894
vn -0.408 0.408 -0.816
vn -0.612 0.354 -0.707
vn -0.667 0.333 -0.667
vn 0.603 0.522 -0.603
vn 0.548 0.548 -0.632
vn 0.354 0.612 -0.707
vn 0.000 0.655 -0.756
vn 0.000 0.655 -0.756
vn -0.354 0.612 -0.707
vn -0.548 0.548 -0.632
vn -0.603 0.522 -0.603
vn 0.577 0.577 -0.577
vn 0.522 0.603 -0.603
vn 0.333 0.667 -0.667
vn 0.000 0.707 -0.707
vn 0.000 0.707 -0.707
vn -0.333 0.667 -0.667
vn -0.522 0.603 -0.603
vn -0.577 0.577 -0.577
vn -0.000 1.000 -0.014
vn 0.499 0.866 -0.026
vn 0.865 0.500 -0.031
vn 1.000 0.000 -0.028
vn 0.866 -0.500 -0.017
vn 0.500 -0.866 -0.002
vn 0.000 -1.000 0.014
vn -0.499 -0.866 0.026
vn -0.865 -0.500 0.031
vn -1.000 -0.000 0.028
vn -0.866 0.500 0.017
vn -0.500 0.866 0.002
vn -0.000 1.000 -0.014
vn -0.000 1.000 -0.014
vn 0.499 0.866 -0.026
vn 0.865 0.500 -0.031
vn 1.000 0.000 -0.028
vn 0.866 -0.500 -0.017
vn 0.500 -0.866 -0.002
vn 0.000 -1.000 0.014
vn -0.499 -0.866 0.026
vn -0.865 -0.500 0.031
vn -1.000 -0.000 0.028
vn -0.866 0.500 0.017
vn -0.500 0.866 0.002
vn -0.000 1.000 -0.014
vn 0.028 0.014 1.000
vn 0.028 0.014 1.000
vn 0.028 0.014 1.000
vn 0.028 0.014 1.000
vn 0.028 0.014 1.000
vn 0.028 0.014 1.000
vn 0.028 0.014 1.000
vn 0.028 0.014 1.000
vn 0.028 0.014 1.000
vn 0.028 0.014 1.000
vn 0.028 0.014 1.000
vn 0.028 0.014 1.000
vn 0.028 0.014 1.000
vn -0.028 -0.014 -1.000
vn -0.028 -0.014 -1.000
vn -0.028 -0.014 -1.000
vn -0.028 -0.014 -1.000
vn -0.028 -0.014 -1.000
vn -0.028 -0.014 -1.000
vn -0.028 -0.014 -1.000
vn -0.028 -0.014 -1.000
vn -0.028 -0.014 -1.000
vn -0.028 -0.014 -1.000
vn -0.028 -0.014 -1.000
vn -0.028 -0.014 -1.000
vn -0.028 -0.014 -1.000
vn 1.000 0.000 0.000
vn 0.866 -0.056 0.497
vn 0.500 -0.098 0.860
vn 0.000 -0.113 0.994
vn -0.500 -0.098 0.860
vn -0.866 -0.056 0.497
vn -1.000 -0.000 0.000
vn -0.866 0.056 -0.497
vn -0.500 0.098 -0.860
vn -0.000 0.113 -0.994
vn 0.500 0.098 -0.860
vn 0.866 0.056 -0.497
vn 1.000 0.000 -0.000
vn 1.000 0.000 0.000
vn 0.866 -0.056 0.497
vn 0.500 -0.098 0.860
vn 0.000 -0.113 0.994
vn -0.500 -0.098 0.860
vn -0.866 -0.056 0.497
vn -1.000 -0.000 0.000
vn -0.866 0.056 -0.497
vn -0.500 0.098 -0.860
vn -0.000 0.113 -0.994
vn 0.500 0.098 -0.860
vn 0.866 0.056 -0.497
vn 1.000 0.000 -0.000
vn -0.000 0.994 0.113
vn -0.000 0.994 0.113
vn -0.000 0.994 0.113
vn -0.000 0.994 0.113
vn -0.000 0.994 0.113
vn -0.000 0.994 0.113
vn -0.000 0.994 0.113
vn -0.000 0.994 0.113
vn -0.000 0.994 0.113
vn -0.000 0.994 0.113
vn -0.000 0.994 0.113
vn -0.000 0.994 0.113
vn -0.000 0.994 0.113
vn 0.000 -0.994 -0.113
vn 0.000 -0.994 -0.113
vn 0.000 -0.994 -0.113
vn 0.000 -0.994 -0.113
vn 0.000 -0.994 -0.113
vn 0.000 -0.994 -0.113
vn 0.000 -0.994 -0.113
vn 0.000 -0.994 -0.113
vn 0.000 -0.994 -0.113
vn 0.000 -0.994 -0.113
vn 0.000 -0.994 -0.113
vn 0.000 -0.994 -0.113
vn 0.000 -0.994 -0.113
vn -0.000 -0.924 0.383
vn 0.185 -0.925 0.332
vn 0.322 -0.927 0.192
vn 0.372 -0.928 0.000
vn 0.322 -0.927 -0.192
vn 0.185 -0.925 -0.332
vn -0.000 -0.924 -0.383
vn -0.185 -0.925 -0.332
vn -0.322 -0.927 -0.192
vn -0.372 -0.928 -0.000
vn -0.322 -0.927 0.192
vn -0.185 -0.925 0.332
vn -0.000 -0.924 0.383
vn -0.000 -0.924 0.383
vn 0.185 -0.925 0.332
vn 0.322 -0.927 0.192
vn 0.372 -0.928 0.000
vn 0.322 -0.927 -0.192
vn 0.185 -0.925 -0.332
vn -0.000 -0.924 -0.383
vn -0.185 -0.925 -0.332
vn -0.322 -0.927 -0.192
vn -0.372 -0.928 -0.000
vn -0.322 -0.927 0.192
vn -0.185 -0.925 0.332
vn -0.000 -0.924 0.383
vn -0.000 -0.707 0.707
vn 0.344 -0.710 0.615
vn 0.600 -0.716 0.358
vn 0.695 -0.719 0.000
vn 0.600 -0.716 -0.358
vn 0.344 -0.710 -0.615
vn -0.000 -0.707 -0.707
vn -0.344 -0.710 -0.615
vn -0.600 -0.716 -0.358
vn -0.695 -0.719 -0.000
vn -0.600 -0.716 0.358
vn -0.344 -0.710 0.615
vn -0.000 -0.707 0.707
vn -0.000 -0.383 0.924
vn 0.450 -0.385 0.806
vn 0.791 -0.391 0.472
vn 0.919 -0.393 0.000
vn 0.791 -0.391 -0.472
vn 0.450 -0.385 -0.806
vn -0.000 -0.383 -0.924
vn -0.450 -0.385 -0.806
vn -0.791 -0.391 -0.472
vn -0.919 -0.393 -0.000
vn -0.791 -0.391 0.472
vn -0.450 -0.385 0.806
vn -0.000 -0.383 0.924
vn -0.000 0.000 1.000
vn 0.488 0.000 0.873
vn 0.859 0.000 0.512
vn 1.000 0.000 0.000
vn 0.859 0.000 -0.512
vn 0.488 0.000 -0.873
vn -0.000 0.000 -1.000
vn -0.488 0.000 -0.873
vn -0.859 0.000 -0.512
vn -1.000 0.000 -0.000
vn -0.859 0.000 0.512
vn -0.488 0.000 0.873
vn -0.000 0.000 1.000
vn -0.000 0.383 0.924
vn 0.450 0.385 0.806
vn 0.791 0.391 0.472
vn 0.919 0.393 0.000
vn 0.791 0.391 -0.472
vn 0.450 0.385 -0.806
vn -0.000 0.383 -0.924
vn -0.450 0.385 -0.806
vn -0.791 0.391 -0.472
vn -0.919 0.393 -0.000
vn -0.791 0.391 0.472
vn -0.450 0.385 0.806
vn -0.000 0.383 0.924
vn -0.000 0.707 0.707
vn 0.344 0.710 0.615
vn 0.600 0.716 0.358
vn 0.695 0.719 0.000
vn 0.600 0.716 -0.358
vn 0.344 0.710 -0.615
vn -0.000 0.707 -0.707
vn -0.344 0.710 -0.615
vn -0.600 0.716 -0.358
vn -0.695 0.719 -0.000
vn -0.600 0.716 0.358
vn -0.344 0.710 0.615
vn -0.000 0.707 0.707
vn -0.000 0.924 0.383
vn 0.185 0.925 0.332
vn 0.322 0.927 0.192
vn 0.372 0.928 0.000
vn 0.322 0.927 -0.192
vn 0.185 0.925 -0.332
vn -0.000 0.924 -0.383
vn -0.185 0.925 -0.332
vn -0.322 0.927 -0.192
vn -0.372 0.928 -0.000
vn -0.322 0.927 0.192
vn -0.185 0.925 0.332
vn -0.000 0.924 0.383
vn -0.000 0.924 0.383
vn 0.185 0.925 0.332
vn 0.322 0.927 0.192
vn 0.372 0.928 0.000
vn 0.322 0.927 -0.192
vn 0.185 0.925 -0.332
vn -0.000 0.924 -0.383
vn -0.185 0.925 -0.332
vn -0.322 0.927 -0.192
vn -0.372 0.928 -0.000
vn -0.322 0.927 0.192
vn -0.185 0.925 0.332
vn -0.000 0.924 0.383
vn 0.000 1.000 -0.014
vn 0.500 0.866 0.002
vn 0.866 0.500 0.017
vn 1.000 0.000 0.028
vn 0.865 -0.500 0.031
vn 0.499 -0.866 0.026
vn -0.000 -1.000 0.014
vn -0.500 -0.866 -0.002
vn -0.866 -0.500 -0.017
vn -1.000 -0.000 -0.028
vn -0.865 0.500 -0.031
vn -0.499 0.866 -0.026
vn 0.000 1.000 -0.014
vn 0.000 1.000 -0.014
vn 0.500 0.866 0.002
vn 0.866 0.500 0.017
vn 1.000 0.000 0.028
vn 0.865 -0.500 0.031
vn 0.499 -0.866 0.026
vn -0.000 -1.000 0.014
vn -0.500 -0.866 -0.002
vn -0.866 -0.500 -0.017
vn -1.000 -0.000 -0.028
vn -0.865 0.500 -0.031
vn -0.499 0.866 -0.026
vn 0.000 1.000 -0.014
vn -0.028 0.014 1.000
vn -0.028 0.014 1.000
vn -0.028 0.014 1.000
vn -0.028 0.014 1.000
vn -0.028 0.014 1.000
vn -0.028 0.014 1.000
vn -0.028 0.014 1.000
vn -0.028 0.014 1.000
vn -0.028 0.014 1.000
vn -0.028 0.014 1.000
vn -0.028 0.014 1.000
vn -0.028 0.014 1.000
vn -0.028 0.014 1.000
vn 0.028 -0.014 -1.000
vn 0.028 -0.014 -1.000
vn 0.028 -0.014 -1.000
vn 0.028 -0.014 -1.000
vn 0.028 -0.014 -1.000
vn 0.028 -0.014 -1.000
vn 0.028 -0.014 -1.000
vn 0.028 -0.014 -1.000
vn 0.028 -0.014 -1.000
vn 0.028 -0.014 -1.000
vn 0.028 -0.014 -1.000
vn 0.028 -0.014 -1.000
vn 0.028 -0.014 -1.000
vn 1.000 0.000 0.000
vn 0.866 -0.056 0.497
vn 0.500 -0.098 0.860
vn 0.000 -0.113 0.994
vn -0.500 -0.098 0.860
vn -0.866 -0.056 0.497
vn -1.000 -0.000 0.000
vn -0.866 0.056 -0.497
vn -0.500 0.098 -0.860
vn -0.000 0.113 -0.994
vn 0.500 0.098 -0.860
vn 0.866 0.056 -0.497
vn 1.000 0.000 -0.000
vn 1.000 0.000 0.000
vn 0.866 -0.056 0.497
vn 0.500 -0.098 0.860
vn 0.000 -0.113 0.994
vn -0.500 -0.098 0.860
vn -0.866 -0.056 0.497
vn -1.000 -0.000 0.000
vn -0.866 0.056 -0.497
vn -0.500 0.098 -0.860
vn -0.000 0.113 -0.994
vn 0.500 0.098 -0.860
vn 0.866 0.056 -0.497
vn 1.000 0.000 -0.000
vn -0.000 0.994 0.113
vn -0.000 0.994 0.113
vn -0.000 0.994 0.113
vn -0.000 0.994 0.113
vn -0.000 0.994 0.113
vn -0.000 0.994 0.113
vn -0.000 0.994 0.113
vn -0.000 0.994 0.113
vn -0.000 0.994 0.113
vn -0.000 0.994 0.113
vn -0.000 0.994 0.113
vn -0.000 0.994 0.113
vn -0.000 0.994 0.113
vn 0.000 -0.994 -0.113
vn 0.000 -0.994 -0.113
vn 0.000 -0.994 -0.113
vn 0.000 -0.994 -0.113
vn 0.000 -0.994 -0.113
vn 0.000 -0.994 -0.113
vn 0.000 -0.994 -0.113
vn 0.000 -0.994 -0.113
vn 0.000 -0.994 -0.113
vn 0.000 -0.994 -0.113
vn 0.000 -0.994 -0.113
vn 0.000 -0.994 -0.113
vn 0.000 -0.994 -0.113
vn -0.000 -0.924 0.383
vn 0.185 -0.925 0.332
vn 0.322 -0.927 0.192
vn 0.372 -0.928 0.000
vn 0.322 -0.927 -0.192
vn 0.185 -0.925 -0.332
vn -0.000 -0.924 -0.383
vn -0.185 -0.925 -0.332
vn -0.322 -0.927 -0.192
vn -0.372 -0.928 -0.000
vn -0.322 -0.927 0.192
vn -0.185 -0.925 0.332
vn -0.000 -0.924 0.383
vn -0.000 -0.924 0.383
vn 0.185 -0.925 0.332
vn 0.322 -0.927 0.192
vn 0.372 -0.928 0.000
vn 0.322 -0.927 -0.192
vn 0.185 -0.925 -0.332
vn -0.000 -0.924 -0.383
vn -0.185 -0.925 -0.332
vn -0.322 -0.927 -0.192
vn -0.372 -0.928 -0.000
vn -0.322 -0.927 0.192
vn -0.185 -0.925 0.332
vn -0.000 -0.924 0.383
vn -0.000 -0.707 0.707
vn 0.344 -0.710 0.615
vn 0.600 -0.716 0.358
vn 0.695 -0.719 0.000
vn 0.600 -0.716 -0.358
vn 0.344 -0.710 -0.615
vn -0.000 -0.707 -0.707
vn -0.344 -0.710 -0.615
vn -0.600 -0.716 -0.358
vn -0.695 -0.719 -0.000
vn -0.600 -0.716 0.358
vn -0.344 -0.710 0.615
vn -0.000 -0.707 0.707
vn -0.000 -0.383 0.924
vn 0.450 -0.385 0.806
vn 0.791 -0.391 0.472
vn 0.919 -0.393 0.000
vn 0.791 -0.391 -0.472
vn 0.450 -0.385 -0.806
vn -0.000 -0.383 -0.924
vn -0.450 -0.385 -0.806
vn -0.791 -0.391 -0.472
vn -0.919 -0.393 -0.000
vn -0.791 -0.391 0.472
vn -0.450 -0.385 0.806
vn -0.000 -0.383 0.924
vn -0.000 0.000 1.000
vn 0.488 0.000 0.873
vn 0.859 0.000 0.512
vn 1.000 0.000 0.000
vn 0.859 0.000 -0.512
vn 0.488 0.000 -0.873
vn -0.000 0.000 -1.000
vn -0.488 0.000 -0.873
vn -0.859 0.000 -0.512
vn -1.000 0.000 -0.000
vn -0.859 0.000 0.512
vn -0.488 0.000 0.873
vn -0.000 0.000 1.000
vn -0.000 0.383 0.924
vn 0.450 0.385 0.806
vn 0.791 0.391 0.472
vn 0.919 0.393 0.000
vn 0.791 0.391 -0.472
vn 0.450 0.385 -0.806
vn -0.000 0.383 -0.924
vn -0.450 0.385 -0.806
vn -0.791 0.391 -0.472
vn -0.919 0.393 -0.000
vn -0.791 0.391 0.472
vn -0.450 0.385 0.806
vn -0.000 0.383 0.924
vn -0.000 0.707 0.707
vn 0.344 0.710 0.615
vn 0.600 0.716 0.358
vn 0.695 0.719 0.000
vn 0.600 0.716 -0.358
vn 0.344 0.710 -0.615
vn -0.000 0.707 -0.707
vn -0.344 0.710 -0.615
vn -0.600 0.716 -0.358
vn -0.695 0.719 -0.000
vn -0.600 0.716 0.358
vn -0.344 0.710 0.615
vn -0.000 0.707 0.707
vn -0.000 0.924 0.383
vn 0.185 0.925 0.332
vn 0.322 0.927 0.192
vn 0.372 0.928 0.000
vn 0.322 0.927 -0.192
vn 0.185 0.925 -0.332
vn -0.000 0.924 -0.383
vn -0.185 0.925 -0.332
vn -0.322 0.927 -0.192
vn -0.372 0.928 -0.000
vn -0.322 0.927 0.192
vn -0.185 0.925 0.332
vn -0.000 0.924 0.383
vn -0.000 0.924 0.383
vn 0.185 0.925 0.332
vn 0.322 0.927 0.192
vn 0.372 0.928 0.000
vn 0.322 0.927 -0.192
vn 0.185 0.925 -0.332
vn -0.000 0.924 -0.383
vn -0.185 0.925 -0.332
vn -0.322 0.927 -0.192
vn -0.372 0.928 -0.000
vn -0.322 0.927 0.192
vn -0.185 0.925 0.332
vn -0.000 0.924 0.383
usemtl pants
f 1/1/1 2/2/2 10/10/10
f 1/1/1 10/10/10 9/9/9
f 2/2/2 3/3/3 11/11/11
f 2/2/2 11/11/11 10/10/10
f 3/3/3 4/4/4 12/12/12
f 3/3/3 12/12/12 11/11/11
f 4/4/4 5/5/5 13/13/13
f 4/4/4 13/13/13 12/12/12
f 5/5/5 6/6/6 14/14/14
f 5/5/5 14/14/14 13/13/13
f 6/6/6 7/7/7 15/15/15
f 6/6/6 15/15/15 14/14/14
f 7/7/7 8/8/8 16/16/16
f 7/7/7 16/16/16 15/15/15
f 9/9/9 10/10/10 18/18/18
f 9/9/9 18/18/18 17/17/17
f 10/10/10 11/11/11 19/19/19
f 10/10/10 19/19/19 18/18/18
f 11/11/11 12/12/12 20/20/20
f 11/11/11 20/20/20 19/19/19
f 12/12/12 13/13/13 21/21/21
f 12/12/12 21/21/21 20/20/20
f 13/13/13 14/14/14 22/22/22
f 13/13/13 22/22/22 21/21/21
f 14/14/14 15/15/15 23/23/23
f 14/14/14 23/23/23 22/22/22
f 15/15/15 16/16/16 24/24/24
f 15/15/15 24/24/24 23/23/23
f 17/17/17 18/18/18 26/26/26
f 17/17/17 26/26/26 25/25/25
f 18/18/18 19/19/19 27/27/27
f 18/18/18 27/27/27 26/26/26
f 19/19/19 20/20/20 28/28/28
f 19/19/19 28/28/28 27/27/27
f 20/20/20 21/21/21 29/29/29
f 20/20/20 29/29/29 28/28/28
f 21/21/21 22/22/22 30/30/30
f 21/21/21 30/30/30 29/29/29
f 22/22/22 23/23/23 31/31/31
f 22/22/22 31/31/31 30/30/30
f 23/23/23 24/24/24 32/32/32
f 23/23/23 32/32/32 31/31/31
f 25/25/25 26/26/26 34/34/34
f 25/25/25 34/34/34 33/33/33
f 26/26/26 27/27/27 35/35/35
f 26/26/26 35/35/35 34/34/34
f 27/27/27 28/28/28 36/36/36
f 27/27/27 36/36/36 35/35/35
f 28/28/28 29/29/29 37/37/37
f 28/28/28 37/37/37 36/36/36
f 29/29/29 30/30/30 38/38/38
f 29/29/29 38/38/38 37/37/37
f 30/30/30 31/31/31 39/39/39
f 30/30/30 39/39/39 38/38/38
f 31/31/31 32/32/32 40/40/40
f 31/31/31 40/40/40 39/39/39
f 33/33/33 34/34/34 42/42/42
f 33/33/33 42/42/42 41/41/41
f 34/34/34 35/35/35 43/43/43
f 34/34/34 43/43/43 42/42/42
f 35/35/35 36/36/36 44/44/44
f 35/35/35 44/44/44 43/43/43
f 36/36/36 37/37/37 45/45/45
f 36/36/36 45/45/45 44/44/44
f 37/37/37 38/38/38 46/46/46
f 37/37/37 46/46/46 45/45/45
f 38/38/38 39/39/39 47/47/47
f 38/38/38 47/47/47 46/46/46
f 39/39/39 40/40/40 48/48/48
f 39/39/39 48/48/48 47/47/47
f 41/41/41 42/42/42 50/50/50
f 41/41/41 50/50/50 49/49/49
f 42/42/42 43/43/43 51/51/51
f 42/42/42 51/51/51 50/50/50
f 43/43/43 44/44/44 52/52/52
f 43/43/43 52/52/52 51/51/51
f 44/44/44 45/45/45 53/53/53
f 44/44/44 53/53/53 52/52/52
f 45/45/45 46/46/46 54/54/54
f 45/45/45 54/54/54 53/53/53
f 46/46/46 47/47/47 55/55/55
f 46/46/46 55/55/55 54/54/54
f 47/47/47 48/48/48 56/56/56
f 47/47/47 56/56/56 55/55/55
f 49/49/49 50/50/50 58/58/58
f 49/49/49 58/58/58 57/57/57
f 50/50/50 51/51/51 59/59/59
f 50/50/50 59/59/59 58/58/58
f 51/51/51 52/52/52 60/60/60
f 51/51/51 60/60/60 59/59/59
f 52/52/52 53/53/53 61/61/61
f 52/52/52 61/61/61 60/60/60
f 53/53/53 54/54/54 62/62/62
f 53/53/53 62/62/62 61/61/61
f 54/54/54 55/55/55 63/63/63
f 54/54/54 63/63/63 62/62/62
f 55/55/55 56/56/56 64/64/64
f 55/55/55 64/64/64 63/63/63
f 65/65/65 66/66/66 74/74/74
f 65/65/65 74/74/74 73/73/73
f 66/66/66 67/67/67 75/75/75
f 66/66/66 75/75/75 74/74/74
f 67/67/67 68/68/68 76/76/76
f 67/67/67 76/76/76 75/75/75
f 68/68/68 69/69/69 77/77/77
f 68/68/68 77/77/77 76/76/76
f 69/69/69 70/70/70 78/78/78
f 69/69/69 78/78/78 77/77/77
f 70/70/70 71/71/71 79/79/79
f 70/70/70 79/79/79 78/78/78
f 71/71/71 72/72/72 80/80/80
f 71/71/71 80/80/80 79/79/79
f 73/73/73 74/74/74 82/82/82
f 73/73/73 82/82/82 81/81/81
f 74/74/74 75/75/75 83/83/83
f 74/74/74 83/83/83 82/82/82
f 75/75/75 76/76/76 84/84/84
f 75/75/75 84/84/84 83/83/83
f 76/76/76 77/77/77 85/85/85
f 76/76/76 85/85/85 84/84/84
f 77/77/77 78/78/78 86/86/86
f 77/77/77 86/86/86 85/85/85
f 78/78/78 79/79/79 87/87/87
f 78/78/78 87/87/87 86/86/86
f 79/79/79 80/80/80 88/88/88
f 79/79/79 88/88/88 87/87/87
f 81/81/81 82/82/82 90/90/90
f 81/81/81 90/90/90 89/89/89
f 82/82/82 83/83/83 91/91/91
f 82/82/82 91/91/91 90/90/90
f 83/83/83 84/84/84 92/92/92
f 83/83/83 92/92/92 91/91/91
f 84/84/84 85/85/85 93/93/93
f 84/84/84 93/93/93 92/92/92
f 85/85/85 86/86/86 94/94/94
f 85/85/85 94/94/94 93/93/93
f 86/86/86 87/87/87 95/95/95
f 86/86/86 95/95/95 94/94/94
f 87/87/87 88/88/88 96/96/96
f 87/87/87 96/96/96 95/95/95
f 89/89/89 90/90/90 98/98/98
f 89/89/89 98/98/98 97/97/97
f 90/90/90 91/91/91 99/99/99
f 90/90/90 99/99/99 98/98/98
f 91/91/91 92/92/92 100/100/100
f 91/91/91 100/100/100 99/99/99
f 92/92/92 93/93/93 101/101/101
f 92/92/92 101/101/101 100/100/100
f 93/93/93 94/94/94 102/102/102
f 93/93/93 102/102/102 101/101/101
f 94/94/94 95/95/95 103/103/103
f 94/94/94 103/103/103 102/102/102
f 95/95/95 96/96/96 104/104/104
f 95/95/95 104/104/104 103/103/103
f 97/97/97 98/98/98 106/106/106
f 97/97/97 106/106/106 105/105/105
f 98/98/98 99/99/99 107/107/107
f 98/98/98 107/107/107 106/106/106
f 99/99/99 100/100/100 108/108/108
f 99/99/99 108/108/108 107/107/107
f 100/100/100 101/101/101 109/109/109
f 100/100/100 109/109/109 108/108/108
f 101/101/101 102/102/102 110/110/110
f 101/101/101 110/110/110 109/109/109
f 102/102/102 103/103/103 111/111/111
f 102/102/102 111/111/111 110/110/110
f 103/103/103 104/104/104 112/112/112
f 103/103/103 112/112/112 111/111/111
f 105/105/105 106/106/106 114/114/114
f 105/105/105 114/114/114 113/113/113
f 106/106/106 107/107/107 115/115/115
f 106/106/106 115/115/115 114/114/114
f 107/107/107 108/108/108 116/116/116
f 107/107/107 116/116/116 115/115/115
f 108/108/108 109/109/109 117/117/117
f 108/108/108 117/117/117 116/116/116
f 109/109/109 110/110/110 118/118/118
f 109/109/109 118/118/118 117/117/117
f 110/110/110 111/111/111 119/119/119
f 110/110/110 119/119/119 118/118/118
f 111/111/111 112/112/112 120/120/120
f 111/111/111 120/120/120 119/119/119
f 113/113/113 114/114/114 122/122/122
f 113/113/113 122/122/122 121/121/121
f 114/114/114 115/115/115 123/123/123
f 114/114/114 123/123/123 122/122/122
f 115/115/115 116/116/116 124/124/124
f 115/115/115 124/124/124 123/123/123
f 116/116/116 117/117/117 125/125/125
f 116/116/116 125/125/125 124/124/124
f 117/117/117 118/118/118 126/126/126
f 117/117/117 126/126/126 125/125/125
f 118/118/118 119/119/119 127/127/127
f 118/118/118 127/127/127 126/126/126
f 119/119/119 120/120/120 128/128/128
f 119/119/119 128/128/128 127/127/127
f 129/129/129 130/130/130 138/138/138
f 129/129/129 138/138/138 137/137/137
f 130/130/130 131/131/131 139/139/139
f 130/130/130 139/139/139 138/138/138
f 131/131/131 132/132/132 140/140/140
f 131/131/131 140/140/140 139/139/139
f 132/132/132 133/133/133 141/141/141
f 132/132/132 141/141/141 140/140/140
f 133/133/133 134/134/134 142/142/142
f 133/133/133 142/142/142 141/141/141
f 134/134/134 135/135/135 143/143/143
f 134/134/134 143/143/143 142/142/142
f 135/135/135 136/136/136 144/144/144
f 135/135/135 144/144/144 143/143/143
f 137/137/137 138/138/138 146/146/146
f 137/137/137 146/146/146 145/145/145
f 138/138/138 139/139/139 147/147/147
f 138/138/138 147/147/147 146/146/146
f 139/139/139 140/140/140 148/148/148
f 139/139/139 148/148/148 147/147/147
f 140/140/140 141/141/141 149/149/149
f 140/140/140 149/149/149 148/148/148
f 141/141/141 142/142/142 150/150/150
f 141/141/141 150/150/150 149/149/149
f 142/142/142 143/143/143 151/151/151
f 142/142/142 151/151/151 150/150/150
f 143/143/143 144/144/144 152/152/152
f 143/143/143 152/152/152 151/151/151
f 145/145/145 146/146/146 154/154/154
f 145/145/145 154/154/154 153/153/153
f 146/146/146 147/147/147 155/155/155
f 146/146/146 155/155/155 154/154/154
f 147/147/147 148/148/148 156/156/156
f 147/147/147 156/156/156 155/155/155
f 148/148/148 149/149/149 157/157/157
f 148/148/148 157/157/157 156/156/156
f 149/149/149 150/150/150 158/158/158
f 149/149/149 158/158/158 157/157/157
f 150/150/150 151/151/151 159/159/159
f 150/150/150 159/159/159 158/158/158
f 151/151/151 152/152/152 160/160/160
f 151/151/151 160/160/160 159/159/159
f 153/153/153 154/154/154 162/162/162
f 153/153/153 162/162/162 161/161/161
f 154/154/154 155/155/155 163/163/163
f 154/154/154 163/163/163 162/162/162
f 155/155/155 156/156/156 164/164/164
f 155/155/155 164/164/164 163/163/163
f 156/156/156 157/157/157 165/165/165
f 156/156/156 165/165/165 164/164/164
f 157/157/157 158/158/158 166/166/166
f 157/157/157 166/166/166 165/165/165
f 158/158/158 159/159/159 167/167/167
f 158/158/158 167/167/167 166/166/166
f 159/159/159 160/160/160 168/168/168
f 159/159/159 168/168/168 167/167/167
f 161/161/161 162/162/162 170/170/170
f 161/161/161 170/170/170 169/169/169
f 162/162/162 163/163/163 171/171/171
f 162/162/162 171/171/171 170/170/170
f 163/163/163 164/164/164 172/172/172
f 163/163/163 172/172/172 171/171/171
f 164/164/164 165/165/165 173/173/173
f 164/164/164 173/173/173 172/172/172
f 165/165/165 166/166/166 174/174/174
f 165/165/165 174/174/174 173/173/173
f 166/166/166 167/167/167 175/175/175
f 166/166/166 175/175/175 174/174/174
f 167/167/167 168/168/168 176/176/176
f 167/167/167 176/176/176 175/175/175
f 169/169/169 170/170/170 178/178/178
f 169/169/169 178/178/178 177/177/177
f 170/170/170 171/171/171 179/179/179
f 170/170/170 179/179/179 178/178/178
f 171/171/171 172/172/172 180/180/180
f 171/171/171 180/180/180 179/179/179
f 172/172/172 173/173/173 181/181/181
f 172/172/172 181/181/181 180/180/180
f 173/173/173 174/174/174 182/182/182
f 173/173/173 182/182/182 181/181/181
f 174/174/174 175/175/175 183/183/183
f 174/174/174 183/183/183 182/182/182
f 175/175/175 176/176/176 184/184/184
f 175/175/175 184/184/184 183/183/183
f 177/177/177 178/178/178 186/186/186
f 177/177/177 186/186/186 185/185/185
f 178/178/178 179/179/179 187/187/187
f 178/178/178 187/187/187 186/186/186
f 179/179/179 180/180/180 188/188/188
f 179/179/179 188/188/188 187/187/187
f 180/180/180 181/181/181 189/189/189
f 180/180/180 189/189/189 188/188/188
f 181/181/181 182/182/182 190/190/190
f 181/181/181 190/190/190 189/189/189
f 182/182/182 183/183/183 191/191/191
f 182/182/182 191/191/191 190/190/190
f 183/183/183 184/184/184 192/192/192
f 183/183/183 192/192/192 191/191/191
f 193/193/193 194/194/194 202/202/202
f 193/193/193 202/202/202 201/201/201
f 194/194/194 195/195/195 203/203/203
f 194/194/194 203/203/203 202/202/202
f 195/195/195 196/196/196 204/204/204
f 195/195/195 204/204/204 203/203/203
f 196/196/196 197/197/197 205/205/205
f 196/196/196 205/205/205 204/204/204
f 197/197/197 198/198/198 206/206/206
f 197/197/197 206/206/206 205/205/205
f 198/198/198 199/199/199 207/207/207
f 198/198/198 207/207/207 206/206/206
f 199/199/199 200/200/200 208/208/208
f 199/199/199 208/208/208 207/207/207
f 201/201/201 202/202/202 210/210/210
f 201/201/201 210/210/210 209/209/209
f 202/202/202 203/203/203 211/211/211
f 202/202/202 211/211/211 210/210/210
f 203/203/203 204/204/204 212/212/212
f 203/203/203 212/212/212 211/211/211
f 204/204/204 205/205/205 213/213/213
f 204/204/204 213/213/213 212/212/212
f 205/205/205 206/206/206 214/214/214
f 205/205/205 214/214/214 213/213/213
f 206/206/206 207/207/207 215/215/215
f 206/206/206 215/215/215 214/214/214
f 207/207/207 208/208/208 216/216/216
f 207/207/207 216/216/216 215/215/215
f 209/209/209 210/210/210 218/218/218
f 209/209/209 218/218/218 217/217/217
f 210/210/210 211/211/211 219/219/219
f 210/210/210 219/219/219 218/218/218
f 211/211/211 212/212/212 220/220/220
f 211/211/211 220/220/220 219/219/219
f 212/212/212 213/213/213 221/221/221
f 212/212/212 221/221/221 220/220/220
f 213/213/213 214/214/214 222/222/222
f 213/213/213 222/222/222 221/221/221
f 214/214/214 215/215/215 223/223/223
f 214/214/214 223/223/223 222/222/222
f 215/215/215 216/216/216 224/224/224
f 215/215/215 224/224/224 223/223/223
f 217/217/217 218/218/218 226/226/226
f 217/217/217 226/226/226 225/225/225
f 218/218/218 219/219/219 227/227/227
f 218/218/218 227/227/227 226/226/226
f 219/219/219 220/220/220 228/228/228
f 219/219/219 228/228/228 227/227/227
f 220/220/220 221/221/221 229/229/229
f 220/220/220 229/229/229 228/228/228
f 221/221/221 222/222/222 230/230/230
f 221/221/221 230/230/230 229/229/229
f 222/222/222 223/223/223 231/231/231
f 222/222/222 231/231/231 230/230/230
f 223/223/223 224/224/224 232/232/232
f 223/223/223 232/232/232 231/231/231
f 225/225/225 226/226/226 234/234/234
f 225/225/225 234/234/234 233/233/233
f 226/226/226 227/227/227 235/235/235
f 226/226/226 235/235/235 234/234/234
f 227/227/227 228/228/228 236/236/236
f 227/227/227 236/236/236 235/235/235
f 228/228/228 229/229/229 237/237/237
f 228/228/228 237/237/237 236/236/236
f 229/229/229 230/230/230 238/238/238
f 229/229/229 238/238/238 237/237/237
f 230/230/230 231/231/231 239/239/239
f 230/230/230 239/239/239 238/238/238
f 231/231/231 232/232/232 240/240/240
f 231/231/231 240/240/240 239/239/239
f 233/233/233 234/234/234 242/242/242
f 233/233/233 242/242/242 241/241/241
f 234/234/234 235/235/235 243/243/243
f 234/234/234 243/243/243 242/242/242
f 235/235/235 236/236/236 244/244/244
f 235/235/235 244/244/244 243/243/243
f 236/236/236 237/237/237 245/245/245
f 236/236/236 245/245/245 244/244/244
f 237/237/237 238/238/238 246/246/246
f 237/237/237 246/246/246 245/245/245
f 238/238/238 239/239/239 247/247/247
f 238/238/238 247/247/247 246/246/246
f 239/239/239 240/240/240 248/248/248
f 239/239/239 248/248/248 247/247/247
f 241/241/241 242/242/242 250/250/250
f 241/241/241 250/250/250 249/249/249
f 242/242/242 243/243/243 251/251/251
f 242/242/242 251/251/251 250/250/250
f 243/243/243 244/244/244 252/252/252
f 243/243/243 252/252/252 251/251/251
f 244/244/244 245/245/245 253/253/253
f 244/244/244 253/253/253 252/252/252
f 245/245/245 246/246/246 254/254/254
f 245/245/245 254/254/254 253/253/253
f 246/246/246 247/247/247 255/255/255
f 246/246/246 255/255/255 254/254/254
f 247/247/247 248/248/248 256/256/256
f 247/247/247 256/256/256 255/255/255
f 257/257/257 258/258/258 266/266/266
f 257/257/257 266/266/266 265/265/265
f 258/258/258 259/259/259 267/267/267
f 258/258/258 267/267/267 266/266/266
f 259/259/259 260/260/260 268/268/268
f 259/259/259 268/268/268 267/267/267
f 260/260/260 261/261/261 269/269/269
f 260/260/260 269/269/269 268/268/268
f 261/261/261 262/262/262 270/270/270
f 261/261/261 270/270/270 269/269/269
f 262/262/262 263/263/263 271/271/271
f 262/262/262 271/271/271 270/270/270
f 263/263/263 264/264/264 272/272/272
f 263/263/263 272/272/272 271/271/271
f 265/265/265 266/266/266 274/274/274
f 265/265/265 274/274/274 273/273/273
f 266/266/266 267/267/267 275/275/275
f 266/266/266 275/275/275 274/274/274
f 267/267/267 268/268/268 276/276/276
f 267/267/267 276/276/276 275/275/275
f 268/268/268 269/269/269 277/277/277
f 268/268/268 277/277/277 276/276/276
f 269/269/269 270/270/270 278/278/278
f 269/269/269 278/278/278 277/277/277
f 270/270/270 271/271/271 279/279/279
f 270/270/270 279/279/279 278/278/278
f 271/271/271 272/272/272 280/280/280
f 271/271/271 280/280/280 279/279/279
f 273/273/273 274/274/274 282/282/282
f 273/273/273 282/282/282 281/281/281
f 274/274/274 275/275/275 283/283/283
f 274/274/274 283/283/283 282/282/282
f 275/275/275 276/276/276 284/284/284
f 275/275/275 284/284/284 283/283/283
f 276/276/276 277/277/277 285/285/285
f 276/276/276 285/285/285 284/284/284
f 277/277/277 278/278/278 286/286/286
f 277/277/277 286/286/286 285/285/285
f 278/278/278 279/279/279 287/287/287
f 278/278/278 287/287/287 286/286/286
f 279/279/279 280/280/280 288/288/288
f 279/279/279 288/288/288 287/287/287
f 281/281/281 282/282/282 290/290/290
f 281/281/281 290/290/290 289/289/289
f 282/282/282 283/283/283 291/291/291
f 282/282/282 291/291/291 290/290/290
f 283/283/283 284/284/284 292/292/292
f 283/283/283 292/292/292 291/291/291
f 284/284/284 285/285/285 293/293/293
f 284/284/284 293/293/293 292/292/292
f 285/285/285 286/286/286 294/294/294
f 285/285/285 294/294/294 293/293/293
f 286/286/286 287/287/287 295/295/295
f 286/286/286 295/295/295 294/294/294
f 287/287/287 288/288/288 296/296/296
f 287/287/287 296/296/296 295/295/295
f 289/289/289 290/290/290 298/298/298
f 289/289/289 298/298/298 297/297/297
f 290/290/290 291/291/291 299/299/299
f 290/290/290 299/299/299 298/298/298
f 291/291/291 292/292/292 300/300/300
f 291/291/291 300/300/300 299/299/299
f 292/292/292 293/293/293 301/301/301
f 292/292/292 301/301/301 300/300/300
f 293/293/293 294/294/294 302/302/302
f 293/293/293 302/302/302 301/301/301
f 294/294/294 295/295/295 303/303/303
f 294/294/294 303/303/303 302/302/302
f 295/295/295 296/296/296 304/304/304
f 295/295/295 304/304/304 303/303/303
f 297/297/297 298/298/298 306/306/306
f 297/297/297 306/306/306 305/305/305
f 298/298/298 299/299/299 307/307/307
f 298/298/298 307/307/307 306/306/306
f 299/299/299 300/300/300 308/308/308
f 299/299/299 308/308/308 307/307/307
f 300/300/300 301/301/301 309/309/309
f 300/300/300 309/309/309 308/308/308
f 301/301/301 302/302/302 310/310/310
f 301/301/301 310/310/310 309/309/309
f 302/302/302 303/303/303 311/311/311
f 302/302/302 311/311/311 310/310/310
f 303/303/303 304/304/304 312/312/312
f 303/303/303 312/312/312 311/311/311
f 305/305/305 306/306/306 314/314/314
f 305/305/305 314/314/314 313/313/313
f 306/306/306 307/307/307 315/315/315
f 306/306/306 315/315/315 314/314/314
f 307/307/307 308/308/308 316/316/316
f 307/307/307 316/316/316 315/315/315
f 308/308/308 309/309/309 317/317/317
f 308/308/308 317/317/317 316/316/316
f 309/309/309 310/310/310 318/318/318
f 309/309/309 318/318/318 317/317/317
f 310/310/310 311/311/311 319/319/319
f 310/310/310 319/319/319 318/318/318
f 311/311/311 312/312/312 320/320/320
f 311/311/311 320/320/320 319/319/319
f 321/321/321 322/322/322 330/330/330
f 321/321/321 330/330/330 329/329/329
f 322/322/322 323/323/323 331/331/331
f 322/322/322 331/331/331 330/330/330
f 323/323/323 324/324/324 332/332/332
f 323/323/323 332/332/332 331/331/331
f 324/324/324 325/325/325 333/333/333
f 324/324/324 333/333/333 332/332/332
f 325/325/325 326/326/326 334/334/334
f 325/325/325 334/334/334 333/333/333
f 326/326/326 327/327/327 335/335/335
f 326/326/326 335/335/335 334/334/334
f 327/327/327 328/328/328 336/336/336
f 327/327/327 336/336/336 335/335/335
f 329/329/329 330/330/330 338/338/338
f 329/329/329 338/338/338 337/337/337
f 330/330/330 331/331/331 339/339/339
f 330/330/330 339/339/339 338/338/338
f 331/331/331 332/332/332 340/340/340
f 331/331/331 340/340/340 339/339/339
f 332/332/332 333/333/333 341/341/341
f 332/332/332 341/341/341 340/340/340
f 333/333/333 334/334/334 342/342/342
f 333/333/333 342/342/342 341/341/341
f 334/334/334 335/335/335 343/343/343
f 334/334/334 343/343/343 342/342/342
f 335/335/335 336/336/336 344/344/344
f 335/335/335 344/344/344 343/343/343
f 337/337/337 338/338/338 346/346/346
f 337/337/337 346/346/346 345/345/345
f 338/338/338 339/339/339 347/347/347
f 338/338/338 347/347/347 346/346/346
f 339/339/339 340/340/340 348/348/348
f 339/339/339 348/348/348 347/347/347
f 340/340/340 341/341/341 349/349/349
f 340/340/340 349/349/349 348/348/348
f 341/341/341 342/342/342 350/350/350
f 341/341/341 350/350/350 349/349/349
f 342/342/342 343/343/343 351/351/351
f 342/342/342 351/351/351 350/350/350
f 343/343/343 344/344/344 352/352/352
f 343/343/343 352/352/352 351/351/351
f 345/345/345 346/346/346 354/354/354
f 345/345/345 354/354/354 353/353/353
f 346/346/346 347/347/347 355/355/355
f 346/346/346 355/355/355 354/354/354
f 347/347/347 348/348/348 356/356/356
f 347/347/347 356/356/356 355/355/355
f 348/348/348 349/349/349 357/357/357
f 348/348/348 357/357/357 356/356/356
f 349/349/349 350/350/350 358/358/358
f 349/349/349 358/358/358 357/357/357
f 350/350/350 351/351/351 359/359/359
f 350/350/350 359/359/359 358/358/358
f 351/351/351 352/352/352 360/360/360
f 351/351/351 360/360/360 359/359/359
f 353/353/353 354/354/354 362/362/362
f 353/353/353 362/362/362 361/361/361
f 354/354/354 355/355/355 363/363/363
f 354/354/354 363/363/363 362/362/362
f 355/355/355 356/356/356 364/364/364
f 355/355/355 364/364/364 363/363/363
f 356/356/356 357/357/357 365/365/365
f 356/356/356 365/365/365 364/364/364
f 357/357/357 358/358/358 366/366/366
f 357/357/357 366/366/366 365/365/365
f 358/358/358 359/359/359 367/367/367
f 358/358/358 367/367/367 366/366/366
f 359/359/359 360/360/360 368/368/368
f 359/359/359 368/368/368 367/367/367
f 361/361/361 362/362/362 370/370/370
f 361/361/361 370/370/370 369/369/369
f 362/362/362 363/363/363 371/371/371
f 362/362/362 371/371/371 370/370/370
f 363/363/363 364/364/364 372/372/372
f 363/363/363 372/372/372 371/371/371
f 364/364/364 365/365/365 373/373/373
f 364/364/364 373/373/373 372/372/372
f 365/365/365 366/366/366 374/374/374
f 365/365/365 374/374/374 373/373/373
f 366/366/366 367/367/367 375/375/375
f 366/366/366 375/375/375 374/374/374
f 367/367/367 368/368/368 376/376/376
f 367/367/367 376/376/376 375/375/375
f 369/369/369 370/370/370 378/378/378
f 369/369/369 378/378/378 377/377/377
f 370/370/370 371/371/371 379/379/379
f 370/370/370 379/379/379 378/378/378
f 371/371/371 372/372/372 380/380/380
f 371/371/371 380/380/380 379/379/379
f 372/372/372 373/373/373 381/381/381
f 372/372/372 381/381/381 380/380/380
f 373/373/373 374/374/374 382/382/382
f 373/373/373 382/382/382 381/381/381
f 374/374/374 375/375/375 383/383/383
f 374/374/374 383/383/383 382/382/382
f 375/375/375 376/376/376 384/384/384
f 375/375/375 384/384/384 383/383/383
f 385/385/385 386/386/386 399/399/399
f 385/385/385 399/399/399 398/398/398
f 386/386/386 387/387/387 400/400/400
f 386/386/386 400/400/400 399/399/399
f 387/387/387 388/388/388 401/401/401
f 387/387/387 401/401/401 400/400/400
f 388/388/388 389/389/389 402/402/402
f 388/388/388 402/402/402 401/401/401
f 389/389/389 390/390/390 403/403/403
f 389/389/389 403/403/403 402/402/402
f 390/390/390 391/391/391 404/404/404
f 390/390/390 404/404/404 403/403/403
f 391/391/391 392/392/392 405/405/405
f 391/391/391 405/405/405 404/404/404
f 392/392/392 393/393/393 406/406/406
f 392/392/392 406/406/406 405/405/405
f 393/393/393 394/394/394 407/407/407
f 393/393/393 407/407/407 406/406/406
f 394/394/394 395/395/395 408/408/408
f 394/394/394 408/408/408 407/407/407
f 395/395/395 396/396/396 409/409/409
f 395/395/395 409/409/409 408/408/408
f 396/396/396 397/397/397 410/410/410
f 396/396/396 410/410/410 409/409/409
f 411/411/411 413/413/413 412/412/412
f 411/411/411 414/414/414 413/413/413
f 411/411/411 415/415/415 414/414/414
f 411/411/411 416/416/416 415/415/415
f 411/411/411 417/417/417 416/416/416
f 411/411/411 418/418/418 417/417/417
f 411/411/411 419/419/419 418/418/418
f 411/411/411 420/420/420 419/419/419
f 411/411/411 421/421/421 420/420/420
f 411/411/411 422/422/422 421/421/421
f 411/411/411 423/423/423 422/422/422
f 411/411/411 412/412/412 423/423/423
f 424/424/424 425/425/425 426/426/426
f 424/424/424 426/426/426 427/427/427
f 424/424/424 427/427/427 428/428/428
f 424/424/424 428/428/428 429/429/429
f 424/424/424 429/429/429 430/430/430
f 424/424/424 430/430/430 431/431/431
f 424/424/424 431/431/431 432/432/432
f 424/424/424 432/432/432 433/433/433
f 424/424/424 433/433/433 434/434/434
f 424/424/424 434/434/434 435/435/435
f 424/424/424 435/435/435 436/436/436
f 424/424/424 436/436/436 425/425/425
f 437/437/437 438/438/438 451/451/451
f 437/437/437 451/451/451 450/450/450
f 438/438/438 439/439/439 452/452/452
f 438/438/438 452/452/452 451/451/451
f 439/439/439 440/440/440 453/453/453
f 439/439/439 453/453/453 452/452/452
f 440/440/440 441/441/441 454/454/454
f 440/440/440 454/454/454 453/453/453
f 441/441/441 442/442/442 455/455/455
f 441/441/441 455/455/455 454/454/454
f 442/442/442 443/443/443 456/456/456
f 442/442/442 456/456/456 455/455/455
f 443/443/443 444/444/444 457/457/457
f 443/443/443 457/457/457 456/456/456
f 444/444/444 445/445/445 458/458/458
f 444/444/444 458/458/458 457/457/457
f 445/445/445 446/446/446 459/459/459
f 445/445/445 459/459/459 458/458/458
f 446/446/446 447/447/447 460/460/460
f 446/446/446 460/460/460 459/459/459
f 447/447/447 448/448/448 461/461/461
f 447/447/447 461/461/461 460/460/460
f 448/448/448 449/449/449 462/462/462
f 448/448/448 462/462/462 461/461/461
f 463/463/463 465/465/465 464/464/464
f 463/463/463 466/466/466 465/465/465
f 463/463/463 467/467/467 466/466/466
f 463/463/463 468/468/468 467/467/467
f 463/463/463 469/469/469 468/468/468
f 463/463/463 470/470/470 469/469/469
f 463/463/463 471/471/471 470/470/470
f 463/463/463 472/472/472 471/471/471
f 463/463/463 473/473/473 472/472/472
f 463/463/463 474/474/474 473/473/473
f 463/463/463 475/475/475 474/474/474
f 463/463/463 464/464/464 475/475/475
f 476/476/476 477/477/477 478/478/478
f 476/476/476 478/478/478 479/479/479
f 476/476/476 479/479/479 480/480/480
f 476/476/476 480/480/480 481/481/481
f 476/476/476 481/481/481 482/482/482
f 476/476/476 482/482/482 483/483/483
f 476/476/476 483/483/483 484/484/484
f 476/476/476 484/484/484 485/485/485
f 476/476/476 485/485/485 486/486/486
f 476/476/476 486/486/486 487/487/487
f 476/476/476 487/487/487 488/488/488
f 476/476/476 488/488/488 477/477/477
f 489/489/489 490/490/490 503/503/503
f 489/489/489 503/503/503 502/502/502
f 490/490/490 491/491/491 504/504/504
f 490/490/490 504/504/504 503/503/503
f 491/491/491 492/492/492 505/505/505
f 491/491/491 505/505/505 504/504/504
f 492/492/492 493/493/493 506/506/506
f 492/492/492 506/506/506 505/505/505
f 493/493/493 494/494/494 507/507/507
f 493/493/493 507/507/507 506/506/506
f 494/494/494 495/495/495 508/508/508
f 494/494/494 508/508/508 507/507/507
f 495/495/495 496/496/496 509/509/509
f 495/495/495 509/509/509 508/508/508
f 496/496/496 497/497/497 510/510/510
f 496/496/496 510/510/510 509/509/509
f 497/497/497 498/498/498 511/511/511
f 497/497/497 511/511/511 510/510/510
f 498/498/498 499/499/499 512/512/512
f 498/498/498 512/512/512 511/511/511
f 499/499/499 500/500/500 513/513/513
f 499/499/499 513/513/513 512/512/512
f 500/500/500 501/501/501 514/514/514
f 500/500/500 514/514/514 513/513/513
f 502/502/502 503/503/503 516/516/516
f 502/502/502 516/516/516 515/515/515
f 503/503/503 504/504/504 517/517/517
f 503/503/503 517/517/517 516/516/516
f 504/504/504 505/505/505 518/518/518
f 504/504/504 518/518/518 517/517/517
f 505/505/505 506/506/506 519/519/519
f 505/505/505 519/519/519 518/518/518
f 506/506/506 507/507/507 520/520/520
f 506/506/506 520/520/520 519/519/519
f 507/507/507 508/508/508 521/521/521
f 507/507/507 521/521/521 520/520/520
f 508/508/508 509/509/509 522/522/522
f 508/508/508 522/522/522 521/521/521
f 509/509/509 510/510/510 523/523/523
f 509/509/509 523/523/523 522/522/522
f 510/510/510 511/511/511 524/524/524
f 510/510/510 524/524/524 523/523/523
f 511/511/511 512/512/512 525/525/525
f 511/511/511 525/525/525 524/524/524
f 512/512/512 513/513/513 526/526/526
f 512/512/512 526/526/526 525/525/525
f 513/513/513 514/514/514 527/527/527
f 513/513/513 527/527/527 526/526/526
f 515/515/515 516/516/516 529/529/529
f 515/515/515 529/529/529 528/528/528
f 516/516/516 517/517/517 530/530/530
f 516/516/516 530/530/530 529/529/529
f 517/517/517 518/518/518 531/531/531
f 517/517/517 531/531/531 530/530/530
f 518/518/518 519/519/519 532/532/532
f 518/518/518 532/532/532 531/531/531
f 519/519/519 520/520/520 533/533/533
f 519/519/519 533/533/533 532/532/532
f 520/520/520 521/521/521 534/534/534
f 520/520/520 534/534/534 533/533/533
f 521/521/521 522/522/522 535/535/535
f 521/521/521 535/535/535 534/534/534
f 522/522/522 523/523/523 536/536/536
f 522/522/522 536/536/536 535/535/535
f 523/523/523 524/524/524 537/537/537
f 523/523/523 537/537/537 536/536/536
f 524/524/524 525/525/525 538/538/538
f 524/524/524 538/538/538 537/537/537
f 525/525/525 526/526/526 539/539/539
f 525/525/525 539/539/539 538/538/538
f 526/526/526 527/527/527 540/540/540
f 526/526/526 540/540/540 539/539/539
f 528/528/528 529/529/529 542/542/542
f 528/528/528 542/542/542 541/541/541
f 529/529/529 530/530/530 543/543/543
f 529/529/529 543/543/543 542/542/542
f 530/530/530 531/531/531 544/544/544
f 530/530/530 544/544/544 543/543/543
f 531/531/531 532/532/532 545/545/545
f 531/531/531 545/545/545 544/544/544
f 532/532/532 533/533/533 546/546/546
f 532/532/532 546/546/546 545/545/545
f 533/533/533 534/534/534 547/547/547
f 533/533/533 547/547/547 546/546/546
f 534/534/534 535/535/535 548/548/548
f 534/534/534 548/548/548 547/547/547
f 535/535/535 536/536/536 549/549/549
f 535/535/535 549/549/549 548/548/548
f 536/536/536 537/537/537 550/550/550
f 536/536/536 550/550/550 549/549/549
f 537/537/537 538/538/538 551/551/551
f 537/537/537 551/551/551 550/550/550
f 538/538/538 539/539/539 552/552/552
f 538/538/538 552/552/552 551/551/551
f 539/539/539 540/540/540 553/553/553
f 539/539/539 553/553/553 552/552/552
f 541/541/541 542/542/542 555/555/555
f 541/541/541 555/555/555 554/554/554
f 542/542/542 543/543/543 556/556/556
f 542/542/542 556/556/556 555/555/555
f 543/543/543 544/544/544 557/557/557
f 543/543/543 557/557/557 556/556/556
f 544/544/544 545/545/545 558/558/558
f 544/544/544 558/558/558 557/557/557
f 545/545/545 546/546/546 559/559/559
f 545/545/545 559/559/559 558/558/558
f 546/546/546 547/547/547 560/560/560
f 546/546/546 560/560/560 559/559/559
f 547/547/547 548/548/548 561/561/561
f 547/547/547 561/561/561 560/560/560
f 548/548/548 549/549/549 562/562/562
f 548/548/548 562/562/562 561/561/561
f 549/549/549 550/550/550 563/563/563
f 549/549/549 563/563/563 562/562/562
f 550/550/550 551/551/551 564/564/564
f 550/550/550 564/564/564 563/563/563
f 551/551/551 552/552/552 565/565/565
f 551/551/551 565/565/565 564/564/564
f 552/552/552 553/553/553 566/566/566
f 552/552/552 566/566/566 565/565/565
f 554/554/554 555/555/555 568/568/568
f 554/554/554 568/568/568 567/567/567
f 555/555/555 556/556/556 569/569/569
f 555/555/555 569/569/569 568/568/568
f 556/556/556 557/557/557 570/570/570
f 556/556/556 570/570/570 569/569/569
f 557/557/557 558/558/558 571/571/571
f 557/557/557 571/571/571 570/570/570
f 558/558/558 559/559/559 572/572/572
f 558/558/558 572/572/572 571/571/571
f 559/559/559 560/560/560 573/573/573
f 559/559/559 573/573/573 572/572/572
f 560/560/560 561/561/561 574/574/574
f 560/560/560 574/574/574 573/573/573
f 561/561/561 562/562/562 575/575/575
f 561/561/561 575/575/575 574/574/574
f 562/562/562 563/563/563 576/576/576
f 562/562/562 576/576/576 575/575/575
f 563/563/563 564/564/564 577/577/577
f 563/563/563 577/577/577 576/576/576
f 564/564/564 565/565/565 578/578/578
f 564/564/564 578/578/578 577/577/577
f 565/565/565 566/566/566 579/579/579
f 565/565/565 579/579/579 578/578/578
f 567/567/567 568/568/568 581/581/581
f 567/567/567 581/581/581 580/580/580
f 568/568/568 569/569/569 582/582/582
f 568/568/568 582/582/582 581/581/581
f 569/569/569 570/570/570 583/583/583
f 569/569/569 583/583/583 582/582/582
f 570/570/570 571/571/571 584/584/584
f 570/570/570 584/584/584 583/583/583
f 571/571/571 572/572/572 585/585/585
f 571/571/571 585/585/585 584/584/584
f 572/572/572 573/573/573 586/586/586
f 572/572/572 586/586/586 585/585/585
f 573/573/573 574/574/574 587/587/587
f 573/573/573 587/587/587 586/586/586
f 574/574/574 575/575/575 588/588/588
f 574/574/574 588/588/588 587/587/587
f 575/575/575 576/576/576 589/589/589
f 575/575/575 589/589/589 588/588/588
f 576/576/576 577/577/577 590/590/590
f 576/576/576 590/590/590 589/589/589
f 577/577/577 578/578/578 591/591/591
f 577/577/577 591/591/591 590/590/590
f 578/578/578 579/579/579 592/592/592
f 578/578/578 592/592/592 591/591/591
f 580/580/580 581/581/581 594/594/594
f 580/580/580 594/594/594 593/593/593
f 581/581/581 582/582/582 595/595/595
f 581/581/581 595/595/595 594/594/594
f 582/582/582 583/583/583 596/596/596
f 582/582/582 596/596/596 595/595/595
f 583/583/583 584/584/584 597/597/597
f 583/583/583 597/597/597 596/596/596
f 584/584/584 585/585/585 598/598/598
f 584/584/584 598/598/598 597/597/597
f 585/585/585 586/586/586 599/599/599
f 585/585/585 599/599/599 598/598/598
f 586/586/586 587/587/587 600/600/600
f 586/586/586 600/600/600 599/599/599
f 587/587/587 588/588/588 601/601/601
f 587/587/587 601/601/601 600/600/600
f 588/588/588 589/589/589 602/602/602
f 588/588/588 602/602/602 601/601/601
f 589/589/589 590/590/590 603/603/603
f 589/589/589 603/603/603 602/602/602
f 590/590/590 591/591/591 604/604/604
f 590/590/590 604/604/604 603/603/603
f 591/591/591 592/592/592 605/605/605
f 591/591/591 605/605/605 604/604/604
f 606/606/606 607/607/607 620/620/620
f 606/606/606 620/620/620 619/619/619
f 607/607/607 608/608/608 621/621/621
f 607/607/607 621/621/621 620/620/620
f 608/608/608 609/609/609 622/622/622
f 608/608/608 622/622/622 621/621/621
f 609/609/609 610/610/610 623/623/623
f 609/609/609 623/623/623 622/622/622
f 610/610/610 611/611/611 624/624/624
f 610/610/610 624/624/624 623/623/623
f 611/611/611 612/612/612 625/625/625
f 611/611/611 625/625/625 624/624/624
f 612/612/612 613/613/613 626/626/626
f 612/612/612 626/626/626 625/625/625
f 613/613/613 614/614/614 627/627/627
f 613/613/613 627/627/627 626/626/626
f 614/614/614 615/615/615 628/628/628
f 614/614/614 628/628/628 627/627/627
f 615/615/615 616/616/616 629/629/629
f 615/615/615 629/629/629 628/628/628
f 616/616/616 617/617/617 630/630/630
f 616/616/616 630/630/630 629/629/629
f 617/617/617 618/618/618 631/631/631
f 617/617/617 631/631/631 630/630/630
f 632/632/632 634/634/634 633/633/633
f 632/632/632 635/635/635 634/634/634
f 632/632/632 636/636/636 635/635/635
f 632/632/632 637/637/637 636/636/636
f 632/632/632 638/638/638 637/637/637
f 632/632/632 639/639/639 638/638/638
f 632/632/632 640/640/640 639/639/639
f 632/632/632 641/641/641 640/640/640
f 632/632/632 642/642/642 641/641/641
f 632/632/632 643/643/643 642/642/642
f 632/632/632 644/644/644 643/643/643
f 632/632/632 633/633/633 644/644/644
f 645/645/645 646/646/646 647/647/647
f 645/645/645 647/647/647 648/648/648
f 645/645/645 648/648/648 649/649/649
f 645/645/645 649/649/649 650/650/650
f 645/645/645 650/650/650 651/651/651
f 645/645/645 651/651/651 652/652/652
f 645/645/645 652/652/652 653/653/653
f 645/645/645 653/653/653 654/654/654
f 645/645/645 654/654/654 655/655/655
f 645/645/645 655/655/655 656/656/656
f 645/645/645 656/656/656 657/657/657
f 645/645/645 657/657/657 646/646/646
f 658/658/658 659/659/659 672/672/672
f 658/658/658 672/672/672 671/671/671
f 659/659/659 660/660/660 673/673/673
f 659/659/659 673/673/673 672/672/672
f 660/660/660 661/661/661 674/674/674
f 660/660/660 674/674/674 673/673/673
f 661/661/661 662/662/662 675/675/675
f 661/661/661 675/675/675 674/674/674
f 662/662/662 663/663/663 676/676/676
f 662/662/662 676/676/676 675/675/675
f 663/663/663 664/664/664 677/677/677
f 663/663/663 677/677/677 676/676/676
f 664/664/664 665/665/665 678/678/678
f 664/664/664 678/678/678 677/677/677
f 665/665/665 666/666/666 679/679/679
f 665/665/665 679/679/679 678/678/678
f 666/666/666 667/667/667 680/680/680
f 666/666/666 680/680/680 679/679/679
f 667/667/667 668/668/668 681/681/681
f 667/667/667 681/681/681 680/680/680
f 668/668/668 669/669/669 682/682/682
f 668/668/668 682/682/682 681/681/681
f 669/669/669 670/670/670 683/683/683
f 669/669/669 683/683/683 682/682/682
f 684/684/684 686/686/686 685/685/685
f 684/684/684 687/687/687 686/686/686
f 684/684/684 688/688/688 687/687/687
f 684/684/684 689/689/689 688/688/688
f 684/684/684 690/690/690 689/689/689
f 684/684/684 691/691/691 690/690/690
f 684/684/684 692/692/692 691/691/691
f 684/684/684 693/693/693 692/692/692
f 684/684/684 694/694/694 693/693/693
f 684/684/684 695/695/695 694/694/694
f 684/684/684 696/696/696 695/695/695
f 684/684/684 685/685/685 696/696/696
f 697/697/697 698/698/698 699/699/699
f 697/697/697 699/699/699 700/700/700
f 697/697/697 700/700/700 701/701/701
f 697/697/697 701/701/701 702/702/702
f 697/697/697 702/702/702 703/703/703
f 697/697/697 703/703/703 704/704/704
f 697/697/697 704/704/704 705/705/705
f 697/697/697 705/705/705 706/706/706
f 697/697/697 706/706/706 707/707/707
f 697/697/697 707/707/707 708/708/708
f 697/697/697 708/708/708 709/709/709
f 697/697/697 709/709/709 698/698/698
f 710/710/710 711/711/711 724/724/724
f 710/710/710 724/724/724 723/723/723
f 711/711/711 712/712/712 725/725/725
f 711/711/711 725/725/725 724/724/724
f 712/712/712 713/713/713 726/726/726
f 712/712/712 726/726/726 725/725/725
f 713/713/713 714/714/714 727/727/727
f 713/713/713 727/727/727 726/726/726
f 714/714/714 715/715/715 728/728/728
f 714/714/714 728/728/728 727/727/727
f 715/715/715 716/716/716 729/729/729
f 715/715/715 729/729/729 728/728/728
f 716/716/716 717/717/717 730/730/730
f 716/716/716 730/730/730 729/729/729
f 717/717/717 718/718/718 731/731/731
f 717/717/717 731/731/731 730/730/730
f 718/718/718 719/719/719 732/732/732
f 718/718/718 732/732/732 731/731/731
f 719/719/719 720/720/720 733/733/733
f 719/719/719 733/733/733 732/732/732
f 720/720/720 721/721/721 734/734/734
f 720/720/720 734/734/734 733/733/733
f 721/721/721 722/722/722 735/735/735
f 721/721/721 735/735/735 734/734/734
f 723/723/723 724/724/724 737/737/737
f 723/723/723 737/737/737 736/736/736
f 724/724/724 725/725/725 738/738/738
f 724/724/724 738/738/738 737/737/737
f 725/725/725 726/726/726 739/739/739
f 725/725/725 739/739/739 738/738/738
f 726/726/726 727/727/727 740/740/740
f 726/726/726 740/740/740 739/739/739
f 727/727/727 728/728/728 741/741/741
f 727/727/727 741/741/741 740/740/740
f 728/728/728 729/729/729 742/742/742
f 728/728/728 742/742/742 741/741/741
f 729/729/729 730/730/730 743/743/743
f 729/729/729 743/743/743 742/742/742
f 730/730/730 731/731/731 744/744/744
f 730/730/730 744/744/744 743/743/743
f 731/731/731 732/732/732 745/745/745
f 731/731/731 745/745/745 744/744/744
f 732/732/732 733/733/733 746/746/746
f 732/732/732 746/746/746 745/745/745
f 733/733/733 734/734/734 747/747/747
f 733/733/733 747/747/747 746/746/746
f 734/734/734 735/735/735 748/748/748
f 734/734/734 748/748/748 747/747/747
f 736/736/736 737/737/737 750/750/750
f 736/736/736 750/750/750 749/749/749
f 737/737/737 738/738/738 751/751/751
f 737/737/737 751/751/751 750/750/750
f 738/738/738 739/739/739 752/752/752
f 738/738/738 752/752/752 751/751/751
f 739/739/739 740/740/740 753/753/753
f 739/739/739 753/753/753 752/752/752
f 740/740/740 741/741/741 754/754/754
f 740/740/740 754/754/754 753/753/753
f 741/741/741 742/742/742 755/755/755
f 741/741/741 755/755/755 754/754/754
f 742/742/742 743/743/743 756/756/756
f 742/742/742 756/756/756 755/755/755
f 743/743/743 744/744/744 757/757/757
f 743/743/743 757/757/757 756/756/756
f 744/744/744 745/745/745 758/758/758
f 744/744/744 758/758/758 757/757/757
f 745/745/745 746/746/746 759/759/759
f 745/745/745 759/759/759 758/758/758
f 746/746/746 747/747/747 760/760/760
f 746/746/746 760/760/760 759/759/759
f 747/747/747 748/748/748 761/761/761
f 747/747/747 761/761/761 760/760/760
f 749/749/749 750/750/750 763/763/763
f 749/749/749 763/763/763 762/762/762
f 750/750/750 751/751/751 764/764/764
f 750/750/750 764/764/764 763/763/763
f 751/751/751 752/752/752 765/765/765
f 751/751/751 765/765/765 764/764/764
f 752/752/752 753/753/753 766/766/766
f 752/752/752 766/766/766 765/765/765
f 753/753/753 754/754/754 767/767/767
f 753/753/753 767/767/767 766/766/766
f 754/754/754 755/755/755 768/768/768
f 754/754/754 768/768/768 767/767/767
f 755/755/755 756/756/756 769/769/769
f 755/755/755 769/769/769 768/768/768
f 756/756/756 757/757/757 770/770/770
f 756/756/756 770/770/770 769/769/769
f 757/757/757 758/758/758 771/771/771
f 757/757/757 771/771/771 770/770/770
f 758/758/758 759/759/759 772/772/772
f 758/758/758 772/772/772 771/771/771
f 759/759/759 760/760/760 773/773/773
f 759/759/759 773/773/773 772/772/772
f 760/760/760 761/761/761 774/774/774
f 760/760/760 774/774/774 773/773/773
f 762/762/762 763/763/763 776/776/776
f 762/762/762 776/776/776 775/775/775
f 763/763/763 764/764/764 777/777/777
f 763/763/763 777/777/777 776/776/776
f 764/764/764 765/765/765 778/778/778
f 764/764/764 778/778/778 777/777/777
f 765/765/765 766/766/766 779/779/779
f 765/765/765 779/779/779 778/778/778
f 766/766/766 767/767/767 780/780/780
f 766/766/766 780/780/780 779/779/779
f 767/767/767 768/768/768 781/781/781
f 767/767/767 781/781/781 780/780/780
f 768/768/768 769/769/769 782/782/782
f 768/768/768 782/782/782 781/781/781
f 769/769/769 770/770/770 783/783/783
f 769/769/769 783/783/783 782/782/782
f 770/770/770 771/771/771 784/784/784
f 770/770/770 784/784/784 783/783/783
f 771/771/771 772/772/772 785/785/785
f 771/771/771 785/785/785 784/784/784
f 772/772/772 773/773/773 786/786/786
f 772/772/772 786/786/786 785/785/785
f 773/773/773 774/774/774 787/787/787
f 773/773/773 787/787/787 786/786/786
f 775/775/775 776/776/776 789/789/789
f 775/775/775 789/789/789 788/788/788
f 776/776/776 777/777/777 790/790/790
f 776/776/776 790/790/790 789/789/789
f 777/777/777 778/778/778 791/791/791
f 777/777/777 791/791/791 790/790/790
f 778/778/778 779/779/779 792/792/792
f 778/778/778 792/792/792 791/791/791
f 779/779/779 780/780/780 793/793/793
f 779/779/779 793/793/793 792/792/792
f 780/780/780 781/781/781 794/794/794
f 780/780/780 794/794/794 793/793/793
f 781/781/781 782/782/782 795/795/795
f 781/781/781 795/795/795 794/794/794
f 782/782/782 783/783/783 796/796/796
f 782/782/782 796/796/796 795/795/795
f 783/783/783 784/784/784 797/797/797
f 783/783/783 797/797/797 796/796/796
f 784/784/784 785/785/785 798/798/798
f 784/784/784 798/798/798 797/797/797
f 785/785/785 786/786/786 799/799/799
f 785/785/785 799/799/799 798/798/798
f 786/786/786 787/787/787 800/800/800
f 786/786/786 800/800/800 799/799/799
f 788/788/788 789/789/789 802/802/802
f 788/788/788 802/802/802 801/801/801
f 789/789/789 790/790/790 803/803/803
f 789/789/789 803/803/803 802/802/802
f 790/790/790 791/791/791 804/804/804
f 790/790/790 804/804/804 803/803/803
f 791/791/791 792/792/792 805/805/805
f 791/791/791 805/805/805 804/804/804
f 792/792/792 793/793/793 806/806/806
f 792/792/792 806/806/806 805/805/805
f 793/793/793 794/794/794 807/807/807
f 793/793/793 807/807/807 806/806/806
f 794/794/794 795/795/795 808/808/808
f 794/794/794 808/808/808 807/807/807
f 795/795/795 796/796/796 809/809/809
f 795/795/795 809/809/809 808/808/808
f 796/796/796 797/797/797 810/810/810
f 796/796/796 810/810/810 809/809/809
f 797/797/797 798/798/798 811/811/811
f 797/797/797 811/811/811 810/810/810
f 798/798/798 799/799/799 812/812/812
f 798/798/798 812/812/812 811/811/811
f 799/799/799 800/800/800 813/813/813
f 799/799/799 813/813/813 812/812/812
f 801/801/801 802/802/802 815/815/815
f 801/801/801 815/815/815 814/814/814
f 802/802/802 803/803/803 816/816/816
f 802/802/802 816/816/816 815/815/815
f 803/803/803 804/804/804 817/817/817
f 803/803/803 817/817/817 816/816/816
f 804/804/804 805/805/805 818/818/818
f 804/804/804 818/818/818 817/817/817
f 805/805/805 806/806/806 819/819/819
f 805/805/805 819/819/819 818/818/818
f 806/806/806 807/807/807 820/820/820
f 806/806/806 820/820/820 819/819/819
f 807/807/807 808/808/808 821/821/821
f 807/807/807 821/821/821 820/820/820
f 808/808/808 809/809/809 822/822/822
f 808/808/808 822/822/822 821/821/821
f 809/809/809 810/810/810 823/823/823
f 809/809/809 823/823/823 822/822/822
f 810/810/810 811/811/811 824/824/824
f 810/810/810 824/824/824 823/823/823
f 811/811/811 812/812/812 825/825/825
f 811/811/811 825/825/825 824/824/824
f 812/812/812 813/813/813 826/826/826
f 812/812/812 826/826/826 825/825/825
