# Sinh tự động bởi tools/mesh_kit.py - đừng sửa tay
o p_torso
v 0.0000 0.0000 -0.1050
v 0.0685 0.0000 -0.0982
v 0.1155 0.0000 -0.0782
v 0.1449 0.0000 -0.0464
v 0.1550 0.0000 -0.0000
v 0.1449 0.0000 0.0464
v 0.1155 0.0000 0.0782
v 0.0685 0.0000 0.0982
v 0.0000 0.0000 0.1050
v -0.0685 0.0000 0.0982
v -0.1155 0.0000 0.0782
v -0.1449 0.0000 0.0464
v -0.1550 0.0000 0.0000
v -0.1449 0.0000 -0.0464
v -0.1155 0.0000 -0.0782
v -0.0685 0.0000 -0.0982
v -0.0000 0.0000 -0.1050
v 0.0000 0.0570 -0.1096
v 0.0695 0.0570 -0.1026
v 0.1172 0.0570 -0.0822
v 0.1471 0.0570 -0.0497
v 0.1573 0.0570 -0.0023
v 0.1471 0.0570 0.0451
v 0.1172 0.0570 0.0776
v 0.0695 0.0570 0.0980
v 0.0000 0.0570 0.1050
v -0.0695 0.0570 0.0980
v -0.1172 0.0570 0.0776
v -0.1471 0.0570 0.0451
v -0.1573 0.0570 -0.0023
v -0.1471 0.0570 -0.0497
v -0.1172 0.0570 -0.0822
v -0.0695 0.0570 -0.1026
v -0.0000 0.0570 -0.1096
v 0.0000 0.1140 -0.1149
v 0.0707 0.1140 -0.1078
v 0.1191 0.1140 -0.0869
v 0.1496 0.1140 -0.0536
v 0.1600 0.1140 -0.0050
v 0.1496 0.1140 0.0436
v 0.1191 0.1140 0.0769
v 0.0707 0.1140 0.0978
v 0.0000 0.1140 0.1050
v -0.0707 0.1140 0.0978
v -0.1191 0.1140 0.0769
v -0.1496 0.1140 0.0436
v -0.1600 0.1140 -0.0050
v -0.1496 0.1140 -0.0536
v -0.1191 0.1140 -0.0869
v -0.0707 0.1140 -0.1078
v -0.0000 0.1140 -0.1149
v 0.0000 0.1710 -0.1186
v 0.0723 0.1710 -0.1113
v 0.1219 0.1710 -0.0899
v 0.1530 0.1710 -0.0559
v 0.1636 0.1710 -0.0062
v 0.1530 0.1710 0.0435
v 0.1219 0.1710 0.0775
v 0.0723 0.1710 0.0989
v 0.0000 0.1710 0.1062
v -0.0723 0.1710 0.0989
v -0.1219 0.1710 0.0775
v -0.1530 0.1710 0.0435
v -0.1636 0.1710 -0.0062
v -0.1530 0.1710 -0.0559
v -0.1219 0.1710 -0.0899
v -0.0723 0.1710 -0.1113
v -0.0000 0.1710 -0.1186
v 0.0000 0.2280 -0.1263
v 0.0757 0.2280 -0.1186
v 0.1276 0.2280 -0.0963
v 0.1601 0.2280 -0.0607
v 0.1713 0.2280 -0.0088
v 0.1601 0.2280 0.0432
v 0.1276 0.2280 0.0788
v 0.0757 0.2280 0.1011
v 0.0000 0.2280 0.1088
v -0.0757 0.2280 0.1011
v -0.1276 0.2280 0.0788
v -0.1601 0.2280 0.0432
v -0.1713 0.2280 -0.0088
v -0.1601 0.2280 -0.0607
v -0.1276 0.2280 -0.0963
v -0.0757 0.2280 -0.1186
v -0.0000 0.2280 -0.1263
v 0.0000 0.2850 -0.1299
v 0.0774 0.2850 -0.1221
v 0.1304 0.2850 -0.0993
v 0.1637 0.2850 -0.0630
v 0.1751 0.2850 -0.0100
v 0.1637 0.2850 0.0431
v 0.1304 0.2850 0.0794
v 0.0774 0.2850 0.1022
v 0.0000 0.2850 0.1100
v -0.0774 0.2850 0.1022
v -0.1304 0.2850 0.0794
v -0.1637 0.2850 0.0431
v -0.1751 0.2850 -0.0100
v -0.1637 0.2850 -0.0630
v -0.1304 0.2850 -0.0993
v -0.0774 0.2850 -0.1221
v -0.0000 0.2850 -0.1299
v 0.0000 0.3420 -0.1196
v 0.0801 0.3420 -0.1122
v 0.1350 0.3420 -0.0906
v 0.1694 0.3420 -0.0561
v 0.1812 0.3420 -0.0059
v 0.1694 0.3420 0.0444
v 0.1350 0.3420 0.0789
v 0.0801 0.3420 0.1005
v 0.0000 0.3420 0.1079
v -0.0801 0.3420 0.1005
v -0.1350 0.3420 0.0789
v -0.1694 0.3420 0.0444
v -0.1812 0.3420 -0.0059
v -0.1694 0.3420 -0.0561
v -0.1350 0.3420 -0.0906
v -0.0801 0.3420 -0.1122
v -0.0000 0.3420 -0.1196
v 0.0000 0.3990 -0.1065
v 0.0836 0.3990 -0.0996
v 0.1408 0.3990 -0.0795
v 0.1768 0.3990 -0.0474
v 0.1891 0.3990 -0.0006
v 0.1768 0.3990 0.0462
v 0.1408 0.3990 0.0783
v 0.0836 0.3990 0.0984
v 0.0000 0.3990 0.1053
v -0.0836 0.3990 0.0984
v -0.1408 0.3990 0.0783
v -0.1768 0.3990 0.0462
v -0.1891 0.3990 -0.0006
v -0.1768 0.3990 -0.0474
v -0.1408 0.3990 -0.0795
v -0.0836 0.3990 -0.0996
v -0.0000 0.3990 -0.1065
v 0.0000 0.4560 -0.0944
v 0.0765 0.4560 -0.0881
v 0.1288 0.4560 -0.0697
v 0.1617 0.4560 -0.0405
v 0.1730 0.4560 0.0021
v 0.1617 0.4560 0.0448
v 0.1288 0.4560 0.0740
v 0.0765 0.4560 0.0923
v 0.0000 0.4560 0.0986
v -0.0765 0.4560 0.0923
v -0.1288 0.4560 0.0740
v -0.1617 0.4560 0.0448
v -0.1730 0.4560 0.0021
v -0.1617 0.4560 -0.0405
v -0.1288 0.4560 -0.0697
v -0.0765 0.4560 -0.0881
v -0.0000 0.4560 -0.0944
v 0.0000 0.5130 -0.0726
v 0.0586 0.5130 -0.0674
v 0.0988 0.5130 -0.0524
v 0.1240 0.5130 -0.0286
v 0.1326 0.5130 0.0062
v 0.1240 0.5130 0.0411
v 0.0988 0.5130 0.0649
v 0.0586 0.5130 0.0799
v 0.0000 0.5130 0.0850
v -0.0586 0.5130 0.0799
v -0.0988 0.5130 0.0649
v -0.1240 0.5130 0.0411
v -0.1326 0.5130 0.0062
v -0.1240 0.5130 -0.0286
v -0.0988 0.5130 -0.0524
v -0.0586 0.5130 -0.0674
v -0.0000 0.5130 -0.0726
v 0.0000 0.5700 -0.0350
v 0.0221 0.5700 -0.0321
v 0.0372 0.5700 -0.0235
v 0.0467 0.5700 -0.0099
v 0.0500 0.5700 0.0100
v 0.0467 0.5700 0.0299
v 0.0372 0.5700 0.0435
v 0.0221 0.5700 0.0521
v 0.0000 0.5700 0.0550
v -0.0221 0.5700 0.0521
v -0.0372 0.5700 0.0435
v -0.0467 0.5700 0.0299
v -0.0500 0.5700 0.0100
v -0.0467 0.5700 -0.0099
v -0.0372 0.5700 -0.0235
v -0.0221 0.5700 -0.0321
v -0.0000 0.5700 -0.0350
v 0.0620 0.5430 0.0100
v 0.0573 0.5415 0.0100
v 0.0544 0.5375 0.0100
v 0.0544 0.5325 0.0100
v 0.0573 0.5285 0.0100
v 0.0620 0.5270 0.0100
v 0.0667 0.5285 0.0100
v 0.0696 0.5325 0.0100
v 0.0696 0.5375 0.0100
v 0.0667 0.5415 0.0100
v 0.0620 0.5430 0.0100
v 0.0583 0.5430 0.0312
v 0.0538 0.5415 0.0296
v 0.0511 0.5375 0.0286
v 0.0511 0.5325 0.0286
v 0.0538 0.5285 0.0296
v 0.0583 0.5270 0.0312
v 0.0627 0.5285 0.0328
v 0.0654 0.5325 0.0338
v 0.0654 0.5375 0.0338
v 0.0627 0.5415 0.0328
v 0.0583 0.5430 0.0312
v 0.0475 0.5430 0.0499
v 0.0439 0.5415 0.0468
v 0.0417 0.5375 0.0450
v 0.0417 0.5325 0.0450
v 0.0439 0.5285 0.0468
v 0.0475 0.5270 0.0499
v 0.0511 0.5285 0.0529
v 0.0533 0.5325 0.0547
v 0.0533 0.5375 0.0547
v 0.0511 0.5415 0.0529
v 0.0475 0.5430 0.0499
v 0.0310 0.5430 0.0637
v 0.0286 0.5415 0.0596
v 0.0272 0.5375 0.0571
v 0.0272 0.5325 0.0571
v 0.0286 0.5285 0.0596
v 0.0310 0.5270 0.0637
v 0.0334 0.5285 0.0678
v 0.0348 0.5325 0.0703
v 0.0348 0.5375 0.0703
v 0.0334 0.5415 0.0678
v 0.0310 0.5430 0.0637
v 0.0108 0.5430 0.0711
v 0.0099 0.5415 0.0664
v 0.0094 0.5375 0.0636
v 0.0094 0.5325 0.0636
v 0.0099 0.5285 0.0664
v 0.0108 0.5270 0.0711
v 0.0116 0.5285 0.0757
v 0.0121 0.5325 0.0786
v 0.0121 0.5375 0.0786
v 0.0116 0.5415 0.0757
v 0.0108 0.5430 0.0711
v -0.0108 0.5430 0.0711
v -0.0099 0.5415 0.0664
v -0.0094 0.5375 0.0636
v -0.0094 0.5325 0.0636
v -0.0099 0.5285 0.0664
v -0.0108 0.5270 0.0711
v -0.0116 0.5285 0.0757
v -0.0121 0.5325 0.0786
v -0.0121 0.5375 0.0786
v -0.0116 0.5415 0.0757
v -0.0108 0.5430 0.0711
v -0.0310 0.5430 0.0637
v -0.0286 0.5415 0.0596
v -0.0272 0.5375 0.0571
v -0.0272 0.5325 0.0571
v -0.0286 0.5285 0.0596
v -0.0310 0.5270 0.0637
v -0.0334 0.5285 0.0678
v -0.0348 0.5325 0.0703
v -0.0348 0.5375 0.0703
v -0.0334 0.5415 0.0678
v -0.0310 0.5430 0.0637
v -0.0475 0.5430 0.0499
v -0.0439 0.5415 0.0468
v -0.0417 0.5375 0.0450
v -0.0417 0.5325 0.0450
v -0.0439 0.5285 0.0468
v -0.0475 0.5270 0.0499
v -0.0511 0.5285 0.0529
v -0.0533 0.5325 0.0547
v -0.0533 0.5375 0.0547
v -0.0511 0.5415 0.0529
v -0.0475 0.5430 0.0499
v -0.0583 0.5430 0.0312
v -0.0538 0.5415 0.0296
v -0.0511 0.5375 0.0286
v -0.0511 0.5325 0.0286
v -0.0538 0.5285 0.0296
v -0.0583 0.5270 0.0312
v -0.0627 0.5285 0.0328
v -0.0654 0.5325 0.0338
v -0.0654 0.5375 0.0338
v -0.0627 0.5415 0.0328
v -0.0583 0.5430 0.0312
v -0.0620 0.5430 0.0100
v -0.0573 0.5415 0.0100
v -0.0544 0.5375 0.0100
v -0.0544 0.5325 0.0100
v -0.0573 0.5285 0.0100
v -0.0620 0.5270 0.0100
v -0.0667 0.5285 0.0100
v -0.0696 0.5325 0.0100
v -0.0696 0.5375 0.0100
v -0.0667 0.5415 0.0100
v -0.0620 0.5430 0.0100
v -0.0583 0.5430 -0.0112
v -0.0538 0.5415 -0.0096
v -0.0511 0.5375 -0.0086
v -0.0511 0.5325 -0.0086
v -0.0538 0.5285 -0.0096
v -0.0583 0.5270 -0.0112
v -0.0627 0.5285 -0.0128
v -0.0654 0.5325 -0.0138
v -0.0654 0.5375 -0.0138
v -0.0627 0.5415 -0.0128
v -0.0583 0.5430 -0.0112
v -0.0475 0.5430 -0.0299
v -0.0439 0.5415 -0.0268
v -0.0417 0.5375 -0.0250
v -0.0417 0.5325 -0.0250
v -0.0439 0.5285 -0.0268
v -0.0475 0.5270 -0.0299
v -0.0511 0.5285 -0.0329
v -0.0533 0.5325 -0.0347
v -0.0533 0.5375 -0.0347
v -0.0511 0.5415 -0.0329
v -0.0475 0.5430 -0.0299
v -0.0310 0.5430 -0.0437
v -0.0286 0.5415 -0.0396
v -0.0272 0.5375 -0.0371
v -0.0272 0.5325 -0.0371
v -0.0286 0.5285 -0.0396
v -0.0310 0.5270 -0.0437
v -0.0334 0.5285 -0.0478
v -0.0348 0.5325 -0.0503
v -0.0348 0.5375 -0.0503
v -0.0334 0.5415 -0.0478
v -0.0310 0.5430 -0.0437
v -0.0108 0.5430 -0.0511
v -0.0099 0.5415 -0.0464
v -0.0094 0.5375 -0.0436
v -0.0094 0.5325 -0.0436
v -0.0099 0.5285 -0.0464
v -0.0108 0.5270 -0.0511
v -0.0116 0.5285 -0.0557
v -0.0121 0.5325 -0.0586
v -0.0121 0.5375 -0.0586
v -0.0116 0.5415 -0.0557
v -0.0108 0.5430 -0.0511
v 0.0108 0.5430 -0.0511
v 0.0099 0.5415 -0.0464
v 0.0094 0.5375 -0.0436
v 0.0094 0.5325 -0.0436
v 0.0099 0.5285 -0.0464
v 0.0108 0.5270 -0.0511
v 0.0116 0.5285 -0.0557
v 0.0121 0.5325 -0.0586
v 0.0121 0.5375 -0.0586
v 0.0116 0.5415 -0.0557
v 0.0108 0.5430 -0.0511
v 0.0310 0.5430 -0.0437
v 0.0286 0.5415 -0.0396
v 0.0272 0.5375 -0.0371
v 0.0272 0.5325 -0.0371
v 0.0286 0.5285 -0.0396
v 0.0310 0.5270 -0.0437
v 0.0334 0.5285 -0.0478
v 0.0348 0.5325 -0.0503
v 0.0348 0.5375 -0.0503
v 0.0334 0.5415 -0.0478
v 0.0310 0.5430 -0.0437
v 0.0475 0.5430 -0.0299
v 0.0439 0.5415 -0.0268
v 0.0417 0.5375 -0.0250
v 0.0417 0.5325 -0.0250
v 0.0439 0.5285 -0.0268
v 0.0475 0.5270 -0.0299
v 0.0511 0.5285 -0.0329
v 0.0533 0.5325 -0.0347
v 0.0533 0.5375 -0.0347
v 0.0511 0.5415 -0.0329
v 0.0475 0.5430 -0.0299
v 0.0583 0.5430 -0.0112
v 0.0538 0.5415 -0.0096
v 0.0511 0.5375 -0.0086
v 0.0511 0.5325 -0.0086
v 0.0538 0.5285 -0.0096
v 0.0583 0.5270 -0.0112
v 0.0627 0.5285 -0.0128
v 0.0654 0.5325 -0.0138
v 0.0654 0.5375 -0.0138
v 0.0627 0.5415 -0.0128
v 0.0583 0.5430 -0.0112
v 0.0620 0.5430 0.0100
v 0.0573 0.5415 0.0100
v 0.0544 0.5375 0.0100
v 0.0544 0.5325 0.0100
v 0.0573 0.5285 0.0100
v 0.0620 0.5270 0.0100
v 0.0667 0.5285 0.0100
v 0.0696 0.5325 0.0100
v 0.0696 0.5375 0.0100
v 0.0667 0.5415 0.0100
v 0.0620 0.5430 0.0100
vt 0.0000 0.0000
vt 0.0778 0.0000
vt 0.1355 0.0000
vt 0.1847 0.0000
vt 0.2390 0.0000
vt 0.2932 0.0000
vt 0.3424 0.0000
vt 0.4002 0.0000
vt 0.4779 0.0000
vt 0.5557 0.0000
vt 0.6134 0.0000
vt 0.6627 0.0000
vt 0.7169 0.0000
vt 0.7711 0.0000
vt 0.8204 0.0000
vt 0.8781 0.0000
vt 0.9558 0.0000
vt 0.0000 0.0570
vt 0.0778 0.0570
vt 0.1355 0.0570
vt 0.1847 0.0570
vt 0.2390 0.0570
vt 0.2932 0.0570
vt 0.3424 0.0570
vt 0.4002 0.0570
vt 0.4779 0.0570
vt 0.5557 0.0570
vt 0.6134 0.0570
vt 0.6627 0.0570
vt 0.7169 0.0570
vt 0.7711 0.0570
vt 0.8204 0.0570
vt 0.8781 0.0570
vt 0.9558 0.0570
vt 0.0000 0.1140
vt 0.0778 0.1140
vt 0.1355 0.1140
vt 0.1847 0.1140
vt 0.2390 0.1140
vt 0.2932 0.1140
vt 0.3424 0.1140
vt 0.4002 0.1140
vt 0.4779 0.1140
vt 0.5557 0.1140
vt 0.6134 0.1140
vt 0.6627 0.1140
vt 0.7169 0.1140
vt 0.7711 0.1140
vt 0.8204 0.1140
vt 0.8781 0.1140
vt 0.9558 0.1140
vt 0.0000 0.1710
vt 0.0778 0.1710
vt 0.1355 0.1710
vt 0.1847 0.1710
vt 0.2390 0.1710
vt 0.2932 0.1710
vt 0.3424 0.1710
vt 0.4002 0.1710
vt 0.4779 0.1710
vt 0.5557 0.1710
vt 0.6134 0.1710
vt 0.6627 0.1710
vt 0.7169 0.1710
vt 0.7711 0.1710
vt 0.8204 0.1710
vt 0.8781 0.1710
vt 0.9558 0.1710
vt 0.0000 0.2281
vt 0.0778 0.2281
vt 0.1355 0.2281
vt 0.1847 0.2281
vt 0.2390 0.2281
vt 0.2932 0.2281
vt 0.3424 0.2281
vt 0.4002 0.2281
vt 0.4779 0.2281
vt 0.5557 0.2281
vt 0.6134 0.2281
vt 0.6627 0.2281
vt 0.7169 0.2281
vt 0.7711 0.2281
vt 0.8204 0.2281
vt 0.8781 0.2281
vt 0.9558 0.2281
vt 0.0000 0.2851
vt 0.0778 0.2851
vt 0.1355 0.2851
vt 0.1847 0.2851
vt 0.2390 0.2851
vt 0.2932 0.2851
vt 0.3424 0.2851
vt 0.4002 0.2851
vt 0.4779 0.2851
vt 0.5557 0.2851
vt 0.6134 0.2851
vt 0.6627 0.2851
vt 0.7169 0.2851
vt 0.7711 0.2851
vt 0.8204 0.2851
vt 0.8781 0.2851
vt 0.9558 0.2851
vt 0.0000 0.3421
vt 0.0778 0.3421
vt 0.1355 0.3421
vt 0.1847 0.3421
vt 0.2390 0.3421
vt 0.2932 0.3421
vt 0.3424 0.3421
vt 0.4002 0.3421
vt 0.4779 0.3421
vt 0.5557 0.3421
vt 0.6134 0.3421
vt 0.6627 0.3421
vt 0.7169 0.3421
vt 0.7711 0.3421
vt 0.8204 0.3421
vt 0.8781 0.3421
vt 0.9558 0.3421
vt 0.0000 0.3992
vt 0.0778 0.3992
vt 0.1355 0.3992
vt 0.1847 0.3992
vt 0.2390 0.3992
vt 0.2932 0.3992
vt 0.3424 0.3992
vt 0.4002 0.3992
vt 0.4779 0.3992
vt 0.5557 0.3992
vt 0.6134 0.3992
vt 0.6627 0.3992
vt 0.7169 0.3992
vt 0.7711 0.3992
vt 0.8204 0.3992
vt 0.8781 0.3992
vt 0.9558 0.3992
vt 0.0000 0.4566
vt 0.0778 0.4566
vt 0.1355 0.4566
vt 0.1847 0.4566
vt 0.2390 0.4566
vt 0.2932 0.4566
vt 0.3424 0.4566
vt 0.4002 0.4566
vt 0.4779 0.4566
vt 0.5557 0.4566
vt 0.6134 0.4566
vt 0.6627 0.4566
vt 0.7169 0.4566
vt 0.7711 0.4566
vt 0.8204 0.4566
vt 0.8781 0.4566
vt 0.9558 0.4566
vt 0.0000 0.5152
vt 0.0778 0.5152
vt 0.1355 0.5152
vt 0.1847 0.5152
vt 0.2390 0.5152
vt 0.2932 0.5152
vt 0.3424 0.5152
vt 0.4002 0.5152
vt 0.4779 0.5152
vt 0.5557 0.5152
vt 0.6134 0.5152
vt 0.6627 0.5152
vt 0.7169 0.5152
vt 0.7711 0.5152
vt 0.8204 0.5152
vt 0.8781 0.5152
vt 0.9558 0.5152
vt 0.0000 0.5796
vt 0.0778 0.5796
vt 0.1355 0.5796
vt 0.1847 0.5796
vt 0.2390 0.5796
vt 0.2932 0.5796
vt 0.3424 0.5796
vt 0.4002 0.5796
vt 0.4779 0.5796
vt 0.5557 0.5796
vt 0.6134 0.5796
vt 0.6627 0.5796
vt 0.7169 0.5796
vt 0.7711 0.5796
vt 0.8204 0.5796
vt 0.8781 0.5796
vt 0.9558 0.5796
vt 0.0000 0.0000
vt 0.0000 0.0050
vt 0.0000 0.0101
vt 0.0000 0.0151
vt 0.0000 0.0201
vt 0.0000 0.0251
vt 0.0000 0.0302
vt 0.0000 0.0352
vt 0.0000 0.0402
vt 0.0000 0.0452
vt 0.0000 0.0503
vt 0.0215 0.0000
vt 0.0215 0.0050
vt 0.0215 0.0101
vt 0.0215 0.0151
vt 0.0215 0.0201
vt 0.0215 0.0251
vt 0.0215 0.0302
vt 0.0215 0.0352
vt 0.0215 0.0402
vt 0.0215 0.0452
vt 0.0215 0.0503
vt 0.0431 0.0000
vt 0.0431 0.0050
vt 0.0431 0.0101
vt 0.0431 0.0151
vt 0.0431 0.0201
vt 0.0431 0.0251
vt 0.0431 0.0302
vt 0.0431 0.0352
vt 0.0431 0.0402
vt 0.0431 0.0452
vt 0.0431 0.0503
vt 0.0646 0.0000
vt 0.0646 0.0050
vt 0.0646 0.0101
vt 0.0646 0.0151
vt 0.0646 0.0201
vt 0.0646 0.0251
vt 0.0646 0.0302
vt 0.0646 0.0352
vt 0.0646 0.0402
vt 0.0646 0.0452
vt 0.0646 0.0503
vt 0.0861 0.0000
vt 0.0861 0.0050
vt 0.0861 0.0101
vt 0.0861 0.0151
vt 0.0861 0.0201
vt 0.0861 0.0251
vt 0.0861 0.0302
vt 0.0861 0.0352
vt 0.0861 0.0402
vt 0.0861 0.0452
vt 0.0861 0.0503
vt 0.1077 0.0000
vt 0.1077 0.0050
vt 0.1077 0.0101
vt 0.1077 0.0151
vt 0.1077 0.0201
vt 0.1077 0.0251
vt 0.1077 0.0302
vt 0.1077 0.0352
vt 0.1077 0.0402
vt 0.1077 0.0452
vt 0.1077 0.0503
vt 0.1292 0.0000
vt 0.1292 0.0050
vt 0.1292 0.0101
vt 0.1292 0.0151
vt 0.1292 0.0201
vt 0.1292 0.0251
vt 0.1292 0.0302
vt 0.1292 0.0352
vt 0.1292 0.0402
vt 0.1292 0.0452
vt 0.1292 0.0503
vt 0.1507 0.0000
vt 0.1507 0.0050
vt 0.1507 0.0101
vt 0.1507 0.0151
vt 0.1507 0.0201
vt 0.1507 0.0251
vt 0.1507 0.0302
vt 0.1507 0.0352
vt 0.1507 0.0402
vt 0.1507 0.0452
vt 0.1507 0.0503
vt 0.1723 0.0000
vt 0.1723 0.0050
vt 0.1723 0.0101
vt 0.1723 0.0151
vt 0.1723 0.0201
vt 0.1723 0.0251
vt 0.1723 0.0302
vt 0.1723 0.0352
vt 0.1723 0.0402
vt 0.1723 0.0452
vt 0.1723 0.0503
vt 0.1938 0.0000
vt 0.1938 0.0050
vt 0.1938 0.0101
vt 0.1938 0.0151
vt 0.1938 0.0201
vt 0.1938 0.0251
vt 0.1938 0.0302
vt 0.1938 0.0352
vt 0.1938 0.0402
vt 0.1938 0.0452
vt 0.1938 0.0503
vt 0.2153 0.0000
vt 0.2153 0.0050
vt 0.2153 0.0101
vt 0.2153 0.0151
vt 0.2153 0.0201
vt 0.2153 0.0251
vt 0.2153 0.0302
vt 0.2153 0.0352
vt 0.2153 0.0402
vt 0.2153 0.0452
vt 0.2153 0.0503
vt 0.2369 0.0000
vt 0.2369 0.0050
vt 0.2369 0.0101
vt 0.2369 0.0151
vt 0.2369 0.0201
vt 0.2369 0.0251
vt 0.2369 0.0302
vt 0.2369 0.0352
vt 0.2369 0.0402
vt 0.2369 0.0452
vt 0.2369 0.0503
vt 0.2584 0.0000
vt 0.2584 0.0050
vt 0.2584 0.0101
vt 0.2584 0.0151
vt 0.2584 0.0201
vt 0.2584 0.0251
vt 0.2584 0.0302
vt 0.2584 0.0352
vt 0.2584 0.0402
vt 0.2584 0.0452
vt 0.2584 0.0503
vt 0.2799 0.0000
vt 0.2799 0.0050
vt 0.2799 0.0101
vt 0.2799 0.0151
vt 0.2799 0.0201
vt 0.2799 0.0251
vt 0.2799 0.0302
vt 0.2799 0.0352
vt 0.2799 0.0402
vt 0.2799 0.0452
vt 0.2799 0.0503
vt 0.3015 0.0000
vt 0.3015 0.0050
vt 0.3015 0.0101
vt 0.3015 0.0151
vt 0.3015 0.0201
vt 0.3015 0.0251
vt 0.3015 0.0302
vt 0.3015 0.0352
vt 0.3015 0.0402
vt 0.3015 0.0452
vt 0.3015 0.0503
vt 0.3230 0.0000
vt 0.3230 0.0050
vt 0.3230 0.0101
vt 0.3230 0.0151
vt 0.3230 0.0201
vt 0.3230 0.0251
vt 0.3230 0.0302
vt 0.3230 0.0352
vt 0.3230 0.0402
vt 0.3230 0.0452
vt 0.3230 0.0503
vt 0.3445 0.0000
vt 0.3445 0.0050
vt 0.3445 0.0101
vt 0.3445 0.0151
vt 0.3445 0.0201
vt 0.3445 0.0251
vt 0.3445 0.0302
vt 0.3445 0.0352
vt 0.3445 0.0402
vt 0.3445 0.0452
vt 0.3445 0.0503
vt 0.3661 0.0000
vt 0.3661 0.0050
vt 0.3661 0.0101
vt 0.3661 0.0151
vt 0.3661 0.0201
vt 0.3661 0.0251
vt 0.3661 0.0302
vt 0.3661 0.0352
vt 0.3661 0.0402
vt 0.3661 0.0452
vt 0.3661 0.0503
vt 0.3876 0.0000
vt 0.3876 0.0050
vt 0.3876 0.0101
vt 0.3876 0.0151
vt 0.3876 0.0201
vt 0.3876 0.0251
vt 0.3876 0.0302
vt 0.3876 0.0352
vt 0.3876 0.0402
vt 0.3876 0.0452
vt 0.3876 0.0503
vn 0.000 0.081 0.997
vn -0.225 0.080 0.971
vn -0.559 0.075 0.826
vn -0.891 0.060 0.450
vn -0.999 0.041 0.000
vn -0.892 0.024 -0.451
vn -0.561 0.008 -0.828
vn -0.226 0.001 -0.974
vn 0.000 0.000 -1.000
vn 0.226 0.001 -0.974
vn 0.561 0.008 -0.828
vn 0.892 0.024 -0.451
vn 0.999 0.041 -0.000
vn 0.891 0.060 0.450
vn 0.559 0.075 0.826
vn 0.225 0.080 0.971
vn 0.000 0.081 0.997
vn 0.000 0.087 0.996
vn -0.227 0.086 0.970
vn -0.562 0.081 0.823
vn -0.892 0.064 0.448
vn -0.999 0.044 0.000
vn -0.893 0.025 -0.449
vn -0.564 0.009 -0.826
vn -0.228 0.002 -0.974
vn 0.000 0.000 -1.000
vn 0.228 0.002 -0.974
vn 0.564 0.009 -0.826
vn 0.893 0.025 -0.449
vn 0.999 0.044 -0.000
vn 0.892 0.064 0.448
vn 0.562 0.081 0.823
vn 0.227 0.086 0.970
vn 0.000 0.087 0.996
vn 0.000 0.078 0.997
vn -0.229 0.079 0.970
vn -0.565 0.079 0.822
vn -0.893 0.070 0.445
vn -0.998 0.055 0.000
vn -0.894 0.040 -0.446
vn -0.566 0.023 -0.824
vn -0.229 0.013 -0.973
vn 0.000 0.011 -1.000
vn 0.229 0.013 -0.973
vn 0.566 0.023 -0.824
vn 0.894 0.040 -0.446
vn 0.998 0.055 0.000
vn 0.893 0.070 0.445
vn 0.565 0.079 0.822
vn 0.229 0.079 0.970
vn 0.000 0.078 0.997
vn 0.000 0.099 0.995
vn -0.228 0.102 0.968
vn -0.563 0.109 0.819
vn -0.889 0.110 0.444
vn -0.995 0.099 0.000
vn -0.892 0.081 -0.445
vn -0.565 0.055 -0.823
vn -0.229 0.038 -0.973
vn 0.000 0.033 -0.999
vn 0.229 0.038 -0.973
vn 0.565 0.055 -0.823
vn 0.892 0.081 -0.445
vn 0.995 0.099 -0.000
vn 0.889 0.110 0.444
vn 0.563 0.109 0.819
vn 0.228 0.102 0.968
vn 0.000 0.099 0.995
vn 0.000 0.099 0.995
vn -0.228 0.102 0.968
vn -0.562 0.110 0.820
vn -0.889 0.111 0.444
vn -0.995 0.100 0.000
vn -0.892 0.082 -0.445
vn -0.565 0.056 -0.823
vn -0.229 0.038 -0.973
vn 0.000 0.033 -0.999
vn 0.229 0.038 -0.973
vn 0.565 0.056 -0.823
vn 0.892 0.082 -0.445
vn 0.995 0.100 0.000
vn 0.889 0.111 0.444
vn 0.562 0.110 0.820
vn 0.228 0.102 0.968
vn 0.000 0.099 0.995
vn 0.000 -0.058 0.998
vn -0.228 -0.046 0.973
vn -0.565 -0.004 0.825
vn -0.893 0.055 0.447
vn -0.996 0.087 0.000
vn -0.892 0.078 -0.446
vn -0.565 0.038 -0.824
vn -0.229 0.004 -0.974
vn -0.000 -0.007 -1.000
vn 0.229 0.004 -0.974
vn 0.565 0.038 -0.824
vn 0.892 0.078 -0.446
vn 0.996 0.087 -0.000
vn 0.893 0.055 0.447
vn 0.565 -0.004 0.825
vn 0.228 -0.046 0.973
vn 0.000 -0.058 0.998
vn 0.000 -0.201 0.980
vn -0.207 -0.178 0.962
vn -0.529 -0.098 0.843
vn -0.877 0.036 0.479
vn -0.993 0.122 0.000
vn -0.872 0.114 -0.476
vn -0.531 0.041 -0.846
vn -0.210 -0.021 -0.977
vn -0.000 -0.041 -0.999
vn 0.210 -0.021 -0.977
vn 0.531 0.041 -0.846
vn 0.872 0.114 -0.476
vn 0.993 0.122 -0.000
vn 0.877 0.036 0.479
vn 0.529 -0.098 0.843
vn 0.207 -0.178 0.962
vn 0.000 -0.201 0.980
vn 0.000 -0.216 0.976
vn -0.184 -0.209 0.960
vn -0.480 -0.183 0.858
vn -0.846 -0.128 0.517
vn -0.997 -0.072 0.000
vn -0.852 -0.056 -0.521
vn -0.488 -0.064 -0.871
vn -0.188 -0.076 -0.979
vn -0.000 -0.081 -0.997
vn 0.188 -0.076 -0.979
vn 0.488 -0.064 -0.871
vn 0.852 -0.056 -0.521
vn 0.997 -0.072 -0.000
vn 0.846 -0.128 0.517
vn 0.480 -0.183 0.858
vn 0.184 -0.209 0.960
vn 0.000 -0.216 0.976
vn 0.000 -0.286 0.958
vn -0.179 -0.304 0.936
vn -0.454 -0.361 0.814
vn -0.768 -0.433 0.472
vn -0.896 -0.444 0.000
vn -0.786 -0.386 -0.483
vn -0.469 -0.271 -0.841
vn -0.184 -0.197 -0.963
vn -0.000 -0.175 -0.985
vn 0.184 -0.197 -0.963
vn 0.469 -0.271 -0.841
vn 0.786 -0.386 -0.483
vn 0.896 -0.444 -0.000
vn 0.768 -0.433 0.472
vn 0.454 -0.361 0.814
vn 0.179 -0.304 0.936
vn 0.000 -0.286 0.958
vn 0.000 -0.462 0.887
vn -0.173 -0.500 0.849
vn -0.407 -0.605 0.685
vn -0.610 -0.710 0.352
vn -0.680 -0.733 0.000
vn -0.632 -0.685 -0.364
vn -0.430 -0.539 -0.724
vn -0.182 -0.404 -0.897
vn -0.000 -0.357 -0.934
vn 0.182 -0.404 -0.897
vn 0.430 -0.539 -0.724
vn 0.632 -0.685 -0.364
vn 0.680 -0.733 -0.000
vn 0.610 -0.710 0.352
vn 0.407 -0.605 0.685
vn 0.173 -0.500 0.849
vn 0.000 -0.462 0.887
vn 0.000 -0.550 0.835
vn -0.232 -0.616 0.753
vn -0.450 -0.740 0.500
vn -0.548 -0.810 0.208
vn -0.568 -0.823 0.000
vn -0.560 -0.801 -0.213
vn -0.473 -0.708 -0.525
vn -0.246 -0.548 -0.799
vn -0.000 -0.466 -0.885
vn 0.246 -0.548 -0.799
vn 0.473 -0.708 -0.525
vn 0.560 -0.801 -0.213
vn 0.568 -0.823 -0.000
vn 0.548 -0.810 0.208
vn 0.450 -0.740 0.500
vn 0.232 -0.616 0.753
vn 0.000 -0.550 0.835
vn 0.000 1.000 0.000
vn -0.588 0.809 0.000
vn -0.951 0.309 0.000
vn -0.951 -0.309 0.000
vn -0.588 -0.809 0.000
vn -0.000 -1.000 0.000
vn 0.588 -0.809 0.000
vn 0.951 -0.309 0.000
vn 0.951 0.309 -0.000
vn 0.588 0.809 -0.000
vn 0.000 1.000 -0.000
vn 0.000 1.000 -0.000
vn -0.552 0.809 -0.201
vn -0.894 0.309 -0.325
vn -0.894 -0.309 -0.325
vn -0.552 -0.809 -0.201
vn -0.000 -1.000 -0.000
vn 0.552 -0.809 0.201
vn 0.894 -0.309 0.325
vn 0.894 0.309 0.325
vn 0.552 0.809 0.201
vn 0.000 1.000 0.000
vn 0.000 1.000 -0.000
vn -0.450 0.809 -0.378
vn -0.729 0.309 -0.611
vn -0.729 -0.309 -0.611
vn -0.450 -0.809 -0.378
vn -0.000 -1.000 -0.000
vn 0.450 -0.809 0.378
vn 0.729 -0.309 0.611
vn 0.729 0.309 0.611
vn 0.450 0.809 0.378
vn 0.000 1.000 0.000
vn 0.000 1.000 -0.000
vn -0.294 0.809 -0.509
vn -0.476 0.309 -0.824
vn -0.476 -0.309 -0.824
vn -0.294 -0.809 -0.509
vn -0.000 -1.000 -0.000
vn 0.294 -0.809 0.509
vn 0.476 -0.309 0.824
vn 0.476 0.309 0.824
vn 0.294 0.809 0.509
vn 0.000 1.000 0.000
vn 0.000 1.000 -0.000
vn -0.102 0.809 -0.579
vn -0.165 0.309 -0.937
vn -0.165 -0.309 -0.937
vn -0.102 -0.809 -0.579
vn -0.000 -1.000 -0.000
vn 0.102 -0.809 0.579
vn 0.165 -0.309 0.937
vn 0.165 0.309 0.937
vn 0.102 0.809 0.579
vn 0.000 1.000 0.000
vn 0.000 1.000 0.000
vn 0.102 0.809 -0.579
vn 0.165 0.309 -0.937
vn 0.165 -0.309 -0.937
vn 0.102 -0.809 -0.579
vn 0.000 -1.000 -0.000
vn -0.102 -0.809 0.579
vn -0.165 -0.309 0.937
vn -0.165 0.309 0.937
vn -0.102 0.809 0.579
vn -0.000 1.000 0.000
vn 0.000 1.000 0.000
vn 0.294 0.809 -0.509
vn 0.476 0.309 -0.824
vn 0.476 -0.309 -0.824
vn 0.294 -0.809 -0.509
vn 0.000 -1.000 -0.000
vn -0.294 -0.809 0.509
vn -0.476 -0.309 0.824
vn -0.476 0.309 0.824
vn -0.294 0.809 0.509
vn -0.000 1.000 0.000
vn 0.000 1.000 0.000
vn 0.450 0.809 -0.378
vn 0.729 0.309 -0.611
vn 0.729 -0.309 -0.611
vn 0.450 -0.809 -0.378
vn 0.000 -1.000 -0.000
vn -0.450 -0.809 0.378
vn -0.729 -0.309 0.611
vn -0.729 0.309 0.611
vn -0.450 0.809 0.378
vn -0.000 1.000 0.000
vn 0.000 1.000 0.000
vn 0.552 0.809 -0.201
vn 0.894 0.309 -0.325
vn 0.894 -0.309 -0.325
vn 0.552 -0.809 -0.201
vn 0.000 -1.000 -0.000
vn -0.552 -0.809 0.201
vn -0.894 -0.309 0.325
vn -0.894 0.309 0.325
vn -0.552 0.809 0.201
vn -0.000 1.000 0.000
vn 0.000 1.000 0.000
vn 0.588 0.809 -0.000
vn 0.951 0.309 -0.000
vn 0.951 -0.309 -0.000
vn 0.588 -0.809 -0.000
vn 0.000 -1.000 -0.000
vn -0.588 -0.809 0.000
vn -0.951 -0.309 0.000
vn -0.951 0.309 0.000
vn -0.588 0.809 0.000
vn -0.000 1.000 0.000
vn 0.000 1.000 0.000
vn 0.552 0.809 0.201
vn 0.894 0.309 0.325
vn 0.894 -0.309 0.325
vn 0.552 -0.809 0.201
vn 0.000 -1.000 0.000
vn -0.552 -0.809 -0.201
vn -0.894 -0.309 -0.325
vn -0.894 0.309 -0.325
vn -0.552 0.809 -0.201
vn -0.000 1.000 -0.000
vn 0.000 1.000 0.000
vn 0.450 0.809 0.378
vn 0.729 0.309 0.611
vn 0.729 -0.309 0.611
vn 0.450 -0.809 0.378
vn 0.000 -1.000 0.000
vn -0.450 -0.809 -0.378
vn -0.729 -0.309 -0.611
vn -0.729 0.309 -0.611
vn -0.450 0.809 -0.378
vn -0.000 1.000 -0.000
vn 0.000 1.000 0.000
vn 0.294 0.809 0.509
vn 0.476 0.309 0.824
vn 0.476 -0.309 0.824
vn 0.294 -0.809 0.509
vn 0.000 -1.000 0.000
vn -0.294 -0.809 -0.509
vn -0.476 -0.309 -0.824
vn -0.476 0.309 -0.824
vn -0.294 0.809 -0.509
vn -0.000 1.000 -0.000
vn 0.000 1.000 0.000
vn 0.102 0.809 0.579
vn 0.165 0.309 0.937
vn 0.165 -0.309 0.937
vn 0.102 -0.809 0.579
vn 0.000 -1.000 0.000
vn -0.102 -0.809 -0.579
vn -0.165 -0.309 -0.937
vn -0.165 0.309 -0.937
vn -0.102 0.809 -0.579
vn -0.000 1.000 -0.000
vn 0.000 1.000 0.000
vn -0.102 0.809 0.579
vn -0.165 0.309 0.937
vn -0.165 -0.309 0.937
vn -0.102 -0.809 0.579
vn -0.000 -1.000 0.000
vn 0.102 -0.809 -0.579
vn 0.165 -0.309 -0.937
vn 0.165 0.309 -0.937
vn 0.102 0.809 -0.579
vn 0.000 1.000 -0.000
vn 0.000 1.000 0.000
vn -0.294 0.809 0.509
vn -0.476 0.309 0.824
vn -0.476 -0.309 0.824
vn -0.294 -0.809 0.509
vn -0.000 -1.000 0.000
vn 0.294 -0.809 -0.509
vn 0.476 -0.309 -0.824
vn 0.476 0.309 -0.824
vn 0.294 0.809 -0.509
vn 0.000 1.000 -0.000
vn 0.000 1.000 0.000
vn -0.450 0.809 0.378
vn -0.729 0.309 0.611
vn -0.729 -0.309 0.611
vn -0.450 -0.809 0.378
vn -0.000 -1.000 0.000
vn 0.450 -0.809 -0.378
vn 0.729 -0.309 -0.611
vn 0.729 0.309 -0.611
vn 0.450 0.809 -0.378
vn 0.000 1.000 -0.000
vn 0.000 1.000 0.000
vn -0.552 0.809 0.201
vn -0.894 0.309 0.325
vn -0.894 -0.309 0.325
vn -0.552 -0.809 0.201
vn -0.000 -1.000 0.000
vn 0.552 -0.809 -0.201
vn 0.894 -0.309 -0.325
vn 0.894 0.309 -0.325
vn 0.552 0.809 -0.201
vn 0.000 1.000 -0.000
vn 0.000 1.000 0.000
vn -0.588 0.809 0.000
vn -0.951 0.309 0.000
vn -0.951 -0.309 0.000
vn -0.588 -0.809 0.000
vn -0.000 -1.000 0.000
vn 0.588 -0.809 0.000
vn 0.951 -0.309 0.000
vn 0.951 0.309 -0.000
vn 0.588 0.809 -0.000
vn 0.000 1.000 -0.000
usemtl shirt
f 1/1/1 2/2/2 19/19/19
f 1/1/1 19/19/19 18/18/18
f 2/2/2 3/3/3 20/20/20
f 2/2/2 20/20/20 19/19/19
f 3/3/3 4/4/4 21/21/21
f 3/3/3 21/21/21 20/20/20
f 4/4/4 5/5/5 22/22/22
f 4/4/4 22/22/22 21/21/21
f 5/5/5 6/6/6 23/23/23
f 5/5/5 23/23/23 22/22/22
f 6/6/6 7/7/7 24/24/24
f 6/6/6 24/24/24 23/23/23
f 7/7/7 8/8/8 25/25/25
f 7/7/7 25/25/25 24/24/24
f 8/8/8 9/9/9 26/26/26
f 8/8/8 26/26/26 25/25/25
f 9/9/9 10/10/10 27/27/27
f 9/9/9 27/27/27 26/26/26
f 10/10/10 11/11/11 28/28/28
f 10/10/10 28/28/28 27/27/27
f 11/11/11 12/12/12 29/29/29
f 11/11/11 29/29/29 28/28/28
f 12/12/12 13/13/13 30/30/30
f 12/12/12 30/30/30 29/29/29
f 13/13/13 14/14/14 31/31/31
f 13/13/13 31/31/31 30/30/30
f 14/14/14 15/15/15 32/32/32
f 14/14/14 32/32/32 31/31/31
f 15/15/15 16/16/16 33/33/33
f 15/15/15 33/33/33 32/32/32
f 16/16/16 17/17/17 34/34/34
f 16/16/16 34/34/34 33/33/33
f 18/18/18 19/19/19 36/36/36
f 18/18/18 36/36/36 35/35/35
f 19/19/19 20/20/20 37/37/37
f 19/19/19 37/37/37 36/36/36
f 20/20/20 21/21/21 38/38/38
f 20/20/20 38/38/38 37/37/37
f 21/21/21 22/22/22 39/39/39
f 21/21/21 39/39/39 38/38/38
f 22/22/22 23/23/23 40/40/40
f 22/22/22 40/40/40 39/39/39
f 23/23/23 24/24/24 41/41/41
f 23/23/23 41/41/41 40/40/40
f 24/24/24 25/25/25 42/42/42
f 24/24/24 42/42/42 41/41/41
f 25/25/25 26/26/26 43/43/43
f 25/25/25 43/43/43 42/42/42
f 26/26/26 27/27/27 44/44/44
f 26/26/26 44/44/44 43/43/43
f 27/27/27 28/28/28 45/45/45
f 27/27/27 45/45/45 44/44/44
f 28/28/28 29/29/29 46/46/46
f 28/28/28 46/46/46 45/45/45
f 29/29/29 30/30/30 47/47/47
f 29/29/29 47/47/47 46/46/46
f 30/30/30 31/31/31 48/48/48
f 30/30/30 48/48/48 47/47/47
f 31/31/31 32/32/32 49/49/49
f 31/31/31 49/49/49 48/48/48
f 32/32/32 33/33/33 50/50/50
f 32/32/32 50/50/50 49/49/49
f 33/33/33 34/34/34 51/51/51
f 33/33/33 51/51/51 50/50/50
f 35/35/35 36/36/36 53/53/53
f 35/35/35 53/53/53 52/52/52
f 36/36/36 37/37/37 54/54/54
f 36/36/36 54/54/54 53/53/53
f 37/37/37 38/38/38 55/55/55
f 37/37/37 55/55/55 54/54/54
f 38/38/38 39/39/39 56/56/56
f 38/38/38 56/56/56 55/55/55
f 39/39/39 40/40/40 57/57/57
f 39/39/39 57/57/57 56/56/56
f 40/40/40 41/41/41 58/58/58
f 40/40/40 58/58/58 57/57/57
f 41/41/41 42/42/42 59/59/59
f 41/41/41 59/59/59 58/58/58
f 42/42/42 43/43/43 60/60/60
f 42/42/42 60/60/60 59/59/59
f 43/43/43 44/44/44 61/61/61
f 43/43/43 61/61/61 60/60/60
f 44/44/44 45/45/45 62/62/62
f 44/44/44 62/62/62 61/61/61
f 45/45/45 46/46/46 63/63/63
f 45/45/45 63/63/63 62/62/62
f 46/46/46 47/47/47 64/64/64
f 46/46/46 64/64/64 63/63/63
f 47/47/47 48/48/48 65/65/65
f 47/47/47 65/65/65 64/64/64
f 48/48/48 49/49/49 66/66/66
f 48/48/48 66/66/66 65/65/65
f 49/49/49 50/50/50 67/67/67
f 49/49/49 67/67/67 66/66/66
f 50/50/50 51/51/51 68/68/68
f 50/50/50 68/68/68 67/67/67
f 52/52/52 53/53/53 70/70/70
f 52/52/52 70/70/70 69/69/69
f 53/53/53 54/54/54 71/71/71
f 53/53/53 71/71/71 70/70/70
f 54/54/54 55/55/55 72/72/72
f 54/54/54 72/72/72 71/71/71
f 55/55/55 56/56/56 73/73/73
f 55/55/55 73/73/73 72/72/72
f 56/56/56 57/57/57 74/74/74
f 56/56/56 74/74/74 73/73/73
f 57/57/57 58/58/58 75/75/75
f 57/57/57 75/75/75 74/74/74
f 58/58/58 59/59/59 76/76/76
f 58/58/58 76/76/76 75/75/75
f 59/59/59 60/60/60 77/77/77
f 59/59/59 77/77/77 76/76/76
f 60/60/60 61/61/61 78/78/78
f 60/60/60 78/78/78 77/77/77
f 61/61/61 62/62/62 79/79/79
f 61/61/61 79/79/79 78/78/78
f 62/62/62 63/63/63 80/80/80
f 62/62/62 80/80/80 79/79/79
f 63/63/63 64/64/64 81/81/81
f 63/63/63 81/81/81 80/80/80
f 64/64/64 65/65/65 82/82/82
f 64/64/64 82/82/82 81/81/81
f 65/65/65 66/66/66 83/83/83
f 65/65/65 83/83/83 82/82/82
f 66/66/66 67/67/67 84/84/84
f 66/66/66 84/84/84 83/83/83
f 67/67/67 68/68/68 85/85/85
f 67/67/67 85/85/85 84/84/84
f 69/69/69 70/70/70 87/87/87
f 69/69/69 87/87/87 86/86/86
f 70/70/70 71/71/71 88/88/88
f 70/70/70 88/88/88 87/87/87
f 71/71/71 72/72/72 89/89/89
f 71/71/71 89/89/89 88/88/88
f 72/72/72 73/73/73 90/90/90
f 72/72/72 90/90/90 89/89/89
f 73/73/73 74/74/74 91/91/91
f 73/73/73 91/91/91 90/90/90
f 74/74/74 75/75/75 92/92/92
f 74/74/74 92/92/92 91/91/91
f 75/75/75 76/76/76 93/93/93
f 75/75/75 93/93/93 92/92/92
f 76/76/76 77/77/77 94/94/94
f 76/76/76 94/94/94 93/93/93
f 77/77/77 78/78/78 95/95/95
f 77/77/77 95/95/95 94/94/94
f 78/78/78 79/79/79 96/96/96
f 78/78/78 96/96/96 95/95/95
f 79/79/79 80/80/80 97/97/97
f 79/79/79 97/97/97 96/96/96
f 80/80/80 81/81/81 98/98/98
f 80/80/80 98/98/98 97/97/97
f 81/81/81 82/82/82 99/99/99
f 81/81/81 99/99/99 98/98/98
f 82/82/82 83/83/83 100/100/100
f 82/82/82 100/100/100 99/99/99
f 83/83/83 84/84/84 101/101/101
f 83/83/83 101/101/101 100/100/100
f 84/84/84 85/85/85 102/102/102
f 84/84/84 102/102/102 101/101/101
f 86/86/86 87/87/87 104/104/104
f 86/86/86 104/104/104 103/103/103
f 87/87/87 88/88/88 105/105/105
f 87/87/87 105/105/105 104/104/104
f 88/88/88 89/89/89 106/106/106
f 88/88/88 106/106/106 105/105/105
f 89/89/89 90/90/90 107/107/107
f 89/89/89 107/107/107 106/106/106
f 90/90/90 91/91/91 108/108/108
f 90/90/90 108/108/108 107/107/107
f 91/91/91 92/92/92 109/109/109
f 91/91/91 109/109/109 108/108/108
f 92/92/92 93/93/93 110/110/110
f 92/92/92 110/110/110 109/109/109
f 93/93/93 94/94/94 111/111/111
f 93/93/93 111/111/111 110/110/110
f 94/94/94 95/95/95 112/112/112
f 94/94/94 112/112/112 111/111/111
f 95/95/95 96/96/96 113/113/113
f 95/95/95 113/113/113 112/112/112
f 96/96/96 97/97/97 114/114/114
f 96/96/96 114/114/114 113/113/113
f 97/97/97 98/98/98 115/115/115
f 97/97/97 115/115/115 114/114/114
f 98/98/98 99/99/99 116/116/116
f 98/98/98 116/116/116 115/115/115
f 99/99/99 100/100/100 117/117/117
f 99/99/99 117/117/117 116/116/116
f 100/100/100 101/101/101 118/118/118
f 100/100/100 118/118/118 117/117/117
f 101/101/101 102/102/102 119/119/119
f 101/101/101 119/119/119 118/118/118
f 103/103/103 104/104/104 121/121/121
f 103/103/103 121/121/121 120/120/120
f 104/104/104 105/105/105 122/122/122
f 104/104/104 122/122/122 121/121/121
f 105/105/105 106/106/106 123/123/123
f 105/105/105 123/123/123 122/122/122
f 106/106/106 107/107/107 124/124/124
f 106/106/106 124/124/124 123/123/123
f 107/107/107 108/108/108 125/125/125
f 107/107/107 125/125/125 124/124/124
f 108/108/108 109/109/109 126/126/126
f 108/108/108 126/126/126 125/125/125
f 109/109/109 110/110/110 127/127/127
f 109/109/109 127/127/127 126/126/126
f 110/110/110 111/111/111 128/128/128
f 110/110/110 128/128/128 127/127/127
f 111/111/111 112/112/112 129/129/129
f 111/111/111 129/129/129 128/128/128
f 112/112/112 113/113/113 130/130/130
f 112/112/112 130/130/130 129/129/129
f 113/113/113 114/114/114 131/131/131
f 113/113/113 131/131/131 130/130/130
f 114/114/114 115/115/115 132/132/132
f 114/114/114 132/132/132 131/131/131
f 115/115/115 116/116/116 133/133/133
f 115/115/115 133/133/133 132/132/132
f 116/116/116 117/117/117 134/134/134
f 116/116/116 134/134/134 133/133/133
f 117/117/117 118/118/118 135/135/135
f 117/117/117 135/135/135 134/134/134
f 118/118/118 119/119/119 136/136/136
f 118/118/118 136/136/136 135/135/135
f 120/120/120 121/121/121 138/138/138
f 120/120/120 138/138/138 137/137/137
f 121/121/121 122/122/122 139/139/139
f 121/121/121 139/139/139 138/138/138
f 122/122/122 123/123/123 140/140/140
f 122/122/122 140/140/140 139/139/139
f 123/123/123 124/124/124 141/141/141
f 123/123/123 141/141/141 140/140/140
f 124/124/124 125/125/125 142/142/142
f 124/124/124 142/142/142 141/141/141
f 125/125/125 126/126/126 143/143/143
f 125/125/125 143/143/143 142/142/142
f 126/126/126 127/127/127 144/144/144
f 126/126/126 144/144/144 143/143/143
f 127/127/127 128/128/128 145/145/145
f 127/127/127 145/145/145 144/144/144
f 128/128/128 129/129/129 146/146/146
f 128/128/128 146/146/146 145/145/145
f 129/129/129 130/130/130 147/147/147
f 129/129/129 147/147/147 146/146/146
f 130/130/130 131/131/131 148/148/148
f 130/130/130 148/148/148 147/147/147
f 131/131/131 132/132/132 149/149/149
f 131/131/131 149/149/149 148/148/148
f 132/132/132 133/133/133 150/150/150
f 132/132/132 150/150/150 149/149/149
f 133/133/133 134/134/134 151/151/151
f 133/133/133 151/151/151 150/150/150
f 134/134/134 135/135/135 152/152/152
f 134/134/134 152/152/152 151/151/151
f 135/135/135 136/136/136 153/153/153
f 135/135/135 153/153/153 152/152/152
f 137/137/137 138/138/138 155/155/155
f 137/137/137 155/155/155 154/154/154
f 138/138/138 139/139/139 156/156/156
f 138/138/138 156/156/156 155/155/155
f 139/139/139 140/140/140 157/157/157
f 139/139/139 157/157/157 156/156/156
f 140/140/140 141/141/141 158/158/158
f 140/140/140 158/158/158 157/157/157
f 141/141/141 142/142/142 159/159/159
f 141/141/141 159/159/159 158/158/158
f 142/142/142 143/143/143 160/160/160
f 142/142/142 160/160/160 159/159/159
f 143/143/143 144/144/144 161/161/161
f 143/143/143 161/161/161 160/160/160
f 144/144/144 145/145/145 162/162/162
f 144/144/144 162/162/162 161/161/161
f 145/145/145 146/146/146 163/163/163
f 145/145/145 163/163/163 162/162/162
f 146/146/146 147/147/147 164/164/164
f 146/146/146 164/164/164 163/163/163
f 147/147/147 148/148/148 165/165/165
f 147/147/147 165/165/165 164/164/164
f 148/148/148 149/149/149 166/166/166
f 148/148/148 166/166/166 165/165/165
f 149/149/149 150/150/150 167/167/167
f 149/149/149 167/167/167 166/166/166
f 150/150/150 151/151/151 168/168/168
f 150/150/150 168/168/168 167/167/167
f 151/151/151 152/152/152 169/169/169
f 151/151/151 169/169/169 168/168/168
f 152/152/152 153/153/153 170/170/170
f 152/152/152 170/170/170 169/169/169
f 154/154/154 155/155/155 172/172/172
f 154/154/154 172/172/172 171/171/171
f 155/155/155 156/156/156 173/173/173
f 155/155/155 173/173/173 172/172/172
f 156/156/156 157/157/157 174/174/174
f 156/156/156 174/174/174 173/173/173
f 157/157/157 158/158/158 175/175/175
f 157/157/157 175/175/175 174/174/174
f 158/158/158 159/159/159 176/176/176
f 158/158/158 176/176/176 175/175/175
f 159/159/159 160/160/160 177/177/177
f 159/159/159 177/177/177 176/176/176
f 160/160/160 161/161/161 178/178/178
f 160/160/160 178/178/178 177/177/177
f 161/161/161 162/162/162 179/179/179
f 161/161/161 179/179/179 178/178/178
f 162/162/162 163/163/163 180/180/180
f 162/162/162 180/180/180 179/179/179
f 163/163/163 164/164/164 181/181/181
f 163/163/163 181/181/181 180/180/180
f 164/164/164 165/165/165 182/182/182
f 164/164/164 182/182/182 181/181/181
f 165/165/165 166/166/166 183/183/183
f 165/165/165 183/183/183 182/182/182
f 166/166/166 167/167/167 184/184/184
f 166/166/166 184/184/184 183/183/183
f 167/167/167 168/168/168 185/185/185
f 167/167/167 185/185/185 184/184/184
f 168/168/168 169/169/169 186/186/186
f 168/168/168 186/186/186 185/185/185
f 169/169/169 170/170/170 187/187/187
f 169/169/169 187/187/187 186/186/186
f 188/188/188 189/189/189 200/200/200
f 188/188/188 200/200/200 199/199/199
f 189/189/189 190/190/190 201/201/201
f 189/189/189 201/201/201 200/200/200
f 190/190/190 191/191/191 202/202/202
f 190/190/190 202/202/202 201/201/201
f 191/191/191 192/192/192 203/203/203
f 191/191/191 203/203/203 202/202/202
f 192/192/192 193/193/193 204/204/204
f 192/192/192 204/204/204 203/203/203
f 193/193/193 194/194/194 205/205/205
f 193/193/193 205/205/205 204/204/204
f 194/194/194 195/195/195 206/206/206
f 194/194/194 206/206/206 205/205/205
f 195/195/195 196/196/196 207/207/207
f 195/195/195 207/207/207 206/206/206
f 196/196/196 197/197/197 208/208/208
f 196/196/196 208/208/208 207/207/207
f 197/197/197 198/198/198 209/209/209
f 197/197/197 209/209/209 208/208/208
f 199/199/199 200/200/200 211/211/211
f 199/199/199 211/211/211 210/210/210
f 200/200/200 201/201/201 212/212/212
f 200/200/200 212/212/212 211/211/211
f 201/201/201 202/202/202 213/213/213
f 201/201/201 213/213/213 212/212/212
f 202/202/202 203/203/203 214/214/214
f 202/202/202 214/214/214 213/213/213
f 203/203/203 204/204/204 215/215/215
f 203/203/203 215/215/215 214/214/214
f 204/204/204 205/205/205 216/216/216
f 204/204/204 216/216/216 215/215/215
f 205/205/205 206/206/206 217/217/217
f 205/205/205 217/217/217 216/216/216
f 206/206/206 207/207/207 218/218/218
f 206/206/206 218/218/218 217/217/217
f 207/207/207 208/208/208 219/219/219
f 207/207/207 219/219/219 218/218/218
f 208/208/208 209/209/209 220/220/220
f 208/208/208 220/220/220 219/219/219
f 210/210/210 211/211/211 222/222/222
f 210/210/210 222/222/222 221/221/221
f 211/211/211 212/212/212 223/223/223
f 211/211/211 223/223/223 222/222/222
f 212/212/212 213/213/213 224/224/224
f 212/212/212 224/224/224 223/223/223
f 213/213/213 214/214/214 225/225/225
f 213/213/213 225/225/225 224/224/224
f 214/214/214 215/215/215 226/226/226
f 214/214/214 226/226/226 225/225/225
f 215/215/215 216/216/216 227/227/227
f 215/215/215 227/227/227 226/226/226
f 216/216/216 217/217/217 228/228/228
f 216/216/216 228/228/228 227/227/227
f 217/217/217 218/218/218 229/229/229
f 217/217/217 229/229/229 228/228/228
f 218/218/218 219/219/219 230/230/230
f 218/218/218 230/230/230 229/229/229
f 219/219/219 220/220/220 231/231/231
f 219/219/219 231/231/231 230/230/230
f 221/221/221 222/222/222 233/233/233
f 221/221/221 233/233/233 232/232/232
f 222/222/222 223/223/223 234/234/234
f 222/222/222 234/234/234 233/233/233
f 223/223/223 224/224/224 235/235/235
f 223/223/223 235/235/235 234/234/234
f 224/224/224 225/225/225 236/236/236
f 224/224/224 236/236/236 235/235/235
f 225/225/225 226/226/226 237/237/237
f 225/225/225 237/237/237 236/236/236
f 226/226/226 227/227/227 238/238/238
f 226/226/226 238/238/238 237/237/237
f 227/227/227 228/228/228 239/239/239
f 227/227/227 239/239/239 238/238/238
f 228/228/228 229/229/229 240/240/240
f 228/228/228 240/240/240 239/239/239
f 229/229/229 230/230/230 241/241/241
f 229/229/229 241/241/241 240/240/240
f 230/230/230 231/231/231 242/242/242
f 230/230/230 242/242/242 241/241/241
f 232/232/232 233/233/233 244/244/244
f 232/232/232 244/244/244 243/243/243
f 233/233/233 234/234/234 245/245/245
f 233/233/233 245/245/245 244/244/244
f 234/234/234 235/235/235 246/246/246
f 234/234/234 246/246/246 245/245/245
f 235/235/235 236/236/236 247/247/247
f 235/235/235 247/247/247 246/246/246
f 236/236/236 237/237/237 248/248/248
f 236/236/236 248/248/248 247/247/247
f 237/237/237 238/238/238 249/249/249
f 237/237/237 249/249/249 248/248/248
f 238/238/238 239/239/239 250/250/250
f 238/238/238 250/250/250 249/249/249
f 239/239/239 240/240/240 251/251/251
f 239/239/239 251/251/251 250/250/250
f 240/240/240 241/241/241 252/252/252
f 240/240/240 252/252/252 251/251/251
f 241/241/241 242/242/242 253/253/253
f 241/241/241 253/253/253 252/252/252
f 243/243/243 244/244/244 255/255/255
f 243/243/243 255/255/255 254/254/254
f 244/244/244 245/245/245 256/256/256
f 244/244/244 256/256/256 255/255/255
f 245/245/245 246/246/246 257/257/257
f 245/245/245 257/257/257 256/256/256
f 246/246/246 247/247/247 258/258/258
f 246/246/246 258/258/258 257/257/257
f 247/247/247 248/248/248 259/259/259
f 247/247/247 259/259/259 258/258/258
f 248/248/248 249/249/249 260/260/260
f 248/248/248 260/260/260 259/259/259
f 249/249/249 250/250/250 261/261/261
f 249/249/249 261/261/261 260/260/260
f 250/250/250 251/251/251 262/262/262
f 250/250/250 262/262/262 261/261/261
f 251/251/251 252/252/252 263/263/263
f 251/251/251 263/263/263 262/262/262
f 252/252/252 253/253/253 264/264/264
f 252/252/252 264/264/264 263/263/263
f 254/254/254 255/255/255 266/266/266
f 254/254/254 266/266/266 265/265/265
f 255/255/255 256/256/256 267/267/267
f 255/255/255 267/267/267 266/266/266
f 256/256/256 257/257/257 268/268/268
f 256/256/256 268/268/268 267/267/267
f 257/257/257 258/258/258 269/269/269
f 257/257/257 269/269/269 268/268/268
f 258/258/258 259/259/259 270/270/270
f 258/258/258 270/270/270 269/269/269
f 259/259/259 260/260/260 271/271/271
f 259/259/259 271/271/271 270/270/270
f 260/260/260 261/261/261 272/272/272
f 260/260/260 272/272/272 271/271/271
f 261/261/261 262/262/262 273/273/273
f 261/261/261 273/273/273 272/272/272
f 262/262/262 263/263/263 274/274/274
f 262/262/262 274/274/274 273/273/273
f 263/263/263 264/264/264 275/275/275
f 263/263/263 275/275/275 274/274/274
f 265/265/265 266/266/266 277/277/277
f 265/265/265 277/277/277 276/276/276
f 266/266/266 267/267/267 278/278/278
f 266/266/266 278/278/278 277/277/277
f 267/267/267 268/268/268 279/279/279
f 267/267/267 279/279/279 278/278/278
f 268/268/268 269/269/269 280/280/280
f 268/268/268 280/280/280 279/279/279
f 269/269/269 270/270/270 281/281/281
f 269/269/269 281/281/281 280/280/280
f 270/270/270 271/271/271 282/282/282
f 270/270/270 282/282/282 281/281/281
f 271/271/271 272/272/272 283/283/283
f 271/271/271 283/283/283 282/282/282
f 272/272/272 273/273/273 284/284/284
f 272/272/272 284/284/284 283/283/283
f 273/273/273 274/274/274 285/285/285
f 273/273/273 285/285/285 284/284/284
f 274/274/274 275/275/275 286/286/286
f 274/274/274 286/286/286 285/285/285
f 276/276/276 277/277/277 288/288/288
f 276/276/276 288/288/288 287/287/287
f 277/277/277 278/278/278 289/289/289
f 277/277/277 289/289/289 288/288/288
f 278/278/278 279/279/279 290/290/290
f 278/278/278 290/290/290 289/289/289
f 279/279/279 280/280/280 291/291/291
f 279/279/279 291/291/291 290/290/290
f 280/280/280 281/281/281 292/292/292
f 280/280/280 292/292/292 291/291/291
f 281/281/281 282/282/282 293/293/293
f 281/281/281 293/293/293 292/292/292
f 282/282/282 283/283/283 294/294/294
f 282/282/282 294/294/294 293/293/293
f 283/283/283 284/284/284 295/295/295
f 283/283/283 295/295/295 294/294/294
f 284/284/284 285/285/285 296/296/296
f 284/284/284 296/296/296 295/295/295
f 285/285/285 286/286/286 297/297/297
f 285/285/285 297/297/297 296/296/296
f 287/287/287 288/288/288 299/299/299
f 287/287/287 299/299/299 298/298/298
f 288/288/288 289/289/289 300/300/300
f 288/288/288 300/300/300 299/299/299
f 289/289/289 290/290/290 301/301/301
f 289/289/289 301/301/301 300/300/300
f 290/290/290 291/291/291 302/302/302
f 290/290/290 302/302/302 301/301/301
f 291/291/291 292/292/292 303/303/303
f 291/291/291 303/303/303 302/302/302
f 292/292/292 293/293/293 304/304/304
f 292/292/292 304/304/304 303/303/303
f 293/293/293 294/294/294 305/305/305
f 293/293/293 305/305/305 304/304/304
f 294/294/294 295/295/295 306/306/306
f 294/294/294 306/306/306 305/305/305
f 295/295/295 296/296/296 307/307/307
f 295/295/295 307/307/307 306/306/306
f 296/296/296 297/297/297 308/308/308
f 296/296/296 308/308/308 307/307/307
f 298/298/298 299/299/299 310/310/310
f 298/298/298 310/310/310 309/309/309
f 299/299/299 300/300/300 311/311/311
f 299/299/299 311/311/311 310/310/310
f 300/300/300 301/301/301 312/312/312
f 300/300/300 312/312/312 311/311/311
f 301/301/301 302/302/302 313/313/313
f 301/301/301 313/313/313 312/312/312
f 302/302/302 303/303/303 314/314/314
f 302/302/302 314/314/314 313/313/313
f 303/303/303 304/304/304 315/315/315
f 303/303/303 315/315/315 314/314/314
f 304/304/304 305/305/305 316/316/316
f 304/304/304 316/316/316 315/315/315
f 305/305/305 306/306/306 317/317/317
f 305/305/305 317/317/317 316/316/316
f 306/306/306 307/307/307 318/318/318
f 306/306/306 318/318/318 317/317/317
f 307/307/307 308/308/308 319/319/319
f 307/307/307 319/319/319 318/318/318
f 309/309/309 310/310/310 321/321/321
f 309/309/309 321/321/321 320/320/320
f 310/310/310 311/311/311 322/322/322
f 310/310/310 322/322/322 321/321/321
f 311/311/311 312/312/312 323/323/323
f 311/311/311 323/323/323 322/322/322
f 312/312/312 313/313/313 324/324/324
f 312/312/312 324/324/324 323/323/323
f 313/313/313 314/314/314 325/325/325
f 313/313/313 325/325/325 324/324/324
f 314/314/314 315/315/315 326/326/326
f 314/314/314 326/326/326 325/325/325
f 315/315/315 316/316/316 327/327/327
f 315/315/315 327/327/327 326/326/326
f 316/316/316 317/317/317 328/328/328
f 316/316/316 328/328/328 327/327/327
f 317/317/317 318/318/318 329/329/329
f 317/317/317 329/329/329 328/328/328
f 318/318/318 319/319/319 330/330/330
f 318/318/318 330/330/330 329/329/329
f 320/320/320 321/321/321 332/332/332
f 320/320/320 332/332/332 331/331/331
f 321/321/321 322/322/322 333/333/333
f 321/321/321 333/333/333 332/332/332
f 322/322/322 323/323/323 334/334/334
f 322/322/322 334/334/334 333/333/333
f 323/323/323 324/324/324 335/335/335
f 323/323/323 335/335/335 334/334/334
f 324/324/324 325/325/325 336/336/336
f 324/324/324 336/336/336 335/335/335
f 325/325/325 326/326/326 337/337/337
f 325/325/325 337/337/337 336/336/336
f 326/326/326 327/327/327 338/338/338
f 326/326/326 338/338/338 337/337/337
f 327/327/327 328/328/328 339/339/339
f 327/327/327 339/339/339 338/338/338
f 328/328/328 329/329/329 340/340/340
f 328/328/328 340/340/340 339/339/339
f 329/329/329 330/330/330 341/341/341
f 329/329/329 341/341/341 340/340/340
f 331/331/331 332/332/332 343/343/343
f 331/331/331 343/343/343 342/342/342
f 332/332/332 333/333/333 344/344/344
f 332/332/332 344/344/344 343/343/343
f 333/333/333 334/334/334 345/345/345
f 333/333/333 345/345/345 344/344/344
f 334/334/334 335/335/335 346/346/346
f 334/334/334 346/346/346 345/345/345
f 335/335/335 336/336/336 347/347/347
f 335/335/335 347/347/347 346/346/346
f 336/336/336 337/337/337 348/348/348
f 336/336/336 348/348/348 347/347/347
f 337/337/337 338/338/338 349/349/349
f 337/337/337 349/349/349 348/348/348
f 338/338/338 339/339/339 350/350/350
f 338/338/338 350/350/350 349/349/349
f 339/339/339 340/340/340 351/351/351
f 339/339/339 351/351/351 350/350/350
f 340/340/340 341/341/341 352/352/352
f 340/340/340 352/352/352 351/351/351
f 342/342/342 343/343/343 354/354/354
f 342/342/342 354/354/354 353/353/353
f 343/343/343 344/344/344 355/355/355
f 343/343/343 355/355/355 354/354/354
f 344/344/344 345/345/345 356/356/356
f 344/344/344 356/356/356 355/355/355
f 345/345/345 346/346/346 357/357/357
f 345/345/345 357/357/357 356/356/356
f 346/346/346 347/347/347 358/358/358
f 346/346/346 358/358/358 357/357/357
f 347/347/347 348/348/348 359/359/359
f 347/347/347 359/359/359 358/358/358
f 348/348/348 349/349/349 360/360/360
f 348/348/348 360/360/360 359/359/359
f 349/349/349 350/350/350 361/361/361
f 349/349/349 361/361/361 360/360/360
f 350/350/350 351/351/351 362/362/362
f 350/350/350 362/362/362 361/361/361
f 351/351/351 352/352/352 363/363/363
f 351/351/351 363/363/363 362/362/362
f 353/353/353 354/354/354 365/365/365
f 353/353/353 365/365/365 364/364/364
f 354/354/354 355/355/355 366/366/366
f 354/354/354 366/366/366 365/365/365
f 355/355/355 356/356/356 367/367/367
f 355/355/355 367/367/367 366/366/366
f 356/356/356 357/357/357 368/368/368
f 356/356/356 368/368/368 367/367/367
f 357/357/357 358/358/358 369/369/369
f 357/357/357 369/369/369 368/368/368
f 358/358/358 359/359/359 370/370/370
f 358/358/358 370/370/370 369/369/369
f 359/359/359 360/360/360 371/371/371
f 359/359/359 371/371/371 370/370/370
f 360/360/360 361/361/361 372/372/372
f 360/360/360 372/372/372 371/371/371
f 361/361/361 362/362/362 373/373/373
f 361/361/361 373/373/373 372/372/372
f 362/362/362 363/363/363 374/374/374
f 362/362/362 374/374/374 373/373/373
f 364/364/364 365/365/365 376/376/376
f 364/364/364 376/376/376 375/375/375
f 365/365/365 366/366/366 377/377/377
f 365/365/365 377/377/377 376/376/376
f 366/366/366 367/367/367 378/378/378
f 366/366/366 378/378/378 377/377/377
f 367/367/367 368/368/368 379/379/379
f 367/367/367 379/379/379 378/378/378
f 368/368/368 369/369/369 380/380/380
f 368/368/368 380/380/380 379/379/379
f 369/369/369 370/370/370 381/381/381
f 369/369/369 381/381/381 380/380/380
f 370/370/370 371/371/371 382/382/382
f 370/370/370 382/382/382 381/381/381
f 371/371/371 372/372/372 383/383/383
f 371/371/371 383/383/383 382/382/382
f 372/372/372 373/373/373 384/384/384
f 372/372/372 384/384/384 383/383/383
f 373/373/373 374/374/374 385/385/385
f 373/373/373 385/385/385 384/384/384
f 375/375/375 376/376/376 387/387/387
f 375/375/375 387/387/387 386/386/386
f 376/376/376 377/377/377 388/388/388
f 376/376/376 388/388/388 387/387/387
f 377/377/377 378/378/378 389/389/389
f 377/377/377 389/389/389 388/388/388
f 378/378/378 379/379/379 390/390/390
f 378/378/378 390/390/390 389/389/389
f 379/379/379 380/380/380 391/391/391
f 379/379/379 391/391/391 390/390/390
f 380/380/380 381/381/381 392/392/392
f 380/380/380 392/392/392 391/391/391
f 381/381/381 382/382/382 393/393/393
f 381/381/381 393/393/393 392/392/392
f 382/382/382 383/383/383 394/394/394
f 382/382/382 394/394/394 393/393/393
f 383/383/383 384/384/384 395/395/395
f 383/383/383 395/395/395 394/394/394
f 384/384/384 385/385/385 396/396/396
f 384/384/384 396/396/396 395/395/395
