# Sinh tự động bởi tools/mesh_kit.py - đừng sửa tay
o pz_basin
v 0.0000 0.0000 -0.0000
v 0.1300 0.0000 -0.0000
v 0.1400 0.0060 -0.0000
v 0.1950 0.1150 -0.0000
v 0.2040 0.1200 -0.0000
v 0.2100 0.1260 -0.0000
v 0.2050 0.1310 -0.0000
v 0.1980 0.1260 -0.0000
v 0.1900 0.1170 -0.0000
v 0.1350 0.0100 -0.0000
v 0.0000 0.0100 -0.0000
v 0.0000 0.0000 -0.0000
v 0.1280 0.0000 -0.0226
v 0.1379 0.0060 -0.0243
v 0.1920 0.1150 -0.0339
v 0.2009 0.1200 -0.0354
v 0.2068 0.1260 -0.0365
v 0.2019 0.1310 -0.0356
v 0.1950 0.1260 -0.0344
v 0.1871 0.1170 -0.0330
v 0.1329 0.0100 -0.0234
v 0.0000 0.0100 -0.0000
v 0.0000 0.0000 -0.0000
v 0.1222 0.0000 -0.0445
v 0.1316 0.0060 -0.0479
v 0.1832 0.1150 -0.0667
v 0.1917 0.1200 -0.0698
v 0.1973 0.1260 -0.0718
v 0.1926 0.1310 -0.0701
v 0.1861 0.1260 -0.0677
v 0.1785 0.1170 -0.0650
v 0.1269 0.0100 -0.0462
v 0.0000 0.0100 -0.0000
v 0.0000 0.0000 -0.0000
v 0.1126 0.0000 -0.0650
v 0.1212 0.0060 -0.0700
v 0.1689 0.1150 -0.0975
v 0.1767 0.1200 -0.1020
v 0.1819 0.1260 -0.1050
v 0.1775 0.1310 -0.1025
v 0.1715 0.1260 -0.0990
v 0.1645 0.1170 -0.0950
v 0.1169 0.0100 -0.0675
v 0.0000 0.0100 -0.0000
v 0.0000 0.0000 -0.0000
v 0.0996 0.0000 -0.0836
v 0.1072 0.0060 -0.0900
v 0.1494 0.1150 -0.1253
v 0.1563 0.1200 -0.1311
v 0.1609 0.1260 -0.1350
v 0.1570 0.1310 -0.1318
v 0.1517 0.1260 -0.1273
v 0.1455 0.1170 -0.1221
v 0.1034 0.0100 -0.0868
v 0.0000 0.0100 -0.0000
v 0.0000 0.0000 -0.0000
v 0.0836 0.0000 -0.0996
v 0.0900 0.0060 -0.1072
v 0.1253 0.1150 -0.1494
v 0.1311 0.1200 -0.1563
v 0.1350 0.1260 -0.1609
v 0.1318 0.1310 -0.1570
v 0.1273 0.1260 -0.1517
v 0.1221 0.1170 -0.1455
v 0.0868 0.0100 -0.1034
v 0.0000 0.0100 -0.0000
v 0.0000 0.0000 -0.0000
v 0.0650 0.0000 -0.1126
v 0.0700 0.0060 -0.1212
v 0.0975 0.1150 -0.1689
v 0.1020 0.1200 -0.1767
v 0.1050 0.1260 -0.1819
v 0.1025 0.1310 -0.1775
v 0.0990 0.1260 -0.1715
v 0.0950 0.1170 -0.1645
v 0.0675 0.0100 -0.1169
v 0.0000 0.0100 -0.0000
v 0.0000 0.0000 -0.0000
v 0.0445 0.0000 -0.1222
v 0.0479 0.0060 -0.1316
v 0.0667 0.1150 -0.1832
v 0.0698 0.1200 -0.1917
v 0.0718 0.1260 -0.1973
v 0.0701 0.1310 -0.1926
v 0.0677 0.1260 -0.1861
v 0.0650 0.1170 -0.1785
v 0.0462 0.0100 -0.1269
v 0.0000 0.0100 -0.0000
v 0.0000 0.0000 -0.0000
v 0.0226 0.0000 -0.1280
v 0.0243 0.0060 -0.1379
v 0.0339 0.1150 -0.1920
v 0.0354 0.1200 -0.2009
v 0.0365 0.1260 -0.2068
v 0.0356 0.1310 -0.2019
v 0.0344 0.1260 -0.1950
v 0.0330 0.1170 -0.1871
v 0.0234 0.0100 -0.1329
v 0.0000 0.0100 -0.0000
v 0.0000 0.0000 -0.0000
v 0.0000 0.0000 -0.1300
v 0.0000 0.0060 -0.1400
v 0.0000 0.1150 -0.1950
v 0.0000 0.1200 -0.2040
v 0.0000 0.1260 -0.2100
v 0.0000 0.1310 -0.2050
v 0.0000 0.1260 -0.1980
v 0.0000 0.1170 -0.1900
v 0.0000 0.0100 -0.1350
v 0.0000 0.0100 -0.0000
v -0.0000 0.0000 -0.0000
v -0.0226 0.0000 -0.1280
v -0.0243 0.0060 -0.1379
v -0.0339 0.1150 -0.1920
v -0.0354 0.1200 -0.2009
v -0.0365 0.1260 -0.2068
v -0.0356 0.1310 -0.2019
v -0.0344 0.1260 -0.1950
v -0.0330 0.1170 -0.1871
v -0.0234 0.0100 -0.1329
v -0.0000 0.0100 -0.0000
v -0.0000 0.0000 -0.0000
v -0.0445 0.0000 -0.1222
v -0.0479 0.0060 -0.1316
v -0.0667 0.1150 -0.1832
v -0.0698 0.1200 -0.1917
v -0.0718 0.1260 -0.1973
v -0.0701 0.1310 -0.1926
v -0.0677 0.1260 -0.1861
v -0.0650 0.1170 -0.1785
v -0.0462 0.0100 -0.1269
v -0.0000 0.0100 -0.0000
v -0.0000 0.0000 -0.0000
v -0.0650 0.0000 -0.1126
v -0.0700 0.0060 -0.1212
v -0.0975 0.1150 -0.1689
v -0.1020 0.1200 -0.1767
v -0.1050 0.1260 -0.1819
v -0.1025 0.1310 -0.1775
v -0.0990 0.1260 -0.1715
v -0.0950 0.1170 -0.1645
v -0.0675 0.0100 -0.1169
v -0.0000 0.0100 -0.0000
v -0.0000 0.0000 -0.0000
v -0.0836 0.0000 -0.0996
v -0.0900 0.0060 -0.1072
v -0.1253 0.1150 -0.1494
v -0.1311 0.1200 -0.1563
v -0.1350 0.1260 -0.1609
v -0.1318 0.1310 -0.1570
v -0.1273 0.1260 -0.1517
v -0.1221 0.1170 -0.1455
v -0.0868 0.0100 -0.1034
v -0.0000 0.0100 -0.0000
v -0.0000 0.0000 -0.0000
v -0.0996 0.0000 -0.0836
v -0.1072 0.0060 -0.0900
v -0.1494 0.1150 -0.1253
v -0.1563 0.1200 -0.1311
v -0.1609 0.1260 -0.1350
v -0.1570 0.1310 -0.1318
v -0.1517 0.1260 -0.1273
v -0.1455 0.1170 -0.1221
v -0.1034 0.0100 -0.0868
v -0.0000 0.0100 -0.0000
v -0.0000 0.0000 -0.0000
v -0.1126 0.0000 -0.0650
v -0.1212 0.0060 -0.0700
v -0.1689 0.1150 -0.0975
v -0.1767 0.1200 -0.1020
v -0.1819 0.1260 -0.1050
v -0.1775 0.1310 -0.1025
v -0.1715 0.1260 -0.0990
v -0.1645 0.1170 -0.0950
v -0.1169 0.0100 -0.0675
v -0.0000 0.0100 -0.0000
v -0.0000 0.0000 -0.0000
v -0.1222 0.0000 -0.0445
v -0.1316 0.0060 -0.0479
v -0.1832 0.1150 -0.0667
v -0.1917 0.1200 -0.0698
v -0.1973 0.1260 -0.0718
v -0.1926 0.1310 -0.0701
v -0.1861 0.1260 -0.0677
v -0.1785 0.1170 -0.0650
v -0.1269 0.0100 -0.0462
v -0.0000 0.0100 -0.0000
v -0.0000 0.0000 -0.0000
v -0.1280 0.0000 -0.0226
v -0.1379 0.0060 -0.0243
v -0.1920 0.1150 -0.0339
v -0.2009 0.1200 -0.0354
v -0.2068 0.1260 -0.0365
v -0.2019 0.1310 -0.0356
v -0.1950 0.1260 -0.0344
v -0.1871 0.1170 -0.0330
v -0.1329 0.0100 -0.0234
v -0.0000 0.0100 -0.0000
v -0.0000 0.0000 -0.0000
v -0.1300 0.0000 -0.0000
v -0.1400 0.0060 -0.0000
v -0.1950 0.1150 -0.0000
v -0.2040 0.1200 -0.0000
v -0.2100 0.1260 -0.0000
v -0.2050 0.1310 -0.0000
v -0.1980 0.1260 -0.0000
v -0.1900 0.1170 -0.0000
v -0.1350 0.0100 -0.0000
v -0.0000 0.0100 -0.0000
v -0.0000 0.0000 0.0000
v -0.1280 0.0000 0.0226
v -0.1379 0.0060 0.0243
v -0.1920 0.1150 0.0339
v -0.2009 0.1200 0.0354
v -0.2068 0.1260 0.0365
v -0.2019 0.1310 0.0356
v -0.1950 0.1260 0.0344
v -0.1871 0.1170 0.0330
v -0.1329 0.0100 0.0234
v -0.0000 0.0100 0.0000
v -0.0000 0.0000 0.0000
v -0.1222 0.0000 0.0445
v -0.1316 0.0060 0.0479
v -0.1832 0.1150 0.0667
v -0.1917 0.1200 0.0698
v -0.1973 0.1260 0.0718
v -0.1926 0.1310 0.0701
v -0.1861 0.1260 0.0677
v -0.1785 0.1170 0.0650
v -0.1269 0.0100 0.0462
v -0.0000 0.0100 0.0000
v -0.0000 0.0000 0.0000
v -0.1126 0.0000 0.0650
v -0.1212 0.0060 0.0700
v -0.1689 0.1150 0.0975
v -0.1767 0.1200 0.1020
v -0.1819 0.1260 0.1050
v -0.1775 0.1310 0.1025
v -0.1715 0.1260 0.0990
v -0.1645 0.1170 0.0950
v -0.1169 0.0100 0.0675
v -0.0000 0.0100 0.0000
v -0.0000 0.0000 0.0000
v -0.0996 0.0000 0.0836
v -0.1072 0.0060 0.0900
v -0.1494 0.1150 0.1253
v -0.1563 0.1200 0.1311
v -0.1609 0.1260 0.1350
v -0.1570 0.1310 0.1318
v -0.1517 0.1260 0.1273
v -0.1455 0.1170 0.1221
v -0.1034 0.0100 0.0868
v -0.0000 0.0100 0.0000
v -0.0000 0.0000 0.0000
v -0.0836 0.0000 0.0996
v -0.0900 0.0060 0.1072
v -0.1253 0.1150 0.1494
v -0.1311 0.1200 0.1563
v -0.1350 0.1260 0.1609
v -0.1318 0.1310 0.1570
v -0.1273 0.1260 0.1517
v -0.1221 0.1170 0.1455
v -0.0868 0.0100 0.1034
v -0.0000 0.0100 0.0000
v -0.0000 0.0000 0.0000
v -0.0650 0.0000 0.1126
v -0.0700 0.0060 0.1212
v -0.0975 0.1150 0.1689
v -0.1020 0.1200 0.1767
v -0.1050 0.1260 0.1819
v -0.1025 0.1310 0.1775
v -0.0990 0.1260 0.1715
v -0.0950 0.1170 0.1645
v -0.0675 0.0100 0.1169
v -0.0000 0.0100 0.0000
v -0.0000 0.0000 0.0000
v -0.0445 0.0000 0.1222
v -0.0479 0.0060 0.1316
v -0.0667 0.1150 0.1832
v -0.0698 0.1200 0.1917
v -0.0718 0.1260 0.1973
v -0.0701 0.1310 0.1926
v -0.0677 0.1260 0.1861
v -0.0650 0.1170 0.1785
v -0.0462 0.0100 0.1269
v -0.0000 0.0100 0.0000
v -0.0000 0.0000 0.0000
v -0.0226 0.0000 0.1280
v -0.0243 0.0060 0.1379
v -0.0339 0.1150 0.1920
v -0.0354 0.1200 0.2009
v -0.0365 0.1260 0.2068
v -0.0356 0.1310 0.2019
v -0.0344 0.1260 0.1950
v -0.0330 0.1170 0.1871
v -0.0234 0.0100 0.1329
v -0.0000 0.0100 0.0000
v -0.0000 0.0000 0.0000
v -0.0000 0.0000 0.1300
v -0.0000 0.0060 0.1400
v -0.0000 0.1150 0.1950
v -0.0000 0.1200 0.2040
v -0.0000 0.1260 0.2100
v -0.0000 0.1310 0.2050
v -0.0000 0.1260 0.1980
v -0.0000 0.1170 0.1900
v -0.0000 0.0100 0.1350
v -0.0000 0.0100 0.0000
v 0.0000 0.0000 0.0000
v 0.0226 0.0000 0.1280
v 0.0243 0.0060 0.1379
v 0.0339 0.1150 0.1920
v 0.0354 0.1200 0.2009
v 0.0365 0.1260 0.2068
v 0.0356 0.1310 0.2019
v 0.0344 0.1260 0.1950
v 0.0330 0.1170 0.1871
v 0.0234 0.0100 0.1329
v 0.0000 0.0100 0.0000
v 0.0000 0.0000 0.0000
v 0.0445 0.0000 0.1222
v 0.0479 0.0060 0.1316
v 0.0667 0.1150 0.1832
v 0.0698 0.1200 0.1917
v 0.0718 0.1260 0.1973
v 0.0701 0.1310 0.1926
v 0.0677 0.1260 0.1861
v 0.0650 0.1170 0.1785
v 0.0462 0.0100 0.1269
v 0.0000 0.0100 0.0000
v 0.0000 0.0000 0.0000
v 0.0650 0.0000 0.1126
v 0.0700 0.0060 0.1212
v 0.0975 0.1150 0.1689
v 0.1020 0.1200 0.1767
v 0.1050 0.1260 0.1819
v 0.1025 0.1310 0.1775
v 0.0990 0.1260 0.1715
v 0.0950 0.1170 0.1645
v 0.0675 0.0100 0.1169
v 0.0000 0.0100 0.0000
v 0.0000 0.0000 0.0000
v 0.0836 0.0000 0.0996
v 0.0900 0.0060 0.1072
v 0.1253 0.1150 0.1494
v 0.1311 0.1200 0.1563
v 0.1350 0.1260 0.1609
v 0.1318 0.1310 0.1570
v 0.1273 0.1260 0.1517
v 0.1221 0.1170 0.1455
v 0.0868 0.0100 0.1034
v 0.0000 0.0100 0.0000
v 0.0000 0.0000 0.0000
v 0.0996 0.0000 0.0836
v 0.1072 0.0060 0.0900
v 0.1494 0.1150 0.1253
v 0.1563 0.1200 0.1311
v 0.1609 0.1260 0.1350
v 0.1570 0.1310 0.1318
v 0.1517 0.1260 0.1273
v 0.1455 0.1170 0.1221
v 0.1034 0.0100 0.0868
v 0.0000 0.0100 0.0000
v 0.0000 0.0000 0.0000
v 0.1126 0.0000 0.0650
v 0.1212 0.0060 0.0700
v 0.1689 0.1150 0.0975
v 0.1767 0.1200 0.1020
v 0.1819 0.1260 0.1050
v 0.1775 0.1310 0.1025
v 0.1715 0.1260 0.0990
v 0.1645 0.1170 0.0950
v 0.1169 0.0100 0.0675
v 0.0000 0.0100 0.0000
v 0.0000 0.0000 0.0000
v 0.1222 0.0000 0.0445
v 0.1316 0.0060 0.0479
v 0.1832 0.1150 0.0667
v 0.1917 0.1200 0.0698
v 0.1973 0.1260 0.0718
v 0.1926 0.1310 0.0701
v 0.1861 0.1260 0.0677
v 0.1785 0.1170 0.0650
v 0.1269 0.0100 0.0462
v 0.0000 0.0100 0.0000
v 0.0000 0.0000 0.0000
v 0.1280 0.0000 0.0226
v 0.1379 0.0060 0.0243
v 0.1920 0.1150 0.0339
v 0.2009 0.1200 0.0354
v 0.2068 0.1260 0.0365
v 0.2019 0.1310 0.0356
v 0.1950 0.1260 0.0344
v 0.1871 0.1170 0.0330
v 0.1329 0.0100 0.0234
v 0.0000 0.0100 0.0000
v 0.0000 0.0000 0.0000
v 0.1300 0.0000 0.0000
v 0.1400 0.0060 0.0000
v 0.1950 0.1150 0.0000
v 0.2040 0.1200 0.0000
v 0.2100 0.1260 0.0000
v 0.2050 0.1310 0.0000
v 0.1980 0.1260 0.0000
v 0.1900 0.1170 0.0000
v 0.1350 0.0100 0.0000
v 0.0000 0.0100 0.0000
vt 0.0000 0.0000
vt 0.0000 0.1300
vt 0.0000 0.1417
vt 0.0000 0.2638
vt 0.0000 0.2740
vt 0.0000 0.2825
vt 0.0000 0.2896
vt 0.0000 0.2982
vt 0.0000 0.3102
vt 0.0000 0.4306
vt 0.0000 0.5656
vt 0.0367 0.0000
vt 0.0367 0.1300
vt 0.0367 0.1417
vt 0.0367 0.2638
vt 0.0367 0.2740
vt 0.0367 0.2825
vt 0.0367 0.2896
vt 0.0367 0.2982
vt 0.0367 0.3102
vt 0.0367 0.4306
vt 0.0367 0.5656
vt 0.0733 0.0000
vt 0.0733 0.1300
vt 0.0733 0.1417
vt 0.0733 0.2638
vt 0.0733 0.2740
vt 0.0733 0.2825
vt 0.0733 0.2896
vt 0.0733 0.2982
vt 0.0733 0.3102
vt 0.0733 0.4306
vt 0.0733 0.5656
vt 0.1100 0.0000
vt 0.1100 0.1300
vt 0.1100 0.1417
vt 0.1100 0.2638
vt 0.1100 0.2740
vt 0.1100 0.2825
vt 0.1100 0.2896
vt 0.1100 0.2982
vt 0.1100 0.3102
vt 0.1100 0.4306
vt 0.1100 0.5656
vt 0.1466 0.0000
vt 0.1466 0.1300
vt 0.1466 0.1417
vt 0.1466 0.2638
vt 0.1466 0.2740
vt 0.1466 0.2825
vt 0.1466 0.2896
vt 0.1466 0.2982
vt 0.1466 0.3102
vt 0.1466 0.4306
vt 0.1466 0.5656
vt 0.1833 0.0000
vt 0.1833 0.1300
vt 0.1833 0.1417
vt 0.1833 0.2638
vt 0.1833 0.2740
vt 0.1833 0.2825
vt 0.1833 0.2896
vt 0.1833 0.2982
vt 0.1833 0.3102
vt 0.1833 0.4306
vt 0.1833 0.5656
vt 0.2199 0.0000
vt 0.2199 0.1300
vt 0.2199 0.1417
vt 0.2199 0.2638
vt 0.2199 0.2740
vt 0.2199 0.2825
vt 0.2199 0.2896
vt 0.2199 0.2982
vt 0.2199 0.3102
vt 0.2199 0.4306
vt 0.2199 0.5656
vt 0.2566 0.0000
vt 0.2566 0.1300
vt 0.2566 0.1417
vt 0.2566 0.2638
vt 0.2566 0.2740
vt 0.2566 0.2825
vt 0.2566 0.2896
vt 0.2566 0.2982
vt 0.2566 0.3102
vt 0.2566 0.4306
vt 0.2566 0.5656
vt 0.2932 0.0000
vt 0.2932 0.1300
vt 0.2932 0.1417
vt 0.2932 0.2638
vt 0.2932 0.2740
vt 0.2932 0.2825
vt 0.2932 0.2896
vt 0.2932 0.2982
vt 0.2932 0.3102
vt 0.2932 0.4306
vt 0.2932 0.5656
vt 0.3299 0.0000
vt 0.3299 0.1300
vt 0.3299 0.1417
vt 0.3299 0.2638
vt 0.3299 0.2740
vt 0.3299 0.2825
vt 0.3299 0.2896
vt 0.3299 0.2982
vt 0.3299 0.3102
vt 0.3299 0.4306
vt 0.3299 0.5656
vt 0.3665 0.0000
vt 0.3665 0.1300
vt 0.3665 0.1417
vt 0.3665 0.2638
vt 0.3665 0.2740
vt 0.3665 0.2825
vt 0.3665 0.2896
vt 0.3665 0.2982
vt 0.3665 0.3102
vt 0.3665 0.4306
vt 0.3665 0.5656
vt 0.4032 0.0000
vt 0.4032 0.1300
vt 0.4032 0.1417
vt 0.4032 0.2638
vt 0.4032 0.2740
vt 0.4032 0.2825
vt 0.4032 0.2896
vt 0.4032 0.2982
vt 0.4032 0.3102
vt 0.4032 0.4306
vt 0.4032 0.5656
vt 0.4398 0.0000
vt 0.4398 0.1300
vt 0.4398 0.1417
vt 0.4398 0.2638
vt 0.4398 0.2740
vt 0.4398 0.2825
vt 0.4398 0.2896
vt 0.4398 0.2982
vt 0.4398 0.3102
vt 0.4398 0.4306
vt 0.4398 0.5656
vt 0.4765 0.0000
vt 0.4765 0.1300
vt 0.4765 0.1417
vt 0.4765 0.2638
vt 0.4765 0.2740
vt 0.4765 0.2825
vt 0.4765 0.2896
vt 0.4765 0.2982
vt 0.4765 0.3102
vt 0.4765 0.4306
vt 0.4765 0.5656
vt 0.5131 0.0000
vt 0.5131 0.1300
vt 0.5131 0.1417
vt 0.5131 0.2638
vt 0.5131 0.2740
vt 0.5131 0.2825
vt 0.5131 0.2896
vt 0.5131 0.2982
vt 0.5131 0.3102
vt 0.5131 0.4306
vt 0.5131 0.5656
vt 0.5498 0.0000
vt 0.5498 0.1300
vt 0.5498 0.1417
vt 0.5498 0.2638
vt 0.5498 0.2740
vt 0.5498 0.2825
vt 0.5498 0.2896
vt 0.5498 0.2982
vt 0.5498 0.3102
vt 0.5498 0.4306
vt 0.5498 0.5656
vt 0.5864 0.0000
vt 0.5864 0.1300
vt 0.5864 0.1417
vt 0.5864 0.2638
vt 0.5864 0.2740
vt 0.5864 0.2825
vt 0.5864 0.2896
vt 0.5864 0.2982
vt 0.5864 0.3102
vt 0.5864 0.4306
vt 0.5864 0.5656
vt 0.6231 0.0000
vt 0.6231 0.1300
vt 0.6231 0.1417
vt 0.6231 0.2638
vt 0.6231 0.2740
vt 0.6231 0.2825
vt 0.6231 0.2896
vt 0.6231 0.2982
vt 0.6231 0.3102
vt 0.6231 0.4306
vt 0.6231 0.5656
vt 0.6597 0.0000
vt 0.6597 0.1300
vt 0.6597 0.1417
vt 0.6597 0.2638
vt 0.6597 0.2740
vt 0.6597 0.2825
vt 0.6597 0.2896
vt 0.6597 0.2982
vt 0.6597 0.3102
vt 0.6597 0.4306
vt 0.6597 0.5656
vt 0.6964 0.0000
vt 0.6964 0.1300
vt 0.6964 0.1417
vt 0.6964 0.2638
vt 0.6964 0.2740
vt 0.6964 0.2825
vt 0.6964 0.2896
vt 0.6964 0.2982
vt 0.6964 0.3102
vt 0.6964 0.4306
vt 0.6964 0.5656
vt 0.7330 0.0000
vt 0.7330 0.1300
vt 0.7330 0.1417
vt 0.7330 0.2638
vt 0.7330 0.2740
vt 0.7330 0.2825
vt 0.7330 0.2896
vt 0.7330 0.2982
vt 0.7330 0.3102
vt 0.7330 0.4306
vt 0.7330 0.5656
vt 0.7697 0.0000
vt 0.7697 0.1300
vt 0.7697 0.1417
vt 0.7697 0.2638
vt 0.7697 0.2740
vt 0.7697 0.2825
vt 0.7697 0.2896
vt 0.7697 0.2982
vt 0.7697 0.3102
vt 0.7697 0.4306
vt 0.7697 0.5656
vt 0.8063 0.0000
vt 0.8063 0.1300
vt 0.8063 0.1417
vt 0.8063 0.2638
vt 0.8063 0.2740
vt 0.8063 0.2825
vt 0.8063 0.2896
vt 0.8063 0.2982
vt 0.8063 0.3102
vt 0.8063 0.4306
vt 0.8063 0.5656
vt 0.8430 0.0000
vt 0.8430 0.1300
vt 0.8430 0.1417
vt 0.8430 0.2638
vt 0.8430 0.2740
vt 0.8430 0.2825
vt 0.8430 0.2896
vt 0.8430 0.2982
vt 0.8430 0.3102
vt 0.8430 0.4306
vt 0.8430 0.5656
vt 0.8796 0.0000
vt 0.8796 0.1300
vt 0.8796 0.1417
vt 0.8796 0.2638
vt 0.8796 0.2740
vt 0.8796 0.2825
vt 0.8796 0.2896
vt 0.8796 0.2982
vt 0.8796 0.3102
vt 0.8796 0.4306
vt 0.8796 0.5656
vt 0.9163 0.0000
vt 0.9163 0.1300
vt 0.9163 0.1417
vt 0.9163 0.2638
vt 0.9163 0.2740
vt 0.9163 0.2825
vt 0.9163 0.2896
vt 0.9163 0.2982
vt 0.9163 0.3102
vt 0.9163 0.4306
vt 0.9163 0.5656
vt 0.9529 0.0000
vt 0.9529 0.1300
vt 0.9529 0.1417
vt 0.9529 0.2638
vt 0.9529 0.2740
vt 0.9529 0.2825
vt 0.9529 0.2896
vt 0.9529 0.2982
vt 0.9529 0.3102
vt 0.9529 0.4306
vt 0.9529 0.5656
vt 0.9896 0.0000
vt 0.9896 0.1300
vt 0.9896 0.1417
vt 0.9896 0.2638
vt 0.9896 0.2740
vt 0.9896 0.2825
vt 0.9896 0.2896
vt 0.9896 0.2982
vt 0.9896 0.3102
vt 0.9896 0.4306
vt 0.9896 0.5656
vt 1.0263 0.0000
vt 1.0263 0.1300
vt 1.0263 0.1417
vt 1.0263 0.2638
vt 1.0263 0.2740
vt 1.0263 0.2825
vt 1.0263 0.2896
vt 1.0263 0.2982
vt 1.0263 0.3102
vt 1.0263 0.4306
vt 1.0263 0.5656
vt 1.0629 0.0000
vt 1.0629 0.1300
vt 1.0629 0.1417
vt 1.0629 0.2638
vt 1.0629 0.2740
vt 1.0629 0.2825
vt 1.0629 0.2896
vt 1.0629 0.2982
vt 1.0629 0.3102
vt 1.0629 0.4306
vt 1.0629 0.5656
vt 1.0996 0.0000
vt 1.0996 0.1300
vt 1.0996 0.1417
vt 1.0996 0.2638
vt 1.0996 0.2740
vt 1.0996 0.2825
vt 1.0996 0.2896
vt 1.0996 0.2982
vt 1.0996 0.3102
vt 1.0996 0.4306
vt 1.0996 0.5656
vt 1.1362 0.0000
vt 1.1362 0.1300
vt 1.1362 0.1417
vt 1.1362 0.2638
vt 1.1362 0.2740
vt 1.1362 0.2825
vt 1.1362 0.2896
vt 1.1362 0.2982
vt 1.1362 0.3102
vt 1.1362 0.4306
vt 1.1362 0.5656
vt 1.1729 0.0000
vt 1.1729 0.1300
vt 1.1729 0.1417
vt 1.1729 0.2638
vt 1.1729 0.2740
vt 1.1729 0.2825
vt 1.1729 0.2896
vt 1.1729 0.2982
vt 1.1729 0.3102
vt 1.1729 0.4306
vt 1.1729 0.5656
vt 1.2095 0.0000
vt 1.2095 0.1300
vt 1.2095 0.1417
vt 1.2095 0.2638
vt 1.2095 0.2740
vt 1.2095 0.2825
vt 1.2095 0.2896
vt 1.2095 0.2982
vt 1.2095 0.3102
vt 1.2095 0.4306
vt 1.2095 0.5656
vt 1.2462 0.0000
vt 1.2462 0.1300
vt 1.2462 0.1417
vt 1.2462 0.2638
vt 1.2462 0.2740
vt 1.2462 0.2825
vt 1.2462 0.2896
vt 1.2462 0.2982
vt 1.2462 0.3102
vt 1.2462 0.4306
vt 1.2462 0.5656
vt 1.2828 0.0000
vt 1.2828 0.1300
vt 1.2828 0.1417
vt 1.2828 0.2638
vt 1.2828 0.2740
vt 1.2828 0.2825
vt 1.2828 0.2896
vt 1.2828 0.2982
vt 1.2828 0.3102
vt 1.2828 0.4306
vt 1.2828 0.5656
vt 1.3195 0.0000
vt 1.3195 0.1300
vt 1.3195 0.1417
vt 1.3195 0.2638
vt 1.3195 0.2740
vt 1.3195 0.2825
vt 1.3195 0.2896
vt 1.3195 0.2982
vt 1.3195 0.3102
vt 1.3195 0.4306
vt 1.3195 0.5656
vn 0.000 -1.000 -0.000
vn 0.043 -0.999 -0.000
vn 0.871 -0.492 -0.000
vn 0.872 -0.490 -0.000
vn 0.591 -0.806 -0.000
vn 0.996 -0.091 -0.000
vn 0.000 1.000 -0.000
vn -0.682 0.731 0.000
vn -0.879 0.477 0.000
vn -0.491 0.871 0.000
vn 0.000 1.000 -0.000
vn 0.000 -1.000 -0.000
vn 0.042 -0.999 -0.007
vn 0.857 -0.492 -0.151
vn 0.859 -0.490 -0.151
vn 0.582 -0.806 -0.103
vn 0.981 -0.091 -0.173
vn 0.000 1.000 -0.000
vn -0.672 0.731 0.118
vn -0.865 0.477 0.153
vn -0.483 0.871 0.085
vn 0.000 1.000 -0.000
vn 0.000 -1.000 -0.000
vn 0.040 -0.999 -0.015
vn 0.818 -0.492 -0.298
vn 0.819 -0.490 -0.298
vn 0.556 -0.806 -0.202
vn 0.936 -0.091 -0.341
vn 0.000 1.000 -0.000
vn -0.641 0.731 0.233
vn -0.826 0.477 0.301
vn -0.461 0.871 0.168
vn 0.000 1.000 -0.000
vn 0.000 -1.000 -0.000
vn 0.037 -0.999 -0.021
vn 0.754 -0.492 -0.435
vn 0.755 -0.490 -0.436
vn 0.512 -0.806 -0.296
vn 0.862 -0.091 -0.498
vn 0.000 1.000 -0.000
vn -0.591 0.731 0.341
vn -0.761 0.477 0.439
vn -0.425 0.871 0.245
vn 0.000 1.000 -0.000
vn 0.000 -1.000 -0.000
vn 0.033 -0.999 -0.028
vn 0.667 -0.492 -0.560
vn 0.668 -0.490 -0.561
vn 0.453 -0.806 -0.380
vn 0.763 -0.091 -0.640
vn 0.000 1.000 -0.000
vn -0.523 0.731 0.439
vn -0.673 0.477 0.565
vn -0.376 0.871 0.315
vn 0.000 1.000 -0.000
vn 0.000 -1.000 -0.000
vn 0.028 -0.999 -0.033
vn 0.560 -0.492 -0.667
vn 0.561 -0.490 -0.668
vn 0.380 -0.806 -0.453
vn 0.640 -0.091 -0.763
vn 0.000 1.000 -0.000
vn -0.439 0.731 0.523
vn -0.565 0.477 0.673
vn -0.315 0.871 0.376
vn 0.000 1.000 -0.000
vn 0.000 -1.000 -0.000
vn 0.021 -0.999 -0.037
vn 0.435 -0.492 -0.754
vn 0.436 -0.490 -0.755
vn 0.296 -0.806 -0.512
vn 0.498 -0.091 -0.862
vn 0.000 1.000 -0.000
vn -0.341 0.731 0.591
vn -0.439 0.477 0.761
vn -0.245 0.871 0.425
vn 0.000 1.000 -0.000
vn 0.000 -1.000 -0.000
vn 0.015 -0.999 -0.040
vn 0.298 -0.492 -0.818
vn 0.298 -0.490 -0.819
vn 0.202 -0.806 -0.556
vn 0.341 -0.091 -0.936
vn 0.000 1.000 -0.000
vn -0.233 0.731 0.641
vn -0.301 0.477 0.826
vn -0.168 0.871 0.461
vn 0.000 1.000 -0.000
vn 0.000 -1.000 -0.000
vn 0.007 -0.999 -0.042
vn 0.151 -0.492 -0.857
vn 0.151 -0.490 -0.859
vn 0.103 -0.806 -0.582
vn 0.173 -0.091 -0.981
vn 0.000 1.000 -0.000
vn -0.118 0.731 0.672
vn -0.153 0.477 0.865
vn -0.085 0.871 0.483
vn 0.000 1.000 -0.000
vn 0.000 -1.000 -0.000
vn 0.000 -0.999 -0.043
vn 0.000 -0.492 -0.871
vn 0.000 -0.490 -0.872
vn 0.000 -0.806 -0.591
vn 0.000 -0.091 -0.996
vn 0.000 1.000 -0.000
vn -0.000 0.731 0.682
vn -0.000 0.477 0.879
vn -0.000 0.871 0.491
vn 0.000 1.000 -0.000
vn -0.000 -1.000 -0.000
vn -0.007 -0.999 -0.042
vn -0.151 -0.492 -0.857
vn -0.151 -0.490 -0.859
vn -0.103 -0.806 -0.582
vn -0.173 -0.091 -0.981
vn -0.000 1.000 -0.000
vn 0.118 0.731 0.672
vn 0.153 0.477 0.865
vn 0.085 0.871 0.483
vn -0.000 1.000 -0.000
vn -0.000 -1.000 -0.000
vn -0.015 -0.999 -0.040
vn -0.298 -0.492 -0.818
vn -0.298 -0.490 -0.819
vn -0.202 -0.806 -0.556
vn -0.341 -0.091 -0.936
vn -0.000 1.000 -0.000
vn 0.233 0.731 0.641
vn 0.301 0.477 0.826
vn 0.168 0.871 0.461
vn -0.000 1.000 -0.000
vn -0.000 -1.000 -0.000
vn -0.021 -0.999 -0.037
vn -0.435 -0.492 -0.754
vn -0.436 -0.490 -0.755
vn -0.296 -0.806 -0.512
vn -0.498 -0.091 -0.862
vn -0.000 1.000 -0.000
vn 0.341 0.731 0.591
vn 0.439 0.477 0.761
vn 0.245 0.871 0.425
vn -0.000 1.000 -0.000
vn -0.000 -1.000 -0.000
vn -0.028 -0.999 -0.033
vn -0.560 -0.492 -0.667
vn -0.561 -0.490 -0.668
vn -0.380 -0.806 -0.453
vn -0.640 -0.091 -0.763
vn -0.000 1.000 -0.000
vn 0.439 0.731 0.523
vn 0.565 0.477 0.673
vn 0.315 0.871 0.376
vn -0.000 1.000 -0.000
vn -0.000 -1.000 -0.000
vn -0.033 -0.999 -0.028
vn -0.667 -0.492 -0.560
vn -0.668 -0.490 -0.561
vn -0.453 -0.806 -0.380
vn -0.763 -0.091 -0.640
vn -0.000 1.000 -0.000
vn 0.523 0.731 0.439
vn 0.673 0.477 0.565
vn 0.376 0.871 0.315
vn -0.000 1.000 -0.000
vn -0.000 -1.000 -0.000
vn -0.037 -0.999 -0.021
vn -0.754 -0.492 -0.435
vn -0.755 -0.490 -0.436
vn -0.512 -0.806 -0.296
vn -0.862 -0.091 -0.498
vn -0.000 1.000 -0.000
vn 0.591 0.731 0.341
vn 0.761 0.477 0.439
vn 0.425 0.871 0.245
vn -0.000 1.000 -0.000
vn -0.000 -1.000 -0.000
vn -0.040 -0.999 -0.015
vn -0.818 -0.492 -0.298
vn -0.819 -0.490 -0.298
vn -0.556 -0.806 -0.202
vn -0.936 -0.091 -0.341
vn -0.000 1.000 -0.000
vn 0.641 0.731 0.233
vn 0.826 0.477 0.301
vn 0.461 0.871 0.168
vn -0.000 1.000 -0.000
vn -0.000 -1.000 -0.000
vn -0.042 -0.999 -0.007
vn -0.857 -0.492 -0.151
vn -0.859 -0.490 -0.151
vn -0.582 -0.806 -0.103
vn -0.981 -0.091 -0.173
vn -0.000 1.000 -0.000
vn 0.672 0.731 0.118
vn 0.865 0.477 0.153
vn 0.483 0.871 0.085
vn -0.000 1.000 -0.000
vn -0.000 -1.000 -0.000
vn -0.043 -0.999 -0.000
vn -0.871 -0.492 -0.000
vn -0.872 -0.490 -0.000
vn -0.591 -0.806 -0.000
vn -0.996 -0.091 -0.000
vn -0.000 1.000 -0.000
vn 0.682 0.731 0.000
vn 0.879 0.477 0.000
vn 0.491 0.871 0.000
vn -0.000 1.000 -0.000
vn -0.000 -1.000 0.000
vn -0.042 -0.999 0.007
vn -0.857 -0.492 0.151
vn -0.859 -0.490 0.151
vn -0.582 -0.806 0.103
vn -0.981 -0.091 0.173
vn -0.000 1.000 0.000
vn 0.672 0.731 -0.118
vn 0.865 0.477 -0.153
vn 0.483 0.871 -0.085
vn -0.000 1.000 0.000
vn -0.000 -1.000 0.000
vn -0.040 -0.999 0.015
vn -0.818 -0.492 0.298
vn -0.819 -0.490 0.298
vn -0.556 -0.806 0.202
vn -0.936 -0.091 0.341
vn -0.000 1.000 0.000
vn 0.641 0.731 -0.233
vn 0.826 0.477 -0.301
vn 0.461 0.871 -0.168
vn -0.000 1.000 0.000
vn -0.000 -1.000 0.000
vn -0.037 -0.999 0.021
vn -0.754 -0.492 0.435
vn -0.755 -0.490 0.436
vn -0.512 -0.806 0.296
vn -0.862 -0.091 0.498
vn -0.000 1.000 0.000
vn 0.591 0.731 -0.341
vn 0.761 0.477 -0.439
vn 0.425 0.871 -0.245
vn -0.000 1.000 0.000
vn -0.000 -1.000 0.000
vn -0.033 -0.999 0.028
vn -0.667 -0.492 0.560
vn -0.668 -0.490 0.561
vn -0.453 -0.806 0.380
vn -0.763 -0.091 0.640
vn -0.000 1.000 0.000
vn 0.523 0.731 -0.439
vn 0.673 0.477 -0.565
vn 0.376 0.871 -0.315
vn -0.000 1.000 0.000
vn -0.000 -1.000 0.000
vn -0.028 -0.999 0.033
vn -0.560 -0.492 0.667
vn -0.561 -0.490 0.668
vn -0.380 -0.806 0.453
vn -0.640 -0.091 0.763
vn -0.000 1.000 0.000
vn 0.439 0.731 -0.523
vn 0.565 0.477 -0.673
vn 0.315 0.871 -0.376
vn -0.000 1.000 0.000
vn -0.000 -1.000 0.000
vn -0.021 -0.999 0.037
vn -0.435 -0.492 0.754
vn -0.436 -0.490 0.755
vn -0.296 -0.806 0.512
vn -0.498 -0.091 0.862
vn -0.000 1.000 0.000
vn 0.341 0.731 -0.591
vn 0.439 0.477 -0.761
vn 0.245 0.871 -0.425
vn -0.000 1.000 0.000
vn -0.000 -1.000 0.000
vn -0.015 -0.999 0.040
vn -0.298 -0.492 0.818
vn -0.298 -0.490 0.819
vn -0.202 -0.806 0.556
vn -0.341 -0.091 0.936
vn -0.000 1.000 0.000
vn 0.233 0.731 -0.641
vn 0.301 0.477 -0.826
vn 0.168 0.871 -0.461
vn -0.000 1.000 0.000
vn -0.000 -1.000 0.000
vn -0.007 -0.999 0.042
vn -0.151 -0.492 0.857
vn -0.151 -0.490 0.859
vn -0.103 -0.806 0.582
vn -0.173 -0.091 0.981
vn -0.000 1.000 0.000
vn 0.118 0.731 -0.672
vn 0.153 0.477 -0.865
vn 0.085 0.871 -0.483
vn -0.000 1.000 0.000
vn -0.000 -1.000 0.000
vn -0.000 -0.999 0.043
vn -0.000 -0.492 0.871
vn -0.000 -0.490 0.872
vn -0.000 -0.806 0.591
vn -0.000 -0.091 0.996
vn -0.000 1.000 0.000
vn 0.000 0.731 -0.682
vn 0.000 0.477 -0.879
vn 0.000 0.871 -0.491
vn -0.000 1.000 0.000
vn 0.000 -1.000 0.000
vn 0.007 -0.999 0.042
vn 0.151 -0.492 0.857
vn 0.151 -0.490 0.859
vn 0.103 -0.806 0.582
vn 0.173 -0.091 0.981
vn 0.000 1.000 0.000
vn -0.118 0.731 -0.672
vn -0.153 0.477 -0.865
vn -0.085 0.871 -0.483
vn 0.000 1.000 0.000
vn 0.000 -1.000 0.000
vn 0.015 -0.999 0.040
vn 0.298 -0.492 0.818
vn 0.298 -0.490 0.819
vn 0.202 -0.806 0.556
vn 0.341 -0.091 0.936
vn 0.000 1.000 0.000
vn -0.233 0.731 -0.641
vn -0.301 0.477 -0.826
vn -0.168 0.871 -0.461
vn 0.000 1.000 0.000
vn 0.000 -1.000 0.000
vn 0.021 -0.999 0.037
vn 0.435 -0.492 0.754
vn 0.436 -0.490 0.755
vn 0.296 -0.806 0.512
vn 0.498 -0.091 0.862
vn 0.000 1.000 0.000
vn -0.341 0.731 -0.591
vn -0.439 0.477 -0.761
vn -0.245 0.871 -0.425
vn 0.000 1.000 0.000
vn 0.000 -1.000 0.000
vn 0.028 -0.999 0.033
vn 0.560 -0.492 0.667
vn 0.561 -0.490 0.668
vn 0.380 -0.806 0.453
vn 0.640 -0.091 0.763
vn 0.000 1.000 0.000
vn -0.439 0.731 -0.523
vn -0.565 0.477 -0.673
vn -0.315 0.871 -0.376
vn 0.000 1.000 0.000
vn 0.000 -1.000 0.000
vn 0.033 -0.999 0.028
vn 0.667 -0.492 0.560
vn 0.668 -0.490 0.561
vn 0.453 -0.806 0.380
vn 0.763 -0.091 0.640
vn 0.000 1.000 0.000
vn -0.523 0.731 -0.439
vn -0.673 0.477 -0.565
vn -0.376 0.871 -0.315
vn 0.000 1.000 0.000
vn 0.000 -1.000 0.000
vn 0.037 -0.999 0.021
vn 0.754 -0.492 0.435
vn 0.755 -0.490 0.436
vn 0.512 -0.806 0.296
vn 0.862 -0.091 0.498
vn 0.000 1.000 0.000
vn -0.591 0.731 -0.341
vn -0.761 0.477 -0.439
vn -0.425 0.871 -0.245
vn 0.000 1.000 0.000
vn 0.000 -1.000 0.000
vn 0.040 -0.999 0.015
vn 0.818 -0.492 0.298
vn 0.819 -0.490 0.298
vn 0.556 -0.806 0.202
vn 0.936 -0.091 0.341
vn 0.000 1.000 0.000
vn -0.641 0.731 -0.233
vn -0.826 0.477 -0.301
vn -0.461 0.871 -0.168
vn 0.000 1.000 0.000
vn 0.000 -1.000 0.000
vn 0.042 -0.999 0.007
vn 0.857 -0.492 0.151
vn 0.859 -0.490 0.151
vn 0.582 -0.806 0.103
vn 0.981 -0.091 0.173
vn 0.000 1.000 0.000
vn -0.672 0.731 -0.118
vn -0.865 0.477 -0.153
vn -0.483 0.871 -0.085
vn 0.000 1.000 0.000
vn 0.000 -1.000 0.000
vn 0.043 -0.999 0.000
vn 0.871 -0.492 0.000
vn 0.872 -0.490 0.000
vn 0.591 -0.806 0.000
vn 0.996 -0.091 0.000
vn 0.000 1.000 0.000
vn -0.682 0.731 -0.000
vn -0.879 0.477 -0.000
vn -0.491 0.871 -0.000
vn 0.000 1.000 0.000
v 0.0000 0.0242 -0.0000
v 0.0000 0.0245 -0.0000
v 0.0000 0.0204 -0.0000
v 0.0000 0.0162 -0.0000
v 0.0000 0.0159 -0.0000
v -0.0000 0.0200 -0.0000
v -0.0000 0.0242 -0.0000
v -0.0000 0.0245 -0.0000
v -0.0000 0.0204 -0.0000
v -0.0000 0.0162 -0.0000
v -0.0000 0.0159 0.0000
v -0.0000 0.0200 0.0000
v -0.0000 0.0242 0.0000
v -0.0000 0.0245 0.0000
v 0.0000 0.0204 0.0000
v 0.0000 0.0162 0.0000
v 0.0000 0.0159 0.0000
v 0.0000 0.0200 0.0000
v 0.0000 0.0242 0.0000
v 0.0375 0.0222 -0.0000
v 0.0352 0.0223 -0.0128
v 0.0287 0.0193 -0.0241
v 0.0188 0.0161 -0.0325
v 0.0065 0.0160 -0.0369
v -0.0065 0.0190 -0.0369
v -0.0187 0.0222 -0.0325
v -0.0287 0.0223 -0.0241
v -0.0352 0.0193 -0.0128
v -0.0375 0.0161 -0.0000
v -0.0352 0.0160 0.0128
v -0.0287 0.0190 0.0241
v -0.0188 0.0222 0.0325
v -0.0065 0.0223 0.0369
v 0.0065 0.0193 0.0369
v 0.0188 0.0161 0.0325
v 0.0287 0.0160 0.0241
v 0.0352 0.0190 0.0128
v 0.0375 0.0222 0.0000
v 0.0750 0.0216 -0.0000
v 0.0705 0.0217 -0.0257
v 0.0575 0.0197 -0.0482
v 0.0375 0.0176 -0.0650
v 0.0130 0.0175 -0.0739
v -0.0130 0.0195 -0.0739
v -0.0375 0.0216 -0.0650
v -0.0575 0.0217 -0.0482
v -0.0705 0.0197 -0.0257
v -0.0750 0.0176 -0.0000
v -0.0705 0.0175 0.0257
v -0.0575 0.0195 0.0482
v -0.0375 0.0216 0.0650
v -0.0130 0.0217 0.0739
v 0.0130 0.0197 0.0739
v 0.0375 0.0176 0.0650
v 0.0575 0.0175 0.0482
v 0.0705 0.0195 0.0257
v 0.0750 0.0216 0.0000
v 0.1125 0.0226 -0.0000
v 0.1057 0.0226 -0.0385
v 0.0862 0.0216 -0.0723
v 0.0563 0.0205 -0.0974
v 0.0195 0.0205 -0.1108
v -0.0195 0.0215 -0.1108
v -0.0562 0.0226 -0.0974
v -0.0862 0.0226 -0.0723
v -0.1057 0.0216 -0.0385
v -0.1125 0.0205 -0.0000
v -0.1057 0.0205 0.0385
v -0.0862 0.0215 0.0723
v -0.0563 0.0226 0.0974
v -0.0195 0.0226 0.1108
v 0.0195 0.0216 0.1108
v 0.0563 0.0205 0.0974
v 0.0862 0.0205 0.0723
v 0.1057 0.0215 0.0385
v 0.1125 0.0226 0.0000
v 0.1500 0.0250 -0.0000
v 0.1410 0.0250 -0.0513
v 0.1149 0.0250 -0.0964
v 0.0750 0.0250 -0.1299
v 0.0260 0.0250 -0.1477
v -0.0260 0.0250 -0.1477
v -0.0750 0.0250 -0.1299
v -0.1149 0.0250 -0.0964
v -0.1410 0.0250 -0.0513
v -0.1500 0.0250 -0.0000
v -0.1410 0.0250 0.0513
v -0.1149 0.0250 0.0964
v -0.0750 0.0250 0.1299
v -0.0260 0.0250 0.1477
v 0.0260 0.0250 0.1477
v 0.0750 0.0250 0.1299
v 0.1149 0.0250 0.0964
v 0.1410 0.0250 0.0513
v 0.1500 0.0250 0.0000
v 0.0241 0.0307 0.0250
v -0.0040 0.0264 0.0155
v -0.0044 0.0293 0.0154
v 0.0237 0.0336 0.0249
v -0.0168 0.0264 0.0534
v 0.0113 0.0307 0.0629
v 0.0109 0.0336 0.0628
v -0.0172 0.0293 0.0532
v 0.0109 0.0336 0.0628
v 0.0237 0.0336 0.0249
v -0.0044 0.0293 0.0154
v -0.0172 0.0293 0.0532
v -0.0168 0.0264 0.0534
v -0.0040 0.0264 0.0155
v 0.0241 0.0307 0.0250
v 0.0113 0.0307 0.0629
v 0.0113 0.0307 0.0629
v 0.0241 0.0307 0.0250
v 0.0237 0.0336 0.0249
v 0.0109 0.0336 0.0628
v -0.0040 0.0264 0.0155
v -0.0168 0.0264 0.0534
v -0.0172 0.0293 0.0532
v -0.0044 0.0293 0.0154
v 0.0449 0.0266 0.0075
v 0.0373 0.0304 0.0363
v 0.0374 0.0334 0.0360
v 0.0450 0.0296 0.0072
v 0.0759 0.0304 0.0465
v 0.0835 0.0266 0.0177
v 0.0836 0.0296 0.0174
v 0.0760 0.0334 0.0462
v 0.0836 0.0296 0.0174
v 0.0450 0.0296 0.0072
v 0.0374 0.0334 0.0360
v 0.0760 0.0334 0.0462
v 0.0759 0.0304 0.0465
v 0.0373 0.0304 0.0363
v 0.0449 0.0266 0.0075
v 0.0835 0.0266 0.0177
v 0.0835 0.0266 0.0177
v 0.0449 0.0266 0.0075
v 0.0450 0.0296 0.0072
v 0.0836 0.0296 0.0174
v 0.0373 0.0304 0.0363
v 0.0759 0.0304 0.0465
v 0.0760 0.0334 0.0462
v 0.0374 0.0334 0.0360
v 0.0174 0.0299 -0.0713
v -0.0122 0.0271 -0.0679
v -0.0125 0.0301 -0.0679
v 0.0172 0.0329 -0.0713
v -0.0076 0.0271 -0.0282
v 0.0220 0.0299 -0.0316
v 0.0217 0.0329 -0.0316
v -0.0079 0.0301 -0.0281
v 0.0217 0.0329 -0.0316
v 0.0172 0.0329 -0.0713
v -0.0125 0.0301 -0.0679
v -0.0079 0.0301 -0.0281
v -0.0076 0.0271 -0.0282
v -0.0122 0.0271 -0.0679
v 0.0174 0.0299 -0.0713
v 0.0220 0.0299 -0.0316
v 0.0220 0.0299 -0.0316
v 0.0174 0.0299 -0.0713
v 0.0172 0.0329 -0.0713
v 0.0217 0.0329 -0.0316
v -0.0122 0.0271 -0.0679
v -0.0076 0.0271 -0.0282
v -0.0079 0.0301 -0.0281
v -0.0125 0.0301 -0.0679
v 0.0431 0.0259 0.0338
v 0.0247 0.0312 0.0108
v 0.0251 0.0341 0.0112
v 0.0435 0.0288 0.0342
v -0.0065 0.0312 0.0357
v 0.0119 0.0259 0.0588
v 0.0122 0.0288 0.0592
v -0.0062 0.0341 0.0361
v 0.0122 0.0288 0.0592
v 0.0435 0.0288 0.0342
v 0.0251 0.0341 0.0112
v -0.0062 0.0341 0.0361
v -0.0065 0.0312 0.0357
v 0.0247 0.0312 0.0108
v 0.0431 0.0259 0.0338
v 0.0119 0.0259 0.0588
v 0.0119 0.0259 0.0588
v 0.0431 0.0259 0.0338
v 0.0435 0.0288 0.0342
v 0.0122 0.0288 0.0592
v 0.0247 0.0312 0.0108
v -0.0065 0.0312 0.0357
v -0.0062 0.0341 0.0361
v 0.0251 0.0341 0.0112
v 0.0415 0.0304 -0.1142
v 0.0240 0.0266 -0.0901
v 0.0238 0.0296 -0.0898
v 0.0412 0.0334 -0.1139
v 0.0564 0.0266 -0.0666
v 0.0739 0.0304 -0.0907
v 0.0736 0.0334 -0.0904
v 0.0562 0.0296 -0.0663
v 0.0736 0.0334 -0.0904
v 0.0412 0.0334 -0.1139
v 0.0238 0.0296 -0.0898
v 0.0562 0.0296 -0.0663
v 0.0564 0.0266 -0.0666
v 0.0240 0.0266 -0.0901
v 0.0415 0.0304 -0.1142
v 0.0739 0.0304 -0.0907
v 0.0739 0.0304 -0.0907
v 0.0415 0.0304 -0.1142
v 0.0412 0.0334 -0.1139
v 0.0736 0.0334 -0.0904
v 0.0240 0.0266 -0.0901
v 0.0564 0.0266 -0.0666
v 0.0562 0.0296 -0.0663
v 0.0238 0.0296 -0.0898
v -0.0342 0.0263 0.0557
v -0.0563 0.0307 0.0755
v -0.0560 0.0337 0.0752
v -0.0338 0.0293 0.0554
v -0.0297 0.0307 0.1053
v -0.0075 0.0263 0.0856
v -0.0072 0.0293 0.0853
v -0.0293 0.0337 0.1050
v -0.0072 0.0293 0.0853
v -0.0338 0.0293 0.0554
v -0.0560 0.0337 0.0752
v -0.0293 0.0337 0.1050
v -0.0297 0.0307 0.1053
v -0.0563 0.0307 0.0755
v -0.0342 0.0263 0.0557
v -0.0075 0.0263 0.0856
v -0.0075 0.0263 0.0856
v -0.0342 0.0263 0.0557
v -0.0338 0.0293 0.0554
v -0.0072 0.0293 0.0853
v -0.0563 0.0307 0.0755
v -0.0297 0.0307 0.1053
v -0.0293 0.0337 0.1050
v -0.0560 0.0337 0.0752
vt 0.0000 0.0000
vt 0.0260 0.0000
vt 0.0522 0.0000
vt 0.0783 0.0000
vt 0.1044 0.0000
vt 0.1305 0.0000
vt 0.1566 0.0000
vt 0.1827 0.0000
vt 0.2088 0.0000
vt 0.2349 0.0000
vt 0.2610 0.0000
vt 0.2871 0.0000
vt 0.3132 0.0000
vt 0.3393 0.0000
vt 0.3654 0.0000
vt 0.3915 0.0000
vt 0.4176 0.0000
vt 0.4437 0.0000
vt 0.4698 0.0000
vt 0.0000 0.0375
vt 0.0260 0.0375
vt 0.0522 0.0375
vt 0.0783 0.0375
vt 0.1044 0.0375
vt 0.1305 0.0375
vt 0.1566 0.0375
vt 0.1827 0.0375
vt 0.2088 0.0375
vt 0.2349 0.0375
vt 0.2610 0.0375
vt 0.2871 0.0375
vt 0.3132 0.0375
vt 0.3393 0.0375
vt 0.3654 0.0375
vt 0.3915 0.0375
vt 0.4176 0.0375
vt 0.4437 0.0375
vt 0.4698 0.0375
vt 0.0000 0.0750
vt 0.0260 0.0750
vt 0.0522 0.0750
vt 0.0783 0.0750
vt 0.1044 0.0750
vt 0.1305 0.0750
vt 0.1566 0.0750
vt 0.1827 0.0750
vt 0.2088 0.0750
vt 0.2349 0.0750
vt 0.2610 0.0750
vt 0.2871 0.0750
vt 0.3132 0.0750
vt 0.3393 0.0750
vt 0.3654 0.0750
vt 0.3915 0.0750
vt 0.4176 0.0750
vt 0.4437 0.0750
vt 0.4698 0.0750
vt 0.0000 0.1126
vt 0.0260 0.1126
vt 0.0522 0.1126
vt 0.0783 0.1126
vt 0.1044 0.1126
vt 0.1305 0.1126
vt 0.1566 0.1126
vt 0.1827 0.1126
vt 0.2088 0.1126
vt 0.2349 0.1126
vt 0.2610 0.1126
vt 0.2871 0.1126
vt 0.3132 0.1126
vt 0.3393 0.1126
vt 0.3654 0.1126
vt 0.3915 0.1126
vt 0.4176 0.1126
vt 0.4437 0.1126
vt 0.4698 0.1126
vt 0.0000 0.1504
vt 0.0260 0.1504
vt 0.0522 0.1504
vt 0.0783 0.1504
vt 0.1044 0.1504
vt 0.1305 0.1504
vt 0.1566 0.1504
vt 0.1827 0.1504
vt 0.2088 0.1504
vt 0.2349 0.1504
vt 0.2610 0.1504
vt 0.2871 0.1504
vt 0.3132 0.1504
vt 0.3393 0.1504
vt 0.3654 0.1504
vt 0.3915 0.1504
vt 0.4176 0.1504
vt 0.4437 0.1504
vt 0.4698 0.1504
vt 0.0000 0.0000
vt 0.0300 0.0000
vt 0.0300 0.0030
vt 0.0000 0.0030
vt 0.0000 0.0000
vt 0.0300 0.0000
vt 0.0300 0.0030
vt 0.0000 0.0030
vt 0.0000 0.0000
vt 0.0400 0.0000
vt 0.0400 0.0300
vt 0.0000 0.0300
vt 0.0000 0.0000
vt 0.0400 0.0000
vt 0.0400 0.0300
vt 0.0000 0.0300
vt 0.0000 0.0000
vt 0.0400 0.0000
vt 0.0400 0.0030
vt 0.0000 0.0030
vt 0.0000 0.0000
vt 0.0400 0.0000
vt 0.0400 0.0030
vt 0.0000 0.0030
vt 0.0000 0.0000
vt 0.0300 0.0000
vt 0.0300 0.0030
vt 0.0000 0.0030
vt 0.0000 0.0000
vt 0.0300 0.0000
vt 0.0300 0.0030
vt 0.0000 0.0030
vt 0.0000 0.0000
vt 0.0400 0.0000
vt 0.0400 0.0300
vt 0.0000 0.0300
vt 0.0000 0.0000
vt 0.0400 0.0000
vt 0.0400 0.0300
vt 0.0000 0.0300
vt 0.0000 0.0000
vt 0.0400 0.0000
vt 0.0400 0.0030
vt 0.0000 0.0030
vt 0.0000 0.0000
vt 0.0400 0.0000
vt 0.0400 0.0030
vt 0.0000 0.0030
vt 0.0000 0.0000
vt 0.0300 0.0000
vt 0.0300 0.0030
vt 0.0000 0.0030
vt 0.0000 0.0000
vt 0.0300 0.0000
vt 0.0300 0.0030
vt 0.0000 0.0030
vt 0.0000 0.0000
vt 0.0400 0.0000
vt 0.0400 0.0300
vt 0.0000 0.0300
vt 0.0000 0.0000
vt 0.0400 0.0000
vt 0.0400 0.0300
vt 0.0000 0.0300
vt 0.0000 0.0000
vt 0.0400 0.0000
vt 0.0400 0.0030
vt 0.0000 0.0030
vt 0.0000 0.0000
vt 0.0400 0.0000
vt 0.0400 0.0030
vt 0.0000 0.0030
vt 0.0000 0.0000
vt 0.0300 0.0000
vt 0.0300 0.0030
vt 0.0000 0.0030
vt 0.0000 0.0000
vt 0.0300 0.0000
vt 0.0300 0.0030
vt 0.0000 0.0030
vt 0.0000 0.0000
vt 0.0400 0.0000
vt 0.0400 0.0300
vt 0.0000 0.0300
vt 0.0000 0.0000
vt 0.0400 0.0000
vt 0.0400 0.0300
vt 0.0000 0.0300
vt 0.0000 0.0000
vt 0.0400 0.0000
vt 0.0400 0.0030
vt 0.0000 0.0030
vt 0.0000 0.0000
vt 0.0400 0.0000
vt 0.0400 0.0030
vt 0.0000 0.0030
vt 0.0000 0.0000
vt 0.0300 0.0000
vt 0.0300 0.0030
vt 0.0000 0.0030
vt 0.0000 0.0000
vt 0.0300 0.0000
vt 0.0300 0.0030
vt 0.0000 0.0030
vt 0.0000 0.0000
vt 0.0400 0.0000
vt 0.0400 0.0300
vt 0.0000 0.0300
vt 0.0000 0.0000
vt 0.0400 0.0000
vt 0.0400 0.0300
vt 0.0000 0.0300
vt 0.0000 0.0000
vt 0.0400 0.0000
vt 0.0400 0.0030
vt 0.0000 0.0030
vt 0.0000 0.0000
vt 0.0400 0.0000
vt 0.0400 0.0030
vt 0.0000 0.0030
vt 0.0000 0.0000
vt 0.0300 0.0000
vt 0.0300 0.0030
vt 0.0000 0.0030
vt 0.0000 0.0000
vt 0.0300 0.0000
vt 0.0300 0.0030
vt 0.0000 0.0030
vt 0.0000 0.0000
vt 0.0400 0.0000
vt 0.0400 0.0300
vt 0.0000 0.0300
vt 0.0000 0.0000
vt 0.0400 0.0000
vt 0.0400 0.0300
vt 0.0000 0.0300
vt 0.0000 0.0000
vt 0.0400 0.0000
vt 0.0400 0.0030
vt 0.0000 0.0030
vt 0.0000 0.0000
vt 0.0400 0.0000
vt 0.0400 0.0030
vt 0.0000 0.0030
vn -0.000 0.000 1.000
vn -0.342 -0.000 -0.940
vn -0.643 -0.000 -0.766
vn -0.866 -0.000 -0.500
vn 0.985 -0.000 0.174
vn 0.985 0.000 -0.174
vn 0.866 -0.000 -0.500
vn -0.643 -0.000 0.766
vn -0.342 -0.000 0.940
vn -0.000 -0.000 1.000
vn -0.342 0.000 -0.940
vn -0.643 0.000 -0.766
vn -0.866 0.000 -0.500
vn 0.985 0.000 0.174
vn 0.985 -0.000 -0.174
vn 0.866 -0.000 -0.500
vn -0.643 -0.000 0.766
vn -0.342 0.000 0.940
vn -0.000 0.000 1.000
vn 0.035 0.991 0.130
vn -0.004 0.993 -0.116
vn -0.145 0.972 -0.187
vn -0.122 0.991 -0.049
vn 0.106 0.994 0.039
vn 0.231 0.972 -0.047
vn 0.095 0.991 -0.095
vn -0.099 0.993 0.062
vn -0.089 0.972 0.219
vn 0.019 0.991 0.130
vn -0.019 0.994 -0.111
vn -0.156 0.972 -0.177
vn -0.130 0.991 -0.035
vn 0.103 0.993 0.055
vn 0.234 0.972 -0.032
vn 0.103 0.991 -0.081
vn -0.087 0.994 0.072
vn -0.075 0.972 0.224
vn 0.035 0.991 0.130
vn -0.005 0.999 0.044
vn -0.016 0.999 -0.034
vn -0.075 0.996 -0.042
vn -0.067 0.997 0.029
vn 0.026 0.997 0.066
vn 0.085 0.996 0.019
vn 0.040 0.999 -0.017
vn -0.021 0.999 0.031
vn 0.001 0.996 0.086
vn 0.059 0.997 0.044
vn 0.044 0.997 -0.055
vn -0.026 0.996 -0.083
vn -0.035 0.999 -0.026
vn 0.037 0.999 0.003
vn 0.074 0.996 -0.044
vn 0.008 0.997 -0.073
vn -0.070 0.997 -0.010
vn -0.059 0.996 0.064
vn -0.005 0.999 0.044
vn -0.045 0.999 0.015
vn -0.045 0.999 0.003
vn -0.071 0.997 0.025
vn -0.062 0.995 0.078
vn -0.005 0.995 0.101
vn 0.039 0.997 0.068
vn 0.035 0.999 0.032
vn 0.025 0.999 0.037
vn 0.057 0.997 0.049
vn 0.098 0.995 0.015
vn 0.090 0.995 -0.046
vn 0.039 0.997 -0.068
vn 0.010 0.999 -0.046
vn 0.020 0.999 -0.041
vn 0.014 0.997 -0.074
vn -0.037 0.995 -0.093
vn -0.084 0.995 -0.055
vn -0.078 0.997 0.000
vn -0.045 0.999 0.015
vn -0.065 0.998 -0.000
vn -0.060 0.998 0.022
vn -0.069 0.996 0.058
vn -0.059 0.993 0.102
vn -0.021 0.993 0.118
vn 0.016 0.996 0.092
vn 0.032 0.998 0.056
vn 0.049 0.998 0.041
vn 0.085 0.996 0.031
vn 0.118 0.993 -0.000
vn 0.112 0.993 -0.041
vn 0.071 0.996 -0.060
vn 0.032 0.998 -0.056
vn 0.011 0.998 -0.062
vn -0.016 0.996 -0.089
vn -0.059 0.993 -0.102
vn -0.092 0.993 -0.077
vn -0.087 0.996 -0.032
vn -0.065 0.998 -0.000
vn 0.321 0.000 -0.947
vn 0.321 0.000 -0.947
vn 0.321 0.000 -0.947
vn 0.321 0.000 -0.947
vn -0.321 -0.000 0.947
vn -0.321 -0.000 0.947
vn -0.321 -0.000 0.947
vn -0.321 -0.000 0.947
vn -0.136 0.990 -0.046
vn -0.136 0.990 -0.046
vn -0.136 0.990 -0.046
vn -0.136 0.990 -0.046
vn 0.136 -0.990 0.046
vn 0.136 -0.990 0.046
vn 0.136 -0.990 0.046
vn 0.136 -0.990 0.046
vn 0.937 0.144 0.317
vn 0.937 0.144 0.317
vn 0.937 0.144 0.317
vn 0.937 0.144 0.317
vn -0.937 -0.144 -0.317
vn -0.937 -0.144 -0.317
vn -0.937 -0.144 -0.317
vn -0.937 -0.144 -0.317
vn -0.967 0.000 -0.255
vn -0.967 0.000 -0.255
vn -0.967 0.000 -0.255
vn -0.967 0.000 -0.255
vn 0.967 0.000 0.255
vn 0.967 0.000 0.255
vn 0.967 0.000 0.255
vn 0.967 0.000 0.255
vn 0.032 0.992 -0.121
vn 0.032 0.992 -0.121
vn 0.032 0.992 -0.121
vn 0.032 0.992 -0.121
vn -0.032 -0.992 0.121
vn -0.032 -0.992 0.121
vn -0.032 -0.992 0.121
vn -0.032 -0.992 0.121
vn 0.253 -0.126 -0.959
vn 0.253 -0.126 -0.959
vn 0.253 -0.126 -0.959
vn 0.253 -0.126 -0.959
vn -0.253 0.126 0.959
vn -0.253 0.126 0.959
vn -0.253 0.126 0.959
vn -0.253 0.126 0.959
vn -0.115 0.000 -0.993
vn -0.115 0.000 -0.993
vn -0.115 0.000 -0.993
vn -0.115 0.000 -0.993
vn 0.115 0.000 0.993
vn 0.115 0.000 0.993
vn 0.115 0.000 0.993
vn 0.115 0.000 0.993
vn -0.093 0.996 0.011
vn -0.093 0.996 0.011
vn -0.093 0.996 0.011
vn -0.093 0.996 0.011
vn 0.093 -0.996 -0.011
vn 0.093 -0.996 -0.011
vn 0.093 -0.996 -0.011
vn 0.093 -0.996 -0.011
vn 0.989 0.093 -0.114
vn 0.989 0.093 -0.114
vn 0.989 0.093 -0.114
vn 0.989 0.093 -0.114
vn -0.989 -0.093 0.114
vn -0.989 -0.093 0.114
vn -0.989 -0.093 0.114
vn -0.989 -0.093 0.114
vn 0.782 0.000 -0.624
vn 0.782 0.000 -0.624
vn 0.782 0.000 -0.624
vn 0.782 0.000 -0.624
vn -0.782 -0.000 0.624
vn -0.782 -0.000 0.624
vn -0.782 -0.000 0.624
vn -0.782 -0.000 0.624
vn 0.111 0.984 0.139
vn 0.111 0.984 0.139
vn 0.111 0.984 0.139
vn 0.111 0.984 0.139
vn -0.111 -0.984 -0.139
vn -0.111 -0.984 -0.139
vn -0.111 -0.984 -0.139
vn -0.111 -0.984 -0.139
vn 0.614 -0.178 0.769
vn 0.614 -0.178 0.769
vn 0.614 -0.178 0.769
vn 0.614 -0.178 0.769
vn -0.614 0.178 -0.769
vn -0.614 0.178 -0.769
vn -0.614 0.178 -0.769
vn -0.614 0.178 -0.769
vn -0.810 0.000 -0.587
vn -0.810 0.000 -0.587
vn -0.810 0.000 -0.587
vn -0.810 0.000 -0.587
vn 0.810 -0.000 0.587
vn 0.810 -0.000 0.587
vn 0.810 -0.000 0.587
vn 0.810 -0.000 0.587
vn -0.075 0.992 0.104
vn -0.075 0.992 0.104
vn -0.075 0.992 0.104
vn -0.075 0.992 0.104
vn 0.075 -0.992 -0.104
vn 0.075 -0.992 -0.104
vn 0.075 -0.992 -0.104
vn 0.075 -0.992 -0.104
vn 0.582 0.128 -0.803
vn 0.582 0.128 -0.803
vn 0.582 0.128 -0.803
vn 0.582 0.128 -0.803
vn -0.582 -0.128 0.803
vn -0.582 -0.128 0.803
vn -0.582 -0.128 0.803
vn -0.582 -0.128 0.803
vn -0.666 0.000 -0.746
vn -0.666 0.000 -0.746
vn -0.666 0.000 -0.746
vn -0.666 0.000 -0.746
vn 0.666 -0.000 0.746
vn 0.666 -0.000 0.746
vn 0.666 -0.000 0.746
vn 0.666 -0.000 0.746
vn 0.110 0.989 -0.099
vn 0.110 0.989 -0.099
vn 0.110 0.989 -0.099
vn 0.110 0.989 -0.099
vn -0.110 -0.989 0.099
vn -0.110 -0.989 0.099
vn -0.110 -0.989 0.099
vn -0.110 -0.989 0.099
vn 0.738 -0.148 -0.658
vn 0.738 -0.148 -0.658
vn 0.738 -0.148 -0.658
vn 0.738 -0.148 -0.658
vn -0.738 0.148 0.658
vn -0.738 0.148 0.658
vn -0.738 0.148 0.658
vn -0.738 0.148 0.658
usemtl iron
f 1/1/1 12/12/12 13/13/13
f 1/1/1 13/13/13 2/2/2
f 2/2/2 13/13/13 14/14/14
f 2/2/2 14/14/14 3/3/3
f 3/3/3 14/14/14 15/15/15
f 3/3/3 15/15/15 4/4/4
f 4/4/4 15/15/15 16/16/16
f 4/4/4 16/16/16 5/5/5
f 5/5/5 16/16/16 17/17/17
f 5/5/5 17/17/17 6/6/6
f 6/6/6 17/17/17 18/18/18
f 6/6/6 18/18/18 7/7/7
f 7/7/7 18/18/18 19/19/19
f 7/7/7 19/19/19 8/8/8
f 8/8/8 19/19/19 20/20/20
f 8/8/8 20/20/20 9/9/9
f 9/9/9 20/20/20 21/21/21
f 9/9/9 21/21/21 10/10/10
f 10/10/10 21/21/21 22/22/22
f 10/10/10 22/22/22 11/11/11
f 12/12/12 23/23/23 24/24/24
f 12/12/12 24/24/24 13/13/13
f 13/13/13 24/24/24 25/25/25
f 13/13/13 25/25/25 14/14/14
f 14/14/14 25/25/25 26/26/26
f 14/14/14 26/26/26 15/15/15
f 15/15/15 26/26/26 27/27/27
f 15/15/15 27/27/27 16/16/16
f 16/16/16 27/27/27 28/28/28
f 16/16/16 28/28/28 17/17/17
f 17/17/17 28/28/28 29/29/29
f 17/17/17 29/29/29 18/18/18
f 18/18/18 29/29/29 30/30/30
f 18/18/18 30/30/30 19/19/19
f 19/19/19 30/30/30 31/31/31
f 19/19/19 31/31/31 20/20/20
f 20/20/20 31/31/31 32/32/32
f 20/20/20 32/32/32 21/21/21
f 21/21/21 32/32/32 33/33/33
f 21/21/21 33/33/33 22/22/22
f 23/23/23 34/34/34 35/35/35
f 23/23/23 35/35/35 24/24/24
f 24/24/24 35/35/35 36/36/36
f 24/24/24 36/36/36 25/25/25
f 25/25/25 36/36/36 37/37/37
f 25/25/25 37/37/37 26/26/26
f 26/26/26 37/37/37 38/38/38
f 26/26/26 38/38/38 27/27/27
f 27/27/27 38/38/38 39/39/39
f 27/27/27 39/39/39 28/28/28
f 28/28/28 39/39/39 40/40/40
f 28/28/28 40/40/40 29/29/29
f 29/29/29 40/40/40 41/41/41
f 29/29/29 41/41/41 30/30/30
f 30/30/30 41/41/41 42/42/42
f 30/30/30 42/42/42 31/31/31
f 31/31/31 42/42/42 43/43/43
f 31/31/31 43/43/43 32/32/32
f 32/32/32 43/43/43 44/44/44
f 32/32/32 44/44/44 33/33/33
f 34/34/34 45/45/45 46/46/46
f 34/34/34 46/46/46 35/35/35
f 35/35/35 46/46/46 47/47/47
f 35/35/35 47/47/47 36/36/36
f 36/36/36 47/47/47 48/48/48
f 36/36/36 48/48/48 37/37/37
f 37/37/37 48/48/48 49/49/49
f 37/37/37 49/49/49 38/38/38
f 38/38/38 49/49/49 50/50/50
f 38/38/38 50/50/50 39/39/39
f 39/39/39 50/50/50 51/51/51
f 39/39/39 51/51/51 40/40/40
f 40/40/40 51/51/51 52/52/52
f 40/40/40 52/52/52 41/41/41
f 41/41/41 52/52/52 53/53/53
f 41/41/41 53/53/53 42/42/42
f 42/42/42 53/53/53 54/54/54
f 42/42/42 54/54/54 43/43/43
f 43/43/43 54/54/54 55/55/55
f 43/43/43 55/55/55 44/44/44
f 45/45/45 56/56/56 57/57/57
f 45/45/45 57/57/57 46/46/46
f 46/46/46 57/57/57 58/58/58
f 46/46/46 58/58/58 47/47/47
f 47/47/47 58/58/58 59/59/59
f 47/47/47 59/59/59 48/48/48
f 48/48/48 59/59/59 60/60/60
f 48/48/48 60/60/60 49/49/49
f 49/49/49 60/60/60 61/61/61
f 49/49/49 61/61/61 50/50/50
f 50/50/50 61/61/61 62/62/62
f 50/50/50 62/62/62 51/51/51
f 51/51/51 62/62/62 63/63/63
f 51/51/51 63/63/63 52/52/52
f 52/52/52 63/63/63 64/64/64
f 52/52/52 64/64/64 53/53/53
f 53/53/53 64/64/64 65/65/65
f 53/53/53 65/65/65 54/54/54
f 54/54/54 65/65/65 66/66/66
f 54/54/54 66/66/66 55/55/55
f 56/56/56 67/67/67 68/68/68
f 56/56/56 68/68/68 57/57/57
f 57/57/57 68/68/68 69/69/69
f 57/57/57 69/69/69 58/58/58
f 58/58/58 69/69/69 70/70/70
f 58/58/58 70/70/70 59/59/59
f 59/59/59 70/70/70 71/71/71
f 59/59/59 71/71/71 60/60/60
f 60/60/60 71/71/71 72/72/72
f 60/60/60 72/72/72 61/61/61
f 61/61/61 72/72/72 73/73/73
f 61/61/61 73/73/73 62/62/62
f 62/62/62 73/73/73 74/74/74
f 62/62/62 74/74/74 63/63/63
f 63/63/63 74/74/74 75/75/75
f 63/63/63 75/75/75 64/64/64
f 64/64/64 75/75/75 76/76/76
f 64/64/64 76/76/76 65/65/65
f 65/65/65 76/76/76 77/77/77
f 65/65/65 77/77/77 66/66/66
f 67/67/67 78/78/78 79/79/79
f 67/67/67 79/79/79 68/68/68
f 68/68/68 79/79/79 80/80/80
f 68/68/68 80/80/80 69/69/69
f 69/69/69 80/80/80 81/81/81
f 69/69/69 81/81/81 70/70/70
f 70/70/70 81/81/81 82/82/82
f 70/70/70 82/82/82 71/71/71
f 71/71/71 82/82/82 83/83/83
f 71/71/71 83/83/83 72/72/72
f 72/72/72 83/83/83 84/84/84
f 72/72/72 84/84/84 73/73/73
f 73/73/73 84/84/84 85/85/85
f 73/73/73 85/85/85 74/74/74
f 74/74/74 85/85/85 86/86/86
f 74/74/74 86/86/86 75/75/75
f 75/75/75 86/86/86 87/87/87
f 75/75/75 87/87/87 76/76/76
f 76/76/76 87/87/87 88/88/88
f 76/76/76 88/88/88 77/77/77
f 78/78/78 89/89/89 90/90/90
f 78/78/78 90/90/90 79/79/79
f 79/79/79 90/90/90 91/91/91
f 79/79/79 91/91/91 80/80/80
f 80/80/80 91/91/91 92/92/92
f 80/80/80 92/92/92 81/81/81
f 81/81/81 92/92/92 93/93/93
f 81/81/81 93/93/93 82/82/82
f 82/82/82 93/93/93 94/94/94
f 82/82/82 94/94/94 83/83/83
f 83/83/83 94/94/94 95/95/95
f 83/83/83 95/95/95 84/84/84
f 84/84/84 95/95/95 96/96/96
f 84/84/84 96/96/96 85/85/85
f 85/85/85 96/96/96 97/97/97
f 85/85/85 97/97/97 86/86/86
f 86/86/86 97/97/97 98/98/98
f 86/86/86 98/98/98 87/87/87
f 87/87/87 98/98/98 99/99/99
f 87/87/87 99/99/99 88/88/88
f 89/89/89 100/100/100 101/101/101
f 89/89/89 101/101/101 90/90/90
f 90/90/90 101/101/101 102/102/102
f 90/90/90 102/102/102 91/91/91
f 91/91/91 102/102/102 103/103/103
f 91/91/91 103/103/103 92/92/92
f 92/92/92 103/103/103 104/104/104
f 92/92/92 104/104/104 93/93/93
f 93/93/93 104/104/104 105/105/105
f 93/93/93 105/105/105 94/94/94
f 94/94/94 105/105/105 106/106/106
f 94/94/94 106/106/106 95/95/95
f 95/95/95 106/106/106 107/107/107
f 95/95/95 107/107/107 96/96/96
f 96/96/96 107/107/107 108/108/108
f 96/96/96 108/108/108 97/97/97
f 97/97/97 108/108/108 109/109/109
f 97/97/97 109/109/109 98/98/98
f 98/98/98 109/109/109 110/110/110
f 98/98/98 110/110/110 99/99/99
f 100/100/100 111/111/111 112/112/112
f 100/100/100 112/112/112 101/101/101
f 101/101/101 112/112/112 113/113/113
f 101/101/101 113/113/113 102/102/102
f 102/102/102 113/113/113 114/114/114
f 102/102/102 114/114/114 103/103/103
f 103/103/103 114/114/114 115/115/115
f 103/103/103 115/115/115 104/104/104
f 104/104/104 115/115/115 116/116/116
f 104/104/104 116/116/116 105/105/105
f 105/105/105 116/116/116 117/117/117
f 105/105/105 117/117/117 106/106/106
f 106/106/106 117/117/117 118/118/118
f 106/106/106 118/118/118 107/107/107
f 107/107/107 118/118/118 119/119/119
f 107/107/107 119/119/119 108/108/108
f 108/108/108 119/119/119 120/120/120
f 108/108/108 120/120/120 109/109/109
f 109/109/109 120/120/120 121/121/121
f 109/109/109 121/121/121 110/110/110
f 111/111/111 122/122/122 123/123/123
f 111/111/111 123/123/123 112/112/112
f 112/112/112 123/123/123 124/124/124
f 112/112/112 124/124/124 113/113/113
f 113/113/113 124/124/124 125/125/125
f 113/113/113 125/125/125 114/114/114
f 114/114/114 125/125/125 126/126/126
f 114/114/114 126/126/126 115/115/115
f 115/115/115 126/126/126 127/127/127
f 115/115/115 127/127/127 116/116/116
f 116/116/116 127/127/127 128/128/128
f 116/116/116 128/128/128 117/117/117
f 117/117/117 128/128/128 129/129/129
f 117/117/117 129/129/129 118/118/118
f 118/118/118 129/129/129 130/130/130
f 118/118/118 130/130/130 119/119/119
f 119/119/119 130/130/130 131/131/131
f 119/119/119 131/131/131 120/120/120
f 120/120/120 131/131/131 132/132/132
f 120/120/120 132/132/132 121/121/121
f 122/122/122 133/133/133 134/134/134
f 122/122/122 134/134/134 123/123/123
f 123/123/123 134/134/134 135/135/135
f 123/123/123 135/135/135 124/124/124
f 124/124/124 135/135/135 136/136/136
f 124/124/124 136/136/136 125/125/125
f 125/125/125 136/136/136 137/137/137
f 125/125/125 137/137/137 126/126/126
f 126/126/126 137/137/137 138/138/138
f 126/126/126 138/138/138 127/127/127
f 127/127/127 138/138/138 139/139/139
f 127/127/127 139/139/139 128/128/128
f 128/128/128 139/139/139 140/140/140
f 128/128/128 140/140/140 129/129/129
f 129/129/129 140/140/140 141/141/141
f 129/129/129 141/141/141 130/130/130
f 130/130/130 141/141/141 142/142/142
f 130/130/130 142/142/142 131/131/131
f 131/131/131 142/142/142 143/143/143
f 131/131/131 143/143/143 132/132/132
f 133/133/133 144/144/144 145/145/145
f 133/133/133 145/145/145 134/134/134
f 134/134/134 145/145/145 146/146/146
f 134/134/134 146/146/146 135/135/135
f 135/135/135 146/146/146 147/147/147
f 135/135/135 147/147/147 136/136/136
f 136/136/136 147/147/147 148/148/148
f 136/136/136 148/148/148 137/137/137
f 137/137/137 148/148/148 149/149/149
f 137/137/137 149/149/149 138/138/138
f 138/138/138 149/149/149 150/150/150
f 138/138/138 150/150/150 139/139/139
f 139/139/139 150/150/150 151/151/151
f 139/139/139 151/151/151 140/140/140
f 140/140/140 151/151/151 152/152/152
f 140/140/140 152/152/152 141/141/141
f 141/141/141 152/152/152 153/153/153
f 141/141/141 153/153/153 142/142/142
f 142/142/142 153/153/153 154/154/154
f 142/142/142 154/154/154 143/143/143
f 144/144/144 155/155/155 156/156/156
f 144/144/144 156/156/156 145/145/145
f 145/145/145 156/156/156 157/157/157
f 145/145/145 157/157/157 146/146/146
f 146/146/146 157/157/157 158/158/158
f 146/146/146 158/158/158 147/147/147
f 147/147/147 158/158/158 159/159/159
f 147/147/147 159/159/159 148/148/148
f 148/148/148 159/159/159 160/160/160
f 148/148/148 160/160/160 149/149/149
f 149/149/149 160/160/160 161/161/161
f 149/149/149 161/161/161 150/150/150
f 150/150/150 161/161/161 162/162/162
f 150/150/150 162/162/162 151/151/151
f 151/151/151 162/162/162 163/163/163
f 151/151/151 163/163/163 152/152/152
f 152/152/152 163/163/163 164/164/164
f 152/152/152 164/164/164 153/153/153
f 153/153/153 164/164/164 165/165/165
f 153/153/153 165/165/165 154/154/154
f 155/155/155 166/166/166 167/167/167
f 155/155/155 167/167/167 156/156/156
f 156/156/156 167/167/167 168/168/168
f 156/156/156 168/168/168 157/157/157
f 157/157/157 168/168/168 169/169/169
f 157/157/157 169/169/169 158/158/158
f 158/158/158 169/169/169 170/170/170
f 158/158/158 170/170/170 159/159/159
f 159/159/159 170/170/170 171/171/171
f 159/159/159 171/171/171 160/160/160
f 160/160/160 171/171/171 172/172/172
f 160/160/160 172/172/172 161/161/161
f 161/161/161 172/172/172 173/173/173
f 161/161/161 173/173/173 162/162/162
f 162/162/162 173/173/173 174/174/174
f 162/162/162 174/174/174 163/163/163
f 163/163/163 174/174/174 175/175/175
f 163/163/163 175/175/175 164/164/164
f 164/164/164 175/175/175 176/176/176
f 164/164/164 176/176/176 165/165/165
f 166/166/166 177/177/177 178/178/178
f 166/166/166 178/178/178 167/167/167
f 167/167/167 178/178/178 179/179/179
f 167/167/167 179/179/179 168/168/168
f 168/168/168 179/179/179 180/180/180
f 168/168/168 180/180/180 169/169/169
f 169/169/169 180/180/180 181/181/181
f 169/169/169 181/181/181 170/170/170
f 170/170/170 181/181/181 182/182/182
f 170/170/170 182/182/182 171/171/171
f 171/171/171 182/182/182 183/183/183
f 171/171/171 183/183/183 172/172/172
f 172/172/172 183/183/183 184/184/184
f 172/172/172 184/184/184 173/173/173
f 173/173/173 184/184/184 185/185/185
f 173/173/173 185/185/185 174/174/174
f 174/174/174 185/185/185 186/186/186
f 174/174/174 186/186/186 175/175/175
f 175/175/175 186/186/186 187/187/187
f 175/175/175 187/187/187 176/176/176
f 177/177/177 188/188/188 189/189/189
f 177/177/177 189/189/189 178/178/178
f 178/178/178 189/189/189 190/190/190
f 178/178/178 190/190/190 179/179/179
f 179/179/179 190/190/190 191/191/191
f 179/179/179 191/191/191 180/180/180
f 180/180/180 191/191/191 192/192/192
f 180/180/180 192/192/192 181/181/181
f 181/181/181 192/192/192 193/193/193
f 181/181/181 193/193/193 182/182/182
f 182/182/182 193/193/193 194/194/194
f 182/182/182 194/194/194 183/183/183
f 183/183/183 194/194/194 195/195/195
f 183/183/183 195/195/195 184/184/184
f 184/184/184 195/195/195 196/196/196
f 184/184/184 196/196/196 185/185/185
f 185/185/185 196/196/196 197/197/197
f 185/185/185 197/197/197 186/186/186
f 186/186/186 197/197/197 198/198/198
f 186/186/186 198/198/198 187/187/187
f 188/188/188 199/199/199 200/200/200
f 188/188/188 200/200/200 189/189/189
f 189/189/189 200/200/200 201/201/201
f 189/189/189 201/201/201 190/190/190
f 190/190/190 201/201/201 202/202/202
f 190/190/190 202/202/202 191/191/191
f 191/191/191 202/202/202 203/203/203
f 191/191/191 203/203/203 192/192/192
f 192/192/192 203/203/203 204/204/204
f 192/192/192 204/204/204 193/193/193
f 193/193/193 204/204/204 205/205/205
f 193/193/193 205/205/205 194/194/194
f 194/194/194 205/205/205 206/206/206
f 194/194/194 206/206/206 195/195/195
f 195/195/195 206/206/206 207/207/207
f 195/195/195 207/207/207 196/196/196
f 196/196/196 207/207/207 208/208/208
f 196/196/196 208/208/208 197/197/197
f 197/197/197 208/208/208 209/209/209
f 197/197/197 209/209/209 198/198/198
f 199/199/199 210/210/210 211/211/211
f 199/199/199 211/211/211 200/200/200
f 200/200/200 211/211/211 212/212/212
f 200/200/200 212/212/212 201/201/201
f 201/201/201 212/212/212 213/213/213
f 201/201/201 213/213/213 202/202/202
f 202/202/202 213/213/213 214/214/214
f 202/202/202 214/214/214 203/203/203
f 203/203/203 214/214/214 215/215/215
f 203/203/203 215/215/215 204/204/204
f 204/204/204 215/215/215 216/216/216
f 204/204/204 216/216/216 205/205/205
f 205/205/205 216/216/216 217/217/217
f 205/205/205 217/217/217 206/206/206
f 206/206/206 217/217/217 218/218/218
f 206/206/206 218/218/218 207/207/207
f 207/207/207 218/218/218 219/219/219
f 207/207/207 219/219/219 208/208/208
f 208/208/208 219/219/219 220/220/220
f 208/208/208 220/220/220 209/209/209
f 210/210/210 221/221/221 222/222/222
f 210/210/210 222/222/222 211/211/211
f 211/211/211 222/222/222 223/223/223
f 211/211/211 223/223/223 212/212/212
f 212/212/212 223/223/223 224/224/224
f 212/212/212 224/224/224 213/213/213
f 213/213/213 224/224/224 225/225/225
f 213/213/213 225/225/225 214/214/214
f 214/214/214 225/225/225 226/226/226
f 214/214/214 226/226/226 215/215/215
f 215/215/215 226/226/226 227/227/227
f 215/215/215 227/227/227 216/216/216
f 216/216/216 227/227/227 228/228/228
f 216/216/216 228/228/228 217/217/217
f 217/217/217 228/228/228 229/229/229
f 217/217/217 229/229/229 218/218/218
f 218/218/218 229/229/229 230/230/230
f 218/218/218 230/230/230 219/219/219
f 219/219/219 230/230/230 231/231/231
f 219/219/219 231/231/231 220/220/220
f 221/221/221 232/232/232 233/233/233
f 221/221/221 233/233/233 222/222/222
f 222/222/222 233/233/233 234/234/234
f 222/222/222 234/234/234 223/223/223
f 223/223/223 234/234/234 235/235/235
f 223/223/223 235/235/235 224/224/224
f 224/224/224 235/235/235 236/236/236
f 224/224/224 236/236/236 225/225/225
f 225/225/225 236/236/236 237/237/237
f 225/225/225 237/237/237 226/226/226
f 226/226/226 237/237/237 238/238/238
f 226/226/226 238/238/238 227/227/227
f 227/227/227 238/238/238 239/239/239
f 227/227/227 239/239/239 228/228/228
f 228/228/228 239/239/239 240/240/240
f 228/228/228 240/240/240 229/229/229
f 229/229/229 240/240/240 241/241/241
f 229/229/229 241/241/241 230/230/230
f 230/230/230 241/241/241 242/242/242
f 230/230/230 242/242/242 231/231/231
f 232/232/232 243/243/243 244/244/244
f 232/232/232 244/244/244 233/233/233
f 233/233/233 244/244/244 245/245/245
f 233/233/233 245/245/245 234/234/234
f 234/234/234 245/245/245 246/246/246
f 234/234/234 246/246/246 235/235/235
f 235/235/235 246/246/246 247/247/247
f 235/235/235 247/247/247 236/236/236
f 236/236/236 247/247/247 248/248/248
f 236/236/236 248/248/248 237/237/237
f 237/237/237 248/248/248 249/249/249
f 237/237/237 249/249/249 238/238/238
f 238/238/238 249/249/249 250/250/250
f 238/238/238 250/250/250 239/239/239
f 239/239/239 250/250/250 251/251/251
f 239/239/239 251/251/251 240/240/240
f 240/240/240 251/251/251 252/252/252
f 240/240/240 252/252/252 241/241/241
f 241/241/241 252/252/252 253/253/253
f 241/241/241 253/253/253 242/242/242
f 243/243/243 254/254/254 255/255/255
f 243/243/243 255/255/255 244/244/244
f 244/244/244 255/255/255 256/256/256
f 244/244/244 256/256/256 245/245/245
f 245/245/245 256/256/256 257/257/257
f 245/245/245 257/257/257 246/246/246
f 246/246/246 257/257/257 258/258/258
f 246/246/246 258/258/258 247/247/247
f 247/247/247 258/258/258 259/259/259
f 247/247/247 259/259/259 248/248/248
f 248/248/248 259/259/259 260/260/260
f 248/248/248 260/260/260 249/249/249
f 249/249/249 260/260/260 261/261/261
f 249/249/249 261/261/261 250/250/250
f 250/250/250 261/261/261 262/262/262
f 250/250/250 262/262/262 251/251/251
f 251/251/251 262/262/262 263/263/263
f 251/251/251 263/263/263 252/252/252
f 252/252/252 263/263/263 264/264/264
f 252/252/252 264/264/264 253/253/253
f 254/254/254 265/265/265 266/266/266
f 254/254/254 266/266/266 255/255/255
f 255/255/255 266/266/266 267/267/267
f 255/255/255 267/267/267 256/256/256
f 256/256/256 267/267/267 268/268/268
f 256/256/256 268/268/268 257/257/257
f 257/257/257 268/268/268 269/269/269
f 257/257/257 269/269/269 258/258/258
f 258/258/258 269/269/269 270/270/270
f 258/258/258 270/270/270 259/259/259
f 259/259/259 270/270/270 271/271/271
f 259/259/259 271/271/271 260/260/260
f 260/260/260 271/271/271 272/272/272
f 260/260/260 272/272/272 261/261/261
f 261/261/261 272/272/272 273/273/273
f 261/261/261 273/273/273 262/262/262
f 262/262/262 273/273/273 274/274/274
f 262/262/262 274/274/274 263/263/263
f 263/263/263 274/274/274 275/275/275
f 263/263/263 275/275/275 264/264/264
f 265/265/265 276/276/276 277/277/277
f 265/265/265 277/277/277 266/266/266
f 266/266/266 277/277/277 278/278/278
f 266/266/266 278/278/278 267/267/267
f 267/267/267 278/278/278 279/279/279
f 267/267/267 279/279/279 268/268/268
f 268/268/268 279/279/279 280/280/280
f 268/268/268 280/280/280 269/269/269
f 269/269/269 280/280/280 281/281/281
f 269/269/269 281/281/281 270/270/270
f 270/270/270 281/281/281 282/282/282
f 270/270/270 282/282/282 271/271/271
f 271/271/271 282/282/282 283/283/283
f 271/271/271 283/283/283 272/272/272
f 272/272/272 283/283/283 284/284/284
f 272/272/272 284/284/284 273/273/273
f 273/273/273 284/284/284 285/285/285
f 273/273/273 285/285/285 274/274/274
f 274/274/274 285/285/285 286/286/286
f 274/274/274 286/286/286 275/275/275
f 276/276/276 287/287/287 288/288/288
f 276/276/276 288/288/288 277/277/277
f 277/277/277 288/288/288 289/289/289
f 277/277/277 289/289/289 278/278/278
f 278/278/278 289/289/289 290/290/290
f 278/278/278 290/290/290 279/279/279
f 279/279/279 290/290/290 291/291/291
f 279/279/279 291/291/291 280/280/280
f 280/280/280 291/291/291 292/292/292
f 280/280/280 292/292/292 281/281/281
f 281/281/281 292/292/292 293/293/293
f 281/281/281 293/293/293 282/282/282
f 282/282/282 293/293/293 294/294/294
f 282/282/282 294/294/294 283/283/283
f 283/283/283 294/294/294 295/295/295
f 283/283/283 295/295/295 284/284/284
f 284/284/284 295/295/295 296/296/296
f 284/284/284 296/296/296 285/285/285
f 285/285/285 296/296/296 297/297/297
f 285/285/285 297/297/297 286/286/286
f 287/287/287 298/298/298 299/299/299
f 287/287/287 299/299/299 288/288/288
f 288/288/288 299/299/299 300/300/300
f 288/288/288 300/300/300 289/289/289
f 289/289/289 300/300/300 301/301/301
f 289/289/289 301/301/301 290/290/290
f 290/290/290 301/301/301 302/302/302
f 290/290/290 302/302/302 291/291/291
f 291/291/291 302/302/302 303/303/303
f 291/291/291 303/303/303 292/292/292
f 292/292/292 303/303/303 304/304/304
f 292/292/292 304/304/304 293/293/293
f 293/293/293 304/304/304 305/305/305
f 293/293/293 305/305/305 294/294/294
f 294/294/294 305/305/305 306/306/306
f 294/294/294 306/306/306 295/295/295
f 295/295/295 306/306/306 307/307/307
f 295/295/295 307/307/307 296/296/296
f 296/296/296 307/307/307 308/308/308
f 296/296/296 308/308/308 297/297/297
f 298/298/298 309/309/309 310/310/310
f 298/298/298 310/310/310 299/299/299
f 299/299/299 310/310/310 311/311/311
f 299/299/299 311/311/311 300/300/300
f 300/300/300 311/311/311 312/312/312
f 300/300/300 312/312/312 301/301/301
f 301/301/301 312/312/312 313/313/313
f 301/301/301 313/313/313 302/302/302
f 302/302/302 313/313/313 314/314/314
f 302/302/302 314/314/314 303/303/303
f 303/303/303 314/314/314 315/315/315
f 303/303/303 315/315/315 304/304/304
f 304/304/304 315/315/315 316/316/316
f 304/304/304 316/316/316 305/305/305
f 305/305/305 316/316/316 317/317/317
f 305/305/305 317/317/317 306/306/306
f 306/306/306 317/317/317 318/318/318
f 306/306/306 318/318/318 307/307/307
f 307/307/307 318/318/318 319/319/319
f 307/307/307 319/319/319 308/308/308
f 309/309/309 320/320/320 321/321/321
f 309/309/309 321/321/321 310/310/310
f 310/310/310 321/321/321 322/322/322
f 310/310/310 322/322/322 311/311/311
f 311/311/311 322/322/322 323/323/323
f 311/311/311 323/323/323 312/312/312
f 312/312/312 323/323/323 324/324/324
f 312/312/312 324/324/324 313/313/313
f 313/313/313 324/324/324 325/325/325
f 313/313/313 325/325/325 314/314/314
f 314/314/314 325/325/325 326/326/326
f 314/314/314 326/326/326 315/315/315
f 315/315/315 326/326/326 327/327/327
f 315/315/315 327/327/327 316/316/316
f 316/316/316 327/327/327 328/328/328
f 316/316/316 328/328/328 317/317/317
f 317/317/317 328/328/328 329/329/329
f 317/317/317 329/329/329 318/318/318
f 318/318/318 329/329/329 330/330/330
f 318/318/318 330/330/330 319/319/319
f 320/320/320 331/331/331 332/332/332
f 320/320/320 332/332/332 321/321/321
f 321/321/321 332/332/332 333/333/333
f 321/321/321 333/333/333 322/322/322
f 322/322/322 333/333/333 334/334/334
f 322/322/322 334/334/334 323/323/323
f 323/323/323 334/334/334 335/335/335
f 323/323/323 335/335/335 324/324/324
f 324/324/324 335/335/335 336/336/336
f 324/324/324 336/336/336 325/325/325
f 325/325/325 336/336/336 337/337/337
f 325/325/325 337/337/337 326/326/326
f 326/326/326 337/337/337 338/338/338
f 326/326/326 338/338/338 327/327/327
f 327/327/327 338/338/338 339/339/339
f 327/327/327 339/339/339 328/328/328
f 328/328/328 339/339/339 340/340/340
f 328/328/328 340/340/340 329/329/329
f 329/329/329 340/340/340 341/341/341
f 329/329/329 341/341/341 330/330/330
f 331/331/331 342/342/342 343/343/343
f 331/331/331 343/343/343 332/332/332
f 332/332/332 343/343/343 344/344/344
f 332/332/332 344/344/344 333/333/333
f 333/333/333 344/344/344 345/345/345
f 333/333/333 345/345/345 334/334/334
f 334/334/334 345/345/345 346/346/346
f 334/334/334 346/346/346 335/335/335
f 335/335/335 346/346/346 347/347/347
f 335/335/335 347/347/347 336/336/336
f 336/336/336 347/347/347 348/348/348
f 336/336/336 348/348/348 337/337/337
f 337/337/337 348/348/348 349/349/349
f 337/337/337 349/349/349 338/338/338
f 338/338/338 349/349/349 350/350/350
f 338/338/338 350/350/350 339/339/339
f 339/339/339 350/350/350 351/351/351
f 339/339/339 351/351/351 340/340/340
f 340/340/340 351/351/351 352/352/352
f 340/340/340 352/352/352 341/341/341
f 342/342/342 353/353/353 354/354/354
f 342/342/342 354/354/354 343/343/343
f 343/343/343 354/354/354 355/355/355
f 343/343/343 355/355/355 344/344/344
f 344/344/344 355/355/355 356/356/356
f 344/344/344 356/356/356 345/345/345
f 345/345/345 356/356/356 357/357/357
f 345/345/345 357/357/357 346/346/346
f 346/346/346 357/357/357 358/358/358
f 346/346/346 358/358/358 347/347/347
f 347/347/347 358/358/358 359/359/359
f 347/347/347 359/359/359 348/348/348
f 348/348/348 359/359/359 360/360/360
f 348/348/348 360/360/360 349/349/349
f 349/349/349 360/360/360 361/361/361
f 349/349/349 361/361/361 350/350/350
f 350/350/350 361/361/361 362/362/362
f 350/350/350 362/362/362 351/351/351
f 351/351/351 362/362/362 363/363/363
f 351/351/351 363/363/363 352/352/352
f 353/353/353 364/364/364 365/365/365
f 353/353/353 365/365/365 354/354/354
f 354/354/354 365/365/365 366/366/366
f 354/354/354 366/366/366 355/355/355
f 355/355/355 366/366/366 367/367/367
f 355/355/355 367/367/367 356/356/356
f 356/356/356 367/367/367 368/368/368
f 356/356/356 368/368/368 357/357/357
f 357/357/357 368/368/368 369/369/369
f 357/357/357 369/369/369 358/358/358
f 358/358/358 369/369/369 370/370/370
f 358/358/358 370/370/370 359/359/359
f 359/359/359 370/370/370 371/371/371
f 359/359/359 371/371/371 360/360/360
f 360/360/360 371/371/371 372/372/372
f 360/360/360 372/372/372 361/361/361
f 361/361/361 372/372/372 373/373/373
f 361/361/361 373/373/373 362/362/362
f 362/362/362 373/373/373 374/374/374
f 362/362/362 374/374/374 363/363/363
f 364/364/364 375/375/375 376/376/376
f 364/364/364 376/376/376 365/365/365
f 365/365/365 376/376/376 377/377/377
f 365/365/365 377/377/377 366/366/366
f 366/366/366 377/377/377 378/378/378
f 366/366/366 378/378/378 367/367/367
f 367/367/367 378/378/378 379/379/379
f 367/367/367 379/379/379 368/368/368
f 368/368/368 379/379/379 380/380/380
f 368/368/368 380/380/380 369/369/369
f 369/369/369 380/380/380 381/381/381
f 369/369/369 381/381/381 370/370/370
f 370/370/370 381/381/381 382/382/382
f 370/370/370 382/382/382 371/371/371
f 371/371/371 382/382/382 383/383/383
f 371/371/371 383/383/383 372/372/372
f 372/372/372 383/383/383 384/384/384
f 372/372/372 384/384/384 373/373/373
f 373/373/373 384/384/384 385/385/385
f 373/373/373 385/385/385 374/374/374
f 375/375/375 386/386/386 387/387/387
f 375/375/375 387/387/387 376/376/376
f 376/376/376 387/387/387 388/388/388
f 376/376/376 388/388/388 377/377/377
f 377/377/377 388/388/388 389/389/389
f 377/377/377 389/389/389 378/378/378
f 378/378/378 389/389/389 390/390/390
f 378/378/378 390/390/390 379/379/379
f 379/379/379 390/390/390 391/391/391
f 379/379/379 391/391/391 380/380/380
f 380/380/380 391/391/391 392/392/392
f 380/380/380 392/392/392 381/381/381
f 381/381/381 392/392/392 393/393/393
f 381/381/381 393/393/393 382/382/382
f 382/382/382 393/393/393 394/394/394
f 382/382/382 394/394/394 383/383/383
f 383/383/383 394/394/394 395/395/395
f 383/383/383 395/395/395 384/384/384
f 384/384/384 395/395/395 396/396/396
f 384/384/384 396/396/396 385/385/385
f 386/386/386 397/397/397 398/398/398
f 386/386/386 398/398/398 387/387/387
f 387/387/387 398/398/398 399/399/399
f 387/387/387 399/399/399 388/388/388
f 388/388/388 399/399/399 400/400/400
f 388/388/388 400/400/400 389/389/389
f 389/389/389 400/400/400 401/401/401
f 389/389/389 401/401/401 390/390/390
f 390/390/390 401/401/401 402/402/402
f 390/390/390 402/402/402 391/391/391
f 391/391/391 402/402/402 403/403/403
f 391/391/391 403/403/403 392/392/392
f 392/392/392 403/403/403 404/404/404
f 392/392/392 404/404/404 393/393/393
f 393/393/393 404/404/404 405/405/405
f 393/393/393 405/405/405 394/394/394
f 394/394/394 405/405/405 406/406/406
f 394/394/394 406/406/406 395/395/395
f 395/395/395 406/406/406 407/407/407
f 395/395/395 407/407/407 396/396/396
usemtl ash
f 408/408/408 428/428/428 409/409/409
f 408/408/408 427/427/427 428/428/428
f 409/409/409 429/429/429 410/410/410
f 409/409/409 428/428/428 429/429/429
f 410/410/410 430/430/430 411/411/411
f 410/410/410 429/429/429 430/430/430
f 411/411/411 431/431/431 412/412/412
f 411/411/411 430/430/430 431/431/431
f 412/412/412 432/432/432 413/413/413
f 412/412/412 431/431/431 432/432/432
f 413/413/413 433/433/433 414/414/414
f 413/413/413 432/432/432 433/433/433
f 414/414/414 434/434/434 415/415/415
f 414/414/414 433/433/433 434/434/434
f 415/415/415 435/435/435 416/416/416
f 415/415/415 434/434/434 435/435/435
f 416/416/416 436/436/436 417/417/417
f 416/416/416 435/435/435 436/436/436
f 417/417/417 437/437/437 418/418/418
f 417/417/417 436/436/436 437/437/437
f 418/418/418 438/438/438 419/419/419
f 418/418/418 437/437/437 438/438/438
f 419/419/419 439/439/439 420/420/420
f 419/419/419 438/438/438 439/439/439
f 420/420/420 440/440/440 421/421/421
f 420/420/420 439/439/439 440/440/440
f 421/421/421 441/441/441 422/422/422
f 421/421/421 440/440/440 441/441/441
f 422/422/422 442/442/442 423/423/423
f 422/422/422 441/441/441 442/442/442
f 423/423/423 443/443/443 424/424/424
f 423/423/423 442/442/442 443/443/443
f 424/424/424 444/444/444 425/425/425
f 424/424/424 443/443/443 444/444/444
f 425/425/425 445/445/445 426/426/426
f 425/425/425 444/444/444 445/445/445
f 427/427/427 447/447/447 428/428/428
f 427/427/427 446/446/446 447/447/447
f 428/428/428 448/448/448 429/429/429
f 428/428/428 447/447/447 448/448/448
f 429/429/429 449/449/449 430/430/430
f 429/429/429 448/448/448 449/449/449
f 430/430/430 450/450/450 431/431/431
f 430/430/430 449/449/449 450/450/450
f 431/431/431 451/451/451 432/432/432
f 431/431/431 450/450/450 451/451/451
f 432/432/432 452/452/452 433/433/433
f 432/432/432 451/451/451 452/452/452
f 433/433/433 453/453/453 434/434/434
f 433/433/433 452/452/452 453/453/453
f 434/434/434 454/454/454 435/435/435
f 434/434/434 453/453/453 454/454/454
f 435/435/435 455/455/455 436/436/436
f 435/435/435 454/454/454 455/455/455
f 436/436/436 456/456/456 437/437/437
f 436/436/436 455/455/455 456/456/456
f 437/437/437 457/457/457 438/438/438
f 437/437/437 456/456/456 457/457/457
f 438/438/438 458/458/458 439/439/439
f 438/438/438 457/457/457 458/458/458
f 439/439/439 459/459/459 440/440/440
f 439/439/439 458/458/458 459/459/459
f 440/440/440 460/460/460 441/441/441
f 440/440/440 459/459/459 460/460/460
f 441/441/441 461/461/461 442/442/442
f 441/441/441 460/460/460 461/461/461
f 442/442/442 462/462/462 443/443/443
f 442/442/442 461/461/461 462/462/462
f 443/443/443 463/463/463 444/444/444
f 443/443/443 462/462/462 463/463/463
f 444/444/444 464/464/464 445/445/445
f 444/444/444 463/463/463 464/464/464
f 446/446/446 466/466/466 447/447/447
f 446/446/446 465/465/465 466/466/466
f 447/447/447 467/467/467 448/448/448
f 447/447/447 466/466/466 467/467/467
f 448/448/448 468/468/468 449/449/449
f 448/448/448 467/467/467 468/468/468
f 449/449/449 469/469/469 450/450/450
f 449/449/449 468/468/468 469/469/469
f 450/450/450 470/470/470 451/451/451
f 450/450/450 469/469/469 470/470/470
f 451/451/451 471/471/471 452/452/452
f 451/451/451 470/470/470 471/471/471
f 452/452/452 472/472/472 453/453/453
f 452/452/452 471/471/471 472/472/472
f 453/453/453 473/473/473 454/454/454
f 453/453/453 472/472/472 473/473/473
f 454/454/454 474/474/474 455/455/455
f 454/454/454 473/473/473 474/474/474
f 455/455/455 475/475/475 456/456/456
f 455/455/455 474/474/474 475/475/475
f 456/456/456 476/476/476 457/457/457
f 456/456/456 475/475/475 476/476/476
f 457/457/457 477/477/477 458/458/458
f 457/457/457 476/476/476 477/477/477
f 458/458/458 478/478/478 459/459/459
f 458/458/458 477/477/477 478/478/478
f 459/459/459 479/479/479 460/460/460
f 459/459/459 478/478/478 479/479/479
f 460/460/460 480/480/480 461/461/461
f 460/460/460 479/479/479 480/480/480
f 461/461/461 481/481/481 462/462/462
f 461/461/461 480/480/480 481/481/481
f 462/462/462 482/482/482 463/463/463
f 462/462/462 481/481/481 482/482/482
f 463/463/463 483/483/483 464/464/464
f 463/463/463 482/482/482 483/483/483
f 465/465/465 485/485/485 466/466/466
f 465/465/465 484/484/484 485/485/485
f 466/466/466 486/486/486 467/467/467
f 466/466/466 485/485/485 486/486/486
f 467/467/467 487/487/487 468/468/468
f 467/467/467 486/486/486 487/487/487
f 468/468/468 488/488/488 469/469/469
f 468/468/468 487/487/487 488/488/488
f 469/469/469 489/489/489 470/470/470
f 469/469/469 488/488/488 489/489/489
f 470/470/470 490/490/490 471/471/471
f 470/470/470 489/489/489 490/490/490
f 471/471/471 491/491/491 472/472/472
f 471/471/471 490/490/490 491/491/491
f 472/472/472 492/492/492 473/473/473
f 472/472/472 491/491/491 492/492/492
f 473/473/473 493/493/493 474/474/474
f 473/473/473 492/492/492 493/493/493
f 474/474/474 494/494/494 475/475/475
f 474/474/474 493/493/493 494/494/494
f 475/475/475 495/495/495 476/476/476
f 475/475/475 494/494/494 495/495/495
f 476/476/476 496/496/496 477/477/477
f 476/476/476 495/495/495 496/496/496
f 477/477/477 497/497/497 478/478/478
f 477/477/477 496/496/496 497/497/497
f 478/478/478 498/498/498 479/479/479
f 478/478/478 497/497/497 498/498/498
f 479/479/479 499/499/499 480/480/480
f 479/479/479 498/498/498 499/499/499
f 480/480/480 500/500/500 481/481/481
f 480/480/480 499/499/499 500/500/500
f 481/481/481 501/501/501 482/482/482
f 481/481/481 500/500/500 501/501/501
f 482/482/482 502/502/502 483/483/483
f 482/482/482 501/501/501 502/502/502
f 503/503/503 504/504/504 505/505/505
f 503/503/503 505/505/505 506/506/506
f 507/507/507 508/508/508 509/509/509
f 507/507/507 509/509/509 510/510/510
f 511/511/511 512/512/512 513/513/513
f 511/511/511 513/513/513 514/514/514
f 515/515/515 516/516/516 517/517/517
f 515/515/515 517/517/517 518/518/518
f 519/519/519 520/520/520 521/521/521
f 519/519/519 521/521/521 522/522/522
f 523/523/523 524/524/524 525/525/525
f 523/523/523 525/525/525 526/526/526
f 527/527/527 528/528/528 529/529/529
f 527/527/527 529/529/529 530/530/530
f 531/531/531 532/532/532 533/533/533
f 531/531/531 533/533/533 534/534/534
f 535/535/535 536/536/536 537/537/537
f 535/535/535 537/537/537 538/538/538
f 539/539/539 540/540/540 541/541/541
f 539/539/539 541/541/541 542/542/542
f 543/543/543 544/544/544 545/545/545
f 543/543/543 545/545/545 546/546/546
f 547/547/547 548/548/548 549/549/549
f 547/547/547 549/549/549 550/550/550
f 551/551/551 552/552/552 553/553/553
f 551/551/551 553/553/553 554/554/554
f 555/555/555 556/556/556 557/557/557
f 555/555/555 557/557/557 558/558/558
f 559/559/559 560/560/560 561/561/561
f 559/559/559 561/561/561 562/562/562
f 563/563/563 564/564/564 565/565/565
f 563/563/563 565/565/565 566/566/566
f 567/567/567 568/568/568 569/569/569
f 567/567/567 569/569/569 570/570/570
f 571/571/571 572/572/572 573/573/573
f 571/571/571 573/573/573 574/574/574
f 575/575/575 576/576/576 577/577/577
f 575/575/575 577/577/577 578/578/578
f 579/579/579 580/580/580 581/581/581
f 579/579/579 581/581/581 582/582/582
f 583/583/583 584/584/584 585/585/585
f 583/583/583 585/585/585 586/586/586
f 587/587/587 588/588/588 589/589/589
f 587/587/587 589/589/589 590/590/590
f 591/591/591 592/592/592 593/593/593
f 591/591/591 593/593/593 594/594/594
f 595/595/595 596/596/596 597/597/597
f 595/595/595 597/597/597 598/598/598
f 599/599/599 600/600/600 601/601/601
f 599/599/599 601/601/601 602/602/602
f 603/603/603 604/604/604 605/605/605
f 603/603/603 605/605/605 606/606/606
f 607/607/607 608/608/608 609/609/609
f 607/607/607 609/609/609 610/610/610
f 611/611/611 612/612/612 613/613/613
f 611/611/611 613/613/613 614/614/614
f 615/615/615 616/616/616 617/617/617
f 615/615/615 617/617/617 618/618/618
f 619/619/619 620/620/620 621/621/621
f 619/619/619 621/621/621 622/622/622
f 623/623/623 624/624/624 625/625/625
f 623/623/623 625/625/625 626/626/626
f 627/627/627 628/628/628 629/629/629
f 627/627/627 629/629/629 630/630/630
f 631/631/631 632/632/632 633/633/633
f 631/631/631 633/633/633 634/634/634
f 635/635/635 636/636/636 637/637/637
f 635/635/635 637/637/637 638/638/638
f 639/639/639 640/640/640 641/641/641
f 639/639/639 641/641/641 642/642/642
f 643/643/643 644/644/644 645/645/645
f 643/643/643 645/645/645 646/646/646
