# Sinh tự động bởi tools/mesh_kit.py - đừng sửa tay
o pz_biscuit_lid
v 0.0985 0.0000 -0.0000
v 0.1035 0.0000 -0.0000
v 0.1040 0.0040 -0.0000
v 0.1040 0.0170 -0.0000
v 0.1000 0.0200 -0.0000
v 0.0960 0.0200 -0.0000
v 0.0966 0.0000 -0.0192
v 0.1015 0.0000 -0.0202
v 0.1020 0.0040 -0.0203
v 0.1020 0.0170 -0.0203
v 0.0981 0.0200 -0.0195
v 0.0942 0.0200 -0.0187
v 0.0910 0.0000 -0.0377
v 0.0956 0.0000 -0.0396
v 0.0961 0.0040 -0.0398
v 0.0961 0.0170 -0.0398
v 0.0924 0.0200 -0.0383
v 0.0887 0.0200 -0.0367
v 0.0819 0.0000 -0.0547
v 0.0861 0.0000 -0.0575
v 0.0865 0.0040 -0.0578
v 0.0865 0.0170 -0.0578
v 0.0831 0.0200 -0.0556
v 0.0798 0.0200 -0.0533
v 0.0697 0.0000 -0.0697
v 0.0732 0.0000 -0.0732
v 0.0735 0.0040 -0.0735
v 0.0735 0.0170 -0.0735
v 0.0707 0.0200 -0.0707
v 0.0679 0.0200 -0.0679
v 0.0547 0.0000 -0.0819
v 0.0575 0.0000 -0.0861
v 0.0578 0.0040 -0.0865
v 0.0578 0.0170 -0.0865
v 0.0556 0.0200 -0.0831
v 0.0533 0.0200 -0.0798
v 0.0377 0.0000 -0.0910
v 0.0396 0.0000 -0.0956
v 0.0398 0.0040 -0.0961
v 0.0398 0.0170 -0.0961
v 0.0383 0.0200 -0.0924
v 0.0367 0.0200 -0.0887
v 0.0192 0.0000 -0.0966
v 0.0202 0.0000 -0.1015
v 0.0203 0.0040 -0.1020
v 0.0203 0.0170 -0.1020
v 0.0195 0.0200 -0.0981
v 0.0187 0.0200 -0.0942
v 0.0000 0.0000 -0.0985
v 0.0000 0.0000 -0.1035
v 0.0000 0.0040 -0.1040
v 0.0000 0.0170 -0.1040
v 0.0000 0.0200 -0.1000
v 0.0000 0.0200 -0.0960
v -0.0192 0.0000 -0.0966
v -0.0202 0.0000 -0.1015
v -0.0203 0.0040 -0.1020
v -0.0203 0.0170 -0.1020
v -0.0195 0.0200 -0.0981
v -0.0187 0.0200 -0.0942
v -0.0377 0.0000 -0.0910
v -0.0396 0.0000 -0.0956
v -0.0398 0.0040 -0.0961
v -0.0398 0.0170 -0.0961
v -0.0383 0.0200 -0.0924
v -0.0367 0.0200 -0.0887
v -0.0547 0.0000 -0.0819
v -0.0575 0.0000 -0.0861
v -0.0578 0.0040 -0.0865
v -0.0578 0.0170 -0.0865
v -0.0556 0.0200 -0.0831
v -0.0533 0.0200 -0.0798
v -0.0697 0.0000 -0.0697
v -0.0732 0.0000 -0.0732
v -0.0735 0.0040 -0.0735
v -0.0735 0.0170 -0.0735
v -0.0707 0.0200 -0.0707
v -0.0679 0.0200 -0.0679
v -0.0819 0.0000 -0.0547
v -0.0861 0.0000 -0.0575
v -0.0865 0.0040 -0.0578
v -0.0865 0.0170 -0.0578
v -0.0831 0.0200 -0.0556
v -0.0798 0.0200 -0.0533
v -0.0910 0.0000 -0.0377
v -0.0956 0.0000 -0.0396
v -0.0961 0.0040 -0.0398
v -0.0961 0.0170 -0.0398
v -0.0924 0.0200 -0.0383
v -0.0887 0.0200 -0.0367
v -0.0966 0.0000 -0.0192
v -0.1015 0.0000 -0.0202
v -0.1020 0.0040 -0.0203
v -0.1020 0.0170 -0.0203
v -0.0981 0.0200 -0.0195
v -0.0942 0.0200 -0.0187
v -0.0985 0.0000 -0.0000
v -0.1035 0.0000 -0.0000
v -0.1040 0.0040 -0.0000
v -0.1040 0.0170 -0.0000
v -0.1000 0.0200 -0.0000
v -0.0960 0.0200 -0.0000
v -0.0966 0.0000 0.0192
v -0.1015 0.0000 0.0202
v -0.1020 0.0040 0.0203
v -0.1020 0.0170 0.0203
v -0.0981 0.0200 0.0195
v -0.0942 0.0200 0.0187
v -0.0910 0.0000 0.0377
v -0.0956 0.0000 0.0396
v -0.0961 0.0040 0.0398
v -0.0961 0.0170 0.0398
v -0.0924 0.0200 0.0383
v -0.0887 0.0200 0.0367
v -0.0819 0.0000 0.0547
v -0.0861 0.0000 0.0575
v -0.0865 0.0040 0.0578
v -0.0865 0.0170 0.0578
v -0.0831 0.0200 0.0556
v -0.0798 0.0200 0.0533
v -0.0697 0.0000 0.0697
v -0.0732 0.0000 0.0732
v -0.0735 0.0040 0.0735
v -0.0735 0.0170 0.0735
v -0.0707 0.0200 0.0707
v -0.0679 0.0200 0.0679
v -0.0547 0.0000 0.0819
v -0.0575 0.0000 0.0861
v -0.0578 0.0040 0.0865
v -0.0578 0.0170 0.0865
v -0.0556 0.0200 0.0831
v -0.0533 0.0200 0.0798
v -0.0377 0.0000 0.0910
v -0.0396 0.0000 0.0956
v -0.0398 0.0040 0.0961
v -0.0398 0.0170 0.0961
v -0.0383 0.0200 0.0924
v -0.0367 0.0200 0.0887
v -0.0192 0.0000 0.0966
v -0.0202 0.0000 0.1015
v -0.0203 0.0040 0.1020
v -0.0203 0.0170 0.1020
v -0.0195 0.0200 0.0981
v -0.0187 0.0200 0.0942
v -0.0000 0.0000 0.0985
v -0.0000 0.0000 0.1035
v -0.0000 0.0040 0.1040
v -0.0000 0.0170 0.1040
v -0.0000 0.0200 0.1000
v -0.0000 0.0200 0.0960
v 0.0192 0.0000 0.0966
v 0.0202 0.0000 0.1015
v 0.0203 0.0040 0.1020
v 0.0203 0.0170 0.1020
v 0.0195 0.0200 0.0981
v 0.0187 0.0200 0.0942
v 0.0377 0.0000 0.0910
v 0.0396 0.0000 0.0956
v 0.0398 0.0040 0.0961
v 0.0398 0.0170 0.0961
v 0.0383 0.0200 0.0924
v 0.0367 0.0200 0.0887
v 0.0547 0.0000 0.0819
v 0.0575 0.0000 0.0861
v 0.0578 0.0040 0.0865
v 0.0578 0.0170 0.0865
v 0.0556 0.0200 0.0831
v 0.0533 0.0200 0.0798
v 0.0697 0.0000 0.0697
v 0.0732 0.0000 0.0732
v 0.0735 0.0040 0.0735
v 0.0735 0.0170 0.0735
v 0.0707 0.0200 0.0707
v 0.0679 0.0200 0.0679
v 0.0819 0.0000 0.0547
v 0.0861 0.0000 0.0575
v 0.0865 0.0040 0.0578
v 0.0865 0.0170 0.0578
v 0.0831 0.0200 0.0556
v 0.0798 0.0200 0.0533
v 0.0910 0.0000 0.0377
v 0.0956 0.0000 0.0396
v 0.0961 0.0040 0.0398
v 0.0961 0.0170 0.0398
v 0.0924 0.0200 0.0383
v 0.0887 0.0200 0.0367
v 0.0966 0.0000 0.0192
v 0.1015 0.0000 0.0202
v 0.1020 0.0040 0.0203
v 0.1020 0.0170 0.0203
v 0.0981 0.0200 0.0195
v 0.0942 0.0200 0.0187
v 0.0985 0.0000 0.0000
v 0.1035 0.0000 0.0000
v 0.1040 0.0040 0.0000
v 0.1040 0.0170 0.0000
v 0.1000 0.0200 0.0000
v 0.0960 0.0200 0.0000
vt 0.0000 0.0000
vt 0.0000 0.0050
vt 0.0000 0.0090
vt 0.0000 0.0220
vt 0.0000 0.0270
vt 0.0000 0.0310
vt 0.0204 0.0000
vt 0.0204 0.0050
vt 0.0204 0.0090
vt 0.0204 0.0220
vt 0.0204 0.0270
vt 0.0204 0.0310
vt 0.0408 0.0000
vt 0.0408 0.0050
vt 0.0408 0.0090
vt 0.0408 0.0220
vt 0.0408 0.0270
vt 0.0408 0.0310
vt 0.0613 0.0000
vt 0.0613 0.0050
vt 0.0613 0.0090
vt 0.0613 0.0220
vt 0.0613 0.0270
vt 0.0613 0.0310
vt 0.0817 0.0000
vt 0.0817 0.0050
vt 0.0817 0.0090
vt 0.0817 0.0220
vt 0.0817 0.0270
vt 0.0817 0.0310
vt 0.1021 0.0000
vt 0.1021 0.0050
vt 0.1021 0.0090
vt 0.1021 0.0220
vt 0.1021 0.0270
vt 0.1021 0.0310
vt 0.1225 0.0000
vt 0.1225 0.0050
vt 0.1225 0.0090
vt 0.1225 0.0220
vt 0.1225 0.0270
vt 0.1225 0.0310
vt 0.1429 0.0000
vt 0.1429 0.0050
vt 0.1429 0.0090
vt 0.1429 0.0220
vt 0.1429 0.0270
vt 0.1429 0.0310
vt 0.1634 0.0000
vt 0.1634 0.0050
vt 0.1634 0.0090
vt 0.1634 0.0220
vt 0.1634 0.0270
vt 0.1634 0.0310
vt 0.1838 0.0000
vt 0.1838 0.0050
vt 0.1838 0.0090
vt 0.1838 0.0220
vt 0.1838 0.0270
vt 0.1838 0.0310
vt 0.2042 0.0000
vt 0.2042 0.0050
vt 0.2042 0.0090
vt 0.2042 0.0220
vt 0.2042 0.0270
vt 0.2042 0.0310
vt 0.2246 0.0000
vt 0.2246 0.0050
vt 0.2246 0.0090
vt 0.2246 0.0220
vt 0.2246 0.0270
vt 0.2246 0.0310
vt 0.2450 0.0000
vt 0.2450 0.0050
vt 0.2450 0.0090
vt 0.2450 0.0220
vt 0.2450 0.0270
vt 0.2450 0.0310
vt 0.2655 0.0000
vt 0.2655 0.0050
vt 0.2655 0.0090
vt 0.2655 0.0220
vt 0.2655 0.0270
vt 0.2655 0.0310
vt 0.2859 0.0000
vt 0.2859 0.0050
vt 0.2859 0.0090
vt 0.2859 0.0220
vt 0.2859 0.0270
vt 0.2859 0.0310
vt 0.3063 0.0000
vt 0.3063 0.0050
vt 0.3063 0.0090
vt 0.3063 0.0220
vt 0.3063 0.0270
vt 0.3063 0.0310
vt 0.3267 0.0000
vt 0.3267 0.0050
vt 0.3267 0.0090
vt 0.3267 0.0220
vt 0.3267 0.0270
vt 0.3267 0.0310
vt 0.3471 0.0000
vt 0.3471 0.0050
vt 0.3471 0.0090
vt 0.3471 0.0220
vt 0.3471 0.0270
vt 0.3471 0.0310
vt 0.3676 0.0000
vt 0.3676 0.0050
vt 0.3676 0.0090
vt 0.3676 0.0220
vt 0.3676 0.0270
vt 0.3676 0.0310
vt 0.3880 0.0000
vt 0.3880 0.0050
vt 0.3880 0.0090
vt 0.3880 0.0220
vt 0.3880 0.0270
vt 0.3880 0.0310
vt 0.4084 0.0000
vt 0.4084 0.0050
vt 0.4084 0.0090
vt 0.4084 0.0220
vt 0.4084 0.0270
vt 0.4084 0.0310
vt 0.4288 0.0000
vt 0.4288 0.0050
vt 0.4288 0.0090
vt 0.4288 0.0220
vt 0.4288 0.0270
vt 0.4288 0.0310
vt 0.4492 0.0000
vt 0.4492 0.0050
vt 0.4492 0.0090
vt 0.4492 0.0220
vt 0.4492 0.0270
vt 0.4492 0.0310
vt 0.4697 0.0000
vt 0.4697 0.0050
vt 0.4697 0.0090
vt 0.4697 0.0220
vt 0.4697 0.0270
vt 0.4697 0.0310
vt 0.4901 0.0000
vt 0.4901 0.0050
vt 0.4901 0.0090
vt 0.4901 0.0220
vt 0.4901 0.0270
vt 0.4901 0.0310
vt 0.5105 0.0000
vt 0.5105 0.0050
vt 0.5105 0.0090
vt 0.5105 0.0220
vt 0.5105 0.0270
vt 0.5105 0.0310
vt 0.5309 0.0000
vt 0.5309 0.0050
vt 0.5309 0.0090
vt 0.5309 0.0220
vt 0.5309 0.0270
vt 0.5309 0.0310
vt 0.5513 0.0000
vt 0.5513 0.0050
vt 0.5513 0.0090
vt 0.5513 0.0220
vt 0.5513 0.0270
vt 0.5513 0.0310
vt 0.5718 0.0000
vt 0.5718 0.0050
vt 0.5718 0.0090
vt 0.5718 0.0220
vt 0.5718 0.0270
vt 0.5718 0.0310
vt 0.5922 0.0000
vt 0.5922 0.0050
vt 0.5922 0.0090
vt 0.5922 0.0220
vt 0.5922 0.0270
vt 0.5922 0.0310
vt 0.6126 0.0000
vt 0.6126 0.0050
vt 0.6126 0.0090
vt 0.6126 0.0220
vt 0.6126 0.0270
vt 0.6126 0.0310
vt 0.6330 0.0000
vt 0.6330 0.0050
vt 0.6330 0.0090
vt 0.6330 0.0220
vt 0.6330 0.0270
vt 0.6330 0.0310
vt 0.6535 0.0000
vt 0.6535 0.0050
vt 0.6535 0.0090
vt 0.6535 0.0220
vt 0.6535 0.0270
vt 0.6535 0.0310
vn 0.000 -1.000 -0.000
vn 0.588 -0.809 -0.000
vn 1.000 -0.029 -0.000
vn 0.970 0.243 -0.000
vn 0.351 0.936 -0.000
vn 0.000 1.000 -0.000
vn 0.000 -1.000 -0.000
vn 0.577 -0.809 -0.115
vn 0.980 -0.029 -0.195
vn 0.952 0.243 -0.189
vn 0.344 0.936 -0.069
vn 0.000 1.000 -0.000
vn 0.000 -1.000 -0.000
vn 0.543 -0.809 -0.225
vn 0.923 -0.029 -0.383
vn 0.896 0.243 -0.371
vn 0.324 0.936 -0.134
vn 0.000 1.000 -0.000
vn 0.000 -1.000 -0.000
vn 0.489 -0.809 -0.327
vn 0.831 -0.029 -0.555
vn 0.807 0.243 -0.539
vn 0.292 0.936 -0.195
vn 0.000 1.000 -0.000
vn 0.000 -1.000 -0.000
vn 0.416 -0.809 -0.416
vn 0.707 -0.029 -0.707
vn 0.686 0.243 -0.686
vn 0.248 0.936 -0.248
vn 0.000 1.000 -0.000
vn 0.000 -1.000 -0.000
vn 0.327 -0.809 -0.489
vn 0.555 -0.029 -0.831
vn 0.539 0.243 -0.807
vn 0.195 0.936 -0.292
vn 0.000 1.000 -0.000
vn 0.000 -1.000 -0.000
vn 0.225 -0.809 -0.543
vn 0.383 -0.029 -0.923
vn 0.371 0.243 -0.896
vn 0.134 0.936 -0.324
vn 0.000 1.000 -0.000
vn 0.000 -1.000 -0.000
vn 0.115 -0.809 -0.577
vn 0.195 -0.029 -0.980
vn 0.189 0.243 -0.952
vn 0.069 0.936 -0.344
vn 0.000 1.000 -0.000
vn 0.000 -1.000 -0.000
vn 0.000 -0.809 -0.588
vn 0.000 -0.029 -1.000
vn 0.000 0.243 -0.970
vn 0.000 0.936 -0.351
vn 0.000 1.000 -0.000
vn -0.000 -1.000 -0.000
vn -0.115 -0.809 -0.577
vn -0.195 -0.029 -0.980
vn -0.189 0.243 -0.952
vn -0.069 0.936 -0.344
vn -0.000 1.000 -0.000
vn -0.000 -1.000 -0.000
vn -0.225 -0.809 -0.543
vn -0.383 -0.029 -0.923
vn -0.371 0.243 -0.896
vn -0.134 0.936 -0.324
vn -0.000 1.000 -0.000
vn -0.000 -1.000 -0.000
vn -0.327 -0.809 -0.489
vn -0.555 -0.029 -0.831
vn -0.539 0.243 -0.807
vn -0.195 0.936 -0.292
vn -0.000 1.000 -0.000
vn -0.000 -1.000 -0.000
vn -0.416 -0.809 -0.416
vn -0.707 -0.029 -0.707
vn -0.686 0.243 -0.686
vn -0.248 0.936 -0.248
vn -0.000 1.000 -0.000
vn -0.000 -1.000 -0.000
vn -0.489 -0.809 -0.327
vn -0.831 -0.029 -0.555
vn -0.807 0.243 -0.539
vn -0.292 0.936 -0.195
vn -0.000 1.000 -0.000
vn -0.000 -1.000 -0.000
vn -0.543 -0.809 -0.225
vn -0.923 -0.029 -0.383
vn -0.896 0.243 -0.371
vn -0.324 0.936 -0.134
vn -0.000 1.000 -0.000
vn -0.000 -1.000 -0.000
vn -0.577 -0.809 -0.115
vn -0.980 -0.029 -0.195
vn -0.952 0.243 -0.189
vn -0.344 0.936 -0.069
vn -0.000 1.000 -0.000
vn -0.000 -1.000 -0.000
vn -0.588 -0.809 -0.000
vn -1.000 -0.029 -0.000
vn -0.970 0.243 -0.000
vn -0.351 0.936 -0.000
vn -0.000 1.000 -0.000
vn -0.000 -1.000 0.000
vn -0.577 -0.809 0.115
vn -0.980 -0.029 0.195
vn -0.952 0.243 0.189
vn -0.344 0.936 0.069
vn -0.000 1.000 0.000
vn -0.000 -1.000 0.000
vn -0.543 -0.809 0.225
vn -0.923 -0.029 0.383
vn -0.896 0.243 0.371
vn -0.324 0.936 0.134
vn -0.000 1.000 0.000
vn -0.000 -1.000 0.000
vn -0.489 -0.809 0.327
vn -0.831 -0.029 0.555
vn -0.807 0.243 0.539
vn -0.292 0.936 0.195
vn -0.000 1.000 0.000
vn -0.000 -1.000 0.000
vn -0.416 -0.809 0.416
vn -0.707 -0.029 0.707
vn -0.686 0.243 0.686
vn -0.248 0.936 0.248
vn -0.000 1.000 0.000
vn -0.000 -1.000 0.000
vn -0.327 -0.809 0.489
vn -0.555 -0.029 0.831
vn -0.539 0.243 0.807
vn -0.195 0.936 0.292
vn -0.000 1.000 0.000
vn -0.000 -1.000 0.000
vn -0.225 -0.809 0.543
vn -0.383 -0.029 0.923
vn -0.371 0.243 0.896
vn -0.134 0.936 0.324
vn -0.000 1.000 0.000
vn -0.000 -1.000 0.000
vn -0.115 -0.809 0.577
vn -0.195 -0.029 0.980
vn -0.189 0.243 0.952
vn -0.069 0.936 0.344
vn -0.000 1.000 0.000
vn -0.000 -1.000 0.000
vn -0.000 -0.809 0.588
vn -0.000 -0.029 1.000
vn -0.000 0.243 0.970
vn -0.000 0.936 0.351
vn -0.000 1.000 0.000
vn 0.000 -1.000 0.000
vn 0.115 -0.809 0.577
vn 0.195 -0.029 0.980
vn 0.189 0.243 0.952
vn 0.069 0.936 0.344
vn 0.000 1.000 0.000
vn 0.000 -1.000 0.000
vn 0.225 -0.809 0.543
vn 0.383 -0.029 0.923
vn 0.371 0.243 0.896
vn 0.134 0.936 0.324
vn 0.000 1.000 0.000
vn 0.000 -1.000 0.000
vn 0.327 -0.809 0.489
vn 0.555 -0.029 0.831
vn 0.539 0.243 0.807
vn 0.195 0.936 0.292
vn 0.000 1.000 0.000
vn 0.000 -1.000 0.000
vn 0.416 -0.809 0.416
vn 0.707 -0.029 0.707
vn 0.686 0.243 0.686
vn 0.248 0.936 0.248
vn 0.000 1.000 0.000
vn 0.000 -1.000 0.000
vn 0.489 -0.809 0.327
vn 0.831 -0.029 0.555
vn 0.807 0.243 0.539
vn 0.292 0.936 0.195
vn 0.000 1.000 0.000
vn 0.000 -1.000 0.000
vn 0.543 -0.809 0.225
vn 0.923 -0.029 0.383
vn 0.896 0.243 0.371
vn 0.324 0.936 0.134
vn 0.000 1.000 0.000
vn 0.000 -1.000 0.000
vn 0.577 -0.809 0.115
vn 0.980 -0.029 0.195
vn 0.952 0.243 0.189
vn 0.344 0.936 0.069
vn 0.000 1.000 0.000
vn 0.000 -1.000 0.000
vn 0.588 -0.809 0.000
vn 1.000 -0.029 0.000
vn 0.970 0.243 0.000
vn 0.351 0.936 0.000
vn 0.000 1.000 0.000
v 0.0960 0.0200 -0.0000
v 0.0942 0.0200 -0.0187
v 0.0887 0.0200 -0.0367
v 0.0798 0.0200 -0.0533
v 0.0679 0.0200 -0.0679
v 0.0533 0.0200 -0.0798
v 0.0367 0.0200 -0.0887
v 0.0187 0.0200 -0.0942
v 0.0000 0.0200 -0.0960
v -0.0187 0.0200 -0.0942
v -0.0367 0.0200 -0.0887
v -0.0533 0.0200 -0.0798
v -0.0679 0.0200 -0.0679
v -0.0798 0.0200 -0.0533
v -0.0887 0.0200 -0.0367
v -0.0942 0.0200 -0.0187
v -0.0960 0.0200 -0.0000
v -0.0942 0.0200 0.0187
v -0.0887 0.0200 0.0367
v -0.0798 0.0200 0.0533
v -0.0679 0.0200 0.0679
v -0.0533 0.0200 0.0798
v -0.0367 0.0200 0.0887
v -0.0187 0.0200 0.0942
v -0.0000 0.0200 0.0960
v 0.0187 0.0200 0.0942
v 0.0367 0.0200 0.0887
v 0.0533 0.0200 0.0798
v 0.0679 0.0200 0.0679
v 0.0798 0.0200 0.0533
v 0.0887 0.0200 0.0367
v 0.0942 0.0200 0.0187
vt 0.0000 -0.0960
vt 0.0187 -0.0942
vt 0.0367 -0.0887
vt 0.0533 -0.0798
vt 0.0679 -0.0679
vt 0.0798 -0.0533
vt 0.0887 -0.0367
vt 0.0942 -0.0187
vt 0.0960 -0.0000
vt 0.0942 0.0187
vt 0.0887 0.0367
vt 0.0798 0.0533
vt 0.0679 0.0679
vt 0.0533 0.0798
vt 0.0367 0.0887
vt 0.0187 0.0942
vt 0.0000 0.0960
vt -0.0187 0.0942
vt -0.0367 0.0887
vt -0.0533 0.0798
vt -0.0679 0.0679
vt -0.0798 0.0533
vt -0.0887 0.0367
vt -0.0942 0.0187
vt -0.0960 0.0000
vt -0.0942 -0.0187
vt -0.0887 -0.0367
vt -0.0798 -0.0533
vt -0.0679 -0.0679
vt -0.0533 -0.0798
vt -0.0367 -0.0887
vt -0.0187 -0.0942
vn 0.000 1.000 0.000
vn 0.000 1.000 0.000
vn 0.000 1.000 0.000
vn 0.000 1.000 0.000
vn 0.000 1.000 0.000
vn 0.000 1.000 0.000
vn 0.000 1.000 0.000
vn 0.000 1.000 0.000
vn 0.000 1.000 0.000
vn 0.000 1.000 0.000
vn 0.000 1.000 0.000
vn 0.000 1.000 0.000
vn 0.000 1.000 0.000
vn 0.000 1.000 0.000
vn 0.000 1.000 0.000
vn 0.000 1.000 0.000
vn 0.000 1.000 0.000
vn 0.000 1.000 0.000
vn 0.000 1.000 0.000
vn 0.000 1.000 0.000
vn 0.000 1.000 0.000
vn 0.000 1.000 0.000
vn 0.000 1.000 0.000
vn 0.000 1.000 0.000
vn 0.000 1.000 0.000
vn 0.000 1.000 0.000
vn 0.000 1.000 0.000
vn 0.000 1.000 0.000
vn 0.000 1.000 0.000
vn 0.000 1.000 0.000
vn 0.000 1.000 0.000
vn 0.000 1.000 0.000
usemtl rim
f 1/1/1 7/7/7 8/8/8
f 1/1/1 8/8/8 2/2/2
f 2/2/2 8/8/8 9/9/9
f 2/2/2 9/9/9 3/3/3
f 3/3/3 9/9/9 10/10/10
f 3/3/3 10/10/10 4/4/4
f 4/4/4 10/10/10 11/11/11
f 4/4/4 11/11/11 5/5/5
f 5/5/5 11/11/11 12/12/12
f 5/5/5 12/12/12 6/6/6
f 7/7/7 13/13/13 14/14/14
f 7/7/7 14/14/14 8/8/8
f 8/8/8 14/14/14 15/15/15
f 8/8/8 15/15/15 9/9/9
f 9/9/9 15/15/15 16/16/16
f 9/9/9 16/16/16 10/10/10
f 10/10/10 16/16/16 17/17/17
f 10/10/10 17/17/17 11/11/11
f 11/11/11 17/17/17 18/18/18
f 11/11/11 18/18/18 12/12/12
f 13/13/13 19/19/19 20/20/20
f 13/13/13 20/20/20 14/14/14
f 14/14/14 20/20/20 21/21/21
f 14/14/14 21/21/21 15/15/15
f 15/15/15 21/21/21 22/22/22
f 15/15/15 22/22/22 16/16/16
f 16/16/16 22/22/22 23/23/23
f 16/16/16 23/23/23 17/17/17
f 17/17/17 23/23/23 24/24/24
f 17/17/17 24/24/24 18/18/18
f 19/19/19 25/25/25 26/26/26
f 19/19/19 26/26/26 20/20/20
f 20/20/20 26/26/26 27/27/27
f 20/20/20 27/27/27 21/21/21
f 21/21/21 27/27/27 28/28/28
f 21/21/21 28/28/28 22/22/22
f 22/22/22 28/28/28 29/29/29
f 22/22/22 29/29/29 23/23/23
f 23/23/23 29/29/29 30/30/30
f 23/23/23 30/30/30 24/24/24
f 25/25/25 31/31/31 32/32/32
f 25/25/25 32/32/32 26/26/26
f 26/26/26 32/32/32 33/33/33
f 26/26/26 33/33/33 27/27/27
f 27/27/27 33/33/33 34/34/34
f 27/27/27 34/34/34 28/28/28
f 28/28/28 34/34/34 35/35/35
f 28/28/28 35/35/35 29/29/29
f 29/29/29 35/35/35 36/36/36
f 29/29/29 36/36/36 30/30/30
f 31/31/31 37/37/37 38/38/38
f 31/31/31 38/38/38 32/32/32
f 32/32/32 38/38/38 39/39/39
f 32/32/32 39/39/39 33/33/33
f 33/33/33 39/39/39 40/40/40
f 33/33/33 40/40/40 34/34/34
f 34/34/34 40/40/40 41/41/41
f 34/34/34 41/41/41 35/35/35
f 35/35/35 41/41/41 42/42/42
f 35/35/35 42/42/42 36/36/36
f 37/37/37 43/43/43 44/44/44
f 37/37/37 44/44/44 38/38/38
f 38/38/38 44/44/44 45/45/45
f 38/38/38 45/45/45 39/39/39
f 39/39/39 45/45/45 46/46/46
f 39/39/39 46/46/46 40/40/40
f 40/40/40 46/46/46 47/47/47
f 40/40/40 47/47/47 41/41/41
f 41/41/41 47/47/47 48/48/48
f 41/41/41 48/48/48 42/42/42
f 43/43/43 49/49/49 50/50/50
f 43/43/43 50/50/50 44/44/44
f 44/44/44 50/50/50 51/51/51
f 44/44/44 51/51/51 45/45/45
f 45/45/45 51/51/51 52/52/52
f 45/45/45 52/52/52 46/46/46
f 46/46/46 52/52/52 53/53/53
f 46/46/46 53/53/53 47/47/47
f 47/47/47 53/53/53 54/54/54
f 47/47/47 54/54/54 48/48/48
f 49/49/49 55/55/55 56/56/56
f 49/49/49 56/56/56 50/50/50
f 50/50/50 56/56/56 57/57/57
f 50/50/50 57/57/57 51/51/51
f 51/51/51 57/57/57 58/58/58
f 51/51/51 58/58/58 52/52/52
f 52/52/52 58/58/58 59/59/59
f 52/52/52 59/59/59 53/53/53
f 53/53/53 59/59/59 60/60/60
f 53/53/53 60/60/60 54/54/54
f 55/55/55 61/61/61 62/62/62
f 55/55/55 62/62/62 56/56/56
f 56/56/56 62/62/62 63/63/63
f 56/56/56 63/63/63 57/57/57
f 57/57/57 63/63/63 64/64/64
f 57/57/57 64/64/64 58/58/58
f 58/58/58 64/64/64 65/65/65
f 58/58/58 65/65/65 59/59/59
f 59/59/59 65/65/65 66/66/66
f 59/59/59 66/66/66 60/60/60
f 61/61/61 67/67/67 68/68/68
f 61/61/61 68/68/68 62/62/62
f 62/62/62 68/68/68 69/69/69
f 62/62/62 69/69/69 63/63/63
f 63/63/63 69/69/69 70/70/70
f 63/63/63 70/70/70 64/64/64
f 64/64/64 70/70/70 71/71/71
f 64/64/64 71/71/71 65/65/65
f 65/65/65 71/71/71 72/72/72
f 65/65/65 72/72/72 66/66/66
f 67/67/67 73/73/73 74/74/74
f 67/67/67 74/74/74 68/68/68
f 68/68/68 74/74/74 75/75/75
f 68/68/68 75/75/75 69/69/69
f 69/69/69 75/75/75 76/76/76
f 69/69/69 76/76/76 70/70/70
f 70/70/70 76/76/76 77/77/77
f 70/70/70 77/77/77 71/71/71
f 71/71/71 77/77/77 78/78/78
f 71/71/71 78/78/78 72/72/72
f 73/73/73 79/79/79 80/80/80
f 73/73/73 80/80/80 74/74/74
f 74/74/74 80/80/80 81/81/81
f 74/74/74 81/81/81 75/75/75
f 75/75/75 81/81/81 82/82/82
f 75/75/75 82/82/82 76/76/76
f 76/76/76 82/82/82 83/83/83
f 76/76/76 83/83/83 77/77/77
f 77/77/77 83/83/83 84/84/84
f 77/77/77 84/84/84 78/78/78
f 79/79/79 85/85/85 86/86/86
f 79/79/79 86/86/86 80/80/80
f 80/80/80 86/86/86 87/87/87
f 80/80/80 87/87/87 81/81/81
f 81/81/81 87/87/87 88/88/88
f 81/81/81 88/88/88 82/82/82
f 82/82/82 88/88/88 89/89/89
f 82/82/82 89/89/89 83/83/83
f 83/83/83 89/89/89 90/90/90
f 83/83/83 90/90/90 84/84/84
f 85/85/85 91/91/91 92/92/92
f 85/85/85 92/92/92 86/86/86
f 86/86/86 92/92/92 93/93/93
f 86/86/86 93/93/93 87/87/87
f 87/87/87 93/93/93 94/94/94
f 87/87/87 94/94/94 88/88/88
f 88/88/88 94/94/94 95/95/95
f 88/88/88 95/95/95 89/89/89
f 89/89/89 95/95/95 96/96/96
f 89/89/89 96/96/96 90/90/90
f 91/91/91 97/97/97 98/98/98
f 91/91/91 98/98/98 92/92/92
f 92/92/92 98/98/98 99/99/99
f 92/92/92 99/99/99 93/93/93
f 93/93/93 99/99/99 100/100/100
f 93/93/93 100/100/100 94/94/94
f 94/94/94 100/100/100 101/101/101
f 94/94/94 101/101/101 95/95/95
f 95/95/95 101/101/101 102/102/102
f 95/95/95 102/102/102 96/96/96
f 97/97/97 103/103/103 104/104/104
f 97/97/97 104/104/104 98/98/98
f 98/98/98 104/104/104 105/105/105
f 98/98/98 105/105/105 99/99/99
f 99/99/99 105/105/105 106/106/106
f 99/99/99 106/106/106 100/100/100
f 100/100/100 106/106/106 107/107/107
f 100/100/100 107/107/107 101/101/101
f 101/101/101 107/107/107 108/108/108
f 101/101/101 108/108/108 102/102/102
f 103/103/103 109/109/109 110/110/110
f 103/103/103 110/110/110 104/104/104
f 104/104/104 110/110/110 111/111/111
f 104/104/104 111/111/111 105/105/105
f 105/105/105 111/111/111 112/112/112
f 105/105/105 112/112/112 106/106/106
f 106/106/106 112/112/112 113/113/113
f 106/106/106 113/113/113 107/107/107
f 107/107/107 113/113/113 114/114/114
f 107/107/107 114/114/114 108/108/108
f 109/109/109 115/115/115 116/116/116
f 109/109/109 116/116/116 110/110/110
f 110/110/110 116/116/116 117/117/117
f 110/110/110 117/117/117 111/111/111
f 111/111/111 117/117/117 118/118/118
f 111/111/111 118/118/118 112/112/112
f 112/112/112 118/118/118 119/119/119
f 112/112/112 119/119/119 113/113/113
f 113/113/113 119/119/119 120/120/120
f 113/113/113 120/120/120 114/114/114
f 115/115/115 121/121/121 122/122/122
f 115/115/115 122/122/122 116/116/116
f 116/116/116 122/122/122 123/123/123
f 116/116/116 123/123/123 117/117/117
f 117/117/117 123/123/123 124/124/124
f 117/117/117 124/124/124 118/118/118
f 118/118/118 124/124/124 125/125/125
f 118/118/118 125/125/125 119/119/119
f 119/119/119 125/125/125 126/126/126
f 119/119/119 126/126/126 120/120/120
f 121/121/121 127/127/127 128/128/128
f 121/121/121 128/128/128 122/122/122
f 122/122/122 128/128/128 129/129/129
f 122/122/122 129/129/129 123/123/123
f 123/123/123 129/129/129 130/130/130
f 123/123/123 130/130/130 124/124/124
f 124/124/124 130/130/130 131/131/131
f 124/124/124 131/131/131 125/125/125
f 125/125/125 131/131/131 132/132/132
f 125/125/125 132/132/132 126/126/126
f 127/127/127 133/133/133 134/134/134
f 127/127/127 134/134/134 128/128/128
f 128/128/128 134/134/134 135/135/135
f 128/128/128 135/135/135 129/129/129
f 129/129/129 135/135/135 136/136/136
f 129/129/129 136/136/136 130/130/130
f 130/130/130 136/136/136 137/137/137
f 130/130/130 137/137/137 131/131/131
f 131/131/131 137/137/137 138/138/138
f 131/131/131 138/138/138 132/132/132
f 133/133/133 139/139/139 140/140/140
f 133/133/133 140/140/140 134/134/134
f 134/134/134 140/140/140 141/141/141
f 134/134/134 141/141/141 135/135/135
f 135/135/135 141/141/141 142/142/142
f 135/135/135 142/142/142 136/136/136
f 136/136/136 142/142/142 143/143/143
f 136/136/136 143/143/143 137/137/137
f 137/137/137 143/143/143 144/144/144
f 137/137/137 144/144/144 138/138/138
f 139/139/139 145/145/145 146/146/146
f 139/139/139 146/146/146 140/140/140
f 140/140/140 146/146/146 147/147/147
f 140/140/140 147/147/147 141/141/141
f 141/141/141 147/147/147 148/148/148
f 141/141/141 148/148/148 142/142/142
f 142/142/142 148/148/148 149/149/149
f 142/142/142 149/149/149 143/143/143
f 143/143/143 149/149/149 150/150/150
f 143/143/143 150/150/150 144/144/144
f 145/145/145 151/151/151 152/152/152
f 145/145/145 152/152/152 146/146/146
f 146/146/146 152/152/152 153/153/153
f 146/146/146 153/153/153 147/147/147
f 147/147/147 153/153/153 154/154/154
f 147/147/147 154/154/154 148/148/148
f 148/148/148 154/154/154 155/155/155
f 148/148/148 155/155/155 149/149/149
f 149/149/149 155/155/155 156/156/156
f 149/149/149 156/156/156 150/150/150
f 151/151/151 157/157/157 158/158/158
f 151/151/151 158/158/158 152/152/152
f 152/152/152 158/158/158 159/159/159
f 152/152/152 159/159/159 153/153/153
f 153/153/153 159/159/159 160/160/160
f 153/153/153 160/160/160 154/154/154
f 154/154/154 160/160/160 161/161/161
f 154/154/154 161/161/161 155/155/155
f 155/155/155 161/161/161 162/162/162
f 155/155/155 162/162/162 156/156/156
f 157/157/157 163/163/163 164/164/164
f 157/157/157 164/164/164 158/158/158
f 158/158/158 164/164/164 165/165/165
f 158/158/158 165/165/165 159/159/159
f 159/159/159 165/165/165 166/166/166
f 159/159/159 166/166/166 160/160/160
f 160/160/160 166/166/166 167/167/167
f 160/160/160 167/167/167 161/161/161
f 161/161/161 167/167/167 168/168/168
f 161/161/161 168/168/168 162/162/162
f 163/163/163 169/169/169 170/170/170
f 163/163/163 170/170/170 164/164/164
f 164/164/164 170/170/170 171/171/171
f 164/164/164 171/171/171 165/165/165
f 165/165/165 171/171/171 172/172/172
f 165/165/165 172/172/172 166/166/166
f 166/166/166 172/172/172 173/173/173
f 166/166/166 173/173/173 167/167/167
f 167/167/167 173/173/173 174/174/174
f 167/167/167 174/174/174 168/168/168
f 169/169/169 175/175/175 176/176/176
f 169/169/169 176/176/176 170/170/170
f 170/170/170 176/176/176 177/177/177
f 170/170/170 177/177/177 171/171/171
f 171/171/171 177/177/177 178/178/178
f 171/171/171 178/178/178 172/172/172
f 172/172/172 178/178/178 179/179/179
f 172/172/172 179/179/179 173/173/173
f 173/173/173 179/179/179 180/180/180
f 173/173/173 180/180/180 174/174/174
f 175/175/175 181/181/181 182/182/182
f 175/175/175 182/182/182 176/176/176
f 176/176/176 182/182/182 183/183/183
f 176/176/176 183/183/183 177/177/177
f 177/177/177 183/183/183 184/184/184
f 177/177/177 184/184/184 178/178/178
f 178/178/178 184/184/184 185/185/185
f 178/178/178 185/185/185 179/179/179
f 179/179/179 185/185/185 186/186/186
f 179/179/179 186/186/186 180/180/180
f 181/181/181 187/187/187 188/188/188
f 181/181/181 188/188/188 182/182/182
f 182/182/182 188/188/188 189/189/189
f 182/182/182 189/189/189 183/183/183
f 183/183/183 189/189/189 190/190/190
f 183/183/183 190/190/190 184/184/184
f 184/184/184 190/190/190 191/191/191
f 184/184/184 191/191/191 185/185/185
f 185/185/185 191/191/191 192/192/192
f 185/185/185 192/192/192 186/186/186
f 187/187/187 193/193/193 194/194/194
f 187/187/187 194/194/194 188/188/188
f 188/188/188 194/194/194 195/195/195
f 188/188/188 195/195/195 189/189/189
f 189/189/189 195/195/195 196/196/196
f 189/189/189 196/196/196 190/190/190
f 190/190/190 196/196/196 197/197/197
f 190/190/190 197/197/197 191/191/191
f 191/191/191 197/197/197 198/198/198
f 191/191/191 198/198/198 192/192/192
usemtl top
f 230/230/230 199/199/199 200/200/200
f 230/230/230 200/200/200 201/201/201
f 230/230/230 201/201/201 202/202/202
f 230/230/230 202/202/202 203/203/203
f 230/230/230 203/203/203 204/204/204
f 230/230/230 204/204/204 205/205/205
f 230/230/230 205/205/205 206/206/206
f 230/230/230 206/206/206 207/207/207
f 230/230/230 207/207/207 208/208/208
f 230/230/230 208/208/208 209/209/209
f 230/230/230 209/209/209 210/210/210
f 230/230/230 210/210/210 211/211/211
f 230/230/230 211/211/211 212/212/212
f 230/230/230 212/212/212 213/213/213
f 230/230/230 213/213/213 214/214/214
f 230/230/230 214/214/214 215/215/215
f 230/230/230 215/215/215 216/216/216
f 230/230/230 216/216/216 217/217/217
f 230/230/230 217/217/217 218/218/218
f 230/230/230 218/218/218 219/219/219
f 230/230/230 219/219/219 220/220/220
f 230/230/230 220/220/220 221/221/221
f 230/230/230 221/221/221 222/222/222
f 230/230/230 222/222/222 223/223/223
f 230/230/230 223/223/223 224/224/224
f 230/230/230 224/224/224 225/225/225
f 230/230/230 225/225/225 226/226/226
f 230/230/230 226/226/226 227/227/227
f 230/230/230 227/227/227 228/228/228
f 228/228/228 229/229/229 230/230/230
