# Sinh tự động bởi tools/mesh_kit.py - đừng sửa tay
o pz_bell_rope
v 0.0053 0.2000 0.0030
v 0.0034 0.2002 0.0057
v 0.0002 0.2001 0.0046
v 0.0002 0.1999 0.0014
v 0.0034 0.1998 0.0003
v 0.0053 0.2000 0.0030
v 0.0056 0.1750 0.0048
v 0.0037 0.1751 0.0075
v 0.0006 0.1751 0.0065
v 0.0006 0.1750 0.0032
v 0.0037 0.1749 0.0022
v 0.0056 0.1750 0.0048
v 0.0045 0.1499 0.0049
v 0.0026 0.1499 0.0075
v -0.0005 0.1500 0.0065
v -0.0005 0.1502 0.0032
v 0.0026 0.1501 0.0022
v 0.0045 0.1499 0.0049
v 0.0034 0.1249 0.0028
v 0.0015 0.1247 0.0055
v -0.0016 0.1249 0.0045
v -0.0016 0.1252 0.0012
v 0.0015 0.1252 0.0002
v 0.0034 0.1249 0.0028
v 0.0035 0.1001 -0.0001
v 0.0016 0.0997 0.0025
v -0.0016 0.0998 0.0015
v -0.0015 0.1001 -0.0018
v 0.0016 0.1003 -0.0028
v 0.0035 0.1001 -0.0001
v 0.0047 0.0751 -0.0024
v 0.0028 0.0749 0.0002
v -0.0004 0.0748 -0.0008
v -0.0003 0.0750 -0.0041
v 0.0028 0.0752 -0.0051
v 0.0047 0.0751 -0.0024
v 0.0059 0.0500 -0.0028
v 0.0039 0.0501 -0.0002
v 0.0008 0.0500 -0.0012
v 0.0008 0.0499 -0.0045
v 0.0040 0.0500 -0.0055
v 0.0059 0.0500 -0.0028
v 0.0055 0.0249 -0.0017
v 0.0036 0.0251 0.0010
v 0.0005 0.0252 -0.0001
v 0.0005 0.0250 -0.0034
v 0.0036 0.0248 -0.0043
v 0.0055 0.0249 -0.0017
v 0.0033 -0.0003 -0.0004
v 0.0013 -0.0000 0.0023
v -0.0018 0.0003 0.0012
v -0.0018 0.0002 -0.0021
v 0.0014 -0.0002 -0.0031
v 0.0033 -0.0003 -0.0004
v 0.0000 -0.0253 -0.0004
v -0.0019 -0.0252 0.0023
v -0.0050 -0.0248 0.0012
v -0.0050 -0.0247 -0.0021
v -0.0019 -0.0250 -0.0031
v 0.0000 -0.0253 -0.0004
v -0.0023 -0.0501 -0.0019
v -0.0043 -0.0502 0.0007
v -0.0074 -0.0500 -0.0004
v -0.0073 -0.0498 -0.0036
v -0.0042 -0.0499 -0.0046
v -0.0023 -0.0501 -0.0019
v -0.0024 -0.0749 -0.0040
v -0.0044 -0.0751 -0.0013
v -0.0075 -0.0752 -0.0024
v -0.0074 -0.0750 -0.0057
v -0.0043 -0.0748 -0.0067
v -0.0024 -0.0749 -0.0040
v -0.0003 -0.0997 -0.0049
v -0.0023 -0.0999 -0.0022
v -0.0054 -0.1002 -0.0033
v -0.0053 -0.1002 -0.0066
v -0.0021 -0.0999 -0.0076
v -0.0003 -0.0997 -0.0049
v 0.0027 -0.1247 -0.0037
v 0.0007 -0.1247 -0.0010
v -0.0024 -0.1251 -0.0021
v -0.0023 -0.1254 -0.0054
v 0.0009 -0.1251 -0.0064
v 0.0027 -0.1247 -0.0037
v 0.0048 -0.1499 -0.0008
v 0.0028 -0.1497 0.0018
v -0.0003 -0.1499 0.0007
v -0.0002 -0.1503 -0.0026
v 0.0030 -0.1503 -0.0035
v 0.0048 -0.1499 -0.0008
v 0.0051 -0.1750 0.0020
v 0.0031 -0.1748 0.0046
v -0.0000 -0.1748 0.0035
v 0.0001 -0.1751 0.0002
v 0.0033 -0.1752 -0.0007
v 0.0051 -0.1750 0.0020
v 0.0041 -0.2001 0.0034
v 0.0021 -0.1999 0.0060
v -0.0010 -0.1998 0.0048
v -0.0009 -0.2000 0.0015
v 0.0023 -0.2002 0.0006
v 0.0041 -0.2001 0.0034
v 0.0025 0.2000 0.0030
v 0.0053 0.2000 0.0030
v 0.0034 0.2002 0.0057
v 0.0002 0.2001 0.0046
v 0.0002 0.1999 0.0014
v 0.0034 0.1998 0.0003
v 0.0013 -0.2000 0.0033
v 0.0041 -0.2001 0.0034
v 0.0021 -0.1999 0.0060
v -0.0010 -0.1998 0.0048
v -0.0009 -0.2000 0.0015
v 0.0023 -0.2002 0.0006
v 0.0015 0.2000 0.0052
v -0.0004 0.1998 0.0078
v -0.0035 0.1999 0.0068
v -0.0035 0.2001 0.0035
v -0.0004 0.2002 0.0025
v 0.0015 0.2000 0.0052
v 0.0016 0.1751 0.0032
v -0.0003 0.1748 0.0059
v -0.0035 0.1748 0.0049
v -0.0035 0.1751 0.0016
v -0.0003 0.1753 0.0006
v 0.0016 0.1751 0.0032
v 0.0033 0.1502 0.0007
v 0.0013 0.1499 0.0034
v -0.0018 0.1497 0.0023
v -0.0018 0.1499 -0.0009
v 0.0013 0.1503 -0.0019
v 0.0033 0.1502 0.0007
v 0.0059 0.1253 -0.0007
v 0.0040 0.1250 0.0020
v 0.0008 0.1248 0.0009
v 0.0009 0.1248 -0.0024
v 0.0040 0.1251 -0.0034
v 0.0059 0.1253 -0.0007
v 0.0078 0.1001 -0.0004
v 0.0059 0.1001 0.0022
v 0.0028 0.1000 0.0012
v 0.0028 0.0999 -0.0021
v 0.0059 0.1000 -0.0031
v 0.0078 0.1001 -0.0004
v 0.0076 0.0749 0.0008
v 0.0057 0.0751 0.0035
v 0.0025 0.0752 0.0024
v 0.0026 0.0751 -0.0009
v 0.0057 0.0749 -0.0019
v 0.0076 0.0749 0.0008
v 0.0051 0.0497 0.0015
v 0.0032 0.0499 0.0041
v 0.0001 0.0503 0.0031
v 0.0001 0.0503 -0.0002
v 0.0033 0.0499 -0.0012
v 0.0051 0.0497 0.0015
v 0.0017 0.0247 0.0004
v -0.0002 0.0247 0.0031
v -0.0033 0.0252 0.0020
v -0.0033 0.0254 -0.0013
v -0.0001 0.0251 -0.0022
v 0.0017 0.0247 0.0004
v -0.0007 -0.0002 -0.0020
v -0.0027 -0.0003 0.0006
v -0.0058 -0.0000 -0.0005
v -0.0058 0.0003 -0.0038
v -0.0026 0.0002 -0.0047
v -0.0007 -0.0002 -0.0020
v -0.0011 -0.0250 -0.0045
v -0.0031 -0.0252 -0.0019
v -0.0062 -0.0252 -0.0030
v -0.0062 -0.0249 -0.0063
v -0.0030 -0.0248 -0.0072
v -0.0011 -0.0250 -0.0045
v 0.0002 -0.0498 -0.0054
v -0.0018 -0.0499 -0.0028
v -0.0049 -0.0501 -0.0039
v -0.0048 -0.0501 -0.0072
v -0.0017 -0.0500 -0.0081
v 0.0002 -0.0498 -0.0054
v 0.0019 -0.0749 -0.0042
v -0.0001 -0.0748 -0.0015
v -0.0032 -0.0750 -0.0026
v -0.0031 -0.0752 -0.0059
v 0.0001 -0.0752 -0.0069
v 0.0019 -0.0749 -0.0042
v 0.0026 -0.1000 -0.0016
v 0.0006 -0.0997 0.0010
v -0.0025 -0.0999 -0.0001
v -0.0024 -0.1002 -0.0034
v 0.0007 -0.1002 -0.0043
v 0.0026 -0.1000 -0.0016
v 0.0020 -0.1251 0.0006
v -0.0001 -0.1249 0.0032
v -0.0032 -0.1248 0.0021
v -0.0031 -0.1250 -0.0012
v 0.0001 -0.1252 -0.0021
v 0.0020 -0.1251 0.0006
v 0.0010 -0.1500 0.0012
v -0.0010 -0.1500 0.0038
v -0.0041 -0.1500 0.0027
v -0.0040 -0.1500 -0.0006
v -0.0009 -0.1500 -0.0015
v 0.0010 -0.1500 0.0012
v 0.0011 -0.1749 0.0003
v -0.0009 -0.1751 0.0029
v -0.0040 -0.1752 0.0018
v -0.0039 -0.1750 -0.0015
v -0.0007 -0.1749 -0.0024
v 0.0011 -0.1749 0.0003
v 0.0030 -0.1998 -0.0008
v 0.0010 -0.2001 0.0018
v -0.0021 -0.2002 0.0006
v -0.0020 -0.2001 -0.0026
v 0.0011 -0.1998 -0.0035
v 0.0030 -0.1998 -0.0008
v -0.0012 0.2000 0.0052
v 0.0015 0.2000 0.0052
v -0.0004 0.1998 0.0078
v -0.0035 0.1999 0.0068
v -0.0035 0.2001 0.0035
v -0.0004 0.2002 0.0025
v 0.0002 -0.2000 -0.0009
v 0.0030 -0.1998 -0.0008
v 0.0010 -0.2001 0.0018
v -0.0021 -0.2002 0.0006
v -0.0020 -0.2001 -0.0026
v 0.0011 -0.1998 -0.0035
v 0.0015 0.2004 0.0008
v -0.0004 0.2001 0.0035
v -0.0035 0.1997 0.0025
v -0.0035 0.1997 -0.0008
v -0.0004 0.2002 -0.0018
v 0.0015 0.2004 0.0008
v 0.0050 0.1753 0.0005
v 0.0030 0.1751 0.0032
v -0.0001 0.1748 0.0022
v -0.0001 0.1747 -0.0011
v 0.0031 0.1751 -0.0021
v 0.0050 0.1753 0.0005
v 0.0075 0.1502 0.0017
v 0.0055 0.1502 0.0044
v 0.0024 0.1500 0.0033
v 0.0024 0.1498 0.0001
v 0.0056 0.1499 -0.0009
v 0.0075 0.1502 0.0017
v 0.0078 0.1249 0.0032
v 0.0058 0.1251 0.0059
v 0.0027 0.1251 0.0048
v 0.0027 0.1250 0.0015
v 0.0058 0.1249 0.0005
v 0.0078 0.1249 0.0032
v 0.0059 0.0998 0.0035
v 0.0040 0.0998 0.0061
v 0.0008 0.1001 0.0051
v 0.0009 0.1002 0.0018
v 0.0040 0.1000 0.0008
v 0.0059 0.0998 0.0035
v 0.0034 0.0748 0.0017
v 0.0014 0.0747 0.0044
v -0.0017 0.0750 0.0033
v -0.0016 0.0753 0.0000
v 0.0015 0.0752 -0.0009
v 0.0034 0.0748 0.0017
v 0.0018 0.0499 -0.0013
v -0.0002 0.0497 0.0014
v -0.0033 0.0499 0.0003
v -0.0032 0.0503 -0.0030
v -0.0001 0.0503 -0.0039
v 0.0018 0.0499 -0.0013
v 0.0018 0.0250 -0.0039
v -0.0002 0.0248 -0.0013
v -0.0033 0.0248 -0.0023
v -0.0032 0.0251 -0.0056
v -0.0001 0.0252 -0.0066
v 0.0018 0.0250 -0.0039
v 0.0027 0.0001 -0.0047
v 0.0007 0.0000 -0.0020
v -0.0024 -0.0000 -0.0031
v -0.0023 -0.0001 -0.0064
v 0.0008 0.0000 -0.0074
v 0.0027 0.0001 -0.0047
v 0.0031 -0.0250 -0.0035
v 0.0011 -0.0248 -0.0009
v -0.0020 -0.0249 -0.0019
v -0.0020 -0.0251 -0.0052
v 0.0012 -0.0252 -0.0062
v 0.0031 -0.0250 -0.0035
v 0.0020 -0.0502 -0.0015
v 0.0000 -0.0499 0.0011
v -0.0031 -0.0498 0.0001
v -0.0030 -0.0500 -0.0032
v 0.0001 -0.0502 -0.0042
v 0.0020 -0.0502 -0.0015
v -0.0001 -0.0752 -0.0003
v -0.0021 -0.0750 0.0023
v -0.0052 -0.0748 0.0012
v -0.0051 -0.0749 -0.0021
v -0.0019 -0.0751 -0.0030
v -0.0001 -0.0752 -0.0003
v -0.0017 -0.1001 -0.0007
v -0.0037 -0.1001 0.0019
v -0.0068 -0.1000 0.0008
v -0.0067 -0.0999 -0.0025
v -0.0035 -0.0999 -0.0035
v -0.0017 -0.1001 -0.0007
v -0.0013 -0.1248 -0.0022
v -0.0033 -0.1251 0.0004
v -0.0064 -0.1252 -0.0007
v -0.0064 -0.1250 -0.0040
v -0.0032 -0.1248 -0.0049
v -0.0013 -0.1248 -0.0022
v 0.0011 -0.1497 -0.0031
v -0.0009 -0.1499 -0.0005
v -0.0039 -0.1503 -0.0016
v -0.0039 -0.1503 -0.0049
v -0.0007 -0.1499 -0.0058
v 0.0011 -0.1497 -0.0031
v 0.0046 -0.1747 -0.0023
v 0.0026 -0.1747 0.0003
v -0.0005 -0.1752 -0.0008
v -0.0004 -0.1754 -0.0041
v 0.0028 -0.1751 -0.0050
v 0.0046 -0.1747 -0.0023
v 0.0072 -0.1997 0.0003
v 0.0051 -0.1996 0.0029
v 0.0021 -0.2001 0.0018
v 0.0022 -0.2004 -0.0015
v 0.0054 -0.2002 -0.0024
v 0.0072 -0.1997 0.0003
v -0.0013 0.2000 0.0008
v 0.0015 0.2004 0.0008
v -0.0004 0.2001 0.0035
v -0.0035 0.1997 0.0025
v -0.0035 0.1997 -0.0008
v -0.0004 0.2002 -0.0018
v 0.0044 -0.2000 0.0002
v 0.0072 -0.1997 0.0003
v 0.0051 -0.1996 0.0029
v 0.0021 -0.2001 0.0018
v 0.0022 -0.2004 -0.0015
v 0.0054 -0.2002 -0.0024
v 0.0000 -0.2140 0.0000
v 0.0000 -0.2140 0.0000
v 0.0000 -0.2140 0.0000
v 0.0000 -0.2140 -0.0000
v 0.0000 -0.2140 -0.0000
v -0.0000 -0.2140 -0.0000
v -0.0000 -0.2140 -0.0000
v -0.0000 -0.2140 0.0000
v -0.0000 -0.2140 0.0000
v 0.0000 -0.2121 0.0060
v 0.0042 -0.2121 0.0042
v 0.0060 -0.2121 0.0000
v 0.0042 -0.2121 -0.0042
v 0.0000 -0.2121 -0.0060
v -0.0042 -0.2121 -0.0042
v -0.0060 -0.2121 -0.0000
v -0.0042 -0.2121 0.0042
v -0.0000 -0.2121 0.0060
v 0.0000 -0.2070 0.0104
v 0.0073 -0.2070 0.0073
v 0.0104 -0.2070 0.0000
v 0.0073 -0.2070 -0.0073
v 0.0000 -0.2070 -0.0104
v -0.0073 -0.2070 -0.0073
v -0.0104 -0.2070 -0.0000
v -0.0073 -0.2070 0.0073
v -0.0000 -0.2070 0.0104
v 0.0000 -0.2000 0.0120
v 0.0085 -0.2000 0.0085
v 0.0120 -0.2000 0.0000
v 0.0085 -0.2000 -0.0085
v 0.0000 -0.2000 -0.0120
v -0.0085 -0.2000 -0.0085
v -0.0120 -0.2000 -0.0000
v -0.0085 -0.2000 0.0085
v -0.0000 -0.2000 0.0120
v 0.0000 -0.1930 0.0104
v 0.0073 -0.1930 0.0073
v 0.0104 -0.1930 0.0000
v 0.0073 -0.1930 -0.0073
v 0.0000 -0.1930 -0.0104
v -0.0073 -0.1930 -0.0073
v -0.0104 -0.1930 -0.0000
v -0.0073 -0.1930 0.0073
v -0.0000 -0.1930 0.0104
v 0.0000 -0.1879 0.0060
v 0.0042 -0.1879 0.0042
v 0.0060 -0.1879 0.0000
v 0.0042 -0.1879 -0.0042
v 0.0000 -0.1879 -0.0060
v -0.0042 -0.1879 -0.0042
v -0.0060 -0.1879 -0.0000
v -0.0042 -0.1879 0.0042
v -0.0000 -0.1879 0.0060
v 0.0000 -0.1860 0.0000
v 0.0000 -0.1860 0.0000
v 0.0000 -0.1860 0.0000
v 0.0000 -0.1860 -0.0000
v 0.0000 -0.1860 -0.0000
v -0.0000 -0.1860 -0.0000
v -0.0000 -0.1860 -0.0000
v -0.0000 -0.1860 0.0000
v -0.0000 -0.1860 0.0000
v 0.0076 -0.2048 0.0000
v 0.0052 -0.2051 0.0014
v 0.0052 -0.2051 -0.0014
v 0.0076 -0.2048 -0.0000
v 0.0136 -0.2546 0.0000
v 0.0112 -0.2549 0.0014
v 0.0112 -0.2549 -0.0014
v 0.0136 -0.2546 -0.0000
v 0.0060 -0.2050 0.0000
v 0.0076 -0.2048 0.0000
v 0.0052 -0.2051 0.0014
v 0.0052 -0.2051 -0.0014
v 0.0120 -0.2548 0.0000
v 0.0136 -0.2546 0.0000
v 0.0112 -0.2549 0.0014
v 0.0112 -0.2549 -0.0014
v 0.0053 -0.2049 0.0047
v 0.0029 -0.2049 0.0061
v 0.0029 -0.2052 0.0033
v 0.0053 -0.2049 0.0047
v 0.0091 -0.2608 0.0094
v 0.0067 -0.2608 0.0108
v 0.0067 -0.2611 0.0080
v 0.0091 -0.2608 0.0094
v 0.0037 -0.2050 0.0047
v 0.0053 -0.2049 0.0047
v 0.0029 -0.2049 0.0061
v 0.0029 -0.2052 0.0033
v 0.0075 -0.2609 0.0094
v 0.0091 -0.2608 0.0094
v 0.0067 -0.2608 0.0108
v 0.0067 -0.2611 0.0080
v 0.0003 -0.2050 0.0059
v -0.0021 -0.2048 0.0072
v -0.0021 -0.2051 0.0045
v 0.0003 -0.2050 0.0059
v -0.0011 -0.2574 0.0117
v -0.0035 -0.2572 0.0131
v -0.0035 -0.2575 0.0103
v -0.0011 -0.2574 0.0117
v -0.0013 -0.2050 0.0058
v 0.0003 -0.2050 0.0059
v -0.0021 -0.2048 0.0072
v -0.0021 -0.2051 0.0045
v -0.0027 -0.2574 0.0117
v -0.0011 -0.2574 0.0117
v -0.0035 -0.2572 0.0131
v -0.0035 -0.2575 0.0103
v -0.0038 -0.2052 0.0026
v -0.0062 -0.2049 0.0040
v -0.0062 -0.2050 0.0012
v -0.0038 -0.2052 0.0026
v -0.0092 -0.2622 0.0052
v -0.0116 -0.2619 0.0066
v -0.0116 -0.2621 0.0038
v -0.0092 -0.2622 0.0052
v -0.0054 -0.2050 0.0026
v -0.0038 -0.2052 0.0026
v -0.0062 -0.2049 0.0040
v -0.0062 -0.2050 0.0012
v -0.0108 -0.2621 0.0052
v -0.0092 -0.2622 0.0052
v -0.0116 -0.2619 0.0066
v -0.0116 -0.2621 0.0038
v -0.0038 -0.2051 -0.0026
v -0.0062 -0.2050 -0.0012
v -0.0062 -0.2049 -0.0040
v -0.0038 -0.2051 -0.0026
v -0.0092 -0.2627 -0.0052
v -0.0116 -0.2625 -0.0038
v -0.0116 -0.2624 -0.0066
v -0.0092 -0.2627 -0.0052
v -0.0054 -0.2050 -0.0026
v -0.0038 -0.2051 -0.0026
v -0.0062 -0.2050 -0.0012
v -0.0062 -0.2049 -0.0040
v -0.0108 -0.2625 -0.0052
v -0.0092 -0.2627 -0.0052
v -0.0116 -0.2625 -0.0038
v -0.0116 -0.2624 -0.0066
v 0.0003 -0.2050 -0.0059
v -0.0021 -0.2052 -0.0045
v -0.0021 -0.2048 -0.0072
v 0.0003 -0.2050 -0.0059
v -0.0011 -0.2514 -0.0117
v -0.0035 -0.2515 -0.0103
v -0.0035 -0.2511 -0.0131
v -0.0011 -0.2514 -0.0117
v -0.0013 -0.2050 -0.0058
v 0.0003 -0.2050 -0.0059
v -0.0021 -0.2052 -0.0045
v -0.0021 -0.2048 -0.0072
v -0.0027 -0.2513 -0.0117
v -0.0011 -0.2514 -0.0117
v -0.0035 -0.2515 -0.0103
v -0.0035 -0.2511 -0.0131
v 0.0053 -0.2049 -0.0047
v 0.0029 -0.2052 -0.0033
v 0.0029 -0.2049 -0.0061
v 0.0053 -0.2049 -0.0047
v 0.0091 -0.2501 -0.0094
v 0.0067 -0.2505 -0.0080
v 0.0067 -0.2502 -0.0108
v 0.0091 -0.2501 -0.0094
v 0.0037 -0.2050 -0.0047
v 0.0053 -0.2049 -0.0047
v 0.0029 -0.2052 -0.0033
v 0.0029 -0.2049 -0.0061
v 0.0075 -0.2503 -0.0094
v 0.0091 -0.2501 -0.0094
v 0.0067 -0.2505 -0.0080
v 0.0067 -0.2502 -0.0108
vt 0.0000 0.0000
vt 0.0000 0.0035
vt 0.0000 0.0070
vt 0.0000 0.0106
vt 0.0000 0.0141
vt 0.0000 0.0176
vt 0.0251 0.0000
vt 0.0251 0.0035
vt 0.0251 0.0070
vt 0.0251 0.0106
vt 0.0251 0.0141
vt 0.0251 0.0176
vt 0.0501 0.0000
vt 0.0501 0.0035
vt 0.0501 0.0070
vt 0.0501 0.0106
vt 0.0501 0.0141
vt 0.0501 0.0176
vt 0.0752 0.0000
vt 0.0752 0.0035
vt 0.0752 0.0070
vt 0.0752 0.0106
vt 0.0752 0.0141
vt 0.0752 0.0176
vt 0.1004 0.0000
vt 0.1004 0.0035
vt 0.1004 0.0070
vt 0.1004 0.0106
vt 0.1004 0.0141
vt 0.1004 0.0176
vt 0.1255 0.0000
vt 0.1255 0.0035
vt 0.1255 0.0070
vt 0.1255 0.0106
vt 0.1255 0.0141
vt 0.1255 0.0176
vt 0.1505 0.0000
vt 0.1505 0.0035
vt 0.1505 0.0070
vt 0.1505 0.0106
vt 0.1505 0.0141
vt 0.1505 0.0176
vt 0.1756 0.0000
vt 0.1756 0.0035
vt 0.1756 0.0070
vt 0.1756 0.0106
vt 0.1756 0.0141
vt 0.1756 0.0176
vt 0.2007 0.0000
vt 0.2007 0.0035
vt 0.2007 0.0070
vt 0.2007 0.0106
vt 0.2007 0.0141
vt 0.2007 0.0176
vt 0.2259 0.0000
vt 0.2259 0.0035
vt 0.2259 0.0070
vt 0.2259 0.0106
vt 0.2259 0.0141
vt 0.2259 0.0176
vt 0.2511 0.0000
vt 0.2511 0.0035
vt 0.2511 0.0070
vt 0.2511 0.0106
vt 0.2511 0.0141
vt 0.2511 0.0176
vt 0.2762 0.0000
vt 0.2762 0.0035
vt 0.2762 0.0070
vt 0.2762 0.0106
vt 0.2762 0.0141
vt 0.2762 0.0176
vt 0.3013 0.0000
vt 0.3013 0.0035
vt 0.3013 0.0070
vt 0.3013 0.0106
vt 0.3013 0.0141
vt 0.3013 0.0176
vt 0.3265 0.0000
vt 0.3265 0.0035
vt 0.3265 0.0070
vt 0.3265 0.0106
vt 0.3265 0.0141
vt 0.3265 0.0176
vt 0.3517 0.0000
vt 0.3517 0.0035
vt 0.3517 0.0070
vt 0.3517 0.0106
vt 0.3517 0.0141
vt 0.3517 0.0176
vt 0.3769 0.0000
vt 0.3769 0.0035
vt 0.3769 0.0070
vt 0.3769 0.0106
vt 0.3769 0.0141
vt 0.3769 0.0176
vt 0.4019 0.0000
vt 0.4019 0.0035
vt 0.4019 0.0070
vt 0.4019 0.0106
vt 0.4019 0.0141
vt 0.4019 0.0176
vt 0.0000 0.0000
vt 0.0028 0.0000
vt 0.0009 0.0027
vt -0.0023 0.0016
vt -0.0023 -0.0016
vt 0.0009 -0.0027
vt 0.0000 0.0000
vt 0.0028 0.0000
vt 0.0009 0.0027
vt -0.0023 0.0016
vt -0.0023 -0.0016
vt 0.0009 -0.0027
vt 0.0000 0.0000
vt 0.0000 0.0035
vt 0.0000 0.0070
vt 0.0000 0.0106
vt 0.0000 0.0141
vt 0.0000 0.0176
vt 0.0251 0.0000
vt 0.0251 0.0035
vt 0.0251 0.0070
vt 0.0251 0.0106
vt 0.0251 0.0141
vt 0.0251 0.0176
vt 0.0503 0.0000
vt 0.0503 0.0035
vt 0.0503 0.0070
vt 0.0503 0.0106
vt 0.0503 0.0141
vt 0.0503 0.0176
vt 0.0754 0.0000
vt 0.0754 0.0035
vt 0.0754 0.0070
vt 0.0754 0.0106
vt 0.0754 0.0141
vt 0.0754 0.0176
vt 0.1005 0.0000
vt 0.1005 0.0035
vt 0.1005 0.0070
vt 0.1005 0.0106
vt 0.1005 0.0141
vt 0.1005 0.0176
vt 0.1255 0.0000
vt 0.1255 0.0035
vt 0.1255 0.0070
vt 0.1255 0.0106
vt 0.1255 0.0141
vt 0.1255 0.0176
vt 0.1507 0.0000
vt 0.1507 0.0035
vt 0.1507 0.0070
vt 0.1507 0.0106
vt 0.1507 0.0141
vt 0.1507 0.0176
vt 0.1759 0.0000
vt 0.1759 0.0035
vt 0.1759 0.0070
vt 0.1759 0.0106
vt 0.1759 0.0141
vt 0.1759 0.0176
vt 0.2012 0.0000
vt 0.2012 0.0035
vt 0.2012 0.0070
vt 0.2012 0.0106
vt 0.2012 0.0141
vt 0.2012 0.0176
vt 0.2263 0.0000
vt 0.2263 0.0035
vt 0.2263 0.0070
vt 0.2263 0.0106
vt 0.2263 0.0141
vt 0.2263 0.0176
vt 0.2514 0.0000
vt 0.2514 0.0035
vt 0.2514 0.0070
vt 0.2514 0.0106
vt 0.2514 0.0141
vt 0.2514 0.0176
vt 0.2764 0.0000
vt 0.2764 0.0035
vt 0.2764 0.0070
vt 0.2764 0.0106
vt 0.2764 0.0141
vt 0.2764 0.0176
vt 0.3016 0.0000
vt 0.3016 0.0035
vt 0.3016 0.0070
vt 0.3016 0.0106
vt 0.3016 0.0141
vt 0.3016 0.0176
vt 0.3267 0.0000
vt 0.3267 0.0035
vt 0.3267 0.0070
vt 0.3267 0.0106
vt 0.3267 0.0141
vt 0.3267 0.0176
vt 0.3517 0.0000
vt 0.3517 0.0035
vt 0.3517 0.0070
vt 0.3517 0.0106
vt 0.3517 0.0141
vt 0.3517 0.0176
vt 0.3767 0.0000
vt 0.3767 0.0035
vt 0.3767 0.0070
vt 0.3767 0.0106
vt 0.3767 0.0141
vt 0.3767 0.0176
vt 0.4018 0.0000
vt 0.4018 0.0035
vt 0.4018 0.0070
vt 0.4018 0.0106
vt 0.4018 0.0141
vt 0.4018 0.0176
vt 0.0000 0.0000
vt 0.0028 0.0000
vt 0.0009 0.0027
vt -0.0023 0.0016
vt -0.0023 -0.0016
vt 0.0009 -0.0027
vt 0.0000 0.0000
vt 0.0028 0.0000
vt 0.0009 0.0027
vt -0.0023 0.0016
vt -0.0023 -0.0016
vt 0.0009 -0.0027
vt 0.0000 0.0000
vt 0.0000 0.0035
vt 0.0000 0.0070
vt 0.0000 0.0106
vt 0.0000 0.0141
vt 0.0000 0.0176
vt 0.0252 0.0000
vt 0.0252 0.0035
vt 0.0252 0.0070
vt 0.0252 0.0106
vt 0.0252 0.0141
vt 0.0252 0.0176
vt 0.0504 0.0000
vt 0.0504 0.0035
vt 0.0504 0.0070
vt 0.0504 0.0106
vt 0.0504 0.0141
vt 0.0504 0.0176
vt 0.0754 0.0000
vt 0.0754 0.0035
vt 0.0754 0.0070
vt 0.0754 0.0106
vt 0.0754 0.0141
vt 0.0754 0.0176
vt 0.1005 0.0000
vt 0.1005 0.0035
vt 0.1005 0.0070
vt 0.1005 0.0106
vt 0.1005 0.0141
vt 0.1005 0.0176
vt 0.1257 0.0000
vt 0.1257 0.0035
vt 0.1257 0.0070
vt 0.1257 0.0106
vt 0.1257 0.0141
vt 0.1257 0.0176
vt 0.1509 0.0000
vt 0.1509 0.0035
vt 0.1509 0.0070
vt 0.1509 0.0106
vt 0.1509 0.0141
vt 0.1509 0.0176
vt 0.1761 0.0000
vt 0.1761 0.0035
vt 0.1761 0.0070
vt 0.1761 0.0106
vt 0.1761 0.0141
vt 0.1761 0.0176
vt 0.2011 0.0000
vt 0.2011 0.0035
vt 0.2011 0.0070
vt 0.2011 0.0106
vt 0.2011 0.0141
vt 0.2011 0.0176
vt 0.2261 0.0000
vt 0.2261 0.0035
vt 0.2261 0.0070
vt 0.2261 0.0106
vt 0.2261 0.0141
vt 0.2261 0.0176
vt 0.2512 0.0000
vt 0.2512 0.0035
vt 0.2512 0.0070
vt 0.2512 0.0106
vt 0.2512 0.0141
vt 0.2512 0.0176
vt 0.2763 0.0000
vt 0.2763 0.0035
vt 0.2763 0.0070
vt 0.2763 0.0106
vt 0.2763 0.0141
vt 0.2763 0.0176
vt 0.3014 0.0000
vt 0.3014 0.0035
vt 0.3014 0.0070
vt 0.3014 0.0106
vt 0.3014 0.0141
vt 0.3014 0.0176
vt 0.3264 0.0000
vt 0.3264 0.0035
vt 0.3264 0.0070
vt 0.3264 0.0106
vt 0.3264 0.0141
vt 0.3264 0.0176
vt 0.3516 0.0000
vt 0.3516 0.0035
vt 0.3516 0.0070
vt 0.3516 0.0106
vt 0.3516 0.0141
vt 0.3516 0.0176
vt 0.3768 0.0000
vt 0.3768 0.0035
vt 0.3768 0.0070
vt 0.3768 0.0106
vt 0.3768 0.0141
vt 0.3768 0.0176
vt 0.4021 0.0000
vt 0.4021 0.0035
vt 0.4021 0.0070
vt 0.4021 0.0106
vt 0.4021 0.0141
vt 0.4021 0.0176
vt 0.0000 0.0000
vt 0.0028 0.0000
vt 0.0009 0.0027
vt -0.0023 0.0016
vt -0.0023 -0.0016
vt 0.0009 -0.0027
vt 0.0000 0.0000
vt 0.0028 0.0000
vt 0.0009 0.0027
vt -0.0023 0.0016
vt -0.0023 -0.0016
vt 0.0009 -0.0027
vt 0.0000 0.0000
vt 0.0092 0.0000
vt 0.0184 0.0000
vt 0.0276 0.0000
vt 0.0367 0.0000
vt 0.0459 0.0000
vt 0.0551 0.0000
vt 0.0643 0.0000
vt 0.0735 0.0000
vt 0.0000 0.0063
vt 0.0092 0.0063
vt 0.0184 0.0063
vt 0.0276 0.0063
vt 0.0367 0.0063
vt 0.0459 0.0063
vt 0.0551 0.0063
vt 0.0643 0.0063
vt 0.0735 0.0063
vt 0.0000 0.0130
vt 0.0092 0.0130
vt 0.0184 0.0130
vt 0.0276 0.0130
vt 0.0367 0.0130
vt 0.0459 0.0130
vt 0.0551 0.0130
vt 0.0643 0.0130
vt 0.0735 0.0130
vt 0.0000 0.0202
vt 0.0092 0.0202
vt 0.0184 0.0202
vt 0.0276 0.0202
vt 0.0367 0.0202
vt 0.0459 0.0202
vt 0.0551 0.0202
vt 0.0643 0.0202
vt 0.0735 0.0202
vt 0.0000 0.0274
vt 0.0092 0.0274
vt 0.0184 0.0274
vt 0.0276 0.0274
vt 0.0367 0.0274
vt 0.0459 0.0274
vt 0.0551 0.0274
vt 0.0643 0.0274
vt 0.0735 0.0274
vt 0.0000 0.0341
vt 0.0092 0.0341
vt 0.0184 0.0341
vt 0.0276 0.0341
vt 0.0367 0.0341
vt 0.0459 0.0341
vt 0.0551 0.0341
vt 0.0643 0.0341
vt 0.0735 0.0341
vt 0.0000 0.0404
vt 0.0092 0.0404
vt 0.0184 0.0404
vt 0.0276 0.0404
vt 0.0367 0.0404
vt 0.0459 0.0404
vt 0.0551 0.0404
vt 0.0643 0.0404
vt 0.0735 0.0404
vt 0.0000 0.0000
vt 0.0000 0.0034
vt 0.0000 0.0067
vt 0.0000 0.0101
vt 0.0501 0.0000
vt 0.0501 0.0034
vt 0.0501 0.0067
vt 0.0501 0.0101
vt 0.0000 0.0000
vt 0.0016 0.0000
vt -0.0008 0.0014
vt -0.0008 -0.0014
vt 0.0000 0.0000
vt 0.0016 0.0000
vt -0.0008 0.0014
vt -0.0008 -0.0014
vt 0.0000 0.0000
vt 0.0000 0.0034
vt 0.0000 0.0067
vt 0.0000 0.0101
vt 0.0562 0.0000
vt 0.0562 0.0034
vt 0.0562 0.0067
vt 0.0562 0.0101
vt 0.0000 0.0000
vt 0.0016 0.0000
vt -0.0008 0.0014
vt -0.0008 -0.0014
vt 0.0000 0.0000
vt 0.0016 0.0000
vt -0.0008 0.0014
vt -0.0008 -0.0014
vt 0.0000 0.0000
vt 0.0000 0.0034
vt 0.0000 0.0067
vt 0.0000 0.0101
vt 0.0527 0.0000
vt 0.0527 0.0034
vt 0.0527 0.0067
vt 0.0527 0.0101
vt 0.0000 0.0000
vt 0.0016 0.0000
vt -0.0008 0.0014
vt -0.0008 -0.0014
vt 0.0000 0.0000
vt 0.0016 0.0000
vt -0.0008 0.0014
vt -0.0008 -0.0014
vt 0.0000 0.0000
vt 0.0000 0.0034
vt 0.0000 0.0067
vt 0.0000 0.0101
vt 0.0574 0.0000
vt 0.0574 0.0034
vt 0.0574 0.0067
vt 0.0574 0.0101
vt 0.0000 0.0000
vt 0.0016 0.0000
vt -0.0008 0.0014
vt -0.0008 -0.0014
vt 0.0000 0.0000
vt 0.0016 0.0000
vt -0.0008 0.0014
vt -0.0008 -0.0014
vt 0.0000 0.0000
vt 0.0000 0.0034
vt 0.0000 0.0067
vt 0.0000 0.0101
vt 0.0578 0.0000
vt 0.0578 0.0034
vt 0.0578 0.0067
vt 0.0578 0.0101
vt 0.0000 0.0000
vt 0.0016 0.0000
vt -0.0008 0.0014
vt -0.0008 -0.0014
vt 0.0000 0.0000
vt 0.0016 0.0000
vt -0.0008 0.0014
vt -0.0008 -0.0014
vt 0.0000 0.0000
vt 0.0000 0.0034
vt 0.0000 0.0067
vt 0.0000 0.0101
vt 0.0467 0.0000
vt 0.0467 0.0034
vt 0.0467 0.0067
vt 0.0467 0.0101
vt 0.0000 0.0000
vt 0.0016 0.0000
vt -0.0008 0.0014
vt -0.0008 -0.0014
vt 0.0000 0.0000
vt 0.0016 0.0000
vt -0.0008 0.0014
vt -0.0008 -0.0014
vt 0.0000 0.0000
vt 0.0000 0.0034
vt 0.0000 0.0067
vt 0.0000 0.0101
vt 0.0457 0.0000
vt 0.0457 0.0034
vt 0.0457 0.0067
vt 0.0457 0.0101
vt 0.0000 0.0000
vt 0.0016 0.0000
vt -0.0008 0.0014
vt -0.0008 -0.0014
vt 0.0000 0.0000
vt 0.0016 0.0000
vt -0.0008 0.0014
vt -0.0008 -0.0014
vn 1.000 0.013 -0.001
vn 0.309 0.073 0.948
vn -0.809 0.032 0.587
vn -0.809 -0.053 -0.585
vn 0.309 -0.065 -0.949
vn 1.000 0.013 -0.001
vn 1.000 -0.015 0.000
vn 0.309 0.031 0.950
vn -0.809 0.034 0.587
vn -0.809 -0.010 -0.587
vn 0.309 -0.040 -0.950
vn 1.000 -0.015 0.000
vn 0.999 -0.044 -0.001
vn 0.308 -0.051 0.950
vn -0.809 0.012 0.588
vn -0.808 0.058 -0.587
vn 0.309 0.024 -0.951
vn 0.999 -0.044 -0.001
vn 1.000 -0.021 0.001
vn 0.306 -0.101 0.947
vn -0.811 -0.042 0.584
vn -0.807 0.075 -0.586
vn 0.312 0.089 -0.946
vn 1.000 -0.021 0.001
vn 1.000 0.025 0.006
vn 0.306 -0.092 0.948
vn -0.811 -0.082 0.580
vn -0.807 0.041 -0.589
vn 0.312 0.107 -0.944
vn 1.000 0.025 0.006
vn 0.999 0.047 0.007
vn 0.304 -0.036 0.952
vn -0.811 -0.069 0.581
vn -0.805 -0.006 -0.593
vn 0.313 0.065 -0.947
vn 0.999 0.047 0.007
vn 1.000 0.016 0.008
vn 0.301 0.019 0.953
vn -0.814 -0.005 0.581
vn -0.804 -0.022 -0.594
vn 0.317 -0.009 -0.949
vn 1.000 0.016 0.008
vn 0.999 -0.051 0.011
vn 0.300 0.030 0.953
vn -0.813 0.070 0.578
vn -0.803 0.013 -0.596
vn 0.317 -0.062 -0.946
vn 0.999 -0.051 0.011
vn 0.994 -0.109 0.012
vn 0.298 -0.008 0.955
vn -0.810 0.104 0.577
vn -0.798 0.072 -0.598
vn 0.316 -0.059 -0.947
vn 0.994 -0.109 0.012
vn 0.994 -0.111 0.012
vn 0.292 -0.062 0.954
vn -0.813 0.073 0.577
vn -0.795 0.107 -0.598
vn 0.322 -0.007 -0.947
vn 0.994 -0.111 0.012
vn 0.999 -0.050 0.017
vn 0.289 -0.083 0.954
vn -0.820 -0.001 0.573
vn -0.796 0.082 -0.600
vn 0.328 0.052 -0.943
vn 0.999 -0.050 0.017
vn 0.999 0.040 0.022
vn 0.290 -0.044 0.956
vn -0.820 -0.067 0.569
vn -0.797 0.003 -0.605
vn 0.328 0.069 -0.942
vn 0.999 0.040 0.022
vn 0.994 0.102 0.022
vn 0.286 0.035 0.958
vn -0.818 -0.081 0.570
vn -0.791 -0.085 -0.605
vn 0.329 0.028 -0.944
vn 0.994 0.102 0.022
vn 0.994 0.103 0.022
vn 0.279 0.105 0.955
vn -0.822 -0.038 0.568
vn -0.787 -0.128 -0.603
vn 0.336 -0.041 -0.941
vn 0.994 0.103 0.022
vn 0.998 0.051 0.028
vn 0.277 0.121 0.953
vn -0.827 0.024 0.561
vn -0.788 -0.106 -0.606
vn 0.340 -0.090 -0.936
vn 0.998 0.051 0.028
vn 0.999 -0.011 0.033
vn 0.278 0.076 0.957
vn -0.827 0.058 0.559
vn -0.790 -0.040 -0.612
vn 0.339 -0.083 -0.937
vn 0.999 -0.011 0.033
vn 0.999 -0.038 0.034
vn 0.278 0.040 0.960
vn -0.827 0.063 0.559
vn -0.789 -0.001 -0.614
vn 0.339 -0.063 -0.938
vn 0.999 -0.038 0.034
vn -0.013 0.997 -0.072
vn -0.013 0.997 -0.072
vn -0.013 0.997 -0.072
vn -0.013 0.997 -0.072
vn -0.013 0.997 -0.072
vn -0.013 0.997 -0.072
vn -0.040 -0.998 0.053
vn -0.040 -0.998 0.053
vn -0.040 -0.998 0.053
vn -0.040 -0.998 0.053
vn -0.040 -0.998 0.053
vn -0.040 -0.998 0.053
vn 1.000 0.002 0.000
vn 0.309 -0.073 0.948
vn -0.809 -0.047 0.586
vn -0.809 0.044 -0.586
vn 0.309 0.074 -0.948
vn 1.000 0.002 0.000
vn 0.999 0.034 0.003
vn 0.309 -0.074 0.948
vn -0.809 -0.080 0.583
vn -0.809 0.024 -0.588
vn 0.309 0.095 -0.946
vn 0.999 0.034 0.003
vn 0.996 0.085 0.007
vn 0.308 -0.048 0.950
vn -0.806 -0.115 0.580
vn -0.806 -0.023 -0.592
vn 0.308 0.101 -0.946
vn 0.996 0.085 0.007
vn 0.996 0.091 0.007
vn 0.303 0.005 0.953
vn -0.809 -0.087 0.582
vn -0.803 -0.059 -0.593
vn 0.313 0.051 -0.949
vn 0.996 0.091 0.007
vn 0.999 0.035 0.009
vn 0.299 0.039 0.953
vn -0.814 -0.011 0.580
vn -0.803 -0.046 -0.595
vn 0.318 -0.018 -0.948
vn 0.999 0.035 0.009
vn 0.999 -0.053 0.012
vn 0.299 0.020 0.954
vn -0.814 0.065 0.577
vn -0.802 0.020 -0.597
vn 0.318 -0.053 -0.947
vn 0.999 -0.053 0.012
vn 0.993 -0.117 0.012
vn 0.295 -0.042 0.955
vn -0.811 0.091 0.578
vn -0.796 0.098 -0.597
vn 0.319 -0.030 -0.947
vn 0.993 -0.117 0.012
vn 0.993 -0.118 0.012
vn 0.288 -0.101 0.952
vn -0.815 0.055 0.577
vn -0.792 0.135 -0.596
vn 0.326 0.028 -0.945
vn 0.993 -0.118 0.012
vn 0.998 -0.059 0.018
vn 0.286 -0.111 0.952
vn -0.821 -0.009 0.571
vn -0.794 0.106 -0.599
vn 0.331 0.075 -0.941
vn 0.998 -0.059 0.018
vn 1.000 0.017 0.023
vn 0.288 -0.060 0.956
vn -0.821 -0.054 0.568
vn -0.796 0.026 -0.605
vn 0.329 0.070 -0.942
vn 1.000 0.017 0.023
vn 0.998 0.061 0.023
vn 0.287 0.024 0.958
vn -0.821 -0.046 0.569
vn -0.794 -0.053 -0.606
vn 0.330 0.013 -0.944
vn 0.998 0.061 0.023
vn 0.999 0.049 0.023
vn 0.283 0.087 0.955
vn -0.824 0.004 0.567
vn -0.792 -0.084 -0.605
vn 0.334 -0.056 -0.941
vn 0.999 0.049 0.023
vn 1.000 0.003 0.028
vn 0.282 0.091 0.955
vn -0.825 0.053 0.562
vn -0.792 -0.058 -0.607
vn 0.336 -0.089 -0.938
vn 1.000 0.003 0.028
vn 0.999 -0.030 0.030
vn 0.282 0.044 0.958
vn -0.825 0.057 0.563
vn -0.792 -0.009 -0.611
vn 0.335 -0.063 -0.940
vn 0.999 -0.030 0.030
vn 0.999 -0.016 0.030
vn 0.280 -0.011 0.960
vn -0.826 0.010 0.563
vn -0.791 0.017 -0.612
vn 0.337 0.001 -0.941
vn 0.999 -0.016 0.030
vn 0.999 0.039 0.032
vn 0.280 -0.028 0.960
vn -0.826 -0.056 0.561
vn -0.790 -0.006 -0.613
vn 0.338 0.052 -0.940
vn 0.999 0.039 0.032
vn 0.997 0.073 0.034
vn 0.279 -0.022 0.960
vn -0.824 -0.087 0.560
vn -0.789 -0.031 -0.614
vn 0.337 0.067 -0.939
vn 0.997 0.073 0.034
vn -0.002 0.997 0.078
vn -0.002 0.997 0.078
vn -0.002 0.997 0.078
vn -0.002 0.997 0.078
vn -0.002 0.997 0.078
vn -0.002 0.997 0.078
vn 0.074 -0.996 -0.045
vn 0.074 -0.996 -0.045
vn 0.074 -0.996 -0.045
vn 0.074 -0.996 -0.045
vn 0.074 -0.996 -0.045
vn 0.074 -0.996 -0.045
vn 0.991 0.136 0.002
vn 0.306 0.031 0.951
vn -0.801 -0.117 0.586
vn -0.801 -0.103 -0.589
vn 0.306 0.054 -0.950
vn 0.991 0.136 0.002
vn 0.993 0.118 0.002
vn 0.303 0.053 0.952
vn -0.806 -0.086 0.586
vn -0.801 -0.106 -0.589
vn 0.311 0.020 -0.950
vn 0.993 0.118 0.002
vn 0.998 0.056 0.005
vn 0.301 0.067 0.951
vn -0.813 -0.014 0.583
vn -0.803 -0.076 -0.591
vn 0.316 -0.033 -0.948
vn 0.998 0.056 0.005
vn 0.999 -0.031 0.008
vn 0.302 0.023 0.953
vn -0.813 0.046 0.581
vn -0.804 0.005 -0.594
vn 0.316 -0.043 -0.948
vn 0.999 -0.031 0.008
vn 0.996 -0.087 0.007
vn 0.299 -0.055 0.953
vn -0.811 0.053 0.582
vn -0.800 0.088 -0.593
vn 0.317 0.001 -0.949
vn 0.996 -0.087 0.007
vn 0.997 -0.082 0.007
vn 0.294 -0.114 0.949
vn -0.815 0.012 0.579
vn -0.798 0.121 -0.591
vn 0.322 0.063 -0.945
vn 0.997 -0.082 0.007
vn 0.999 -0.033 0.013
vn 0.293 -0.116 0.949
vn -0.818 -0.039 0.574
vn -0.799 0.092 -0.594
vn 0.324 0.096 -0.941
vn 0.999 -0.033 0.013
vn 1.000 0.017 0.016
vn 0.295 -0.060 0.954
vn -0.818 -0.054 0.573
vn -0.800 0.027 -0.599
vn 0.323 0.070 -0.944
vn 1.000 0.017 0.016
vn 1.000 0.025 0.016
vn 0.293 0.015 0.956
vn -0.818 -0.016 0.575
vn -0.799 -0.025 -0.601
vn 0.324 0.001 -0.946
vn 1.000 0.025 0.016
vn 1.000 -0.013 0.019
vn 0.292 0.056 0.955
vn -0.819 0.048 0.572
vn -0.798 -0.027 -0.601
vn 0.326 -0.064 -0.943
vn 1.000 -0.013 0.019
vn 0.998 -0.061 0.022
vn 0.292 0.042 0.956
vn -0.818 0.087 0.569
vn -0.797 0.012 -0.604
vn 0.325 -0.080 -0.942
vn 0.998 -0.061 0.022
vn 0.997 -0.073 0.022
vn 0.289 -0.007 0.957
vn -0.819 0.068 0.570
vn -0.795 0.049 -0.605
vn 0.328 -0.038 -0.944
vn 0.997 -0.073 0.022
vn 0.999 -0.026 0.023
vn 0.286 -0.044 0.957
vn -0.823 -0.000 0.568
vn -0.794 0.043 -0.606
vn 0.332 0.027 -0.943
vn 0.999 -0.026 0.023
vn 0.998 0.055 0.027
vn 0.285 -0.030 0.958
vn -0.822 -0.073 0.565
vn -0.793 -0.015 -0.609
vn 0.332 0.064 -0.941
vn 0.998 0.055 0.027
vn 0.993 0.118 0.028
vn 0.281 0.032 0.959
vn -0.819 -0.099 0.565
vn -0.787 -0.093 -0.610
vn 0.333 0.042 -0.942
vn 0.993 0.118 0.028
vn 0.992 0.122 0.027
vn 0.273 0.098 0.957
vn -0.823 -0.061 0.564
vn -0.782 -0.136 -0.608
vn 0.340 -0.023 -0.940
vn 0.992 0.122 0.027
vn 0.994 0.105 0.029
vn 0.270 0.126 0.955
vn -0.827 -0.027 0.561
vn -0.781 -0.143 -0.608
vn 0.345 -0.061 -0.937
vn 0.994 0.105 0.029
vn -0.136 0.991 0.012
vn -0.136 0.991 0.012
vn -0.136 0.991 0.012
vn -0.136 0.991 0.012
vn -0.136 0.991 0.012
vn -0.136 0.991 0.012
vn 0.101 -0.990 0.102
vn 0.101 -0.990 0.102
vn 0.101 -0.990 0.102
vn 0.101 -0.990 0.102
vn 0.101 -0.990 0.102
vn 0.101 -0.990 0.102
vn -0.000 -0.829 0.559
vn 0.395 -0.829 0.395
vn 0.559 -0.829 0.000
vn 0.395 -0.829 -0.395
vn 0.000 -0.829 -0.559
vn -0.395 -0.829 -0.395
vn -0.559 -0.829 -0.000
vn -0.395 -0.829 0.395
vn -0.000 -0.829 0.559
vn -0.000 -0.829 0.559
vn 0.395 -0.829 0.395
vn 0.559 -0.829 0.000
vn 0.395 -0.829 -0.395
vn 0.000 -0.829 -0.559
vn -0.395 -0.829 -0.395
vn -0.559 -0.829 -0.000
vn -0.395 -0.829 0.395
vn -0.000 -0.829 0.559
vn -0.000 -0.444 0.896
vn 0.634 -0.444 0.634
vn 0.896 -0.444 0.000
vn 0.634 -0.444 -0.634
vn 0.000 -0.444 -0.896
vn -0.634 -0.444 -0.634
vn -0.896 -0.444 -0.000
vn -0.634 -0.444 0.634
vn -0.000 -0.444 0.896
vn -0.000 -0.000 1.000
vn 0.707 -0.000 0.707
vn 1.000 -0.000 0.000
vn 0.707 -0.000 -0.707
vn 0.000 -0.000 -1.000
vn -0.707 -0.000 -0.707
vn -1.000 -0.000 -0.000
vn -0.707 -0.000 0.707
vn -0.000 -0.000 1.000
vn -0.000 0.444 0.896
vn 0.634 0.444 0.634
vn 0.896 0.444 0.000
vn 0.634 0.444 -0.634
vn 0.000 0.444 -0.896
vn -0.634 0.444 -0.634
vn -0.896 0.444 -0.000
vn -0.634 0.444 0.634
vn -0.000 0.444 0.896
vn -0.000 0.829 0.559
vn 0.395 0.829 0.395
vn 0.559 0.829 0.000
vn 0.395 0.829 -0.395
vn 0.000 0.829 -0.559
vn -0.395 0.829 -0.395
vn -0.559 0.829 -0.000
vn -0.395 0.829 0.395
vn -0.000 0.829 0.559
vn -0.000 0.829 0.559
vn 0.395 0.829 0.395
vn 0.559 0.829 0.000
vn 0.395 0.829 -0.395
vn 0.000 0.829 -0.559
vn -0.395 0.829 -0.395
vn -0.559 0.829 -0.000
vn -0.395 0.829 0.395
vn -0.000 0.829 0.559
vn 0.993 0.120 0.000
vn -0.496 -0.060 0.866
vn -0.496 -0.060 -0.866
vn 0.993 0.120 -0.000
vn 0.993 0.120 0.000
vn -0.496 -0.060 0.866
vn -0.496 -0.060 -0.866
vn 0.993 0.120 -0.000
vn -0.120 0.993 -0.000
vn -0.120 0.993 -0.000
vn -0.120 0.993 -0.000
vn -0.120 0.993 -0.000
vn 0.120 -0.993 0.000
vn 0.120 -0.993 0.000
vn 0.120 -0.993 0.000
vn 0.120 -0.993 0.000
vn 0.998 0.066 -0.006
vn -0.499 0.039 0.866
vn -0.499 -0.106 -0.860
vn 0.998 0.066 -0.006
vn 0.998 0.066 -0.006
vn -0.499 0.039 0.866
vn -0.499 -0.106 -0.860
vn 0.998 0.066 -0.006
vn -0.067 0.994 -0.083
vn -0.067 0.994 -0.083
vn -0.067 0.994 -0.083
vn -0.067 0.994 -0.083
vn 0.067 -0.994 0.083
vn 0.067 -0.994 0.083
vn 0.067 -0.994 0.083
vn 0.067 -0.994 0.083
vn 1.000 -0.025 0.003
vn -0.500 0.109 0.859
vn -0.500 -0.084 -0.862
vn 1.000 -0.025 0.003
vn 1.000 -0.025 0.003
vn -0.500 0.109 0.859
vn -0.500 -0.084 -0.862
vn 1.000 -0.025 0.003
vn 0.025 0.994 -0.111
vn 0.025 0.994 -0.111
vn 0.025 0.994 -0.111
vn 0.025 0.994 -0.111
vn -0.025 -0.994 0.111
vn -0.025 -0.994 0.111
vn -0.025 -0.994 0.111
vn -0.025 -0.994 0.111
vn 0.996 -0.094 0.004
vn -0.498 0.087 0.863
vn -0.498 0.008 -0.867
vn 0.996 -0.094 0.004
vn 0.996 -0.094 0.004
vn -0.498 0.087 0.863
vn -0.498 0.008 -0.867
vn 0.996 -0.094 0.004
vn 0.094 0.995 -0.045
vn 0.094 0.995 -0.045
vn 0.094 0.995 -0.045
vn 0.094 0.995 -0.045
vn -0.094 -0.995 0.045
vn -0.094 -0.995 0.045
vn -0.094 -0.995 0.045
vn -0.094 -0.995 0.045
vn 0.996 -0.093 -0.004
vn -0.498 0.008 0.867
vn -0.498 0.086 -0.863
vn 0.996 -0.093 -0.004
vn 0.996 -0.093 -0.004
vn -0.498 0.008 0.867
vn -0.498 0.086 -0.863
vn 0.996 -0.093 -0.004
vn 0.093 0.995 0.045
vn 0.093 0.995 0.045
vn 0.093 0.995 0.045
vn 0.093 0.995 0.045
vn -0.093 -0.995 -0.045
vn -0.093 -0.995 -0.045
vn -0.093 -0.995 -0.045
vn -0.093 -0.995 -0.045
vn 1.000 -0.028 -0.004
vn -0.500 -0.094 0.861
vn -0.500 0.123 -0.857
vn 1.000 -0.028 -0.004
vn 1.000 -0.028 -0.004
vn -0.500 -0.094 0.861
vn -0.500 0.123 -0.857
vn 1.000 -0.028 -0.004
vn 0.029 0.992 0.125
vn 0.029 0.992 0.125
vn 0.029 0.992 0.125
vn 0.029 0.992 0.125
vn -0.029 -0.992 -0.125
vn -0.029 -0.992 -0.125
vn -0.029 -0.992 -0.125
vn -0.029 -0.992 -0.125
vn 0.997 0.081 0.008
vn -0.498 -0.130 0.857
vn -0.498 0.049 -0.866
vn 0.997 0.081 0.008
vn 0.997 0.081 0.008
vn -0.498 -0.130 0.857
vn -0.498 0.049 -0.866
vn 0.997 0.081 0.008
vn -0.082 0.991 0.103
vn -0.082 0.991 0.103
vn -0.082 0.991 0.103
vn -0.082 0.991 0.103
vn 0.082 -0.991 -0.103
vn 0.082 -0.991 -0.103
vn 0.082 -0.991 -0.103
vn 0.082 -0.991 -0.103
usemtl rope
f 1/1/1 2/2/2 8/8/8
f 1/1/1 8/8/8 7/7/7
f 2/2/2 3/3/3 9/9/9
f 2/2/2 9/9/9 8/8/8
f 3/3/3 4/4/4 10/10/10
f 3/3/3 10/10/10 9/9/9
f 4/4/4 5/5/5 11/11/11
f 4/4/4 11/11/11 10/10/10
f 5/5/5 6/6/6 12/12/12
f 5/5/5 12/12/12 11/11/11
f 7/7/7 8/8/8 14/14/14
f 7/7/7 14/14/14 13/13/13
f 8/8/8 9/9/9 15/15/15
f 8/8/8 15/15/15 14/14/14
f 9/9/9 10/10/10 16/16/16
f 9/9/9 16/16/16 15/15/15
f 10/10/10 11/11/11 17/17/17
f 10/10/10 17/17/17 16/16/16
f 11/11/11 12/12/12 18/18/18
f 11/11/11 18/18/18 17/17/17
f 13/13/13 14/14/14 20/20/20
f 13/13/13 20/20/20 19/19/19
f 14/14/14 15/15/15 21/21/21
f 14/14/14 21/21/21 20/20/20
f 15/15/15 16/16/16 22/22/22
f 15/15/15 22/22/22 21/21/21
f 16/16/16 17/17/17 23/23/23
f 16/16/16 23/23/23 22/22/22
f 17/17/17 18/18/18 24/24/24
f 17/17/17 24/24/24 23/23/23
f 19/19/19 20/20/20 26/26/26
f 19/19/19 26/26/26 25/25/25
f 20/20/20 21/21/21 27/27/27
f 20/20/20 27/27/27 26/26/26
f 21/21/21 22/22/22 28/28/28
f 21/21/21 28/28/28 27/27/27
f 22/22/22 23/23/23 29/29/29
f 22/22/22 29/29/29 28/28/28
f 23/23/23 24/24/24 30/30/30
f 23/23/23 30/30/30 29/29/29
f 25/25/25 26/26/26 32/32/32
f 25/25/25 32/32/32 31/31/31
f 26/26/26 27/27/27 33/33/33
f 26/26/26 33/33/33 32/32/32
f 27/27/27 28/28/28 34/34/34
f 27/27/27 34/34/34 33/33/33
f 28/28/28 29/29/29 35/35/35
f 28/28/28 35/35/35 34/34/34
f 29/29/29 30/30/30 36/36/36
f 29/29/29 36/36/36 35/35/35
f 31/31/31 32/32/32 38/38/38
f 31/31/31 38/38/38 37/37/37
f 32/32/32 33/33/33 39/39/39
f 32/32/32 39/39/39 38/38/38
f 33/33/33 34/34/34 40/40/40
f 33/33/33 40/40/40 39/39/39
f 34/34/34 35/35/35 41/41/41
f 34/34/34 41/41/41 40/40/40
f 35/35/35 36/36/36 42/42/42
f 35/35/35 42/42/42 41/41/41
f 37/37/37 38/38/38 44/44/44
f 37/37/37 44/44/44 43/43/43
f 38/38/38 39/39/39 45/45/45
f 38/38/38 45/45/45 44/44/44
f 39/39/39 40/40/40 46/46/46
f 39/39/39 46/46/46 45/45/45
f 40/40/40 41/41/41 47/47/47
f 40/40/40 47/47/47 46/46/46
f 41/41/41 42/42/42 48/48/48
f 41/41/41 48/48/48 47/47/47
f 43/43/43 44/44/44 50/50/50
f 43/43/43 50/50/50 49/49/49
f 44/44/44 45/45/45 51/51/51
f 44/44/44 51/51/51 50/50/50
f 45/45/45 46/46/46 52/52/52
f 45/45/45 52/52/52 51/51/51
f 46/46/46 47/47/47 53/53/53
f 46/46/46 53/53/53 52/52/52
f 47/47/47 48/48/48 54/54/54
f 47/47/47 54/54/54 53/53/53
f 49/49/49 50/50/50 56/56/56
f 49/49/49 56/56/56 55/55/55
f 50/50/50 51/51/51 57/57/57
f 50/50/50 57/57/57 56/56/56
f 51/51/51 52/52/52 58/58/58
f 51/51/51 58/58/58 57/57/57
f 52/52/52 53/53/53 59/59/59
f 52/52/52 59/59/59 58/58/58
f 53/53/53 54/54/54 60/60/60
f 53/53/53 60/60/60 59/59/59
f 55/55/55 56/56/56 62/62/62
f 55/55/55 62/62/62 61/61/61
f 56/56/56 57/57/57 63/63/63
f 56/56/56 63/63/63 62/62/62
f 57/57/57 58/58/58 64/64/64
f 57/57/57 64/64/64 63/63/63
f 58/58/58 59/59/59 65/65/65
f 58/58/58 65/65/65 64/64/64
f 59/59/59 60/60/60 66/66/66
f 59/59/59 66/66/66 65/65/65
f 61/61/61 62/62/62 68/68/68
f 61/61/61 68/68/68 67/67/67
f 62/62/62 63/63/63 69/69/69
f 62/62/62 69/69/69 68/68/68
f 63/63/63 64/64/64 70/70/70
f 63/63/63 70/70/70 69/69/69
f 64/64/64 65/65/65 71/71/71
f 64/64/64 71/71/71 70/70/70
f 65/65/65 66/66/66 72/72/72
f 65/65/65 72/72/72 71/71/71
f 67/67/67 68/68/68 74/74/74
f 67/67/67 74/74/74 73/73/73
f 68/68/68 69/69/69 75/75/75
f 68/68/68 75/75/75 74/74/74
f 69/69/69 70/70/70 76/76/76
f 69/69/69 76/76/76 75/75/75
f 70/70/70 71/71/71 77/77/77
f 70/70/70 77/77/77 76/76/76
f 71/71/71 72/72/72 78/78/78
f 71/71/71 78/78/78 77/77/77
f 73/73/73 74/74/74 80/80/80
f 73/73/73 80/80/80 79/79/79
f 74/74/74 75/75/75 81/81/81
f 74/74/74 81/81/81 80/80/80
f 75/75/75 76/76/76 82/82/82
f 75/75/75 82/82/82 81/81/81
f 76/76/76 77/77/77 83/83/83
f 76/76/76 83/83/83 82/82/82
f 77/77/77 78/78/78 84/84/84
f 77/77/77 84/84/84 83/83/83
f 79/79/79 80/80/80 86/86/86
f 79/79/79 86/86/86 85/85/85
f 80/80/80 81/81/81 87/87/87
f 80/80/80 87/87/87 86/86/86
f 81/81/81 82/82/82 88/88/88
f 81/81/81 88/88/88 87/87/87
f 82/82/82 83/83/83 89/89/89
f 82/82/82 89/89/89 88/88/88
f 83/83/83 84/84/84 90/90/90
f 83/83/83 90/90/90 89/89/89
f 85/85/85 86/86/86 92/92/92
f 85/85/85 92/92/92 91/91/91
f 86/86/86 87/87/87 93/93/93
f 86/86/86 93/93/93 92/92/92
f 87/87/87 88/88/88 94/94/94
f 87/87/87 94/94/94 93/93/93
f 88/88/88 89/89/89 95/95/95
f 88/88/88 95/95/95 94/94/94
f 89/89/89 90/90/90 96/96/96
f 89/89/89 96/96/96 95/95/95
f 91/91/91 92/92/92 98/98/98
f 91/91/91 98/98/98 97/97/97
f 92/92/92 93/93/93 99/99/99
f 92/92/92 99/99/99 98/98/98
f 93/93/93 94/94/94 100/100/100
f 93/93/93 100/100/100 99/99/99
f 94/94/94 95/95/95 101/101/101
f 94/94/94 101/101/101 100/100/100
f 95/95/95 96/96/96 102/102/102
f 95/95/95 102/102/102 101/101/101
f 103/103/103 105/105/105 104/104/104
f 103/103/103 106/106/106 105/105/105
f 103/103/103 107/107/107 106/106/106
f 103/103/103 108/108/108 107/107/107
f 103/103/103 104/104/104 108/108/108
f 109/109/109 110/110/110 111/111/111
f 109/109/109 111/111/111 112/112/112
f 109/109/109 112/112/112 113/113/113
f 109/109/109 113/113/113 114/114/114
f 109/109/109 114/114/114 110/110/110
f 115/115/115 116/116/116 122/122/122
f 115/115/115 122/122/122 121/121/121
f 116/116/116 117/117/117 123/123/123
f 116/116/116 123/123/123 122/122/122
f 117/117/117 118/118/118 124/124/124
f 117/117/117 124/124/124 123/123/123
f 118/118/118 119/119/119 125/125/125
f 118/118/118 125/125/125 124/124/124
f 119/119/119 120/120/120 126/126/126
f 119/119/119 126/126/126 125/125/125
f 121/121/121 122/122/122 128/128/128
f 121/121/121 128/128/128 127/127/127
f 122/122/122 123/123/123 129/129/129
f 122/122/122 129/129/129 128/128/128
f 123/123/123 124/124/124 130/130/130
f 123/123/123 130/130/130 129/129/129
f 124/124/124 125/125/125 131/131/131
f 124/124/124 131/131/131 130/130/130
f 125/125/125 126/126/126 132/132/132
f 125/125/125 132/132/132 131/131/131
f 127/127/127 128/128/128 134/134/134
f 127/127/127 134/134/134 133/133/133
f 128/128/128 129/129/129 135/135/135
f 128/128/128 135/135/135 134/134/134
f 129/129/129 130/130/130 136/136/136
f 129/129/129 136/136/136 135/135/135
f 130/130/130 131/131/131 137/137/137
f 130/130/130 137/137/137 136/136/136
f 131/131/131 132/132/132 138/138/138
f 131/131/131 138/138/138 137/137/137
f 133/133/133 134/134/134 140/140/140
f 133/133/133 140/140/140 139/139/139
f 134/134/134 135/135/135 141/141/141
f 134/134/134 141/141/141 140/140/140
f 135/135/135 136/136/136 142/142/142
f 135/135/135 142/142/142 141/141/141
f 136/136/136 137/137/137 143/143/143
f 136/136/136 143/143/143 142/142/142
f 137/137/137 138/138/138 144/144/144
f 137/137/137 144/144/144 143/143/143
f 139/139/139 140/140/140 146/146/146
f 139/139/139 146/146/146 145/145/145
f 140/140/140 141/141/141 147/147/147
f 140/140/140 147/147/147 146/146/146
f 141/141/141 142/142/142 148/148/148
f 141/141/141 148/148/148 147/147/147
f 142/142/142 143/143/143 149/149/149
f 142/142/142 149/149/149 148/148/148
f 143/143/143 144/144/144 150/150/150
f 143/143/143 150/150/150 149/149/149
f 145/145/145 146/146/146 152/152/152
f 145/145/145 152/152/152 151/151/151
f 146/146/146 147/147/147 153/153/153
f 146/146/146 153/153/153 152/152/152
f 147/147/147 148/148/148 154/154/154
f 147/147/147 154/154/154 153/153/153
f 148/148/148 149/149/149 155/155/155
f 148/148/148 155/155/155 154/154/154
f 149/149/149 150/150/150 156/156/156
f 149/149/149 156/156/156 155/155/155
f 151/151/151 152/152/152 158/158/158
f 151/151/151 158/158/158 157/157/157
f 152/152/152 153/153/153 159/159/159
f 152/152/152 159/159/159 158/158/158
f 153/153/153 154/154/154 160/160/160
f 153/153/153 160/160/160 159/159/159
f 154/154/154 155/155/155 161/161/161
f 154/154/154 161/161/161 160/160/160
f 155/155/155 156/156/156 162/162/162
f 155/155/155 162/162/162 161/161/161
f 157/157/157 158/158/158 164/164/164
f 157/157/157 164/164/164 163/163/163
f 158/158/158 159/159/159 165/165/165
f 158/158/158 165/165/165 164/164/164
f 159/159/159 160/160/160 166/166/166
f 159/159/159 166/166/166 165/165/165
f 160/160/160 161/161/161 167/167/167
f 160/160/160 167/167/167 166/166/166
f 161/161/161 162/162/162 168/168/168
f 161/161/161 168/168/168 167/167/167
f 163/163/163 164/164/164 170/170/170
f 163/163/163 170/170/170 169/169/169
f 164/164/164 165/165/165 171/171/171
f 164/164/164 171/171/171 170/170/170
f 165/165/165 166/166/166 172/172/172
f 165/165/165 172/172/172 171/171/171
f 166/166/166 167/167/167 173/173/173
f 166/166/166 173/173/173 172/172/172
f 167/167/167 168/168/168 174/174/174
f 167/167/167 174/174/174 173/173/173
f 169/169/169 170/170/170 176/176/176
f 169/169/169 176/176/176 175/175/175
f 170/170/170 171/171/171 177/177/177
f 170/170/170 177/177/177 176/176/176
f 171/171/171 172/172/172 178/178/178
f 171/171/171 178/178/178 177/177/177
f 172/172/172 173/173/173 179/179/179
f 172/172/172 179/179/179 178/178/178
f 173/173/173 174/174/174 180/180/180
f 173/173/173 180/180/180 179/179/179
f 175/175/175 176/176/176 182/182/182
f 175/175/175 182/182/182 181/181/181
f 176/176/176 177/177/177 183/183/183
f 176/176/176 183/183/183 182/182/182
f 177/177/177 178/178/178 184/184/184
f 177/177/177 184/184/184 183/183/183
f 178/178/178 179/179/179 185/185/185
f 178/178/178 185/185/185 184/184/184
f 179/179/179 180/180/180 186/186/186
f 179/179/179 186/186/186 185/185/185
f 181/181/181 182/182/182 188/188/188
f 181/181/181 188/188/188 187/187/187
f 182/182/182 183/183/183 189/189/189
f 182/182/182 189/189/189 188/188/188
f 183/183/183 184/184/184 190/190/190
f 183/183/183 190/190/190 189/189/189
f 184/184/184 185/185/185 191/191/191
f 184/184/184 191/191/191 190/190/190
f 185/185/185 186/186/186 192/192/192
f 185/185/185 192/192/192 191/191/191
f 187/187/187 188/188/188 194/194/194
f 187/187/187 194/194/194 193/193/193
f 188/188/188 189/189/189 195/195/195
f 188/188/188 195/195/195 194/194/194
f 189/189/189 190/190/190 196/196/196
f 189/189/189 196/196/196 195/195/195
f 190/190/190 191/191/191 197/197/197
f 190/190/190 197/197/197 196/196/196
f 191/191/191 192/192/192 198/198/198
f 191/191/191 198/198/198 197/197/197
f 193/193/193 194/194/194 200/200/200
f 193/193/193 200/200/200 199/199/199
f 194/194/194 195/195/195 201/201/201
f 194/194/194 201/201/201 200/200/200
f 195/195/195 196/196/196 202/202/202
f 195/195/195 202/202/202 201/201/201
f 196/196/196 197/197/197 203/203/203
f 196/196/196 203/203/203 202/202/202
f 197/197/197 198/198/198 204/204/204
f 197/197/197 204/204/204 203/203/203
f 199/199/199 200/200/200 206/206/206
f 199/199/199 206/206/206 205/205/205
f 200/200/200 201/201/201 207/207/207
f 200/200/200 207/207/207 206/206/206
f 201/201/201 202/202/202 208/208/208
f 201/201/201 208/208/208 207/207/207
f 202/202/202 203/203/203 209/209/209
f 202/202/202 209/209/209 208/208/208
f 203/203/203 204/204/204 210/210/210
f 203/203/203 210/210/210 209/209/209
f 205/205/205 206/206/206 212/212/212
f 205/205/205 212/212/212 211/211/211
f 206/206/206 207/207/207 213/213/213
f 206/206/206 213/213/213 212/212/212
f 207/207/207 208/208/208 214/214/214
f 207/207/207 214/214/214 213/213/213
f 208/208/208 209/209/209 215/215/215
f 208/208/208 215/215/215 214/214/214
f 209/209/209 210/210/210 216/216/216
f 209/209/209 216/216/216 215/215/215
f 217/217/217 219/219/219 218/218/218
f 217/217/217 220/220/220 219/219/219
f 217/217/217 221/221/221 220/220/220
f 217/217/217 222/222/222 221/221/221
f 217/217/217 218/218/218 222/222/222
f 223/223/223 224/224/224 225/225/225
f 223/223/223 225/225/225 226/226/226
f 223/223/223 226/226/226 227/227/227
f 223/223/223 227/227/227 228/228/228
f 223/223/223 228/228/228 224/224/224
f 229/229/229 230/230/230 236/236/236
f 229/229/229 236/236/236 235/235/235
f 230/230/230 231/231/231 237/237/237
f 230/230/230 237/237/237 236/236/236
f 231/231/231 232/232/232 238/238/238
f 231/231/231 238/238/238 237/237/237
f 232/232/232 233/233/233 239/239/239
f 232/232/232 239/239/239 238/238/238
f 233/233/233 234/234/234 240/240/240
f 233/233/233 240/240/240 239/239/239
f 235/235/235 236/236/236 242/242/242
f 235/235/235 242/242/242 241/241/241
f 236/236/236 237/237/237 243/243/243
f 236/236/236 243/243/243 242/242/242
f 237/237/237 238/238/238 244/244/244
f 237/237/237 244/244/244 243/243/243
f 238/238/238 239/239/239 245/245/245
f 238/238/238 245/245/245 244/244/244
f 239/239/239 240/240/240 246/246/246
f 239/239/239 246/246/246 245/245/245
f 241/241/241 242/242/242 248/248/248
f 241/241/241 248/248/248 247/247/247
f 242/242/242 243/243/243 249/249/249
f 242/242/242 249/249/249 248/248/248
f 243/243/243 244/244/244 250/250/250
f 243/243/243 250/250/250 249/249/249
f 244/244/244 245/245/245 251/251/251
f 244/244/244 251/251/251 250/250/250
f 245/245/245 246/246/246 252/252/252
f 245/245/245 252/252/252 251/251/251
f 247/247/247 248/248/248 254/254/254
f 247/247/247 254/254/254 253/253/253
f 248/248/248 249/249/249 255/255/255
f 248/248/248 255/255/255 254/254/254
f 249/249/249 250/250/250 256/256/256
f 249/249/249 256/256/256 255/255/255
f 250/250/250 251/251/251 257/257/257
f 250/250/250 257/257/257 256/256/256
f 251/251/251 252/252/252 258/258/258
f 251/251/251 258/258/258 257/257/257
f 253/253/253 254/254/254 260/260/260
f 253/253/253 260/260/260 259/259/259
f 254/254/254 255/255/255 261/261/261
f 254/254/254 261/261/261 260/260/260
f 255/255/255 256/256/256 262/262/262
f 255/255/255 262/262/262 261/261/261
f 256/256/256 257/257/257 263/263/263
f 256/256/256 263/263/263 262/262/262
f 257/257/257 258/258/258 264/264/264
f 257/257/257 264/264/264 263/263/263
f 259/259/259 260/260/260 266/266/266
f 259/259/259 266/266/266 265/265/265
f 260/260/260 261/261/261 267/267/267
f 260/260/260 267/267/267 266/266/266
f 261/261/261 262/262/262 268/268/268
f 261/261/261 268/268/268 267/267/267
f 262/262/262 263/263/263 269/269/269
f 262/262/262 269/269/269 268/268/268
f 263/263/263 264/264/264 270/270/270
f 263/263/263 270/270/270 269/269/269
f 265/265/265 266/266/266 272/272/272
f 265/265/265 272/272/272 271/271/271
f 266/266/266 267/267/267 273/273/273
f 266/266/266 273/273/273 272/272/272
f 267/267/267 268/268/268 274/274/274
f 267/267/267 274/274/274 273/273/273
f 268/268/268 269/269/269 275/275/275
f 268/268/268 275/275/275 274/274/274
f 269/269/269 270/270/270 276/276/276
f 269/269/269 276/276/276 275/275/275
f 271/271/271 272/272/272 278/278/278
f 271/271/271 278/278/278 277/277/277
f 272/272/272 273/273/273 279/279/279
f 272/272/272 279/279/279 278/278/278
f 273/273/273 274/274/274 280/280/280
f 273/273/273 280/280/280 279/279/279
f 274/274/274 275/275/275 281/281/281
f 274/274/274 281/281/281 280/280/280
f 275/275/275 276/276/276 282/282/282
f 275/275/275 282/282/282 281/281/281
f 277/277/277 278/278/278 284/284/284
f 277/277/277 284/284/284 283/283/283
f 278/278/278 279/279/279 285/285/285
f 278/278/278 285/285/285 284/284/284
f 279/279/279 280/280/280 286/286/286
f 279/279/279 286/286/286 285/285/285
f 280/280/280 281/281/281 287/287/287
f 280/280/280 287/287/287 286/286/286
f 281/281/281 282/282/282 288/288/288
f 281/281/281 288/288/288 287/287/287
f 283/283/283 284/284/284 290/290/290
f 283/283/283 290/290/290 289/289/289
f 284/284/284 285/285/285 291/291/291
f 284/284/284 291/291/291 290/290/290
f 285/285/285 286/286/286 292/292/292
f 285/285/285 292/292/292 291/291/291
f 286/286/286 287/287/287 293/293/293
f 286/286/286 293/293/293 292/292/292
f 287/287/287 288/288/288 294/294/294
f 287/287/287 294/294/294 293/293/293
f 289/289/289 290/290/290 296/296/296
f 289/289/289 296/296/296 295/295/295
f 290/290/290 291/291/291 297/297/297
f 290/290/290 297/297/297 296/296/296
f 291/291/291 292/292/292 298/298/298
f 291/291/291 298/298/298 297/297/297
f 292/292/292 293/293/293 299/299/299
f 292/292/292 299/299/299 298/298/298
f 293/293/293 294/294/294 300/300/300
f 293/293/293 300/300/300 299/299/299
f 295/295/295 296/296/296 302/302/302
f 295/295/295 302/302/302 301/301/301
f 296/296/296 297/297/297 303/303/303
f 296/296/296 303/303/303 302/302/302
f 297/297/297 298/298/298 304/304/304
f 297/297/297 304/304/304 303/303/303
f 298/298/298 299/299/299 305/305/305
f 298/298/298 305/305/305 304/304/304
f 299/299/299 300/300/300 306/306/306
f 299/299/299 306/306/306 305/305/305
f 301/301/301 302/302/302 308/308/308
f 301/301/301 308/308/308 307/307/307
f 302/302/302 303/303/303 309/309/309
f 302/302/302 309/309/309 308/308/308
f 303/303/303 304/304/304 310/310/310
f 303/303/303 310/310/310 309/309/309
f 304/304/304 305/305/305 311/311/311
f 304/304/304 311/311/311 310/310/310
f 305/305/305 306/306/306 312/312/312
f 305/305/305 312/312/312 311/311/311
f 307/307/307 308/308/308 314/314/314
f 307/307/307 314/314/314 313/313/313
f 308/308/308 309/309/309 315/315/315
f 308/308/308 315/315/315 314/314/314
f 309/309/309 310/310/310 316/316/316
f 309/309/309 316/316/316 315/315/315
f 310/310/310 311/311/311 317/317/317
f 310/310/310 317/317/317 316/316/316
f 311/311/311 312/312/312 318/318/318
f 311/311/311 318/318/318 317/317/317
f 313/313/313 314/314/314 320/320/320
f 313/313/313 320/320/320 319/319/319
f 314/314/314 315/315/315 321/321/321
f 314/314/314 321/321/321 320/320/320
f 315/315/315 316/316/316 322/322/322
f 315/315/315 322/322/322 321/321/321
f 316/316/316 317/317/317 323/323/323
f 316/316/316 323/323/323 322/322/322
f 317/317/317 318/318/318 324/324/324
f 317/317/317 324/324/324 323/323/323
f 319/319/319 320/320/320 326/326/326
f 319/319/319 326/326/326 325/325/325
f 320/320/320 321/321/321 327/327/327
f 320/320/320 327/327/327 326/326/326
f 321/321/321 322/322/322 328/328/328
f 321/321/321 328/328/328 327/327/327
f 322/322/322 323/323/323 329/329/329
f 322/322/322 329/329/329 328/328/328
f 323/323/323 324/324/324 330/330/330
f 323/323/323 330/330/330 329/329/329
f 331/331/331 333/333/333 332/332/332
f 331/331/331 334/334/334 333/333/333
f 331/331/331 335/335/335 334/334/334
f 331/331/331 336/336/336 335/335/335
f 331/331/331 332/332/332 336/336/336
f 337/337/337 338/338/338 339/339/339
f 337/337/337 339/339/339 340/340/340
f 337/337/337 340/340/340 341/341/341
f 337/337/337 341/341/341 342/342/342
f 337/337/337 342/342/342 338/338/338
f 343/343/343 344/344/344 353/353/353
f 343/343/343 353/353/353 352/352/352
f 344/344/344 345/345/345 354/354/354
f 344/344/344 354/354/354 353/353/353
f 345/345/345 346/346/346 355/355/355
f 345/345/345 355/355/355 354/354/354
f 346/346/346 347/347/347 356/356/356
f 346/346/346 356/356/356 355/355/355
f 347/347/347 348/348/348 357/357/357
f 347/347/347 357/357/357 356/356/356
f 348/348/348 349/349/349 358/358/358
f 348/348/348 358/358/358 357/357/357
f 349/349/349 350/350/350 359/359/359
f 349/349/349 359/359/359 358/358/358
f 350/350/350 351/351/351 360/360/360
f 350/350/350 360/360/360 359/359/359
f 352/352/352 353/353/353 362/362/362
f 352/352/352 362/362/362 361/361/361
f 353/353/353 354/354/354 363/363/363
f 353/353/353 363/363/363 362/362/362
f 354/354/354 355/355/355 364/364/364
f 354/354/354 364/364/364 363/363/363
f 355/355/355 356/356/356 365/365/365
f 355/355/355 365/365/365 364/364/364
f 356/356/356 357/357/357 366/366/366
f 356/356/356 366/366/366 365/365/365
f 357/357/357 358/358/358 367/367/367
f 357/357/357 367/367/367 366/366/366
f 358/358/358 359/359/359 368/368/368
f 358/358/358 368/368/368 367/367/367
f 359/359/359 360/360/360 369/369/369
f 359/359/359 369/369/369 368/368/368
f 361/361/361 362/362/362 371/371/371
f 361/361/361 371/371/371 370/370/370
f 362/362/362 363/363/363 372/372/372
f 362/362/362 372/372/372 371/371/371
f 363/363/363 364/364/364 373/373/373
f 363/363/363 373/373/373 372/372/372
f 364/364/364 365/365/365 374/374/374
f 364/364/364 374/374/374 373/373/373
f 365/365/365 366/366/366 375/375/375
f 365/365/365 375/375/375 374/374/374
f 366/366/366 367/367/367 376/376/376
f 366/366/366 376/376/376 375/375/375
f 367/367/367 368/368/368 377/377/377
f 367/367/367 377/377/377 376/376/376
f 368/368/368 369/369/369 378/378/378
f 368/368/368 378/378/378 377/377/377
f 370/370/370 371/371/371 380/380/380
f 370/370/370 380/380/380 379/379/379
f 371/371/371 372/372/372 381/381/381
f 371/371/371 381/381/381 380/380/380
f 372/372/372 373/373/373 382/382/382
f 372/372/372 382/382/382 381/381/381
f 373/373/373 374/374/374 383/383/383
f 373/373/373 383/383/383 382/382/382
f 374/374/374 375/375/375 384/384/384
f 374/374/374 384/384/384 383/383/383
f 375/375/375 376/376/376 385/385/385
f 375/375/375 385/385/385 384/384/384
f 376/376/376 377/377/377 386/386/386
f 376/376/376 386/386/386 385/385/385
f 377/377/377 378/378/378 387/387/387
f 377/377/377 387/387/387 386/386/386
f 379/379/379 380/380/380 389/389/389
f 379/379/379 389/389/389 388/388/388
f 380/380/380 381/381/381 390/390/390
f 380/380/380 390/390/390 389/389/389
f 381/381/381 382/382/382 391/391/391
f 381/381/381 391/391/391 390/390/390
f 382/382/382 383/383/383 392/392/392
f 382/382/382 392/392/392 391/391/391
f 383/383/383 384/384/384 393/393/393
f 383/383/383 393/393/393 392/392/392
f 384/384/384 385/385/385 394/394/394
f 384/384/384 394/394/394 393/393/393
f 385/385/385 386/386/386 395/395/395
f 385/385/385 395/395/395 394/394/394
f 386/386/386 387/387/387 396/396/396
f 386/386/386 396/396/396 395/395/395
f 388/388/388 389/389/389 398/398/398
f 388/388/388 398/398/398 397/397/397
f 389/389/389 390/390/390 399/399/399
f 389/389/389 399/399/399 398/398/398
f 390/390/390 391/391/391 400/400/400
f 390/390/390 400/400/400 399/399/399
f 391/391/391 392/392/392 401/401/401
f 391/391/391 401/401/401 400/400/400
f 392/392/392 393/393/393 402/402/402
f 392/392/392 402/402/402 401/401/401
f 393/393/393 394/394/394 403/403/403
f 393/393/393 403/403/403 402/402/402
f 394/394/394 395/395/395 404/404/404
f 394/394/394 404/404/404 403/403/403
f 395/395/395 396/396/396 405/405/405
f 395/395/395 405/405/405 404/404/404
f 406/406/406 407/407/407 411/411/411
f 406/406/406 411/411/411 410/410/410
f 407/407/407 408/408/408 412/412/412
f 407/407/407 412/412/412 411/411/411
f 408/408/408 409/409/409 413/413/413
f 408/408/408 413/413/413 412/412/412
f 414/414/414 416/416/416 415/415/415
f 414/414/414 417/417/417 416/416/416
f 414/414/414 415/415/415 417/417/417
f 418/418/418 419/419/419 420/420/420
f 418/418/418 420/420/420 421/421/421
f 418/418/418 421/421/421 419/419/419
f 422/422/422 423/423/423 427/427/427
f 422/422/422 427/427/427 426/426/426
f 423/423/423 424/424/424 428/428/428
f 423/423/423 428/428/428 427/427/427
f 424/424/424 425/425/425 429/429/429
f 424/424/424 429/429/429 428/428/428
f 430/430/430 432/432/432 431/431/431
f 430/430/430 433/433/433 432/432/432
f 430/430/430 431/431/431 433/433/433
f 434/434/434 435/435/435 436/436/436
f 434/434/434 436/436/436 437/437/437
f 434/434/434 437/437/437 435/435/435
f 438/438/438 439/439/439 443/443/443
f 438/438/438 443/443/443 442/442/442
f 439/439/439 440/440/440 444/444/444
f 439/439/439 444/444/444 443/443/443
f 440/440/440 441/441/441 445/445/445
f 440/440/440 445/445/445 444/444/444
f 446/446/446 448/448/448 447/447/447
f 446/446/446 449/449/449 448/448/448
f 446/446/446 447/447/447 449/449/449
f 450/450/450 451/451/451 452/452/452
f 450/450/450 452/452/452 453/453/453
f 450/450/450 453/453/453 451/451/451
f 454/454/454 455/455/455 459/459/459
f 454/454/454 459/459/459 458/458/458
f 455/455/455 456/456/456 460/460/460
f 455/455/455 460/460/460 459/459/459
f 456/456/456 457/457/457 461/461/461
f 456/456/456 461/461/461 460/460/460
f 462/462/462 464/464/464 463/463/463
f 462/462/462 465/465/465 464/464/464
f 462/462/462 463/463/463 465/465/465
f 466/466/466 467/467/467 468/468/468
f 466/466/466 468/468/468 469/469/469
f 466/466/466 469/469/469 467/467/467
f 470/470/470 471/471/471 475/475/475
f 470/470/470 475/475/475 474/474/474
f 471/471/471 472/472/472 476/476/476
f 471/471/471 476/476/476 475/475/475
f 472/472/472 473/473/473 477/477/477
f 472/472/472 477/477/477 476/476/476
f 478/478/478 480/480/480 479/479/479
f 478/478/478 481/481/481 480/480/480
f 478/478/478 479/479/479 481/481/481
f 482/482/482 483/483/483 484/484/484
f 482/482/482 484/484/484 485/485/485
f 482/482/482 485/485/485 483/483/483
f 486/486/486 487/487/487 491/491/491
f 486/486/486 491/491/491 490/490/490
f 487/487/487 488/488/488 492/492/492
f 487/487/487 492/492/492 491/491/491
f 488/488/488 489/489/489 493/493/493
f 488/488/488 493/493/493 492/492/492
f 494/494/494 496/496/496 495/495/495
f 494/494/494 497/497/497 496/496/496
f 494/494/494 495/495/495 497/497/497
f 498/498/498 499/499/499 500/500/500
f 498/498/498 500/500/500 501/501/501
f 498/498/498 501/501/501 499/499/499
f 502/502/502 503/503/503 507/507/507
f 502/502/502 507/507/507 506/506/506
f 503/503/503 504/504/504 508/508/508
f 503/503/503 508/508/508 507/507/507
f 504/504/504 505/505/505 509/509/509
f 504/504/504 509/509/509 508/508/508
f 510/510/510 512/512/512 511/511/511
f 510/510/510 513/513/513 512/512/512
f 510/510/510 511/511/511 513/513/513
f 514/514/514 515/515/515 516/516/516
f 514/514/514 516/516/516 517/517/517
f 514/514/514 517/517/517 515/515/515
