# Sinh tự động bởi tools/mesh_kit.py - đừng sửa tay
o pz_book
v 0.0440 -0.0045 0.0570
v 0.0440 -0.0045 -0.0570
v 0.0440 0.0045 -0.0570
v 0.0440 0.0045 0.0570
v -0.0400 -0.0045 -0.0570
v -0.0400 -0.0045 0.0570
v -0.0400 0.0045 0.0570
v -0.0400 0.0045 -0.0570
v -0.0400 0.0045 0.0570
v 0.0440 0.0045 0.0570
v 0.0440 0.0045 -0.0570
v -0.0400 0.0045 -0.0570
v -0.0400 -0.0045 -0.0570
v 0.0440 -0.0045 -0.0570
v 0.0440 -0.0045 0.0570
v -0.0400 -0.0045 0.0570
v -0.0400 -0.0045 0.0570
v 0.0440 -0.0045 0.0570
v 0.0440 0.0045 0.0570
v -0.0400 0.0045 0.0570
v 0.0440 -0.0045 -0.0570
v -0.0400 -0.0045 -0.0570
v -0.0400 0.0045 -0.0570
v 0.0440 0.0045 -0.0570
vt 0.0000 0.0000
vt 0.1140 0.0000
vt 0.1140 0.0090
vt 0.0000 0.0090
vt 0.0000 0.0000
vt 0.1140 0.0000
vt 0.1140 0.0090
vt 0.0000 0.0090
vt 0.0000 0.0000
vt 0.0840 0.0000
vt 0.0840 0.1140
vt 0.0000 0.1140
vt 0.0000 0.0000
vt 0.0840 0.0000
vt 0.0840 0.1140
vt 0.0000 0.1140
vt 0.0000 0.0000
vt 0.0840 0.0000
vt 0.0840 0.0090
vt 0.0000 0.0090
vt 0.0000 0.0000
vt 0.0840 0.0000
vt 0.0840 0.0090
vt 0.0000 0.0090
vn 1.000 0.000 0.000
vn 1.000 0.000 0.000
vn 1.000 0.000 0.000
vn 1.000 0.000 0.000
vn -1.000 0.000 0.000
vn -1.000 0.000 0.000
vn -1.000 0.000 0.000
vn -1.000 0.000 0.000
vn 0.000 1.000 0.000
vn 0.000 1.000 0.000
vn 0.000 1.000 0.000
vn 0.000 1.000 0.000
vn 0.000 -1.000 0.000
vn 0.000 -1.000 0.000
vn 0.000 -1.000 0.000
vn 0.000 -1.000 0.000
vn 0.000 0.000 1.000
vn 0.000 0.000 1.000
vn 0.000 0.000 1.000
vn 0.000 0.000 1.000
vn 0.000 0.000 -1.000
vn 0.000 0.000 -1.000
vn 0.000 0.000 -1.000
vn 0.000 0.000 -1.000
v 0.0450 -0.0060 0.0600
v 0.0450 -0.0060 -0.0600
v 0.0450 -0.0045 -0.0600
v 0.0450 -0.0045 0.0600
v -0.0450 -0.0060 -0.0600
v -0.0450 -0.0060 0.0600
v -0.0450 -0.0045 0.0600
v -0.0450 -0.0045 -0.0600
v -0.0450 -0.0045 0.0600
v 0.0450 -0.0045 0.0600
v 0.0450 -0.0045 -0.0600
v -0.0450 -0.0045 -0.0600
v -0.0450 -0.0060 -0.0600
v 0.0450 -0.0060 -0.0600
v 0.0450 -0.0060 0.0600
v -0.0450 -0.0060 0.0600
v -0.0450 -0.0060 0.0600
v 0.0450 -0.0060 0.0600
v 0.0450 -0.0045 0.0600
v -0.0450 -0.0045 0.0600
v 0.0450 -0.0060 -0.0600
v -0.0450 -0.0060 -0.0600
v -0.0450 -0.0045 -0.0600
v 0.0450 -0.0045 -0.0600
v 0.0450 0.0045 0.0600
v 0.0450 0.0045 -0.0600
v 0.0450 0.0060 -0.0600
v 0.0450 0.0060 0.0600
v -0.0450 0.0045 -0.0600
v -0.0450 0.0045 0.0600
v -0.0450 0.0060 0.0600
v -0.0450 0.0060 -0.0600
v -0.0450 0.0060 0.0600
v 0.0450 0.0060 0.0600
v 0.0450 0.0060 -0.0600
v -0.0450 0.0060 -0.0600
v -0.0450 0.0045 -0.0600
v 0.0450 0.0045 -0.0600
v 0.0450 0.0045 0.0600
v -0.0450 0.0045 0.0600
v -0.0450 0.0045 0.0600
v 0.0450 0.0045 0.0600
v 0.0450 0.0060 0.0600
v -0.0450 0.0060 0.0600
v 0.0450 0.0045 -0.0600
v -0.0450 0.0045 -0.0600
v -0.0450 0.0060 -0.0600
v 0.0450 0.0060 -0.0600
v -0.0450 0.0060 0.0600
v -0.0408 0.0042 0.0600
v -0.0390 0.0000 0.0600
v -0.0408 -0.0042 0.0600
v -0.0450 -0.0060 0.0600
v -0.0492 -0.0042 0.0600
v -0.0510 -0.0000 0.0600
v -0.0492 0.0042 0.0600
v -0.0450 0.0060 0.0600
v -0.0450 0.0060 -0.0600
v -0.0408 0.0042 -0.0600
v -0.0390 0.0000 -0.0600
v -0.0408 -0.0042 -0.0600
v -0.0450 -0.0060 -0.0600
v -0.0492 -0.0042 -0.0600
v -0.0510 -0.0000 -0.0600
v -0.0492 0.0042 -0.0600
v -0.0450 0.0060 -0.0600
vt 0.0000 0.0000
vt 0.1200 0.0000
vt 0.1200 0.0015
vt 0.0000 0.0015
vt 0.0000 0.0000
vt 0.1200 0.0000
vt 0.1200 0.0015
vt 0.0000 0.0015
vt 0.0000 0.0000
vt 0.0900 0.0000
vt 0.0900 0.1200
vt 0.0000 0.1200
vt 0.0000 0.0000
vt 0.0900 0.0000
vt 0.0900 0.1200
vt 0.0000 0.1200
vt 0.0000 0.0000
vt 0.0900 0.0000
vt 0.0900 0.0015
vt 0.0000 0.0015
vt 0.0000 0.0000
vt 0.0900 0.0000
vt 0.0900 0.0015
vt 0.0000 0.0015
vt 0.0000 0.0000
vt 0.1200 0.0000
vt 0.1200 0.0015
vt 0.0000 0.0015
vt 0.0000 0.0000
vt 0.1200 0.0000
vt 0.1200 0.0015
vt 0.0000 0.0015
vt 0.0000 0.0000
vt 0.0900 0.0000
vt 0.0900 0.1200
vt 0.0000 0.1200
vt 0.0000 0.0000
vt 0.0900 0.0000
vt 0.0900 0.1200
vt 0.0000 0.1200
vt 0.0000 0.0000
vt 0.0900 0.0000
vt 0.0900 0.0015
vt 0.0000 0.0015
vt 0.0000 0.0000
vt 0.0900 0.0000
vt 0.0900 0.0015
vt 0.0000 0.0015
vt 0.0000 0.0000
vt 0.0000 0.0047
vt 0.0000 0.0094
vt 0.0000 0.0141
vt 0.0000 0.0188
vt 0.0000 0.0236
vt 0.0000 0.0283
vt 0.0000 0.0330
vt 0.0000 0.0377
vt 0.1200 0.0000
vt 0.1200 0.0047
vt 0.1200 0.0094
vt 0.1200 0.0141
vt 0.1200 0.0188
vt 0.1200 0.0236
vt 0.1200 0.0283
vt 0.1200 0.0330
vt 0.1200 0.0377
vn 1.000 0.000 0.000
vn 1.000 0.000 0.000
vn 1.000 0.000 0.000
vn 1.000 0.000 0.000
vn -1.000 0.000 0.000
vn -1.000 0.000 0.000
vn -1.000 0.000 0.000
vn -1.000 0.000 0.000
vn 0.000 1.000 0.000
vn 0.000 1.000 0.000
vn 0.000 1.000 0.000
vn 0.000 1.000 0.000
vn 0.000 -1.000 0.000
vn 0.000 -1.000 0.000
vn 0.000 -1.000 0.000
vn 0.000 -1.000 0.000
vn 0.000 0.000 1.000
vn 0.000 0.000 1.000
vn 0.000 0.000 1.000
vn 0.000 0.000 1.000
vn 0.000 0.000 -1.000
vn 0.000 0.000 -1.000
vn 0.000 0.000 -1.000
vn 0.000 0.000 -1.000
vn 1.000 0.000 0.000
vn 1.000 0.000 0.000
vn 1.000 0.000 0.000
vn 1.000 0.000 0.000
vn -1.000 0.000 0.000
vn -1.000 0.000 0.000
vn -1.000 0.000 0.000
vn -1.000 0.000 0.000
vn 0.000 1.000 0.000
vn 0.000 1.000 0.000
vn 0.000 1.000 0.000
vn 0.000 1.000 0.000
vn 0.000 -1.000 0.000
vn 0.000 -1.000 0.000
vn 0.000 -1.000 0.000
vn 0.000 -1.000 0.000
vn 0.000 0.000 1.000
vn 0.000 0.000 1.000
vn 0.000 0.000 1.000
vn 0.000 0.000 1.000
vn 0.000 0.000 -1.000
vn 0.000 0.000 -1.000
vn 0.000 0.000 -1.000
vn 0.000 0.000 -1.000
vn 0.000 1.000 0.000
vn 0.707 0.707 0.000
vn 1.000 0.000 0.000
vn 0.707 -0.707 0.000
vn 0.000 -1.000 0.000
vn -0.707 -0.707 -0.000
vn -1.000 -0.000 -0.000
vn -0.707 0.707 0.000
vn -0.000 1.000 0.000
vn 0.000 1.000 0.000
vn 0.707 0.707 0.000
vn 1.000 0.000 0.000
vn 0.707 -0.707 0.000
vn 0.000 -1.000 0.000
vn -0.707 -0.707 -0.000
vn -1.000 -0.000 -0.000
vn -0.707 0.707 0.000
vn -0.000 1.000 0.000
usemtl pages
f 1/1/1 2/2/2 3/3/3
f 1/1/1 3/3/3 4/4/4
f 5/5/5 6/6/6 7/7/7
f 5/5/5 7/7/7 8/8/8
f 9/9/9 10/10/10 11/11/11
f 9/9/9 11/11/11 12/12/12
f 13/13/13 14/14/14 15/15/15
f 13/13/13 15/15/15 16/16/16
f 17/17/17 18/18/18 19/19/19
f 17/17/17 19/19/19 20/20/20
f 21/21/21 22/22/22 23/23/23
f 21/21/21 23/23/23 24/24/24
usemtl cover
f 25/25/25 26/26/26 27/27/27
f 25/25/25 27/27/27 28/28/28
f 29/29/29 30/30/30 31/31/31
f 29/29/29 31/31/31 32/32/32
f 33/33/33 34/34/34 35/35/35
f 33/33/33 35/35/35 36/36/36
f 37/37/37 38/38/38 39/39/39
f 37/37/37 39/39/39 40/40/40
f 41/41/41 42/42/42 43/43/43
f 41/41/41 43/43/43 44/44/44
f 45/45/45 46/46/46 47/47/47
f 45/45/45 47/47/47 48/48/48
f 49/49/49 50/50/50 51/51/51
f 49/49/49 51/51/51 52/52/52
f 53/53/53 54/54/54 55/55/55
f 53/53/53 55/55/55 56/56/56
f 57/57/57 58/58/58 59/59/59
f 57/57/57 59/59/59 60/60/60
f 61/61/61 62/62/62 63/63/63
f 61/61/61 63/63/63 64/64/64
f 65/65/65 66/66/66 67/67/67
f 65/65/65 67/67/67 68/68/68
f 69/69/69 70/70/70 71/71/71
f 69/69/69 71/71/71 72/72/72
f 73/73/73 74/74/74 83/83/83
f 73/73/73 83/83/83 82/82/82
f 74/74/74 75/75/75 84/84/84
f 74/74/74 84/84/84 83/83/83
f 75/75/75 76/76/76 85/85/85
f 75/75/75 85/85/85 84/84/84
f 76/76/76 77/77/77 86/86/86
f 76/76/76 86/86/86 85/85/85
f 77/77/77 78/78/78 87/87/87
f 77/77/77 87/87/87 86/86/86
f 78/78/78 79/79/79 88/88/88
f 78/78/78 88/88/88 87/87/87
f 79/79/79 80/80/80 89/89/89
f 79/79/79 89/89/89 88/88/88
f 80/80/80 81/81/81 90/90/90
f 80/80/80 90/90/90 89/89/89
