# Sinh tự động bởi tools/mesh_kit.py - đừng sửa tay
o pz_biscuit_can
v 0.0985 0.0040 -0.0000
v 0.1000 0.0080 -0.0000
v 0.1000 0.0750 -0.0000
v 0.0966 0.0040 -0.0192
v 0.0981 0.0080 -0.0195
v 0.0981 0.0750 -0.0195
v 0.0910 0.0040 -0.0377
v 0.0924 0.0080 -0.0383
v 0.0924 0.0750 -0.0383
v 0.0819 0.0040 -0.0547
v 0.0831 0.0080 -0.0556
v 0.0831 0.0750 -0.0556
v 0.0697 0.0040 -0.0697
v 0.0707 0.0080 -0.0707
v 0.0707 0.0750 -0.0707
v 0.0547 0.0040 -0.0819
v 0.0556 0.0080 -0.0831
v 0.0556 0.0750 -0.0831
v 0.0377 0.0040 -0.0910
v 0.0383 0.0080 -0.0924
v 0.0383 0.0750 -0.0924
v 0.0192 0.0040 -0.0966
v 0.0195 0.0080 -0.0981
v 0.0195 0.0750 -0.0981
v 0.0000 0.0040 -0.0985
v 0.0000 0.0080 -0.1000
v 0.0000 0.0750 -0.1000
v -0.0192 0.0040 -0.0966
v -0.0195 0.0080 -0.0981
v -0.0195 0.0750 -0.0981
v -0.0377 0.0040 -0.0910
v -0.0383 0.0080 -0.0924
v -0.0383 0.0750 -0.0924
v -0.0547 0.0040 -0.0819
v -0.0556 0.0080 -0.0831
v -0.0556 0.0750 -0.0831
v -0.0697 0.0040 -0.0697
v -0.0707 0.0080 -0.0707
v -0.0707 0.0750 -0.0707
v -0.0819 0.0040 -0.0547
v -0.0831 0.0080 -0.0556
v -0.0831 0.0750 -0.0556
v -0.0910 0.0040 -0.0377
v -0.0924 0.0080 -0.0383
v -0.0924 0.0750 -0.0383
v -0.0966 0.0040 -0.0192
v -0.0981 0.0080 -0.0195
v -0.0981 0.0750 -0.0195
v -0.0985 0.0040 -0.0000
v -0.1000 0.0080 -0.0000
v -0.1000 0.0750 -0.0000
v -0.0966 0.0040 0.0192
v -0.0981 0.0080 0.0195
v -0.0981 0.0750 0.0195
v -0.0910 0.0040 0.0377
v -0.0924 0.0080 0.0383
v -0.0924 0.0750 0.0383
v -0.0819 0.0040 0.0547
v -0.0831 0.0080 0.0556
v -0.0831 0.0750 0.0556
v -0.0697 0.0040 0.0697
v -0.0707 0.0080 0.0707
v -0.0707 0.0750 0.0707
v -0.0547 0.0040 0.0819
v -0.0556 0.0080 0.0831
v -0.0556 0.0750 0.0831
v -0.0377 0.0040 0.0910
v -0.0383 0.0080 0.0924
v -0.0383 0.0750 0.0924
v -0.0192 0.0040 0.0966
v -0.0195 0.0080 0.0981
v -0.0195 0.0750 0.0981
v -0.0000 0.0040 0.0985
v -0.0000 0.0080 0.1000
v -0.0000 0.0750 0.1000
v 0.0192 0.0040 0.0966
v 0.0195 0.0080 0.0981
v 0.0195 0.0750 0.0981
v 0.0377 0.0040 0.0910
v 0.0383 0.0080 0.0924
v 0.0383 0.0750 0.0924
v 0.0547 0.0040 0.0819
v 0.0556 0.0080 0.0831
v 0.0556 0.0750 0.0831
v 0.0697 0.0040 0.0697
v 0.0707 0.0080 0.0707
v 0.0707 0.0750 0.0707
v 0.0819 0.0040 0.0547
v 0.0831 0.0080 0.0556
v 0.0831 0.0750 0.0556
v 0.0910 0.0040 0.0377
v 0.0924 0.0080 0.0383
v 0.0924 0.0750 0.0383
v 0.0966 0.0040 0.0192
v 0.0981 0.0080 0.0195
v 0.0981 0.0750 0.0195
v 0.0985 0.0040 0.0000
v 0.1000 0.0080 0.0000
v 0.1000 0.0750 0.0000
vt 0.0000 0.0000
vt 0.0000 0.0043
vt 0.0000 0.0713
vt 0.0196 0.0000
vt 0.0196 0.0043
vt 0.0196 0.0713
vt 0.0393 0.0000
vt 0.0393 0.0043
vt 0.0393 0.0713
vt 0.0589 0.0000
vt 0.0589 0.0043
vt 0.0589 0.0713
vt 0.0785 0.0000
vt 0.0785 0.0043
vt 0.0785 0.0713
vt 0.0982 0.0000
vt 0.0982 0.0043
vt 0.0982 0.0713
vt 0.1178 0.0000
vt 0.1178 0.0043
vt 0.1178 0.0713
vt 0.1374 0.0000
vt 0.1374 0.0043
vt 0.1374 0.0713
vt 0.1571 0.0000
vt 0.1571 0.0043
vt 0.1571 0.0713
vt 0.1767 0.0000
vt 0.1767 0.0043
vt 0.1767 0.0713
vt 0.1963 0.0000
vt 0.1963 0.0043
vt 0.1963 0.0713
vt 0.2160 0.0000
vt 0.2160 0.0043
vt 0.2160 0.0713
vt 0.2356 0.0000
vt 0.2356 0.0043
vt 0.2356 0.0713
vt 0.2553 0.0000
vt 0.2553 0.0043
vt 0.2553 0.0713
vt 0.2749 0.0000
vt 0.2749 0.0043
vt 0.2749 0.0713
vt 0.2945 0.0000
vt 0.2945 0.0043
vt 0.2945 0.0713
vt 0.3142 0.0000
vt 0.3142 0.0043
vt 0.3142 0.0713
vt 0.3338 0.0000
vt 0.3338 0.0043
vt 0.3338 0.0713
vt 0.3534 0.0000
vt 0.3534 0.0043
vt 0.3534 0.0713
vt 0.3731 0.0000
vt 0.3731 0.0043
vt 0.3731 0.0713
vt 0.3927 0.0000
vt 0.3927 0.0043
vt 0.3927 0.0713
vt 0.4123 0.0000
vt 0.4123 0.0043
vt 0.4123 0.0713
vt 0.4320 0.0000
vt 0.4320 0.0043
vt 0.4320 0.0713
vt 0.4516 0.0000
vt 0.4516 0.0043
vt 0.4516 0.0713
vt 0.4712 0.0000
vt 0.4712 0.0043
vt 0.4712 0.0713
vt 0.4909 0.0000
vt 0.4909 0.0043
vt 0.4909 0.0713
vt 0.5105 0.0000
vt 0.5105 0.0043
vt 0.5105 0.0713
vt 0.5301 0.0000
vt 0.5301 0.0043
vt 0.5301 0.0713
vt 0.5498 0.0000
vt 0.5498 0.0043
vt 0.5498 0.0713
vt 0.5694 0.0000
vt 0.5694 0.0043
vt 0.5694 0.0713
vt 0.5890 0.0000
vt 0.5890 0.0043
vt 0.5890 0.0713
vt 0.6087 0.0000
vt 0.6087 0.0043
vt 0.6087 0.0713
vt 0.6283 0.0000
vt 0.6283 0.0043
vt 0.6283 0.0713
vn 0.936 -0.351 -0.000
vn 1.000 -0.021 -0.000
vn 1.000 -0.000 -0.000
vn 0.918 -0.351 -0.183
vn 0.981 -0.021 -0.195
vn 0.981 -0.000 -0.195
vn 0.865 -0.351 -0.358
vn 0.924 -0.021 -0.383
vn 0.924 -0.000 -0.383
vn 0.779 -0.351 -0.520
vn 0.831 -0.021 -0.555
vn 0.831 -0.000 -0.556
vn 0.662 -0.351 -0.662
vn 0.707 -0.021 -0.707
vn 0.707 -0.000 -0.707
vn 0.520 -0.351 -0.779
vn 0.555 -0.021 -0.831
vn 0.556 -0.000 -0.831
vn 0.358 -0.351 -0.865
vn 0.383 -0.021 -0.924
vn 0.383 -0.000 -0.924
vn 0.183 -0.351 -0.918
vn 0.195 -0.021 -0.981
vn 0.195 -0.000 -0.981
vn 0.000 -0.351 -0.936
vn 0.000 -0.021 -1.000
vn 0.000 -0.000 -1.000
vn -0.183 -0.351 -0.918
vn -0.195 -0.021 -0.981
vn -0.195 -0.000 -0.981
vn -0.358 -0.351 -0.865
vn -0.383 -0.021 -0.924
vn -0.383 -0.000 -0.924
vn -0.520 -0.351 -0.779
vn -0.555 -0.021 -0.831
vn -0.556 -0.000 -0.831
vn -0.662 -0.351 -0.662
vn -0.707 -0.021 -0.707
vn -0.707 -0.000 -0.707
vn -0.779 -0.351 -0.520
vn -0.831 -0.021 -0.555
vn -0.831 -0.000 -0.556
vn -0.865 -0.351 -0.358
vn -0.924 -0.021 -0.383
vn -0.924 -0.000 -0.383
vn -0.918 -0.351 -0.183
vn -0.981 -0.021 -0.195
vn -0.981 -0.000 -0.195
vn -0.936 -0.351 -0.000
vn -1.000 -0.021 -0.000
vn -1.000 -0.000 -0.000
vn -0.918 -0.351 0.183
vn -0.981 -0.021 0.195
vn -0.981 -0.000 0.195
vn -0.865 -0.351 0.358
vn -0.924 -0.021 0.383
vn -0.924 -0.000 0.383
vn -0.779 -0.351 0.520
vn -0.831 -0.021 0.555
vn -0.831 -0.000 0.556
vn -0.662 -0.351 0.662
vn -0.707 -0.021 0.707
vn -0.707 -0.000 0.707
vn -0.520 -0.351 0.779
vn -0.555 -0.021 0.831
vn -0.556 -0.000 0.831
vn -0.358 -0.351 0.865
vn -0.383 -0.021 0.924
vn -0.383 -0.000 0.924
vn -0.183 -0.351 0.918
vn -0.195 -0.021 0.981
vn -0.195 -0.000 0.981
vn -0.000 -0.351 0.936
vn -0.000 -0.021 1.000
vn -0.000 -0.000 1.000
vn 0.183 -0.351 0.918
vn 0.195 -0.021 0.981
vn 0.195 -0.000 0.981
vn 0.358 -0.351 0.865
vn 0.383 -0.021 0.924
vn 0.383 -0.000 0.924
vn 0.520 -0.351 0.779
vn 0.555 -0.021 0.831
vn 0.556 -0.000 0.831
vn 0.662 -0.351 0.662
vn 0.707 -0.021 0.707
vn 0.707 -0.000 0.707
vn 0.779 -0.351 0.520
vn 0.831 -0.021 0.555
vn 0.831 -0.000 0.556
vn 0.865 -0.351 0.358
vn 0.924 -0.021 0.383
vn 0.924 -0.000 0.383
vn 0.918 -0.351 0.183
vn 0.981 -0.021 0.195
vn 0.981 -0.000 0.195
vn 0.936 -0.351 0.000
vn 1.000 -0.021 0.000
vn 1.000 -0.000 0.000
v 0.0000 0.0000 -0.0000
v 0.0940 0.0000 -0.0000
v 0.0990 0.0020 -0.0000
v 0.0985 0.0040 -0.0000
v 0.0000 0.0000 -0.0000
v 0.0922 0.0000 -0.0183
v 0.0971 0.0020 -0.0193
v 0.0966 0.0040 -0.0192
v 0.0000 0.0000 -0.0000
v 0.0868 0.0000 -0.0360
v 0.0915 0.0020 -0.0379
v 0.0910 0.0040 -0.0377
v 0.0000 0.0000 -0.0000
v 0.0782 0.0000 -0.0522
v 0.0823 0.0020 -0.0550
v 0.0819 0.0040 -0.0547
v 0.0000 0.0000 -0.0000
v 0.0665 0.0000 -0.0665
v 0.0700 0.0020 -0.0700
v 0.0697 0.0040 -0.0697
v 0.0000 0.0000 -0.0000
v 0.0522 0.0000 -0.0782
v 0.0550 0.0020 -0.0823
v 0.0547 0.0040 -0.0819
v 0.0000 0.0000 -0.0000
v 0.0360 0.0000 -0.0868
v 0.0379 0.0020 -0.0915
v 0.0377 0.0040 -0.0910
v 0.0000 0.0000 -0.0000
v 0.0183 0.0000 -0.0922
v 0.0193 0.0020 -0.0971
v 0.0192 0.0040 -0.0966
v 0.0000 0.0000 -0.0000
v 0.0000 0.0000 -0.0940
v 0.0000 0.0020 -0.0990
v 0.0000 0.0040 -0.0985
v -0.0000 0.0000 -0.0000
v -0.0183 0.0000 -0.0922
v -0.0193 0.0020 -0.0971
v -0.0192 0.0040 -0.0966
v -0.0000 0.0000 -0.0000
v -0.0360 0.0000 -0.0868
v -0.0379 0.0020 -0.0915
v -0.0377 0.0040 -0.0910
v -0.0000 0.0000 -0.0000
v -0.0522 0.0000 -0.0782
v -0.0550 0.0020 -0.0823
v -0.0547 0.0040 -0.0819
v -0.0000 0.0000 -0.0000
v -0.0665 0.0000 -0.0665
v -0.0700 0.0020 -0.0700
v -0.0697 0.0040 -0.0697
v -0.0000 0.0000 -0.0000
v -0.0782 0.0000 -0.0522
v -0.0823 0.0020 -0.0550
v -0.0819 0.0040 -0.0547
v -0.0000 0.0000 -0.0000
v -0.0868 0.0000 -0.0360
v -0.0915 0.0020 -0.0379
v -0.0910 0.0040 -0.0377
v -0.0000 0.0000 -0.0000
v -0.0922 0.0000 -0.0183
v -0.0971 0.0020 -0.0193
v -0.0966 0.0040 -0.0192
v -0.0000 0.0000 -0.0000
v -0.0940 0.0000 -0.0000
v -0.0990 0.0020 -0.0000
v -0.0985 0.0040 -0.0000
v -0.0000 0.0000 0.0000
v -0.0922 0.0000 0.0183
v -0.0971 0.0020 0.0193
v -0.0966 0.0040 0.0192
v -0.0000 0.0000 0.0000
v -0.0868 0.0000 0.0360
v -0.0915 0.0020 0.0379
v -0.0910 0.0040 0.0377
v -0.0000 0.0000 0.0000
v -0.0782 0.0000 0.0522
v -0.0823 0.0020 0.0550
v -0.0819 0.0040 0.0547
v -0.0000 0.0000 0.0000
v -0.0665 0.0000 0.0665
v -0.0700 0.0020 0.0700
v -0.0697 0.0040 0.0697
v -0.0000 0.0000 0.0000
v -0.0522 0.0000 0.0782
v -0.0550 0.0020 0.0823
v -0.0547 0.0040 0.0819
v -0.0000 0.0000 0.0000
v -0.0360 0.0000 0.0868
v -0.0379 0.0020 0.0915
v -0.0377 0.0040 0.0910
v -0.0000 0.0000 0.0000
v -0.0183 0.0000 0.0922
v -0.0193 0.0020 0.0971
v -0.0192 0.0040 0.0966
v -0.0000 0.0000 0.0000
v -0.0000 0.0000 0.0940
v -0.0000 0.0020 0.0990
v -0.0000 0.0040 0.0985
v 0.0000 0.0000 0.0000
v 0.0183 0.0000 0.0922
v 0.0193 0.0020 0.0971
v 0.0192 0.0040 0.0966
v 0.0000 0.0000 0.0000
v 0.0360 0.0000 0.0868
v 0.0379 0.0020 0.0915
v 0.0377 0.0040 0.0910
v 0.0000 0.0000 0.0000
v 0.0522 0.0000 0.0782
v 0.0550 0.0020 0.0823
v 0.0547 0.0040 0.0819
v 0.0000 0.0000 0.0000
v 0.0665 0.0000 0.0665
v 0.0700 0.0020 0.0700
v 0.0697 0.0040 0.0697
v 0.0000 0.0000 0.0000
v 0.0782 0.0000 0.0522
v 0.0823 0.0020 0.0550
v 0.0819 0.0040 0.0547
v 0.0000 0.0000 0.0000
v 0.0868 0.0000 0.0360
v 0.0915 0.0020 0.0379
v 0.0910 0.0040 0.0377
v 0.0000 0.0000 0.0000
v 0.0922 0.0000 0.0183
v 0.0971 0.0020 0.0193
v 0.0966 0.0040 0.0192
v 0.0000 0.0000 0.0000
v 0.0940 0.0000 0.0000
v 0.0990 0.0020 0.0000
v 0.0985 0.0040 0.0000
v 0.1000 0.0750 -0.0000
v 0.0970 0.0780 -0.0000
v 0.0970 0.0860 -0.0000
v 0.0930 0.0870 -0.0000
v 0.0930 0.0100 -0.0000
v 0.0000 0.0100 -0.0000
v 0.0981 0.0750 -0.0195
v 0.0951 0.0780 -0.0189
v 0.0951 0.0860 -0.0189
v 0.0912 0.0870 -0.0181
v 0.0912 0.0100 -0.0181
v 0.0000 0.0100 -0.0000
v 0.0924 0.0750 -0.0383
v 0.0896 0.0780 -0.0371
v 0.0896 0.0860 -0.0371
v 0.0859 0.0870 -0.0356
v 0.0859 0.0100 -0.0356
v 0.0000 0.0100 -0.0000
v 0.0831 0.0750 -0.0556
v 0.0807 0.0780 -0.0539
v 0.0807 0.0860 -0.0539
v 0.0773 0.0870 -0.0517
v 0.0773 0.0100 -0.0517
v 0.0000 0.0100 -0.0000
v 0.0707 0.0750 -0.0707
v 0.0686 0.0780 -0.0686
v 0.0686 0.0860 -0.0686
v 0.0658 0.0870 -0.0658
v 0.0658 0.0100 -0.0658
v 0.0000 0.0100 -0.0000
v 0.0556 0.0750 -0.0831
v 0.0539 0.0780 -0.0807
v 0.0539 0.0860 -0.0807
v 0.0517 0.0870 -0.0773
v 0.0517 0.0100 -0.0773
v 0.0000 0.0100 -0.0000
v 0.0383 0.0750 -0.0924
v 0.0371 0.0780 -0.0896
v 0.0371 0.0860 -0.0896
v 0.0356 0.0870 -0.0859
v 0.0356 0.0100 -0.0859
v 0.0000 0.0100 -0.0000
v 0.0195 0.0750 -0.0981
v 0.0189 0.0780 -0.0951
v 0.0189 0.0860 -0.0951
v 0.0181 0.0870 -0.0912
v 0.0181 0.0100 -0.0912
v 0.0000 0.0100 -0.0000
v 0.0000 0.0750 -0.1000
v 0.0000 0.0780 -0.0970
v 0.0000 0.0860 -0.0970
v 0.0000 0.0870 -0.0930
v 0.0000 0.0100 -0.0930
v 0.0000 0.0100 -0.0000
v -0.0195 0.0750 -0.0981
v -0.0189 0.0780 -0.0951
v -0.0189 0.0860 -0.0951
v -0.0181 0.0870 -0.0912
v -0.0181 0.0100 -0.0912
v -0.0000 0.0100 -0.0000
v -0.0383 0.0750 -0.0924
v -0.0371 0.0780 -0.0896
v -0.0371 0.0860 -0.0896
v -0.0356 0.0870 -0.0859
v -0.0356 0.0100 -0.0859
v -0.0000 0.0100 -0.0000
v -0.0556 0.0750 -0.0831
v -0.0539 0.0780 -0.0807
v -0.0539 0.0860 -0.0807
v -0.0517 0.0870 -0.0773
v -0.0517 0.0100 -0.0773
v -0.0000 0.0100 -0.0000
v -0.0707 0.0750 -0.0707
v -0.0686 0.0780 -0.0686
v -0.0686 0.0860 -0.0686
v -0.0658 0.0870 -0.0658
v -0.0658 0.0100 -0.0658
v -0.0000 0.0100 -0.0000
v -0.0831 0.0750 -0.0556
v -0.0807 0.0780 -0.0539
v -0.0807 0.0860 -0.0539
v -0.0773 0.0870 -0.0517
v -0.0773 0.0100 -0.0517
v -0.0000 0.0100 -0.0000
v -0.0924 0.0750 -0.0383
v -0.0896 0.0780 -0.0371
v -0.0896 0.0860 -0.0371
v -0.0859 0.0870 -0.0356
v -0.0859 0.0100 -0.0356
v -0.0000 0.0100 -0.0000
v -0.0981 0.0750 -0.0195
v -0.0951 0.0780 -0.0189
v -0.0951 0.0860 -0.0189
v -0.0912 0.0870 -0.0181
v -0.0912 0.0100 -0.0181
v -0.0000 0.0100 -0.0000
v -0.1000 0.0750 -0.0000
v -0.0970 0.0780 -0.0000
v -0.0970 0.0860 -0.0000
v -0.0930 0.0870 -0.0000
v -0.0930 0.0100 -0.0000
v -0.0000 0.0100 -0.0000
v -0.0981 0.0750 0.0195
v -0.0951 0.0780 0.0189
v -0.0951 0.0860 0.0189
v -0.0912 0.0870 0.0181
v -0.0912 0.0100 0.0181
v -0.0000 0.0100 0.0000
v -0.0924 0.0750 0.0383
v -0.0896 0.0780 0.0371
v -0.0896 0.0860 0.0371
v -0.0859 0.0870 0.0356
v -0.0859 0.0100 0.0356
v -0.0000 0.0100 0.0000
v -0.0831 0.0750 0.0556
v -0.0807 0.0780 0.0539
v -0.0807 0.0860 0.0539
v -0.0773 0.0870 0.0517
v -0.0773 0.0100 0.0517
v -0.0000 0.0100 0.0000
v -0.0707 0.0750 0.0707
v -0.0686 0.0780 0.0686
v -0.0686 0.0860 0.0686
v -0.0658 0.0870 0.0658
v -0.0658 0.0100 0.0658
v -0.0000 0.0100 0.0000
v -0.0556 0.0750 0.0831
v -0.0539 0.0780 0.0807
v -0.0539 0.0860 0.0807
v -0.0517 0.0870 0.0773
v -0.0517 0.0100 0.0773
v -0.0000 0.0100 0.0000
v -0.0383 0.0750 0.0924
v -0.0371 0.0780 0.0896
v -0.0371 0.0860 0.0896
v -0.0356 0.0870 0.0859
v -0.0356 0.0100 0.0859
v -0.0000 0.0100 0.0000
v -0.0195 0.0750 0.0981
v -0.0189 0.0780 0.0951
v -0.0189 0.0860 0.0951
v -0.0181 0.0870 0.0912
v -0.0181 0.0100 0.0912
v -0.0000 0.0100 0.0000
v -0.0000 0.0750 0.1000
v -0.0000 0.0780 0.0970
v -0.0000 0.0860 0.0970
v -0.0000 0.0870 0.0930
v -0.0000 0.0100 0.0930
v -0.0000 0.0100 0.0000
v 0.0195 0.0750 0.0981
v 0.0189 0.0780 0.0951
v 0.0189 0.0860 0.0951
v 0.0181 0.0870 0.0912
v 0.0181 0.0100 0.0912
v 0.0000 0.0100 0.0000
v 0.0383 0.0750 0.0924
v 0.0371 0.0780 0.0896
v 0.0371 0.0860 0.0896
v 0.0356 0.0870 0.0859
v 0.0356 0.0100 0.0859
v 0.0000 0.0100 0.0000
v 0.0556 0.0750 0.0831
v 0.0539 0.0780 0.0807
v 0.0539 0.0860 0.0807
v 0.0517 0.0870 0.0773
v 0.0517 0.0100 0.0773
v 0.0000 0.0100 0.0000
v 0.0707 0.0750 0.0707
v 0.0686 0.0780 0.0686
v 0.0686 0.0860 0.0686
v 0.0658 0.0870 0.0658
v 0.0658 0.0100 0.0658
v 0.0000 0.0100 0.0000
v 0.0831 0.0750 0.0556
v 0.0807 0.0780 0.0539
v 0.0807 0.0860 0.0539
v 0.0773 0.0870 0.0517
v 0.0773 0.0100 0.0517
v 0.0000 0.0100 0.0000
v 0.0924 0.0750 0.0383
v 0.0896 0.0780 0.0371
v 0.0896 0.0860 0.0371
v 0.0859 0.0870 0.0356
v 0.0859 0.0100 0.0356
v 0.0000 0.0100 0.0000
v 0.0981 0.0750 0.0195
v 0.0951 0.0780 0.0189
v 0.0951 0.0860 0.0189
v 0.0912 0.0870 0.0181
v 0.0912 0.0100 0.0181
v 0.0000 0.0100 0.0000
v 0.1000 0.0750 0.0000
v 0.0970 0.0780 0.0000
v 0.0970 0.0860 0.0000
v 0.0930 0.0870 0.0000
v 0.0930 0.0100 0.0000
v 0.0000 0.0100 0.0000
vt 0.0000 0.0000
vt 0.0000 0.0940
vt 0.0000 0.0994
vt 0.0000 0.1014
vt 0.0194 0.0000
vt 0.0194 0.0940
vt 0.0194 0.0994
vt 0.0194 0.1014
vt 0.0389 0.0000
vt 0.0389 0.0940
vt 0.0389 0.0994
vt 0.0389 0.1014
vt 0.0583 0.0000
vt 0.0583 0.0940
vt 0.0583 0.0994
vt 0.0583 0.1014
vt 0.0778 0.0000
vt 0.0778 0.0940
vt 0.0778 0.0994
vt 0.0778 0.1014
vt 0.0972 0.0000
vt 0.0972 0.0940
vt 0.0972 0.0994
vt 0.0972 0.1014
vt 0.1166 0.0000
vt 0.1166 0.0940
vt 0.1166 0.0994
vt 0.1166 0.1014
vt 0.1361 0.0000
vt 0.1361 0.0940
vt 0.1361 0.0994
vt 0.1361 0.1014
vt 0.1555 0.0000
vt 0.1555 0.0940
vt 0.1555 0.0994
vt 0.1555 0.1014
vt 0.1749 0.0000
vt 0.1749 0.0940
vt 0.1749 0.0994
vt 0.1749 0.1014
vt 0.1944 0.0000
vt 0.1944 0.0940
vt 0.1944 0.0994
vt 0.1944 0.1014
vt 0.2138 0.0000
vt 0.2138 0.0940
vt 0.2138 0.0994
vt 0.2138 0.1014
vt 0.2333 0.0000
vt 0.2333 0.0940
vt 0.2333 0.0994
vt 0.2333 0.1014
vt 0.2527 0.0000
vt 0.2527 0.0940
vt 0.2527 0.0994
vt 0.2527 0.1014
vt 0.2721 0.0000
vt 0.2721 0.0940
vt 0.2721 0.0994
vt 0.2721 0.1014
vt 0.2916 0.0000
vt 0.2916 0.0940
vt 0.2916 0.0994
vt 0.2916 0.1014
vt 0.3110 0.0000
vt 0.3110 0.0940
vt 0.3110 0.0994
vt 0.3110 0.1014
vt 0.3305 0.0000
vt 0.3305 0.0940
vt 0.3305 0.0994
vt 0.3305 0.1014
vt 0.3499 0.0000
vt 0.3499 0.0940
vt 0.3499 0.0994
vt 0.3499 0.1014
vt 0.3693 0.0000
vt 0.3693 0.0940
vt 0.3693 0.0994
vt 0.3693 0.1014
vt 0.3888 0.0000
vt 0.3888 0.0940
vt 0.3888 0.0994
vt 0.3888 0.1014
vt 0.4082 0.0000
vt 0.4082 0.0940
vt 0.4082 0.0994
vt 0.4082 0.1014
vt 0.4276 0.0000
vt 0.4276 0.0940
vt 0.4276 0.0994
vt 0.4276 0.1014
vt 0.4471 0.0000
vt 0.4471 0.0940
vt 0.4471 0.0994
vt 0.4471 0.1014
vt 0.4665 0.0000
vt 0.4665 0.0940
vt 0.4665 0.0994
vt 0.4665 0.1014
vt 0.4860 0.0000
vt 0.4860 0.0940
vt 0.4860 0.0994
vt 0.4860 0.1014
vt 0.5054 0.0000
vt 0.5054 0.0940
vt 0.5054 0.0994
vt 0.5054 0.1014
vt 0.5248 0.0000
vt 0.5248 0.0940
vt 0.5248 0.0994
vt 0.5248 0.1014
vt 0.5443 0.0000
vt 0.5443 0.0940
vt 0.5443 0.0994
vt 0.5443 0.1014
vt 0.5637 0.0000
vt 0.5637 0.0940
vt 0.5637 0.0994
vt 0.5637 0.1014
vt 0.5832 0.0000
vt 0.5832 0.0940
vt 0.5832 0.0994
vt 0.5832 0.1014
vt 0.6026 0.0000
vt 0.6026 0.0940
vt 0.6026 0.0994
vt 0.6026 0.1014
vt 0.6220 0.0000
vt 0.6220 0.0940
vt 0.6220 0.0994
vt 0.6220 0.1014
vt 0.0000 0.0000
vt 0.0000 0.0042
vt 0.0000 0.0122
vt 0.0000 0.0164
vt 0.0000 0.0934
vt 0.0000 0.1864
vt 0.0196 0.0000
vt 0.0196 0.0042
vt 0.0196 0.0122
vt 0.0196 0.0164
vt 0.0196 0.0934
vt 0.0196 0.1864
vt 0.0393 0.0000
vt 0.0393 0.0042
vt 0.0393 0.0122
vt 0.0393 0.0164
vt 0.0393 0.0934
vt 0.0393 0.1864
vt 0.0589 0.0000
vt 0.0589 0.0042
vt 0.0589 0.0122
vt 0.0589 0.0164
vt 0.0589 0.0934
vt 0.0589 0.1864
vt 0.0785 0.0000
vt 0.0785 0.0042
vt 0.0785 0.0122
vt 0.0785 0.0164
vt 0.0785 0.0934
vt 0.0785 0.1864
vt 0.0982 0.0000
vt 0.0982 0.0042
vt 0.0982 0.0122
vt 0.0982 0.0164
vt 0.0982 0.0934
vt 0.0982 0.1864
vt 0.1178 0.0000
vt 0.1178 0.0042
vt 0.1178 0.0122
vt 0.1178 0.0164
vt 0.1178 0.0934
vt 0.1178 0.1864
vt 0.1374 0.0000
vt 0.1374 0.0042
vt 0.1374 0.0122
vt 0.1374 0.0164
vt 0.1374 0.0934
vt 0.1374 0.1864
vt 0.1571 0.0000
vt 0.1571 0.0042
vt 0.1571 0.0122
vt 0.1571 0.0164
vt 0.1571 0.0934
vt 0.1571 0.1864
vt 0.1767 0.0000
vt 0.1767 0.0042
vt 0.1767 0.0122
vt 0.1767 0.0164
vt 0.1767 0.0934
vt 0.1767 0.1864
vt 0.1963 0.0000
vt 0.1963 0.0042
vt 0.1963 0.0122
vt 0.1963 0.0164
vt 0.1963 0.0934
vt 0.1963 0.1864
vt 0.2160 0.0000
vt 0.2160 0.0042
vt 0.2160 0.0122
vt 0.2160 0.0164
vt 0.2160 0.0934
vt 0.2160 0.1864
vt 0.2356 0.0000
vt 0.2356 0.0042
vt 0.2356 0.0122
vt 0.2356 0.0164
vt 0.2356 0.0934
vt 0.2356 0.1864
vt 0.2553 0.0000
vt 0.2553 0.0042
vt 0.2553 0.0122
vt 0.2553 0.0164
vt 0.2553 0.0934
vt 0.2553 0.1864
vt 0.2749 0.0000
vt 0.2749 0.0042
vt 0.2749 0.0122
vt 0.2749 0.0164
vt 0.2749 0.0934
vt 0.2749 0.1864
vt 0.2945 0.0000
vt 0.2945 0.0042
vt 0.2945 0.0122
vt 0.2945 0.0164
vt 0.2945 0.0934
vt 0.2945 0.1864
vt 0.3142 0.0000
vt 0.3142 0.0042
vt 0.3142 0.0122
vt 0.3142 0.0164
vt 0.3142 0.0934
vt 0.3142 0.1864
vt 0.3338 0.0000
vt 0.3338 0.0042
vt 0.3338 0.0122
vt 0.3338 0.0164
vt 0.3338 0.0934
vt 0.3338 0.1864
vt 0.3534 0.0000
vt 0.3534 0.0042
vt 0.3534 0.0122
vt 0.3534 0.0164
vt 0.3534 0.0934
vt 0.3534 0.1864
vt 0.3731 0.0000
vt 0.3731 0.0042
vt 0.3731 0.0122
vt 0.3731 0.0164
vt 0.3731 0.0934
vt 0.3731 0.1864
vt 0.3927 0.0000
vt 0.3927 0.0042
vt 0.3927 0.0122
vt 0.3927 0.0164
vt 0.3927 0.0934
vt 0.3927 0.1864
vt 0.4123 0.0000
vt 0.4123 0.0042
vt 0.4123 0.0122
vt 0.4123 0.0164
vt 0.4123 0.0934
vt 0.4123 0.1864
vt 0.4320 0.0000
vt 0.4320 0.0042
vt 0.4320 0.0122
vt 0.4320 0.0164
vt 0.4320 0.0934
vt 0.4320 0.1864
vt 0.4516 0.0000
vt 0.4516 0.0042
vt 0.4516 0.0122
vt 0.4516 0.0164
vt 0.4516 0.0934
vt 0.4516 0.1864
vt 0.4712 0.0000
vt 0.4712 0.0042
vt 0.4712 0.0122
vt 0.4712 0.0164
vt 0.4712 0.0934
vt 0.4712 0.1864
vt 0.4909 0.0000
vt 0.4909 0.0042
vt 0.4909 0.0122
vt 0.4909 0.0164
vt 0.4909 0.0934
vt 0.4909 0.1864
vt 0.5105 0.0000
vt 0.5105 0.0042
vt 0.5105 0.0122
vt 0.5105 0.0164
vt 0.5105 0.0934
vt 0.5105 0.1864
vt 0.5301 0.0000
vt 0.5301 0.0042
vt 0.5301 0.0122
vt 0.5301 0.0164
vt 0.5301 0.0934
vt 0.5301 0.1864
vt 0.5498 0.0000
vt 0.5498 0.0042
vt 0.5498 0.0122
vt 0.5498 0.0164
vt 0.5498 0.0934
vt 0.5498 0.1864
vt 0.5694 0.0000
vt 0.5694 0.0042
vt 0.5694 0.0122
vt 0.5694 0.0164
vt 0.5694 0.0934
vt 0.5694 0.1864
vt 0.5890 0.0000
vt 0.5890 0.0042
vt 0.5890 0.0122
vt 0.5890 0.0164
vt 0.5890 0.0934
vt 0.5890 0.1864
vt 0.6087 0.0000
vt 0.6087 0.0042
vt 0.6087 0.0122
vt 0.6087 0.0164
vt 0.6087 0.0934
vt 0.6087 0.1864
vt 0.6283 0.0000
vt 0.6283 0.0042
vt 0.6283 0.0122
vt 0.6283 0.0164
vt 0.6283 0.0934
vt 0.6283 0.1864
vn 0.000 -1.000 -0.000
vn 0.020 -1.000 -0.000
vn 0.664 -0.747 -0.000
vn 0.970 0.243 -0.000
vn 0.000 -1.000 -0.000
vn 0.020 -1.000 -0.004
vn 0.652 -0.747 -0.130
vn 0.952 0.243 -0.189
vn 0.000 -1.000 -0.000
vn 0.019 -1.000 -0.008
vn 0.614 -0.747 -0.254
vn 0.896 0.243 -0.371
vn 0.000 -1.000 -0.000
vn 0.017 -1.000 -0.011
vn 0.552 -0.747 -0.369
vn 0.807 0.243 -0.539
vn 0.000 -1.000 -0.000
vn 0.014 -1.000 -0.014
vn 0.470 -0.747 -0.470
vn 0.686 0.243 -0.686
vn 0.000 -1.000 -0.000
vn 0.011 -1.000 -0.017
vn 0.369 -0.747 -0.552
vn 0.539 0.243 -0.807
vn 0.000 -1.000 -0.000
vn 0.008 -1.000 -0.019
vn 0.254 -0.747 -0.614
vn 0.371 0.243 -0.896
vn 0.000 -1.000 -0.000
vn 0.004 -1.000 -0.020
vn 0.130 -0.747 -0.652
vn 0.189 0.243 -0.952
vn 0.000 -1.000 -0.000
vn 0.000 -1.000 -0.020
vn 0.000 -0.747 -0.664
vn 0.000 0.243 -0.970
vn -0.000 -1.000 -0.000
vn -0.004 -1.000 -0.020
vn -0.130 -0.747 -0.652
vn -0.189 0.243 -0.952
vn -0.000 -1.000 -0.000
vn -0.008 -1.000 -0.019
vn -0.254 -0.747 -0.614
vn -0.371 0.243 -0.896
vn -0.000 -1.000 -0.000
vn -0.011 -1.000 -0.017
vn -0.369 -0.747 -0.552
vn -0.539 0.243 -0.807
vn -0.000 -1.000 -0.000
vn -0.014 -1.000 -0.014
vn -0.470 -0.747 -0.470
vn -0.686 0.243 -0.686
vn -0.000 -1.000 -0.000
vn -0.017 -1.000 -0.011
vn -0.552 -0.747 -0.369
vn -0.807 0.243 -0.539
vn -0.000 -1.000 -0.000
vn -0.019 -1.000 -0.008
vn -0.614 -0.747 -0.254
vn -0.896 0.243 -0.371
vn -0.000 -1.000 -0.000
vn -0.020 -1.000 -0.004
vn -0.652 -0.747 -0.130
vn -0.952 0.243 -0.189
vn -0.000 -1.000 -0.000
vn -0.020 -1.000 -0.000
vn -0.664 -0.747 -0.000
vn -0.970 0.243 -0.000
vn -0.000 -1.000 0.000
vn -0.020 -1.000 0.004
vn -0.652 -0.747 0.130
vn -0.952 0.243 0.189
vn -0.000 -1.000 0.000
vn -0.019 -1.000 0.008
vn -0.614 -0.747 0.254
vn -0.896 0.243 0.371
vn -0.000 -1.000 0.000
vn -0.017 -1.000 0.011
vn -0.552 -0.747 0.369
vn -0.807 0.243 0.539
vn -0.000 -1.000 0.000
vn -0.014 -1.000 0.014
vn -0.470 -0.747 0.470
vn -0.686 0.243 0.686
vn -0.000 -1.000 0.000
vn -0.011 -1.000 0.017
vn -0.369 -0.747 0.552
vn -0.539 0.243 0.807
vn -0.000 -1.000 0.000
vn -0.008 -1.000 0.019
vn -0.254 -0.747 0.614
vn -0.371 0.243 0.896
vn -0.000 -1.000 0.000
vn -0.004 -1.000 0.020
vn -0.130 -0.747 0.652
vn -0.189 0.243 0.952
vn -0.000 -1.000 0.000
vn -0.000 -1.000 0.020
vn -0.000 -0.747 0.664
vn -0.000 0.243 0.970
vn 0.000 -1.000 0.000
vn 0.004 -1.000 0.020
vn 0.130 -0.747 0.652
vn 0.189 0.243 0.952
vn 0.000 -1.000 0.000
vn 0.008 -1.000 0.019
vn 0.254 -0.747 0.614
vn 0.371 0.243 0.896
vn 0.000 -1.000 0.000
vn 0.011 -1.000 0.017
vn 0.369 -0.747 0.552
vn 0.539 0.243 0.807
vn 0.000 -1.000 0.000
vn 0.014 -1.000 0.014
vn 0.470 -0.747 0.470
vn 0.686 0.243 0.686
vn 0.000 -1.000 0.000
vn 0.017 -1.000 0.011
vn 0.552 -0.747 0.369
vn 0.807 0.243 0.539
vn 0.000 -1.000 0.000
vn 0.019 -1.000 0.008
vn 0.614 -0.747 0.254
vn 0.896 0.243 0.371
vn 0.000 -1.000 0.000
vn 0.020 -1.000 0.004
vn 0.652 -0.747 0.130
vn 0.952 0.243 0.189
vn 0.000 -1.000 0.000
vn 0.020 -1.000 0.000
vn 0.664 -0.747 0.000
vn 0.970 0.243 0.000
vn 0.707 0.707 -0.000
vn 0.965 0.263 -0.000
vn 0.914 0.406 -0.000
vn -0.999 0.053 0.000
vn -0.638 0.770 0.000
vn 0.000 1.000 -0.000
vn 0.694 0.707 -0.138
vn 0.946 0.263 -0.188
vn 0.896 0.406 -0.178
vn -0.979 0.053 0.195
vn -0.625 0.770 0.124
vn 0.000 1.000 -0.000
vn 0.653 0.707 -0.271
vn 0.891 0.263 -0.369
vn 0.844 0.406 -0.350
vn -0.923 0.053 0.382
vn -0.589 0.770 0.244
vn 0.000 1.000 -0.000
vn 0.588 0.707 -0.393
vn 0.802 0.263 -0.536
vn 0.760 0.406 -0.508
vn -0.830 0.053 0.555
vn -0.530 0.770 0.354
vn 0.000 1.000 -0.000
vn 0.500 0.707 -0.500
vn 0.682 0.263 -0.682
vn 0.646 0.406 -0.646
vn -0.706 0.053 0.706
vn -0.451 0.770 0.451
vn 0.000 1.000 -0.000
vn 0.393 0.707 -0.588
vn 0.536 0.263 -0.802
vn 0.508 0.406 -0.760
vn -0.555 0.053 0.830
vn -0.354 0.770 0.530
vn 0.000 1.000 -0.000
vn 0.271 0.707 -0.653
vn 0.369 0.263 -0.891
vn 0.350 0.406 -0.844
vn -0.382 0.053 0.923
vn -0.244 0.770 0.589
vn 0.000 1.000 -0.000
vn 0.138 0.707 -0.694
vn 0.188 0.263 -0.946
vn 0.178 0.406 -0.896
vn -0.195 0.053 0.979
vn -0.124 0.770 0.625
vn 0.000 1.000 -0.000
vn 0.000 0.707 -0.707
vn 0.000 0.263 -0.965
vn 0.000 0.406 -0.914
vn -0.000 0.053 0.999
vn -0.000 0.770 0.638
vn 0.000 1.000 -0.000
vn -0.138 0.707 -0.694
vn -0.188 0.263 -0.946
vn -0.178 0.406 -0.896
vn 0.195 0.053 0.979
vn 0.124 0.770 0.625
vn -0.000 1.000 -0.000
vn -0.271 0.707 -0.653
vn -0.369 0.263 -0.891
vn -0.350 0.406 -0.844
vn 0.382 0.053 0.923
vn 0.244 0.770 0.589
vn -0.000 1.000 -0.000
vn -0.393 0.707 -0.588
vn -0.536 0.263 -0.802
vn -0.508 0.406 -0.760
vn 0.555 0.053 0.830
vn 0.354 0.770 0.530
vn -0.000 1.000 -0.000
vn -0.500 0.707 -0.500
vn -0.682 0.263 -0.682
vn -0.646 0.406 -0.646
vn 0.706 0.053 0.706
vn 0.451 0.770 0.451
vn -0.000 1.000 -0.000
vn -0.588 0.707 -0.393
vn -0.802 0.263 -0.536
vn -0.760 0.406 -0.508
vn 0.830 0.053 0.555
vn 0.530 0.770 0.354
vn -0.000 1.000 -0.000
vn -0.653 0.707 -0.271
vn -0.891 0.263 -0.369
vn -0.844 0.406 -0.350
vn 0.923 0.053 0.382
vn 0.589 0.770 0.244
vn -0.000 1.000 -0.000
vn -0.694 0.707 -0.138
vn -0.946 0.263 -0.188
vn -0.896 0.406 -0.178
vn 0.979 0.053 0.195
vn 0.625 0.770 0.124
vn -0.000 1.000 -0.000
vn -0.707 0.707 -0.000
vn -0.965 0.263 -0.000
vn -0.914 0.406 -0.000
vn 0.999 0.053 0.000
vn 0.638 0.770 0.000
vn -0.000 1.000 -0.000
vn -0.694 0.707 0.138
vn -0.946 0.263 0.188
vn -0.896 0.406 0.178
vn 0.979 0.053 -0.195
vn 0.625 0.770 -0.124
vn -0.000 1.000 0.000
vn -0.653 0.707 0.271
vn -0.891 0.263 0.369
vn -0.844 0.406 0.350
vn 0.923 0.053 -0.382
vn 0.589 0.770 -0.244
vn -0.000 1.000 0.000
vn -0.588 0.707 0.393
vn -0.802 0.263 0.536
vn -0.760 0.406 0.508
vn 0.830 0.053 -0.555
vn 0.530 0.770 -0.354
vn -0.000 1.000 0.000
vn -0.500 0.707 0.500
vn -0.682 0.263 0.682
vn -0.646 0.406 0.646
vn 0.706 0.053 -0.706
vn 0.451 0.770 -0.451
vn -0.000 1.000 0.000
vn -0.393 0.707 0.588
vn -0.536 0.263 0.802
vn -0.508 0.406 0.760
vn 0.555 0.053 -0.830
vn 0.354 0.770 -0.530
vn -0.000 1.000 0.000
vn -0.271 0.707 0.653
vn -0.369 0.263 0.891
vn -0.350 0.406 0.844
vn 0.382 0.053 -0.923
vn 0.244 0.770 -0.589
vn -0.000 1.000 0.000
vn -0.138 0.707 0.694
vn -0.188 0.263 0.946
vn -0.178 0.406 0.896
vn 0.195 0.053 -0.979
vn 0.124 0.770 -0.625
vn -0.000 1.000 0.000
vn -0.000 0.707 0.707
vn -0.000 0.263 0.965
vn -0.000 0.406 0.914
vn 0.000 0.053 -0.999
vn 0.000 0.770 -0.638
vn -0.000 1.000 0.000
vn 0.138 0.707 0.694
vn 0.188 0.263 0.946
vn 0.178 0.406 0.896
vn -0.195 0.053 -0.979
vn -0.124 0.770 -0.625
vn 0.000 1.000 0.000
vn 0.271 0.707 0.653
vn 0.369 0.263 0.891
vn 0.350 0.406 0.844
vn -0.382 0.053 -0.923
vn -0.244 0.770 -0.589
vn 0.000 1.000 0.000
vn 0.393 0.707 0.588
vn 0.536 0.263 0.802
vn 0.508 0.406 0.760
vn -0.555 0.053 -0.830
vn -0.354 0.770 -0.530
vn 0.000 1.000 0.000
vn 0.500 0.707 0.500
vn 0.682 0.263 0.682
vn 0.646 0.406 0.646
vn -0.706 0.053 -0.706
vn -0.451 0.770 -0.451
vn 0.000 1.000 0.000
vn 0.588 0.707 0.393
vn 0.802 0.263 0.536
vn 0.760 0.406 0.508
vn -0.830 0.053 -0.555
vn -0.530 0.770 -0.354
vn 0.000 1.000 0.000
vn 0.653 0.707 0.271
vn 0.891 0.263 0.369
vn 0.844 0.406 0.350
vn -0.923 0.053 -0.382
vn -0.589 0.770 -0.244
vn 0.000 1.000 0.000
vn 0.694 0.707 0.138
vn 0.946 0.263 0.188
vn 0.896 0.406 0.178
vn -0.979 0.053 -0.195
vn -0.625 0.770 -0.124
vn 0.000 1.000 0.000
vn 0.707 0.707 0.000
vn 0.965 0.263 0.000
vn 0.914 0.406 0.000
vn -0.999 0.053 -0.000
vn -0.638 0.770 -0.000
vn 0.000 1.000 0.000
usemtl side
f 1/1/1 4/4/4 5/5/5
f 1/1/1 5/5/5 2/2/2
f 2/2/2 5/5/5 6/6/6
f 2/2/2 6/6/6 3/3/3
f 4/4/4 7/7/7 8/8/8
f 4/4/4 8/8/8 5/5/5
f 5/5/5 8/8/8 9/9/9
f 5/5/5 9/9/9 6/6/6
f 7/7/7 10/10/10 11/11/11
f 7/7/7 11/11/11 8/8/8
f 8/8/8 11/11/11 12/12/12
f 8/8/8 12/12/12 9/9/9
f 10/10/10 13/13/13 14/14/14
f 10/10/10 14/14/14 11/11/11
f 11/11/11 14/14/14 15/15/15
f 11/11/11 15/15/15 12/12/12
f 13/13/13 16/16/16 17/17/17
f 13/13/13 17/17/17 14/14/14
f 14/14/14 17/17/17 18/18/18
f 14/14/14 18/18/18 15/15/15
f 16/16/16 19/19/19 20/20/20
f 16/16/16 20/20/20 17/17/17
f 17/17/17 20/20/20 21/21/21
f 17/17/17 21/21/21 18/18/18
f 19/19/19 22/22/22 23/23/23
f 19/19/19 23/23/23 20/20/20
f 20/20/20 23/23/23 24/24/24
f 20/20/20 24/24/24 21/21/21
f 22/22/22 25/25/25 26/26/26
f 22/22/22 26/26/26 23/23/23
f 23/23/23 26/26/26 27/27/27
f 23/23/23 27/27/27 24/24/24
f 25/25/25 28/28/28 29/29/29
f 25/25/25 29/29/29 26/26/26
f 26/26/26 29/29/29 30/30/30
f 26/26/26 30/30/30 27/27/27
f 28/28/28 31/31/31 32/32/32
f 28/28/28 32/32/32 29/29/29
f 29/29/29 32/32/32 33/33/33
f 29/29/29 33/33/33 30/30/30
f 31/31/31 34/34/34 35/35/35
f 31/31/31 35/35/35 32/32/32
f 32/32/32 35/35/35 36/36/36
f 32/32/32 36/36/36 33/33/33
f 34/34/34 37/37/37 38/38/38
f 34/34/34 38/38/38 35/35/35
f 35/35/35 38/38/38 39/39/39
f 35/35/35 39/39/39 36/36/36
f 37/37/37 40/40/40 41/41/41
f 37/37/37 41/41/41 38/38/38
f 38/38/38 41/41/41 42/42/42
f 38/38/38 42/42/42 39/39/39
f 40/40/40 43/43/43 44/44/44
f 40/40/40 44/44/44 41/41/41
f 41/41/41 44/44/44 45/45/45
f 41/41/41 45/45/45 42/42/42
f 43/43/43 46/46/46 47/47/47
f 43/43/43 47/47/47 44/44/44
f 44/44/44 47/47/47 48/48/48
f 44/44/44 48/48/48 45/45/45
f 46/46/46 49/49/49 50/50/50
f 46/46/46 50/50/50 47/47/47
f 47/47/47 50/50/50 51/51/51
f 47/47/47 51/51/51 48/48/48
f 49/49/49 52/52/52 53/53/53
f 49/49/49 53/53/53 50/50/50
f 50/50/50 53/53/53 54/54/54
f 50/50/50 54/54/54 51/51/51
f 52/52/52 55/55/55 56/56/56
f 52/52/52 56/56/56 53/53/53
f 53/53/53 56/56/56 57/57/57
f 53/53/53 57/57/57 54/54/54
f 55/55/55 58/58/58 59/59/59
f 55/55/55 59/59/59 56/56/56
f 56/56/56 59/59/59 60/60/60
f 56/56/56 60/60/60 57/57/57
f 58/58/58 61/61/61 62/62/62
f 58/58/58 62/62/62 59/59/59
f 59/59/59 62/62/62 63/63/63
f 59/59/59 63/63/63 60/60/60
f 61/61/61 64/64/64 65/65/65
f 61/61/61 65/65/65 62/62/62
f 62/62/62 65/65/65 66/66/66
f 62/62/62 66/66/66 63/63/63
f 64/64/64 67/67/67 68/68/68
f 64/64/64 68/68/68 65/65/65
f 65/65/65 68/68/68 69/69/69
f 65/65/65 69/69/69 66/66/66
f 67/67/67 70/70/70 71/71/71
f 67/67/67 71/71/71 68/68/68
f 68/68/68 71/71/71 72/72/72
f 68/68/68 72/72/72 69/69/69
f 70/70/70 73/73/73 74/74/74
f 70/70/70 74/74/74 71/71/71
f 71/71/71 74/74/74 75/75/75
f 71/71/71 75/75/75 72/72/72
f 73/73/73 76/76/76 77/77/77
f 73/73/73 77/77/77 74/74/74
f 74/74/74 77/77/77 78/78/78
f 74/74/74 78/78/78 75/75/75
f 76/76/76 79/79/79 80/80/80
f 76/76/76 80/80/80 77/77/77
f 77/77/77 80/80/80 81/81/81
f 77/77/77 81/81/81 78/78/78
f 79/79/79 82/82/82 83/83/83
f 79/79/79 83/83/83 80/80/80
f 80/80/80 83/83/83 84/84/84
f 80/80/80 84/84/84 81/81/81
f 82/82/82 85/85/85 86/86/86
f 82/82/82 86/86/86 83/83/83
f 83/83/83 86/86/86 87/87/87
f 83/83/83 87/87/87 84/84/84
f 85/85/85 88/88/88 89/89/89
f 85/85/85 89/89/89 86/86/86
f 86/86/86 89/89/89 90/90/90
f 86/86/86 90/90/90 87/87/87
f 88/88/88 91/91/91 92/92/92
f 88/88/88 92/92/92 89/89/89
f 89/89/89 92/92/92 93/93/93
f 89/89/89 93/93/93 90/90/90
f 91/91/91 94/94/94 95/95/95
f 91/91/91 95/95/95 92/92/92
f 92/92/92 95/95/95 96/96/96
f 92/92/92 96/96/96 93/93/93
f 94/94/94 97/97/97 98/98/98
f 94/94/94 98/98/98 95/95/95
f 95/95/95 98/98/98 99/99/99
f 95/95/95 99/99/99 96/96/96
usemtl rim
f 100/100/100 104/104/104 105/105/105
f 100/100/100 105/105/105 101/101/101
f 101/101/101 105/105/105 106/106/106
f 101/101/101 106/106/106 102/102/102
f 102/102/102 106/106/106 107/107/107
f 102/102/102 107/107/107 103/103/103
f 104/104/104 108/108/108 109/109/109
f 104/104/104 109/109/109 105/105/105
f 105/105/105 109/109/109 110/110/110
f 105/105/105 110/110/110 106/106/106
f 106/106/106 110/110/110 111/111/111
f 106/106/106 111/111/111 107/107/107
f 108/108/108 112/112/112 113/113/113
f 108/108/108 113/113/113 109/109/109
f 109/109/109 113/113/113 114/114/114
f 109/109/109 114/114/114 110/110/110
f 110/110/110 114/114/114 115/115/115
f 110/110/110 115/115/115 111/111/111
f 112/112/112 116/116/116 117/117/117
f 112/112/112 117/117/117 113/113/113
f 113/113/113 117/117/117 118/118/118
f 113/113/113 118/118/118 114/114/114
f 114/114/114 118/118/118 119/119/119
f 114/114/114 119/119/119 115/115/115
f 116/116/116 120/120/120 121/121/121
f 116/116/116 121/121/121 117/117/117
f 117/117/117 121/121/121 122/122/122
f 117/117/117 122/122/122 118/118/118
f 118/118/118 122/122/122 123/123/123
f 118/118/118 123/123/123 119/119/119
f 120/120/120 124/124/124 125/125/125
f 120/120/120 125/125/125 121/121/121
f 121/121/121 125/125/125 126/126/126
f 121/121/121 126/126/126 122/122/122
f 122/122/122 126/126/126 127/127/127
f 122/122/122 127/127/127 123/123/123
f 124/124/124 128/128/128 129/129/129
f 124/124/124 129/129/129 125/125/125
f 125/125/125 129/129/129 130/130/130
f 125/125/125 130/130/130 126/126/126
f 126/126/126 130/130/130 131/131/131
f 126/126/126 131/131/131 127/127/127
f 128/128/128 132/132/132 133/133/133
f 128/128/128 133/133/133 129/129/129
f 129/129/129 133/133/133 134/134/134
f 129/129/129 134/134/134 130/130/130
f 130/130/130 134/134/134 135/135/135
f 130/130/130 135/135/135 131/131/131
f 132/132/132 136/136/136 137/137/137
f 132/132/132 137/137/137 133/133/133
f 133/133/133 137/137/137 138/138/138
f 133/133/133 138/138/138 134/134/134
f 134/134/134 138/138/138 139/139/139
f 134/134/134 139/139/139 135/135/135
f 136/136/136 140/140/140 141/141/141
f 136/136/136 141/141/141 137/137/137
f 137/137/137 141/141/141 142/142/142
f 137/137/137 142/142/142 138/138/138
f 138/138/138 142/142/142 143/143/143
f 138/138/138 143/143/143 139/139/139
f 140/140/140 144/144/144 145/145/145
f 140/140/140 145/145/145 141/141/141
f 141/141/141 145/145/145 146/146/146
f 141/141/141 146/146/146 142/142/142
f 142/142/142 146/146/146 147/147/147
f 142/142/142 147/147/147 143/143/143
f 144/144/144 148/148/148 149/149/149
f 144/144/144 149/149/149 145/145/145
f 145/145/145 149/149/149 150/150/150
f 145/145/145 150/150/150 146/146/146
f 146/146/146 150/150/150 151/151/151
f 146/146/146 151/151/151 147/147/147
f 148/148/148 152/152/152 153/153/153
f 148/148/148 153/153/153 149/149/149
f 149/149/149 153/153/153 154/154/154
f 149/149/149 154/154/154 150/150/150
f 150/150/150 154/154/154 155/155/155
f 150/150/150 155/155/155 151/151/151
f 152/152/152 156/156/156 157/157/157
f 152/152/152 157/157/157 153/153/153
f 153/153/153 157/157/157 158/158/158
f 153/153/153 158/158/158 154/154/154
f 154/154/154 158/158/158 159/159/159
f 154/154/154 159/159/159 155/155/155
f 156/156/156 160/160/160 161/161/161
f 156/156/156 161/161/161 157/157/157
f 157/157/157 161/161/161 162/162/162
f 157/157/157 162/162/162 158/158/158
f 158/158/158 162/162/162 163/163/163
f 158/158/158 163/163/163 159/159/159
f 160/160/160 164/164/164 165/165/165
f 160/160/160 165/165/165 161/161/161
f 161/161/161 165/165/165 166/166/166
f 161/161/161 166/166/166 162/162/162
f 162/162/162 166/166/166 167/167/167
f 162/162/162 167/167/167 163/163/163
f 164/164/164 168/168/168 169/169/169
f 164/164/164 169/169/169 165/165/165
f 165/165/165 169/169/169 170/170/170
f 165/165/165 170/170/170 166/166/166
f 166/166/166 170/170/170 171/171/171
f 166/166/166 171/171/171 167/167/167
f 168/168/168 172/172/172 173/173/173
f 168/168/168 173/173/173 169/169/169
f 169/169/169 173/173/173 174/174/174
f 169/169/169 174/174/174 170/170/170
f 170/170/170 174/174/174 175/175/175
f 170/170/170 175/175/175 171/171/171
f 172/172/172 176/176/176 177/177/177
f 172/172/172 177/177/177 173/173/173
f 173/173/173 177/177/177 178/178/178
f 173/173/173 178/178/178 174/174/174
f 174/174/174 178/178/178 179/179/179
f 174/174/174 179/179/179 175/175/175
f 176/176/176 180/180/180 181/181/181
f 176/176/176 181/181/181 177/177/177
f 177/177/177 181/181/181 182/182/182
f 177/177/177 182/182/182 178/178/178
f 178/178/178 182/182/182 183/183/183
f 178/178/178 183/183/183 179/179/179
f 180/180/180 184/184/184 185/185/185
f 180/180/180 185/185/185 181/181/181
f 181/181/181 185/185/185 186/186/186
f 181/181/181 186/186/186 182/182/182
f 182/182/182 186/186/186 187/187/187
f 182/182/182 187/187/187 183/183/183
f 184/184/184 188/188/188 189/189/189
f 184/184/184 189/189/189 185/185/185
f 185/185/185 189/189/189 190/190/190
f 185/185/185 190/190/190 186/186/186
f 186/186/186 190/190/190 191/191/191
f 186/186/186 191/191/191 187/187/187
f 188/188/188 192/192/192 193/193/193
f 188/188/188 193/193/193 189/189/189
f 189/189/189 193/193/193 194/194/194
f 189/189/189 194/194/194 190/190/190
f 190/190/190 194/194/194 195/195/195
f 190/190/190 195/195/195 191/191/191
f 192/192/192 196/196/196 197/197/197
f 192/192/192 197/197/197 193/193/193
f 193/193/193 197/197/197 198/198/198
f 193/193/193 198/198/198 194/194/194
f 194/194/194 198/198/198 199/199/199
f 194/194/194 199/199/199 195/195/195
f 196/196/196 200/200/200 201/201/201
f 196/196/196 201/201/201 197/197/197
f 197/197/197 201/201/201 202/202/202
f 197/197/197 202/202/202 198/198/198
f 198/198/198 202/202/202 203/203/203
f 198/198/198 203/203/203 199/199/199
f 200/200/200 204/204/204 205/205/205
f 200/200/200 205/205/205 201/201/201
f 201/201/201 205/205/205 206/206/206
f 201/201/201 206/206/206 202/202/202
f 202/202/202 206/206/206 207/207/207
f 202/202/202 207/207/207 203/203/203
f 204/204/204 208/208/208 209/209/209
f 204/204/204 209/209/209 205/205/205
f 205/205/205 209/209/209 210/210/210
f 205/205/205 210/210/210 206/206/206
f 206/206/206 210/210/210 211/211/211
f 206/206/206 211/211/211 207/207/207
f 208/208/208 212/212/212 213/213/213
f 208/208/208 213/213/213 209/209/209
f 209/209/209 213/213/213 214/214/214
f 209/209/209 214/214/214 210/210/210
f 210/210/210 214/214/214 215/215/215
f 210/210/210 215/215/215 211/211/211
f 212/212/212 216/216/216 217/217/217
f 212/212/212 217/217/217 213/213/213
f 213/213/213 217/217/217 218/218/218
f 213/213/213 218/218/218 214/214/214
f 214/214/214 218/218/218 219/219/219
f 214/214/214 219/219/219 215/215/215
f 216/216/216 220/220/220 221/221/221
f 216/216/216 221/221/221 217/217/217
f 217/217/217 221/221/221 222/222/222
f 217/217/217 222/222/222 218/218/218
f 218/218/218 222/222/222 223/223/223
f 218/218/218 223/223/223 219/219/219
f 220/220/220 224/224/224 225/225/225
f 220/220/220 225/225/225 221/221/221
f 221/221/221 225/225/225 226/226/226
f 221/221/221 226/226/226 222/222/222
f 222/222/222 226/226/226 227/227/227
f 222/222/222 227/227/227 223/223/223
f 224/224/224 228/228/228 229/229/229
f 224/224/224 229/229/229 225/225/225
f 225/225/225 229/229/229 230/230/230
f 225/225/225 230/230/230 226/226/226
f 226/226/226 230/230/230 231/231/231
f 226/226/226 231/231/231 227/227/227
f 232/232/232 238/238/238 239/239/239
f 232/232/232 239/239/239 233/233/233
f 233/233/233 239/239/239 240/240/240
f 233/233/233 240/240/240 234/234/234
f 234/234/234 240/240/240 241/241/241
f 234/234/234 241/241/241 235/235/235
f 235/235/235 241/241/241 242/242/242
f 235/235/235 242/242/242 236/236/236
f 236/236/236 242/242/242 243/243/243
f 236/236/236 243/243/243 237/237/237
f 238/238/238 244/244/244 245/245/245
f 238/238/238 245/245/245 239/239/239
f 239/239/239 245/245/245 246/246/246
f 239/239/239 246/246/246 240/240/240
f 240/240/240 246/246/246 247/247/247
f 240/240/240 247/247/247 241/241/241
f 241/241/241 247/247/247 248/248/248
f 241/241/241 248/248/248 242/242/242
f 242/242/242 248/248/248 249/249/249
f 242/242/242 249/249/249 243/243/243
f 244/244/244 250/250/250 251/251/251
f 244/244/244 251/251/251 245/245/245
f 245/245/245 251/251/251 252/252/252
f 245/245/245 252/252/252 246/246/246
f 246/246/246 252/252/252 253/253/253
f 246/246/246 253/253/253 247/247/247
f 247/247/247 253/253/253 254/254/254
f 247/247/247 254/254/254 248/248/248
f 248/248/248 254/254/254 255/255/255
f 248/248/248 255/255/255 249/249/249
f 250/250/250 256/256/256 257/257/257
f 250/250/250 257/257/257 251/251/251
f 251/251/251 257/257/257 258/258/258
f 251/251/251 258/258/258 252/252/252
f 252/252/252 258/258/258 259/259/259
f 252/252/252 259/259/259 253/253/253
f 253/253/253 259/259/259 260/260/260
f 253/253/253 260/260/260 254/254/254
f 254/254/254 260/260/260 261/261/261
f 254/254/254 261/261/261 255/255/255
f 256/256/256 262/262/262 263/263/263
f 256/256/256 263/263/263 257/257/257
f 257/257/257 263/263/263 264/264/264
f 257/257/257 264/264/264 258/258/258
f 258/258/258 264/264/264 265/265/265
f 258/258/258 265/265/265 259/259/259
f 259/259/259 265/265/265 266/266/266
f 259/259/259 266/266/266 260/260/260
f 260/260/260 266/266/266 267/267/267
f 260/260/260 267/267/267 261/261/261
f 262/262/262 268/268/268 269/269/269
f 262/262/262 269/269/269 263/263/263
f 263/263/263 269/269/269 270/270/270
f 263/263/263 270/270/270 264/264/264
f 264/264/264 270/270/270 271/271/271
f 264/264/264 271/271/271 265/265/265
f 265/265/265 271/271/271 272/272/272
f 265/265/265 272/272/272 266/266/266
f 266/266/266 272/272/272 273/273/273
f 266/266/266 273/273/273 267/267/267
f 268/268/268 274/274/274 275/275/275
f 268/268/268 275/275/275 269/269/269
f 269/269/269 275/275/275 276/276/276
f 269/269/269 276/276/276 270/270/270
f 270/270/270 276/276/276 277/277/277
f 270/270/270 277/277/277 271/271/271
f 271/271/271 277/277/277 278/278/278
f 271/271/271 278/278/278 272/272/272
f 272/272/272 278/278/278 279/279/279
f 272/272/272 279/279/279 273/273/273
f 274/274/274 280/280/280 281/281/281
f 274/274/274 281/281/281 275/275/275
f 275/275/275 281/281/281 282/282/282
f 275/275/275 282/282/282 276/276/276
f 276/276/276 282/282/282 283/283/283
f 276/276/276 283/283/283 277/277/277
f 277/277/277 283/283/283 284/284/284
f 277/277/277 284/284/284 278/278/278
f 278/278/278 284/284/284 285/285/285
f 278/278/278 285/285/285 279/279/279
f 280/280/280 286/286/286 287/287/287
f 280/280/280 287/287/287 281/281/281
f 281/281/281 287/287/287 288/288/288
f 281/281/281 288/288/288 282/282/282
f 282/282/282 288/288/288 289/289/289
f 282/282/282 289/289/289 283/283/283
f 283/283/283 289/289/289 290/290/290
f 283/283/283 290/290/290 284/284/284
f 284/284/284 290/290/290 291/291/291
f 284/284/284 291/291/291 285/285/285
f 286/286/286 292/292/292 293/293/293
f 286/286/286 293/293/293 287/287/287
f 287/287/287 293/293/293 294/294/294
f 287/287/287 294/294/294 288/288/288
f 288/288/288 294/294/294 295/295/295
f 288/288/288 295/295/295 289/289/289
f 289/289/289 295/295/295 296/296/296
f 289/289/289 296/296/296 290/290/290
f 290/290/290 296/296/296 297/297/297
f 290/290/290 297/297/297 291/291/291
f 292/292/292 298/298/298 299/299/299
f 292/292/292 299/299/299 293/293/293
f 293/293/293 299/299/299 300/300/300
f 293/293/293 300/300/300 294/294/294
f 294/294/294 300/300/300 301/301/301
f 294/294/294 301/301/301 295/295/295
f 295/295/295 301/301/301 302/302/302
f 295/295/295 302/302/302 296/296/296
f 296/296/296 302/302/302 303/303/303
f 296/296/296 303/303/303 297/297/297
f 298/298/298 304/304/304 305/305/305
f 298/298/298 305/305/305 299/299/299
f 299/299/299 305/305/305 306/306/306
f 299/299/299 306/306/306 300/300/300
f 300/300/300 306/306/306 307/307/307
f 300/300/300 307/307/307 301/301/301
f 301/301/301 307/307/307 308/308/308
f 301/301/301 308/308/308 302/302/302
f 302/302/302 308/308/308 309/309/309
f 302/302/302 309/309/309 303/303/303
f 304/304/304 310/310/310 311/311/311
f 304/304/304 311/311/311 305/305/305
f 305/305/305 311/311/311 312/312/312
f 305/305/305 312/312/312 306/306/306
f 306/306/306 312/312/312 313/313/313
f 306/306/306 313/313/313 307/307/307
f 307/307/307 313/313/313 314/314/314
f 307/307/307 314/314/314 308/308/308
f 308/308/308 314/314/314 315/315/315
f 308/308/308 315/315/315 309/309/309
f 310/310/310 316/316/316 317/317/317
f 310/310/310 317/317/317 311/311/311
f 311/311/311 317/317/317 318/318/318
f 311/311/311 318/318/318 312/312/312
f 312/312/312 318/318/318 319/319/319
f 312/312/312 319/319/319 313/313/313
f 313/313/313 319/319/319 320/320/320
f 313/313/313 320/320/320 314/314/314
f 314/314/314 320/320/320 321/321/321
f 314/314/314 321/321/321 315/315/315
f 316/316/316 322/322/322 323/323/323
f 316/316/316 323/323/323 317/317/317
f 317/317/317 323/323/323 324/324/324
f 317/317/317 324/324/324 318/318/318
f 318/318/318 324/324/324 325/325/325
f 318/318/318 325/325/325 319/319/319
f 319/319/319 325/325/325 326/326/326
f 319/319/319 326/326/326 320/320/320
f 320/320/320 326/326/326 327/327/327
f 320/320/320 327/327/327 321/321/321
f 322/322/322 328/328/328 329/329/329
f 322/322/322 329/329/329 323/323/323
f 323/323/323 329/329/329 330/330/330
f 323/323/323 330/330/330 324/324/324
f 324/324/324 330/330/330 331/331/331
f 324/324/324 331/331/331 325/325/325
f 325/325/325 331/331/331 332/332/332
f 325/325/325 332/332/332 326/326/326
f 326/326/326 332/332/332 333/333/333
f 326/326/326 333/333/333 327/327/327
f 328/328/328 334/334/334 335/335/335
f 328/328/328 335/335/335 329/329/329
f 329/329/329 335/335/335 336/336/336
f 329/329/329 336/336/336 330/330/330
f 330/330/330 336/336/336 337/337/337
f 330/330/330 337/337/337 331/331/331
f 331/331/331 337/337/337 338/338/338
f 331/331/331 338/338/338 332/332/332
f 332/332/332 338/338/338 339/339/339
f 332/332/332 339/339/339 333/333/333
f 334/334/334 340/340/340 341/341/341
f 334/334/334 341/341/341 335/335/335
f 335/335/335 341/341/341 342/342/342
f 335/335/335 342/342/342 336/336/336
f 336/336/336 342/342/342 343/343/343
f 336/336/336 343/343/343 337/337/337
f 337/337/337 343/343/343 344/344/344
f 337/337/337 344/344/344 338/338/338
f 338/338/338 344/344/344 345/345/345
f 338/338/338 345/345/345 339/339/339
f 340/340/340 346/346/346 347/347/347
f 340/340/340 347/347/347 341/341/341
f 341/341/341 347/347/347 348/348/348
f 341/341/341 348/348/348 342/342/342
f 342/342/342 348/348/348 349/349/349
f 342/342/342 349/349/349 343/343/343
f 343/343/343 349/349/349 350/350/350
f 343/343/343 350/350/350 344/344/344
f 344/344/344 350/350/350 351/351/351
f 344/344/344 351/351/351 345/345/345
f 346/346/346 352/352/352 353/353/353
f 346/346/346 353/353/353 347/347/347
f 347/347/347 353/353/353 354/354/354
f 347/347/347 354/354/354 348/348/348
f 348/348/348 354/354/354 355/355/355
f 348/348/348 355/355/355 349/349/349
f 349/349/349 355/355/355 356/356/356
f 349/349/349 356/356/356 350/350/350
f 350/350/350 356/356/356 357/357/357
f 350/350/350 357/357/357 351/351/351
f 352/352/352 358/358/358 359/359/359
f 352/352/352 359/359/359 353/353/353
f 353/353/353 359/359/359 360/360/360
f 353/353/353 360/360/360 354/354/354
f 354/354/354 360/360/360 361/361/361
f 354/354/354 361/361/361 355/355/355
f 355/355/355 361/361/361 362/362/362
f 355/355/355 362/362/362 356/356/356
f 356/356/356 362/362/362 363/363/363
f 356/356/356 363/363/363 357/357/357
f 358/358/358 364/364/364 365/365/365
f 358/358/358 365/365/365 359/359/359
f 359/359/359 365/365/365 366/366/366
f 359/359/359 366/366/366 360/360/360
f 360/360/360 366/366/366 367/367/367
f 360/360/360 367/367/367 361/361/361
f 361/361/361 367/367/367 368/368/368
f 361/361/361 368/368/368 362/362/362
f 362/362/362 368/368/368 369/369/369
f 362/362/362 369/369/369 363/363/363
f 364/364/364 370/370/370 371/371/371
f 364/364/364 371/371/371 365/365/365
f 365/365/365 371/371/371 372/372/372
f 365/365/365 372/372/372 366/366/366
f 366/366/366 372/372/372 373/373/373
f 366/366/366 373/373/373 367/367/367
f 367/367/367 373/373/373 374/374/374
f 367/367/367 374/374/374 368/368/368
f 368/368/368 374/374/374 375/375/375
f 368/368/368 375/375/375 369/369/369
f 370/370/370 376/376/376 377/377/377
f 370/370/370 377/377/377 371/371/371
f 371/371/371 377/377/377 378/378/378
f 371/371/371 378/378/378 372/372/372
f 372/372/372 378/378/378 379/379/379
f 372/372/372 379/379/379 373/373/373
f 373/373/373 379/379/379 380/380/380
f 373/373/373 380/380/380 374/374/374
f 374/374/374 380/380/380 381/381/381
f 374/374/374 381/381/381 375/375/375
f 376/376/376 382/382/382 383/383/383
f 376/376/376 383/383/383 377/377/377
f 377/377/377 383/383/383 384/384/384
f 377/377/377 384/384/384 378/378/378
f 378/378/378 384/384/384 385/385/385
f 378/378/378 385/385/385 379/379/379
f 379/379/379 385/385/385 386/386/386
f 379/379/379 386/386/386 380/380/380
f 380/380/380 386/386/386 387/387/387
f 380/380/380 387/387/387 381/381/381
f 382/382/382 388/388/388 389/389/389
f 382/382/382 389/389/389 383/383/383
f 383/383/383 389/389/389 390/390/390
f 383/383/383 390/390/390 384/384/384
f 384/384/384 390/390/390 391/391/391
f 384/384/384 391/391/391 385/385/385
f 385/385/385 391/391/391 392/392/392
f 385/385/385 392/392/392 386/386/386
f 386/386/386 392/392/392 393/393/393
f 386/386/386 393/393/393 387/387/387
f 388/388/388 394/394/394 395/395/395
f 388/388/388 395/395/395 389/389/389
f 389/389/389 395/395/395 396/396/396
f 389/389/389 396/396/396 390/390/390
f 390/390/390 396/396/396 397/397/397
f 390/390/390 397/397/397 391/391/391
f 391/391/391 397/397/397 398/398/398
f 391/391/391 398/398/398 392/392/392
f 392/392/392 398/398/398 399/399/399
f 392/392/392 399/399/399 393/393/393
f 394/394/394 400/400/400 401/401/401
f 394/394/394 401/401/401 395/395/395
f 395/395/395 401/401/401 402/402/402
f 395/395/395 402/402/402 396/396/396
f 396/396/396 402/402/402 403/403/403
f 396/396/396 403/403/403 397/397/397
f 397/397/397 403/403/403 404/404/404
f 397/397/397 404/404/404 398/398/398
f 398/398/398 404/404/404 405/405/405
f 398/398/398 405/405/405 399/399/399
f 400/400/400 406/406/406 407/407/407
f 400/400/400 407/407/407 401/401/401
f 401/401/401 407/407/407 408/408/408
f 401/401/401 408/408/408 402/402/402
f 402/402/402 408/408/408 409/409/409
f 402/402/402 409/409/409 403/403/403
f 403/403/403 409/409/409 410/410/410
f 403/403/403 410/410/410 404/404/404
f 404/404/404 410/410/410 411/411/411
f 404/404/404 411/411/411 405/405/405
f 406/406/406 412/412/412 413/413/413
f 406/406/406 413/413/413 407/407/407
f 407/407/407 413/413/413 414/414/414
f 407/407/407 414/414/414 408/408/408
f 408/408/408 414/414/414 415/415/415
f 408/408/408 415/415/415 409/409/409
f 409/409/409 415/415/415 416/416/416
f 409/409/409 416/416/416 410/410/410
f 410/410/410 416/416/416 417/417/417
f 410/410/410 417/417/417 411/411/411
f 412/412/412 418/418/418 419/419/419
f 412/412/412 419/419/419 413/413/413
f 413/413/413 419/419/419 420/420/420
f 413/413/413 420/420/420 414/414/414
f 414/414/414 420/420/420 421/421/421
f 414/414/414 421/421/421 415/415/415
f 415/415/415 421/421/421 422/422/422
f 415/415/415 422/422/422 416/416/416
f 416/416/416 422/422/422 423/423/423
f 416/416/416 423/423/423 417/417/417
f 418/418/418 424/424/424 425/425/425
f 418/418/418 425/425/425 419/419/419
f 419/419/419 425/425/425 426/426/426
f 419/419/419 426/426/426 420/420/420
f 420/420/420 426/426/426 427/427/427
f 420/420/420 427/427/427 421/421/421
f 421/421/421 427/427/427 428/428/428
f 421/421/421 428/428/428 422/422/422
f 422/422/422 428/428/428 429/429/429
f 422/422/422 429/429/429 423/423/423
