# Sinh tự động bởi tools/mesh_kit.py - đừng sửa tay
o pz_clog
v 0.0400 -0.0125 -0.1000
v 0.0400 -0.0125 0.1000
v -0.0400 -0.0125 0.1000
v -0.0400 -0.0125 -0.1000
v 0.0400 -0.0125 0.1000
v 0.0400 0.0300 0.1000
v -0.0400 0.0300 0.1000
v -0.0400 -0.0125 0.1000
v 0.0400 0.0300 0.1000
v 0.0400 0.0300 0.0700
v -0.0400 0.0300 0.0700
v -0.0400 0.0300 0.1000
v 0.0400 0.0300 0.0700
v 0.0400 0.0050 0.0600
v -0.0400 0.0050 0.0600
v -0.0400 0.0300 0.0700
v 0.0400 0.0050 0.0600
v 0.0400 0.0000 -0.0700
v -0.0400 0.0000 -0.0700
v -0.0400 0.0050 0.0600
v 0.0400 0.0000 -0.0700
v 0.0400 0.0060 -0.0950
v -0.0400 0.0060 -0.0950
v -0.0400 0.0000 -0.0700
v 0.0400 0.0060 -0.0950
v 0.0400 0.0030 -0.1000
v -0.0400 0.0030 -0.1000
v -0.0400 0.0060 -0.0950
v 0.0400 0.0030 -0.1000
v 0.0400 -0.0125 -0.1000
v -0.0400 -0.0125 -0.1000
v -0.0400 0.0030 -0.1000
v -0.0400 -0.0125 -0.1000
v -0.0400 -0.0125 0.1000
v -0.0400 0.0300 0.1000
v -0.0400 0.0300 0.0700
v -0.0400 0.0050 0.0600
v -0.0400 0.0000 -0.0700
v -0.0400 0.0060 -0.0950
v -0.0400 0.0030 -0.1000
v 0.0400 0.0030 -0.1000
v 0.0400 0.0060 -0.0950
v 0.0400 0.0000 -0.0700
v 0.0400 0.0050 0.0600
v 0.0400 0.0300 0.0700
v 0.0400 0.0300 0.1000
v 0.0400 -0.0125 0.1000
v 0.0400 -0.0125 -0.1000
vt -0.0400 0.0000
vt -0.0400 0.2000
vt 0.0400 0.2000
vt 0.0400 0.0000
vt -0.0400 0.2000
vt -0.0400 0.2425
vt 0.0400 0.2425
vt 0.0400 0.2000
vt -0.0400 0.2425
vt -0.0400 0.2725
vt 0.0400 0.2725
vt 0.0400 0.2425
vt -0.0400 0.2725
vt -0.0400 0.2994
vt 0.0400 0.2994
vt 0.0400 0.2725
vt -0.0400 0.2994
vt -0.0400 0.4295
vt 0.0400 0.4295
vt 0.0400 0.2994
vt -0.0400 0.4295
vt -0.0400 0.4552
vt 0.0400 0.4552
vt 0.0400 0.4295
vt -0.0400 0.4552
vt -0.0400 0.4611
vt 0.0400 0.4611
vt 0.0400 0.4552
vt -0.0400 0.4611
vt -0.0400 0.4766
vt 0.0400 0.4766
vt 0.0400 0.4611
vt 0.1000 0.0125
vt -0.1000 0.0125
vt -0.1000 -0.0300
vt -0.0700 -0.0300
vt -0.0600 -0.0050
vt 0.0700 0.0000
vt 0.0950 -0.0060
vt 0.1000 -0.0030
vt -0.1000 -0.0030
vt -0.0950 -0.0060
vt -0.0700 0.0000
vt 0.0600 -0.0050
vt 0.0700 -0.0300
vt 0.1000 -0.0300
vt 0.1000 0.0125
vt -0.1000 0.0125
vn 0.000 -1.000 0.000
vn 0.000 -1.000 0.000
vn 0.000 -1.000 0.000
vn 0.000 -1.000 0.000
vn 0.000 0.000 1.000
vn 0.000 0.000 1.000
vn 0.000 0.000 1.000
vn 0.000 0.000 1.000
vn 0.000 1.000 0.000
vn 0.000 1.000 0.000
vn 0.000 1.000 0.000
vn 0.000 1.000 0.000
vn -0.000 0.371 -0.928
vn -0.000 0.371 -0.928
vn -0.000 0.371 -0.928
vn -0.000 0.371 -0.928
vn -0.000 0.999 -0.038
vn -0.000 0.999 -0.038
vn -0.000 0.999 -0.038
vn -0.000 0.999 -0.038
vn 0.000 0.972 0.233
vn 0.000 0.972 0.233
vn 0.000 0.972 0.233
vn 0.000 0.972 0.233
vn -0.000 0.857 -0.514
vn -0.000 0.857 -0.514
vn -0.000 0.857 -0.514
vn -0.000 0.857 -0.514
vn -0.000 0.000 -1.000
vn -0.000 0.000 -1.000
vn -0.000 0.000 -1.000
vn -0.000 0.000 -1.000
vn -1.000 0.000 0.000
vn -1.000 0.000 0.000
vn -1.000 0.000 0.000
vn -1.000 0.000 0.000
vn -1.000 0.000 0.000
vn -1.000 0.000 0.000
vn -1.000 0.000 0.000
vn -1.000 0.000 0.000
vn 1.000 0.000 -0.000
vn 1.000 0.000 -0.000
vn 1.000 0.000 -0.000
vn 1.000 0.000 -0.000
vn 1.000 0.000 -0.000
vn 1.000 0.000 -0.000
vn 1.000 0.000 -0.000
vn 1.000 0.000 -0.000
v -0.0450 0.0030 -0.0625
v -0.0428 0.0154 -0.0625
v -0.0364 0.0265 -0.0625
v -0.0265 0.0354 -0.0625
v -0.0139 0.0410 -0.0625
v -0.0000 0.0430 -0.0625
v 0.0139 0.0410 -0.0625
v 0.0265 0.0354 -0.0625
v 0.0364 0.0265 -0.0625
v 0.0428 0.0154 -0.0625
v 0.0450 0.0030 -0.0625
v -0.0450 0.0030 -0.0275
v -0.0428 0.0154 -0.0275
v -0.0364 0.0265 -0.0275
v -0.0265 0.0354 -0.0275
v -0.0139 0.0410 -0.0275
v -0.0000 0.0430 -0.0275
v 0.0139 0.0410 -0.0275
v 0.0265 0.0354 -0.0275
v 0.0364 0.0265 -0.0275
v 0.0428 0.0154 -0.0275
v 0.0450 0.0030 -0.0275
v -0.0450 0.0030 -0.0625
v -0.0428 0.0154 -0.0625
v -0.0364 0.0265 -0.0625
v -0.0265 0.0354 -0.0625
v -0.0139 0.0410 -0.0625
v -0.0000 0.0430 -0.0625
v 0.0139 0.0410 -0.0625
v 0.0265 0.0354 -0.0625
v 0.0364 0.0265 -0.0625
v 0.0428 0.0154 -0.0625
v 0.0450 0.0030 -0.0625
v -0.0450 0.0030 -0.0275
v -0.0428 0.0154 -0.0275
v -0.0364 0.0265 -0.0275
v -0.0265 0.0354 -0.0275
v -0.0139 0.0410 -0.0275
v -0.0000 0.0430 -0.0275
v 0.0139 0.0410 -0.0275
v 0.0265 0.0354 -0.0275
v 0.0364 0.0265 -0.0275
v 0.0428 0.0154 -0.0275
v 0.0450 0.0030 -0.0275
vt 0.0000 0.0000
vt 0.0126 0.0000
vt 0.0254 0.0000
vt 0.0387 0.0000
vt 0.0525 0.0000
vt 0.0665 0.0000
vt 0.0806 0.0000
vt 0.0944 0.0000
vt 0.1077 0.0000
vt 0.1205 0.0000
vt 0.1331 0.0000
vt 0.0000 0.0350
vt 0.0126 0.0350
vt 0.0254 0.0350
vt 0.0387 0.0350
vt 0.0525 0.0350
vt 0.0665 0.0350
vt 0.0806 0.0350
vt 0.0944 0.0350
vt 0.1077 0.0350
vt 0.1205 0.0350
vt 0.1331 0.0350
vt 0.0000 0.0000
vt 0.0126 0.0000
vt 0.0254 0.0000
vt 0.0387 0.0000
vt 0.0525 0.0000
vt 0.0665 0.0000
vt 0.0806 0.0000
vt 0.0944 0.0000
vt 0.1077 0.0000
vt 0.1205 0.0000
vt 0.1331 0.0000
vt 0.0000 0.0350
vt 0.0126 0.0350
vt 0.0254 0.0350
vt 0.0387 0.0350
vt 0.0525 0.0350
vt 0.0665 0.0350
vt 0.0806 0.0350
vt 0.0944 0.0350
vt 0.1077 0.0350
vt 0.1205 0.0350
vt 0.1331 0.0350
vn 0.984 -0.175 0.000
vn 0.939 -0.343 0.000
vn 0.774 -0.633 0.000
vn 0.543 -0.840 0.000
vn 0.277 -0.961 0.000
vn 0.000 -1.000 0.000
vn -0.277 -0.961 0.000
vn -0.543 -0.840 0.000
vn -0.774 -0.633 0.000
vn -0.939 -0.343 0.000
vn -0.984 -0.175 0.000
vn 0.984 -0.175 0.000
vn 0.939 -0.343 0.000
vn 0.774 -0.633 0.000
vn 0.543 -0.840 0.000
vn 0.277 -0.961 0.000
vn 0.000 -1.000 0.000
vn -0.277 -0.961 0.000
vn -0.543 -0.840 0.000
vn -0.774 -0.633 0.000
vn -0.939 -0.343 0.000
vn -0.984 -0.175 0.000
vn -0.984 0.175 -0.000
vn -0.939 0.343 -0.000
vn -0.774 0.633 -0.000
vn -0.543 0.840 -0.000
vn -0.277 0.961 -0.000
vn -0.000 1.000 -0.000
vn 0.277 0.961 -0.000
vn 0.543 0.840 -0.000
vn 0.774 0.633 -0.000
vn 0.939 0.343 -0.000
vn 0.984 0.175 -0.000
vn -0.984 0.175 -0.000
vn -0.939 0.343 -0.000
vn -0.774 0.633 -0.000
vn -0.543 0.840 -0.000
vn -0.277 0.961 -0.000
vn -0.000 1.000 -0.000
vn 0.277 0.961 -0.000
vn 0.543 0.840 -0.000
vn 0.774 0.633 -0.000
vn 0.939 0.343 -0.000
vn 0.984 0.175 -0.000
v -0.0410 0.0000 -0.0470
v -0.0410 0.0000 -0.0530
v -0.0410 0.0060 -0.0530
v -0.0410 0.0060 -0.0470
v -0.0470 0.0000 -0.0530
v -0.0470 0.0000 -0.0470
v -0.0470 0.0060 -0.0470
v -0.0470 0.0060 -0.0530
v -0.0470 0.0060 -0.0470
v -0.0410 0.0060 -0.0470
v -0.0410 0.0060 -0.0530
v -0.0470 0.0060 -0.0530
v -0.0470 0.0000 -0.0530
v -0.0410 0.0000 -0.0530
v -0.0410 0.0000 -0.0470
v -0.0470 0.0000 -0.0470
v -0.0470 0.0000 -0.0470
v -0.0410 0.0000 -0.0470
v -0.0410 0.0060 -0.0470
v -0.0470 0.0060 -0.0470
v -0.0410 0.0000 -0.0530
v -0.0470 0.0000 -0.0530
v -0.0470 0.0060 -0.0530
v -0.0410 0.0060 -0.0530
v 0.0470 0.0000 -0.0470
v 0.0470 0.0000 -0.0530
v 0.0470 0.0060 -0.0530
v 0.0470 0.0060 -0.0470
v 0.0410 0.0000 -0.0530
v 0.0410 0.0000 -0.0470
v 0.0410 0.0060 -0.0470
v 0.0410 0.0060 -0.0530
v 0.0410 0.0060 -0.0470
v 0.0470 0.0060 -0.0470
v 0.0470 0.0060 -0.0530
v 0.0410 0.0060 -0.0530
v 0.0410 0.0000 -0.0530
v 0.0470 0.0000 -0.0530
v 0.0470 0.0000 -0.0470
v 0.0410 0.0000 -0.0470
v 0.0410 0.0000 -0.0470
v 0.0470 0.0000 -0.0470
v 0.0470 0.0060 -0.0470
v 0.0410 0.0060 -0.0470
v 0.0470 0.0000 -0.0530
v 0.0410 0.0000 -0.0530
v 0.0410 0.0060 -0.0530
v 0.0470 0.0060 -0.0530
vt 0.0000 0.0000
vt 0.0060 0.0000
vt 0.0060 0.0060
vt 0.0000 0.0060
vt 0.0000 0.0000
vt 0.0060 0.0000
vt 0.0060 0.0060
vt 0.0000 0.0060
vt 0.0000 0.0000
vt 0.0060 0.0000
vt 0.0060 0.0060
vt 0.0000 0.0060
vt 0.0000 0.0000
vt 0.0060 0.0000
vt 0.0060 0.0060
vt 0.0000 0.0060
vt 0.0000 0.0000
vt 0.0060 0.0000
vt 0.0060 0.0060
vt 0.0000 0.0060
vt 0.0000 0.0000
vt 0.0060 0.0000
vt 0.0060 0.0060
vt 0.0000 0.0060
vt 0.0000 0.0000
vt 0.0060 0.0000
vt 0.0060 0.0060
vt 0.0000 0.0060
vt 0.0000 0.0000
vt 0.0060 0.0000
vt 0.0060 0.0060
vt 0.0000 0.0060
vt 0.0000 0.0000
vt 0.0060 0.0000
vt 0.0060 0.0060
vt 0.0000 0.0060
vt 0.0000 0.0000
vt 0.0060 0.0000
vt 0.0060 0.0060
vt 0.0000 0.0060
vt 0.0000 0.0000
vt 0.0060 0.0000
vt 0.0060 0.0060
vt 0.0000 0.0060
vt 0.0000 0.0000
vt 0.0060 0.0000
vt 0.0060 0.0060
vt 0.0000 0.0060
vn 1.000 0.000 0.000
vn 1.000 0.000 0.000
vn 1.000 0.000 0.000
vn 1.000 0.000 0.000
vn -1.000 0.000 0.000
vn -1.000 0.000 0.000
vn -1.000 0.000 0.000
vn -1.000 0.000 0.000
vn 0.000 1.000 0.000
vn 0.000 1.000 0.000
vn 0.000 1.000 0.000
vn 0.000 1.000 0.000
vn 0.000 -1.000 0.000
vn 0.000 -1.000 0.000
vn 0.000 -1.000 0.000
vn 0.000 -1.000 0.000
vn 0.000 0.000 1.000
vn 0.000 0.000 1.000
vn 0.000 0.000 1.000
vn 0.000 0.000 1.000
vn 0.000 0.000 -1.000
vn 0.000 0.000 -1.000
vn 0.000 0.000 -1.000
vn 0.000 0.000 -1.000
vn 1.000 0.000 0.000
vn 1.000 0.000 0.000
vn 1.000 0.000 0.000
vn 1.000 0.000 0.000
vn -1.000 0.000 0.000
vn -1.000 0.000 0.000
vn -1.000 0.000 0.000
vn -1.000 0.000 0.000
vn 0.000 1.000 0.000
vn 0.000 1.000 0.000
vn 0.000 1.000 0.000
vn 0.000 1.000 0.000
vn 0.000 -1.000 0.000
vn 0.000 -1.000 0.000
vn 0.000 -1.000 0.000
vn 0.000 -1.000 0.000
vn 0.000 0.000 1.000
vn 0.000 0.000 1.000
vn 0.000 0.000 1.000
vn 0.000 0.000 1.000
vn 0.000 0.000 -1.000
vn 0.000 0.000 -1.000
vn 0.000 0.000 -1.000
vn 0.000 0.000 -1.000
usemtl wood
f 1/1/1 2/2/2 3/3/3
f 1/1/1 3/3/3 4/4/4
f 5/5/5 6/6/6 7/7/7
f 5/5/5 7/7/7 8/8/8
f 9/9/9 10/10/10 11/11/11
f 9/9/9 11/11/11 12/12/12
f 13/13/13 14/14/14 15/15/15
f 13/13/13 15/15/15 16/16/16
f 17/17/17 18/18/18 19/19/19
f 17/17/17 19/19/19 20/20/20
f 21/21/21 22/22/22 23/23/23
f 21/21/21 23/23/23 24/24/24
f 25/25/25 26/26/26 27/27/27
f 25/25/25 27/27/27 28/28/28
f 29/29/29 30/30/30 31/31/31
f 29/29/29 31/31/31 32/32/32
f 34/34/34 35/35/35 36/36/36
f 34/34/34 36/36/36 37/37/37
f 33/33/33 34/34/34 37/37/37
f 33/33/33 37/37/37 38/38/38
f 40/40/40 33/33/33 38/38/38
f 38/38/38 39/39/39 40/40/40
f 48/48/48 41/41/41 42/42/42
f 48/48/48 42/42/42 43/43/43
f 48/48/48 43/43/43 44/44/44
f 44/44/44 45/45/45 46/46/46
f 44/44/44 46/46/46 47/47/47
f 44/44/44 47/47/47 48/48/48
usemtl strap
f 49/49/49 50/50/50 61/61/61
f 49/49/49 61/61/61 60/60/60
f 50/50/50 51/51/51 62/62/62
f 50/50/50 62/62/62 61/61/61
f 51/51/51 52/52/52 63/63/63
f 51/51/51 63/63/63 62/62/62
f 52/52/52 53/53/53 64/64/64
f 52/52/52 64/64/64 63/63/63
f 53/53/53 54/54/54 65/65/65
f 53/53/53 65/65/65 64/64/64
f 54/54/54 55/55/55 66/66/66
f 54/54/54 66/66/66 65/65/65
f 55/55/55 56/56/56 67/67/67
f 55/55/55 67/67/67 66/66/66
f 56/56/56 57/57/57 68/68/68
f 56/56/56 68/68/68 67/67/67
f 57/57/57 58/58/58 69/69/69
f 57/57/57 69/69/69 68/68/68
f 58/58/58 59/59/59 70/70/70
f 58/58/58 70/70/70 69/69/69
f 71/71/71 83/83/83 72/72/72
f 71/71/71 82/82/82 83/83/83
f 72/72/72 84/84/84 73/73/73
f 72/72/72 83/83/83 84/84/84
f 73/73/73 85/85/85 74/74/74
f 73/73/73 84/84/84 85/85/85
f 74/74/74 86/86/86 75/75/75
f 74/74/74 85/85/85 86/86/86
f 75/75/75 87/87/87 76/76/76
f 75/75/75 86/86/86 87/87/87
f 76/76/76 88/88/88 77/77/77
f 76/76/76 87/87/87 88/88/88
f 77/77/77 89/89/89 78/78/78
f 77/77/77 88/88/88 89/89/89
f 78/78/78 90/90/90 79/79/79
f 78/78/78 89/89/89 90/90/90
f 79/79/79 91/91/91 80/80/80
f 79/79/79 90/90/90 91/91/91
f 80/80/80 92/92/92 81/81/81
f 80/80/80 91/91/91 92/92/92
usemtl nail
f 93/93/93 94/94/94 95/95/95
f 93/93/93 95/95/95 96/96/96
f 97/97/97 98/98/98 99/99/99
f 97/97/97 99/99/99 100/100/100
f 101/101/101 102/102/102 103/103/103
f 101/101/101 103/103/103 104/104/104
f 105/105/105 106/106/106 107/107/107
f 105/105/105 107/107/107 108/108/108
f 109/109/109 110/110/110 111/111/111
f 109/109/109 111/111/111 112/112/112
f 113/113/113 114/114/114 115/115/115
f 113/113/113 115/115/115 116/116/116
f 117/117/117 118/118/118 119/119/119
f 117/117/117 119/119/119 120/120/120
f 121/121/121 122/122/122 123/123/123
f 121/121/121 123/123/123 124/124/124
f 125/125/125 126/126/126 127/127/127
f 125/125/125 127/127/127 128/128/128
f 129/129/129 130/130/130 131/131/131
f 129/129/129 131/131/131 132/132/132
f 133/133/133 134/134/134 135/135/135
f 133/133/133 135/135/135 136/136/136
f 137/137/137 138/138/138 139/139/139
f 137/137/137 139/139/139 140/140/140
