# Sinh tự động bởi tools/mesh_kit.py - đừng sửa tay
o pz_dieu_cay
v 0.0260 -0.2750 0.0000
v 0.0234 -0.2750 -0.0113
v 0.0162 -0.2750 -0.0203
v 0.0058 -0.2750 -0.0253
v -0.0058 -0.2750 -0.0253
v -0.0162 -0.2750 -0.0203
v -0.0234 -0.2750 -0.0113
v -0.0260 -0.2750 -0.0000
v -0.0234 -0.2750 0.0113
v -0.0162 -0.2750 0.0203
v -0.0058 -0.2750 0.0253
v 0.0058 -0.2750 0.0253
v 0.0162 -0.2750 0.0203
v 0.0234 -0.2750 0.0113
v 0.0260 -0.2750 0.0000
v 0.0260 0.2750 0.0000
v 0.0234 0.2750 -0.0113
v 0.0162 0.2750 -0.0203
v 0.0058 0.2750 -0.0253
v -0.0058 0.2750 -0.0253
v -0.0162 0.2750 -0.0203
v -0.0234 0.2750 -0.0113
v -0.0260 0.2750 -0.0000
v -0.0234 0.2750 0.0113
v -0.0162 0.2750 0.0203
v -0.0058 0.2750 0.0253
v 0.0058 0.2750 0.0253
v 0.0162 0.2750 0.0203
v 0.0234 0.2750 0.0113
v 0.0260 0.2750 0.0000
v 0.0000 -0.2750 0.0000
v 0.0260 -0.2750 0.0000
v 0.0234 -0.2750 -0.0113
v 0.0162 -0.2750 -0.0203
v 0.0058 -0.2750 -0.0253
v -0.0058 -0.2750 -0.0253
v -0.0162 -0.2750 -0.0203
v -0.0234 -0.2750 -0.0113
v -0.0260 -0.2750 -0.0000
v -0.0234 -0.2750 0.0113
v -0.0162 -0.2750 0.0203
v -0.0058 -0.2750 0.0253
v 0.0058 -0.2750 0.0253
v 0.0162 -0.2750 0.0203
v 0.0234 -0.2750 0.0113
v 0.0000 0.2750 0.0000
v 0.0260 0.2750 0.0000
v 0.0234 0.2750 -0.0113
v 0.0162 0.2750 -0.0203
v 0.0058 0.2750 -0.0253
v -0.0058 0.2750 -0.0253
v -0.0162 0.2750 -0.0203
v -0.0234 0.2750 -0.0113
v -0.0260 0.2750 -0.0000
v -0.0234 0.2750 0.0113
v -0.0162 0.2750 0.0203
v -0.0058 0.2750 0.0253
v 0.0058 0.2750 0.0253
v 0.0162 0.2750 0.0203
v 0.0234 0.2750 0.0113
v 0.0000 -0.1142 -0.0181
v 0.0049 -0.1159 -0.0192
v 0.0070 -0.1200 -0.0220
v 0.0049 -0.1241 -0.0248
v 0.0000 -0.1258 -0.0259
v -0.0049 -0.1241 -0.0248
v -0.0070 -0.1200 -0.0220
v -0.0049 -0.1159 -0.0192
v -0.0000 -0.1142 -0.0181
v 0.0000 -0.0842 -0.0621
v 0.0049 -0.0859 -0.0632
v 0.0070 -0.0900 -0.0660
v 0.0049 -0.0941 -0.0688
v 0.0000 -0.0958 -0.0699
v -0.0049 -0.0941 -0.0688
v -0.0070 -0.0900 -0.0660
v -0.0049 -0.0859 -0.0632
v -0.0000 -0.0842 -0.0621
v 0.0000 -0.1200 -0.0220
v 0.0000 -0.1142 -0.0181
v 0.0049 -0.1159 -0.0192
v 0.0070 -0.1200 -0.0220
v 0.0049 -0.1241 -0.0248
v 0.0000 -0.1258 -0.0259
v -0.0049 -0.1241 -0.0248
v -0.0070 -0.1200 -0.0220
v -0.0049 -0.1159 -0.0192
v 0.0000 -0.0900 -0.0660
v 0.0000 -0.0842 -0.0621
v 0.0049 -0.0859 -0.0632
v 0.0070 -0.0900 -0.0660
v 0.0049 -0.0941 -0.0688
v 0.0000 -0.0958 -0.0699
v -0.0049 -0.0941 -0.0688
v -0.0070 -0.0900 -0.0660
v -0.0049 -0.0859 -0.0632
vt 0.0000 0.0000
vt 0.0000 0.0117
vt 0.0000 0.0233
vt 0.0000 0.0350
vt 0.0000 0.0467
vt 0.0000 0.0583
vt 0.0000 0.0700
vt 0.0000 0.0817
vt 0.0000 0.0934
vt 0.0000 0.1050
vt 0.0000 0.1167
vt 0.0000 0.1284
vt 0.0000 0.1400
vt 0.0000 0.1517
vt 0.0000 0.1634
vt 0.5500 0.0000
vt 0.5500 0.0117
vt 0.5500 0.0233
vt 0.5500 0.0350
vt 0.5500 0.0467
vt 0.5500 0.0583
vt 0.5500 0.0700
vt 0.5500 0.0817
vt 0.5500 0.0934
vt 0.5500 0.1050
vt 0.5500 0.1167
vt 0.5500 0.1284
vt 0.5500 0.1400
vt 0.5500 0.1517
vt 0.5500 0.1634
vt 0.0000 0.0000
vt 0.0260 0.0000
vt 0.0234 0.0113
vt 0.0162 0.0203
vt 0.0058 0.0253
vt -0.0058 0.0253
vt -0.0162 0.0203
vt -0.0234 0.0113
vt -0.0260 0.0000
vt -0.0234 -0.0113
vt -0.0162 -0.0203
vt -0.0058 -0.0253
vt 0.0058 -0.0253
vt 0.0162 -0.0203
vt 0.0234 -0.0113
vt 0.0000 0.0000
vt 0.0260 0.0000
vt 0.0234 0.0113
vt 0.0162 0.0203
vt 0.0058 0.0253
vt -0.0058 0.0253
vt -0.0162 0.0203
vt -0.0234 0.0113
vt -0.0260 0.0000
vt -0.0234 -0.0113
vt -0.0162 -0.0203
vt -0.0058 -0.0253
vt 0.0058 -0.0253
vt 0.0162 -0.0203
vt 0.0234 -0.0113
vt 0.0000 0.0000
vt 0.0000 0.0055
vt 0.0000 0.0110
vt 0.0000 0.0165
vt 0.0000 0.0220
vt 0.0000 0.0275
vt 0.0000 0.0330
vt 0.0000 0.0385
vt 0.0000 0.0440
vt 0.0533 0.0000
vt 0.0533 0.0055
vt 0.0533 0.0110
vt 0.0533 0.0165
vt 0.0533 0.0220
vt 0.0533 0.0275
vt 0.0533 0.0330
vt 0.0533 0.0385
vt 0.0533 0.0440
vt 0.0000 0.0000
vt 0.0070 0.0000
vt 0.0049 0.0049
vt 0.0000 0.0070
vt -0.0049 0.0049
vt -0.0070 0.0000
vt -0.0049 -0.0049
vt -0.0000 -0.0070
vt 0.0049 -0.0049
vt 0.0000 0.0000
vt 0.0070 0.0000
vt 0.0049 0.0049
vt 0.0000 0.0070
vt -0.0049 0.0049
vt -0.0070 0.0000
vt -0.0049 -0.0049
vt -0.0000 -0.0070
vt 0.0049 -0.0049
vn 1.000 0.000 0.000
vn 0.901 0.000 -0.434
vn 0.623 0.000 -0.782
vn 0.223 0.000 -0.975
vn -0.223 0.000 -0.975
vn -0.623 0.000 -0.782
vn -0.901 0.000 -0.434
vn -1.000 0.000 -0.000
vn -0.901 0.000 0.434
vn -0.623 0.000 0.782
vn -0.223 0.000 0.975
vn 0.223 -0.000 0.975
vn 0.623 -0.000 0.782
vn 0.901 -0.000 0.434
vn 1.000 -0.000 0.000
vn 1.000 0.000 0.000
vn 0.901 0.000 -0.434
vn 0.623 0.000 -0.782
vn 0.223 0.000 -0.975
vn -0.223 0.000 -0.975
vn -0.623 0.000 -0.782
vn -0.901 0.000 -0.434
vn -1.000 0.000 -0.000
vn -0.901 0.000 0.434
vn -0.623 0.000 0.782
vn -0.223 0.000 0.975
vn 0.223 -0.000 0.975
vn 0.623 -0.000 0.782
vn 0.901 -0.000 0.434
vn 1.000 -0.000 0.000
vn -0.000 -1.000 -0.000
vn -0.000 -1.000 -0.000
vn -0.000 -1.000 -0.000
vn -0.000 -1.000 -0.000
vn -0.000 -1.000 -0.000
vn -0.000 -1.000 -0.000
vn -0.000 -1.000 -0.000
vn -0.000 -1.000 -0.000
vn -0.000 -1.000 -0.000
vn -0.000 -1.000 -0.000
vn -0.000 -1.000 -0.000
vn -0.000 -1.000 -0.000
vn -0.000 -1.000 -0.000
vn -0.000 -1.000 -0.000
vn -0.000 -1.000 -0.000
vn 0.000 1.000 0.000
vn 0.000 1.000 0.000
vn 0.000 1.000 0.000
vn 0.000 1.000 0.000
vn 0.000 1.000 0.000
vn 0.000 1.000 0.000
vn 0.000 1.000 0.000
vn 0.000 1.000 0.000
vn 0.000 1.000 0.000
vn 0.000 1.000 0.000
vn 0.000 1.000 0.000
vn 0.000 1.000 0.000
vn 0.000 1.000 0.000
vn 0.000 1.000 0.000
vn 0.000 1.000 0.000
vn 0.000 0.826 0.563
vn 0.707 0.584 0.398
vn 1.000 0.000 0.000
vn 0.707 -0.584 -0.398
vn 0.000 -0.826 -0.563
vn -0.707 -0.584 -0.398
vn -1.000 -0.000 -0.000
vn -0.707 0.584 0.398
vn -0.000 0.826 0.563
vn 0.000 0.826 0.563
vn 0.707 0.584 0.398
vn 1.000 0.000 0.000
vn 0.707 -0.584 -0.398
vn 0.000 -0.826 -0.563
vn -0.707 -0.584 -0.398
vn -1.000 -0.000 -0.000
vn -0.707 0.584 0.398
vn -0.000 0.826 0.563
vn -0.000 -0.563 0.826
vn -0.000 -0.563 0.826
vn -0.000 -0.563 0.826
vn -0.000 -0.563 0.826
vn -0.000 -0.563 0.826
vn -0.000 -0.563 0.826
vn -0.000 -0.563 0.826
vn -0.000 -0.563 0.826
vn -0.000 -0.563 0.826
vn 0.000 0.563 -0.826
vn 0.000 0.563 -0.826
vn 0.000 0.563 -0.826
vn 0.000 0.563 -0.826
vn 0.000 0.563 -0.826
vn 0.000 0.563 -0.826
vn 0.000 0.563 -0.826
vn 0.000 0.563 -0.826
vn 0.000 0.563 -0.826
v 0.0270 -0.1565 0.0000
v 0.0237 -0.1589 -0.0000
v 0.0249 -0.1628 -0.0000
v 0.0291 -0.1628 0.0000
v 0.0303 -0.1589 0.0000
v 0.0270 -0.1565 0.0000
v 0.0249 -0.1565 0.0103
v 0.0219 -0.1589 0.0091
v 0.0230 -0.1628 0.0095
v 0.0268 -0.1628 0.0111
v 0.0280 -0.1589 0.0116
v 0.0249 -0.1565 0.0103
v 0.0191 -0.1565 0.0191
v 0.0167 -0.1589 0.0167
v 0.0176 -0.1628 0.0176
v 0.0205 -0.1628 0.0205
v 0.0214 -0.1589 0.0214
v 0.0191 -0.1565 0.0191
v 0.0103 -0.1565 0.0249
v 0.0091 -0.1589 0.0219
v 0.0095 -0.1628 0.0230
v 0.0111 -0.1628 0.0268
v 0.0116 -0.1589 0.0280
v 0.0103 -0.1565 0.0249
v 0.0000 -0.1565 0.0270
v 0.0000 -0.1589 0.0237
v 0.0000 -0.1628 0.0249
v 0.0000 -0.1628 0.0291
v 0.0000 -0.1589 0.0303
v 0.0000 -0.1565 0.0270
v -0.0103 -0.1565 0.0249
v -0.0091 -0.1589 0.0219
v -0.0095 -0.1628 0.0230
v -0.0111 -0.1628 0.0268
v -0.0116 -0.1589 0.0280
v -0.0103 -0.1565 0.0249
v -0.0191 -0.1565 0.0191
v -0.0167 -0.1589 0.0167
v -0.0176 -0.1628 0.0176
v -0.0205 -0.1628 0.0205
v -0.0214 -0.1589 0.0214
v -0.0191 -0.1565 0.0191
v -0.0249 -0.1565 0.0103
v -0.0219 -0.1589 0.0091
v -0.0230 -0.1628 0.0095
v -0.0268 -0.1628 0.0111
v -0.0280 -0.1589 0.0116
v -0.0249 -0.1565 0.0103
v -0.0270 -0.1565 0.0000
v -0.0237 -0.1589 0.0000
v -0.0249 -0.1628 0.0000
v -0.0291 -0.1628 0.0000
v -0.0303 -0.1589 0.0000
v -0.0270 -0.1565 0.0000
v -0.0249 -0.1565 -0.0103
v -0.0219 -0.1589 -0.0091
v -0.0230 -0.1628 -0.0095
v -0.0268 -0.1628 -0.0111
v -0.0280 -0.1589 -0.0116
v -0.0249 -0.1565 -0.0103
v -0.0191 -0.1565 -0.0191
v -0.0167 -0.1589 -0.0167
v -0.0176 -0.1628 -0.0176
v -0.0205 -0.1628 -0.0205
v -0.0214 -0.1589 -0.0214
v -0.0191 -0.1565 -0.0191
v -0.0103 -0.1565 -0.0249
v -0.0091 -0.1589 -0.0219
v -0.0095 -0.1628 -0.0230
v -0.0111 -0.1628 -0.0268
v -0.0116 -0.1589 -0.0280
v -0.0103 -0.1565 -0.0249
v -0.0000 -0.1565 -0.0270
v -0.0000 -0.1589 -0.0237
v -0.0000 -0.1628 -0.0249
v -0.0000 -0.1628 -0.0291
v -0.0000 -0.1589 -0.0303
v -0.0000 -0.1565 -0.0270
v 0.0103 -0.1565 -0.0249
v 0.0091 -0.1589 -0.0219
v 0.0095 -0.1628 -0.0230
v 0.0111 -0.1628 -0.0268
v 0.0116 -0.1589 -0.0280
v 0.0103 -0.1565 -0.0249
v 0.0191 -0.1565 -0.0191
v 0.0167 -0.1589 -0.0167
v 0.0176 -0.1628 -0.0176
v 0.0205 -0.1628 -0.0205
v 0.0214 -0.1589 -0.0214
v 0.0191 -0.1565 -0.0191
v 0.0249 -0.1565 -0.0103
v 0.0219 -0.1589 -0.0091
v 0.0230 -0.1628 -0.0095
v 0.0268 -0.1628 -0.0111
v 0.0280 -0.1589 -0.0116
v 0.0249 -0.1565 -0.0103
v 0.0270 -0.1565 0.0000
v 0.0237 -0.1589 -0.0000
v 0.0249 -0.1628 -0.0000
v 0.0291 -0.1628 0.0000
v 0.0303 -0.1589 0.0000
v 0.0270 -0.1565 0.0000
v 0.0270 0.0635 0.0000
v 0.0237 0.0611 -0.0000
v 0.0249 0.0572 -0.0000
v 0.0291 0.0572 0.0000
v 0.0303 0.0611 0.0000
v 0.0270 0.0635 0.0000
v 0.0249 0.0635 0.0103
v 0.0219 0.0611 0.0091
v 0.0230 0.0572 0.0095
v 0.0268 0.0572 0.0111
v 0.0280 0.0611 0.0116
v 0.0249 0.0635 0.0103
v 0.0191 0.0635 0.0191
v 0.0167 0.0611 0.0167
v 0.0176 0.0572 0.0176
v 0.0205 0.0572 0.0205
v 0.0214 0.0611 0.0214
v 0.0191 0.0635 0.0191
v 0.0103 0.0635 0.0249
v 0.0091 0.0611 0.0219
v 0.0095 0.0572 0.0230
v 0.0111 0.0572 0.0268
v 0.0116 0.0611 0.0280
v 0.0103 0.0635 0.0249
v 0.0000 0.0635 0.0270
v 0.0000 0.0611 0.0237
v 0.0000 0.0572 0.0249
v 0.0000 0.0572 0.0291
v 0.0000 0.0611 0.0303
v 0.0000 0.0635 0.0270
v -0.0103 0.0635 0.0249
v -0.0091 0.0611 0.0219
v -0.0095 0.0572 0.0230
v -0.0111 0.0572 0.0268
v -0.0116 0.0611 0.0280
v -0.0103 0.0635 0.0249
v -0.0191 0.0635 0.0191
v -0.0167 0.0611 0.0167
v -0.0176 0.0572 0.0176
v -0.0205 0.0572 0.0205
v -0.0214 0.0611 0.0214
v -0.0191 0.0635 0.0191
v -0.0249 0.0635 0.0103
v -0.0219 0.0611 0.0091
v -0.0230 0.0572 0.0095
v -0.0268 0.0572 0.0111
v -0.0280 0.0611 0.0116
v -0.0249 0.0635 0.0103
v -0.0270 0.0635 0.0000
v -0.0237 0.0611 0.0000
v -0.0249 0.0572 0.0000
v -0.0291 0.0572 0.0000
v -0.0303 0.0611 0.0000
v -0.0270 0.0635 0.0000
v -0.0249 0.0635 -0.0103
v -0.0219 0.0611 -0.0091
v -0.0230 0.0572 -0.0095
v -0.0268 0.0572 -0.0111
v -0.0280 0.0611 -0.0116
v -0.0249 0.0635 -0.0103
v -0.0191 0.0635 -0.0191
v -0.0167 0.0611 -0.0167
v -0.0176 0.0572 -0.0176
v -0.0205 0.0572 -0.0205
v -0.0214 0.0611 -0.0214
v -0.0191 0.0635 -0.0191
v -0.0103 0.0635 -0.0249
v -0.0091 0.0611 -0.0219
v -0.0095 0.0572 -0.0230
v -0.0111 0.0572 -0.0268
v -0.0116 0.0611 -0.0280
v -0.0103 0.0635 -0.0249
v -0.0000 0.0635 -0.0270
v -0.0000 0.0611 -0.0237
v -0.0000 0.0572 -0.0249
v -0.0000 0.0572 -0.0291
v -0.0000 0.0611 -0.0303
v -0.0000 0.0635 -0.0270
v 0.0103 0.0635 -0.0249
v 0.0091 0.0611 -0.0219
v 0.0095 0.0572 -0.0230
v 0.0111 0.0572 -0.0268
v 0.0116 0.0611 -0.0280
v 0.0103 0.0635 -0.0249
v 0.0191 0.0635 -0.0191
v 0.0167 0.0611 -0.0167
v 0.0176 0.0572 -0.0176
v 0.0205 0.0572 -0.0205
v 0.0214 0.0611 -0.0214
v 0.0191 0.0635 -0.0191
v 0.0249 0.0635 -0.0103
v 0.0219 0.0611 -0.0091
v 0.0230 0.0572 -0.0095
v 0.0268 0.0572 -0.0111
v 0.0280 0.0611 -0.0116
v 0.0249 0.0635 -0.0103
v 0.0270 0.0635 0.0000
v 0.0237 0.0611 -0.0000
v 0.0249 0.0572 -0.0000
v 0.0291 0.0572 0.0000
v 0.0303 0.0611 0.0000
v 0.0270 0.0635 0.0000
v 0.0270 0.2235 0.0000
v 0.0237 0.2211 -0.0000
v 0.0249 0.2172 -0.0000
v 0.0291 0.2172 0.0000
v 0.0303 0.2211 0.0000
v 0.0270 0.2235 0.0000
v 0.0249 0.2235 0.0103
v 0.0219 0.2211 0.0091
v 0.0230 0.2172 0.0095
v 0.0268 0.2172 0.0111
v 0.0280 0.2211 0.0116
v 0.0249 0.2235 0.0103
v 0.0191 0.2235 0.0191
v 0.0167 0.2211 0.0167
v 0.0176 0.2172 0.0176
v 0.0205 0.2172 0.0205
v 0.0214 0.2211 0.0214
v 0.0191 0.2235 0.0191
v 0.0103 0.2235 0.0249
v 0.0091 0.2211 0.0219
v 0.0095 0.2172 0.0230
v 0.0111 0.2172 0.0268
v 0.0116 0.2211 0.0280
v 0.0103 0.2235 0.0249
v 0.0000 0.2235 0.0270
v 0.0000 0.2211 0.0237
v 0.0000 0.2172 0.0249
v 0.0000 0.2172 0.0291
v 0.0000 0.2211 0.0303
v 0.0000 0.2235 0.0270
v -0.0103 0.2235 0.0249
v -0.0091 0.2211 0.0219
v -0.0095 0.2172 0.0230
v -0.0111 0.2172 0.0268
v -0.0116 0.2211 0.0280
v -0.0103 0.2235 0.0249
v -0.0191 0.2235 0.0191
v -0.0167 0.2211 0.0167
v -0.0176 0.2172 0.0176
v -0.0205 0.2172 0.0205
v -0.0214 0.2211 0.0214
v -0.0191 0.2235 0.0191
v -0.0249 0.2235 0.0103
v -0.0219 0.2211 0.0091
v -0.0230 0.2172 0.0095
v -0.0268 0.2172 0.0111
v -0.0280 0.2211 0.0116
v -0.0249 0.2235 0.0103
v -0.0270 0.2235 0.0000
v -0.0237 0.2211 0.0000
v -0.0249 0.2172 0.0000
v -0.0291 0.2172 0.0000
v -0.0303 0.2211 0.0000
v -0.0270 0.2235 0.0000
v -0.0249 0.2235 -0.0103
v -0.0219 0.2211 -0.0091
v -0.0230 0.2172 -0.0095
v -0.0268 0.2172 -0.0111
v -0.0280 0.2211 -0.0116
v -0.0249 0.2235 -0.0103
v -0.0191 0.2235 -0.0191
v -0.0167 0.2211 -0.0167
v -0.0176 0.2172 -0.0176
v -0.0205 0.2172 -0.0205
v -0.0214 0.2211 -0.0214
v -0.0191 0.2235 -0.0191
v -0.0103 0.2235 -0.0249
v -0.0091 0.2211 -0.0219
v -0.0095 0.2172 -0.0230
v -0.0111 0.2172 -0.0268
v -0.0116 0.2211 -0.0280
v -0.0103 0.2235 -0.0249
v -0.0000 0.2235 -0.0270
v -0.0000 0.2211 -0.0237
v -0.0000 0.2172 -0.0249
v -0.0000 0.2172 -0.0291
v -0.0000 0.2211 -0.0303
v -0.0000 0.2235 -0.0270
v 0.0103 0.2235 -0.0249
v 0.0091 0.2211 -0.0219
v 0.0095 0.2172 -0.0230
v 0.0111 0.2172 -0.0268
v 0.0116 0.2211 -0.0280
v 0.0103 0.2235 -0.0249
v 0.0191 0.2235 -0.0191
v 0.0167 0.2211 -0.0167
v 0.0176 0.2172 -0.0176
v 0.0205 0.2172 -0.0205
v 0.0214 0.2211 -0.0214
v 0.0191 0.2235 -0.0191
v 0.0249 0.2235 -0.0103
v 0.0219 0.2211 -0.0091
v 0.0230 0.2172 -0.0095
v 0.0268 0.2172 -0.0111
v 0.0280 0.2211 -0.0116
v 0.0249 0.2235 -0.0103
v 0.0270 0.2235 0.0000
v 0.0237 0.2211 -0.0000
v 0.0249 0.2172 -0.0000
v 0.0291 0.2172 0.0000
v 0.0303 0.2211 0.0000
v 0.0270 0.2235 0.0000
vt 0.0000 0.0000
vt 0.0000 0.0044
vt 0.0000 0.0088
vt 0.0000 0.0132
vt 0.0000 0.0176
vt 0.0000 0.0220
vt 0.0105 0.0000
vt 0.0105 0.0044
vt 0.0105 0.0088
vt 0.0105 0.0132
vt 0.0105 0.0176
vt 0.0105 0.0220
vt 0.0211 0.0000
vt 0.0211 0.0044
vt 0.0211 0.0088
vt 0.0211 0.0132
vt 0.0211 0.0176
vt 0.0211 0.0220
vt 0.0316 0.0000
vt 0.0316 0.0044
vt 0.0316 0.0088
vt 0.0316 0.0132
vt 0.0316 0.0176
vt 0.0316 0.0220
vt 0.0421 0.0000
vt 0.0421 0.0044
vt 0.0421 0.0088
vt 0.0421 0.0132
vt 0.0421 0.0176
vt 0.0421 0.0220
vt 0.0527 0.0000
vt 0.0527 0.0044
vt 0.0527 0.0088
vt 0.0527 0.0132
vt 0.0527 0.0176
vt 0.0527 0.0220
vt 0.0632 0.0000
vt 0.0632 0.0044
vt 0.0632 0.0088
vt 0.0632 0.0132
vt 0.0632 0.0176
vt 0.0632 0.0220
vt 0.0737 0.0000
vt 0.0737 0.0044
vt 0.0737 0.0088
vt 0.0737 0.0132
vt 0.0737 0.0176
vt 0.0737 0.0220
vt 0.0843 0.0000
vt 0.0843 0.0044
vt 0.0843 0.0088
vt 0.0843 0.0132
vt 0.0843 0.0176
vt 0.0843 0.0220
vt 0.0948 0.0000
vt 0.0948 0.0044
vt 0.0948 0.0088
vt 0.0948 0.0132
vt 0.0948 0.0176
vt 0.0948 0.0220
vt 0.1053 0.0000
vt 0.1053 0.0044
vt 0.1053 0.0088
vt 0.1053 0.0132
vt 0.1053 0.0176
vt 0.1053 0.0220
vt 0.1159 0.0000
vt 0.1159 0.0044
vt 0.1159 0.0088
vt 0.1159 0.0132
vt 0.1159 0.0176
vt 0.1159 0.0220
vt 0.1264 0.0000
vt 0.1264 0.0044
vt 0.1264 0.0088
vt 0.1264 0.0132
vt 0.1264 0.0176
vt 0.1264 0.0220
vt 0.1370 0.0000
vt 0.1370 0.0044
vt 0.1370 0.0088
vt 0.1370 0.0132
vt 0.1370 0.0176
vt 0.1370 0.0220
vt 0.1475 0.0000
vt 0.1475 0.0044
vt 0.1475 0.0088
vt 0.1475 0.0132
vt 0.1475 0.0176
vt 0.1475 0.0220
vt 0.1580 0.0000
vt 0.1580 0.0044
vt 0.1580 0.0088
vt 0.1580 0.0132
vt 0.1580 0.0176
vt 0.1580 0.0220
vt 0.1686 0.0000
vt 0.1686 0.0044
vt 0.1686 0.0088
vt 0.1686 0.0132
vt 0.1686 0.0176
vt 0.1686 0.0220
vt 0.0000 0.0000
vt 0.0000 0.0044
vt 0.0000 0.0088
vt 0.0000 0.0132
vt 0.0000 0.0176
vt 0.0000 0.0220
vt 0.0105 0.0000
vt 0.0105 0.0044
vt 0.0105 0.0088
vt 0.0105 0.0132
vt 0.0105 0.0176
vt 0.0105 0.0220
vt 0.0211 0.0000
vt 0.0211 0.0044
vt 0.0211 0.0088
vt 0.0211 0.0132
vt 0.0211 0.0176
vt 0.0211 0.0220
vt 0.0316 0.0000
vt 0.0316 0.0044
vt 0.0316 0.0088
vt 0.0316 0.0132
vt 0.0316 0.0176
vt 0.0316 0.0220
vt 0.0421 0.0000
vt 0.0421 0.0044
vt 0.0421 0.0088
vt 0.0421 0.0132
vt 0.0421 0.0176
vt 0.0421 0.0220
vt 0.0527 0.0000
vt 0.0527 0.0044
vt 0.0527 0.0088
vt 0.0527 0.0132
vt 0.0527 0.0176
vt 0.0527 0.0220
vt 0.0632 0.0000
vt 0.0632 0.0044
vt 0.0632 0.0088
vt 0.0632 0.0132
vt 0.0632 0.0176
vt 0.0632 0.0220
vt 0.0737 0.0000
vt 0.0737 0.0044
vt 0.0737 0.0088
vt 0.0737 0.0132
vt 0.0737 0.0176
vt 0.0737 0.0220
vt 0.0843 0.0000
vt 0.0843 0.0044
vt 0.0843 0.0088
vt 0.0843 0.0132
vt 0.0843 0.0176
vt 0.0843 0.0220
vt 0.0948 0.0000
vt 0.0948 0.0044
vt 0.0948 0.0088
vt 0.0948 0.0132
vt 0.0948 0.0176
vt 0.0948 0.0220
vt 0.1053 0.0000
vt 0.1053 0.0044
vt 0.1053 0.0088
vt 0.1053 0.0132
vt 0.1053 0.0176
vt 0.1053 0.0220
vt 0.1159 0.0000
vt 0.1159 0.0044
vt 0.1159 0.0088
vt 0.1159 0.0132
vt 0.1159 0.0176
vt 0.1159 0.0220
vt 0.1264 0.0000
vt 0.1264 0.0044
vt 0.1264 0.0088
vt 0.1264 0.0132
vt 0.1264 0.0176
vt 0.1264 0.0220
vt 0.1370 0.0000
vt 0.1370 0.0044
vt 0.1370 0.0088
vt 0.1370 0.0132
vt 0.1370 0.0176
vt 0.1370 0.0220
vt 0.1475 0.0000
vt 0.1475 0.0044
vt 0.1475 0.0088
vt 0.1475 0.0132
vt 0.1475 0.0176
vt 0.1475 0.0220
vt 0.1580 0.0000
vt 0.1580 0.0044
vt 0.1580 0.0088
vt 0.1580 0.0132
vt 0.1580 0.0176
vt 0.1580 0.0220
vt 0.1686 0.0000
vt 0.1686 0.0044
vt 0.1686 0.0088
vt 0.1686 0.0132
vt 0.1686 0.0176
vt 0.1686 0.0220
vt 0.0000 0.0000
vt 0.0000 0.0044
vt 0.0000 0.0088
vt 0.0000 0.0132
vt 0.0000 0.0176
vt 0.0000 0.0220
vt 0.0105 0.0000
vt 0.0105 0.0044
vt 0.0105 0.0088
vt 0.0105 0.0132
vt 0.0105 0.0176
vt 0.0105 0.0220
vt 0.0211 0.0000
vt 0.0211 0.0044
vt 0.0211 0.0088
vt 0.0211 0.0132
vt 0.0211 0.0176
vt 0.0211 0.0220
vt 0.0316 0.0000
vt 0.0316 0.0044
vt 0.0316 0.0088
vt 0.0316 0.0132
vt 0.0316 0.0176
vt 0.0316 0.0220
vt 0.0421 0.0000
vt 0.0421 0.0044
vt 0.0421 0.0088
vt 0.0421 0.0132
vt 0.0421 0.0176
vt 0.0421 0.0220
vt 0.0527 0.0000
vt 0.0527 0.0044
vt 0.0527 0.0088
vt 0.0527 0.0132
vt 0.0527 0.0176
vt 0.0527 0.0220
vt 0.0632 0.0000
vt 0.0632 0.0044
vt 0.0632 0.0088
vt 0.0632 0.0132
vt 0.0632 0.0176
vt 0.0632 0.0220
vt 0.0737 0.0000
vt 0.0737 0.0044
vt 0.0737 0.0088
vt 0.0737 0.0132
vt 0.0737 0.0176
vt 0.0737 0.0220
vt 0.0843 0.0000
vt 0.0843 0.0044
vt 0.0843 0.0088
vt 0.0843 0.0132
vt 0.0843 0.0176
vt 0.0843 0.0220
vt 0.0948 0.0000
vt 0.0948 0.0044
vt 0.0948 0.0088
vt 0.0948 0.0132
vt 0.0948 0.0176
vt 0.0948 0.0220
vt 0.1053 0.0000
vt 0.1053 0.0044
vt 0.1053 0.0088
vt 0.1053 0.0132
vt 0.1053 0.0176
vt 0.1053 0.0220
vt 0.1159 0.0000
vt 0.1159 0.0044
vt 0.1159 0.0088
vt 0.1159 0.0132
vt 0.1159 0.0176
vt 0.1159 0.0220
vt 0.1264 0.0000
vt 0.1264 0.0044
vt 0.1264 0.0088
vt 0.1264 0.0132
vt 0.1264 0.0176
vt 0.1264 0.0220
vt 0.1370 0.0000
vt 0.1370 0.0044
vt 0.1370 0.0088
vt 0.1370 0.0132
vt 0.1370 0.0176
vt 0.1370 0.0220
vt 0.1475 0.0000
vt 0.1475 0.0044
vt 0.1475 0.0088
vt 0.1475 0.0132
vt 0.1475 0.0176
vt 0.1475 0.0220
vt 0.1580 0.0000
vt 0.1580 0.0044
vt 0.1580 0.0088
vt 0.1580 0.0132
vt 0.1580 0.0176
vt 0.1580 0.0220
vt 0.1686 0.0000
vt 0.1686 0.0044
vt 0.1686 0.0088
vt 0.1686 0.0132
vt 0.1686 0.0176
vt 0.1686 0.0220
vn 0.000 1.000 0.000
vn -0.951 0.309 -0.000
vn -0.588 -0.809 -0.000
vn 0.588 -0.809 0.000
vn 0.951 0.309 0.000
vn 0.000 1.000 0.000
vn 0.000 1.000 0.000
vn -0.879 0.309 -0.364
vn -0.543 -0.809 -0.225
vn 0.543 -0.809 0.225
vn 0.879 0.309 0.364
vn 0.000 1.000 0.000
vn 0.000 1.000 0.000
vn -0.672 0.309 -0.672
vn -0.416 -0.809 -0.416
vn 0.416 -0.809 0.416
vn 0.672 0.309 0.672
vn 0.000 1.000 0.000
vn 0.000 1.000 0.000
vn -0.364 0.309 -0.879
vn -0.225 -0.809 -0.543
vn 0.225 -0.809 0.543
vn 0.364 0.309 0.879
vn 0.000 1.000 0.000
vn 0.000 1.000 0.000
vn 0.000 0.309 -0.951
vn 0.000 -0.809 -0.588
vn -0.000 -0.809 0.588
vn 0.000 0.309 0.951
vn 0.000 1.000 0.000
vn 0.000 1.000 0.000
vn 0.364 0.309 -0.879
vn 0.225 -0.809 -0.543
vn -0.225 -0.809 0.543
vn -0.364 0.309 0.879
vn -0.000 1.000 0.000
vn 0.000 1.000 0.000
vn 0.672 0.309 -0.672
vn 0.416 -0.809 -0.416
vn -0.416 -0.809 0.416
vn -0.672 0.309 0.672
vn -0.000 1.000 0.000
vn 0.000 1.000 0.000
vn 0.879 0.309 -0.364
vn 0.543 -0.809 -0.225
vn -0.543 -0.809 0.225
vn -0.879 0.309 0.364
vn -0.000 1.000 0.000
vn 0.000 1.000 0.000
vn 0.951 0.309 -0.000
vn 0.588 -0.809 -0.000
vn -0.588 -0.809 0.000
vn -0.951 0.309 0.000
vn -0.000 1.000 0.000
vn 0.000 1.000 0.000
vn 0.879 0.309 0.364
vn 0.543 -0.809 0.225
vn -0.543 -0.809 -0.225
vn -0.879 0.309 -0.364
vn -0.000 1.000 -0.000
vn 0.000 1.000 0.000
vn 0.672 0.309 0.672
vn 0.416 -0.809 0.416
vn -0.416 -0.809 -0.416
vn -0.672 0.309 -0.672
vn -0.000 1.000 -0.000
vn 0.000 1.000 0.000
vn 0.364 0.309 0.879
vn 0.225 -0.809 0.543
vn -0.225 -0.809 -0.543
vn -0.364 0.309 -0.879
vn -0.000 1.000 -0.000
vn 0.000 1.000 0.000
vn -0.000 0.309 0.951
vn -0.000 -0.809 0.588
vn 0.000 -0.809 -0.588
vn 0.000 0.309 -0.951
vn 0.000 1.000 -0.000
vn 0.000 1.000 0.000
vn -0.364 0.309 0.879
vn -0.225 -0.809 0.543
vn 0.225 -0.809 -0.543
vn 0.364 0.309 -0.879
vn 0.000 1.000 -0.000
vn 0.000 1.000 0.000
vn -0.672 0.309 0.672
vn -0.416 -0.809 0.416
vn 0.416 -0.809 -0.416
vn 0.672 0.309 -0.672
vn 0.000 1.000 -0.000
vn 0.000 1.000 0.000
vn -0.879 0.309 0.364
vn -0.543 -0.809 0.225
vn 0.543 -0.809 -0.225
vn 0.879 0.309 -0.364
vn 0.000 1.000 -0.000
vn 0.000 1.000 0.000
vn -0.951 0.309 -0.000
vn -0.588 -0.809 -0.000
vn 0.588 -0.809 0.000
vn 0.951 0.309 0.000
vn 0.000 1.000 0.000
vn 0.000 1.000 0.000
vn -0.951 0.309 -0.000
vn -0.588 -0.809 -0.000
vn 0.588 -0.809 0.000
vn 0.951 0.309 0.000
vn 0.000 1.000 0.000
vn 0.000 1.000 0.000
vn -0.879 0.309 -0.364
vn -0.543 -0.809 -0.225
vn 0.543 -0.809 0.225
vn 0.879 0.309 0.364
vn 0.000 1.000 0.000
vn 0.000 1.000 0.000
vn -0.672 0.309 -0.672
vn -0.416 -0.809 -0.416
vn 0.416 -0.809 0.416
vn 0.672 0.309 0.672
vn 0.000 1.000 0.000
vn 0.000 1.000 0.000
vn -0.364 0.309 -0.879
vn -0.225 -0.809 -0.543
vn 0.225 -0.809 0.543
vn 0.364 0.309 0.879
vn 0.000 1.000 0.000
vn 0.000 1.000 0.000
vn 0.000 0.309 -0.951
vn 0.000 -0.809 -0.588
vn -0.000 -0.809 0.588
vn 0.000 0.309 0.951
vn 0.000 1.000 0.000
vn 0.000 1.000 0.000
vn 0.364 0.309 -0.879
vn 0.225 -0.809 -0.543
vn -0.225 -0.809 0.543
vn -0.364 0.309 0.879
vn -0.000 1.000 0.000
vn 0.000 1.000 0.000
vn 0.672 0.309 -0.672
vn 0.416 -0.809 -0.416
vn -0.416 -0.809 0.416
vn -0.672 0.309 0.672
vn -0.000 1.000 0.000
vn 0.000 1.000 0.000
vn 0.879 0.309 -0.364
vn 0.543 -0.809 -0.225
vn -0.543 -0.809 0.225
vn -0.879 0.309 0.364
vn -0.000 1.000 0.000
vn 0.000 1.000 0.000
vn 0.951 0.309 -0.000
vn 0.588 -0.809 -0.000
vn -0.588 -0.809 0.000
vn -0.951 0.309 0.000
vn -0.000 1.000 0.000
vn 0.000 1.000 0.000
vn 0.879 0.309 0.364
vn 0.543 -0.809 0.225
vn -0.543 -0.809 -0.225
vn -0.879 0.309 -0.364
vn -0.000 1.000 -0.000
vn 0.000 1.000 0.000
vn 0.672 0.309 0.672
vn 0.416 -0.809 0.416
vn -0.416 -0.809 -0.416
vn -0.672 0.309 -0.672
vn -0.000 1.000 -0.000
vn 0.000 1.000 0.000
vn 0.364 0.309 0.879
vn 0.225 -0.809 0.543
vn -0.225 -0.809 -0.543
vn -0.364 0.309 -0.879
vn -0.000 1.000 -0.000
vn 0.000 1.000 0.000
vn -0.000 0.309 0.951
vn -0.000 -0.809 0.588
vn 0.000 -0.809 -0.588
vn 0.000 0.309 -0.951
vn 0.000 1.000 -0.000
vn 0.000 1.000 0.000
vn -0.364 0.309 0.879
vn -0.225 -0.809 0.543
vn 0.225 -0.809 -0.543
vn 0.364 0.309 -0.879
vn 0.000 1.000 -0.000
vn 0.000 1.000 0.000
vn -0.672 0.309 0.672
vn -0.416 -0.809 0.416
vn 0.416 -0.809 -0.416
vn 0.672 0.309 -0.672
vn 0.000 1.000 -0.000
vn 0.000 1.000 0.000
vn -0.879 0.309 0.364
vn -0.543 -0.809 0.225
vn 0.543 -0.809 -0.225
vn 0.879 0.309 -0.364
vn 0.000 1.000 -0.000
vn 0.000 1.000 0.000
vn -0.951 0.309 -0.000
vn -0.588 -0.809 -0.000
vn 0.588 -0.809 0.000
vn 0.951 0.309 0.000
vn 0.000 1.000 0.000
vn 0.000 1.000 0.000
vn -0.951 0.309 -0.000
vn -0.588 -0.809 -0.000
vn 0.588 -0.809 0.000
vn 0.951 0.309 0.000
vn 0.000 1.000 0.000
vn 0.000 1.000 0.000
vn -0.879 0.309 -0.364
vn -0.543 -0.809 -0.225
vn 0.543 -0.809 0.225
vn 0.879 0.309 0.364
vn 0.000 1.000 0.000
vn 0.000 1.000 0.000
vn -0.672 0.309 -0.672
vn -0.416 -0.809 -0.416
vn 0.416 -0.809 0.416
vn 0.672 0.309 0.672
vn 0.000 1.000 0.000
vn 0.000 1.000 0.000
vn -0.364 0.309 -0.879
vn -0.225 -0.809 -0.543
vn 0.225 -0.809 0.543
vn 0.364 0.309 0.879
vn 0.000 1.000 0.000
vn 0.000 1.000 0.000
vn 0.000 0.309 -0.951
vn 0.000 -0.809 -0.588
vn -0.000 -0.809 0.588
vn 0.000 0.309 0.951
vn 0.000 1.000 0.000
vn 0.000 1.000 0.000
vn 0.364 0.309 -0.879
vn 0.225 -0.809 -0.543
vn -0.225 -0.809 0.543
vn -0.364 0.309 0.879
vn -0.000 1.000 0.000
vn 0.000 1.000 0.000
vn 0.672 0.309 -0.672
vn 0.416 -0.809 -0.416
vn -0.416 -0.809 0.416
vn -0.672 0.309 0.672
vn -0.000 1.000 0.000
vn 0.000 1.000 0.000
vn 0.879 0.309 -0.364
vn 0.543 -0.809 -0.225
vn -0.543 -0.809 0.225
vn -0.879 0.309 0.364
vn -0.000 1.000 0.000
vn 0.000 1.000 0.000
vn 0.951 0.309 -0.000
vn 0.588 -0.809 -0.000
vn -0.588 -0.809 0.000
vn -0.951 0.309 0.000
vn -0.000 1.000 0.000
vn 0.000 1.000 0.000
vn 0.879 0.309 0.364
vn 0.543 -0.809 0.225
vn -0.543 -0.809 -0.225
vn -0.879 0.309 -0.364
vn -0.000 1.000 -0.000
vn 0.000 1.000 0.000
vn 0.672 0.309 0.672
vn 0.416 -0.809 0.416
vn -0.416 -0.809 -0.416
vn -0.672 0.309 -0.672
vn -0.000 1.000 -0.000
vn 0.000 1.000 0.000
vn 0.364 0.309 0.879
vn 0.225 -0.809 0.543
vn -0.225 -0.809 -0.543
vn -0.364 0.309 -0.879
vn -0.000 1.000 -0.000
vn 0.000 1.000 0.000
vn -0.000 0.309 0.951
vn -0.000 -0.809 0.588
vn 0.000 -0.809 -0.588
vn 0.000 0.309 -0.951
vn 0.000 1.000 -0.000
vn 0.000 1.000 0.000
vn -0.364 0.309 0.879
vn -0.225 -0.809 0.543
vn 0.225 -0.809 -0.543
vn 0.364 0.309 -0.879
vn 0.000 1.000 -0.000
vn 0.000 1.000 0.000
vn -0.672 0.309 0.672
vn -0.416 -0.809 0.416
vn 0.416 -0.809 -0.416
vn 0.672 0.309 -0.672
vn 0.000 1.000 -0.000
vn 0.000 1.000 0.000
vn -0.879 0.309 0.364
vn -0.543 -0.809 0.225
vn 0.543 -0.809 -0.225
vn 0.879 0.309 -0.364
vn 0.000 1.000 -0.000
vn 0.000 1.000 0.000
vn -0.951 0.309 -0.000
vn -0.588 -0.809 -0.000
vn 0.588 -0.809 0.000
vn 0.951 0.309 0.000
vn 0.000 1.000 0.000
v 0.0000 0.2550 0.0000
v 0.0280 0.2550 0.0000
v 0.0280 0.2850 0.0000
v 0.0220 0.2870 0.0000
v 0.0000 0.2870 0.0000
v 0.0000 0.2550 0.0000
v 0.0252 0.2550 -0.0121
v 0.0252 0.2850 -0.0121
v 0.0198 0.2870 -0.0095
v 0.0000 0.2870 0.0000
v 0.0000 0.2550 0.0000
v 0.0175 0.2550 -0.0219
v 0.0175 0.2850 -0.0219
v 0.0137 0.2870 -0.0172
v 0.0000 0.2870 0.0000
v 0.0000 0.2550 0.0000
v 0.0062 0.2550 -0.0273
v 0.0062 0.2850 -0.0273
v 0.0049 0.2870 -0.0214
v 0.0000 0.2870 0.0000
v 0.0000 0.2550 0.0000
v -0.0062 0.2550 -0.0273
v -0.0062 0.2850 -0.0273
v -0.0049 0.2870 -0.0214
v 0.0000 0.2870 0.0000
v 0.0000 0.2550 0.0000
v -0.0175 0.2550 -0.0219
v -0.0175 0.2850 -0.0219
v -0.0137 0.2870 -0.0172
v 0.0000 0.2870 0.0000
v 0.0000 0.2550 0.0000
v -0.0252 0.2550 -0.0121
v -0.0252 0.2850 -0.0121
v -0.0198 0.2870 -0.0095
v 0.0000 0.2870 0.0000
v 0.0000 0.2550 0.0000
v -0.0280 0.2550 -0.0000
v -0.0280 0.2850 -0.0000
v -0.0220 0.2870 -0.0000
v 0.0000 0.2870 0.0000
v 0.0000 0.2550 0.0000
v -0.0252 0.2550 0.0121
v -0.0252 0.2850 0.0121
v -0.0198 0.2870 0.0095
v 0.0000 0.2870 0.0000
v 0.0000 0.2550 0.0000
v -0.0175 0.2550 0.0219
v -0.0175 0.2850 0.0219
v -0.0137 0.2870 0.0172
v 0.0000 0.2870 0.0000
v 0.0000 0.2550 0.0000
v -0.0062 0.2550 0.0273
v -0.0062 0.2850 0.0273
v -0.0049 0.2870 0.0214
v 0.0000 0.2870 0.0000
v 0.0000 0.2550 0.0000
v 0.0062 0.2550 0.0273
v 0.0062 0.2850 0.0273
v 0.0049 0.2870 0.0214
v 0.0000 0.2870 0.0000
v 0.0000 0.2550 0.0000
v 0.0175 0.2550 0.0219
v 0.0175 0.2850 0.0219
v 0.0137 0.2870 0.0172
v 0.0000 0.2870 0.0000
v 0.0000 0.2550 0.0000
v 0.0252 0.2550 0.0121
v 0.0252 0.2850 0.0121
v 0.0198 0.2870 0.0095
v 0.0000 0.2870 0.0000
v 0.0000 0.2550 0.0000
v 0.0280 0.2550 0.0000
v 0.0280 0.2850 0.0000
v 0.0220 0.2870 0.0000
v 0.0000 0.2870 0.0000
v 0.0000 -0.0929 -0.0648
v 0.0080 -0.0929 -0.0648
v 0.0120 -0.0755 -0.0784
v 0.0090 -0.0740 -0.0796
v 0.0000 -0.0818 -0.0735
v 0.0000 -0.0929 -0.0648
v 0.0065 -0.0958 -0.0685
v 0.0097 -0.0799 -0.0839
v 0.0073 -0.0772 -0.0838
v 0.0000 -0.0818 -0.0735
v 0.0000 -0.0929 -0.0648
v 0.0025 -0.0976 -0.0708
v 0.0037 -0.0826 -0.0874
v 0.0028 -0.0792 -0.0864
v 0.0000 -0.0818 -0.0735
v 0.0000 -0.0929 -0.0648
v -0.0025 -0.0976 -0.0708
v -0.0037 -0.0826 -0.0874
v -0.0028 -0.0792 -0.0864
v 0.0000 -0.0818 -0.0735
v 0.0000 -0.0929 -0.0648
v -0.0065 -0.0958 -0.0685
v -0.0097 -0.0799 -0.0839
v -0.0073 -0.0772 -0.0838
v 0.0000 -0.0818 -0.0735
v 0.0000 -0.0929 -0.0648
v -0.0080 -0.0929 -0.0648
v -0.0120 -0.0755 -0.0784
v -0.0090 -0.0740 -0.0796
v 0.0000 -0.0818 -0.0735
v 0.0000 -0.0929 -0.0648
v -0.0065 -0.0900 -0.0611
v -0.0097 -0.0712 -0.0728
v -0.0073 -0.0707 -0.0755
v 0.0000 -0.0818 -0.0735
v 0.0000 -0.0929 -0.0648
v -0.0025 -0.0882 -0.0588
v -0.0037 -0.0685 -0.0694
v -0.0028 -0.0687 -0.0729
v 0.0000 -0.0818 -0.0735
v 0.0000 -0.0929 -0.0648
v 0.0025 -0.0882 -0.0588
v 0.0037 -0.0685 -0.0694
v 0.0028 -0.0687 -0.0729
v 0.0000 -0.0818 -0.0735
v 0.0000 -0.0929 -0.0648
v 0.0065 -0.0900 -0.0611
v 0.0097 -0.0712 -0.0728
v 0.0073 -0.0707 -0.0755
v 0.0000 -0.0818 -0.0735
v 0.0000 -0.0929 -0.0648
v 0.0080 -0.0929 -0.0648
v 0.0120 -0.0755 -0.0784
v 0.0090 -0.0740 -0.0796
v 0.0000 -0.0818 -0.0735
vt 0.0000 0.0000
vt 0.0000 0.0280
vt 0.0000 0.0580
vt 0.0000 0.0643
vt 0.0000 0.0863
vt 0.0126 0.0000
vt 0.0126 0.0280
vt 0.0126 0.0580
vt 0.0126 0.0643
vt 0.0126 0.0863
vt 0.0251 0.0000
vt 0.0251 0.0280
vt 0.0251 0.0580
vt 0.0251 0.0643
vt 0.0251 0.0863
vt 0.0377 0.0000
vt 0.0377 0.0280
vt 0.0377 0.0580
vt 0.0377 0.0643
vt 0.0377 0.0863
vt 0.0503 0.0000
vt 0.0503 0.0280
vt 0.0503 0.0580
vt 0.0503 0.0643
vt 0.0503 0.0863
vt 0.0628 0.0000
vt 0.0628 0.0280
vt 0.0628 0.0580
vt 0.0628 0.0643
vt 0.0628 0.0863
vt 0.0754 0.0000
vt 0.0754 0.0280
vt 0.0754 0.0580
vt 0.0754 0.0643
vt 0.0754 0.0863
vt 0.0880 0.0000
vt 0.0880 0.0280
vt 0.0880 0.0580
vt 0.0880 0.0643
vt 0.0880 0.0863
vt 0.1005 0.0000
vt 0.1005 0.0280
vt 0.1005 0.0580
vt 0.1005 0.0643
vt 0.1005 0.0863
vt 0.1131 0.0000
vt 0.1131 0.0280
vt 0.1131 0.0580
vt 0.1131 0.0643
vt 0.1131 0.0863
vt 0.1257 0.0000
vt 0.1257 0.0280
vt 0.1257 0.0580
vt 0.1257 0.0643
vt 0.1257 0.0863
vt 0.1382 0.0000
vt 0.1382 0.0280
vt 0.1382 0.0580
vt 0.1382 0.0643
vt 0.1382 0.0863
vt 0.1508 0.0000
vt 0.1508 0.0280
vt 0.1508 0.0580
vt 0.1508 0.0643
vt 0.1508 0.0863
vt 0.1634 0.0000
vt 0.1634 0.0280
vt 0.1634 0.0580
vt 0.1634 0.0643
vt 0.1634 0.0863
vt 0.1759 0.0000
vt 0.1759 0.0280
vt 0.1759 0.0580
vt 0.1759 0.0643
vt 0.1759 0.0863
vt 0.0000 0.0000
vt 0.0000 0.0080
vt 0.0000 0.0304
vt 0.0000 0.0340
vt 0.0000 0.0474
vt 0.0075 0.0000
vt 0.0075 0.0080
vt 0.0075 0.0304
vt 0.0075 0.0340
vt 0.0075 0.0474
vt 0.0151 0.0000
vt 0.0151 0.0080
vt 0.0151 0.0304
vt 0.0151 0.0340
vt 0.0151 0.0474
vt 0.0226 0.0000
vt 0.0226 0.0080
vt 0.0226 0.0304
vt 0.0226 0.0340
vt 0.0226 0.0474
vt 0.0302 0.0000
vt 0.0302 0.0080
vt 0.0302 0.0304
vt 0.0302 0.0340
vt 0.0302 0.0474
vt 0.0377 0.0000
vt 0.0377 0.0080
vt 0.0377 0.0304
vt 0.0377 0.0340
vt 0.0377 0.0474
vt 0.0452 0.0000
vt 0.0452 0.0080
vt 0.0452 0.0304
vt 0.0452 0.0340
vt 0.0452 0.0474
vt 0.0528 0.0000
vt 0.0528 0.0080
vt 0.0528 0.0304
vt 0.0528 0.0340
vt 0.0528 0.0474
vt 0.0603 0.0000
vt 0.0603 0.0080
vt 0.0603 0.0304
vt 0.0603 0.0340
vt 0.0603 0.0474
vt 0.0679 0.0000
vt 0.0679 0.0080
vt 0.0679 0.0304
vt 0.0679 0.0340
vt 0.0679 0.0474
vt 0.0754 0.0000
vt 0.0754 0.0080
vt 0.0754 0.0304
vt 0.0754 0.0340
vt 0.0754 0.0474
vn 0.000 -1.000 0.000
vn 0.731 -0.682 0.000
vn 0.983 0.184 0.000
vn 0.071 0.997 0.000
vn 0.000 1.000 0.000
vn 0.000 -1.000 0.000
vn 0.659 -0.682 -0.317
vn 0.886 0.184 -0.426
vn 0.064 0.997 -0.031
vn 0.000 1.000 0.000
vn 0.000 -1.000 0.000
vn 0.456 -0.682 -0.572
vn 0.613 0.184 -0.768
vn 0.044 0.997 -0.056
vn 0.000 1.000 0.000
vn 0.000 -1.000 0.000
vn 0.163 -0.682 -0.713
vn 0.219 0.184 -0.958
vn 0.016 0.997 -0.069
vn 0.000 1.000 0.000
vn -0.000 -1.000 -0.000
vn -0.163 -0.682 -0.713
vn -0.219 0.184 -0.958
vn -0.016 0.997 -0.069
vn 0.000 1.000 0.000
vn -0.000 -1.000 -0.000
vn -0.456 -0.682 -0.572
vn -0.613 0.184 -0.768
vn -0.044 0.997 -0.056
vn 0.000 1.000 0.000
vn -0.000 -1.000 -0.000
vn -0.659 -0.682 -0.317
vn -0.886 0.184 -0.426
vn -0.064 0.997 -0.031
vn 0.000 1.000 0.000
vn -0.000 -1.000 -0.000
vn -0.731 -0.682 -0.000
vn -0.983 0.184 -0.000
vn -0.071 0.997 -0.000
vn 0.000 1.000 0.000
vn 0.000 -1.000 0.000
vn -0.659 -0.682 0.317
vn -0.886 0.184 0.426
vn -0.064 0.997 0.031
vn 0.000 1.000 0.000
vn 0.000 -1.000 0.000
vn -0.456 -0.682 0.572
vn -0.613 0.184 0.768
vn -0.044 0.997 0.056
vn 0.000 1.000 0.000
vn 0.000 -1.000 0.000
vn -0.163 -0.682 0.713
vn -0.219 0.184 0.958
vn -0.016 0.997 0.069
vn 0.000 1.000 0.000
vn 0.000 -1.000 0.000
vn 0.163 -0.682 0.713
vn 0.219 0.184 0.958
vn 0.016 0.997 0.069
vn 0.000 1.000 0.000
vn 0.000 -1.000 0.000
vn 0.456 -0.682 0.572
vn 0.613 0.184 0.768
vn 0.044 0.997 0.056
vn 0.000 1.000 0.000
vn 0.000 -1.000 0.000
vn 0.659 -0.682 0.317
vn 0.886 0.184 0.426
vn 0.064 0.997 0.031
vn 0.000 1.000 0.000
vn 0.000 -1.000 0.000
vn 0.731 -0.682 0.000
vn 0.983 0.184 0.000
vn 0.071 0.997 0.000
vn 0.000 1.000 0.000
vn 0.000 -0.788 0.616
vn 0.878 -0.377 0.295
vn 0.999 -0.033 0.026
vn -0.555 0.656 -0.512
vn -0.743 0.527 -0.412
vn 0.000 -0.788 0.616
vn 0.710 -0.695 -0.112
vn 0.808 -0.394 -0.437
vn -0.449 0.856 -0.255
vn -0.601 0.796 -0.068
vn 0.000 -0.788 0.616
vn 0.271 -0.891 -0.363
vn 0.309 -0.618 -0.723
vn -0.171 0.980 -0.097
vn -0.230 0.962 0.145
vn 0.000 -0.788 0.616
vn -0.271 -0.891 -0.363
vn -0.309 -0.618 -0.723
vn 0.171 0.980 -0.097
vn 0.230 0.962 0.145
vn 0.000 -0.788 0.616
vn -0.710 -0.695 -0.112
vn -0.808 -0.394 -0.437
vn 0.449 0.856 -0.255
vn 0.601 0.796 -0.068
vn 0.000 -0.788 0.616
vn -0.878 -0.377 0.295
vn -0.999 -0.033 0.026
vn 0.555 0.656 -0.512
vn 0.743 0.527 -0.412
vn -0.000 -0.788 0.616
vn -0.710 -0.060 0.701
vn -0.808 0.329 0.488
vn 0.449 0.455 -0.769
vn 0.601 0.258 -0.756
vn -0.000 -0.788 0.616
vn -0.271 0.137 0.953
vn -0.309 0.552 0.774
vn 0.171 0.331 -0.928
vn 0.230 0.092 -0.969
vn 0.000 -0.788 0.616
vn 0.271 0.137 0.953
vn 0.309 0.552 0.774
vn -0.171 0.331 -0.928
vn -0.230 0.092 -0.969
vn 0.000 -0.788 0.616
vn 0.710 -0.060 0.701
vn 0.808 0.329 0.488
vn -0.449 0.455 -0.769
vn -0.601 0.258 -0.756
vn 0.000 -0.788 0.616
vn 0.878 -0.377 0.295
vn 0.999 -0.033 0.026
vn -0.555 0.656 -0.512
vn -0.743 0.527 -0.412
usemtl bamboo
f 1/1/1 2/2/2 17/17/17
f 1/1/1 17/17/17 16/16/16
f 2/2/2 3/3/3 18/18/18
f 2/2/2 18/18/18 17/17/17
f 3/3/3 4/4/4 19/19/19
f 3/3/3 19/19/19 18/18/18
f 4/4/4 5/5/5 20/20/20
f 4/4/4 20/20/20 19/19/19
f 5/5/5 6/6/6 21/21/21
f 5/5/5 21/21/21 20/20/20
f 6/6/6 7/7/7 22/22/22
f 6/6/6 22/22/22 21/21/21
f 7/7/7 8/8/8 23/23/23
f 7/7/7 23/23/23 22/22/22
f 8/8/8 9/9/9 24/24/24
f 8/8/8 24/24/24 23/23/23
f 9/9/9 10/10/10 25/25/25
f 9/9/9 25/25/25 24/24/24
f 10/10/10 11/11/11 26/26/26
f 10/10/10 26/26/26 25/25/25
f 11/11/11 12/12/12 27/27/27
f 11/11/11 27/27/27 26/26/26
f 12/12/12 13/13/13 28/28/28
f 12/12/12 28/28/28 27/27/27
f 13/13/13 14/14/14 29/29/29
f 13/13/13 29/29/29 28/28/28
f 14/14/14 15/15/15 30/30/30
f 14/14/14 30/30/30 29/29/29
f 31/31/31 33/33/33 32/32/32
f 31/31/31 34/34/34 33/33/33
f 31/31/31 35/35/35 34/34/34
f 31/31/31 36/36/36 35/35/35
f 31/31/31 37/37/37 36/36/36
f 31/31/31 38/38/38 37/37/37
f 31/31/31 39/39/39 38/38/38
f 31/31/31 40/40/40 39/39/39
f 31/31/31 41/41/41 40/40/40
f 31/31/31 42/42/42 41/41/41
f 31/31/31 43/43/43 42/42/42
f 31/31/31 44/44/44 43/43/43
f 31/31/31 45/45/45 44/44/44
f 31/31/31 32/32/32 45/45/45
f 46/46/46 47/47/47 48/48/48
f 46/46/46 48/48/48 49/49/49
f 46/46/46 49/49/49 50/50/50
f 46/46/46 50/50/50 51/51/51
f 46/46/46 51/51/51 52/52/52
f 46/46/46 52/52/52 53/53/53
f 46/46/46 53/53/53 54/54/54
f 46/46/46 54/54/54 55/55/55
f 46/46/46 55/55/55 56/56/56
f 46/46/46 56/56/56 57/57/57
f 46/46/46 57/57/57 58/58/58
f 46/46/46 58/58/58 59/59/59
f 46/46/46 59/59/59 60/60/60
f 46/46/46 60/60/60 47/47/47
f 61/61/61 62/62/62 71/71/71
f 61/61/61 71/71/71 70/70/70
f 62/62/62 63/63/63 72/72/72
f 62/62/62 72/72/72 71/71/71
f 63/63/63 64/64/64 73/73/73
f 63/63/63 73/73/73 72/72/72
f 64/64/64 65/65/65 74/74/74
f 64/64/64 74/74/74 73/73/73
f 65/65/65 66/66/66 75/75/75
f 65/65/65 75/75/75 74/74/74
f 66/66/66 67/67/67 76/76/76
f 66/66/66 76/76/76 75/75/75
f 67/67/67 68/68/68 77/77/77
f 67/67/67 77/77/77 76/76/76
f 68/68/68 69/69/69 78/78/78
f 68/68/68 78/78/78 77/77/77
f 79/79/79 81/81/81 80/80/80
f 79/79/79 82/82/82 81/81/81
f 79/79/79 83/83/83 82/82/82
f 79/79/79 84/84/84 83/83/83
f 79/79/79 85/85/85 84/84/84
f 79/79/79 86/86/86 85/85/85
f 79/79/79 87/87/87 86/86/86
f 79/79/79 80/80/80 87/87/87
f 88/88/88 89/89/89 90/90/90
f 88/88/88 90/90/90 91/91/91
f 88/88/88 91/91/91 92/92/92
f 88/88/88 92/92/92 93/93/93
f 88/88/88 93/93/93 94/94/94
f 88/88/88 94/94/94 95/95/95
f 88/88/88 95/95/95 96/96/96
f 88/88/88 96/96/96 89/89/89
usemtl node
f 97/97/97 98/98/98 104/104/104
f 97/97/97 104/104/104 103/103/103
f 98/98/98 99/99/99 105/105/105
f 98/98/98 105/105/105 104/104/104
f 99/99/99 100/100/100 106/106/106
f 99/99/99 106/106/106 105/105/105
f 100/100/100 101/101/101 107/107/107
f 100/100/100 107/107/107 106/106/106
f 101/101/101 102/102/102 108/108/108
f 101/101/101 108/108/108 107/107/107
f 103/103/103 104/104/104 110/110/110
f 103/103/103 110/110/110 109/109/109
f 104/104/104 105/105/105 111/111/111
f 104/104/104 111/111/111 110/110/110
f 105/105/105 106/106/106 112/112/112
f 105/105/105 112/112/112 111/111/111
f 106/106/106 107/107/107 113/113/113
f 106/106/106 113/113/113 112/112/112
f 107/107/107 108/108/108 114/114/114
f 107/107/107 114/114/114 113/113/113
f 109/109/109 110/110/110 116/116/116
f 109/109/109 116/116/116 115/115/115
f 110/110/110 111/111/111 117/117/117
f 110/110/110 117/117/117 116/116/116
f 111/111/111 112/112/112 118/118/118
f 111/111/111 118/118/118 117/117/117
f 112/112/112 113/113/113 119/119/119
f 112/112/112 119/119/119 118/118/118
f 113/113/113 114/114/114 120/120/120
f 113/113/113 120/120/120 119/119/119
f 115/115/115 116/116/116 122/122/122
f 115/115/115 122/122/122 121/121/121
f 116/116/116 117/117/117 123/123/123
f 116/116/116 123/123/123 122/122/122
f 117/117/117 118/118/118 124/124/124
f 117/117/117 124/124/124 123/123/123
f 118/118/118 119/119/119 125/125/125
f 118/118/118 125/125/125 124/124/124
f 119/119/119 120/120/120 126/126/126
f 119/119/119 126/126/126 125/125/125
f 121/121/121 122/122/122 128/128/128
f 121/121/121 128/128/128 127/127/127
f 122/122/122 123/123/123 129/129/129
f 122/122/122 129/129/129 128/128/128
f 123/123/123 124/124/124 130/130/130
f 123/123/123 130/130/130 129/129/129
f 124/124/124 125/125/125 131/131/131
f 124/124/124 131/131/131 130/130/130
f 125/125/125 126/126/126 132/132/132
f 125/125/125 132/132/132 131/131/131
f 127/127/127 128/128/128 134/134/134
f 127/127/127 134/134/134 133/133/133
f 128/128/128 129/129/129 135/135/135
f 128/128/128 135/135/135 134/134/134
f 129/129/129 130/130/130 136/136/136
f 129/129/129 136/136/136 135/135/135
f 130/130/130 131/131/131 137/137/137
f 130/130/130 137/137/137 136/136/136
f 131/131/131 132/132/132 138/138/138
f 131/131/131 138/138/138 137/137/137
f 133/133/133 134/134/134 140/140/140
f 133/133/133 140/140/140 139/139/139
f 134/134/134 135/135/135 141/141/141
f 134/134/134 141/141/141 140/140/140
f 135/135/135 136/136/136 142/142/142
f 135/135/135 142/142/142 141/141/141
f 136/136/136 137/137/137 143/143/143
f 136/136/136 143/143/143 142/142/142
f 137/137/137 138/138/138 144/144/144
f 137/137/137 144/144/144 143/143/143
f 139/139/139 140/140/140 146/146/146
f 139/139/139 146/146/146 145/145/145
f 140/140/140 141/141/141 147/147/147
f 140/140/140 147/147/147 146/146/146
f 141/141/141 142/142/142 148/148/148
f 141/141/141 148/148/148 147/147/147
f 142/142/142 143/143/143 149/149/149
f 142/142/142 149/149/149 148/148/148
f 143/143/143 144/144/144 150/150/150
f 143/143/143 150/150/150 149/149/149
f 145/145/145 146/146/146 152/152/152
f 145/145/145 152/152/152 151/151/151
f 146/146/146 147/147/147 153/153/153
f 146/146/146 153/153/153 152/152/152
f 147/147/147 148/148/148 154/154/154
f 147/147/147 154/154/154 153/153/153
f 148/148/148 149/149/149 155/155/155
f 148/148/148 155/155/155 154/154/154
f 149/149/149 150/150/150 156/156/156
f 149/149/149 156/156/156 155/155/155
f 151/151/151 152/152/152 158/158/158
f 151/151/151 158/158/158 157/157/157
f 152/152/152 153/153/153 159/159/159
f 152/152/152 159/159/159 158/158/158
f 153/153/153 154/154/154 160/160/160
f 153/153/153 160/160/160 159/159/159
f 154/154/154 155/155/155 161/161/161
f 154/154/154 161/161/161 160/160/160
f 155/155/155 156/156/156 162/162/162
f 155/155/155 162/162/162 161/161/161
f 157/157/157 158/158/158 164/164/164
f 157/157/157 164/164/164 163/163/163
f 158/158/158 159/159/159 165/165/165
f 158/158/158 165/165/165 164/164/164
f 159/159/159 160/160/160 166/166/166
f 159/159/159 166/166/166 165/165/165
f 160/160/160 161/161/161 167/167/167
f 160/160/160 167/167/167 166/166/166
f 161/161/161 162/162/162 168/168/168
f 161/161/161 168/168/168 167/167/167
f 163/163/163 164/164/164 170/170/170
f 163/163/163 170/170/170 169/169/169
f 164/164/164 165/165/165 171/171/171
f 164/164/164 171/171/171 170/170/170
f 165/165/165 166/166/166 172/172/172
f 165/165/165 172/172/172 171/171/171
f 166/166/166 167/167/167 173/173/173
f 166/166/166 173/173/173 172/172/172
f 167/167/167 168/168/168 174/174/174
f 167/167/167 174/174/174 173/173/173
f 169/169/169 170/170/170 176/176/176
f 169/169/169 176/176/176 175/175/175
f 170/170/170 171/171/171 177/177/177
f 170/170/170 177/177/177 176/176/176
f 171/171/171 172/172/172 178/178/178
f 171/171/171 178/178/178 177/177/177
f 172/172/172 173/173/173 179/179/179
f 172/172/172 179/179/179 178/178/178
f 173/173/173 174/174/174 180/180/180
f 173/173/173 180/180/180 179/179/179
f 175/175/175 176/176/176 182/182/182
f 175/175/175 182/182/182 181/181/181
f 176/176/176 177/177/177 183/183/183
f 176/176/176 183/183/183 182/182/182
f 177/177/177 178/178/178 184/184/184
f 177/177/177 184/184/184 183/183/183
f 178/178/178 179/179/179 185/185/185
f 178/178/178 185/185/185 184/184/184
f 179/179/179 180/180/180 186/186/186
f 179/179/179 186/186/186 185/185/185
f 181/181/181 182/182/182 188/188/188
f 181/181/181 188/188/188 187/187/187
f 182/182/182 183/183/183 189/189/189
f 182/182/182 189/189/189 188/188/188
f 183/183/183 184/184/184 190/190/190
f 183/183/183 190/190/190 189/189/189
f 184/184/184 185/185/185 191/191/191
f 184/184/184 191/191/191 190/190/190
f 185/185/185 186/186/186 192/192/192
f 185/185/185 192/192/192 191/191/191
f 187/187/187 188/188/188 194/194/194
f 187/187/187 194/194/194 193/193/193
f 188/188/188 189/189/189 195/195/195
f 188/188/188 195/195/195 194/194/194
f 189/189/189 190/190/190 196/196/196
f 189/189/189 196/196/196 195/195/195
f 190/190/190 191/191/191 197/197/197
f 190/190/190 197/197/197 196/196/196
f 191/191/191 192/192/192 198/198/198
f 191/191/191 198/198/198 197/197/197
f 199/199/199 200/200/200 206/206/206
f 199/199/199 206/206/206 205/205/205
f 200/200/200 201/201/201 207/207/207
f 200/200/200 207/207/207 206/206/206
f 201/201/201 202/202/202 208/208/208
f 201/201/201 208/208/208 207/207/207
f 202/202/202 203/203/203 209/209/209
f 202/202/202 209/209/209 208/208/208
f 203/203/203 204/204/204 210/210/210
f 203/203/203 210/210/210 209/209/209
f 205/205/205 206/206/206 212/212/212
f 205/205/205 212/212/212 211/211/211
f 206/206/206 207/207/207 213/213/213
f 206/206/206 213/213/213 212/212/212
f 207/207/207 208/208/208 214/214/214
f 207/207/207 214/214/214 213/213/213
f 208/208/208 209/209/209 215/215/215
f 208/208/208 215/215/215 214/214/214
f 209/209/209 210/210/210 216/216/216
f 209/209/209 216/216/216 215/215/215
f 211/211/211 212/212/212 218/218/218
f 211/211/211 218/218/218 217/217/217
f 212/212/212 213/213/213 219/219/219
f 212/212/212 219/219/219 218/218/218
f 213/213/213 214/214/214 220/220/220
f 213/213/213 220/220/220 219/219/219
f 214/214/214 215/215/215 221/221/221
f 214/214/214 221/221/221 220/220/220
f 215/215/215 216/216/216 222/222/222
f 215/215/215 222/222/222 221/221/221
f 217/217/217 218/218/218 224/224/224
f 217/217/217 224/224/224 223/223/223
f 218/218/218 219/219/219 225/225/225
f 218/218/218 225/225/225 224/224/224
f 219/219/219 220/220/220 226/226/226
f 219/219/219 226/226/226 225/225/225
f 220/220/220 221/221/221 227/227/227
f 220/220/220 227/227/227 226/226/226
f 221/221/221 222/222/222 228/228/228
f 221/221/221 228/228/228 227/227/227
f 223/223/223 224/224/224 230/230/230
f 223/223/223 230/230/230 229/229/229
f 224/224/224 225/225/225 231/231/231
f 224/224/224 231/231/231 230/230/230
f 225/225/225 226/226/226 232/232/232
f 225/225/225 232/232/232 231/231/231
f 226/226/226 227/227/227 233/233/233
f 226/226/226 233/233/233 232/232/232
f 227/227/227 228/228/228 234/234/234
f 227/227/227 234/234/234 233/233/233
f 229/229/229 230/230/230 236/236/236
f 229/229/229 236/236/236 235/235/235
f 230/230/230 231/231/231 237/237/237
f 230/230/230 237/237/237 236/236/236
f 231/231/231 232/232/232 238/238/238
f 231/231/231 238/238/238 237/237/237
f 232/232/232 233/233/233 239/239/239
f 232/232/232 239/239/239 238/238/238
f 233/233/233 234/234/234 240/240/240
f 233/233/233 240/240/240 239/239/239
f 235/235/235 236/236/236 242/242/242
f 235/235/235 242/242/242 241/241/241
f 236/236/236 237/237/237 243/243/243
f 236/236/236 243/243/243 242/242/242
f 237/237/237 238/238/238 244/244/244
f 237/237/237 244/244/244 243/243/243
f 238/238/238 239/239/239 245/245/245
f 238/238/238 245/245/245 244/244/244
f 239/239/239 240/240/240 246/246/246
f 239/239/239 246/246/246 245/245/245
f 241/241/241 242/242/242 248/248/248
f 241/241/241 248/248/248 247/247/247
f 242/242/242 243/243/243 249/249/249
f 242/242/242 249/249/249 248/248/248
f 243/243/243 244/244/244 250/250/250
f 243/243/243 250/250/250 249/249/249
f 244/244/244 245/245/245 251/251/251
f 244/244/244 251/251/251 250/250/250
f 245/245/245 246/246/246 252/252/252
f 245/245/245 252/252/252 251/251/251
f 247/247/247 248/248/248 254/254/254
f 247/247/247 254/254/254 253/253/253
f 248/248/248 249/249/249 255/255/255
f 248/248/248 255/255/255 254/254/254
f 249/249/249 250/250/250 256/256/256
f 249/249/249 256/256/256 255/255/255
f 250/250/250 251/251/251 257/257/257
f 250/250/250 257/257/257 256/256/256
f 251/251/251 252/252/252 258/258/258
f 251/251/251 258/258/258 257/257/257
f 253/253/253 254/254/254 260/260/260
f 253/253/253 260/260/260 259/259/259
f 254/254/254 255/255/255 261/261/261
f 254/254/254 261/261/261 260/260/260
f 255/255/255 256/256/256 262/262/262
f 255/255/255 262/262/262 261/261/261
f 256/256/256 257/257/257 263/263/263
f 256/256/256 263/263/263 262/262/262
f 257/257/257 258/258/258 264/264/264
f 257/257/257 264/264/264 263/263/263
f 259/259/259 260/260/260 266/266/266
f 259/259/259 266/266/266 265/265/265
f 260/260/260 261/261/261 267/267/267
f 260/260/260 267/267/267 266/266/266
f 261/261/261 262/262/262 268/268/268
f 261/261/261 268/268/268 267/267/267
f 262/262/262 263/263/263 269/269/269
f 262/262/262 269/269/269 268/268/268
f 263/263/263 264/264/264 270/270/270
f 263/263/263 270/270/270 269/269/269
f 265/265/265 266/266/266 272/272/272
f 265/265/265 272/272/272 271/271/271
f 266/266/266 267/267/267 273/273/273
f 266/266/266 273/273/273 272/272/272
f 267/267/267 268/268/268 274/274/274
f 267/267/267 274/274/274 273/273/273
f 268/268/268 269/269/269 275/275/275
f 268/268/268 275/275/275 274/274/274
f 269/269/269 270/270/270 276/276/276
f 269/269/269 276/276/276 275/275/275
f 271/271/271 272/272/272 278/278/278
f 271/271/271 278/278/278 277/277/277
f 272/272/272 273/273/273 279/279/279
f 272/272/272 279/279/279 278/278/278
f 273/273/273 274/274/274 280/280/280
f 273/273/273 280/280/280 279/279/279
f 274/274/274 275/275/275 281/281/281
f 274/274/274 281/281/281 280/280/280
f 275/275/275 276/276/276 282/282/282
f 275/275/275 282/282/282 281/281/281
f 277/277/277 278/278/278 284/284/284
f 277/277/277 284/284/284 283/283/283
f 278/278/278 279/279/279 285/285/285
f 278/278/278 285/285/285 284/284/284
f 279/279/279 280/280/280 286/286/286
f 279/279/279 286/286/286 285/285/285
f 280/280/280 281/281/281 287/287/287
f 280/280/280 287/287/287 286/286/286
f 281/281/281 282/282/282 288/288/288
f 281/281/281 288/288/288 287/287/287
f 283/283/283 284/284/284 290/290/290
f 283/283/283 290/290/290 289/289/289
f 284/284/284 285/285/285 291/291/291
f 284/284/284 291/291/291 290/290/290
f 285/285/285 286/286/286 292/292/292
f 285/285/285 292/292/292 291/291/291
f 286/286/286 287/287/287 293/293/293
f 286/286/286 293/293/293 292/292/292
f 287/287/287 288/288/288 294/294/294
f 287/287/287 294/294/294 293/293/293
f 289/289/289 290/290/290 296/296/296
f 289/289/289 296/296/296 295/295/295
f 290/290/290 291/291/291 297/297/297
f 290/290/290 297/297/297 296/296/296
f 291/291/291 292/292/292 298/298/298
f 291/291/291 298/298/298 297/297/297
f 292/292/292 293/293/293 299/299/299
f 292/292/292 299/299/299 298/298/298
f 293/293/293 294/294/294 300/300/300
f 293/293/293 300/300/300 299/299/299
f 301/301/301 302/302/302 308/308/308
f 301/301/301 308/308/308 307/307/307
f 302/302/302 303/303/303 309/309/309
f 302/302/302 309/309/309 308/308/308
f 303/303/303 304/304/304 310/310/310
f 303/303/303 310/310/310 309/309/309
f 304/304/304 305/305/305 311/311/311
f 304/304/304 311/311/311 310/310/310
f 305/305/305 306/306/306 312/312/312
f 305/305/305 312/312/312 311/311/311
f 307/307/307 308/308/308 314/314/314
f 307/307/307 314/314/314 313/313/313
f 308/308/308 309/309/309 315/315/315
f 308/308/308 315/315/315 314/314/314
f 309/309/309 310/310/310 316/316/316
f 309/309/309 316/316/316 315/315/315
f 310/310/310 311/311/311 317/317/317
f 310/310/310 317/317/317 316/316/316
f 311/311/311 312/312/312 318/318/318
f 311/311/311 318/318/318 317/317/317
f 313/313/313 314/314/314 320/320/320
f 313/313/313 320/320/320 319/319/319
f 314/314/314 315/315/315 321/321/321
f 314/314/314 321/321/321 320/320/320
f 315/315/315 316/316/316 322/322/322
f 315/315/315 322/322/322 321/321/321
f 316/316/316 317/317/317 323/323/323
f 316/316/316 323/323/323 322/322/322
f 317/317/317 318/318/318 324/324/324
f 317/317/317 324/324/324 323/323/323
f 319/319/319 320/320/320 326/326/326
f 319/319/319 326/326/326 325/325/325
f 320/320/320 321/321/321 327/327/327
f 320/320/320 327/327/327 326/326/326
f 321/321/321 322/322/322 328/328/328
f 321/321/321 328/328/328 327/327/327
f 322/322/322 323/323/323 329/329/329
f 322/322/322 329/329/329 328/328/328
f 323/323/323 324/324/324 330/330/330
f 323/323/323 330/330/330 329/329/329
f 325/325/325 326/326/326 332/332/332
f 325/325/325 332/332/332 331/331/331
f 326/326/326 327/327/327 333/333/333
f 326/326/326 333/333/333 332/332/332
f 327/327/327 328/328/328 334/334/334
f 327/327/327 334/334/334 333/333/333
f 328/328/328 329/329/329 335/335/335
f 328/328/328 335/335/335 334/334/334
f 329/329/329 330/330/330 336/336/336
f 329/329/329 336/336/336 335/335/335
f 331/331/331 332/332/332 338/338/338
f 331/331/331 338/338/338 337/337/337
f 332/332/332 333/333/333 339/339/339
f 332/332/332 339/339/339 338/338/338
f 333/333/333 334/334/334 340/340/340
f 333/333/333 340/340/340 339/339/339
f 334/334/334 335/335/335 341/341/341
f 334/334/334 341/341/341 340/340/340
f 335/335/335 336/336/336 342/342/342
f 335/335/335 342/342/342 341/341/341
f 337/337/337 338/338/338 344/344/344
f 337/337/337 344/344/344 343/343/343
f 338/338/338 339/339/339 345/345/345
f 338/338/338 345/345/345 344/344/344
f 339/339/339 340/340/340 346/346/346
f 339/339/339 346/346/346 345/345/345
f 340/340/340 341/341/341 347/347/347
f 340/340/340 347/347/347 346/346/346
f 341/341/341 342/342/342 348/348/348
f 341/341/341 348/348/348 347/347/347
f 343/343/343 344/344/344 350/350/350
f 343/343/343 350/350/350 349/349/349
f 344/344/344 345/345/345 351/351/351
f 344/344/344 351/351/351 350/350/350
f 345/345/345 346/346/346 352/352/352
f 345/345/345 352/352/352 351/351/351
f 346/346/346 347/347/347 353/353/353
f 346/346/346 353/353/353 352/352/352
f 347/347/347 348/348/348 354/354/354
f 347/347/347 354/354/354 353/353/353
f 349/349/349 350/350/350 356/356/356
f 349/349/349 356/356/356 355/355/355
f 350/350/350 351/351/351 357/357/357
f 350/350/350 357/357/357 356/356/356
f 351/351/351 352/352/352 358/358/358
f 351/351/351 358/358/358 357/357/357
f 352/352/352 353/353/353 359/359/359
f 352/352/352 359/359/359 358/358/358
f 353/353/353 354/354/354 360/360/360
f 353/353/353 360/360/360 359/359/359
f 355/355/355 356/356/356 362/362/362
f 355/355/355 362/362/362 361/361/361
f 356/356/356 357/357/357 363/363/363
f 356/356/356 363/363/363 362/362/362
f 357/357/357 358/358/358 364/364/364
f 357/357/357 364/364/364 363/363/363
f 358/358/358 359/359/359 365/365/365
f 358/358/358 365/365/365 364/364/364
f 359/359/359 360/360/360 366/366/366
f 359/359/359 366/366/366 365/365/365
f 361/361/361 362/362/362 368/368/368
f 361/361/361 368/368/368 367/367/367
f 362/362/362 363/363/363 369/369/369
f 362/362/362 369/369/369 368/368/368
f 363/363/363 364/364/364 370/370/370
f 363/363/363 370/370/370 369/369/369
f 364/364/364 365/365/365 371/371/371
f 364/364/364 371/371/371 370/370/370
f 365/365/365 366/366/366 372/372/372
f 365/365/365 372/372/372 371/371/371
f 367/367/367 368/368/368 374/374/374
f 367/367/367 374/374/374 373/373/373
f 368/368/368 369/369/369 375/375/375
f 368/368/368 375/375/375 374/374/374
f 369/369/369 370/370/370 376/376/376
f 369/369/369 376/376/376 375/375/375
f 370/370/370 371/371/371 377/377/377
f 370/370/370 377/377/377 376/376/376
f 371/371/371 372/372/372 378/378/378
f 371/371/371 378/378/378 377/377/377
f 373/373/373 374/374/374 380/380/380
f 373/373/373 380/380/380 379/379/379
f 374/374/374 375/375/375 381/381/381
f 374/374/374 381/381/381 380/380/380
f 375/375/375 376/376/376 382/382/382
f 375/375/375 382/382/382 381/381/381
f 376/376/376 377/377/377 383/383/383
f 376/376/376 383/383/383 382/382/382
f 377/377/377 378/378/378 384/384/384
f 377/377/377 384/384/384 383/383/383
f 379/379/379 380/380/380 386/386/386
f 379/379/379 386/386/386 385/385/385
f 380/380/380 381/381/381 387/387/387
f 380/380/380 387/387/387 386/386/386
f 381/381/381 382/382/382 388/388/388
f 381/381/381 388/388/388 387/387/387
f 382/382/382 383/383/383 389/389/389
f 382/382/382 389/389/389 388/388/388
f 383/383/383 384/384/384 390/390/390
f 383/383/383 390/390/390 389/389/389
f 385/385/385 386/386/386 392/392/392
f 385/385/385 392/392/392 391/391/391
f 386/386/386 387/387/387 393/393/393
f 386/386/386 393/393/393 392/392/392
f 387/387/387 388/388/388 394/394/394
f 387/387/387 394/394/394 393/393/393
f 388/388/388 389/389/389 395/395/395
f 388/388/388 395/395/395 394/394/394
f 389/389/389 390/390/390 396/396/396
f 389/389/389 396/396/396 395/395/395
f 391/391/391 392/392/392 398/398/398
f 391/391/391 398/398/398 397/397/397
f 392/392/392 393/393/393 399/399/399
f 392/392/392 399/399/399 398/398/398
f 393/393/393 394/394/394 400/400/400
f 393/393/393 400/400/400 399/399/399
f 394/394/394 395/395/395 401/401/401
f 394/394/394 401/401/401 400/400/400
f 395/395/395 396/396/396 402/402/402
f 395/395/395 402/402/402 401/401/401
usemtl metal
f 403/403/403 408/408/408 409/409/409
f 403/403/403 409/409/409 404/404/404
f 404/404/404 409/409/409 410/410/410
f 404/404/404 410/410/410 405/405/405
f 405/405/405 410/410/410 411/411/411
f 405/405/405 411/411/411 406/406/406
f 406/406/406 411/411/411 412/412/412
f 406/406/406 412/412/412 407/407/407
f 408/408/408 413/413/413 414/414/414
f 408/408/408 414/414/414 409/409/409
f 409/409/409 414/414/414 415/415/415
f 409/409/409 415/415/415 410/410/410
f 410/410/410 415/415/415 416/416/416
f 410/410/410 416/416/416 411/411/411
f 411/411/411 416/416/416 417/417/417
f 411/411/411 417/417/417 412/412/412
f 413/413/413 418/418/418 419/419/419
f 413/413/413 419/419/419 414/414/414
f 414/414/414 419/419/419 420/420/420
f 414/414/414 420/420/420 415/415/415
f 415/415/415 420/420/420 421/421/421
f 415/415/415 421/421/421 416/416/416
f 416/416/416 421/421/421 422/422/422
f 416/416/416 422/422/422 417/417/417
f 418/418/418 423/423/423 424/424/424
f 418/418/418 424/424/424 419/419/419
f 419/419/419 424/424/424 425/425/425
f 419/419/419 425/425/425 420/420/420
f 420/420/420 425/425/425 426/426/426
f 420/420/420 426/426/426 421/421/421
f 421/421/421 426/426/426 427/427/427
f 421/421/421 427/427/427 422/422/422
f 423/423/423 428/428/428 429/429/429
f 423/423/423 429/429/429 424/424/424
f 424/424/424 429/429/429 430/430/430
f 424/424/424 430/430/430 425/425/425
f 425/425/425 430/430/430 431/431/431
f 425/425/425 431/431/431 426/426/426
f 426/426/426 431/431/431 432/432/432
f 426/426/426 432/432/432 427/427/427
f 428/428/428 433/433/433 434/434/434
f 428/428/428 434/434/434 429/429/429
f 429/429/429 434/434/434 435/435/435
f 429/429/429 435/435/435 430/430/430
f 430/430/430 435/435/435 436/436/436
f 430/430/430 436/436/436 431/431/431
f 431/431/431 436/436/436 437/437/437
f 431/431/431 437/437/437 432/432/432
f 433/433/433 438/438/438 439/439/439
f 433/433/433 439/439/439 434/434/434
f 434/434/434 439/439/439 440/440/440
f 434/434/434 440/440/440 435/435/435
f 435/435/435 440/440/440 441/441/441
f 435/435/435 441/441/441 436/436/436
f 436/436/436 441/441/441 442/442/442
f 436/436/436 442/442/442 437/437/437
f 438/438/438 443/443/443 444/444/444
f 438/438/438 444/444/444 439/439/439
f 439/439/439 444/444/444 445/445/445
f 439/439/439 445/445/445 440/440/440
f 440/440/440 445/445/445 446/446/446
f 440/440/440 446/446/446 441/441/441
f 441/441/441 446/446/446 447/447/447
f 441/441/441 447/447/447 442/442/442
f 443/443/443 448/448/448 449/449/449
f 443/443/443 449/449/449 444/444/444
f 444/444/444 449/449/449 450/450/450
f 444/444/444 450/450/450 445/445/445
f 445/445/445 450/450/450 451/451/451
f 445/445/445 451/451/451 446/446/446
f 446/446/446 451/451/451 452/452/452
f 446/446/446 452/452/452 447/447/447
f 448/448/448 453/453/453 454/454/454
f 448/448/448 454/454/454 449/449/449
f 449/449/449 454/454/454 455/455/455
f 449/449/449 455/455/455 450/450/450
f 450/450/450 455/455/455 456/456/456
f 450/450/450 456/456/456 451/451/451
f 451/451/451 456/456/456 457/457/457
f 451/451/451 457/457/457 452/452/452
f 453/453/453 458/458/458 459/459/459
f 453/453/453 459/459/459 454/454/454
f 454/454/454 459/459/459 460/460/460
f 454/454/454 460/460/460 455/455/455
f 455/455/455 460/460/460 461/461/461
f 455/455/455 461/461/461 456/456/456
f 456/456/456 461/461/461 462/462/462
f 456/456/456 462/462/462 457/457/457
f 458/458/458 463/463/463 464/464/464
f 458/458/458 464/464/464 459/459/459
f 459/459/459 464/464/464 465/465/465
f 459/459/459 465/465/465 460/460/460
f 460/460/460 465/465/465 466/466/466
f 460/460/460 466/466/466 461/461/461
f 461/461/461 466/466/466 467/467/467
f 461/461/461 467/467/467 462/462/462
f 463/463/463 468/468/468 469/469/469
f 463/463/463 469/469/469 464/464/464
f 464/464/464 469/469/469 470/470/470
f 464/464/464 470/470/470 465/465/465
f 465/465/465 470/470/470 471/471/471
f 465/465/465 471/471/471 466/466/466
f 466/466/466 471/471/471 472/472/472
f 466/466/466 472/472/472 467/467/467
f 468/468/468 473/473/473 474/474/474
f 468/468/468 474/474/474 469/469/469
f 469/469/469 474/474/474 475/475/475
f 469/469/469 475/475/475 470/470/470
f 470/470/470 475/475/475 476/476/476
f 470/470/470 476/476/476 471/471/471
f 471/471/471 476/476/476 477/477/477
f 471/471/471 477/477/477 472/472/472
f 478/478/478 483/483/483 484/484/484
f 478/478/478 484/484/484 479/479/479
f 479/479/479 484/484/484 485/485/485
f 479/479/479 485/485/485 480/480/480
f 480/480/480 485/485/485 486/486/486
f 480/480/480 486/486/486 481/481/481
f 481/481/481 486/486/486 487/487/487
f 481/481/481 487/487/487 482/482/482
f 483/483/483 488/488/488 489/489/489
f 483/483/483 489/489/489 484/484/484
f 484/484/484 489/489/489 490/490/490
f 484/484/484 490/490/490 485/485/485
f 485/485/485 490/490/490 491/491/491
f 485/485/485 491/491/491 486/486/486
f 486/486/486 491/491/491 492/492/492
f 486/486/486 492/492/492 487/487/487
f 488/488/488 493/493/493 494/494/494
f 488/488/488 494/494/494 489/489/489
f 489/489/489 494/494/494 495/495/495
f 489/489/489 495/495/495 490/490/490
f 490/490/490 495/495/495 496/496/496
f 490/490/490 496/496/496 491/491/491
f 491/491/491 496/496/496 497/497/497
f 491/491/491 497/497/497 492/492/492
f 493/493/493 498/498/498 499/499/499
f 493/493/493 499/499/499 494/494/494
f 494/494/494 499/499/499 500/500/500
f 494/494/494 500/500/500 495/495/495
f 495/495/495 500/500/500 501/501/501
f 495/495/495 501/501/501 496/496/496
f 496/496/496 501/501/501 502/502/502
f 496/496/496 502/502/502 497/497/497
f 498/498/498 503/503/503 504/504/504
f 498/498/498 504/504/504 499/499/499
f 499/499/499 504/504/504 505/505/505
f 499/499/499 505/505/505 500/500/500
f 500/500/500 505/505/505 506/506/506
f 500/500/500 506/506/506 501/501/501
f 501/501/501 506/506/506 507/507/507
f 501/501/501 507/507/507 502/502/502
f 503/503/503 508/508/508 509/509/509
f 503/503/503 509/509/509 504/504/504
f 504/504/504 509/509/509 510/510/510
f 504/504/504 510/510/510 505/505/505
f 505/505/505 510/510/510 511/511/511
f 505/505/505 511/511/511 506/506/506
f 506/506/506 511/511/511 512/512/512
f 506/506/506 512/512/512 507/507/507
f 508/508/508 513/513/513 514/514/514
f 508/508/508 514/514/514 509/509/509
f 509/509/509 514/514/514 515/515/515
f 509/509/509 515/515/515 510/510/510
f 510/510/510 515/515/515 516/516/516
f 510/510/510 516/516/516 511/511/511
f 511/511/511 516/516/516 517/517/517
f 511/511/511 517/517/517 512/512/512
f 513/513/513 518/518/518 519/519/519
f 513/513/513 519/519/519 514/514/514
f 514/514/514 519/519/519 520/520/520
f 514/514/514 520/520/520 515/515/515
f 515/515/515 520/520/520 521/521/521
f 515/515/515 521/521/521 516/516/516
f 516/516/516 521/521/521 522/522/522
f 516/516/516 522/522/522 517/517/517
f 518/518/518 523/523/523 524/524/524
f 518/518/518 524/524/524 519/519/519
f 519/519/519 524/524/524 525/525/525
f 519/519/519 525/525/525 520/520/520
f 520/520/520 525/525/525 526/526/526
f 520/520/520 526/526/526 521/521/521
f 521/521/521 526/526/526 527/527/527
f 521/521/521 527/527/527 522/522/522
f 523/523/523 528/528/528 529/529/529
f 523/523/523 529/529/529 524/524/524
f 524/524/524 529/529/529 530/530/530
f 524/524/524 530/530/530 525/525/525
f 525/525/525 530/530/530 531/531/531
f 525/525/525 531/531/531 526/526/526
f 526/526/526 531/531/531 532/532/532
f 526/526/526 532/532/532 527/527/527
