# Sinh tự động bởi tools/mesh_kit.py - đừng sửa tay
o pz_kerosene
v 0.0000 0.0000 -0.0000
v 0.0300 0.0000 -0.0000
v 0.0370 0.0040 -0.0000
v 0.0380 0.0120 -0.0000
v 0.0380 0.1100 -0.0000
v 0.0340 0.1300 -0.0000
v 0.0220 0.1500 -0.0000
v 0.0135 0.1650 -0.0000
v 0.0130 0.1900 -0.0000
v 0.0155 0.1930 -0.0000
v 0.0155 0.2000 -0.0000
v 0.0115 0.2020 -0.0000
v 0.0115 0.1900 -0.0000
v 0.0000 0.1900 -0.0000
v 0.0000 0.0000 -0.0000
v 0.0290 0.0000 -0.0078
v 0.0357 0.0040 -0.0096
v 0.0367 0.0120 -0.0098
v 0.0367 0.1100 -0.0098
v 0.0328 0.1300 -0.0088
v 0.0213 0.1500 -0.0057
v 0.0130 0.1650 -0.0035
v 0.0126 0.1900 -0.0034
v 0.0150 0.1930 -0.0040
v 0.0150 0.2000 -0.0040
v 0.0111 0.2020 -0.0030
v 0.0111 0.1900 -0.0030
v 0.0000 0.1900 -0.0000
v 0.0000 0.0000 -0.0000
v 0.0260 0.0000 -0.0150
v 0.0320 0.0040 -0.0185
v 0.0329 0.0120 -0.0190
v 0.0329 0.1100 -0.0190
v 0.0294 0.1300 -0.0170
v 0.0191 0.1500 -0.0110
v 0.0117 0.1650 -0.0067
v 0.0113 0.1900 -0.0065
v 0.0134 0.1930 -0.0077
v 0.0134 0.2000 -0.0077
v 0.0100 0.2020 -0.0057
v 0.0100 0.1900 -0.0057
v 0.0000 0.1900 -0.0000
v 0.0000 0.0000 -0.0000
v 0.0212 0.0000 -0.0212
v 0.0262 0.0040 -0.0262
v 0.0269 0.0120 -0.0269
v 0.0269 0.1100 -0.0269
v 0.0240 0.1300 -0.0240
v 0.0156 0.1500 -0.0156
v 0.0095 0.1650 -0.0095
v 0.0092 0.1900 -0.0092
v 0.0110 0.1930 -0.0110
v 0.0110 0.2000 -0.0110
v 0.0081 0.2020 -0.0081
v 0.0081 0.1900 -0.0081
v 0.0000 0.1900 -0.0000
v 0.0000 0.0000 -0.0000
v 0.0150 0.0000 -0.0260
v 0.0185 0.0040 -0.0320
v 0.0190 0.0120 -0.0329
v 0.0190 0.1100 -0.0329
v 0.0170 0.1300 -0.0294
v 0.0110 0.1500 -0.0191
v 0.0068 0.1650 -0.0117
v 0.0065 0.1900 -0.0113
v 0.0078 0.1930 -0.0134
v 0.0078 0.2000 -0.0134
v 0.0058 0.2020 -0.0100
v 0.0058 0.1900 -0.0100
v 0.0000 0.1900 -0.0000
v 0.0000 0.0000 -0.0000
v 0.0078 0.0000 -0.0290
v 0.0096 0.0040 -0.0357
v 0.0098 0.0120 -0.0367
v 0.0098 0.1100 -0.0367
v 0.0088 0.1300 -0.0328
v 0.0057 0.1500 -0.0213
v 0.0035 0.1650 -0.0130
v 0.0034 0.1900 -0.0126
v 0.0040 0.1930 -0.0150
v 0.0040 0.2000 -0.0150
v 0.0030 0.2020 -0.0111
v 0.0030 0.1900 -0.0111
v 0.0000 0.1900 -0.0000
v 0.0000 0.0000 -0.0000
v 0.0000 0.0000 -0.0300
v 0.0000 0.0040 -0.0370
v 0.0000 0.0120 -0.0380
v 0.0000 0.1100 -0.0380
v 0.0000 0.1300 -0.0340
v 0.0000 0.1500 -0.0220
v 0.0000 0.1650 -0.0135
v 0.0000 0.1900 -0.0130
v 0.0000 0.1930 -0.0155
v 0.0000 0.2000 -0.0155
v 0.0000 0.2020 -0.0115
v 0.0000 0.1900 -0.0115
v 0.0000 0.1900 -0.0000
v -0.0000 0.0000 -0.0000
v -0.0078 0.0000 -0.0290
v -0.0096 0.0040 -0.0357
v -0.0098 0.0120 -0.0367
v -0.0098 0.1100 -0.0367
v -0.0088 0.1300 -0.0328
v -0.0057 0.1500 -0.0213
v -0.0035 0.1650 -0.0130
v -0.0034 0.1900 -0.0126
v -0.0040 0.1930 -0.0150
v -0.0040 0.2000 -0.0150
v -0.0030 0.2020 -0.0111
v -0.0030 0.1900 -0.0111
v -0.0000 0.1900 -0.0000
v -0.0000 0.0000 -0.0000
v -0.0150 0.0000 -0.0260
v -0.0185 0.0040 -0.0320
v -0.0190 0.0120 -0.0329
v -0.0190 0.1100 -0.0329
v -0.0170 0.1300 -0.0294
v -0.0110 0.1500 -0.0191
v -0.0067 0.1650 -0.0117
v -0.0065 0.1900 -0.0113
v -0.0077 0.1930 -0.0134
v -0.0077 0.2000 -0.0134
v -0.0057 0.2020 -0.0100
v -0.0057 0.1900 -0.0100
v -0.0000 0.1900 -0.0000
v -0.0000 0.0000 -0.0000
v -0.0212 0.0000 -0.0212
v -0.0262 0.0040 -0.0262
v -0.0269 0.0120 -0.0269
v -0.0269 0.1100 -0.0269
v -0.0240 0.1300 -0.0240
v -0.0156 0.1500 -0.0156
v -0.0095 0.1650 -0.0095
v -0.0092 0.1900 -0.0092
v -0.0110 0.1930 -0.0110
v -0.0110 0.2000 -0.0110
v -0.0081 0.2020 -0.0081
v -0.0081 0.1900 -0.0081
v -0.0000 0.1900 -0.0000
v -0.0000 0.0000 -0.0000
v -0.0260 0.0000 -0.0150
v -0.0320 0.0040 -0.0185
v -0.0329 0.0120 -0.0190
v -0.0329 0.1100 -0.0190
v -0.0294 0.1300 -0.0170
v -0.0191 0.1500 -0.0110
v -0.0117 0.1650 -0.0067
v -0.0113 0.1900 -0.0065
v -0.0134 0.1930 -0.0077
v -0.0134 0.2000 -0.0077
v -0.0100 0.2020 -0.0057
v -0.0100 0.1900 -0.0057
v -0.0000 0.1900 -0.0000
v -0.0000 0.0000 -0.0000
v -0.0290 0.0000 -0.0078
v -0.0357 0.0040 -0.0096
v -0.0367 0.0120 -0.0098
v -0.0367 0.1100 -0.0098
v -0.0328 0.1300 -0.0088
v -0.0213 0.1500 -0.0057
v -0.0130 0.1650 -0.0035
v -0.0126 0.1900 -0.0034
v -0.0150 0.1930 -0.0040
v -0.0150 0.2000 -0.0040
v -0.0111 0.2020 -0.0030
v -0.0111 0.1900 -0.0030
v -0.0000 0.1900 -0.0000
v -0.0000 0.0000 -0.0000
v -0.0300 0.0000 -0.0000
v -0.0370 0.0040 -0.0000
v -0.0380 0.0120 -0.0000
v -0.0380 0.1100 -0.0000
v -0.0340 0.1300 -0.0000
v -0.0220 0.1500 -0.0000
v -0.0135 0.1650 -0.0000
v -0.0130 0.1900 -0.0000
v -0.0155 0.1930 -0.0000
v -0.0155 0.2000 -0.0000
v -0.0115 0.2020 -0.0000
v -0.0115 0.1900 -0.0000
v -0.0000 0.1900 -0.0000
v -0.0000 0.0000 0.0000
v -0.0290 0.0000 0.0078
v -0.0357 0.0040 0.0096
v -0.0367 0.0120 0.0098
v -0.0367 0.1100 0.0098
v -0.0328 0.1300 0.0088
v -0.0213 0.1500 0.0057
v -0.0130 0.1650 0.0035
v -0.0126 0.1900 0.0034
v -0.0150 0.1930 0.0040
v -0.0150 0.2000 0.0040
v -0.0111 0.2020 0.0030
v -0.0111 0.1900 0.0030
v -0.0000 0.1900 0.0000
v -0.0000 0.0000 0.0000
v -0.0260 0.0000 0.0150
v -0.0320 0.0040 0.0185
v -0.0329 0.0120 0.0190
v -0.0329 0.1100 0.0190
v -0.0294 0.1300 0.0170
v -0.0191 0.1500 0.0110
v -0.0117 0.1650 0.0068
v -0.0113 0.1900 0.0065
v -0.0134 0.1930 0.0078
v -0.0134 0.2000 0.0078
v -0.0100 0.2020 0.0058
v -0.0100 0.1900 0.0058
v -0.0000 0.1900 0.0000
v -0.0000 0.0000 0.0000
v -0.0212 0.0000 0.0212
v -0.0262 0.0040 0.0262
v -0.0269 0.0120 0.0269
v -0.0269 0.1100 0.0269
v -0.0240 0.1300 0.0240
v -0.0156 0.1500 0.0156
v -0.0095 0.1650 0.0095
v -0.0092 0.1900 0.0092
v -0.0110 0.1930 0.0110
v -0.0110 0.2000 0.0110
v -0.0081 0.2020 0.0081
v -0.0081 0.1900 0.0081
v -0.0000 0.1900 0.0000
v -0.0000 0.0000 0.0000
v -0.0150 0.0000 0.0260
v -0.0185 0.0040 0.0320
v -0.0190 0.0120 0.0329
v -0.0190 0.1100 0.0329
v -0.0170 0.1300 0.0294
v -0.0110 0.1500 0.0191
v -0.0068 0.1650 0.0117
v -0.0065 0.1900 0.0113
v -0.0078 0.1930 0.0134
v -0.0078 0.2000 0.0134
v -0.0058 0.2020 0.0100
v -0.0058 0.1900 0.0100
v -0.0000 0.1900 0.0000
v -0.0000 0.0000 0.0000
v -0.0078 0.0000 0.0290
v -0.0096 0.0040 0.0357
v -0.0098 0.0120 0.0367
v -0.0098 0.1100 0.0367
v -0.0088 0.1300 0.0328
v -0.0057 0.1500 0.0213
v -0.0035 0.1650 0.0130
v -0.0034 0.1900 0.0126
v -0.0040 0.1930 0.0150
v -0.0040 0.2000 0.0150
v -0.0030 0.2020 0.0111
v -0.0030 0.1900 0.0111
v -0.0000 0.1900 0.0000
v -0.0000 0.0000 0.0000
v -0.0000 0.0000 0.0300
v -0.0000 0.0040 0.0370
v -0.0000 0.0120 0.0380
v -0.0000 0.1100 0.0380
v -0.0000 0.1300 0.0340
v -0.0000 0.1500 0.0220
v -0.0000 0.1650 0.0135
v -0.0000 0.1900 0.0130
v -0.0000 0.1930 0.0155
v -0.0000 0.2000 0.0155
v -0.0000 0.2020 0.0115
v -0.0000 0.1900 0.0115
v -0.0000 0.1900 0.0000
v 0.0000 0.0000 0.0000
v 0.0078 0.0000 0.0290
v 0.0096 0.0040 0.0357
v 0.0098 0.0120 0.0367
v 0.0098 0.1100 0.0367
v 0.0088 0.1300 0.0328
v 0.0057 0.1500 0.0213
v 0.0035 0.1650 0.0130
v 0.0034 0.1900 0.0126
v 0.0040 0.1930 0.0150
v 0.0040 0.2000 0.0150
v 0.0030 0.2020 0.0111
v 0.0030 0.1900 0.0111
v 0.0000 0.1900 0.0000
v 0.0000 0.0000 0.0000
v 0.0150 0.0000 0.0260
v 0.0185 0.0040 0.0320
v 0.0190 0.0120 0.0329
v 0.0190 0.1100 0.0329
v 0.0170 0.1300 0.0294
v 0.0110 0.1500 0.0191
v 0.0068 0.1650 0.0117
v 0.0065 0.1900 0.0113
v 0.0078 0.1930 0.0134
v 0.0078 0.2000 0.0134
v 0.0058 0.2020 0.0100
v 0.0058 0.1900 0.0100
v 0.0000 0.1900 0.0000
v 0.0000 0.0000 0.0000
v 0.0212 0.0000 0.0212
v 0.0262 0.0040 0.0262
v 0.0269 0.0120 0.0269
v 0.0269 0.1100 0.0269
v 0.0240 0.1300 0.0240
v 0.0156 0.1500 0.0156
v 0.0095 0.1650 0.0095
v 0.0092 0.1900 0.0092
v 0.0110 0.1930 0.0110
v 0.0110 0.2000 0.0110
v 0.0081 0.2020 0.0081
v 0.0081 0.1900 0.0081
v 0.0000 0.1900 0.0000
v 0.0000 0.0000 0.0000
v 0.0260 0.0000 0.0150
v 0.0320 0.0040 0.0185
v 0.0329 0.0120 0.0190
v 0.0329 0.1100 0.0190
v 0.0294 0.1300 0.0170
v 0.0191 0.1500 0.0110
v 0.0117 0.1650 0.0068
v 0.0113 0.1900 0.0065
v 0.0134 0.1930 0.0078
v 0.0134 0.2000 0.0078
v 0.0100 0.2020 0.0058
v 0.0100 0.1900 0.0058
v 0.0000 0.1900 0.0000
v 0.0000 0.0000 0.0000
v 0.0290 0.0000 0.0078
v 0.0357 0.0040 0.0096
v 0.0367 0.0120 0.0098
v 0.0367 0.1100 0.0098
v 0.0328 0.1300 0.0088
v 0.0213 0.1500 0.0057
v 0.0130 0.1650 0.0035
v 0.0126 0.1900 0.0034
v 0.0150 0.1930 0.0040
v 0.0150 0.2000 0.0040
v 0.0111 0.2020 0.0030
v 0.0111 0.1900 0.0030
v 0.0000 0.1900 0.0000
v 0.0000 0.0000 0.0000
v 0.0300 0.0000 0.0000
v 0.0370 0.0040 0.0000
v 0.0380 0.0120 0.0000
v 0.0380 0.1100 0.0000
v 0.0340 0.1300 0.0000
v 0.0220 0.1500 0.0000
v 0.0135 0.1650 0.0000
v 0.0130 0.1900 0.0000
v 0.0155 0.1930 0.0000
v 0.0155 0.2000 0.0000
v 0.0115 0.2020 0.0000
v 0.0115 0.1900 0.0000
v 0.0000 0.1900 0.0000
vt 0.0000 0.0000
vt 0.0000 0.0300
vt 0.0000 0.0381
vt 0.0000 0.0461
vt 0.0000 0.1441
vt 0.0000 0.1645
vt 0.0000 0.1878
vt 0.0000 0.2051
vt 0.0000 0.2301
vt 0.0000 0.2340
vt 0.0000 0.2410
vt 0.0000 0.2455
vt 0.0000 0.2575
vt 0.0000 0.2690
vt 0.0099 0.0000
vt 0.0099 0.0300
vt 0.0099 0.0381
vt 0.0099 0.0461
vt 0.0099 0.1441
vt 0.0099 0.1645
vt 0.0099 0.1878
vt 0.0099 0.2051
vt 0.0099 0.2301
vt 0.0099 0.2340
vt 0.0099 0.2410
vt 0.0099 0.2455
vt 0.0099 0.2575
vt 0.0099 0.2690
vt 0.0199 0.0000
vt 0.0199 0.0300
vt 0.0199 0.0381
vt 0.0199 0.0461
vt 0.0199 0.1441
vt 0.0199 0.1645
vt 0.0199 0.1878
vt 0.0199 0.2051
vt 0.0199 0.2301
vt 0.0199 0.2340
vt 0.0199 0.2410
vt 0.0199 0.2455
vt 0.0199 0.2575
vt 0.0199 0.2690
vt 0.0298 0.0000
vt 0.0298 0.0300
vt 0.0298 0.0381
vt 0.0298 0.0461
vt 0.0298 0.1441
vt 0.0298 0.1645
vt 0.0298 0.1878
vt 0.0298 0.2051
vt 0.0298 0.2301
vt 0.0298 0.2340
vt 0.0298 0.2410
vt 0.0298 0.2455
vt 0.0298 0.2575
vt 0.0298 0.2690
vt 0.0398 0.0000
vt 0.0398 0.0300
vt 0.0398 0.0381
vt 0.0398 0.0461
vt 0.0398 0.1441
vt 0.0398 0.1645
vt 0.0398 0.1878
vt 0.0398 0.2051
vt 0.0398 0.2301
vt 0.0398 0.2340
vt 0.0398 0.2410
vt 0.0398 0.2455
vt 0.0398 0.2575
vt 0.0398 0.2690
vt 0.0497 0.0000
vt 0.0497 0.0300
vt 0.0497 0.0381
vt 0.0497 0.0461
vt 0.0497 0.1441
vt 0.0497 0.1645
vt 0.0497 0.1878
vt 0.0497 0.2051
vt 0.0497 0.2301
vt 0.0497 0.2340
vt 0.0497 0.2410
vt 0.0497 0.2455
vt 0.0497 0.2575
vt 0.0497 0.2690
vt 0.0597 0.0000
vt 0.0597 0.0300
vt 0.0597 0.0381
vt 0.0597 0.0461
vt 0.0597 0.1441
vt 0.0597 0.1645
vt 0.0597 0.1878
vt 0.0597 0.2051
vt 0.0597 0.2301
vt 0.0597 0.2340
vt 0.0597 0.2410
vt 0.0597 0.2455
vt 0.0597 0.2575
vt 0.0597 0.2690
vt 0.0696 0.0000
vt 0.0696 0.0300
vt 0.0696 0.0381
vt 0.0696 0.0461
vt 0.0696 0.1441
vt 0.0696 0.1645
vt 0.0696 0.1878
vt 0.0696 0.2051
vt 0.0696 0.2301
vt 0.0696 0.2340
vt 0.0696 0.2410
vt 0.0696 0.2455
vt 0.0696 0.2575
vt 0.0696 0.2690
vt 0.0796 0.0000
vt 0.0796 0.0300
vt 0.0796 0.0381
vt 0.0796 0.0461
vt 0.0796 0.1441
vt 0.0796 0.1645
vt 0.0796 0.1878
vt 0.0796 0.2051
vt 0.0796 0.2301
vt 0.0796 0.2340
vt 0.0796 0.2410
vt 0.0796 0.2455
vt 0.0796 0.2575
vt 0.0796 0.2690
vt 0.0895 0.0000
vt 0.0895 0.0300
vt 0.0895 0.0381
vt 0.0895 0.0461
vt 0.0895 0.1441
vt 0.0895 0.1645
vt 0.0895 0.1878
vt 0.0895 0.2051
vt 0.0895 0.2301
vt 0.0895 0.2340
vt 0.0895 0.2410
vt 0.0895 0.2455
vt 0.0895 0.2575
vt 0.0895 0.2690
vt 0.0995 0.0000
vt 0.0995 0.0300
vt 0.0995 0.0381
vt 0.0995 0.0461
vt 0.0995 0.1441
vt 0.0995 0.1645
vt 0.0995 0.1878
vt 0.0995 0.2051
vt 0.0995 0.2301
vt 0.0995 0.2340
vt 0.0995 0.2410
vt 0.0995 0.2455
vt 0.0995 0.2575
vt 0.0995 0.2690
vt 0.1094 0.0000
vt 0.1094 0.0300
vt 0.1094 0.0381
vt 0.1094 0.0461
vt 0.1094 0.1441
vt 0.1094 0.1645
vt 0.1094 0.1878
vt 0.1094 0.2051
vt 0.1094 0.2301
vt 0.1094 0.2340
vt 0.1094 0.2410
vt 0.1094 0.2455
vt 0.1094 0.2575
vt 0.1094 0.2690
vt 0.1194 0.0000
vt 0.1194 0.0300
vt 0.1194 0.0381
vt 0.1194 0.0461
vt 0.1194 0.1441
vt 0.1194 0.1645
vt 0.1194 0.1878
vt 0.1194 0.2051
vt 0.1194 0.2301
vt 0.1194 0.2340
vt 0.1194 0.2410
vt 0.1194 0.2455
vt 0.1194 0.2575
vt 0.1194 0.2690
vt 0.1293 0.0000
vt 0.1293 0.0300
vt 0.1293 0.0381
vt 0.1293 0.0461
vt 0.1293 0.1441
vt 0.1293 0.1645
vt 0.1293 0.1878
vt 0.1293 0.2051
vt 0.1293 0.2301
vt 0.1293 0.2340
vt 0.1293 0.2410
vt 0.1293 0.2455
vt 0.1293 0.2575
vt 0.1293 0.2690
vt 0.1393 0.0000
vt 0.1393 0.0300
vt 0.1393 0.0381
vt 0.1393 0.0461
vt 0.1393 0.1441
vt 0.1393 0.1645
vt 0.1393 0.1878
vt 0.1393 0.2051
vt 0.1393 0.2301
vt 0.1393 0.2340
vt 0.1393 0.2410
vt 0.1393 0.2455
vt 0.1393 0.2575
vt 0.1393 0.2690
vt 0.1492 0.0000
vt 0.1492 0.0300
vt 0.1492 0.0381
vt 0.1492 0.0461
vt 0.1492 0.1441
vt 0.1492 0.1645
vt 0.1492 0.1878
vt 0.1492 0.2051
vt 0.1492 0.2301
vt 0.1492 0.2340
vt 0.1492 0.2410
vt 0.1492 0.2455
vt 0.1492 0.2575
vt 0.1492 0.2690
vt 0.1592 0.0000
vt 0.1592 0.0300
vt 0.1592 0.0381
vt 0.1592 0.0461
vt 0.1592 0.1441
vt 0.1592 0.1645
vt 0.1592 0.1878
vt 0.1592 0.2051
vt 0.1592 0.2301
vt 0.1592 0.2340
vt 0.1592 0.2410
vt 0.1592 0.2455
vt 0.1592 0.2575
vt 0.1592 0.2690
vt 0.1691 0.0000
vt 0.1691 0.0300
vt 0.1691 0.0381
vt 0.1691 0.0461
vt 0.1691 0.1441
vt 0.1691 0.1645
vt 0.1691 0.1878
vt 0.1691 0.2051
vt 0.1691 0.2301
vt 0.1691 0.2340
vt 0.1691 0.2410
vt 0.1691 0.2455
vt 0.1691 0.2575
vt 0.1691 0.2690
vt 0.1791 0.0000
vt 0.1791 0.0300
vt 0.1791 0.0381
vt 0.1791 0.0461
vt 0.1791 0.1441
vt 0.1791 0.1645
vt 0.1791 0.1878
vt 0.1791 0.2051
vt 0.1791 0.2301
vt 0.1791 0.2340
vt 0.1791 0.2410
vt 0.1791 0.2455
vt 0.1791 0.2575
vt 0.1791 0.2690
vt 0.1890 0.0000
vt 0.1890 0.0300
vt 0.1890 0.0381
vt 0.1890 0.0461
vt 0.1890 0.1441
vt 0.1890 0.1645
vt 0.1890 0.1878
vt 0.1890 0.2051
vt 0.1890 0.2301
vt 0.1890 0.2340
vt 0.1890 0.2410
vt 0.1890 0.2455
vt 0.1890 0.2575
vt 0.1890 0.2690
vt 0.1990 0.0000
vt 0.1990 0.0300
vt 0.1990 0.0381
vt 0.1990 0.0461
vt 0.1990 0.1441
vt 0.1990 0.1645
vt 0.1990 0.1878
vt 0.1990 0.2051
vt 0.1990 0.2301
vt 0.1990 0.2340
vt 0.1990 0.2410
vt 0.1990 0.2455
vt 0.1990 0.2575
vt 0.1990 0.2690
vt 0.2089 0.0000
vt 0.2089 0.0300
vt 0.2089 0.0381
vt 0.2089 0.0461
vt 0.2089 0.1441
vt 0.2089 0.1645
vt 0.2089 0.1878
vt 0.2089 0.2051
vt 0.2089 0.2301
vt 0.2089 0.2340
vt 0.2089 0.2410
vt 0.2089 0.2455
vt 0.2089 0.2575
vt 0.2089 0.2690
vt 0.2189 0.0000
vt 0.2189 0.0300
vt 0.2189 0.0381
vt 0.2189 0.0461
vt 0.2189 0.1441
vt 0.2189 0.1645
vt 0.2189 0.1878
vt 0.2189 0.2051
vt 0.2189 0.2301
vt 0.2189 0.2340
vt 0.2189 0.2410
vt 0.2189 0.2455
vt 0.2189 0.2575
vt 0.2189 0.2690
vt 0.2288 0.0000
vt 0.2288 0.0300
vt 0.2288 0.0381
vt 0.2288 0.0461
vt 0.2288 0.1441
vt 0.2288 0.1645
vt 0.2288 0.1878
vt 0.2288 0.2051
vt 0.2288 0.2301
vt 0.2288 0.2340
vt 0.2288 0.2410
vt 0.2288 0.2455
vt 0.2288 0.2575
vt 0.2288 0.2690
vt 0.2388 0.0000
vt 0.2388 0.0300
vt 0.2388 0.0381
vt 0.2388 0.0461
vt 0.2388 0.1441
vt 0.2388 0.1645
vt 0.2388 0.1878
vt 0.2388 0.2051
vt 0.2388 0.2301
vt 0.2388 0.2340
vt 0.2388 0.2410
vt 0.2388 0.2455
vt 0.2388 0.2575
vt 0.2388 0.2690
vn 0.000 -1.000 -0.000
vn 0.107 -0.994 -0.000
vn 0.832 -0.555 -0.000
vn 1.000 -0.009 -0.000
vn 0.999 0.034 -0.000
vn 0.928 0.371 -0.000
vn 0.863 0.505 -0.000
vn 0.976 0.220 -0.000
vn 0.997 -0.071 -0.000
vn 0.970 -0.243 -0.000
vn 0.914 0.406 -0.000
vn -0.928 0.371 0.000
vn -0.722 0.692 0.000
vn 0.000 1.000 -0.000
vn 0.000 -1.000 -0.000
vn 0.104 -0.994 -0.028
vn 0.804 -0.555 -0.215
vn 0.966 -0.009 -0.259
vn 0.965 0.034 -0.259
vn 0.897 0.371 -0.240
vn 0.833 0.505 -0.223
vn 0.942 0.220 -0.253
vn 0.963 -0.071 -0.258
vn 0.937 -0.243 -0.251
vn 0.883 0.406 -0.237
vn -0.897 0.371 0.240
vn -0.697 0.692 0.187
vn 0.000 1.000 -0.000
vn 0.000 -1.000 -0.000
vn 0.093 -0.994 -0.054
vn 0.721 -0.555 -0.416
vn 0.866 -0.009 -0.500
vn 0.866 0.034 -0.500
vn 0.804 0.371 -0.464
vn 0.747 0.505 -0.431
vn 0.845 0.220 -0.488
vn 0.864 -0.071 -0.499
vn 0.840 -0.243 -0.485
vn 0.791 0.406 -0.457
vn -0.804 0.371 0.464
vn -0.625 0.692 0.361
vn 0.000 1.000 -0.000
vn 0.000 -1.000 -0.000
vn 0.076 -0.994 -0.076
vn 0.588 -0.555 -0.588
vn 0.707 -0.009 -0.707
vn 0.707 0.034 -0.707
vn 0.657 0.371 -0.657
vn 0.610 0.505 -0.610
vn 0.690 0.220 -0.690
vn 0.705 -0.071 -0.705
vn 0.686 -0.243 -0.686
vn 0.646 0.406 -0.646
vn -0.657 0.371 0.657
vn -0.511 0.692 0.511
vn 0.000 1.000 -0.000
vn 0.000 -1.000 -0.000
vn 0.054 -0.994 -0.093
vn 0.416 -0.555 -0.721
vn 0.500 -0.009 -0.866
vn 0.500 0.034 -0.866
vn 0.464 0.371 -0.804
vn 0.431 0.505 -0.747
vn 0.488 0.220 -0.845
vn 0.499 -0.071 -0.864
vn 0.485 -0.243 -0.840
vn 0.457 0.406 -0.791
vn -0.464 0.371 0.804
vn -0.361 0.692 0.625
vn 0.000 1.000 -0.000
vn 0.000 -1.000 -0.000
vn 0.028 -0.994 -0.104
vn 0.215 -0.555 -0.804
vn 0.259 -0.009 -0.966
vn 0.259 0.034 -0.965
vn 0.240 0.371 -0.897
vn 0.223 0.505 -0.833
vn 0.253 0.220 -0.942
vn 0.258 -0.071 -0.963
vn 0.251 -0.243 -0.937
vn 0.237 0.406 -0.883
vn -0.240 0.371 0.897
vn -0.187 0.692 0.697
vn 0.000 1.000 -0.000
vn 0.000 -1.000 -0.000
vn 0.000 -0.994 -0.107
vn 0.000 -0.555 -0.832
vn 0.000 -0.009 -1.000
vn 0.000 0.034 -0.999
vn 0.000 0.371 -0.928
vn 0.000 0.505 -0.863
vn 0.000 0.220 -0.976
vn 0.000 -0.071 -0.997
vn 0.000 -0.243 -0.970
vn 0.000 0.406 -0.914
vn -0.000 0.371 0.928
vn -0.000 0.692 0.722
vn 0.000 1.000 -0.000
vn -0.000 -1.000 -0.000
vn -0.028 -0.994 -0.104
vn -0.215 -0.555 -0.804
vn -0.259 -0.009 -0.966
vn -0.259 0.034 -0.965
vn -0.240 0.371 -0.897
vn -0.223 0.505 -0.833
vn -0.253 0.220 -0.942
vn -0.258 -0.071 -0.963
vn -0.251 -0.243 -0.937
vn -0.237 0.406 -0.883
vn 0.240 0.371 0.897
vn 0.187 0.692 0.697
vn -0.000 1.000 -0.000
vn -0.000 -1.000 -0.000
vn -0.054 -0.994 -0.093
vn -0.416 -0.555 -0.721
vn -0.500 -0.009 -0.866
vn -0.500 0.034 -0.866
vn -0.464 0.371 -0.804
vn -0.431 0.505 -0.747
vn -0.488 0.220 -0.845
vn -0.499 -0.071 -0.864
vn -0.485 -0.243 -0.840
vn -0.457 0.406 -0.791
vn 0.464 0.371 0.804
vn 0.361 0.692 0.625
vn -0.000 1.000 -0.000
vn -0.000 -1.000 -0.000
vn -0.076 -0.994 -0.076
vn -0.588 -0.555 -0.588
vn -0.707 -0.009 -0.707
vn -0.707 0.034 -0.707
vn -0.657 0.371 -0.657
vn -0.610 0.505 -0.610
vn -0.690 0.220 -0.690
vn -0.705 -0.071 -0.705
vn -0.686 -0.243 -0.686
vn -0.646 0.406 -0.646
vn 0.657 0.371 0.657
vn 0.511 0.692 0.511
vn -0.000 1.000 -0.000
vn -0.000 -1.000 -0.000
vn -0.093 -0.994 -0.054
vn -0.721 -0.555 -0.416
vn -0.866 -0.009 -0.500
vn -0.866 0.034 -0.500
vn -0.804 0.371 -0.464
vn -0.747 0.505 -0.431
vn -0.845 0.220 -0.488
vn -0.864 -0.071 -0.499
vn -0.840 -0.243 -0.485
vn -0.791 0.406 -0.457
vn 0.804 0.371 0.464
vn 0.625 0.692 0.361
vn -0.000 1.000 -0.000
vn -0.000 -1.000 -0.000
vn -0.104 -0.994 -0.028
vn -0.804 -0.555 -0.215
vn -0.966 -0.009 -0.259
vn -0.965 0.034 -0.259
vn -0.897 0.371 -0.240
vn -0.833 0.505 -0.223
vn -0.942 0.220 -0.253
vn -0.963 -0.071 -0.258
vn -0.937 -0.243 -0.251
vn -0.883 0.406 -0.237
vn 0.897 0.371 0.240
vn 0.697 0.692 0.187
vn -0.000 1.000 -0.000
vn -0.000 -1.000 -0.000
vn -0.107 -0.994 -0.000
vn -0.832 -0.555 -0.000
vn -1.000 -0.009 -0.000
vn -0.999 0.034 -0.000
vn -0.928 0.371 -0.000
vn -0.863 0.505 -0.000
vn -0.976 0.220 -0.000
vn -0.997 -0.071 -0.000
vn -0.970 -0.243 -0.000
vn -0.914 0.406 -0.000
vn 0.928 0.371 0.000
vn 0.722 0.692 0.000
vn -0.000 1.000 -0.000
vn -0.000 -1.000 0.000
vn -0.104 -0.994 0.028
vn -0.804 -0.555 0.215
vn -0.966 -0.009 0.259
vn -0.965 0.034 0.259
vn -0.897 0.371 0.240
vn -0.833 0.505 0.223
vn -0.942 0.220 0.253
vn -0.963 -0.071 0.258
vn -0.937 -0.243 0.251
vn -0.883 0.406 0.237
vn 0.897 0.371 -0.240
vn 0.697 0.692 -0.187
vn -0.000 1.000 0.000
vn -0.000 -1.000 0.000
vn -0.093 -0.994 0.054
vn -0.721 -0.555 0.416
vn -0.866 -0.009 0.500
vn -0.866 0.034 0.500
vn -0.804 0.371 0.464
vn -0.747 0.505 0.431
vn -0.845 0.220 0.488
vn -0.864 -0.071 0.499
vn -0.840 -0.243 0.485
vn -0.791 0.406 0.457
vn 0.804 0.371 -0.464
vn 0.625 0.692 -0.361
vn -0.000 1.000 0.000
vn -0.000 -1.000 0.000
vn -0.076 -0.994 0.076
vn -0.588 -0.555 0.588
vn -0.707 -0.009 0.707
vn -0.707 0.034 0.707
vn -0.657 0.371 0.657
vn -0.610 0.505 0.610
vn -0.690 0.220 0.690
vn -0.705 -0.071 0.705
vn -0.686 -0.243 0.686
vn -0.646 0.406 0.646
vn 0.657 0.371 -0.657
vn 0.511 0.692 -0.511
vn -0.000 1.000 0.000
vn -0.000 -1.000 0.000
vn -0.054 -0.994 0.093
vn -0.416 -0.555 0.721
vn -0.500 -0.009 0.866
vn -0.500 0.034 0.866
vn -0.464 0.371 0.804
vn -0.431 0.505 0.747
vn -0.488 0.220 0.845
vn -0.499 -0.071 0.864
vn -0.485 -0.243 0.840
vn -0.457 0.406 0.791
vn 0.464 0.371 -0.804
vn 0.361 0.692 -0.625
vn -0.000 1.000 0.000
vn -0.000 -1.000 0.000
vn -0.028 -0.994 0.104
vn -0.215 -0.555 0.804
vn -0.259 -0.009 0.966
vn -0.259 0.034 0.965
vn -0.240 0.371 0.897
vn -0.223 0.505 0.833
vn -0.253 0.220 0.942
vn -0.258 -0.071 0.963
vn -0.251 -0.243 0.937
vn -0.237 0.406 0.883
vn 0.240 0.371 -0.897
vn 0.187 0.692 -0.697
vn -0.000 1.000 0.000
vn -0.000 -1.000 0.000
vn -0.000 -0.994 0.107
vn -0.000 -0.555 0.832
vn -0.000 -0.009 1.000
vn -0.000 0.034 0.999
vn -0.000 0.371 0.928
vn -0.000 0.505 0.863
vn -0.000 0.220 0.976
vn -0.000 -0.071 0.997
vn -0.000 -0.243 0.970
vn -0.000 0.406 0.914
vn 0.000 0.371 -0.928
vn 0.000 0.692 -0.722
vn -0.000 1.000 0.000
vn 0.000 -1.000 0.000
vn 0.028 -0.994 0.104
vn 0.215 -0.555 0.804
vn 0.259 -0.009 0.966
vn 0.259 0.034 0.965
vn 0.240 0.371 0.897
vn 0.223 0.505 0.833
vn 0.253 0.220 0.942
vn 0.258 -0.071 0.963
vn 0.251 -0.243 0.937
vn 0.237 0.406 0.883
vn -0.240 0.371 -0.897
vn -0.187 0.692 -0.697
vn 0.000 1.000 0.000
vn 0.000 -1.000 0.000
vn 0.054 -0.994 0.093
vn 0.416 -0.555 0.721
vn 0.500 -0.009 0.866
vn 0.500 0.034 0.866
vn 0.464 0.371 0.804
vn 0.431 0.505 0.747
vn 0.488 0.220 0.845
vn 0.499 -0.071 0.864
vn 0.485 -0.243 0.840
vn 0.457 0.406 0.791
vn -0.464 0.371 -0.804
vn -0.361 0.692 -0.625
vn 0.000 1.000 0.000
vn 0.000 -1.000 0.000
vn 0.076 -0.994 0.076
vn 0.588 -0.555 0.588
vn 0.707 -0.009 0.707
vn 0.707 0.034 0.707
vn 0.657 0.371 0.657
vn 0.610 0.505 0.610
vn 0.690 0.220 0.690
vn 0.705 -0.071 0.705
vn 0.686 -0.243 0.686
vn 0.646 0.406 0.646
vn -0.657 0.371 -0.657
vn -0.511 0.692 -0.511
vn 0.000 1.000 0.000
vn 0.000 -1.000 0.000
vn 0.093 -0.994 0.054
vn 0.721 -0.555 0.416
vn 0.866 -0.009 0.500
vn 0.866 0.034 0.500
vn 0.804 0.371 0.464
vn 0.747 0.505 0.431
vn 0.845 0.220 0.488
vn 0.864 -0.071 0.499
vn 0.840 -0.243 0.485
vn 0.791 0.406 0.457
vn -0.804 0.371 -0.464
vn -0.625 0.692 -0.361
vn 0.000 1.000 0.000
vn 0.000 -1.000 0.000
vn 0.104 -0.994 0.028
vn 0.804 -0.555 0.215
vn 0.966 -0.009 0.259
vn 0.965 0.034 0.259
vn 0.897 0.371 0.240
vn 0.833 0.505 0.223
vn 0.942 0.220 0.253
vn 0.963 -0.071 0.258
vn 0.937 -0.243 0.251
vn 0.883 0.406 0.237
vn -0.897 0.371 -0.240
vn -0.697 0.692 -0.187
vn 0.000 1.000 0.000
vn 0.000 -1.000 0.000
vn 0.107 -0.994 0.000
vn 0.832 -0.555 0.000
vn 1.000 -0.009 0.000
vn 0.999 0.034 0.000
vn 0.928 0.371 0.000
vn 0.863 0.505 0.000
vn 0.976 0.220 0.000
vn 0.997 -0.071 0.000
vn 0.970 -0.243 0.000
vn 0.914 0.406 0.000
vn -0.928 0.371 -0.000
vn -0.722 0.692 -0.000
vn 0.000 1.000 0.000
v 0.0000 0.0040 -0.0000
v 0.0340 0.0040 -0.0000
v 0.0350 0.0120 -0.0000
v 0.0350 0.0850 -0.0000
v 0.0000 0.0850 -0.0000
v 0.0000 0.0040 -0.0000
v 0.0323 0.0040 -0.0105
v 0.0333 0.0120 -0.0108
v 0.0333 0.0850 -0.0108
v 0.0000 0.0850 -0.0000
v 0.0000 0.0040 -0.0000
v 0.0275 0.0040 -0.0200
v 0.0283 0.0120 -0.0206
v 0.0283 0.0850 -0.0206
v 0.0000 0.0850 -0.0000
v 0.0000 0.0040 -0.0000
v 0.0200 0.0040 -0.0275
v 0.0206 0.0120 -0.0283
v 0.0206 0.0850 -0.0283
v 0.0000 0.0850 -0.0000
v 0.0000 0.0040 -0.0000
v 0.0105 0.0040 -0.0323
v 0.0108 0.0120 -0.0333
v 0.0108 0.0850 -0.0333
v 0.0000 0.0850 -0.0000
v 0.0000 0.0040 -0.0000
v 0.0000 0.0040 -0.0340
v 0.0000 0.0120 -0.0350
v 0.0000 0.0850 -0.0350
v 0.0000 0.0850 -0.0000
v -0.0000 0.0040 -0.0000
v -0.0105 0.0040 -0.0323
v -0.0108 0.0120 -0.0333
v -0.0108 0.0850 -0.0333
v -0.0000 0.0850 -0.0000
v -0.0000 0.0040 -0.0000
v -0.0200 0.0040 -0.0275
v -0.0206 0.0120 -0.0283
v -0.0206 0.0850 -0.0283
v -0.0000 0.0850 -0.0000
v -0.0000 0.0040 -0.0000
v -0.0275 0.0040 -0.0200
v -0.0283 0.0120 -0.0206
v -0.0283 0.0850 -0.0206
v -0.0000 0.0850 -0.0000
v -0.0000 0.0040 -0.0000
v -0.0323 0.0040 -0.0105
v -0.0333 0.0120 -0.0108
v -0.0333 0.0850 -0.0108
v -0.0000 0.0850 -0.0000
v -0.0000 0.0040 -0.0000
v -0.0340 0.0040 -0.0000
v -0.0350 0.0120 -0.0000
v -0.0350 0.0850 -0.0000
v -0.0000 0.0850 -0.0000
v -0.0000 0.0040 0.0000
v -0.0323 0.0040 0.0105
v -0.0333 0.0120 0.0108
v -0.0333 0.0850 0.0108
v -0.0000 0.0850 0.0000
v -0.0000 0.0040 0.0000
v -0.0275 0.0040 0.0200
v -0.0283 0.0120 0.0206
v -0.0283 0.0850 0.0206
v -0.0000 0.0850 0.0000
v -0.0000 0.0040 0.0000
v -0.0200 0.0040 0.0275
v -0.0206 0.0120 0.0283
v -0.0206 0.0850 0.0283
v -0.0000 0.0850 0.0000
v -0.0000 0.0040 0.0000
v -0.0105 0.0040 0.0323
v -0.0108 0.0120 0.0333
v -0.0108 0.0850 0.0333
v -0.0000 0.0850 0.0000
v -0.0000 0.0040 0.0000
v -0.0000 0.0040 0.0340
v -0.0000 0.0120 0.0350
v -0.0000 0.0850 0.0350
v -0.0000 0.0850 0.0000
v 0.0000 0.0040 0.0000
v 0.0105 0.0040 0.0323
v 0.0108 0.0120 0.0333
v 0.0108 0.0850 0.0333
v 0.0000 0.0850 0.0000
v 0.0000 0.0040 0.0000
v 0.0200 0.0040 0.0275
v 0.0206 0.0120 0.0283
v 0.0206 0.0850 0.0283
v 0.0000 0.0850 0.0000
v 0.0000 0.0040 0.0000
v 0.0275 0.0040 0.0200
v 0.0283 0.0120 0.0206
v 0.0283 0.0850 0.0206
v 0.0000 0.0850 0.0000
v 0.0000 0.0040 0.0000
v 0.0323 0.0040 0.0105
v 0.0333 0.0120 0.0108
v 0.0333 0.0850 0.0108
v 0.0000 0.0850 0.0000
v 0.0000 0.0040 0.0000
v 0.0340 0.0040 0.0000
v 0.0350 0.0120 0.0000
v 0.0350 0.0850 0.0000
v 0.0000 0.0850 0.0000
vt 0.0000 0.0000
vt 0.0000 0.0340
vt 0.0000 0.0421
vt 0.0000 0.1151
vt 0.0000 0.1501
vt 0.0110 0.0000
vt 0.0110 0.0340
vt 0.0110 0.0421
vt 0.0110 0.1151
vt 0.0110 0.1501
vt 0.0220 0.0000
vt 0.0220 0.0340
vt 0.0220 0.0421
vt 0.0220 0.1151
vt 0.0220 0.1501
vt 0.0330 0.0000
vt 0.0330 0.0340
vt 0.0330 0.0421
vt 0.0330 0.1151
vt 0.0330 0.1501
vt 0.0440 0.0000
vt 0.0440 0.0340
vt 0.0440 0.0421
vt 0.0440 0.1151
vt 0.0440 0.1501
vt 0.0550 0.0000
vt 0.0550 0.0340
vt 0.0550 0.0421
vt 0.0550 0.1151
vt 0.0550 0.1501
vt 0.0660 0.0000
vt 0.0660 0.0340
vt 0.0660 0.0421
vt 0.0660 0.1151
vt 0.0660 0.1501
vt 0.0770 0.0000
vt 0.0770 0.0340
vt 0.0770 0.0421
vt 0.0770 0.1151
vt 0.0770 0.1501
vt 0.0880 0.0000
vt 0.0880 0.0340
vt 0.0880 0.0421
vt 0.0880 0.1151
vt 0.0880 0.1501
vt 0.0990 0.0000
vt 0.0990 0.0340
vt 0.0990 0.0421
vt 0.0990 0.1151
vt 0.0990 0.1501
vt 0.1100 0.0000
vt 0.1100 0.0340
vt 0.1100 0.0421
vt 0.1100 0.1151
vt 0.1100 0.1501
vt 0.1210 0.0000
vt 0.1210 0.0340
vt 0.1210 0.0421
vt 0.1210 0.1151
vt 0.1210 0.1501
vt 0.1319 0.0000
vt 0.1319 0.0340
vt 0.1319 0.0421
vt 0.1319 0.1151
vt 0.1319 0.1501
vt 0.1429 0.0000
vt 0.1429 0.0340
vt 0.1429 0.0421
vt 0.1429 0.1151
vt 0.1429 0.1501
vt 0.1539 0.0000
vt 0.1539 0.0340
vt 0.1539 0.0421
vt 0.1539 0.1151
vt 0.1539 0.1501
vt 0.1649 0.0000
vt 0.1649 0.0340
vt 0.1649 0.0421
vt 0.1649 0.1151
vt 0.1649 0.1501
vt 0.1759 0.0000
vt 0.1759 0.0340
vt 0.1759 0.0421
vt 0.1759 0.1151
vt 0.1759 0.1501
vt 0.1869 0.0000
vt 0.1869 0.0340
vt 0.1869 0.0421
vt 0.1869 0.1151
vt 0.1869 0.1501
vt 0.1979 0.0000
vt 0.1979 0.0340
vt 0.1979 0.0421
vt 0.1979 0.1151
vt 0.1979 0.1501
vt 0.2089 0.0000
vt 0.2089 0.0340
vt 0.2089 0.0421
vt 0.2089 0.1151
vt 0.2089 0.1501
vt 0.2199 0.0000
vt 0.2199 0.0340
vt 0.2199 0.0421
vt 0.2199 0.1151
vt 0.2199 0.1501
vn 0.000 -1.000 -0.000
vn 0.223 -0.975 -0.000
vn 1.000 -0.012 -0.000
vn 0.902 0.432 -0.000
vn 0.000 1.000 -0.000
vn 0.000 -1.000 -0.000
vn 0.212 -0.975 -0.069
vn 0.951 -0.012 -0.309
vn 0.858 0.432 -0.279
vn 0.000 1.000 -0.000
vn 0.000 -1.000 -0.000
vn 0.180 -0.975 -0.131
vn 0.809 -0.012 -0.588
vn 0.730 0.432 -0.530
vn 0.000 1.000 -0.000
vn 0.000 -1.000 -0.000
vn 0.131 -0.975 -0.180
vn 0.588 -0.012 -0.809
vn 0.530 0.432 -0.730
vn 0.000 1.000 -0.000
vn 0.000 -1.000 -0.000
vn 0.069 -0.975 -0.212
vn 0.309 -0.012 -0.951
vn 0.279 0.432 -0.858
vn 0.000 1.000 -0.000
vn 0.000 -1.000 -0.000
vn 0.000 -0.975 -0.223
vn 0.000 -0.012 -1.000
vn 0.000 0.432 -0.902
vn 0.000 1.000 -0.000
vn -0.000 -1.000 -0.000
vn -0.069 -0.975 -0.212
vn -0.309 -0.012 -0.951
vn -0.279 0.432 -0.858
vn -0.000 1.000 -0.000
vn -0.000 -1.000 -0.000
vn -0.131 -0.975 -0.180
vn -0.588 -0.012 -0.809
vn -0.530 0.432 -0.730
vn -0.000 1.000 -0.000
vn -0.000 -1.000 -0.000
vn -0.180 -0.975 -0.131
vn -0.809 -0.012 -0.588
vn -0.730 0.432 -0.530
vn -0.000 1.000 -0.000
vn -0.000 -1.000 -0.000
vn -0.212 -0.975 -0.069
vn -0.951 -0.012 -0.309
vn -0.858 0.432 -0.279
vn -0.000 1.000 -0.000
vn -0.000 -1.000 -0.000
vn -0.223 -0.975 -0.000
vn -1.000 -0.012 -0.000
vn -0.902 0.432 -0.000
vn -0.000 1.000 -0.000
vn -0.000 -1.000 0.000
vn -0.212 -0.975 0.069
vn -0.951 -0.012 0.309
vn -0.858 0.432 0.279
vn -0.000 1.000 0.000
vn -0.000 -1.000 0.000
vn -0.180 -0.975 0.131
vn -0.809 -0.012 0.588
vn -0.730 0.432 0.530
vn -0.000 1.000 0.000
vn -0.000 -1.000 0.000
vn -0.131 -0.975 0.180
vn -0.588 -0.012 0.809
vn -0.530 0.432 0.730
vn -0.000 1.000 0.000
vn -0.000 -1.000 0.000
vn -0.069 -0.975 0.212
vn -0.309 -0.012 0.951
vn -0.279 0.432 0.858
vn -0.000 1.000 0.000
vn -0.000 -1.000 0.000
vn -0.000 -0.975 0.223
vn -0.000 -0.012 1.000
vn -0.000 0.432 0.902
vn -0.000 1.000 0.000
vn 0.000 -1.000 0.000
vn 0.069 -0.975 0.212
vn 0.309 -0.012 0.951
vn 0.279 0.432 0.858
vn 0.000 1.000 0.000
vn 0.000 -1.000 0.000
vn 0.131 -0.975 0.180
vn 0.588 -0.012 0.809
vn 0.530 0.432 0.730
vn 0.000 1.000 0.000
vn 0.000 -1.000 0.000
vn 0.180 -0.975 0.131
vn 0.809 -0.012 0.588
vn 0.730 0.432 0.530
vn 0.000 1.000 0.000
vn 0.000 -1.000 0.000
vn 0.212 -0.975 0.069
vn 0.951 -0.012 0.309
vn 0.858 0.432 0.279
vn 0.000 1.000 0.000
vn 0.000 -1.000 0.000
vn 0.223 -0.975 0.000
vn 1.000 -0.012 0.000
vn 0.902 0.432 0.000
vn 0.000 1.000 0.000
v 0.0000 0.1850 -0.0000
v 0.0110 0.1850 -0.0000
v 0.0118 0.2050 -0.0000
v 0.0130 0.2140 -0.0000
v 0.0080 0.2220 -0.0000
v 0.0000 0.2230 -0.0000
v 0.0000 0.1850 -0.0000
v 0.0089 0.1850 -0.0065
v 0.0095 0.2050 -0.0069
v 0.0105 0.2140 -0.0076
v 0.0065 0.2220 -0.0047
v 0.0000 0.2230 -0.0000
v 0.0000 0.1850 -0.0000
v 0.0034 0.1850 -0.0105
v 0.0036 0.2050 -0.0112
v 0.0040 0.2140 -0.0124
v 0.0025 0.2220 -0.0076
v 0.0000 0.2230 -0.0000
v -0.0000 0.1850 -0.0000
v -0.0034 0.1850 -0.0105
v -0.0036 0.2050 -0.0112
v -0.0040 0.2140 -0.0124
v -0.0025 0.2220 -0.0076
v -0.0000 0.2230 -0.0000
v -0.0000 0.1850 -0.0000
v -0.0089 0.1850 -0.0065
v -0.0095 0.2050 -0.0069
v -0.0105 0.2140 -0.0076
v -0.0065 0.2220 -0.0047
v -0.0000 0.2230 -0.0000
v -0.0000 0.1850 -0.0000
v -0.0110 0.1850 -0.0000
v -0.0118 0.2050 -0.0000
v -0.0130 0.2140 -0.0000
v -0.0080 0.2220 -0.0000
v -0.0000 0.2230 -0.0000
v -0.0000 0.1850 0.0000
v -0.0089 0.1850 0.0065
v -0.0095 0.2050 0.0069
v -0.0105 0.2140 0.0076
v -0.0065 0.2220 0.0047
v -0.0000 0.2230 0.0000
v -0.0000 0.1850 0.0000
v -0.0034 0.1850 0.0105
v -0.0036 0.2050 0.0112
v -0.0040 0.2140 0.0124
v -0.0025 0.2220 0.0076
v -0.0000 0.2230 0.0000
v 0.0000 0.1850 0.0000
v 0.0034 0.1850 0.0105
v 0.0036 0.2050 0.0112
v 0.0040 0.2140 0.0124
v 0.0025 0.2220 0.0076
v 0.0000 0.2230 0.0000
v 0.0000 0.1850 0.0000
v 0.0089 0.1850 0.0065
v 0.0095 0.2050 0.0069
v 0.0105 0.2140 0.0076
v 0.0065 0.2220 0.0047
v 0.0000 0.2230 0.0000
v 0.0000 0.1850 0.0000
v 0.0110 0.1850 0.0000
v 0.0118 0.2050 0.0000
v 0.0130 0.2140 0.0000
v 0.0080 0.2220 0.0000
v 0.0000 0.2230 0.0000
v 0.0145 0.1892 0.0000
v 0.0133 0.1880 0.0000
v 0.0145 0.1868 0.0000
v 0.0157 0.1880 -0.0000
v 0.0145 0.1892 -0.0000
v 0.0131 0.1892 0.0063
v 0.0120 0.1880 0.0058
v 0.0131 0.1868 0.0063
v 0.0141 0.1880 0.0068
v 0.0131 0.1892 0.0063
v 0.0090 0.1892 0.0113
v 0.0083 0.1880 0.0104
v 0.0090 0.1868 0.0113
v 0.0098 0.1880 0.0123
v 0.0090 0.1892 0.0113
v 0.0032 0.1892 0.0141
v 0.0030 0.1880 0.0130
v 0.0032 0.1868 0.0141
v 0.0035 0.1880 0.0153
v 0.0032 0.1892 0.0141
v -0.0032 0.1892 0.0141
v -0.0030 0.1880 0.0130
v -0.0032 0.1868 0.0141
v -0.0035 0.1880 0.0153
v -0.0032 0.1892 0.0141
v -0.0090 0.1892 0.0113
v -0.0083 0.1880 0.0104
v -0.0090 0.1868 0.0113
v -0.0098 0.1880 0.0123
v -0.0090 0.1892 0.0113
v -0.0131 0.1892 0.0063
v -0.0120 0.1880 0.0058
v -0.0131 0.1868 0.0063
v -0.0141 0.1880 0.0068
v -0.0131 0.1892 0.0063
v -0.0145 0.1892 0.0000
v -0.0133 0.1880 0.0000
v -0.0145 0.1868 0.0000
v -0.0157 0.1880 0.0000
v -0.0145 0.1892 0.0000
v -0.0131 0.1892 -0.0063
v -0.0120 0.1880 -0.0058
v -0.0131 0.1868 -0.0063
v -0.0141 0.1880 -0.0068
v -0.0131 0.1892 -0.0063
v -0.0090 0.1892 -0.0113
v -0.0083 0.1880 -0.0104
v -0.0090 0.1868 -0.0113
v -0.0098 0.1880 -0.0123
v -0.0090 0.1892 -0.0113
v -0.0032 0.1892 -0.0141
v -0.0030 0.1880 -0.0130
v -0.0032 0.1868 -0.0141
v -0.0035 0.1880 -0.0153
v -0.0032 0.1892 -0.0141
v 0.0032 0.1892 -0.0141
v 0.0030 0.1880 -0.0130
v 0.0032 0.1868 -0.0141
v 0.0035 0.1880 -0.0153
v 0.0032 0.1892 -0.0141
v 0.0090 0.1892 -0.0113
v 0.0083 0.1880 -0.0104
v 0.0090 0.1868 -0.0113
v 0.0098 0.1880 -0.0123
v 0.0090 0.1892 -0.0113
v 0.0131 0.1892 -0.0063
v 0.0120 0.1880 -0.0058
v 0.0131 0.1868 -0.0063
v 0.0141 0.1880 -0.0068
v 0.0131 0.1892 -0.0063
v 0.0145 0.1892 0.0000
v 0.0133 0.1880 0.0000
v 0.0145 0.1868 0.0000
v 0.0157 0.1880 -0.0000
v 0.0145 0.1892 -0.0000
vt 0.0000 0.0000
vt 0.0000 0.0110
vt 0.0000 0.0310
vt 0.0000 0.0401
vt 0.0000 0.0495
vt 0.0000 0.0576
vt 0.0082 0.0000
vt 0.0082 0.0110
vt 0.0082 0.0310
vt 0.0082 0.0401
vt 0.0082 0.0495
vt 0.0082 0.0576
vt 0.0163 0.0000
vt 0.0163 0.0110
vt 0.0163 0.0310
vt 0.0163 0.0401
vt 0.0163 0.0495
vt 0.0163 0.0576
vt 0.0245 0.0000
vt 0.0245 0.0110
vt 0.0245 0.0310
vt 0.0245 0.0401
vt 0.0245 0.0495
vt 0.0245 0.0576
vt 0.0327 0.0000
vt 0.0327 0.0110
vt 0.0327 0.0310
vt 0.0327 0.0401
vt 0.0327 0.0495
vt 0.0327 0.0576
vt 0.0408 0.0000
vt 0.0408 0.0110
vt 0.0408 0.0310
vt 0.0408 0.0401
vt 0.0408 0.0495
vt 0.0408 0.0576
vt 0.0490 0.0000
vt 0.0490 0.0110
vt 0.0490 0.0310
vt 0.0490 0.0401
vt 0.0490 0.0495
vt 0.0490 0.0576
vt 0.0572 0.0000
vt 0.0572 0.0110
vt 0.0572 0.0310
vt 0.0572 0.0401
vt 0.0572 0.0495
vt 0.0572 0.0576
vt 0.0653 0.0000
vt 0.0653 0.0110
vt 0.0653 0.0310
vt 0.0653 0.0401
vt 0.0653 0.0495
vt 0.0653 0.0576
vt 0.0735 0.0000
vt 0.0735 0.0110
vt 0.0735 0.0310
vt 0.0735 0.0401
vt 0.0735 0.0495
vt 0.0735 0.0576
vt 0.0817 0.0000
vt 0.0817 0.0110
vt 0.0817 0.0310
vt 0.0817 0.0401
vt 0.0817 0.0495
vt 0.0817 0.0576
vt 0.0000 0.0000
vt 0.0000 0.0019
vt 0.0000 0.0038
vt 0.0000 0.0057
vt 0.0000 0.0075
vt 0.0065 0.0000
vt 0.0065 0.0019
vt 0.0065 0.0038
vt 0.0065 0.0057
vt 0.0065 0.0075
vt 0.0129 0.0000
vt 0.0129 0.0019
vt 0.0129 0.0038
vt 0.0129 0.0057
vt 0.0129 0.0075
vt 0.0194 0.0000
vt 0.0194 0.0019
vt 0.0194 0.0038
vt 0.0194 0.0057
vt 0.0194 0.0075
vt 0.0258 0.0000
vt 0.0258 0.0019
vt 0.0258 0.0038
vt 0.0258 0.0057
vt 0.0258 0.0075
vt 0.0323 0.0000
vt 0.0323 0.0019
vt 0.0323 0.0038
vt 0.0323 0.0057
vt 0.0323 0.0075
vt 0.0387 0.0000
vt 0.0387 0.0019
vt 0.0387 0.0038
vt 0.0387 0.0057
vt 0.0387 0.0075
vt 0.0452 0.0000
vt 0.0452 0.0019
vt 0.0452 0.0038
vt 0.0452 0.0057
vt 0.0452 0.0075
vt 0.0516 0.0000
vt 0.0516 0.0019
vt 0.0516 0.0038
vt 0.0516 0.0057
vt 0.0516 0.0075
vt 0.0581 0.0000
vt 0.0581 0.0019
vt 0.0581 0.0038
vt 0.0581 0.0057
vt 0.0581 0.0075
vt 0.0645 0.0000
vt 0.0645 0.0019
vt 0.0645 0.0038
vt 0.0645 0.0057
vt 0.0645 0.0075
vt 0.0710 0.0000
vt 0.0710 0.0019
vt 0.0710 0.0038
vt 0.0710 0.0057
vt 0.0710 0.0075
vt 0.0774 0.0000
vt 0.0774 0.0019
vt 0.0774 0.0038
vt 0.0774 0.0057
vt 0.0774 0.0075
vt 0.0839 0.0000
vt 0.0839 0.0019
vt 0.0839 0.0038
vt 0.0839 0.0057
vt 0.0839 0.0075
vt 0.0903 0.0000
vt 0.0903 0.0019
vt 0.0903 0.0038
vt 0.0903 0.0057
vt 0.0903 0.0075
vn 0.000 -1.000 -0.000
vn 0.861 -0.508 -0.000
vn 0.998 -0.069 -0.000
vn 0.976 0.218 -0.000
vn 0.569 0.822 -0.000
vn 0.124 0.992 -0.000
vn 0.000 -1.000 -0.000
vn 0.697 -0.508 -0.506
vn 0.807 -0.069 -0.586
vn 0.790 0.218 -0.574
vn 0.461 0.822 -0.335
vn 0.100 0.992 -0.073
vn 0.000 -1.000 -0.000
vn 0.266 -0.508 -0.819
vn 0.308 -0.069 -0.949
vn 0.302 0.218 -0.928
vn 0.176 0.822 -0.541
vn 0.038 0.992 -0.118
vn -0.000 -1.000 -0.000
vn -0.266 -0.508 -0.819
vn -0.308 -0.069 -0.949
vn -0.302 0.218 -0.928
vn -0.176 0.822 -0.541
vn -0.038 0.992 -0.118
vn -0.000 -1.000 -0.000
vn -0.697 -0.508 -0.506
vn -0.807 -0.069 -0.586
vn -0.790 0.218 -0.574
vn -0.461 0.822 -0.335
vn -0.100 0.992 -0.073
vn -0.000 -1.000 -0.000
vn -0.861 -0.508 -0.000
vn -0.998 -0.069 -0.000
vn -0.976 0.218 -0.000
vn -0.569 0.822 -0.000
vn -0.124 0.992 -0.000
vn -0.000 -1.000 0.000
vn -0.697 -0.508 0.506
vn -0.807 -0.069 0.586
vn -0.790 0.218 0.574
vn -0.461 0.822 0.335
vn -0.100 0.992 0.073
vn -0.000 -1.000 0.000
vn -0.266 -0.508 0.819
vn -0.308 -0.069 0.949
vn -0.302 0.218 0.928
vn -0.176 0.822 0.541
vn -0.038 0.992 0.118
vn 0.000 -1.000 0.000
vn 0.266 -0.508 0.819
vn 0.308 -0.069 0.949
vn 0.302 0.218 0.928
vn 0.176 0.822 0.541
vn 0.038 0.992 0.118
vn 0.000 -1.000 0.000
vn 0.697 -0.508 0.506
vn 0.807 -0.069 0.586
vn 0.790 0.218 0.574
vn 0.461 0.822 0.335
vn 0.100 0.992 0.073
vn 0.000 -1.000 0.000
vn 0.861 -0.508 0.000
vn 0.998 -0.069 0.000
vn 0.976 0.218 0.000
vn 0.569 0.822 0.000
vn 0.124 0.992 0.000
vn 0.000 1.000 0.000
vn -1.000 0.000 0.000
vn -0.000 -1.000 0.000
vn 1.000 -0.000 -0.000
vn 0.000 1.000 -0.000
vn 0.000 1.000 -0.000
vn -0.901 0.000 -0.434
vn -0.000 -1.000 -0.000
vn 0.901 -0.000 0.434
vn 0.000 1.000 0.000
vn 0.000 1.000 -0.000
vn -0.623 0.000 -0.782
vn -0.000 -1.000 -0.000
vn 0.623 -0.000 0.782
vn 0.000 1.000 0.000
vn 0.000 1.000 -0.000
vn -0.223 0.000 -0.975
vn -0.000 -1.000 -0.000
vn 0.223 -0.000 0.975
vn 0.000 1.000 0.000
vn 0.000 1.000 0.000
vn 0.223 0.000 -0.975
vn 0.000 -1.000 -0.000
vn -0.223 -0.000 0.975
vn -0.000 1.000 0.000
vn 0.000 1.000 0.000
vn 0.623 0.000 -0.782
vn 0.000 -1.000 -0.000
vn -0.623 -0.000 0.782
vn -0.000 1.000 0.000
vn 0.000 1.000 0.000
vn 0.901 0.000 -0.434
vn 0.000 -1.000 -0.000
vn -0.901 -0.000 0.434
vn -0.000 1.000 0.000
vn 0.000 1.000 0.000
vn 1.000 0.000 -0.000
vn 0.000 -1.000 -0.000
vn -1.000 -0.000 0.000
vn -0.000 1.000 0.000
vn 0.000 1.000 0.000
vn 0.901 0.000 0.434
vn 0.000 -1.000 0.000
vn -0.901 -0.000 -0.434
vn -0.000 1.000 -0.000
vn 0.000 1.000 0.000
vn 0.623 0.000 0.782
vn 0.000 -1.000 0.000
vn -0.623 -0.000 -0.782
vn -0.000 1.000 -0.000
vn 0.000 1.000 0.000
vn 0.223 0.000 0.975
vn 0.000 -1.000 0.000
vn -0.223 -0.000 -0.975
vn -0.000 1.000 -0.000
vn 0.000 1.000 0.000
vn -0.223 0.000 0.975
vn -0.000 -1.000 0.000
vn 0.223 -0.000 -0.975
vn 0.000 1.000 -0.000
vn 0.000 1.000 0.000
vn -0.623 0.000 0.782
vn -0.000 -1.000 0.000
vn 0.623 -0.000 -0.782
vn 0.000 1.000 -0.000
vn 0.000 1.000 0.000
vn -0.901 0.000 0.434
vn -0.000 -1.000 0.000
vn 0.901 -0.000 -0.434
vn 0.000 1.000 -0.000
vn 0.000 1.000 0.000
vn -1.000 0.000 0.000
vn -0.000 -1.000 0.000
vn 1.000 -0.000 -0.000
vn 0.000 1.000 -0.000
v 0.0193 0.0350 0.0333
v 0.0272 0.0350 0.0272
v 0.0333 0.0350 0.0192
v 0.0372 0.0350 0.0100
v 0.0385 0.0350 -0.0000
v 0.0372 0.0350 -0.0100
v 0.0333 0.0350 -0.0192
v 0.0301 0.0350 -0.0301
v 0.0213 0.0350 -0.0368
v 0.0193 0.0950 0.0333
v 0.0272 0.0950 0.0272
v 0.0333 0.0950 0.0192
v 0.0372 0.0950 0.0100
v 0.0385 0.0950 -0.0000
v 0.0372 0.0950 -0.0100
v 0.0333 0.0950 -0.0192
v 0.0272 0.0950 -0.0272
v 0.0193 0.0950 -0.0333
v 0.0193 0.0350 0.0333
v 0.0272 0.0350 0.0272
v 0.0333 0.0350 0.0192
v 0.0372 0.0350 0.0100
v 0.0385 0.0350 -0.0000
v 0.0372 0.0350 -0.0100
v 0.0333 0.0350 -0.0192
v 0.0301 0.0350 -0.0301
v 0.0213 0.0350 -0.0368
v 0.0193 0.0950 0.0333
v 0.0272 0.0950 0.0272
v 0.0333 0.0950 0.0192
v 0.0372 0.0950 0.0100
v 0.0385 0.0950 -0.0000
v 0.0372 0.0950 -0.0100
v 0.0333 0.0950 -0.0192
v 0.0272 0.0950 -0.0272
v 0.0193 0.0950 -0.0333
vt 0.0000 0.0000
vt 0.1250 0.0000
vt 0.2500 0.0000
vt 0.3750 0.0000
vt 0.5000 0.0000
vt 0.6250 0.0000
vt 0.7500 0.0000
vt 0.8750 0.0000
vt 1.0000 0.0000
vt 0.0000 1.0000
vt 0.1250 1.0000
vt 0.2500 1.0000
vt 0.3750 1.0000
vt 0.5000 1.0000
vt 0.6250 1.0000
vt 0.7500 1.0000
vt 0.8750 1.0000
vt 1.0000 1.0000
vt 0.0000 0.0000
vt 0.1250 0.0000
vt 0.2500 0.0000
vt 0.3750 0.0000
vt 0.5000 0.0000
vt 0.6250 0.0000
vt 0.7500 0.0000
vt 0.8750 0.0000
vt 1.0000 0.0000
vt 0.0000 1.0000
vt 0.1250 1.0000
vt 0.2500 1.0000
vt 0.3750 1.0000
vt 0.5000 1.0000
vt 0.6250 1.0000
vt 0.7500 1.0000
vt 0.8750 1.0000
vt 1.0000 1.0000
vn 0.609 -0.000 0.793
vn 0.707 -0.000 0.707
vn 0.866 -0.000 0.500
vn 0.966 -0.000 0.259
vn 1.000 -0.000 0.000
vn 0.966 0.000 -0.259
vn 0.942 0.000 -0.335
vn 0.822 0.065 -0.566
vn 0.607 0.066 -0.792
vn 0.609 -0.000 0.793
vn 0.707 -0.000 0.707
vn 0.866 -0.000 0.500
vn 0.966 -0.000 0.259
vn 1.000 -0.000 0.000
vn 0.966 0.000 -0.259
vn 0.866 0.000 -0.500
vn 0.706 0.067 -0.706
vn 0.607 0.066 -0.792
vn -0.609 0.000 -0.793
vn -0.707 0.000 -0.707
vn -0.866 0.000 -0.500
vn -0.966 0.000 -0.259
vn -1.000 0.000 -0.000
vn -0.966 -0.000 0.259
vn -0.942 -0.000 0.335
vn -0.822 -0.065 0.566
vn -0.607 -0.066 0.792
vn -0.609 0.000 -0.793
vn -0.707 0.000 -0.707
vn -0.866 0.000 -0.500
vn -0.966 0.000 -0.259
vn -1.000 0.000 -0.000
vn -0.966 -0.000 0.259
vn -0.866 -0.000 0.500
vn -0.706 -0.067 0.706
vn -0.607 -0.066 0.792
usemtl glass
f 1/1/1 15/15/15 16/16/16
f 1/1/1 16/16/16 2/2/2
f 2/2/2 16/16/16 17/17/17
f 2/2/2 17/17/17 3/3/3
f 3/3/3 17/17/17 18/18/18
f 3/3/3 18/18/18 4/4/4
f 4/4/4 18/18/18 19/19/19
f 4/4/4 19/19/19 5/5/5
f 5/5/5 19/19/19 20/20/20
f 5/5/5 20/20/20 6/6/6
f 6/6/6 20/20/20 21/21/21
f 6/6/6 21/21/21 7/7/7
f 7/7/7 21/21/21 22/22/22
f 7/7/7 22/22/22 8/8/8
f 8/8/8 22/22/22 23/23/23
f 8/8/8 23/23/23 9/9/9
f 9/9/9 23/23/23 24/24/24
f 9/9/9 24/24/24 10/10/10
f 10/10/10 24/24/24 25/25/25
f 10/10/10 25/25/25 11/11/11
f 11/11/11 25/25/25 26/26/26
f 11/11/11 26/26/26 12/12/12
f 12/12/12 26/26/26 27/27/27
f 12/12/12 27/27/27 13/13/13
f 13/13/13 27/27/27 28/28/28
f 13/13/13 28/28/28 14/14/14
f 15/15/15 29/29/29 30/30/30
f 15/15/15 30/30/30 16/16/16
f 16/16/16 30/30/30 31/31/31
f 16/16/16 31/31/31 17/17/17
f 17/17/17 31/31/31 32/32/32
f 17/17/17 32/32/32 18/18/18
f 18/18/18 32/32/32 33/33/33
f 18/18/18 33/33/33 19/19/19
f 19/19/19 33/33/33 34/34/34
f 19/19/19 34/34/34 20/20/20
f 20/20/20 34/34/34 35/35/35
f 20/20/20 35/35/35 21/21/21
f 21/21/21 35/35/35 36/36/36
f 21/21/21 36/36/36 22/22/22
f 22/22/22 36/36/36 37/37/37
f 22/22/22 37/37/37 23/23/23
f 23/23/23 37/37/37 38/38/38
f 23/23/23 38/38/38 24/24/24
f 24/24/24 38/38/38 39/39/39
f 24/24/24 39/39/39 25/25/25
f 25/25/25 39/39/39 40/40/40
f 25/25/25 40/40/40 26/26/26
f 26/26/26 40/40/40 41/41/41
f 26/26/26 41/41/41 27/27/27
f 27/27/27 41/41/41 42/42/42
f 27/27/27 42/42/42 28/28/28
f 29/29/29 43/43/43 44/44/44
f 29/29/29 44/44/44 30/30/30
f 30/30/30 44/44/44 45/45/45
f 30/30/30 45/45/45 31/31/31
f 31/31/31 45/45/45 46/46/46
f 31/31/31 46/46/46 32/32/32
f 32/32/32 46/46/46 47/47/47
f 32/32/32 47/47/47 33/33/33
f 33/33/33 47/47/47 48/48/48
f 33/33/33 48/48/48 34/34/34
f 34/34/34 48/48/48 49/49/49
f 34/34/34 49/49/49 35/35/35
f 35/35/35 49/49/49 50/50/50
f 35/35/35 50/50/50 36/36/36
f 36/36/36 50/50/50 51/51/51
f 36/36/36 51/51/51 37/37/37
f 37/37/37 51/51/51 52/52/52
f 37/37/37 52/52/52 38/38/38
f 38/38/38 52/52/52 53/53/53
f 38/38/38 53/53/53 39/39/39
f 39/39/39 53/53/53 54/54/54
f 39/39/39 54/54/54 40/40/40
f 40/40/40 54/54/54 55/55/55
f 40/40/40 55/55/55 41/41/41
f 41/41/41 55/55/55 56/56/56
f 41/41/41 56/56/56 42/42/42
f 43/43/43 57/57/57 58/58/58
f 43/43/43 58/58/58 44/44/44
f 44/44/44 58/58/58 59/59/59
f 44/44/44 59/59/59 45/45/45
f 45/45/45 59/59/59 60/60/60
f 45/45/45 60/60/60 46/46/46
f 46/46/46 60/60/60 61/61/61
f 46/46/46 61/61/61 47/47/47
f 47/47/47 61/61/61 62/62/62
f 47/47/47 62/62/62 48/48/48
f 48/48/48 62/62/62 63/63/63
f 48/48/48 63/63/63 49/49/49
f 49/49/49 63/63/63 64/64/64
f 49/49/49 64/64/64 50/50/50
f 50/50/50 64/64/64 65/65/65
f 50/50/50 65/65/65 51/51/51
f 51/51/51 65/65/65 66/66/66
f 51/51/51 66/66/66 52/52/52
f 52/52/52 66/66/66 67/67/67
f 52/52/52 67/67/67 53/53/53
f 53/53/53 67/67/67 68/68/68
f 53/53/53 68/68/68 54/54/54
f 54/54/54 68/68/68 69/69/69
f 54/54/54 69/69/69 55/55/55
f 55/55/55 69/69/69 70/70/70
f 55/55/55 70/70/70 56/56/56
f 57/57/57 71/71/71 72/72/72
f 57/57/57 72/72/72 58/58/58
f 58/58/58 72/72/72 73/73/73
f 58/58/58 73/73/73 59/59/59
f 59/59/59 73/73/73 74/74/74
f 59/59/59 74/74/74 60/60/60
f 60/60/60 74/74/74 75/75/75
f 60/60/60 75/75/75 61/61/61
f 61/61/61 75/75/75 76/76/76
f 61/61/61 76/76/76 62/62/62
f 62/62/62 76/76/76 77/77/77
f 62/62/62 77/77/77 63/63/63
f 63/63/63 77/77/77 78/78/78
f 63/63/63 78/78/78 64/64/64
f 64/64/64 78/78/78 79/79/79
f 64/64/64 79/79/79 65/65/65
f 65/65/65 79/79/79 80/80/80
f 65/65/65 80/80/80 66/66/66
f 66/66/66 80/80/80 81/81/81
f 66/66/66 81/81/81 67/67/67
f 67/67/67 81/81/81 82/82/82
f 67/67/67 82/82/82 68/68/68
f 68/68/68 82/82/82 83/83/83
f 68/68/68 83/83/83 69/69/69
f 69/69/69 83/83/83 84/84/84
f 69/69/69 84/84/84 70/70/70
f 71/71/71 85/85/85 86/86/86
f 71/71/71 86/86/86 72/72/72
f 72/72/72 86/86/86 87/87/87
f 72/72/72 87/87/87 73/73/73
f 73/73/73 87/87/87 88/88/88
f 73/73/73 88/88/88 74/74/74
f 74/74/74 88/88/88 89/89/89
f 74/74/74 89/89/89 75/75/75
f 75/75/75 89/89/89 90/90/90
f 75/75/75 90/90/90 76/76/76
f 76/76/76 90/90/90 91/91/91
f 76/76/76 91/91/91 77/77/77
f 77/77/77 91/91/91 92/92/92
f 77/77/77 92/92/92 78/78/78
f 78/78/78 92/92/92 93/93/93
f 78/78/78 93/93/93 79/79/79
f 79/79/79 93/93/93 94/94/94
f 79/79/79 94/94/94 80/80/80
f 80/80/80 94/94/94 95/95/95
f 80/80/80 95/95/95 81/81/81
f 81/81/81 95/95/95 96/96/96
f 81/81/81 96/96/96 82/82/82
f 82/82/82 96/96/96 97/97/97
f 82/82/82 97/97/97 83/83/83
f 83/83/83 97/97/97 98/98/98
f 83/83/83 98/98/98 84/84/84
f 85/85/85 99/99/99 100/100/100
f 85/85/85 100/100/100 86/86/86
f 86/86/86 100/100/100 101/101/101
f 86/86/86 101/101/101 87/87/87
f 87/87/87 101/101/101 102/102/102
f 87/87/87 102/102/102 88/88/88
f 88/88/88 102/102/102 103/103/103
f 88/88/88 103/103/103 89/89/89
f 89/89/89 103/103/103 104/104/104
f 89/89/89 104/104/104 90/90/90
f 90/90/90 104/104/104 105/105/105
f 90/90/90 105/105/105 91/91/91
f 91/91/91 105/105/105 106/106/106
f 91/91/91 106/106/106 92/92/92
f 92/92/92 106/106/106 107/107/107
f 92/92/92 107/107/107 93/93/93
f 93/93/93 107/107/107 108/108/108
f 93/93/93 108/108/108 94/94/94
f 94/94/94 108/108/108 109/109/109
f 94/94/94 109/109/109 95/95/95
f 95/95/95 109/109/109 110/110/110
f 95/95/95 110/110/110 96/96/96
f 96/96/96 110/110/110 111/111/111
f 96/96/96 111/111/111 97/97/97
f 97/97/97 111/111/111 112/112/112
f 97/97/97 112/112/112 98/98/98
f 99/99/99 113/113/113 114/114/114
f 99/99/99 114/114/114 100/100/100
f 100/100/100 114/114/114 115/115/115
f 100/100/100 115/115/115 101/101/101
f 101/101/101 115/115/115 116/116/116
f 101/101/101 116/116/116 102/102/102
f 102/102/102 116/116/116 117/117/117
f 102/102/102 117/117/117 103/103/103
f 103/103/103 117/117/117 118/118/118
f 103/103/103 118/118/118 104/104/104
f 104/104/104 118/118/118 119/119/119
f 104/104/104 119/119/119 105/105/105
f 105/105/105 119/119/119 120/120/120
f 105/105/105 120/120/120 106/106/106
f 106/106/106 120/120/120 121/121/121
f 106/106/106 121/121/121 107/107/107
f 107/107/107 121/121/121 122/122/122
f 107/107/107 122/122/122 108/108/108
f 108/108/108 122/122/122 123/123/123
f 108/108/108 123/123/123 109/109/109
f 109/109/109 123/123/123 124/124/124
f 109/109/109 124/124/124 110/110/110
f 110/110/110 124/124/124 125/125/125
f 110/110/110 125/125/125 111/111/111
f 111/111/111 125/125/125 126/126/126
f 111/111/111 126/126/126 112/112/112
f 113/113/113 127/127/127 128/128/128
f 113/113/113 128/128/128 114/114/114
f 114/114/114 128/128/128 129/129/129
f 114/114/114 129/129/129 115/115/115
f 115/115/115 129/129/129 130/130/130
f 115/115/115 130/130/130 116/116/116
f 116/116/116 130/130/130 131/131/131
f 116/116/116 131/131/131 117/117/117
f 117/117/117 131/131/131 132/132/132
f 117/117/117 132/132/132 118/118/118
f 118/118/118 132/132/132 133/133/133
f 118/118/118 133/133/133 119/119/119
f 119/119/119 133/133/133 134/134/134
f 119/119/119 134/134/134 120/120/120
f 120/120/120 134/134/134 135/135/135
f 120/120/120 135/135/135 121/121/121
f 121/121/121 135/135/135 136/136/136
f 121/121/121 136/136/136 122/122/122
f 122/122/122 136/136/136 137/137/137
f 122/122/122 137/137/137 123/123/123
f 123/123/123 137/137/137 138/138/138
f 123/123/123 138/138/138 124/124/124
f 124/124/124 138/138/138 139/139/139
f 124/124/124 139/139/139 125/125/125
f 125/125/125 139/139/139 140/140/140
f 125/125/125 140/140/140 126/126/126
f 127/127/127 141/141/141 142/142/142
f 127/127/127 142/142/142 128/128/128
f 128/128/128 142/142/142 143/143/143
f 128/128/128 143/143/143 129/129/129
f 129/129/129 143/143/143 144/144/144
f 129/129/129 144/144/144 130/130/130
f 130/130/130 144/144/144 145/145/145
f 130/130/130 145/145/145 131/131/131
f 131/131/131 145/145/145 146/146/146
f 131/131/131 146/146/146 132/132/132
f 132/132/132 146/146/146 147/147/147
f 132/132/132 147/147/147 133/133/133
f 133/133/133 147/147/147 148/148/148
f 133/133/133 148/148/148 134/134/134
f 134/134/134 148/148/148 149/149/149
f 134/134/134 149/149/149 135/135/135
f 135/135/135 149/149/149 150/150/150
f 135/135/135 150/150/150 136/136/136
f 136/136/136 150/150/150 151/151/151
f 136/136/136 151/151/151 137/137/137
f 137/137/137 151/151/151 152/152/152
f 137/137/137 152/152/152 138/138/138
f 138/138/138 152/152/152 153/153/153
f 138/138/138 153/153/153 139/139/139
f 139/139/139 153/153/153 154/154/154
f 139/139/139 154/154/154 140/140/140
f 141/141/141 155/155/155 156/156/156
f 141/141/141 156/156/156 142/142/142
f 142/142/142 156/156/156 157/157/157
f 142/142/142 157/157/157 143/143/143
f 143/143/143 157/157/157 158/158/158
f 143/143/143 158/158/158 144/144/144
f 144/144/144 158/158/158 159/159/159
f 144/144/144 159/159/159 145/145/145
f 145/145/145 159/159/159 160/160/160
f 145/145/145 160/160/160 146/146/146
f 146/146/146 160/160/160 161/161/161
f 146/146/146 161/161/161 147/147/147
f 147/147/147 161/161/161 162/162/162
f 147/147/147 162/162/162 148/148/148
f 148/148/148 162/162/162 163/163/163
f 148/148/148 163/163/163 149/149/149
f 149/149/149 163/163/163 164/164/164
f 149/149/149 164/164/164 150/150/150
f 150/150/150 164/164/164 165/165/165
f 150/150/150 165/165/165 151/151/151
f 151/151/151 165/165/165 166/166/166
f 151/151/151 166/166/166 152/152/152
f 152/152/152 166/166/166 167/167/167
f 152/152/152 167/167/167 153/153/153
f 153/153/153 167/167/167 168/168/168
f 153/153/153 168/168/168 154/154/154
f 155/155/155 169/169/169 170/170/170
f 155/155/155 170/170/170 156/156/156
f 156/156/156 170/170/170 171/171/171
f 156/156/156 171/171/171 157/157/157
f 157/157/157 171/171/171 172/172/172
f 157/157/157 172/172/172 158/158/158
f 158/158/158 172/172/172 173/173/173
f 158/158/158 173/173/173 159/159/159
f 159/159/159 173/173/173 174/174/174
f 159/159/159 174/174/174 160/160/160
f 160/160/160 174/174/174 175/175/175
f 160/160/160 175/175/175 161/161/161
f 161/161/161 175/175/175 176/176/176
f 161/161/161 176/176/176 162/162/162
f 162/162/162 176/176/176 177/177/177
f 162/162/162 177/177/177 163/163/163
f 163/163/163 177/177/177 178/178/178
f 163/163/163 178/178/178 164/164/164
f 164/164/164 178/178/178 179/179/179
f 164/164/164 179/179/179 165/165/165
f 165/165/165 179/179/179 180/180/180
f 165/165/165 180/180/180 166/166/166
f 166/166/166 180/180/180 181/181/181
f 166/166/166 181/181/181 167/167/167
f 167/167/167 181/181/181 182/182/182
f 167/167/167 182/182/182 168/168/168
f 169/169/169 183/183/183 184/184/184
f 169/169/169 184/184/184 170/170/170
f 170/170/170 184/184/184 185/185/185
f 170/170/170 185/185/185 171/171/171
f 171/171/171 185/185/185 186/186/186
f 171/171/171 186/186/186 172/172/172
f 172/172/172 186/186/186 187/187/187
f 172/172/172 187/187/187 173/173/173
f 173/173/173 187/187/187 188/188/188
f 173/173/173 188/188/188 174/174/174
f 174/174/174 188/188/188 189/189/189
f 174/174/174 189/189/189 175/175/175
f 175/175/175 189/189/189 190/190/190
f 175/175/175 190/190/190 176/176/176
f 176/176/176 190/190/190 191/191/191
f 176/176/176 191/191/191 177/177/177
f 177/177/177 191/191/191 192/192/192
f 177/177/177 192/192/192 178/178/178
f 178/178/178 192/192/192 193/193/193
f 178/178/178 193/193/193 179/179/179
f 179/179/179 193/193/193 194/194/194
f 179/179/179 194/194/194 180/180/180
f 180/180/180 194/194/194 195/195/195
f 180/180/180 195/195/195 181/181/181
f 181/181/181 195/195/195 196/196/196
f 181/181/181 196/196/196 182/182/182
f 183/183/183 197/197/197 198/198/198
f 183/183/183 198/198/198 184/184/184
f 184/184/184 198/198/198 199/199/199
f 184/184/184 199/199/199 185/185/185
f 185/185/185 199/199/199 200/200/200
f 185/185/185 200/200/200 186/186/186
f 186/186/186 200/200/200 201/201/201
f 186/186/186 201/201/201 187/187/187
f 187/187/187 201/201/201 202/202/202
f 187/187/187 202/202/202 188/188/188
f 188/188/188 202/202/202 203/203/203
f 188/188/188 203/203/203 189/189/189
f 189/189/189 203/203/203 204/204/204
f 189/189/189 204/204/204 190/190/190
f 190/190/190 204/204/204 205/205/205
f 190/190/190 205/205/205 191/191/191
f 191/191/191 205/205/205 206/206/206
f 191/191/191 206/206/206 192/192/192
f 192/192/192 206/206/206 207/207/207
f 192/192/192 207/207/207 193/193/193
f 193/193/193 207/207/207 208/208/208
f 193/193/193 208/208/208 194/194/194
f 194/194/194 208/208/208 209/209/209
f 194/194/194 209/209/209 195/195/195
f 195/195/195 209/209/209 210/210/210
f 195/195/195 210/210/210 196/196/196
f 197/197/197 211/211/211 212/212/212
f 197/197/197 212/212/212 198/198/198
f 198/198/198 212/212/212 213/213/213
f 198/198/198 213/213/213 199/199/199
f 199/199/199 213/213/213 214/214/214
f 199/199/199 214/214/214 200/200/200
f 200/200/200 214/214/214 215/215/215
f 200/200/200 215/215/215 201/201/201
f 201/201/201 215/215/215 216/216/216
f 201/201/201 216/216/216 202/202/202
f 202/202/202 216/216/216 217/217/217
f 202/202/202 217/217/217 203/203/203
f 203/203/203 217/217/217 218/218/218
f 203/203/203 218/218/218 204/204/204
f 204/204/204 218/218/218 219/219/219
f 204/204/204 219/219/219 205/205/205
f 205/205/205 219/219/219 220/220/220
f 205/205/205 220/220/220 206/206/206
f 206/206/206 220/220/220 221/221/221
f 206/206/206 221/221/221 207/207/207
f 207/207/207 221/221/221 222/222/222
f 207/207/207 222/222/222 208/208/208
f 208/208/208 222/222/222 223/223/223
f 208/208/208 223/223/223 209/209/209
f 209/209/209 223/223/223 224/224/224
f 209/209/209 224/224/224 210/210/210
f 211/211/211 225/225/225 226/226/226
f 211/211/211 226/226/226 212/212/212
f 212/212/212 226/226/226 227/227/227
f 212/212/212 227/227/227 213/213/213
f 213/213/213 227/227/227 228/228/228
f 213/213/213 228/228/228 214/214/214
f 214/214/214 228/228/228 229/229/229
f 214/214/214 229/229/229 215/215/215
f 215/215/215 229/229/229 230/230/230
f 215/215/215 230/230/230 216/216/216
f 216/216/216 230/230/230 231/231/231
f 216/216/216 231/231/231 217/217/217
f 217/217/217 231/231/231 232/232/232
f 217/217/217 232/232/232 218/218/218
f 218/218/218 232/232/232 233/233/233
f 218/218/218 233/233/233 219/219/219
f 219/219/219 233/233/233 234/234/234
f 219/219/219 234/234/234 220/220/220
f 220/220/220 234/234/234 235/235/235
f 220/220/220 235/235/235 221/221/221
f 221/221/221 235/235/235 236/236/236
f 221/221/221 236/236/236 222/222/222
f 222/222/222 236/236/236 237/237/237
f 222/222/222 237/237/237 223/223/223
f 223/223/223 237/237/237 238/238/238
f 223/223/223 238/238/238 224/224/224
f 225/225/225 239/239/239 240/240/240
f 225/225/225 240/240/240 226/226/226
f 226/226/226 240/240/240 241/241/241
f 226/226/226 241/241/241 227/227/227
f 227/227/227 241/241/241 242/242/242
f 227/227/227 242/242/242 228/228/228
f 228/228/228 242/242/242 243/243/243
f 228/228/228 243/243/243 229/229/229
f 229/229/229 243/243/243 244/244/244
f 229/229/229 244/244/244 230/230/230
f 230/230/230 244/244/244 245/245/245
f 230/230/230 245/245/245 231/231/231
f 231/231/231 245/245/245 246/246/246
f 231/231/231 246/246/246 232/232/232
f 232/232/232 246/246/246 247/247/247
f 232/232/232 247/247/247 233/233/233
f 233/233/233 247/247/247 248/248/248
f 233/233/233 248/248/248 234/234/234
f 234/234/234 248/248/248 249/249/249
f 234/234/234 249/249/249 235/235/235
f 235/235/235 249/249/249 250/250/250
f 235/235/235 250/250/250 236/236/236
f 236/236/236 250/250/250 251/251/251
f 236/236/236 251/251/251 237/237/237
f 237/237/237 251/251/251 252/252/252
f 237/237/237 252/252/252 238/238/238
f 239/239/239 253/253/253 254/254/254
f 239/239/239 254/254/254 240/240/240
f 240/240/240 254/254/254 255/255/255
f 240/240/240 255/255/255 241/241/241
f 241/241/241 255/255/255 256/256/256
f 241/241/241 256/256/256 242/242/242
f 242/242/242 256/256/256 257/257/257
f 242/242/242 257/257/257 243/243/243
f 243/243/243 257/257/257 258/258/258
f 243/243/243 258/258/258 244/244/244
f 244/244/244 258/258/258 259/259/259
f 244/244/244 259/259/259 245/245/245
f 245/245/245 259/259/259 260/260/260
f 245/245/245 260/260/260 246/246/246
f 246/246/246 260/260/260 261/261/261
f 246/246/246 261/261/261 247/247/247
f 247/247/247 261/261/261 262/262/262
f 247/247/247 262/262/262 248/248/248
f 248/248/248 262/262/262 263/263/263
f 248/248/248 263/263/263 249/249/249
f 249/249/249 263/263/263 264/264/264
f 249/249/249 264/264/264 250/250/250
f 250/250/250 264/264/264 265/265/265
f 250/250/250 265/265/265 251/251/251
f 251/251/251 265/265/265 266/266/266
f 251/251/251 266/266/266 252/252/252
f 253/253/253 267/267/267 268/268/268
f 253/253/253 268/268/268 254/254/254
f 254/254/254 268/268/268 269/269/269
f 254/254/254 269/269/269 255/255/255
f 255/255/255 269/269/269 270/270/270
f 255/255/255 270/270/270 256/256/256
f 256/256/256 270/270/270 271/271/271
f 256/256/256 271/271/271 257/257/257
f 257/257/257 271/271/271 272/272/272
f 257/257/257 272/272/272 258/258/258
f 258/258/258 272/272/272 273/273/273
f 258/258/258 273/273/273 259/259/259
f 259/259/259 273/273/273 274/274/274
f 259/259/259 274/274/274 260/260/260
f 260/260/260 274/274/274 275/275/275
f 260/260/260 275/275/275 261/261/261
f 261/261/261 275/275/275 276/276/276
f 261/261/261 276/276/276 262/262/262
f 262/262/262 276/276/276 277/277/277
f 262/262/262 277/277/277 263/263/263
f 263/263/263 277/277/277 278/278/278
f 263/263/263 278/278/278 264/264/264
f 264/264/264 278/278/278 279/279/279
f 264/264/264 279/279/279 265/265/265
f 265/265/265 279/279/279 280/280/280
f 265/265/265 280/280/280 266/266/266
f 267/267/267 281/281/281 282/282/282
f 267/267/267 282/282/282 268/268/268
f 268/268/268 282/282/282 283/283/283
f 268/268/268 283/283/283 269/269/269
f 269/269/269 283/283/283 284/284/284
f 269/269/269 284/284/284 270/270/270
f 270/270/270 284/284/284 285/285/285
f 270/270/270 285/285/285 271/271/271
f 271/271/271 285/285/285 286/286/286
f 271/271/271 286/286/286 272/272/272
f 272/272/272 286/286/286 287/287/287
f 272/272/272 287/287/287 273/273/273
f 273/273/273 287/287/287 288/288/288
f 273/273/273 288/288/288 274/274/274
f 274/274/274 288/288/288 289/289/289
f 274/274/274 289/289/289 275/275/275
f 275/275/275 289/289/289 290/290/290
f 275/275/275 290/290/290 276/276/276
f 276/276/276 290/290/290 291/291/291
f 276/276/276 291/291/291 277/277/277
f 277/277/277 291/291/291 292/292/292
f 277/277/277 292/292/292 278/278/278
f 278/278/278 292/292/292 293/293/293
f 278/278/278 293/293/293 279/279/279
f 279/279/279 293/293/293 294/294/294
f 279/279/279 294/294/294 280/280/280
f 281/281/281 295/295/295 296/296/296
f 281/281/281 296/296/296 282/282/282
f 282/282/282 296/296/296 297/297/297
f 282/282/282 297/297/297 283/283/283
f 283/283/283 297/297/297 298/298/298
f 283/283/283 298/298/298 284/284/284
f 284/284/284 298/298/298 299/299/299
f 284/284/284 299/299/299 285/285/285
f 285/285/285 299/299/299 300/300/300
f 285/285/285 300/300/300 286/286/286
f 286/286/286 300/300/300 301/301/301
f 286/286/286 301/301/301 287/287/287
f 287/287/287 301/301/301 302/302/302
f 287/287/287 302/302/302 288/288/288
f 288/288/288 302/302/302 303/303/303
f 288/288/288 303/303/303 289/289/289
f 289/289/289 303/303/303 304/304/304
f 289/289/289 304/304/304 290/290/290
f 290/290/290 304/304/304 305/305/305
f 290/290/290 305/305/305 291/291/291
f 291/291/291 305/305/305 306/306/306
f 291/291/291 306/306/306 292/292/292
f 292/292/292 306/306/306 307/307/307
f 292/292/292 307/307/307 293/293/293
f 293/293/293 307/307/307 308/308/308
f 293/293/293 308/308/308 294/294/294
f 295/295/295 309/309/309 310/310/310
f 295/295/295 310/310/310 296/296/296
f 296/296/296 310/310/310 311/311/311
f 296/296/296 311/311/311 297/297/297
f 297/297/297 311/311/311 312/312/312
f 297/297/297 312/312/312 298/298/298
f 298/298/298 312/312/312 313/313/313
f 298/298/298 313/313/313 299/299/299
f 299/299/299 313/313/313 314/314/314
f 299/299/299 314/314/314 300/300/300
f 300/300/300 314/314/314 315/315/315
f 300/300/300 315/315/315 301/301/301
f 301/301/301 315/315/315 316/316/316
f 301/301/301 316/316/316 302/302/302
f 302/302/302 316/316/316 317/317/317
f 302/302/302 317/317/317 303/303/303
f 303/303/303 317/317/317 318/318/318
f 303/303/303 318/318/318 304/304/304
f 304/304/304 318/318/318 319/319/319
f 304/304/304 319/319/319 305/305/305
f 305/305/305 319/319/319 320/320/320
f 305/305/305 320/320/320 306/306/306
f 306/306/306 320/320/320 321/321/321
f 306/306/306 321/321/321 307/307/307
f 307/307/307 321/321/321 322/322/322
f 307/307/307 322/322/322 308/308/308
f 309/309/309 323/323/323 324/324/324
f 309/309/309 324/324/324 310/310/310
f 310/310/310 324/324/324 325/325/325
f 310/310/310 325/325/325 311/311/311
f 311/311/311 325/325/325 326/326/326
f 311/311/311 326/326/326 312/312/312
f 312/312/312 326/326/326 327/327/327
f 312/312/312 327/327/327 313/313/313
f 313/313/313 327/327/327 328/328/328
f 313/313/313 328/328/328 314/314/314
f 314/314/314 328/328/328 329/329/329
f 314/314/314 329/329/329 315/315/315
f 315/315/315 329/329/329 330/330/330
f 315/315/315 330/330/330 316/316/316
f 316/316/316 330/330/330 331/331/331
f 316/316/316 331/331/331 317/317/317
f 317/317/317 331/331/331 332/332/332
f 317/317/317 332/332/332 318/318/318
f 318/318/318 332/332/332 333/333/333
f 318/318/318 333/333/333 319/319/319
f 319/319/319 333/333/333 334/334/334
f 319/319/319 334/334/334 320/320/320
f 320/320/320 334/334/334 335/335/335
f 320/320/320 335/335/335 321/321/321
f 321/321/321 335/335/335 336/336/336
f 321/321/321 336/336/336 322/322/322
f 323/323/323 337/337/337 338/338/338
f 323/323/323 338/338/338 324/324/324
f 324/324/324 338/338/338 339/339/339
f 324/324/324 339/339/339 325/325/325
f 325/325/325 339/339/339 340/340/340
f 325/325/325 340/340/340 326/326/326
f 326/326/326 340/340/340 341/341/341
f 326/326/326 341/341/341 327/327/327
f 327/327/327 341/341/341 342/342/342
f 327/327/327 342/342/342 328/328/328
f 328/328/328 342/342/342 343/343/343
f 328/328/328 343/343/343 329/329/329
f 329/329/329 343/343/343 344/344/344
f 329/329/329 344/344/344 330/330/330
f 330/330/330 344/344/344 345/345/345
f 330/330/330 345/345/345 331/331/331
f 331/331/331 345/345/345 346/346/346
f 331/331/331 346/346/346 332/332/332
f 332/332/332 346/346/346 347/347/347
f 332/332/332 347/347/347 333/333/333
f 333/333/333 347/347/347 348/348/348
f 333/333/333 348/348/348 334/334/334
f 334/334/334 348/348/348 349/349/349
f 334/334/334 349/349/349 335/335/335
f 335/335/335 349/349/349 350/350/350
f 335/335/335 350/350/350 336/336/336
usemtl oil
f 351/351/351 356/356/356 357/357/357
f 351/351/351 357/357/357 352/352/352
f 352/352/352 357/357/357 358/358/358
f 352/352/352 358/358/358 353/353/353
f 353/353/353 358/358/358 359/359/359
f 353/353/353 359/359/359 354/354/354
f 354/354/354 359/359/359 360/360/360
f 354/354/354 360/360/360 355/355/355
f 356/356/356 361/361/361 362/362/362
f 356/356/356 362/362/362 357/357/357
f 357/357/357 362/362/362 363/363/363
f 357/357/357 363/363/363 358/358/358
f 358/358/358 363/363/363 364/364/364
f 358/358/358 364/364/364 359/359/359
f 359/359/359 364/364/364 365/365/365
f 359/359/359 365/365/365 360/360/360
f 361/361/361 366/366/366 367/367/367
f 361/361/361 367/367/367 362/362/362
f 362/362/362 367/367/367 368/368/368
f 362/362/362 368/368/368 363/363/363
f 363/363/363 368/368/368 369/369/369
f 363/363/363 369/369/369 364/364/364
f 364/364/364 369/369/369 370/370/370
f 364/364/364 370/370/370 365/365/365
f 366/366/366 371/371/371 372/372/372
f 366/366/366 372/372/372 367/367/367
f 367/367/367 372/372/372 373/373/373
f 367/367/367 373/373/373 368/368/368
f 368/368/368 373/373/373 374/374/374
f 368/368/368 374/374/374 369/369/369
f 369/369/369 374/374/374 375/375/375
f 369/369/369 375/375/375 370/370/370
f 371/371/371 376/376/376 377/377/377
f 371/371/371 377/377/377 372/372/372
f 372/372/372 377/377/377 378/378/378
f 372/372/372 378/378/378 373/373/373
f 373/373/373 378/378/378 379/379/379
f 373/373/373 379/379/379 374/374/374
f 374/374/374 379/379/379 380/380/380
f 374/374/374 380/380/380 375/375/375
f 376/376/376 381/381/381 382/382/382
f 376/376/376 382/382/382 377/377/377
f 377/377/377 382/382/382 383/383/383
f 377/377/377 383/383/383 378/378/378
f 378/378/378 383/383/383 384/384/384
f 378/378/378 384/384/384 379/379/379
f 379/379/379 384/384/384 385/385/385
f 379/379/379 385/385/385 380/380/380
f 381/381/381 386/386/386 387/387/387
f 381/381/381 387/387/387 382/382/382
f 382/382/382 387/387/387 388/388/388
f 382/382/382 388/388/388 383/383/383
f 383/383/383 388/388/388 389/389/389
f 383/383/383 389/389/389 384/384/384
f 384/384/384 389/389/389 390/390/390
f 384/384/384 390/390/390 385/385/385
f 386/386/386 391/391/391 392/392/392
f 386/386/386 392/392/392 387/387/387
f 387/387/387 392/392/392 393/393/393
f 387/387/387 393/393/393 388/388/388
f 388/388/388 393/393/393 394/394/394
f 388/388/388 394/394/394 389/389/389
f 389/389/389 394/394/394 395/395/395
f 389/389/389 395/395/395 390/390/390
f 391/391/391 396/396/396 397/397/397
f 391/391/391 397/397/397 392/392/392
f 392/392/392 397/397/397 398/398/398
f 392/392/392 398/398/398 393/393/393
f 393/393/393 398/398/398 399/399/399
f 393/393/393 399/399/399 394/394/394
f 394/394/394 399/399/399 400/400/400
f 394/394/394 400/400/400 395/395/395
f 396/396/396 401/401/401 402/402/402
f 396/396/396 402/402/402 397/397/397
f 397/397/397 402/402/402 403/403/403
f 397/397/397 403/403/403 398/398/398
f 398/398/398 403/403/403 404/404/404
f 398/398/398 404/404/404 399/399/399
f 399/399/399 404/404/404 405/405/405
f 399/399/399 405/405/405 400/400/400
f 401/401/401 406/406/406 407/407/407
f 401/401/401 407/407/407 402/402/402
f 402/402/402 407/407/407 408/408/408
f 402/402/402 408/408/408 403/403/403
f 403/403/403 408/408/408 409/409/409
f 403/403/403 409/409/409 404/404/404
f 404/404/404 409/409/409 410/410/410
f 404/404/404 410/410/410 405/405/405
f 406/406/406 411/411/411 412/412/412
f 406/406/406 412/412/412 407/407/407
f 407/407/407 412/412/412 413/413/413
f 407/407/407 413/413/413 408/408/408
f 408/408/408 413/413/413 414/414/414
f 408/408/408 414/414/414 409/409/409
f 409/409/409 414/414/414 415/415/415
f 409/409/409 415/415/415 410/410/410
f 411/411/411 416/416/416 417/417/417
f 411/411/411 417/417/417 412/412/412
f 412/412/412 417/417/417 418/418/418
f 412/412/412 418/418/418 413/413/413
f 413/413/413 418/418/418 419/419/419
f 413/413/413 419/419/419 414/414/414
f 414/414/414 419/419/419 420/420/420
f 414/414/414 420/420/420 415/415/415
f 416/416/416 421/421/421 422/422/422
f 416/416/416 422/422/422 417/417/417
f 417/417/417 422/422/422 423/423/423
f 417/417/417 423/423/423 418/418/418
f 418/418/418 423/423/423 424/424/424
f 418/418/418 424/424/424 419/419/419
f 419/419/419 424/424/424 425/425/425
f 419/419/419 425/425/425 420/420/420
f 421/421/421 426/426/426 427/427/427
f 421/421/421 427/427/427 422/422/422
f 422/422/422 427/427/427 428/428/428
f 422/422/422 428/428/428 423/423/423
f 423/423/423 428/428/428 429/429/429
f 423/423/423 429/429/429 424/424/424
f 424/424/424 429/429/429 430/430/430
f 424/424/424 430/430/430 425/425/425
f 426/426/426 431/431/431 432/432/432
f 426/426/426 432/432/432 427/427/427
f 427/427/427 432/432/432 433/433/433
f 427/427/427 433/433/433 428/428/428
f 428/428/428 433/433/433 434/434/434
f 428/428/428 434/434/434 429/429/429
f 429/429/429 434/434/434 435/435/435
f 429/429/429 435/435/435 430/430/430
f 431/431/431 436/436/436 437/437/437
f 431/431/431 437/437/437 432/432/432
f 432/432/432 437/437/437 438/438/438
f 432/432/432 438/438/438 433/433/433
f 433/433/433 438/438/438 439/439/439
f 433/433/433 439/439/439 434/434/434
f 434/434/434 439/439/439 440/440/440
f 434/434/434 440/440/440 435/435/435
f 436/436/436 441/441/441 442/442/442
f 436/436/436 442/442/442 437/437/437
f 437/437/437 442/442/442 443/443/443
f 437/437/437 443/443/443 438/438/438
f 438/438/438 443/443/443 444/444/444
f 438/438/438 444/444/444 439/439/439
f 439/439/439 444/444/444 445/445/445
f 439/439/439 445/445/445 440/440/440
f 441/441/441 446/446/446 447/447/447
f 441/441/441 447/447/447 442/442/442
f 442/442/442 447/447/447 448/448/448
f 442/442/442 448/448/448 443/443/443
f 443/443/443 448/448/448 449/449/449
f 443/443/443 449/449/449 444/444/444
f 444/444/444 449/449/449 450/450/450
f 444/444/444 450/450/450 445/445/445
f 446/446/446 451/451/451 452/452/452
f 446/446/446 452/452/452 447/447/447
f 447/447/447 452/452/452 453/453/453
f 447/447/447 453/453/453 448/448/448
f 448/448/448 453/453/453 454/454/454
f 448/448/448 454/454/454 449/449/449
f 449/449/449 454/454/454 455/455/455
f 449/449/449 455/455/455 450/450/450
usemtl cork
f 456/456/456 462/462/462 463/463/463
f 456/456/456 463/463/463 457/457/457
f 457/457/457 463/463/463 464/464/464
f 457/457/457 464/464/464 458/458/458
f 458/458/458 464/464/464 465/465/465
f 458/458/458 465/465/465 459/459/459
f 459/459/459 465/465/465 466/466/466
f 459/459/459 466/466/466 460/460/460
f 460/460/460 466/466/466 467/467/467
f 460/460/460 467/467/467 461/461/461
f 462/462/462 468/468/468 469/469/469
f 462/462/462 469/469/469 463/463/463
f 463/463/463 469/469/469 470/470/470
f 463/463/463 470/470/470 464/464/464
f 464/464/464 470/470/470 471/471/471
f 464/464/464 471/471/471 465/465/465
f 465/465/465 471/471/471 472/472/472
f 465/465/465 472/472/472 466/466/466
f 466/466/466 472/472/472 473/473/473
f 466/466/466 473/473/473 467/467/467
f 468/468/468 474/474/474 475/475/475
f 468/468/468 475/475/475 469/469/469
f 469/469/469 475/475/475 476/476/476
f 469/469/469 476/476/476 470/470/470
f 470/470/470 476/476/476 477/477/477
f 470/470/470 477/477/477 471/471/471
f 471/471/471 477/477/477 478/478/478
f 471/471/471 478/478/478 472/472/472
f 472/472/472 478/478/478 479/479/479
f 472/472/472 479/479/479 473/473/473
f 474/474/474 480/480/480 481/481/481
f 474/474/474 481/481/481 475/475/475
f 475/475/475 481/481/481 482/482/482
f 475/475/475 482/482/482 476/476/476
f 476/476/476 482/482/482 483/483/483
f 476/476/476 483/483/483 477/477/477
f 477/477/477 483/483/483 484/484/484
f 477/477/477 484/484/484 478/478/478
f 478/478/478 484/484/484 485/485/485
f 478/478/478 485/485/485 479/479/479
f 480/480/480 486/486/486 487/487/487
f 480/480/480 487/487/487 481/481/481
f 481/481/481 487/487/487 488/488/488
f 481/481/481 488/488/488 482/482/482
f 482/482/482 488/488/488 489/489/489
f 482/482/482 489/489/489 483/483/483
f 483/483/483 489/489/489 490/490/490
f 483/483/483 490/490/490 484/484/484
f 484/484/484 490/490/490 491/491/491
f 484/484/484 491/491/491 485/485/485
f 486/486/486 492/492/492 493/493/493
f 486/486/486 493/493/493 487/487/487
f 487/487/487 493/493/493 494/494/494
f 487/487/487 494/494/494 488/488/488
f 488/488/488 494/494/494 495/495/495
f 488/488/488 495/495/495 489/489/489
f 489/489/489 495/495/495 496/496/496
f 489/489/489 496/496/496 490/490/490
f 490/490/490 496/496/496 497/497/497
f 490/490/490 497/497/497 491/491/491
f 492/492/492 498/498/498 499/499/499
f 492/492/492 499/499/499 493/493/493
f 493/493/493 499/499/499 500/500/500
f 493/493/493 500/500/500 494/494/494
f 494/494/494 500/500/500 501/501/501
f 494/494/494 501/501/501 495/495/495
f 495/495/495 501/501/501 502/502/502
f 495/495/495 502/502/502 496/496/496
f 496/496/496 502/502/502 503/503/503
f 496/496/496 503/503/503 497/497/497
f 498/498/498 504/504/504 505/505/505
f 498/498/498 505/505/505 499/499/499
f 499/499/499 505/505/505 506/506/506
f 499/499/499 506/506/506 500/500/500
f 500/500/500 506/506/506 507/507/507
f 500/500/500 507/507/507 501/501/501
f 501/501/501 507/507/507 508/508/508
f 501/501/501 508/508/508 502/502/502
f 502/502/502 508/508/508 509/509/509
f 502/502/502 509/509/509 503/503/503
f 504/504/504 510/510/510 511/511/511
f 504/504/504 511/511/511 505/505/505
f 505/505/505 511/511/511 512/512/512
f 505/505/505 512/512/512 506/506/506
f 506/506/506 512/512/512 513/513/513
f 506/506/506 513/513/513 507/507/507
f 507/507/507 513/513/513 514/514/514
f 507/507/507 514/514/514 508/508/508
f 508/508/508 514/514/514 515/515/515
f 508/508/508 515/515/515 509/509/509
f 510/510/510 516/516/516 517/517/517
f 510/510/510 517/517/517 511/511/511
f 511/511/511 517/517/517 518/518/518
f 511/511/511 518/518/518 512/512/512
f 512/512/512 518/518/518 519/519/519
f 512/512/512 519/519/519 513/513/513
f 513/513/513 519/519/519 520/520/520
f 513/513/513 520/520/520 514/514/514
f 514/514/514 520/520/520 521/521/521
f 514/514/514 521/521/521 515/515/515
f 522/522/522 523/523/523 528/528/528
f 522/522/522 528/528/528 527/527/527
f 523/523/523 524/524/524 529/529/529
f 523/523/523 529/529/529 528/528/528
f 524/524/524 525/525/525 530/530/530
f 524/524/524 530/530/530 529/529/529
f 525/525/525 526/526/526 531/531/531
f 525/525/525 531/531/531 530/530/530
f 527/527/527 528/528/528 533/533/533
f 527/527/527 533/533/533 532/532/532
f 528/528/528 529/529/529 534/534/534
f 528/528/528 534/534/534 533/533/533
f 529/529/529 530/530/530 535/535/535
f 529/529/529 535/535/535 534/534/534
f 530/530/530 531/531/531 536/536/536
f 530/530/530 536/536/536 535/535/535
f 532/532/532 533/533/533 538/538/538
f 532/532/532 538/538/538 537/537/537
f 533/533/533 534/534/534 539/539/539
f 533/533/533 539/539/539 538/538/538
f 534/534/534 535/535/535 540/540/540
f 534/534/534 540/540/540 539/539/539
f 535/535/535 536/536/536 541/541/541
f 535/535/535 541/541/541 540/540/540
f 537/537/537 538/538/538 543/543/543
f 537/537/537 543/543/543 542/542/542
f 538/538/538 539/539/539 544/544/544
f 538/538/538 544/544/544 543/543/543
f 539/539/539 540/540/540 545/545/545
f 539/539/539 545/545/545 544/544/544
f 540/540/540 541/541/541 546/546/546
f 540/540/540 546/546/546 545/545/545
f 542/542/542 543/543/543 548/548/548
f 542/542/542 548/548/548 547/547/547
f 543/543/543 544/544/544 549/549/549
f 543/543/543 549/549/549 548/548/548
f 544/544/544 545/545/545 550/550/550
f 544/544/544 550/550/550 549/549/549
f 545/545/545 546/546/546 551/551/551
f 545/545/545 551/551/551 550/550/550
f 547/547/547 548/548/548 553/553/553
f 547/547/547 553/553/553 552/552/552
f 548/548/548 549/549/549 554/554/554
f 548/548/548 554/554/554 553/553/553
f 549/549/549 550/550/550 555/555/555
f 549/549/549 555/555/555 554/554/554
f 550/550/550 551/551/551 556/556/556
f 550/550/550 556/556/556 555/555/555
f 552/552/552 553/553/553 558/558/558
f 552/552/552 558/558/558 557/557/557
f 553/553/553 554/554/554 559/559/559
f 553/553/553 559/559/559 558/558/558
f 554/554/554 555/555/555 560/560/560
f 554/554/554 560/560/560 559/559/559
f 555/555/555 556/556/556 561/561/561
f 555/555/555 561/561/561 560/560/560
f 557/557/557 558/558/558 563/563/563
f 557/557/557 563/563/563 562/562/562
f 558/558/558 559/559/559 564/564/564
f 558/558/558 564/564/564 563/563/563
f 559/559/559 560/560/560 565/565/565
f 559/559/559 565/565/565 564/564/564
f 560/560/560 561/561/561 566/566/566
f 560/560/560 566/566/566 565/565/565
f 562/562/562 563/563/563 568/568/568
f 562/562/562 568/568/568 567/567/567
f 563/563/563 564/564/564 569/569/569
f 563/563/563 569/569/569 568/568/568
f 564/564/564 565/565/565 570/570/570
f 564/564/564 570/570/570 569/569/569
f 565/565/565 566/566/566 571/571/571
f 565/565/565 571/571/571 570/570/570
f 567/567/567 568/568/568 573/573/573
f 567/567/567 573/573/573 572/572/572
f 568/568/568 569/569/569 574/574/574
f 568/568/568 574/574/574 573/573/573
f 569/569/569 570/570/570 575/575/575
f 569/569/569 575/575/575 574/574/574
f 570/570/570 571/571/571 576/576/576
f 570/570/570 576/576/576 575/575/575
f 572/572/572 573/573/573 578/578/578
f 572/572/572 578/578/578 577/577/577
f 573/573/573 574/574/574 579/579/579
f 573/573/573 579/579/579 578/578/578
f 574/574/574 575/575/575 580/580/580
f 574/574/574 580/580/580 579/579/579
f 575/575/575 576/576/576 581/581/581
f 575/575/575 581/581/581 580/580/580
f 577/577/577 578/578/578 583/583/583
f 577/577/577 583/583/583 582/582/582
f 578/578/578 579/579/579 584/584/584
f 578/578/578 584/584/584 583/583/583
f 579/579/579 580/580/580 585/585/585
f 579/579/579 585/585/585 584/584/584
f 580/580/580 581/581/581 586/586/586
f 580/580/580 586/586/586 585/585/585
f 582/582/582 583/583/583 588/588/588
f 582/582/582 588/588/588 587/587/587
f 583/583/583 584/584/584 589/589/589
f 583/583/583 589/589/589 588/588/588
f 584/584/584 585/585/585 590/590/590
f 584/584/584 590/590/590 589/589/589
f 585/585/585 586/586/586 591/591/591
f 585/585/585 591/591/591 590/590/590
f 587/587/587 588/588/588 593/593/593
f 587/587/587 593/593/593 592/592/592
f 588/588/588 589/589/589 594/594/594
f 588/588/588 594/594/594 593/593/593
f 589/589/589 590/590/590 595/595/595
f 589/589/589 595/595/595 594/594/594
f 590/590/590 591/591/591 596/596/596
f 590/590/590 596/596/596 595/595/595
usemtl label
f 597/597/597 598/598/598 607/607/607
f 597/597/597 607/607/607 606/606/606
f 598/598/598 599/599/599 608/608/608
f 598/598/598 608/608/608 607/607/607
f 599/599/599 600/600/600 609/609/609
f 599/599/599 609/609/609 608/608/608
f 600/600/600 601/601/601 610/610/610
f 600/600/600 610/610/610 609/609/609
f 601/601/601 602/602/602 611/611/611
f 601/601/601 611/611/611 610/610/610
f 602/602/602 603/603/603 612/612/612
f 602/602/602 612/612/612 611/611/611
f 603/603/603 604/604/604 613/613/613
f 603/603/603 613/613/613 612/612/612
f 604/604/604 605/605/605 614/614/614
f 604/604/604 614/614/614 613/613/613
f 615/615/615 625/625/625 616/616/616
f 615/615/615 624/624/624 625/625/625
f 616/616/616 626/626/626 617/617/617
f 616/616/616 625/625/625 626/626/626
f 617/617/617 627/627/627 618/618/618
f 617/617/617 626/626/626 627/627/627
f 618/618/618 628/628/628 619/619/619
f 618/618/618 627/627/627 628/628/628
f 619/619/619 629/629/629 620/620/620
f 619/619/619 628/628/628 629/629/629
f 620/620/620 630/630/630 621/621/621
f 620/620/620 629/629/629 630/630/630
f 621/621/621 631/631/631 622/622/622
f 621/621/621 630/630/630 631/631/631
f 622/622/622 632/632/632 623/623/623
f 622/622/622 631/631/631 632/632/632
