# Sinh tự động bởi tools/mesh_kit.py - đừng sửa tay
o pz_lamp_hook
v 0.0250 0.1650 0.0940
v 0.0250 0.1650 0.0860
v 0.0250 0.2350 0.0860
v 0.0250 0.2350 0.0940
v -0.0250 0.1650 0.0860
v -0.0250 0.1650 0.0940
v -0.0250 0.2350 0.0940
v -0.0250 0.2350 0.0860
v -0.0250 0.2350 0.0940
v 0.0250 0.2350 0.0940
v 0.0250 0.2350 0.0860
v -0.0250 0.2350 0.0860
v -0.0250 0.1650 0.0860
v 0.0250 0.1650 0.0860
v 0.0250 0.1650 0.0940
v -0.0250 0.1650 0.0940
v -0.0250 0.1650 0.0940
v 0.0250 0.1650 0.0940
v 0.0250 0.2350 0.0940
v -0.0250 0.2350 0.0940
v 0.0250 0.1650 0.0860
v -0.0250 0.1650 0.0860
v -0.0250 0.2350 0.0860
v 0.0250 0.2350 0.0860
v 0.0000 0.1780 0.0860
v 0.0060 0.1780 0.0860
v 0.0060 0.1780 0.0820
v 0.0000 0.1780 0.0810
v 0.0000 0.1780 0.0860
v 0.0042 0.1738 0.0860
v 0.0042 0.1738 0.0820
v 0.0000 0.1780 0.0810
v 0.0000 0.1780 0.0860
v 0.0000 0.1720 0.0860
v 0.0000 0.1720 0.0820
v 0.0000 0.1780 0.0810
v 0.0000 0.1780 0.0860
v -0.0042 0.1738 0.0860
v -0.0042 0.1738 0.0820
v 0.0000 0.1780 0.0810
v 0.0000 0.1780 0.0860
v -0.0060 0.1780 0.0860
v -0.0060 0.1780 0.0820
v 0.0000 0.1780 0.0810
v 0.0000 0.1780 0.0860
v -0.0042 0.1822 0.0860
v -0.0042 0.1822 0.0820
v 0.0000 0.1780 0.0810
v 0.0000 0.1780 0.0860
v -0.0000 0.1840 0.0860
v -0.0000 0.1840 0.0820
v 0.0000 0.1780 0.0810
v 0.0000 0.1780 0.0860
v 0.0042 0.1822 0.0860
v 0.0042 0.1822 0.0820
v 0.0000 0.1780 0.0810
v 0.0000 0.1780 0.0860
v 0.0060 0.1780 0.0860
v 0.0060 0.1780 0.0820
v 0.0000 0.1780 0.0810
v 0.0000 0.2220 0.0860
v 0.0060 0.2220 0.0860
v 0.0060 0.2220 0.0820
v 0.0000 0.2220 0.0810
v 0.0000 0.2220 0.0860
v 0.0042 0.2178 0.0860
v 0.0042 0.2178 0.0820
v 0.0000 0.2220 0.0810
v 0.0000 0.2220 0.0860
v 0.0000 0.2160 0.0860
v 0.0000 0.2160 0.0820
v 0.0000 0.2220 0.0810
v 0.0000 0.2220 0.0860
v -0.0042 0.2178 0.0860
v -0.0042 0.2178 0.0820
v 0.0000 0.2220 0.0810
v 0.0000 0.2220 0.0860
v -0.0060 0.2220 0.0860
v -0.0060 0.2220 0.0820
v 0.0000 0.2220 0.0810
v 0.0000 0.2220 0.0860
v -0.0042 0.2262 0.0860
v -0.0042 0.2262 0.0820
v 0.0000 0.2220 0.0810
v 0.0000 0.2220 0.0860
v -0.0000 0.2280 0.0860
v -0.0000 0.2280 0.0820
v 0.0000 0.2220 0.0810
v 0.0000 0.2220 0.0860
v 0.0042 0.2262 0.0860
v 0.0042 0.2262 0.0820
v 0.0000 0.2220 0.0810
v 0.0000 0.2220 0.0860
v 0.0060 0.2220 0.0860
v 0.0060 0.2220 0.0820
v 0.0000 0.2220 0.0810
v 0.0000 0.2040 0.0860
v 0.0035 0.2020 0.0860
v 0.0035 0.1980 0.0860
v 0.0000 0.1960 0.0860
v -0.0035 0.1980 0.0860
v -0.0035 0.2020 0.0860
v -0.0000 0.2040 0.0860
v 0.0000 0.2040 0.0362
v 0.0035 0.2020 0.0362
v 0.0035 0.1980 0.0362
v 0.0000 0.1960 0.0362
v -0.0035 0.1980 0.0362
v -0.0035 0.2020 0.0362
v -0.0000 0.2040 0.0362
v 0.0000 0.2037 0.0325
v 0.0035 0.2017 0.0328
v 0.0035 0.1978 0.0336
v 0.0000 0.1958 0.0340
v -0.0035 0.1978 0.0336
v -0.0035 0.2017 0.0328
v -0.0000 0.2037 0.0325
v 0.0000 0.2026 0.0289
v 0.0035 0.2007 0.0297
v 0.0035 0.1971 0.0312
v 0.0000 0.1952 0.0320
v -0.0035 0.1971 0.0312
v -0.0035 0.2007 0.0297
v -0.0000 0.2026 0.0289
v 0.0000 0.2008 0.0257
v 0.0035 0.1992 0.0268
v 0.0035 0.1959 0.0290
v 0.0000 0.1942 0.0302
v -0.0035 0.1959 0.0290
v -0.0035 0.1992 0.0268
v -0.0000 0.2008 0.0257
v 0.0000 0.1985 0.0228
v 0.0035 0.1970 0.0242
v 0.0035 0.1942 0.0270
v 0.0000 0.1928 0.0284
v -0.0035 0.1942 0.0270
v -0.0035 0.1970 0.0242
v -0.0000 0.1985 0.0228
v 0.0000 0.1772 0.0015
v 0.0035 0.1758 0.0030
v 0.0035 0.1730 0.0058
v 0.0000 0.1716 0.0072
v -0.0035 0.1730 0.0058
v -0.0035 0.1758 0.0030
v -0.0000 0.1772 0.0015
v 0.0000 0.1743 -0.0008
v 0.0035 0.1732 0.0008
v 0.0035 0.1710 0.0041
v 0.0000 0.1698 0.0058
v -0.0035 0.1710 0.0041
v -0.0035 0.1732 0.0008
v -0.0000 0.1743 -0.0008
v 0.0000 0.1711 -0.0026
v 0.0035 0.1703 -0.0007
v 0.0035 0.1688 0.0029
v 0.0000 0.1680 0.0048
v -0.0035 0.1688 0.0029
v -0.0035 0.1703 -0.0007
v -0.0000 0.1711 -0.0026
v 0.0000 0.1675 -0.0037
v 0.0035 0.1672 -0.0017
v 0.0035 0.1664 0.0022
v 0.0000 0.1660 0.0042
v -0.0035 0.1664 0.0022
v -0.0035 0.1672 -0.0017
v -0.0000 0.1675 -0.0037
v 0.0000 0.1638 -0.0040
v 0.0035 0.1638 -0.0020
v 0.0035 0.1638 0.0020
v 0.0000 0.1638 0.0040
v -0.0035 0.1638 0.0020
v -0.0035 0.1638 -0.0020
v -0.0000 0.1638 -0.0040
v 0.0000 0.1300 -0.0040
v 0.0035 0.1300 -0.0020
v 0.0035 0.1300 0.0020
v 0.0000 0.1300 0.0040
v -0.0035 0.1300 0.0020
v -0.0035 0.1300 -0.0020
v -0.0000 0.1300 -0.0040
v 0.0000 0.2000 0.0860
v 0.0000 0.2040 0.0860
v 0.0035 0.2020 0.0860
v 0.0035 0.1980 0.0860
v 0.0000 0.1960 0.0860
v -0.0035 0.1980 0.0860
v -0.0035 0.2020 0.0860
v 0.0000 0.1300 0.0000
v 0.0000 0.1300 -0.0040
v 0.0035 0.1300 -0.0020
v 0.0035 0.1300 0.0020
v 0.0000 0.1300 0.0040
v -0.0035 0.1300 0.0020
v -0.0035 0.1300 -0.0020
v 0.0025 0.1200 -0.0120
v 0.0008 0.1206 -0.0143
v -0.0020 0.1204 -0.0134
v -0.0020 0.1196 -0.0106
v 0.0008 0.1194 -0.0097
v 0.0025 0.1200 -0.0120
v 0.0025 0.1257 -0.0106
v 0.0008 0.1268 -0.0127
v -0.0020 0.1264 -0.0119
v -0.0020 0.1250 -0.0093
v 0.0008 0.1246 -0.0085
v 0.0025 0.1257 -0.0106
v 0.0025 0.1300 -0.0066
v 0.0008 0.1320 -0.0079
v -0.0020 0.1313 -0.0074
v -0.0020 0.1288 -0.0058
v 0.0008 0.1280 -0.0053
v 0.0025 0.1300 -0.0066
v 0.0025 0.1320 -0.0010
v 0.0008 0.1343 -0.0013
v -0.0020 0.1334 -0.0012
v -0.0020 0.1305 -0.0009
v 0.0008 0.1296 -0.0008
v 0.0025 0.1320 -0.0010
v 0.0025 0.1310 0.0048
v 0.0008 0.1332 0.0057
v -0.0020 0.1324 0.0053
v -0.0020 0.1297 0.0042
v 0.0008 0.1288 0.0038
v 0.0025 0.1310 0.0048
v 0.0025 0.1274 0.0094
v 0.0008 0.1289 0.0113
v -0.0020 0.1284 0.0106
v -0.0020 0.1265 0.0083
v 0.0008 0.1260 0.0075
v 0.0025 0.1274 0.0094
v 0.0025 0.1221 0.0118
v 0.0008 0.1225 0.0142
v -0.0020 0.1223 0.0133
v -0.0020 0.1218 0.0104
v 0.0008 0.1217 0.0095
v 0.0025 0.1221 0.0118
v 0.0025 0.1162 0.0114
v 0.0008 0.1155 0.0136
v -0.0020 0.1158 0.0128
v -0.0020 0.1167 0.0100
v 0.0008 0.1170 0.0091
v 0.0025 0.1162 0.0114
v 0.0025 0.1113 0.0082
v 0.0008 0.1095 0.0099
v -0.0020 0.1102 0.0092
v -0.0020 0.1123 0.0072
v 0.0008 0.1130 0.0066
v 0.0025 0.1113 0.0082
v 0.0025 0.1084 0.0031
v 0.0008 0.1061 0.0037
v -0.0020 0.1070 0.0035
v -0.0020 0.1098 0.0027
v 0.0008 0.1107 0.0025
v 0.0025 0.1084 0.0031
v 0.0025 0.1083 -0.0028
v 0.0008 0.1060 -0.0033
v -0.0020 0.1069 -0.0031
v -0.0020 0.1098 -0.0024
v 0.0008 0.1106 -0.0022
v 0.0025 0.1083 -0.0028
v 0.0025 0.1110 -0.0080
v 0.0008 0.1093 -0.0096
v -0.0020 0.1099 -0.0090
v -0.0020 0.1121 -0.0070
v 0.0008 0.1128 -0.0064
v 0.0025 0.1110 -0.0080
v 0.0025 0.1159 -0.0113
v 0.0008 0.1146 -0.0132
v -0.0020 0.1151 -0.0125
v -0.0020 0.1167 -0.0101
v 0.0008 0.1172 -0.0093
v 0.0025 0.1159 -0.0113
v 0.0000 0.1200 -0.0120
v 0.0025 0.1200 -0.0120
v 0.0008 0.1206 -0.0143
v -0.0020 0.1204 -0.0134
v -0.0020 0.1196 -0.0106
v 0.0008 0.1194 -0.0097
v 0.0000 0.1159 -0.0113
v 0.0025 0.1159 -0.0113
v 0.0008 0.1146 -0.0132
v -0.0020 0.1151 -0.0125
v -0.0020 0.1167 -0.0101
v 0.0008 0.1172 -0.0093
vt 0.0000 0.0000
vt 0.0080 0.0000
vt 0.0080 0.0700
vt 0.0000 0.0700
vt 0.0000 0.0000
vt 0.0080 0.0000
vt 0.0080 0.0700
vt 0.0000 0.0700
vt 0.0000 0.0000
vt 0.0500 0.0000
vt 0.0500 0.0080
vt 0.0000 0.0080
vt 0.0000 0.0000
vt 0.0500 0.0000
vt 0.0500 0.0080
vt 0.0000 0.0080
vt 0.0000 0.0000
vt 0.0500 0.0000
vt 0.0500 0.0700
vt 0.0000 0.0700
vt 0.0000 0.0000
vt 0.0500 0.0000
vt 0.0500 0.0700
vt 0.0000 0.0700
vt 0.0000 0.0000
vt 0.0000 0.0060
vt 0.0000 0.0100
vt 0.0000 0.0161
vt 0.0047 0.0000
vt 0.0047 0.0060
vt 0.0047 0.0100
vt 0.0047 0.0161
vt 0.0094 0.0000
vt 0.0094 0.0060
vt 0.0094 0.0100
vt 0.0094 0.0161
vt 0.0141 0.0000
vt 0.0141 0.0060
vt 0.0141 0.0100
vt 0.0141 0.0161
vt 0.0188 0.0000
vt 0.0188 0.0060
vt 0.0188 0.0100
vt 0.0188 0.0161
vt 0.0236 0.0000
vt 0.0236 0.0060
vt 0.0236 0.0100
vt 0.0236 0.0161
vt 0.0283 0.0000
vt 0.0283 0.0060
vt 0.0283 0.0100
vt 0.0283 0.0161
vt 0.0330 0.0000
vt 0.0330 0.0060
vt 0.0330 0.0100
vt 0.0330 0.0161
vt 0.0377 0.0000
vt 0.0377 0.0060
vt 0.0377 0.0100
vt 0.0377 0.0161
vt 0.0000 0.0000
vt 0.0000 0.0060
vt 0.0000 0.0100
vt 0.0000 0.0161
vt 0.0047 0.0000
vt 0.0047 0.0060
vt 0.0047 0.0100
vt 0.0047 0.0161
vt 0.0094 0.0000
vt 0.0094 0.0060
vt 0.0094 0.0100
vt 0.0094 0.0161
vt 0.0141 0.0000
vt 0.0141 0.0060
vt 0.0141 0.0100
vt 0.0141 0.0161
vt 0.0188 0.0000
vt 0.0188 0.0060
vt 0.0188 0.0100
vt 0.0188 0.0161
vt 0.0236 0.0000
vt 0.0236 0.0060
vt 0.0236 0.0100
vt 0.0236 0.0161
vt 0.0283 0.0000
vt 0.0283 0.0060
vt 0.0283 0.0100
vt 0.0283 0.0161
vt 0.0330 0.0000
vt 0.0330 0.0060
vt 0.0330 0.0100
vt 0.0330 0.0161
vt 0.0377 0.0000
vt 0.0377 0.0060
vt 0.0377 0.0100
vt 0.0377 0.0161
vt 0.0000 0.0000
vt 0.0000 0.0042
vt 0.0000 0.0084
vt 0.0000 0.0126
vt 0.0000 0.0168
vt 0.0000 0.0209
vt 0.0000 0.0251
vt 0.0498 0.0000
vt 0.0498 0.0042
vt 0.0498 0.0084
vt 0.0498 0.0126
vt 0.0498 0.0168
vt 0.0498 0.0209
vt 0.0498 0.0251
vt 0.0528 0.0000
vt 0.0528 0.0042
vt 0.0528 0.0084
vt 0.0528 0.0126
vt 0.0528 0.0168
vt 0.0528 0.0209
vt 0.0528 0.0251
vt 0.0557 0.0000
vt 0.0557 0.0042
vt 0.0557 0.0084
vt 0.0557 0.0126
vt 0.0557 0.0168
vt 0.0557 0.0209
vt 0.0557 0.0251
vt 0.0586 0.0000
vt 0.0586 0.0042
vt 0.0586 0.0084
vt 0.0586 0.0126
vt 0.0586 0.0168
vt 0.0586 0.0209
vt 0.0586 0.0251
vt 0.0616 0.0000
vt 0.0616 0.0042
vt 0.0616 0.0084
vt 0.0616 0.0126
vt 0.0616 0.0168
vt 0.0616 0.0209
vt 0.0616 0.0251
vt 0.0916 0.0000
vt 0.0916 0.0042
vt 0.0916 0.0084
vt 0.0916 0.0126
vt 0.0916 0.0168
vt 0.0916 0.0209
vt 0.0916 0.0251
vt 0.0946 0.0000
vt 0.0946 0.0042
vt 0.0946 0.0084
vt 0.0946 0.0126
vt 0.0946 0.0168
vt 0.0946 0.0209
vt 0.0946 0.0251
vt 0.0975 0.0000
vt 0.0975 0.0042
vt 0.0975 0.0084
vt 0.0975 0.0126
vt 0.0975 0.0168
vt 0.0975 0.0209
vt 0.0975 0.0251
vt 0.1003 0.0000
vt 0.1003 0.0042
vt 0.1003 0.0084
vt 0.1003 0.0126
vt 0.1003 0.0168
vt 0.1003 0.0209
vt 0.1003 0.0251
vt 0.1034 0.0000
vt 0.1034 0.0042
vt 0.1034 0.0084
vt 0.1034 0.0126
vt 0.1034 0.0168
vt 0.1034 0.0209
vt 0.1034 0.0251
vt 0.1371 0.0000
vt 0.1371 0.0042
vt 0.1371 0.0084
vt 0.1371 0.0126
vt 0.1371 0.0168
vt 0.1371 0.0209
vt 0.1371 0.0251
vt 0.0000 0.0000
vt 0.0040 0.0000
vt 0.0020 0.0035
vt -0.0020 0.0035
vt -0.0040 0.0000
vt -0.0020 -0.0035
vt 0.0020 -0.0035
vt 0.0000 0.0000
vt 0.0040 0.0000
vt 0.0020 0.0035
vt -0.0020 0.0035
vt -0.0040 0.0000
vt -0.0020 -0.0035
vt 0.0020 -0.0035
vt 0.0000 0.0000
vt 0.0000 0.0031
vt 0.0000 0.0063
vt 0.0000 0.0094
vt 0.0000 0.0126
vt 0.0000 0.0157
vt 0.0059 0.0000
vt 0.0059 0.0031
vt 0.0059 0.0063
vt 0.0059 0.0094
vt 0.0059 0.0126
vt 0.0059 0.0157
vt 0.0117 0.0000
vt 0.0117 0.0031
vt 0.0117 0.0063
vt 0.0117 0.0094
vt 0.0117 0.0126
vt 0.0117 0.0157
vt 0.0176 0.0000
vt 0.0176 0.0031
vt 0.0176 0.0063
vt 0.0176 0.0094
vt 0.0176 0.0126
vt 0.0176 0.0157
vt 0.0235 0.0000
vt 0.0235 0.0031
vt 0.0235 0.0063
vt 0.0235 0.0094
vt 0.0235 0.0126
vt 0.0235 0.0157
vt 0.0294 0.0000
vt 0.0294 0.0031
vt 0.0294 0.0063
vt 0.0294 0.0094
vt 0.0294 0.0126
vt 0.0294 0.0157
vt 0.0352 0.0000
vt 0.0352 0.0031
vt 0.0352 0.0063
vt 0.0352 0.0094
vt 0.0352 0.0126
vt 0.0352 0.0157
vt 0.0411 0.0000
vt 0.0411 0.0031
vt 0.0411 0.0063
vt 0.0411 0.0094
vt 0.0411 0.0126
vt 0.0411 0.0157
vt 0.0470 0.0000
vt 0.0470 0.0031
vt 0.0470 0.0063
vt 0.0470 0.0094
vt 0.0470 0.0126
vt 0.0470 0.0157
vt 0.0529 0.0000
vt 0.0529 0.0031
vt 0.0529 0.0063
vt 0.0529 0.0094
vt 0.0529 0.0126
vt 0.0529 0.0157
vt 0.0587 0.0000
vt 0.0587 0.0031
vt 0.0587 0.0063
vt 0.0587 0.0094
vt 0.0587 0.0126
vt 0.0587 0.0157
vt 0.0646 0.0000
vt 0.0646 0.0031
vt 0.0646 0.0063
vt 0.0646 0.0094
vt 0.0646 0.0126
vt 0.0646 0.0157
vt 0.0705 0.0000
vt 0.0705 0.0031
vt 0.0705 0.0063
vt 0.0705 0.0094
vt 0.0705 0.0126
vt 0.0705 0.0157
vt 0.0000 0.0000
vt 0.0025 0.0000
vt 0.0008 0.0024
vt -0.0020 0.0015
vt -0.0020 -0.0015
vt 0.0008 -0.0024
vt 0.0000 0.0000
vt 0.0025 0.0000
vt 0.0008 0.0024
vt -0.0020 0.0015
vt -0.0020 -0.0015
vt 0.0008 -0.0024
vn 1.000 0.000 0.000
vn 1.000 0.000 0.000
vn 1.000 0.000 0.000
vn 1.000 0.000 0.000
vn -1.000 0.000 0.000
vn -1.000 0.000 0.000
vn -1.000 0.000 0.000
vn -1.000 0.000 0.000
vn 0.000 1.000 0.000
vn 0.000 1.000 0.000
vn 0.000 1.000 0.000
vn 0.000 1.000 0.000
vn 0.000 -1.000 0.000
vn 0.000 -1.000 0.000
vn 0.000 -1.000 0.000
vn 0.000 -1.000 0.000
vn 0.000 0.000 1.000
vn 0.000 0.000 1.000
vn 0.000 0.000 1.000
vn 0.000 0.000 1.000
vn 0.000 0.000 -1.000
vn 0.000 0.000 -1.000
vn 0.000 0.000 -1.000
vn 0.000 0.000 -1.000
vn 0.000 -0.000 1.000
vn 0.555 -0.000 0.832
vn 0.640 0.000 -0.768
vn 0.164 0.000 -0.986
vn 0.000 -0.000 1.000
vn 0.392 -0.392 0.832
vn 0.453 -0.453 -0.768
vn 0.116 -0.116 -0.986
vn 0.000 -0.000 1.000
vn 0.000 -0.555 0.832
vn 0.000 -0.640 -0.768
vn 0.000 -0.164 -0.986
vn 0.000 -0.000 1.000
vn -0.392 -0.392 0.832
vn -0.453 -0.453 -0.768
vn -0.116 -0.116 -0.986
vn 0.000 -0.000 1.000
vn -0.555 -0.000 0.832
vn -0.640 -0.000 -0.768
vn -0.164 0.000 -0.986
vn -0.000 -0.000 1.000
vn -0.392 0.392 0.832
vn -0.453 0.453 -0.768
vn -0.116 0.116 -0.986
vn -0.000 -0.000 1.000
vn -0.000 0.555 0.832
vn -0.000 0.640 -0.768
vn -0.000 0.164 -0.986
vn 0.000 -0.000 1.000
vn 0.392 0.392 0.832
vn 0.453 0.453 -0.768
vn 0.116 0.116 -0.986
vn 0.000 -0.000 1.000
vn 0.555 0.000 0.832
vn 0.640 0.000 -0.768
vn 0.164 0.000 -0.986
vn 0.000 -0.000 1.000
vn 0.555 -0.000 0.832
vn 0.640 0.000 -0.768
vn 0.164 0.000 -0.986
vn 0.000 -0.000 1.000
vn 0.392 -0.392 0.832
vn 0.453 -0.453 -0.768
vn 0.116 -0.116 -0.986
vn 0.000 -0.000 1.000
vn 0.000 -0.555 0.832
vn 0.000 -0.640 -0.768
vn 0.000 -0.164 -0.986
vn 0.000 -0.000 1.000
vn -0.392 -0.392 0.832
vn -0.453 -0.453 -0.768
vn -0.116 -0.116 -0.986
vn 0.000 -0.000 1.000
vn -0.555 -0.000 0.832
vn -0.640 -0.000 -0.768
vn -0.164 0.000 -0.986
vn -0.000 -0.000 1.000
vn -0.392 0.392 0.832
vn -0.453 0.453 -0.768
vn -0.116 0.116 -0.986
vn -0.000 -0.000 1.000
vn -0.000 0.555 0.832
vn -0.000 0.640 -0.768
vn -0.000 0.164 -0.986
vn 0.000 -0.000 1.000
vn 0.392 0.392 0.832
vn 0.453 0.453 -0.768
vn 0.116 0.116 -0.986
vn 0.000 -0.000 1.000
vn 0.555 0.000 0.832
vn 0.640 0.000 -0.768
vn 0.164 0.000 -0.986
vn 0.000 1.000 0.000
vn 0.866 0.500 0.000
vn 0.866 -0.500 0.000
vn 0.000 -1.000 0.000
vn -0.866 -0.500 -0.000
vn -0.866 0.500 0.000
vn -0.000 1.000 0.000
vn 0.000 1.000 -0.005
vn 0.866 0.500 -0.003
vn 0.866 -0.500 0.003
vn 0.000 -1.000 0.005
vn -0.866 -0.500 0.003
vn -0.866 0.500 -0.003
vn -0.000 1.000 -0.005
vn 0.000 0.982 -0.187
vn 0.866 0.491 -0.094
vn 0.866 -0.491 0.094
vn 0.000 -0.982 0.187
vn -0.866 -0.491 0.094
vn -0.866 0.491 -0.094
vn -0.000 0.982 -0.187
vn 0.000 0.924 -0.383
vn 0.866 0.462 -0.191
vn 0.866 -0.462 0.191
vn 0.000 -0.924 0.383
vn -0.866 -0.462 0.191
vn -0.866 0.462 -0.191
vn -0.000 0.924 -0.383
vn 0.000 0.827 -0.562
vn 0.866 0.414 -0.281
vn 0.866 -0.414 0.281
vn 0.000 -0.827 0.562
vn -0.866 -0.414 0.281
vn -0.866 0.414 -0.281
vn -0.000 0.827 -0.562
vn 0.000 0.713 -0.701
vn 0.866 0.356 -0.351
vn 0.866 -0.356 0.351
vn 0.000 -0.713 0.701
vn -0.866 -0.356 0.351
vn -0.866 0.356 -0.351
vn -0.000 0.713 -0.701
vn 0.000 0.701 -0.713
vn 0.866 0.351 -0.356
vn 0.866 -0.351 0.356
vn 0.000 -0.701 0.713
vn -0.866 -0.351 0.356
vn -0.866 0.351 -0.356
vn -0.000 0.701 -0.713
vn 0.000 0.562 -0.827
vn 0.866 0.281 -0.414
vn 0.866 -0.281 0.414
vn 0.000 -0.562 0.827
vn -0.866 -0.281 0.414
vn -0.866 0.281 -0.414
vn -0.000 0.562 -0.827
vn 0.000 0.383 -0.924
vn 0.866 0.191 -0.462
vn 0.866 -0.191 0.462
vn 0.000 -0.383 0.924
vn -0.866 -0.191 0.462
vn -0.866 0.191 -0.462
vn -0.000 0.383 -0.924
vn 0.000 0.187 -0.982
vn 0.866 0.094 -0.491
vn 0.866 -0.094 0.491
vn 0.000 -0.187 0.982
vn -0.866 -0.094 0.491
vn -0.866 0.094 -0.491
vn -0.000 0.187 -0.982
vn 0.000 0.007 -1.000
vn 0.866 0.004 -0.500
vn 0.866 -0.004 0.500
vn 0.000 -0.007 1.000
vn -0.866 -0.004 0.500
vn -0.866 0.004 -0.500
vn -0.000 0.007 -1.000
vn 0.000 0.000 -1.000
vn 0.866 0.000 -0.500
vn 0.866 0.000 0.500
vn 0.000 0.000 1.000
vn -0.866 -0.000 0.500
vn -0.866 0.000 -0.500
vn -0.000 0.000 -1.000
vn -0.000 -0.000 1.000
vn -0.000 -0.000 1.000
vn -0.000 -0.000 1.000
vn -0.000 -0.000 1.000
vn -0.000 -0.000 1.000
vn -0.000 -0.000 1.000
vn -0.000 -0.000 1.000
vn 0.000 -1.000 0.000
vn 0.000 -1.000 0.000
vn 0.000 -1.000 0.000
vn 0.000 -1.000 0.000
vn 0.000 -1.000 0.000
vn 0.000 -1.000 0.000
vn 0.000 -1.000 0.000
vn 1.000 0.000 0.000
vn 0.309 0.233 -0.922
vn -0.809 0.144 -0.570
vn -0.809 -0.144 0.570
vn 0.309 -0.233 0.922
vn 1.000 -0.000 0.000
vn 1.000 0.000 0.000
vn 0.309 0.451 -0.837
vn -0.809 0.279 -0.517
vn -0.809 -0.279 0.517
vn 0.309 -0.451 0.837
vn 1.000 -0.000 0.000
vn 1.000 0.000 0.000
vn 0.309 0.795 -0.523
vn -0.809 0.491 -0.323
vn -0.809 -0.491 0.323
vn 0.309 -0.795 0.523
vn 1.000 -0.000 0.000
vn 1.000 0.000 0.000
vn 0.309 0.947 -0.083
vn -0.809 0.586 -0.051
vn -0.809 -0.586 0.051
vn 0.309 -0.947 0.083
vn 1.000 -0.000 0.000
vn 1.000 0.000 0.000
vn 0.309 0.873 0.377
vn -0.809 0.540 0.233
vn -0.809 -0.540 -0.233
vn 0.309 -0.873 -0.377
vn 1.000 -0.000 -0.000
vn 1.000 0.000 0.000
vn 0.309 0.590 0.746
vn -0.809 0.365 0.461
vn -0.809 -0.365 -0.461
vn 0.309 -0.590 -0.746
vn 1.000 -0.000 -0.000
vn 1.000 0.000 0.000
vn 0.309 0.165 0.937
vn -0.809 0.102 0.579
vn -0.809 -0.102 -0.579
vn 0.309 -0.165 -0.937
vn 1.000 -0.000 -0.000
vn 1.000 0.000 0.000
vn 0.309 -0.299 0.903
vn -0.809 -0.185 0.558
vn -0.809 0.185 -0.558
vn 0.309 0.299 -0.903
vn 1.000 0.000 -0.000
vn 1.000 0.000 0.000
vn 0.309 -0.692 0.653
vn -0.809 -0.428 0.403
vn -0.809 0.428 -0.403
vn 0.309 0.692 -0.653
vn 1.000 0.000 -0.000
vn 1.000 0.000 0.000
vn 0.309 -0.919 0.246
vn -0.809 -0.568 0.152
vn -0.809 0.568 -0.152
vn 0.309 0.919 -0.246
vn 1.000 0.000 -0.000
vn 1.000 0.000 0.000
vn 0.309 -0.925 -0.219
vn -0.809 -0.572 -0.136
vn -0.809 0.572 0.136
vn 0.309 0.925 0.219
vn 1.000 0.000 0.000
vn 1.000 0.000 0.000
vn 0.309 -0.710 -0.632
vn -0.809 -0.439 -0.391
vn -0.809 0.439 0.391
vn 0.309 0.710 0.632
vn 1.000 0.000 0.000
vn 1.000 0.000 0.000
vn 0.309 -0.534 -0.787
vn -0.809 -0.330 -0.486
vn -0.809 0.330 0.486
vn 0.309 0.534 0.787
vn 1.000 0.000 0.000
vn -0.000 -0.970 -0.245
vn -0.000 -0.970 -0.245
vn -0.000 -0.970 -0.245
vn -0.000 -0.970 -0.245
vn -0.000 -0.970 -0.245
vn -0.000 -0.970 -0.245
vn 0.000 0.827 -0.562
vn 0.000 0.827 -0.562
vn 0.000 0.827 -0.562
vn 0.000 0.827 -0.562
vn 0.000 0.827 -0.562
vn 0.000 0.827 -0.562
v 0.0012 0.1100 -0.0000
v 0.0000 0.1100 0.0012
v -0.0012 0.1100 0.0000
v -0.0000 0.1100 -0.0012
v 0.0012 0.1100 -0.0000
v 0.0032 0.0600 0.0010
v 0.0020 0.0600 0.0022
v 0.0008 0.0600 0.0010
v 0.0020 0.0600 -0.0002
v 0.0032 0.0600 0.0010
v 0.0012 -0.0000 -0.0000
v 0.0000 -0.0000 0.0012
v -0.0012 0.0000 0.0000
v -0.0000 0.0000 -0.0012
v 0.0012 -0.0000 -0.0000
v 0.0000 0.1100 0.0000
v 0.0012 0.1100 -0.0000
v 0.0000 0.1100 0.0012
v -0.0012 0.1100 0.0000
v -0.0000 0.1100 -0.0012
v 0.0000 0.0000 0.0000
v 0.0012 -0.0000 -0.0000
v 0.0000 -0.0000 0.0012
v -0.0012 0.0000 0.0000
v -0.0000 0.0000 -0.0012
vt 0.0000 0.0000
vt 0.0000 0.0019
vt 0.0000 0.0038
vt 0.0000 0.0057
vt 0.0000 0.0075
vt 0.0500 0.0000
vt 0.0500 0.0019
vt 0.0500 0.0038
vt 0.0500 0.0057
vt 0.0500 0.0075
vt 0.1101 0.0000
vt 0.1101 0.0019
vt 0.1101 0.0038
vt 0.1101 0.0057
vt 0.1101 0.0075
vt 0.0000 0.0000
vt 0.0012 0.0000
vt 0.0000 0.0012
vt -0.0012 0.0000
vt -0.0000 -0.0012
vt 0.0000 0.0000
vt 0.0012 0.0000
vt 0.0000 0.0012
vt -0.0012 0.0000
vt -0.0000 -0.0012
vn 0.999 0.040 -0.001
vn 0.000 0.020 1.000
vn -0.999 -0.040 0.001
vn -0.000 -0.020 -1.000
vn 0.999 0.040 -0.001
vn 1.000 0.000 -0.001
vn 0.001 0.000 1.000
vn -1.000 0.000 0.001
vn -0.001 -0.000 -1.000
vn 1.000 0.000 -0.001
vn 0.999 -0.033 -0.001
vn 0.001 -0.017 1.000
vn -0.999 0.033 0.001
vn -0.001 0.017 -1.000
vn 0.999 -0.033 -0.001
vn -0.040 0.999 -0.020
vn -0.040 0.999 -0.020
vn -0.040 0.999 -0.020
vn -0.040 0.999 -0.020
vn -0.040 0.999 -0.020
vn -0.033 -0.999 -0.017
vn -0.033 -0.999 -0.017
vn -0.033 -0.999 -0.017
vn -0.033 -0.999 -0.017
vn -0.033 -0.999 -0.017
usemtl iron
f 1/1/1 2/2/2 3/3/3
f 1/1/1 3/3/3 4/4/4
f 5/5/5 6/6/6 7/7/7
f 5/5/5 7/7/7 8/8/8
f 9/9/9 10/10/10 11/11/11
f 9/9/9 11/11/11 12/12/12
f 13/13/13 14/14/14 15/15/15
f 13/13/13 15/15/15 16/16/16
f 17/17/17 18/18/18 19/19/19
f 17/17/17 19/19/19 20/20/20
f 21/21/21 22/22/22 23/23/23
f 21/21/21 23/23/23 24/24/24
f 25/25/25 29/29/29 30/30/30
f 25/25/25 30/30/30 26/26/26
f 26/26/26 30/30/30 31/31/31
f 26/26/26 31/31/31 27/27/27
f 27/27/27 31/31/31 32/32/32
f 27/27/27 32/32/32 28/28/28
f 29/29/29 33/33/33 34/34/34
f 29/29/29 34/34/34 30/30/30
f 30/30/30 34/34/34 35/35/35
f 30/30/30 35/35/35 31/31/31
f 31/31/31 35/35/35 36/36/36
f 31/31/31 36/36/36 32/32/32
f 33/33/33 37/37/37 38/38/38
f 33/33/33 38/38/38 34/34/34
f 34/34/34 38/38/38 39/39/39
f 34/34/34 39/39/39 35/35/35
f 35/35/35 39/39/39 40/40/40
f 35/35/35 40/40/40 36/36/36
f 37/37/37 41/41/41 42/42/42
f 37/37/37 42/42/42 38/38/38
f 38/38/38 42/42/42 43/43/43
f 38/38/38 43/43/43 39/39/39
f 39/39/39 43/43/43 44/44/44
f 39/39/39 44/44/44 40/40/40
f 41/41/41 45/45/45 46/46/46
f 41/41/41 46/46/46 42/42/42
f 42/42/42 46/46/46 47/47/47
f 42/42/42 47/47/47 43/43/43
f 43/43/43 47/47/47 48/48/48
f 43/43/43 48/48/48 44/44/44
f 45/45/45 49/49/49 50/50/50
f 45/45/45 50/50/50 46/46/46
f 46/46/46 50/50/50 51/51/51
f 46/46/46 51/51/51 47/47/47
f 47/47/47 51/51/51 52/52/52
f 47/47/47 52/52/52 48/48/48
f 49/49/49 53/53/53 54/54/54
f 49/49/49 54/54/54 50/50/50
f 50/50/50 54/54/54 55/55/55
f 50/50/50 55/55/55 51/51/51
f 51/51/51 55/55/55 56/56/56
f 51/51/51 56/56/56 52/52/52
f 53/53/53 57/57/57 58/58/58
f 53/53/53 58/58/58 54/54/54
f 54/54/54 58/58/58 59/59/59
f 54/54/54 59/59/59 55/55/55
f 55/55/55 59/59/59 60/60/60
f 55/55/55 60/60/60 56/56/56
f 61/61/61 65/65/65 66/66/66
f 61/61/61 66/66/66 62/62/62
f 62/62/62 66/66/66 67/67/67
f 62/62/62 67/67/67 63/63/63
f 63/63/63 67/67/67 68/68/68
f 63/63/63 68/68/68 64/64/64
f 65/65/65 69/69/69 70/70/70
f 65/65/65 70/70/70 66/66/66
f 66/66/66 70/70/70 71/71/71
f 66/66/66 71/71/71 67/67/67
f 67/67/67 71/71/71 72/72/72
f 67/67/67 72/72/72 68/68/68
f 69/69/69 73/73/73 74/74/74
f 69/69/69 74/74/74 70/70/70
f 70/70/70 74/74/74 75/75/75
f 70/70/70 75/75/75 71/71/71
f 71/71/71 75/75/75 76/76/76
f 71/71/71 76/76/76 72/72/72
f 73/73/73 77/77/77 78/78/78
f 73/73/73 78/78/78 74/74/74
f 74/74/74 78/78/78 79/79/79
f 74/74/74 79/79/79 75/75/75
f 75/75/75 79/79/79 80/80/80
f 75/75/75 80/80/80 76/76/76
f 77/77/77 81/81/81 82/82/82
f 77/77/77 82/82/82 78/78/78
f 78/78/78 82/82/82 83/83/83
f 78/78/78 83/83/83 79/79/79
f 79/79/79 83/83/83 84/84/84
f 79/79/79 84/84/84 80/80/80
f 81/81/81 85/85/85 86/86/86
f 81/81/81 86/86/86 82/82/82
f 82/82/82 86/86/86 87/87/87
f 82/82/82 87/87/87 83/83/83
f 83/83/83 87/87/87 88/88/88
f 83/83/83 88/88/88 84/84/84
f 85/85/85 89/89/89 90/90/90
f 85/85/85 90/90/90 86/86/86
f 86/86/86 90/90/90 91/91/91
f 86/86/86 91/91/91 87/87/87
f 87/87/87 91/91/91 92/92/92
f 87/87/87 92/92/92 88/88/88
f 89/89/89 93/93/93 94/94/94
f 89/89/89 94/94/94 90/90/90
f 90/90/90 94/94/94 95/95/95
f 90/90/90 95/95/95 91/91/91
f 91/91/91 95/95/95 96/96/96
f 91/91/91 96/96/96 92/92/92
f 97/97/97 98/98/98 105/105/105
f 97/97/97 105/105/105 104/104/104
f 98/98/98 99/99/99 106/106/106
f 98/98/98 106/106/106 105/105/105
f 99/99/99 100/100/100 107/107/107
f 99/99/99 107/107/107 106/106/106
f 100/100/100 101/101/101 108/108/108
f 100/100/100 108/108/108 107/107/107
f 101/101/101 102/102/102 109/109/109
f 101/101/101 109/109/109 108/108/108
f 102/102/102 103/103/103 110/110/110
f 102/102/102 110/110/110 109/109/109
f 104/104/104 105/105/105 112/112/112
f 104/104/104 112/112/112 111/111/111
f 105/105/105 106/106/106 113/113/113
f 105/105/105 113/113/113 112/112/112
f 106/106/106 107/107/107 114/114/114
f 106/106/106 114/114/114 113/113/113
f 107/107/107 108/108/108 115/115/115
f 107/107/107 115/115/115 114/114/114
f 108/108/108 109/109/109 116/116/116
f 108/108/108 116/116/116 115/115/115
f 109/109/109 110/110/110 117/117/117
f 109/109/109 117/117/117 116/116/116
f 111/111/111 112/112/112 119/119/119
f 111/111/111 119/119/119 118/118/118
f 112/112/112 113/113/113 120/120/120
f 112/112/112 120/120/120 119/119/119
f 113/113/113 114/114/114 121/121/121
f 113/113/113 121/121/121 120/120/120
f 114/114/114 115/115/115 122/122/122
f 114/114/114 122/122/122 121/121/121
f 115/115/115 116/116/116 123/123/123
f 115/115/115 123/123/123 122/122/122
f 116/116/116 117/117/117 124/124/124
f 116/116/116 124/124/124 123/123/123
f 118/118/118 119/119/119 126/126/126
f 118/118/118 126/126/126 125/125/125
f 119/119/119 120/120/120 127/127/127
f 119/119/119 127/127/127 126/126/126
f 120/120/120 121/121/121 128/128/128
f 120/120/120 128/128/128 127/127/127
f 121/121/121 122/122/122 129/129/129
f 121/121/121 129/129/129 128/128/128
f 122/122/122 123/123/123 130/130/130
f 122/122/122 130/130/130 129/129/129
f 123/123/123 124/124/124 131/131/131
f 123/123/123 131/131/131 130/130/130
f 125/125/125 126/126/126 133/133/133
f 125/125/125 133/133/133 132/132/132
f 126/126/126 127/127/127 134/134/134
f 126/126/126 134/134/134 133/133/133
f 127/127/127 128/128/128 135/135/135
f 127/127/127 135/135/135 134/134/134
f 128/128/128 129/129/129 136/136/136
f 128/128/128 136/136/136 135/135/135
f 129/129/129 130/130/130 137/137/137
f 129/129/129 137/137/137 136/136/136
f 130/130/130 131/131/131 138/138/138
f 130/130/130 138/138/138 137/137/137
f 132/132/132 133/133/133 140/140/140
f 132/132/132 140/140/140 139/139/139
f 133/133/133 134/134/134 141/141/141
f 133/133/133 141/141/141 140/140/140
f 134/134/134 135/135/135 142/142/142
f 134/134/134 142/142/142 141/141/141
f 135/135/135 136/136/136 143/143/143
f 135/135/135 143/143/143 142/142/142
f 136/136/136 137/137/137 144/144/144
f 136/136/136 144/144/144 143/143/143
f 137/137/137 138/138/138 145/145/145
f 137/137/137 145/145/145 144/144/144
f 139/139/139 140/140/140 147/147/147
f 139/139/139 147/147/147 146/146/146
f 140/140/140 141/141/141 148/148/148
f 140/140/140 148/148/148 147/147/147
f 141/141/141 142/142/142 149/149/149
f 141/141/141 149/149/149 148/148/148
f 142/142/142 143/143/143 150/150/150
f 142/142/142 150/150/150 149/149/149
f 143/143/143 144/144/144 151/151/151
f 143/143/143 151/151/151 150/150/150
f 144/144/144 145/145/145 152/152/152
f 144/144/144 152/152/152 151/151/151
f 146/146/146 147/147/147 154/154/154
f 146/146/146 154/154/154 153/153/153
f 147/147/147 148/148/148 155/155/155
f 147/147/147 155/155/155 154/154/154
f 148/148/148 149/149/149 156/156/156
f 148/148/148 156/156/156 155/155/155
f 149/149/149 150/150/150 157/157/157
f 149/149/149 157/157/157 156/156/156
f 150/150/150 151/151/151 158/158/158
f 150/150/150 158/158/158 157/157/157
f 151/151/151 152/152/152 159/159/159
f 151/151/151 159/159/159 158/158/158
f 153/153/153 154/154/154 161/161/161
f 153/153/153 161/161/161 160/160/160
f 154/154/154 155/155/155 162/162/162
f 154/154/154 162/162/162 161/161/161
f 155/155/155 156/156/156 163/163/163
f 155/155/155 163/163/163 162/162/162
f 156/156/156 157/157/157 164/164/164
f 156/156/156 164/164/164 163/163/163
f 157/157/157 158/158/158 165/165/165
f 157/157/157 165/165/165 164/164/164
f 158/158/158 159/159/159 166/166/166
f 158/158/158 166/166/166 165/165/165
f 160/160/160 161/161/161 168/168/168
f 160/160/160 168/168/168 167/167/167
f 161/161/161 162/162/162 169/169/169
f 161/161/161 169/169/169 168/168/168
f 162/162/162 163/163/163 170/170/170
f 162/162/162 170/170/170 169/169/169
f 163/163/163 164/164/164 171/171/171
f 163/163/163 171/171/171 170/170/170
f 164/164/164 165/165/165 172/172/172
f 164/164/164 172/172/172 171/171/171
f 165/165/165 166/166/166 173/173/173
f 165/165/165 173/173/173 172/172/172
f 167/167/167 168/168/168 175/175/175
f 167/167/167 175/175/175 174/174/174
f 168/168/168 169/169/169 176/176/176
f 168/168/168 176/176/176 175/175/175
f 169/169/169 170/170/170 177/177/177
f 169/169/169 177/177/177 176/176/176
f 170/170/170 171/171/171 178/178/178
f 170/170/170 178/178/178 177/177/177
f 171/171/171 172/172/172 179/179/179
f 171/171/171 179/179/179 178/178/178
f 172/172/172 173/173/173 180/180/180
f 172/172/172 180/180/180 179/179/179
f 181/181/181 183/183/183 182/182/182
f 181/181/181 184/184/184 183/183/183
f 181/181/181 185/185/185 184/184/184
f 181/181/181 186/186/186 185/185/185
f 181/181/181 187/187/187 186/186/186
f 181/181/181 182/182/182 187/187/187
f 188/188/188 189/189/189 190/190/190
f 188/188/188 190/190/190 191/191/191
f 188/188/188 191/191/191 192/192/192
f 188/188/188 192/192/192 193/193/193
f 188/188/188 193/193/193 194/194/194
f 188/188/188 194/194/194 189/189/189
f 195/195/195 196/196/196 202/202/202
f 195/195/195 202/202/202 201/201/201
f 196/196/196 197/197/197 203/203/203
f 196/196/196 203/203/203 202/202/202
f 197/197/197 198/198/198 204/204/204
f 197/197/197 204/204/204 203/203/203
f 198/198/198 199/199/199 205/205/205
f 198/198/198 205/205/205 204/204/204
f 199/199/199 200/200/200 206/206/206
f 199/199/199 206/206/206 205/205/205
f 201/201/201 202/202/202 208/208/208
f 201/201/201 208/208/208 207/207/207
f 202/202/202 203/203/203 209/209/209
f 202/202/202 209/209/209 208/208/208
f 203/203/203 204/204/204 210/210/210
f 203/203/203 210/210/210 209/209/209
f 204/204/204 205/205/205 211/211/211
f 204/204/204 211/211/211 210/210/210
f 205/205/205 206/206/206 212/212/212
f 205/205/205 212/212/212 211/211/211
f 207/207/207 208/208/208 214/214/214
f 207/207/207 214/214/214 213/213/213
f 208/208/208 209/209/209 215/215/215
f 208/208/208 215/215/215 214/214/214
f 209/209/209 210/210/210 216/216/216
f 209/209/209 216/216/216 215/215/215
f 210/210/210 211/211/211 217/217/217
f 210/210/210 217/217/217 216/216/216
f 211/211/211 212/212/212 218/218/218
f 211/211/211 218/218/218 217/217/217
f 213/213/213 214/214/214 220/220/220
f 213/213/213 220/220/220 219/219/219
f 214/214/214 215/215/215 221/221/221
f 214/214/214 221/221/221 220/220/220
f 215/215/215 216/216/216 222/222/222
f 215/215/215 222/222/222 221/221/221
f 216/216/216 217/217/217 223/223/223
f 216/216/216 223/223/223 222/222/222
f 217/217/217 218/218/218 224/224/224
f 217/217/217 224/224/224 223/223/223
f 219/219/219 220/220/220 226/226/226
f 219/219/219 226/226/226 225/225/225
f 220/220/220 221/221/221 227/227/227
f 220/220/220 227/227/227 226/226/226
f 221/221/221 222/222/222 228/228/228
f 221/221/221 228/228/228 227/227/227
f 222/222/222 223/223/223 229/229/229
f 222/222/222 229/229/229 228/228/228
f 223/223/223 224/224/224 230/230/230
f 223/223/223 230/230/230 229/229/229
f 225/225/225 226/226/226 232/232/232
f 225/225/225 232/232/232 231/231/231
f 226/226/226 227/227/227 233/233/233
f 226/226/226 233/233/233 232/232/232
f 227/227/227 228/228/228 234/234/234
f 227/227/227 234/234/234 233/233/233
f 228/228/228 229/229/229 235/235/235
f 228/228/228 235/235/235 234/234/234
f 229/229/229 230/230/230 236/236/236
f 229/229/229 236/236/236 235/235/235
f 231/231/231 232/232/232 238/238/238
f 231/231/231 238/238/238 237/237/237
f 232/232/232 233/233/233 239/239/239
f 232/232/232 239/239/239 238/238/238
f 233/233/233 234/234/234 240/240/240
f 233/233/233 240/240/240 239/239/239
f 234/234/234 235/235/235 241/241/241
f 234/234/234 241/241/241 240/240/240
f 235/235/235 236/236/236 242/242/242
f 235/235/235 242/242/242 241/241/241
f 237/237/237 238/238/238 244/244/244
f 237/237/237 244/244/244 243/243/243
f 238/238/238 239/239/239 245/245/245
f 238/238/238 245/245/245 244/244/244
f 239/239/239 240/240/240 246/246/246
f 239/239/239 246/246/246 245/245/245
f 240/240/240 241/241/241 247/247/247
f 240/240/240 247/247/247 246/246/246
f 241/241/241 242/242/242 248/248/248
f 241/241/241 248/248/248 247/247/247
f 243/243/243 244/244/244 250/250/250
f 243/243/243 250/250/250 249/249/249
f 244/244/244 245/245/245 251/251/251
f 244/244/244 251/251/251 250/250/250
f 245/245/245 246/246/246 252/252/252
f 245/245/245 252/252/252 251/251/251
f 246/246/246 247/247/247 253/253/253
f 246/246/246 253/253/253 252/252/252
f 247/247/247 248/248/248 254/254/254
f 247/247/247 254/254/254 253/253/253
f 249/249/249 250/250/250 256/256/256
f 249/249/249 256/256/256 255/255/255
f 250/250/250 251/251/251 257/257/257
f 250/250/250 257/257/257 256/256/256
f 251/251/251 252/252/252 258/258/258
f 251/251/251 258/258/258 257/257/257
f 252/252/252 253/253/253 259/259/259
f 252/252/252 259/259/259 258/258/258
f 253/253/253 254/254/254 260/260/260
f 253/253/253 260/260/260 259/259/259
f 255/255/255 256/256/256 262/262/262
f 255/255/255 262/262/262 261/261/261
f 256/256/256 257/257/257 263/263/263
f 256/256/256 263/263/263 262/262/262
f 257/257/257 258/258/258 264/264/264
f 257/257/257 264/264/264 263/263/263
f 258/258/258 259/259/259 265/265/265
f 258/258/258 265/265/265 264/264/264
f 259/259/259 260/260/260 266/266/266
f 259/259/259 266/266/266 265/265/265
f 261/261/261 262/262/262 268/268/268
f 261/261/261 268/268/268 267/267/267
f 262/262/262 263/263/263 269/269/269
f 262/262/262 269/269/269 268/268/268
f 263/263/263 264/264/264 270/270/270
f 263/263/263 270/270/270 269/269/269
f 264/264/264 265/265/265 271/271/271
f 264/264/264 271/271/271 270/270/270
f 265/265/265 266/266/266 272/272/272
f 265/265/265 272/272/272 271/271/271
f 273/273/273 275/275/275 274/274/274
f 273/273/273 276/276/276 275/275/275
f 273/273/273 277/277/277 276/276/276
f 273/273/273 278/278/278 277/277/277
f 273/273/273 274/274/274 278/278/278
f 279/279/279 280/280/280 281/281/281
f 279/279/279 281/281/281 282/282/282
f 279/279/279 282/282/282 283/283/283
f 279/279/279 283/283/283 284/284/284
f 279/279/279 284/284/284 280/280/280
usemtl wire
f 285/285/285 286/286/286 291/291/291
f 285/285/285 291/291/291 290/290/290
f 286/286/286 287/287/287 292/292/292
f 286/286/286 292/292/292 291/291/291
f 287/287/287 288/288/288 293/293/293
f 287/287/287 293/293/293 292/292/292
f 288/288/288 289/289/289 294/294/294
f 288/288/288 294/294/294 293/293/293
f 290/290/290 291/291/291 296/296/296
f 290/290/290 296/296/296 295/295/295
f 291/291/291 292/292/292 297/297/297
f 291/291/291 297/297/297 296/296/296
f 292/292/292 293/293/293 298/298/298
f 292/292/292 298/298/298 297/297/297
f 293/293/293 294/294/294 299/299/299
f 293/293/293 299/299/299 298/298/298
f 300/300/300 302/302/302 301/301/301
f 300/300/300 303/303/303 302/302/302
f 300/300/300 304/304/304 303/303/303
f 300/300/300 301/301/301 304/304/304
f 305/305/305 306/306/306 307/307/307
f 305/305/305 307/307/307 308/308/308
f 305/305/305 308/308/308 309/309/309
f 305/305/305 309/309/309 306/306/306
