# Sinh tự động bởi tools/mesh_kit.py - đừng sửa tay
o pz_open_notebook
v -0.0000 0.0040 -0.1000
v -0.0142 0.0094 -0.1000
v -0.0283 0.0137 -0.1000
v -0.0425 0.0159 -0.1000
v -0.0567 0.0154 -0.1000
v -0.0708 0.0125 -0.1000
v -0.0850 0.0077 -0.1000
v -0.0000 0.0040 0.1000
v -0.0142 0.0094 0.1000
v -0.0283 0.0137 0.1000
v -0.0425 0.0159 0.1000
v -0.0567 0.0154 0.1000
v -0.0708 0.0125 0.1000
v -0.0850 0.0077 0.1000
v -0.0000 0.0040 -0.1000
v -0.0142 0.0094 -0.1000
v -0.0283 0.0137 -0.1000
v -0.0425 0.0159 -0.1000
v -0.0567 0.0154 -0.1000
v -0.0708 0.0125 -0.1000
v -0.0850 0.0077 -0.1000
v -0.0000 0.0040 0.1000
v -0.0142 0.0094 0.1000
v -0.0283 0.0137 0.1000
v -0.0425 0.0159 0.1000
v -0.0567 0.0154 0.1000
v -0.0708 0.0125 0.1000
v -0.0850 0.0077 0.1000
v 0.0000 0.0040 -0.1000
v 0.0142 0.0094 -0.1000
v 0.0283 0.0137 -0.1000
v 0.0425 0.0159 -0.1000
v 0.0567 0.0154 -0.1000
v 0.0708 0.0125 -0.1000
v 0.0850 0.0077 -0.1000
v 0.0000 0.0040 0.1000
v 0.0142 0.0094 0.1000
v 0.0283 0.0137 0.1000
v 0.0425 0.0159 0.1000
v 0.0567 0.0154 0.1000
v 0.0708 0.0125 0.1000
v 0.0850 0.0077 0.1000
v 0.0000 0.0040 -0.1000
v 0.0142 0.0094 -0.1000
v 0.0283 0.0137 -0.1000
v 0.0425 0.0159 -0.1000
v 0.0567 0.0154 -0.1000
v 0.0708 0.0125 -0.1000
v 0.0850 0.0077 -0.1000
v 0.0000 0.0040 0.1000
v 0.0142 0.0094 0.1000
v 0.0283 0.0137 0.1000
v 0.0425 0.0159 0.1000
v 0.0567 0.0154 0.1000
v 0.0708 0.0125 0.1000
v 0.0850 0.0077 0.1000
vt 0.5000 0.0000
vt 0.4167 0.0000
vt 0.3333 0.0000
vt 0.2500 0.0000
vt 0.1667 0.0000
vt 0.0833 0.0000
vt 0.0000 0.0000
vt 0.5000 1.0000
vt 0.4167 1.0000
vt 0.3333 1.0000
vt 0.2500 1.0000
vt 0.1667 1.0000
vt 0.0833 1.0000
vt 0.0000 1.0000
vt 0.5000 0.0000
vt 0.4167 0.0000
vt 0.3333 0.0000
vt 0.2500 0.0000
vt 0.1667 0.0000
vt 0.0833 0.0000
vt 0.0000 0.0000
vt 0.5000 1.0000
vt 0.4167 1.0000
vt 0.3333 1.0000
vt 0.2500 1.0000
vt 0.1667 1.0000
vt 0.0833 1.0000
vt 0.0000 1.0000
vt 0.5000 0.0000
vt 0.5833 0.0000
vt 0.6667 0.0000
vt 0.7500 0.0000
vt 0.8333 0.0000
vt 0.9167 0.0000
vt 1.0000 0.0000
vt 0.5000 1.0000
vt 0.5833 1.0000
vt 0.6667 1.0000
vt 0.7500 1.0000
vt 0.8333 1.0000
vt 0.9167 1.0000
vt 1.0000 1.0000
vt 0.5000 0.0000
vt 0.5833 0.0000
vt 0.6667 0.0000
vt 0.7500 0.0000
vt 0.8333 0.0000
vt 0.9167 0.0000
vt 1.0000 0.0000
vt 0.5000 1.0000
vt 0.5833 1.0000
vt 0.6667 1.0000
vt 0.7500 1.0000
vt 0.8333 1.0000
vt 0.9167 1.0000
vt 1.0000 1.0000
vn 0.359 0.933 -0.000
vn 0.324 0.946 -0.000
vn 0.220 0.975 -0.000
vn 0.060 0.998 -0.000
vn -0.118 0.993 0.000
vn -0.262 0.965 0.000
vn -0.320 0.948 0.000
vn 0.359 0.933 -0.000
vn 0.324 0.946 -0.000
vn 0.220 0.975 -0.000
vn 0.060 0.998 -0.000
vn -0.118 0.993 0.000
vn -0.262 0.965 0.000
vn -0.320 0.948 0.000
vn -0.359 -0.933 0.000
vn -0.324 -0.946 0.000
vn -0.220 -0.975 0.000
vn -0.060 -0.998 0.000
vn 0.118 -0.993 -0.000
vn 0.262 -0.965 -0.000
vn 0.320 -0.948 -0.000
vn -0.359 -0.933 0.000
vn -0.324 -0.946 0.000
vn -0.220 -0.975 0.000
vn -0.060 -0.998 0.000
vn 0.118 -0.993 -0.000
vn 0.262 -0.965 -0.000
vn 0.320 -0.948 -0.000
vn 0.359 -0.933 0.000
vn 0.324 -0.946 0.000
vn 0.220 -0.975 0.000
vn 0.060 -0.998 0.000
vn -0.118 -0.993 0.000
vn -0.262 -0.965 0.000
vn -0.320 -0.948 0.000
vn 0.359 -0.933 0.000
vn 0.324 -0.946 0.000
vn 0.220 -0.975 0.000
vn 0.060 -0.998 0.000
vn -0.118 -0.993 0.000
vn -0.262 -0.965 0.000
vn -0.320 -0.948 0.000
vn -0.359 0.933 -0.000
vn -0.324 0.946 -0.000
vn -0.220 0.975 -0.000
vn -0.060 0.998 -0.000
vn 0.118 0.993 -0.000
vn 0.262 0.965 -0.000
vn 0.320 0.948 -0.000
vn -0.359 0.933 -0.000
vn -0.324 0.946 -0.000
vn -0.220 0.975 -0.000
vn -0.060 0.998 -0.000
vn 0.118 0.993 -0.000
vn 0.262 0.965 -0.000
vn 0.320 0.948 -0.000
v 0.0000 -0.0010 0.1025
v 0.0000 -0.0010 -0.1025
v 0.0000 0.0010 -0.1025
v 0.0000 0.0010 0.1025
v -0.0880 -0.0010 -0.1025
v -0.0880 -0.0010 0.1025
v -0.0880 0.0010 0.1025
v -0.0880 0.0010 -0.1025
v -0.0880 0.0010 0.1025
v 0.0000 0.0010 0.1025
v 0.0000 0.0010 -0.1025
v -0.0880 0.0010 -0.1025
v -0.0880 -0.0010 -0.1025
v 0.0000 -0.0010 -0.1025
v 0.0000 -0.0010 0.1025
v -0.0880 -0.0010 0.1025
v -0.0880 -0.0010 0.1025
v 0.0000 -0.0010 0.1025
v 0.0000 0.0010 0.1025
v -0.0880 0.0010 0.1025
v 0.0000 -0.0010 -0.1025
v -0.0880 -0.0010 -0.1025
v -0.0880 0.0010 -0.1025
v 0.0000 0.0010 -0.1025
v 0.0880 -0.0010 0.1025
v 0.0880 -0.0010 -0.1025
v 0.0880 0.0010 -0.1025
v 0.0880 0.0010 0.1025
v 0.0000 -0.0010 -0.1025
v 0.0000 -0.0010 0.1025
v 0.0000 0.0010 0.1025
v 0.0000 0.0010 -0.1025
v 0.0000 0.0010 0.1025
v 0.0880 0.0010 0.1025
v 0.0880 0.0010 -0.1025
v 0.0000 0.0010 -0.1025
v 0.0000 -0.0010 -0.1025
v 0.0880 -0.0010 -0.1025
v 0.0880 -0.0010 0.1025
v 0.0000 -0.0010 0.1025
v 0.0000 -0.0010 0.1025
v 0.0880 -0.0010 0.1025
v 0.0880 0.0010 0.1025
v 0.0000 0.0010 0.1025
v 0.0880 -0.0010 -0.1025
v 0.0000 -0.0010 -0.1025
v 0.0000 0.0010 -0.1025
v 0.0880 0.0010 -0.1025
vt 0.0000 0.0000
vt 0.2050 0.0000
vt 0.2050 0.0020
vt 0.0000 0.0020
vt 0.0000 0.0000
vt 0.2050 0.0000
vt 0.2050 0.0020
vt 0.0000 0.0020
vt 0.0000 0.0000
vt 0.0880 0.0000
vt 0.0880 0.2050
vt 0.0000 0.2050
vt 0.0000 0.0000
vt 0.0880 0.0000
vt 0.0880 0.2050
vt 0.0000 0.2050
vt 0.0000 0.0000
vt 0.0880 0.0000
vt 0.0880 0.0020
vt 0.0000 0.0020
vt 0.0000 0.0000
vt 0.0880 0.0000
vt 0.0880 0.0020
vt 0.0000 0.0020
vt 0.0000 0.0000
vt 0.2050 0.0000
vt 0.2050 0.0020
vt 0.0000 0.0020
vt 0.0000 0.0000
vt 0.2050 0.0000
vt 0.2050 0.0020
vt 0.0000 0.0020
vt 0.0000 0.0000
vt 0.0880 0.0000
vt 0.0880 0.2050
vt 0.0000 0.2050
vt 0.0000 0.0000
vt 0.0880 0.0000
vt 0.0880 0.2050
vt 0.0000 0.2050
vt 0.0000 0.0000
vt 0.0880 0.0000
vt 0.0880 0.0020
vt 0.0000 0.0020
vt 0.0000 0.0000
vt 0.0880 0.0000
vt 0.0880 0.0020
vt 0.0000 0.0020
vn 1.000 0.000 0.000
vn 1.000 0.000 0.000
vn 1.000 0.000 0.000
vn 1.000 0.000 0.000
vn -1.000 0.000 0.000
vn -1.000 0.000 0.000
vn -1.000 0.000 0.000
vn -1.000 0.000 0.000
vn 0.000 1.000 0.000
vn 0.000 1.000 0.000
vn 0.000 1.000 0.000
vn 0.000 1.000 0.000
vn 0.000 -1.000 0.000
vn 0.000 -1.000 0.000
vn 0.000 -1.000 0.000
vn 0.000 -1.000 0.000
vn 0.000 0.000 1.000
vn 0.000 0.000 1.000
vn 0.000 0.000 1.000
vn 0.000 0.000 1.000
vn 0.000 0.000 -1.000
vn 0.000 0.000 -1.000
vn 0.000 0.000 -1.000
vn 0.000 0.000 -1.000
vn 1.000 0.000 0.000
vn 1.000 0.000 0.000
vn 1.000 0.000 0.000
vn 1.000 0.000 0.000
vn -1.000 0.000 0.000
vn -1.000 0.000 0.000
vn -1.000 0.000 0.000
vn -1.000 0.000 0.000
vn 0.000 1.000 0.000
vn 0.000 1.000 0.000
vn 0.000 1.000 0.000
vn 0.000 1.000 0.000
vn 0.000 -1.000 0.000
vn 0.000 -1.000 0.000
vn 0.000 -1.000 0.000
vn 0.000 -1.000 0.000
vn 0.000 0.000 1.000
vn 0.000 0.000 1.000
vn 0.000 0.000 1.000
vn 0.000 0.000 1.000
vn 0.000 0.000 -1.000
vn 0.000 0.000 -1.000
vn 0.000 0.000 -1.000
vn 0.000 0.000 -1.000
usemtl pages
f 1/1/1 2/2/2 9/9/9
f 1/1/1 9/9/9 8/8/8
f 2/2/2 3/3/3 10/10/10
f 2/2/2 10/10/10 9/9/9
f 3/3/3 4/4/4 11/11/11
f 3/3/3 11/11/11 10/10/10
f 4/4/4 5/5/5 12/12/12
f 4/4/4 12/12/12 11/11/11
f 5/5/5 6/6/6 13/13/13
f 5/5/5 13/13/13 12/12/12
f 6/6/6 7/7/7 14/14/14
f 6/6/6 14/14/14 13/13/13
f 15/15/15 23/23/23 16/16/16
f 15/15/15 22/22/22 23/23/23
f 16/16/16 24/24/24 17/17/17
f 16/16/16 23/23/23 24/24/24
f 17/17/17 25/25/25 18/18/18
f 17/17/17 24/24/24 25/25/25
f 18/18/18 26/26/26 19/19/19
f 18/18/18 25/25/25 26/26/26
f 19/19/19 27/27/27 20/20/20
f 19/19/19 26/26/26 27/27/27
f 20/20/20 28/28/28 21/21/21
f 20/20/20 27/27/27 28/28/28
f 29/29/29 30/30/30 37/37/37
f 29/29/29 37/37/37 36/36/36
f 30/30/30 31/31/31 38/38/38
f 30/30/30 38/38/38 37/37/37
f 31/31/31 32/32/32 39/39/39
f 31/31/31 39/39/39 38/38/38
f 32/32/32 33/33/33 40/40/40
f 32/32/32 40/40/40 39/39/39
f 33/33/33 34/34/34 41/41/41
f 33/33/33 41/41/41 40/40/40
f 34/34/34 35/35/35 42/42/42
f 34/34/34 42/42/42 41/41/41
f 43/43/43 51/51/51 44/44/44
f 43/43/43 50/50/50 51/51/51
f 44/44/44 52/52/52 45/45/45
f 44/44/44 51/51/51 52/52/52
f 45/45/45 53/53/53 46/46/46
f 45/45/45 52/52/52 53/53/53
f 46/46/46 54/54/54 47/47/47
f 46/46/46 53/53/53 54/54/54
f 47/47/47 55/55/55 48/48/48
f 47/47/47 54/54/54 55/55/55
f 48/48/48 56/56/56 49/49/49
f 48/48/48 55/55/55 56/56/56
usemtl cover
f 57/57/57 58/58/58 59/59/59
f 57/57/57 59/59/59 60/60/60
f 61/61/61 62/62/62 63/63/63
f 61/61/61 63/63/63 64/64/64
f 65/65/65 66/66/66 67/67/67
f 65/65/65 67/67/67 68/68/68
f 69/69/69 70/70/70 71/71/71
f 69/69/69 71/71/71 72/72/72
f 73/73/73 74/74/74 75/75/75
f 73/73/73 75/75/75 76/76/76
f 77/77/77 78/78/78 79/79/79
f 77/77/77 79/79/79 80/80/80
f 81/81/81 82/82/82 83/83/83
f 81/81/81 83/83/83 84/84/84
f 85/85/85 86/86/86 87/87/87
f 85/85/85 87/87/87 88/88/88
f 89/89/89 90/90/90 91/91/91
f 89/89/89 91/91/91 92/92/92
f 93/93/93 94/94/94 95/95/95
f 93/93/93 95/95/95 96/96/96
f 97/97/97 98/98/98 99/99/99
f 97/97/97 99/99/99 100/100/100
f 101/101/101 102/102/102 103/103/103
f 101/101/101 103/103/103 104/104/104
