# Sinh tự động bởi tools/mesh_kit.py - đừng sửa tay
o pz_plaque
v 0.1183 -0.0358 0.0043
v 0.1188 -0.0363 0.0020
v 0.1188 -0.0363 -0.0020
v 0.1183 -0.0358 -0.0043
v 0.1188 -0.0335 0.0048
v 0.1200 -0.0335 0.0020
v 0.1200 -0.0335 -0.0020
v 0.1188 -0.0335 -0.0048
v 0.1188 0.0335 0.0048
v 0.1200 0.0335 0.0020
v 0.1200 0.0335 -0.0020
v 0.1188 0.0335 -0.0048
v 0.1183 0.0358 0.0043
v 0.1188 0.0363 0.0020
v 0.1188 0.0363 -0.0020
v 0.1183 0.0358 -0.0043
v -0.1183 -0.0358 -0.0043
v -0.1188 -0.0363 -0.0020
v -0.1188 -0.0363 0.0020
v -0.1183 -0.0358 0.0043
v -0.1188 -0.0335 -0.0048
v -0.1200 -0.0335 -0.0020
v -0.1200 -0.0335 0.0020
v -0.1188 -0.0335 0.0048
v -0.1188 0.0335 -0.0048
v -0.1200 0.0335 -0.0020
v -0.1200 0.0335 0.0020
v -0.1188 0.0335 0.0048
v -0.1183 0.0358 -0.0043
v -0.1188 0.0363 -0.0020
v -0.1188 0.0363 0.0020
v -0.1183 0.0358 0.0043
v -0.1183 0.0358 0.0043
v -0.1160 0.0363 0.0048
v 0.1160 0.0363 0.0048
v 0.1183 0.0358 0.0043
v -0.1188 0.0363 0.0020
v -0.1160 0.0375 0.0020
v 0.1160 0.0375 0.0020
v 0.1188 0.0363 0.0020
v -0.1188 0.0363 -0.0020
v -0.1160 0.0375 -0.0020
v 0.1160 0.0375 -0.0020
v 0.1188 0.0363 -0.0020
v -0.1183 0.0358 -0.0043
v -0.1160 0.0363 -0.0048
v 0.1160 0.0363 -0.0048
v 0.1183 0.0358 -0.0043
v -0.1183 -0.0358 -0.0043
v -0.1160 -0.0363 -0.0048
v 0.1160 -0.0363 -0.0048
v 0.1183 -0.0358 -0.0043
v -0.1188 -0.0363 -0.0020
v -0.1160 -0.0375 -0.0020
v 0.1160 -0.0375 -0.0020
v 0.1188 -0.0363 -0.0020
v -0.1188 -0.0363 0.0020
v -0.1160 -0.0375 0.0020
v 0.1160 -0.0375 0.0020
v 0.1188 -0.0363 0.0020
v -0.1183 -0.0358 0.0043
v -0.1160 -0.0363 0.0048
v 0.1160 -0.0363 0.0048
v 0.1183 -0.0358 0.0043
v -0.1183 -0.0358 0.0043
v -0.1160 -0.0363 0.0048
v 0.1160 -0.0363 0.0048
v 0.1183 -0.0358 0.0043
v -0.1188 -0.0335 0.0048
v -0.1160 -0.0335 0.0060
v 0.1160 -0.0335 0.0060
v 0.1188 -0.0335 0.0048
v -0.1188 0.0335 0.0048
v -0.1160 0.0335 0.0060
v 0.1160 0.0335 0.0060
v 0.1188 0.0335 0.0048
v -0.1183 0.0358 0.0043
v -0.1160 0.0363 0.0048
v 0.1160 0.0363 0.0048
v 0.1183 0.0358 0.0043
v 0.1183 -0.0358 -0.0043
v 0.1160 -0.0363 -0.0048
v -0.1160 -0.0363 -0.0048
v -0.1183 -0.0358 -0.0043
v 0.1188 -0.0335 -0.0048
v 0.1160 -0.0335 -0.0060
v -0.1160 -0.0335 -0.0060
v -0.1188 -0.0335 -0.0048
v 0.1188 0.0335 -0.0048
v 0.1160 0.0335 -0.0060
v -0.1160 0.0335 -0.0060
v -0.1188 0.0335 -0.0048
v 0.1183 0.0358 -0.0043
v 0.1160 0.0363 -0.0048
v -0.1160 0.0363 -0.0048
v -0.1183 0.0358 -0.0043
vt 0.0000 0.0000
vt 0.0040 0.0000
vt 0.0080 0.0000
vt 0.0120 0.0000
vt 0.0000 0.0040
vt 0.0040 0.0040
vt 0.0080 0.0040
vt 0.0120 0.0040
vt 0.0000 0.0710
vt 0.0040 0.0710
vt 0.0080 0.0710
vt 0.0120 0.0710
vt 0.0000 0.0750
vt 0.0040 0.0750
vt 0.0080 0.0750
vt 0.0120 0.0750
vt 0.0000 0.0000
vt 0.0040 0.0000
vt 0.0080 0.0000
vt 0.0120 0.0000
vt 0.0000 0.0040
vt 0.0040 0.0040
vt 0.0080 0.0040
vt 0.0120 0.0040
vt 0.0000 0.0710
vt 0.0040 0.0710
vt 0.0080 0.0710
vt 0.0120 0.0710
vt 0.0000 0.0750
vt 0.0040 0.0750
vt 0.0080 0.0750
vt 0.0120 0.0750
vt 0.0000 0.0000
vt 0.0040 0.0000
vt 0.2360 0.0000
vt 0.2400 0.0000
vt 0.0000 0.0040
vt 0.0040 0.0040
vt 0.2360 0.0040
vt 0.2400 0.0040
vt 0.0000 0.0080
vt 0.0040 0.0080
vt 0.2360 0.0080
vt 0.2400 0.0080
vt 0.0000 0.0120
vt 0.0040 0.0120
vt 0.2360 0.0120
vt 0.2400 0.0120
vt 0.0000 0.0000
vt 0.0040 0.0000
vt 0.2360 0.0000
vt 0.2400 0.0000
vt 0.0000 0.0040
vt 0.0040 0.0040
vt 0.2360 0.0040
vt 0.2400 0.0040
vt 0.0000 0.0080
vt 0.0040 0.0080
vt 0.2360 0.0080
vt 0.2400 0.0080
vt 0.0000 0.0120
vt 0.0040 0.0120
vt 0.2360 0.0120
vt 0.2400 0.0120
vt 0.0000 0.0000
vt 0.0040 0.0000
vt 0.2360 0.0000
vt 0.2400 0.0000
vt 0.0000 0.0040
vt 0.0040 0.0040
vt 0.2360 0.0040
vt 0.2400 0.0040
vt 0.0000 0.0710
vt 0.0040 0.0710
vt 0.2360 0.0710
vt 0.2400 0.0710
vt 0.0000 0.0750
vt 0.0040 0.0750
vt 0.2360 0.0750
vt 0.2400 0.0750
vt 0.0000 0.0000
vt 0.0040 0.0000
vt 0.2360 0.0000
vt 0.2400 0.0000
vt 0.0000 0.0040
vt 0.0040 0.0040
vt 0.2360 0.0040
vt 0.2400 0.0040
vt 0.0000 0.0710
vt 0.0040 0.0710
vt 0.2360 0.0710
vt 0.2400 0.0710
vt 0.0000 0.0750
vt 0.0040 0.0750
vt 0.2360 0.0750
vt 0.2400 0.0750
vn 0.577 -0.577 0.577
vn 0.707 -0.707 0.000
vn 0.707 -0.707 0.000
vn 0.577 -0.577 -0.577
vn 0.707 0.000 0.707
vn 1.000 0.000 0.000
vn 1.000 0.000 0.000
vn 0.707 0.000 -0.707
vn 0.707 0.000 0.707
vn 1.000 0.000 0.000
vn 1.000 0.000 0.000
vn 0.707 0.000 -0.707
vn 0.577 0.577 0.577
vn 0.707 0.707 0.000
vn 0.707 0.707 0.000
vn 0.577 0.577 -0.577
vn -0.577 -0.577 -0.577
vn -0.707 -0.707 0.000
vn -0.707 -0.707 0.000
vn -0.577 -0.577 0.577
vn -0.707 0.000 -0.707
vn -1.000 0.000 0.000
vn -1.000 0.000 0.000
vn -0.707 0.000 0.707
vn -0.707 0.000 -0.707
vn -1.000 0.000 0.000
vn -1.000 0.000 0.000
vn -0.707 0.000 0.707
vn -0.577 0.577 -0.577
vn -0.707 0.707 0.000
vn -0.707 0.707 0.000
vn -0.577 0.577 0.577
vn -0.577 0.577 0.577
vn 0.000 0.707 0.707
vn 0.000 0.707 0.707
vn 0.577 0.577 0.577
vn -0.707 0.707 0.000
vn 0.000 1.000 0.000
vn 0.000 1.000 0.000
vn 0.707 0.707 0.000
vn -0.707 0.707 0.000
vn 0.000 1.000 0.000
vn 0.000 1.000 0.000
vn 0.707 0.707 0.000
vn -0.577 0.577 -0.577
vn 0.000 0.707 -0.707
vn 0.000 0.707 -0.707
vn 0.577 0.577 -0.577
vn -0.577 -0.577 -0.577
vn 0.000 -0.707 -0.707
vn 0.000 -0.707 -0.707
vn 0.577 -0.577 -0.577
vn -0.707 -0.707 0.000
vn 0.000 -1.000 0.000
vn 0.000 -1.000 0.000
vn 0.707 -0.707 0.000
vn -0.707 -0.707 0.000
vn 0.000 -1.000 0.000
vn 0.000 -1.000 0.000
vn 0.707 -0.707 0.000
vn -0.577 -0.577 0.577
vn 0.000 -0.707 0.707
vn 0.000 -0.707 0.707
vn 0.577 -0.577 0.577
vn -0.577 -0.577 0.577
vn 0.000 -0.707 0.707
vn 0.000 -0.707 0.707
vn 0.577 -0.577 0.577
vn -0.707 0.000 0.707
vn 0.000 0.000 1.000
vn 0.000 0.000 1.000
vn 0.707 0.000 0.707
vn -0.707 0.000 0.707
vn 0.000 0.000 1.000
vn 0.000 0.000 1.000
vn 0.707 0.000 0.707
vn -0.577 0.577 0.577
vn 0.000 0.707 0.707
vn 0.000 0.707 0.707
vn 0.577 0.577 0.577
vn 0.577 -0.577 -0.577
vn 0.000 -0.707 -0.707
vn 0.000 -0.707 -0.707
vn -0.577 -0.577 -0.577
vn 0.707 0.000 -0.707
vn 0.000 0.000 -1.000
vn 0.000 0.000 -1.000
vn -0.707 0.000 -0.707
vn 0.707 0.000 -0.707
vn 0.000 0.000 -1.000
vn 0.000 0.000 -1.000
vn -0.707 0.000 -0.707
vn 0.577 0.577 -0.577
vn 0.000 0.707 -0.707
vn 0.000 0.707 -0.707
vn -0.577 0.577 -0.577
v 0.1100 -0.0290 0.0071
v 0.1100 -0.0290 0.0051
v 0.1100 0.0290 0.0051
v 0.1100 0.0290 0.0071
v -0.1100 -0.0290 0.0051
v -0.1100 -0.0290 0.0071
v -0.1100 0.0290 0.0071
v -0.1100 0.0290 0.0051
v -0.1100 0.0290 0.0071
v 0.1100 0.0290 0.0071
v 0.1100 0.0290 0.0051
v -0.1100 0.0290 0.0051
v -0.1100 -0.0290 0.0051
v 0.1100 -0.0290 0.0051
v 0.1100 -0.0290 0.0071
v -0.1100 -0.0290 0.0071
v -0.1100 -0.0290 0.0071
v 0.1100 -0.0290 0.0071
v 0.1100 0.0290 0.0071
v -0.1100 0.0290 0.0071
v 0.1100 -0.0290 0.0051
v -0.1100 -0.0290 0.0051
v -0.1100 0.0290 0.0051
v 0.1100 0.0290 0.0051
vt 0.0000 0.0000
vt 0.0020 0.0000
vt 0.0020 0.0580
vt 0.0000 0.0580
vt 0.0000 0.0000
vt 0.0020 0.0000
vt 0.0020 0.0580
vt 0.0000 0.0580
vt 0.0000 0.0000
vt 0.2200 0.0000
vt 0.2200 0.0020
vt 0.0000 0.0020
vt 0.0000 0.0000
vt 0.2200 0.0000
vt 0.2200 0.0020
vt 0.0000 0.0020
vt 0.0000 0.0000
vt 0.2200 0.0000
vt 0.2200 0.0580
vt 0.0000 0.0580
vt 0.0000 0.0000
vt 0.2200 0.0000
vt 0.2200 0.0580
vt 0.0000 0.0580
vn 1.000 0.000 0.000
vn 1.000 0.000 0.000
vn 1.000 0.000 0.000
vn 1.000 0.000 0.000
vn -1.000 0.000 0.000
vn -1.000 0.000 0.000
vn -1.000 0.000 0.000
vn -1.000 0.000 0.000
vn 0.000 1.000 0.000
vn 0.000 1.000 0.000
vn 0.000 1.000 0.000
vn 0.000 1.000 0.000
vn 0.000 -1.000 0.000
vn 0.000 -1.000 0.000
vn 0.000 -1.000 0.000
vn 0.000 -1.000 0.000
vn 0.000 0.000 1.000
vn 0.000 0.000 1.000
vn 0.000 0.000 1.000
vn 0.000 0.000 1.000
vn 0.000 0.000 -1.000
vn 0.000 0.000 -1.000
vn 0.000 0.000 -1.000
vn 0.000 0.000 -1.000
v -0.0993 0.0250 0.0065
v -0.1005 0.0250 0.0053
v -0.1017 0.0250 0.0065
v -0.1005 0.0250 0.0077
v -0.0993 0.0250 0.0065
v -0.1004 0.0284 0.0065
v -0.1014 0.0276 0.0053
v -0.1023 0.0269 0.0065
v -0.1014 0.0276 0.0077
v -0.1004 0.0284 0.0065
v -0.1032 0.0304 0.0065
v -0.1036 0.0293 0.0053
v -0.1040 0.0281 0.0065
v -0.1036 0.0293 0.0077
v -0.1032 0.0304 0.0065
v -0.1068 0.0304 0.0065
v -0.1064 0.0293 0.0053
v -0.1060 0.0281 0.0065
v -0.1064 0.0293 0.0077
v -0.1068 0.0304 0.0065
v -0.1096 0.0284 0.0065
v -0.1086 0.0276 0.0053
v -0.1077 0.0269 0.0065
v -0.1086 0.0276 0.0077
v -0.1096 0.0284 0.0065
v -0.1107 0.0250 0.0065
v -0.1095 0.0250 0.0053
v -0.1083 0.0250 0.0065
v -0.1095 0.0250 0.0077
v -0.1107 0.0250 0.0065
v -0.1096 0.0216 0.0065
v -0.1086 0.0224 0.0053
v -0.1077 0.0231 0.0065
v -0.1086 0.0224 0.0077
v -0.1096 0.0216 0.0065
v -0.1068 0.0196 0.0065
v -0.1064 0.0207 0.0053
v -0.1060 0.0219 0.0065
v -0.1064 0.0207 0.0077
v -0.1068 0.0196 0.0065
v -0.1032 0.0196 0.0065
v -0.1036 0.0207 0.0053
v -0.1040 0.0219 0.0065
v -0.1036 0.0207 0.0077
v -0.1032 0.0196 0.0065
v -0.1004 0.0216 0.0065
v -0.1014 0.0224 0.0053
v -0.1023 0.0231 0.0065
v -0.1014 0.0224 0.0077
v -0.1004 0.0216 0.0065
v -0.0993 0.0250 0.0065
v -0.1005 0.0250 0.0053
v -0.1017 0.0250 0.0065
v -0.1005 0.0250 0.0077
v -0.0993 0.0250 0.0065
v 0.1107 0.0250 0.0065
v 0.1095 0.0250 0.0053
v 0.1083 0.0250 0.0065
v 0.1095 0.0250 0.0077
v 0.1107 0.0250 0.0065
v 0.1096 0.0284 0.0065
v 0.1086 0.0276 0.0053
v 0.1077 0.0269 0.0065
v 0.1086 0.0276 0.0077
v 0.1096 0.0284 0.0065
v 0.1068 0.0304 0.0065
v 0.1064 0.0293 0.0053
v 0.1060 0.0281 0.0065
v 0.1064 0.0293 0.0077
v 0.1068 0.0304 0.0065
v 0.1032 0.0304 0.0065
v 0.1036 0.0293 0.0053
v 0.1040 0.0281 0.0065
v 0.1036 0.0293 0.0077
v 0.1032 0.0304 0.0065
v 0.1004 0.0284 0.0065
v 0.1014 0.0276 0.0053
v 0.1023 0.0269 0.0065
v 0.1014 0.0276 0.0077
v 0.1004 0.0284 0.0065
v 0.0993 0.0250 0.0065
v 0.1005 0.0250 0.0053
v 0.1017 0.0250 0.0065
v 0.1005 0.0250 0.0077
v 0.0993 0.0250 0.0065
v 0.1004 0.0216 0.0065
v 0.1014 0.0224 0.0053
v 0.1023 0.0231 0.0065
v 0.1014 0.0224 0.0077
v 0.1004 0.0216 0.0065
v 0.1032 0.0196 0.0065
v 0.1036 0.0207 0.0053
v 0.1040 0.0219 0.0065
v 0.1036 0.0207 0.0077
v 0.1032 0.0196 0.0065
v 0.1068 0.0196 0.0065
v 0.1064 0.0207 0.0053
v 0.1060 0.0219 0.0065
v 0.1064 0.0207 0.0077
v 0.1068 0.0196 0.0065
v 0.1096 0.0216 0.0065
v 0.1086 0.0224 0.0053
v 0.1077 0.0231 0.0065
v 0.1086 0.0224 0.0077
v 0.1096 0.0216 0.0065
v 0.1107 0.0250 0.0065
v 0.1095 0.0250 0.0053
v 0.1083 0.0250 0.0065
v 0.1095 0.0250 0.0077
v 0.1107 0.0250 0.0065
vt 0.0000 0.0000
vt 0.0000 0.0019
vt 0.0000 0.0038
vt 0.0000 0.0057
vt 0.0000 0.0075
vt 0.0028 0.0000
vt 0.0028 0.0019
vt 0.0028 0.0038
vt 0.0028 0.0057
vt 0.0028 0.0075
vt 0.0056 0.0000
vt 0.0056 0.0019
vt 0.0056 0.0038
vt 0.0056 0.0057
vt 0.0056 0.0075
vt 0.0083 0.0000
vt 0.0083 0.0019
vt 0.0083 0.0038
vt 0.0083 0.0057
vt 0.0083 0.0075
vt 0.0111 0.0000
vt 0.0111 0.0019
vt 0.0111 0.0038
vt 0.0111 0.0057
vt 0.0111 0.0075
vt 0.0139 0.0000
vt 0.0139 0.0019
vt 0.0139 0.0038
vt 0.0139 0.0057
vt 0.0139 0.0075
vt 0.0167 0.0000
vt 0.0167 0.0019
vt 0.0167 0.0038
vt 0.0167 0.0057
vt 0.0167 0.0075
vt 0.0195 0.0000
vt 0.0195 0.0019
vt 0.0195 0.0038
vt 0.0195 0.0057
vt 0.0195 0.0075
vt 0.0222 0.0000
vt 0.0222 0.0019
vt 0.0222 0.0038
vt 0.0222 0.0057
vt 0.0222 0.0075
vt 0.0250 0.0000
vt 0.0250 0.0019
vt 0.0250 0.0038
vt 0.0250 0.0057
vt 0.0250 0.0075
vt 0.0278 0.0000
vt 0.0278 0.0019
vt 0.0278 0.0038
vt 0.0278 0.0057
vt 0.0278 0.0075
vt 0.0000 0.0000
vt 0.0000 0.0019
vt 0.0000 0.0038
vt 0.0000 0.0057
vt 0.0000 0.0075
vt 0.0028 0.0000
vt 0.0028 0.0019
vt 0.0028 0.0038
vt 0.0028 0.0057
vt 0.0028 0.0075
vt 0.0056 0.0000
vt 0.0056 0.0019
vt 0.0056 0.0038
vt 0.0056 0.0057
vt 0.0056 0.0075
vt 0.0083 0.0000
vt 0.0083 0.0019
vt 0.0083 0.0038
vt 0.0083 0.0057
vt 0.0083 0.0075
vt 0.0111 0.0000
vt 0.0111 0.0019
vt 0.0111 0.0038
vt 0.0111 0.0057
vt 0.0111 0.0075
vt 0.0139 0.0000
vt 0.0139 0.0019
vt 0.0139 0.0038
vt 0.0139 0.0057
vt 0.0139 0.0075
vt 0.0167 0.0000
vt 0.0167 0.0019
vt 0.0167 0.0038
vt 0.0167 0.0057
vt 0.0167 0.0075
vt 0.0195 0.0000
vt 0.0195 0.0019
vt 0.0195 0.0038
vt 0.0195 0.0057
vt 0.0195 0.0075
vt 0.0222 0.0000
vt 0.0222 0.0019
vt 0.0222 0.0038
vt 0.0222 0.0057
vt 0.0222 0.0075
vt 0.0250 0.0000
vt 0.0250 0.0019
vt 0.0250 0.0038
vt 0.0250 0.0057
vt 0.0250 0.0075
vt 0.0278 0.0000
vt 0.0278 0.0019
vt 0.0278 0.0038
vt 0.0278 0.0057
vt 0.0278 0.0075
vn 1.000 0.000 0.000
vn 0.000 0.000 -1.000
vn -1.000 0.000 -0.000
vn -0.000 0.000 1.000
vn 1.000 -0.000 0.000
vn 0.809 0.588 0.000
vn 0.000 0.000 -1.000
vn -0.809 -0.588 -0.000
vn -0.000 -0.000 1.000
vn 0.809 0.588 0.000
vn 0.309 0.951 0.000
vn 0.000 0.000 -1.000
vn -0.309 -0.951 -0.000
vn -0.000 -0.000 1.000
vn 0.309 0.951 0.000
vn -0.309 0.951 0.000
vn -0.000 0.000 -1.000
vn 0.309 -0.951 -0.000
vn 0.000 -0.000 1.000
vn -0.309 0.951 0.000
vn -0.809 0.588 0.000
vn -0.000 0.000 -1.000
vn 0.809 -0.588 -0.000
vn 0.000 -0.000 1.000
vn -0.809 0.588 0.000
vn -1.000 0.000 0.000
vn -0.000 0.000 -1.000
vn 1.000 -0.000 -0.000
vn 0.000 0.000 1.000
vn -1.000 0.000 0.000
vn -0.809 -0.588 0.000
vn -0.000 -0.000 -1.000
vn 0.809 0.588 -0.000
vn 0.000 0.000 1.000
vn -0.809 -0.588 0.000
vn -0.309 -0.951 0.000
vn -0.000 -0.000 -1.000
vn 0.309 0.951 -0.000
vn 0.000 0.000 1.000
vn -0.309 -0.951 0.000
vn 0.309 -0.951 0.000
vn 0.000 -0.000 -1.000
vn -0.309 0.951 -0.000
vn -0.000 0.000 1.000
vn 0.309 -0.951 0.000
vn 0.809 -0.588 0.000
vn 0.000 -0.000 -1.000
vn -0.809 0.588 -0.000
vn -0.000 0.000 1.000
vn 0.809 -0.588 0.000
vn 1.000 0.000 0.000
vn 0.000 0.000 -1.000
vn -1.000 0.000 -0.000
vn -0.000 0.000 1.000
vn 1.000 -0.000 0.000
vn 1.000 0.000 0.000
vn 0.000 0.000 -1.000
vn -1.000 0.000 -0.000
vn -0.000 0.000 1.000
vn 1.000 -0.000 0.000
vn 0.809 0.588 0.000
vn 0.000 0.000 -1.000
vn -0.809 -0.588 -0.000
vn -0.000 -0.000 1.000
vn 0.809 0.588 0.000
vn 0.309 0.951 0.000
vn 0.000 0.000 -1.000
vn -0.309 -0.951 -0.000
vn -0.000 -0.000 1.000
vn 0.309 0.951 0.000
vn -0.309 0.951 0.000
vn -0.000 0.000 -1.000
vn 0.309 -0.951 -0.000
vn 0.000 -0.000 1.000
vn -0.309 0.951 0.000
vn -0.809 0.588 0.000
vn -0.000 0.000 -1.000
vn 0.809 -0.588 -0.000
vn 0.000 -0.000 1.000
vn -0.809 0.588 0.000
vn -1.000 0.000 0.000
vn -0.000 0.000 -1.000
vn 1.000 -0.000 -0.000
vn 0.000 0.000 1.000
vn -1.000 0.000 0.000
vn -0.809 -0.588 0.000
vn -0.000 -0.000 -1.000
vn 0.809 0.588 -0.000
vn 0.000 0.000 1.000
vn -0.809 -0.588 0.000
vn -0.309 -0.951 0.000
vn -0.000 -0.000 -1.000
vn 0.309 0.951 -0.000
vn 0.000 0.000 1.000
vn -0.309 -0.951 0.000
vn 0.309 -0.951 0.000
vn 0.000 -0.000 -1.000
vn -0.309 0.951 -0.000
vn -0.000 0.000 1.000
vn 0.309 -0.951 0.000
vn 0.809 -0.588 0.000
vn 0.000 -0.000 -1.000
vn -0.809 0.588 -0.000
vn -0.000 0.000 1.000
vn 0.809 -0.588 0.000
vn 1.000 0.000 0.000
vn 0.000 0.000 -1.000
vn -1.000 0.000 -0.000
vn -0.000 0.000 1.000
vn 1.000 -0.000 0.000
usemtl wood
f 1/1/1 2/2/2 6/6/6
f 1/1/1 6/6/6 5/5/5
f 2/2/2 3/3/3 7/7/7
f 2/2/2 7/7/7 6/6/6
f 3/3/3 4/4/4 8/8/8
f 3/3/3 8/8/8 7/7/7
f 5/5/5 6/6/6 10/10/10
f 5/5/5 10/10/10 9/9/9
f 6/6/6 7/7/7 11/11/11
f 6/6/6 11/11/11 10/10/10
f 7/7/7 8/8/8 12/12/12
f 7/7/7 12/12/12 11/11/11
f 9/9/9 10/10/10 14/14/14
f 9/9/9 14/14/14 13/13/13
f 10/10/10 11/11/11 15/15/15
f 10/10/10 15/15/15 14/14/14
f 11/11/11 12/12/12 16/16/16
f 11/11/11 16/16/16 15/15/15
f 17/17/17 18/18/18 22/22/22
f 17/17/17 22/22/22 21/21/21
f 18/18/18 19/19/19 23/23/23
f 18/18/18 23/23/23 22/22/22
f 19/19/19 20/20/20 24/24/24
f 19/19/19 24/24/24 23/23/23
f 21/21/21 22/22/22 26/26/26
f 21/21/21 26/26/26 25/25/25
f 22/22/22 23/23/23 27/27/27
f 22/22/22 27/27/27 26/26/26
f 23/23/23 24/24/24 28/28/28
f 23/23/23 28/28/28 27/27/27
f 25/25/25 26/26/26 30/30/30
f 25/25/25 30/30/30 29/29/29
f 26/26/26 27/27/27 31/31/31
f 26/26/26 31/31/31 30/30/30
f 27/27/27 28/28/28 32/32/32
f 27/27/27 32/32/32 31/31/31
f 33/33/33 34/34/34 38/38/38
f 33/33/33 38/38/38 37/37/37
f 34/34/34 35/35/35 39/39/39
f 34/34/34 39/39/39 38/38/38
f 35/35/35 36/36/36 40/40/40
f 35/35/35 40/40/40 39/39/39
f 37/37/37 38/38/38 42/42/42
f 37/37/37 42/42/42 41/41/41
f 38/38/38 39/39/39 43/43/43
f 38/38/38 43/43/43 42/42/42
f 39/39/39 40/40/40 44/44/44
f 39/39/39 44/44/44 43/43/43
f 41/41/41 42/42/42 46/46/46
f 41/41/41 46/46/46 45/45/45
f 42/42/42 43/43/43 47/47/47
f 42/42/42 47/47/47 46/46/46
f 43/43/43 44/44/44 48/48/48
f 43/43/43 48/48/48 47/47/47
f 49/49/49 50/50/50 54/54/54
f 49/49/49 54/54/54 53/53/53
f 50/50/50 51/51/51 55/55/55
f 50/50/50 55/55/55 54/54/54
f 51/51/51 52/52/52 56/56/56
f 51/51/51 56/56/56 55/55/55
f 53/53/53 54/54/54 58/58/58
f 53/53/53 58/58/58 57/57/57
f 54/54/54 55/55/55 59/59/59
f 54/54/54 59/59/59 58/58/58
f 55/55/55 56/56/56 60/60/60
f 55/55/55 60/60/60 59/59/59
f 57/57/57 58/58/58 62/62/62
f 57/57/57 62/62/62 61/61/61
f 58/58/58 59/59/59 63/63/63
f 58/58/58 63/63/63 62/62/62
f 59/59/59 60/60/60 64/64/64
f 59/59/59 64/64/64 63/63/63
f 65/65/65 66/66/66 70/70/70
f 65/65/65 70/70/70 69/69/69
f 66/66/66 67/67/67 71/71/71
f 66/66/66 71/71/71 70/70/70
f 67/67/67 68/68/68 72/72/72
f 67/67/67 72/72/72 71/71/71
f 69/69/69 70/70/70 74/74/74
f 69/69/69 74/74/74 73/73/73
f 70/70/70 71/71/71 75/75/75
f 70/70/70 75/75/75 74/74/74
f 71/71/71 72/72/72 76/76/76
f 71/71/71 76/76/76 75/75/75
f 73/73/73 74/74/74 78/78/78
f 73/73/73 78/78/78 77/77/77
f 74/74/74 75/75/75 79/79/79
f 74/74/74 79/79/79 78/78/78
f 75/75/75 76/76/76 80/80/80
f 75/75/75 80/80/80 79/79/79
f 81/81/81 82/82/82 86/86/86
f 81/81/81 86/86/86 85/85/85
f 82/82/82 83/83/83 87/87/87
f 82/82/82 87/87/87 86/86/86
f 83/83/83 84/84/84 88/88/88
f 83/83/83 88/88/88 87/87/87
f 85/85/85 86/86/86 90/90/90
f 85/85/85 90/90/90 89/89/89
f 86/86/86 87/87/87 91/91/91
f 86/86/86 91/91/91 90/90/90
f 87/87/87 88/88/88 92/92/92
f 87/87/87 92/92/92 91/91/91
f 89/89/89 90/90/90 94/94/94
f 89/89/89 94/94/94 93/93/93
f 90/90/90 91/91/91 95/95/95
f 90/90/90 95/95/95 94/94/94
f 91/91/91 92/92/92 96/96/96
f 91/91/91 96/96/96 95/95/95
usemtl paint
f 97/97/97 98/98/98 99/99/99
f 97/97/97 99/99/99 100/100/100
f 101/101/101 102/102/102 103/103/103
f 101/101/101 103/103/103 104/104/104
f 105/105/105 106/106/106 107/107/107
f 105/105/105 107/107/107 108/108/108
f 109/109/109 110/110/110 111/111/111
f 109/109/109 111/111/111 112/112/112
f 113/113/113 114/114/114 115/115/115
f 113/113/113 115/115/115 116/116/116
f 117/117/117 118/118/118 119/119/119
f 117/117/117 119/119/119 120/120/120
usemtl metal
f 121/121/121 122/122/122 127/127/127
f 121/121/121 127/127/127 126/126/126
f 122/122/122 123/123/123 128/128/128
f 122/122/122 128/128/128 127/127/127
f 123/123/123 124/124/124 129/129/129
f 123/123/123 129/129/129 128/128/128
f 124/124/124 125/125/125 130/130/130
f 124/124/124 130/130/130 129/129/129
f 126/126/126 127/127/127 132/132/132
f 126/126/126 132/132/132 131/131/131
f 127/127/127 128/128/128 133/133/133
f 127/127/127 133/133/133 132/132/132
f 128/128/128 129/129/129 134/134/134
f 128/128/128 134/134/134 133/133/133
f 129/129/129 130/130/130 135/135/135
f 129/129/129 135/135/135 134/134/134
f 131/131/131 132/132/132 137/137/137
f 131/131/131 137/137/137 136/136/136
f 132/132/132 133/133/133 138/138/138
f 132/132/132 138/138/138 137/137/137
f 133/133/133 134/134/134 139/139/139
f 133/133/133 139/139/139 138/138/138
f 134/134/134 135/135/135 140/140/140
f 134/134/134 140/140/140 139/139/139
f 136/136/136 137/137/137 142/142/142
f 136/136/136 142/142/142 141/141/141
f 137/137/137 138/138/138 143/143/143
f 137/137/137 143/143/143 142/142/142
f 138/138/138 139/139/139 144/144/144
f 138/138/138 144/144/144 143/143/143
f 139/139/139 140/140/140 145/145/145
f 139/139/139 145/145/145 144/144/144
f 141/141/141 142/142/142 147/147/147
f 141/141/141 147/147/147 146/146/146
f 142/142/142 143/143/143 148/148/148
f 142/142/142 148/148/148 147/147/147
f 143/143/143 144/144/144 149/149/149
f 143/143/143 149/149/149 148/148/148
f 144/144/144 145/145/145 150/150/150
f 144/144/144 150/150/150 149/149/149
f 146/146/146 147/147/147 152/152/152
f 146/146/146 152/152/152 151/151/151
f 147/147/147 148/148/148 153/153/153
f 147/147/147 153/153/153 152/152/152
f 148/148/148 149/149/149 154/154/154
f 148/148/148 154/154/154 153/153/153
f 149/149/149 150/150/150 155/155/155
f 149/149/149 155/155/155 154/154/154
f 151/151/151 152/152/152 157/157/157
f 151/151/151 157/157/157 156/156/156
f 152/152/152 153/153/153 158/158/158
f 152/152/152 158/158/158 157/157/157
f 153/153/153 154/154/154 159/159/159
f 153/153/153 159/159/159 158/158/158
f 154/154/154 155/155/155 160/160/160
f 154/154/154 160/160/160 159/159/159
f 156/156/156 157/157/157 162/162/162
f 156/156/156 162/162/162 161/161/161
f 157/157/157 158/158/158 163/163/163
f 157/157/157 163/163/163 162/162/162
f 158/158/158 159/159/159 164/164/164
f 158/158/158 164/164/164 163/163/163
f 159/159/159 160/160/160 165/165/165
f 159/159/159 165/165/165 164/164/164
f 161/161/161 162/162/162 167/167/167
f 161/161/161 167/167/167 166/166/166
f 162/162/162 163/163/163 168/168/168
f 162/162/162 168/168/168 167/167/167
f 163/163/163 164/164/164 169/169/169
f 163/163/163 169/169/169 168/168/168
f 164/164/164 165/165/165 170/170/170
f 164/164/164 170/170/170 169/169/169
f 166/166/166 167/167/167 172/172/172
f 166/166/166 172/172/172 171/171/171
f 167/167/167 168/168/168 173/173/173
f 167/167/167 173/173/173 172/172/172
f 168/168/168 169/169/169 174/174/174
f 168/168/168 174/174/174 173/173/173
f 169/169/169 170/170/170 175/175/175
f 169/169/169 175/175/175 174/174/174
f 176/176/176 177/177/177 182/182/182
f 176/176/176 182/182/182 181/181/181
f 177/177/177 178/178/178 183/183/183
f 177/177/177 183/183/183 182/182/182
f 178/178/178 179/179/179 184/184/184
f 178/178/178 184/184/184 183/183/183
f 179/179/179 180/180/180 185/185/185
f 179/179/179 185/185/185 184/184/184
f 181/181/181 182/182/182 187/187/187
f 181/181/181 187/187/187 186/186/186
f 182/182/182 183/183/183 188/188/188
f 182/182/182 188/188/188 187/187/187
f 183/183/183 184/184/184 189/189/189
f 183/183/183 189/189/189 188/188/188
f 184/184/184 185/185/185 190/190/190
f 184/184/184 190/190/190 189/189/189
f 186/186/186 187/187/187 192/192/192
f 186/186/186 192/192/192 191/191/191
f 187/187/187 188/188/188 193/193/193
f 187/187/187 193/193/193 192/192/192
f 188/188/188 189/189/189 194/194/194
f 188/188/188 194/194/194 193/193/193
f 189/189/189 190/190/190 195/195/195
f 189/189/189 195/195/195 194/194/194
f 191/191/191 192/192/192 197/197/197
f 191/191/191 197/197/197 196/196/196
f 192/192/192 193/193/193 198/198/198
f 192/192/192 198/198/198 197/197/197
f 193/193/193 194/194/194 199/199/199
f 193/193/193 199/199/199 198/198/198
f 194/194/194 195/195/195 200/200/200
f 194/194/194 200/200/200 199/199/199
f 196/196/196 197/197/197 202/202/202
f 196/196/196 202/202/202 201/201/201
f 197/197/197 198/198/198 203/203/203
f 197/197/197 203/203/203 202/202/202
f 198/198/198 199/199/199 204/204/204
f 198/198/198 204/204/204 203/203/203
f 199/199/199 200/200/200 205/205/205
f 199/199/199 205/205/205 204/204/204
f 201/201/201 202/202/202 207/207/207
f 201/201/201 207/207/207 206/206/206
f 202/202/202 203/203/203 208/208/208
f 202/202/202 208/208/208 207/207/207
f 203/203/203 204/204/204 209/209/209
f 203/203/203 209/209/209 208/208/208
f 204/204/204 205/205/205 210/210/210
f 204/204/204 210/210/210 209/209/209
f 206/206/206 207/207/207 212/212/212
f 206/206/206 212/212/212 211/211/211
f 207/207/207 208/208/208 213/213/213
f 207/207/207 213/213/213 212/212/212
f 208/208/208 209/209/209 214/214/214
f 208/208/208 214/214/214 213/213/213
f 209/209/209 210/210/210 215/215/215
f 209/209/209 215/215/215 214/214/214
f 211/211/211 212/212/212 217/217/217
f 211/211/211 217/217/217 216/216/216
f 212/212/212 213/213/213 218/218/218
f 212/212/212 218/218/218 217/217/217
f 213/213/213 214/214/214 219/219/219
f 213/213/213 219/219/219 218/218/218
f 214/214/214 215/215/215 220/220/220
f 214/214/214 220/220/220 219/219/219
f 216/216/216 217/217/217 222/222/222
f 216/216/216 222/222/222 221/221/221
f 217/217/217 218/218/218 223/223/223
f 217/217/217 223/223/223 222/222/222
f 218/218/218 219/219/219 224/224/224
f 218/218/218 224/224/224 223/223/223
f 219/219/219 220/220/220 225/225/225
f 219/219/219 225/225/225 224/224/224
f 221/221/221 222/222/222 227/227/227
f 221/221/221 227/227/227 226/226/226
f 222/222/222 223/223/223 228/228/228
f 222/222/222 228/228/228 227/227/227
f 223/223/223 224/224/224 229/229/229
f 223/223/223 229/229/229 228/228/228
f 224/224/224 225/225/225 230/230/230
f 224/224/224 230/230/230 229/229/229
