# Sinh tự động bởi tools/mesh_kit.py - đừng sửa tay
o pz_paper_sheet
v -0.5000 -0.0157 0.5000
v -0.3333 0.0023 0.5000
v -0.1667 0.0160 0.5000
v 0.0000 0.0000 0.5000
v 0.1667 -0.0160 0.5000
v 0.3333 -0.0013 0.5000
v 0.5000 0.0217 0.5000
v -0.5000 0.0062 0.2500
v -0.3333 -0.0009 0.2500
v -0.1667 -0.0063 0.2500
v 0.0000 0.0000 0.2500
v 0.1667 0.0063 0.2500
v 0.3333 0.0019 0.2500
v 0.5000 -0.0002 0.2500
v -0.5000 0.0196 0.0000
v -0.3333 -0.0028 0.0000
v -0.1667 -0.0199 0.0000
v 0.0000 0.0000 0.0000
v 0.1667 0.0199 0.0000
v 0.3333 0.0038 0.0000
v 0.5000 -0.0136 0.0000
v -0.5000 0.0062 -0.2500
v -0.3333 -0.0009 -0.2500
v -0.1667 -0.0063 -0.2500
v 0.0000 0.0000 -0.2500
v 0.1667 0.0063 -0.2500
v 0.3333 0.0019 -0.2500
v 0.5000 -0.0002 -0.2500
v -0.5000 -0.0157 -0.5000
v -0.3333 0.0023 -0.5000
v -0.1667 0.0160 -0.5000
v 0.0000 0.0000 -0.5000
v 0.1667 -0.0160 -0.5000
v 0.3333 -0.0013 -0.5000
v 0.5000 0.0217 -0.5000
v -0.5000 -0.0157 0.5000
v -0.3333 0.0023 0.5000
v -0.1667 0.0160 0.5000
v 0.0000 0.0000 0.5000
v 0.1667 -0.0160 0.5000
v 0.3333 -0.0013 0.5000
v 0.5000 0.0217 0.5000
v -0.5000 0.0062 0.2500
v -0.3333 -0.0009 0.2500
v -0.1667 -0.0063 0.2500
v 0.0000 0.0000 0.2500
v 0.1667 0.0063 0.2500
v 0.3333 0.0019 0.2500
v 0.5000 -0.0002 0.2500
v -0.5000 0.0196 0.0000
v -0.3333 -0.0028 0.0000
v -0.1667 -0.0199 0.0000
v 0.0000 0.0000 0.0000
v 0.1667 0.0199 0.0000
v 0.3333 0.0038 0.0000
v 0.5000 -0.0136 0.0000
v -0.5000 0.0062 -0.2500
v -0.3333 -0.0009 -0.2500
v -0.1667 -0.0063 -0.2500
v 0.0000 0.0000 -0.2500
v 0.1667 0.0063 -0.2500
v 0.3333 0.0019 -0.2500
v 0.5000 -0.0002 -0.2500
v -0.5000 -0.0157 -0.5000
v -0.3333 0.0023 -0.5000
v -0.1667 0.0160 -0.5000
v 0.0000 0.0000 -0.5000
v 0.1667 -0.0160 -0.5000
v 0.3333 -0.0013 -0.5000
v 0.5000 0.0217 -0.5000
vt 0.0000 0.0000
vt 0.1667 0.0000
vt 0.3333 0.0000
vt 0.5000 0.0000
vt 0.6667 0.0000
vt 0.8333 0.0000
vt 1.0000 0.0000
vt 0.0000 0.2500
vt 0.1667 0.2500
vt 0.3333 0.2500
vt 0.5000 0.2500
vt 0.6667 0.2500
vt 0.8333 0.2500
vt 1.0000 0.2500
vt 0.0000 0.5000
vt 0.1667 0.5000
vt 0.3333 0.5000
vt 0.5000 0.5000
vt 0.6667 0.5000
vt 0.8333 0.5000
vt 1.0000 0.5000
vt 0.0000 0.7500
vt 0.1667 0.7500
vt 0.3333 0.7500
vt 0.5000 0.7500
vt 0.6667 0.7500
vt 0.8333 0.7500
vt 1.0000 0.7500
vt 0.0000 1.0000
vt 0.1667 1.0000
vt 0.3333 1.0000
vt 0.5000 1.0000
vt 0.6667 1.0000
vt 0.8333 1.0000
vt 1.0000 1.0000
vt 0.0000 0.0000
vt 0.1667 0.0000
vt 0.3333 0.0000
vt 0.5000 0.0000
vt 0.6667 0.0000
vt 0.8333 0.0000
vt 1.0000 0.0000
vt 0.0000 0.2500
vt 0.1667 0.2500
vt 0.3333 0.2500
vt 0.5000 0.2500
vt 0.6667 0.2500
vt 0.8333 0.2500
vt 1.0000 0.2500
vt 0.0000 0.5000
vt 0.1667 0.5000
vt 0.3333 0.5000
vt 0.5000 0.5000
vt 0.6667 0.5000
vt 0.8333 0.5000
vt 1.0000 0.5000
vt 0.0000 0.7500
vt 0.1667 0.7500
vt 0.3333 0.7500
vt 0.5000 0.7500
vt 0.6667 0.7500
vt 0.8333 0.7500
vt 1.0000 0.7500
vt 0.0000 1.0000
vt 0.1667 1.0000
vt 0.3333 1.0000
vt 0.5000 1.0000
vt 0.6667 1.0000
vt 0.8333 1.0000
vt 1.0000 1.0000
vn 0.107 -0.991 -0.086
vn 0.095 -0.995 0.013
vn -0.007 -0.996 0.089
vn -0.095 -0.995 -0.000
vn -0.004 -0.996 -0.089
vn 0.112 -0.994 -0.013
vn 0.136 -0.987 0.086
vn -0.042 -0.997 -0.070
vn -0.037 -0.999 0.010
vn 0.003 -0.997 0.072
vn 0.038 -0.999 -0.000
vn 0.006 -0.997 -0.072
vn -0.019 -1.000 -0.010
vn -0.012 -0.997 0.070
vn -0.133 -0.991 -0.000
vn -0.118 -0.993 -0.000
vn 0.008 -1.000 -0.000
vn 0.119 -0.993 -0.000
vn 0.011 -1.000 -0.000
vn -0.100 -0.995 -0.000
vn -0.104 -0.995 -0.000
vn -0.042 -0.997 0.070
vn -0.037 -0.999 -0.010
vn 0.003 -0.997 -0.072
vn 0.038 -0.999 -0.000
vn 0.006 -0.997 0.072
vn -0.019 -1.000 0.010
vn -0.012 -0.997 -0.070
vn 0.107 -0.991 0.086
vn 0.095 -0.995 -0.013
vn -0.007 -0.996 -0.089
vn -0.095 -0.995 -0.000
vn -0.004 -0.996 0.089
vn 0.112 -0.994 0.013
vn 0.136 -0.987 -0.086
vn -0.107 0.991 0.086
vn -0.095 0.995 -0.013
vn 0.007 0.996 -0.089
vn 0.095 0.995 0.000
vn 0.004 0.996 0.089
vn -0.112 0.994 0.013
vn -0.136 0.987 -0.086
vn 0.042 0.997 0.070
vn 0.037 0.999 -0.010
vn -0.003 0.997 -0.072
vn -0.038 0.999 0.000
vn -0.006 0.997 0.072
vn 0.019 1.000 0.010
vn 0.012 0.997 -0.070
vn 0.133 0.991 0.000
vn 0.118 0.993 0.000
vn -0.008 1.000 0.000
vn -0.119 0.993 0.000
vn -0.011 1.000 0.000
vn 0.100 0.995 0.000
vn 0.104 0.995 0.000
vn 0.042 0.997 -0.070
vn 0.037 0.999 0.010
vn -0.003 0.997 0.072
vn -0.038 0.999 0.000
vn -0.006 0.997 -0.072
vn 0.019 1.000 -0.010
vn 0.012 0.997 0.070
vn -0.107 0.991 -0.086
vn -0.095 0.995 0.013
vn 0.007 0.996 0.089
vn 0.095 0.995 0.000
vn 0.004 0.996 -0.089
vn -0.112 0.994 -0.013
vn -0.136 0.987 0.086
usemtl paper
f 1/1/1 9/9/9 2/2/2
f 1/1/1 8/8/8 9/9/9
f 2/2/2 10/10/10 3/3/3
f 2/2/2 9/9/9 10/10/10
f 3/3/3 11/11/11 4/4/4
f 3/3/3 10/10/10 11/11/11
f 4/4/4 12/12/12 5/5/5
f 4/4/4 11/11/11 12/12/12
f 5/5/5 13/13/13 6/6/6
f 5/5/5 12/12/12 13/13/13
f 6/6/6 14/14/14 7/7/7
f 6/6/6 13/13/13 14/14/14
f 8/8/8 16/16/16 9/9/9
f 8/8/8 15/15/15 16/16/16
f 9/9/9 17/17/17 10/10/10
f 9/9/9 16/16/16 17/17/17
f 10/10/10 18/18/18 11/11/11
f 10/10/10 17/17/17 18/18/18
f 11/11/11 19/19/19 12/12/12
f 11/11/11 18/18/18 19/19/19
f 12/12/12 20/20/20 13/13/13
f 12/12/12 19/19/19 20/20/20
f 13/13/13 21/21/21 14/14/14
f 13/13/13 20/20/20 21/21/21
f 15/15/15 23/23/23 16/16/16
f 15/15/15 22/22/22 23/23/23
f 16/16/16 24/24/24 17/17/17
f 16/16/16 23/23/23 24/24/24
f 17/17/17 25/25/25 18/18/18
f 17/17/17 24/24/24 25/25/25
f 18/18/18 26/26/26 19/19/19
f 18/18/18 25/25/25 26/26/26
f 19/19/19 27/27/27 20/20/20
f 19/19/19 26/26/26 27/27/27
f 20/20/20 28/28/28 21/21/21
f 20/20/20 27/27/27 28/28/28
f 22/22/22 30/30/30 23/23/23
f 22/22/22 29/29/29 30/30/30
f 23/23/23 31/31/31 24/24/24
f 23/23/23 30/30/30 31/31/31
f 24/24/24 32/32/32 25/25/25
f 24/24/24 31/31/31 32/32/32
f 25/25/25 33/33/33 26/26/26
f 25/25/25 32/32/32 33/33/33
f 26/26/26 34/34/34 27/27/27
f 26/26/26 33/33/33 34/34/34
f 27/27/27 35/35/35 28/28/28
f 27/27/27 34/34/34 35/35/35
f 36/36/36 37/37/37 44/44/44
f 36/36/36 44/44/44 43/43/43
f 37/37/37 38/38/38 45/45/45
f 37/37/37 45/45/45 44/44/44
f 38/38/38 39/39/39 46/46/46
f 38/38/38 46/46/46 45/45/45
f 39/39/39 40/40/40 47/47/47
f 39/39/39 47/47/47 46/46/46
f 40/40/40 41/41/41 48/48/48
f 40/40/40 48/48/48 47/47/47
f 41/41/41 42/42/42 49/49/49
f 41/41/41 49/49/49 48/48/48
f 43/43/43 44/44/44 51/51/51
f 43/43/43 51/51/51 50/50/50
f 44/44/44 45/45/45 52/52/52
f 44/44/44 52/52/52 51/51/51
f 45/45/45 46/46/46 53/53/53
f 45/45/45 53/53/53 52/52/52
f 46/46/46 47/47/47 54/54/54
f 46/46/46 54/54/54 53/53/53
f 47/47/47 48/48/48 55/55/55
f 47/47/47 55/55/55 54/54/54
f 48/48/48 49/49/49 56/56/56
f 48/48/48 56/56/56 55/55/55
f 50/50/50 51/51/51 58/58/58
f 50/50/50 58/58/58 57/57/57
f 51/51/51 52/52/52 59/59/59
f 51/51/51 59/59/59 58/58/58
f 52/52/52 53/53/53 60/60/60
f 52/52/52 60/60/60 59/59/59
f 53/53/53 54/54/54 61/61/61
f 53/53/53 61/61/61 60/60/60
f 54/54/54 55/55/55 62/62/62
f 54/54/54 62/62/62 61/61/61
f 55/55/55 56/56/56 63/63/63
f 55/55/55 63/63/63 62/62/62
f 57/57/57 58/58/58 65/65/65
f 57/57/57 65/65/65 64/64/64
f 58/58/58 59/59/59 66/66/66
f 58/58/58 66/66/66 65/65/65
f 59/59/59 60/60/60 67/67/67
f 59/59/59 67/67/67 66/66/66
f 60/60/60 61/61/61 68/68/68
f 60/60/60 68/68/68 67/67/67
f 61/61/61 62/62/62 69/69/69
f 61/61/61 69/69/69 68/68/68
f 62/62/62 63/63/63 70/70/70
f 62/62/62 70/70/70 69/69/69
