# Sinh tự động bởi tools/mesh_kit.py - đừng sửa tay
o pz_spool
v 0.0280 -0.0000 0.0000
v 0.0280 0.0260 0.0000
v 0.0250 0.0270 0.0000
v 0.0220 0.0260 0.0000
v 0.0200 0.0120 0.0000
v -0.0200 0.0120 0.0000
v -0.0220 0.0260 0.0000
v -0.0250 0.0270 0.0000
v -0.0280 0.0260 0.0000
v -0.0280 0.0000 0.0000
v 0.0280 -0.0000 0.0000
v 0.0280 0.0247 -0.0080
v 0.0250 0.0257 -0.0083
v 0.0220 0.0247 -0.0080
v 0.0200 0.0114 -0.0037
v -0.0200 0.0114 -0.0037
v -0.0220 0.0247 -0.0080
v -0.0250 0.0257 -0.0083
v -0.0280 0.0247 -0.0080
v -0.0280 0.0000 0.0000
v 0.0280 -0.0000 0.0000
v 0.0280 0.0210 -0.0153
v 0.0250 0.0218 -0.0159
v 0.0220 0.0210 -0.0153
v 0.0200 0.0097 -0.0071
v -0.0200 0.0097 -0.0071
v -0.0220 0.0210 -0.0153
v -0.0250 0.0218 -0.0159
v -0.0280 0.0210 -0.0153
v -0.0280 0.0000 0.0000
v 0.0280 -0.0000 0.0000
v 0.0280 0.0153 -0.0210
v 0.0250 0.0159 -0.0218
v 0.0220 0.0153 -0.0210
v 0.0200 0.0071 -0.0097
v -0.0200 0.0071 -0.0097
v -0.0220 0.0153 -0.0210
v -0.0250 0.0159 -0.0218
v -0.0280 0.0153 -0.0210
v -0.0280 0.0000 0.0000
v 0.0280 -0.0000 0.0000
v 0.0280 0.0080 -0.0247
v 0.0250 0.0083 -0.0257
v 0.0220 0.0080 -0.0247
v 0.0200 0.0037 -0.0114
v -0.0200 0.0037 -0.0114
v -0.0220 0.0080 -0.0247
v -0.0250 0.0083 -0.0257
v -0.0280 0.0080 -0.0247
v -0.0280 0.0000 0.0000
v 0.0280 -0.0000 0.0000
v 0.0280 -0.0000 -0.0260
v 0.0250 0.0000 -0.0270
v 0.0220 0.0000 -0.0260
v 0.0200 -0.0000 -0.0120
v -0.0200 0.0000 -0.0120
v -0.0220 0.0000 -0.0260
v -0.0250 0.0000 -0.0270
v -0.0280 0.0000 -0.0260
v -0.0280 0.0000 0.0000
v 0.0280 -0.0000 0.0000
v 0.0280 -0.0080 -0.0247
v 0.0250 -0.0083 -0.0257
v 0.0220 -0.0080 -0.0247
v 0.0200 -0.0037 -0.0114
v -0.0200 -0.0037 -0.0114
v -0.0220 -0.0080 -0.0247
v -0.0250 -0.0083 -0.0257
v -0.0280 -0.0080 -0.0247
v -0.0280 0.0000 0.0000
v 0.0280 -0.0000 0.0000
v 0.0280 -0.0153 -0.0210
v 0.0250 -0.0159 -0.0218
v 0.0220 -0.0153 -0.0210
v 0.0200 -0.0071 -0.0097
v -0.0200 -0.0071 -0.0097
v -0.0220 -0.0153 -0.0210
v -0.0250 -0.0159 -0.0218
v -0.0280 -0.0153 -0.0210
v -0.0280 0.0000 0.0000
v 0.0280 -0.0000 0.0000
v 0.0280 -0.0210 -0.0153
v 0.0250 -0.0218 -0.0159
v 0.0220 -0.0210 -0.0153
v 0.0200 -0.0097 -0.0071
v -0.0200 -0.0097 -0.0071
v -0.0220 -0.0210 -0.0153
v -0.0250 -0.0218 -0.0159
v -0.0280 -0.0210 -0.0153
v -0.0280 0.0000 0.0000
v 0.0280 -0.0000 0.0000
v 0.0280 -0.0247 -0.0080
v 0.0250 -0.0257 -0.0083
v 0.0220 -0.0247 -0.0080
v 0.0200 -0.0114 -0.0037
v -0.0200 -0.0114 -0.0037
v -0.0220 -0.0247 -0.0080
v -0.0250 -0.0257 -0.0083
v -0.0280 -0.0247 -0.0080
v -0.0280 0.0000 0.0000
v 0.0280 -0.0000 0.0000
v 0.0280 -0.0260 -0.0000
v 0.0250 -0.0270 -0.0000
v 0.0220 -0.0260 -0.0000
v 0.0200 -0.0120 -0.0000
v -0.0200 -0.0120 -0.0000
v -0.0220 -0.0260 -0.0000
v -0.0250 -0.0270 -0.0000
v -0.0280 -0.0260 -0.0000
v -0.0280 0.0000 0.0000
v 0.0280 -0.0000 0.0000
v 0.0280 -0.0247 0.0080
v 0.0250 -0.0257 0.0083
v 0.0220 -0.0247 0.0080
v 0.0200 -0.0114 0.0037
v -0.0200 -0.0114 0.0037
v -0.0220 -0.0247 0.0080
v -0.0250 -0.0257 0.0083
v -0.0280 -0.0247 0.0080
v -0.0280 0.0000 0.0000
v 0.0280 -0.0000 0.0000
v 0.0280 -0.0210 0.0153
v 0.0250 -0.0218 0.0159
v 0.0220 -0.0210 0.0153
v 0.0200 -0.0097 0.0071
v -0.0200 -0.0097 0.0071
v -0.0220 -0.0210 0.0153
v -0.0250 -0.0218 0.0159
v -0.0280 -0.0210 0.0153
v -0.0280 0.0000 0.0000
v 0.0280 -0.0000 0.0000
v 0.0280 -0.0153 0.0210
v 0.0250 -0.0159 0.0218
v 0.0220 -0.0153 0.0210
v 0.0200 -0.0071 0.0097
v -0.0200 -0.0071 0.0097
v -0.0220 -0.0153 0.0210
v -0.0250 -0.0159 0.0218
v -0.0280 -0.0153 0.0210
v -0.0280 0.0000 0.0000
v 0.0280 -0.0000 0.0000
v 0.0280 -0.0080 0.0247
v 0.0250 -0.0083 0.0257
v 0.0220 -0.0080 0.0247
v 0.0200 -0.0037 0.0114
v -0.0200 -0.0037 0.0114
v -0.0220 -0.0080 0.0247
v -0.0250 -0.0083 0.0257
v -0.0280 -0.0080 0.0247
v -0.0280 0.0000 0.0000
v 0.0280 -0.0000 0.0000
v 0.0280 -0.0000 0.0260
v 0.0250 -0.0000 0.0270
v 0.0220 -0.0000 0.0260
v 0.0200 -0.0000 0.0120
v -0.0200 -0.0000 0.0120
v -0.0220 -0.0000 0.0260
v -0.0250 -0.0000 0.0270
v -0.0280 -0.0000 0.0260
v -0.0280 0.0000 0.0000
v 0.0280 -0.0000 0.0000
v 0.0280 0.0080 0.0247
v 0.0250 0.0083 0.0257
v 0.0220 0.0080 0.0247
v 0.0200 0.0037 0.0114
v -0.0200 0.0037 0.0114
v -0.0220 0.0080 0.0247
v -0.0250 0.0083 0.0257
v -0.0280 0.0080 0.0247
v -0.0280 0.0000 0.0000
v 0.0280 -0.0000 0.0000
v 0.0280 0.0153 0.0210
v 0.0250 0.0159 0.0218
v 0.0220 0.0153 0.0210
v 0.0200 0.0071 0.0097
v -0.0200 0.0071 0.0097
v -0.0220 0.0153 0.0210
v -0.0250 0.0159 0.0218
v -0.0280 0.0153 0.0210
v -0.0280 0.0000 0.0000
v 0.0280 -0.0000 0.0000
v 0.0280 0.0210 0.0153
v 0.0250 0.0218 0.0159
v 0.0220 0.0210 0.0153
v 0.0200 0.0097 0.0071
v -0.0200 0.0097 0.0071
v -0.0220 0.0210 0.0153
v -0.0250 0.0218 0.0159
v -0.0280 0.0210 0.0153
v -0.0280 0.0000 0.0000
v 0.0280 -0.0000 0.0000
v 0.0280 0.0247 0.0080
v 0.0250 0.0257 0.0083
v 0.0220 0.0247 0.0080
v 0.0200 0.0114 0.0037
v -0.0200 0.0114 0.0037
v -0.0220 0.0247 0.0080
v -0.0250 0.0257 0.0083
v -0.0280 0.0247 0.0080
v -0.0280 0.0000 0.0000
v 0.0280 -0.0000 0.0000
v 0.0280 0.0260 0.0000
v 0.0250 0.0270 0.0000
v 0.0220 0.0260 0.0000
v 0.0200 0.0120 0.0000
v -0.0200 0.0120 0.0000
v -0.0220 0.0260 0.0000
v -0.0250 0.0270 0.0000
v -0.0280 0.0260 0.0000
v -0.0280 0.0000 0.0000
vt 0.0000 0.0000
vt 0.0000 0.0260
vt 0.0000 0.0292
vt 0.0000 0.0323
vt 0.0000 0.0465
vt 0.0000 0.0865
vt 0.0000 0.1006
vt 0.0000 0.1038
vt 0.0000 0.1069
vt 0.0000 0.1329
vt 0.0085 0.0000
vt 0.0085 0.0260
vt 0.0085 0.0292
vt 0.0085 0.0323
vt 0.0085 0.0465
vt 0.0085 0.0865
vt 0.0085 0.1006
vt 0.0085 0.1038
vt 0.0085 0.1069
vt 0.0085 0.1329
vt 0.0170 0.0000
vt 0.0170 0.0260
vt 0.0170 0.0292
vt 0.0170 0.0323
vt 0.0170 0.0465
vt 0.0170 0.0865
vt 0.0170 0.1006
vt 0.0170 0.1038
vt 0.0170 0.1069
vt 0.0170 0.1329
vt 0.0254 0.0000
vt 0.0254 0.0260
vt 0.0254 0.0292
vt 0.0254 0.0323
vt 0.0254 0.0465
vt 0.0254 0.0865
vt 0.0254 0.1006
vt 0.0254 0.1038
vt 0.0254 0.1069
vt 0.0254 0.1329
vt 0.0339 0.0000
vt 0.0339 0.0260
vt 0.0339 0.0292
vt 0.0339 0.0323
vt 0.0339 0.0465
vt 0.0339 0.0865
vt 0.0339 0.1006
vt 0.0339 0.1038
vt 0.0339 0.1069
vt 0.0339 0.1329
vt 0.0424 0.0000
vt 0.0424 0.0260
vt 0.0424 0.0292
vt 0.0424 0.0323
vt 0.0424 0.0465
vt 0.0424 0.0865
vt 0.0424 0.1006
vt 0.0424 0.1038
vt 0.0424 0.1069
vt 0.0424 0.1329
vt 0.0509 0.0000
vt 0.0509 0.0260
vt 0.0509 0.0292
vt 0.0509 0.0323
vt 0.0509 0.0465
vt 0.0509 0.0865
vt 0.0509 0.1006
vt 0.0509 0.1038
vt 0.0509 0.1069
vt 0.0509 0.1329
vt 0.0594 0.0000
vt 0.0594 0.0260
vt 0.0594 0.0292
vt 0.0594 0.0323
vt 0.0594 0.0465
vt 0.0594 0.0865
vt 0.0594 0.1006
vt 0.0594 0.1038
vt 0.0594 0.1069
vt 0.0594 0.1329
vt 0.0679 0.0000
vt 0.0679 0.0260
vt 0.0679 0.0292
vt 0.0679 0.0323
vt 0.0679 0.0465
vt 0.0679 0.0865
vt 0.0679 0.1006
vt 0.0679 0.1038
vt 0.0679 0.1069
vt 0.0679 0.1329
vt 0.0763 0.0000
vt 0.0763 0.0260
vt 0.0763 0.0292
vt 0.0763 0.0323
vt 0.0763 0.0465
vt 0.0763 0.0865
vt 0.0763 0.1006
vt 0.0763 0.1038
vt 0.0763 0.1069
vt 0.0763 0.1329
vt 0.0848 0.0000
vt 0.0848 0.0260
vt 0.0848 0.0292
vt 0.0848 0.0323
vt 0.0848 0.0465
vt 0.0848 0.0865
vt 0.0848 0.1006
vt 0.0848 0.1038
vt 0.0848 0.1069
vt 0.0848 0.1329
vt 0.0933 0.0000
vt 0.0933 0.0260
vt 0.0933 0.0292
vt 0.0933 0.0323
vt 0.0933 0.0465
vt 0.0933 0.0865
vt 0.0933 0.1006
vt 0.0933 0.1038
vt 0.0933 0.1069
vt 0.0933 0.1329
vt 0.1018 0.0000
vt 0.1018 0.0260
vt 0.1018 0.0292
vt 0.1018 0.0323
vt 0.1018 0.0465
vt 0.1018 0.0865
vt 0.1018 0.1006
vt 0.1018 0.1038
vt 0.1018 0.1069
vt 0.1018 0.1329
vt 0.1103 0.0000
vt 0.1103 0.0260
vt 0.1103 0.0292
vt 0.1103 0.0323
vt 0.1103 0.0465
vt 0.1103 0.0865
vt 0.1103 0.1006
vt 0.1103 0.1038
vt 0.1103 0.1069
vt 0.1103 0.1329
vt 0.1188 0.0000
vt 0.1188 0.0260
vt 0.1188 0.0292
vt 0.1188 0.0323
vt 0.1188 0.0465
vt 0.1188 0.0865
vt 0.1188 0.1006
vt 0.1188 0.1038
vt 0.1188 0.1069
vt 0.1188 0.1329
vt 0.1272 0.0000
vt 0.1272 0.0260
vt 0.1272 0.0292
vt 0.1272 0.0323
vt 0.1272 0.0465
vt 0.1272 0.0865
vt 0.1272 0.1006
vt 0.1272 0.1038
vt 0.1272 0.1069
vt 0.1272 0.1329
vt 0.1357 0.0000
vt 0.1357 0.0260
vt 0.1357 0.0292
vt 0.1357 0.0323
vt 0.1357 0.0465
vt 0.1357 0.0865
vt 0.1357 0.1006
vt 0.1357 0.1038
vt 0.1357 0.1069
vt 0.1357 0.1329
vt 0.1442 0.0000
vt 0.1442 0.0260
vt 0.1442 0.0292
vt 0.1442 0.0323
vt 0.1442 0.0465
vt 0.1442 0.0865
vt 0.1442 0.1006
vt 0.1442 0.1038
vt 0.1442 0.1069
vt 0.1442 0.1329
vt 0.1527 0.0000
vt 0.1527 0.0260
vt 0.1527 0.0292
vt 0.1527 0.0323
vt 0.1527 0.0465
vt 0.1527 0.0865
vt 0.1527 0.1006
vt 0.1527 0.1038
vt 0.1527 0.1069
vt 0.1527 0.1329
vt 0.1612 0.0000
vt 0.1612 0.0260
vt 0.1612 0.0292
vt 0.1612 0.0323
vt 0.1612 0.0465
vt 0.1612 0.0865
vt 0.1612 0.1006
vt 0.1612 0.1038
vt 0.1612 0.1069
vt 0.1612 0.1329
vt 0.1696 0.0000
vt 0.1696 0.0260
vt 0.1696 0.0292
vt 0.1696 0.0323
vt 0.1696 0.0465
vt 0.1696 0.0865
vt 0.1696 0.1006
vt 0.1696 0.1038
vt 0.1696 0.1069
vt 0.1696 0.1329
vn 1.000 -0.000 -0.000
vn 0.994 0.110 -0.000
vn 0.000 1.000 -0.000
vn -0.949 0.316 0.000
vn -0.316 0.949 0.000
vn 0.316 0.949 -0.000
vn 0.949 0.316 -0.000
vn 0.000 1.000 -0.000
vn -0.994 0.110 0.000
vn -1.000 0.000 0.000
vn 1.000 -0.000 -0.000
vn 0.994 0.105 -0.034
vn 0.000 0.951 -0.309
vn -0.949 0.301 -0.098
vn -0.316 0.902 -0.293
vn 0.316 0.902 -0.293
vn 0.949 0.301 -0.098
vn 0.000 0.951 -0.309
vn -0.994 0.105 -0.034
vn -1.000 0.000 0.000
vn 1.000 -0.000 -0.000
vn 0.994 0.089 -0.065
vn 0.000 0.809 -0.588
vn -0.949 0.256 -0.186
vn -0.316 0.768 -0.558
vn 0.316 0.768 -0.558
vn 0.949 0.256 -0.186
vn 0.000 0.809 -0.588
vn -0.994 0.089 -0.065
vn -1.000 0.000 0.000
vn 1.000 -0.000 -0.000
vn 0.994 0.065 -0.089
vn 0.000 0.588 -0.809
vn -0.949 0.186 -0.256
vn -0.316 0.558 -0.768
vn 0.316 0.558 -0.768
vn 0.949 0.186 -0.256
vn 0.000 0.588 -0.809
vn -0.994 0.065 -0.089
vn -1.000 0.000 0.000
vn 1.000 -0.000 -0.000
vn 0.994 0.034 -0.105
vn 0.000 0.309 -0.951
vn -0.949 0.098 -0.301
vn -0.316 0.293 -0.902
vn 0.316 0.293 -0.902
vn 0.949 0.098 -0.301
vn 0.000 0.309 -0.951
vn -0.994 0.034 -0.105
vn -1.000 0.000 0.000
vn 1.000 -0.000 -0.000
vn 0.994 -0.000 -0.110
vn 0.000 0.000 -1.000
vn -0.949 0.000 -0.316
vn -0.316 0.000 -0.949
vn 0.316 0.000 -0.949
vn 0.949 -0.000 -0.316
vn 0.000 0.000 -1.000
vn -0.994 0.000 -0.110
vn -1.000 0.000 0.000
vn 1.000 -0.000 0.000
vn 0.994 -0.034 -0.105
vn -0.000 -0.309 -0.951
vn -0.949 -0.098 -0.301
vn -0.316 -0.293 -0.902
vn 0.316 -0.293 -0.902
vn 0.949 -0.098 -0.301
vn -0.000 -0.309 -0.951
vn -0.994 -0.034 -0.105
vn -1.000 0.000 0.000
vn 1.000 -0.000 0.000
vn 0.994 -0.065 -0.089
vn -0.000 -0.588 -0.809
vn -0.949 -0.186 -0.256
vn -0.316 -0.558 -0.768
vn 0.316 -0.558 -0.768
vn 0.949 -0.186 -0.256
vn -0.000 -0.588 -0.809
vn -0.994 -0.065 -0.089
vn -1.000 0.000 0.000
vn 1.000 -0.000 0.000
vn 0.994 -0.089 -0.065
vn -0.000 -0.809 -0.588
vn -0.949 -0.256 -0.186
vn -0.316 -0.768 -0.558
vn 0.316 -0.768 -0.558
vn 0.949 -0.256 -0.186
vn -0.000 -0.809 -0.588
vn -0.994 -0.089 -0.065
vn -1.000 0.000 0.000
vn 1.000 -0.000 0.000
vn 0.994 -0.105 -0.034
vn -0.000 -0.951 -0.309
vn -0.949 -0.301 -0.098
vn -0.316 -0.902 -0.293
vn 0.316 -0.902 -0.293
vn 0.949 -0.301 -0.098
vn -0.000 -0.951 -0.309
vn -0.994 -0.105 -0.034
vn -1.000 0.000 0.000
vn 1.000 -0.000 0.000
vn 0.994 -0.110 -0.000
vn -0.000 -1.000 -0.000
vn -0.949 -0.316 -0.000
vn -0.316 -0.949 -0.000
vn 0.316 -0.949 -0.000
vn 0.949 -0.316 -0.000
vn -0.000 -1.000 -0.000
vn -0.994 -0.110 -0.000
vn -1.000 0.000 0.000
vn 1.000 -0.000 0.000
vn 0.994 -0.105 0.034
vn -0.000 -0.951 0.309
vn -0.949 -0.301 0.098
vn -0.316 -0.902 0.293
vn 0.316 -0.902 0.293
vn 0.949 -0.301 0.098
vn -0.000 -0.951 0.309
vn -0.994 -0.105 0.034
vn -1.000 0.000 0.000
vn 1.000 -0.000 0.000
vn 0.994 -0.089 0.065
vn -0.000 -0.809 0.588
vn -0.949 -0.256 0.186
vn -0.316 -0.768 0.558
vn 0.316 -0.768 0.558
vn 0.949 -0.256 0.186
vn -0.000 -0.809 0.588
vn -0.994 -0.089 0.065
vn -1.000 0.000 0.000
vn 1.000 -0.000 0.000
vn 0.994 -0.065 0.089
vn -0.000 -0.588 0.809
vn -0.949 -0.186 0.256
vn -0.316 -0.558 0.768
vn 0.316 -0.558 0.768
vn 0.949 -0.186 0.256
vn -0.000 -0.588 0.809
vn -0.994 -0.065 0.089
vn -1.000 0.000 0.000
vn 1.000 -0.000 0.000
vn 0.994 -0.034 0.105
vn -0.000 -0.309 0.951
vn -0.949 -0.098 0.301
vn -0.316 -0.293 0.902
vn 0.316 -0.293 0.902
vn 0.949 -0.098 0.301
vn -0.000 -0.309 0.951
vn -0.994 -0.034 0.105
vn -1.000 0.000 0.000
vn 1.000 -0.000 0.000
vn 0.994 -0.000 0.110
vn -0.000 -0.000 1.000
vn -0.949 0.000 0.316
vn -0.316 -0.000 0.949
vn 0.316 -0.000 0.949
vn 0.949 -0.000 0.316
vn -0.000 -0.000 1.000
vn -0.994 0.000 0.110
vn -1.000 0.000 0.000
vn 1.000 -0.000 0.000
vn 0.994 0.034 0.105
vn 0.000 0.309 0.951
vn -0.949 0.098 0.301
vn -0.316 0.293 0.902
vn 0.316 0.293 0.902
vn 0.949 0.098 0.301
vn 0.000 0.309 0.951
vn -0.994 0.034 0.105
vn -1.000 0.000 0.000
vn 1.000 -0.000 0.000
vn 0.994 0.065 0.089
vn 0.000 0.588 0.809
vn -0.949 0.186 0.256
vn -0.316 0.558 0.768
vn 0.316 0.558 0.768
vn 0.949 0.186 0.256
vn 0.000 0.588 0.809
vn -0.994 0.065 0.089
vn -1.000 0.000 0.000
vn 1.000 -0.000 0.000
vn 0.994 0.089 0.065
vn 0.000 0.809 0.588
vn -0.949 0.256 0.186
vn -0.316 0.768 0.558
vn 0.316 0.768 0.558
vn 0.949 0.256 0.186
vn 0.000 0.809 0.588
vn -0.994 0.089 0.065
vn -1.000 0.000 0.000
vn 1.000 -0.000 0.000
vn 0.994 0.105 0.034
vn 0.000 0.951 0.309
vn -0.949 0.301 0.098
vn -0.316 0.902 0.293
vn 0.316 0.902 0.293
vn 0.949 0.301 0.098
vn 0.000 0.951 0.309
vn -0.994 0.105 0.034
vn -1.000 0.000 0.000
vn 1.000 -0.000 0.000
vn 0.994 0.110 0.000
vn 0.000 1.000 0.000
vn -0.949 0.316 0.000
vn -0.316 0.949 0.000
vn 0.316 0.949 0.000
vn 0.949 0.316 0.000
vn 0.000 1.000 0.000
vn -0.994 0.110 0.000
vn -1.000 0.000 0.000
v 0.0205 0.0119 0.0000
v 0.0205 0.0205 0.0000
v 0.0150 0.0220 0.0000
v 0.0000 0.0225 0.0000
v -0.0150 0.0220 0.0000
v -0.0205 0.0205 0.0000
v -0.0205 0.0119 0.0000
v 0.0205 0.0115 -0.0031
v 0.0205 0.0198 -0.0053
v 0.0150 0.0213 -0.0057
v 0.0000 0.0217 -0.0058
v -0.0150 0.0213 -0.0057
v -0.0205 0.0198 -0.0053
v -0.0205 0.0115 -0.0031
v 0.0205 0.0103 -0.0059
v 0.0205 0.0178 -0.0102
v 0.0150 0.0191 -0.0110
v 0.0000 0.0195 -0.0112
v -0.0150 0.0191 -0.0110
v -0.0205 0.0178 -0.0102
v -0.0205 0.0103 -0.0059
v 0.0205 0.0084 -0.0084
v 0.0205 0.0145 -0.0145
v 0.0150 0.0156 -0.0156
v 0.0000 0.0159 -0.0159
v -0.0150 0.0156 -0.0156
v -0.0205 0.0145 -0.0145
v -0.0205 0.0084 -0.0084
v 0.0205 0.0060 -0.0103
v 0.0205 0.0103 -0.0178
v 0.0150 0.0110 -0.0191
v 0.0000 0.0113 -0.0195
v -0.0150 0.0110 -0.0191
v -0.0205 0.0103 -0.0178
v -0.0205 0.0060 -0.0103
v 0.0205 0.0031 -0.0115
v 0.0205 0.0053 -0.0198
v 0.0150 0.0057 -0.0213
v 0.0000 0.0058 -0.0217
v -0.0150 0.0057 -0.0213
v -0.0205 0.0053 -0.0198
v -0.0205 0.0031 -0.0115
v 0.0205 -0.0000 -0.0119
v 0.0205 0.0000 -0.0205
v 0.0150 0.0000 -0.0220
v 0.0000 0.0000 -0.0225
v -0.0150 0.0000 -0.0220
v -0.0205 0.0000 -0.0205
v -0.0205 0.0000 -0.0119
v 0.0205 -0.0031 -0.0115
v 0.0205 -0.0053 -0.0198
v 0.0150 -0.0057 -0.0213
v -0.0000 -0.0058 -0.0217
v -0.0150 -0.0057 -0.0213
v -0.0205 -0.0053 -0.0198
v -0.0205 -0.0031 -0.0115
v 0.0205 -0.0059 -0.0103
v 0.0205 -0.0102 -0.0178
v 0.0150 -0.0110 -0.0191
v -0.0000 -0.0112 -0.0195
v -0.0150 -0.0110 -0.0191
v -0.0205 -0.0102 -0.0178
v -0.0205 -0.0059 -0.0103
v 0.0205 -0.0084 -0.0084
v 0.0205 -0.0145 -0.0145
v 0.0150 -0.0156 -0.0156
v -0.0000 -0.0159 -0.0159
v -0.0150 -0.0156 -0.0156
v -0.0205 -0.0145 -0.0145
v -0.0205 -0.0084 -0.0084
v 0.0205 -0.0103 -0.0059
v 0.0205 -0.0178 -0.0102
v 0.0150 -0.0191 -0.0110
v -0.0000 -0.0195 -0.0112
v -0.0150 -0.0191 -0.0110
v -0.0205 -0.0178 -0.0102
v -0.0205 -0.0103 -0.0059
v 0.0205 -0.0115 -0.0031
v 0.0205 -0.0198 -0.0053
v 0.0150 -0.0213 -0.0057
v -0.0000 -0.0217 -0.0058
v -0.0150 -0.0213 -0.0057
v -0.0205 -0.0198 -0.0053
v -0.0205 -0.0115 -0.0031
v 0.0205 -0.0119 -0.0000
v 0.0205 -0.0205 -0.0000
v 0.0150 -0.0220 -0.0000
v -0.0000 -0.0225 -0.0000
v -0.0150 -0.0220 -0.0000
v -0.0205 -0.0205 -0.0000
v -0.0205 -0.0119 -0.0000
v 0.0205 -0.0115 0.0031
v 0.0205 -0.0198 0.0053
v 0.0150 -0.0213 0.0057
v -0.0000 -0.0217 0.0058
v -0.0150 -0.0213 0.0057
v -0.0205 -0.0198 0.0053
v -0.0205 -0.0115 0.0031
v 0.0205 -0.0103 0.0060
v 0.0205 -0.0178 0.0103
v 0.0150 -0.0191 0.0110
v -0.0000 -0.0195 0.0113
v -0.0150 -0.0191 0.0110
v -0.0205 -0.0178 0.0103
v -0.0205 -0.0103 0.0060
v 0.0205 -0.0084 0.0084
v 0.0205 -0.0145 0.0145
v 0.0150 -0.0156 0.0156
v -0.0000 -0.0159 0.0159
v -0.0150 -0.0156 0.0156
v -0.0205 -0.0145 0.0145
v -0.0205 -0.0084 0.0084
v 0.0205 -0.0060 0.0103
v 0.0205 -0.0103 0.0178
v 0.0150 -0.0110 0.0191
v -0.0000 -0.0113 0.0195
v -0.0150 -0.0110 0.0191
v -0.0205 -0.0103 0.0178
v -0.0205 -0.0060 0.0103
v 0.0205 -0.0031 0.0115
v 0.0205 -0.0053 0.0198
v 0.0150 -0.0057 0.0213
v -0.0000 -0.0058 0.0217
v -0.0150 -0.0057 0.0213
v -0.0205 -0.0053 0.0198
v -0.0205 -0.0031 0.0115
v 0.0205 -0.0000 0.0119
v 0.0205 -0.0000 0.0205
v 0.0150 -0.0000 0.0220
v -0.0000 -0.0000 0.0225
v -0.0150 -0.0000 0.0220
v -0.0205 -0.0000 0.0205
v -0.0205 -0.0000 0.0119
v 0.0205 0.0031 0.0115
v 0.0205 0.0053 0.0198
v 0.0150 0.0057 0.0213
v 0.0000 0.0058 0.0217
v -0.0150 0.0057 0.0213
v -0.0205 0.0053 0.0198
v -0.0205 0.0031 0.0115
v 0.0205 0.0060 0.0103
v 0.0205 0.0103 0.0178
v 0.0150 0.0110 0.0191
v 0.0000 0.0113 0.0195
v -0.0150 0.0110 0.0191
v -0.0205 0.0103 0.0178
v -0.0205 0.0060 0.0103
v 0.0205 0.0084 0.0084
v 0.0205 0.0145 0.0145
v 0.0150 0.0156 0.0156
v 0.0000 0.0159 0.0159
v -0.0150 0.0156 0.0156
v -0.0205 0.0145 0.0145
v -0.0205 0.0084 0.0084
v 0.0205 0.0103 0.0060
v 0.0205 0.0178 0.0103
v 0.0150 0.0191 0.0110
v 0.0000 0.0195 0.0113
v -0.0150 0.0191 0.0110
v -0.0205 0.0178 0.0103
v -0.0205 0.0103 0.0060
v 0.0205 0.0115 0.0031
v 0.0205 0.0198 0.0053
v 0.0150 0.0213 0.0057
v 0.0000 0.0217 0.0058
v -0.0150 0.0213 0.0057
v -0.0205 0.0198 0.0053
v -0.0205 0.0115 0.0031
v 0.0205 0.0119 0.0000
v 0.0205 0.0205 0.0000
v 0.0150 0.0220 0.0000
v 0.0000 0.0225 0.0000
v -0.0150 0.0220 0.0000
v -0.0205 0.0205 0.0000
v -0.0205 0.0119 0.0000
v 0.0080 0.0231 0.0059
v 0.0091 0.0220 0.0063
v 0.0080 0.0209 0.0061
v 0.0069 0.0220 0.0057
v 0.0080 0.0231 0.0059
v 0.0151 0.0211 -0.0203
v 0.0160 0.0200 -0.0196
v 0.0149 0.0189 -0.0197
v 0.0140 0.0200 -0.0204
v 0.0151 0.0211 -0.0203
v 0.0302 0.0070 -0.0504
v 0.0308 0.0061 -0.0493
v 0.0298 0.0050 -0.0496
v 0.0292 0.0059 -0.0507
v 0.0302 0.0070 -0.0504
v 0.0604 -0.0111 -0.0704
v 0.0603 -0.0117 -0.0690
v 0.0596 -0.0129 -0.0696
v 0.0597 -0.0123 -0.0710
v 0.0604 -0.0111 -0.0704
v 0.0852 -0.0190 -0.0604
v 0.0852 -0.0196 -0.0590
v 0.0848 -0.0210 -0.0596
v 0.0848 -0.0204 -0.0610
v 0.0852 -0.0190 -0.0604
v 0.0999 -0.0209 -0.0752
v 0.1008 -0.0218 -0.0742
v 0.1001 -0.0231 -0.0748
v 0.0992 -0.0222 -0.0758
v 0.0999 -0.0209 -0.0752
v 0.0080 0.0220 0.0060
v 0.0080 0.0231 0.0059
v 0.0091 0.0220 0.0063
v 0.0080 0.0209 0.0061
v 0.0069 0.0220 0.0057
v 0.1000 -0.0220 -0.0750
v 0.0999 -0.0209 -0.0752
v 0.1008 -0.0218 -0.0742
v 0.1001 -0.0231 -0.0748
v 0.0992 -0.0222 -0.0758
vt 0.0000 0.0000
vt 0.0000 0.0086
vt 0.0000 0.0143
vt 0.0000 0.0293
vt 0.0000 0.0443
vt 0.0000 0.0500
vt 0.0000 0.0586
vt 0.0059 0.0000
vt 0.0059 0.0086
vt 0.0059 0.0143
vt 0.0059 0.0293
vt 0.0059 0.0443
vt 0.0059 0.0500
vt 0.0059 0.0586
vt 0.0118 0.0000
vt 0.0118 0.0086
vt 0.0118 0.0143
vt 0.0118 0.0293
vt 0.0118 0.0443
vt 0.0118 0.0500
vt 0.0118 0.0586
vt 0.0177 0.0000
vt 0.0177 0.0086
vt 0.0177 0.0143
vt 0.0177 0.0293
vt 0.0177 0.0443
vt 0.0177 0.0500
vt 0.0177 0.0586
vt 0.0236 0.0000
vt 0.0236 0.0086
vt 0.0236 0.0143
vt 0.0236 0.0293
vt 0.0236 0.0443
vt 0.0236 0.0500
vt 0.0236 0.0586
vt 0.0295 0.0000
vt 0.0295 0.0086
vt 0.0295 0.0143
vt 0.0295 0.0293
vt 0.0295 0.0443
vt 0.0295 0.0500
vt 0.0295 0.0586
vt 0.0353 0.0000
vt 0.0353 0.0086
vt 0.0353 0.0143
vt 0.0353 0.0293
vt 0.0353 0.0443
vt 0.0353 0.0500
vt 0.0353 0.0586
vt 0.0412 0.0000
vt 0.0412 0.0086
vt 0.0412 0.0143
vt 0.0412 0.0293
vt 0.0412 0.0443
vt 0.0412 0.0500
vt 0.0412 0.0586
vt 0.0471 0.0000
vt 0.0471 0.0086
vt 0.0471 0.0143
vt 0.0471 0.0293
vt 0.0471 0.0443
vt 0.0471 0.0500
vt 0.0471 0.0586
vt 0.0530 0.0000
vt 0.0530 0.0086
vt 0.0530 0.0143
vt 0.0530 0.0293
vt 0.0530 0.0443
vt 0.0530 0.0500
vt 0.0530 0.0586
vt 0.0589 0.0000
vt 0.0589 0.0086
vt 0.0589 0.0143
vt 0.0589 0.0293
vt 0.0589 0.0443
vt 0.0589 0.0500
vt 0.0589 0.0586
vt 0.0648 0.0000
vt 0.0648 0.0086
vt 0.0648 0.0143
vt 0.0648 0.0293
vt 0.0648 0.0443
vt 0.0648 0.0500
vt 0.0648 0.0586
vt 0.0707 0.0000
vt 0.0707 0.0086
vt 0.0707 0.0143
vt 0.0707 0.0293
vt 0.0707 0.0443
vt 0.0707 0.0500
vt 0.0707 0.0586
vt 0.0766 0.0000
vt 0.0766 0.0086
vt 0.0766 0.0143
vt 0.0766 0.0293
vt 0.0766 0.0443
vt 0.0766 0.0500
vt 0.0766 0.0586
vt 0.0825 0.0000
vt 0.0825 0.0086
vt 0.0825 0.0143
vt 0.0825 0.0293
vt 0.0825 0.0443
vt 0.0825 0.0500
vt 0.0825 0.0586
vt 0.0884 0.0000
vt 0.0884 0.0086
vt 0.0884 0.0143
vt 0.0884 0.0293
vt 0.0884 0.0443
vt 0.0884 0.0500
vt 0.0884 0.0586
vt 0.0942 0.0000
vt 0.0942 0.0086
vt 0.0942 0.0143
vt 0.0942 0.0293
vt 0.0942 0.0443
vt 0.0942 0.0500
vt 0.0942 0.0586
vt 0.1001 0.0000
vt 0.1001 0.0086
vt 0.1001 0.0143
vt 0.1001 0.0293
vt 0.1001 0.0443
vt 0.1001 0.0500
vt 0.1001 0.0586
vt 0.1060 0.0000
vt 0.1060 0.0086
vt 0.1060 0.0143
vt 0.1060 0.0293
vt 0.1060 0.0443
vt 0.1060 0.0500
vt 0.1060 0.0586
vt 0.1119 0.0000
vt 0.1119 0.0086
vt 0.1119 0.0143
vt 0.1119 0.0293
vt 0.1119 0.0443
vt 0.1119 0.0500
vt 0.1119 0.0586
vt 0.1178 0.0000
vt 0.1178 0.0086
vt 0.1178 0.0143
vt 0.1178 0.0293
vt 0.1178 0.0443
vt 0.1178 0.0500
vt 0.1178 0.0586
vt 0.1237 0.0000
vt 0.1237 0.0086
vt 0.1237 0.0143
vt 0.1237 0.0293
vt 0.1237 0.0443
vt 0.1237 0.0500
vt 0.1237 0.0586
vt 0.1296 0.0000
vt 0.1296 0.0086
vt 0.1296 0.0143
vt 0.1296 0.0293
vt 0.1296 0.0443
vt 0.1296 0.0500
vt 0.1296 0.0586
vt 0.1355 0.0000
vt 0.1355 0.0086
vt 0.1355 0.0143
vt 0.1355 0.0293
vt 0.1355 0.0443
vt 0.1355 0.0500
vt 0.1355 0.0586
vt 0.1414 0.0000
vt 0.1414 0.0086
vt 0.1414 0.0143
vt 0.1414 0.0293
vt 0.1414 0.0443
vt 0.1414 0.0500
vt 0.1414 0.0586
vt 0.0000 0.0000
vt 0.0000 0.0017
vt 0.0000 0.0035
vt 0.0000 0.0052
vt 0.0000 0.0069
vt 0.0270 0.0000
vt 0.0270 0.0017
vt 0.0270 0.0035
vt 0.0270 0.0052
vt 0.0270 0.0069
vt 0.0633 0.0000
vt 0.0633 0.0017
vt 0.0633 0.0035
vt 0.0633 0.0052
vt 0.0633 0.0069
vt 0.1036 0.0000
vt 0.1036 0.0017
vt 0.1036 0.0035
vt 0.1036 0.0052
vt 0.1036 0.0069
vt 0.1317 0.0000
vt 0.1317 0.0017
vt 0.1317 0.0035
vt 0.1317 0.0052
vt 0.1317 0.0069
vt 0.1530 0.0000
vt 0.1530 0.0017
vt 0.1530 0.0035
vt 0.1530 0.0052
vt 0.1530 0.0069
vt 0.0000 0.0000
vt 0.0011 0.0000
vt 0.0000 0.0011
vt -0.0011 0.0000
vt -0.0000 -0.0011
vt 0.0000 0.0000
vt 0.0011 0.0000
vt 0.0000 0.0011
vt -0.0011 0.0000
vt -0.0000 -0.0011
vn 1.000 -0.000 -0.000
vn 0.878 0.478 -0.000
vn 0.097 0.995 -0.000
vn 0.000 1.000 -0.000
vn -0.097 0.995 0.000
vn -0.878 0.478 0.000
vn -1.000 0.000 0.000
vn 1.000 -0.000 -0.000
vn 0.878 0.462 -0.124
vn 0.097 0.961 -0.258
vn 0.000 0.966 -0.259
vn -0.097 0.961 -0.258
vn -0.878 0.462 -0.124
vn -1.000 0.000 0.000
vn 1.000 -0.000 -0.000
vn 0.878 0.414 -0.239
vn 0.097 0.862 -0.498
vn 0.000 0.866 -0.500
vn -0.097 0.862 -0.498
vn -0.878 0.414 -0.239
vn -1.000 0.000 0.000
vn 1.000 -0.000 -0.000
vn 0.878 0.338 -0.338
vn 0.097 0.704 -0.704
vn 0.000 0.707 -0.707
vn -0.097 0.704 -0.704
vn -0.878 0.338 -0.338
vn -1.000 0.000 0.000
vn 1.000 -0.000 -0.000
vn 0.878 0.239 -0.414
vn 0.097 0.498 -0.862
vn 0.000 0.500 -0.866
vn -0.097 0.498 -0.862
vn -0.878 0.239 -0.414
vn -1.000 0.000 0.000
vn 1.000 -0.000 -0.000
vn 0.878 0.124 -0.462
vn 0.097 0.258 -0.961
vn 0.000 0.259 -0.966
vn -0.097 0.258 -0.961
vn -0.878 0.124 -0.462
vn -1.000 0.000 0.000
vn 1.000 -0.000 -0.000
vn 0.878 -0.000 -0.478
vn 0.097 0.000 -0.995
vn 0.000 0.000 -1.000
vn -0.097 0.000 -0.995
vn -0.878 0.000 -0.478
vn -1.000 0.000 0.000
vn 1.000 -0.000 0.000
vn 0.878 -0.124 -0.462
vn 0.097 -0.258 -0.961
vn -0.000 -0.259 -0.966
vn -0.097 -0.258 -0.961
vn -0.878 -0.124 -0.462
vn -1.000 0.000 0.000
vn 1.000 -0.000 0.000
vn 0.878 -0.239 -0.414
vn 0.097 -0.498 -0.862
vn -0.000 -0.500 -0.866
vn -0.097 -0.498 -0.862
vn -0.878 -0.239 -0.414
vn -1.000 0.000 0.000
vn 1.000 -0.000 0.000
vn 0.878 -0.338 -0.338
vn 0.097 -0.704 -0.704
vn -0.000 -0.707 -0.707
vn -0.097 -0.704 -0.704
vn -0.878 -0.338 -0.338
vn -1.000 0.000 0.000
vn 1.000 -0.000 0.000
vn 0.878 -0.414 -0.239
vn 0.097 -0.862 -0.498
vn -0.000 -0.866 -0.500
vn -0.097 -0.862 -0.498
vn -0.878 -0.414 -0.239
vn -1.000 0.000 0.000
vn 1.000 -0.000 0.000
vn 0.878 -0.462 -0.124
vn 0.097 -0.961 -0.258
vn -0.000 -0.966 -0.259
vn -0.097 -0.961 -0.258
vn -0.878 -0.462 -0.124
vn -1.000 0.000 0.000
vn 1.000 -0.000 0.000
vn 0.878 -0.478 -0.000
vn 0.097 -0.995 -0.000
vn -0.000 -1.000 -0.000
vn -0.097 -0.995 -0.000
vn -0.878 -0.478 -0.000
vn -1.000 0.000 0.000
vn 1.000 -0.000 0.000
vn 0.878 -0.462 0.124
vn 0.097 -0.961 0.258
vn -0.000 -0.966 0.259
vn -0.097 -0.961 0.258
vn -0.878 -0.462 0.124
vn -1.000 0.000 0.000
vn 1.000 -0.000 0.000
vn 0.878 -0.414 0.239
vn 0.097 -0.862 0.498
vn -0.000 -0.866 0.500
vn -0.097 -0.862 0.498
vn -0.878 -0.414 0.239
vn -1.000 0.000 0.000
vn 1.000 -0.000 0.000
vn 0.878 -0.338 0.338
vn 0.097 -0.704 0.704
vn -0.000 -0.707 0.707
vn -0.097 -0.704 0.704
vn -0.878 -0.338 0.338
vn -1.000 0.000 0.000
vn 1.000 -0.000 0.000
vn 0.878 -0.239 0.414
vn 0.097 -0.498 0.862
vn -0.000 -0.500 0.866
vn -0.097 -0.498 0.862
vn -0.878 -0.239 0.414
vn -1.000 0.000 0.000
vn 1.000 -0.000 0.000
vn 0.878 -0.124 0.462
vn 0.097 -0.258 0.961
vn -0.000 -0.259 0.966
vn -0.097 -0.258 0.961
vn -0.878 -0.124 0.462
vn -1.000 0.000 0.000
vn 1.000 -0.000 0.000
vn 0.878 -0.000 0.478
vn 0.097 -0.000 0.995
vn -0.000 -0.000 1.000
vn -0.097 -0.000 0.995
vn -0.878 -0.000 0.478
vn -1.000 0.000 0.000
vn 1.000 -0.000 0.000
vn 0.878 0.124 0.462
vn 0.097 0.258 0.961
vn 0.000 0.259 0.966
vn -0.097 0.258 0.961
vn -0.878 0.124 0.462
vn -1.000 0.000 0.000
vn 1.000 -0.000 0.000
vn 0.878 0.239 0.414
vn 0.097 0.498 0.862
vn 0.000 0.500 0.866
vn -0.097 0.498 0.862
vn -0.878 0.239 0.414
vn -1.000 0.000 0.000
vn 1.000 -0.000 0.000
vn 0.878 0.338 0.338
vn 0.097 0.704 0.704
vn 0.000 0.707 0.707
vn -0.097 0.704 0.704
vn -0.878 0.338 0.338
vn -1.000 0.000 0.000
vn 1.000 -0.000 0.000
vn 0.878 0.414 0.239
vn 0.097 0.862 0.498
vn 0.000 0.866 0.500
vn -0.097 0.862 0.498
vn -0.878 0.414 0.239
vn -1.000 0.000 0.000
vn 1.000 -0.000 0.000
vn 0.878 0.462 0.124
vn 0.097 0.961 0.258
vn 0.000 0.966 0.259
vn -0.097 0.961 0.258
vn -0.878 0.462 0.124
vn -1.000 0.000 0.000
vn 1.000 -0.000 0.000
vn 0.878 0.478 0.000
vn 0.097 0.995 0.000
vn 0.000 1.000 0.000
vn -0.097 0.995 0.000
vn -0.878 0.478 0.000
vn -1.000 0.000 0.000
vn 0.019 0.997 -0.072
vn 0.966 0.000 0.260
vn -0.019 -0.997 0.072
vn -0.966 -0.000 -0.260
vn 0.019 0.997 -0.072
vn 0.086 0.966 -0.242
vn 0.932 0.008 0.364
vn -0.086 -0.966 0.242
vn -0.932 -0.008 -0.364
vn 0.086 0.966 -0.242
vn 0.212 0.898 -0.385
vn 0.768 0.090 0.634
vn -0.212 -0.898 0.385
vn -0.768 -0.090 -0.634
vn 0.212 0.898 -0.385
vn 0.328 0.852 -0.409
vn 0.310 0.311 0.898
vn -0.328 -0.852 0.409
vn -0.310 -0.311 -0.898
vn 0.328 0.852 -0.409
vn 0.176 0.902 -0.395
vn 0.204 0.359 0.911
vn -0.176 -0.902 0.395
vn -0.204 -0.359 -0.911
vn 0.176 0.902 -0.395
vn -0.050 0.982 -0.181
vn 0.708 0.162 0.687
vn 0.050 -0.982 0.181
vn -0.708 -0.162 -0.687
vn -0.050 0.982 -0.181
vn -0.259 0.074 0.963
vn -0.259 0.074 0.963
vn -0.259 0.074 0.963
vn -0.259 0.074 0.963
vn -0.259 0.074 0.963
vn 0.704 -0.094 -0.704
vn 0.704 -0.094 -0.704
vn 0.704 -0.094 -0.704
vn 0.704 -0.094 -0.704
vn 0.704 -0.094 -0.704
usemtl wood
f 1/1/1 11/11/11 12/12/12
f 1/1/1 12/12/12 2/2/2
f 2/2/2 12/12/12 13/13/13
f 2/2/2 13/13/13 3/3/3
f 3/3/3 13/13/13 14/14/14
f 3/3/3 14/14/14 4/4/4
f 4/4/4 14/14/14 15/15/15
f 4/4/4 15/15/15 5/5/5
f 5/5/5 15/15/15 16/16/16
f 5/5/5 16/16/16 6/6/6
f 6/6/6 16/16/16 17/17/17
f 6/6/6 17/17/17 7/7/7
f 7/7/7 17/17/17 18/18/18
f 7/7/7 18/18/18 8/8/8
f 8/8/8 18/18/18 19/19/19
f 8/8/8 19/19/19 9/9/9
f 9/9/9 19/19/19 20/20/20
f 9/9/9 20/20/20 10/10/10
f 11/11/11 21/21/21 22/22/22
f 11/11/11 22/22/22 12/12/12
f 12/12/12 22/22/22 23/23/23
f 12/12/12 23/23/23 13/13/13
f 13/13/13 23/23/23 24/24/24
f 13/13/13 24/24/24 14/14/14
f 14/14/14 24/24/24 25/25/25
f 14/14/14 25/25/25 15/15/15
f 15/15/15 25/25/25 26/26/26
f 15/15/15 26/26/26 16/16/16
f 16/16/16 26/26/26 27/27/27
f 16/16/16 27/27/27 17/17/17
f 17/17/17 27/27/27 28/28/28
f 17/17/17 28/28/28 18/18/18
f 18/18/18 28/28/28 29/29/29
f 18/18/18 29/29/29 19/19/19
f 19/19/19 29/29/29 30/30/30
f 19/19/19 30/30/30 20/20/20
f 21/21/21 31/31/31 32/32/32
f 21/21/21 32/32/32 22/22/22
f 22/22/22 32/32/32 33/33/33
f 22/22/22 33/33/33 23/23/23
f 23/23/23 33/33/33 34/34/34
f 23/23/23 34/34/34 24/24/24
f 24/24/24 34/34/34 35/35/35
f 24/24/24 35/35/35 25/25/25
f 25/25/25 35/35/35 36/36/36
f 25/25/25 36/36/36 26/26/26
f 26/26/26 36/36/36 37/37/37
f 26/26/26 37/37/37 27/27/27
f 27/27/27 37/37/37 38/38/38
f 27/27/27 38/38/38 28/28/28
f 28/28/28 38/38/38 39/39/39
f 28/28/28 39/39/39 29/29/29
f 29/29/29 39/39/39 40/40/40
f 29/29/29 40/40/40 30/30/30
f 31/31/31 41/41/41 42/42/42
f 31/31/31 42/42/42 32/32/32
f 32/32/32 42/42/42 43/43/43
f 32/32/32 43/43/43 33/33/33
f 33/33/33 43/43/43 44/44/44
f 33/33/33 44/44/44 34/34/34
f 34/34/34 44/44/44 45/45/45
f 34/34/34 45/45/45 35/35/35
f 35/35/35 45/45/45 46/46/46
f 35/35/35 46/46/46 36/36/36
f 36/36/36 46/46/46 47/47/47
f 36/36/36 47/47/47 37/37/37
f 37/37/37 47/47/47 48/48/48
f 37/37/37 48/48/48 38/38/38
f 38/38/38 48/48/48 49/49/49
f 38/38/38 49/49/49 39/39/39
f 39/39/39 49/49/49 50/50/50
f 39/39/39 50/50/50 40/40/40
f 41/41/41 51/51/51 52/52/52
f 41/41/41 52/52/52 42/42/42
f 42/42/42 52/52/52 53/53/53
f 42/42/42 53/53/53 43/43/43
f 43/43/43 53/53/53 54/54/54
f 43/43/43 54/54/54 44/44/44
f 44/44/44 54/54/54 55/55/55
f 44/44/44 55/55/55 45/45/45
f 45/45/45 55/55/55 56/56/56
f 45/45/45 56/56/56 46/46/46
f 46/46/46 56/56/56 57/57/57
f 46/46/46 57/57/57 47/47/47
f 47/47/47 57/57/57 58/58/58
f 47/47/47 58/58/58 48/48/48
f 48/48/48 58/58/58 59/59/59
f 48/48/48 59/59/59 49/49/49
f 49/49/49 59/59/59 60/60/60
f 49/49/49 60/60/60 50/50/50
f 51/51/51 61/61/61 62/62/62
f 51/51/51 62/62/62 52/52/52
f 52/52/52 62/62/62 63/63/63
f 52/52/52 63/63/63 53/53/53
f 53/53/53 63/63/63 64/64/64
f 53/53/53 64/64/64 54/54/54
f 54/54/54 64/64/64 65/65/65
f 54/54/54 65/65/65 55/55/55
f 55/55/55 65/65/65 66/66/66
f 55/55/55 66/66/66 56/56/56
f 56/56/56 66/66/66 67/67/67
f 56/56/56 67/67/67 57/57/57
f 57/57/57 67/67/67 68/68/68
f 57/57/57 68/68/68 58/58/58
f 58/58/58 68/68/68 69/69/69
f 58/58/58 69/69/69 59/59/59
f 59/59/59 69/69/69 70/70/70
f 59/59/59 70/70/70 60/60/60
f 61/61/61 71/71/71 72/72/72
f 61/61/61 72/72/72 62/62/62
f 62/62/62 72/72/72 73/73/73
f 62/62/62 73/73/73 63/63/63
f 63/63/63 73/73/73 74/74/74
f 63/63/63 74/74/74 64/64/64
f 64/64/64 74/74/74 75/75/75
f 64/64/64 75/75/75 65/65/65
f 65/65/65 75/75/75 76/76/76
f 65/65/65 76/76/76 66/66/66
f 66/66/66 76/76/76 77/77/77
f 66/66/66 77/77/77 67/67/67
f 67/67/67 77/77/77 78/78/78
f 67/67/67 78/78/78 68/68/68
f 68/68/68 78/78/78 79/79/79
f 68/68/68 79/79/79 69/69/69
f 69/69/69 79/79/79 80/80/80
f 69/69/69 80/80/80 70/70/70
f 71/71/71 81/81/81 82/82/82
f 71/71/71 82/82/82 72/72/72
f 72/72/72 82/82/82 83/83/83
f 72/72/72 83/83/83 73/73/73
f 73/73/73 83/83/83 84/84/84
f 73/73/73 84/84/84 74/74/74
f 74/74/74 84/84/84 85/85/85
f 74/74/74 85/85/85 75/75/75
f 75/75/75 85/85/85 86/86/86
f 75/75/75 86/86/86 76/76/76
f 76/76/76 86/86/86 87/87/87
f 76/76/76 87/87/87 77/77/77
f 77/77/77 87/87/87 88/88/88
f 77/77/77 88/88/88 78/78/78
f 78/78/78 88/88/88 89/89/89
f 78/78/78 89/89/89 79/79/79
f 79/79/79 89/89/89 90/90/90
f 79/79/79 90/90/90 80/80/80
f 81/81/81 91/91/91 92/92/92
f 81/81/81 92/92/92 82/82/82
f 82/82/82 92/92/92 93/93/93
f 82/82/82 93/93/93 83/83/83
f 83/83/83 93/93/93 94/94/94
f 83/83/83 94/94/94 84/84/84
f 84/84/84 94/94/94 95/95/95
f 84/84/84 95/95/95 85/85/85
f 85/85/85 95/95/95 96/96/96
f 85/85/85 96/96/96 86/86/86
f 86/86/86 96/96/96 97/97/97
f 86/86/86 97/97/97 87/87/87
f 87/87/87 97/97/97 98/98/98
f 87/87/87 98/98/98 88/88/88
f 88/88/88 98/98/98 99/99/99
f 88/88/88 99/99/99 89/89/89
f 89/89/89 99/99/99 100/100/100
f 89/89/89 100/100/100 90/90/90
f 91/91/91 101/101/101 102/102/102
f 91/91/91 102/102/102 92/92/92
f 92/92/92 102/102/102 103/103/103
f 92/92/92 103/103/103 93/93/93
f 93/93/93 103/103/103 104/104/104
f 93/93/93 104/104/104 94/94/94
f 94/94/94 104/104/104 105/105/105
f 94/94/94 105/105/105 95/95/95
f 95/95/95 105/105/105 106/106/106
f 95/95/95 106/106/106 96/96/96
f 96/96/96 106/106/106 107/107/107
f 96/96/96 107/107/107 97/97/97
f 97/97/97 107/107/107 108/108/108
f 97/97/97 108/108/108 98/98/98
f 98/98/98 108/108/108 109/109/109
f 98/98/98 109/109/109 99/99/99
f 99/99/99 109/109/109 110/110/110
f 99/99/99 110/110/110 100/100/100
f 101/101/101 111/111/111 112/112/112
f 101/101/101 112/112/112 102/102/102
f 102/102/102 112/112/112 113/113/113
f 102/102/102 113/113/113 103/103/103
f 103/103/103 113/113/113 114/114/114
f 103/103/103 114/114/114 104/104/104
f 104/104/104 114/114/114 115/115/115
f 104/104/104 115/115/115 105/105/105
f 105/105/105 115/115/115 116/116/116
f 105/105/105 116/116/116 106/106/106
f 106/106/106 116/116/116 117/117/117
f 106/106/106 117/117/117 107/107/107
f 107/107/107 117/117/117 118/118/118
f 107/107/107 118/118/118 108/108/108
f 108/108/108 118/118/118 119/119/119
f 108/108/108 119/119/119 109/109/109
f 109/109/109 119/119/119 120/120/120
f 109/109/109 120/120/120 110/110/110
f 111/111/111 121/121/121 122/122/122
f 111/111/111 122/122/122 112/112/112
f 112/112/112 122/122/122 123/123/123
f 112/112/112 123/123/123 113/113/113
f 113/113/113 123/123/123 124/124/124
f 113/113/113 124/124/124 114/114/114
f 114/114/114 124/124/124 125/125/125
f 114/114/114 125/125/125 115/115/115
f 115/115/115 125/125/125 126/126/126
f 115/115/115 126/126/126 116/116/116
f 116/116/116 126/126/126 127/127/127
f 116/116/116 127/127/127 117/117/117
f 117/117/117 127/127/127 128/128/128
f 117/117/117 128/128/128 118/118/118
f 118/118/118 128/128/128 129/129/129
f 118/118/118 129/129/129 119/119/119
f 119/119/119 129/129/129 130/130/130
f 119/119/119 130/130/130 120/120/120
f 121/121/121 131/131/131 132/132/132
f 121/121/121 132/132/132 122/122/122
f 122/122/122 132/132/132 133/133/133
f 122/122/122 133/133/133 123/123/123
f 123/123/123 133/133/133 134/134/134
f 123/123/123 134/134/134 124/124/124
f 124/124/124 134/134/134 135/135/135
f 124/124/124 135/135/135 125/125/125
f 125/125/125 135/135/135 136/136/136
f 125/125/125 136/136/136 126/126/126
f 126/126/126 136/136/136 137/137/137
f 126/126/126 137/137/137 127/127/127
f 127/127/127 137/137/137 138/138/138
f 127/127/127 138/138/138 128/128/128
f 128/128/128 138/138/138 139/139/139
f 128/128/128 139/139/139 129/129/129
f 129/129/129 139/139/139 140/140/140
f 129/129/129 140/140/140 130/130/130
f 131/131/131 141/141/141 142/142/142
f 131/131/131 142/142/142 132/132/132
f 132/132/132 142/142/142 143/143/143
f 132/132/132 143/143/143 133/133/133
f 133/133/133 143/143/143 144/144/144
f 133/133/133 144/144/144 134/134/134
f 134/134/134 144/144/144 145/145/145
f 134/134/134 145/145/145 135/135/135
f 135/135/135 145/145/145 146/146/146
f 135/135/135 146/146/146 136/136/136
f 136/136/136 146/146/146 147/147/147
f 136/136/136 147/147/147 137/137/137
f 137/137/137 147/147/147 148/148/148
f 137/137/137 148/148/148 138/138/138
f 138/138/138 148/148/148 149/149/149
f 138/138/138 149/149/149 139/139/139
f 139/139/139 149/149/149 150/150/150
f 139/139/139 150/150/150 140/140/140
f 141/141/141 151/151/151 152/152/152
f 141/141/141 152/152/152 142/142/142
f 142/142/142 152/152/152 153/153/153
f 142/142/142 153/153/153 143/143/143
f 143/143/143 153/153/153 154/154/154
f 143/143/143 154/154/154 144/144/144
f 144/144/144 154/154/154 155/155/155
f 144/144/144 155/155/155 145/145/145
f 145/145/145 155/155/155 156/156/156
f 145/145/145 156/156/156 146/146/146
f 146/146/146 156/156/156 157/157/157
f 146/146/146 157/157/157 147/147/147
f 147/147/147 157/157/157 158/158/158
f 147/147/147 158/158/158 148/148/148
f 148/148/148 158/158/158 159/159/159
f 148/148/148 159/159/159 149/149/149
f 149/149/149 159/159/159 160/160/160
f 149/149/149 160/160/160 150/150/150
f 151/151/151 161/161/161 162/162/162
f 151/151/151 162/162/162 152/152/152
f 152/152/152 162/162/162 163/163/163
f 152/152/152 163/163/163 153/153/153
f 153/153/153 163/163/163 164/164/164
f 153/153/153 164/164/164 154/154/154
f 154/154/154 164/164/164 165/165/165
f 154/154/154 165/165/165 155/155/155
f 155/155/155 165/165/165 166/166/166
f 155/155/155 166/166/166 156/156/156
f 156/156/156 166/166/166 167/167/167
f 156/156/156 167/167/167 157/157/157
f 157/157/157 167/167/167 168/168/168
f 157/157/157 168/168/168 158/158/158
f 158/158/158 168/168/168 169/169/169
f 158/158/158 169/169/169 159/159/159
f 159/159/159 169/169/169 170/170/170
f 159/159/159 170/170/170 160/160/160
f 161/161/161 171/171/171 172/172/172
f 161/161/161 172/172/172 162/162/162
f 162/162/162 172/172/172 173/173/173
f 162/162/162 173/173/173 163/163/163
f 163/163/163 173/173/173 174/174/174
f 163/163/163 174/174/174 164/164/164
f 164/164/164 174/174/174 175/175/175
f 164/164/164 175/175/175 165/165/165
f 165/165/165 175/175/175 176/176/176
f 165/165/165 176/176/176 166/166/166
f 166/166/166 176/176/176 177/177/177
f 166/166/166 177/177/177 167/167/167
f 167/167/167 177/177/177 178/178/178
f 167/167/167 178/178/178 168/168/168
f 168/168/168 178/178/178 179/179/179
f 168/168/168 179/179/179 169/169/169
f 169/169/169 179/179/179 180/180/180
f 169/169/169 180/180/180 170/170/170
f 171/171/171 181/181/181 182/182/182
f 171/171/171 182/182/182 172/172/172
f 172/172/172 182/182/182 183/183/183
f 172/172/172 183/183/183 173/173/173
f 173/173/173 183/183/183 184/184/184
f 173/173/173 184/184/184 174/174/174
f 174/174/174 184/184/184 185/185/185
f 174/174/174 185/185/185 175/175/175
f 175/175/175 185/185/185 186/186/186
f 175/175/175 186/186/186 176/176/176
f 176/176/176 186/186/186 187/187/187
f 176/176/176 187/187/187 177/177/177
f 177/177/177 187/187/187 188/188/188
f 177/177/177 188/188/188 178/178/178
f 178/178/178 188/188/188 189/189/189
f 178/178/178 189/189/189 179/179/179
f 179/179/179 189/189/189 190/190/190
f 179/179/179 190/190/190 180/180/180
f 181/181/181 191/191/191 192/192/192
f 181/181/181 192/192/192 182/182/182
f 182/182/182 192/192/192 193/193/193
f 182/182/182 193/193/193 183/183/183
f 183/183/183 193/193/193 194/194/194
f 183/183/183 194/194/194 184/184/184
f 184/184/184 194/194/194 195/195/195
f 184/184/184 195/195/195 185/185/185
f 185/185/185 195/195/195 196/196/196
f 185/185/185 196/196/196 186/186/186
f 186/186/186 196/196/196 197/197/197
f 186/186/186 197/197/197 187/187/187
f 187/187/187 197/197/197 198/198/198
f 187/187/187 198/198/198 188/188/188
f 188/188/188 198/198/198 199/199/199
f 188/188/188 199/199/199 189/189/189
f 189/189/189 199/199/199 200/200/200
f 189/189/189 200/200/200 190/190/190
f 191/191/191 201/201/201 202/202/202
f 191/191/191 202/202/202 192/192/192
f 192/192/192 202/202/202 203/203/203
f 192/192/192 203/203/203 193/193/193
f 193/193/193 203/203/203 204/204/204
f 193/193/193 204/204/204 194/194/194
f 194/194/194 204/204/204 205/205/205
f 194/194/194 205/205/205 195/195/195
f 195/195/195 205/205/205 206/206/206
f 195/195/195 206/206/206 196/196/196
f 196/196/196 206/206/206 207/207/207
f 196/196/196 207/207/207 197/197/197
f 197/197/197 207/207/207 208/208/208
f 197/197/197 208/208/208 198/198/198
f 198/198/198 208/208/208 209/209/209
f 198/198/198 209/209/209 199/199/199
f 199/199/199 209/209/209 210/210/210
f 199/199/199 210/210/210 200/200/200
usemtl cotton
f 211/211/211 218/218/218 219/219/219
f 211/211/211 219/219/219 212/212/212
f 212/212/212 219/219/219 220/220/220
f 212/212/212 220/220/220 213/213/213
f 213/213/213 220/220/220 221/221/221
f 213/213/213 221/221/221 214/214/214
f 214/214/214 221/221/221 222/222/222
f 214/214/214 222/222/222 215/215/215
f 215/215/215 222/222/222 223/223/223
f 215/215/215 223/223/223 216/216/216
f 216/216/216 223/223/223 224/224/224
f 216/216/216 224/224/224 217/217/217
f 218/218/218 225/225/225 226/226/226
f 218/218/218 226/226/226 219/219/219
f 219/219/219 226/226/226 227/227/227
f 219/219/219 227/227/227 220/220/220
f 220/220/220 227/227/227 228/228/228
f 220/220/220 228/228/228 221/221/221
f 221/221/221 228/228/228 229/229/229
f 221/221/221 229/229/229 222/222/222
f 222/222/222 229/229/229 230/230/230
f 222/222/222 230/230/230 223/223/223
f 223/223/223 230/230/230 231/231/231
f 223/223/223 231/231/231 224/224/224
f 225/225/225 232/232/232 233/233/233
f 225/225/225 233/233/233 226/226/226
f 226/226/226 233/233/233 234/234/234
f 226/226/226 234/234/234 227/227/227
f 227/227/227 234/234/234 235/235/235
f 227/227/227 235/235/235 228/228/228
f 228/228/228 235/235/235 236/236/236
f 228/228/228 236/236/236 229/229/229
f 229/229/229 236/236/236 237/237/237
f 229/229/229 237/237/237 230/230/230
f 230/230/230 237/237/237 238/238/238
f 230/230/230 238/238/238 231/231/231
f 232/232/232 239/239/239 240/240/240
f 232/232/232 240/240/240 233/233/233
f 233/233/233 240/240/240 241/241/241
f 233/233/233 241/241/241 234/234/234
f 234/234/234 241/241/241 242/242/242
f 234/234/234 242/242/242 235/235/235
f 235/235/235 242/242/242 243/243/243
f 235/235/235 243/243/243 236/236/236
f 236/236/236 243/243/243 244/244/244
f 236/236/236 244/244/244 237/237/237
f 237/237/237 244/244/244 245/245/245
f 237/237/237 245/245/245 238/238/238
f 239/239/239 246/246/246 247/247/247
f 239/239/239 247/247/247 240/240/240
f 240/240/240 247/247/247 248/248/248
f 240/240/240 248/248/248 241/241/241
f 241/241/241 248/248/248 249/249/249
f 241/241/241 249/249/249 242/242/242
f 242/242/242 249/249/249 250/250/250
f 242/242/242 250/250/250 243/243/243
f 243/243/243 250/250/250 251/251/251
f 243/243/243 251/251/251 244/244/244
f 244/244/244 251/251/251 252/252/252
f 244/244/244 252/252/252 245/245/245
f 246/246/246 253/253/253 254/254/254
f 246/246/246 254/254/254 247/247/247
f 247/247/247 254/254/254 255/255/255
f 247/247/247 255/255/255 248/248/248
f 248/248/248 255/255/255 256/256/256
f 248/248/248 256/256/256 249/249/249
f 249/249/249 256/256/256 257/257/257
f 249/249/249 257/257/257 250/250/250
f 250/250/250 257/257/257 258/258/258
f 250/250/250 258/258/258 251/251/251
f 251/251/251 258/258/258 259/259/259
f 251/251/251 259/259/259 252/252/252
f 253/253/253 260/260/260 261/261/261
f 253/253/253 261/261/261 254/254/254
f 254/254/254 261/261/261 262/262/262
f 254/254/254 262/262/262 255/255/255
f 255/255/255 262/262/262 263/263/263
f 255/255/255 263/263/263 256/256/256
f 256/256/256 263/263/263 264/264/264
f 256/256/256 264/264/264 257/257/257
f 257/257/257 264/264/264 265/265/265
f 257/257/257 265/265/265 258/258/258
f 258/258/258 265/265/265 266/266/266
f 258/258/258 266/266/266 259/259/259
f 260/260/260 267/267/267 268/268/268
f 260/260/260 268/268/268 261/261/261
f 261/261/261 268/268/268 269/269/269
f 261/261/261 269/269/269 262/262/262
f 262/262/262 269/269/269 270/270/270
f 262/262/262 270/270/270 263/263/263
f 263/263/263 270/270/270 271/271/271
f 263/263/263 271/271/271 264/264/264
f 264/264/264 271/271/271 272/272/272
f 264/264/264 272/272/272 265/265/265
f 265/265/265 272/272/272 273/273/273
f 265/265/265 273/273/273 266/266/266
f 267/267/267 274/274/274 275/275/275
f 267/267/267 275/275/275 268/268/268
f 268/268/268 275/275/275 276/276/276
f 268/268/268 276/276/276 269/269/269
f 269/269/269 276/276/276 277/277/277
f 269/269/269 277/277/277 270/270/270
f 270/270/270 277/277/277 278/278/278
f 270/270/270 278/278/278 271/271/271
f 271/271/271 278/278/278 279/279/279
f 271/271/271 279/279/279 272/272/272
f 272/272/272 279/279/279 280/280/280
f 272/272/272 280/280/280 273/273/273
f 274/274/274 281/281/281 282/282/282
f 274/274/274 282/282/282 275/275/275
f 275/275/275 282/282/282 283/283/283
f 275/275/275 283/283/283 276/276/276
f 276/276/276 283/283/283 284/284/284
f 276/276/276 284/284/284 277/277/277
f 277/277/277 284/284/284 285/285/285
f 277/277/277 285/285/285 278/278/278
f 278/278/278 285/285/285 286/286/286
f 278/278/278 286/286/286 279/279/279
f 279/279/279 286/286/286 287/287/287
f 279/279/279 287/287/287 280/280/280
f 281/281/281 288/288/288 289/289/289
f 281/281/281 289/289/289 282/282/282
f 282/282/282 289/289/289 290/290/290
f 282/282/282 290/290/290 283/283/283
f 283/283/283 290/290/290 291/291/291
f 283/283/283 291/291/291 284/284/284
f 284/284/284 291/291/291 292/292/292
f 284/284/284 292/292/292 285/285/285
f 285/285/285 292/292/292 293/293/293
f 285/285/285 293/293/293 286/286/286
f 286/286/286 293/293/293 294/294/294
f 286/286/286 294/294/294 287/287/287
f 288/288/288 295/295/295 296/296/296
f 288/288/288 296/296/296 289/289/289
f 289/289/289 296/296/296 297/297/297
f 289/289/289 297/297/297 290/290/290
f 290/290/290 297/297/297 298/298/298
f 290/290/290 298/298/298 291/291/291
f 291/291/291 298/298/298 299/299/299
f 291/291/291 299/299/299 292/292/292
f 292/292/292 299/299/299 300/300/300
f 292/292/292 300/300/300 293/293/293
f 293/293/293 300/300/300 301/301/301
f 293/293/293 301/301/301 294/294/294
f 295/295/295 302/302/302 303/303/303
f 295/295/295 303/303/303 296/296/296
f 296/296/296 303/303/303 304/304/304
f 296/296/296 304/304/304 297/297/297
f 297/297/297 304/304/304 305/305/305
f 297/297/297 305/305/305 298/298/298
f 298/298/298 305/305/305 306/306/306
f 298/298/298 306/306/306 299/299/299
f 299/299/299 306/306/306 307/307/307
f 299/299/299 307/307/307 300/300/300
f 300/300/300 307/307/307 308/308/308
f 300/300/300 308/308/308 301/301/301
f 302/302/302 309/309/309 310/310/310
f 302/302/302 310/310/310 303/303/303
f 303/303/303 310/310/310 311/311/311
f 303/303/303 311/311/311 304/304/304
f 304/304/304 311/311/311 312/312/312
f 304/304/304 312/312/312 305/305/305
f 305/305/305 312/312/312 313/313/313
f 305/305/305 313/313/313 306/306/306
f 306/306/306 313/313/313 314/314/314
f 306/306/306 314/314/314 307/307/307
f 307/307/307 314/314/314 315/315/315
f 307/307/307 315/315/315 308/308/308
f 309/309/309 316/316/316 317/317/317
f 309/309/309 317/317/317 310/310/310
f 310/310/310 317/317/317 318/318/318
f 310/310/310 318/318/318 311/311/311
f 311/311/311 318/318/318 319/319/319
f 311/311/311 319/319/319 312/312/312
f 312/312/312 319/319/319 320/320/320
f 312/312/312 320/320/320 313/313/313
f 313/313/313 320/320/320 321/321/321
f 313/313/313 321/321/321 314/314/314
f 314/314/314 321/321/321 322/322/322
f 314/314/314 322/322/322 315/315/315
f 316/316/316 323/323/323 324/324/324
f 316/316/316 324/324/324 317/317/317
f 317/317/317 324/324/324 325/325/325
f 317/317/317 325/325/325 318/318/318
f 318/318/318 325/325/325 326/326/326
f 318/318/318 326/326/326 319/319/319
f 319/319/319 326/326/326 327/327/327
f 319/319/319 327/327/327 320/320/320
f 320/320/320 327/327/327 328/328/328
f 320/320/320 328/328/328 321/321/321
f 321/321/321 328/328/328 329/329/329
f 321/321/321 329/329/329 322/322/322
f 323/323/323 330/330/330 331/331/331
f 323/323/323 331/331/331 324/324/324
f 324/324/324 331/331/331 332/332/332
f 324/324/324 332/332/332 325/325/325
f 325/325/325 332/332/332 333/333/333
f 325/325/325 333/333/333 326/326/326
f 326/326/326 333/333/333 334/334/334
f 326/326/326 334/334/334 327/327/327
f 327/327/327 334/334/334 335/335/335
f 327/327/327 335/335/335 328/328/328
f 328/328/328 335/335/335 336/336/336
f 328/328/328 336/336/336 329/329/329
f 330/330/330 337/337/337 338/338/338
f 330/330/330 338/338/338 331/331/331
f 331/331/331 338/338/338 339/339/339
f 331/331/331 339/339/339 332/332/332
f 332/332/332 339/339/339 340/340/340
f 332/332/332 340/340/340 333/333/333
f 333/333/333 340/340/340 341/341/341
f 333/333/333 341/341/341 334/334/334
f 334/334/334 341/341/341 342/342/342
f 334/334/334 342/342/342 335/335/335
f 335/335/335 342/342/342 343/343/343
f 335/335/335 343/343/343 336/336/336
f 337/337/337 344/344/344 345/345/345
f 337/337/337 345/345/345 338/338/338
f 338/338/338 345/345/345 346/346/346
f 338/338/338 346/346/346 339/339/339
f 339/339/339 346/346/346 347/347/347
f 339/339/339 347/347/347 340/340/340
f 340/340/340 347/347/347 348/348/348
f 340/340/340 348/348/348 341/341/341
f 341/341/341 348/348/348 349/349/349
f 341/341/341 349/349/349 342/342/342
f 342/342/342 349/349/349 350/350/350
f 342/342/342 350/350/350 343/343/343
f 344/344/344 351/351/351 352/352/352
f 344/344/344 352/352/352 345/345/345
f 345/345/345 352/352/352 353/353/353
f 345/345/345 353/353/353 346/346/346
f 346/346/346 353/353/353 354/354/354
f 346/346/346 354/354/354 347/347/347
f 347/347/347 354/354/354 355/355/355
f 347/347/347 355/355/355 348/348/348
f 348/348/348 355/355/355 356/356/356
f 348/348/348 356/356/356 349/349/349
f 349/349/349 356/356/356 357/357/357
f 349/349/349 357/357/357 350/350/350
f 351/351/351 358/358/358 359/359/359
f 351/351/351 359/359/359 352/352/352
f 352/352/352 359/359/359 360/360/360
f 352/352/352 360/360/360 353/353/353
f 353/353/353 360/360/360 361/361/361
f 353/353/353 361/361/361 354/354/354
f 354/354/354 361/361/361 362/362/362
f 354/354/354 362/362/362 355/355/355
f 355/355/355 362/362/362 363/363/363
f 355/355/355 363/363/363 356/356/356
f 356/356/356 363/363/363 364/364/364
f 356/356/356 364/364/364 357/357/357
f 358/358/358 365/365/365 366/366/366
f 358/358/358 366/366/366 359/359/359
f 359/359/359 366/366/366 367/367/367
f 359/359/359 367/367/367 360/360/360
f 360/360/360 367/367/367 368/368/368
f 360/360/360 368/368/368 361/361/361
f 361/361/361 368/368/368 369/369/369
f 361/361/361 369/369/369 362/362/362
f 362/362/362 369/369/369 370/370/370
f 362/362/362 370/370/370 363/363/363
f 363/363/363 370/370/370 371/371/371
f 363/363/363 371/371/371 364/364/364
f 365/365/365 372/372/372 373/373/373
f 365/365/365 373/373/373 366/366/366
f 366/366/366 373/373/373 374/374/374
f 366/366/366 374/374/374 367/367/367
f 367/367/367 374/374/374 375/375/375
f 367/367/367 375/375/375 368/368/368
f 368/368/368 375/375/375 376/376/376
f 368/368/368 376/376/376 369/369/369
f 369/369/369 376/376/376 377/377/377
f 369/369/369 377/377/377 370/370/370
f 370/370/370 377/377/377 378/378/378
f 370/370/370 378/378/378 371/371/371
f 372/372/372 379/379/379 380/380/380
f 372/372/372 380/380/380 373/373/373
f 373/373/373 380/380/380 381/381/381
f 373/373/373 381/381/381 374/374/374
f 374/374/374 381/381/381 382/382/382
f 374/374/374 382/382/382 375/375/375
f 375/375/375 382/382/382 383/383/383
f 375/375/375 383/383/383 376/376/376
f 376/376/376 383/383/383 384/384/384
f 376/376/376 384/384/384 377/377/377
f 377/377/377 384/384/384 385/385/385
f 377/377/377 385/385/385 378/378/378
f 386/386/386 387/387/387 392/392/392
f 386/386/386 392/392/392 391/391/391
f 387/387/387 388/388/388 393/393/393
f 387/387/387 393/393/393 392/392/392
f 388/388/388 389/389/389 394/394/394
f 388/388/388 394/394/394 393/393/393
f 389/389/389 390/390/390 395/395/395
f 389/389/389 395/395/395 394/394/394
f 391/391/391 392/392/392 397/397/397
f 391/391/391 397/397/397 396/396/396
f 392/392/392 393/393/393 398/398/398
f 392/392/392 398/398/398 397/397/397
f 393/393/393 394/394/394 399/399/399
f 393/393/393 399/399/399 398/398/398
f 394/394/394 395/395/395 400/400/400
f 394/394/394 400/400/400 399/399/399
f 396/396/396 397/397/397 402/402/402
f 396/396/396 402/402/402 401/401/401
f 397/397/397 398/398/398 403/403/403
f 397/397/397 403/403/403 402/402/402
f 398/398/398 399/399/399 404/404/404
f 398/398/398 404/404/404 403/403/403
f 399/399/399 400/400/400 405/405/405
f 399/399/399 405/405/405 404/404/404
f 401/401/401 402/402/402 407/407/407
f 401/401/401 407/407/407 406/406/406
f 402/402/402 403/403/403 408/408/408
f 402/402/402 408/408/408 407/407/407
f 403/403/403 404/404/404 409/409/409
f 403/403/403 409/409/409 408/408/408
f 404/404/404 405/405/405 410/410/410
f 404/404/404 410/410/410 409/409/409
f 406/406/406 407/407/407 412/412/412
f 406/406/406 412/412/412 411/411/411
f 407/407/407 408/408/408 413/413/413
f 407/407/407 413/413/413 412/412/412
f 408/408/408 409/409/409 414/414/414
f 408/408/408 414/414/414 413/413/413
f 409/409/409 410/410/410 415/415/415
f 409/409/409 415/415/415 414/414/414
f 416/416/416 418/418/418 417/417/417
f 416/416/416 419/419/419 418/418/418
f 416/416/416 420/420/420 419/419/419
f 416/416/416 417/417/417 420/420/420
f 421/421/421 422/422/422 423/423/423
f 421/421/421 423/423/423 424/424/424
f 421/421/421 424/424/424 425/425/425
f 421/421/421 425/425/425 422/422/422
