# Sinh tự động bởi tools/mesh_kit.py - đừng sửa tay
o pz_sandal
v 0.0331 -0.0100 -0.0194
v 0.0280 -0.0100 -0.0375
v 0.0280 0.0020 -0.0375
v 0.0331 0.0020 -0.0194
v 0.0280 -0.0100 -0.0375
v 0.0211 -0.0100 -0.0530
v 0.0211 0.0020 -0.0530
v 0.0280 0.0020 -0.0375
v 0.0211 -0.0100 -0.0530
v 0.0127 -0.0100 -0.0650
v 0.0127 0.0020 -0.0650
v 0.0211 0.0020 -0.0530
v 0.0127 -0.0100 -0.0650
v 0.0035 -0.0100 -0.0724
v 0.0035 0.0020 -0.0724
v 0.0127 0.0020 -0.0650
v 0.0035 -0.0100 -0.0724
v -0.0060 -0.0100 -0.0750
v -0.0060 0.0020 -0.0750
v 0.0035 0.0020 -0.0724
v -0.0060 -0.0100 -0.0750
v -0.0151 -0.0100 -0.0724
v -0.0151 0.0020 -0.0724
v -0.0060 0.0020 -0.0750
v -0.0151 -0.0100 -0.0724
v -0.0231 -0.0100 -0.0650
v -0.0231 0.0020 -0.0650
v -0.0151 0.0020 -0.0724
v -0.0231 -0.0100 -0.0650
v -0.0296 -0.0100 -0.0530
v -0.0296 0.0020 -0.0530
v -0.0231 0.0020 -0.0650
v -0.0296 -0.0100 -0.0530
v -0.0340 -0.0100 -0.0375
v -0.0340 0.0020 -0.0375
v -0.0296 0.0020 -0.0530
v -0.0340 -0.0100 -0.0375
v -0.0362 -0.0100 -0.0194
v -0.0362 0.0020 -0.0194
v -0.0340 0.0020 -0.0375
v -0.0362 -0.0100 -0.0194
v -0.0320 -0.0100 0.0000
v -0.0320 0.0020 0.0000
v -0.0362 0.0020 -0.0194
v -0.0320 -0.0100 0.0000
v -0.0309 -0.0100 0.0194
v -0.0309 0.0020 0.0194
v -0.0320 0.0020 0.0000
v -0.0309 -0.0100 0.0194
v -0.0277 -0.0100 0.0375
v -0.0277 0.0020 0.0375
v -0.0309 0.0020 0.0194
v -0.0277 -0.0100 0.0375
v -0.0226 -0.0100 0.0530
v -0.0226 0.0020 0.0530
v -0.0277 0.0020 0.0375
v -0.0226 -0.0100 0.0530
v -0.0160 -0.0100 0.0650
v -0.0160 0.0020 0.0650
v -0.0226 0.0020 0.0530
v -0.0160 -0.0100 0.0650
v -0.0083 -0.0100 0.0724
v -0.0083 0.0020 0.0724
v -0.0160 0.0020 0.0650
v -0.0083 -0.0100 0.0724
v 0.0000 -0.0100 0.0750
v 0.0000 0.0020 0.0750
v -0.0083 0.0020 0.0724
v 0.0000 -0.0100 0.0750
v 0.0083 -0.0100 0.0724
v 0.0083 0.0020 0.0724
v 0.0000 0.0020 0.0750
v 0.0083 -0.0100 0.0724
v 0.0160 -0.0100 0.0650
v 0.0160 0.0020 0.0650
v 0.0083 0.0020 0.0724
v 0.0160 -0.0100 0.0650
v 0.0226 -0.0100 0.0530
v 0.0226 0.0020 0.0530
v 0.0160 0.0020 0.0650
v 0.0226 -0.0100 0.0530
v 0.0277 -0.0100 0.0375
v 0.0277 0.0020 0.0375
v 0.0226 0.0020 0.0530
v 0.0277 -0.0100 0.0375
v 0.0309 -0.0100 0.0194
v 0.0309 0.0020 0.0194
v 0.0277 0.0020 0.0375
v 0.0309 -0.0100 0.0194
v 0.0320 -0.0100 -0.0000
v 0.0320 0.0020 0.0000
v 0.0309 0.0020 0.0194
v 0.0320 -0.0100 -0.0000
v 0.0331 -0.0100 -0.0194
v 0.0331 0.0020 -0.0194
v 0.0320 0.0020 0.0000
v 0.0331 0.0020 -0.0194
v 0.0280 0.0020 -0.0375
v 0.0211 0.0020 -0.0530
v 0.0127 0.0020 -0.0650
v 0.0035 0.0020 -0.0724
v -0.0060 0.0020 -0.0750
v -0.0151 0.0020 -0.0724
v -0.0231 0.0020 -0.0650
v -0.0296 0.0020 -0.0530
v -0.0340 0.0020 -0.0375
v -0.0362 0.0020 -0.0194
v -0.0320 0.0020 0.0000
v -0.0309 0.0020 0.0194
v -0.0277 0.0020 0.0375
v -0.0226 0.0020 0.0530
v -0.0160 0.0020 0.0650
v -0.0083 0.0020 0.0724
v 0.0000 0.0020 0.0750
v 0.0083 0.0020 0.0724
v 0.0160 0.0020 0.0650
v 0.0226 0.0020 0.0530
v 0.0277 0.0020 0.0375
v 0.0309 0.0020 0.0194
v 0.0320 0.0020 0.0000
v 0.0320 -0.0100 -0.0000
v 0.0309 -0.0100 0.0194
v 0.0277 -0.0100 0.0375
v 0.0226 -0.0100 0.0530
v 0.0160 -0.0100 0.0650
v 0.0083 -0.0100 0.0724
v 0.0000 -0.0100 0.0750
v -0.0083 -0.0100 0.0724
v -0.0160 -0.0100 0.0650
v -0.0226 -0.0100 0.0530
v -0.0277 -0.0100 0.0375
v -0.0309 -0.0100 0.0194
v -0.0320 -0.0100 0.0000
v -0.0362 -0.0100 -0.0194
v -0.0340 -0.0100 -0.0375
v -0.0296 -0.0100 -0.0530
v -0.0231 -0.0100 -0.0650
v -0.0151 -0.0100 -0.0724
v -0.0060 -0.0100 -0.0750
v 0.0035 -0.0100 -0.0724
v 0.0127 -0.0100 -0.0650
v 0.0211 -0.0100 -0.0530
v 0.0280 -0.0100 -0.0375
v 0.0331 -0.0100 -0.0194
vt -0.0100 0.0000
vt -0.0100 0.0188
vt 0.0020 0.0188
vt 0.0020 0.0000
vt -0.0100 0.0188
vt -0.0100 0.0358
vt 0.0020 0.0358
vt 0.0020 0.0188
vt -0.0100 0.0358
vt -0.0100 0.0504
vt 0.0020 0.0504
vt 0.0020 0.0358
vt -0.0100 0.0504
vt -0.0100 0.0623
vt 0.0020 0.0623
vt 0.0020 0.0504
vt -0.0100 0.0623
vt -0.0100 0.0721
vt 0.0020 0.0721
vt 0.0020 0.0623
vt -0.0100 0.0721
vt -0.0100 0.0815
vt 0.0020 0.0815
vt 0.0020 0.0721
vt -0.0100 0.0815
vt -0.0100 0.0925
vt 0.0020 0.0925
vt 0.0020 0.0815
vt -0.0100 0.0925
vt -0.0100 0.1061
vt 0.0020 0.1061
vt 0.0020 0.0925
vt -0.0100 0.1061
vt -0.0100 0.1222
vt 0.0020 0.1222
vt 0.0020 0.1061
vt -0.0100 0.1222
vt -0.0100 0.1404
vt 0.0020 0.1404
vt 0.0020 0.1222
vt -0.0100 0.1404
vt -0.0100 0.1603
vt 0.0020 0.1603
vt 0.0020 0.1404
vt -0.0100 0.1603
vt -0.0100 0.1797
vt 0.0020 0.1797
vt 0.0020 0.1603
vt -0.0100 0.1797
vt -0.0100 0.1981
vt 0.0020 0.1981
vt 0.0020 0.1797
vt -0.0100 0.1981
vt -0.0100 0.2144
vt 0.0020 0.2144
vt 0.0020 0.1981
vt -0.0100 0.2144
vt -0.0100 0.2281
vt 0.0020 0.2281
vt 0.0020 0.2144
vt -0.0100 0.2281
vt -0.0100 0.2388
vt 0.0020 0.2388
vt 0.0020 0.2281
vt -0.0100 0.2388
vt -0.0100 0.2475
vt 0.0020 0.2475
vt 0.0020 0.2388
vt -0.0100 0.2475
vt -0.0100 0.2562
vt 0.0020 0.2562
vt 0.0020 0.2475
vt -0.0100 0.2562
vt -0.0100 0.2669
vt 0.0020 0.2669
vt 0.0020 0.2562
vt -0.0100 0.2669
vt -0.0100 0.2806
vt 0.0020 0.2806
vt 0.0020 0.2669
vt -0.0100 0.2806
vt -0.0100 0.2969
vt 0.0020 0.2969
vt 0.0020 0.2806
vt -0.0100 0.2969
vt -0.0100 0.3153
vt 0.0020 0.3153
vt 0.0020 0.2969
vt -0.0100 0.3153
vt -0.0100 0.3347
vt 0.0020 0.3347
vt 0.0020 0.3153
vt -0.0100 0.3347
vt -0.0100 0.3542
vt 0.0020 0.3542
vt 0.0020 0.3347
vt -0.0331 -0.0194
vt -0.0280 -0.0375
vt -0.0211 -0.0530
vt -0.0127 -0.0650
vt -0.0035 -0.0724
vt 0.0060 -0.0750
vt 0.0151 -0.0724
vt 0.0231 -0.0650
vt 0.0296 -0.0530
vt 0.0340 -0.0375
vt 0.0362 -0.0194
vt 0.0320 0.0000
vt 0.0309 0.0194
vt 0.0277 0.0375
vt 0.0226 0.0530
vt 0.0160 0.0650
vt 0.0083 0.0724
vt -0.0000 0.0750
vt -0.0083 0.0724
vt -0.0160 0.0650
vt -0.0226 0.0530
vt -0.0277 0.0375
vt -0.0309 0.0194
vt -0.0320 0.0000
vt 0.0320 0.0000
vt 0.0309 0.0194
vt 0.0277 0.0375
vt 0.0226 0.0530
vt 0.0160 0.0650
vt 0.0083 0.0724
vt 0.0000 0.0750
vt -0.0083 0.0724
vt -0.0160 0.0650
vt -0.0226 0.0530
vt -0.0277 0.0375
vt -0.0309 0.0194
vt -0.0320 0.0000
vt -0.0362 -0.0194
vt -0.0340 -0.0375
vt -0.0296 -0.0530
vt -0.0231 -0.0650
vt -0.0151 -0.0724
vt -0.0060 -0.0750
vt 0.0035 -0.0724
vt 0.0127 -0.0650
vt 0.0211 -0.0530
vt 0.0280 -0.0375
vt 0.0331 -0.0194
vn 0.963 0.000 -0.268
vn 0.963 0.000 -0.268
vn 0.963 0.000 -0.268
vn 0.963 0.000 -0.268
vn 0.913 0.000 -0.408
vn 0.913 0.000 -0.408
vn 0.913 0.000 -0.408
vn 0.913 0.000 -0.408
vn 0.818 0.000 -0.575
vn 0.818 0.000 -0.575
vn 0.818 0.000 -0.575
vn 0.818 0.000 -0.575
vn 0.630 0.000 -0.777
vn 0.630 0.000 -0.777
vn 0.630 0.000 -0.777
vn 0.630 0.000 -0.777
vn 0.260 0.000 -0.966
vn 0.260 0.000 -0.966
vn 0.260 0.000 -0.966
vn 0.260 0.000 -0.966
vn -0.271 0.000 -0.963
vn -0.271 0.000 -0.963
vn -0.271 0.000 -0.963
vn -0.271 0.000 -0.963
vn -0.682 0.000 -0.732
vn -0.682 0.000 -0.732
vn -0.682 0.000 -0.732
vn -0.682 0.000 -0.732
vn -0.879 0.000 -0.477
vn -0.879 0.000 -0.477
vn -0.879 0.000 -0.477
vn -0.879 0.000 -0.477
vn -0.961 0.000 -0.276
vn -0.961 0.000 -0.276
vn -0.961 0.000 -0.276
vn -0.961 0.000 -0.276
vn -0.993 0.000 -0.117
vn -0.993 0.000 -0.117
vn -0.993 0.000 -0.117
vn -0.993 0.000 -0.117
vn -0.978 -0.000 0.210
vn -0.978 -0.000 0.210
vn -0.978 -0.000 0.210
vn -0.978 -0.000 0.210
vn -0.998 -0.000 0.056
vn -0.998 -0.000 0.056
vn -0.998 -0.000 0.056
vn -0.998 -0.000 0.056
vn -0.985 -0.000 0.174
vn -0.985 -0.000 0.174
vn -0.985 -0.000 0.174
vn -0.985 -0.000 0.174
vn -0.950 -0.000 0.311
vn -0.950 -0.000 0.311
vn -0.950 -0.000 0.311
vn -0.950 -0.000 0.311
vn -0.874 -0.000 0.486
vn -0.874 -0.000 0.486
vn -0.874 -0.000 0.486
vn -0.874 -0.000 0.486
vn -0.697 -0.000 0.718
vn -0.697 -0.000 0.718
vn -0.697 -0.000 0.718
vn -0.697 -0.000 0.718
vn -0.295 -0.000 0.956
vn -0.295 -0.000 0.956
vn -0.295 -0.000 0.956
vn -0.295 -0.000 0.956
vn 0.295 -0.000 0.956
vn 0.295 -0.000 0.956
vn 0.295 -0.000 0.956
vn 0.295 -0.000 0.956
vn 0.697 -0.000 0.718
vn 0.697 -0.000 0.718
vn 0.697 -0.000 0.718
vn 0.697 -0.000 0.718
vn 0.874 -0.000 0.486
vn 0.874 -0.000 0.486
vn 0.874 -0.000 0.486
vn 0.874 -0.000 0.486
vn 0.950 -0.000 0.311
vn 0.950 -0.000 0.311
vn 0.950 -0.000 0.311
vn 0.950 -0.000 0.311
vn 0.985 -0.000 0.174
vn 0.985 -0.000 0.174
vn 0.985 -0.000 0.174
vn 0.985 -0.000 0.174
vn 0.998 -0.000 0.056
vn 0.998 -0.000 0.056
vn 0.998 -0.000 0.056
vn 0.998 -0.000 0.056
vn 0.998 -0.000 0.055
vn 0.998 -0.000 0.055
vn 0.998 -0.000 0.055
vn 0.998 -0.000 0.055
vn 0.000 1.000 0.000
vn 0.000 1.000 0.000
vn 0.000 1.000 0.000
vn 0.000 1.000 0.000
vn 0.000 1.000 0.000
vn 0.000 1.000 0.000
vn 0.000 1.000 0.000
vn 0.000 1.000 0.000
vn 0.000 1.000 0.000
vn 0.000 1.000 0.000
vn 0.000 1.000 0.000
vn 0.000 1.000 0.000
vn 0.000 1.000 0.000
vn 0.000 1.000 0.000
vn 0.000 1.000 0.000
vn 0.000 1.000 0.000
vn 0.000 1.000 0.000
vn 0.000 1.000 0.000
vn 0.000 1.000 0.000
vn 0.000 1.000 0.000
vn 0.000 1.000 0.000
vn 0.000 1.000 0.000
vn 0.000 1.000 0.000
vn 0.000 1.000 0.000
vn 0.000 -1.000 -0.000
vn 0.000 -1.000 -0.000
vn 0.000 -1.000 -0.000
vn 0.000 -1.000 -0.000
vn 0.000 -1.000 -0.000
vn 0.000 -1.000 -0.000
vn 0.000 -1.000 -0.000
vn 0.000 -1.000 -0.000
vn 0.000 -1.000 -0.000
vn 0.000 -1.000 -0.000
vn 0.000 -1.000 -0.000
vn 0.000 -1.000 -0.000
vn 0.000 -1.000 -0.000
vn 0.000 -1.000 -0.000
vn 0.000 -1.000 -0.000
vn 0.000 -1.000 -0.000
vn 0.000 -1.000 -0.000
vn 0.000 -1.000 -0.000
vn 0.000 -1.000 -0.000
vn 0.000 -1.000 -0.000
vn 0.000 -1.000 -0.000
vn 0.000 -1.000 -0.000
vn 0.000 -1.000 -0.000
vn 0.000 -1.000 -0.000
v -0.0361 0.0041 -0.0070
v -0.0312 0.0020 -0.0058
v -0.0290 -0.0020 -0.0088
v -0.0319 -0.0041 -0.0130
v -0.0368 -0.0020 -0.0142
v -0.0390 0.0020 -0.0112
v -0.0361 0.0041 -0.0070
v -0.0214 0.0267 -0.0276
v -0.0173 0.0237 -0.0255
v -0.0159 0.0190 -0.0279
v -0.0186 0.0173 -0.0324
v -0.0227 0.0203 -0.0345
v -0.0241 0.0250 -0.0321
v -0.0214 0.0267 -0.0276
v 0.0008 0.0312 -0.0385
v 0.0024 0.0271 -0.0352
v 0.0016 0.0219 -0.0367
v -0.0008 0.0208 -0.0415
v -0.0024 0.0249 -0.0448
v -0.0016 0.0301 -0.0433
v 0.0008 0.0312 -0.0385
v 0.0234 0.0263 -0.0495
v 0.0228 0.0227 -0.0453
v 0.0195 0.0184 -0.0459
v 0.0166 0.0177 -0.0505
v 0.0172 0.0213 -0.0547
v 0.0205 0.0256 -0.0541
v 0.0234 0.0263 -0.0495
v 0.0405 0.0032 -0.0579
v 0.0389 0.0005 -0.0534
v 0.0345 -0.0027 -0.0535
v 0.0315 -0.0032 -0.0581
v 0.0331 -0.0005 -0.0626
v 0.0375 0.0027 -0.0625
v 0.0405 0.0032 -0.0579
v -0.0340 0.0000 -0.0100
v -0.0361 0.0041 -0.0070
v -0.0312 0.0020 -0.0058
v -0.0290 -0.0020 -0.0088
v -0.0319 -0.0041 -0.0130
v -0.0368 -0.0020 -0.0142
v -0.0390 0.0020 -0.0112
v 0.0360 0.0000 -0.0580
v 0.0405 0.0032 -0.0579
v 0.0389 0.0005 -0.0534
v 0.0345 -0.0027 -0.0535
v 0.0315 -0.0032 -0.0581
v 0.0331 -0.0005 -0.0626
v 0.0375 0.0027 -0.0625
v 0.0361 0.0041 -0.0070
v 0.0390 0.0020 -0.0112
v 0.0368 -0.0020 -0.0142
v 0.0319 -0.0041 -0.0130
v 0.0290 -0.0020 -0.0088
v 0.0312 0.0020 -0.0058
v 0.0361 0.0041 -0.0070
v 0.0214 0.0267 -0.0276
v 0.0241 0.0250 -0.0321
v 0.0227 0.0203 -0.0345
v 0.0186 0.0173 -0.0324
v 0.0159 0.0190 -0.0279
v 0.0173 0.0237 -0.0255
v 0.0214 0.0267 -0.0276
v -0.0008 0.0312 -0.0385
v 0.0016 0.0301 -0.0433
v 0.0024 0.0249 -0.0448
v 0.0008 0.0208 -0.0415
v -0.0016 0.0219 -0.0367
v -0.0024 0.0271 -0.0352
v -0.0008 0.0312 -0.0385
v -0.0234 0.0263 -0.0495
v -0.0205 0.0256 -0.0541
v -0.0172 0.0213 -0.0547
v -0.0166 0.0177 -0.0505
v -0.0195 0.0184 -0.0459
v -0.0228 0.0227 -0.0453
v -0.0234 0.0263 -0.0495
v -0.0405 0.0032 -0.0579
v -0.0375 0.0027 -0.0625
v -0.0331 -0.0005 -0.0626
v -0.0315 -0.0032 -0.0581
v -0.0345 -0.0027 -0.0535
v -0.0389 0.0005 -0.0534
v -0.0405 0.0032 -0.0579
v 0.0340 0.0000 -0.0100
v 0.0361 0.0041 -0.0070
v 0.0390 0.0020 -0.0112
v 0.0368 -0.0020 -0.0142
v 0.0319 -0.0041 -0.0130
v 0.0290 -0.0020 -0.0088
v 0.0312 0.0020 -0.0058
v -0.0360 0.0000 -0.0580
v -0.0405 0.0032 -0.0579
v -0.0375 0.0027 -0.0625
v -0.0331 -0.0005 -0.0626
v -0.0315 -0.0032 -0.0581
v -0.0345 -0.0027 -0.0535
v -0.0389 0.0005 -0.0534
vt 0.0000 0.0000
vt 0.0000 0.0058
vt 0.0000 0.0115
vt 0.0000 0.0173
vt 0.0000 0.0230
vt 0.0000 0.0288
vt 0.0000 0.0346
vt 0.0329 0.0000
vt 0.0329 0.0058
vt 0.0329 0.0115
vt 0.0329 0.0173
vt 0.0329 0.0230
vt 0.0329 0.0288
vt 0.0329 0.0346
vt 0.0556 0.0000
vt 0.0556 0.0058
vt 0.0556 0.0115
vt 0.0556 0.0173
vt 0.0556 0.0230
vt 0.0556 0.0288
vt 0.0556 0.0346
vt 0.0783 0.0000
vt 0.0783 0.0058
vt 0.0783 0.0115
vt 0.0783 0.0173
vt 0.0783 0.0230
vt 0.0783 0.0288
vt 0.0783 0.0346
vt 0.1066 0.0000
vt 0.1066 0.0058
vt 0.1066 0.0115
vt 0.1066 0.0173
vt 0.1066 0.0230
vt 0.1066 0.0288
vt 0.1066 0.0346
vt 0.0000 0.0000
vt 0.0055 0.0000
vt 0.0028 0.0048
vt -0.0027 0.0048
vt -0.0055 0.0000
vt -0.0028 -0.0048
vt 0.0028 -0.0048
vt 0.0000 0.0000
vt 0.0055 0.0000
vt 0.0028 0.0048
vt -0.0027 0.0048
vt -0.0055 0.0000
vt -0.0028 -0.0048
vt 0.0028 -0.0048
vt 0.0000 0.0000
vt 0.0000 0.0058
vt 0.0000 0.0115
vt 0.0000 0.0173
vt 0.0000 0.0230
vt 0.0000 0.0288
vt 0.0000 0.0346
vt 0.0329 0.0000
vt 0.0329 0.0058
vt 0.0329 0.0115
vt 0.0329 0.0173
vt 0.0329 0.0230
vt 0.0329 0.0288
vt 0.0329 0.0346
vt 0.0556 0.0000
vt 0.0556 0.0058
vt 0.0556 0.0115
vt 0.0556 0.0173
vt 0.0556 0.0230
vt 0.0556 0.0288
vt 0.0556 0.0346
vt 0.0783 0.0000
vt 0.0783 0.0058
vt 0.0783 0.0115
vt 0.0783 0.0173
vt 0.0783 0.0230
vt 0.0783 0.0288
vt 0.0783 0.0346
vt 0.1066 0.0000
vt 0.1066 0.0058
vt 0.1066 0.0115
vt 0.1066 0.0173
vt 0.1066 0.0230
vt 0.1066 0.0288
vt 0.1066 0.0346
vt 0.0000 0.0000
vt 0.0055 0.0000
vt 0.0028 0.0048
vt -0.0027 0.0048
vt -0.0055 0.0000
vt -0.0028 -0.0048
vt 0.0028 -0.0048
vt 0.0000 0.0000
vt 0.0055 0.0000
vt 0.0028 0.0048
vt -0.0027 0.0048
vt -0.0055 0.0000
vt -0.0028 -0.0048
vt 0.0028 -0.0048
vn -0.384 0.743 0.548
vn 0.518 0.371 0.771
vn 0.901 -0.371 0.222
vn 0.384 -0.743 -0.548
vn -0.518 -0.371 -0.771
vn -0.901 0.371 -0.222
vn -0.384 0.743 0.548
vn -0.262 0.856 0.445
vn 0.486 0.308 0.818
vn 0.748 -0.549 0.373
vn 0.262 -0.856 -0.445
vn -0.486 -0.308 -0.818
vn -0.748 0.549 -0.373
vn -0.262 0.856 0.445
vn 0.139 0.950 0.279
vn 0.438 0.205 0.875
vn 0.298 -0.745 0.597
vn -0.139 -0.950 -0.279
vn -0.438 -0.205 -0.875
vn -0.298 0.745 -0.597
vn 0.139 0.950 0.279
vn 0.615 0.782 0.099
vn 0.515 0.127 0.848
vn -0.099 -0.656 0.748
vn -0.615 -0.782 -0.099
vn -0.515 -0.127 -0.848
vn 0.099 0.656 -0.748
vn 0.615 0.782 0.099
vn 0.812 0.584 0.019
vn 0.536 0.084 0.840
vn -0.276 -0.499 0.821
vn -0.812 -0.584 -0.019
vn -0.536 -0.084 -0.840
vn 0.276 0.499 -0.821
vn 0.812 0.584 0.019
vn -0.426 -0.669 0.609
vn -0.426 -0.669 0.609
vn -0.426 -0.669 0.609
vn -0.426 -0.669 0.609
vn -0.426 -0.669 0.609
vn -0.426 -0.669 0.609
vn -0.426 -0.669 0.609
vn 0.564 -0.776 -0.282
vn 0.564 -0.776 -0.282
vn 0.564 -0.776 -0.282
vn 0.564 -0.776 -0.282
vn 0.564 -0.776 -0.282
vn 0.564 -0.776 -0.282
vn 0.564 -0.776 -0.282
vn 0.384 0.743 0.548
vn 0.901 0.371 -0.222
vn 0.518 -0.371 -0.771
vn -0.384 -0.743 -0.548
vn -0.901 -0.371 0.222
vn -0.518 0.371 0.771
vn 0.384 0.743 0.548
vn 0.262 0.856 0.445
vn 0.748 0.549 -0.373
vn 0.486 -0.308 -0.818
vn -0.262 -0.856 -0.445
vn -0.748 -0.549 0.373
vn -0.486 0.308 0.818
vn 0.262 0.856 0.445
vn -0.139 0.950 0.279
vn 0.298 0.745 -0.597
vn 0.438 -0.205 -0.875
vn 0.139 -0.950 -0.279
vn -0.298 -0.745 0.597
vn -0.438 0.205 0.875
vn -0.139 0.950 0.279
vn -0.615 0.782 0.099
vn -0.099 0.656 -0.748
vn 0.515 -0.127 -0.848
vn 0.615 -0.782 -0.099
vn 0.099 -0.656 0.748
vn -0.515 0.127 0.848
vn -0.615 0.782 0.099
vn -0.812 0.584 0.019
vn -0.276 0.499 -0.821
vn 0.536 -0.084 -0.840
vn 0.812 -0.584 -0.019
vn 0.276 -0.499 0.821
vn -0.536 0.084 0.840
vn -0.812 0.584 0.019
vn 0.426 -0.669 0.609
vn 0.426 -0.669 0.609
vn 0.426 -0.669 0.609
vn 0.426 -0.669 0.609
vn 0.426 -0.669 0.609
vn 0.426 -0.669 0.609
vn 0.426 -0.669 0.609
vn -0.564 -0.776 -0.282
vn -0.564 -0.776 -0.282
vn -0.564 -0.776 -0.282
vn -0.564 -0.776 -0.282
vn -0.564 -0.776 -0.282
vn -0.564 -0.776 -0.282
vn -0.564 -0.776 -0.282
usemtl plastic
f 1/1/1 2/2/2 3/3/3
f 1/1/1 3/3/3 4/4/4
f 5/5/5 6/6/6 7/7/7
f 5/5/5 7/7/7 8/8/8
f 9/9/9 10/10/10 11/11/11
f 9/9/9 11/11/11 12/12/12
f 13/13/13 14/14/14 15/15/15
f 13/13/13 15/15/15 16/16/16
f 17/17/17 18/18/18 19/19/19
f 17/17/17 19/19/19 20/20/20
f 21/21/21 22/22/22 23/23/23
f 21/21/21 23/23/23 24/24/24
f 25/25/25 26/26/26 27/27/27
f 25/25/25 27/27/27 28/28/28
f 29/29/29 30/30/30 31/31/31
f 29/29/29 31/31/31 32/32/32
f 33/33/33 34/34/34 35/35/35
f 33/33/33 35/35/35 36/36/36
f 37/37/37 38/38/38 39/39/39
f 37/37/37 39/39/39 40/40/40
f 41/41/41 42/42/42 43/43/43
f 41/41/41 43/43/43 44/44/44
f 45/45/45 46/46/46 47/47/47
f 45/45/45 47/47/47 48/48/48
f 49/49/49 50/50/50 51/51/51
f 49/49/49 51/51/51 52/52/52
f 53/53/53 54/54/54 55/55/55
f 53/53/53 55/55/55 56/56/56
f 57/57/57 58/58/58 59/59/59
f 57/57/57 59/59/59 60/60/60
f 61/61/61 62/62/62 63/63/63
f 61/61/61 63/63/63 64/64/64
f 65/65/65 66/66/66 67/67/67
f 65/65/65 67/67/67 68/68/68
f 69/69/69 70/70/70 71/71/71
f 69/69/69 71/71/71 72/72/72
f 73/73/73 74/74/74 75/75/75
f 73/73/73 75/75/75 76/76/76
f 77/77/77 78/78/78 79/79/79
f 77/77/77 79/79/79 80/80/80
f 81/81/81 82/82/82 83/83/83
f 81/81/81 83/83/83 84/84/84
f 85/85/85 86/86/86 87/87/87
f 85/85/85 87/87/87 88/88/88
f 89/89/89 90/90/90 91/91/91
f 89/89/89 91/91/91 92/92/92
f 93/93/93 94/94/94 95/95/95
f 93/93/93 95/95/95 96/96/96
f 120/120/120 97/97/97 98/98/98
f 120/120/120 98/98/98 99/99/99
f 120/120/120 99/99/99 100/100/100
f 120/120/120 100/100/100 101/101/101
f 120/120/120 101/101/101 102/102/102
f 120/120/120 102/102/102 103/103/103
f 120/120/120 103/103/103 104/104/104
f 120/120/120 104/104/104 105/105/105
f 120/120/120 105/105/105 106/106/106
f 120/120/120 106/106/106 107/107/107
f 120/120/120 107/107/107 108/108/108
f 120/120/120 108/108/108 109/109/109
f 120/120/120 109/109/109 110/110/110
f 120/120/120 110/110/110 111/111/111
f 120/120/120 111/111/111 112/112/112
f 120/120/120 112/112/112 113/113/113
f 120/120/120 113/113/113 114/114/114
f 120/120/120 114/114/114 115/115/115
f 120/120/120 115/115/115 116/116/116
f 120/120/120 116/116/116 117/117/117
f 120/120/120 117/117/117 118/118/118
f 118/118/118 119/119/119 120/120/120
f 144/144/144 121/121/121 122/122/122
f 144/144/144 122/122/122 123/123/123
f 144/144/144 123/123/123 124/124/124
f 144/144/144 124/124/124 125/125/125
f 144/144/144 125/125/125 126/126/126
f 144/144/144 126/126/126 127/127/127
f 144/144/144 127/127/127 128/128/128
f 144/144/144 128/128/128 129/129/129
f 144/144/144 129/129/129 130/130/130
f 144/144/144 130/130/130 131/131/131
f 144/144/144 131/131/131 132/132/132
f 144/144/144 132/132/132 133/133/133
f 144/144/144 133/133/133 134/134/134
f 144/144/144 134/134/134 135/135/135
f 144/144/144 135/135/135 136/136/136
f 144/144/144 136/136/136 137/137/137
f 144/144/144 137/137/137 138/138/138
f 144/144/144 138/138/138 139/139/139
f 144/144/144 139/139/139 140/140/140
f 144/144/144 140/140/140 141/141/141
f 144/144/144 141/141/141 142/142/142
f 142/142/142 143/143/143 144/144/144
usemtl strap
f 145/145/145 146/146/146 153/153/153
f 145/145/145 153/153/153 152/152/152
f 146/146/146 147/147/147 154/154/154
f 146/146/146 154/154/154 153/153/153
f 147/147/147 148/148/148 155/155/155
f 147/147/147 155/155/155 154/154/154
f 148/148/148 149/149/149 156/156/156
f 148/148/148 156/156/156 155/155/155
f 149/149/149 150/150/150 157/157/157
f 149/149/149 157/157/157 156/156/156
f 150/150/150 151/151/151 158/158/158
f 150/150/150 158/158/158 157/157/157
f 152/152/152 153/153/153 160/160/160
f 152/152/152 160/160/160 159/159/159
f 153/153/153 154/154/154 161/161/161
f 153/153/153 161/161/161 160/160/160
f 154/154/154 155/155/155 162/162/162
f 154/154/154 162/162/162 161/161/161
f 155/155/155 156/156/156 163/163/163
f 155/155/155 163/163/163 162/162/162
f 156/156/156 157/157/157 164/164/164
f 156/156/156 164/164/164 163/163/163
f 157/157/157 158/158/158 165/165/165
f 157/157/157 165/165/165 164/164/164
f 159/159/159 160/160/160 167/167/167
f 159/159/159 167/167/167 166/166/166
f 160/160/160 161/161/161 168/168/168
f 160/160/160 168/168/168 167/167/167
f 161/161/161 162/162/162 169/169/169
f 161/161/161 169/169/169 168/168/168
f 162/162/162 163/163/163 170/170/170
f 162/162/162 170/170/170 169/169/169
f 163/163/163 164/164/164 171/171/171
f 163/163/163 171/171/171 170/170/170
f 164/164/164 165/165/165 172/172/172
f 164/164/164 172/172/172 171/171/171
f 166/166/166 167/167/167 174/174/174
f 166/166/166 174/174/174 173/173/173
f 167/167/167 168/168/168 175/175/175
f 167/167/167 175/175/175 174/174/174
f 168/168/168 169/169/169 176/176/176
f 168/168/168 176/176/176 175/175/175
f 169/169/169 170/170/170 177/177/177
f 169/169/169 177/177/177 176/176/176
f 170/170/170 171/171/171 178/178/178
f 170/170/170 178/178/178 177/177/177
f 171/171/171 172/172/172 179/179/179
f 171/171/171 179/179/179 178/178/178
f 180/180/180 182/182/182 181/181/181
f 180/180/180 183/183/183 182/182/182
f 180/180/180 184/184/184 183/183/183
f 180/180/180 185/185/185 184/184/184
f 180/180/180 186/186/186 185/185/185
f 180/180/180 181/181/181 186/186/186
f 187/187/187 188/188/188 189/189/189
f 187/187/187 189/189/189 190/190/190
f 187/187/187 190/190/190 191/191/191
f 187/187/187 191/191/191 192/192/192
f 187/187/187 192/192/192 193/193/193
f 187/187/187 193/193/193 188/188/188
f 194/194/194 195/195/195 202/202/202
f 194/194/194 202/202/202 201/201/201
f 195/195/195 196/196/196 203/203/203
f 195/195/195 203/203/203 202/202/202
f 196/196/196 197/197/197 204/204/204
f 196/196/196 204/204/204 203/203/203
f 197/197/197 198/198/198 205/205/205
f 197/197/197 205/205/205 204/204/204
f 198/198/198 199/199/199 206/206/206
f 198/198/198 206/206/206 205/205/205
f 199/199/199 200/200/200 207/207/207
f 199/199/199 207/207/207 206/206/206
f 201/201/201 202/202/202 209/209/209
f 201/201/201 209/209/209 208/208/208
f 202/202/202 203/203/203 210/210/210
f 202/202/202 210/210/210 209/209/209
f 203/203/203 204/204/204 211/211/211
f 203/203/203 211/211/211 210/210/210
f 204/204/204 205/205/205 212/212/212
f 204/204/204 212/212/212 211/211/211
f 205/205/205 206/206/206 213/213/213
f 205/205/205 213/213/213 212/212/212
f 206/206/206 207/207/207 214/214/214
f 206/206/206 214/214/214 213/213/213
f 208/208/208 209/209/209 216/216/216
f 208/208/208 216/216/216 215/215/215
f 209/209/209 210/210/210 217/217/217
f 209/209/209 217/217/217 216/216/216
f 210/210/210 211/211/211 218/218/218
f 210/210/210 218/218/218 217/217/217
f 211/211/211 212/212/212 219/219/219
f 211/211/211 219/219/219 218/218/218
f 212/212/212 213/213/213 220/220/220
f 212/212/212 220/220/220 219/219/219
f 213/213/213 214/214/214 221/221/221
f 213/213/213 221/221/221 220/220/220
f 215/215/215 216/216/216 223/223/223
f 215/215/215 223/223/223 222/222/222
f 216/216/216 217/217/217 224/224/224
f 216/216/216 224/224/224 223/223/223
f 217/217/217 218/218/218 225/225/225
f 217/217/217 225/225/225 224/224/224
f 218/218/218 219/219/219 226/226/226
f 218/218/218 226/226/226 225/225/225
f 219/219/219 220/220/220 227/227/227
f 219/219/219 227/227/227 226/226/226
f 220/220/220 221/221/221 228/228/228
f 220/220/220 228/228/228 227/227/227
f 229/229/229 231/231/231 230/230/230
f 229/229/229 232/232/232 231/231/231
f 229/229/229 233/233/233 232/232/232
f 229/229/229 234/234/234 233/233/233
f 229/229/229 235/235/235 234/234/234
f 229/229/229 230/230/230 235/235/235
f 236/236/236 237/237/237 238/238/238
f 236/236/236 238/238/238 239/239/239
f 236/236/236 239/239/239 240/240/240
f 236/236/236 240/240/240 241/241/241
f 236/236/236 241/241/241 242/242/242
f 236/236/236 242/242/242 237/237/237
