# Sinh tự động bởi tools/mesh_kit.py - đừng sửa tay
o pz_satchel
v 0.1015 -0.0815 0.0317
v 0.1026 -0.0826 0.0290
v 0.1041 -0.0841 0.0200
v 0.1041 -0.0841 -0.0200
v 0.1026 -0.0826 -0.0290
v 0.1015 -0.0815 -0.0317
v 0.1026 -0.0789 0.0328
v 0.1041 -0.0800 0.0301
v 0.1063 -0.0815 0.0200
v 0.1063 -0.0815 -0.0200
v 0.1041 -0.0800 -0.0301
v 0.1026 -0.0789 -0.0328
v 0.1041 -0.0700 0.0344
v 0.1063 -0.0700 0.0317
v 0.1100 -0.0700 0.0200
v 0.1100 -0.0700 -0.0200
v 0.1063 -0.0700 -0.0317
v 0.1041 -0.0700 -0.0344
v 0.1041 0.0700 0.0344
v 0.1063 0.0700 0.0317
v 0.1100 0.0700 0.0200
v 0.1100 0.0700 -0.0200
v 0.1063 0.0700 -0.0317
v 0.1041 0.0700 -0.0344
v 0.1026 0.0789 0.0328
v 0.1041 0.0800 0.0301
v 0.1063 0.0815 0.0200
v 0.1063 0.0815 -0.0200
v 0.1041 0.0800 -0.0301
v 0.1026 0.0789 -0.0328
v 0.1015 0.0815 0.0317
v 0.1026 0.0826 0.0290
v 0.1041 0.0841 0.0200
v 0.1041 0.0841 -0.0200
v 0.1026 0.0826 -0.0290
v 0.1015 0.0815 -0.0317
v -0.1015 -0.0815 -0.0317
v -0.1026 -0.0826 -0.0290
v -0.1041 -0.0841 -0.0200
v -0.1041 -0.0841 0.0200
v -0.1026 -0.0826 0.0290
v -0.1015 -0.0815 0.0317
v -0.1026 -0.0789 -0.0328
v -0.1041 -0.0800 -0.0301
v -0.1063 -0.0815 -0.0200
v -0.1063 -0.0815 0.0200
v -0.1041 -0.0800 0.0301
v -0.1026 -0.0789 0.0328
v -0.1041 -0.0700 -0.0344
v -0.1063 -0.0700 -0.0317
v -0.1100 -0.0700 -0.0200
v -0.1100 -0.0700 0.0200
v -0.1063 -0.0700 0.0317
v -0.1041 -0.0700 0.0344
v -0.1041 0.0700 -0.0344
v -0.1063 0.0700 -0.0317
v -0.1100 0.0700 -0.0200
v -0.1100 0.0700 0.0200
v -0.1063 0.0700 0.0317
v -0.1041 0.0700 0.0344
v -0.1026 0.0789 -0.0328
v -0.1041 0.0800 -0.0301
v -0.1063 0.0815 -0.0200
v -0.1063 0.0815 0.0200
v -0.1041 0.0800 0.0301
v -0.1026 0.0789 0.0328
v -0.1015 0.0815 -0.0317
v -0.1026 0.0826 -0.0290
v -0.1041 0.0841 -0.0200
v -0.1041 0.0841 0.0200
v -0.1026 0.0826 0.0290
v -0.1015 0.0815 0.0317
v -0.1015 0.0815 0.0317
v -0.0989 0.0826 0.0328
v -0.0900 0.0841 0.0344
v 0.0900 0.0841 0.0344
v 0.0989 0.0826 0.0328
v 0.1015 0.0815 0.0317
v -0.1026 0.0826 0.0290
v -0.1000 0.0841 0.0301
v -0.0900 0.0863 0.0317
v 0.0900 0.0863 0.0317
v 0.1000 0.0841 0.0301
v 0.1026 0.0826 0.0290
v -0.1041 0.0841 0.0200
v -0.1015 0.0863 0.0200
v -0.0900 0.0900 0.0200
v 0.0900 0.0900 0.0200
v 0.1015 0.0863 0.0200
v 0.1041 0.0841 0.0200
v -0.1041 0.0841 -0.0200
v -0.1015 0.0863 -0.0200
v -0.0900 0.0900 -0.0200
v 0.0900 0.0900 -0.0200
v 0.1015 0.0863 -0.0200
v 0.1041 0.0841 -0.0200
v -0.1026 0.0826 -0.0290
v -0.1000 0.0841 -0.0301
v -0.0900 0.0863 -0.0317
v 0.0900 0.0863 -0.0317
v 0.1000 0.0841 -0.0301
v 0.1026 0.0826 -0.0290
v -0.1015 0.0815 -0.0317
v -0.0989 0.0826 -0.0328
v -0.0900 0.0841 -0.0344
v 0.0900 0.0841 -0.0344
v 0.0989 0.0826 -0.0328
v 0.1015 0.0815 -0.0317
v -0.1015 -0.0815 -0.0317
v -0.0989 -0.0826 -0.0328
v -0.0900 -0.0841 -0.0344
v 0.0900 -0.0841 -0.0344
v 0.0989 -0.0826 -0.0328
v 0.1015 -0.0815 -0.0317
v -0.1026 -0.0826 -0.0290
v -0.1000 -0.0841 -0.0301
v -0.0900 -0.0863 -0.0317
v 0.0900 -0.0863 -0.0317
v 0.1000 -0.0841 -0.0301
v 0.1026 -0.0826 -0.0290
v -0.1041 -0.0841 -0.0200
v -0.1015 -0.0863 -0.0200
v -0.0900 -0.0900 -0.0200
v 0.0900 -0.0900 -0.0200
v 0.1015 -0.0863 -0.0200
v 0.1041 -0.0841 -0.0200
v -0.1041 -0.0841 0.0200
v -0.1015 -0.0863 0.0200
v -0.0900 -0.0900 0.0200
v 0.0900 -0.0900 0.0200
v 0.1015 -0.0863 0.0200
v 0.1041 -0.0841 0.0200
v -0.1026 -0.0826 0.0290
v -0.1000 -0.0841 0.0301
v -0.0900 -0.0863 0.0317
v 0.0900 -0.0863 0.0317
v 0.1000 -0.0841 0.0301
v 0.1026 -0.0826 0.0290
v -0.1015 -0.0815 0.0317
v -0.0989 -0.0826 0.0328
v -0.0900 -0.0841 0.0344
v 0.0900 -0.0841 0.0344
v 0.0989 -0.0826 0.0328
v 0.1015 -0.0815 0.0317
v -0.1015 -0.0815 0.0317
v -0.0989 -0.0826 0.0328
v -0.0900 -0.0841 0.0344
v 0.0900 -0.0841 0.0344
v 0.0989 -0.0826 0.0328
v 0.1015 -0.0815 0.0317
v -0.1026 -0.0789 0.0328
v -0.1000 -0.0800 0.0343
v -0.0900 -0.0815 0.0367
v 0.0900 -0.0815 0.0367
v 0.1000 -0.0800 0.0343
v 0.1026 -0.0789 0.0328
v -0.1041 -0.0700 0.0344
v -0.1015 -0.0700 0.0366
v -0.0900 -0.0700 0.0408
v 0.0900 -0.0700 0.0408
v 0.1015 -0.0700 0.0366
v 0.1041 -0.0700 0.0344
v -0.1041 0.0700 0.0344
v -0.1015 0.0700 0.0366
v -0.0900 0.0700 0.0408
v 0.0900 0.0700 0.0408
v 0.1015 0.0700 0.0366
v 0.1041 0.0700 0.0344
v -0.1026 0.0789 0.0328
v -0.1000 0.0800 0.0343
v -0.0900 0.0815 0.0367
v 0.0900 0.0815 0.0367
v 0.1000 0.0800 0.0343
v 0.1026 0.0789 0.0328
v -0.1015 0.0815 0.0317
v -0.0989 0.0826 0.0328
v -0.0900 0.0841 0.0344
v 0.0900 0.0841 0.0344
v 0.0989 0.0826 0.0328
v 0.1015 0.0815 0.0317
v 0.1015 -0.0815 -0.0317
v 0.0989 -0.0826 -0.0328
v 0.0900 -0.0841 -0.0344
v -0.0900 -0.0841 -0.0344
v -0.0989 -0.0826 -0.0328
v -0.1015 -0.0815 -0.0317
v 0.1026 -0.0789 -0.0328
v 0.1000 -0.0800 -0.0343
v 0.0900 -0.0815 -0.0367
v -0.0900 -0.0815 -0.0367
v -0.1000 -0.0800 -0.0343
v -0.1026 -0.0789 -0.0328
v 0.1041 -0.0700 -0.0344
v 0.1015 -0.0700 -0.0366
v 0.0900 -0.0700 -0.0408
v -0.0900 -0.0700 -0.0408
v -0.1015 -0.0700 -0.0366
v -0.1041 -0.0700 -0.0344
v 0.1041 0.0700 -0.0344
v 0.1015 0.0700 -0.0366
v 0.0900 0.0700 -0.0408
v -0.0900 0.0700 -0.0408
v -0.1015 0.0700 -0.0366
v -0.1041 0.0700 -0.0344
v 0.1026 0.0789 -0.0328
v 0.1000 0.0800 -0.0343
v 0.0900 0.0815 -0.0367
v -0.0900 0.0815 -0.0367
v -0.1000 0.0800 -0.0343
v -0.1026 0.0789 -0.0328
v 0.1015 0.0815 -0.0317
v 0.0989 0.0826 -0.0328
v 0.0900 0.0841 -0.0344
v -0.0900 0.0841 -0.0344
v -0.0989 0.0826 -0.0328
v -0.1015 0.0815 -0.0317
v -0.1160 0.0940 -0.0400
v -0.0773 0.0940 -0.0400
v -0.0387 0.0940 -0.0400
v 0.0000 0.0940 -0.0400
v 0.0387 0.0940 -0.0400
v 0.0773 0.0940 -0.0400
v 0.1160 0.0940 -0.0400
v -0.1155 0.0730 -0.0540
v -0.0770 0.0730 -0.0580
v -0.0385 0.0730 -0.0609
v 0.0000 0.0730 -0.0620
v 0.0385 0.0730 -0.0609
v 0.0770 0.0730 -0.0580
v 0.1155 0.0730 -0.0540
v -0.1141 0.0520 -0.0540
v -0.0760 0.0520 -0.0580
v -0.0380 0.0520 -0.0609
v 0.0000 0.0520 -0.0620
v 0.0380 0.0520 -0.0609
v 0.0760 0.0520 -0.0580
v 0.1141 0.0520 -0.0540
v -0.1117 0.0310 -0.0540
v -0.0744 0.0310 -0.0580
v -0.0372 0.0310 -0.0609
v 0.0000 0.0310 -0.0620
v 0.0372 0.0310 -0.0609
v 0.0744 0.0310 -0.0580
v 0.1117 0.0310 -0.0540
v -0.1083 0.0100 -0.0540
v -0.0722 0.0100 -0.0580
v -0.0361 0.0100 -0.0609
v 0.0000 0.0100 -0.0620
v 0.0361 0.0100 -0.0609
v 0.0722 0.0100 -0.0580
v 0.1083 0.0100 -0.0540
v -0.1039 -0.0110 -0.0540
v -0.0693 -0.0110 -0.0580
v -0.0346 -0.0110 -0.0609
v 0.0000 -0.0110 -0.0620
v 0.0346 -0.0110 -0.0609
v 0.0693 -0.0110 -0.0580
v 0.1039 -0.0110 -0.0540
v -0.0986 -0.0320 -0.0540
v -0.0657 -0.0320 -0.0580
v -0.0329 -0.0320 -0.0609
v 0.0000 -0.0320 -0.0620
v 0.0329 -0.0320 -0.0609
v 0.0657 -0.0320 -0.0580
v 0.0986 -0.0320 -0.0540
v -0.1160 0.0940 -0.0400
v -0.0773 0.0940 -0.0400
v -0.0387 0.0940 -0.0400
v 0.0000 0.0940 -0.0400
v 0.0387 0.0940 -0.0400
v 0.0773 0.0940 -0.0400
v 0.1160 0.0940 -0.0400
v -0.1155 0.0730 -0.0540
v -0.0770 0.0730 -0.0580
v -0.0385 0.0730 -0.0609
v 0.0000 0.0730 -0.0620
v 0.0385 0.0730 -0.0609
v 0.0770 0.0730 -0.0580
v 0.1155 0.0730 -0.0540
v -0.1141 0.0520 -0.0540
v -0.0760 0.0520 -0.0580
v -0.0380 0.0520 -0.0609
v 0.0000 0.0520 -0.0620
v 0.0380 0.0520 -0.0609
v 0.0760 0.0520 -0.0580
v 0.1141 0.0520 -0.0540
v -0.1117 0.0310 -0.0540
v -0.0744 0.0310 -0.0580
v -0.0372 0.0310 -0.0609
v 0.0000 0.0310 -0.0620
v 0.0372 0.0310 -0.0609
v 0.0744 0.0310 -0.0580
v 0.1117 0.0310 -0.0540
v -0.1083 0.0100 -0.0540
v -0.0722 0.0100 -0.0580
v -0.0361 0.0100 -0.0609
v 0.0000 0.0100 -0.0620
v 0.0361 0.0100 -0.0609
v 0.0722 0.0100 -0.0580
v 0.1083 0.0100 -0.0540
v -0.1039 -0.0110 -0.0540
v -0.0693 -0.0110 -0.0580
v -0.0346 -0.0110 -0.0609
v 0.0000 -0.0110 -0.0620
v 0.0346 -0.0110 -0.0609
v 0.0693 -0.0110 -0.0580
v 0.1039 -0.0110 -0.0540
v -0.0986 -0.0320 -0.0540
v -0.0657 -0.0320 -0.0580
v -0.0329 -0.0320 -0.0609
v 0.0000 -0.0320 -0.0620
v 0.0329 -0.0320 -0.0609
v 0.0657 -0.0320 -0.0580
v 0.0986 -0.0320 -0.0540
v 0.0100 -0.0510 -0.0580
v 0.0100 -0.0510 -0.0620
v 0.0100 -0.0010 -0.0620
v 0.0100 -0.0010 -0.0580
v -0.0100 -0.0510 -0.0620
v -0.0100 -0.0510 -0.0580
v -0.0100 -0.0010 -0.0580
v -0.0100 -0.0010 -0.0620
v -0.0100 -0.0010 -0.0580
v 0.0100 -0.0010 -0.0580
v 0.0100 -0.0010 -0.0620
v -0.0100 -0.0010 -0.0620
v -0.0100 -0.0510 -0.0620
v 0.0100 -0.0510 -0.0620
v 0.0100 -0.0510 -0.0580
v -0.0100 -0.0510 -0.0580
v -0.0100 -0.0510 -0.0580
v 0.0100 -0.0510 -0.0580
v 0.0100 -0.0010 -0.0580
v -0.0100 -0.0010 -0.0580
v 0.0100 -0.0510 -0.0620
v -0.0100 -0.0510 -0.0620
v -0.0100 -0.0010 -0.0620
v 0.0100 -0.0010 -0.0620
vt 0.0000 0.0000
vt 0.0059 0.0000
vt 0.0200 0.0000
vt 0.0600 0.0000
vt 0.0741 0.0000
vt 0.0800 0.0000
vt 0.0000 0.0059
vt 0.0059 0.0059
vt 0.0200 0.0059
vt 0.0600 0.0059
vt 0.0741 0.0059
vt 0.0800 0.0059
vt 0.0000 0.0200
vt 0.0059 0.0200
vt 0.0200 0.0200
vt 0.0600 0.0200
vt 0.0741 0.0200
vt 0.0800 0.0200
vt 0.0000 0.1600
vt 0.0059 0.1600
vt 0.0200 0.1600
vt 0.0600 0.1600
vt 0.0741 0.1600
vt 0.0800 0.1600
vt 0.0000 0.1741
vt 0.0059 0.1741
vt 0.0200 0.1741
vt 0.0600 0.1741
vt 0.0741 0.1741
vt 0.0800 0.1741
vt 0.0000 0.1800
vt 0.0059 0.1800
vt 0.0200 0.1800
vt 0.0600 0.1800
vt 0.0741 0.1800
vt 0.0800 0.1800
vt 0.0000 0.0000
vt 0.0059 0.0000
vt 0.0200 0.0000
vt 0.0600 0.0000
vt 0.0741 0.0000
vt 0.0800 0.0000
vt 0.0000 0.0059
vt 0.0059 0.0059
vt 0.0200 0.0059
vt 0.0600 0.0059
vt 0.0741 0.0059
vt 0.0800 0.0059
vt 0.0000 0.0200
vt 0.0059 0.0200
vt 0.0200 0.0200
vt 0.0600 0.0200
vt 0.0741 0.0200
vt 0.0800 0.0200
vt 0.0000 0.1600
vt 0.0059 0.1600
vt 0.0200 0.1600
vt 0.0600 0.1600
vt 0.0741 0.1600
vt 0.0800 0.1600
vt 0.0000 0.1741
vt 0.0059 0.1741
vt 0.0200 0.1741
vt 0.0600 0.1741
vt 0.0741 0.1741
vt 0.0800 0.1741
vt 0.0000 0.1800
vt 0.0059 0.1800
vt 0.0200 0.1800
vt 0.0600 0.1800
vt 0.0741 0.1800
vt 0.0800 0.1800
vt 0.0000 0.0000
vt 0.0059 0.0000
vt 0.0200 0.0000
vt 0.2000 0.0000
vt 0.2141 0.0000
vt 0.2200 0.0000
vt 0.0000 0.0059
vt 0.0059 0.0059
vt 0.0200 0.0059
vt 0.2000 0.0059
vt 0.2141 0.0059
vt 0.2200 0.0059
vt 0.0000 0.0200
vt 0.0059 0.0200
vt 0.0200 0.0200
vt 0.2000 0.0200
vt 0.2141 0.0200
vt 0.2200 0.0200
vt 0.0000 0.0600
vt 0.0059 0.0600
vt 0.0200 0.0600
vt 0.2000 0.0600
vt 0.2141 0.0600
vt 0.2200 0.0600
vt 0.0000 0.0741
vt 0.0059 0.0741
vt 0.0200 0.0741
vt 0.2000 0.0741
vt 0.2141 0.0741
vt 0.2200 0.0741
vt 0.0000 0.0800
vt 0.0059 0.0800
vt 0.0200 0.0800
vt 0.2000 0.0800
vt 0.2141 0.0800
vt 0.2200 0.0800
vt 0.0000 0.0000
vt 0.0059 0.0000
vt 0.0200 0.0000
vt 0.2000 0.0000
vt 0.2141 0.0000
vt 0.2200 0.0000
vt 0.0000 0.0059
vt 0.0059 0.0059
vt 0.0200 0.0059
vt 0.2000 0.0059
vt 0.2141 0.0059
vt 0.2200 0.0059
vt 0.0000 0.0200
vt 0.0059 0.0200
vt 0.0200 0.0200
vt 0.2000 0.0200
vt 0.2141 0.0200
vt 0.2200 0.0200
vt 0.0000 0.0600
vt 0.0059 0.0600
vt 0.0200 0.0600
vt 0.2000 0.0600
vt 0.2141 0.0600
vt 0.2200 0.0600
vt 0.0000 0.0741
vt 0.0059 0.0741
vt 0.0200 0.0741
vt 0.2000 0.0741
vt 0.2141 0.0741
vt 0.2200 0.0741
vt 0.0000 0.0800
vt 0.0059 0.0800
vt 0.0200 0.0800
vt 0.2000 0.0800
vt 0.2141 0.0800
vt 0.2200 0.0800
vt 0.0000 0.0000
vt 0.0059 0.0000
vt 0.0200 0.0000
vt 0.2000 0.0000
vt 0.2141 0.0000
vt 0.2200 0.0000
vt 0.0000 0.0059
vt 0.0059 0.0059
vt 0.0200 0.0059
vt 0.2000 0.0059
vt 0.2141 0.0059
vt 0.2200 0.0059
vt 0.0000 0.0200
vt 0.0059 0.0200
vt 0.0200 0.0200
vt 0.2000 0.0200
vt 0.2141 0.0200
vt 0.2200 0.0200
vt 0.0000 0.1600
vt 0.0059 0.1600
vt 0.0200 0.1600
vt 0.2000 0.1600
vt 0.2141 0.1600
vt 0.2200 0.1600
vt 0.0000 0.1741
vt 0.0059 0.1741
vt 0.0200 0.1741
vt 0.2000 0.1741
vt 0.2141 0.1741
vt 0.2200 0.1741
vt 0.0000 0.1800
vt 0.0059 0.1800
vt 0.0200 0.1800
vt 0.2000 0.1800
vt 0.2141 0.1800
vt 0.2200 0.1800
vt 0.0000 0.0000
vt 0.0059 0.0000
vt 0.0200 0.0000
vt 0.2000 0.0000
vt 0.2141 0.0000
vt 0.2200 0.0000
vt 0.0000 0.0059
vt 0.0059 0.0059
vt 0.0200 0.0059
vt 0.2000 0.0059
vt 0.2141 0.0059
vt 0.2200 0.0059
vt 0.0000 0.0200
vt 0.0059 0.0200
vt 0.0200 0.0200
vt 0.2000 0.0200
vt 0.2141 0.0200
vt 0.2200 0.0200
vt 0.0000 0.1600
vt 0.0059 0.1600
vt 0.0200 0.1600
vt 0.2000 0.1600
vt 0.2141 0.1600
vt 0.2200 0.1600
vt 0.0000 0.1741
vt 0.0059 0.1741
vt 0.0200 0.1741
vt 0.2000 0.1741
vt 0.2141 0.1741
vt 0.2200 0.1741
vt 0.0000 0.1800
vt 0.0059 0.1800
vt 0.0200 0.1800
vt 0.2000 0.1800
vt 0.2141 0.1800
vt 0.2200 0.1800
vt 0.0000 0.0000
vt 0.0374 0.0000
vt 0.0748 0.0000
vt 0.1120 0.0000
vt 0.1492 0.0000
vt 0.1866 0.0000
vt 0.2240 0.0000
vt 0.0000 0.0304
vt 0.0374 0.0304
vt 0.0748 0.0304
vt 0.1120 0.0304
vt 0.1492 0.0304
vt 0.1866 0.0304
vt 0.2240 0.0304
vt 0.0000 0.0514
vt 0.0374 0.0514
vt 0.0748 0.0514
vt 0.1120 0.0514
vt 0.1492 0.0514
vt 0.1866 0.0514
vt 0.2240 0.0514
vt 0.0000 0.0724
vt 0.0374 0.0724
vt 0.0748 0.0724
vt 0.1120 0.0724
vt 0.1492 0.0724
vt 0.1866 0.0724
vt 0.2240 0.0724
vt 0.0000 0.0934
vt 0.0374 0.0934
vt 0.0748 0.0934
vt 0.1120 0.0934
vt 0.1492 0.0934
vt 0.1866 0.0934
vt 0.2240 0.0934
vt 0.0000 0.1144
vt 0.0374 0.1144
vt 0.0748 0.1144
vt 0.1120 0.1144
vt 0.1492 0.1144
vt 0.1866 0.1144
vt 0.2240 0.1144
vt 0.0000 0.1354
vt 0.0374 0.1354
vt 0.0748 0.1354
vt 0.1120 0.1354
vt 0.1492 0.1354
vt 0.1866 0.1354
vt 0.2240 0.1354
vt 0.0000 0.0000
vt 0.0374 0.0000
vt 0.0748 0.0000
vt 0.1120 0.0000
vt 0.1492 0.0000
vt 0.1866 0.0000
vt 0.2240 0.0000
vt 0.0000 0.0304
vt 0.0374 0.0304
vt 0.0748 0.0304
vt 0.1120 0.0304
vt 0.1492 0.0304
vt 0.1866 0.0304
vt 0.2240 0.0304
vt 0.0000 0.0514
vt 0.0374 0.0514
vt 0.0748 0.0514
vt 0.1120 0.0514
vt 0.1492 0.0514
vt 0.1866 0.0514
vt 0.2240 0.0514
vt 0.0000 0.0724
vt 0.0374 0.0724
vt 0.0748 0.0724
vt 0.1120 0.0724
vt 0.1492 0.0724
vt 0.1866 0.0724
vt 0.2240 0.0724
vt 0.0000 0.0934
vt 0.0374 0.0934
vt 0.0748 0.0934
vt 0.1120 0.0934
vt 0.1492 0.0934
vt 0.1866 0.0934
vt 0.2240 0.0934
vt 0.0000 0.1144
vt 0.0374 0.1144
vt 0.0748 0.1144
vt 0.1120 0.1144
vt 0.1492 0.1144
vt 0.1866 0.1144
vt 0.2240 0.1144
vt 0.0000 0.1354
vt 0.0374 0.1354
vt 0.0748 0.1354
vt 0.1120 0.1354
vt 0.1492 0.1354
vt 0.1866 0.1354
vt 0.2240 0.1354
vt 0.0000 0.0000
vt 0.0040 0.0000
vt 0.0040 0.0500
vt 0.0000 0.0500
vt 0.0000 0.0000
vt 0.0040 0.0000
vt 0.0040 0.0500
vt 0.0000 0.0500
vt 0.0000 0.0000
vt 0.0200 0.0000
vt 0.0200 0.0040
vt 0.0000 0.0040
vt 0.0000 0.0000
vt 0.0200 0.0000
vt 0.0200 0.0040
vt 0.0000 0.0040
vt 0.0000 0.0000
vt 0.0200 0.0000
vt 0.0200 0.0500
vt 0.0000 0.0500
vt 0.0000 0.0000
vt 0.0200 0.0000
vt 0.0200 0.0500
vt 0.0000 0.0500
vn 0.577 -0.577 0.577
vn 0.632 -0.632 0.447
vn 0.707 -0.707 0.000
vn 0.707 -0.707 0.000
vn 0.632 -0.632 -0.447
vn 0.577 -0.577 -0.577
vn 0.632 -0.447 0.632
vn 0.707 -0.500 0.500
vn 0.816 -0.577 0.000
vn 0.816 -0.577 0.000
vn 0.707 -0.500 -0.500
vn 0.632 -0.447 -0.632
vn 0.707 0.000 0.707
vn 0.816 0.000 0.577
vn 1.000 0.000 0.000
vn 1.000 0.000 0.000
vn 0.816 0.000 -0.577
vn 0.707 0.000 -0.707
vn 0.707 0.000 0.707
vn 0.816 0.000 0.577
vn 1.000 0.000 0.000
vn 1.000 0.000 0.000
vn 0.816 0.000 -0.577
vn 0.707 0.000 -0.707
vn 0.632 0.447 0.632
vn 0.707 0.500 0.500
vn 0.816 0.577 0.000
vn 0.816 0.577 0.000
vn 0.707 0.500 -0.500
vn 0.632 0.447 -0.632
vn 0.577 0.577 0.577
vn 0.632 0.632 0.447
vn 0.707 0.707 0.000
vn 0.707 0.707 0.000
vn 0.632 0.632 -0.447
vn 0.577 0.577 -0.577
vn -0.577 -0.577 -0.577
vn -0.632 -0.632 -0.447
vn -0.707 -0.707 0.000
vn -0.707 -0.707 0.000
vn -0.632 -0.632 0.447
vn -0.577 -0.577 0.577
vn -0.632 -0.447 -0.632
vn -0.707 -0.500 -0.500
vn -0.816 -0.577 0.000
vn -0.816 -0.577 0.000
vn -0.707 -0.500 0.500
vn -0.632 -0.447 0.632
vn -0.707 0.000 -0.707
vn -0.816 0.000 -0.577
vn -1.000 0.000 0.000
vn -1.000 0.000 0.000
vn -0.816 0.000 0.577
vn -0.707 0.000 0.707
vn -0.707 0.000 -0.707
vn -0.816 0.000 -0.577
vn -1.000 0.000 0.000
vn -1.000 0.000 0.000
vn -0.816 0.000 0.577
vn -0.707 0.000 0.707
vn -0.632 0.447 -0.632
vn -0.707 0.500 -0.500
vn -0.816 0.577 0.000
vn -0.816 0.577 0.000
vn -0.707 0.500 0.500
vn -0.632 0.447 0.632
vn -0.577 0.577 -0.577
vn -0.632 0.632 -0.447
vn -0.707 0.707 0.000
vn -0.707 0.707 0.000
vn -0.632 0.632 0.447
vn -0.577 0.577 0.577
vn -0.577 0.577 0.577
vn -0.447 0.632 0.632
vn 0.000 0.707 0.707
vn 0.000 0.707 0.707
vn 0.447 0.632 0.632
vn 0.577 0.577 0.577
vn -0.632 0.632 0.447
vn -0.500 0.707 0.500
vn 0.000 0.816 0.577
vn 0.000 0.816 0.577
vn 0.500 0.707 0.500
vn 0.632 0.632 0.447
vn -0.707 0.707 0.000
vn -0.577 0.816 0.000
vn 0.000 1.000 0.000
vn 0.000 1.000 0.000
vn 0.577 0.816 0.000
vn 0.707 0.707 0.000
vn -0.707 0.707 0.000
vn -0.577 0.816 0.000
vn 0.000 1.000 0.000
vn 0.000 1.000 0.000
vn 0.577 0.816 0.000
vn 0.707 0.707 0.000
vn -0.632 0.632 -0.447
vn -0.500 0.707 -0.500
vn 0.000 0.816 -0.577
vn 0.000 0.816 -0.577
vn 0.500 0.707 -0.500
vn 0.632 0.632 -0.447
vn -0.577 0.577 -0.577
vn -0.447 0.632 -0.632
vn 0.000 0.707 -0.707
vn 0.000 0.707 -0.707
vn 0.447 0.632 -0.632
vn 0.577 0.577 -0.577
vn -0.577 -0.577 -0.577
vn -0.447 -0.632 -0.632
vn 0.000 -0.707 -0.707
vn 0.000 -0.707 -0.707
vn 0.447 -0.632 -0.632
vn 0.577 -0.577 -0.577
vn -0.632 -0.632 -0.447
vn -0.500 -0.707 -0.500
vn 0.000 -0.816 -0.577
vn 0.000 -0.816 -0.577
vn 0.500 -0.707 -0.500
vn 0.632 -0.632 -0.447
vn -0.707 -0.707 0.000
vn -0.577 -0.816 0.000
vn 0.000 -1.000 0.000
vn 0.000 -1.000 0.000
vn 0.577 -0.816 0.000
vn 0.707 -0.707 0.000
vn -0.707 -0.707 0.000
vn -0.577 -0.816 0.000
vn 0.000 -1.000 0.000
vn 0.000 -1.000 0.000
vn 0.577 -0.816 0.000
vn 0.707 -0.707 0.000
vn -0.632 -0.632 0.447
vn -0.500 -0.707 0.500
vn 0.000 -0.816 0.577
vn 0.000 -0.816 0.577
vn 0.500 -0.707 0.500
vn 0.632 -0.632 0.447
vn -0.577 -0.577 0.577
vn -0.447 -0.632 0.632
vn 0.000 -0.707 0.707
vn 0.000 -0.707 0.707
vn 0.447 -0.632 0.632
vn 0.577 -0.577 0.577
vn -0.577 -0.577 0.577
vn -0.447 -0.632 0.632
vn 0.000 -0.707 0.707
vn 0.000 -0.707 0.707
vn 0.447 -0.632 0.632
vn 0.577 -0.577 0.577
vn -0.632 -0.447 0.632
vn -0.500 -0.500 0.707
vn 0.000 -0.577 0.816
vn 0.000 -0.577 0.816
vn 0.500 -0.500 0.707
vn 0.632 -0.447 0.632
vn -0.707 0.000 0.707
vn -0.577 0.000 0.816
vn 0.000 0.000 1.000
vn 0.000 0.000 1.000
vn 0.577 0.000 0.816
vn 0.707 0.000 0.707
vn -0.707 0.000 0.707
vn -0.577 0.000 0.816
vn 0.000 0.000 1.000
vn 0.000 0.000 1.000
vn 0.577 0.000 0.816
vn 0.707 0.000 0.707
vn -0.632 0.447 0.632
vn -0.500 0.500 0.707
vn 0.000 0.577 0.816
vn 0.000 0.577 0.816
vn 0.500 0.500 0.707
vn 0.632 0.447 0.632
vn -0.577 0.577 0.577
vn -0.447 0.632 0.632
vn 0.000 0.707 0.707
vn 0.000 0.707 0.707
vn 0.447 0.632 0.632
vn 0.577 0.577 0.577
vn 0.577 -0.577 -0.577
vn 0.447 -0.632 -0.632
vn 0.000 -0.707 -0.707
vn 0.000 -0.707 -0.707
vn -0.447 -0.632 -0.632
vn -0.577 -0.577 -0.577
vn 0.632 -0.447 -0.632
vn 0.500 -0.500 -0.707
vn 0.000 -0.577 -0.816
vn 0.000 -0.577 -0.816
vn -0.500 -0.500 -0.707
vn -0.632 -0.447 -0.632
vn 0.707 0.000 -0.707
vn 0.577 0.000 -0.816
vn 0.000 0.000 -1.000
vn 0.000 0.000 -1.000
vn -0.577 0.000 -0.816
vn -0.707 0.000 -0.707
vn 0.707 0.000 -0.707
vn 0.577 0.000 -0.816
vn 0.000 0.000 -1.000
vn 0.000 0.000 -1.000
vn -0.577 0.000 -0.816
vn -0.707 0.000 -0.707
vn 0.632 0.447 -0.632
vn 0.500 0.500 -0.707
vn 0.000 0.577 -0.816
vn 0.000 0.577 -0.816
vn -0.500 0.500 -0.707
vn -0.632 0.447 -0.632
vn 0.577 0.577 -0.577
vn 0.447 0.632 -0.632
vn 0.000 0.707 -0.707
vn 0.000 0.707 -0.707
vn -0.447 0.632 -0.632
vn -0.577 0.577 -0.577
vn 0.000 0.555 -0.832
vn 0.000 0.651 -0.759
vn 0.000 0.706 -0.708
vn 0.000 0.723 -0.690
vn 0.000 0.706 -0.708
vn 0.000 0.651 -0.759
vn 0.000 0.555 -0.832
vn -0.098 0.311 -0.945
vn -0.082 0.390 -0.917
vn -0.046 0.445 -0.894
vn 0.000 0.464 -0.886
vn 0.046 0.445 -0.894
vn 0.082 0.390 -0.917
vn 0.098 0.311 -0.945
vn -0.105 -0.010 -0.994
vn -0.091 -0.006 -0.996
vn -0.053 -0.002 -0.999
vn 0.000 0.000 -1.000
vn 0.053 -0.002 -0.999
vn 0.091 -0.006 -0.996
vn 0.105 -0.010 -0.994
vn -0.107 -0.015 -0.994
vn -0.093 -0.009 -0.996
vn -0.054 -0.002 -0.999
vn 0.000 0.000 -1.000
vn 0.054 -0.002 -0.999
vn 0.093 -0.009 -0.996
vn 0.107 -0.015 -0.994
vn -0.110 -0.020 -0.994
vn -0.096 -0.012 -0.995
vn -0.055 -0.003 -0.998
vn 0.000 0.000 -1.000
vn 0.055 -0.003 -0.998
vn 0.096 -0.012 -0.995
vn 0.110 -0.020 -0.994
vn -0.115 -0.026 -0.993
vn -0.099 -0.015 -0.995
vn -0.058 -0.004 -0.998
vn 0.000 0.000 -1.000
vn 0.058 -0.004 -0.998
vn 0.099 -0.015 -0.995
vn 0.115 -0.026 -0.993
vn -0.121 -0.031 -0.992
vn -0.105 -0.018 -0.994
vn -0.061 -0.005 -0.998
vn 0.000 0.000 -1.000
vn 0.061 -0.005 -0.998
vn 0.105 -0.018 -0.994
vn 0.121 -0.031 -0.992
vn -0.000 -0.555 0.832
vn -0.000 -0.651 0.759
vn -0.000 -0.706 0.708
vn -0.000 -0.723 0.690
vn -0.000 -0.706 0.708
vn -0.000 -0.651 0.759
vn -0.000 -0.555 0.832
vn 0.098 -0.311 0.945
vn 0.082 -0.390 0.917
vn 0.046 -0.445 0.894
vn -0.000 -0.464 0.886
vn -0.046 -0.445 0.894
vn -0.082 -0.390 0.917
vn -0.098 -0.311 0.945
vn 0.105 0.010 0.994
vn 0.091 0.006 0.996
vn 0.053 0.002 0.999
vn -0.000 -0.000 1.000
vn -0.053 0.002 0.999
vn -0.091 0.006 0.996
vn -0.105 0.010 0.994
vn 0.107 0.015 0.994
vn 0.093 0.009 0.996
vn 0.054 0.002 0.999
vn -0.000 -0.000 1.000
vn -0.054 0.002 0.999
vn -0.093 0.009 0.996
vn -0.107 0.015 0.994
vn 0.110 0.020 0.994
vn 0.096 0.012 0.995
vn 0.055 0.003 0.998
vn -0.000 -0.000 1.000
vn -0.055 0.003 0.998
vn -0.096 0.012 0.995
vn -0.110 0.020 0.994
vn 0.115 0.026 0.993
vn 0.099 0.015 0.995
vn 0.058 0.004 0.998
vn -0.000 -0.000 1.000
vn -0.058 0.004 0.998
vn -0.099 0.015 0.995
vn -0.115 0.026 0.993
vn 0.121 0.031 0.992
vn 0.105 0.018 0.994
vn 0.061 0.005 0.998
vn -0.000 -0.000 1.000
vn -0.061 0.005 0.998
vn -0.105 0.018 0.994
vn -0.121 0.031 0.992
vn 1.000 0.000 0.000
vn 1.000 0.000 0.000
vn 1.000 0.000 0.000
vn 1.000 0.000 0.000
vn -1.000 0.000 0.000
vn -1.000 0.000 0.000
vn -1.000 0.000 0.000
vn -1.000 0.000 0.000
vn 0.000 1.000 0.000
vn 0.000 1.000 0.000
vn 0.000 1.000 0.000
vn 0.000 1.000 0.000
vn 0.000 -1.000 0.000
vn 0.000 -1.000 0.000
vn 0.000 -1.000 0.000
vn 0.000 -1.000 0.000
vn 0.000 0.000 1.000
vn 0.000 0.000 1.000
vn 0.000 0.000 1.000
vn 0.000 0.000 1.000
vn 0.000 0.000 -1.000
vn 0.000 0.000 -1.000
vn 0.000 0.000 -1.000
vn 0.000 0.000 -1.000
v 0.0138 -0.0498 -0.0602
v 0.0142 -0.0502 -0.0619
v 0.0142 -0.0502 -0.0621
v 0.0138 -0.0498 -0.0638
v 0.0142 -0.0481 -0.0598
v 0.0150 -0.0481 -0.0619
v 0.0150 -0.0481 -0.0621
v 0.0142 -0.0481 -0.0642
v 0.0142 -0.0319 -0.0598
v 0.0150 -0.0319 -0.0619
v 0.0150 -0.0319 -0.0621
v 0.0142 -0.0319 -0.0642
v 0.0138 -0.0302 -0.0602
v 0.0142 -0.0298 -0.0619
v 0.0142 -0.0298 -0.0621
v 0.0138 -0.0302 -0.0638
v -0.0138 -0.0498 -0.0638
v -0.0142 -0.0502 -0.0621
v -0.0142 -0.0502 -0.0619
v -0.0138 -0.0498 -0.0602
v -0.0142 -0.0481 -0.0642
v -0.0150 -0.0481 -0.0621
v -0.0150 -0.0481 -0.0619
v -0.0142 -0.0481 -0.0598
v -0.0142 -0.0319 -0.0642
v -0.0150 -0.0319 -0.0621
v -0.0150 -0.0319 -0.0619
v -0.0142 -0.0319 -0.0598
v -0.0138 -0.0302 -0.0638
v -0.0142 -0.0298 -0.0621
v -0.0142 -0.0298 -0.0619
v -0.0138 -0.0302 -0.0602
v -0.0138 -0.0302 -0.0602
v -0.0121 -0.0298 -0.0598
v 0.0121 -0.0298 -0.0598
v 0.0138 -0.0302 -0.0602
v -0.0142 -0.0298 -0.0619
v -0.0121 -0.0290 -0.0619
v 0.0121 -0.0290 -0.0619
v 0.0142 -0.0298 -0.0619
v -0.0142 -0.0298 -0.0621
v -0.0121 -0.0290 -0.0621
v 0.0121 -0.0290 -0.0621
v 0.0142 -0.0298 -0.0621
v -0.0138 -0.0302 -0.0638
v -0.0121 -0.0298 -0.0642
v 0.0121 -0.0298 -0.0642
v 0.0138 -0.0302 -0.0638
v -0.0138 -0.0498 -0.0638
v -0.0121 -0.0502 -0.0642
v 0.0121 -0.0502 -0.0642
v 0.0138 -0.0498 -0.0638
v -0.0142 -0.0502 -0.0621
v -0.0121 -0.0510 -0.0621
v 0.0121 -0.0510 -0.0621
v 0.0142 -0.0502 -0.0621
v -0.0142 -0.0502 -0.0619
v -0.0121 -0.0510 -0.0619
v 0.0121 -0.0510 -0.0619
v 0.0142 -0.0502 -0.0619
v -0.0138 -0.0498 -0.0602
v -0.0121 -0.0502 -0.0598
v 0.0121 -0.0502 -0.0598
v 0.0138 -0.0498 -0.0602
v -0.0138 -0.0498 -0.0602
v -0.0121 -0.0502 -0.0598
v 0.0121 -0.0502 -0.0598
v 0.0138 -0.0498 -0.0602
v -0.0142 -0.0481 -0.0598
v -0.0121 -0.0481 -0.0590
v 0.0121 -0.0481 -0.0590
v 0.0142 -0.0481 -0.0598
v -0.0142 -0.0319 -0.0598
v -0.0121 -0.0319 -0.0590
v 0.0121 -0.0319 -0.0590
v 0.0142 -0.0319 -0.0598
v -0.0138 -0.0302 -0.0602
v -0.0121 -0.0298 -0.0598
v 0.0121 -0.0298 -0.0598
v 0.0138 -0.0302 -0.0602
v 0.0138 -0.0498 -0.0638
v 0.0121 -0.0502 -0.0642
v -0.0121 -0.0502 -0.0642
v -0.0138 -0.0498 -0.0638
v 0.0142 -0.0481 -0.0642
v 0.0121 -0.0481 -0.0650
v -0.0121 -0.0481 -0.0650
v -0.0142 -0.0481 -0.0642
v 0.0142 -0.0319 -0.0642
v 0.0121 -0.0319 -0.0650
v -0.0121 -0.0319 -0.0650
v -0.0142 -0.0319 -0.0642
v 0.0138 -0.0302 -0.0638
v 0.0121 -0.0298 -0.0642
v -0.0121 -0.0298 -0.0642
v -0.0138 -0.0302 -0.0638
vt 0.0000 0.0000
vt 0.0029 0.0000
vt 0.0031 0.0000
vt 0.0060 0.0000
vt 0.0000 0.0029
vt 0.0029 0.0029
vt 0.0031 0.0029
vt 0.0060 0.0029
vt 0.0000 0.0191
vt 0.0029 0.0191
vt 0.0031 0.0191
vt 0.0060 0.0191
vt 0.0000 0.0220
vt 0.0029 0.0220
vt 0.0031 0.0220
vt 0.0060 0.0220
vt 0.0000 0.0000
vt 0.0029 0.0000
vt 0.0031 0.0000
vt 0.0060 0.0000
vt 0.0000 0.0029
vt 0.0029 0.0029
vt 0.0031 0.0029
vt 0.0060 0.0029
vt 0.0000 0.0191
vt 0.0029 0.0191
vt 0.0031 0.0191
vt 0.0060 0.0191
vt 0.0000 0.0220
vt 0.0029 0.0220
vt 0.0031 0.0220
vt 0.0060 0.0220
vt 0.0000 0.0000
vt 0.0029 0.0000
vt 0.0271 0.0000
vt 0.0300 0.0000
vt 0.0000 0.0029
vt 0.0029 0.0029
vt 0.0271 0.0029
vt 0.0300 0.0029
vt 0.0000 0.0031
vt 0.0029 0.0031
vt 0.0271 0.0031
vt 0.0300 0.0031
vt 0.0000 0.0060
vt 0.0029 0.0060
vt 0.0271 0.0060
vt 0.0300 0.0060
vt 0.0000 0.0000
vt 0.0029 0.0000
vt 0.0271 0.0000
vt 0.0300 0.0000
vt 0.0000 0.0029
vt 0.0029 0.0029
vt 0.0271 0.0029
vt 0.0300 0.0029
vt 0.0000 0.0031
vt 0.0029 0.0031
vt 0.0271 0.0031
vt 0.0300 0.0031
vt 0.0000 0.0060
vt 0.0029 0.0060
vt 0.0271 0.0060
vt 0.0300 0.0060
vt 0.0000 0.0000
vt 0.0029 0.0000
vt 0.0271 0.0000
vt 0.0300 0.0000
vt 0.0000 0.0029
vt 0.0029 0.0029
vt 0.0271 0.0029
vt 0.0300 0.0029
vt 0.0000 0.0191
vt 0.0029 0.0191
vt 0.0271 0.0191
vt 0.0300 0.0191
vt 0.0000 0.0220
vt 0.0029 0.0220
vt 0.0271 0.0220
vt 0.0300 0.0220
vt 0.0000 0.0000
vt 0.0029 0.0000
vt 0.0271 0.0000
vt 0.0300 0.0000
vt 0.0000 0.0029
vt 0.0029 0.0029
vt 0.0271 0.0029
vt 0.0300 0.0029
vt 0.0000 0.0191
vt 0.0029 0.0191
vt 0.0271 0.0191
vt 0.0300 0.0191
vt 0.0000 0.0220
vt 0.0029 0.0220
vt 0.0271 0.0220
vt 0.0300 0.0220
vn 0.577 -0.577 0.577
vn 0.707 -0.707 0.000
vn 0.707 -0.707 0.000
vn 0.577 -0.577 -0.577
vn 0.707 0.000 0.707
vn 1.000 0.000 0.000
vn 1.000 0.000 0.000
vn 0.707 0.000 -0.707
vn 0.707 0.000 0.707
vn 1.000 0.000 0.000
vn 1.000 0.000 0.000
vn 0.707 0.000 -0.707
vn 0.577 0.577 0.577
vn 0.707 0.707 0.000
vn 0.707 0.707 0.000
vn 0.577 0.577 -0.577
vn -0.577 -0.577 -0.577
vn -0.707 -0.707 0.000
vn -0.707 -0.707 0.000
vn -0.577 -0.577 0.577
vn -0.707 0.000 -0.707
vn -1.000 0.000 0.000
vn -1.000 0.000 0.000
vn -0.707 0.000 0.707
vn -0.707 0.000 -0.707
vn -1.000 0.000 0.000
vn -1.000 0.000 0.000
vn -0.707 0.000 0.707
vn -0.577 0.577 -0.577
vn -0.707 0.707 0.000
vn -0.707 0.707 0.000
vn -0.577 0.577 0.577
vn -0.577 0.577 0.577
vn 0.000 0.707 0.707
vn 0.000 0.707 0.707
vn 0.577 0.577 0.577
vn -0.707 0.707 0.000
vn 0.000 1.000 0.000
vn 0.000 1.000 0.000
vn 0.707 0.707 0.000
vn -0.707 0.707 0.000
vn 0.000 1.000 0.000
vn 0.000 1.000 0.000
vn 0.707 0.707 0.000
vn -0.577 0.577 -0.577
vn 0.000 0.707 -0.707
vn 0.000 0.707 -0.707
vn 0.577 0.577 -0.577
vn -0.577 -0.577 -0.577
vn 0.000 -0.707 -0.707
vn 0.000 -0.707 -0.707
vn 0.577 -0.577 -0.577
vn -0.707 -0.707 0.000
vn 0.000 -1.000 0.000
vn 0.000 -1.000 0.000
vn 0.707 -0.707 0.000
vn -0.707 -0.707 0.000
vn 0.000 -1.000 0.000
vn 0.000 -1.000 0.000
vn 0.707 -0.707 0.000
vn -0.577 -0.577 0.577
vn 0.000 -0.707 0.707
vn 0.000 -0.707 0.707
vn 0.577 -0.577 0.577
vn -0.577 -0.577 0.577
vn 0.000 -0.707 0.707
vn 0.000 -0.707 0.707
vn 0.577 -0.577 0.577
vn -0.707 0.000 0.707
vn 0.000 0.000 1.000
vn 0.000 0.000 1.000
vn 0.707 0.000 0.707
vn -0.707 0.000 0.707
vn 0.000 0.000 1.000
vn 0.000 0.000 1.000
vn 0.707 0.000 0.707
vn -0.577 0.577 0.577
vn 0.000 0.707 0.707
vn 0.000 0.707 0.707
vn 0.577 0.577 0.577
vn 0.577 -0.577 -0.577
vn 0.000 -0.707 -0.707
vn 0.000 -0.707 -0.707
vn -0.577 -0.577 -0.577
vn 0.707 0.000 -0.707
vn 0.000 0.000 -1.000
vn 0.000 0.000 -1.000
vn -0.707 0.000 -0.707
vn 0.707 0.000 -0.707
vn 0.000 0.000 -1.000
vn 0.000 0.000 -1.000
vn -0.707 0.000 -0.707
vn 0.577 0.577 -0.577
vn 0.000 0.707 -0.707
vn 0.000 0.707 -0.707
vn -0.577 0.577 -0.577
usemtl leather
f 1/1/1 2/2/2 8/8/8
f 1/1/1 8/8/8 7/7/7
f 2/2/2 3/3/3 9/9/9
f 2/2/2 9/9/9 8/8/8
f 3/3/3 4/4/4 10/10/10
f 3/3/3 10/10/10 9/9/9
f 4/4/4 5/5/5 11/11/11
f 4/4/4 11/11/11 10/10/10
f 5/5/5 6/6/6 12/12/12
f 5/5/5 12/12/12 11/11/11
f 7/7/7 8/8/8 14/14/14
f 7/7/7 14/14/14 13/13/13
f 8/8/8 9/9/9 15/15/15
f 8/8/8 15/15/15 14/14/14
f 9/9/9 10/10/10 16/16/16
f 9/9/9 16/16/16 15/15/15
f 10/10/10 11/11/11 17/17/17
f 10/10/10 17/17/17 16/16/16
f 11/11/11 12/12/12 18/18/18
f 11/11/11 18/18/18 17/17/17
f 13/13/13 14/14/14 20/20/20
f 13/13/13 20/20/20 19/19/19
f 14/14/14 15/15/15 21/21/21
f 14/14/14 21/21/21 20/20/20
f 15/15/15 16/16/16 22/22/22
f 15/15/15 22/22/22 21/21/21
f 16/16/16 17/17/17 23/23/23
f 16/16/16 23/23/23 22/22/22
f 17/17/17 18/18/18 24/24/24
f 17/17/17 24/24/24 23/23/23
f 19/19/19 20/20/20 26/26/26
f 19/19/19 26/26/26 25/25/25
f 20/20/20 21/21/21 27/27/27
f 20/20/20 27/27/27 26/26/26
f 21/21/21 22/22/22 28/28/28
f 21/21/21 28/28/28 27/27/27
f 22/22/22 23/23/23 29/29/29
f 22/22/22 29/29/29 28/28/28
f 23/23/23 24/24/24 30/30/30
f 23/23/23 30/30/30 29/29/29
f 25/25/25 26/26/26 32/32/32
f 25/25/25 32/32/32 31/31/31
f 26/26/26 27/27/27 33/33/33
f 26/26/26 33/33/33 32/32/32
f 27/27/27 28/28/28 34/34/34
f 27/27/27 34/34/34 33/33/33
f 28/28/28 29/29/29 35/35/35
f 28/28/28 35/35/35 34/34/34
f 29/29/29 30/30/30 36/36/36
f 29/29/29 36/36/36 35/35/35
f 37/37/37 38/38/38 44/44/44
f 37/37/37 44/44/44 43/43/43
f 38/38/38 39/39/39 45/45/45
f 38/38/38 45/45/45 44/44/44
f 39/39/39 40/40/40 46/46/46
f 39/39/39 46/46/46 45/45/45
f 40/40/40 41/41/41 47/47/47
f 40/40/40 47/47/47 46/46/46
f 41/41/41 42/42/42 48/48/48
f 41/41/41 48/48/48 47/47/47
f 43/43/43 44/44/44 50/50/50
f 43/43/43 50/50/50 49/49/49
f 44/44/44 45/45/45 51/51/51
f 44/44/44 51/51/51 50/50/50
f 45/45/45 46/46/46 52/52/52
f 45/45/45 52/52/52 51/51/51
f 46/46/46 47/47/47 53/53/53
f 46/46/46 53/53/53 52/52/52
f 47/47/47 48/48/48 54/54/54
f 47/47/47 54/54/54 53/53/53
f 49/49/49 50/50/50 56/56/56
f 49/49/49 56/56/56 55/55/55
f 50/50/50 51/51/51 57/57/57
f 50/50/50 57/57/57 56/56/56
f 51/51/51 52/52/52 58/58/58
f 51/51/51 58/58/58 57/57/57
f 52/52/52 53/53/53 59/59/59
f 52/52/52 59/59/59 58/58/58
f 53/53/53 54/54/54 60/60/60
f 53/53/53 60/60/60 59/59/59
f 55/55/55 56/56/56 62/62/62
f 55/55/55 62/62/62 61/61/61
f 56/56/56 57/57/57 63/63/63
f 56/56/56 63/63/63 62/62/62
f 57/57/57 58/58/58 64/64/64
f 57/57/57 64/64/64 63/63/63
f 58/58/58 59/59/59 65/65/65
f 58/58/58 65/65/65 64/64/64
f 59/59/59 60/60/60 66/66/66
f 59/59/59 66/66/66 65/65/65
f 61/61/61 62/62/62 68/68/68
f 61/61/61 68/68/68 67/67/67
f 62/62/62 63/63/63 69/69/69
f 62/62/62 69/69/69 68/68/68
f 63/63/63 64/64/64 70/70/70
f 63/63/63 70/70/70 69/69/69
f 64/64/64 65/65/65 71/71/71
f 64/64/64 71/71/71 70/70/70
f 65/65/65 66/66/66 72/72/72
f 65/65/65 72/72/72 71/71/71
f 73/73/73 74/74/74 80/80/80
f 73/73/73 80/80/80 79/79/79
f 74/74/74 75/75/75 81/81/81
f 74/74/74 81/81/81 80/80/80
f 75/75/75 76/76/76 82/82/82
f 75/75/75 82/82/82 81/81/81
f 76/76/76 77/77/77 83/83/83
f 76/76/76 83/83/83 82/82/82
f 77/77/77 78/78/78 84/84/84
f 77/77/77 84/84/84 83/83/83
f 79/79/79 80/80/80 86/86/86
f 79/79/79 86/86/86 85/85/85
f 80/80/80 81/81/81 87/87/87
f 80/80/80 87/87/87 86/86/86
f 81/81/81 82/82/82 88/88/88
f 81/81/81 88/88/88 87/87/87
f 82/82/82 83/83/83 89/89/89
f 82/82/82 89/89/89 88/88/88
f 83/83/83 84/84/84 90/90/90
f 83/83/83 90/90/90 89/89/89
f 85/85/85 86/86/86 92/92/92
f 85/85/85 92/92/92 91/91/91
f 86/86/86 87/87/87 93/93/93
f 86/86/86 93/93/93 92/92/92
f 87/87/87 88/88/88 94/94/94
f 87/87/87 94/94/94 93/93/93
f 88/88/88 89/89/89 95/95/95
f 88/88/88 95/95/95 94/94/94
f 89/89/89 90/90/90 96/96/96
f 89/89/89 96/96/96 95/95/95
f 91/91/91 92/92/92 98/98/98
f 91/91/91 98/98/98 97/97/97
f 92/92/92 93/93/93 99/99/99
f 92/92/92 99/99/99 98/98/98
f 93/93/93 94/94/94 100/100/100
f 93/93/93 100/100/100 99/99/99
f 94/94/94 95/95/95 101/101/101
f 94/94/94 101/101/101 100/100/100
f 95/95/95 96/96/96 102/102/102
f 95/95/95 102/102/102 101/101/101
f 97/97/97 98/98/98 104/104/104
f 97/97/97 104/104/104 103/103/103
f 98/98/98 99/99/99 105/105/105
f 98/98/98 105/105/105 104/104/104
f 99/99/99 100/100/100 106/106/106
f 99/99/99 106/106/106 105/105/105
f 100/100/100 101/101/101 107/107/107
f 100/100/100 107/107/107 106/106/106
f 101/101/101 102/102/102 108/108/108
f 101/101/101 108/108/108 107/107/107
f 109/109/109 110/110/110 116/116/116
f 109/109/109 116/116/116 115/115/115
f 110/110/110 111/111/111 117/117/117
f 110/110/110 117/117/117 116/116/116
f 111/111/111 112/112/112 118/118/118
f 111/111/111 118/118/118 117/117/117
f 112/112/112 113/113/113 119/119/119
f 112/112/112 119/119/119 118/118/118
f 113/113/113 114/114/114 120/120/120
f 113/113/113 120/120/120 119/119/119
f 115/115/115 116/116/116 122/122/122
f 115/115/115 122/122/122 121/121/121
f 116/116/116 117/117/117 123/123/123
f 116/116/116 123/123/123 122/122/122
f 117/117/117 118/118/118 124/124/124
f 117/117/117 124/124/124 123/123/123
f 118/118/118 119/119/119 125/125/125
f 118/118/118 125/125/125 124/124/124
f 119/119/119 120/120/120 126/126/126
f 119/119/119 126/126/126 125/125/125
f 121/121/121 122/122/122 128/128/128
f 121/121/121 128/128/128 127/127/127
f 122/122/122 123/123/123 129/129/129
f 122/122/122 129/129/129 128/128/128
f 123/123/123 124/124/124 130/130/130
f 123/123/123 130/130/130 129/129/129
f 124/124/124 125/125/125 131/131/131
f 124/124/124 131/131/131 130/130/130
f 125/125/125 126/126/126 132/132/132
f 125/125/125 132/132/132 131/131/131
f 127/127/127 128/128/128 134/134/134
f 127/127/127 134/134/134 133/133/133
f 128/128/128 129/129/129 135/135/135
f 128/128/128 135/135/135 134/134/134
f 129/129/129 130/130/130 136/136/136
f 129/129/129 136/136/136 135/135/135
f 130/130/130 131/131/131 137/137/137
f 130/130/130 137/137/137 136/136/136
f 131/131/131 132/132/132 138/138/138
f 131/131/131 138/138/138 137/137/137
f 133/133/133 134/134/134 140/140/140
f 133/133/133 140/140/140 139/139/139
f 134/134/134 135/135/135 141/141/141
f 134/134/134 141/141/141 140/140/140
f 135/135/135 136/136/136 142/142/142
f 135/135/135 142/142/142 141/141/141
f 136/136/136 137/137/137 143/143/143
f 136/136/136 143/143/143 142/142/142
f 137/137/137 138/138/138 144/144/144
f 137/137/137 144/144/144 143/143/143
f 145/145/145 146/146/146 152/152/152
f 145/145/145 152/152/152 151/151/151
f 146/146/146 147/147/147 153/153/153
f 146/146/146 153/153/153 152/152/152
f 147/147/147 148/148/148 154/154/154
f 147/147/147 154/154/154 153/153/153
f 148/148/148 149/149/149 155/155/155
f 148/148/148 155/155/155 154/154/154
f 149/149/149 150/150/150 156/156/156
f 149/149/149 156/156/156 155/155/155
f 151/151/151 152/152/152 158/158/158
f 151/151/151 158/158/158 157/157/157
f 152/152/152 153/153/153 159/159/159
f 152/152/152 159/159/159 158/158/158
f 153/153/153 154/154/154 160/160/160
f 153/153/153 160/160/160 159/159/159
f 154/154/154 155/155/155 161/161/161
f 154/154/154 161/161/161 160/160/160
f 155/155/155 156/156/156 162/162/162
f 155/155/155 162/162/162 161/161/161
f 157/157/157 158/158/158 164/164/164
f 157/157/157 164/164/164 163/163/163
f 158/158/158 159/159/159 165/165/165
f 158/158/158 165/165/165 164/164/164
f 159/159/159 160/160/160 166/166/166
f 159/159/159 166/166/166 165/165/165
f 160/160/160 161/161/161 167/167/167
f 160/160/160 167/167/167 166/166/166
f 161/161/161 162/162/162 168/168/168
f 161/161/161 168/168/168 167/167/167
f 163/163/163 164/164/164 170/170/170
f 163/163/163 170/170/170 169/169/169
f 164/164/164 165/165/165 171/171/171
f 164/164/164 171/171/171 170/170/170
f 165/165/165 166/166/166 172/172/172
f 165/165/165 172/172/172 171/171/171
f 166/166/166 167/167/167 173/173/173
f 166/166/166 173/173/173 172/172/172
f 167/167/167 168/168/168 174/174/174
f 167/167/167 174/174/174 173/173/173
f 169/169/169 170/170/170 176/176/176
f 169/169/169 176/176/176 175/175/175
f 170/170/170 171/171/171 177/177/177
f 170/170/170 177/177/177 176/176/176
f 171/171/171 172/172/172 178/178/178
f 171/171/171 178/178/178 177/177/177
f 172/172/172 173/173/173 179/179/179
f 172/172/172 179/179/179 178/178/178
f 173/173/173 174/174/174 180/180/180
f 173/173/173 180/180/180 179/179/179
f 181/181/181 182/182/182 188/188/188
f 181/181/181 188/188/188 187/187/187
f 182/182/182 183/183/183 189/189/189
f 182/182/182 189/189/189 188/188/188
f 183/183/183 184/184/184 190/190/190
f 183/183/183 190/190/190 189/189/189
f 184/184/184 185/185/185 191/191/191
f 184/184/184 191/191/191 190/190/190
f 185/185/185 186/186/186 192/192/192
f 185/185/185 192/192/192 191/191/191
f 187/187/187 188/188/188 194/194/194
f 187/187/187 194/194/194 193/193/193
f 188/188/188 189/189/189 195/195/195
f 188/188/188 195/195/195 194/194/194
f 189/189/189 190/190/190 196/196/196
f 189/189/189 196/196/196 195/195/195
f 190/190/190 191/191/191 197/197/197
f 190/190/190 197/197/197 196/196/196
f 191/191/191 192/192/192 198/198/198
f 191/191/191 198/198/198 197/197/197
f 193/193/193 194/194/194 200/200/200
f 193/193/193 200/200/200 199/199/199
f 194/194/194 195/195/195 201/201/201
f 194/194/194 201/201/201 200/200/200
f 195/195/195 196/196/196 202/202/202
f 195/195/195 202/202/202 201/201/201
f 196/196/196 197/197/197 203/203/203
f 196/196/196 203/203/203 202/202/202
f 197/197/197 198/198/198 204/204/204
f 197/197/197 204/204/204 203/203/203
f 199/199/199 200/200/200 206/206/206
f 199/199/199 206/206/206 205/205/205
f 200/200/200 201/201/201 207/207/207
f 200/200/200 207/207/207 206/206/206
f 201/201/201 202/202/202 208/208/208
f 201/201/201 208/208/208 207/207/207
f 202/202/202 203/203/203 209/209/209
f 202/202/202 209/209/209 208/208/208
f 203/203/203 204/204/204 210/210/210
f 203/203/203 210/210/210 209/209/209
f 205/205/205 206/206/206 212/212/212
f 205/205/205 212/212/212 211/211/211
f 206/206/206 207/207/207 213/213/213
f 206/206/206 213/213/213 212/212/212
f 207/207/207 208/208/208 214/214/214
f 207/207/207 214/214/214 213/213/213
f 208/208/208 209/209/209 215/215/215
f 208/208/208 215/215/215 214/214/214
f 209/209/209 210/210/210 216/216/216
f 209/209/209 216/216/216 215/215/215
f 217/217/217 218/218/218 225/225/225
f 217/217/217 225/225/225 224/224/224
f 218/218/218 219/219/219 226/226/226
f 218/218/218 226/226/226 225/225/225
f 219/219/219 220/220/220 227/227/227
f 219/219/219 227/227/227 226/226/226
f 220/220/220 221/221/221 228/228/228
f 220/220/220 228/228/228 227/227/227
f 221/221/221 222/222/222 229/229/229
f 221/221/221 229/229/229 228/228/228
f 222/222/222 223/223/223 230/230/230
f 222/222/222 230/230/230 229/229/229
f 224/224/224 225/225/225 232/232/232
f 224/224/224 232/232/232 231/231/231
f 225/225/225 226/226/226 233/233/233
f 225/225/225 233/233/233 232/232/232
f 226/226/226 227/227/227 234/234/234
f 226/226/226 234/234/234 233/233/233
f 227/227/227 228/228/228 235/235/235
f 227/227/227 235/235/235 234/234/234
f 228/228/228 229/229/229 236/236/236
f 228/228/228 236/236/236 235/235/235
f 229/229/229 230/230/230 237/237/237
f 229/229/229 237/237/237 236/236/236
f 231/231/231 232/232/232 239/239/239
f 231/231/231 239/239/239 238/238/238
f 232/232/232 233/233/233 240/240/240
f 232/232/232 240/240/240 239/239/239
f 233/233/233 234/234/234 241/241/241
f 233/233/233 241/241/241 240/240/240
f 234/234/234 235/235/235 242/242/242
f 234/234/234 242/242/242 241/241/241
f 235/235/235 236/236/236 243/243/243
f 235/235/235 243/243/243 242/242/242
f 236/236/236 237/237/237 244/244/244
f 236/236/236 244/244/244 243/243/243
f 238/238/238 239/239/239 246/246/246
f 238/238/238 246/246/246 245/245/245
f 239/239/239 240/240/240 247/247/247
f 239/239/239 247/247/247 246/246/246
f 240/240/240 241/241/241 248/248/248
f 240/240/240 248/248/248 247/247/247
f 241/241/241 242/242/242 249/249/249
f 241/241/241 249/249/249 248/248/248
f 242/242/242 243/243/243 250/250/250
f 242/242/242 250/250/250 249/249/249
f 243/243/243 244/244/244 251/251/251
f 243/243/243 251/251/251 250/250/250
f 245/245/245 246/246/246 253/253/253
f 245/245/245 253/253/253 252/252/252
f 246/246/246 247/247/247 254/254/254
f 246/246/246 254/254/254 253/253/253
f 247/247/247 248/248/248 255/255/255
f 247/247/247 255/255/255 254/254/254
f 248/248/248 249/249/249 256/256/256
f 248/248/248 256/256/256 255/255/255
f 249/249/249 250/250/250 257/257/257
f 249/249/249 257/257/257 256/256/256
f 250/250/250 251/251/251 258/258/258
f 250/250/250 258/258/258 257/257/257
f 252/252/252 253/253/253 260/260/260
f 252/252/252 260/260/260 259/259/259
f 253/253/253 254/254/254 261/261/261
f 253/253/253 261/261/261 260/260/260
f 254/254/254 255/255/255 262/262/262
f 254/254/254 262/262/262 261/261/261
f 255/255/255 256/256/256 263/263/263
f 255/255/255 263/263/263 262/262/262
f 256/256/256 257/257/257 264/264/264
f 256/256/256 264/264/264 263/263/263
f 257/257/257 258/258/258 265/265/265
f 257/257/257 265/265/265 264/264/264
f 266/266/266 274/274/274 267/267/267
f 266/266/266 273/273/273 274/274/274
f 267/267/267 275/275/275 268/268/268
f 267/267/267 274/274/274 275/275/275
f 268/268/268 276/276/276 269/269/269
f 268/268/268 275/275/275 276/276/276
f 269/269/269 277/277/277 270/270/270
f 269/269/269 276/276/276 277/277/277
f 270/270/270 278/278/278 271/271/271
f 270/270/270 277/277/277 278/278/278
f 271/271/271 279/279/279 272/272/272
f 271/271/271 278/278/278 279/279/279
f 273/273/273 281/281/281 274/274/274
f 273/273/273 280/280/280 281/281/281
f 274/274/274 282/282/282 275/275/275
f 274/274/274 281/281/281 282/282/282
f 275/275/275 283/283/283 276/276/276
f 275/275/275 282/282/282 283/283/283
f 276/276/276 284/284/284 277/277/277
f 276/276/276 283/283/283 284/284/284
f 277/277/277 285/285/285 278/278/278
f 277/277/277 284/284/284 285/285/285
f 278/278/278 286/286/286 279/279/279
f 278/278/278 285/285/285 286/286/286
f 280/280/280 288/288/288 281/281/281
f 280/280/280 287/287/287 288/288/288
f 281/281/281 289/289/289 282/282/282
f 281/281/281 288/288/288 289/289/289
f 282/282/282 290/290/290 283/283/283
f 282/282/282 289/289/289 290/290/290
f 283/283/283 291/291/291 284/284/284
f 283/283/283 290/290/290 291/291/291
f 284/284/284 292/292/292 285/285/285
f 284/284/284 291/291/291 292/292/292
f 285/285/285 293/293/293 286/286/286
f 285/285/285 292/292/292 293/293/293
f 287/287/287 295/295/295 288/288/288
f 287/287/287 294/294/294 295/295/295
f 288/288/288 296/296/296 289/289/289
f 288/288/288 295/295/295 296/296/296
f 289/289/289 297/297/297 290/290/290
f 289/289/289 296/296/296 297/297/297
f 290/290/290 298/298/298 291/291/291
f 290/290/290 297/297/297 298/298/298
f 291/291/291 299/299/299 292/292/292
f 291/291/291 298/298/298 299/299/299
f 292/292/292 300/300/300 293/293/293
f 292/292/292 299/299/299 300/300/300
f 294/294/294 302/302/302 295/295/295
f 294/294/294 301/301/301 302/302/302
f 295/295/295 303/303/303 296/296/296
f 295/295/295 302/302/302 303/303/303
f 296/296/296 304/304/304 297/297/297
f 296/296/296 303/303/303 304/304/304
f 297/297/297 305/305/305 298/298/298
f 297/297/297 304/304/304 305/305/305
f 298/298/298 306/306/306 299/299/299
f 298/298/298 305/305/305 306/306/306
f 299/299/299 307/307/307 300/300/300
f 299/299/299 306/306/306 307/307/307
f 301/301/301 309/309/309 302/302/302
f 301/301/301 308/308/308 309/309/309
f 302/302/302 310/310/310 303/303/303
f 302/302/302 309/309/309 310/310/310
f 303/303/303 311/311/311 304/304/304
f 303/303/303 310/310/310 311/311/311
f 304/304/304 312/312/312 305/305/305
f 304/304/304 311/311/311 312/312/312
f 305/305/305 313/313/313 306/306/306
f 305/305/305 312/312/312 313/313/313
f 306/306/306 314/314/314 307/307/307
f 306/306/306 313/313/313 314/314/314
f 315/315/315 316/316/316 317/317/317
f 315/315/315 317/317/317 318/318/318
f 319/319/319 320/320/320 321/321/321
f 319/319/319 321/321/321 322/322/322
f 323/323/323 324/324/324 325/325/325
f 323/323/323 325/325/325 326/326/326
f 327/327/327 328/328/328 329/329/329
f 327/327/327 329/329/329 330/330/330
f 331/331/331 332/332/332 333/333/333
f 331/331/331 333/333/333 334/334/334
f 335/335/335 336/336/336 337/337/337
f 335/335/335 337/337/337 338/338/338
usemtl metal
f 339/339/339 340/340/340 344/344/344
f 339/339/339 344/344/344 343/343/343
f 340/340/340 341/341/341 345/345/345
f 340/340/340 345/345/345 344/344/344
f 341/341/341 342/342/342 346/346/346
f 341/341/341 346/346/346 345/345/345
f 343/343/343 344/344/344 348/348/348
f 343/343/343 348/348/348 347/347/347
f 344/344/344 345/345/345 349/349/349
f 344/344/344 349/349/349 348/348/348
f 345/345/345 346/346/346 350/350/350
f 345/345/345 350/350/350 349/349/349
f 347/347/347 348/348/348 352/352/352
f 347/347/347 352/352/352 351/351/351
f 348/348/348 349/349/349 353/353/353
f 348/348/348 353/353/353 352/352/352
f 349/349/349 350/350/350 354/354/354
f 349/349/349 354/354/354 353/353/353
f 355/355/355 356/356/356 360/360/360
f 355/355/355 360/360/360 359/359/359
f 356/356/356 357/357/357 361/361/361
f 356/356/356 361/361/361 360/360/360
f 357/357/357 358/358/358 362/362/362
f 357/357/357 362/362/362 361/361/361
f 359/359/359 360/360/360 364/364/364
f 359/359/359 364/364/364 363/363/363
f 360/360/360 361/361/361 365/365/365
f 360/360/360 365/365/365 364/364/364
f 361/361/361 362/362/362 366/366/366
f 361/361/361 366/366/366 365/365/365
f 363/363/363 364/364/364 368/368/368
f 363/363/363 368/368/368 367/367/367
f 364/364/364 365/365/365 369/369/369
f 364/364/364 369/369/369 368/368/368
f 365/365/365 366/366/366 370/370/370
f 365/365/365 370/370/370 369/369/369
f 371/371/371 372/372/372 376/376/376
f 371/371/371 376/376/376 375/375/375
f 372/372/372 373/373/373 377/377/377
f 372/372/372 377/377/377 376/376/376
f 373/373/373 374/374/374 378/378/378
f 373/373/373 378/378/378 377/377/377
f 375/375/375 376/376/376 380/380/380
f 375/375/375 380/380/380 379/379/379
f 376/376/376 377/377/377 381/381/381
f 376/376/376 381/381/381 380/380/380
f 377/377/377 378/378/378 382/382/382
f 377/377/377 382/382/382 381/381/381
f 379/379/379 380/380/380 384/384/384
f 379/379/379 384/384/384 383/383/383
f 380/380/380 381/381/381 385/385/385
f 380/380/380 385/385/385 384/384/384
f 381/381/381 382/382/382 386/386/386
f 381/381/381 386/386/386 385/385/385
f 387/387/387 388/388/388 392/392/392
f 387/387/387 392/392/392 391/391/391
f 388/388/388 389/389/389 393/393/393
f 388/388/388 393/393/393 392/392/392
f 389/389/389 390/390/390 394/394/394
f 389/389/389 394/394/394 393/393/393
f 391/391/391 392/392/392 396/396/396
f 391/391/391 396/396/396 395/395/395
f 392/392/392 393/393/393 397/397/397
f 392/392/392 397/397/397 396/396/396
f 393/393/393 394/394/394 398/398/398
f 393/393/393 398/398/398 397/397/397
f 395/395/395 396/396/396 400/400/400
f 395/395/395 400/400/400 399/399/399
f 396/396/396 397/397/397 401/401/401
f 396/396/396 401/401/401 400/400/400
f 397/397/397 398/398/398 402/402/402
f 397/397/397 402/402/402 401/401/401
f 403/403/403 404/404/404 408/408/408
f 403/403/403 408/408/408 407/407/407
f 404/404/404 405/405/405 409/409/409
f 404/404/404 409/409/409 408/408/408
f 405/405/405 406/406/406 410/410/410
f 405/405/405 410/410/410 409/409/409
f 407/407/407 408/408/408 412/412/412
f 407/407/407 412/412/412 411/411/411
f 408/408/408 409/409/409 413/413/413
f 408/408/408 413/413/413 412/412/412
f 409/409/409 410/410/410 414/414/414
f 409/409/409 414/414/414 413/413/413
f 411/411/411 412/412/412 416/416/416
f 411/411/411 416/416/416 415/415/415
f 412/412/412 413/413/413 417/417/417
f 412/412/412 417/417/417 416/416/416
f 413/413/413 414/414/414 418/418/418
f 413/413/413 418/418/418 417/417/417
f 419/419/419 420/420/420 424/424/424
f 419/419/419 424/424/424 423/423/423
f 420/420/420 421/421/421 425/425/425
f 420/420/420 425/425/425 424/424/424
f 421/421/421 422/422/422 426/426/426
f 421/421/421 426/426/426 425/425/425
f 423/423/423 424/424/424 428/428/428
f 423/423/423 428/428/428 427/427/427
f 424/424/424 425/425/425 429/429/429
f 424/424/424 429/429/429 428/428/428
f 425/425/425 426/426/426 430/430/430
f 425/425/425 430/430/430 429/429/429
f 427/427/427 428/428/428 432/432/432
f 427/427/427 432/432/432 431/431/431
f 428/428/428 429/429/429 433/433/433
f 428/428/428 433/433/433 432/432/432
f 429/429/429 430/430/430 434/434/434
f 429/429/429 434/434/434 433/433/433
