# Sinh tự động bởi tools/mesh_kit.py - đừng sửa tay
o pz_tickets
v -0.0398 0.0040 0.0459
v -0.0102 0.0040 0.0508
v 0.0194 0.0040 0.0558
v -0.0343 0.0004 0.0130
v -0.0047 0.0004 0.0180
v 0.0248 0.0004 0.0229
v -0.0289 0.0004 -0.0199
v 0.0007 0.0004 -0.0149
v 0.0303 0.0004 -0.0100
v -0.0234 0.0040 -0.0527
v 0.0062 0.0040 -0.0478
v 0.0358 0.0040 -0.0429
v -0.0398 0.0040 0.0459
v -0.0102 0.0040 0.0508
v 0.0194 0.0040 0.0558
v -0.0343 0.0004 0.0130
v -0.0047 0.0004 0.0180
v 0.0248 0.0004 0.0229
v -0.0289 0.0004 -0.0199
v 0.0007 0.0004 -0.0149
v 0.0303 0.0004 -0.0100
v -0.0234 0.0040 -0.0527
v 0.0062 0.0040 -0.0478
v 0.0358 0.0040 -0.0429
v -0.0342 0.0056 0.0450
v -0.0043 0.0056 0.0476
v 0.0256 0.0056 0.0501
v -0.0314 0.0020 0.0118
v -0.0015 0.0020 0.0143
v 0.0284 0.0020 0.0169
v -0.0286 0.0020 -0.0214
v 0.0013 0.0020 -0.0189
v 0.0312 0.0020 -0.0164
v -0.0258 0.0056 -0.0546
v 0.0041 0.0056 -0.0521
v 0.0340 0.0056 -0.0496
v -0.0342 0.0056 0.0450
v -0.0043 0.0056 0.0476
v 0.0256 0.0056 0.0501
v -0.0314 0.0020 0.0118
v -0.0015 0.0020 0.0143
v 0.0284 0.0020 0.0169
v -0.0286 0.0020 -0.0214
v 0.0013 0.0020 -0.0189
v 0.0312 0.0020 -0.0164
v -0.0258 0.0056 -0.0546
v 0.0041 0.0056 -0.0521
v 0.0340 0.0056 -0.0496
v -0.0299 0.0072 0.0490
v 0.0001 0.0072 0.0501
v 0.0301 0.0072 0.0511
v -0.0287 0.0036 0.0157
v 0.0013 0.0036 0.0168
v 0.0313 0.0036 0.0178
v -0.0276 0.0036 -0.0176
v 0.0024 0.0036 -0.0166
v 0.0324 0.0036 -0.0155
v -0.0264 0.0072 -0.0509
v 0.0036 0.0072 -0.0499
v 0.0336 0.0072 -0.0488
v -0.0299 0.0072 0.0490
v 0.0001 0.0072 0.0501
v 0.0301 0.0072 0.0511
v -0.0287 0.0036 0.0157
v 0.0013 0.0036 0.0168
v 0.0313 0.0036 0.0178
v -0.0276 0.0036 -0.0176
v 0.0024 0.0036 -0.0166
v 0.0324 0.0036 -0.0155
v -0.0264 0.0072 -0.0509
v 0.0036 0.0072 -0.0499
v 0.0336 0.0072 -0.0488
v -0.0303 0.0088 0.0468
v -0.0003 0.0088 0.0460
v 0.0297 0.0088 0.0452
v -0.0311 0.0052 0.0135
v -0.0012 0.0052 0.0127
v 0.0288 0.0052 0.0119
v -0.0320 0.0052 -0.0199
v -0.0020 0.0052 -0.0206
v 0.0280 0.0052 -0.0214
v -0.0329 0.0088 -0.0532
v -0.0029 0.0088 -0.0540
v 0.0271 0.0088 -0.0547
v -0.0303 0.0088 0.0468
v -0.0003 0.0088 0.0460
v 0.0297 0.0088 0.0452
v -0.0311 0.0052 0.0135
v -0.0012 0.0052 0.0127
v 0.0288 0.0052 0.0119
v -0.0320 0.0052 -0.0199
v -0.0020 0.0052 -0.0206
v 0.0280 0.0052 -0.0214
v -0.0329 0.0088 -0.0532
v -0.0029 0.0088 -0.0540
v 0.0271 0.0088 -0.0547
v -0.0230 0.0104 0.0499
v 0.0068 0.0104 0.0462
v 0.0365 0.0104 0.0424
v -0.0272 0.0068 0.0168
v 0.0026 0.0068 0.0131
v 0.0324 0.0068 0.0093
v -0.0313 0.0068 -0.0162
v -0.0016 0.0068 -0.0200
v 0.0282 0.0068 -0.0237
v -0.0355 0.0104 -0.0493
v -0.0057 0.0104 -0.0531
v 0.0240 0.0104 -0.0568
v -0.0230 0.0104 0.0499
v 0.0068 0.0104 0.0462
v 0.0365 0.0104 0.0424
v -0.0272 0.0068 0.0168
v 0.0026 0.0068 0.0131
v 0.0324 0.0068 0.0093
v -0.0313 0.0068 -0.0162
v -0.0016 0.0068 -0.0200
v 0.0282 0.0068 -0.0237
v -0.0355 0.0104 -0.0493
v -0.0057 0.0104 -0.0531
v 0.0240 0.0104 -0.0568
v -0.0242 0.0120 0.0516
v 0.0055 0.0120 0.0474
v 0.0352 0.0120 0.0431
v -0.0289 0.0084 0.0186
v 0.0008 0.0084 0.0144
v 0.0305 0.0084 0.0101
v -0.0337 0.0084 -0.0144
v -0.0040 0.0084 -0.0186
v 0.0257 0.0084 -0.0229
v -0.0384 0.0120 -0.0474
v -0.0087 0.0120 -0.0516
v 0.0210 0.0120 -0.0559
v -0.0242 0.0120 0.0516
v 0.0055 0.0120 0.0474
v 0.0352 0.0120 0.0431
v -0.0289 0.0084 0.0186
v 0.0008 0.0084 0.0144
v 0.0305 0.0084 0.0101
v -0.0337 0.0084 -0.0144
v -0.0040 0.0084 -0.0186
v 0.0257 0.0084 -0.0229
v -0.0384 0.0120 -0.0474
v -0.0087 0.0120 -0.0516
v 0.0210 0.0120 -0.0559
v -0.0126 0.0136 0.0581
v 0.0163 0.0136 0.0501
v 0.0453 0.0136 0.0421
v -0.0215 0.0100 0.0260
v 0.0074 0.0100 0.0180
v 0.0363 0.0100 0.0100
v -0.0304 0.0100 -0.0061
v -0.0015 0.0100 -0.0142
v 0.0274 0.0100 -0.0222
v -0.0393 0.0136 -0.0383
v -0.0104 0.0136 -0.0463
v 0.0185 0.0136 -0.0543
v -0.0126 0.0136 0.0581
v 0.0163 0.0136 0.0501
v 0.0453 0.0136 0.0421
v -0.0215 0.0100 0.0260
v 0.0074 0.0100 0.0180
v 0.0363 0.0100 0.0100
v -0.0304 0.0100 -0.0061
v -0.0015 0.0100 -0.0142
v 0.0274 0.0100 -0.0222
v -0.0393 0.0136 -0.0383
v -0.0104 0.0136 -0.0463
v 0.0185 0.0136 -0.0543
vt 0.0000 0.0000
vt 0.5000 0.0000
vt 1.0000 0.0000
vt 0.0000 0.3333
vt 0.5000 0.3333
vt 1.0000 0.3333
vt 0.0000 0.6667
vt 0.5000 0.6667
vt 1.0000 0.6667
vt 0.0000 1.0000
vt 0.5000 1.0000
vt 1.0000 1.0000
vt 0.0000 0.0000
vt 0.5000 0.0000
vt 1.0000 0.0000
vt 0.0000 0.3333
vt 0.5000 0.3333
vt 1.0000 0.3333
vt 0.0000 0.6667
vt 0.5000 0.6667
vt 1.0000 0.6667
vt 0.0000 1.0000
vt 0.5000 1.0000
vt 1.0000 1.0000
vt 0.0000 0.0000
vt 0.5000 0.0000
vt 1.0000 0.0000
vt 0.0000 0.3333
vt 0.5000 0.3333
vt 1.0000 0.3333
vt 0.0000 0.6667
vt 0.5000 0.6667
vt 1.0000 0.6667
vt 0.0000 1.0000
vt 0.5000 1.0000
vt 1.0000 1.0000
vt 0.0000 0.0000
vt 0.5000 0.0000
vt 1.0000 0.0000
vt 0.0000 0.3333
vt 0.5000 0.3333
vt 1.0000 0.3333
vt 0.0000 0.6667
vt 0.5000 0.6667
vt 1.0000 0.6667
vt 0.0000 1.0000
vt 0.5000 1.0000
vt 1.0000 1.0000
vt 0.0000 0.0000
vt 0.5000 0.0000
vt 1.0000 0.0000
vt 0.0000 0.3333
vt 0.5000 0.3333
vt 1.0000 0.3333
vt 0.0000 0.6667
vt 0.5000 0.6667
vt 1.0000 0.6667
vt 0.0000 1.0000
vt 0.5000 1.0000
vt 1.0000 1.0000
vt 0.0000 0.0000
vt 0.5000 0.0000
vt 1.0000 0.0000
vt 0.0000 0.3333
vt 0.5000 0.3333
vt 1.0000 0.3333
vt 0.0000 0.6667
vt 0.5000 0.6667
vt 1.0000 0.6667
vt 0.0000 1.0000
vt 0.5000 1.0000
vt 1.0000 1.0000
vt 0.0000 0.0000
vt 0.5000 0.0000
vt 1.0000 0.0000
vt 0.0000 0.3333
vt 0.5000 0.3333
vt 1.0000 0.3333
vt 0.0000 0.6667
vt 0.5000 0.6667
vt 1.0000 0.6667
vt 0.0000 1.0000
vt 0.5000 1.0000
vt 1.0000 1.0000
vt 0.0000 0.0000
vt 0.5000 0.0000
vt 1.0000 0.0000
vt 0.0000 0.3333
vt 0.5000 0.3333
vt 1.0000 0.3333
vt 0.0000 0.6667
vt 0.5000 0.6667
vt 1.0000 0.6667
vt 0.0000 1.0000
vt 0.5000 1.0000
vt 1.0000 1.0000
vt 0.0000 0.0000
vt 0.5000 0.0000
vt 1.0000 0.0000
vt 0.0000 0.3333
vt 0.5000 0.3333
vt 1.0000 0.3333
vt 0.0000 0.6667
vt 0.5000 0.6667
vt 1.0000 0.6667
vt 0.0000 1.0000
vt 0.5000 1.0000
vt 1.0000 1.0000
vt 0.0000 0.0000
vt 0.5000 0.0000
vt 1.0000 0.0000
vt 0.0000 0.3333
vt 0.5000 0.3333
vt 1.0000 0.3333
vt 0.0000 0.6667
vt 0.5000 0.6667
vt 1.0000 0.6667
vt 0.0000 1.0000
vt 0.5000 1.0000
vt 1.0000 1.0000
vt 0.0000 0.0000
vt 0.5000 0.0000
vt 1.0000 0.0000
vt 0.0000 0.3333
vt 0.5000 0.3333
vt 1.0000 0.3333
vt 0.0000 0.6667
vt 0.5000 0.6667
vt 1.0000 0.6667
vt 0.0000 1.0000
vt 0.5000 1.0000
vt 1.0000 1.0000
vt 0.0000 0.0000
vt 0.5000 0.0000
vt 1.0000 0.0000
vt 0.0000 0.3333
vt 0.5000 0.3333
vt 1.0000 0.3333
vt 0.0000 0.6667
vt 0.5000 0.6667
vt 1.0000 0.6667
vt 0.0000 1.0000
vt 0.5000 1.0000
vt 1.0000 1.0000
vt 0.0000 0.0000
vt 0.5000 0.0000
vt 1.0000 0.0000
vt 0.0000 0.3333
vt 0.5000 0.3333
vt 1.0000 0.3333
vt 0.0000 0.6667
vt 0.5000 0.6667
vt 1.0000 0.6667
vt 0.0000 1.0000
vt 0.5000 1.0000
vt 1.0000 1.0000
vt 0.0000 0.0000
vt 0.5000 0.0000
vt 1.0000 0.0000
vt 0.0000 0.3333
vt 0.5000 0.3333
vt 1.0000 0.3333
vt 0.0000 0.6667
vt 0.5000 0.6667
vt 1.0000 0.6667
vt 0.0000 1.0000
vt 0.5000 1.0000
vt 1.0000 1.0000
vn -0.017 -0.994 0.105
vn -0.017 -0.994 0.105
vn -0.017 -0.994 0.105
vn -0.009 -0.999 0.053
vn -0.009 -0.999 0.053
vn -0.009 -0.999 0.053
vn 0.009 -0.999 -0.053
vn 0.009 -0.999 -0.053
vn 0.009 -0.999 -0.053
vn 0.017 -0.994 -0.105
vn 0.017 -0.994 -0.105
vn 0.017 -0.994 -0.105
vn 0.017 0.994 -0.105
vn 0.017 0.994 -0.105
vn 0.017 0.994 -0.105
vn 0.009 0.999 -0.053
vn 0.009 0.999 -0.053
vn 0.009 0.999 -0.053
vn -0.009 0.999 0.053
vn -0.009 0.999 0.053
vn -0.009 0.999 0.053
vn -0.017 0.994 0.105
vn -0.017 0.994 0.105
vn -0.017 0.994 0.105
vn -0.009 -0.994 0.106
vn -0.009 -0.994 0.106
vn -0.009 -0.994 0.106
vn -0.004 -0.999 0.053
vn -0.004 -0.999 0.053
vn -0.004 -0.999 0.053
vn 0.004 -0.999 -0.053
vn 0.004 -0.999 -0.053
vn 0.004 -0.999 -0.053
vn 0.009 -0.994 -0.106
vn 0.009 -0.994 -0.106
vn 0.009 -0.994 -0.106
vn 0.009 0.994 -0.106
vn 0.009 0.994 -0.106
vn 0.009 0.994 -0.106
vn 0.004 0.999 -0.053
vn 0.004 0.999 -0.053
vn 0.004 0.999 -0.053
vn -0.004 0.999 0.053
vn -0.004 0.999 0.053
vn -0.004 0.999 0.053
vn -0.009 0.994 0.106
vn -0.009 0.994 0.106
vn -0.009 0.994 0.106
vn -0.004 -0.994 0.106
vn -0.004 -0.994 0.106
vn -0.004 -0.994 0.106
vn -0.002 -0.999 0.053
vn -0.002 -0.999 0.053
vn -0.002 -0.999 0.053
vn 0.002 -0.999 -0.053
vn 0.002 -0.999 -0.053
vn 0.002 -0.999 -0.053
vn 0.004 -0.994 -0.106
vn 0.004 -0.994 -0.106
vn 0.004 -0.994 -0.106
vn 0.004 0.994 -0.106
vn 0.004 0.994 -0.106
vn 0.004 0.994 -0.106
vn 0.002 0.999 -0.053
vn 0.002 0.999 -0.053
vn 0.002 0.999 -0.053
vn -0.002 0.999 0.053
vn -0.002 0.999 0.053
vn -0.002 0.999 0.053
vn -0.004 0.994 0.106
vn -0.004 0.994 0.106
vn -0.004 0.994 0.106
vn 0.003 -0.994 0.106
vn 0.003 -0.994 0.106
vn 0.003 -0.994 0.106
vn 0.001 -0.999 0.053
vn 0.001 -0.999 0.053
vn 0.001 -0.999 0.053
vn -0.001 -0.999 -0.053
vn -0.001 -0.999 -0.053
vn -0.001 -0.999 -0.053
vn -0.003 -0.994 -0.106
vn -0.003 -0.994 -0.106
vn -0.003 -0.994 -0.106
vn -0.003 0.994 -0.106
vn -0.003 0.994 -0.106
vn -0.003 0.994 -0.106
vn -0.001 0.999 -0.053
vn -0.001 0.999 -0.053
vn -0.001 0.999 -0.053
vn 0.001 0.999 0.053
vn 0.001 0.999 0.053
vn 0.001 0.999 0.053
vn 0.003 0.994 0.106
vn 0.003 0.994 0.106
vn 0.003 0.994 0.106
vn 0.013 -0.994 0.105
vn 0.013 -0.994 0.105
vn 0.013 -0.994 0.105
vn 0.007 -0.999 0.053
vn 0.007 -0.999 0.053
vn 0.007 -0.999 0.053
vn -0.007 -0.999 -0.053
vn -0.007 -0.999 -0.053
vn -0.007 -0.999 -0.053
vn -0.013 -0.994 -0.105
vn -0.013 -0.994 -0.105
vn -0.013 -0.994 -0.105
vn -0.013 0.994 -0.105
vn -0.013 0.994 -0.105
vn -0.013 0.994 -0.105
vn -0.007 0.999 -0.053
vn -0.007 0.999 -0.053
vn -0.007 0.999 -0.053
vn 0.007 0.999 0.053
vn 0.007 0.999 0.053
vn 0.007 0.999 0.053
vn 0.013 0.994 0.105
vn 0.013 0.994 0.105
vn 0.013 0.994 0.105
vn 0.015 -0.994 0.105
vn 0.015 -0.994 0.105
vn 0.015 -0.994 0.105
vn 0.008 -0.999 0.053
vn 0.008 -0.999 0.053
vn 0.008 -0.999 0.053
vn -0.008 -0.999 -0.053
vn -0.008 -0.999 -0.053
vn -0.008 -0.999 -0.053
vn -0.015 -0.994 -0.105
vn -0.015 -0.994 -0.105
vn -0.015 -0.994 -0.105
vn -0.015 0.994 -0.105
vn -0.015 0.994 -0.105
vn -0.015 0.994 -0.105
vn -0.008 0.999 -0.053
vn -0.008 0.999 -0.053
vn -0.008 0.999 -0.053
vn 0.008 0.999 0.053
vn 0.008 0.999 0.053
vn 0.008 0.999 0.053
vn 0.015 0.994 0.105
vn 0.015 0.994 0.105
vn 0.015 0.994 0.105
vn 0.028 -0.994 0.102
vn 0.028 -0.994 0.102
vn 0.028 -0.994 0.102
vn 0.014 -0.999 0.051
vn 0.014 -0.999 0.051
vn 0.014 -0.999 0.051
vn -0.014 -0.999 -0.051
vn -0.014 -0.999 -0.051
vn -0.014 -0.999 -0.051
vn -0.028 -0.994 -0.102
vn -0.028 -0.994 -0.102
vn -0.028 -0.994 -0.102
vn -0.028 0.994 -0.102
vn -0.028 0.994 -0.102
vn -0.028 0.994 -0.102
vn -0.014 0.999 -0.051
vn -0.014 0.999 -0.051
vn -0.014 0.999 -0.051
vn 0.014 0.999 0.051
vn 0.014 0.999 0.051
vn 0.014 0.999 0.051
vn 0.028 0.994 0.102
vn 0.028 0.994 0.102
vn 0.028 0.994 0.102
v -0.0295 0.0130 -0.0200
v -0.0310 0.0130 -0.0185
v -0.0325 0.0130 -0.0200
v -0.0310 0.0130 -0.0215
v -0.0295 0.0130 -0.0200
v -0.0306 -0.0005 -0.0200
v -0.0310 -0.0020 -0.0185
v -0.0314 -0.0035 -0.0200
v -0.0310 -0.0020 -0.0215
v -0.0306 -0.0005 -0.0200
v 0.0306 -0.0005 -0.0200
v 0.0310 -0.0020 -0.0185
v 0.0314 -0.0035 -0.0200
v 0.0310 -0.0020 -0.0215
v 0.0306 -0.0005 -0.0200
v 0.0314 0.0145 -0.0200
v 0.0310 0.0130 -0.0215
v 0.0306 0.0115 -0.0200
v 0.0310 0.0130 -0.0185
v 0.0314 0.0145 -0.0200
v -0.0310 0.0145 -0.0200
v -0.0310 0.0130 -0.0215
v -0.0310 0.0115 -0.0200
v -0.0310 0.0130 -0.0185
v -0.0310 0.0145 -0.0200
v -0.0310 0.0130 -0.0200
v -0.0295 0.0130 -0.0200
v -0.0310 0.0130 -0.0185
v -0.0325 0.0130 -0.0200
v -0.0310 0.0130 -0.0215
v -0.0310 0.0130 -0.0200
v -0.0310 0.0145 -0.0200
v -0.0310 0.0130 -0.0215
v -0.0310 0.0115 -0.0200
v -0.0310 0.0130 -0.0185
vt 0.0000 0.0000
vt 0.0000 0.0024
vt 0.0000 0.0047
vt 0.0000 0.0071
vt 0.0000 0.0094
vt 0.0150 0.0000
vt 0.0150 0.0024
vt 0.0150 0.0047
vt 0.0150 0.0071
vt 0.0150 0.0094
vt 0.0770 0.0000
vt 0.0770 0.0024
vt 0.0770 0.0047
vt 0.0770 0.0071
vt 0.0770 0.0094
vt 0.0920 0.0000
vt 0.0920 0.0024
vt 0.0920 0.0047
vt 0.0920 0.0071
vt 0.0920 0.0094
vt 0.1540 0.0000
vt 0.1540 0.0024
vt 0.1540 0.0047
vt 0.1540 0.0071
vt 0.1540 0.0094
vt 0.0000 0.0000
vt 0.0015 0.0000
vt 0.0000 0.0015
vt -0.0015 0.0000
vt -0.0000 -0.0015
vt 0.0000 0.0000
vt 0.0015 0.0000
vt 0.0000 0.0015
vt -0.0015 0.0000
vt -0.0000 -0.0015
vn 1.000 0.000 0.000
vn 0.000 0.000 1.000
vn -1.000 0.000 0.000
vn -0.000 -0.000 -1.000
vn 1.000 0.000 -0.000
vn 0.235 0.972 0.000
vn 0.000 0.000 1.000
vn -0.235 -0.972 0.000
vn -0.000 -0.000 -1.000
vn 0.235 0.972 -0.000
vn -0.235 0.972 0.000
vn -0.000 0.000 1.000
vn 0.235 -0.972 0.000
vn 0.000 -0.000 -1.000
vn -0.235 0.972 -0.000
vn 0.235 0.972 0.000
vn 0.000 0.000 -1.000
vn -0.235 -0.972 -0.000
vn -0.000 -0.000 1.000
vn 0.235 0.972 0.000
vn 0.000 1.000 0.000
vn 0.000 0.000 -1.000
vn 0.000 -1.000 -0.000
vn -0.000 -0.000 1.000
vn 0.000 1.000 0.000
vn -0.000 1.000 -0.000
vn -0.000 1.000 -0.000
vn -0.000 1.000 -0.000
vn -0.000 1.000 -0.000
vn -0.000 1.000 -0.000
vn -1.000 0.000 0.000
vn -1.000 0.000 0.000
vn -1.000 0.000 0.000
vn -1.000 0.000 0.000
vn -1.000 0.000 0.000
usemtl ticket
f 1/1/1 5/5/5 2/2/2
f 1/1/1 4/4/4 5/5/5
f 2/2/2 6/6/6 3/3/3
f 2/2/2 5/5/5 6/6/6
f 4/4/4 8/8/8 5/5/5
f 4/4/4 7/7/7 8/8/8
f 5/5/5 9/9/9 6/6/6
f 5/5/5 8/8/8 9/9/9
f 7/7/7 11/11/11 8/8/8
f 7/7/7 10/10/10 11/11/11
f 8/8/8 12/12/12 9/9/9
f 8/8/8 11/11/11 12/12/12
f 13/13/13 14/14/14 17/17/17
f 13/13/13 17/17/17 16/16/16
f 14/14/14 15/15/15 18/18/18
f 14/14/14 18/18/18 17/17/17
f 16/16/16 17/17/17 20/20/20
f 16/16/16 20/20/20 19/19/19
f 17/17/17 18/18/18 21/21/21
f 17/17/17 21/21/21 20/20/20
f 19/19/19 20/20/20 23/23/23
f 19/19/19 23/23/23 22/22/22
f 20/20/20 21/21/21 24/24/24
f 20/20/20 24/24/24 23/23/23
f 25/25/25 29/29/29 26/26/26
f 25/25/25 28/28/28 29/29/29
f 26/26/26 30/30/30 27/27/27
f 26/26/26 29/29/29 30/30/30
f 28/28/28 32/32/32 29/29/29
f 28/28/28 31/31/31 32/32/32
f 29/29/29 33/33/33 30/30/30
f 29/29/29 32/32/32 33/33/33
f 31/31/31 35/35/35 32/32/32
f 31/31/31 34/34/34 35/35/35
f 32/32/32 36/36/36 33/33/33
f 32/32/32 35/35/35 36/36/36
f 37/37/37 38/38/38 41/41/41
f 37/37/37 41/41/41 40/40/40
f 38/38/38 39/39/39 42/42/42
f 38/38/38 42/42/42 41/41/41
f 40/40/40 41/41/41 44/44/44
f 40/40/40 44/44/44 43/43/43
f 41/41/41 42/42/42 45/45/45
f 41/41/41 45/45/45 44/44/44
f 43/43/43 44/44/44 47/47/47
f 43/43/43 47/47/47 46/46/46
f 44/44/44 45/45/45 48/48/48
f 44/44/44 48/48/48 47/47/47
f 49/49/49 53/53/53 50/50/50
f 49/49/49 52/52/52 53/53/53
f 50/50/50 54/54/54 51/51/51
f 50/50/50 53/53/53 54/54/54
f 52/52/52 56/56/56 53/53/53
f 52/52/52 55/55/55 56/56/56
f 53/53/53 57/57/57 54/54/54
f 53/53/53 56/56/56 57/57/57
f 55/55/55 59/59/59 56/56/56
f 55/55/55 58/58/58 59/59/59
f 56/56/56 60/60/60 57/57/57
f 56/56/56 59/59/59 60/60/60
f 61/61/61 62/62/62 65/65/65
f 61/61/61 65/65/65 64/64/64
f 62/62/62 63/63/63 66/66/66
f 62/62/62 66/66/66 65/65/65
f 64/64/64 65/65/65 68/68/68
f 64/64/64 68/68/68 67/67/67
f 65/65/65 66/66/66 69/69/69
f 65/65/65 69/69/69 68/68/68
f 67/67/67 68/68/68 71/71/71
f 67/67/67 71/71/71 70/70/70
f 68/68/68 69/69/69 72/72/72
f 68/68/68 72/72/72 71/71/71
f 73/73/73 77/77/77 74/74/74
f 73/73/73 76/76/76 77/77/77
f 74/74/74 78/78/78 75/75/75
f 74/74/74 77/77/77 78/78/78
f 76/76/76 80/80/80 77/77/77
f 76/76/76 79/79/79 80/80/80
f 77/77/77 81/81/81 78/78/78
f 77/77/77 80/80/80 81/81/81
f 79/79/79 83/83/83 80/80/80
f 79/79/79 82/82/82 83/83/83
f 80/80/80 84/84/84 81/81/81
f 80/80/80 83/83/83 84/84/84
f 85/85/85 86/86/86 89/89/89
f 85/85/85 89/89/89 88/88/88
f 86/86/86 87/87/87 90/90/90
f 86/86/86 90/90/90 89/89/89
f 88/88/88 89/89/89 92/92/92
f 88/88/88 92/92/92 91/91/91
f 89/89/89 90/90/90 93/93/93
f 89/89/89 93/93/93 92/92/92
f 91/91/91 92/92/92 95/95/95
f 91/91/91 95/95/95 94/94/94
f 92/92/92 93/93/93 96/96/96
f 92/92/92 96/96/96 95/95/95
f 97/97/97 101/101/101 98/98/98
f 97/97/97 100/100/100 101/101/101
f 98/98/98 102/102/102 99/99/99
f 98/98/98 101/101/101 102/102/102
f 100/100/100 104/104/104 101/101/101
f 100/100/100 103/103/103 104/104/104
f 101/101/101 105/105/105 102/102/102
f 101/101/101 104/104/104 105/105/105
f 103/103/103 107/107/107 104/104/104
f 103/103/103 106/106/106 107/107/107
f 104/104/104 108/108/108 105/105/105
f 104/104/104 107/107/107 108/108/108
f 109/109/109 110/110/110 113/113/113
f 109/109/109 113/113/113 112/112/112
f 110/110/110 111/111/111 114/114/114
f 110/110/110 114/114/114 113/113/113
f 112/112/112 113/113/113 116/116/116
f 112/112/112 116/116/116 115/115/115
f 113/113/113 114/114/114 117/117/117
f 113/113/113 117/117/117 116/116/116
f 115/115/115 116/116/116 119/119/119
f 115/115/115 119/119/119 118/118/118
f 116/116/116 117/117/117 120/120/120
f 116/116/116 120/120/120 119/119/119
f 121/121/121 125/125/125 122/122/122
f 121/121/121 124/124/124 125/125/125
f 122/122/122 126/126/126 123/123/123
f 122/122/122 125/125/125 126/126/126
f 124/124/124 128/128/128 125/125/125
f 124/124/124 127/127/127 128/128/128
f 125/125/125 129/129/129 126/126/126
f 125/125/125 128/128/128 129/129/129
f 127/127/127 131/131/131 128/128/128
f 127/127/127 130/130/130 131/131/131
f 128/128/128 132/132/132 129/129/129
f 128/128/128 131/131/131 132/132/132
f 133/133/133 134/134/134 137/137/137
f 133/133/133 137/137/137 136/136/136
f 134/134/134 135/135/135 138/138/138
f 134/134/134 138/138/138 137/137/137
f 136/136/136 137/137/137 140/140/140
f 136/136/136 140/140/140 139/139/139
f 137/137/137 138/138/138 141/141/141
f 137/137/137 141/141/141 140/140/140
f 139/139/139 140/140/140 143/143/143
f 139/139/139 143/143/143 142/142/142
f 140/140/140 141/141/141 144/144/144
f 140/140/140 144/144/144 143/143/143
f 145/145/145 149/149/149 146/146/146
f 145/145/145 148/148/148 149/149/149
f 146/146/146 150/150/150 147/147/147
f 146/146/146 149/149/149 150/150/150
f 148/148/148 152/152/152 149/149/149
f 148/148/148 151/151/151 152/152/152
f 149/149/149 153/153/153 150/150/150
f 149/149/149 152/152/152 153/153/153
f 151/151/151 155/155/155 152/152/152
f 151/151/151 154/154/154 155/155/155
f 152/152/152 156/156/156 153/153/153
f 152/152/152 155/155/155 156/156/156
f 157/157/157 158/158/158 161/161/161
f 157/157/157 161/161/161 160/160/160
f 158/158/158 159/159/159 162/162/162
f 158/158/158 162/162/162 161/161/161
f 160/160/160 161/161/161 164/164/164
f 160/160/160 164/164/164 163/163/163
f 161/161/161 162/162/162 165/165/165
f 161/161/161 165/165/165 164/164/164
f 163/163/163 164/164/164 167/167/167
f 163/163/163 167/167/167 166/166/166
f 164/164/164 165/165/165 168/168/168
f 164/164/164 168/168/168 167/167/167
usemtl band
f 169/169/169 170/170/170 175/175/175
f 169/169/169 175/175/175 174/174/174
f 170/170/170 171/171/171 176/176/176
f 170/170/170 176/176/176 175/175/175
f 171/171/171 172/172/172 177/177/177
f 171/171/171 177/177/177 176/176/176
f 172/172/172 173/173/173 178/178/178
f 172/172/172 178/178/178 177/177/177
f 174/174/174 175/175/175 180/180/180
f 174/174/174 180/180/180 179/179/179
f 175/175/175 176/176/176 181/181/181
f 175/175/175 181/181/181 180/180/180
f 176/176/176 177/177/177 182/182/182
f 176/176/176 182/182/182 181/181/181
f 177/177/177 178/178/178 183/183/183
f 177/177/177 183/183/183 182/182/182
f 179/179/179 180/180/180 185/185/185
f 179/179/179 185/185/185 184/184/184
f 180/180/180 181/181/181 186/186/186
f 180/180/180 186/186/186 185/185/185
f 181/181/181 182/182/182 187/187/187
f 181/181/181 187/187/187 186/186/186
f 182/182/182 183/183/183 188/188/188
f 182/182/182 188/188/188 187/187/187
f 184/184/184 185/185/185 190/190/190
f 184/184/184 190/190/190 189/189/189
f 185/185/185 186/186/186 191/191/191
f 185/185/185 191/191/191 190/190/190
f 186/186/186 187/187/187 192/192/192
f 186/186/186 192/192/192 191/191/191
f 187/187/187 188/188/188 193/193/193
f 187/187/187 193/193/193 192/192/192
f 194/194/194 196/196/196 195/195/195
f 194/194/194 197/197/197 196/196/196
f 194/194/194 198/198/198 197/197/197
f 194/194/194 195/195/195 198/198/198
f 199/199/199 200/200/200 201/201/201
f 199/199/199 201/201/201 202/202/202
f 199/199/199 202/202/202 203/203/203
f 199/199/199 203/203/203 200/200/200
