# Sinh tự động bởi tools/mesh_kit.py - đừng sửa tay
o pz_thermos
v 0.0450 -0.1200 -0.0000
v 0.0450 0.0800 -0.0000
v 0.0439 -0.1200 -0.0100
v 0.0439 0.0800 -0.0100
v 0.0405 -0.1200 -0.0195
v 0.0405 0.0800 -0.0195
v 0.0352 -0.1200 -0.0281
v 0.0352 0.0800 -0.0281
v 0.0281 -0.1200 -0.0352
v 0.0281 0.0800 -0.0352
v 0.0195 -0.1200 -0.0405
v 0.0195 0.0800 -0.0405
v 0.0100 -0.1200 -0.0439
v 0.0100 0.0800 -0.0439
v 0.0000 -0.1200 -0.0450
v 0.0000 0.0800 -0.0450
v -0.0100 -0.1200 -0.0439
v -0.0100 0.0800 -0.0439
v -0.0195 -0.1200 -0.0405
v -0.0195 0.0800 -0.0405
v -0.0281 -0.1200 -0.0352
v -0.0281 0.0800 -0.0352
v -0.0352 -0.1200 -0.0281
v -0.0352 0.0800 -0.0281
v -0.0405 -0.1200 -0.0195
v -0.0405 0.0800 -0.0195
v -0.0439 -0.1200 -0.0100
v -0.0439 0.0800 -0.0100
v -0.0450 -0.1200 -0.0000
v -0.0450 0.0800 -0.0000
v -0.0439 -0.1200 0.0100
v -0.0439 0.0800 0.0100
v -0.0405 -0.1200 0.0195
v -0.0405 0.0800 0.0195
v -0.0352 -0.1200 0.0281
v -0.0352 0.0800 0.0281
v -0.0281 -0.1200 0.0352
v -0.0281 0.0800 0.0352
v -0.0195 -0.1200 0.0405
v -0.0195 0.0800 0.0405
v -0.0100 -0.1200 0.0439
v -0.0100 0.0800 0.0439
v -0.0000 -0.1200 0.0450
v -0.0000 0.0800 0.0450
v 0.0100 -0.1200 0.0439
v 0.0100 0.0800 0.0439
v 0.0195 -0.1200 0.0405
v 0.0195 0.0800 0.0405
v 0.0281 -0.1200 0.0352
v 0.0281 0.0800 0.0352
v 0.0352 -0.1200 0.0281
v 0.0352 0.0800 0.0281
v 0.0405 -0.1200 0.0195
v 0.0405 0.0800 0.0195
v 0.0439 -0.1200 0.0100
v 0.0439 0.0800 0.0100
v 0.0450 -0.1200 0.0000
v 0.0450 0.0800 0.0000
vt 0.0000 0.0000
vt 0.0000 0.2000
vt 0.0101 0.0000
vt 0.0101 0.2000
vt 0.0202 0.0000
vt 0.0202 0.2000
vt 0.0303 0.0000
vt 0.0303 0.2000
vt 0.0404 0.0000
vt 0.0404 0.2000
vt 0.0505 0.0000
vt 0.0505 0.2000
vt 0.0606 0.0000
vt 0.0606 0.2000
vt 0.0707 0.0000
vt 0.0707 0.2000
vt 0.0808 0.0000
vt 0.0808 0.2000
vt 0.0909 0.0000
vt 0.0909 0.2000
vt 0.1010 0.0000
vt 0.1010 0.2000
vt 0.1111 0.0000
vt 0.1111 0.2000
vt 0.1212 0.0000
vt 0.1212 0.2000
vt 0.1313 0.0000
vt 0.1313 0.2000
vt 0.1414 0.0000
vt 0.1414 0.2000
vt 0.1515 0.0000
vt 0.1515 0.2000
vt 0.1616 0.0000
vt 0.1616 0.2000
vt 0.1717 0.0000
vt 0.1717 0.2000
vt 0.1818 0.0000
vt 0.1818 0.2000
vt 0.1919 0.0000
vt 0.1919 0.2000
vt 0.2020 0.0000
vt 0.2020 0.2000
vt 0.2121 0.0000
vt 0.2121 0.2000
vt 0.2222 0.0000
vt 0.2222 0.2000
vt 0.2323 0.0000
vt 0.2323 0.2000
vt 0.2424 0.0000
vt 0.2424 0.2000
vt 0.2524 0.0000
vt 0.2524 0.2000
vt 0.2625 0.0000
vt 0.2625 0.2000
vt 0.2726 0.0000
vt 0.2726 0.2000
vt 0.2827 0.0000
vt 0.2827 0.2000
vn 1.000 -0.000 -0.000
vn 1.000 -0.000 -0.000
vn 0.975 -0.000 -0.223
vn 0.975 -0.000 -0.223
vn 0.901 -0.000 -0.434
vn 0.901 -0.000 -0.434
vn 0.782 -0.000 -0.623
vn 0.782 -0.000 -0.623
vn 0.623 -0.000 -0.782
vn 0.623 -0.000 -0.782
vn 0.434 -0.000 -0.901
vn 0.434 -0.000 -0.901
vn 0.223 -0.000 -0.975
vn 0.223 -0.000 -0.975
vn 0.000 -0.000 -1.000
vn 0.000 -0.000 -1.000
vn -0.223 -0.000 -0.975
vn -0.223 -0.000 -0.975
vn -0.434 -0.000 -0.901
vn -0.434 -0.000 -0.901
vn -0.623 -0.000 -0.782
vn -0.623 -0.000 -0.782
vn -0.782 -0.000 -0.623
vn -0.782 -0.000 -0.623
vn -0.901 -0.000 -0.434
vn -0.901 -0.000 -0.434
vn -0.975 -0.000 -0.223
vn -0.975 -0.000 -0.223
vn -1.000 -0.000 -0.000
vn -1.000 -0.000 -0.000
vn -0.975 -0.000 0.223
vn -0.975 -0.000 0.223
vn -0.901 -0.000 0.434
vn -0.901 -0.000 0.434
vn -0.782 -0.000 0.623
vn -0.782 -0.000 0.623
vn -0.623 -0.000 0.782
vn -0.623 -0.000 0.782
vn -0.434 -0.000 0.901
vn -0.434 -0.000 0.901
vn -0.223 -0.000 0.975
vn -0.223 -0.000 0.975
vn -0.000 -0.000 1.000
vn -0.000 -0.000 1.000
vn 0.223 -0.000 0.975
vn 0.223 -0.000 0.975
vn 0.434 -0.000 0.901
vn 0.434 -0.000 0.901
vn 0.623 -0.000 0.782
vn 0.623 -0.000 0.782
vn 0.782 -0.000 0.623
vn 0.782 -0.000 0.623
vn 0.901 -0.000 0.434
vn 0.901 -0.000 0.434
vn 0.975 -0.000 0.223
vn 0.975 -0.000 0.223
vn 1.000 -0.000 0.000
vn 1.000 -0.000 0.000
v 0.0000 -0.1400 -0.0000
v 0.0410 -0.1400 -0.0000
v 0.0470 -0.1340 -0.0000
v 0.0470 -0.1200 -0.0000
v 0.0450 -0.1180 -0.0000
v 0.0000 -0.1400 -0.0000
v 0.0400 -0.1400 -0.0091
v 0.0458 -0.1340 -0.0105
v 0.0458 -0.1200 -0.0105
v 0.0439 -0.1180 -0.0100
v 0.0000 -0.1400 -0.0000
v 0.0369 -0.1400 -0.0178
v 0.0423 -0.1340 -0.0204
v 0.0423 -0.1200 -0.0204
v 0.0405 -0.1180 -0.0195
v 0.0000 -0.1400 -0.0000
v 0.0321 -0.1400 -0.0256
v 0.0367 -0.1340 -0.0293
v 0.0367 -0.1200 -0.0293
v 0.0352 -0.1180 -0.0281
v 0.0000 -0.1400 -0.0000
v 0.0256 -0.1400 -0.0321
v 0.0293 -0.1340 -0.0367
v 0.0293 -0.1200 -0.0367
v 0.0281 -0.1180 -0.0352
v 0.0000 -0.1400 -0.0000
v 0.0178 -0.1400 -0.0369
v 0.0204 -0.1340 -0.0423
v 0.0204 -0.1200 -0.0423
v 0.0195 -0.1180 -0.0405
v 0.0000 -0.1400 -0.0000
v 0.0091 -0.1400 -0.0400
v 0.0105 -0.1340 -0.0458
v 0.0105 -0.1200 -0.0458
v 0.0100 -0.1180 -0.0439
v 0.0000 -0.1400 -0.0000
v 0.0000 -0.1400 -0.0410
v 0.0000 -0.1340 -0.0470
v 0.0000 -0.1200 -0.0470
v 0.0000 -0.1180 -0.0450
v -0.0000 -0.1400 -0.0000
v -0.0091 -0.1400 -0.0400
v -0.0105 -0.1340 -0.0458
v -0.0105 -0.1200 -0.0458
v -0.0100 -0.1180 -0.0439
v -0.0000 -0.1400 -0.0000
v -0.0178 -0.1400 -0.0369
v -0.0204 -0.1340 -0.0423
v -0.0204 -0.1200 -0.0423
v -0.0195 -0.1180 -0.0405
v -0.0000 -0.1400 -0.0000
v -0.0256 -0.1400 -0.0321
v -0.0293 -0.1340 -0.0367
v -0.0293 -0.1200 -0.0367
v -0.0281 -0.1180 -0.0352
v -0.0000 -0.1400 -0.0000
v -0.0321 -0.1400 -0.0256
v -0.0367 -0.1340 -0.0293
v -0.0367 -0.1200 -0.0293
v -0.0352 -0.1180 -0.0281
v -0.0000 -0.1400 -0.0000
v -0.0369 -0.1400 -0.0178
v -0.0423 -0.1340 -0.0204
v -0.0423 -0.1200 -0.0204
v -0.0405 -0.1180 -0.0195
v -0.0000 -0.1400 -0.0000
v -0.0400 -0.1400 -0.0091
v -0.0458 -0.1340 -0.0105
v -0.0458 -0.1200 -0.0105
v -0.0439 -0.1180 -0.0100
v -0.0000 -0.1400 -0.0000
v -0.0410 -0.1400 -0.0000
v -0.0470 -0.1340 -0.0000
v -0.0470 -0.1200 -0.0000
v -0.0450 -0.1180 -0.0000
v -0.0000 -0.1400 0.0000
v -0.0400 -0.1400 0.0091
v -0.0458 -0.1340 0.0105
v -0.0458 -0.1200 0.0105
v -0.0439 -0.1180 0.0100
v -0.0000 -0.1400 0.0000
v -0.0369 -0.1400 0.0178
v -0.0423 -0.1340 0.0204
v -0.0423 -0.1200 0.0204
v -0.0405 -0.1180 0.0195
v -0.0000 -0.1400 0.0000
v -0.0321 -0.1400 0.0256
v -0.0367 -0.1340 0.0293
v -0.0367 -0.1200 0.0293
v -0.0352 -0.1180 0.0281
v -0.0000 -0.1400 0.0000
v -0.0256 -0.1400 0.0321
v -0.0293 -0.1340 0.0367
v -0.0293 -0.1200 0.0367
v -0.0281 -0.1180 0.0352
v -0.0000 -0.1400 0.0000
v -0.0178 -0.1400 0.0369
v -0.0204 -0.1340 0.0423
v -0.0204 -0.1200 0.0423
v -0.0195 -0.1180 0.0405
v -0.0000 -0.1400 0.0000
v -0.0091 -0.1400 0.0400
v -0.0105 -0.1340 0.0458
v -0.0105 -0.1200 0.0458
v -0.0100 -0.1180 0.0439
v -0.0000 -0.1400 0.0000
v -0.0000 -0.1400 0.0410
v -0.0000 -0.1340 0.0470
v -0.0000 -0.1200 0.0470
v -0.0000 -0.1180 0.0450
v 0.0000 -0.1400 0.0000
v 0.0091 -0.1400 0.0400
v 0.0105 -0.1340 0.0458
v 0.0105 -0.1200 0.0458
v 0.0100 -0.1180 0.0439
v 0.0000 -0.1400 0.0000
v 0.0178 -0.1400 0.0369
v 0.0204 -0.1340 0.0423
v 0.0204 -0.1200 0.0423
v 0.0195 -0.1180 0.0405
v 0.0000 -0.1400 0.0000
v 0.0256 -0.1400 0.0321
v 0.0293 -0.1340 0.0367
v 0.0293 -0.1200 0.0367
v 0.0281 -0.1180 0.0352
v 0.0000 -0.1400 0.0000
v 0.0321 -0.1400 0.0256
v 0.0367 -0.1340 0.0293
v 0.0367 -0.1200 0.0293
v 0.0352 -0.1180 0.0281
v 0.0000 -0.1400 0.0000
v 0.0369 -0.1400 0.0178
v 0.0423 -0.1340 0.0204
v 0.0423 -0.1200 0.0204
v 0.0405 -0.1180 0.0195
v 0.0000 -0.1400 0.0000
v 0.0400 -0.1400 0.0091
v 0.0458 -0.1340 0.0105
v 0.0458 -0.1200 0.0105
v 0.0439 -0.1180 0.0100
v 0.0000 -0.1400 0.0000
v 0.0410 -0.1400 0.0000
v 0.0470 -0.1340 0.0000
v 0.0470 -0.1200 0.0000
v 0.0450 -0.1180 0.0000
v 0.0450 0.0780 -0.0000
v 0.0470 0.0800 -0.0000
v 0.0470 0.0900 -0.0000
v 0.0300 0.1050 -0.0000
v 0.0280 0.1100 -0.0000
v 0.0439 0.0780 -0.0100
v 0.0458 0.0800 -0.0105
v 0.0458 0.0900 -0.0105
v 0.0292 0.1050 -0.0067
v 0.0273 0.1100 -0.0062
v 0.0405 0.0780 -0.0195
v 0.0423 0.0800 -0.0204
v 0.0423 0.0900 -0.0204
v 0.0270 0.1050 -0.0130
v 0.0252 0.1100 -0.0121
v 0.0352 0.0780 -0.0281
v 0.0367 0.0800 -0.0293
v 0.0367 0.0900 -0.0293
v 0.0235 0.1050 -0.0187
v 0.0219 0.1100 -0.0175
v 0.0281 0.0780 -0.0352
v 0.0293 0.0800 -0.0367
v 0.0293 0.0900 -0.0367
v 0.0187 0.1050 -0.0235
v 0.0175 0.1100 -0.0219
v 0.0195 0.0780 -0.0405
v 0.0204 0.0800 -0.0423
v 0.0204 0.0900 -0.0423
v 0.0130 0.1050 -0.0270
v 0.0121 0.1100 -0.0252
v 0.0100 0.0780 -0.0439
v 0.0105 0.0800 -0.0458
v 0.0105 0.0900 -0.0458
v 0.0067 0.1050 -0.0292
v 0.0062 0.1100 -0.0273
v 0.0000 0.0780 -0.0450
v 0.0000 0.0800 -0.0470
v 0.0000 0.0900 -0.0470
v 0.0000 0.1050 -0.0300
v 0.0000 0.1100 -0.0280
v -0.0100 0.0780 -0.0439
v -0.0105 0.0800 -0.0458
v -0.0105 0.0900 -0.0458
v -0.0067 0.1050 -0.0292
v -0.0062 0.1100 -0.0273
v -0.0195 0.0780 -0.0405
v -0.0204 0.0800 -0.0423
v -0.0204 0.0900 -0.0423
v -0.0130 0.1050 -0.0270
v -0.0121 0.1100 -0.0252
v -0.0281 0.0780 -0.0352
v -0.0293 0.0800 -0.0367
v -0.0293 0.0900 -0.0367
v -0.0187 0.1050 -0.0235
v -0.0175 0.1100 -0.0219
v -0.0352 0.0780 -0.0281
v -0.0367 0.0800 -0.0293
v -0.0367 0.0900 -0.0293
v -0.0235 0.1050 -0.0187
v -0.0219 0.1100 -0.0175
v -0.0405 0.0780 -0.0195
v -0.0423 0.0800 -0.0204
v -0.0423 0.0900 -0.0204
v -0.0270 0.1050 -0.0130
v -0.0252 0.1100 -0.0121
v -0.0439 0.0780 -0.0100
v -0.0458 0.0800 -0.0105
v -0.0458 0.0900 -0.0105
v -0.0292 0.1050 -0.0067
v -0.0273 0.1100 -0.0062
v -0.0450 0.0780 -0.0000
v -0.0470 0.0800 -0.0000
v -0.0470 0.0900 -0.0000
v -0.0300 0.1050 -0.0000
v -0.0280 0.1100 -0.0000
v -0.0439 0.0780 0.0100
v -0.0458 0.0800 0.0105
v -0.0458 0.0900 0.0105
v -0.0292 0.1050 0.0067
v -0.0273 0.1100 0.0062
v -0.0405 0.0780 0.0195
v -0.0423 0.0800 0.0204
v -0.0423 0.0900 0.0204
v -0.0270 0.1050 0.0130
v -0.0252 0.1100 0.0121
v -0.0352 0.0780 0.0281
v -0.0367 0.0800 0.0293
v -0.0367 0.0900 0.0293
v -0.0235 0.1050 0.0187
v -0.0219 0.1100 0.0175
v -0.0281 0.0780 0.0352
v -0.0293 0.0800 0.0367
v -0.0293 0.0900 0.0367
v -0.0187 0.1050 0.0235
v -0.0175 0.1100 0.0219
v -0.0195 0.0780 0.0405
v -0.0204 0.0800 0.0423
v -0.0204 0.0900 0.0423
v -0.0130 0.1050 0.0270
v -0.0121 0.1100 0.0252
v -0.0100 0.0780 0.0439
v -0.0105 0.0800 0.0458
v -0.0105 0.0900 0.0458
v -0.0067 0.1050 0.0292
v -0.0062 0.1100 0.0273
v -0.0000 0.0780 0.0450
v -0.0000 0.0800 0.0470
v -0.0000 0.0900 0.0470
v -0.0000 0.1050 0.0300
v -0.0000 0.1100 0.0280
v 0.0100 0.0780 0.0439
v 0.0105 0.0800 0.0458
v 0.0105 0.0900 0.0458
v 0.0067 0.1050 0.0292
v 0.0062 0.1100 0.0273
v 0.0195 0.0780 0.0405
v 0.0204 0.0800 0.0423
v 0.0204 0.0900 0.0423
v 0.0130 0.1050 0.0270
v 0.0121 0.1100 0.0252
v 0.0281 0.0780 0.0352
v 0.0293 0.0800 0.0367
v 0.0293 0.0900 0.0367
v 0.0187 0.1050 0.0235
v 0.0175 0.1100 0.0219
v 0.0352 0.0780 0.0281
v 0.0367 0.0800 0.0293
v 0.0367 0.0900 0.0293
v 0.0235 0.1050 0.0187
v 0.0219 0.1100 0.0175
v 0.0405 0.0780 0.0195
v 0.0423 0.0800 0.0204
v 0.0423 0.0900 0.0204
v 0.0270 0.1050 0.0130
v 0.0252 0.1100 0.0121
v 0.0439 0.0780 0.0100
v 0.0458 0.0800 0.0105
v 0.0458 0.0900 0.0105
v 0.0292 0.1050 0.0067
v 0.0273 0.1100 0.0062
v 0.0450 0.0780 0.0000
v 0.0470 0.0800 0.0000
v 0.0470 0.0900 0.0000
v 0.0300 0.1050 0.0000
v 0.0280 0.1100 0.0000
v 0.0480 -0.1075 0.0000
v 0.0455 -0.1100 0.0000
v 0.0480 -0.1125 0.0000
v 0.0505 -0.1100 0.0000
v 0.0480 -0.1075 0.0000
v 0.0464 -0.1075 0.0124
v 0.0439 -0.1100 0.0118
v 0.0464 -0.1125 0.0124
v 0.0488 -0.1100 0.0131
v 0.0464 -0.1075 0.0124
v 0.0416 -0.1075 0.0240
v 0.0394 -0.1100 0.0227
v 0.0416 -0.1125 0.0240
v 0.0437 -0.1100 0.0252
v 0.0416 -0.1075 0.0240
v 0.0339 -0.1075 0.0339
v 0.0322 -0.1100 0.0322
v 0.0339 -0.1125 0.0339
v 0.0357 -0.1100 0.0357
v 0.0339 -0.1075 0.0339
v 0.0240 -0.1075 0.0416
v 0.0228 -0.1100 0.0394
v 0.0240 -0.1125 0.0416
v 0.0253 -0.1100 0.0437
v 0.0240 -0.1075 0.0416
v 0.0124 -0.1075 0.0464
v 0.0118 -0.1100 0.0439
v 0.0124 -0.1125 0.0464
v 0.0131 -0.1100 0.0488
v 0.0124 -0.1075 0.0464
v 0.0000 -0.1075 0.0480
v 0.0000 -0.1100 0.0455
v 0.0000 -0.1125 0.0480
v 0.0000 -0.1100 0.0505
v 0.0000 -0.1075 0.0480
v -0.0124 -0.1075 0.0464
v -0.0118 -0.1100 0.0439
v -0.0124 -0.1125 0.0464
v -0.0131 -0.1100 0.0488
v -0.0124 -0.1075 0.0464
v -0.0240 -0.1075 0.0416
v -0.0227 -0.1100 0.0394
v -0.0240 -0.1125 0.0416
v -0.0252 -0.1100 0.0437
v -0.0240 -0.1075 0.0416
v -0.0339 -0.1075 0.0339
v -0.0322 -0.1100 0.0322
v -0.0339 -0.1125 0.0339
v -0.0357 -0.1100 0.0357
v -0.0339 -0.1075 0.0339
v -0.0416 -0.1075 0.0240
v -0.0394 -0.1100 0.0227
v -0.0416 -0.1125 0.0240
v -0.0437 -0.1100 0.0252
v -0.0416 -0.1075 0.0240
v -0.0464 -0.1075 0.0124
v -0.0439 -0.1100 0.0118
v -0.0464 -0.1125 0.0124
v -0.0488 -0.1100 0.0131
v -0.0464 -0.1075 0.0124
v -0.0480 -0.1075 0.0000
v -0.0455 -0.1100 0.0000
v -0.0480 -0.1125 0.0000
v -0.0505 -0.1100 0.0000
v -0.0480 -0.1075 0.0000
v -0.0464 -0.1075 -0.0124
v -0.0439 -0.1100 -0.0118
v -0.0464 -0.1125 -0.0124
v -0.0488 -0.1100 -0.0131
v -0.0464 -0.1075 -0.0124
v -0.0416 -0.1075 -0.0240
v -0.0394 -0.1100 -0.0228
v -0.0416 -0.1125 -0.0240
v -0.0437 -0.1100 -0.0253
v -0.0416 -0.1075 -0.0240
v -0.0339 -0.1075 -0.0339
v -0.0322 -0.1100 -0.0322
v -0.0339 -0.1125 -0.0339
v -0.0357 -0.1100 -0.0357
v -0.0339 -0.1075 -0.0339
v -0.0240 -0.1075 -0.0416
v -0.0228 -0.1100 -0.0394
v -0.0240 -0.1125 -0.0416
v -0.0253 -0.1100 -0.0437
v -0.0240 -0.1075 -0.0416
v -0.0124 -0.1075 -0.0464
v -0.0118 -0.1100 -0.0439
v -0.0124 -0.1125 -0.0464
v -0.0131 -0.1100 -0.0488
v -0.0124 -0.1075 -0.0464
v -0.0000 -0.1075 -0.0480
v -0.0000 -0.1100 -0.0455
v -0.0000 -0.1125 -0.0480
v -0.0000 -0.1100 -0.0505
v -0.0000 -0.1075 -0.0480
v 0.0124 -0.1075 -0.0464
v 0.0118 -0.1100 -0.0439
v 0.0124 -0.1125 -0.0464
v 0.0131 -0.1100 -0.0488
v 0.0124 -0.1075 -0.0464
v 0.0240 -0.1075 -0.0416
v 0.0228 -0.1100 -0.0394
v 0.0240 -0.1125 -0.0416
v 0.0253 -0.1100 -0.0437
v 0.0240 -0.1075 -0.0416
v 0.0339 -0.1075 -0.0339
v 0.0322 -0.1100 -0.0322
v 0.0339 -0.1125 -0.0339
v 0.0357 -0.1100 -0.0357
v 0.0339 -0.1075 -0.0339
v 0.0416 -0.1075 -0.0240
v 0.0394 -0.1100 -0.0228
v 0.0416 -0.1125 -0.0240
v 0.0437 -0.1100 -0.0253
v 0.0416 -0.1075 -0.0240
v 0.0464 -0.1075 -0.0124
v 0.0439 -0.1100 -0.0118
v 0.0464 -0.1125 -0.0124
v 0.0488 -0.1100 -0.0131
v 0.0464 -0.1075 -0.0124
v 0.0480 -0.1075 0.0000
v 0.0455 -0.1100 0.0000
v 0.0480 -0.1125 0.0000
v 0.0505 -0.1100 0.0000
v 0.0480 -0.1075 0.0000
v 0.0480 0.0925 0.0000
v 0.0455 0.0900 0.0000
v 0.0480 0.0875 0.0000
v 0.0505 0.0900 0.0000
v 0.0480 0.0925 0.0000
v 0.0464 0.0925 0.0124
v 0.0439 0.0900 0.0118
v 0.0464 0.0875 0.0124
v 0.0488 0.0900 0.0131
v 0.0464 0.0925 0.0124
v 0.0416 0.0925 0.0240
v 0.0394 0.0900 0.0227
v 0.0416 0.0875 0.0240
v 0.0437 0.0900 0.0252
v 0.0416 0.0925 0.0240
v 0.0339 0.0925 0.0339
v 0.0322 0.0900 0.0322
v 0.0339 0.0875 0.0339
v 0.0357 0.0900 0.0357
v 0.0339 0.0925 0.0339
v 0.0240 0.0925 0.0416
v 0.0228 0.0900 0.0394
v 0.0240 0.0875 0.0416
v 0.0253 0.0900 0.0437
v 0.0240 0.0925 0.0416
v 0.0124 0.0925 0.0464
v 0.0118 0.0900 0.0439
v 0.0124 0.0875 0.0464
v 0.0131 0.0900 0.0488
v 0.0124 0.0925 0.0464
v 0.0000 0.0925 0.0480
v 0.0000 0.0900 0.0455
v 0.0000 0.0875 0.0480
v 0.0000 0.0900 0.0505
v 0.0000 0.0925 0.0480
v -0.0124 0.0925 0.0464
v -0.0118 0.0900 0.0439
v -0.0124 0.0875 0.0464
v -0.0131 0.0900 0.0488
v -0.0124 0.0925 0.0464
v -0.0240 0.0925 0.0416
v -0.0227 0.0900 0.0394
v -0.0240 0.0875 0.0416
v -0.0252 0.0900 0.0437
v -0.0240 0.0925 0.0416
v -0.0339 0.0925 0.0339
v -0.0322 0.0900 0.0322
v -0.0339 0.0875 0.0339
v -0.0357 0.0900 0.0357
v -0.0339 0.0925 0.0339
v -0.0416 0.0925 0.0240
v -0.0394 0.0900 0.0227
v -0.0416 0.0875 0.0240
v -0.0437 0.0900 0.0252
v -0.0416 0.0925 0.0240
v -0.0464 0.0925 0.0124
v -0.0439 0.0900 0.0118
v -0.0464 0.0875 0.0124
v -0.0488 0.0900 0.0131
v -0.0464 0.0925 0.0124
v -0.0480 0.0925 0.0000
v -0.0455 0.0900 0.0000
v -0.0480 0.0875 0.0000
v -0.0505 0.0900 0.0000
v -0.0480 0.0925 0.0000
v -0.0464 0.0925 -0.0124
v -0.0439 0.0900 -0.0118
v -0.0464 0.0875 -0.0124
v -0.0488 0.0900 -0.0131
v -0.0464 0.0925 -0.0124
v -0.0416 0.0925 -0.0240
v -0.0394 0.0900 -0.0228
v -0.0416 0.0875 -0.0240
v -0.0437 0.0900 -0.0253
v -0.0416 0.0925 -0.0240
v -0.0339 0.0925 -0.0339
v -0.0322 0.0900 -0.0322
v -0.0339 0.0875 -0.0339
v -0.0357 0.0900 -0.0357
v -0.0339 0.0925 -0.0339
v -0.0240 0.0925 -0.0416
v -0.0228 0.0900 -0.0394
v -0.0240 0.0875 -0.0416
v -0.0253 0.0900 -0.0437
v -0.0240 0.0925 -0.0416
v -0.0124 0.0925 -0.0464
v -0.0118 0.0900 -0.0439
v -0.0124 0.0875 -0.0464
v -0.0131 0.0900 -0.0488
v -0.0124 0.0925 -0.0464
v -0.0000 0.0925 -0.0480
v -0.0000 0.0900 -0.0455
v -0.0000 0.0875 -0.0480
v -0.0000 0.0900 -0.0505
v -0.0000 0.0925 -0.0480
v 0.0124 0.0925 -0.0464
v 0.0118 0.0900 -0.0439
v 0.0124 0.0875 -0.0464
v 0.0131 0.0900 -0.0488
v 0.0124 0.0925 -0.0464
v 0.0240 0.0925 -0.0416
v 0.0228 0.0900 -0.0394
v 0.0240 0.0875 -0.0416
v 0.0253 0.0900 -0.0437
v 0.0240 0.0925 -0.0416
v 0.0339 0.0925 -0.0339
v 0.0322 0.0900 -0.0322
v 0.0339 0.0875 -0.0339
v 0.0357 0.0900 -0.0357
v 0.0339 0.0925 -0.0339
v 0.0416 0.0925 -0.0240
v 0.0394 0.0900 -0.0228
v 0.0416 0.0875 -0.0240
v 0.0437 0.0900 -0.0253
v 0.0416 0.0925 -0.0240
v 0.0464 0.0925 -0.0124
v 0.0439 0.0900 -0.0118
v 0.0464 0.0875 -0.0124
v 0.0488 0.0900 -0.0131
v 0.0464 0.0925 -0.0124
v 0.0480 0.0925 0.0000
v 0.0455 0.0900 0.0000
v 0.0480 0.0875 0.0000
v 0.0505 0.0900 0.0000
v 0.0480 0.0925 0.0000
v 0.0450 -0.1074 0.0000
v 0.0465 -0.1087 0.0035
v 0.0495 -0.1113 0.0035
v 0.0510 -0.1126 0.0000
v 0.0495 -0.1113 -0.0035
v 0.0465 -0.1087 -0.0035
v 0.0450 -0.1074 -0.0000
v 0.0571 -0.0931 0.0000
v 0.0587 -0.0943 0.0035
v 0.0618 -0.0969 0.0035
v 0.0633 -0.0981 0.0000
v 0.0618 -0.0969 -0.0035
v 0.0587 -0.0943 -0.0035
v 0.0571 -0.0931 -0.0000
v 0.0593 -0.0898 0.0000
v 0.0611 -0.0908 0.0035
v 0.0647 -0.0926 0.0035
v 0.0664 -0.0935 0.0000
v 0.0647 -0.0926 -0.0035
v 0.0611 -0.0908 -0.0035
v 0.0593 -0.0898 -0.0000
v 0.0606 -0.0864 0.0000
v 0.0625 -0.0869 0.0035
v 0.0664 -0.0878 0.0035
v 0.0684 -0.0883 0.0000
v 0.0664 -0.0878 -0.0035
v 0.0625 -0.0869 -0.0035
v 0.0606 -0.0864 -0.0000
v 0.0610 -0.0826 0.0000
v 0.0630 -0.0826 0.0035
v 0.0670 -0.0827 0.0035
v 0.0690 -0.0827 0.0000
v 0.0670 -0.0827 -0.0035
v 0.0630 -0.0826 -0.0035
v 0.0610 -0.0826 -0.0000
v 0.0610 0.0626 0.0000
v 0.0630 0.0626 0.0035
v 0.0670 0.0627 0.0035
v 0.0690 0.0627 0.0000
v 0.0670 0.0627 -0.0035
v 0.0630 0.0626 -0.0035
v 0.0610 0.0626 -0.0000
v 0.0606 0.0664 0.0000
v 0.0625 0.0669 0.0035
v 0.0664 0.0678 0.0035
v 0.0684 0.0683 0.0000
v 0.0664 0.0678 -0.0035
v 0.0625 0.0669 -0.0035
v 0.0606 0.0664 -0.0000
v 0.0593 0.0698 0.0000
v 0.0611 0.0708 0.0035
v 0.0647 0.0726 0.0035
v 0.0664 0.0735 0.0000
v 0.0647 0.0726 -0.0035
v 0.0611 0.0708 -0.0035
v 0.0593 0.0698 -0.0000
v 0.0571 0.0731 0.0000
v 0.0587 0.0743 0.0035
v 0.0618 0.0769 0.0035
v 0.0633 0.0781 0.0000
v 0.0618 0.0769 -0.0035
v 0.0587 0.0743 -0.0035
v 0.0571 0.0731 -0.0000
v 0.0450 0.0874 0.0000
v 0.0465 0.0887 0.0035
v 0.0495 0.0913 0.0035
v 0.0510 0.0926 0.0000
v 0.0495 0.0913 -0.0035
v 0.0465 0.0887 -0.0035
v 0.0450 0.0874 -0.0000
v 0.0480 -0.1100 0.0000
v 0.0450 -0.1074 0.0000
v 0.0465 -0.1087 0.0035
v 0.0495 -0.1113 0.0035
v 0.0510 -0.1126 0.0000
v 0.0495 -0.1113 -0.0035
v 0.0465 -0.1087 -0.0035
v 0.0480 0.0900 0.0000
v 0.0450 0.0874 0.0000
v 0.0465 0.0887 0.0035
v 0.0495 0.0913 0.0035
v 0.0510 0.0926 0.0000
v 0.0495 0.0913 -0.0035
v 0.0465 0.0887 -0.0035
vt 0.0000 0.0000
vt 0.0000 0.0410
vt 0.0000 0.0495
vt 0.0000 0.0635
vt 0.0000 0.0663
vt 0.0105 0.0000
vt 0.0105 0.0410
vt 0.0105 0.0495
vt 0.0105 0.0635
vt 0.0105 0.0663
vt 0.0211 0.0000
vt 0.0211 0.0410
vt 0.0211 0.0495
vt 0.0211 0.0635
vt 0.0211 0.0663
vt 0.0316 0.0000
vt 0.0316 0.0410
vt 0.0316 0.0495
vt 0.0316 0.0635
vt 0.0316 0.0663
vt 0.0422 0.0000
vt 0.0422 0.0410
vt 0.0422 0.0495
vt 0.0422 0.0635
vt 0.0422 0.0663
vt 0.0527 0.0000
vt 0.0527 0.0410
vt 0.0527 0.0495
vt 0.0527 0.0635
vt 0.0527 0.0663
vt 0.0633 0.0000
vt 0.0633 0.0410
vt 0.0633 0.0495
vt 0.0633 0.0635
vt 0.0633 0.0663
vt 0.0738 0.0000
vt 0.0738 0.0410
vt 0.0738 0.0495
vt 0.0738 0.0635
vt 0.0738 0.0663
vt 0.0844 0.0000
vt 0.0844 0.0410
vt 0.0844 0.0495
vt 0.0844 0.0635
vt 0.0844 0.0663
vt 0.0949 0.0000
vt 0.0949 0.0410
vt 0.0949 0.0495
vt 0.0949 0.0635
vt 0.0949 0.0663
vt 0.1055 0.0000
vt 0.1055 0.0410
vt 0.1055 0.0495
vt 0.1055 0.0635
vt 0.1055 0.0663
vt 0.1160 0.0000
vt 0.1160 0.0410
vt 0.1160 0.0495
vt 0.1160 0.0635
vt 0.1160 0.0663
vt 0.1266 0.0000
vt 0.1266 0.0410
vt 0.1266 0.0495
vt 0.1266 0.0635
vt 0.1266 0.0663
vt 0.1371 0.0000
vt 0.1371 0.0410
vt 0.1371 0.0495
vt 0.1371 0.0635
vt 0.1371 0.0663
vt 0.1477 0.0000
vt 0.1477 0.0410
vt 0.1477 0.0495
vt 0.1477 0.0635
vt 0.1477 0.0663
vt 0.1582 0.0000
vt 0.1582 0.0410
vt 0.1582 0.0495
vt 0.1582 0.0635
vt 0.1582 0.0663
vt 0.1687 0.0000
vt 0.1687 0.0410
vt 0.1687 0.0495
vt 0.1687 0.0635
vt 0.1687 0.0663
vt 0.1793 0.0000
vt 0.1793 0.0410
vt 0.1793 0.0495
vt 0.1793 0.0635
vt 0.1793 0.0663
vt 0.1898 0.0000
vt 0.1898 0.0410
vt 0.1898 0.0495
vt 0.1898 0.0635
vt 0.1898 0.0663
vt 0.2004 0.0000
vt 0.2004 0.0410
vt 0.2004 0.0495
vt 0.2004 0.0635
vt 0.2004 0.0663
vt 0.2109 0.0000
vt 0.2109 0.0410
vt 0.2109 0.0495
vt 0.2109 0.0635
vt 0.2109 0.0663
vt 0.2215 0.0000
vt 0.2215 0.0410
vt 0.2215 0.0495
vt 0.2215 0.0635
vt 0.2215 0.0663
vt 0.2320 0.0000
vt 0.2320 0.0410
vt 0.2320 0.0495
vt 0.2320 0.0635
vt 0.2320 0.0663
vt 0.2426 0.0000
vt 0.2426 0.0410
vt 0.2426 0.0495
vt 0.2426 0.0635
vt 0.2426 0.0663
vt 0.2531 0.0000
vt 0.2531 0.0410
vt 0.2531 0.0495
vt 0.2531 0.0635
vt 0.2531 0.0663
vt 0.2637 0.0000
vt 0.2637 0.0410
vt 0.2637 0.0495
vt 0.2637 0.0635
vt 0.2637 0.0663
vt 0.2742 0.0000
vt 0.2742 0.0410
vt 0.2742 0.0495
vt 0.2742 0.0635
vt 0.2742 0.0663
vt 0.2848 0.0000
vt 0.2848 0.0410
vt 0.2848 0.0495
vt 0.2848 0.0635
vt 0.2848 0.0663
vt 0.2953 0.0000
vt 0.2953 0.0410
vt 0.2953 0.0495
vt 0.2953 0.0635
vt 0.2953 0.0663
vt 0.0000 0.0000
vt 0.0000 0.0028
vt 0.0000 0.0128
vt 0.0000 0.0355
vt 0.0000 0.0409
vt 0.0105 0.0000
vt 0.0105 0.0028
vt 0.0105 0.0128
vt 0.0105 0.0355
vt 0.0105 0.0409
vt 0.0211 0.0000
vt 0.0211 0.0028
vt 0.0211 0.0128
vt 0.0211 0.0355
vt 0.0211 0.0409
vt 0.0316 0.0000
vt 0.0316 0.0028
vt 0.0316 0.0128
vt 0.0316 0.0355
vt 0.0316 0.0409
vt 0.0422 0.0000
vt 0.0422 0.0028
vt 0.0422 0.0128
vt 0.0422 0.0355
vt 0.0422 0.0409
vt 0.0527 0.0000
vt 0.0527 0.0028
vt 0.0527 0.0128
vt 0.0527 0.0355
vt 0.0527 0.0409
vt 0.0633 0.0000
vt 0.0633 0.0028
vt 0.0633 0.0128
vt 0.0633 0.0355
vt 0.0633 0.0409
vt 0.0738 0.0000
vt 0.0738 0.0028
vt 0.0738 0.0128
vt 0.0738 0.0355
vt 0.0738 0.0409
vt 0.0844 0.0000
vt 0.0844 0.0028
vt 0.0844 0.0128
vt 0.0844 0.0355
vt 0.0844 0.0409
vt 0.0949 0.0000
vt 0.0949 0.0028
vt 0.0949 0.0128
vt 0.0949 0.0355
vt 0.0949 0.0409
vt 0.1055 0.0000
vt 0.1055 0.0028
vt 0.1055 0.0128
vt 0.1055 0.0355
vt 0.1055 0.0409
vt 0.1160 0.0000
vt 0.1160 0.0028
vt 0.1160 0.0128
vt 0.1160 0.0355
vt 0.1160 0.0409
vt 0.1266 0.0000
vt 0.1266 0.0028
vt 0.1266 0.0128
vt 0.1266 0.0355
vt 0.1266 0.0409
vt 0.1371 0.0000
vt 0.1371 0.0028
vt 0.1371 0.0128
vt 0.1371 0.0355
vt 0.1371 0.0409
vt 0.1477 0.0000
vt 0.1477 0.0028
vt 0.1477 0.0128
vt 0.1477 0.0355
vt 0.1477 0.0409
vt 0.1582 0.0000
vt 0.1582 0.0028
vt 0.1582 0.0128
vt 0.1582 0.0355
vt 0.1582 0.0409
vt 0.1687 0.0000
vt 0.1687 0.0028
vt 0.1687 0.0128
vt 0.1687 0.0355
vt 0.1687 0.0409
vt 0.1793 0.0000
vt 0.1793 0.0028
vt 0.1793 0.0128
vt 0.1793 0.0355
vt 0.1793 0.0409
vt 0.1898 0.0000
vt 0.1898 0.0028
vt 0.1898 0.0128
vt 0.1898 0.0355
vt 0.1898 0.0409
vt 0.2004 0.0000
vt 0.2004 0.0028
vt 0.2004 0.0128
vt 0.2004 0.0355
vt 0.2004 0.0409
vt 0.2109 0.0000
vt 0.2109 0.0028
vt 0.2109 0.0128
vt 0.2109 0.0355
vt 0.2109 0.0409
vt 0.2215 0.0000
vt 0.2215 0.0028
vt 0.2215 0.0128
vt 0.2215 0.0355
vt 0.2215 0.0409
vt 0.2320 0.0000
vt 0.2320 0.0028
vt 0.2320 0.0128
vt 0.2320 0.0355
vt 0.2320 0.0409
vt 0.2426 0.0000
vt 0.2426 0.0028
vt 0.2426 0.0128
vt 0.2426 0.0355
vt 0.2426 0.0409
vt 0.2531 0.0000
vt 0.2531 0.0028
vt 0.2531 0.0128
vt 0.2531 0.0355
vt 0.2531 0.0409
vt 0.2637 0.0000
vt 0.2637 0.0028
vt 0.2637 0.0128
vt 0.2637 0.0355
vt 0.2637 0.0409
vt 0.2742 0.0000
vt 0.2742 0.0028
vt 0.2742 0.0128
vt 0.2742 0.0355
vt 0.2742 0.0409
vt 0.2848 0.0000
vt 0.2848 0.0028
vt 0.2848 0.0128
vt 0.2848 0.0355
vt 0.2848 0.0409
vt 0.2953 0.0000
vt 0.2953 0.0028
vt 0.2953 0.0128
vt 0.2953 0.0355
vt 0.2953 0.0409
vt 0.0000 0.0000
vt 0.0000 0.0039
vt 0.0000 0.0079
vt 0.0000 0.0118
vt 0.0000 0.0157
vt 0.0125 0.0000
vt 0.0125 0.0039
vt 0.0125 0.0079
vt 0.0125 0.0118
vt 0.0125 0.0157
vt 0.0251 0.0000
vt 0.0251 0.0039
vt 0.0251 0.0079
vt 0.0251 0.0118
vt 0.0251 0.0157
vt 0.0376 0.0000
vt 0.0376 0.0039
vt 0.0376 0.0079
vt 0.0376 0.0118
vt 0.0376 0.0157
vt 0.0501 0.0000
vt 0.0501 0.0039
vt 0.0501 0.0079
vt 0.0501 0.0118
vt 0.0501 0.0157
vt 0.0627 0.0000
vt 0.0627 0.0039
vt 0.0627 0.0079
vt 0.0627 0.0118
vt 0.0627 0.0157
vt 0.0752 0.0000
vt 0.0752 0.0039
vt 0.0752 0.0079
vt 0.0752 0.0118
vt 0.0752 0.0157
vt 0.0877 0.0000
vt 0.0877 0.0039
vt 0.0877 0.0079
vt 0.0877 0.0118
vt 0.0877 0.0157
vt 0.1002 0.0000
vt 0.1002 0.0039
vt 0.1002 0.0079
vt 0.1002 0.0118
vt 0.1002 0.0157
vt 0.1128 0.0000
vt 0.1128 0.0039
vt 0.1128 0.0079
vt 0.1128 0.0118
vt 0.1128 0.0157
vt 0.1253 0.0000
vt 0.1253 0.0039
vt 0.1253 0.0079
vt 0.1253 0.0118
vt 0.1253 0.0157
vt 0.1378 0.0000
vt 0.1378 0.0039
vt 0.1378 0.0079
vt 0.1378 0.0118
vt 0.1378 0.0157
vt 0.1504 0.0000
vt 0.1504 0.0039
vt 0.1504 0.0079
vt 0.1504 0.0118
vt 0.1504 0.0157
vt 0.1629 0.0000
vt 0.1629 0.0039
vt 0.1629 0.0079
vt 0.1629 0.0118
vt 0.1629 0.0157
vt 0.1754 0.0000
vt 0.1754 0.0039
vt 0.1754 0.0079
vt 0.1754 0.0118
vt 0.1754 0.0157
vt 0.1880 0.0000
vt 0.1880 0.0039
vt 0.1880 0.0079
vt 0.1880 0.0118
vt 0.1880 0.0157
vt 0.2005 0.0000
vt 0.2005 0.0039
vt 0.2005 0.0079
vt 0.2005 0.0118
vt 0.2005 0.0157
vt 0.2130 0.0000
vt 0.2130 0.0039
vt 0.2130 0.0079
vt 0.2130 0.0118
vt 0.2130 0.0157
vt 0.2255 0.0000
vt 0.2255 0.0039
vt 0.2255 0.0079
vt 0.2255 0.0118
vt 0.2255 0.0157
vt 0.2381 0.0000
vt 0.2381 0.0039
vt 0.2381 0.0079
vt 0.2381 0.0118
vt 0.2381 0.0157
vt 0.2506 0.0000
vt 0.2506 0.0039
vt 0.2506 0.0079
vt 0.2506 0.0118
vt 0.2506 0.0157
vt 0.2631 0.0000
vt 0.2631 0.0039
vt 0.2631 0.0079
vt 0.2631 0.0118
vt 0.2631 0.0157
vt 0.2757 0.0000
vt 0.2757 0.0039
vt 0.2757 0.0079
vt 0.2757 0.0118
vt 0.2757 0.0157
vt 0.2882 0.0000
vt 0.2882 0.0039
vt 0.2882 0.0079
vt 0.2882 0.0118
vt 0.2882 0.0157
vt 0.3007 0.0000
vt 0.3007 0.0039
vt 0.3007 0.0079
vt 0.3007 0.0118
vt 0.3007 0.0157
vt 0.0000 0.0000
vt 0.0000 0.0039
vt 0.0000 0.0079
vt 0.0000 0.0118
vt 0.0000 0.0157
vt 0.0125 0.0000
vt 0.0125 0.0039
vt 0.0125 0.0079
vt 0.0125 0.0118
vt 0.0125 0.0157
vt 0.0251 0.0000
vt 0.0251 0.0039
vt 0.0251 0.0079
vt 0.0251 0.0118
vt 0.0251 0.0157
vt 0.0376 0.0000
vt 0.0376 0.0039
vt 0.0376 0.0079
vt 0.0376 0.0118
vt 0.0376 0.0157
vt 0.0501 0.0000
vt 0.0501 0.0039
vt 0.0501 0.0079
vt 0.0501 0.0118
vt 0.0501 0.0157
vt 0.0627 0.0000
vt 0.0627 0.0039
vt 0.0627 0.0079
vt 0.0627 0.0118
vt 0.0627 0.0157
vt 0.0752 0.0000
vt 0.0752 0.0039
vt 0.0752 0.0079
vt 0.0752 0.0118
vt 0.0752 0.0157
vt 0.0877 0.0000
vt 0.0877 0.0039
vt 0.0877 0.0079
vt 0.0877 0.0118
vt 0.0877 0.0157
vt 0.1002 0.0000
vt 0.1002 0.0039
vt 0.1002 0.0079
vt 0.1002 0.0118
vt 0.1002 0.0157
vt 0.1128 0.0000
vt 0.1128 0.0039
vt 0.1128 0.0079
vt 0.1128 0.0118
vt 0.1128 0.0157
vt 0.1253 0.0000
vt 0.1253 0.0039
vt 0.1253 0.0079
vt 0.1253 0.0118
vt 0.1253 0.0157
vt 0.1378 0.0000
vt 0.1378 0.0039
vt 0.1378 0.0079
vt 0.1378 0.0118
vt 0.1378 0.0157
vt 0.1504 0.0000
vt 0.1504 0.0039
vt 0.1504 0.0079
vt 0.1504 0.0118
vt 0.1504 0.0157
vt 0.1629 0.0000
vt 0.1629 0.0039
vt 0.1629 0.0079
vt 0.1629 0.0118
vt 0.1629 0.0157
vt 0.1754 0.0000
vt 0.1754 0.0039
vt 0.1754 0.0079
vt 0.1754 0.0118
vt 0.1754 0.0157
vt 0.1880 0.0000
vt 0.1880 0.0039
vt 0.1880 0.0079
vt 0.1880 0.0118
vt 0.1880 0.0157
vt 0.2005 0.0000
vt 0.2005 0.0039
vt 0.2005 0.0079
vt 0.2005 0.0118
vt 0.2005 0.0157
vt 0.2130 0.0000
vt 0.2130 0.0039
vt 0.2130 0.0079
vt 0.2130 0.0118
vt 0.2130 0.0157
vt 0.2255 0.0000
vt 0.2255 0.0039
vt 0.2255 0.0079
vt 0.2255 0.0118
vt 0.2255 0.0157
vt 0.2381 0.0000
vt 0.2381 0.0039
vt 0.2381 0.0079
vt 0.2381 0.0118
vt 0.2381 0.0157
vt 0.2506 0.0000
vt 0.2506 0.0039
vt 0.2506 0.0079
vt 0.2506 0.0118
vt 0.2506 0.0157
vt 0.2631 0.0000
vt 0.2631 0.0039
vt 0.2631 0.0079
vt 0.2631 0.0118
vt 0.2631 0.0157
vt 0.2757 0.0000
vt 0.2757 0.0039
vt 0.2757 0.0079
vt 0.2757 0.0118
vt 0.2757 0.0157
vt 0.2882 0.0000
vt 0.2882 0.0039
vt 0.2882 0.0079
vt 0.2882 0.0118
vt 0.2882 0.0157
vt 0.3007 0.0000
vt 0.3007 0.0039
vt 0.3007 0.0079
vt 0.3007 0.0118
vt 0.3007 0.0157
vt 0.0000 0.0000
vt 0.0000 0.0042
vt 0.0000 0.0084
vt 0.0000 0.0126
vt 0.0000 0.0168
vt 0.0000 0.0209
vt 0.0000 0.0251
vt 0.0189 0.0000
vt 0.0189 0.0042
vt 0.0189 0.0084
vt 0.0189 0.0126
vt 0.0189 0.0168
vt 0.0189 0.0209
vt 0.0189 0.0251
vt 0.0236 0.0000
vt 0.0236 0.0042
vt 0.0236 0.0084
vt 0.0236 0.0126
vt 0.0236 0.0168
vt 0.0236 0.0209
vt 0.0236 0.0251
vt 0.0282 0.0000
vt 0.0282 0.0042
vt 0.0282 0.0084
vt 0.0282 0.0126
vt 0.0282 0.0168
vt 0.0282 0.0209
vt 0.0282 0.0251
vt 0.0330 0.0000
vt 0.0330 0.0042
vt 0.0330 0.0084
vt 0.0330 0.0126
vt 0.0330 0.0168
vt 0.0330 0.0209
vt 0.0330 0.0251
vt 0.1783 0.0000
vt 0.1783 0.0042
vt 0.1783 0.0084
vt 0.1783 0.0126
vt 0.1783 0.0168
vt 0.1783 0.0209
vt 0.1783 0.0251
vt 0.1830 0.0000
vt 0.1830 0.0042
vt 0.1830 0.0084
vt 0.1830 0.0126
vt 0.1830 0.0168
vt 0.1830 0.0209
vt 0.1830 0.0251
vt 0.1876 0.0000
vt 0.1876 0.0042
vt 0.1876 0.0084
vt 0.1876 0.0126
vt 0.1876 0.0168
vt 0.1876 0.0209
vt 0.1876 0.0251
vt 0.1923 0.0000
vt 0.1923 0.0042
vt 0.1923 0.0084
vt 0.1923 0.0126
vt 0.1923 0.0168
vt 0.1923 0.0209
vt 0.1923 0.0251
vt 0.2112 0.0000
vt 0.2112 0.0042
vt 0.2112 0.0084
vt 0.2112 0.0126
vt 0.2112 0.0168
vt 0.2112 0.0209
vt 0.2112 0.0251
vt 0.0000 0.0000
vt 0.0040 0.0000
vt 0.0020 0.0035
vt -0.0020 0.0035
vt -0.0040 0.0000
vt -0.0020 -0.0035
vt 0.0020 -0.0035
vt 0.0000 0.0000
vt 0.0040 0.0000
vt 0.0020 0.0035
vt -0.0020 0.0035
vt -0.0040 0.0000
vt -0.0020 -0.0035
vt 0.0020 -0.0035
vn 0.000 -1.000 -0.000
vn 0.127 -0.992 -0.000
vn 0.958 -0.287 -0.000
vn 0.992 0.124 -0.000
vn 0.707 0.707 -0.000
vn 0.000 -1.000 -0.000
vn 0.123 -0.992 -0.028
vn 0.934 -0.287 -0.213
vn 0.967 0.124 -0.221
vn 0.689 0.707 -0.157
vn 0.000 -1.000 -0.000
vn 0.114 -0.992 -0.055
vn 0.863 -0.287 -0.416
vn 0.894 0.124 -0.431
vn 0.637 0.707 -0.307
vn 0.000 -1.000 -0.000
vn 0.099 -0.992 -0.079
vn 0.749 -0.287 -0.597
vn 0.776 0.124 -0.619
vn 0.553 0.707 -0.441
vn 0.000 -1.000 -0.000
vn 0.079 -0.992 -0.099
vn 0.597 -0.287 -0.749
vn 0.619 0.124 -0.776
vn 0.441 0.707 -0.553
vn 0.000 -1.000 -0.000
vn 0.055 -0.992 -0.114
vn 0.416 -0.287 -0.863
vn 0.431 0.124 -0.894
vn 0.307 0.707 -0.637
vn 0.000 -1.000 -0.000
vn 0.028 -0.992 -0.123
vn 0.213 -0.287 -0.934
vn 0.221 0.124 -0.967
vn 0.157 0.707 -0.689
vn 0.000 -1.000 -0.000
vn 0.000 -0.992 -0.127
vn 0.000 -0.287 -0.958
vn 0.000 0.124 -0.992
vn 0.000 0.707 -0.707
vn -0.000 -1.000 -0.000
vn -0.028 -0.992 -0.123
vn -0.213 -0.287 -0.934
vn -0.221 0.124 -0.967
vn -0.157 0.707 -0.689
vn -0.000 -1.000 -0.000
vn -0.055 -0.992 -0.114
vn -0.416 -0.287 -0.863
vn -0.431 0.124 -0.894
vn -0.307 0.707 -0.637
vn -0.000 -1.000 -0.000
vn -0.079 -0.992 -0.099
vn -0.597 -0.287 -0.749
vn -0.619 0.124 -0.776
vn -0.441 0.707 -0.553
vn -0.000 -1.000 -0.000
vn -0.099 -0.992 -0.079
vn -0.749 -0.287 -0.597
vn -0.776 0.124 -0.619
vn -0.553 0.707 -0.441
vn -0.000 -1.000 -0.000
vn -0.114 -0.992 -0.055
vn -0.863 -0.287 -0.416
vn -0.894 0.124 -0.431
vn -0.637 0.707 -0.307
vn -0.000 -1.000 -0.000
vn -0.123 -0.992 -0.028
vn -0.934 -0.287 -0.213
vn -0.967 0.124 -0.221
vn -0.689 0.707 -0.157
vn -0.000 -1.000 -0.000
vn -0.127 -0.992 -0.000
vn -0.958 -0.287 -0.000
vn -0.992 0.124 -0.000
vn -0.707 0.707 -0.000
vn -0.000 -1.000 0.000
vn -0.123 -0.992 0.028
vn -0.934 -0.287 0.213
vn -0.967 0.124 0.221
vn -0.689 0.707 0.157
vn -0.000 -1.000 0.000
vn -0.114 -0.992 0.055
vn -0.863 -0.287 0.416
vn -0.894 0.124 0.431
vn -0.637 0.707 0.307
vn -0.000 -1.000 0.000
vn -0.099 -0.992 0.079
vn -0.749 -0.287 0.597
vn -0.776 0.124 0.619
vn -0.553 0.707 0.441
vn -0.000 -1.000 0.000
vn -0.079 -0.992 0.099
vn -0.597 -0.287 0.749
vn -0.619 0.124 0.776
vn -0.441 0.707 0.553
vn -0.000 -1.000 0.000
vn -0.055 -0.992 0.114
vn -0.416 -0.287 0.863
vn -0.431 0.124 0.894
vn -0.307 0.707 0.637
vn -0.000 -1.000 0.000
vn -0.028 -0.992 0.123
vn -0.213 -0.287 0.934
vn -0.221 0.124 0.967
vn -0.157 0.707 0.689
vn -0.000 -1.000 0.000
vn -0.000 -0.992 0.127
vn -0.000 -0.287 0.958
vn -0.000 0.124 0.992
vn -0.000 0.707 0.707
vn 0.000 -1.000 0.000
vn 0.028 -0.992 0.123
vn 0.213 -0.287 0.934
vn 0.221 0.124 0.967
vn 0.157 0.707 0.689
vn 0.000 -1.000 0.000
vn 0.055 -0.992 0.114
vn 0.416 -0.287 0.863
vn 0.431 0.124 0.894
vn 0.307 0.707 0.637
vn 0.000 -1.000 0.000
vn 0.079 -0.992 0.099
vn 0.597 -0.287 0.749
vn 0.619 0.124 0.776
vn 0.441 0.707 0.553
vn 0.000 -1.000 0.000
vn 0.099 -0.992 0.079
vn 0.749 -0.287 0.597
vn 0.776 0.124 0.619
vn 0.553 0.707 0.441
vn 0.000 -1.000 0.000
vn 0.114 -0.992 0.055
vn 0.863 -0.287 0.416
vn 0.894 0.124 0.431
vn 0.637 0.707 0.307
vn 0.000 -1.000 0.000
vn 0.123 -0.992 0.028
vn 0.934 -0.287 0.213
vn 0.967 0.124 0.221
vn 0.689 0.707 0.157
vn 0.000 -1.000 0.000
vn 0.127 -0.992 0.000
vn 0.958 -0.287 0.000
vn 0.992 0.124 0.000
vn 0.707 0.707 0.000
vn 0.707 -0.707 -0.000
vn 0.986 -0.164 -0.000
vn 0.827 0.562 -0.000
vn 0.725 0.689 -0.000
vn 0.928 0.371 -0.000
vn 0.689 -0.707 -0.157
vn 0.962 -0.164 -0.219
vn 0.806 0.562 -0.184
vn 0.707 0.689 -0.161
vn 0.905 0.371 -0.207
vn 0.637 -0.707 -0.307
vn 0.889 -0.164 -0.428
vn 0.745 0.562 -0.359
vn 0.653 0.689 -0.315
vn 0.837 0.371 -0.403
vn 0.553 -0.707 -0.441
vn 0.771 -0.164 -0.615
vn 0.647 0.562 -0.516
vn 0.567 0.689 -0.452
vn 0.726 0.371 -0.579
vn 0.441 -0.707 -0.553
vn 0.615 -0.164 -0.771
vn 0.516 0.562 -0.647
vn 0.452 0.689 -0.567
vn 0.579 0.371 -0.726
vn 0.307 -0.707 -0.637
vn 0.428 -0.164 -0.889
vn 0.359 0.562 -0.745
vn 0.315 0.689 -0.653
vn 0.403 0.371 -0.837
vn 0.157 -0.707 -0.689
vn 0.219 -0.164 -0.962
vn 0.184 0.562 -0.806
vn 0.161 0.689 -0.707
vn 0.207 0.371 -0.905
vn 0.000 -0.707 -0.707
vn 0.000 -0.164 -0.986
vn 0.000 0.562 -0.827
vn 0.000 0.689 -0.725
vn 0.000 0.371 -0.928
vn -0.157 -0.707 -0.689
vn -0.219 -0.164 -0.962
vn -0.184 0.562 -0.806
vn -0.161 0.689 -0.707
vn -0.207 0.371 -0.905
vn -0.307 -0.707 -0.637
vn -0.428 -0.164 -0.889
vn -0.359 0.562 -0.745
vn -0.315 0.689 -0.653
vn -0.403 0.371 -0.837
vn -0.441 -0.707 -0.553
vn -0.615 -0.164 -0.771
vn -0.516 0.562 -0.647
vn -0.452 0.689 -0.567
vn -0.579 0.371 -0.726
vn -0.553 -0.707 -0.441
vn -0.771 -0.164 -0.615
vn -0.647 0.562 -0.516
vn -0.567 0.689 -0.452
vn -0.726 0.371 -0.579
vn -0.637 -0.707 -0.307
vn -0.889 -0.164 -0.428
vn -0.745 0.562 -0.359
vn -0.653 0.689 -0.315
vn -0.837 0.371 -0.403
vn -0.689 -0.707 -0.157
vn -0.962 -0.164 -0.219
vn -0.806 0.562 -0.184
vn -0.707 0.689 -0.161
vn -0.905 0.371 -0.207
vn -0.707 -0.707 -0.000
vn -0.986 -0.164 -0.000
vn -0.827 0.562 -0.000
vn -0.725 0.689 -0.000
vn -0.928 0.371 -0.000
vn -0.689 -0.707 0.157
vn -0.962 -0.164 0.219
vn -0.806 0.562 0.184
vn -0.707 0.689 0.161
vn -0.905 0.371 0.207
vn -0.637 -0.707 0.307
vn -0.889 -0.164 0.428
vn -0.745 0.562 0.359
vn -0.653 0.689 0.315
vn -0.837 0.371 0.403
vn -0.553 -0.707 0.441
vn -0.771 -0.164 0.615
vn -0.647 0.562 0.516
vn -0.567 0.689 0.452
vn -0.726 0.371 0.579
vn -0.441 -0.707 0.553
vn -0.615 -0.164 0.771
vn -0.516 0.562 0.647
vn -0.452 0.689 0.567
vn -0.579 0.371 0.726
vn -0.307 -0.707 0.637
vn -0.428 -0.164 0.889
vn -0.359 0.562 0.745
vn -0.315 0.689 0.653
vn -0.403 0.371 0.837
vn -0.157 -0.707 0.689
vn -0.219 -0.164 0.962
vn -0.184 0.562 0.806
vn -0.161 0.689 0.707
vn -0.207 0.371 0.905
vn -0.000 -0.707 0.707
vn -0.000 -0.164 0.986
vn -0.000 0.562 0.827
vn -0.000 0.689 0.725
vn -0.000 0.371 0.928
vn 0.157 -0.707 0.689
vn 0.219 -0.164 0.962
vn 0.184 0.562 0.806
vn 0.161 0.689 0.707
vn 0.207 0.371 0.905
vn 0.307 -0.707 0.637
vn 0.428 -0.164 0.889
vn 0.359 0.562 0.745
vn 0.315 0.689 0.653
vn 0.403 0.371 0.837
vn 0.441 -0.707 0.553
vn 0.615 -0.164 0.771
vn 0.516 0.562 0.647
vn 0.452 0.689 0.567
vn 0.579 0.371 0.726
vn 0.553 -0.707 0.441
vn 0.771 -0.164 0.615
vn 0.647 0.562 0.516
vn 0.567 0.689 0.452
vn 0.726 0.371 0.579
vn 0.637 -0.707 0.307
vn 0.889 -0.164 0.428
vn 0.745 0.562 0.359
vn 0.653 0.689 0.315
vn 0.837 0.371 0.403
vn 0.689 -0.707 0.157
vn 0.962 -0.164 0.219
vn 0.806 0.562 0.184
vn 0.707 0.689 0.161
vn 0.905 0.371 0.207
vn 0.707 -0.707 0.000
vn 0.986 -0.164 0.000
vn 0.827 0.562 0.000
vn 0.725 0.689 0.000
vn 0.928 0.371 0.000
vn 0.000 1.000 0.000
vn -1.000 0.000 0.000
vn -0.000 -1.000 0.000
vn 1.000 -0.000 0.000
vn 0.000 1.000 -0.000
vn 0.000 1.000 -0.000
vn -0.966 0.000 -0.259
vn -0.000 -1.000 -0.000
vn 0.966 -0.000 0.259
vn 0.000 1.000 0.000
vn 0.000 1.000 -0.000
vn -0.866 0.000 -0.500
vn -0.000 -1.000 -0.000
vn 0.866 -0.000 0.500
vn 0.000 1.000 0.000
vn 0.000 1.000 -0.000
vn -0.707 0.000 -0.707
vn -0.000 -1.000 -0.000
vn 0.707 -0.000 0.707
vn 0.000 1.000 0.000
vn 0.000 1.000 -0.000
vn -0.500 0.000 -0.866
vn -0.000 -1.000 -0.000
vn 0.500 -0.000 0.866
vn 0.000 1.000 0.000
vn 0.000 1.000 -0.000
vn -0.259 0.000 -0.966
vn -0.000 -1.000 -0.000
vn 0.259 -0.000 0.966
vn 0.000 1.000 0.000
vn 0.000 1.000 -0.000
vn 0.000 0.000 -1.000
vn -0.000 -1.000 -0.000
vn 0.000 -0.000 1.000
vn 0.000 1.000 0.000
vn 0.000 1.000 0.000
vn 0.259 0.000 -0.966
vn 0.000 -1.000 -0.000
vn -0.259 -0.000 0.966
vn -0.000 1.000 0.000
vn 0.000 1.000 0.000
vn 0.500 0.000 -0.866
vn 0.000 -1.000 -0.000
vn -0.500 -0.000 0.866
vn -0.000 1.000 0.000
vn 0.000 1.000 0.000
vn 0.707 0.000 -0.707
vn 0.000 -1.000 -0.000
vn -0.707 -0.000 0.707
vn -0.000 1.000 0.000
vn 0.000 1.000 0.000
vn 0.866 0.000 -0.500
vn 0.000 -1.000 -0.000
vn -0.866 -0.000 0.500
vn -0.000 1.000 0.000
vn 0.000 1.000 0.000
vn 0.966 0.000 -0.259
vn 0.000 -1.000 -0.000
vn -0.966 -0.000 0.259
vn -0.000 1.000 0.000
vn 0.000 1.000 0.000
vn 1.000 0.000 0.000
vn 0.000 -1.000 0.000
vn -1.000 -0.000 -0.000
vn -0.000 1.000 0.000
vn 0.000 1.000 0.000
vn 0.966 0.000 0.259
vn 0.000 -1.000 0.000
vn -0.966 -0.000 -0.259
vn -0.000 1.000 -0.000
vn 0.000 1.000 0.000
vn 0.866 0.000 0.500
vn 0.000 -1.000 0.000
vn -0.866 -0.000 -0.500
vn -0.000 1.000 -0.000
vn 0.000 1.000 0.000
vn 0.707 0.000 0.707
vn 0.000 -1.000 0.000
vn -0.707 -0.000 -0.707
vn -0.000 1.000 -0.000
vn 0.000 1.000 0.000
vn 0.500 0.000 0.866
vn 0.000 -1.000 0.000
vn -0.500 -0.000 -0.866
vn -0.000 1.000 -0.000
vn 0.000 1.000 0.000
vn 0.259 0.000 0.966
vn 0.000 -1.000 0.000
vn -0.259 -0.000 -0.966
vn -0.000 1.000 -0.000
vn 0.000 1.000 0.000
vn 0.000 0.000 1.000
vn 0.000 -1.000 0.000
vn -0.000 -0.000 -1.000
vn -0.000 1.000 -0.000
vn 0.000 1.000 0.000
vn -0.259 0.000 0.966
vn -0.000 -1.000 0.000
vn 0.259 -0.000 -0.966
vn 0.000 1.000 -0.000
vn 0.000 1.000 0.000
vn -0.500 0.000 0.866
vn -0.000 -1.000 0.000
vn 0.500 -0.000 -0.866
vn 0.000 1.000 -0.000
vn 0.000 1.000 0.000
vn -0.707 0.000 0.707
vn -0.000 -1.000 0.000
vn 0.707 -0.000 -0.707
vn 0.000 1.000 -0.000
vn 0.000 1.000 0.000
vn -0.866 0.000 0.500
vn -0.000 -1.000 0.000
vn 0.866 -0.000 -0.500
vn 0.000 1.000 -0.000
vn 0.000 1.000 0.000
vn -0.966 0.000 0.259
vn -0.000 -1.000 0.000
vn 0.966 -0.000 -0.259
vn 0.000 1.000 -0.000
vn 0.000 1.000 0.000
vn -1.000 0.000 0.000
vn -0.000 -1.000 0.000
vn 1.000 -0.000 0.000
vn 0.000 1.000 -0.000
vn 0.000 1.000 0.000
vn -1.000 0.000 0.000
vn -0.000 -1.000 0.000
vn 1.000 -0.000 0.000
vn 0.000 1.000 -0.000
vn 0.000 1.000 -0.000
vn -0.966 0.000 -0.259
vn -0.000 -1.000 -0.000
vn 0.966 -0.000 0.259
vn 0.000 1.000 0.000
vn 0.000 1.000 -0.000
vn -0.866 0.000 -0.500
vn -0.000 -1.000 -0.000
vn 0.866 -0.000 0.500
vn 0.000 1.000 0.000
vn 0.000 1.000 -0.000
vn -0.707 0.000 -0.707
vn -0.000 -1.000 -0.000
vn 0.707 -0.000 0.707
vn 0.000 1.000 0.000
vn 0.000 1.000 -0.000
vn -0.500 0.000 -0.866
vn -0.000 -1.000 -0.000
vn 0.500 -0.000 0.866
vn 0.000 1.000 0.000
vn 0.000 1.000 -0.000
vn -0.259 0.000 -0.966
vn -0.000 -1.000 -0.000
vn 0.259 -0.000 0.966
vn 0.000 1.000 0.000
vn 0.000 1.000 -0.000
vn 0.000 0.000 -1.000
vn -0.000 -1.000 -0.000
vn 0.000 -0.000 1.000
vn 0.000 1.000 0.000
vn 0.000 1.000 0.000
vn 0.259 0.000 -0.966
vn 0.000 -1.000 -0.000
vn -0.259 -0.000 0.966
vn -0.000 1.000 0.000
vn 0.000 1.000 0.000
vn 0.500 0.000 -0.866
vn 0.000 -1.000 -0.000
vn -0.500 -0.000 0.866
vn -0.000 1.000 0.000
vn 0.000 1.000 0.000
vn 0.707 0.000 -0.707
vn 0.000 -1.000 -0.000
vn -0.707 -0.000 0.707
vn -0.000 1.000 0.000
vn 0.000 1.000 0.000
vn 0.866 0.000 -0.500
vn 0.000 -1.000 -0.000
vn -0.866 -0.000 0.500
vn -0.000 1.000 0.000
vn 0.000 1.000 0.000
vn 0.966 0.000 -0.259
vn 0.000 -1.000 -0.000
vn -0.966 -0.000 0.259
vn -0.000 1.000 0.000
vn 0.000 1.000 0.000
vn 1.000 0.000 0.000
vn 0.000 -1.000 0.000
vn -1.000 -0.000 -0.000
vn -0.000 1.000 0.000
vn 0.000 1.000 0.000
vn 0.966 0.000 0.259
vn 0.000 -1.000 0.000
vn -0.966 -0.000 -0.259
vn -0.000 1.000 -0.000
vn 0.000 1.000 0.000
vn 0.866 0.000 0.500
vn 0.000 -1.000 0.000
vn -0.866 -0.000 -0.500
vn -0.000 1.000 -0.000
vn 0.000 1.000 0.000
vn 0.707 0.000 0.707
vn 0.000 -1.000 0.000
vn -0.707 -0.000 -0.707
vn -0.000 1.000 -0.000
vn 0.000 1.000 0.000
vn 0.500 0.000 0.866
vn 0.000 -1.000 0.000
vn -0.500 -0.000 -0.866
vn -0.000 1.000 -0.000
vn 0.000 1.000 0.000
vn 0.259 0.000 0.966
vn 0.000 -1.000 0.000
vn -0.259 -0.000 -0.966
vn -0.000 1.000 -0.000
vn 0.000 1.000 0.000
vn 0.000 0.000 1.000
vn 0.000 -1.000 0.000
vn -0.000 -0.000 -1.000
vn -0.000 1.000 -0.000
vn 0.000 1.000 0.000
vn -0.259 0.000 0.966
vn -0.000 -1.000 0.000
vn 0.259 -0.000 -0.966
vn 0.000 1.000 -0.000
vn 0.000 1.000 0.000
vn -0.500 0.000 0.866
vn -0.000 -1.000 0.000
vn 0.500 -0.000 -0.866
vn 0.000 1.000 -0.000
vn 0.000 1.000 0.000
vn -0.707 0.000 0.707
vn -0.000 -1.000 0.000
vn 0.707 -0.000 -0.707
vn 0.000 1.000 -0.000
vn 0.000 1.000 0.000
vn -0.866 0.000 0.500
vn -0.000 -1.000 0.000
vn 0.866 -0.000 -0.500
vn 0.000 1.000 -0.000
vn 0.000 1.000 0.000
vn -0.966 0.000 0.259
vn -0.000 -1.000 0.000
vn 0.966 -0.000 -0.259
vn 0.000 1.000 -0.000
vn 0.000 1.000 0.000
vn -1.000 0.000 0.000
vn -0.000 -1.000 0.000
vn 1.000 -0.000 0.000
vn 0.000 1.000 -0.000
vn -0.762 0.648 0.000
vn -0.381 0.324 0.866
vn 0.381 -0.324 0.866
vn 0.762 -0.648 0.000
vn 0.381 -0.324 -0.866
vn -0.381 0.324 -0.866
vn -0.762 0.648 -0.000
vn -0.776 0.630 0.000
vn -0.388 0.315 0.866
vn 0.388 -0.315 0.866
vn 0.776 -0.630 0.000
vn 0.388 -0.315 -0.866
vn -0.388 0.315 -0.866
vn -0.776 0.630 -0.000
vn -0.890 0.457 0.000
vn -0.445 0.228 0.866
vn 0.445 -0.228 0.866
vn 0.890 -0.457 0.000
vn 0.445 -0.228 -0.866
vn -0.445 0.228 -0.866
vn -0.890 0.457 -0.000
vn -0.974 0.228 0.000
vn -0.487 0.114 0.866
vn 0.487 -0.114 0.866
vn 0.974 -0.228 0.000
vn 0.487 -0.114 -0.866
vn -0.487 0.114 -0.866
vn -0.974 0.228 -0.000
vn -1.000 0.004 0.000
vn -0.500 0.002 0.866
vn 0.500 -0.002 0.866
vn 1.000 -0.004 0.000
vn 0.500 -0.002 -0.866
vn -0.500 0.002 -0.866
vn -1.000 0.004 -0.000
vn -1.000 -0.004 0.000
vn -0.500 -0.002 0.866
vn 0.500 0.002 0.866
vn 1.000 0.004 0.000
vn 0.500 0.002 -0.866
vn -0.500 -0.002 -0.866
vn -1.000 -0.004 -0.000
vn -0.974 -0.228 0.000
vn -0.487 -0.114 0.866
vn 0.487 0.114 0.866
vn 0.974 0.228 0.000
vn 0.487 0.114 -0.866
vn -0.487 -0.114 -0.866
vn -0.974 -0.228 -0.000
vn -0.890 -0.457 0.000
vn -0.445 -0.228 0.866
vn 0.445 0.228 0.866
vn 0.890 0.457 0.000
vn 0.445 0.228 -0.866
vn -0.445 -0.228 -0.866
vn -0.890 -0.457 -0.000
vn -0.776 -0.630 0.000
vn -0.388 -0.315 0.866
vn 0.388 0.315 0.866
vn 0.776 0.630 0.000
vn 0.388 0.315 -0.866
vn -0.388 -0.315 -0.866
vn -0.776 -0.630 -0.000
vn -0.762 -0.648 0.000
vn -0.381 -0.324 0.866
vn 0.381 0.324 0.866
vn 0.762 0.648 0.000
vn 0.381 0.324 -0.866
vn -0.381 -0.324 -0.866
vn -0.762 -0.648 -0.000
vn -0.648 -0.762 -0.000
vn -0.648 -0.762 -0.000
vn -0.648 -0.762 -0.000
vn -0.648 -0.762 -0.000
vn -0.648 -0.762 -0.000
vn -0.648 -0.762 -0.000
vn -0.648 -0.762 -0.000
vn -0.648 0.762 0.000
vn -0.648 0.762 0.000
vn -0.648 0.762 0.000
vn -0.648 0.762 0.000
vn -0.648 0.762 0.000
vn -0.648 0.762 0.000
vn -0.648 0.762 0.000
v 0.0000 0.1050 -0.0000
v 0.0340 0.1050 -0.0000
v 0.0360 0.1500 -0.0000
v 0.0330 0.1520 -0.0000
v 0.0000 0.1520 -0.0000
v 0.0000 0.1050 -0.0000
v 0.0328 0.1050 -0.0088
v 0.0348 0.1500 -0.0093
v 0.0319 0.1520 -0.0085
v 0.0000 0.1520 -0.0000
v 0.0000 0.1050 -0.0000
v 0.0294 0.1050 -0.0170
v 0.0312 0.1500 -0.0180
v 0.0286 0.1520 -0.0165
v 0.0000 0.1520 -0.0000
v 0.0000 0.1050 -0.0000
v 0.0240 0.1050 -0.0240
v 0.0255 0.1500 -0.0255
v 0.0233 0.1520 -0.0233
v 0.0000 0.1520 -0.0000
v 0.0000 0.1050 -0.0000
v 0.0170 0.1050 -0.0294
v 0.0180 0.1500 -0.0312
v 0.0165 0.1520 -0.0286
v 0.0000 0.1520 -0.0000
v 0.0000 0.1050 -0.0000
v 0.0088 0.1050 -0.0328
v 0.0093 0.1500 -0.0348
v 0.0085 0.1520 -0.0319
v 0.0000 0.1520 -0.0000
v 0.0000 0.1050 -0.0000
v 0.0000 0.1050 -0.0340
v 0.0000 0.1500 -0.0360
v 0.0000 0.1520 -0.0330
v 0.0000 0.1520 -0.0000
v -0.0000 0.1050 -0.0000
v -0.0088 0.1050 -0.0328
v -0.0093 0.1500 -0.0348
v -0.0085 0.1520 -0.0319
v -0.0000 0.1520 -0.0000
v -0.0000 0.1050 -0.0000
v -0.0170 0.1050 -0.0294
v -0.0180 0.1500 -0.0312
v -0.0165 0.1520 -0.0286
v -0.0000 0.1520 -0.0000
v -0.0000 0.1050 -0.0000
v -0.0240 0.1050 -0.0240
v -0.0255 0.1500 -0.0255
v -0.0233 0.1520 -0.0233
v -0.0000 0.1520 -0.0000
v -0.0000 0.1050 -0.0000
v -0.0294 0.1050 -0.0170
v -0.0312 0.1500 -0.0180
v -0.0286 0.1520 -0.0165
v -0.0000 0.1520 -0.0000
v -0.0000 0.1050 -0.0000
v -0.0328 0.1050 -0.0088
v -0.0348 0.1500 -0.0093
v -0.0319 0.1520 -0.0085
v -0.0000 0.1520 -0.0000
v -0.0000 0.1050 -0.0000
v -0.0340 0.1050 -0.0000
v -0.0360 0.1500 -0.0000
v -0.0330 0.1520 -0.0000
v -0.0000 0.1520 -0.0000
v -0.0000 0.1050 0.0000
v -0.0328 0.1050 0.0088
v -0.0348 0.1500 0.0093
v -0.0319 0.1520 0.0085
v -0.0000 0.1520 0.0000
v -0.0000 0.1050 0.0000
v -0.0294 0.1050 0.0170
v -0.0312 0.1500 0.0180
v -0.0286 0.1520 0.0165
v -0.0000 0.1520 0.0000
v -0.0000 0.1050 0.0000
v -0.0240 0.1050 0.0240
v -0.0255 0.1500 0.0255
v -0.0233 0.1520 0.0233
v -0.0000 0.1520 0.0000
v -0.0000 0.1050 0.0000
v -0.0170 0.1050 0.0294
v -0.0180 0.1500 0.0312
v -0.0165 0.1520 0.0286
v -0.0000 0.1520 0.0000
v -0.0000 0.1050 0.0000
v -0.0088 0.1050 0.0328
v -0.0093 0.1500 0.0348
v -0.0085 0.1520 0.0319
v -0.0000 0.1520 0.0000
v -0.0000 0.1050 0.0000
v -0.0000 0.1050 0.0340
v -0.0000 0.1500 0.0360
v -0.0000 0.1520 0.0330
v -0.0000 0.1520 0.0000
v 0.0000 0.1050 0.0000
v 0.0088 0.1050 0.0328
v 0.0093 0.1500 0.0348
v 0.0085 0.1520 0.0319
v 0.0000 0.1520 0.0000
v 0.0000 0.1050 0.0000
v 0.0170 0.1050 0.0294
v 0.0180 0.1500 0.0312
v 0.0165 0.1520 0.0286
v 0.0000 0.1520 0.0000
v 0.0000 0.1050 0.0000
v 0.0240 0.1050 0.0240
v 0.0255 0.1500 0.0255
v 0.0233 0.1520 0.0233
v 0.0000 0.1520 0.0000
v 0.0000 0.1050 0.0000
v 0.0294 0.1050 0.0170
v 0.0312 0.1500 0.0180
v 0.0286 0.1520 0.0165
v 0.0000 0.1520 0.0000
v 0.0000 0.1050 0.0000
v 0.0328 0.1050 0.0088
v 0.0348 0.1500 0.0093
v 0.0319 0.1520 0.0085
v 0.0000 0.1520 0.0000
v 0.0000 0.1050 0.0000
v 0.0340 0.1050 0.0000
v 0.0360 0.1500 0.0000
v 0.0330 0.1520 0.0000
v 0.0000 0.1520 0.0000
vt 0.0000 0.0000
vt 0.0000 0.0340
vt 0.0000 0.0790
vt 0.0000 0.0826
vt 0.0000 0.1156
vt 0.0094 0.0000
vt 0.0094 0.0340
vt 0.0094 0.0790
vt 0.0094 0.0826
vt 0.0094 0.1156
vt 0.0188 0.0000
vt 0.0188 0.0340
vt 0.0188 0.0790
vt 0.0188 0.0826
vt 0.0188 0.1156
vt 0.0283 0.0000
vt 0.0283 0.0340
vt 0.0283 0.0790
vt 0.0283 0.0826
vt 0.0283 0.1156
vt 0.0377 0.0000
vt 0.0377 0.0340
vt 0.0377 0.0790
vt 0.0377 0.0826
vt 0.0377 0.1156
vt 0.0471 0.0000
vt 0.0471 0.0340
vt 0.0471 0.0790
vt 0.0471 0.0826
vt 0.0471 0.1156
vt 0.0565 0.0000
vt 0.0565 0.0340
vt 0.0565 0.0790
vt 0.0565 0.0826
vt 0.0565 0.1156
vt 0.0660 0.0000
vt 0.0660 0.0340
vt 0.0660 0.0790
vt 0.0660 0.0826
vt 0.0660 0.1156
vt 0.0754 0.0000
vt 0.0754 0.0340
vt 0.0754 0.0790
vt 0.0754 0.0826
vt 0.0754 0.1156
vt 0.0848 0.0000
vt 0.0848 0.0340
vt 0.0848 0.0790
vt 0.0848 0.0826
vt 0.0848 0.1156
vt 0.0942 0.0000
vt 0.0942 0.0340
vt 0.0942 0.0790
vt 0.0942 0.0826
vt 0.0942 0.1156
vt 0.1037 0.0000
vt 0.1037 0.0340
vt 0.1037 0.0790
vt 0.1037 0.0826
vt 0.1037 0.1156
vt 0.1131 0.0000
vt 0.1131 0.0340
vt 0.1131 0.0790
vt 0.1131 0.0826
vt 0.1131 0.1156
vt 0.1225 0.0000
vt 0.1225 0.0340
vt 0.1225 0.0790
vt 0.1225 0.0826
vt 0.1225 0.1156
vt 0.1319 0.0000
vt 0.1319 0.0340
vt 0.1319 0.0790
vt 0.1319 0.0826
vt 0.1319 0.1156
vt 0.1414 0.0000
vt 0.1414 0.0340
vt 0.1414 0.0790
vt 0.1414 0.0826
vt 0.1414 0.1156
vt 0.1508 0.0000
vt 0.1508 0.0340
vt 0.1508 0.0790
vt 0.1508 0.0826
vt 0.1508 0.1156
vt 0.1602 0.0000
vt 0.1602 0.0340
vt 0.1602 0.0790
vt 0.1602 0.0826
vt 0.1602 0.1156
vt 0.1696 0.0000
vt 0.1696 0.0340
vt 0.1696 0.0790
vt 0.1696 0.0826
vt 0.1696 0.1156
vt 0.1791 0.0000
vt 0.1791 0.0340
vt 0.1791 0.0790
vt 0.1791 0.0826
vt 0.1791 0.1156
vt 0.1885 0.0000
vt 0.1885 0.0340
vt 0.1885 0.0790
vt 0.1885 0.0826
vt 0.1885 0.1156
vt 0.1979 0.0000
vt 0.1979 0.0340
vt 0.1979 0.0790
vt 0.1979 0.0826
vt 0.1979 0.1156
vt 0.2073 0.0000
vt 0.2073 0.0340
vt 0.2073 0.0790
vt 0.2073 0.0826
vt 0.2073 0.1156
vt 0.2168 0.0000
vt 0.2168 0.0340
vt 0.2168 0.0790
vt 0.2168 0.0826
vt 0.2168 0.1156
vt 0.2262 0.0000
vt 0.2262 0.0340
vt 0.2262 0.0790
vt 0.2262 0.0826
vt 0.2262 0.1156
vn 0.000 -1.000 -0.000
vn 0.781 -0.625 -0.000
vn 1.000 0.021 -0.000
vn 0.055 0.998 -0.000
vn 0.000 1.000 -0.000
vn 0.000 -1.000 -0.000
vn 0.754 -0.625 -0.202
vn 0.966 0.021 -0.259
vn 0.054 0.998 -0.014
vn 0.000 1.000 -0.000
vn 0.000 -1.000 -0.000
vn 0.676 -0.625 -0.390
vn 0.866 0.021 -0.500
vn 0.048 0.998 -0.028
vn 0.000 1.000 -0.000
vn 0.000 -1.000 -0.000
vn 0.552 -0.625 -0.552
vn 0.707 0.021 -0.707
vn 0.039 0.998 -0.039
vn 0.000 1.000 -0.000
vn 0.000 -1.000 -0.000
vn 0.390 -0.625 -0.676
vn 0.500 0.021 -0.866
vn 0.028 0.998 -0.048
vn 0.000 1.000 -0.000
vn 0.000 -1.000 -0.000
vn 0.202 -0.625 -0.754
vn 0.259 0.021 -0.966
vn 0.014 0.998 -0.054
vn 0.000 1.000 -0.000
vn 0.000 -1.000 -0.000
vn 0.000 -0.625 -0.781
vn 0.000 0.021 -1.000
vn 0.000 0.998 -0.055
vn 0.000 1.000 -0.000
vn -0.000 -1.000 -0.000
vn -0.202 -0.625 -0.754
vn -0.259 0.021 -0.966
vn -0.014 0.998 -0.054
vn -0.000 1.000 -0.000
vn -0.000 -1.000 -0.000
vn -0.390 -0.625 -0.676
vn -0.500 0.021 -0.866
vn -0.028 0.998 -0.048
vn -0.000 1.000 -0.000
vn -0.000 -1.000 -0.000
vn -0.552 -0.625 -0.552
vn -0.707 0.021 -0.707
vn -0.039 0.998 -0.039
vn -0.000 1.000 -0.000
vn -0.000 -1.000 -0.000
vn -0.676 -0.625 -0.390
vn -0.866 0.021 -0.500
vn -0.048 0.998 -0.028
vn -0.000 1.000 -0.000
vn -0.000 -1.000 -0.000
vn -0.754 -0.625 -0.202
vn -0.966 0.021 -0.259
vn -0.054 0.998 -0.014
vn -0.000 1.000 -0.000
vn -0.000 -1.000 -0.000
vn -0.781 -0.625 -0.000
vn -1.000 0.021 -0.000
vn -0.055 0.998 -0.000
vn -0.000 1.000 -0.000
vn -0.000 -1.000 0.000
vn -0.754 -0.625 0.202
vn -0.966 0.021 0.259
vn -0.054 0.998 0.014
vn -0.000 1.000 0.000
vn -0.000 -1.000 0.000
vn -0.676 -0.625 0.390
vn -0.866 0.021 0.500
vn -0.048 0.998 0.028
vn -0.000 1.000 0.000
vn -0.000 -1.000 0.000
vn -0.552 -0.625 0.552
vn -0.707 0.021 0.707
vn -0.039 0.998 0.039
vn -0.000 1.000 0.000
vn -0.000 -1.000 0.000
vn -0.390 -0.625 0.676
vn -0.500 0.021 0.866
vn -0.028 0.998 0.048
vn -0.000 1.000 0.000
vn -0.000 -1.000 0.000
vn -0.202 -0.625 0.754
vn -0.259 0.021 0.966
vn -0.014 0.998 0.054
vn -0.000 1.000 0.000
vn -0.000 -1.000 0.000
vn -0.000 -0.625 0.781
vn -0.000 0.021 1.000
vn -0.000 0.998 0.055
vn -0.000 1.000 0.000
vn 0.000 -1.000 0.000
vn 0.202 -0.625 0.754
vn 0.259 0.021 0.966
vn 0.014 0.998 0.054
vn 0.000 1.000 0.000
vn 0.000 -1.000 0.000
vn 0.390 -0.625 0.676
vn 0.500 0.021 0.866
vn 0.028 0.998 0.048
vn 0.000 1.000 0.000
vn 0.000 -1.000 0.000
vn 0.552 -0.625 0.552
vn 0.707 0.021 0.707
vn 0.039 0.998 0.039
vn 0.000 1.000 0.000
vn 0.000 -1.000 0.000
vn 0.676 -0.625 0.390
vn 0.866 0.021 0.500
vn 0.048 0.998 0.028
vn 0.000 1.000 0.000
vn 0.000 -1.000 0.000
vn 0.754 -0.625 0.202
vn 0.966 0.021 0.259
vn 0.054 0.998 0.014
vn 0.000 1.000 0.000
vn 0.000 -1.000 0.000
vn 0.781 -0.625 0.000
vn 1.000 0.021 0.000
vn 0.055 0.998 0.000
vn 0.000 1.000 0.000
usemtl body
f 1/1/1 3/3/3 4/4/4
f 1/1/1 4/4/4 2/2/2
f 3/3/3 5/5/5 6/6/6
f 3/3/3 6/6/6 4/4/4
f 5/5/5 7/7/7 8/8/8
f 5/5/5 8/8/8 6/6/6
f 7/7/7 9/9/9 10/10/10
f 7/7/7 10/10/10 8/8/8
f 9/9/9 11/11/11 12/12/12
f 9/9/9 12/12/12 10/10/10
f 11/11/11 13/13/13 14/14/14
f 11/11/11 14/14/14 12/12/12
f 13/13/13 15/15/15 16/16/16
f 13/13/13 16/16/16 14/14/14
f 15/15/15 17/17/17 18/18/18
f 15/15/15 18/18/18 16/16/16
f 17/17/17 19/19/19 20/20/20
f 17/17/17 20/20/20 18/18/18
f 19/19/19 21/21/21 22/22/22
f 19/19/19 22/22/22 20/20/20
f 21/21/21 23/23/23 24/24/24
f 21/21/21 24/24/24 22/22/22
f 23/23/23 25/25/25 26/26/26
f 23/23/23 26/26/26 24/24/24
f 25/25/25 27/27/27 28/28/28
f 25/25/25 28/28/28 26/26/26
f 27/27/27 29/29/29 30/30/30
f 27/27/27 30/30/30 28/28/28
f 29/29/29 31/31/31 32/32/32
f 29/29/29 32/32/32 30/30/30
f 31/31/31 33/33/33 34/34/34
f 31/31/31 34/34/34 32/32/32
f 33/33/33 35/35/35 36/36/36
f 33/33/33 36/36/36 34/34/34
f 35/35/35 37/37/37 38/38/38
f 35/35/35 38/38/38 36/36/36
f 37/37/37 39/39/39 40/40/40
f 37/37/37 40/40/40 38/38/38
f 39/39/39 41/41/41 42/42/42
f 39/39/39 42/42/42 40/40/40
f 41/41/41 43/43/43 44/44/44
f 41/41/41 44/44/44 42/42/42
f 43/43/43 45/45/45 46/46/46
f 43/43/43 46/46/46 44/44/44
f 45/45/45 47/47/47 48/48/48
f 45/45/45 48/48/48 46/46/46
f 47/47/47 49/49/49 50/50/50
f 47/47/47 50/50/50 48/48/48
f 49/49/49 51/51/51 52/52/52
f 49/49/49 52/52/52 50/50/50
f 51/51/51 53/53/53 54/54/54
f 51/51/51 54/54/54 52/52/52
f 53/53/53 55/55/55 56/56/56
f 53/53/53 56/56/56 54/54/54
f 55/55/55 57/57/57 58/58/58
f 55/55/55 58/58/58 56/56/56
usemtl metal
f 59/59/59 64/64/64 65/65/65
f 59/59/59 65/65/65 60/60/60
f 60/60/60 65/65/65 66/66/66
f 60/60/60 66/66/66 61/61/61
f 61/61/61 66/66/66 67/67/67
f 61/61/61 67/67/67 62/62/62
f 62/62/62 67/67/67 68/68/68
f 62/62/62 68/68/68 63/63/63
f 64/64/64 69/69/69 70/70/70
f 64/64/64 70/70/70 65/65/65
f 65/65/65 70/70/70 71/71/71
f 65/65/65 71/71/71 66/66/66
f 66/66/66 71/71/71 72/72/72
f 66/66/66 72/72/72 67/67/67
f 67/67/67 72/72/72 73/73/73
f 67/67/67 73/73/73 68/68/68
f 69/69/69 74/74/74 75/75/75
f 69/69/69 75/75/75 70/70/70
f 70/70/70 75/75/75 76/76/76
f 70/70/70 76/76/76 71/71/71
f 71/71/71 76/76/76 77/77/77
f 71/71/71 77/77/77 72/72/72
f 72/72/72 77/77/77 78/78/78
f 72/72/72 78/78/78 73/73/73
f 74/74/74 79/79/79 80/80/80
f 74/74/74 80/80/80 75/75/75
f 75/75/75 80/80/80 81/81/81
f 75/75/75 81/81/81 76/76/76
f 76/76/76 81/81/81 82/82/82
f 76/76/76 82/82/82 77/77/77
f 77/77/77 82/82/82 83/83/83
f 77/77/77 83/83/83 78/78/78
f 79/79/79 84/84/84 85/85/85
f 79/79/79 85/85/85 80/80/80
f 80/80/80 85/85/85 86/86/86
f 80/80/80 86/86/86 81/81/81
f 81/81/81 86/86/86 87/87/87
f 81/81/81 87/87/87 82/82/82
f 82/82/82 87/87/87 88/88/88
f 82/82/82 88/88/88 83/83/83
f 84/84/84 89/89/89 90/90/90
f 84/84/84 90/90/90 85/85/85
f 85/85/85 90/90/90 91/91/91
f 85/85/85 91/91/91 86/86/86
f 86/86/86 91/91/91 92/92/92
f 86/86/86 92/92/92 87/87/87
f 87/87/87 92/92/92 93/93/93
f 87/87/87 93/93/93 88/88/88
f 89/89/89 94/94/94 95/95/95
f 89/89/89 95/95/95 90/90/90
f 90/90/90 95/95/95 96/96/96
f 90/90/90 96/96/96 91/91/91
f 91/91/91 96/96/96 97/97/97
f 91/91/91 97/97/97 92/92/92
f 92/92/92 97/97/97 98/98/98
f 92/92/92 98/98/98 93/93/93
f 94/94/94 99/99/99 100/100/100
f 94/94/94 100/100/100 95/95/95
f 95/95/95 100/100/100 101/101/101
f 95/95/95 101/101/101 96/96/96
f 96/96/96 101/101/101 102/102/102
f 96/96/96 102/102/102 97/97/97
f 97/97/97 102/102/102 103/103/103
f 97/97/97 103/103/103 98/98/98
f 99/99/99 104/104/104 105/105/105
f 99/99/99 105/105/105 100/100/100
f 100/100/100 105/105/105 106/106/106
f 100/100/100 106/106/106 101/101/101
f 101/101/101 106/106/106 107/107/107
f 101/101/101 107/107/107 102/102/102
f 102/102/102 107/107/107 108/108/108
f 102/102/102 108/108/108 103/103/103
f 104/104/104 109/109/109 110/110/110
f 104/104/104 110/110/110 105/105/105
f 105/105/105 110/110/110 111/111/111
f 105/105/105 111/111/111 106/106/106
f 106/106/106 111/111/111 112/112/112
f 106/106/106 112/112/112 107/107/107
f 107/107/107 112/112/112 113/113/113
f 107/107/107 113/113/113 108/108/108
f 109/109/109 114/114/114 115/115/115
f 109/109/109 115/115/115 110/110/110
f 110/110/110 115/115/115 116/116/116
f 110/110/110 116/116/116 111/111/111
f 111/111/111 116/116/116 117/117/117
f 111/111/111 117/117/117 112/112/112
f 112/112/112 117/117/117 118/118/118
f 112/112/112 118/118/118 113/113/113
f 114/114/114 119/119/119 120/120/120
f 114/114/114 120/120/120 115/115/115
f 115/115/115 120/120/120 121/121/121
f 115/115/115 121/121/121 116/116/116
f 116/116/116 121/121/121 122/122/122
f 116/116/116 122/122/122 117/117/117
f 117/117/117 122/122/122 123/123/123
f 117/117/117 123/123/123 118/118/118
f 119/119/119 124/124/124 125/125/125
f 119/119/119 125/125/125 120/120/120
f 120/120/120 125/125/125 126/126/126
f 120/120/120 126/126/126 121/121/121
f 121/121/121 126/126/126 127/127/127
f 121/121/121 127/127/127 122/122/122
f 122/122/122 127/127/127 128/128/128
f 122/122/122 128/128/128 123/123/123
f 124/124/124 129/129/129 130/130/130
f 124/124/124 130/130/130 125/125/125
f 125/125/125 130/130/130 131/131/131
f 125/125/125 131/131/131 126/126/126
f 126/126/126 131/131/131 132/132/132
f 126/126/126 132/132/132 127/127/127
f 127/127/127 132/132/132 133/133/133
f 127/127/127 133/133/133 128/128/128
f 129/129/129 134/134/134 135/135/135
f 129/129/129 135/135/135 130/130/130
f 130/130/130 135/135/135 136/136/136
f 130/130/130 136/136/136 131/131/131
f 131/131/131 136/136/136 137/137/137
f 131/131/131 137/137/137 132/132/132
f 132/132/132 137/137/137 138/138/138
f 132/132/132 138/138/138 133/133/133
f 134/134/134 139/139/139 140/140/140
f 134/134/134 140/140/140 135/135/135
f 135/135/135 140/140/140 141/141/141
f 135/135/135 141/141/141 136/136/136
f 136/136/136 141/141/141 142/142/142
f 136/136/136 142/142/142 137/137/137
f 137/137/137 142/142/142 143/143/143
f 137/137/137 143/143/143 138/138/138
f 139/139/139 144/144/144 145/145/145
f 139/139/139 145/145/145 140/140/140
f 140/140/140 145/145/145 146/146/146
f 140/140/140 146/146/146 141/141/141
f 141/141/141 146/146/146 147/147/147
f 141/141/141 147/147/147 142/142/142
f 142/142/142 147/147/147 148/148/148
f 142/142/142 148/148/148 143/143/143
f 144/144/144 149/149/149 150/150/150
f 144/144/144 150/150/150 145/145/145
f 145/145/145 150/150/150 151/151/151
f 145/145/145 151/151/151 146/146/146
f 146/146/146 151/151/151 152/152/152
f 146/146/146 152/152/152 147/147/147
f 147/147/147 152/152/152 153/153/153
f 147/147/147 153/153/153 148/148/148
f 149/149/149 154/154/154 155/155/155
f 149/149/149 155/155/155 150/150/150
f 150/150/150 155/155/155 156/156/156
f 150/150/150 156/156/156 151/151/151
f 151/151/151 156/156/156 157/157/157
f 151/151/151 157/157/157 152/152/152
f 152/152/152 157/157/157 158/158/158
f 152/152/152 158/158/158 153/153/153
f 154/154/154 159/159/159 160/160/160
f 154/154/154 160/160/160 155/155/155
f 155/155/155 160/160/160 161/161/161
f 155/155/155 161/161/161 156/156/156
f 156/156/156 161/161/161 162/162/162
f 156/156/156 162/162/162 157/157/157
f 157/157/157 162/162/162 163/163/163
f 157/157/157 163/163/163 158/158/158
f 159/159/159 164/164/164 165/165/165
f 159/159/159 165/165/165 160/160/160
f 160/160/160 165/165/165 166/166/166
f 160/160/160 166/166/166 161/161/161
f 161/161/161 166/166/166 167/167/167
f 161/161/161 167/167/167 162/162/162
f 162/162/162 167/167/167 168/168/168
f 162/162/162 168/168/168 163/163/163
f 164/164/164 169/169/169 170/170/170
f 164/164/164 170/170/170 165/165/165
f 165/165/165 170/170/170 171/171/171
f 165/165/165 171/171/171 166/166/166
f 166/166/166 171/171/171 172/172/172
f 166/166/166 172/172/172 167/167/167
f 167/167/167 172/172/172 173/173/173
f 167/167/167 173/173/173 168/168/168
f 169/169/169 174/174/174 175/175/175
f 169/169/169 175/175/175 170/170/170
f 170/170/170 175/175/175 176/176/176
f 170/170/170 176/176/176 171/171/171
f 171/171/171 176/176/176 177/177/177
f 171/171/171 177/177/177 172/172/172
f 172/172/172 177/177/177 178/178/178
f 172/172/172 178/178/178 173/173/173
f 174/174/174 179/179/179 180/180/180
f 174/174/174 180/180/180 175/175/175
f 175/175/175 180/180/180 181/181/181
f 175/175/175 181/181/181 176/176/176
f 176/176/176 181/181/181 182/182/182
f 176/176/176 182/182/182 177/177/177
f 177/177/177 182/182/182 183/183/183
f 177/177/177 183/183/183 178/178/178
f 179/179/179 184/184/184 185/185/185
f 179/179/179 185/185/185 180/180/180
f 180/180/180 185/185/185 186/186/186
f 180/180/180 186/186/186 181/181/181
f 181/181/181 186/186/186 187/187/187
f 181/181/181 187/187/187 182/182/182
f 182/182/182 187/187/187 188/188/188
f 182/182/182 188/188/188 183/183/183
f 184/184/184 189/189/189 190/190/190
f 184/184/184 190/190/190 185/185/185
f 185/185/185 190/190/190 191/191/191
f 185/185/185 191/191/191 186/186/186
f 186/186/186 191/191/191 192/192/192
f 186/186/186 192/192/192 187/187/187
f 187/187/187 192/192/192 193/193/193
f 187/187/187 193/193/193 188/188/188
f 189/189/189 194/194/194 195/195/195
f 189/189/189 195/195/195 190/190/190
f 190/190/190 195/195/195 196/196/196
f 190/190/190 196/196/196 191/191/191
f 191/191/191 196/196/196 197/197/197
f 191/191/191 197/197/197 192/192/192
f 192/192/192 197/197/197 198/198/198
f 192/192/192 198/198/198 193/193/193
f 194/194/194 199/199/199 200/200/200
f 194/194/194 200/200/200 195/195/195
f 195/195/195 200/200/200 201/201/201
f 195/195/195 201/201/201 196/196/196
f 196/196/196 201/201/201 202/202/202
f 196/196/196 202/202/202 197/197/197
f 197/197/197 202/202/202 203/203/203
f 197/197/197 203/203/203 198/198/198
f 204/204/204 209/209/209 210/210/210
f 204/204/204 210/210/210 205/205/205
f 205/205/205 210/210/210 211/211/211
f 205/205/205 211/211/211 206/206/206
f 206/206/206 211/211/211 212/212/212
f 206/206/206 212/212/212 207/207/207
f 207/207/207 212/212/212 213/213/213
f 207/207/207 213/213/213 208/208/208
f 209/209/209 214/214/214 215/215/215
f 209/209/209 215/215/215 210/210/210
f 210/210/210 215/215/215 216/216/216
f 210/210/210 216/216/216 211/211/211
f 211/211/211 216/216/216 217/217/217
f 211/211/211 217/217/217 212/212/212
f 212/212/212 217/217/217 218/218/218
f 212/212/212 218/218/218 213/213/213
f 214/214/214 219/219/219 220/220/220
f 214/214/214 220/220/220 215/215/215
f 215/215/215 220/220/220 221/221/221
f 215/215/215 221/221/221 216/216/216
f 216/216/216 221/221/221 222/222/222
f 216/216/216 222/222/222 217/217/217
f 217/217/217 222/222/222 223/223/223
f 217/217/217 223/223/223 218/218/218
f 219/219/219 224/224/224 225/225/225
f 219/219/219 225/225/225 220/220/220
f 220/220/220 225/225/225 226/226/226
f 220/220/220 226/226/226 221/221/221
f 221/221/221 226/226/226 227/227/227
f 221/221/221 227/227/227 222/222/222
f 222/222/222 227/227/227 228/228/228
f 222/222/222 228/228/228 223/223/223
f 224/224/224 229/229/229 230/230/230
f 224/224/224 230/230/230 225/225/225
f 225/225/225 230/230/230 231/231/231
f 225/225/225 231/231/231 226/226/226
f 226/226/226 231/231/231 232/232/232
f 226/226/226 232/232/232 227/227/227
f 227/227/227 232/232/232 233/233/233
f 227/227/227 233/233/233 228/228/228
f 229/229/229 234/234/234 235/235/235
f 229/229/229 235/235/235 230/230/230
f 230/230/230 235/235/235 236/236/236
f 230/230/230 236/236/236 231/231/231
f 231/231/231 236/236/236 237/237/237
f 231/231/231 237/237/237 232/232/232
f 232/232/232 237/237/237 238/238/238
f 232/232/232 238/238/238 233/233/233
f 234/234/234 239/239/239 240/240/240
f 234/234/234 240/240/240 235/235/235
f 235/235/235 240/240/240 241/241/241
f 235/235/235 241/241/241 236/236/236
f 236/236/236 241/241/241 242/242/242
f 236/236/236 242/242/242 237/237/237
f 237/237/237 242/242/242 243/243/243
f 237/237/237 243/243/243 238/238/238
f 239/239/239 244/244/244 245/245/245
f 239/239/239 245/245/245 240/240/240
f 240/240/240 245/245/245 246/246/246
f 240/240/240 246/246/246 241/241/241
f 241/241/241 246/246/246 247/247/247
f 241/241/241 247/247/247 242/242/242
f 242/242/242 247/247/247 248/248/248
f 242/242/242 248/248/248 243/243/243
f 244/244/244 249/249/249 250/250/250
f 244/244/244 250/250/250 245/245/245
f 245/245/245 250/250/250 251/251/251
f 245/245/245 251/251/251 246/246/246
f 246/246/246 251/251/251 252/252/252
f 246/246/246 252/252/252 247/247/247
f 247/247/247 252/252/252 253/253/253
f 247/247/247 253/253/253 248/248/248
f 249/249/249 254/254/254 255/255/255
f 249/249/249 255/255/255 250/250/250
f 250/250/250 255/255/255 256/256/256
f 250/250/250 256/256/256 251/251/251
f 251/251/251 256/256/256 257/257/257
f 251/251/251 257/257/257 252/252/252
f 252/252/252 257/257/257 258/258/258
f 252/252/252 258/258/258 253/253/253
f 254/254/254 259/259/259 260/260/260
f 254/254/254 260/260/260 255/255/255
f 255/255/255 260/260/260 261/261/261
f 255/255/255 261/261/261 256/256/256
f 256/256/256 261/261/261 262/262/262
f 256/256/256 262/262/262 257/257/257
f 257/257/257 262/262/262 263/263/263
f 257/257/257 263/263/263 258/258/258
f 259/259/259 264/264/264 265/265/265
f 259/259/259 265/265/265 260/260/260
f 260/260/260 265/265/265 266/266/266
f 260/260/260 266/266/266 261/261/261
f 261/261/261 266/266/266 267/267/267
f 261/261/261 267/267/267 262/262/262
f 262/262/262 267/267/267 268/268/268
f 262/262/262 268/268/268 263/263/263
f 264/264/264 269/269/269 270/270/270
f 264/264/264 270/270/270 265/265/265
f 265/265/265 270/270/270 271/271/271
f 265/265/265 271/271/271 266/266/266
f 266/266/266 271/271/271 272/272/272
f 266/266/266 272/272/272 267/267/267
f 267/267/267 272/272/272 273/273/273
f 267/267/267 273/273/273 268/268/268
f 269/269/269 274/274/274 275/275/275
f 269/269/269 275/275/275 270/270/270
f 270/270/270 275/275/275 276/276/276
f 270/270/270 276/276/276 271/271/271
f 271/271/271 276/276/276 277/277/277
f 271/271/271 277/277/277 272/272/272
f 272/272/272 277/277/277 278/278/278
f 272/272/272 278/278/278 273/273/273
f 274/274/274 279/279/279 280/280/280
f 274/274/274 280/280/280 275/275/275
f 275/275/275 280/280/280 281/281/281
f 275/275/275 281/281/281 276/276/276
f 276/276/276 281/281/281 282/282/282
f 276/276/276 282/282/282 277/277/277
f 277/277/277 282/282/282 283/283/283
f 277/277/277 283/283/283 278/278/278
f 279/279/279 284/284/284 285/285/285
f 279/279/279 285/285/285 280/280/280
f 280/280/280 285/285/285 286/286/286
f 280/280/280 286/286/286 281/281/281
f 281/281/281 286/286/286 287/287/287
f 281/281/281 287/287/287 282/282/282
f 282/282/282 287/287/287 288/288/288
f 282/282/282 288/288/288 283/283/283
f 284/284/284 289/289/289 290/290/290
f 284/284/284 290/290/290 285/285/285
f 285/285/285 290/290/290 291/291/291
f 285/285/285 291/291/291 286/286/286
f 286/286/286 291/291/291 292/292/292
f 286/286/286 292/292/292 287/287/287
f 287/287/287 292/292/292 293/293/293
f 287/287/287 293/293/293 288/288/288
f 289/289/289 294/294/294 295/295/295
f 289/289/289 295/295/295 290/290/290
f 290/290/290 295/295/295 296/296/296
f 290/290/290 296/296/296 291/291/291
f 291/291/291 296/296/296 297/297/297
f 291/291/291 297/297/297 292/292/292
f 292/292/292 297/297/297 298/298/298
f 292/292/292 298/298/298 293/293/293
f 294/294/294 299/299/299 300/300/300
f 294/294/294 300/300/300 295/295/295
f 295/295/295 300/300/300 301/301/301
f 295/295/295 301/301/301 296/296/296
f 296/296/296 301/301/301 302/302/302
f 296/296/296 302/302/302 297/297/297
f 297/297/297 302/302/302 303/303/303
f 297/297/297 303/303/303 298/298/298
f 299/299/299 304/304/304 305/305/305
f 299/299/299 305/305/305 300/300/300
f 300/300/300 305/305/305 306/306/306
f 300/300/300 306/306/306 301/301/301
f 301/301/301 306/306/306 307/307/307
f 301/301/301 307/307/307 302/302/302
f 302/302/302 307/307/307 308/308/308
f 302/302/302 308/308/308 303/303/303
f 304/304/304 309/309/309 310/310/310
f 304/304/304 310/310/310 305/305/305
f 305/305/305 310/310/310 311/311/311
f 305/305/305 311/311/311 306/306/306
f 306/306/306 311/311/311 312/312/312
f 306/306/306 312/312/312 307/307/307
f 307/307/307 312/312/312 313/313/313
f 307/307/307 313/313/313 308/308/308
f 309/309/309 314/314/314 315/315/315
f 309/309/309 315/315/315 310/310/310
f 310/310/310 315/315/315 316/316/316
f 310/310/310 316/316/316 311/311/311
f 311/311/311 316/316/316 317/317/317
f 311/311/311 317/317/317 312/312/312
f 312/312/312 317/317/317 318/318/318
f 312/312/312 318/318/318 313/313/313
f 314/314/314 319/319/319 320/320/320
f 314/314/314 320/320/320 315/315/315
f 315/315/315 320/320/320 321/321/321
f 315/315/315 321/321/321 316/316/316
f 316/316/316 321/321/321 322/322/322
f 316/316/316 322/322/322 317/317/317
f 317/317/317 322/322/322 323/323/323
f 317/317/317 323/323/323 318/318/318
f 319/319/319 324/324/324 325/325/325
f 319/319/319 325/325/325 320/320/320
f 320/320/320 325/325/325 326/326/326
f 320/320/320 326/326/326 321/321/321
f 321/321/321 326/326/326 327/327/327
f 321/321/321 327/327/327 322/322/322
f 322/322/322 327/327/327 328/328/328
f 322/322/322 328/328/328 323/323/323
f 324/324/324 329/329/329 330/330/330
f 324/324/324 330/330/330 325/325/325
f 325/325/325 330/330/330 331/331/331
f 325/325/325 331/331/331 326/326/326
f 326/326/326 331/331/331 332/332/332
f 326/326/326 332/332/332 327/327/327
f 327/327/327 332/332/332 333/333/333
f 327/327/327 333/333/333 328/328/328
f 329/329/329 334/334/334 335/335/335
f 329/329/329 335/335/335 330/330/330
f 330/330/330 335/335/335 336/336/336
f 330/330/330 336/336/336 331/331/331
f 331/331/331 336/336/336 337/337/337
f 331/331/331 337/337/337 332/332/332
f 332/332/332 337/337/337 338/338/338
f 332/332/332 338/338/338 333/333/333
f 334/334/334 339/339/339 340/340/340
f 334/334/334 340/340/340 335/335/335
f 335/335/335 340/340/340 341/341/341
f 335/335/335 341/341/341 336/336/336
f 336/336/336 341/341/341 342/342/342
f 336/336/336 342/342/342 337/337/337
f 337/337/337 342/342/342 343/343/343
f 337/337/337 343/343/343 338/338/338
f 339/339/339 344/344/344 345/345/345
f 339/339/339 345/345/345 340/340/340
f 340/340/340 345/345/345 346/346/346
f 340/340/340 346/346/346 341/341/341
f 341/341/341 346/346/346 347/347/347
f 341/341/341 347/347/347 342/342/342
f 342/342/342 347/347/347 348/348/348
f 342/342/342 348/348/348 343/343/343
f 349/349/349 350/350/350 355/355/355
f 349/349/349 355/355/355 354/354/354
f 350/350/350 351/351/351 356/356/356
f 350/350/350 356/356/356 355/355/355
f 351/351/351 352/352/352 357/357/357
f 351/351/351 357/357/357 356/356/356
f 352/352/352 353/353/353 358/358/358
f 352/352/352 358/358/358 357/357/357
f 354/354/354 355/355/355 360/360/360
f 354/354/354 360/360/360 359/359/359
f 355/355/355 356/356/356 361/361/361
f 355/355/355 361/361/361 360/360/360
f 356/356/356 357/357/357 362/362/362
f 356/356/356 362/362/362 361/361/361
f 357/357/357 358/358/358 363/363/363
f 357/357/357 363/363/363 362/362/362
f 359/359/359 360/360/360 365/365/365
f 359/359/359 365/365/365 364/364/364
f 360/360/360 361/361/361 366/366/366
f 360/360/360 366/366/366 365/365/365
f 361/361/361 362/362/362 367/367/367
f 361/361/361 367/367/367 366/366/366
f 362/362/362 363/363/363 368/368/368
f 362/362/362 368/368/368 367/367/367
f 364/364/364 365/365/365 370/370/370
f 364/364/364 370/370/370 369/369/369
f 365/365/365 366/366/366 371/371/371
f 365/365/365 371/371/371 370/370/370
f 366/366/366 367/367/367 372/372/372
f 366/366/366 372/372/372 371/371/371
f 367/367/367 368/368/368 373/373/373
f 367/367/367 373/373/373 372/372/372
f 369/369/369 370/370/370 375/375/375
f 369/369/369 375/375/375 374/374/374
f 370/370/370 371/371/371 376/376/376
f 370/370/370 376/376/376 375/375/375
f 371/371/371 372/372/372 377/377/377
f 371/371/371 377/377/377 376/376/376
f 372/372/372 373/373/373 378/378/378
f 372/372/372 378/378/378 377/377/377
f 374/374/374 375/375/375 380/380/380
f 374/374/374 380/380/380 379/379/379
f 375/375/375 376/376/376 381/381/381
f 375/375/375 381/381/381 380/380/380
f 376/376/376 377/377/377 382/382/382
f 376/376/376 382/382/382 381/381/381
f 377/377/377 378/378/378 383/383/383
f 377/377/377 383/383/383 382/382/382
f 379/379/379 380/380/380 385/385/385
f 379/379/379 385/385/385 384/384/384
f 380/380/380 381/381/381 386/386/386
f 380/380/380 386/386/386 385/385/385
f 381/381/381 382/382/382 387/387/387
f 381/381/381 387/387/387 386/386/386
f 382/382/382 383/383/383 388/388/388
f 382/382/382 388/388/388 387/387/387
f 384/384/384 385/385/385 390/390/390
f 384/384/384 390/390/390 389/389/389
f 385/385/385 386/386/386 391/391/391
f 385/385/385 391/391/391 390/390/390
f 386/386/386 387/387/387 392/392/392
f 386/386/386 392/392/392 391/391/391
f 387/387/387 388/388/388 393/393/393
f 387/387/387 393/393/393 392/392/392
f 389/389/389 390/390/390 395/395/395
f 389/389/389 395/395/395 394/394/394
f 390/390/390 391/391/391 396/396/396
f 390/390/390 396/396/396 395/395/395
f 391/391/391 392/392/392 397/397/397
f 391/391/391 397/397/397 396/396/396
f 392/392/392 393/393/393 398/398/398
f 392/392/392 398/398/398 397/397/397
f 394/394/394 395/395/395 400/400/400
f 394/394/394 400/400/400 399/399/399
f 395/395/395 396/396/396 401/401/401
f 395/395/395 401/401/401 400/400/400
f 396/396/396 397/397/397 402/402/402
f 396/396/396 402/402/402 401/401/401
f 397/397/397 398/398/398 403/403/403
f 397/397/397 403/403/403 402/402/402
f 399/399/399 400/400/400 405/405/405
f 399/399/399 405/405/405 404/404/404
f 400/400/400 401/401/401 406/406/406
f 400/400/400 406/406/406 405/405/405
f 401/401/401 402/402/402 407/407/407
f 401/401/401 407/407/407 406/406/406
f 402/402/402 403/403/403 408/408/408
f 402/402/402 408/408/408 407/407/407
f 404/404/404 405/405/405 410/410/410
f 404/404/404 410/410/410 409/409/409
f 405/405/405 406/406/406 411/411/411
f 405/405/405 411/411/411 410/410/410
f 406/406/406 407/407/407 412/412/412
f 406/406/406 412/412/412 411/411/411
f 407/407/407 408/408/408 413/413/413
f 407/407/407 413/413/413 412/412/412
f 409/409/409 410/410/410 415/415/415
f 409/409/409 415/415/415 414/414/414
f 410/410/410 411/411/411 416/416/416
f 410/410/410 416/416/416 415/415/415
f 411/411/411 412/412/412 417/417/417
f 411/411/411 417/417/417 416/416/416
f 412/412/412 413/413/413 418/418/418
f 412/412/412 418/418/418 417/417/417
f 414/414/414 415/415/415 420/420/420
f 414/414/414 420/420/420 419/419/419
f 415/415/415 416/416/416 421/421/421
f 415/415/415 421/421/421 420/420/420
f 416/416/416 417/417/417 422/422/422
f 416/416/416 422/422/422 421/421/421
f 417/417/417 418/418/418 423/423/423
f 417/417/417 423/423/423 422/422/422
f 419/419/419 420/420/420 425/425/425
f 419/419/419 425/425/425 424/424/424
f 420/420/420 421/421/421 426/426/426
f 420/420/420 426/426/426 425/425/425
f 421/421/421 422/422/422 427/427/427
f 421/421/421 427/427/427 426/426/426
f 422/422/422 423/423/423 428/428/428
f 422/422/422 428/428/428 427/427/427
f 424/424/424 425/425/425 430/430/430
f 424/424/424 430/430/430 429/429/429
f 425/425/425 426/426/426 431/431/431
f 425/425/425 431/431/431 430/430/430
f 426/426/426 427/427/427 432/432/432
f 426/426/426 432/432/432 431/431/431
f 427/427/427 428/428/428 433/433/433
f 427/427/427 433/433/433 432/432/432
f 429/429/429 430/430/430 435/435/435
f 429/429/429 435/435/435 434/434/434
f 430/430/430 431/431/431 436/436/436
f 430/430/430 436/436/436 435/435/435
f 431/431/431 432/432/432 437/437/437
f 431/431/431 437/437/437 436/436/436
f 432/432/432 433/433/433 438/438/438
f 432/432/432 438/438/438 437/437/437
f 434/434/434 435/435/435 440/440/440
f 434/434/434 440/440/440 439/439/439
f 435/435/435 436/436/436 441/441/441
f 435/435/435 441/441/441 440/440/440
f 436/436/436 437/437/437 442/442/442
f 436/436/436 442/442/442 441/441/441
f 437/437/437 438/438/438 443/443/443
f 437/437/437 443/443/443 442/442/442
f 439/439/439 440/440/440 445/445/445
f 439/439/439 445/445/445 444/444/444
f 440/440/440 441/441/441 446/446/446
f 440/440/440 446/446/446 445/445/445
f 441/441/441 442/442/442 447/447/447
f 441/441/441 447/447/447 446/446/446
f 442/442/442 443/443/443 448/448/448
f 442/442/442 448/448/448 447/447/447
f 444/444/444 445/445/445 450/450/450
f 444/444/444 450/450/450 449/449/449
f 445/445/445 446/446/446 451/451/451
f 445/445/445 451/451/451 450/450/450
f 446/446/446 447/447/447 452/452/452
f 446/446/446 452/452/452 451/451/451
f 447/447/447 448/448/448 453/453/453
f 447/447/447 453/453/453 452/452/452
f 449/449/449 450/450/450 455/455/455
f 449/449/449 455/455/455 454/454/454
f 450/450/450 451/451/451 456/456/456
f 450/450/450 456/456/456 455/455/455
f 451/451/451 452/452/452 457/457/457
f 451/451/451 457/457/457 456/456/456
f 452/452/452 453/453/453 458/458/458
f 452/452/452 458/458/458 457/457/457
f 454/454/454 455/455/455 460/460/460
f 454/454/454 460/460/460 459/459/459
f 455/455/455 456/456/456 461/461/461
f 455/455/455 461/461/461 460/460/460
f 456/456/456 457/457/457 462/462/462
f 456/456/456 462/462/462 461/461/461
f 457/457/457 458/458/458 463/463/463
f 457/457/457 463/463/463 462/462/462
f 459/459/459 460/460/460 465/465/465
f 459/459/459 465/465/465 464/464/464
f 460/460/460 461/461/461 466/466/466
f 460/460/460 466/466/466 465/465/465
f 461/461/461 462/462/462 467/467/467
f 461/461/461 467/467/467 466/466/466
f 462/462/462 463/463/463 468/468/468
f 462/462/462 468/468/468 467/467/467
f 464/464/464 465/465/465 470/470/470
f 464/464/464 470/470/470 469/469/469
f 465/465/465 466/466/466 471/471/471
f 465/465/465 471/471/471 470/470/470
f 466/466/466 467/467/467 472/472/472
f 466/466/466 472/472/472 471/471/471
f 467/467/467 468/468/468 473/473/473
f 467/467/467 473/473/473 472/472/472
f 474/474/474 475/475/475 480/480/480
f 474/474/474 480/480/480 479/479/479
f 475/475/475 476/476/476 481/481/481
f 475/475/475 481/481/481 480/480/480
f 476/476/476 477/477/477 482/482/482
f 476/476/476 482/482/482 481/481/481
f 477/477/477 478/478/478 483/483/483
f 477/477/477 483/483/483 482/482/482
f 479/479/479 480/480/480 485/485/485
f 479/479/479 485/485/485 484/484/484
f 480/480/480 481/481/481 486/486/486
f 480/480/480 486/486/486 485/485/485
f 481/481/481 482/482/482 487/487/487
f 481/481/481 487/487/487 486/486/486
f 482/482/482 483/483/483 488/488/488
f 482/482/482 488/488/488 487/487/487
f 484/484/484 485/485/485 490/490/490
f 484/484/484 490/490/490 489/489/489
f 485/485/485 486/486/486 491/491/491
f 485/485/485 491/491/491 490/490/490
f 486/486/486 487/487/487 492/492/492
f 486/486/486 492/492/492 491/491/491
f 487/487/487 488/488/488 493/493/493
f 487/487/487 493/493/493 492/492/492
f 489/489/489 490/490/490 495/495/495
f 489/489/489 495/495/495 494/494/494
f 490/490/490 491/491/491 496/496/496
f 490/490/490 496/496/496 495/495/495
f 491/491/491 492/492/492 497/497/497
f 491/491/491 497/497/497 496/496/496
f 492/492/492 493/493/493 498/498/498
f 492/492/492 498/498/498 497/497/497
f 494/494/494 495/495/495 500/500/500
f 494/494/494 500/500/500 499/499/499
f 495/495/495 496/496/496 501/501/501
f 495/495/495 501/501/501 500/500/500
f 496/496/496 497/497/497 502/502/502
f 496/496/496 502/502/502 501/501/501
f 497/497/497 498/498/498 503/503/503
f 497/497/497 503/503/503 502/502/502
f 499/499/499 500/500/500 505/505/505
f 499/499/499 505/505/505 504/504/504
f 500/500/500 501/501/501 506/506/506
f 500/500/500 506/506/506 505/505/505
f 501/501/501 502/502/502 507/507/507
f 501/501/501 507/507/507 506/506/506
f 502/502/502 503/503/503 508/508/508
f 502/502/502 508/508/508 507/507/507
f 504/504/504 505/505/505 510/510/510
f 504/504/504 510/510/510 509/509/509
f 505/505/505 506/506/506 511/511/511
f 505/505/505 511/511/511 510/510/510
f 506/506/506 507/507/507 512/512/512
f 506/506/506 512/512/512 511/511/511
f 507/507/507 508/508/508 513/513/513
f 507/507/507 513/513/513 512/512/512
f 509/509/509 510/510/510 515/515/515
f 509/509/509 515/515/515 514/514/514
f 510/510/510 511/511/511 516/516/516
f 510/510/510 516/516/516 515/515/515
f 511/511/511 512/512/512 517/517/517
f 511/511/511 517/517/517 516/516/516
f 512/512/512 513/513/513 518/518/518
f 512/512/512 518/518/518 517/517/517
f 514/514/514 515/515/515 520/520/520
f 514/514/514 520/520/520 519/519/519
f 515/515/515 516/516/516 521/521/521
f 515/515/515 521/521/521 520/520/520
f 516/516/516 517/517/517 522/522/522
f 516/516/516 522/522/522 521/521/521
f 517/517/517 518/518/518 523/523/523
f 517/517/517 523/523/523 522/522/522
f 519/519/519 520/520/520 525/525/525
f 519/519/519 525/525/525 524/524/524
f 520/520/520 521/521/521 526/526/526
f 520/520/520 526/526/526 525/525/525
f 521/521/521 522/522/522 527/527/527
f 521/521/521 527/527/527 526/526/526
f 522/522/522 523/523/523 528/528/528
f 522/522/522 528/528/528 527/527/527
f 524/524/524 525/525/525 530/530/530
f 524/524/524 530/530/530 529/529/529
f 525/525/525 526/526/526 531/531/531
f 525/525/525 531/531/531 530/530/530
f 526/526/526 527/527/527 532/532/532
f 526/526/526 532/532/532 531/531/531
f 527/527/527 528/528/528 533/533/533
f 527/527/527 533/533/533 532/532/532
f 529/529/529 530/530/530 535/535/535
f 529/529/529 535/535/535 534/534/534
f 530/530/530 531/531/531 536/536/536
f 530/530/530 536/536/536 535/535/535
f 531/531/531 532/532/532 537/537/537
f 531/531/531 537/537/537 536/536/536
f 532/532/532 533/533/533 538/538/538
f 532/532/532 538/538/538 537/537/537
f 534/534/534 535/535/535 540/540/540
f 534/534/534 540/540/540 539/539/539
f 535/535/535 536/536/536 541/541/541
f 535/535/535 541/541/541 540/540/540
f 536/536/536 537/537/537 542/542/542
f 536/536/536 542/542/542 541/541/541
f 537/537/537 538/538/538 543/543/543
f 537/537/537 543/543/543 542/542/542
f 539/539/539 540/540/540 545/545/545
f 539/539/539 545/545/545 544/544/544
f 540/540/540 541/541/541 546/546/546
f 540/540/540 546/546/546 545/545/545
f 541/541/541 542/542/542 547/547/547
f 541/541/541 547/547/547 546/546/546
f 542/542/542 543/543/543 548/548/548
f 542/542/542 548/548/548 547/547/547
f 544/544/544 545/545/545 550/550/550
f 544/544/544 550/550/550 549/549/549
f 545/545/545 546/546/546 551/551/551
f 545/545/545 551/551/551 550/550/550
f 546/546/546 547/547/547 552/552/552
f 546/546/546 552/552/552 551/551/551
f 547/547/547 548/548/548 553/553/553
f 547/547/547 553/553/553 552/552/552
f 549/549/549 550/550/550 555/555/555
f 549/549/549 555/555/555 554/554/554
f 550/550/550 551/551/551 556/556/556
f 550/550/550 556/556/556 555/555/555
f 551/551/551 552/552/552 557/557/557
f 551/551/551 557/557/557 556/556/556
f 552/552/552 553/553/553 558/558/558
f 552/552/552 558/558/558 557/557/557
f 554/554/554 555/555/555 560/560/560
f 554/554/554 560/560/560 559/559/559
f 555/555/555 556/556/556 561/561/561
f 555/555/555 561/561/561 560/560/560
f 556/556/556 557/557/557 562/562/562
f 556/556/556 562/562/562 561/561/561
f 557/557/557 558/558/558 563/563/563
f 557/557/557 563/563/563 562/562/562
f 559/559/559 560/560/560 565/565/565
f 559/559/559 565/565/565 564/564/564
f 560/560/560 561/561/561 566/566/566
f 560/560/560 566/566/566 565/565/565
f 561/561/561 562/562/562 567/567/567
f 561/561/561 567/567/567 566/566/566
f 562/562/562 563/563/563 568/568/568
f 562/562/562 568/568/568 567/567/567
f 564/564/564 565/565/565 570/570/570
f 564/564/564 570/570/570 569/569/569
f 565/565/565 566/566/566 571/571/571
f 565/565/565 571/571/571 570/570/570
f 566/566/566 567/567/567 572/572/572
f 566/566/566 572/572/572 571/571/571
f 567/567/567 568/568/568 573/573/573
f 567/567/567 573/573/573 572/572/572
f 569/569/569 570/570/570 575/575/575
f 569/569/569 575/575/575 574/574/574
f 570/570/570 571/571/571 576/576/576
f 570/570/570 576/576/576 575/575/575
f 571/571/571 572/572/572 577/577/577
f 571/571/571 577/577/577 576/576/576
f 572/572/572 573/573/573 578/578/578
f 572/572/572 578/578/578 577/577/577
f 574/574/574 575/575/575 580/580/580
f 574/574/574 580/580/580 579/579/579
f 575/575/575 576/576/576 581/581/581
f 575/575/575 581/581/581 580/580/580
f 576/576/576 577/577/577 582/582/582
f 576/576/576 582/582/582 581/581/581
f 577/577/577 578/578/578 583/583/583
f 577/577/577 583/583/583 582/582/582
f 579/579/579 580/580/580 585/585/585
f 579/579/579 585/585/585 584/584/584
f 580/580/580 581/581/581 586/586/586
f 580/580/580 586/586/586 585/585/585
f 581/581/581 582/582/582 587/587/587
f 581/581/581 587/587/587 586/586/586
f 582/582/582 583/583/583 588/588/588
f 582/582/582 588/588/588 587/587/587
f 584/584/584 585/585/585 590/590/590
f 584/584/584 590/590/590 589/589/589
f 585/585/585 586/586/586 591/591/591
f 585/585/585 591/591/591 590/590/590
f 586/586/586 587/587/587 592/592/592
f 586/586/586 592/592/592 591/591/591
f 587/587/587 588/588/588 593/593/593
f 587/587/587 593/593/593 592/592/592
f 589/589/589 590/590/590 595/595/595
f 589/589/589 595/595/595 594/594/594
f 590/590/590 591/591/591 596/596/596
f 590/590/590 596/596/596 595/595/595
f 591/591/591 592/592/592 597/597/597
f 591/591/591 597/597/597 596/596/596
f 592/592/592 593/593/593 598/598/598
f 592/592/592 598/598/598 597/597/597
f 599/599/599 600/600/600 607/607/607
f 599/599/599 607/607/607 606/606/606
f 600/600/600 601/601/601 608/608/608
f 600/600/600 608/608/608 607/607/607
f 601/601/601 602/602/602 609/609/609
f 601/601/601 609/609/609 608/608/608
f 602/602/602 603/603/603 610/610/610
f 602/602/602 610/610/610 609/609/609
f 603/603/603 604/604/604 611/611/611
f 603/603/603 611/611/611 610/610/610
f 604/604/604 605/605/605 612/612/612
f 604/604/604 612/612/612 611/611/611
f 606/606/606 607/607/607 614/614/614
f 606/606/606 614/614/614 613/613/613
f 607/607/607 608/608/608 615/615/615
f 607/607/607 615/615/615 614/614/614
f 608/608/608 609/609/609 616/616/616
f 608/608/608 616/616/616 615/615/615
f 609/609/609 610/610/610 617/617/617
f 609/609/609 617/617/617 616/616/616
f 610/610/610 611/611/611 618/618/618
f 610/610/610 618/618/618 617/617/617
f 611/611/611 612/612/612 619/619/619
f 611/611/611 619/619/619 618/618/618
f 613/613/613 614/614/614 621/621/621
f 613/613/613 621/621/621 620/620/620
f 614/614/614 615/615/615 622/622/622
f 614/614/614 622/622/622 621/621/621
f 615/615/615 616/616/616 623/623/623
f 615/615/615 623/623/623 622/622/622
f 616/616/616 617/617/617 624/624/624
f 616/616/616 624/624/624 623/623/623
f 617/617/617 618/618/618 625/625/625
f 617/617/617 625/625/625 624/624/624
f 618/618/618 619/619/619 626/626/626
f 618/618/618 626/626/626 625/625/625
f 620/620/620 621/621/621 628/628/628
f 620/620/620 628/628/628 627/627/627
f 621/621/621 622/622/622 629/629/629
f 621/621/621 629/629/629 628/628/628
f 622/622/622 623/623/623 630/630/630
f 622/622/622 630/630/630 629/629/629
f 623/623/623 624/624/624 631/631/631
f 623/623/623 631/631/631 630/630/630
f 624/624/624 625/625/625 632/632/632
f 624/624/624 632/632/632 631/631/631
f 625/625/625 626/626/626 633/633/633
f 625/625/625 633/633/633 632/632/632
f 627/627/627 628/628/628 635/635/635
f 627/627/627 635/635/635 634/634/634
f 628/628/628 629/629/629 636/636/636
f 628/628/628 636/636/636 635/635/635
f 629/629/629 630/630/630 637/637/637
f 629/629/629 637/637/637 636/636/636
f 630/630/630 631/631/631 638/638/638
f 630/630/630 638/638/638 637/637/637
f 631/631/631 632/632/632 639/639/639
f 631/631/631 639/639/639 638/638/638
f 632/632/632 633/633/633 640/640/640
f 632/632/632 640/640/640 639/639/639
f 634/634/634 635/635/635 642/642/642
f 634/634/634 642/642/642 641/641/641
f 635/635/635 636/636/636 643/643/643
f 635/635/635 643/643/643 642/642/642
f 636/636/636 637/637/637 644/644/644
f 636/636/636 644/644/644 643/643/643
f 637/637/637 638/638/638 645/645/645
f 637/637/637 645/645/645 644/644/644
f 638/638/638 639/639/639 646/646/646
f 638/638/638 646/646/646 645/645/645
f 639/639/639 640/640/640 647/647/647
f 639/639/639 647/647/647 646/646/646
f 641/641/641 642/642/642 649/649/649
f 641/641/641 649/649/649 648/648/648
f 642/642/642 643/643/643 650/650/650
f 642/642/642 650/650/650 649/649/649
f 643/643/643 644/644/644 651/651/651
f 643/643/643 651/651/651 650/650/650
f 644/644/644 645/645/645 652/652/652
f 644/644/644 652/652/652 651/651/651
f 645/645/645 646/646/646 653/653/653
f 645/645/645 653/653/653 652/652/652
f 646/646/646 647/647/647 654/654/654
f 646/646/646 654/654/654 653/653/653
f 648/648/648 649/649/649 656/656/656
f 648/648/648 656/656/656 655/655/655
f 649/649/649 650/650/650 657/657/657
f 649/649/649 657/657/657 656/656/656
f 650/650/650 651/651/651 658/658/658
f 650/650/650 658/658/658 657/657/657
f 651/651/651 652/652/652 659/659/659
f 651/651/651 659/659/659 658/658/658
f 652/652/652 653/653/653 660/660/660
f 652/652/652 660/660/660 659/659/659
f 653/653/653 654/654/654 661/661/661
f 653/653/653 661/661/661 660/660/660
f 655/655/655 656/656/656 663/663/663
f 655/655/655 663/663/663 662/662/662
f 656/656/656 657/657/657 664/664/664
f 656/656/656 664/664/664 663/663/663
f 657/657/657 658/658/658 665/665/665
f 657/657/657 665/665/665 664/664/664
f 658/658/658 659/659/659 666/666/666
f 658/658/658 666/666/666 665/665/665
f 659/659/659 660/660/660 667/667/667
f 659/659/659 667/667/667 666/666/666
f 660/660/660 661/661/661 668/668/668
f 660/660/660 668/668/668 667/667/667
f 669/669/669 671/671/671 670/670/670
f 669/669/669 672/672/672 671/671/671
f 669/669/669 673/673/673 672/672/672
f 669/669/669 674/674/674 673/673/673
f 669/669/669 675/675/675 674/674/674
f 669/669/669 670/670/670 675/675/675
f 676/676/676 677/677/677 678/678/678
f 676/676/676 678/678/678 679/679/679
f 676/676/676 679/679/679 680/680/680
f 676/676/676 680/680/680 681/681/681
f 676/676/676 681/681/681 682/682/682
f 676/676/676 682/682/682 677/677/677
usemtl cap
f 683/683/683 688/688/688 689/689/689
f 683/683/683 689/689/689 684/684/684
f 684/684/684 689/689/689 690/690/690
f 684/684/684 690/690/690 685/685/685
f 685/685/685 690/690/690 691/691/691
f 685/685/685 691/691/691 686/686/686
f 686/686/686 691/691/691 692/692/692
f 686/686/686 692/692/692 687/687/687
f 688/688/688 693/693/693 694/694/694
f 688/688/688 694/694/694 689/689/689
f 689/689/689 694/694/694 695/695/695
f 689/689/689 695/695/695 690/690/690
f 690/690/690 695/695/695 696/696/696
f 690/690/690 696/696/696 691/691/691
f 691/691/691 696/696/696 697/697/697
f 691/691/691 697/697/697 692/692/692
f 693/693/693 698/698/698 699/699/699
f 693/693/693 699/699/699 694/694/694
f 694/694/694 699/699/699 700/700/700
f 694/694/694 700/700/700 695/695/695
f 695/695/695 700/700/700 701/701/701
f 695/695/695 701/701/701 696/696/696
f 696/696/696 701/701/701 702/702/702
f 696/696/696 702/702/702 697/697/697
f 698/698/698 703/703/703 704/704/704
f 698/698/698 704/704/704 699/699/699
f 699/699/699 704/704/704 705/705/705
f 699/699/699 705/705/705 700/700/700
f 700/700/700 705/705/705 706/706/706
f 700/700/700 706/706/706 701/701/701
f 701/701/701 706/706/706 707/707/707
f 701/701/701 707/707/707 702/702/702
f 703/703/703 708/708/708 709/709/709
f 703/703/703 709/709/709 704/704/704
f 704/704/704 709/709/709 710/710/710
f 704/704/704 710/710/710 705/705/705
f 705/705/705 710/710/710 711/711/711
f 705/705/705 711/711/711 706/706/706
f 706/706/706 711/711/711 712/712/712
f 706/706/706 712/712/712 707/707/707
f 708/708/708 713/713/713 714/714/714
f 708/708/708 714/714/714 709/709/709
f 709/709/709 714/714/714 715/715/715
f 709/709/709 715/715/715 710/710/710
f 710/710/710 715/715/715 716/716/716
f 710/710/710 716/716/716 711/711/711
f 711/711/711 716/716/716 717/717/717
f 711/711/711 717/717/717 712/712/712
f 713/713/713 718/718/718 719/719/719
f 713/713/713 719/719/719 714/714/714
f 714/714/714 719/719/719 720/720/720
f 714/714/714 720/720/720 715/715/715
f 715/715/715 720/720/720 721/721/721
f 715/715/715 721/721/721 716/716/716
f 716/716/716 721/721/721 722/722/722
f 716/716/716 722/722/722 717/717/717
f 718/718/718 723/723/723 724/724/724
f 718/718/718 724/724/724 719/719/719
f 719/719/719 724/724/724 725/725/725
f 719/719/719 725/725/725 720/720/720
f 720/720/720 725/725/725 726/726/726
f 720/720/720 726/726/726 721/721/721
f 721/721/721 726/726/726 727/727/727
f 721/721/721 727/727/727 722/722/722
f 723/723/723 728/728/728 729/729/729
f 723/723/723 729/729/729 724/724/724
f 724/724/724 729/729/729 730/730/730
f 724/724/724 730/730/730 725/725/725
f 725/725/725 730/730/730 731/731/731
f 725/725/725 731/731/731 726/726/726
f 726/726/726 731/731/731 732/732/732
f 726/726/726 732/732/732 727/727/727
f 728/728/728 733/733/733 734/734/734
f 728/728/728 734/734/734 729/729/729
f 729/729/729 734/734/734 735/735/735
f 729/729/729 735/735/735 730/730/730
f 730/730/730 735/735/735 736/736/736
f 730/730/730 736/736/736 731/731/731
f 731/731/731 736/736/736 737/737/737
f 731/731/731 737/737/737 732/732/732
f 733/733/733 738/738/738 739/739/739
f 733/733/733 739/739/739 734/734/734
f 734/734/734 739/739/739 740/740/740
f 734/734/734 740/740/740 735/735/735
f 735/735/735 740/740/740 741/741/741
f 735/735/735 741/741/741 736/736/736
f 736/736/736 741/741/741 742/742/742
f 736/736/736 742/742/742 737/737/737
f 738/738/738 743/743/743 744/744/744
f 738/738/738 744/744/744 739/739/739
f 739/739/739 744/744/744 745/745/745
f 739/739/739 745/745/745 740/740/740
f 740/740/740 745/745/745 746/746/746
f 740/740/740 746/746/746 741/741/741
f 741/741/741 746/746/746 747/747/747
f 741/741/741 747/747/747 742/742/742
f 743/743/743 748/748/748 749/749/749
f 743/743/743 749/749/749 744/744/744
f 744/744/744 749/749/749 750/750/750
f 744/744/744 750/750/750 745/745/745
f 745/745/745 750/750/750 751/751/751
f 745/745/745 751/751/751 746/746/746
f 746/746/746 751/751/751 752/752/752
f 746/746/746 752/752/752 747/747/747
f 748/748/748 753/753/753 754/754/754
f 748/748/748 754/754/754 749/749/749
f 749/749/749 754/754/754 755/755/755
f 749/749/749 755/755/755 750/750/750
f 750/750/750 755/755/755 756/756/756
f 750/750/750 756/756/756 751/751/751
f 751/751/751 756/756/756 757/757/757
f 751/751/751 757/757/757 752/752/752
f 753/753/753 758/758/758 759/759/759
f 753/753/753 759/759/759 754/754/754
f 754/754/754 759/759/759 760/760/760
f 754/754/754 760/760/760 755/755/755
f 755/755/755 760/760/760 761/761/761
f 755/755/755 761/761/761 756/756/756
f 756/756/756 761/761/761 762/762/762
f 756/756/756 762/762/762 757/757/757
f 758/758/758 763/763/763 764/764/764
f 758/758/758 764/764/764 759/759/759
f 759/759/759 764/764/764 765/765/765
f 759/759/759 765/765/765 760/760/760
f 760/760/760 765/765/765 766/766/766
f 760/760/760 766/766/766 761/761/761
f 761/761/761 766/766/766 767/767/767
f 761/761/761 767/767/767 762/762/762
f 763/763/763 768/768/768 769/769/769
f 763/763/763 769/769/769 764/764/764
f 764/764/764 769/769/769 770/770/770
f 764/764/764 770/770/770 765/765/765
f 765/765/765 770/770/770 771/771/771
f 765/765/765 771/771/771 766/766/766
f 766/766/766 771/771/771 772/772/772
f 766/766/766 772/772/772 767/767/767
f 768/768/768 773/773/773 774/774/774
f 768/768/768 774/774/774 769/769/769
f 769/769/769 774/774/774 775/775/775
f 769/769/769 775/775/775 770/770/770
f 770/770/770 775/775/775 776/776/776
f 770/770/770 776/776/776 771/771/771
f 771/771/771 776/776/776 777/777/777
f 771/771/771 777/777/777 772/772/772
f 773/773/773 778/778/778 779/779/779
f 773/773/773 779/779/779 774/774/774
f 774/774/774 779/779/779 780/780/780
f 774/774/774 780/780/780 775/775/775
f 775/775/775 780/780/780 781/781/781
f 775/775/775 781/781/781 776/776/776
f 776/776/776 781/781/781 782/782/782
f 776/776/776 782/782/782 777/777/777
f 778/778/778 783/783/783 784/784/784
f 778/778/778 784/784/784 779/779/779
f 779/779/779 784/784/784 785/785/785
f 779/779/779 785/785/785 780/780/780
f 780/780/780 785/785/785 786/786/786
f 780/780/780 786/786/786 781/781/781
f 781/781/781 786/786/786 787/787/787
f 781/781/781 787/787/787 782/782/782
f 783/783/783 788/788/788 789/789/789
f 783/783/783 789/789/789 784/784/784
f 784/784/784 789/789/789 790/790/790
f 784/784/784 790/790/790 785/785/785
f 785/785/785 790/790/790 791/791/791
f 785/785/785 791/791/791 786/786/786
f 786/786/786 791/791/791 792/792/792
f 786/786/786 792/792/792 787/787/787
f 788/788/788 793/793/793 794/794/794
f 788/788/788 794/794/794 789/789/789
f 789/789/789 794/794/794 795/795/795
f 789/789/789 795/795/795 790/790/790
f 790/790/790 795/795/795 796/796/796
f 790/790/790 796/796/796 791/791/791
f 791/791/791 796/796/796 797/797/797
f 791/791/791 797/797/797 792/792/792
f 793/793/793 798/798/798 799/799/799
f 793/793/793 799/799/799 794/794/794
f 794/794/794 799/799/799 800/800/800
f 794/794/794 800/800/800 795/795/795
f 795/795/795 800/800/800 801/801/801
f 795/795/795 801/801/801 796/796/796
f 796/796/796 801/801/801 802/802/802
f 796/796/796 802/802/802 797/797/797
f 798/798/798 803/803/803 804/804/804
f 798/798/798 804/804/804 799/799/799
f 799/799/799 804/804/804 805/805/805
f 799/799/799 805/805/805 800/800/800
f 800/800/800 805/805/805 806/806/806
f 800/800/800 806/806/806 801/801/801
f 801/801/801 806/806/806 807/807/807
f 801/801/801 807/807/807 802/802/802
