# Sinh tự động bởi tools/mesh_kit.py - đừng sửa tay
o pz_talisman_wrap
v 0.0489 0.0957 -0.0207
v 0.0429 0.0959 -0.0291
v 0.0361 0.0948 -0.0367
v 0.0285 0.0927 -0.0434
v 0.0192 0.0904 -0.0473
v 0.0092 0.0886 -0.0479
v -0.0003 0.0880 -0.0476
v -0.0099 0.0887 -0.0481
v -0.0200 0.0906 -0.0474
v -0.0294 0.0929 -0.0433
v -0.0370 0.0949 -0.0365
v -0.0439 0.0959 -0.0289
v -0.0499 0.0957 -0.0203
v -0.0528 0.0941 -0.0101
v -0.0514 0.0919 0.0004
v -0.0481 0.0897 0.0099
v -0.0453 0.0883 0.0192
v -0.0419 0.0881 0.0284
v -0.0358 0.0892 0.0364
v -0.0279 0.0913 0.0424
v -0.0194 0.0936 0.0479
v -0.0102 0.0954 0.0531
v 0.0004 0.0960 0.0554
v 0.0109 0.0953 0.0529
v 0.0202 0.0934 0.0477
v 0.0287 0.0911 0.0423
v 0.0367 0.0891 0.0362
v 0.0427 0.0881 0.0281
v 0.0462 0.0883 0.0187
v 0.0492 0.0899 0.0094
v 0.0526 0.0921 -0.0004
v 0.0539 0.0943 -0.0111
v 0.0507 0.0957 -0.0214
v 0.0445 0.0959 -0.0302
v 0.0375 0.0948 -0.0381
v 0.0296 0.0927 -0.0450
v 0.0200 0.0904 -0.0492
v 0.0095 0.0886 -0.0499
v -0.0004 0.0880 -0.0496
v -0.0103 0.0887 -0.0501
v -0.0208 0.0906 -0.0493
v 0.0529 0.1182 -0.0223
v 0.0473 0.1184 -0.0321
v 0.0410 0.1173 -0.0416
v 0.0324 0.1152 -0.0493
v 0.0217 0.1129 -0.0534
v 0.0105 0.1111 -0.0551
v -0.0004 0.1105 -0.0566
v -0.0118 0.1112 -0.0571
v -0.0229 0.1131 -0.0541
v -0.0324 0.1154 -0.0477
v -0.0409 0.1174 -0.0403
v -0.0492 0.1184 -0.0324
v -0.0556 0.1182 -0.0226
v -0.0580 0.1166 -0.0111
v -0.0573 0.1144 0.0004
v -0.0561 0.1122 0.0116
v -0.0540 0.1108 0.0228
v -0.0488 0.1106 0.0331
v -0.0406 0.1117 0.0412
v -0.0315 0.1138 0.0479
v -0.0221 0.1161 0.0545
v -0.0114 0.1179 0.0594
v 0.0004 0.1185 0.0601
v 0.0118 0.1178 0.0574
v 0.0227 0.1159 0.0537
v 0.0334 0.1136 0.0492
v 0.0426 0.1116 0.0420
v 0.0488 0.1106 0.0321
v 0.0532 0.1108 0.0216
v 0.0575 0.1124 0.0110
v 0.0604 0.1146 -0.0004
v 0.0594 0.1168 -0.0123
v 0.0547 0.1182 -0.0231
v 0.0489 0.1184 -0.0332
v 0.0424 0.1173 -0.0430
v 0.0335 0.1152 -0.0510
v 0.0224 0.1129 -0.0552
v 0.0109 0.1111 -0.0570
v -0.0004 0.1105 -0.0586
v -0.0122 0.1112 -0.0590
v -0.0236 0.1131 -0.0559
v 0.0545 0.1407 -0.0230
v 0.0499 0.1409 -0.0338
v 0.0433 0.1398 -0.0440
v 0.0338 0.1377 -0.0513
v 0.0227 0.1354 -0.0559
v 0.0113 0.1336 -0.0591
v -0.0004 0.1330 -0.0616
v -0.0126 0.1337 -0.0611
v -0.0239 0.1356 -0.0565
v -0.0337 0.1379 -0.0497
v -0.0432 0.1399 -0.0426
v -0.0519 0.1409 -0.0341
v -0.0573 0.1407 -0.0233
v -0.0595 0.1391 -0.0114
v -0.0606 0.1369 0.0004
v -0.0609 0.1347 0.0126
v -0.0579 0.1333 0.0245
v -0.0512 0.1331 0.0347
v -0.0427 0.1342 0.0433
v -0.0338 0.1363 0.0514
v -0.0236 0.1386 0.0582
v -0.0118 0.1404 0.0615
v 0.0004 0.1410 0.0611
v 0.0123 0.1403 0.0594
v 0.0242 0.1384 0.0573
v 0.0357 0.1361 0.0526
v 0.0448 0.1341 0.0441
v 0.0512 0.1331 0.0337
v 0.0572 0.1333 0.0232
v 0.0624 0.1349 0.0119
v 0.0637 0.1371 -0.0005
v 0.0608 0.1393 -0.0126
v 0.0563 0.1407 -0.0238
v 0.0515 0.1409 -0.0350
v 0.0447 0.1398 -0.0454
v 0.0349 0.1377 -0.0530
v 0.0234 0.1354 -0.0577
v 0.0117 0.1336 -0.0610
v -0.0005 0.1330 -0.0636
v -0.0130 0.1337 -0.0630
v -0.0247 0.1356 -0.0583
v 0.0527 0.1632 -0.0223
v 0.0486 0.1634 -0.0330
v 0.0414 0.1623 -0.0420
v 0.0317 0.1602 -0.0482
v 0.0216 0.1579 -0.0533
v 0.0111 0.1561 -0.0580
v -0.0004 0.1555 -0.0602
v -0.0120 0.1562 -0.0581
v -0.0225 0.1581 -0.0532
v -0.0325 0.1604 -0.0479
v -0.0422 0.1624 -0.0416
v -0.0497 0.1634 -0.0327
v -0.0539 0.1632 -0.0219
v -0.0565 0.1616 -0.0108
v -0.0590 0.1594 0.0004
v -0.0593 0.1572 0.0122
v -0.0554 0.1558 0.0234
v -0.0486 0.1556 0.0330
v -0.0412 0.1567 0.0418
v -0.0330 0.1588 0.0502
v -0.0227 0.1611 0.0560
v -0.0111 0.1629 0.0579
v 0.0004 0.1635 0.0579
v 0.0119 0.1628 0.0577
v 0.0236 0.1609 0.0558
v 0.0340 0.1586 0.0502
v 0.0423 0.1566 0.0417
v 0.0495 0.1556 0.0326
v 0.0563 0.1558 0.0228
v 0.0604 0.1574 0.0115
v 0.0602 0.1596 -0.0004
v 0.0575 0.1618 -0.0119
v 0.0545 0.1632 -0.0231
v 0.0503 0.1634 -0.0341
v 0.0428 0.1623 -0.0434
v 0.0328 0.1602 -0.0499
v 0.0224 0.1579 -0.0551
v 0.0115 0.1561 -0.0599
v -0.0005 0.1555 -0.0622
v -0.0124 0.1562 -0.0601
v -0.0233 0.1581 -0.0551
v 0.0458 0.1857 -0.0194
v 0.0416 0.1859 -0.0282
v 0.0348 0.1848 -0.0353
v 0.0273 0.1827 -0.0415
v 0.0194 0.1804 -0.0479
v 0.0102 0.1786 -0.0531
v -0.0004 0.1780 -0.0541
v -0.0106 0.1787 -0.0512
v -0.0199 0.1806 -0.0471
v -0.0289 0.1829 -0.0426
v -0.0366 0.1849 -0.0361
v -0.0416 0.1859 -0.0274
v -0.0452 0.1857 -0.0183
v -0.0493 0.1841 -0.0094
v -0.0529 0.1819 0.0004
v -0.0529 0.1797 0.0109
v -0.0491 0.1783 0.0207
v -0.0437 0.1781 0.0297
v -0.0377 0.1792 0.0382
v -0.0295 0.1813 0.0449
v -0.0195 0.1836 0.0480
v -0.0093 0.1854 0.0487
v 0.0004 0.1860 0.0496
v 0.0104 0.1853 0.0505
v 0.0206 0.1834 0.0486
v 0.0296 0.1811 0.0435
v 0.0377 0.1791 0.0371
v 0.0456 0.1781 0.0300
v 0.0516 0.1783 0.0210
v 0.0535 0.1799 0.0102
v 0.0519 0.1821 -0.0004
v 0.0498 0.1843 -0.0103
v 0.0476 0.1857 -0.0201
v 0.0432 0.1859 -0.0293
v 0.0362 0.1848 -0.0367
v 0.0284 0.1827 -0.0431
v 0.0202 0.1804 -0.0498
v 0.0105 0.1786 -0.0551
v -0.0004 0.1780 -0.0561
v -0.0110 0.1787 -0.0532
v -0.0207 0.1806 -0.0490
v 0.0489 0.0957 -0.0207
v 0.0429 0.0959 -0.0291
v 0.0361 0.0948 -0.0367
v 0.0285 0.0927 -0.0434
v 0.0192 0.0904 -0.0473
v 0.0092 0.0886 -0.0479
v -0.0003 0.0880 -0.0476
v -0.0099 0.0887 -0.0481
v -0.0200 0.0906 -0.0474
v -0.0294 0.0929 -0.0433
v -0.0370 0.0949 -0.0365
v -0.0439 0.0959 -0.0289
v -0.0499 0.0957 -0.0203
v -0.0528 0.0941 -0.0101
v -0.0514 0.0919 0.0004
v -0.0481 0.0897 0.0099
v -0.0453 0.0883 0.0192
v -0.0419 0.0881 0.0284
v -0.0358 0.0892 0.0364
v -0.0279 0.0913 0.0424
v -0.0194 0.0936 0.0479
v -0.0102 0.0954 0.0531
v 0.0004 0.0960 0.0554
v 0.0109 0.0953 0.0529
v 0.0202 0.0934 0.0477
v 0.0287 0.0911 0.0423
v 0.0367 0.0891 0.0362
v 0.0427 0.0881 0.0281
v 0.0462 0.0883 0.0187
v 0.0492 0.0899 0.0094
v 0.0526 0.0921 -0.0004
v 0.0539 0.0943 -0.0111
v 0.0507 0.0957 -0.0214
v 0.0445 0.0959 -0.0302
v 0.0375 0.0948 -0.0381
v 0.0296 0.0927 -0.0450
v 0.0200 0.0904 -0.0492
v 0.0095 0.0886 -0.0499
v -0.0004 0.0880 -0.0496
v -0.0103 0.0887 -0.0501
v -0.0208 0.0906 -0.0493
v 0.0529 0.1182 -0.0223
v 0.0473 0.1184 -0.0321
v 0.0410 0.1173 -0.0416
v 0.0324 0.1152 -0.0493
v 0.0217 0.1129 -0.0534
v 0.0105 0.1111 -0.0551
v -0.0004 0.1105 -0.0566
v -0.0118 0.1112 -0.0571
v -0.0229 0.1131 -0.0541
v -0.0324 0.1154 -0.0477
v -0.0409 0.1174 -0.0403
v -0.0492 0.1184 -0.0324
v -0.0556 0.1182 -0.0226
v -0.0580 0.1166 -0.0111
v -0.0573 0.1144 0.0004
v -0.0561 0.1122 0.0116
v -0.0540 0.1108 0.0228
v -0.0488 0.1106 0.0331
v -0.0406 0.1117 0.0412
v -0.0315 0.1138 0.0479
v -0.0221 0.1161 0.0545
v -0.0114 0.1179 0.0594
v 0.0004 0.1185 0.0601
v 0.0118 0.1178 0.0574
v 0.0227 0.1159 0.0537
v 0.0334 0.1136 0.0492
v 0.0426 0.1116 0.0420
v 0.0488 0.1106 0.0321
v 0.0532 0.1108 0.0216
v 0.0575 0.1124 0.0110
v 0.0604 0.1146 -0.0004
v 0.0594 0.1168 -0.0123
v 0.0547 0.1182 -0.0231
v 0.0489 0.1184 -0.0332
v 0.0424 0.1173 -0.0430
v 0.0335 0.1152 -0.0510
v 0.0224 0.1129 -0.0552
v 0.0109 0.1111 -0.0570
v -0.0004 0.1105 -0.0586
v -0.0122 0.1112 -0.0590
v -0.0236 0.1131 -0.0559
v 0.0545 0.1407 -0.0230
v 0.0499 0.1409 -0.0338
v 0.0433 0.1398 -0.0440
v 0.0338 0.1377 -0.0513
v 0.0227 0.1354 -0.0559
v 0.0113 0.1336 -0.0591
v -0.0004 0.1330 -0.0616
v -0.0126 0.1337 -0.0611
v -0.0239 0.1356 -0.0565
v -0.0337 0.1379 -0.0497
v -0.0432 0.1399 -0.0426
v -0.0519 0.1409 -0.0341
v -0.0573 0.1407 -0.0233
v -0.0595 0.1391 -0.0114
v -0.0606 0.1369 0.0004
v -0.0609 0.1347 0.0126
v -0.0579 0.1333 0.0245
v -0.0512 0.1331 0.0347
v -0.0427 0.1342 0.0433
v -0.0338 0.1363 0.0514
v -0.0236 0.1386 0.0582
v -0.0118 0.1404 0.0615
v 0.0004 0.1410 0.0611
v 0.0123 0.1403 0.0594
v 0.0242 0.1384 0.0573
v 0.0357 0.1361 0.0526
v 0.0448 0.1341 0.0441
v 0.0512 0.1331 0.0337
v 0.0572 0.1333 0.0232
v 0.0624 0.1349 0.0119
v 0.0637 0.1371 -0.0005
v 0.0608 0.1393 -0.0126
v 0.0563 0.1407 -0.0238
v 0.0515 0.1409 -0.0350
v 0.0447 0.1398 -0.0454
v 0.0349 0.1377 -0.0530
v 0.0234 0.1354 -0.0577
v 0.0117 0.1336 -0.0610
v -0.0005 0.1330 -0.0636
v -0.0130 0.1337 -0.0630
v -0.0247 0.1356 -0.0583
v 0.0527 0.1632 -0.0223
v 0.0486 0.1634 -0.0330
v 0.0414 0.1623 -0.0420
v 0.0317 0.1602 -0.0482
v 0.0216 0.1579 -0.0533
v 0.0111 0.1561 -0.0580
v -0.0004 0.1555 -0.0602
v -0.0120 0.1562 -0.0581
v -0.0225 0.1581 -0.0532
v -0.0325 0.1604 -0.0479
v -0.0422 0.1624 -0.0416
v -0.0497 0.1634 -0.0327
v -0.0539 0.1632 -0.0219
v -0.0565 0.1616 -0.0108
v -0.0590 0.1594 0.0004
v -0.0593 0.1572 0.0122
v -0.0554 0.1558 0.0234
v -0.0486 0.1556 0.0330
v -0.0412 0.1567 0.0418
v -0.0330 0.1588 0.0502
v -0.0227 0.1611 0.0560
v -0.0111 0.1629 0.0579
v 0.0004 0.1635 0.0579
v 0.0119 0.1628 0.0577
v 0.0236 0.1609 0.0558
v 0.0340 0.1586 0.0502
v 0.0423 0.1566 0.0417
v 0.0495 0.1556 0.0326
v 0.0563 0.1558 0.0228
v 0.0604 0.1574 0.0115
v 0.0602 0.1596 -0.0004
v 0.0575 0.1618 -0.0119
v 0.0545 0.1632 -0.0231
v 0.0503 0.1634 -0.0341
v 0.0428 0.1623 -0.0434
v 0.0328 0.1602 -0.0499
v 0.0224 0.1579 -0.0551
v 0.0115 0.1561 -0.0599
v -0.0005 0.1555 -0.0622
v -0.0124 0.1562 -0.0601
v -0.0233 0.1581 -0.0551
v 0.0458 0.1857 -0.0194
v 0.0416 0.1859 -0.0282
v 0.0348 0.1848 -0.0353
v 0.0273 0.1827 -0.0415
v 0.0194 0.1804 -0.0479
v 0.0102 0.1786 -0.0531
v -0.0004 0.1780 -0.0541
v -0.0106 0.1787 -0.0512
v -0.0199 0.1806 -0.0471
v -0.0289 0.1829 -0.0426
v -0.0366 0.1849 -0.0361
v -0.0416 0.1859 -0.0274
v -0.0452 0.1857 -0.0183
v -0.0493 0.1841 -0.0094
v -0.0529 0.1819 0.0004
v -0.0529 0.1797 0.0109
v -0.0491 0.1783 0.0207
v -0.0437 0.1781 0.0297
v -0.0377 0.1792 0.0382
v -0.0295 0.1813 0.0449
v -0.0195 0.1836 0.0480
v -0.0093 0.1854 0.0487
v 0.0004 0.1860 0.0496
v 0.0104 0.1853 0.0505
v 0.0206 0.1834 0.0486
v 0.0296 0.1811 0.0435
v 0.0377 0.1791 0.0371
v 0.0456 0.1781 0.0300
v 0.0516 0.1783 0.0210
v 0.0535 0.1799 0.0102
v 0.0519 0.1821 -0.0004
v 0.0498 0.1843 -0.0103
v 0.0476 0.1857 -0.0201
v 0.0432 0.1859 -0.0293
v 0.0362 0.1848 -0.0367
v 0.0284 0.1827 -0.0431
v 0.0202 0.1804 -0.0498
v 0.0105 0.1786 -0.0551
v -0.0004 0.1780 -0.0561
v -0.0110 0.1787 -0.0532
v -0.0207 0.1806 -0.0490
v -0.0165 0.1450 -0.0841
v -0.0167 0.1500 -0.0652
v -0.0161 0.1550 -0.0443
v -0.0138 0.1260 -0.0906
v -0.0140 0.1310 -0.0717
v -0.0134 0.1360 -0.0508
v -0.0110 0.1070 -0.0968
v -0.0112 0.1120 -0.0779
v -0.0106 0.1170 -0.0570
v -0.0080 0.0880 -0.1025
v -0.0082 0.0930 -0.0836
v -0.0075 0.0980 -0.0627
v -0.0046 0.0690 -0.1074
v -0.0048 0.0740 -0.0885
v -0.0042 0.0790 -0.0675
v -0.0009 0.0500 -0.1113
v -0.0011 0.0550 -0.0924
v -0.0004 0.0600 -0.0715
v 0.0034 0.0310 -0.1141
v 0.0032 0.0360 -0.0953
v 0.0038 0.0410 -0.0743
v 0.0081 0.0120 -0.1158
v 0.0079 0.0170 -0.0970
v 0.0085 0.0220 -0.0760
v 0.0133 -0.0070 -0.1164
v 0.0130 -0.0020 -0.0975
v 0.0137 0.0030 -0.0766
v 0.0189 -0.0260 -0.1159
v 0.0187 -0.0210 -0.0971
v 0.0193 -0.0160 -0.0761
v 0.0249 -0.0450 -0.1146
v 0.0247 -0.0400 -0.0957
v 0.0253 -0.0350 -0.0748
v -0.0165 0.1450 -0.0841
v -0.0167 0.1500 -0.0652
v -0.0161 0.1550 -0.0443
v -0.0138 0.1260 -0.0906
v -0.0140 0.1310 -0.0717
v -0.0134 0.1360 -0.0508
v -0.0110 0.1070 -0.0968
v -0.0112 0.1120 -0.0779
v -0.0106 0.1170 -0.0570
v -0.0080 0.0880 -0.1025
v -0.0082 0.0930 -0.0836
v -0.0075 0.0980 -0.0627
v -0.0046 0.0690 -0.1074
v -0.0048 0.0740 -0.0885
v -0.0042 0.0790 -0.0675
v -0.0009 0.0500 -0.1113
v -0.0011 0.0550 -0.0924
v -0.0004 0.0600 -0.0715
v 0.0034 0.0310 -0.1141
v 0.0032 0.0360 -0.0953
v 0.0038 0.0410 -0.0743
v 0.0081 0.0120 -0.1158
v 0.0079 0.0170 -0.0970
v 0.0085 0.0220 -0.0760
v 0.0133 -0.0070 -0.1164
v 0.0130 -0.0020 -0.0975
v 0.0137 0.0030 -0.0766
v 0.0189 -0.0260 -0.1159
v 0.0187 -0.0210 -0.0971
v 0.0193 -0.0160 -0.0761
v 0.0249 -0.0450 -0.1146
v 0.0247 -0.0400 -0.0957
v 0.0253 -0.0350 -0.0748
vt 0.0000 0.0000
vt 0.0000 0.0422
vt 0.0000 0.0844
vt 0.0000 0.1265
vt 0.0000 0.1687
vt 0.0000 0.2109
vt 0.0000 0.2531
vt 0.0000 0.2953
vt 0.0000 0.3374
vt 0.0000 0.3796
vt 0.0000 0.4218
vt 0.0000 0.4640
vt 0.0000 0.5061
vt 0.0000 0.5483
vt 0.0000 0.5905
vt 0.0000 0.6327
vt 0.0000 0.6749
vt 0.0000 0.7170
vt 0.0000 0.7592
vt 0.0000 0.8014
vt 0.0000 0.8436
vt 0.0000 0.8858
vt 0.0000 0.9279
vt 0.0000 0.9701
vt 0.0000 1.0123
vt 0.0000 1.0545
vt 0.0000 1.0966
vt 0.0000 1.1388
vt 0.0000 1.1810
vt 0.0000 1.2232
vt 0.0000 1.2654
vt 0.0000 1.3075
vt 0.0000 1.3497
vt 0.0000 1.3919
vt 0.0000 1.4341
vt 0.0000 1.4763
vt 0.0000 1.5184
vt 0.0000 1.5606
vt 0.0000 1.6028
vt 0.0000 1.6450
vt 0.0000 1.6872
vt 0.2500 0.0000
vt 0.2500 0.0422
vt 0.2500 0.0844
vt 0.2500 0.1265
vt 0.2500 0.1687
vt 0.2500 0.2109
vt 0.2500 0.2531
vt 0.2500 0.2953
vt 0.2500 0.3374
vt 0.2500 0.3796
vt 0.2500 0.4218
vt 0.2500 0.4640
vt 0.2500 0.5061
vt 0.2500 0.5483
vt 0.2500 0.5905
vt 0.2500 0.6327
vt 0.2500 0.6749
vt 0.2500 0.7170
vt 0.2500 0.7592
vt 0.2500 0.8014
vt 0.2500 0.8436
vt 0.2500 0.8858
vt 0.2500 0.9279
vt 0.2500 0.9701
vt 0.2500 1.0123
vt 0.2500 1.0545
vt 0.2500 1.0966
vt 0.2500 1.1388
vt 0.2500 1.1810
vt 0.2500 1.2232
vt 0.2500 1.2654
vt 0.2500 1.3075
vt 0.2500 1.3497
vt 0.2500 1.3919
vt 0.2500 1.4341
vt 0.2500 1.4763
vt 0.2500 1.5184
vt 0.2500 1.5606
vt 0.2500 1.6028
vt 0.2500 1.6450
vt 0.2500 1.6872
vt 0.5000 0.0000
vt 0.5000 0.0422
vt 0.5000 0.0844
vt 0.5000 0.1265
vt 0.5000 0.1687
vt 0.5000 0.2109
vt 0.5000 0.2531
vt 0.5000 0.2953
vt 0.5000 0.3374
vt 0.5000 0.3796
vt 0.5000 0.4218
vt 0.5000 0.4640
vt 0.5000 0.5061
vt 0.5000 0.5483
vt 0.5000 0.5905
vt 0.5000 0.6327
vt 0.5000 0.6749
vt 0.5000 0.7170
vt 0.5000 0.7592
vt 0.5000 0.8014
vt 0.5000 0.8436
vt 0.5000 0.8858
vt 0.5000 0.9279
vt 0.5000 0.9701
vt 0.5000 1.0123
vt 0.5000 1.0545
vt 0.5000 1.0966
vt 0.5000 1.1388
vt 0.5000 1.1810
vt 0.5000 1.2232
vt 0.5000 1.2654
vt 0.5000 1.3075
vt 0.5000 1.3497
vt 0.5000 1.3919
vt 0.5000 1.4341
vt 0.5000 1.4763
vt 0.5000 1.5184
vt 0.5000 1.5606
vt 0.5000 1.6028
vt 0.5000 1.6450
vt 0.5000 1.6872
vt 0.7500 0.0000
vt 0.7500 0.0422
vt 0.7500 0.0844
vt 0.7500 0.1265
vt 0.7500 0.1687
vt 0.7500 0.2109
vt 0.7500 0.2531
vt 0.7500 0.2953
vt 0.7500 0.3374
vt 0.7500 0.3796
vt 0.7500 0.4218
vt 0.7500 0.4640
vt 0.7500 0.5061
vt 0.7500 0.5483
vt 0.7500 0.5905
vt 0.7500 0.6327
vt 0.7500 0.6749
vt 0.7500 0.7170
vt 0.7500 0.7592
vt 0.7500 0.8014
vt 0.7500 0.8436
vt 0.7500 0.8858
vt 0.7500 0.9279
vt 0.7500 0.9701
vt 0.7500 1.0123
vt 0.7500 1.0545
vt 0.7500 1.0966
vt 0.7500 1.1388
vt 0.7500 1.1810
vt 0.7500 1.2232
vt 0.7500 1.2654
vt 0.7500 1.3075
vt 0.7500 1.3497
vt 0.7500 1.3919
vt 0.7500 1.4341
vt 0.7500 1.4763
vt 0.7500 1.5184
vt 0.7500 1.5606
vt 0.7500 1.6028
vt 0.7500 1.6450
vt 0.7500 1.6872
vt 1.0000 0.0000
vt 1.0000 0.0422
vt 1.0000 0.0844
vt 1.0000 0.1265
vt 1.0000 0.1687
vt 1.0000 0.2109
vt 1.0000 0.2531
vt 1.0000 0.2953
vt 1.0000 0.3374
vt 1.0000 0.3796
vt 1.0000 0.4218
vt 1.0000 0.4640
vt 1.0000 0.5061
vt 1.0000 0.5483
vt 1.0000 0.5905
vt 1.0000 0.6327
vt 1.0000 0.6749
vt 1.0000 0.7170
vt 1.0000 0.7592
vt 1.0000 0.8014
vt 1.0000 0.8436
vt 1.0000 0.8858
vt 1.0000 0.9279
vt 1.0000 0.9701
vt 1.0000 1.0123
vt 1.0000 1.0545
vt 1.0000 1.0966
vt 1.0000 1.1388
vt 1.0000 1.1810
vt 1.0000 1.2232
vt 1.0000 1.2654
vt 1.0000 1.3075
vt 1.0000 1.3497
vt 1.0000 1.3919
vt 1.0000 1.4341
vt 1.0000 1.4763
vt 1.0000 1.5184
vt 1.0000 1.5606
vt 1.0000 1.6028
vt 1.0000 1.6450
vt 1.0000 1.6872
vt 0.0000 0.0000
vt 0.0000 0.0422
vt 0.0000 0.0844
vt 0.0000 0.1265
vt 0.0000 0.1687
vt 0.0000 0.2109
vt 0.0000 0.2531
vt 0.0000 0.2953
vt 0.0000 0.3374
vt 0.0000 0.3796
vt 0.0000 0.4218
vt 0.0000 0.4640
vt 0.0000 0.5061
vt 0.0000 0.5483
vt 0.0000 0.5905
vt 0.0000 0.6327
vt 0.0000 0.6749
vt 0.0000 0.7170
vt 0.0000 0.7592
vt 0.0000 0.8014
vt 0.0000 0.8436
vt 0.0000 0.8858
vt 0.0000 0.9279
vt 0.0000 0.9701
vt 0.0000 1.0123
vt 0.0000 1.0545
vt 0.0000 1.0966
vt 0.0000 1.1388
vt 0.0000 1.1810
vt 0.0000 1.2232
vt 0.0000 1.2654
vt 0.0000 1.3075
vt 0.0000 1.3497
vt 0.0000 1.3919
vt 0.0000 1.4341
vt 0.0000 1.4763
vt 0.0000 1.5184
vt 0.0000 1.5606
vt 0.0000 1.6028
vt 0.0000 1.6450
vt 0.0000 1.6872
vt 0.2500 0.0000
vt 0.2500 0.0422
vt 0.2500 0.0844
vt 0.2500 0.1265
vt 0.2500 0.1687
vt 0.2500 0.2109
vt 0.2500 0.2531
vt 0.2500 0.2953
vt 0.2500 0.3374
vt 0.2500 0.3796
vt 0.2500 0.4218
vt 0.2500 0.4640
vt 0.2500 0.5061
vt 0.2500 0.5483
vt 0.2500 0.5905
vt 0.2500 0.6327
vt 0.2500 0.6749
vt 0.2500 0.7170
vt 0.2500 0.7592
vt 0.2500 0.8014
vt 0.2500 0.8436
vt 0.2500 0.8858
vt 0.2500 0.9279
vt 0.2500 0.9701
vt 0.2500 1.0123
vt 0.2500 1.0545
vt 0.2500 1.0966
vt 0.2500 1.1388
vt 0.2500 1.1810
vt 0.2500 1.2232
vt 0.2500 1.2654
vt 0.2500 1.3075
vt 0.2500 1.3497
vt 0.2500 1.3919
vt 0.2500 1.4341
vt 0.2500 1.4763
vt 0.2500 1.5184
vt 0.2500 1.5606
vt 0.2500 1.6028
vt 0.2500 1.6450
vt 0.2500 1.6872
vt 0.5000 0.0000
vt 0.5000 0.0422
vt 0.5000 0.0844
vt 0.5000 0.1265
vt 0.5000 0.1687
vt 0.5000 0.2109
vt 0.5000 0.2531
vt 0.5000 0.2953
vt 0.5000 0.3374
vt 0.5000 0.3796
vt 0.5000 0.4218
vt 0.5000 0.4640
vt 0.5000 0.5061
vt 0.5000 0.5483
vt 0.5000 0.5905
vt 0.5000 0.6327
vt 0.5000 0.6749
vt 0.5000 0.7170
vt 0.5000 0.7592
vt 0.5000 0.8014
vt 0.5000 0.8436
vt 0.5000 0.8858
vt 0.5000 0.9279
vt 0.5000 0.9701
vt 0.5000 1.0123
vt 0.5000 1.0545
vt 0.5000 1.0966
vt 0.5000 1.1388
vt 0.5000 1.1810
vt 0.5000 1.2232
vt 0.5000 1.2654
vt 0.5000 1.3075
vt 0.5000 1.3497
vt 0.5000 1.3919
vt 0.5000 1.4341
vt 0.5000 1.4763
vt 0.5000 1.5184
vt 0.5000 1.5606
vt 0.5000 1.6028
vt 0.5000 1.6450
vt 0.5000 1.6872
vt 0.7500 0.0000
vt 0.7500 0.0422
vt 0.7500 0.0844
vt 0.7500 0.1265
vt 0.7500 0.1687
vt 0.7500 0.2109
vt 0.7500 0.2531
vt 0.7500 0.2953
vt 0.7500 0.3374
vt 0.7500 0.3796
vt 0.7500 0.4218
vt 0.7500 0.4640
vt 0.7500 0.5061
vt 0.7500 0.5483
vt 0.7500 0.5905
vt 0.7500 0.6327
vt 0.7500 0.6749
vt 0.7500 0.7170
vt 0.7500 0.7592
vt 0.7500 0.8014
vt 0.7500 0.8436
vt 0.7500 0.8858
vt 0.7500 0.9279
vt 0.7500 0.9701
vt 0.7500 1.0123
vt 0.7500 1.0545
vt 0.7500 1.0966
vt 0.7500 1.1388
vt 0.7500 1.1810
vt 0.7500 1.2232
vt 0.7500 1.2654
vt 0.7500 1.3075
vt 0.7500 1.3497
vt 0.7500 1.3919
vt 0.7500 1.4341
vt 0.7500 1.4763
vt 0.7500 1.5184
vt 0.7500 1.5606
vt 0.7500 1.6028
vt 0.7500 1.6450
vt 0.7500 1.6872
vt 1.0000 0.0000
vt 1.0000 0.0422
vt 1.0000 0.0844
vt 1.0000 0.1265
vt 1.0000 0.1687
vt 1.0000 0.2109
vt 1.0000 0.2531
vt 1.0000 0.2953
vt 1.0000 0.3374
vt 1.0000 0.3796
vt 1.0000 0.4218
vt 1.0000 0.4640
vt 1.0000 0.5061
vt 1.0000 0.5483
vt 1.0000 0.5905
vt 1.0000 0.6327
vt 1.0000 0.6749
vt 1.0000 0.7170
vt 1.0000 0.7592
vt 1.0000 0.8014
vt 1.0000 0.8436
vt 1.0000 0.8858
vt 1.0000 0.9279
vt 1.0000 0.9701
vt 1.0000 1.0123
vt 1.0000 1.0545
vt 1.0000 1.0966
vt 1.0000 1.1388
vt 1.0000 1.1810
vt 1.0000 1.2232
vt 1.0000 1.2654
vt 1.0000 1.3075
vt 1.0000 1.3497
vt 1.0000 1.3919
vt 1.0000 1.4341
vt 1.0000 1.4763
vt 1.0000 1.5184
vt 1.0000 1.5606
vt 1.0000 1.6028
vt 1.0000 1.6450
vt 1.0000 1.6872
vt 0.0000 0.3000
vt 0.5000 0.3000
vt 1.0000 0.3000
vt 0.0000 0.3620
vt 0.5000 0.3620
vt 1.0000 0.3620
vt 0.0000 0.4240
vt 0.5000 0.4240
vt 1.0000 0.4240
vt 0.0000 0.4860
vt 0.5000 0.4860
vt 1.0000 0.4860
vt 0.0000 0.5480
vt 0.5000 0.5480
vt 1.0000 0.5480
vt 0.0000 0.6100
vt 0.5000 0.6100
vt 1.0000 0.6100
vt 0.0000 0.6720
vt 0.5000 0.6720
vt 1.0000 0.6720
vt 0.0000 0.7340
vt 0.5000 0.7340
vt 1.0000 0.7340
vt 0.0000 0.7960
vt 0.5000 0.7960
vt 1.0000 0.7960
vt 0.0000 0.8580
vt 0.5000 0.8580
vt 1.0000 0.8580
vt 0.0000 0.9200
vt 0.5000 0.9200
vt 1.0000 0.9200
vt 0.0000 0.3000
vt 0.5000 0.3000
vt 1.0000 0.3000
vt 0.0000 0.3620
vt 0.5000 0.3620
vt 1.0000 0.3620
vt 0.0000 0.4240
vt 0.5000 0.4240
vt 1.0000 0.4240
vt 0.0000 0.4860
vt 0.5000 0.4860
vt 1.0000 0.4860
vt 0.0000 0.5480
vt 0.5000 0.5480
vt 1.0000 0.5480
vt 0.0000 0.6100
vt 0.5000 0.6100
vt 1.0000 0.6100
vt 0.0000 0.6720
vt 0.5000 0.6720
vt 1.0000 0.6720
vt 0.0000 0.7340
vt 0.5000 0.7340
vt 1.0000 0.7340
vt 0.0000 0.7960
vt 0.5000 0.7960
vt 1.0000 0.7960
vt 0.0000 0.8580
vt 0.5000 0.8580
vt 1.0000 0.8580
vt 0.0000 0.9200
vt 0.5000 0.9200
vt 1.0000 0.9200
vn 0.798 -0.184 -0.574
vn 0.767 -0.231 -0.598
vn 0.707 -0.294 -0.643
vn 0.564 -0.299 -0.770
vn 0.275 -0.277 -0.920
vn 0.051 -0.305 -0.951
vn 0.006 -0.369 -0.929
vn -0.059 -0.374 -0.926
vn -0.291 -0.304 -0.907
vn -0.569 -0.232 -0.789
vn -0.709 -0.237 -0.664
vn -0.758 -0.274 -0.592
vn -0.861 -0.263 -0.436
vn -0.968 -0.227 -0.110
vn -0.953 -0.250 0.168
vn -0.912 -0.339 0.230
vn -0.885 -0.383 0.266
vn -0.813 -0.347 0.467
vn -0.643 -0.288 0.710
vn -0.500 -0.282 0.819
vn -0.442 -0.303 0.844
vn -0.311 -0.272 0.910
vn 0.008 -0.207 0.978
vn 0.333 -0.196 0.922
vn 0.445 -0.276 0.852
vn 0.472 -0.346 0.811
vn 0.630 -0.342 0.697
vn 0.831 -0.307 0.465
vn 0.905 -0.317 0.284
vn 0.907 -0.350 0.235
vn 0.935 -0.324 0.142
vn 0.962 -0.241 -0.128
vn 0.875 -0.188 -0.445
vn 0.769 -0.231 -0.596
vn 0.706 -0.294 -0.644
vn 0.562 -0.299 -0.771
vn 0.279 -0.277 -0.919
vn 0.056 -0.305 -0.951
vn 0.005 -0.369 -0.929
vn -0.064 -0.374 -0.925
vn -0.124 -0.295 -0.947
vn 0.859 -0.133 -0.494
vn 0.841 -0.185 -0.509
vn 0.758 -0.221 -0.614
vn 0.543 -0.207 -0.814
vn 0.286 -0.199 -0.937
vn 0.165 -0.244 -0.956
vn 0.083 -0.295 -0.952
vn -0.139 -0.282 -0.949
vn -0.439 -0.213 -0.873
vn -0.622 -0.169 -0.765
vn -0.679 -0.191 -0.709
vn -0.757 -0.207 -0.620
vn -0.905 -0.174 -0.387
vn -0.984 -0.149 -0.095
vn -0.979 -0.200 0.044
vn -0.956 -0.278 0.098
vn -0.913 -0.290 0.287
vn -0.778 -0.243 0.579
vn -0.614 -0.212 0.761
vn -0.534 -0.232 0.813
vn -0.445 -0.238 0.863
vn -0.218 -0.187 0.958
vn 0.087 -0.126 0.988
vn 0.260 -0.146 0.954
vn 0.308 -0.225 0.924
vn 0.446 -0.266 0.854
vn 0.698 -0.243 0.674
vn 0.861 -0.219 0.458
vn 0.902 -0.254 0.350
vn 0.924 -0.285 0.254
vn 0.971 -0.239 0.031
vn 0.952 -0.155 -0.265
vn 0.883 -0.134 -0.449
vn 0.840 -0.185 -0.511
vn 0.755 -0.221 -0.617
vn 0.543 -0.207 -0.814
vn 0.288 -0.199 -0.937
vn 0.165 -0.244 -0.956
vn 0.080 -0.295 -0.952
vn -0.141 -0.282 -0.949
vn -0.289 -0.213 -0.933
vn 0.919 0.004 -0.393
vn 0.883 -0.035 -0.469
vn 0.737 -0.012 -0.675
vn 0.494 0.028 -0.869
vn 0.325 0.003 -0.946
vn 0.246 -0.065 -0.967
vn 0.083 -0.080 -0.993
vn -0.215 -0.024 -0.976
vn -0.472 0.020 -0.881
vn -0.584 -0.006 -0.812
vn -0.655 -0.040 -0.755
vn -0.808 -0.012 -0.588
vn -0.948 0.042 -0.316
vn -0.991 0.033 -0.131
vn -0.997 -0.037 -0.066
vn -0.992 -0.073 0.099
vn -0.916 -0.036 0.400
vn -0.778 0.004 0.628
vn -0.688 -0.020 0.725
vn -0.603 -0.059 0.796
vn -0.414 -0.034 0.910
vn -0.126 0.034 0.991
vn 0.087 0.049 0.995
vn 0.158 -0.008 0.987
vn 0.269 -0.051 0.962
vn 0.537 -0.026 0.843
vn 0.775 0.009 0.632
vn 0.859 -0.019 0.511
vn 0.889 -0.073 0.452
vn 0.965 -0.064 0.256
vn 0.998 0.005 -0.063
vn 0.955 0.042 -0.295
vn 0.923 0.004 -0.384
vn 0.881 -0.035 -0.472
vn 0.736 -0.012 -0.677
vn 0.496 0.028 -0.868
vn 0.326 0.003 -0.945
vn 0.244 -0.065 -0.968
vn 0.080 -0.080 -0.994
vn -0.214 -0.024 -0.976
vn -0.372 0.020 -0.928
vn 0.916 0.205 -0.346
vn 0.841 0.217 -0.495
vn 0.619 0.259 -0.741
vn 0.438 0.252 -0.863
vn 0.389 0.187 -0.902
vn 0.285 0.133 -0.949
vn 0.007 0.164 -0.986
vn -0.272 0.218 -0.937
vn -0.399 0.220 -0.890
vn -0.469 0.185 -0.863
vn -0.629 0.202 -0.751
vn -0.825 0.263 -0.500
vn -0.923 0.278 -0.266
vn -0.958 0.225 -0.180
vn -0.982 0.169 -0.085
vn -0.968 0.180 0.177
vn -0.863 0.208 0.460
vn -0.781 0.196 0.593
vn -0.744 0.157 0.649
vn -0.624 0.168 0.763
vn -0.364 0.237 0.901
vn -0.109 0.278 0.954
vn 0.011 0.248 0.969
vn 0.110 0.197 0.974
vn 0.350 0.204 0.914
vn 0.620 0.237 0.748
vn 0.751 0.215 0.624
vn 0.798 0.148 0.585
vn 0.877 0.131 0.463
vn 0.961 0.198 0.193
vn 0.965 0.253 -0.069
vn 0.950 0.242 -0.197
vn 0.935 0.204 -0.290
vn 0.840 0.217 -0.497
vn 0.621 0.260 -0.739
vn 0.441 0.253 -0.861
vn 0.388 0.187 -0.902
vn 0.282 0.133 -0.950
vn 0.007 0.164 -0.986
vn -0.269 0.218 -0.938
vn -0.377 0.220 -0.900
vn 0.859 0.316 -0.404
vn 0.760 0.353 -0.545
vn 0.581 0.382 -0.719
vn 0.538 0.338 -0.772
vn 0.505 0.245 -0.828
vn 0.266 0.214 -0.940
vn -0.087 0.261 -0.961
vn -0.286 0.298 -0.911
vn -0.354 0.282 -0.892
vn -0.483 0.273 -0.832
vn -0.692 0.331 -0.642
vn -0.820 0.393 -0.415
vn -0.861 0.386 -0.331
vn -0.900 0.309 -0.307
vn -0.959 0.260 -0.111
vn -0.934 0.280 0.224
vn -0.850 0.293 0.438
vn -0.816 0.254 0.519
vn -0.735 0.219 0.642
vn -0.504 0.270 0.820
vn -0.240 0.356 0.903
vn -0.124 0.387 0.914
vn -0.086 0.344 0.935
vn 0.085 0.308 0.947
vn 0.386 0.327 0.863
vn 0.584 0.334 0.740
vn 0.650 0.278 0.707
vn 0.745 0.204 0.635
vn 0.900 0.216 0.378
vn 0.953 0.296 0.062
vn 0.934 0.344 -0.090
vn 0.934 0.329 -0.140
vn 0.905 0.315 -0.287
vn 0.761 0.353 -0.544
vn 0.584 0.382 -0.717
vn 0.537 0.338 -0.773
vn 0.500 0.245 -0.831
vn 0.263 0.214 -0.941
vn -0.084 0.262 -0.962
vn -0.283 0.298 -0.912
vn -0.334 0.282 -0.899
vn -0.798 0.184 0.574
vn -0.767 0.231 0.598
vn -0.707 0.294 0.643
vn -0.564 0.299 0.770
vn -0.275 0.277 0.920
vn -0.051 0.305 0.951
vn -0.006 0.369 0.929
vn 0.059 0.374 0.926
vn 0.291 0.304 0.907
vn 0.569 0.232 0.789
vn 0.709 0.237 0.664
vn 0.758 0.274 0.592
vn 0.861 0.263 0.436
vn 0.968 0.227 0.110
vn 0.953 0.250 -0.168
vn 0.912 0.339 -0.230
vn 0.885 0.383 -0.266
vn 0.813 0.347 -0.467
vn 0.643 0.288 -0.710
vn 0.500 0.282 -0.819
vn 0.442 0.303 -0.844
vn 0.311 0.272 -0.910
vn -0.008 0.207 -0.978
vn -0.333 0.196 -0.922
vn -0.445 0.276 -0.852
vn -0.472 0.346 -0.811
vn -0.630 0.342 -0.697
vn -0.831 0.307 -0.465
vn -0.905 0.317 -0.284
vn -0.907 0.350 -0.235
vn -0.935 0.324 -0.142
vn -0.962 0.241 0.128
vn -0.875 0.188 0.445
vn -0.769 0.231 0.596
vn -0.706 0.294 0.644
vn -0.562 0.299 0.771
vn -0.279 0.277 0.919
vn -0.056 0.305 0.951
vn -0.005 0.369 0.929
vn 0.064 0.374 0.925
vn 0.124 0.295 0.947
vn -0.859 0.133 0.494
vn -0.841 0.185 0.509
vn -0.758 0.221 0.614
vn -0.543 0.207 0.814
vn -0.286 0.199 0.937
vn -0.165 0.244 0.956
vn -0.083 0.295 0.952
vn 0.139 0.282 0.949
vn 0.439 0.213 0.873
vn 0.622 0.169 0.765
vn 0.679 0.191 0.709
vn 0.757 0.207 0.620
vn 0.905 0.174 0.387
vn 0.984 0.149 0.095
vn 0.979 0.200 -0.044
vn 0.956 0.278 -0.098
vn 0.913 0.290 -0.287
vn 0.778 0.243 -0.579
vn 0.614 0.212 -0.761
vn 0.534 0.232 -0.813
vn 0.445 0.238 -0.863
vn 0.218 0.187 -0.958
vn -0.087 0.126 -0.988
vn -0.260 0.146 -0.954
vn -0.308 0.225 -0.924
vn -0.446 0.266 -0.854
vn -0.698 0.243 -0.674
vn -0.861 0.219 -0.458
vn -0.902 0.254 -0.350
vn -0.924 0.285 -0.254
vn -0.971 0.239 -0.031
vn -0.952 0.155 0.265
vn -0.883 0.134 0.449
vn -0.840 0.185 0.511
vn -0.755 0.221 0.617
vn -0.543 0.207 0.814
vn -0.288 0.199 0.937
vn -0.165 0.244 0.956
vn -0.080 0.295 0.952
vn 0.141 0.282 0.949
vn 0.289 0.213 0.933
vn -0.919 -0.004 0.393
vn -0.883 0.035 0.469
vn -0.737 0.012 0.675
vn -0.494 -0.028 0.869
vn -0.325 -0.003 0.946
vn -0.246 0.065 0.967
vn -0.083 0.080 0.993
vn 0.215 0.024 0.976
vn 0.472 -0.020 0.881
vn 0.584 0.006 0.812
vn 0.655 0.040 0.755
vn 0.808 0.012 0.588
vn 0.948 -0.042 0.316
vn 0.991 -0.033 0.131
vn 0.997 0.037 0.066
vn 0.992 0.073 -0.099
vn 0.916 0.036 -0.400
vn 0.778 -0.004 -0.628
vn 0.688 0.020 -0.725
vn 0.603 0.059 -0.796
vn 0.414 0.034 -0.910
vn 0.126 -0.034 -0.991
vn -0.087 -0.049 -0.995
vn -0.158 0.008 -0.987
vn -0.269 0.051 -0.962
vn -0.537 0.026 -0.843
vn -0.775 -0.009 -0.632
vn -0.859 0.019 -0.511
vn -0.889 0.073 -0.452
vn -0.965 0.064 -0.256
vn -0.998 -0.005 0.063
vn -0.955 -0.042 0.295
vn -0.923 -0.004 0.384
vn -0.881 0.035 0.472
vn -0.736 0.012 0.677
vn -0.496 -0.028 0.868
vn -0.326 -0.003 0.945
vn -0.244 0.065 0.968
vn -0.080 0.080 0.994
vn 0.214 0.024 0.976
vn 0.372 -0.020 0.928
vn -0.916 -0.205 0.346
vn -0.841 -0.217 0.495
vn -0.619 -0.259 0.741
vn -0.438 -0.252 0.863
vn -0.389 -0.187 0.902
vn -0.285 -0.133 0.949
vn -0.007 -0.164 0.986
vn 0.272 -0.218 0.937
vn 0.399 -0.220 0.890
vn 0.469 -0.185 0.863
vn 0.629 -0.202 0.751
vn 0.825 -0.263 0.500
vn 0.923 -0.278 0.266
vn 0.958 -0.225 0.180
vn 0.982 -0.169 0.085
vn 0.968 -0.180 -0.177
vn 0.863 -0.208 -0.460
vn 0.781 -0.196 -0.593
vn 0.744 -0.157 -0.649
vn 0.624 -0.168 -0.763
vn 0.364 -0.237 -0.901
vn 0.109 -0.278 -0.954
vn -0.011 -0.248 -0.969
vn -0.110 -0.197 -0.974
vn -0.350 -0.204 -0.914
vn -0.620 -0.237 -0.748
vn -0.751 -0.215 -0.624
vn -0.798 -0.148 -0.585
vn -0.877 -0.131 -0.463
vn -0.961 -0.198 -0.193
vn -0.965 -0.253 0.069
vn -0.950 -0.242 0.197
vn -0.935 -0.204 0.290
vn -0.840 -0.217 0.497
vn -0.621 -0.260 0.739
vn -0.441 -0.253 0.861
vn -0.388 -0.187 0.902
vn -0.282 -0.133 0.950
vn -0.007 -0.164 0.986
vn 0.269 -0.218 0.938
vn 0.377 -0.220 0.900
vn -0.859 -0.316 0.404
vn -0.760 -0.353 0.545
vn -0.581 -0.382 0.719
vn -0.538 -0.338 0.772
vn -0.505 -0.245 0.828
vn -0.266 -0.214 0.940
vn 0.087 -0.261 0.961
vn 0.286 -0.298 0.911
vn 0.354 -0.282 0.892
vn 0.483 -0.273 0.832
vn 0.692 -0.331 0.642
vn 0.820 -0.393 0.415
vn 0.861 -0.386 0.331
vn 0.900 -0.309 0.307
vn 0.959 -0.260 0.111
vn 0.934 -0.280 -0.224
vn 0.850 -0.293 -0.438
vn 0.816 -0.254 -0.519
vn 0.735 -0.219 -0.642
vn 0.504 -0.270 -0.820
vn 0.240 -0.356 -0.903
vn 0.124 -0.387 -0.914
vn 0.086 -0.344 -0.935
vn -0.085 -0.308 -0.947
vn -0.386 -0.327 -0.863
vn -0.584 -0.334 -0.740
vn -0.650 -0.278 -0.707
vn -0.745 -0.204 -0.635
vn -0.900 -0.216 -0.378
vn -0.953 -0.296 -0.062
vn -0.934 -0.344 0.090
vn -0.934 -0.329 0.140
vn -0.905 -0.315 0.287
vn -0.761 -0.353 0.544
vn -0.584 -0.382 0.717
vn -0.537 -0.338 0.773
vn -0.500 -0.245 0.831
vn -0.263 -0.214 0.941
vn 0.084 -0.262 0.962
vn 0.283 -0.298 0.912
vn 0.334 -0.282 0.899
vn 0.988 0.149 -0.028
vn 0.986 0.156 -0.050
vn 0.984 0.163 -0.070
vn 0.988 0.152 -0.029
vn 0.986 0.159 -0.051
vn 0.984 0.165 -0.070
vn 0.986 0.161 -0.031
vn 0.984 0.168 -0.053
vn 0.982 0.173 -0.072
vn 0.984 0.175 -0.035
vn 0.982 0.181 -0.056
vn 0.980 0.186 -0.075
vn 0.980 0.193 -0.040
vn 0.978 0.198 -0.060
vn 0.976 0.201 -0.079
vn 0.976 0.213 -0.045
vn 0.974 0.217 -0.065
vn 0.972 0.219 -0.083
vn 0.971 0.234 -0.051
vn 0.969 0.236 -0.070
vn 0.967 0.238 -0.087
vn 0.965 0.255 -0.056
vn 0.964 0.256 -0.075
vn 0.962 0.256 -0.091
vn 0.960 0.273 -0.061
vn 0.959 0.273 -0.079
vn 0.957 0.273 -0.095
vn 0.955 0.289 -0.065
vn 0.954 0.288 -0.083
vn 0.953 0.287 -0.098
vn 0.953 0.296 -0.067
vn 0.952 0.295 -0.084
vn 0.951 0.293 -0.100
vn -0.988 -0.149 0.028
vn -0.986 -0.156 0.050
vn -0.984 -0.163 0.070
vn -0.988 -0.152 0.029
vn -0.986 -0.159 0.051
vn -0.984 -0.165 0.070
vn -0.986 -0.161 0.031
vn -0.984 -0.168 0.053
vn -0.982 -0.173 0.072
vn -0.984 -0.175 0.035
vn -0.982 -0.181 0.056
vn -0.980 -0.186 0.075
vn -0.980 -0.193 0.040
vn -0.978 -0.198 0.060
vn -0.976 -0.201 0.079
vn -0.976 -0.213 0.045
vn -0.974 -0.217 0.065
vn -0.972 -0.219 0.083
vn -0.971 -0.234 0.051
vn -0.969 -0.236 0.070
vn -0.967 -0.238 0.087
vn -0.965 -0.255 0.056
vn -0.964 -0.256 0.075
vn -0.962 -0.256 0.091
vn -0.960 -0.273 0.061
vn -0.959 -0.273 0.079
vn -0.957 -0.273 0.095
vn -0.955 -0.289 0.065
vn -0.954 -0.288 0.083
vn -0.953 -0.287 0.098
vn -0.953 -0.296 0.067
vn -0.952 -0.295 0.084
vn -0.951 -0.293 0.100
v 0.0655 0.1386 0.0000
v 0.0671 0.1370 0.0000
v 0.0655 0.1354 0.0000
v 0.0639 0.1370 -0.0000
v 0.0655 0.1386 0.0000
v 0.0639 0.1386 -0.0146
v 0.0654 0.1370 -0.0149
v 0.0639 0.1354 -0.0146
v 0.0623 0.1370 -0.0142
v 0.0639 0.1386 -0.0146
v 0.0590 0.1386 -0.0284
v 0.0605 0.1370 -0.0291
v 0.0590 0.1354 -0.0284
v 0.0576 0.1370 -0.0277
v 0.0590 0.1386 -0.0284
v 0.0512 0.1386 -0.0408
v 0.0525 0.1370 -0.0418
v 0.0512 0.1354 -0.0408
v 0.0500 0.1370 -0.0398
v 0.0512 0.1386 -0.0408
v 0.0408 0.1386 -0.0512
v 0.0418 0.1370 -0.0525
v 0.0408 0.1354 -0.0512
v 0.0398 0.1370 -0.0500
v 0.0408 0.1386 -0.0512
v 0.0284 0.1386 -0.0590
v 0.0291 0.1370 -0.0605
v 0.0284 0.1354 -0.0590
v 0.0277 0.1370 -0.0576
v 0.0284 0.1386 -0.0590
v 0.0146 0.1386 -0.0639
v 0.0149 0.1370 -0.0654
v 0.0146 0.1354 -0.0639
v 0.0142 0.1370 -0.0623
v 0.0146 0.1386 -0.0639
v 0.0000 0.1386 -0.0655
v 0.0000 0.1370 -0.0671
v 0.0000 0.1354 -0.0655
v 0.0000 0.1370 -0.0639
v 0.0000 0.1386 -0.0655
v -0.0146 0.1386 -0.0639
v -0.0149 0.1370 -0.0654
v -0.0146 0.1354 -0.0639
v -0.0142 0.1370 -0.0623
v -0.0146 0.1386 -0.0639
v -0.0284 0.1386 -0.0590
v -0.0291 0.1370 -0.0605
v -0.0284 0.1354 -0.0590
v -0.0277 0.1370 -0.0576
v -0.0284 0.1386 -0.0590
v -0.0408 0.1386 -0.0512
v -0.0418 0.1370 -0.0525
v -0.0408 0.1354 -0.0512
v -0.0398 0.1370 -0.0500
v -0.0408 0.1386 -0.0512
v -0.0512 0.1386 -0.0408
v -0.0525 0.1370 -0.0418
v -0.0512 0.1354 -0.0408
v -0.0500 0.1370 -0.0398
v -0.0512 0.1386 -0.0408
v -0.0590 0.1386 -0.0284
v -0.0605 0.1370 -0.0291
v -0.0590 0.1354 -0.0284
v -0.0576 0.1370 -0.0277
v -0.0590 0.1386 -0.0284
v -0.0639 0.1386 -0.0146
v -0.0654 0.1370 -0.0149
v -0.0639 0.1354 -0.0146
v -0.0623 0.1370 -0.0142
v -0.0639 0.1386 -0.0146
v -0.0655 0.1386 -0.0000
v -0.0671 0.1370 -0.0000
v -0.0655 0.1354 -0.0000
v -0.0639 0.1370 -0.0000
v -0.0655 0.1386 -0.0000
v -0.0639 0.1386 0.0146
v -0.0654 0.1370 0.0149
v -0.0639 0.1354 0.0146
v -0.0623 0.1370 0.0142
v -0.0639 0.1386 0.0146
v -0.0590 0.1386 0.0284
v -0.0605 0.1370 0.0291
v -0.0590 0.1354 0.0284
v -0.0576 0.1370 0.0277
v -0.0590 0.1386 0.0284
v -0.0512 0.1386 0.0408
v -0.0525 0.1370 0.0418
v -0.0512 0.1354 0.0408
v -0.0500 0.1370 0.0398
v -0.0512 0.1386 0.0408
v -0.0408 0.1386 0.0512
v -0.0418 0.1370 0.0525
v -0.0408 0.1354 0.0512
v -0.0398 0.1370 0.0500
v -0.0408 0.1386 0.0512
v -0.0284 0.1386 0.0590
v -0.0291 0.1370 0.0605
v -0.0284 0.1354 0.0590
v -0.0277 0.1370 0.0576
v -0.0284 0.1386 0.0590
v -0.0146 0.1386 0.0639
v -0.0149 0.1370 0.0654
v -0.0146 0.1354 0.0639
v -0.0142 0.1370 0.0623
v -0.0146 0.1386 0.0639
v -0.0000 0.1386 0.0655
v -0.0000 0.1370 0.0671
v -0.0000 0.1354 0.0655
v -0.0000 0.1370 0.0639
v -0.0000 0.1386 0.0655
v 0.0146 0.1386 0.0639
v 0.0149 0.1370 0.0654
v 0.0146 0.1354 0.0639
v 0.0142 0.1370 0.0623
v 0.0146 0.1386 0.0639
v 0.0284 0.1386 0.0590
v 0.0291 0.1370 0.0605
v 0.0284 0.1354 0.0590
v 0.0277 0.1370 0.0576
v 0.0284 0.1386 0.0590
v 0.0408 0.1386 0.0512
v 0.0418 0.1370 0.0525
v 0.0408 0.1354 0.0512
v 0.0398 0.1370 0.0500
v 0.0408 0.1386 0.0512
v 0.0512 0.1386 0.0408
v 0.0525 0.1370 0.0418
v 0.0512 0.1354 0.0408
v 0.0500 0.1370 0.0398
v 0.0512 0.1386 0.0408
v 0.0590 0.1386 0.0284
v 0.0605 0.1370 0.0291
v 0.0590 0.1354 0.0284
v 0.0576 0.1370 0.0277
v 0.0590 0.1386 0.0284
v 0.0639 0.1386 0.0146
v 0.0654 0.1370 0.0149
v 0.0639 0.1354 0.0146
v 0.0623 0.1370 0.0142
v 0.0639 0.1386 0.0146
v 0.0655 0.1386 0.0000
v 0.0671 0.1370 0.0000
v 0.0655 0.1354 0.0000
v 0.0639 0.1370 -0.0000
v 0.0655 0.1386 0.0000
vt 0.0000 0.0000
vt 0.0000 0.0025
vt 0.0000 0.0050
vt 0.0000 0.0075
vt 0.0000 0.0101
vt 0.0147 0.0000
vt 0.0147 0.0025
vt 0.0147 0.0050
vt 0.0147 0.0075
vt 0.0147 0.0101
vt 0.0293 0.0000
vt 0.0293 0.0025
vt 0.0293 0.0050
vt 0.0293 0.0075
vt 0.0293 0.0101
vt 0.0440 0.0000
vt 0.0440 0.0025
vt 0.0440 0.0050
vt 0.0440 0.0075
vt 0.0440 0.0101
vt 0.0587 0.0000
vt 0.0587 0.0025
vt 0.0587 0.0050
vt 0.0587 0.0075
vt 0.0587 0.0101
vt 0.0733 0.0000
vt 0.0733 0.0025
vt 0.0733 0.0050
vt 0.0733 0.0075
vt 0.0733 0.0101
vt 0.0880 0.0000
vt 0.0880 0.0025
vt 0.0880 0.0050
vt 0.0880 0.0075
vt 0.0880 0.0101
vt 0.1027 0.0000
vt 0.1027 0.0025
vt 0.1027 0.0050
vt 0.1027 0.0075
vt 0.1027 0.0101
vt 0.1173 0.0000
vt 0.1173 0.0025
vt 0.1173 0.0050
vt 0.1173 0.0075
vt 0.1173 0.0101
vt 0.1320 0.0000
vt 0.1320 0.0025
vt 0.1320 0.0050
vt 0.1320 0.0075
vt 0.1320 0.0101
vt 0.1467 0.0000
vt 0.1467 0.0025
vt 0.1467 0.0050
vt 0.1467 0.0075
vt 0.1467 0.0101
vt 0.1613 0.0000
vt 0.1613 0.0025
vt 0.1613 0.0050
vt 0.1613 0.0075
vt 0.1613 0.0101
vt 0.1760 0.0000
vt 0.1760 0.0025
vt 0.1760 0.0050
vt 0.1760 0.0075
vt 0.1760 0.0101
vt 0.1907 0.0000
vt 0.1907 0.0025
vt 0.1907 0.0050
vt 0.1907 0.0075
vt 0.1907 0.0101
vt 0.2053 0.0000
vt 0.2053 0.0025
vt 0.2053 0.0050
vt 0.2053 0.0075
vt 0.2053 0.0101
vt 0.2200 0.0000
vt 0.2200 0.0025
vt 0.2200 0.0050
vt 0.2200 0.0075
vt 0.2200 0.0101
vt 0.2347 0.0000
vt 0.2347 0.0025
vt 0.2347 0.0050
vt 0.2347 0.0075
vt 0.2347 0.0101
vt 0.2493 0.0000
vt 0.2493 0.0025
vt 0.2493 0.0050
vt 0.2493 0.0075
vt 0.2493 0.0101
vt 0.2640 0.0000
vt 0.2640 0.0025
vt 0.2640 0.0050
vt 0.2640 0.0075
vt 0.2640 0.0101
vt 0.2787 0.0000
vt 0.2787 0.0025
vt 0.2787 0.0050
vt 0.2787 0.0075
vt 0.2787 0.0101
vt 0.2933 0.0000
vt 0.2933 0.0025
vt 0.2933 0.0050
vt 0.2933 0.0075
vt 0.2933 0.0101
vt 0.3080 0.0000
vt 0.3080 0.0025
vt 0.3080 0.0050
vt 0.3080 0.0075
vt 0.3080 0.0101
vt 0.3227 0.0000
vt 0.3227 0.0025
vt 0.3227 0.0050
vt 0.3227 0.0075
vt 0.3227 0.0101
vt 0.3373 0.0000
vt 0.3373 0.0025
vt 0.3373 0.0050
vt 0.3373 0.0075
vt 0.3373 0.0101
vt 0.3520 0.0000
vt 0.3520 0.0025
vt 0.3520 0.0050
vt 0.3520 0.0075
vt 0.3520 0.0101
vt 0.3667 0.0000
vt 0.3667 0.0025
vt 0.3667 0.0050
vt 0.3667 0.0075
vt 0.3667 0.0101
vt 0.3814 0.0000
vt 0.3814 0.0025
vt 0.3814 0.0050
vt 0.3814 0.0075
vt 0.3814 0.0101
vt 0.3960 0.0000
vt 0.3960 0.0025
vt 0.3960 0.0050
vt 0.3960 0.0075
vt 0.3960 0.0101
vt 0.4107 0.0000
vt 0.4107 0.0025
vt 0.4107 0.0050
vt 0.4107 0.0075
vt 0.4107 0.0101
vn 0.000 1.000 0.000
vn 1.000 0.000 0.000
vn 0.000 -1.000 0.000
vn -1.000 -0.000 -0.000
vn -0.000 1.000 0.000
vn 0.000 1.000 0.000
vn 0.975 0.000 -0.223
vn 0.000 -1.000 -0.000
vn -0.975 -0.000 0.223
vn -0.000 1.000 0.000
vn 0.000 1.000 0.000
vn 0.901 0.000 -0.434
vn 0.000 -1.000 -0.000
vn -0.901 -0.000 0.434
vn -0.000 1.000 0.000
vn 0.000 1.000 0.000
vn 0.782 0.000 -0.623
vn 0.000 -1.000 -0.000
vn -0.782 -0.000 0.623
vn -0.000 1.000 0.000
vn 0.000 1.000 0.000
vn 0.623 0.000 -0.782
vn 0.000 -1.000 -0.000
vn -0.623 -0.000 0.782
vn -0.000 1.000 0.000
vn 0.000 1.000 0.000
vn 0.434 0.000 -0.901
vn 0.000 -1.000 -0.000
vn -0.434 -0.000 0.901
vn -0.000 1.000 0.000
vn 0.000 1.000 0.000
vn 0.223 0.000 -0.975
vn 0.000 -1.000 -0.000
vn -0.223 -0.000 0.975
vn -0.000 1.000 0.000
vn 0.000 1.000 0.000
vn 0.000 0.000 -1.000
vn 0.000 -1.000 -0.000
vn -0.000 -0.000 1.000
vn 0.000 1.000 0.000
vn 0.000 1.000 0.000
vn -0.223 0.000 -0.975
vn -0.000 -1.000 -0.000
vn 0.223 -0.000 0.975
vn 0.000 1.000 0.000
vn 0.000 1.000 0.000
vn -0.434 0.000 -0.901
vn -0.000 -1.000 -0.000
vn 0.434 -0.000 0.901
vn 0.000 1.000 0.000
vn 0.000 1.000 0.000
vn -0.623 0.000 -0.782
vn -0.000 -1.000 -0.000
vn 0.623 -0.000 0.782
vn 0.000 1.000 0.000
vn 0.000 1.000 0.000
vn -0.782 0.000 -0.623
vn -0.000 -1.000 -0.000
vn 0.782 -0.000 0.623
vn 0.000 1.000 0.000
vn 0.000 1.000 0.000
vn -0.901 0.000 -0.434
vn -0.000 -1.000 -0.000
vn 0.901 -0.000 0.434
vn 0.000 1.000 0.000
vn 0.000 1.000 0.000
vn -0.975 0.000 -0.223
vn -0.000 -1.000 -0.000
vn 0.975 -0.000 0.223
vn 0.000 1.000 0.000
vn 0.000 1.000 0.000
vn -1.000 0.000 0.000
vn -0.000 -1.000 0.000
vn 1.000 -0.000 -0.000
vn 0.000 1.000 0.000
vn 0.000 1.000 0.000
vn -0.975 0.000 0.223
vn -0.000 -1.000 0.000
vn 0.975 -0.000 -0.223
vn 0.000 1.000 -0.000
vn 0.000 1.000 0.000
vn -0.901 0.000 0.434
vn -0.000 -1.000 0.000
vn 0.901 -0.000 -0.434
vn 0.000 1.000 -0.000
vn 0.000 1.000 0.000
vn -0.782 0.000 0.623
vn -0.000 -1.000 0.000
vn 0.782 -0.000 -0.623
vn 0.000 1.000 -0.000
vn 0.000 1.000 0.000
vn -0.623 0.000 0.782
vn -0.000 -1.000 0.000
vn 0.623 -0.000 -0.782
vn 0.000 1.000 -0.000
vn 0.000 1.000 0.000
vn -0.434 0.000 0.901
vn -0.000 -1.000 0.000
vn 0.434 -0.000 -0.901
vn 0.000 1.000 -0.000
vn 0.000 1.000 0.000
vn -0.223 0.000 0.975
vn -0.000 -1.000 0.000
vn 0.223 -0.000 -0.975
vn 0.000 1.000 -0.000
vn 0.000 1.000 0.000
vn -0.000 0.000 1.000
vn -0.000 -1.000 0.000
vn 0.000 -0.000 -1.000
vn 0.000 1.000 -0.000
vn 0.000 1.000 0.000
vn 0.223 0.000 0.975
vn 0.000 -1.000 0.000
vn -0.223 -0.000 -0.975
vn -0.000 1.000 -0.000
vn 0.000 1.000 0.000
vn 0.434 0.000 0.901
vn 0.000 -1.000 0.000
vn -0.434 -0.000 -0.901
vn -0.000 1.000 -0.000
vn 0.000 1.000 0.000
vn 0.623 0.000 0.782
vn 0.000 -1.000 0.000
vn -0.623 -0.000 -0.782
vn -0.000 1.000 -0.000
vn 0.000 1.000 0.000
vn 0.782 0.000 0.623
vn 0.000 -1.000 0.000
vn -0.782 -0.000 -0.623
vn -0.000 1.000 -0.000
vn 0.000 1.000 0.000
vn 0.901 0.000 0.434
vn 0.000 -1.000 0.000
vn -0.901 -0.000 -0.434
vn -0.000 1.000 -0.000
vn 0.000 1.000 0.000
vn 0.975 0.000 0.223
vn 0.000 -1.000 0.000
vn -0.975 -0.000 -0.223
vn -0.000 1.000 -0.000
vn 0.000 1.000 0.000
vn 1.000 0.000 0.000
vn 0.000 -1.000 0.000
vn -1.000 -0.000 -0.000
vn -0.000 1.000 0.000
usemtl paper
f 1/1/1 2/2/2 43/43/43
f 1/1/1 43/43/43 42/42/42
f 2/2/2 3/3/3 44/44/44
f 2/2/2 44/44/44 43/43/43
f 3/3/3 4/4/4 45/45/45
f 3/3/3 45/45/45 44/44/44
f 4/4/4 5/5/5 46/46/46
f 4/4/4 46/46/46 45/45/45
f 5/5/5 6/6/6 47/47/47
f 5/5/5 47/47/47 46/46/46
f 6/6/6 7/7/7 48/48/48
f 6/6/6 48/48/48 47/47/47
f 7/7/7 8/8/8 49/49/49
f 7/7/7 49/49/49 48/48/48
f 8/8/8 9/9/9 50/50/50
f 8/8/8 50/50/50 49/49/49
f 9/9/9 10/10/10 51/51/51
f 9/9/9 51/51/51 50/50/50
f 10/10/10 11/11/11 52/52/52
f 10/10/10 52/52/52 51/51/51
f 11/11/11 12/12/12 53/53/53
f 11/11/11 53/53/53 52/52/52
f 12/12/12 13/13/13 54/54/54
f 12/12/12 54/54/54 53/53/53
f 13/13/13 14/14/14 55/55/55
f 13/13/13 55/55/55 54/54/54
f 14/14/14 15/15/15 56/56/56
f 14/14/14 56/56/56 55/55/55
f 15/15/15 16/16/16 57/57/57
f 15/15/15 57/57/57 56/56/56
f 16/16/16 17/17/17 58/58/58
f 16/16/16 58/58/58 57/57/57
f 17/17/17 18/18/18 59/59/59
f 17/17/17 59/59/59 58/58/58
f 18/18/18 19/19/19 60/60/60
f 18/18/18 60/60/60 59/59/59
f 19/19/19 20/20/20 61/61/61
f 19/19/19 61/61/61 60/60/60
f 20/20/20 21/21/21 62/62/62
f 20/20/20 62/62/62 61/61/61
f 21/21/21 22/22/22 63/63/63
f 21/21/21 63/63/63 62/62/62
f 22/22/22 23/23/23 64/64/64
f 22/22/22 64/64/64 63/63/63
f 23/23/23 24/24/24 65/65/65
f 23/23/23 65/65/65 64/64/64
f 24/24/24 25/25/25 66/66/66
f 24/24/24 66/66/66 65/65/65
f 25/25/25 26/26/26 67/67/67
f 25/25/25 67/67/67 66/66/66
f 26/26/26 27/27/27 68/68/68
f 26/26/26 68/68/68 67/67/67
f 27/27/27 28/28/28 69/69/69
f 27/27/27 69/69/69 68/68/68
f 28/28/28 29/29/29 70/70/70
f 28/28/28 70/70/70 69/69/69
f 29/29/29 30/30/30 71/71/71
f 29/29/29 71/71/71 70/70/70
f 30/30/30 31/31/31 72/72/72
f 30/30/30 72/72/72 71/71/71
f 31/31/31 32/32/32 73/73/73
f 31/31/31 73/73/73 72/72/72
f 32/32/32 33/33/33 74/74/74
f 32/32/32 74/74/74 73/73/73
f 33/33/33 34/34/34 75/75/75
f 33/33/33 75/75/75 74/74/74
f 34/34/34 35/35/35 76/76/76
f 34/34/34 76/76/76 75/75/75
f 35/35/35 36/36/36 77/77/77
f 35/35/35 77/77/77 76/76/76
f 36/36/36 37/37/37 78/78/78
f 36/36/36 78/78/78 77/77/77
f 37/37/37 38/38/38 79/79/79
f 37/37/37 79/79/79 78/78/78
f 38/38/38 39/39/39 80/80/80
f 38/38/38 80/80/80 79/79/79
f 39/39/39 40/40/40 81/81/81
f 39/39/39 81/81/81 80/80/80
f 40/40/40 41/41/41 82/82/82
f 40/40/40 82/82/82 81/81/81
f 42/42/42 43/43/43 84/84/84
f 42/42/42 84/84/84 83/83/83
f 43/43/43 44/44/44 85/85/85
f 43/43/43 85/85/85 84/84/84
f 44/44/44 45/45/45 86/86/86
f 44/44/44 86/86/86 85/85/85
f 45/45/45 46/46/46 87/87/87
f 45/45/45 87/87/87 86/86/86
f 46/46/46 47/47/47 88/88/88
f 46/46/46 88/88/88 87/87/87
f 47/47/47 48/48/48 89/89/89
f 47/47/47 89/89/89 88/88/88
f 48/48/48 49/49/49 90/90/90
f 48/48/48 90/90/90 89/89/89
f 49/49/49 50/50/50 91/91/91
f 49/49/49 91/91/91 90/90/90
f 50/50/50 51/51/51 92/92/92
f 50/50/50 92/92/92 91/91/91
f 51/51/51 52/52/52 93/93/93
f 51/51/51 93/93/93 92/92/92
f 52/52/52 53/53/53 94/94/94
f 52/52/52 94/94/94 93/93/93
f 53/53/53 54/54/54 95/95/95
f 53/53/53 95/95/95 94/94/94
f 54/54/54 55/55/55 96/96/96
f 54/54/54 96/96/96 95/95/95
f 55/55/55 56/56/56 97/97/97
f 55/55/55 97/97/97 96/96/96
f 56/56/56 57/57/57 98/98/98
f 56/56/56 98/98/98 97/97/97
f 57/57/57 58/58/58 99/99/99
f 57/57/57 99/99/99 98/98/98
f 58/58/58 59/59/59 100/100/100
f 58/58/58 100/100/100 99/99/99
f 59/59/59 60/60/60 101/101/101
f 59/59/59 101/101/101 100/100/100
f 60/60/60 61/61/61 102/102/102
f 60/60/60 102/102/102 101/101/101
f 61/61/61 62/62/62 103/103/103
f 61/61/61 103/103/103 102/102/102
f 62/62/62 63/63/63 104/104/104
f 62/62/62 104/104/104 103/103/103
f 63/63/63 64/64/64 105/105/105
f 63/63/63 105/105/105 104/104/104
f 64/64/64 65/65/65 106/106/106
f 64/64/64 106/106/106 105/105/105
f 65/65/65 66/66/66 107/107/107
f 65/65/65 107/107/107 106/106/106
f 66/66/66 67/67/67 108/108/108
f 66/66/66 108/108/108 107/107/107
f 67/67/67 68/68/68 109/109/109
f 67/67/67 109/109/109 108/108/108
f 68/68/68 69/69/69 110/110/110
f 68/68/68 110/110/110 109/109/109
f 69/69/69 70/70/70 111/111/111
f 69/69/69 111/111/111 110/110/110
f 70/70/70 71/71/71 112/112/112
f 70/70/70 112/112/112 111/111/111
f 71/71/71 72/72/72 113/113/113
f 71/71/71 113/113/113 112/112/112
f 72/72/72 73/73/73 114/114/114
f 72/72/72 114/114/114 113/113/113
f 73/73/73 74/74/74 115/115/115
f 73/73/73 115/115/115 114/114/114
f 74/74/74 75/75/75 116/116/116
f 74/74/74 116/116/116 115/115/115
f 75/75/75 76/76/76 117/117/117
f 75/75/75 117/117/117 116/116/116
f 76/76/76 77/77/77 118/118/118
f 76/76/76 118/118/118 117/117/117
f 77/77/77 78/78/78 119/119/119
f 77/77/77 119/119/119 118/118/118
f 78/78/78 79/79/79 120/120/120
f 78/78/78 120/120/120 119/119/119
f 79/79/79 80/80/80 121/121/121
f 79/79/79 121/121/121 120/120/120
f 80/80/80 81/81/81 122/122/122
f 80/80/80 122/122/122 121/121/121
f 81/81/81 82/82/82 123/123/123
f 81/81/81 123/123/123 122/122/122
f 83/83/83 84/84/84 125/125/125
f 83/83/83 125/125/125 124/124/124
f 84/84/84 85/85/85 126/126/126
f 84/84/84 126/126/126 125/125/125
f 85/85/85 86/86/86 127/127/127
f 85/85/85 127/127/127 126/126/126
f 86/86/86 87/87/87 128/128/128
f 86/86/86 128/128/128 127/127/127
f 87/87/87 88/88/88 129/129/129
f 87/87/87 129/129/129 128/128/128
f 88/88/88 89/89/89 130/130/130
f 88/88/88 130/130/130 129/129/129
f 89/89/89 90/90/90 131/131/131
f 89/89/89 131/131/131 130/130/130
f 90/90/90 91/91/91 132/132/132
f 90/90/90 132/132/132 131/131/131
f 91/91/91 92/92/92 133/133/133
f 91/91/91 133/133/133 132/132/132
f 92/92/92 93/93/93 134/134/134
f 92/92/92 134/134/134 133/133/133
f 93/93/93 94/94/94 135/135/135
f 93/93/93 135/135/135 134/134/134
f 94/94/94 95/95/95 136/136/136
f 94/94/94 136/136/136 135/135/135
f 95/95/95 96/96/96 137/137/137
f 95/95/95 137/137/137 136/136/136
f 96/96/96 97/97/97 138/138/138
f 96/96/96 138/138/138 137/137/137
f 97/97/97 98/98/98 139/139/139
f 97/97/97 139/139/139 138/138/138
f 98/98/98 99/99/99 140/140/140
f 98/98/98 140/140/140 139/139/139
f 99/99/99 100/100/100 141/141/141
f 99/99/99 141/141/141 140/140/140
f 100/100/100 101/101/101 142/142/142
f 100/100/100 142/142/142 141/141/141
f 101/101/101 102/102/102 143/143/143
f 101/101/101 143/143/143 142/142/142
f 102/102/102 103/103/103 144/144/144
f 102/102/102 144/144/144 143/143/143
f 103/103/103 104/104/104 145/145/145
f 103/103/103 145/145/145 144/144/144
f 104/104/104 105/105/105 146/146/146
f 104/104/104 146/146/146 145/145/145
f 105/105/105 106/106/106 147/147/147
f 105/105/105 147/147/147 146/146/146
f 106/106/106 107/107/107 148/148/148
f 106/106/106 148/148/148 147/147/147
f 107/107/107 108/108/108 149/149/149
f 107/107/107 149/149/149 148/148/148
f 108/108/108 109/109/109 150/150/150
f 108/108/108 150/150/150 149/149/149
f 109/109/109 110/110/110 151/151/151
f 109/109/109 151/151/151 150/150/150
f 110/110/110 111/111/111 152/152/152
f 110/110/110 152/152/152 151/151/151
f 111/111/111 112/112/112 153/153/153
f 111/111/111 153/153/153 152/152/152
f 112/112/112 113/113/113 154/154/154
f 112/112/112 154/154/154 153/153/153
f 113/113/113 114/114/114 155/155/155
f 113/113/113 155/155/155 154/154/154
f 114/114/114 115/115/115 156/156/156
f 114/114/114 156/156/156 155/155/155
f 115/115/115 116/116/116 157/157/157
f 115/115/115 157/157/157 156/156/156
f 116/116/116 117/117/117 158/158/158
f 116/116/116 158/158/158 157/157/157
f 117/117/117 118/118/118 159/159/159
f 117/117/117 159/159/159 158/158/158
f 118/118/118 119/119/119 160/160/160
f 118/118/118 160/160/160 159/159/159
f 119/119/119 120/120/120 161/161/161
f 119/119/119 161/161/161 160/160/160
f 120/120/120 121/121/121 162/162/162
f 120/120/120 162/162/162 161/161/161
f 121/121/121 122/122/122 163/163/163
f 121/121/121 163/163/163 162/162/162
f 122/122/122 123/123/123 164/164/164
f 122/122/122 164/164/164 163/163/163
f 124/124/124 125/125/125 166/166/166
f 124/124/124 166/166/166 165/165/165
f 125/125/125 126/126/126 167/167/167
f 125/125/125 167/167/167 166/166/166
f 126/126/126 127/127/127 168/168/168
f 126/126/126 168/168/168 167/167/167
f 127/127/127 128/128/128 169/169/169
f 127/127/127 169/169/169 168/168/168
f 128/128/128 129/129/129 170/170/170
f 128/128/128 170/170/170 169/169/169
f 129/129/129 130/130/130 171/171/171
f 129/129/129 171/171/171 170/170/170
f 130/130/130 131/131/131 172/172/172
f 130/130/130 172/172/172 171/171/171
f 131/131/131 132/132/132 173/173/173
f 131/131/131 173/173/173 172/172/172
f 132/132/132 133/133/133 174/174/174
f 132/132/132 174/174/174 173/173/173
f 133/133/133 134/134/134 175/175/175
f 133/133/133 175/175/175 174/174/174
f 134/134/134 135/135/135 176/176/176
f 134/134/134 176/176/176 175/175/175
f 135/135/135 136/136/136 177/177/177
f 135/135/135 177/177/177 176/176/176
f 136/136/136 137/137/137 178/178/178
f 136/136/136 178/178/178 177/177/177
f 137/137/137 138/138/138 179/179/179
f 137/137/137 179/179/179 178/178/178
f 138/138/138 139/139/139 180/180/180
f 138/138/138 180/180/180 179/179/179
f 139/139/139 140/140/140 181/181/181
f 139/139/139 181/181/181 180/180/180
f 140/140/140 141/141/141 182/182/182
f 140/140/140 182/182/182 181/181/181
f 141/141/141 142/142/142 183/183/183
f 141/141/141 183/183/183 182/182/182
f 142/142/142 143/143/143 184/184/184
f 142/142/142 184/184/184 183/183/183
f 143/143/143 144/144/144 185/185/185
f 143/143/143 185/185/185 184/184/184
f 144/144/144 145/145/145 186/186/186
f 144/144/144 186/186/186 185/185/185
f 145/145/145 146/146/146 187/187/187
f 145/145/145 187/187/187 186/186/186
f 146/146/146 147/147/147 188/188/188
f 146/146/146 188/188/188 187/187/187
f 147/147/147 148/148/148 189/189/189
f 147/147/147 189/189/189 188/188/188
f 148/148/148 149/149/149 190/190/190
f 148/148/148 190/190/190 189/189/189
f 149/149/149 150/150/150 191/191/191
f 149/149/149 191/191/191 190/190/190
f 150/150/150 151/151/151 192/192/192
f 150/150/150 192/192/192 191/191/191
f 151/151/151 152/152/152 193/193/193
f 151/151/151 193/193/193 192/192/192
f 152/152/152 153/153/153 194/194/194
f 152/152/152 194/194/194 193/193/193
f 153/153/153 154/154/154 195/195/195
f 153/153/153 195/195/195 194/194/194
f 154/154/154 155/155/155 196/196/196
f 154/154/154 196/196/196 195/195/195
f 155/155/155 156/156/156 197/197/197
f 155/155/155 197/197/197 196/196/196
f 156/156/156 157/157/157 198/198/198
f 156/156/156 198/198/198 197/197/197
f 157/157/157 158/158/158 199/199/199
f 157/157/157 199/199/199 198/198/198
f 158/158/158 159/159/159 200/200/200
f 158/158/158 200/200/200 199/199/199
f 159/159/159 160/160/160 201/201/201
f 159/159/159 201/201/201 200/200/200
f 160/160/160 161/161/161 202/202/202
f 160/160/160 202/202/202 201/201/201
f 161/161/161 162/162/162 203/203/203
f 161/161/161 203/203/203 202/202/202
f 162/162/162 163/163/163 204/204/204
f 162/162/162 204/204/204 203/203/203
f 163/163/163 164/164/164 205/205/205
f 163/163/163 205/205/205 204/204/204
f 206/206/206 248/248/248 207/207/207
f 206/206/206 247/247/247 248/248/248
f 207/207/207 249/249/249 208/208/208
f 207/207/207 248/248/248 249/249/249
f 208/208/208 250/250/250 209/209/209
f 208/208/208 249/249/249 250/250/250
f 209/209/209 251/251/251 210/210/210
f 209/209/209 250/250/250 251/251/251
f 210/210/210 252/252/252 211/211/211
f 210/210/210 251/251/251 252/252/252
f 211/211/211 253/253/253 212/212/212
f 211/211/211 252/252/252 253/253/253
f 212/212/212 254/254/254 213/213/213
f 212/212/212 253/253/253 254/254/254
f 213/213/213 255/255/255 214/214/214
f 213/213/213 254/254/254 255/255/255
f 214/214/214 256/256/256 215/215/215
f 214/214/214 255/255/255 256/256/256
f 215/215/215 257/257/257 216/216/216
f 215/215/215 256/256/256 257/257/257
f 216/216/216 258/258/258 217/217/217
f 216/216/216 257/257/257 258/258/258
f 217/217/217 259/259/259 218/218/218
f 217/217/217 258/258/258 259/259/259
f 218/218/218 260/260/260 219/219/219
f 218/218/218 259/259/259 260/260/260
f 219/219/219 261/261/261 220/220/220
f 219/219/219 260/260/260 261/261/261
f 220/220/220 262/262/262 221/221/221
f 220/220/220 261/261/261 262/262/262
f 221/221/221 263/263/263 222/222/222
f 221/221/221 262/262/262 263/263/263
f 222/222/222 264/264/264 223/223/223
f 222/222/222 263/263/263 264/264/264
f 223/223/223 265/265/265 224/224/224
f 223/223/223 264/264/264 265/265/265
f 224/224/224 266/266/266 225/225/225
f 224/224/224 265/265/265 266/266/266
f 225/225/225 267/267/267 226/226/226
f 225/225/225 266/266/266 267/267/267
f 226/226/226 268/268/268 227/227/227
f 226/226/226 267/267/267 268/268/268
f 227/227/227 269/269/269 228/228/228
f 227/227/227 268/268/268 269/269/269
f 228/228/228 270/270/270 229/229/229
f 228/228/228 269/269/269 270/270/270
f 229/229/229 271/271/271 230/230/230
f 229/229/229 270/270/270 271/271/271
f 230/230/230 272/272/272 231/231/231
f 230/230/230 271/271/271 272/272/272
f 231/231/231 273/273/273 232/232/232
f 231/231/231 272/272/272 273/273/273
f 232/232/232 274/274/274 233/233/233
f 232/232/232 273/273/273 274/274/274
f 233/233/233 275/275/275 234/234/234
f 233/233/233 274/274/274 275/275/275
f 234/234/234 276/276/276 235/235/235
f 234/234/234 275/275/275 276/276/276
f 235/235/235 277/277/277 236/236/236
f 235/235/235 276/276/276 277/277/277
f 236/236/236 278/278/278 237/237/237
f 236/236/236 277/277/277 278/278/278
f 237/237/237 279/279/279 238/238/238
f 237/237/237 278/278/278 279/279/279
f 238/238/238 280/280/280 239/239/239
f 238/238/238 279/279/279 280/280/280
f 239/239/239 281/281/281 240/240/240
f 239/239/239 280/280/280 281/281/281
f 240/240/240 282/282/282 241/241/241
f 240/240/240 281/281/281 282/282/282
f 241/241/241 283/283/283 242/242/242
f 241/241/241 282/282/282 283/283/283
f 242/242/242 284/284/284 243/243/243
f 242/242/242 283/283/283 284/284/284
f 243/243/243 285/285/285 244/244/244
f 243/243/243 284/284/284 285/285/285
f 244/244/244 286/286/286 245/245/245
f 244/244/244 285/285/285 286/286/286
f 245/245/245 287/287/287 246/246/246
f 245/245/245 286/286/286 287/287/287
f 247/247/247 289/289/289 248/248/248
f 247/247/247 288/288/288 289/289/289
f 248/248/248 290/290/290 249/249/249
f 248/248/248 289/289/289 290/290/290
f 249/249/249 291/291/291 250/250/250
f 249/249/249 290/290/290 291/291/291
f 250/250/250 292/292/292 251/251/251
f 250/250/250 291/291/291 292/292/292
f 251/251/251 293/293/293 252/252/252
f 251/251/251 292/292/292 293/293/293
f 252/252/252 294/294/294 253/253/253
f 252/252/252 293/293/293 294/294/294
f 253/253/253 295/295/295 254/254/254
f 253/253/253 294/294/294 295/295/295
f 254/254/254 296/296/296 255/255/255
f 254/254/254 295/295/295 296/296/296
f 255/255/255 297/297/297 256/256/256
f 255/255/255 296/296/296 297/297/297
f 256/256/256 298/298/298 257/257/257
f 256/256/256 297/297/297 298/298/298
f 257/257/257 299/299/299 258/258/258
f 257/257/257 298/298/298 299/299/299
f 258/258/258 300/300/300 259/259/259
f 258/258/258 299/299/299 300/300/300
f 259/259/259 301/301/301 260/260/260
f 259/259/259 300/300/300 301/301/301
f 260/260/260 302/302/302 261/261/261
f 260/260/260 301/301/301 302/302/302
f 261/261/261 303/303/303 262/262/262
f 261/261/261 302/302/302 303/303/303
f 262/262/262 304/304/304 263/263/263
f 262/262/262 303/303/303 304/304/304
f 263/263/263 305/305/305 264/264/264
f 263/263/263 304/304/304 305/305/305
f 264/264/264 306/306/306 265/265/265
f 264/264/264 305/305/305 306/306/306
f 265/265/265 307/307/307 266/266/266
f 265/265/265 306/306/306 307/307/307
f 266/266/266 308/308/308 267/267/267
f 266/266/266 307/307/307 308/308/308
f 267/267/267 309/309/309 268/268/268
f 267/267/267 308/308/308 309/309/309
f 268/268/268 310/310/310 269/269/269
f 268/268/268 309/309/309 310/310/310
f 269/269/269 311/311/311 270/270/270
f 269/269/269 310/310/310 311/311/311
f 270/270/270 312/312/312 271/271/271
f 270/270/270 311/311/311 312/312/312
f 271/271/271 313/313/313 272/272/272
f 271/271/271 312/312/312 313/313/313
f 272/272/272 314/314/314 273/273/273
f 272/272/272 313/313/313 314/314/314
f 273/273/273 315/315/315 274/274/274
f 273/273/273 314/314/314 315/315/315
f 274/274/274 316/316/316 275/275/275
f 274/274/274 315/315/315 316/316/316
f 275/275/275 317/317/317 276/276/276
f 275/275/275 316/316/316 317/317/317
f 276/276/276 318/318/318 277/277/277
f 276/276/276 317/317/317 318/318/318
f 277/277/277 319/319/319 278/278/278
f 277/277/277 318/318/318 319/319/319
f 278/278/278 320/320/320 279/279/279
f 278/278/278 319/319/319 320/320/320
f 279/279/279 321/321/321 280/280/280
f 279/279/279 320/320/320 321/321/321
f 280/280/280 322/322/322 281/281/281
f 280/280/280 321/321/321 322/322/322
f 281/281/281 323/323/323 282/282/282
f 281/281/281 322/322/322 323/323/323
f 282/282/282 324/324/324 283/283/283
f 282/282/282 323/323/323 324/324/324
f 283/283/283 325/325/325 284/284/284
f 283/283/283 324/324/324 325/325/325
f 284/284/284 326/326/326 285/285/285
f 284/284/284 325/325/325 326/326/326
f 285/285/285 327/327/327 286/286/286
f 285/285/285 326/326/326 327/327/327
f 286/286/286 328/328/328 287/287/287
f 286/286/286 327/327/327 328/328/328
f 288/288/288 330/330/330 289/289/289
f 288/288/288 329/329/329 330/330/330
f 289/289/289 331/331/331 290/290/290
f 289/289/289 330/330/330 331/331/331
f 290/290/290 332/332/332 291/291/291
f 290/290/290 331/331/331 332/332/332
f 291/291/291 333/333/333 292/292/292
f 291/291/291 332/332/332 333/333/333
f 292/292/292 334/334/334 293/293/293
f 292/292/292 333/333/333 334/334/334
f 293/293/293 335/335/335 294/294/294
f 293/293/293 334/334/334 335/335/335
f 294/294/294 336/336/336 295/295/295
f 294/294/294 335/335/335 336/336/336
f 295/295/295 337/337/337 296/296/296
f 295/295/295 336/336/336 337/337/337
f 296/296/296 338/338/338 297/297/297
f 296/296/296 337/337/337 338/338/338
f 297/297/297 339/339/339 298/298/298
f 297/297/297 338/338/338 339/339/339
f 298/298/298 340/340/340 299/299/299
f 298/298/298 339/339/339 340/340/340
f 299/299/299 341/341/341 300/300/300
f 299/299/299 340/340/340 341/341/341
f 300/300/300 342/342/342 301/301/301
f 300/300/300 341/341/341 342/342/342
f 301/301/301 343/343/343 302/302/302
f 301/301/301 342/342/342 343/343/343
f 302/302/302 344/344/344 303/303/303
f 302/302/302 343/343/343 344/344/344
f 303/303/303 345/345/345 304/304/304
f 303/303/303 344/344/344 345/345/345
f 304/304/304 346/346/346 305/305/305
f 304/304/304 345/345/345 346/346/346
f 305/305/305 347/347/347 306/306/306
f 305/305/305 346/346/346 347/347/347
f 306/306/306 348/348/348 307/307/307
f 306/306/306 347/347/347 348/348/348
f 307/307/307 349/349/349 308/308/308
f 307/307/307 348/348/348 349/349/349
f 308/308/308 350/350/350 309/309/309
f 308/308/308 349/349/349 350/350/350
f 309/309/309 351/351/351 310/310/310
f 309/309/309 350/350/350 351/351/351
f 310/310/310 352/352/352 311/311/311
f 310/310/310 351/351/351 352/352/352
f 311/311/311 353/353/353 312/312/312
f 311/311/311 352/352/352 353/353/353
f 312/312/312 354/354/354 313/313/313
f 312/312/312 353/353/353 354/354/354
f 313/313/313 355/355/355 314/314/314
f 313/313/313 354/354/354 355/355/355
f 314/314/314 356/356/356 315/315/315
f 314/314/314 355/355/355 356/356/356
f 315/315/315 357/357/357 316/316/316
f 315/315/315 356/356/356 357/357/357
f 316/316/316 358/358/358 317/317/317
f 316/316/316 357/357/357 358/358/358
f 317/317/317 359/359/359 318/318/318
f 317/317/317 358/358/358 359/359/359
f 318/318/318 360/360/360 319/319/319
f 318/318/318 359/359/359 360/360/360
f 319/319/319 361/361/361 320/320/320
f 319/319/319 360/360/360 361/361/361
f 320/320/320 362/362/362 321/321/321
f 320/320/320 361/361/361 362/362/362
f 321/321/321 363/363/363 322/322/322
f 321/321/321 362/362/362 363/363/363
f 322/322/322 364/364/364 323/323/323
f 322/322/322 363/363/363 364/364/364
f 323/323/323 365/365/365 324/324/324
f 323/323/323 364/364/364 365/365/365
f 324/324/324 366/366/366 325/325/325
f 324/324/324 365/365/365 366/366/366
f 325/325/325 367/367/367 326/326/326
f 325/325/325 366/366/366 367/367/367
f 326/326/326 368/368/368 327/327/327
f 326/326/326 367/367/367 368/368/368
f 327/327/327 369/369/369 328/328/328
f 327/327/327 368/368/368 369/369/369
f 329/329/329 371/371/371 330/330/330
f 329/329/329 370/370/370 371/371/371
f 330/330/330 372/372/372 331/331/331
f 330/330/330 371/371/371 372/372/372
f 331/331/331 373/373/373 332/332/332
f 331/331/331 372/372/372 373/373/373
f 332/332/332 374/374/374 333/333/333
f 332/332/332 373/373/373 374/374/374
f 333/333/333 375/375/375 334/334/334
f 333/333/333 374/374/374 375/375/375
f 334/334/334 376/376/376 335/335/335
f 334/334/334 375/375/375 376/376/376
f 335/335/335 377/377/377 336/336/336
f 335/335/335 376/376/376 377/377/377
f 336/336/336 378/378/378 337/337/337
f 336/336/336 377/377/377 378/378/378
f 337/337/337 379/379/379 338/338/338
f 337/337/337 378/378/378 379/379/379
f 338/338/338 380/380/380 339/339/339
f 338/338/338 379/379/379 380/380/380
f 339/339/339 381/381/381 340/340/340
f 339/339/339 380/380/380 381/381/381
f 340/340/340 382/382/382 341/341/341
f 340/340/340 381/381/381 382/382/382
f 341/341/341 383/383/383 342/342/342
f 341/341/341 382/382/382 383/383/383
f 342/342/342 384/384/384 343/343/343
f 342/342/342 383/383/383 384/384/384
f 343/343/343 385/385/385 344/344/344
f 343/343/343 384/384/384 385/385/385
f 344/344/344 386/386/386 345/345/345
f 344/344/344 385/385/385 386/386/386
f 345/345/345 387/387/387 346/346/346
f 345/345/345 386/386/386 387/387/387
f 346/346/346 388/388/388 347/347/347
f 346/346/346 387/387/387 388/388/388
f 347/347/347 389/389/389 348/348/348
f 347/347/347 388/388/388 389/389/389
f 348/348/348 390/390/390 349/349/349
f 348/348/348 389/389/389 390/390/390
f 349/349/349 391/391/391 350/350/350
f 349/349/349 390/390/390 391/391/391
f 350/350/350 392/392/392 351/351/351
f 350/350/350 391/391/391 392/392/392
f 351/351/351 393/393/393 352/352/352
f 351/351/351 392/392/392 393/393/393
f 352/352/352 394/394/394 353/353/353
f 352/352/352 393/393/393 394/394/394
f 353/353/353 395/395/395 354/354/354
f 353/353/353 394/394/394 395/395/395
f 354/354/354 396/396/396 355/355/355
f 354/354/354 395/395/395 396/396/396
f 355/355/355 397/397/397 356/356/356
f 355/355/355 396/396/396 397/397/397
f 356/356/356 398/398/398 357/357/357
f 356/356/356 397/397/397 398/398/398
f 357/357/357 399/399/399 358/358/358
f 357/357/357 398/398/398 399/399/399
f 358/358/358 400/400/400 359/359/359
f 358/358/358 399/399/399 400/400/400
f 359/359/359 401/401/401 360/360/360
f 359/359/359 400/400/400 401/401/401
f 360/360/360 402/402/402 361/361/361
f 360/360/360 401/401/401 402/402/402
f 361/361/361 403/403/403 362/362/362
f 361/361/361 402/402/402 403/403/403
f 362/362/362 404/404/404 363/363/363
f 362/362/362 403/403/403 404/404/404
f 363/363/363 405/405/405 364/364/364
f 363/363/363 404/404/404 405/405/405
f 364/364/364 406/406/406 365/365/365
f 364/364/364 405/405/405 406/406/406
f 365/365/365 407/407/407 366/366/366
f 365/365/365 406/406/406 407/407/407
f 366/366/366 408/408/408 367/367/367
f 366/366/366 407/407/407 408/408/408
f 367/367/367 409/409/409 368/368/368
f 367/367/367 408/408/408 409/409/409
f 368/368/368 410/410/410 369/369/369
f 368/368/368 409/409/409 410/410/410
f 411/411/411 412/412/412 415/415/415
f 411/411/411 415/415/415 414/414/414
f 412/412/412 413/413/413 416/416/416
f 412/412/412 416/416/416 415/415/415
f 414/414/414 415/415/415 418/418/418
f 414/414/414 418/418/418 417/417/417
f 415/415/415 416/416/416 419/419/419
f 415/415/415 419/419/419 418/418/418
f 417/417/417 418/418/418 421/421/421
f 417/417/417 421/421/421 420/420/420
f 418/418/418 419/419/419 422/422/422
f 418/418/418 422/422/422 421/421/421
f 420/420/420 421/421/421 424/424/424
f 420/420/420 424/424/424 423/423/423
f 421/421/421 422/422/422 425/425/425
f 421/421/421 425/425/425 424/424/424
f 423/423/423 424/424/424 427/427/427
f 423/423/423 427/427/427 426/426/426
f 424/424/424 425/425/425 428/428/428
f 424/424/424 428/428/428 427/427/427
f 426/426/426 427/427/427 430/430/430
f 426/426/426 430/430/430 429/429/429
f 427/427/427 428/428/428 431/431/431
f 427/427/427 431/431/431 430/430/430
f 429/429/429 430/430/430 433/433/433
f 429/429/429 433/433/433 432/432/432
f 430/430/430 431/431/431 434/434/434
f 430/430/430 434/434/434 433/433/433
f 432/432/432 433/433/433 436/436/436
f 432/432/432 436/436/436 435/435/435
f 433/433/433 434/434/434 437/437/437
f 433/433/433 437/437/437 436/436/436
f 435/435/435 436/436/436 439/439/439
f 435/435/435 439/439/439 438/438/438
f 436/436/436 437/437/437 440/440/440
f 436/436/436 440/440/440 439/439/439
f 438/438/438 439/439/439 442/442/442
f 438/438/438 442/442/442 441/441/441
f 439/439/439 440/440/440 443/443/443
f 439/439/439 443/443/443 442/442/442
f 444/444/444 448/448/448 445/445/445
f 444/444/444 447/447/447 448/448/448
f 445/445/445 449/449/449 446/446/446
f 445/445/445 448/448/448 449/449/449
f 447/447/447 451/451/451 448/448/448
f 447/447/447 450/450/450 451/451/451
f 448/448/448 452/452/452 449/449/449
f 448/448/448 451/451/451 452/452/452
f 450/450/450 454/454/454 451/451/451
f 450/450/450 453/453/453 454/454/454
f 451/451/451 455/455/455 452/452/452
f 451/451/451 454/454/454 455/455/455
f 453/453/453 457/457/457 454/454/454
f 453/453/453 456/456/456 457/457/457
f 454/454/454 458/458/458 455/455/455
f 454/454/454 457/457/457 458/458/458
f 456/456/456 460/460/460 457/457/457
f 456/456/456 459/459/459 460/460/460
f 457/457/457 461/461/461 458/458/458
f 457/457/457 460/460/460 461/461/461
f 459/459/459 463/463/463 460/460/460
f 459/459/459 462/462/462 463/463/463
f 460/460/460 464/464/464 461/461/461
f 460/460/460 463/463/463 464/464/464
f 462/462/462 466/466/466 463/463/463
f 462/462/462 465/465/465 466/466/466
f 463/463/463 467/467/467 464/464/464
f 463/463/463 466/466/466 467/467/467
f 465/465/465 469/469/469 466/466/466
f 465/465/465 468/468/468 469/469/469
f 466/466/466 470/470/470 467/467/467
f 466/466/466 469/469/469 470/470/470
f 468/468/468 472/472/472 469/469/469
f 468/468/468 471/471/471 472/472/472
f 469/469/469 473/473/473 470/470/470
f 469/469/469 472/472/472 473/473/473
f 471/471/471 475/475/475 472/472/472
f 471/471/471 474/474/474 475/475/475
f 472/472/472 476/476/476 473/473/473
f 472/472/472 475/475/475 476/476/476
usemtl string
f 477/477/477 478/478/478 483/483/483
f 477/477/477 483/483/483 482/482/482
f 478/478/478 479/479/479 484/484/484
f 478/478/478 484/484/484 483/483/483
f 479/479/479 480/480/480 485/485/485
f 479/479/479 485/485/485 484/484/484
f 480/480/480 481/481/481 486/486/486
f 480/480/480 486/486/486 485/485/485
f 482/482/482 483/483/483 488/488/488
f 482/482/482 488/488/488 487/487/487
f 483/483/483 484/484/484 489/489/489
f 483/483/483 489/489/489 488/488/488
f 484/484/484 485/485/485 490/490/490
f 484/484/484 490/490/490 489/489/489
f 485/485/485 486/486/486 491/491/491
f 485/485/485 491/491/491 490/490/490
f 487/487/487 488/488/488 493/493/493
f 487/487/487 493/493/493 492/492/492
f 488/488/488 489/489/489 494/494/494
f 488/488/488 494/494/494 493/493/493
f 489/489/489 490/490/490 495/495/495
f 489/489/489 495/495/495 494/494/494
f 490/490/490 491/491/491 496/496/496
f 490/490/490 496/496/496 495/495/495
f 492/492/492 493/493/493 498/498/498
f 492/492/492 498/498/498 497/497/497
f 493/493/493 494/494/494 499/499/499
f 493/493/493 499/499/499 498/498/498
f 494/494/494 495/495/495 500/500/500
f 494/494/494 500/500/500 499/499/499
f 495/495/495 496/496/496 501/501/501
f 495/495/495 501/501/501 500/500/500
f 497/497/497 498/498/498 503/503/503
f 497/497/497 503/503/503 502/502/502
f 498/498/498 499/499/499 504/504/504
f 498/498/498 504/504/504 503/503/503
f 499/499/499 500/500/500 505/505/505
f 499/499/499 505/505/505 504/504/504
f 500/500/500 501/501/501 506/506/506
f 500/500/500 506/506/506 505/505/505
f 502/502/502 503/503/503 508/508/508
f 502/502/502 508/508/508 507/507/507
f 503/503/503 504/504/504 509/509/509
f 503/503/503 509/509/509 508/508/508
f 504/504/504 505/505/505 510/510/510
f 504/504/504 510/510/510 509/509/509
f 505/505/505 506/506/506 511/511/511
f 505/505/505 511/511/511 510/510/510
f 507/507/507 508/508/508 513/513/513
f 507/507/507 513/513/513 512/512/512
f 508/508/508 509/509/509 514/514/514
f 508/508/508 514/514/514 513/513/513
f 509/509/509 510/510/510 515/515/515
f 509/509/509 515/515/515 514/514/514
f 510/510/510 511/511/511 516/516/516
f 510/510/510 516/516/516 515/515/515
f 512/512/512 513/513/513 518/518/518
f 512/512/512 518/518/518 517/517/517
f 513/513/513 514/514/514 519/519/519
f 513/513/513 519/519/519 518/518/518
f 514/514/514 515/515/515 520/520/520
f 514/514/514 520/520/520 519/519/519
f 515/515/515 516/516/516 521/521/521
f 515/515/515 521/521/521 520/520/520
f 517/517/517 518/518/518 523/523/523
f 517/517/517 523/523/523 522/522/522
f 518/518/518 519/519/519 524/524/524
f 518/518/518 524/524/524 523/523/523
f 519/519/519 520/520/520 525/525/525
f 519/519/519 525/525/525 524/524/524
f 520/520/520 521/521/521 526/526/526
f 520/520/520 526/526/526 525/525/525
f 522/522/522 523/523/523 528/528/528
f 522/522/522 528/528/528 527/527/527
f 523/523/523 524/524/524 529/529/529
f 523/523/523 529/529/529 528/528/528
f 524/524/524 525/525/525 530/530/530
f 524/524/524 530/530/530 529/529/529
f 525/525/525 526/526/526 531/531/531
f 525/525/525 531/531/531 530/530/530
f 527/527/527 528/528/528 533/533/533
f 527/527/527 533/533/533 532/532/532
f 528/528/528 529/529/529 534/534/534
f 528/528/528 534/534/534 533/533/533
f 529/529/529 530/530/530 535/535/535
f 529/529/529 535/535/535 534/534/534
f 530/530/530 531/531/531 536/536/536
f 530/530/530 536/536/536 535/535/535
f 532/532/532 533/533/533 538/538/538
f 532/532/532 538/538/538 537/537/537
f 533/533/533 534/534/534 539/539/539
f 533/533/533 539/539/539 538/538/538
f 534/534/534 535/535/535 540/540/540
f 534/534/534 540/540/540 539/539/539
f 535/535/535 536/536/536 541/541/541
f 535/535/535 541/541/541 540/540/540
f 537/537/537 538/538/538 543/543/543
f 537/537/537 543/543/543 542/542/542
f 538/538/538 539/539/539 544/544/544
f 538/538/538 544/544/544 543/543/543
f 539/539/539 540/540/540 545/545/545
f 539/539/539 545/545/545 544/544/544
f 540/540/540 541/541/541 546/546/546
f 540/540/540 546/546/546 545/545/545
f 542/542/542 543/543/543 548/548/548
f 542/542/542 548/548/548 547/547/547
f 543/543/543 544/544/544 549/549/549
f 543/543/543 549/549/549 548/548/548
f 544/544/544 545/545/545 550/550/550
f 544/544/544 550/550/550 549/549/549
f 545/545/545 546/546/546 551/551/551
f 545/545/545 551/551/551 550/550/550
f 547/547/547 548/548/548 553/553/553
f 547/547/547 553/553/553 552/552/552
f 548/548/548 549/549/549 554/554/554
f 548/548/548 554/554/554 553/553/553
f 549/549/549 550/550/550 555/555/555
f 549/549/549 555/555/555 554/554/554
f 550/550/550 551/551/551 556/556/556
f 550/550/550 556/556/556 555/555/555
f 552/552/552 553/553/553 558/558/558
f 552/552/552 558/558/558 557/557/557
f 553/553/553 554/554/554 559/559/559
f 553/553/553 559/559/559 558/558/558
f 554/554/554 555/555/555 560/560/560
f 554/554/554 560/560/560 559/559/559
f 555/555/555 556/556/556 561/561/561
f 555/555/555 561/561/561 560/560/560
f 557/557/557 558/558/558 563/563/563
f 557/557/557 563/563/563 562/562/562
f 558/558/558 559/559/559 564/564/564
f 558/558/558 564/564/564 563/563/563
f 559/559/559 560/560/560 565/565/565
f 559/559/559 565/565/565 564/564/564
f 560/560/560 561/561/561 566/566/566
f 560/560/560 566/566/566 565/565/565
f 562/562/562 563/563/563 568/568/568
f 562/562/562 568/568/568 567/567/567
f 563/563/563 564/564/564 569/569/569
f 563/563/563 569/569/569 568/568/568
f 564/564/564 565/565/565 570/570/570
f 564/564/564 570/570/570 569/569/569
f 565/565/565 566/566/566 571/571/571
f 565/565/565 571/571/571 570/570/570
f 567/567/567 568/568/568 573/573/573
f 567/567/567 573/573/573 572/572/572
f 568/568/568 569/569/569 574/574/574
f 568/568/568 574/574/574 573/573/573
f 569/569/569 570/570/570 575/575/575
f 569/569/569 575/575/575 574/574/574
f 570/570/570 571/571/571 576/576/576
f 570/570/570 576/576/576 575/575/575
f 572/572/572 573/573/573 578/578/578
f 572/572/572 578/578/578 577/577/577
f 573/573/573 574/574/574 579/579/579
f 573/573/573 579/579/579 578/578/578
f 574/574/574 575/575/575 580/580/580
f 574/574/574 580/580/580 579/579/579
f 575/575/575 576/576/576 581/581/581
f 575/575/575 581/581/581 580/580/580
f 577/577/577 578/578/578 583/583/583
f 577/577/577 583/583/583 582/582/582
f 578/578/578 579/579/579 584/584/584
f 578/578/578 584/584/584 583/583/583
f 579/579/579 580/580/580 585/585/585
f 579/579/579 585/585/585 584/584/584
f 580/580/580 581/581/581 586/586/586
f 580/580/580 586/586/586 585/585/585
f 582/582/582 583/583/583 588/588/588
f 582/582/582 588/588/588 587/587/587
f 583/583/583 584/584/584 589/589/589
f 583/583/583 589/589/589 588/588/588
f 584/584/584 585/585/585 590/590/590
f 584/584/584 590/590/590 589/589/589
f 585/585/585 586/586/586 591/591/591
f 585/585/585 591/591/591 590/590/590
f 587/587/587 588/588/588 593/593/593
f 587/587/587 593/593/593 592/592/592
f 588/588/588 589/589/589 594/594/594
f 588/588/588 594/594/594 593/593/593
f 589/589/589 590/590/590 595/595/595
f 589/589/589 595/595/595 594/594/594
f 590/590/590 591/591/591 596/596/596
f 590/590/590 596/596/596 595/595/595
f 592/592/592 593/593/593 598/598/598
f 592/592/592 598/598/598 597/597/597
f 593/593/593 594/594/594 599/599/599
f 593/593/593 599/599/599 598/598/598
f 594/594/594 595/595/595 600/600/600
f 594/594/594 600/600/600 599/599/599
f 595/595/595 596/596/596 601/601/601
f 595/595/595 601/601/601 600/600/600
f 597/597/597 598/598/598 603/603/603
f 597/597/597 603/603/603 602/602/602
f 598/598/598 599/599/599 604/604/604
f 598/598/598 604/604/604 603/603/603
f 599/599/599 600/600/600 605/605/605
f 599/599/599 605/605/605 604/604/604
f 600/600/600 601/601/601 606/606/606
f 600/600/600 606/606/606 605/605/605
f 602/602/602 603/603/603 608/608/608
f 602/602/602 608/608/608 607/607/607
f 603/603/603 604/604/604 609/609/609
f 603/603/603 609/609/609 608/608/608
f 604/604/604 605/605/605 610/610/610
f 604/604/604 610/610/610 609/609/609
f 605/605/605 606/606/606 611/611/611
f 605/605/605 611/611/611 610/610/610
f 607/607/607 608/608/608 613/613/613
f 607/607/607 613/613/613 612/612/612
f 608/608/608 609/609/609 614/614/614
f 608/608/608 614/614/614 613/613/613
f 609/609/609 610/610/610 615/615/615
f 609/609/609 615/615/615 614/614/614
f 610/610/610 611/611/611 616/616/616
f 610/610/610 616/616/616 615/615/615
f 612/612/612 613/613/613 618/618/618
f 612/612/612 618/618/618 617/617/617
f 613/613/613 614/614/614 619/619/619
f 613/613/613 619/619/619 618/618/618
f 614/614/614 615/615/615 620/620/620
f 614/614/614 620/620/620 619/619/619
f 615/615/615 616/616/616 621/621/621
f 615/615/615 621/621/621 620/620/620
