# Sinh tự động bởi tools/mesh_kit.py - đừng sửa tay
o pz_tin_lid
v 0.1117 0.0013 0.1417
v 0.1121 0.0009 0.1400
v 0.1121 0.0009 0.0000
v 0.1117 0.0013 -0.0017
v 0.1121 0.0030 0.1421
v 0.1130 0.0030 0.1400
v 0.1130 0.0030 0.0000
v 0.1121 0.0030 -0.0021
v 0.1121 0.0050 0.1421
v 0.1130 0.0050 0.1400
v 0.1130 0.0050 0.0000
v 0.1121 0.0050 -0.0021
v 0.1117 0.0067 0.1417
v 0.1121 0.0071 0.1400
v 0.1121 0.0071 0.0000
v 0.1117 0.0067 -0.0017
v -0.1117 0.0013 -0.0017
v -0.1121 0.0009 0.0000
v -0.1121 0.0009 0.1400
v -0.1117 0.0013 0.1417
v -0.1121 0.0030 -0.0021
v -0.1130 0.0030 0.0000
v -0.1130 0.0030 0.1400
v -0.1121 0.0030 0.1421
v -0.1121 0.0050 -0.0021
v -0.1130 0.0050 0.0000
v -0.1130 0.0050 0.1400
v -0.1121 0.0050 0.1421
v -0.1117 0.0067 -0.0017
v -0.1121 0.0071 0.0000
v -0.1121 0.0071 0.1400
v -0.1117 0.0067 0.1417
v -0.1117 0.0067 0.1417
v -0.1100 0.0071 0.1421
v 0.1100 0.0071 0.1421
v 0.1117 0.0067 0.1417
v -0.1121 0.0071 0.1400
v -0.1100 0.0080 0.1400
v 0.1100 0.0080 0.1400
v 0.1121 0.0071 0.1400
v -0.1121 0.0071 0.0000
v -0.1100 0.0080 0.0000
v 0.1100 0.0080 0.0000
v 0.1121 0.0071 0.0000
v -0.1117 0.0067 -0.0017
v -0.1100 0.0071 -0.0021
v 0.1100 0.0071 -0.0021
v 0.1117 0.0067 -0.0017
v -0.1117 0.0013 -0.0017
v -0.1100 0.0009 -0.0021
v 0.1100 0.0009 -0.0021
v 0.1117 0.0013 -0.0017
v -0.1121 0.0009 0.0000
v -0.1100 0.0000 0.0000
v 0.1100 0.0000 0.0000
v 0.1121 0.0009 0.0000
v -0.1121 0.0009 0.1400
v -0.1100 0.0000 0.1400
v 0.1100 0.0000 0.1400
v 0.1121 0.0009 0.1400
v -0.1117 0.0013 0.1417
v -0.1100 0.0009 0.1421
v 0.1100 0.0009 0.1421
v 0.1117 0.0013 0.1417
v -0.1117 0.0013 0.1417
v -0.1100 0.0009 0.1421
v 0.1100 0.0009 0.1421
v 0.1117 0.0013 0.1417
v -0.1121 0.0030 0.1421
v -0.1100 0.0030 0.1430
v 0.1100 0.0030 0.1430
v 0.1121 0.0030 0.1421
v -0.1121 0.0050 0.1421
v -0.1100 0.0050 0.1430
v 0.1100 0.0050 0.1430
v 0.1121 0.0050 0.1421
v -0.1117 0.0067 0.1417
v -0.1100 0.0071 0.1421
v 0.1100 0.0071 0.1421
v 0.1117 0.0067 0.1417
v 0.1117 0.0013 -0.0017
v 0.1100 0.0009 -0.0021
v -0.1100 0.0009 -0.0021
v -0.1117 0.0013 -0.0017
v 0.1121 0.0030 -0.0021
v 0.1100 0.0030 -0.0030
v -0.1100 0.0030 -0.0030
v -0.1121 0.0030 -0.0021
v 0.1121 0.0050 -0.0021
v 0.1100 0.0050 -0.0030
v -0.1100 0.0050 -0.0030
v -0.1121 0.0050 -0.0021
v 0.1117 0.0067 -0.0017
v 0.1100 0.0071 -0.0021
v -0.1100 0.0071 -0.0021
v -0.1117 0.0067 -0.0017
v 0.0942 0.0078 0.1242
v 0.0943 0.0077 0.1239
v 0.0944 0.0076 0.1231
v 0.0944 0.0076 0.0169
v 0.0943 0.0077 0.0161
v 0.0942 0.0078 0.0158
v 0.0943 0.0081 0.1243
v 0.0944 0.0079 0.1241
v 0.0947 0.0078 0.1231
v 0.0947 0.0078 0.0169
v 0.0944 0.0079 0.0159
v 0.0943 0.0081 0.0157
v 0.0944 0.0089 0.1244
v 0.0947 0.0089 0.1242
v 0.0950 0.0089 0.1231
v 0.0950 0.0089 0.0169
v 0.0947 0.0089 0.0158
v 0.0944 0.0089 0.0156
v 0.0944 0.0091 0.1244
v 0.0947 0.0091 0.1242
v 0.0950 0.0091 0.1231
v 0.0950 0.0091 0.0169
v 0.0947 0.0091 0.0158
v 0.0944 0.0091 0.0156
v 0.0943 0.0099 0.1243
v 0.0944 0.0100 0.1241
v 0.0947 0.0102 0.1231
v 0.0947 0.0102 0.0169
v 0.0944 0.0100 0.0159
v 0.0943 0.0099 0.0157
v 0.0942 0.0102 0.1242
v 0.0943 0.0103 0.1239
v 0.0944 0.0104 0.1231
v 0.0944 0.0104 0.0169
v 0.0943 0.0103 0.0161
v 0.0942 0.0102 0.0158
v -0.0942 0.0078 0.0158
v -0.0943 0.0077 0.0161
v -0.0944 0.0076 0.0169
v -0.0944 0.0076 0.1231
v -0.0943 0.0077 0.1239
v -0.0942 0.0078 0.1242
v -0.0943 0.0081 0.0157
v -0.0944 0.0079 0.0159
v -0.0947 0.0078 0.0169
v -0.0947 0.0078 0.1231
v -0.0944 0.0079 0.1241
v -0.0943 0.0081 0.1243
v -0.0944 0.0089 0.0156
v -0.0947 0.0089 0.0158
v -0.0950 0.0089 0.0169
v -0.0950 0.0089 0.1231
v -0.0947 0.0089 0.1242
v -0.0944 0.0089 0.1244
v -0.0944 0.0091 0.0156
v -0.0947 0.0091 0.0158
v -0.0950 0.0091 0.0169
v -0.0950 0.0091 0.1231
v -0.0947 0.0091 0.1242
v -0.0944 0.0091 0.1244
v -0.0943 0.0099 0.0157
v -0.0944 0.0100 0.0159
v -0.0947 0.0102 0.0169
v -0.0947 0.0102 0.1231
v -0.0944 0.0100 0.1241
v -0.0943 0.0099 0.1243
v -0.0942 0.0102 0.0158
v -0.0943 0.0103 0.0161
v -0.0944 0.0104 0.0169
v -0.0944 0.0104 0.1231
v -0.0943 0.0103 0.1239
v -0.0942 0.0102 0.1242
v -0.0942 0.0102 0.1242
v -0.0939 0.0103 0.1243
v -0.0931 0.0104 0.1244
v 0.0931 0.0104 0.1244
v 0.0939 0.0103 0.1243
v 0.0942 0.0102 0.1242
v -0.0943 0.0103 0.1239
v -0.0941 0.0104 0.1241
v -0.0931 0.0107 0.1242
v 0.0931 0.0107 0.1242
v 0.0941 0.0104 0.1241
v 0.0943 0.0103 0.1239
v -0.0944 0.0104 0.1231
v -0.0942 0.0107 0.1231
v -0.0931 0.0110 0.1231
v 0.0931 0.0110 0.1231
v 0.0942 0.0107 0.1231
v 0.0944 0.0104 0.1231
v -0.0944 0.0104 0.0169
v -0.0942 0.0107 0.0169
v -0.0931 0.0110 0.0169
v 0.0931 0.0110 0.0169
v 0.0942 0.0107 0.0169
v 0.0944 0.0104 0.0169
v -0.0943 0.0103 0.0161
v -0.0941 0.0104 0.0159
v -0.0931 0.0107 0.0158
v 0.0931 0.0107 0.0158
v 0.0941 0.0104 0.0159
v 0.0943 0.0103 0.0161
v -0.0942 0.0102 0.0158
v -0.0939 0.0103 0.0157
v -0.0931 0.0104 0.0156
v 0.0931 0.0104 0.0156
v 0.0939 0.0103 0.0157
v 0.0942 0.0102 0.0158
v -0.0942 0.0078 0.0158
v -0.0939 0.0077 0.0157
v -0.0931 0.0076 0.0156
v 0.0931 0.0076 0.0156
v 0.0939 0.0077 0.0157
v 0.0942 0.0078 0.0158
v -0.0943 0.0077 0.0161
v -0.0941 0.0076 0.0159
v -0.0931 0.0073 0.0158
v 0.0931 0.0073 0.0158
v 0.0941 0.0076 0.0159
v 0.0943 0.0077 0.0161
v -0.0944 0.0076 0.0169
v -0.0942 0.0073 0.0169
v -0.0931 0.0070 0.0169
v 0.0931 0.0070 0.0169
v 0.0942 0.0073 0.0169
v 0.0944 0.0076 0.0169
v -0.0944 0.0076 0.1231
v -0.0942 0.0073 0.1231
v -0.0931 0.0070 0.1231
v 0.0931 0.0070 0.1231
v 0.0942 0.0073 0.1231
v 0.0944 0.0076 0.1231
v -0.0943 0.0077 0.1239
v -0.0941 0.0076 0.1241
v -0.0931 0.0073 0.1242
v 0.0931 0.0073 0.1242
v 0.0941 0.0076 0.1241
v 0.0943 0.0077 0.1239
v -0.0942 0.0078 0.1242
v -0.0939 0.0077 0.1243
v -0.0931 0.0076 0.1244
v 0.0931 0.0076 0.1244
v 0.0939 0.0077 0.1243
v 0.0942 0.0078 0.1242
v -0.0942 0.0078 0.1242
v -0.0939 0.0077 0.1243
v -0.0931 0.0076 0.1244
v 0.0931 0.0076 0.1244
v 0.0939 0.0077 0.1243
v 0.0942 0.0078 0.1242
v -0.0943 0.0081 0.1243
v -0.0941 0.0079 0.1244
v -0.0931 0.0078 0.1247
v 0.0931 0.0078 0.1247
v 0.0941 0.0079 0.1244
v 0.0943 0.0081 0.1243
v -0.0944 0.0089 0.1244
v -0.0942 0.0089 0.1247
v -0.0931 0.0089 0.1250
v 0.0931 0.0089 0.1250
v 0.0942 0.0089 0.1247
v 0.0944 0.0089 0.1244
v -0.0944 0.0091 0.1244
v -0.0942 0.0091 0.1247
v -0.0931 0.0091 0.1250
v 0.0931 0.0091 0.1250
v 0.0942 0.0091 0.1247
v 0.0944 0.0091 0.1244
v -0.0943 0.0099 0.1243
v -0.0941 0.0100 0.1244
v -0.0931 0.0102 0.1247
v 0.0931 0.0102 0.1247
v 0.0941 0.0100 0.1244
v 0.0943 0.0099 0.1243
v -0.0942 0.0102 0.1242
v -0.0939 0.0103 0.1243
v -0.0931 0.0104 0.1244
v 0.0931 0.0104 0.1244
v 0.0939 0.0103 0.1243
v 0.0942 0.0102 0.1242
v 0.0942 0.0078 0.0158
v 0.0939 0.0077 0.0157
v 0.0931 0.0076 0.0156
v -0.0931 0.0076 0.0156
v -0.0939 0.0077 0.0157
v -0.0942 0.0078 0.0158
v 0.0943 0.0081 0.0157
v 0.0941 0.0079 0.0156
v 0.0931 0.0078 0.0153
v -0.0931 0.0078 0.0153
v -0.0941 0.0079 0.0156
v -0.0943 0.0081 0.0157
v 0.0944 0.0089 0.0156
v 0.0942 0.0089 0.0153
v 0.0931 0.0089 0.0150
v -0.0931 0.0089 0.0150
v -0.0942 0.0089 0.0153
v -0.0944 0.0089 0.0156
v 0.0944 0.0091 0.0156
v 0.0942 0.0091 0.0153
v 0.0931 0.0091 0.0150
v -0.0931 0.0091 0.0150
v -0.0942 0.0091 0.0153
v -0.0944 0.0091 0.0156
v 0.0943 0.0099 0.0157
v 0.0941 0.0100 0.0156
v 0.0931 0.0102 0.0153
v -0.0931 0.0102 0.0153
v -0.0941 0.0100 0.0156
v -0.0943 0.0099 0.0157
v 0.0942 0.0102 0.0158
v 0.0939 0.0103 0.0157
v 0.0931 0.0104 0.0156
v -0.0931 0.0104 0.0156
v -0.0939 0.0103 0.0157
v -0.0942 0.0102 0.0158
v -0.1110 -0.0110 0.1430
v -0.1110 -0.0110 -0.0030
v -0.1110 0.0030 -0.0030
v -0.1110 0.0030 0.1430
v -0.1150 -0.0110 -0.0030
v -0.1150 -0.0110 0.1430
v -0.1150 0.0030 0.1430
v -0.1150 0.0030 -0.0030
v -0.1150 0.0030 0.1430
v -0.1110 0.0030 0.1430
v -0.1110 0.0030 -0.0030
v -0.1150 0.0030 -0.0030
v -0.1150 -0.0110 -0.0030
v -0.1110 -0.0110 -0.0030
v -0.1110 -0.0110 0.1430
v -0.1150 -0.0110 0.1430
v -0.1150 -0.0110 0.1430
v -0.1110 -0.0110 0.1430
v -0.1110 0.0030 0.1430
v -0.1150 0.0030 0.1430
v -0.1110 -0.0110 -0.0030
v -0.1150 -0.0110 -0.0030
v -0.1150 0.0030 -0.0030
v -0.1110 0.0030 -0.0030
v 0.1150 -0.0110 0.1430
v 0.1150 -0.0110 -0.0030
v 0.1150 0.0030 -0.0030
v 0.1150 0.0030 0.1430
v 0.1110 -0.0110 -0.0030
v 0.1110 -0.0110 0.1430
v 0.1110 0.0030 0.1430
v 0.1110 0.0030 -0.0030
v 0.1110 0.0030 0.1430
v 0.1150 0.0030 0.1430
v 0.1150 0.0030 -0.0030
v 0.1110 0.0030 -0.0030
v 0.1110 -0.0110 -0.0030
v 0.1150 -0.0110 -0.0030
v 0.1150 -0.0110 0.1430
v 0.1110 -0.0110 0.1430
v 0.1110 -0.0110 0.1430
v 0.1150 -0.0110 0.1430
v 0.1150 0.0030 0.1430
v 0.1110 0.0030 0.1430
v 0.1150 -0.0110 -0.0030
v 0.1110 -0.0110 -0.0030
v 0.1110 0.0030 -0.0030
v 0.1150 0.0030 -0.0030
v 0.1130 -0.0110 0.1450
v 0.1130 -0.0110 0.1410
v 0.1130 0.0030 0.1410
v 0.1130 0.0030 0.1450
v -0.1130 -0.0110 0.1410
v -0.1130 -0.0110 0.1450
v -0.1130 0.0030 0.1450
v -0.1130 0.0030 0.1410
v -0.1130 0.0030 0.1450
v 0.1130 0.0030 0.1450
v 0.1130 0.0030 0.1410
v -0.1130 0.0030 0.1410
v -0.1130 -0.0110 0.1410
v 0.1130 -0.0110 0.1410
v 0.1130 -0.0110 0.1450
v -0.1130 -0.0110 0.1450
v -0.1130 -0.0110 0.1450
v 0.1130 -0.0110 0.1450
v 0.1130 0.0030 0.1450
v -0.1130 0.0030 0.1450
v 0.1130 -0.0110 0.1410
v -0.1130 -0.0110 0.1410
v -0.1130 0.0030 0.1410
v 0.1130 0.0030 0.1410
vt 0.0000 0.0000
vt 0.0030 0.0000
vt 0.1430 0.0000
vt 0.1460 0.0000
vt 0.0000 0.0030
vt 0.0030 0.0030
vt 0.1430 0.0030
vt 0.1460 0.0030
vt 0.0000 0.0050
vt 0.0030 0.0050
vt 0.1430 0.0050
vt 0.1460 0.0050
vt 0.0000 0.0080
vt 0.0030 0.0080
vt 0.1430 0.0080
vt 0.1460 0.0080
vt 0.0000 0.0000
vt 0.0030 0.0000
vt 0.1430 0.0000
vt 0.1460 0.0000
vt 0.0000 0.0030
vt 0.0030 0.0030
vt 0.1430 0.0030
vt 0.1460 0.0030
vt 0.0000 0.0050
vt 0.0030 0.0050
vt 0.1430 0.0050
vt 0.1460 0.0050
vt 0.0000 0.0080
vt 0.0030 0.0080
vt 0.1430 0.0080
vt 0.1460 0.0080
vt 0.0000 0.0000
vt 0.0030 0.0000
vt 0.2230 0.0000
vt 0.2260 0.0000
vt 0.0000 0.0030
vt 0.0030 0.0030
vt 0.2230 0.0030
vt 0.2260 0.0030
vt 0.0000 0.1430
vt 0.0030 0.1430
vt 0.2230 0.1430
vt 0.2260 0.1430
vt 0.0000 0.1460
vt 0.0030 0.1460
vt 0.2230 0.1460
vt 0.2260 0.1460
vt 0.0000 0.0000
vt 0.0030 0.0000
vt 0.2230 0.0000
vt 0.2260 0.0000
vt 0.0000 0.0030
vt 0.0030 0.0030
vt 0.2230 0.0030
vt 0.2260 0.0030
vt 0.0000 0.1430
vt 0.0030 0.1430
vt 0.2230 0.1430
vt 0.2260 0.1430
vt 0.0000 0.1460
vt 0.0030 0.1460
vt 0.2230 0.1460
vt 0.2260 0.1460
vt 0.0000 0.0000
vt 0.0030 0.0000
vt 0.2230 0.0000
vt 0.2260 0.0000
vt 0.0000 0.0030
vt 0.0030 0.0030
vt 0.2230 0.0030
vt 0.2260 0.0030
vt 0.0000 0.0050
vt 0.0030 0.0050
vt 0.2230 0.0050
vt 0.2260 0.0050
vt 0.0000 0.0080
vt 0.0030 0.0080
vt 0.2230 0.0080
vt 0.2260 0.0080
vt 0.0000 0.0000
vt 0.0030 0.0000
vt 0.2230 0.0000
vt 0.2260 0.0000
vt 0.0000 0.0030
vt 0.0030 0.0030
vt 0.2230 0.0030
vt 0.2260 0.0030
vt 0.0000 0.0050
vt 0.0030 0.0050
vt 0.2230 0.0050
vt 0.2260 0.0050
vt 0.0000 0.0080
vt 0.0030 0.0080
vt 0.2230 0.0080
vt 0.2260 0.0080
vt 0.0000 0.0000
vt 0.0006 0.0000
vt 0.0019 0.0000
vt 0.1081 0.0000
vt 0.1094 0.0000
vt 0.1100 0.0000
vt 0.0000 0.0006
vt 0.0006 0.0006
vt 0.0019 0.0006
vt 0.1081 0.0006
vt 0.1094 0.0006
vt 0.1100 0.0006
vt 0.0000 0.0019
vt 0.0006 0.0019
vt 0.0019 0.0019
vt 0.1081 0.0019
vt 0.1094 0.0019
vt 0.1100 0.0019
vt 0.0000 0.0021
vt 0.0006 0.0021
vt 0.0019 0.0021
vt 0.1081 0.0021
vt 0.1094 0.0021
vt 0.1100 0.0021
vt 0.0000 0.0034
vt 0.0006 0.0034
vt 0.0019 0.0034
vt 0.1081 0.0034
vt 0.1094 0.0034
vt 0.1100 0.0034
vt 0.0000 0.0040
vt 0.0006 0.0040
vt 0.0019 0.0040
vt 0.1081 0.0040
vt 0.1094 0.0040
vt 0.1100 0.0040
vt 0.0000 0.0000
vt 0.0006 0.0000
vt 0.0019 0.0000
vt 0.1081 0.0000
vt 0.1094 0.0000
vt 0.1100 0.0000
vt 0.0000 0.0006
vt 0.0006 0.0006
vt 0.0019 0.0006
vt 0.1081 0.0006
vt 0.1094 0.0006
vt 0.1100 0.0006
vt 0.0000 0.0019
vt 0.0006 0.0019
vt 0.0019 0.0019
vt 0.1081 0.0019
vt 0.1094 0.0019
vt 0.1100 0.0019
vt 0.0000 0.0021
vt 0.0006 0.0021
vt 0.0019 0.0021
vt 0.1081 0.0021
vt 0.1094 0.0021
vt 0.1100 0.0021
vt 0.0000 0.0034
vt 0.0006 0.0034
vt 0.0019 0.0034
vt 0.1081 0.0034
vt 0.1094 0.0034
vt 0.1100 0.0034
vt 0.0000 0.0040
vt 0.0006 0.0040
vt 0.0019 0.0040
vt 0.1081 0.0040
vt 0.1094 0.0040
vt 0.1100 0.0040
vt 0.0000 0.0000
vt 0.0006 0.0000
vt 0.0019 0.0000
vt 0.1881 0.0000
vt 0.1894 0.0000
vt 0.1900 0.0000
vt 0.0000 0.0006
vt 0.0006 0.0006
vt 0.0019 0.0006
vt 0.1881 0.0006
vt 0.1894 0.0006
vt 0.1900 0.0006
vt 0.0000 0.0019
vt 0.0006 0.0019
vt 0.0019 0.0019
vt 0.1881 0.0019
vt 0.1894 0.0019
vt 0.1900 0.0019
vt 0.0000 0.1081
vt 0.0006 0.1081
vt 0.0019 0.1081
vt 0.1881 0.1081
vt 0.1894 0.1081
vt 0.1900 0.1081
vt 0.0000 0.1094
vt 0.0006 0.1094
vt 0.0019 0.1094
vt 0.1881 0.1094
vt 0.1894 0.1094
vt 0.1900 0.1094
vt 0.0000 0.1100
vt 0.0006 0.1100
vt 0.0019 0.1100
vt 0.1881 0.1100
vt 0.1894 0.1100
vt 0.1900 0.1100
vt 0.0000 0.0000
vt 0.0006 0.0000
vt 0.0019 0.0000
vt 0.1881 0.0000
vt 0.1894 0.0000
vt 0.1900 0.0000
vt 0.0000 0.0006
vt 0.0006 0.0006
vt 0.0019 0.0006
vt 0.1881 0.0006
vt 0.1894 0.0006
vt 0.1900 0.0006
vt 0.0000 0.0019
vt 0.0006 0.0019
vt 0.0019 0.0019
vt 0.1881 0.0019
vt 0.1894 0.0019
vt 0.1900 0.0019
vt 0.0000 0.1081
vt 0.0006 0.1081
vt 0.0019 0.1081
vt 0.1881 0.1081
vt 0.1894 0.1081
vt 0.1900 0.1081
vt 0.0000 0.1094
vt 0.0006 0.1094
vt 0.0019 0.1094
vt 0.1881 0.1094
vt 0.1894 0.1094
vt 0.1900 0.1094
vt 0.0000 0.1100
vt 0.0006 0.1100
vt 0.0019 0.1100
vt 0.1881 0.1100
vt 0.1894 0.1100
vt 0.1900 0.1100
vt 0.0000 0.0000
vt 0.0006 0.0000
vt 0.0019 0.0000
vt 0.1881 0.0000
vt 0.1894 0.0000
vt 0.1900 0.0000
vt 0.0000 0.0006
vt 0.0006 0.0006
vt 0.0019 0.0006
vt 0.1881 0.0006
vt 0.1894 0.0006
vt 0.1900 0.0006
vt 0.0000 0.0019
vt 0.0006 0.0019
vt 0.0019 0.0019
vt 0.1881 0.0019
vt 0.1894 0.0019
vt 0.1900 0.0019
vt 0.0000 0.0021
vt 0.0006 0.0021
vt 0.0019 0.0021
vt 0.1881 0.0021
vt 0.1894 0.0021
vt 0.1900 0.0021
vt 0.0000 0.0034
vt 0.0006 0.0034
vt 0.0019 0.0034
vt 0.1881 0.0034
vt 0.1894 0.0034
vt 0.1900 0.0034
vt 0.0000 0.0040
vt 0.0006 0.0040
vt 0.0019 0.0040
vt 0.1881 0.0040
vt 0.1894 0.0040
vt 0.1900 0.0040
vt 0.0000 0.0000
vt 0.0006 0.0000
vt 0.0019 0.0000
vt 0.1881 0.0000
vt 0.1894 0.0000
vt 0.1900 0.0000
vt 0.0000 0.0006
vt 0.0006 0.0006
vt 0.0019 0.0006
vt 0.1881 0.0006
vt 0.1894 0.0006
vt 0.1900 0.0006
vt 0.0000 0.0019
vt 0.0006 0.0019
vt 0.0019 0.0019
vt 0.1881 0.0019
vt 0.1894 0.0019
vt 0.1900 0.0019
vt 0.0000 0.0021
vt 0.0006 0.0021
vt 0.0019 0.0021
vt 0.1881 0.0021
vt 0.1894 0.0021
vt 0.1900 0.0021
vt 0.0000 0.0034
vt 0.0006 0.0034
vt 0.0019 0.0034
vt 0.1881 0.0034
vt 0.1894 0.0034
vt 0.1900 0.0034
vt 0.0000 0.0040
vt 0.0006 0.0040
vt 0.0019 0.0040
vt 0.1881 0.0040
vt 0.1894 0.0040
vt 0.1900 0.0040
vt 0.0000 0.0000
vt 0.1460 0.0000
vt 0.1460 0.0140
vt 0.0000 0.0140
vt 0.0000 0.0000
vt 0.1460 0.0000
vt 0.1460 0.0140
vt 0.0000 0.0140
vt 0.0000 0.0000
vt 0.0040 0.0000
vt 0.0040 0.1460
vt 0.0000 0.1460
vt 0.0000 0.0000
vt 0.0040 0.0000
vt 0.0040 0.1460
vt 0.0000 0.1460
vt 0.0000 0.0000
vt 0.0040 0.0000
vt 0.0040 0.0140
vt 0.0000 0.0140
vt 0.0000 0.0000
vt 0.0040 0.0000
vt 0.0040 0.0140
vt 0.0000 0.0140
vt 0.0000 0.0000
vt 0.1460 0.0000
vt 0.1460 0.0140
vt 0.0000 0.0140
vt 0.0000 0.0000
vt 0.1460 0.0000
vt 0.1460 0.0140
vt 0.0000 0.0140
vt 0.0000 0.0000
vt 0.0040 0.0000
vt 0.0040 0.1460
vt 0.0000 0.1460
vt 0.0000 0.0000
vt 0.0040 0.0000
vt 0.0040 0.1460
vt 0.0000 0.1460
vt 0.0000 0.0000
vt 0.0040 0.0000
vt 0.0040 0.0140
vt 0.0000 0.0140
vt 0.0000 0.0000
vt 0.0040 0.0000
vt 0.0040 0.0140
vt 0.0000 0.0140
vt 0.0000 0.0000
vt 0.0040 0.0000
vt 0.0040 0.0140
vt 0.0000 0.0140
vt 0.0000 0.0000
vt 0.0040 0.0000
vt 0.0040 0.0140
vt 0.0000 0.0140
vt 0.0000 0.0000
vt 0.2260 0.0000
vt 0.2260 0.0040
vt 0.0000 0.0040
vt 0.0000 0.0000
vt 0.2260 0.0000
vt 0.2260 0.0040
vt 0.0000 0.0040
vt 0.0000 0.0000
vt 0.2260 0.0000
vt 0.2260 0.0140
vt 0.0000 0.0140
vt 0.0000 0.0000
vt 0.2260 0.0000
vt 0.2260 0.0140
vt 0.0000 0.0140
vn 0.577 -0.577 0.577
vn 0.707 -0.707 0.000
vn 0.707 -0.707 0.000
vn 0.577 -0.577 -0.577
vn 0.707 0.000 0.707
vn 1.000 0.000 0.000
vn 1.000 0.000 0.000
vn 0.707 0.000 -0.707
vn 0.707 0.000 0.707
vn 1.000 0.000 0.000
vn 1.000 0.000 0.000
vn 0.707 0.000 -0.707
vn 0.577 0.577 0.577
vn 0.707 0.707 0.000
vn 0.707 0.707 0.000
vn 0.577 0.577 -0.577
vn -0.577 -0.577 -0.577
vn -0.707 -0.707 0.000
vn -0.707 -0.707 0.000
vn -0.577 -0.577 0.577
vn -0.707 0.000 -0.707
vn -1.000 0.000 0.000
vn -1.000 0.000 0.000
vn -0.707 0.000 0.707
vn -0.707 0.000 -0.707
vn -1.000 0.000 0.000
vn -1.000 0.000 0.000
vn -0.707 0.000 0.707
vn -0.577 0.577 -0.577
vn -0.707 0.707 0.000
vn -0.707 0.707 0.000
vn -0.577 0.577 0.577
vn -0.577 0.577 0.577
vn 0.000 0.707 0.707
vn 0.000 0.707 0.707
vn 0.577 0.577 0.577
vn -0.707 0.707 0.000
vn 0.000 1.000 0.000
vn 0.000 1.000 0.000
vn 0.707 0.707 0.000
vn -0.707 0.707 0.000
vn 0.000 1.000 0.000
vn 0.000 1.000 0.000
vn 0.707 0.707 0.000
vn -0.577 0.577 -0.577
vn 0.000 0.707 -0.707
vn 0.000 0.707 -0.707
vn 0.577 0.577 -0.577
vn -0.577 -0.577 -0.577
vn 0.000 -0.707 -0.707
vn 0.000 -0.707 -0.707
vn 0.577 -0.577 -0.577
vn -0.707 -0.707 0.000
vn 0.000 -1.000 0.000
vn 0.000 -1.000 0.000
vn 0.707 -0.707 0.000
vn -0.707 -0.707 0.000
vn 0.000 -1.000 0.000
vn 0.000 -1.000 0.000
vn 0.707 -0.707 0.000
vn -0.577 -0.577 0.577
vn 0.000 -0.707 0.707
vn 0.000 -0.707 0.707
vn 0.577 -0.577 0.577
vn -0.577 -0.577 0.577
vn 0.000 -0.707 0.707
vn 0.000 -0.707 0.707
vn 0.577 -0.577 0.577
vn -0.707 0.000 0.707
vn 0.000 0.000 1.000
vn 0.000 0.000 1.000
vn 0.707 0.000 0.707
vn -0.707 0.000 0.707
vn 0.000 0.000 1.000
vn 0.000 0.000 1.000
vn 0.707 0.000 0.707
vn -0.577 0.577 0.577
vn 0.000 0.707 0.707
vn 0.000 0.707 0.707
vn 0.577 0.577 0.577
vn 0.577 -0.577 -0.577
vn 0.000 -0.707 -0.707
vn 0.000 -0.707 -0.707
vn -0.577 -0.577 -0.577
vn 0.707 0.000 -0.707
vn 0.000 0.000 -1.000
vn 0.000 0.000 -1.000
vn -0.707 0.000 -0.707
vn 0.707 0.000 -0.707
vn 0.000 0.000 -1.000
vn 0.000 0.000 -1.000
vn -0.707 0.000 -0.707
vn 0.577 0.577 -0.577
vn 0.000 0.707 -0.707
vn 0.000 0.707 -0.707
vn -0.577 0.577 -0.577
vn 0.577 -0.577 0.577
vn 0.632 -0.632 0.447
vn 0.707 -0.707 0.000
vn 0.707 -0.707 0.000
vn 0.632 -0.632 -0.447
vn 0.577 -0.577 -0.577
vn 0.632 -0.447 0.632
vn 0.707 -0.500 0.500
vn 0.816 -0.577 0.000
vn 0.816 -0.577 0.000
vn 0.707 -0.500 -0.500
vn 0.632 -0.447 -0.632
vn 0.707 0.000 0.707
vn 0.816 0.000 0.577
vn 1.000 0.000 0.000
vn 1.000 0.000 0.000
vn 0.816 0.000 -0.577
vn 0.707 0.000 -0.707
vn 0.707 0.000 0.707
vn 0.816 0.000 0.577
vn 1.000 0.000 0.000
vn 1.000 0.000 0.000
vn 0.816 0.000 -0.577
vn 0.707 0.000 -0.707
vn 0.632 0.447 0.632
vn 0.707 0.500 0.500
vn 0.816 0.577 0.000
vn 0.816 0.577 0.000
vn 0.707 0.500 -0.500
vn 0.632 0.447 -0.632
vn 0.577 0.577 0.577
vn 0.632 0.632 0.447
vn 0.707 0.707 0.000
vn 0.707 0.707 0.000
vn 0.632 0.632 -0.447
vn 0.577 0.577 -0.577
vn -0.577 -0.577 -0.577
vn -0.632 -0.632 -0.447
vn -0.707 -0.707 0.000
vn -0.707 -0.707 0.000
vn -0.632 -0.632 0.447
vn -0.577 -0.577 0.577
vn -0.632 -0.447 -0.632
vn -0.707 -0.500 -0.500
vn -0.816 -0.577 0.000
vn -0.816 -0.577 0.000
vn -0.707 -0.500 0.500
vn -0.632 -0.447 0.632
vn -0.707 0.000 -0.707
vn -0.816 0.000 -0.577
vn -1.000 0.000 0.000
vn -1.000 0.000 0.000
vn -0.816 0.000 0.577
vn -0.707 0.000 0.707
vn -0.707 0.000 -0.707
vn -0.816 0.000 -0.577
vn -1.000 0.000 0.000
vn -1.000 0.000 0.000
vn -0.816 0.000 0.577
vn -0.707 0.000 0.707
vn -0.632 0.447 -0.632
vn -0.707 0.500 -0.500
vn -0.816 0.577 0.000
vn -0.816 0.577 0.000
vn -0.707 0.500 0.500
vn -0.632 0.447 0.632
vn -0.577 0.577 -0.577
vn -0.632 0.632 -0.447
vn -0.707 0.707 0.000
vn -0.707 0.707 0.000
vn -0.632 0.632 0.447
vn -0.577 0.577 0.577
vn -0.577 0.577 0.577
vn -0.447 0.632 0.632
vn 0.000 0.707 0.707
vn 0.000 0.707 0.707
vn 0.447 0.632 0.632
vn 0.577 0.577 0.577
vn -0.632 0.632 0.447
vn -0.500 0.707 0.500
vn 0.000 0.816 0.577
vn 0.000 0.816 0.577
vn 0.500 0.707 0.500
vn 0.632 0.632 0.447
vn -0.707 0.707 0.000
vn -0.577 0.816 0.000
vn 0.000 1.000 0.000
vn 0.000 1.000 0.000
vn 0.577 0.816 0.000
vn 0.707 0.707 0.000
vn -0.707 0.707 0.000
vn -0.577 0.816 0.000
vn 0.000 1.000 0.000
vn 0.000 1.000 0.000
vn 0.577 0.816 0.000
vn 0.707 0.707 0.000
vn -0.632 0.632 -0.447
vn -0.500 0.707 -0.500
vn 0.000 0.816 -0.577
vn 0.000 0.816 -0.577
vn 0.500 0.707 -0.500
vn 0.632 0.632 -0.447
vn -0.577 0.577 -0.577
vn -0.447 0.632 -0.632
vn 0.000 0.707 -0.707
vn 0.000 0.707 -0.707
vn 0.447 0.632 -0.632
vn 0.577 0.577 -0.577
vn -0.577 -0.577 -0.577
vn -0.447 -0.632 -0.632
vn 0.000 -0.707 -0.707
vn 0.000 -0.707 -0.707
vn 0.447 -0.632 -0.632
vn 0.577 -0.577 -0.577
vn -0.632 -0.632 -0.447
vn -0.500 -0.707 -0.500
vn 0.000 -0.816 -0.577
vn 0.000 -0.816 -0.577
vn 0.500 -0.707 -0.500
vn 0.632 -0.632 -0.447
vn -0.707 -0.707 0.000
vn -0.577 -0.816 0.000
vn 0.000 -1.000 0.000
vn 0.000 -1.000 0.000
vn 0.577 -0.816 0.000
vn 0.707 -0.707 0.000
vn -0.707 -0.707 0.000
vn -0.577 -0.816 0.000
vn 0.000 -1.000 0.000
vn 0.000 -1.000 0.000
vn 0.577 -0.816 0.000
vn 0.707 -0.707 0.000
vn -0.632 -0.632 0.447
vn -0.500 -0.707 0.500
vn 0.000 -0.816 0.577
vn 0.000 -0.816 0.577
vn 0.500 -0.707 0.500
vn 0.632 -0.632 0.447
vn -0.577 -0.577 0.577
vn -0.447 -0.632 0.632
vn 0.000 -0.707 0.707
vn 0.000 -0.707 0.707
vn 0.447 -0.632 0.632
vn 0.577 -0.577 0.577
vn -0.577 -0.577 0.577
vn -0.447 -0.632 0.632
vn 0.000 -0.707 0.707
vn 0.000 -0.707 0.707
vn 0.447 -0.632 0.632
vn 0.577 -0.577 0.577
vn -0.632 -0.447 0.632
vn -0.500 -0.500 0.707
vn 0.000 -0.577 0.816
vn 0.000 -0.577 0.816
vn 0.500 -0.500 0.707
vn 0.632 -0.447 0.632
vn -0.707 0.000 0.707
vn -0.577 0.000 0.816
vn 0.000 0.000 1.000
vn 0.000 0.000 1.000
vn 0.577 0.000 0.816
vn 0.707 0.000 0.707
vn -0.707 0.000 0.707
vn -0.577 0.000 0.816
vn 0.000 0.000 1.000
vn 0.000 0.000 1.000
vn 0.577 0.000 0.816
vn 0.707 0.000 0.707
vn -0.632 0.447 0.632
vn -0.500 0.500 0.707
vn 0.000 0.577 0.816
vn 0.000 0.577 0.816
vn 0.500 0.500 0.707
vn 0.632 0.447 0.632
vn -0.577 0.577 0.577
vn -0.447 0.632 0.632
vn 0.000 0.707 0.707
vn 0.000 0.707 0.707
vn 0.447 0.632 0.632
vn 0.577 0.577 0.577
vn 0.577 -0.577 -0.577
vn 0.447 -0.632 -0.632
vn 0.000 -0.707 -0.707
vn 0.000 -0.707 -0.707
vn -0.447 -0.632 -0.632
vn -0.577 -0.577 -0.577
vn 0.632 -0.447 -0.632
vn 0.500 -0.500 -0.707
vn 0.000 -0.577 -0.816
vn 0.000 -0.577 -0.816
vn -0.500 -0.500 -0.707
vn -0.632 -0.447 -0.632
vn 0.707 0.000 -0.707
vn 0.577 0.000 -0.816
vn 0.000 0.000 -1.000
vn 0.000 0.000 -1.000
vn -0.577 0.000 -0.816
vn -0.707 0.000 -0.707
vn 0.707 0.000 -0.707
vn 0.577 0.000 -0.816
vn 0.000 0.000 -1.000
vn 0.000 0.000 -1.000
vn -0.577 0.000 -0.816
vn -0.707 0.000 -0.707
vn 0.632 0.447 -0.632
vn 0.500 0.500 -0.707
vn 0.000 0.577 -0.816
vn 0.000 0.577 -0.816
vn -0.500 0.500 -0.707
vn -0.632 0.447 -0.632
vn 0.577 0.577 -0.577
vn 0.447 0.632 -0.632
vn 0.000 0.707 -0.707
vn 0.000 0.707 -0.707
vn -0.447 0.632 -0.632
vn -0.577 0.577 -0.577
vn 1.000 0.000 0.000
vn 1.000 0.000 0.000
vn 1.000 0.000 0.000
vn 1.000 0.000 0.000
vn -1.000 0.000 0.000
vn -1.000 0.000 0.000
vn -1.000 0.000 0.000
vn -1.000 0.000 0.000
vn 0.000 1.000 0.000
vn 0.000 1.000 0.000
vn 0.000 1.000 0.000
vn 0.000 1.000 0.000
vn 0.000 -1.000 0.000
vn 0.000 -1.000 0.000
vn 0.000 -1.000 0.000
vn 0.000 -1.000 0.000
vn 0.000 0.000 1.000
vn 0.000 0.000 1.000
vn 0.000 0.000 1.000
vn 0.000 0.000 1.000
vn 0.000 0.000 -1.000
vn 0.000 0.000 -1.000
vn 0.000 0.000 -1.000
vn 0.000 0.000 -1.000
vn 1.000 0.000 0.000
vn 1.000 0.000 0.000
vn 1.000 0.000 0.000
vn 1.000 0.000 0.000
vn -1.000 0.000 0.000
vn -1.000 0.000 0.000
vn -1.000 0.000 0.000
vn -1.000 0.000 0.000
vn 0.000 1.000 0.000
vn 0.000 1.000 0.000
vn 0.000 1.000 0.000
vn 0.000 1.000 0.000
vn 0.000 -1.000 0.000
vn 0.000 -1.000 0.000
vn 0.000 -1.000 0.000
vn 0.000 -1.000 0.000
vn 0.000 0.000 1.000
vn 0.000 0.000 1.000
vn 0.000 0.000 1.000
vn 0.000 0.000 1.000
vn 0.000 0.000 -1.000
vn 0.000 0.000 -1.000
vn 0.000 0.000 -1.000
vn 0.000 0.000 -1.000
vn 1.000 0.000 0.000
vn 1.000 0.000 0.000
vn 1.000 0.000 0.000
vn 1.000 0.000 0.000
vn -1.000 0.000 0.000
vn -1.000 0.000 0.000
vn -1.000 0.000 0.000
vn -1.000 0.000 0.000
vn 0.000 1.000 0.000
vn 0.000 1.000 0.000
vn 0.000 1.000 0.000
vn 0.000 1.000 0.000
vn 0.000 -1.000 0.000
vn 0.000 -1.000 0.000
vn 0.000 -1.000 0.000
vn 0.000 -1.000 0.000
vn 0.000 0.000 1.000
vn 0.000 0.000 1.000
vn 0.000 0.000 1.000
vn 0.000 0.000 1.000
vn 0.000 0.000 -1.000
vn 0.000 0.000 -1.000
vn 0.000 0.000 -1.000
vn 0.000 0.000 -1.000
usemtl tin
f 1/1/1 2/2/2 6/6/6
f 1/1/1 6/6/6 5/5/5
f 2/2/2 3/3/3 7/7/7
f 2/2/2 7/7/7 6/6/6
f 3/3/3 4/4/4 8/8/8
f 3/3/3 8/8/8 7/7/7
f 5/5/5 6/6/6 10/10/10
f 5/5/5 10/10/10 9/9/9
f 6/6/6 7/7/7 11/11/11
f 6/6/6 11/11/11 10/10/10
f 7/7/7 8/8/8 12/12/12
f 7/7/7 12/12/12 11/11/11
f 9/9/9 10/10/10 14/14/14
f 9/9/9 14/14/14 13/13/13
f 10/10/10 11/11/11 15/15/15
f 10/10/10 15/15/15 14/14/14
f 11/11/11 12/12/12 16/16/16
f 11/11/11 16/16/16 15/15/15
f 17/17/17 18/18/18 22/22/22
f 17/17/17 22/22/22 21/21/21
f 18/18/18 19/19/19 23/23/23
f 18/18/18 23/23/23 22/22/22
f 19/19/19 20/20/20 24/24/24
f 19/19/19 24/24/24 23/23/23
f 21/21/21 22/22/22 26/26/26
f 21/21/21 26/26/26 25/25/25
f 22/22/22 23/23/23 27/27/27
f 22/22/22 27/27/27 26/26/26
f 23/23/23 24/24/24 28/28/28
f 23/23/23 28/28/28 27/27/27
f 25/25/25 26/26/26 30/30/30
f 25/25/25 30/30/30 29/29/29
f 26/26/26 27/27/27 31/31/31
f 26/26/26 31/31/31 30/30/30
f 27/27/27 28/28/28 32/32/32
f 27/27/27 32/32/32 31/31/31
f 33/33/33 34/34/34 38/38/38
f 33/33/33 38/38/38 37/37/37
f 34/34/34 35/35/35 39/39/39
f 34/34/34 39/39/39 38/38/38
f 35/35/35 36/36/36 40/40/40
f 35/35/35 40/40/40 39/39/39
f 37/37/37 38/38/38 42/42/42
f 37/37/37 42/42/42 41/41/41
f 38/38/38 39/39/39 43/43/43
f 38/38/38 43/43/43 42/42/42
f 39/39/39 40/40/40 44/44/44
f 39/39/39 44/44/44 43/43/43
f 41/41/41 42/42/42 46/46/46
f 41/41/41 46/46/46 45/45/45
f 42/42/42 43/43/43 47/47/47
f 42/42/42 47/47/47 46/46/46
f 43/43/43 44/44/44 48/48/48
f 43/43/43 48/48/48 47/47/47
f 49/49/49 50/50/50 54/54/54
f 49/49/49 54/54/54 53/53/53
f 50/50/50 51/51/51 55/55/55
f 50/50/50 55/55/55 54/54/54
f 51/51/51 52/52/52 56/56/56
f 51/51/51 56/56/56 55/55/55
f 53/53/53 54/54/54 58/58/58
f 53/53/53 58/58/58 57/57/57
f 54/54/54 55/55/55 59/59/59
f 54/54/54 59/59/59 58/58/58
f 55/55/55 56/56/56 60/60/60
f 55/55/55 60/60/60 59/59/59
f 57/57/57 58/58/58 62/62/62
f 57/57/57 62/62/62 61/61/61
f 58/58/58 59/59/59 63/63/63
f 58/58/58 63/63/63 62/62/62
f 59/59/59 60/60/60 64/64/64
f 59/59/59 64/64/64 63/63/63
f 65/65/65 66/66/66 70/70/70
f 65/65/65 70/70/70 69/69/69
f 66/66/66 67/67/67 71/71/71
f 66/66/66 71/71/71 70/70/70
f 67/67/67 68/68/68 72/72/72
f 67/67/67 72/72/72 71/71/71
f 69/69/69 70/70/70 74/74/74
f 69/69/69 74/74/74 73/73/73
f 70/70/70 71/71/71 75/75/75
f 70/70/70 75/75/75 74/74/74
f 71/71/71 72/72/72 76/76/76
f 71/71/71 76/76/76 75/75/75
f 73/73/73 74/74/74 78/78/78
f 73/73/73 78/78/78 77/77/77
f 74/74/74 75/75/75 79/79/79
f 74/74/74 79/79/79 78/78/78
f 75/75/75 76/76/76 80/80/80
f 75/75/75 80/80/80 79/79/79
f 81/81/81 82/82/82 86/86/86
f 81/81/81 86/86/86 85/85/85
f 82/82/82 83/83/83 87/87/87
f 82/82/82 87/87/87 86/86/86
f 83/83/83 84/84/84 88/88/88
f 83/83/83 88/88/88 87/87/87
f 85/85/85 86/86/86 90/90/90
f 85/85/85 90/90/90 89/89/89
f 86/86/86 87/87/87 91/91/91
f 86/86/86 91/91/91 90/90/90
f 87/87/87 88/88/88 92/92/92
f 87/87/87 92/92/92 91/91/91
f 89/89/89 90/90/90 94/94/94
f 89/89/89 94/94/94 93/93/93
f 90/90/90 91/91/91 95/95/95
f 90/90/90 95/95/95 94/94/94
f 91/91/91 92/92/92 96/96/96
f 91/91/91 96/96/96 95/95/95
f 97/97/97 98/98/98 104/104/104
f 97/97/97 104/104/104 103/103/103
f 98/98/98 99/99/99 105/105/105
f 98/98/98 105/105/105 104/104/104
f 99/99/99 100/100/100 106/106/106
f 99/99/99 106/106/106 105/105/105
f 100/100/100 101/101/101 107/107/107
f 100/100/100 107/107/107 106/106/106
f 101/101/101 102/102/102 108/108/108
f 101/101/101 108/108/108 107/107/107
f 103/103/103 104/104/104 110/110/110
f 103/103/103 110/110/110 109/109/109
f 104/104/104 105/105/105 111/111/111
f 104/104/104 111/111/111 110/110/110
f 105/105/105 106/106/106 112/112/112
f 105/105/105 112/112/112 111/111/111
f 106/106/106 107/107/107 113/113/113
f 106/106/106 113/113/113 112/112/112
f 107/107/107 108/108/108 114/114/114
f 107/107/107 114/114/114 113/113/113
f 109/109/109 110/110/110 116/116/116
f 109/109/109 116/116/116 115/115/115
f 110/110/110 111/111/111 117/117/117
f 110/110/110 117/117/117 116/116/116
f 111/111/111 112/112/112 118/118/118
f 111/111/111 118/118/118 117/117/117
f 112/112/112 113/113/113 119/119/119
f 112/112/112 119/119/119 118/118/118
f 113/113/113 114/114/114 120/120/120
f 113/113/113 120/120/120 119/119/119
f 115/115/115 116/116/116 122/122/122
f 115/115/115 122/122/122 121/121/121
f 116/116/116 117/117/117 123/123/123
f 116/116/116 123/123/123 122/122/122
f 117/117/117 118/118/118 124/124/124
f 117/117/117 124/124/124 123/123/123
f 118/118/118 119/119/119 125/125/125
f 118/118/118 125/125/125 124/124/124
f 119/119/119 120/120/120 126/126/126
f 119/119/119 126/126/126 125/125/125
f 121/121/121 122/122/122 128/128/128
f 121/121/121 128/128/128 127/127/127
f 122/122/122 123/123/123 129/129/129
f 122/122/122 129/129/129 128/128/128
f 123/123/123 124/124/124 130/130/130
f 123/123/123 130/130/130 129/129/129
f 124/124/124 125/125/125 131/131/131
f 124/124/124 131/131/131 130/130/130
f 125/125/125 126/126/126 132/132/132
f 125/125/125 132/132/132 131/131/131
f 133/133/133 134/134/134 140/140/140
f 133/133/133 140/140/140 139/139/139
f 134/134/134 135/135/135 141/141/141
f 134/134/134 141/141/141 140/140/140
f 135/135/135 136/136/136 142/142/142
f 135/135/135 142/142/142 141/141/141
f 136/136/136 137/137/137 143/143/143
f 136/136/136 143/143/143 142/142/142
f 137/137/137 138/138/138 144/144/144
f 137/137/137 144/144/144 143/143/143
f 139/139/139 140/140/140 146/146/146
f 139/139/139 146/146/146 145/145/145
f 140/140/140 141/141/141 147/147/147
f 140/140/140 147/147/147 146/146/146
f 141/141/141 142/142/142 148/148/148
f 141/141/141 148/148/148 147/147/147
f 142/142/142 143/143/143 149/149/149
f 142/142/142 149/149/149 148/148/148
f 143/143/143 144/144/144 150/150/150
f 143/143/143 150/150/150 149/149/149
f 145/145/145 146/146/146 152/152/152
f 145/145/145 152/152/152 151/151/151
f 146/146/146 147/147/147 153/153/153
f 146/146/146 153/153/153 152/152/152
f 147/147/147 148/148/148 154/154/154
f 147/147/147 154/154/154 153/153/153
f 148/148/148 149/149/149 155/155/155
f 148/148/148 155/155/155 154/154/154
f 149/149/149 150/150/150 156/156/156
f 149/149/149 156/156/156 155/155/155
f 151/151/151 152/152/152 158/158/158
f 151/151/151 158/158/158 157/157/157
f 152/152/152 153/153/153 159/159/159
f 152/152/152 159/159/159 158/158/158
f 153/153/153 154/154/154 160/160/160
f 153/153/153 160/160/160 159/159/159
f 154/154/154 155/155/155 161/161/161
f 154/154/154 161/161/161 160/160/160
f 155/155/155 156/156/156 162/162/162
f 155/155/155 162/162/162 161/161/161
f 157/157/157 158/158/158 164/164/164
f 157/157/157 164/164/164 163/163/163
f 158/158/158 159/159/159 165/165/165
f 158/158/158 165/165/165 164/164/164
f 159/159/159 160/160/160 166/166/166
f 159/159/159 166/166/166 165/165/165
f 160/160/160 161/161/161 167/167/167
f 160/160/160 167/167/167 166/166/166
f 161/161/161 162/162/162 168/168/168
f 161/161/161 168/168/168 167/167/167
f 169/169/169 170/170/170 176/176/176
f 169/169/169 176/176/176 175/175/175
f 170/170/170 171/171/171 177/177/177
f 170/170/170 177/177/177 176/176/176
f 171/171/171 172/172/172 178/178/178
f 171/171/171 178/178/178 177/177/177
f 172/172/172 173/173/173 179/179/179
f 172/172/172 179/179/179 178/178/178
f 173/173/173 174/174/174 180/180/180
f 173/173/173 180/180/180 179/179/179
f 175/175/175 176/176/176 182/182/182
f 175/175/175 182/182/182 181/181/181
f 176/176/176 177/177/177 183/183/183
f 176/176/176 183/183/183 182/182/182
f 177/177/177 178/178/178 184/184/184
f 177/177/177 184/184/184 183/183/183
f 178/178/178 179/179/179 185/185/185
f 178/178/178 185/185/185 184/184/184
f 179/179/179 180/180/180 186/186/186
f 179/179/179 186/186/186 185/185/185
f 181/181/181 182/182/182 188/188/188
f 181/181/181 188/188/188 187/187/187
f 182/182/182 183/183/183 189/189/189
f 182/182/182 189/189/189 188/188/188
f 183/183/183 184/184/184 190/190/190
f 183/183/183 190/190/190 189/189/189
f 184/184/184 185/185/185 191/191/191
f 184/184/184 191/191/191 190/190/190
f 185/185/185 186/186/186 192/192/192
f 185/185/185 192/192/192 191/191/191
f 187/187/187 188/188/188 194/194/194
f 187/187/187 194/194/194 193/193/193
f 188/188/188 189/189/189 195/195/195
f 188/188/188 195/195/195 194/194/194
f 189/189/189 190/190/190 196/196/196
f 189/189/189 196/196/196 195/195/195
f 190/190/190 191/191/191 197/197/197
f 190/190/190 197/197/197 196/196/196
f 191/191/191 192/192/192 198/198/198
f 191/191/191 198/198/198 197/197/197
f 193/193/193 194/194/194 200/200/200
f 193/193/193 200/200/200 199/199/199
f 194/194/194 195/195/195 201/201/201
f 194/194/194 201/201/201 200/200/200
f 195/195/195 196/196/196 202/202/202
f 195/195/195 202/202/202 201/201/201
f 196/196/196 197/197/197 203/203/203
f 196/196/196 203/203/203 202/202/202
f 197/197/197 198/198/198 204/204/204
f 197/197/197 204/204/204 203/203/203
f 205/205/205 206/206/206 212/212/212
f 205/205/205 212/212/212 211/211/211
f 206/206/206 207/207/207 213/213/213
f 206/206/206 213/213/213 212/212/212
f 207/207/207 208/208/208 214/214/214
f 207/207/207 214/214/214 213/213/213
f 208/208/208 209/209/209 215/215/215
f 208/208/208 215/215/215 214/214/214
f 209/209/209 210/210/210 216/216/216
f 209/209/209 216/216/216 215/215/215
f 211/211/211 212/212/212 218/218/218
f 211/211/211 218/218/218 217/217/217
f 212/212/212 213/213/213 219/219/219
f 212/212/212 219/219/219 218/218/218
f 213/213/213 214/214/214 220/220/220
f 213/213/213 220/220/220 219/219/219
f 214/214/214 215/215/215 221/221/221
f 214/214/214 221/221/221 220/220/220
f 215/215/215 216/216/216 222/222/222
f 215/215/215 222/222/222 221/221/221
f 217/217/217 218/218/218 224/224/224
f 217/217/217 224/224/224 223/223/223
f 218/218/218 219/219/219 225/225/225
f 218/218/218 225/225/225 224/224/224
f 219/219/219 220/220/220 226/226/226
f 219/219/219 226/226/226 225/225/225
f 220/220/220 221/221/221 227/227/227
f 220/220/220 227/227/227 226/226/226
f 221/221/221 222/222/222 228/228/228
f 221/221/221 228/228/228 227/227/227
f 223/223/223 224/224/224 230/230/230
f 223/223/223 230/230/230 229/229/229
f 224/224/224 225/225/225 231/231/231
f 224/224/224 231/231/231 230/230/230
f 225/225/225 226/226/226 232/232/232
f 225/225/225 232/232/232 231/231/231
f 226/226/226 227/227/227 233/233/233
f 226/226/226 233/233/233 232/232/232
f 227/227/227 228/228/228 234/234/234
f 227/227/227 234/234/234 233/233/233
f 229/229/229 230/230/230 236/236/236
f 229/229/229 236/236/236 235/235/235
f 230/230/230 231/231/231 237/237/237
f 230/230/230 237/237/237 236/236/236
f 231/231/231 232/232/232 238/238/238
f 231/231/231 238/238/238 237/237/237
f 232/232/232 233/233/233 239/239/239
f 232/232/232 239/239/239 238/238/238
f 233/233/233 234/234/234 240/240/240
f 233/233/233 240/240/240 239/239/239
f 241/241/241 242/242/242 248/248/248
f 241/241/241 248/248/248 247/247/247
f 242/242/242 243/243/243 249/249/249
f 242/242/242 249/249/249 248/248/248
f 243/243/243 244/244/244 250/250/250
f 243/243/243 250/250/250 249/249/249
f 244/244/244 245/245/245 251/251/251
f 244/244/244 251/251/251 250/250/250
f 245/245/245 246/246/246 252/252/252
f 245/245/245 252/252/252 251/251/251
f 247/247/247 248/248/248 254/254/254
f 247/247/247 254/254/254 253/253/253
f 248/248/248 249/249/249 255/255/255
f 248/248/248 255/255/255 254/254/254
f 249/249/249 250/250/250 256/256/256
f 249/249/249 256/256/256 255/255/255
f 250/250/250 251/251/251 257/257/257
f 250/250/250 257/257/257 256/256/256
f 251/251/251 252/252/252 258/258/258
f 251/251/251 258/258/258 257/257/257
f 253/253/253 254/254/254 260/260/260
f 253/253/253 260/260/260 259/259/259
f 254/254/254 255/255/255 261/261/261
f 254/254/254 261/261/261 260/260/260
f 255/255/255 256/256/256 262/262/262
f 255/255/255 262/262/262 261/261/261
f 256/256/256 257/257/257 263/263/263
f 256/256/256 263/263/263 262/262/262
f 257/257/257 258/258/258 264/264/264
f 257/257/257 264/264/264 263/263/263
f 259/259/259 260/260/260 266/266/266
f 259/259/259 266/266/266 265/265/265
f 260/260/260 261/261/261 267/267/267
f 260/260/260 267/267/267 266/266/266
f 261/261/261 262/262/262 268/268/268
f 261/261/261 268/268/268 267/267/267
f 262/262/262 263/263/263 269/269/269
f 262/262/262 269/269/269 268/268/268
f 263/263/263 264/264/264 270/270/270
f 263/263/263 270/270/270 269/269/269
f 265/265/265 266/266/266 272/272/272
f 265/265/265 272/272/272 271/271/271
f 266/266/266 267/267/267 273/273/273
f 266/266/266 273/273/273 272/272/272
f 267/267/267 268/268/268 274/274/274
f 267/267/267 274/274/274 273/273/273
f 268/268/268 269/269/269 275/275/275
f 268/268/268 275/275/275 274/274/274
f 269/269/269 270/270/270 276/276/276
f 269/269/269 276/276/276 275/275/275
f 277/277/277 278/278/278 284/284/284
f 277/277/277 284/284/284 283/283/283
f 278/278/278 279/279/279 285/285/285
f 278/278/278 285/285/285 284/284/284
f 279/279/279 280/280/280 286/286/286
f 279/279/279 286/286/286 285/285/285
f 280/280/280 281/281/281 287/287/287
f 280/280/280 287/287/287 286/286/286
f 281/281/281 282/282/282 288/288/288
f 281/281/281 288/288/288 287/287/287
f 283/283/283 284/284/284 290/290/290
f 283/283/283 290/290/290 289/289/289
f 284/284/284 285/285/285 291/291/291
f 284/284/284 291/291/291 290/290/290
f 285/285/285 286/286/286 292/292/292
f 285/285/285 292/292/292 291/291/291
f 286/286/286 287/287/287 293/293/293
f 286/286/286 293/293/293 292/292/292
f 287/287/287 288/288/288 294/294/294
f 287/287/287 294/294/294 293/293/293
f 289/289/289 290/290/290 296/296/296
f 289/289/289 296/296/296 295/295/295
f 290/290/290 291/291/291 297/297/297
f 290/290/290 297/297/297 296/296/296
f 291/291/291 292/292/292 298/298/298
f 291/291/291 298/298/298 297/297/297
f 292/292/292 293/293/293 299/299/299
f 292/292/292 299/299/299 298/298/298
f 293/293/293 294/294/294 300/300/300
f 293/293/293 300/300/300 299/299/299
f 295/295/295 296/296/296 302/302/302
f 295/295/295 302/302/302 301/301/301
f 296/296/296 297/297/297 303/303/303
f 296/296/296 303/303/303 302/302/302
f 297/297/297 298/298/298 304/304/304
f 297/297/297 304/304/304 303/303/303
f 298/298/298 299/299/299 305/305/305
f 298/298/298 305/305/305 304/304/304
f 299/299/299 300/300/300 306/306/306
f 299/299/299 306/306/306 305/305/305
f 301/301/301 302/302/302 308/308/308
f 301/301/301 308/308/308 307/307/307
f 302/302/302 303/303/303 309/309/309
f 302/302/302 309/309/309 308/308/308
f 303/303/303 304/304/304 310/310/310
f 303/303/303 310/310/310 309/309/309
f 304/304/304 305/305/305 311/311/311
f 304/304/304 311/311/311 310/310/310
f 305/305/305 306/306/306 312/312/312
f 305/305/305 312/312/312 311/311/311
f 313/313/313 314/314/314 315/315/315
f 313/313/313 315/315/315 316/316/316
f 317/317/317 318/318/318 319/319/319
f 317/317/317 319/319/319 320/320/320
f 321/321/321 322/322/322 323/323/323
f 321/321/321 323/323/323 324/324/324
f 325/325/325 326/326/326 327/327/327
f 325/325/325 327/327/327 328/328/328
f 329/329/329 330/330/330 331/331/331
f 329/329/329 331/331/331 332/332/332
f 333/333/333 334/334/334 335/335/335
f 333/333/333 335/335/335 336/336/336
f 337/337/337 338/338/338 339/339/339
f 337/337/337 339/339/339 340/340/340
f 341/341/341 342/342/342 343/343/343
f 341/341/341 343/343/343 344/344/344
f 345/345/345 346/346/346 347/347/347
f 345/345/345 347/347/347 348/348/348
f 349/349/349 350/350/350 351/351/351
f 349/349/349 351/351/351 352/352/352
f 353/353/353 354/354/354 355/355/355
f 353/353/353 355/355/355 356/356/356
f 357/357/357 358/358/358 359/359/359
f 357/357/357 359/359/359 360/360/360
f 361/361/361 362/362/362 363/363/363
f 361/361/361 363/363/363 364/364/364
f 365/365/365 366/366/366 367/367/367
f 365/365/365 367/367/367 368/368/368
f 369/369/369 370/370/370 371/371/371
f 369/369/369 371/371/371 372/372/372
f 373/373/373 374/374/374 375/375/375
f 373/373/373 375/375/375 376/376/376
f 377/377/377 378/378/378 379/379/379
f 377/377/377 379/379/379 380/380/380
f 381/381/381 382/382/382 383/383/383
f 381/381/381 383/383/383 384/384/384
