# Sinh tự động bởi tools/mesh_kit.py - đừng sửa tay
o pz_tin_box
v 0.1100 -0.0350 0.0700
v 0.1100 -0.0350 -0.0700
v 0.1100 -0.0310 -0.0700
v 0.1100 -0.0310 0.0700
v -0.1100 -0.0350 -0.0700
v -0.1100 -0.0350 0.0700
v -0.1100 -0.0310 0.0700
v -0.1100 -0.0310 -0.0700
v -0.1100 -0.0310 0.0700
v 0.1100 -0.0310 0.0700
v 0.1100 -0.0310 -0.0700
v -0.1100 -0.0310 -0.0700
v -0.1100 -0.0350 -0.0700
v 0.1100 -0.0350 -0.0700
v 0.1100 -0.0350 0.0700
v -0.1100 -0.0350 0.0700
v -0.1100 -0.0350 0.0700
v 0.1100 -0.0350 0.0700
v 0.1100 -0.0310 0.0700
v -0.1100 -0.0310 0.0700
v 0.1100 -0.0350 -0.0700
v -0.1100 -0.0350 -0.0700
v -0.1100 -0.0310 -0.0700
v 0.1100 -0.0310 -0.0700
v -0.1060 -0.0350 0.0700
v -0.1060 -0.0350 -0.0700
v -0.1060 0.0350 -0.0700
v -0.1060 0.0350 0.0700
v -0.1100 -0.0350 -0.0700
v -0.1100 -0.0350 0.0700
v -0.1100 0.0350 0.0700
v -0.1100 0.0350 -0.0700
v -0.1100 0.0350 0.0700
v -0.1060 0.0350 0.0700
v -0.1060 0.0350 -0.0700
v -0.1100 0.0350 -0.0700
v -0.1100 -0.0350 -0.0700
v -0.1060 -0.0350 -0.0700
v -0.1060 -0.0350 0.0700
v -0.1100 -0.0350 0.0700
v -0.1100 -0.0350 0.0700
v -0.1060 -0.0350 0.0700
v -0.1060 0.0350 0.0700
v -0.1100 0.0350 0.0700
v -0.1060 -0.0350 -0.0700
v -0.1100 -0.0350 -0.0700
v -0.1100 0.0350 -0.0700
v -0.1060 0.0350 -0.0700
v 0.1100 -0.0350 0.0700
v 0.1100 -0.0350 -0.0700
v 0.1100 0.0350 -0.0700
v 0.1100 0.0350 0.0700
v 0.1060 -0.0350 -0.0700
v 0.1060 -0.0350 0.0700
v 0.1060 0.0350 0.0700
v 0.1060 0.0350 -0.0700
v 0.1060 0.0350 0.0700
v 0.1100 0.0350 0.0700
v 0.1100 0.0350 -0.0700
v 0.1060 0.0350 -0.0700
v 0.1060 -0.0350 -0.0700
v 0.1100 -0.0350 -0.0700
v 0.1100 -0.0350 0.0700
v 0.1060 -0.0350 0.0700
v 0.1060 -0.0350 0.0700
v 0.1100 -0.0350 0.0700
v 0.1100 0.0350 0.0700
v 0.1060 0.0350 0.0700
v 0.1100 -0.0350 -0.0700
v 0.1060 -0.0350 -0.0700
v 0.1060 0.0350 -0.0700
v 0.1100 0.0350 -0.0700
v 0.1060 -0.0350 -0.0660
v 0.1060 -0.0350 -0.0700
v 0.1060 0.0350 -0.0700
v 0.1060 0.0350 -0.0660
v -0.1060 -0.0350 -0.0700
v -0.1060 -0.0350 -0.0660
v -0.1060 0.0350 -0.0660
v -0.1060 0.0350 -0.0700
v -0.1060 0.0350 -0.0660
v 0.1060 0.0350 -0.0660
v 0.1060 0.0350 -0.0700
v -0.1060 0.0350 -0.0700
v -0.1060 -0.0350 -0.0700
v 0.1060 -0.0350 -0.0700
v 0.1060 -0.0350 -0.0660
v -0.1060 -0.0350 -0.0660
v -0.1060 -0.0350 -0.0660
v 0.1060 -0.0350 -0.0660
v 0.1060 0.0350 -0.0660
v -0.1060 0.0350 -0.0660
v 0.1060 -0.0350 -0.0700
v -0.1060 -0.0350 -0.0700
v -0.1060 0.0350 -0.0700
v 0.1060 0.0350 -0.0700
v 0.1060 -0.0350 0.0700
v 0.1060 -0.0350 0.0660
v 0.1060 0.0350 0.0660
v 0.1060 0.0350 0.0700
v -0.1060 -0.0350 0.0660
v -0.1060 -0.0350 0.0700
v -0.1060 0.0350 0.0700
v -0.1060 0.0350 0.0660
v -0.1060 0.0350 0.0700
v 0.1060 0.0350 0.0700
v 0.1060 0.0350 0.0660
v -0.1060 0.0350 0.0660
v -0.1060 -0.0350 0.0660
v 0.1060 -0.0350 0.0660
v 0.1060 -0.0350 0.0700
v -0.1060 -0.0350 0.0700
v -0.1060 -0.0350 0.0700
v 0.1060 -0.0350 0.0700
v 0.1060 0.0350 0.0700
v -0.1060 0.0350 0.0700
v 0.1060 -0.0350 0.0660
v -0.1060 -0.0350 0.0660
v -0.1060 0.0350 0.0660
v 0.1060 0.0350 0.0660
v 0.1112 -0.0202 0.0712
v 0.1114 -0.0204 0.0700
v 0.1114 -0.0204 -0.0700
v 0.1112 -0.0202 -0.0712
v 0.1114 -0.0190 0.0714
v 0.1120 -0.0190 0.0700
v 0.1120 -0.0190 -0.0700
v 0.1114 -0.0190 -0.0714
v 0.1114 -0.0170 0.0714
v 0.1120 -0.0170 0.0700
v 0.1120 -0.0170 -0.0700
v 0.1114 -0.0170 -0.0714
v 0.1112 -0.0158 0.0712
v 0.1114 -0.0156 0.0700
v 0.1114 -0.0156 -0.0700
v 0.1112 -0.0158 -0.0712
v -0.1112 -0.0202 -0.0712
v -0.1114 -0.0204 -0.0700
v -0.1114 -0.0204 0.0700
v -0.1112 -0.0202 0.0712
v -0.1114 -0.0190 -0.0714
v -0.1120 -0.0190 -0.0700
v -0.1120 -0.0190 0.0700
v -0.1114 -0.0190 0.0714
v -0.1114 -0.0170 -0.0714
v -0.1120 -0.0170 -0.0700
v -0.1120 -0.0170 0.0700
v -0.1114 -0.0170 0.0714
v -0.1112 -0.0158 -0.0712
v -0.1114 -0.0156 -0.0700
v -0.1114 -0.0156 0.0700
v -0.1112 -0.0158 0.0712
v -0.1112 -0.0158 0.0712
v -0.1100 -0.0156 0.0714
v 0.1100 -0.0156 0.0714
v 0.1112 -0.0158 0.0712
v -0.1114 -0.0156 0.0700
v -0.1100 -0.0150 0.0700
v 0.1100 -0.0150 0.0700
v 0.1114 -0.0156 0.0700
v -0.1114 -0.0156 -0.0700
v -0.1100 -0.0150 -0.0700
v 0.1100 -0.0150 -0.0700
v 0.1114 -0.0156 -0.0700
v -0.1112 -0.0158 -0.0712
v -0.1100 -0.0156 -0.0714
v 0.1100 -0.0156 -0.0714
v 0.1112 -0.0158 -0.0712
v -0.1112 -0.0202 -0.0712
v -0.1100 -0.0204 -0.0714
v 0.1100 -0.0204 -0.0714
v 0.1112 -0.0202 -0.0712
v -0.1114 -0.0204 -0.0700
v -0.1100 -0.0210 -0.0700
v 0.1100 -0.0210 -0.0700
v 0.1114 -0.0204 -0.0700
v -0.1114 -0.0204 0.0700
v -0.1100 -0.0210 0.0700
v 0.1100 -0.0210 0.0700
v 0.1114 -0.0204 0.0700
v -0.1112 -0.0202 0.0712
v -0.1100 -0.0204 0.0714
v 0.1100 -0.0204 0.0714
v 0.1112 -0.0202 0.0712
v -0.1112 -0.0202 0.0712
v -0.1100 -0.0204 0.0714
v 0.1100 -0.0204 0.0714
v 0.1112 -0.0202 0.0712
v -0.1114 -0.0190 0.0714
v -0.1100 -0.0190 0.0720
v 0.1100 -0.0190 0.0720
v 0.1114 -0.0190 0.0714
v -0.1114 -0.0170 0.0714
v -0.1100 -0.0170 0.0720
v 0.1100 -0.0170 0.0720
v 0.1114 -0.0170 0.0714
v -0.1112 -0.0158 0.0712
v -0.1100 -0.0156 0.0714
v 0.1100 -0.0156 0.0714
v 0.1112 -0.0158 0.0712
v 0.1112 -0.0202 -0.0712
v 0.1100 -0.0204 -0.0714
v -0.1100 -0.0204 -0.0714
v -0.1112 -0.0202 -0.0712
v 0.1114 -0.0190 -0.0714
v 0.1100 -0.0190 -0.0720
v -0.1100 -0.0190 -0.0720
v -0.1114 -0.0190 -0.0714
v 0.1114 -0.0170 -0.0714
v 0.1100 -0.0170 -0.0720
v -0.1100 -0.0170 -0.0720
v -0.1114 -0.0170 -0.0714
v 0.1112 -0.0158 -0.0712
v 0.1100 -0.0156 -0.0714
v -0.1100 -0.0156 -0.0714
v -0.1112 -0.0158 -0.0712
v 0.1112 0.0098 0.0712
v 0.1114 0.0096 0.0700
v 0.1114 0.0096 -0.0700
v 0.1112 0.0098 -0.0712
v 0.1114 0.0110 0.0714
v 0.1120 0.0110 0.0700
v 0.1120 0.0110 -0.0700
v 0.1114 0.0110 -0.0714
v 0.1114 0.0130 0.0714
v 0.1120 0.0130 0.0700
v 0.1120 0.0130 -0.0700
v 0.1114 0.0130 -0.0714
v 0.1112 0.0142 0.0712
v 0.1114 0.0144 0.0700
v 0.1114 0.0144 -0.0700
v 0.1112 0.0142 -0.0712
v -0.1112 0.0098 -0.0712
v -0.1114 0.0096 -0.0700
v -0.1114 0.0096 0.0700
v -0.1112 0.0098 0.0712
v -0.1114 0.0110 -0.0714
v -0.1120 0.0110 -0.0700
v -0.1120 0.0110 0.0700
v -0.1114 0.0110 0.0714
v -0.1114 0.0130 -0.0714
v -0.1120 0.0130 -0.0700
v -0.1120 0.0130 0.0700
v -0.1114 0.0130 0.0714
v -0.1112 0.0142 -0.0712
v -0.1114 0.0144 -0.0700
v -0.1114 0.0144 0.0700
v -0.1112 0.0142 0.0712
v -0.1112 0.0142 0.0712
v -0.1100 0.0144 0.0714
v 0.1100 0.0144 0.0714
v 0.1112 0.0142 0.0712
v -0.1114 0.0144 0.0700
v -0.1100 0.0150 0.0700
v 0.1100 0.0150 0.0700
v 0.1114 0.0144 0.0700
v -0.1114 0.0144 -0.0700
v -0.1100 0.0150 -0.0700
v 0.1100 0.0150 -0.0700
v 0.1114 0.0144 -0.0700
v -0.1112 0.0142 -0.0712
v -0.1100 0.0144 -0.0714
v 0.1100 0.0144 -0.0714
v 0.1112 0.0142 -0.0712
v -0.1112 0.0098 -0.0712
v -0.1100 0.0096 -0.0714
v 0.1100 0.0096 -0.0714
v 0.1112 0.0098 -0.0712
v -0.1114 0.0096 -0.0700
v -0.1100 0.0090 -0.0700
v 0.1100 0.0090 -0.0700
v 0.1114 0.0096 -0.0700
v -0.1114 0.0096 0.0700
v -0.1100 0.0090 0.0700
v 0.1100 0.0090 0.0700
v 0.1114 0.0096 0.0700
v -0.1112 0.0098 0.0712
v -0.1100 0.0096 0.0714
v 0.1100 0.0096 0.0714
v 0.1112 0.0098 0.0712
v -0.1112 0.0098 0.0712
v -0.1100 0.0096 0.0714
v 0.1100 0.0096 0.0714
v 0.1112 0.0098 0.0712
v -0.1114 0.0110 0.0714
v -0.1100 0.0110 0.0720
v 0.1100 0.0110 0.0720
v 0.1114 0.0110 0.0714
v -0.1114 0.0130 0.0714
v -0.1100 0.0130 0.0720
v 0.1100 0.0130 0.0720
v 0.1114 0.0130 0.0714
v -0.1112 0.0142 0.0712
v -0.1100 0.0144 0.0714
v 0.1100 0.0144 0.0714
v 0.1112 0.0142 0.0712
v 0.1112 0.0098 -0.0712
v 0.1100 0.0096 -0.0714
v -0.1100 0.0096 -0.0714
v -0.1112 0.0098 -0.0712
v 0.1114 0.0110 -0.0714
v 0.1100 0.0110 -0.0720
v -0.1100 0.0110 -0.0720
v -0.1114 0.0110 -0.0714
v 0.1114 0.0130 -0.0714
v 0.1100 0.0130 -0.0720
v -0.1100 0.0130 -0.0720
v -0.1114 0.0130 -0.0714
v 0.1112 0.0142 -0.0712
v 0.1100 0.0144 -0.0714
v -0.1100 0.0144 -0.0714
v -0.1112 0.0142 -0.0712
v -0.1000 0.0390 -0.0720
v -0.1000 0.0378 -0.0692
v -0.1000 0.0350 -0.0680
v -0.1000 0.0322 -0.0692
v -0.1000 0.0310 -0.0720
v -0.1000 0.0322 -0.0748
v -0.1000 0.0350 -0.0760
v -0.1000 0.0378 -0.0748
v -0.1000 0.0390 -0.0720
v 0.1000 0.0390 -0.0720
v 0.1000 0.0378 -0.0692
v 0.1000 0.0350 -0.0680
v 0.1000 0.0322 -0.0692
v 0.1000 0.0310 -0.0720
v 0.1000 0.0322 -0.0748
v 0.1000 0.0350 -0.0760
v 0.1000 0.0378 -0.0748
v 0.1000 0.0390 -0.0720
v -0.1000 0.0350 -0.0720
v -0.1000 0.0390 -0.0720
v -0.1000 0.0378 -0.0692
v -0.1000 0.0350 -0.0680
v -0.1000 0.0322 -0.0692
v -0.1000 0.0310 -0.0720
v -0.1000 0.0322 -0.0748
v -0.1000 0.0350 -0.0760
v -0.1000 0.0378 -0.0748
v 0.1000 0.0350 -0.0720
v 0.1000 0.0390 -0.0720
v 0.1000 0.0378 -0.0692
v 0.1000 0.0350 -0.0680
v 0.1000 0.0322 -0.0692
v 0.1000 0.0310 -0.0720
v 0.1000 0.0322 -0.0748
v 0.1000 0.0350 -0.0760
v 0.1000 0.0378 -0.0748
vt 0.0000 0.0000
vt 0.1400 0.0000
vt 0.1400 0.0040
vt 0.0000 0.0040
vt 0.0000 0.0000
vt 0.1400 0.0000
vt 0.1400 0.0040
vt 0.0000 0.0040
vt 0.0000 0.0000
vt 0.2200 0.0000
vt 0.2200 0.1400
vt 0.0000 0.1400
vt 0.0000 0.0000
vt 0.2200 0.0000
vt 0.2200 0.1400
vt 0.0000 0.1400
vt 0.0000 0.0000
vt 0.2200 0.0000
vt 0.2200 0.0040
vt 0.0000 0.0040
vt 0.0000 0.0000
vt 0.2200 0.0000
vt 0.2200 0.0040
vt 0.0000 0.0040
vt 0.0000 0.0000
vt 0.1400 0.0000
vt 0.1400 0.0700
vt 0.0000 0.0700
vt 0.0000 0.0000
vt 0.1400 0.0000
vt 0.1400 0.0700
vt 0.0000 0.0700
vt 0.0000 0.0000
vt 0.0040 0.0000
vt 0.0040 0.1400
vt 0.0000 0.1400
vt 0.0000 0.0000
vt 0.0040 0.0000
vt 0.0040 0.1400
vt 0.0000 0.1400
vt 0.0000 0.0000
vt 0.0040 0.0000
vt 0.0040 0.0700
vt 0.0000 0.0700
vt 0.0000 0.0000
vt 0.0040 0.0000
vt 0.0040 0.0700
vt 0.0000 0.0700
vt 0.0000 0.0000
vt 0.1400 0.0000
vt 0.1400 0.0700
vt 0.0000 0.0700
vt 0.0000 0.0000
vt 0.1400 0.0000
vt 0.1400 0.0700
vt 0.0000 0.0700
vt 0.0000 0.0000
vt 0.0040 0.0000
vt 0.0040 0.1400
vt 0.0000 0.1400
vt 0.0000 0.0000
vt 0.0040 0.0000
vt 0.0040 0.1400
vt 0.0000 0.1400
vt 0.0000 0.0000
vt 0.0040 0.0000
vt 0.0040 0.0700
vt 0.0000 0.0700
vt 0.0000 0.0000
vt 0.0040 0.0000
vt 0.0040 0.0700
vt 0.0000 0.0700
vt 0.0000 0.0000
vt 0.0040 0.0000
vt 0.0040 0.0700
vt 0.0000 0.0700
vt 0.0000 0.0000
vt 0.0040 0.0000
vt 0.0040 0.0700
vt 0.0000 0.0700
vt 0.0000 0.0000
vt 0.2120 0.0000
vt 0.2120 0.0040
vt 0.0000 0.0040
vt 0.0000 0.0000
vt 0.2120 0.0000
vt 0.2120 0.0040
vt 0.0000 0.0040
vt 0.0000 0.0000
vt 0.2120 0.0000
vt 0.2120 0.0700
vt 0.0000 0.0700
vt 0.0000 0.0000
vt 0.2120 0.0000
vt 0.2120 0.0700
vt 0.0000 0.0700
vt 0.0000 0.0000
vt 0.0040 0.0000
vt 0.0040 0.0700
vt 0.0000 0.0700
vt 0.0000 0.0000
vt 0.0040 0.0000
vt 0.0040 0.0700
vt 0.0000 0.0700
vt 0.0000 0.0000
vt 0.2120 0.0000
vt 0.2120 0.0040
vt 0.0000 0.0040
vt 0.0000 0.0000
vt 0.2120 0.0000
vt 0.2120 0.0040
vt 0.0000 0.0040
vt 0.0000 0.0000
vt 0.2120 0.0000
vt 0.2120 0.0700
vt 0.0000 0.0700
vt 0.0000 0.0000
vt 0.2120 0.0000
vt 0.2120 0.0700
vt 0.0000 0.0700
vt 0.0000 0.0000
vt 0.0020 0.0000
vt 0.1420 0.0000
vt 0.1440 0.0000
vt 0.0000 0.0020
vt 0.0020 0.0020
vt 0.1420 0.0020
vt 0.1440 0.0020
vt 0.0000 0.0040
vt 0.0020 0.0040
vt 0.1420 0.0040
vt 0.1440 0.0040
vt 0.0000 0.0060
vt 0.0020 0.0060
vt 0.1420 0.0060
vt 0.1440 0.0060
vt 0.0000 0.0000
vt 0.0020 0.0000
vt 0.1420 0.0000
vt 0.1440 0.0000
vt 0.0000 0.0020
vt 0.0020 0.0020
vt 0.1420 0.0020
vt 0.1440 0.0020
vt 0.0000 0.0040
vt 0.0020 0.0040
vt 0.1420 0.0040
vt 0.1440 0.0040
vt 0.0000 0.0060
vt 0.0020 0.0060
vt 0.1420 0.0060
vt 0.1440 0.0060
vt 0.0000 0.0000
vt 0.0020 0.0000
vt 0.2220 0.0000
vt 0.2240 0.0000
vt 0.0000 0.0020
vt 0.0020 0.0020
vt 0.2220 0.0020
vt 0.2240 0.0020
vt 0.0000 0.1420
vt 0.0020 0.1420
vt 0.2220 0.1420
vt 0.2240 0.1420
vt 0.0000 0.1440
vt 0.0020 0.1440
vt 0.2220 0.1440
vt 0.2240 0.1440
vt 0.0000 0.0000
vt 0.0020 0.0000
vt 0.2220 0.0000
vt 0.2240 0.0000
vt 0.0000 0.0020
vt 0.0020 0.0020
vt 0.2220 0.0020
vt 0.2240 0.0020
vt 0.0000 0.1420
vt 0.0020 0.1420
vt 0.2220 0.1420
vt 0.2240 0.1420
vt 0.0000 0.1440
vt 0.0020 0.1440
vt 0.2220 0.1440
vt 0.2240 0.1440
vt 0.0000 0.0000
vt 0.0020 0.0000
vt 0.2220 0.0000
vt 0.2240 0.0000
vt 0.0000 0.0020
vt 0.0020 0.0020
vt 0.2220 0.0020
vt 0.2240 0.0020
vt 0.0000 0.0040
vt 0.0020 0.0040
vt 0.2220 0.0040
vt 0.2240 0.0040
vt 0.0000 0.0060
vt 0.0020 0.0060
vt 0.2220 0.0060
vt 0.2240 0.0060
vt 0.0000 0.0000
vt 0.0020 0.0000
vt 0.2220 0.0000
vt 0.2240 0.0000
vt 0.0000 0.0020
vt 0.0020 0.0020
vt 0.2220 0.0020
vt 0.2240 0.0020
vt 0.0000 0.0040
vt 0.0020 0.0040
vt 0.2220 0.0040
vt 0.2240 0.0040
vt 0.0000 0.0060
vt 0.0020 0.0060
vt 0.2220 0.0060
vt 0.2240 0.0060
vt 0.0000 0.0000
vt 0.0020 0.0000
vt 0.1420 0.0000
vt 0.1440 0.0000
vt 0.0000 0.0020
vt 0.0020 0.0020
vt 0.1420 0.0020
vt 0.1440 0.0020
vt 0.0000 0.0040
vt 0.0020 0.0040
vt 0.1420 0.0040
vt 0.1440 0.0040
vt 0.0000 0.0060
vt 0.0020 0.0060
vt 0.1420 0.0060
vt 0.1440 0.0060
vt 0.0000 0.0000
vt 0.0020 0.0000
vt 0.1420 0.0000
vt 0.1440 0.0000
vt 0.0000 0.0020
vt 0.0020 0.0020
vt 0.1420 0.0020
vt 0.1440 0.0020
vt 0.0000 0.0040
vt 0.0020 0.0040
vt 0.1420 0.0040
vt 0.1440 0.0040
vt 0.0000 0.0060
vt 0.0020 0.0060
vt 0.1420 0.0060
vt 0.1440 0.0060
vt 0.0000 0.0000
vt 0.0020 0.0000
vt 0.2220 0.0000
vt 0.2240 0.0000
vt 0.0000 0.0020
vt 0.0020 0.0020
vt 0.2220 0.0020
vt 0.2240 0.0020
vt 0.0000 0.1420
vt 0.0020 0.1420
vt 0.2220 0.1420
vt 0.2240 0.1420
vt 0.0000 0.1440
vt 0.0020 0.1440
vt 0.2220 0.1440
vt 0.2240 0.1440
vt 0.0000 0.0000
vt 0.0020 0.0000
vt 0.2220 0.0000
vt 0.2240 0.0000
vt 0.0000 0.0020
vt 0.0020 0.0020
vt 0.2220 0.0020
vt 0.2240 0.0020
vt 0.0000 0.1420
vt 0.0020 0.1420
vt 0.2220 0.1420
vt 0.2240 0.1420
vt 0.0000 0.1440
vt 0.0020 0.1440
vt 0.2220 0.1440
vt 0.2240 0.1440
vt 0.0000 0.0000
vt 0.0020 0.0000
vt 0.2220 0.0000
vt 0.2240 0.0000
vt 0.0000 0.0020
vt 0.0020 0.0020
vt 0.2220 0.0020
vt 0.2240 0.0020
vt 0.0000 0.0040
vt 0.0020 0.0040
vt 0.2220 0.0040
vt 0.2240 0.0040
vt 0.0000 0.0060
vt 0.0020 0.0060
vt 0.2220 0.0060
vt 0.2240 0.0060
vt 0.0000 0.0000
vt 0.0020 0.0000
vt 0.2220 0.0000
vt 0.2240 0.0000
vt 0.0000 0.0020
vt 0.0020 0.0020
vt 0.2220 0.0020
vt 0.2240 0.0020
vt 0.0000 0.0040
vt 0.0020 0.0040
vt 0.2220 0.0040
vt 0.2240 0.0040
vt 0.0000 0.0060
vt 0.0020 0.0060
vt 0.2220 0.0060
vt 0.2240 0.0060
vt 0.0000 0.0000
vt 0.0000 0.0031
vt 0.0000 0.0063
vt 0.0000 0.0094
vt 0.0000 0.0126
vt 0.0000 0.0157
vt 0.0000 0.0188
vt 0.0000 0.0220
vt 0.0000 0.0251
vt 0.2000 0.0000
vt 0.2000 0.0031
vt 0.2000 0.0063
vt 0.2000 0.0094
vt 0.2000 0.0126
vt 0.2000 0.0157
vt 0.2000 0.0188
vt 0.2000 0.0220
vt 0.2000 0.0251
vt 0.0000 0.0000
vt 0.0040 0.0000
vt 0.0028 0.0028
vt 0.0000 0.0040
vt -0.0028 0.0028
vt -0.0040 0.0000
vt -0.0028 -0.0028
vt -0.0000 -0.0040
vt 0.0028 -0.0028
vt 0.0000 0.0000
vt 0.0040 0.0000
vt 0.0028 0.0028
vt 0.0000 0.0040
vt -0.0028 0.0028
vt -0.0040 0.0000
vt -0.0028 -0.0028
vt -0.0000 -0.0040
vt 0.0028 -0.0028
vn 1.000 0.000 0.000
vn 1.000 0.000 0.000
vn 1.000 0.000 0.000
vn 1.000 0.000 0.000
vn -1.000 0.000 0.000
vn -1.000 0.000 0.000
vn -1.000 0.000 0.000
vn -1.000 0.000 0.000
vn 0.000 1.000 0.000
vn 0.000 1.000 0.000
vn 0.000 1.000 0.000
vn 0.000 1.000 0.000
vn 0.000 -1.000 0.000
vn 0.000 -1.000 0.000
vn 0.000 -1.000 0.000
vn 0.000 -1.000 0.000
vn 0.000 0.000 1.000
vn 0.000 0.000 1.000
vn 0.000 0.000 1.000
vn 0.000 0.000 1.000
vn 0.000 0.000 -1.000
vn 0.000 0.000 -1.000
vn 0.000 0.000 -1.000
vn 0.000 0.000 -1.000
vn 1.000 0.000 0.000
vn 1.000 0.000 0.000
vn 1.000 0.000 0.000
vn 1.000 0.000 0.000
vn -1.000 0.000 0.000
vn -1.000 0.000 0.000
vn -1.000 0.000 0.000
vn -1.000 0.000 0.000
vn 0.000 1.000 0.000
vn 0.000 1.000 0.000
vn 0.000 1.000 0.000
vn 0.000 1.000 0.000
vn 0.000 -1.000 0.000
vn 0.000 -1.000 0.000
vn 0.000 -1.000 0.000
vn 0.000 -1.000 0.000
vn 0.000 0.000 1.000
vn 0.000 0.000 1.000
vn 0.000 0.000 1.000
vn 0.000 0.000 1.000
vn 0.000 0.000 -1.000
vn 0.000 0.000 -1.000
vn 0.000 0.000 -1.000
vn 0.000 0.000 -1.000
vn 1.000 0.000 0.000
vn 1.000 0.000 0.000
vn 1.000 0.000 0.000
vn 1.000 0.000 0.000
vn -1.000 0.000 0.000
vn -1.000 0.000 0.000
vn -1.000 0.000 0.000
vn -1.000 0.000 0.000
vn 0.000 1.000 0.000
vn 0.000 1.000 0.000
vn 0.000 1.000 0.000
vn 0.000 1.000 0.000
vn 0.000 -1.000 0.000
vn 0.000 -1.000 0.000
vn 0.000 -1.000 0.000
vn 0.000 -1.000 0.000
vn 0.000 0.000 1.000
vn 0.000 0.000 1.000
vn 0.000 0.000 1.000
vn 0.000 0.000 1.000
vn 0.000 0.000 -1.000
vn 0.000 0.000 -1.000
vn 0.000 0.000 -1.000
vn 0.000 0.000 -1.000
vn 1.000 0.000 0.000
vn 1.000 0.000 0.000
vn 1.000 0.000 0.000
vn 1.000 0.000 0.000
vn -1.000 0.000 0.000
vn -1.000 0.000 0.000
vn -1.000 0.000 0.000
vn -1.000 0.000 0.000
vn 0.000 1.000 0.000
vn 0.000 1.000 0.000
vn 0.000 1.000 0.000
vn 0.000 1.000 0.000
vn 0.000 -1.000 0.000
vn 0.000 -1.000 0.000
vn 0.000 -1.000 0.000
vn 0.000 -1.000 0.000
vn 0.000 0.000 1.000
vn 0.000 0.000 1.000
vn 0.000 0.000 1.000
vn 0.000 0.000 1.000
vn 0.000 0.000 -1.000
vn 0.000 0.000 -1.000
vn 0.000 0.000 -1.000
vn 0.000 0.000 -1.000
vn 1.000 0.000 0.000
vn 1.000 0.000 0.000
vn 1.000 0.000 0.000
vn 1.000 0.000 0.000
vn -1.000 0.000 0.000
vn -1.000 0.000 0.000
vn -1.000 0.000 0.000
vn -1.000 0.000 0.000
vn 0.000 1.000 0.000
vn 0.000 1.000 0.000
vn 0.000 1.000 0.000
vn 0.000 1.000 0.000
vn 0.000 -1.000 0.000
vn 0.000 -1.000 0.000
vn 0.000 -1.000 0.000
vn 0.000 -1.000 0.000
vn 0.000 0.000 1.000
vn 0.000 0.000 1.000
vn 0.000 0.000 1.000
vn 0.000 0.000 1.000
vn 0.000 0.000 -1.000
vn 0.000 0.000 -1.000
vn 0.000 0.000 -1.000
vn 0.000 0.000 -1.000
vn 0.577 -0.577 0.577
vn 0.707 -0.707 0.000
vn 0.707 -0.707 0.000
vn 0.577 -0.577 -0.577
vn 0.707 0.000 0.707
vn 1.000 0.000 0.000
vn 1.000 0.000 0.000
vn 0.707 0.000 -0.707
vn 0.707 0.000 0.707
vn 1.000 0.000 0.000
vn 1.000 0.000 0.000
vn 0.707 0.000 -0.707
vn 0.577 0.577 0.577
vn 0.707 0.707 0.000
vn 0.707 0.707 0.000
vn 0.577 0.577 -0.577
vn -0.577 -0.577 -0.577
vn -0.707 -0.707 0.000
vn -0.707 -0.707 0.000
vn -0.577 -0.577 0.577
vn -0.707 0.000 -0.707
vn -1.000 0.000 0.000
vn -1.000 0.000 0.000
vn -0.707 0.000 0.707
vn -0.707 0.000 -0.707
vn -1.000 0.000 0.000
vn -1.000 0.000 0.000
vn -0.707 0.000 0.707
vn -0.577 0.577 -0.577
vn -0.707 0.707 0.000
vn -0.707 0.707 0.000
vn -0.577 0.577 0.577
vn -0.577 0.577 0.577
vn 0.000 0.707 0.707
vn 0.000 0.707 0.707
vn 0.577 0.577 0.577
vn -0.707 0.707 0.000
vn 0.000 1.000 0.000
vn 0.000 1.000 0.000
vn 0.707 0.707 0.000
vn -0.707 0.707 0.000
vn 0.000 1.000 0.000
vn 0.000 1.000 0.000
vn 0.707 0.707 0.000
vn -0.577 0.577 -0.577
vn 0.000 0.707 -0.707
vn 0.000 0.707 -0.707
vn 0.577 0.577 -0.577
vn -0.577 -0.577 -0.577
vn 0.000 -0.707 -0.707
vn 0.000 -0.707 -0.707
vn 0.577 -0.577 -0.577
vn -0.707 -0.707 0.000
vn 0.000 -1.000 0.000
vn 0.000 -1.000 0.000
vn 0.707 -0.707 0.000
vn -0.707 -0.707 0.000
vn 0.000 -1.000 0.000
vn 0.000 -1.000 0.000
vn 0.707 -0.707 0.000
vn -0.577 -0.577 0.577
vn 0.000 -0.707 0.707
vn 0.000 -0.707 0.707
vn 0.577 -0.577 0.577
vn -0.577 -0.577 0.577
vn 0.000 -0.707 0.707
vn 0.000 -0.707 0.707
vn 0.577 -0.577 0.577
vn -0.707 0.000 0.707
vn 0.000 0.000 1.000
vn 0.000 0.000 1.000
vn 0.707 0.000 0.707
vn -0.707 0.000 0.707
vn 0.000 0.000 1.000
vn 0.000 0.000 1.000
vn 0.707 0.000 0.707
vn -0.577 0.577 0.577
vn 0.000 0.707 0.707
vn 0.000 0.707 0.707
vn 0.577 0.577 0.577
vn 0.577 -0.577 -0.577
vn 0.000 -0.707 -0.707
vn 0.000 -0.707 -0.707
vn -0.577 -0.577 -0.577
vn 0.707 0.000 -0.707
vn 0.000 0.000 -1.000
vn 0.000 0.000 -1.000
vn -0.707 0.000 -0.707
vn 0.707 0.000 -0.707
vn 0.000 0.000 -1.000
vn 0.000 0.000 -1.000
vn -0.707 0.000 -0.707
vn 0.577 0.577 -0.577
vn 0.000 0.707 -0.707
vn 0.000 0.707 -0.707
vn -0.577 0.577 -0.577
vn 0.577 -0.577 0.577
vn 0.707 -0.707 0.000
vn 0.707 -0.707 0.000
vn 0.577 -0.577 -0.577
vn 0.707 0.000 0.707
vn 1.000 0.000 0.000
vn 1.000 0.000 0.000
vn 0.707 0.000 -0.707
vn 0.707 0.000 0.707
vn 1.000 0.000 0.000
vn 1.000 0.000 0.000
vn 0.707 0.000 -0.707
vn 0.577 0.577 0.577
vn 0.707 0.707 0.000
vn 0.707 0.707 0.000
vn 0.577 0.577 -0.577
vn -0.577 -0.577 -0.577
vn -0.707 -0.707 0.000
vn -0.707 -0.707 0.000
vn -0.577 -0.577 0.577
vn -0.707 0.000 -0.707
vn -1.000 0.000 0.000
vn -1.000 0.000 0.000
vn -0.707 0.000 0.707
vn -0.707 0.000 -0.707
vn -1.000 0.000 0.000
vn -1.000 0.000 0.000
vn -0.707 0.000 0.707
vn -0.577 0.577 -0.577
vn -0.707 0.707 0.000
vn -0.707 0.707 0.000
vn -0.577 0.577 0.577
vn -0.577 0.577 0.577
vn 0.000 0.707 0.707
vn 0.000 0.707 0.707
vn 0.577 0.577 0.577
vn -0.707 0.707 0.000
vn 0.000 1.000 0.000
vn 0.000 1.000 0.000
vn 0.707 0.707 0.000
vn -0.707 0.707 0.000
vn 0.000 1.000 0.000
vn 0.000 1.000 0.000
vn 0.707 0.707 0.000
vn -0.577 0.577 -0.577
vn 0.000 0.707 -0.707
vn 0.000 0.707 -0.707
vn 0.577 0.577 -0.577
vn -0.577 -0.577 -0.577
vn 0.000 -0.707 -0.707
vn 0.000 -0.707 -0.707
vn 0.577 -0.577 -0.577
vn -0.707 -0.707 0.000
vn 0.000 -1.000 0.000
vn 0.000 -1.000 0.000
vn 0.707 -0.707 0.000
vn -0.707 -0.707 0.000
vn 0.000 -1.000 0.000
vn 0.000 -1.000 0.000
vn 0.707 -0.707 0.000
vn -0.577 -0.577 0.577
vn 0.000 -0.707 0.707
vn 0.000 -0.707 0.707
vn 0.577 -0.577 0.577
vn -0.577 -0.577 0.577
vn 0.000 -0.707 0.707
vn 0.000 -0.707 0.707
vn 0.577 -0.577 0.577
vn -0.707 0.000 0.707
vn 0.000 0.000 1.000
vn 0.000 0.000 1.000
vn 0.707 0.000 0.707
vn -0.707 0.000 0.707
vn 0.000 0.000 1.000
vn 0.000 0.000 1.000
vn 0.707 0.000 0.707
vn -0.577 0.577 0.577
vn 0.000 0.707 0.707
vn 0.000 0.707 0.707
vn 0.577 0.577 0.577
vn 0.577 -0.577 -0.577
vn 0.000 -0.707 -0.707
vn 0.000 -0.707 -0.707
vn -0.577 -0.577 -0.577
vn 0.707 0.000 -0.707
vn 0.000 0.000 -1.000
vn 0.000 0.000 -1.000
vn -0.707 0.000 -0.707
vn 0.707 0.000 -0.707
vn 0.000 0.000 -1.000
vn 0.000 0.000 -1.000
vn -0.707 0.000 -0.707
vn 0.577 0.577 -0.577
vn 0.000 0.707 -0.707
vn 0.000 0.707 -0.707
vn -0.577 0.577 -0.577
vn 0.000 1.000 0.000
vn 0.000 0.707 0.707
vn 0.000 0.000 1.000
vn 0.000 -0.707 0.707
vn 0.000 -1.000 0.000
vn -0.000 -0.707 -0.707
vn -0.000 -0.000 -1.000
vn 0.000 0.707 -0.707
vn 0.000 1.000 -0.000
vn 0.000 1.000 0.000
vn 0.000 0.707 0.707
vn 0.000 0.000 1.000
vn 0.000 -0.707 0.707
vn 0.000 -1.000 0.000
vn -0.000 -0.707 -0.707
vn -0.000 -0.000 -1.000
vn 0.000 0.707 -0.707
vn 0.000 1.000 -0.000
vn -1.000 -0.000 -0.000
vn -1.000 -0.000 -0.000
vn -1.000 -0.000 -0.000
vn -1.000 -0.000 -0.000
vn -1.000 -0.000 -0.000
vn -1.000 -0.000 -0.000
vn -1.000 -0.000 -0.000
vn -1.000 -0.000 -0.000
vn -1.000 -0.000 -0.000
vn 1.000 0.000 0.000
vn 1.000 0.000 0.000
vn 1.000 0.000 0.000
vn 1.000 0.000 0.000
vn 1.000 0.000 0.000
vn 1.000 0.000 0.000
vn 1.000 0.000 0.000
vn 1.000 0.000 0.000
vn 1.000 0.000 0.000
v 0.0533 -0.0133 0.0843
v 0.0538 -0.0138 0.0820
v 0.0538 -0.0138 0.0740
v 0.0533 -0.0133 0.0717
v 0.0538 -0.0110 0.0848
v 0.0550 -0.0110 0.0820
v 0.0550 -0.0110 0.0740
v 0.0538 -0.0110 0.0712
v 0.0538 0.0110 0.0848
v 0.0550 0.0110 0.0820
v 0.0550 0.0110 0.0740
v 0.0538 0.0110 0.0712
v 0.0533 0.0133 0.0843
v 0.0538 0.0138 0.0820
v 0.0538 0.0138 0.0740
v 0.0533 0.0133 0.0717
v -0.0533 -0.0133 0.0717
v -0.0538 -0.0138 0.0740
v -0.0538 -0.0138 0.0820
v -0.0533 -0.0133 0.0843
v -0.0538 -0.0110 0.0712
v -0.0550 -0.0110 0.0740
v -0.0550 -0.0110 0.0820
v -0.0538 -0.0110 0.0848
v -0.0538 0.0110 0.0712
v -0.0550 0.0110 0.0740
v -0.0550 0.0110 0.0820
v -0.0538 0.0110 0.0848
v -0.0533 0.0133 0.0717
v -0.0538 0.0138 0.0740
v -0.0538 0.0138 0.0820
v -0.0533 0.0133 0.0843
v -0.0533 0.0133 0.0843
v -0.0510 0.0138 0.0848
v 0.0510 0.0138 0.0848
v 0.0533 0.0133 0.0843
v -0.0538 0.0138 0.0820
v -0.0510 0.0150 0.0820
v 0.0510 0.0150 0.0820
v 0.0538 0.0138 0.0820
v -0.0538 0.0138 0.0740
v -0.0510 0.0150 0.0740
v 0.0510 0.0150 0.0740
v 0.0538 0.0138 0.0740
v -0.0533 0.0133 0.0717
v -0.0510 0.0138 0.0712
v 0.0510 0.0138 0.0712
v 0.0533 0.0133 0.0717
v -0.0533 -0.0133 0.0717
v -0.0510 -0.0138 0.0712
v 0.0510 -0.0138 0.0712
v 0.0533 -0.0133 0.0717
v -0.0538 -0.0138 0.0740
v -0.0510 -0.0150 0.0740
v 0.0510 -0.0150 0.0740
v 0.0538 -0.0138 0.0740
v -0.0538 -0.0138 0.0820
v -0.0510 -0.0150 0.0820
v 0.0510 -0.0150 0.0820
v 0.0538 -0.0138 0.0820
v -0.0533 -0.0133 0.0843
v -0.0510 -0.0138 0.0848
v 0.0510 -0.0138 0.0848
v 0.0533 -0.0133 0.0843
v -0.0533 -0.0133 0.0843
v -0.0510 -0.0138 0.0848
v 0.0510 -0.0138 0.0848
v 0.0533 -0.0133 0.0843
v -0.0538 -0.0110 0.0848
v -0.0510 -0.0110 0.0860
v 0.0510 -0.0110 0.0860
v 0.0538 -0.0110 0.0848
v -0.0538 0.0110 0.0848
v -0.0510 0.0110 0.0860
v 0.0510 0.0110 0.0860
v 0.0538 0.0110 0.0848
v -0.0533 0.0133 0.0843
v -0.0510 0.0138 0.0848
v 0.0510 0.0138 0.0848
v 0.0533 0.0133 0.0843
v 0.0533 -0.0133 0.0717
v 0.0510 -0.0138 0.0712
v -0.0510 -0.0138 0.0712
v -0.0533 -0.0133 0.0717
v 0.0538 -0.0110 0.0712
v 0.0510 -0.0110 0.0700
v -0.0510 -0.0110 0.0700
v -0.0538 -0.0110 0.0712
v 0.0538 0.0110 0.0712
v 0.0510 0.0110 0.0700
v -0.0510 0.0110 0.0700
v -0.0538 0.0110 0.0712
v 0.0533 0.0133 0.0717
v 0.0510 0.0138 0.0712
v -0.0510 0.0138 0.0712
v -0.0533 0.0133 0.0717
v -0.0465 0.0360 0.0760
v -0.0483 0.0367 0.0790
v -0.0518 0.0367 0.0790
v -0.0535 0.0360 0.0760
v -0.0518 0.0353 0.0730
v -0.0483 0.0353 0.0730
v -0.0465 0.0360 0.0760
v -0.0465 0.0100 0.0820
v -0.0483 0.0107 0.0849
v -0.0518 0.0107 0.0849
v -0.0535 0.0100 0.0820
v -0.0518 0.0093 0.0791
v -0.0483 0.0093 0.0791
v -0.0465 0.0100 0.0820
v -0.0465 0.0040 0.0840
v -0.0483 0.0050 0.0869
v -0.0518 0.0050 0.0869
v -0.0535 0.0040 0.0840
v -0.0518 0.0030 0.0811
v -0.0483 0.0030 0.0811
v -0.0465 0.0040 0.0840
v -0.0500 0.0360 0.0760
v -0.0465 0.0360 0.0760
v -0.0483 0.0367 0.0790
v -0.0518 0.0367 0.0790
v -0.0535 0.0360 0.0760
v -0.0518 0.0353 0.0730
v -0.0483 0.0353 0.0730
v -0.0500 0.0040 0.0840
v -0.0465 0.0040 0.0840
v -0.0483 0.0050 0.0869
v -0.0518 0.0050 0.0869
v -0.0535 0.0040 0.0840
v -0.0518 0.0030 0.0811
v -0.0483 0.0030 0.0811
vt 0.0000 0.0000
vt 0.0040 0.0000
vt 0.0120 0.0000
vt 0.0160 0.0000
vt 0.0000 0.0040
vt 0.0040 0.0040
vt 0.0120 0.0040
vt 0.0160 0.0040
vt 0.0000 0.0260
vt 0.0040 0.0260
vt 0.0120 0.0260
vt 0.0160 0.0260
vt 0.0000 0.0300
vt 0.0040 0.0300
vt 0.0120 0.0300
vt 0.0160 0.0300
vt 0.0000 0.0000
vt 0.0040 0.0000
vt 0.0120 0.0000
vt 0.0160 0.0000
vt 0.0000 0.0040
vt 0.0040 0.0040
vt 0.0120 0.0040
vt 0.0160 0.0040
vt 0.0000 0.0260
vt 0.0040 0.0260
vt 0.0120 0.0260
vt 0.0160 0.0260
vt 0.0000 0.0300
vt 0.0040 0.0300
vt 0.0120 0.0300
vt 0.0160 0.0300
vt 0.0000 0.0000
vt 0.0040 0.0000
vt 0.1060 0.0000
vt 0.1100 0.0000
vt 0.0000 0.0040
vt 0.0040 0.0040
vt 0.1060 0.0040
vt 0.1100 0.0040
vt 0.0000 0.0120
vt 0.0040 0.0120
vt 0.1060 0.0120
vt 0.1100 0.0120
vt 0.0000 0.0160
vt 0.0040 0.0160
vt 0.1060 0.0160
vt 0.1100 0.0160
vt 0.0000 0.0000
vt 0.0040 0.0000
vt 0.1060 0.0000
vt 0.1100 0.0000
vt 0.0000 0.0040
vt 0.0040 0.0040
vt 0.1060 0.0040
vt 0.1100 0.0040
vt 0.0000 0.0120
vt 0.0040 0.0120
vt 0.1060 0.0120
vt 0.1100 0.0120
vt 0.0000 0.0160
vt 0.0040 0.0160
vt 0.1060 0.0160
vt 0.1100 0.0160
vt 0.0000 0.0000
vt 0.0040 0.0000
vt 0.1060 0.0000
vt 0.1100 0.0000
vt 0.0000 0.0040
vt 0.0040 0.0040
vt 0.1060 0.0040
vt 0.1100 0.0040
vt 0.0000 0.0260
vt 0.0040 0.0260
vt 0.1060 0.0260
vt 0.1100 0.0260
vt 0.0000 0.0300
vt 0.0040 0.0300
vt 0.1060 0.0300
vt 0.1100 0.0300
vt 0.0000 0.0000
vt 0.0040 0.0000
vt 0.1060 0.0000
vt 0.1100 0.0000
vt 0.0000 0.0040
vt 0.0040 0.0040
vt 0.1060 0.0040
vt 0.1100 0.0040
vt 0.0000 0.0260
vt 0.0040 0.0260
vt 0.1060 0.0260
vt 0.1100 0.0260
vt 0.0000 0.0300
vt 0.0040 0.0300
vt 0.1060 0.0300
vt 0.1100 0.0300
vt 0.0000 0.0000
vt 0.0000 0.0037
vt 0.0000 0.0073
vt 0.0000 0.0110
vt 0.0000 0.0147
vt 0.0000 0.0183
vt 0.0000 0.0220
vt 0.0267 0.0000
vt 0.0267 0.0037
vt 0.0267 0.0073
vt 0.0267 0.0110
vt 0.0267 0.0147
vt 0.0267 0.0183
vt 0.0267 0.0220
vt 0.0330 0.0000
vt 0.0330 0.0037
vt 0.0330 0.0073
vt 0.0330 0.0110
vt 0.0330 0.0147
vt 0.0330 0.0183
vt 0.0330 0.0220
vt 0.0000 0.0000
vt 0.0035 0.0000
vt 0.0018 0.0030
vt -0.0017 0.0030
vt -0.0035 0.0000
vt -0.0018 -0.0030
vt 0.0018 -0.0030
vt 0.0000 0.0000
vt 0.0035 0.0000
vt 0.0018 0.0030
vt -0.0017 0.0030
vt -0.0035 0.0000
vt -0.0018 -0.0030
vt 0.0018 -0.0030
vn 0.577 -0.577 0.577
vn 0.707 -0.707 0.000
vn 0.707 -0.707 0.000
vn 0.577 -0.577 -0.577
vn 0.707 0.000 0.707
vn 1.000 0.000 0.000
vn 1.000 0.000 0.000
vn 0.707 0.000 -0.707
vn 0.707 0.000 0.707
vn 1.000 0.000 0.000
vn 1.000 0.000 0.000
vn 0.707 0.000 -0.707
vn 0.577 0.577 0.577
vn 0.707 0.707 0.000
vn 0.707 0.707 0.000
vn 0.577 0.577 -0.577
vn -0.577 -0.577 -0.577
vn -0.707 -0.707 0.000
vn -0.707 -0.707 0.000
vn -0.577 -0.577 0.577
vn -0.707 0.000 -0.707
vn -1.000 0.000 0.000
vn -1.000 0.000 0.000
vn -0.707 0.000 0.707
vn -0.707 0.000 -0.707
vn -1.000 0.000 0.000
vn -1.000 0.000 0.000
vn -0.707 0.000 0.707
vn -0.577 0.577 -0.577
vn -0.707 0.707 0.000
vn -0.707 0.707 0.000
vn -0.577 0.577 0.577
vn -0.577 0.577 0.577
vn 0.000 0.707 0.707
vn 0.000 0.707 0.707
vn 0.577 0.577 0.577
vn -0.707 0.707 0.000
vn 0.000 1.000 0.000
vn 0.000 1.000 0.000
vn 0.707 0.707 0.000
vn -0.707 0.707 0.000
vn 0.000 1.000 0.000
vn 0.000 1.000 0.000
vn 0.707 0.707 0.000
vn -0.577 0.577 -0.577
vn 0.000 0.707 -0.707
vn 0.000 0.707 -0.707
vn 0.577 0.577 -0.577
vn -0.577 -0.577 -0.577
vn 0.000 -0.707 -0.707
vn 0.000 -0.707 -0.707
vn 0.577 -0.577 -0.577
vn -0.707 -0.707 0.000
vn 0.000 -1.000 0.000
vn 0.000 -1.000 0.000
vn 0.707 -0.707 0.000
vn -0.707 -0.707 0.000
vn 0.000 -1.000 0.000
vn 0.000 -1.000 0.000
vn 0.707 -0.707 0.000
vn -0.577 -0.577 0.577
vn 0.000 -0.707 0.707
vn 0.000 -0.707 0.707
vn 0.577 -0.577 0.577
vn -0.577 -0.577 0.577
vn 0.000 -0.707 0.707
vn 0.000 -0.707 0.707
vn 0.577 -0.577 0.577
vn -0.707 0.000 0.707
vn 0.000 0.000 1.000
vn 0.000 0.000 1.000
vn 0.707 0.000 0.707
vn -0.707 0.000 0.707
vn 0.000 0.000 1.000
vn 0.000 0.000 1.000
vn 0.707 0.000 0.707
vn -0.577 0.577 0.577
vn 0.000 0.707 0.707
vn 0.000 0.707 0.707
vn 0.577 0.577 0.577
vn 0.577 -0.577 -0.577
vn 0.000 -0.707 -0.707
vn 0.000 -0.707 -0.707
vn -0.577 -0.577 -0.577
vn 0.707 0.000 -0.707
vn 0.000 0.000 -1.000
vn 0.000 0.000 -1.000
vn -0.707 0.000 -0.707
vn 0.707 0.000 -0.707
vn 0.000 0.000 -1.000
vn 0.000 0.000 -1.000
vn -0.707 0.000 -0.707
vn 0.577 0.577 -0.577
vn 0.000 0.707 -0.707
vn 0.000 0.707 -0.707
vn -0.577 0.577 -0.577
vn 1.000 0.000 0.000
vn 0.500 0.195 0.844
vn -0.500 0.195 0.844
vn -1.000 0.000 0.000
vn -0.500 -0.195 -0.844
vn 0.500 -0.195 -0.844
vn 1.000 -0.000 -0.000
vn 1.000 0.000 0.000
vn 0.500 0.210 0.840
vn -0.500 0.210 0.840
vn -1.000 0.000 0.000
vn -0.500 -0.210 -0.840
vn 0.500 -0.210 -0.840
vn 1.000 -0.000 -0.000
vn 1.000 0.000 0.000
vn 0.500 0.274 0.822
vn -0.500 0.274 0.822
vn -1.000 0.000 0.000
vn -0.500 -0.274 -0.822
vn 0.500 -0.274 -0.822
vn 1.000 -0.000 -0.000
vn -0.000 0.974 -0.225
vn -0.000 0.974 -0.225
vn -0.000 0.974 -0.225
vn -0.000 0.974 -0.225
vn -0.000 0.974 -0.225
vn -0.000 0.974 -0.225
vn -0.000 0.974 -0.225
vn 0.000 -0.949 0.316
vn 0.000 -0.949 0.316
vn 0.000 -0.949 0.316
vn 0.000 -0.949 0.316
vn 0.000 -0.949 0.316
vn 0.000 -0.949 0.316
vn 0.000 -0.949 0.316
v -0.0245 -0.0000 0.0890
v -0.0245 0.0105 0.0890
v -0.0260 0.0125 0.0890
v -0.0340 0.0125 0.0890
v -0.0355 0.0105 0.0890
v -0.0355 0.0000 0.0890
v -0.0245 -0.0000 0.0890
v -0.0245 0.0100 0.0858
v -0.0260 0.0119 0.0851
v -0.0340 0.0119 0.0851
v -0.0355 0.0100 0.0858
v -0.0355 0.0000 0.0890
v -0.0245 -0.0000 0.0890
v -0.0245 0.0085 0.0828
v -0.0260 0.0101 0.0817
v -0.0340 0.0101 0.0817
v -0.0355 0.0085 0.0828
v -0.0355 0.0000 0.0890
v -0.0245 -0.0000 0.0890
v -0.0245 0.0062 0.0805
v -0.0260 0.0073 0.0789
v -0.0340 0.0073 0.0789
v -0.0355 0.0062 0.0805
v -0.0355 0.0000 0.0890
v -0.0245 -0.0000 0.0890
v -0.0245 0.0032 0.0790
v -0.0260 0.0039 0.0771
v -0.0340 0.0039 0.0771
v -0.0355 0.0032 0.0790
v -0.0355 0.0000 0.0890
v -0.0245 -0.0000 0.0890
v -0.0245 0.0000 0.0785
v -0.0260 0.0000 0.0765
v -0.0340 0.0000 0.0765
v -0.0355 0.0000 0.0785
v -0.0355 0.0000 0.0890
v -0.0245 -0.0000 0.0890
v -0.0245 -0.0032 0.0790
v -0.0260 -0.0039 0.0771
v -0.0340 -0.0039 0.0771
v -0.0355 -0.0032 0.0790
v -0.0355 0.0000 0.0890
v -0.0245 -0.0000 0.0890
v -0.0245 -0.0062 0.0805
v -0.0260 -0.0073 0.0789
v -0.0340 -0.0073 0.0789
v -0.0355 -0.0062 0.0805
v -0.0355 0.0000 0.0890
v -0.0245 -0.0000 0.0890
v -0.0245 -0.0085 0.0828
v -0.0260 -0.0101 0.0817
v -0.0340 -0.0101 0.0817
v -0.0355 -0.0085 0.0828
v -0.0355 0.0000 0.0890
v -0.0245 -0.0000 0.0890
v -0.0245 -0.0100 0.0858
v -0.0260 -0.0119 0.0851
v -0.0340 -0.0119 0.0851
v -0.0355 -0.0100 0.0858
v -0.0355 0.0000 0.0890
v -0.0245 -0.0000 0.0890
v -0.0245 -0.0105 0.0890
v -0.0260 -0.0125 0.0890
v -0.0340 -0.0125 0.0890
v -0.0355 -0.0105 0.0890
v -0.0355 0.0000 0.0890
v -0.0245 -0.0000 0.0890
v -0.0245 -0.0100 0.0922
v -0.0260 -0.0119 0.0929
v -0.0340 -0.0119 0.0929
v -0.0355 -0.0100 0.0922
v -0.0355 0.0000 0.0890
v -0.0245 -0.0000 0.0890
v -0.0245 -0.0085 0.0952
v -0.0260 -0.0101 0.0963
v -0.0340 -0.0101 0.0963
v -0.0355 -0.0085 0.0952
v -0.0355 0.0000 0.0890
v -0.0245 -0.0000 0.0890
v -0.0245 -0.0062 0.0975
v -0.0260 -0.0073 0.0991
v -0.0340 -0.0073 0.0991
v -0.0355 -0.0062 0.0975
v -0.0355 0.0000 0.0890
v -0.0245 -0.0000 0.0890
v -0.0245 -0.0032 0.0990
v -0.0260 -0.0039 0.1009
v -0.0340 -0.0039 0.1009
v -0.0355 -0.0032 0.0990
v -0.0355 0.0000 0.0890
v -0.0245 -0.0000 0.0890
v -0.0245 -0.0000 0.0995
v -0.0260 -0.0000 0.1015
v -0.0340 -0.0000 0.1015
v -0.0355 -0.0000 0.0995
v -0.0355 0.0000 0.0890
v -0.0245 -0.0000 0.0890
v -0.0245 0.0032 0.0990
v -0.0260 0.0039 0.1009
v -0.0340 0.0039 0.1009
v -0.0355 0.0032 0.0990
v -0.0355 0.0000 0.0890
v -0.0245 -0.0000 0.0890
v -0.0245 0.0062 0.0975
v -0.0260 0.0073 0.0991
v -0.0340 0.0073 0.0991
v -0.0355 0.0062 0.0975
v -0.0355 0.0000 0.0890
v -0.0245 -0.0000 0.0890
v -0.0245 0.0085 0.0952
v -0.0260 0.0101 0.0963
v -0.0340 0.0101 0.0963
v -0.0355 0.0085 0.0952
v -0.0355 0.0000 0.0890
v -0.0245 -0.0000 0.0890
v -0.0245 0.0100 0.0922
v -0.0260 0.0119 0.0929
v -0.0340 0.0119 0.0929
v -0.0355 0.0100 0.0922
v -0.0355 0.0000 0.0890
v -0.0245 -0.0000 0.0890
v -0.0245 0.0105 0.0890
v -0.0260 0.0125 0.0890
v -0.0340 0.0125 0.0890
v -0.0355 0.0105 0.0890
v -0.0355 0.0000 0.0890
v 0.0055 -0.0000 0.0890
v 0.0055 0.0105 0.0890
v 0.0040 0.0125 0.0890
v -0.0040 0.0125 0.0890
v -0.0055 0.0105 0.0890
v -0.0055 0.0000 0.0890
v 0.0055 -0.0000 0.0890
v 0.0055 0.0100 0.0858
v 0.0040 0.0119 0.0851
v -0.0040 0.0119 0.0851
v -0.0055 0.0100 0.0858
v -0.0055 0.0000 0.0890
v 0.0055 -0.0000 0.0890
v 0.0055 0.0085 0.0828
v 0.0040 0.0101 0.0817
v -0.0040 0.0101 0.0817
v -0.0055 0.0085 0.0828
v -0.0055 0.0000 0.0890
v 0.0055 -0.0000 0.0890
v 0.0055 0.0062 0.0805
v 0.0040 0.0073 0.0789
v -0.0040 0.0073 0.0789
v -0.0055 0.0062 0.0805
v -0.0055 0.0000 0.0890
v 0.0055 -0.0000 0.0890
v 0.0055 0.0032 0.0790
v 0.0040 0.0039 0.0771
v -0.0040 0.0039 0.0771
v -0.0055 0.0032 0.0790
v -0.0055 0.0000 0.0890
v 0.0055 -0.0000 0.0890
v 0.0055 0.0000 0.0785
v 0.0040 0.0000 0.0765
v -0.0040 0.0000 0.0765
v -0.0055 0.0000 0.0785
v -0.0055 0.0000 0.0890
v 0.0055 -0.0000 0.0890
v 0.0055 -0.0032 0.0790
v 0.0040 -0.0039 0.0771
v -0.0040 -0.0039 0.0771
v -0.0055 -0.0032 0.0790
v -0.0055 0.0000 0.0890
v 0.0055 -0.0000 0.0890
v 0.0055 -0.0062 0.0805
v 0.0040 -0.0073 0.0789
v -0.0040 -0.0073 0.0789
v -0.0055 -0.0062 0.0805
v -0.0055 0.0000 0.0890
v 0.0055 -0.0000 0.0890
v 0.0055 -0.0085 0.0828
v 0.0040 -0.0101 0.0817
v -0.0040 -0.0101 0.0817
v -0.0055 -0.0085 0.0828
v -0.0055 0.0000 0.0890
v 0.0055 -0.0000 0.0890
v 0.0055 -0.0100 0.0858
v 0.0040 -0.0119 0.0851
v -0.0040 -0.0119 0.0851
v -0.0055 -0.0100 0.0858
v -0.0055 0.0000 0.0890
v 0.0055 -0.0000 0.0890
v 0.0055 -0.0105 0.0890
v 0.0040 -0.0125 0.0890
v -0.0040 -0.0125 0.0890
v -0.0055 -0.0105 0.0890
v -0.0055 0.0000 0.0890
v 0.0055 -0.0000 0.0890
v 0.0055 -0.0100 0.0922
v 0.0040 -0.0119 0.0929
v -0.0040 -0.0119 0.0929
v -0.0055 -0.0100 0.0922
v -0.0055 0.0000 0.0890
v 0.0055 -0.0000 0.0890
v 0.0055 -0.0085 0.0952
v 0.0040 -0.0101 0.0963
v -0.0040 -0.0101 0.0963
v -0.0055 -0.0085 0.0952
v -0.0055 0.0000 0.0890
v 0.0055 -0.0000 0.0890
v 0.0055 -0.0062 0.0975
v 0.0040 -0.0073 0.0991
v -0.0040 -0.0073 0.0991
v -0.0055 -0.0062 0.0975
v -0.0055 0.0000 0.0890
v 0.0055 -0.0000 0.0890
v 0.0055 -0.0032 0.0990
v 0.0040 -0.0039 0.1009
v -0.0040 -0.0039 0.1009
v -0.0055 -0.0032 0.0990
v -0.0055 0.0000 0.0890
v 0.0055 -0.0000 0.0890
v 0.0055 -0.0000 0.0995
v 0.0040 -0.0000 0.1015
v -0.0040 -0.0000 0.1015
v -0.0055 -0.0000 0.0995
v -0.0055 0.0000 0.0890
v 0.0055 -0.0000 0.0890
v 0.0055 0.0032 0.0990
v 0.0040 0.0039 0.1009
v -0.0040 0.0039 0.1009
v -0.0055 0.0032 0.0990
v -0.0055 0.0000 0.0890
v 0.0055 -0.0000 0.0890
v 0.0055 0.0062 0.0975
v 0.0040 0.0073 0.0991
v -0.0040 0.0073 0.0991
v -0.0055 0.0062 0.0975
v -0.0055 0.0000 0.0890
v 0.0055 -0.0000 0.0890
v 0.0055 0.0085 0.0952
v 0.0040 0.0101 0.0963
v -0.0040 0.0101 0.0963
v -0.0055 0.0085 0.0952
v -0.0055 0.0000 0.0890
v 0.0055 -0.0000 0.0890
v 0.0055 0.0100 0.0922
v 0.0040 0.0119 0.0929
v -0.0040 0.0119 0.0929
v -0.0055 0.0100 0.0922
v -0.0055 0.0000 0.0890
v 0.0055 -0.0000 0.0890
v 0.0055 0.0105 0.0890
v 0.0040 0.0125 0.0890
v -0.0040 0.0125 0.0890
v -0.0055 0.0105 0.0890
v -0.0055 0.0000 0.0890
v 0.0355 -0.0000 0.0890
v 0.0355 0.0105 0.0890
v 0.0340 0.0125 0.0890
v 0.0260 0.0125 0.0890
v 0.0245 0.0105 0.0890
v 0.0245 0.0000 0.0890
v 0.0355 -0.0000 0.0890
v 0.0355 0.0100 0.0858
v 0.0340 0.0119 0.0851
v 0.0260 0.0119 0.0851
v 0.0245 0.0100 0.0858
v 0.0245 0.0000 0.0890
v 0.0355 -0.0000 0.0890
v 0.0355 0.0085 0.0828
v 0.0340 0.0101 0.0817
v 0.0260 0.0101 0.0817
v 0.0245 0.0085 0.0828
v 0.0245 0.0000 0.0890
v 0.0355 -0.0000 0.0890
v 0.0355 0.0062 0.0805
v 0.0340 0.0073 0.0789
v 0.0260 0.0073 0.0789
v 0.0245 0.0062 0.0805
v 0.0245 0.0000 0.0890
v 0.0355 -0.0000 0.0890
v 0.0355 0.0032 0.0790
v 0.0340 0.0039 0.0771
v 0.0260 0.0039 0.0771
v 0.0245 0.0032 0.0790
v 0.0245 0.0000 0.0890
v 0.0355 -0.0000 0.0890
v 0.0355 0.0000 0.0785
v 0.0340 0.0000 0.0765
v 0.0260 0.0000 0.0765
v 0.0245 0.0000 0.0785
v 0.0245 0.0000 0.0890
v 0.0355 -0.0000 0.0890
v 0.0355 -0.0032 0.0790
v 0.0340 -0.0039 0.0771
v 0.0260 -0.0039 0.0771
v 0.0245 -0.0032 0.0790
v 0.0245 0.0000 0.0890
v 0.0355 -0.0000 0.0890
v 0.0355 -0.0062 0.0805
v 0.0340 -0.0073 0.0789
v 0.0260 -0.0073 0.0789
v 0.0245 -0.0062 0.0805
v 0.0245 0.0000 0.0890
v 0.0355 -0.0000 0.0890
v 0.0355 -0.0085 0.0828
v 0.0340 -0.0101 0.0817
v 0.0260 -0.0101 0.0817
v 0.0245 -0.0085 0.0828
v 0.0245 0.0000 0.0890
v 0.0355 -0.0000 0.0890
v 0.0355 -0.0100 0.0858
v 0.0340 -0.0119 0.0851
v 0.0260 -0.0119 0.0851
v 0.0245 -0.0100 0.0858
v 0.0245 0.0000 0.0890
v 0.0355 -0.0000 0.0890
v 0.0355 -0.0105 0.0890
v 0.0340 -0.0125 0.0890
v 0.0260 -0.0125 0.0890
v 0.0245 -0.0105 0.0890
v 0.0245 0.0000 0.0890
v 0.0355 -0.0000 0.0890
v 0.0355 -0.0100 0.0922
v 0.0340 -0.0119 0.0929
v 0.0260 -0.0119 0.0929
v 0.0245 -0.0100 0.0922
v 0.0245 0.0000 0.0890
v 0.0355 -0.0000 0.0890
v 0.0355 -0.0085 0.0952
v 0.0340 -0.0101 0.0963
v 0.0260 -0.0101 0.0963
v 0.0245 -0.0085 0.0952
v 0.0245 0.0000 0.0890
v 0.0355 -0.0000 0.0890
v 0.0355 -0.0062 0.0975
v 0.0340 -0.0073 0.0991
v 0.0260 -0.0073 0.0991
v 0.0245 -0.0062 0.0975
v 0.0245 0.0000 0.0890
v 0.0355 -0.0000 0.0890
v 0.0355 -0.0032 0.0990
v 0.0340 -0.0039 0.1009
v 0.0260 -0.0039 0.1009
v 0.0245 -0.0032 0.0990
v 0.0245 0.0000 0.0890
v 0.0355 -0.0000 0.0890
v 0.0355 -0.0000 0.0995
v 0.0340 -0.0000 0.1015
v 0.0260 -0.0000 0.1015
v 0.0245 -0.0000 0.0995
v 0.0245 0.0000 0.0890
v 0.0355 -0.0000 0.0890
v 0.0355 0.0032 0.0990
v 0.0340 0.0039 0.1009
v 0.0260 0.0039 0.1009
v 0.0245 0.0032 0.0990
v 0.0245 0.0000 0.0890
v 0.0355 -0.0000 0.0890
v 0.0355 0.0062 0.0975
v 0.0340 0.0073 0.0991
v 0.0260 0.0073 0.0991
v 0.0245 0.0062 0.0975
v 0.0245 0.0000 0.0890
v 0.0355 -0.0000 0.0890
v 0.0355 0.0085 0.0952
v 0.0340 0.0101 0.0963
v 0.0260 0.0101 0.0963
v 0.0245 0.0085 0.0952
v 0.0245 0.0000 0.0890
v 0.0355 -0.0000 0.0890
v 0.0355 0.0100 0.0922
v 0.0340 0.0119 0.0929
v 0.0260 0.0119 0.0929
v 0.0245 0.0100 0.0922
v 0.0245 0.0000 0.0890
v 0.0355 -0.0000 0.0890
v 0.0355 0.0105 0.0890
v 0.0340 0.0125 0.0890
v 0.0260 0.0125 0.0890
v 0.0245 0.0105 0.0890
v 0.0245 0.0000 0.0890
vt 0.0000 0.0000
vt 0.0000 0.0105
vt 0.0000 0.0130
vt 0.0000 0.0210
vt 0.0000 0.0235
vt 0.0000 0.0340
vt 0.0039 0.0000
vt 0.0039 0.0105
vt 0.0039 0.0130
vt 0.0039 0.0210
vt 0.0039 0.0235
vt 0.0039 0.0340
vt 0.0079 0.0000
vt 0.0079 0.0105
vt 0.0079 0.0130
vt 0.0079 0.0210
vt 0.0079 0.0235
vt 0.0079 0.0340
vt 0.0118 0.0000
vt 0.0118 0.0105
vt 0.0118 0.0130
vt 0.0118 0.0210
vt 0.0118 0.0235
vt 0.0118 0.0340
vt 0.0157 0.0000
vt 0.0157 0.0105
vt 0.0157 0.0130
vt 0.0157 0.0210
vt 0.0157 0.0235
vt 0.0157 0.0340
vt 0.0196 0.0000
vt 0.0196 0.0105
vt 0.0196 0.0130
vt 0.0196 0.0210
vt 0.0196 0.0235
vt 0.0196 0.0340
vt 0.0236 0.0000
vt 0.0236 0.0105
vt 0.0236 0.0130
vt 0.0236 0.0210
vt 0.0236 0.0235
vt 0.0236 0.0340
vt 0.0275 0.0000
vt 0.0275 0.0105
vt 0.0275 0.0130
vt 0.0275 0.0210
vt 0.0275 0.0235
vt 0.0275 0.0340
vt 0.0314 0.0000
vt 0.0314 0.0105
vt 0.0314 0.0130
vt 0.0314 0.0210
vt 0.0314 0.0235
vt 0.0314 0.0340
vt 0.0353 0.0000
vt 0.0353 0.0105
vt 0.0353 0.0130
vt 0.0353 0.0210
vt 0.0353 0.0235
vt 0.0353 0.0340
vt 0.0393 0.0000
vt 0.0393 0.0105
vt 0.0393 0.0130
vt 0.0393 0.0210
vt 0.0393 0.0235
vt 0.0393 0.0340
vt 0.0432 0.0000
vt 0.0432 0.0105
vt 0.0432 0.0130
vt 0.0432 0.0210
vt 0.0432 0.0235
vt 0.0432 0.0340
vt 0.0471 0.0000
vt 0.0471 0.0105
vt 0.0471 0.0130
vt 0.0471 0.0210
vt 0.0471 0.0235
vt 0.0471 0.0340
vt 0.0511 0.0000
vt 0.0511 0.0105
vt 0.0511 0.0130
vt 0.0511 0.0210
vt 0.0511 0.0235
vt 0.0511 0.0340
vt 0.0550 0.0000
vt 0.0550 0.0105
vt 0.0550 0.0130
vt 0.0550 0.0210
vt 0.0550 0.0235
vt 0.0550 0.0340
vt 0.0589 0.0000
vt 0.0589 0.0105
vt 0.0589 0.0130
vt 0.0589 0.0210
vt 0.0589 0.0235
vt 0.0589 0.0340
vt 0.0628 0.0000
vt 0.0628 0.0105
vt 0.0628 0.0130
vt 0.0628 0.0210
vt 0.0628 0.0235
vt 0.0628 0.0340
vt 0.0668 0.0000
vt 0.0668 0.0105
vt 0.0668 0.0130
vt 0.0668 0.0210
vt 0.0668 0.0235
vt 0.0668 0.0340
vt 0.0707 0.0000
vt 0.0707 0.0105
vt 0.0707 0.0130
vt 0.0707 0.0210
vt 0.0707 0.0235
vt 0.0707 0.0340
vt 0.0746 0.0000
vt 0.0746 0.0105
vt 0.0746 0.0130
vt 0.0746 0.0210
vt 0.0746 0.0235
vt 0.0746 0.0340
vt 0.0785 0.0000
vt 0.0785 0.0105
vt 0.0785 0.0130
vt 0.0785 0.0210
vt 0.0785 0.0235
vt 0.0785 0.0340
vt 0.0000 0.0000
vt 0.0000 0.0105
vt 0.0000 0.0130
vt 0.0000 0.0210
vt 0.0000 0.0235
vt 0.0000 0.0340
vt 0.0039 0.0000
vt 0.0039 0.0105
vt 0.0039 0.0130
vt 0.0039 0.0210
vt 0.0039 0.0235
vt 0.0039 0.0340
vt 0.0079 0.0000
vt 0.0079 0.0105
vt 0.0079 0.0130
vt 0.0079 0.0210
vt 0.0079 0.0235
vt 0.0079 0.0340
vt 0.0118 0.0000
vt 0.0118 0.0105
vt 0.0118 0.0130
vt 0.0118 0.0210
vt 0.0118 0.0235
vt 0.0118 0.0340
vt 0.0157 0.0000
vt 0.0157 0.0105
vt 0.0157 0.0130
vt 0.0157 0.0210
vt 0.0157 0.0235
vt 0.0157 0.0340
vt 0.0196 0.0000
vt 0.0196 0.0105
vt 0.0196 0.0130
vt 0.0196 0.0210
vt 0.0196 0.0235
vt 0.0196 0.0340
vt 0.0236 0.0000
vt 0.0236 0.0105
vt 0.0236 0.0130
vt 0.0236 0.0210
vt 0.0236 0.0235
vt 0.0236 0.0340
vt 0.0275 0.0000
vt 0.0275 0.0105
vt 0.0275 0.0130
vt 0.0275 0.0210
vt 0.0275 0.0235
vt 0.0275 0.0340
vt 0.0314 0.0000
vt 0.0314 0.0105
vt 0.0314 0.0130
vt 0.0314 0.0210
vt 0.0314 0.0235
vt 0.0314 0.0340
vt 0.0353 0.0000
vt 0.0353 0.0105
vt 0.0353 0.0130
vt 0.0353 0.0210
vt 0.0353 0.0235
vt 0.0353 0.0340
vt 0.0393 0.0000
vt 0.0393 0.0105
vt 0.0393 0.0130
vt 0.0393 0.0210
vt 0.0393 0.0235
vt 0.0393 0.0340
vt 0.0432 0.0000
vt 0.0432 0.0105
vt 0.0432 0.0130
vt 0.0432 0.0210
vt 0.0432 0.0235
vt 0.0432 0.0340
vt 0.0471 0.0000
vt 0.0471 0.0105
vt 0.0471 0.0130
vt 0.0471 0.0210
vt 0.0471 0.0235
vt 0.0471 0.0340
vt 0.0511 0.0000
vt 0.0511 0.0105
vt 0.0511 0.0130
vt 0.0511 0.0210
vt 0.0511 0.0235
vt 0.0511 0.0340
vt 0.0550 0.0000
vt 0.0550 0.0105
vt 0.0550 0.0130
vt 0.0550 0.0210
vt 0.0550 0.0235
vt 0.0550 0.0340
vt 0.0589 0.0000
vt 0.0589 0.0105
vt 0.0589 0.0130
vt 0.0589 0.0210
vt 0.0589 0.0235
vt 0.0589 0.0340
vt 0.0628 0.0000
vt 0.0628 0.0105
vt 0.0628 0.0130
vt 0.0628 0.0210
vt 0.0628 0.0235
vt 0.0628 0.0340
vt 0.0668 0.0000
vt 0.0668 0.0105
vt 0.0668 0.0130
vt 0.0668 0.0210
vt 0.0668 0.0235
vt 0.0668 0.0340
vt 0.0707 0.0000
vt 0.0707 0.0105
vt 0.0707 0.0130
vt 0.0707 0.0210
vt 0.0707 0.0235
vt 0.0707 0.0340
vt 0.0746 0.0000
vt 0.0746 0.0105
vt 0.0746 0.0130
vt 0.0746 0.0210
vt 0.0746 0.0235
vt 0.0746 0.0340
vt 0.0785 0.0000
vt 0.0785 0.0105
vt 0.0785 0.0130
vt 0.0785 0.0210
vt 0.0785 0.0235
vt 0.0785 0.0340
vt 0.0000 0.0000
vt 0.0000 0.0105
vt 0.0000 0.0130
vt 0.0000 0.0210
vt 0.0000 0.0235
vt 0.0000 0.0340
vt 0.0039 0.0000
vt 0.0039 0.0105
vt 0.0039 0.0130
vt 0.0039 0.0210
vt 0.0039 0.0235
vt 0.0039 0.0340
vt 0.0079 0.0000
vt 0.0079 0.0105
vt 0.0079 0.0130
vt 0.0079 0.0210
vt 0.0079 0.0235
vt 0.0079 0.0340
vt 0.0118 0.0000
vt 0.0118 0.0105
vt 0.0118 0.0130
vt 0.0118 0.0210
vt 0.0118 0.0235
vt 0.0118 0.0340
vt 0.0157 0.0000
vt 0.0157 0.0105
vt 0.0157 0.0130
vt 0.0157 0.0210
vt 0.0157 0.0235
vt 0.0157 0.0340
vt 0.0196 0.0000
vt 0.0196 0.0105
vt 0.0196 0.0130
vt 0.0196 0.0210
vt 0.0196 0.0235
vt 0.0196 0.0340
vt 0.0236 0.0000
vt 0.0236 0.0105
vt 0.0236 0.0130
vt 0.0236 0.0210
vt 0.0236 0.0235
vt 0.0236 0.0340
vt 0.0275 0.0000
vt 0.0275 0.0105
vt 0.0275 0.0130
vt 0.0275 0.0210
vt 0.0275 0.0235
vt 0.0275 0.0340
vt 0.0314 0.0000
vt 0.0314 0.0105
vt 0.0314 0.0130
vt 0.0314 0.0210
vt 0.0314 0.0235
vt 0.0314 0.0340
vt 0.0353 0.0000
vt 0.0353 0.0105
vt 0.0353 0.0130
vt 0.0353 0.0210
vt 0.0353 0.0235
vt 0.0353 0.0340
vt 0.0393 0.0000
vt 0.0393 0.0105
vt 0.0393 0.0130
vt 0.0393 0.0210
vt 0.0393 0.0235
vt 0.0393 0.0340
vt 0.0432 0.0000
vt 0.0432 0.0105
vt 0.0432 0.0130
vt 0.0432 0.0210
vt 0.0432 0.0235
vt 0.0432 0.0340
vt 0.0471 0.0000
vt 0.0471 0.0105
vt 0.0471 0.0130
vt 0.0471 0.0210
vt 0.0471 0.0235
vt 0.0471 0.0340
vt 0.0511 0.0000
vt 0.0511 0.0105
vt 0.0511 0.0130
vt 0.0511 0.0210
vt 0.0511 0.0235
vt 0.0511 0.0340
vt 0.0550 0.0000
vt 0.0550 0.0105
vt 0.0550 0.0130
vt 0.0550 0.0210
vt 0.0550 0.0235
vt 0.0550 0.0340
vt 0.0589 0.0000
vt 0.0589 0.0105
vt 0.0589 0.0130
vt 0.0589 0.0210
vt 0.0589 0.0235
vt 0.0589 0.0340
vt 0.0628 0.0000
vt 0.0628 0.0105
vt 0.0628 0.0130
vt 0.0628 0.0210
vt 0.0628 0.0235
vt 0.0628 0.0340
vt 0.0668 0.0000
vt 0.0668 0.0105
vt 0.0668 0.0130
vt 0.0668 0.0210
vt 0.0668 0.0235
vt 0.0668 0.0340
vt 0.0707 0.0000
vt 0.0707 0.0105
vt 0.0707 0.0130
vt 0.0707 0.0210
vt 0.0707 0.0235
vt 0.0707 0.0340
vt 0.0746 0.0000
vt 0.0746 0.0105
vt 0.0746 0.0130
vt 0.0746 0.0210
vt 0.0746 0.0235
vt 0.0746 0.0340
vt 0.0785 0.0000
vt 0.0785 0.0105
vt 0.0785 0.0130
vt 0.0785 0.0210
vt 0.0785 0.0235
vt 0.0785 0.0340
vn 1.000 -0.000 -0.000
vn 0.993 0.119 -0.000
vn 0.206 0.979 -0.000
vn -0.206 0.979 0.000
vn -0.993 0.119 0.000
vn -1.000 0.000 0.000
vn 1.000 -0.000 -0.000
vn 0.993 0.113 -0.037
vn 0.206 0.931 -0.302
vn -0.206 0.931 -0.302
vn -0.993 0.113 -0.037
vn -1.000 0.000 0.000
vn 1.000 -0.000 -0.000
vn 0.993 0.096 -0.070
vn 0.206 0.792 -0.575
vn -0.206 0.792 -0.575
vn -0.993 0.096 -0.070
vn -1.000 0.000 0.000
vn 1.000 -0.000 -0.000
vn 0.993 0.070 -0.096
vn 0.206 0.575 -0.792
vn -0.206 0.575 -0.792
vn -0.993 0.070 -0.096
vn -1.000 0.000 0.000
vn 1.000 -0.000 -0.000
vn 0.993 0.037 -0.113
vn 0.206 0.302 -0.931
vn -0.206 0.302 -0.931
vn -0.993 0.037 -0.113
vn -1.000 0.000 0.000
vn 1.000 -0.000 -0.000
vn 0.993 -0.000 -0.119
vn 0.206 0.000 -0.979
vn -0.206 0.000 -0.979
vn -0.993 0.000 -0.119
vn -1.000 0.000 0.000
vn 1.000 -0.000 0.000
vn 0.993 -0.037 -0.113
vn 0.206 -0.302 -0.931
vn -0.206 -0.302 -0.931
vn -0.993 -0.037 -0.113
vn -1.000 0.000 0.000
vn 1.000 -0.000 0.000
vn 0.993 -0.070 -0.096
vn 0.206 -0.575 -0.792
vn -0.206 -0.575 -0.792
vn -0.993 -0.070 -0.096
vn -1.000 0.000 0.000
vn 1.000 -0.000 0.000
vn 0.993 -0.096 -0.070
vn 0.206 -0.792 -0.575
vn -0.206 -0.792 -0.575
vn -0.993 -0.096 -0.070
vn -1.000 0.000 0.000
vn 1.000 -0.000 0.000
vn 0.993 -0.113 -0.037
vn 0.206 -0.931 -0.302
vn -0.206 -0.931 -0.302
vn -0.993 -0.113 -0.037
vn -1.000 0.000 0.000
vn 1.000 -0.000 0.000
vn 0.993 -0.119 -0.000
vn 0.206 -0.979 -0.000
vn -0.206 -0.979 -0.000
vn -0.993 -0.119 -0.000
vn -1.000 0.000 0.000
vn 1.000 -0.000 0.000
vn 0.993 -0.113 0.037
vn 0.206 -0.931 0.302
vn -0.206 -0.931 0.302
vn -0.993 -0.113 0.037
vn -1.000 0.000 0.000
vn 1.000 -0.000 0.000
vn 0.993 -0.096 0.070
vn 0.206 -0.792 0.575
vn -0.206 -0.792 0.575
vn -0.993 -0.096 0.070
vn -1.000 0.000 0.000
vn 1.000 -0.000 0.000
vn 0.993 -0.070 0.096
vn 0.206 -0.575 0.792
vn -0.206 -0.575 0.792
vn -0.993 -0.070 0.096
vn -1.000 0.000 0.000
vn 1.000 -0.000 0.000
vn 0.993 -0.037 0.113
vn 0.206 -0.302 0.931
vn -0.206 -0.302 0.931
vn -0.993 -0.037 0.113
vn -1.000 0.000 0.000
vn 1.000 -0.000 0.000
vn 0.993 -0.000 0.119
vn 0.206 -0.000 0.979
vn -0.206 -0.000 0.979
vn -0.993 0.000 0.119
vn -1.000 0.000 0.000
vn 1.000 -0.000 0.000
vn 0.993 0.037 0.113
vn 0.206 0.302 0.931
vn -0.206 0.302 0.931
vn -0.993 0.037 0.113
vn -1.000 0.000 0.000
vn 1.000 -0.000 0.000
vn 0.993 0.070 0.096
vn 0.206 0.575 0.792
vn -0.206 0.575 0.792
vn -0.993 0.070 0.096
vn -1.000 0.000 0.000
vn 1.000 -0.000 0.000
vn 0.993 0.096 0.070
vn 0.206 0.792 0.575
vn -0.206 0.792 0.575
vn -0.993 0.096 0.070
vn -1.000 0.000 0.000
vn 1.000 -0.000 0.000
vn 0.993 0.113 0.037
vn 0.206 0.931 0.302
vn -0.206 0.931 0.302
vn -0.993 0.113 0.037
vn -1.000 0.000 0.000
vn 1.000 -0.000 0.000
vn 0.993 0.119 0.000
vn 0.206 0.979 0.000
vn -0.206 0.979 0.000
vn -0.993 0.119 0.000
vn -1.000 0.000 0.000
vn 1.000 -0.000 -0.000
vn 0.993 0.119 -0.000
vn 0.206 0.979 -0.000
vn -0.206 0.979 0.000
vn -0.993 0.119 0.000
vn -1.000 0.000 0.000
vn 1.000 -0.000 -0.000
vn 0.993 0.113 -0.037
vn 0.206 0.931 -0.302
vn -0.206 0.931 -0.302
vn -0.993 0.113 -0.037
vn -1.000 0.000 0.000
vn 1.000 -0.000 -0.000
vn 0.993 0.096 -0.070
vn 0.206 0.792 -0.575
vn -0.206 0.792 -0.575
vn -0.993 0.096 -0.070
vn -1.000 0.000 0.000
vn 1.000 -0.000 -0.000
vn 0.993 0.070 -0.096
vn 0.206 0.575 -0.792
vn -0.206 0.575 -0.792
vn -0.993 0.070 -0.096
vn -1.000 0.000 0.000
vn 1.000 -0.000 -0.000
vn 0.993 0.037 -0.113
vn 0.206 0.302 -0.931
vn -0.206 0.302 -0.931
vn -0.993 0.037 -0.113
vn -1.000 0.000 0.000
vn 1.000 -0.000 -0.000
vn 0.993 -0.000 -0.119
vn 0.206 0.000 -0.979
vn -0.206 0.000 -0.979
vn -0.993 0.000 -0.119
vn -1.000 0.000 0.000
vn 1.000 -0.000 0.000
vn 0.993 -0.037 -0.113
vn 0.206 -0.302 -0.931
vn -0.206 -0.302 -0.931
vn -0.993 -0.037 -0.113
vn -1.000 0.000 0.000
vn 1.000 -0.000 0.000
vn 0.993 -0.070 -0.096
vn 0.206 -0.575 -0.792
vn -0.206 -0.575 -0.792
vn -0.993 -0.070 -0.096
vn -1.000 0.000 0.000
vn 1.000 -0.000 0.000
vn 0.993 -0.096 -0.070
vn 0.206 -0.792 -0.575
vn -0.206 -0.792 -0.575
vn -0.993 -0.096 -0.070
vn -1.000 0.000 0.000
vn 1.000 -0.000 0.000
vn 0.993 -0.113 -0.037
vn 0.206 -0.931 -0.302
vn -0.206 -0.931 -0.302
vn -0.993 -0.113 -0.037
vn -1.000 0.000 0.000
vn 1.000 -0.000 0.000
vn 0.993 -0.119 -0.000
vn 0.206 -0.979 -0.000
vn -0.206 -0.979 -0.000
vn -0.993 -0.119 -0.000
vn -1.000 0.000 0.000
vn 1.000 -0.000 0.000
vn 0.993 -0.113 0.037
vn 0.206 -0.931 0.302
vn -0.206 -0.931 0.302
vn -0.993 -0.113 0.037
vn -1.000 0.000 0.000
vn 1.000 -0.000 0.000
vn 0.993 -0.096 0.070
vn 0.206 -0.792 0.575
vn -0.206 -0.792 0.575
vn -0.993 -0.096 0.070
vn -1.000 0.000 0.000
vn 1.000 -0.000 0.000
vn 0.993 -0.070 0.096
vn 0.206 -0.575 0.792
vn -0.206 -0.575 0.792
vn -0.993 -0.070 0.096
vn -1.000 0.000 0.000
vn 1.000 -0.000 0.000
vn 0.993 -0.037 0.113
vn 0.206 -0.302 0.931
vn -0.206 -0.302 0.931
vn -0.993 -0.037 0.113
vn -1.000 0.000 0.000
vn 1.000 -0.000 0.000
vn 0.993 -0.000 0.119
vn 0.206 -0.000 0.979
vn -0.206 -0.000 0.979
vn -0.993 0.000 0.119
vn -1.000 0.000 0.000
vn 1.000 -0.000 0.000
vn 0.993 0.037 0.113
vn 0.206 0.302 0.931
vn -0.206 0.302 0.931
vn -0.993 0.037 0.113
vn -1.000 0.000 0.000
vn 1.000 -0.000 0.000
vn 0.993 0.070 0.096
vn 0.206 0.575 0.792
vn -0.206 0.575 0.792
vn -0.993 0.070 0.096
vn -1.000 0.000 0.000
vn 1.000 -0.000 0.000
vn 0.993 0.096 0.070
vn 0.206 0.792 0.575
vn -0.206 0.792 0.575
vn -0.993 0.096 0.070
vn -1.000 0.000 0.000
vn 1.000 -0.000 0.000
vn 0.993 0.113 0.037
vn 0.206 0.931 0.302
vn -0.206 0.931 0.302
vn -0.993 0.113 0.037
vn -1.000 0.000 0.000
vn 1.000 -0.000 0.000
vn 0.993 0.119 0.000
vn 0.206 0.979 0.000
vn -0.206 0.979 0.000
vn -0.993 0.119 0.000
vn -1.000 0.000 0.000
vn 1.000 -0.000 -0.000
vn 0.993 0.119 -0.000
vn 0.206 0.979 -0.000
vn -0.206 0.979 0.000
vn -0.993 0.119 0.000
vn -1.000 0.000 0.000
vn 1.000 -0.000 -0.000
vn 0.993 0.113 -0.037
vn 0.206 0.931 -0.302
vn -0.206 0.931 -0.302
vn -0.993 0.113 -0.037
vn -1.000 0.000 0.000
vn 1.000 -0.000 -0.000
vn 0.993 0.096 -0.070
vn 0.206 0.792 -0.575
vn -0.206 0.792 -0.575
vn -0.993 0.096 -0.070
vn -1.000 0.000 0.000
vn 1.000 -0.000 -0.000
vn 0.993 0.070 -0.096
vn 0.206 0.575 -0.792
vn -0.206 0.575 -0.792
vn -0.993 0.070 -0.096
vn -1.000 0.000 0.000
vn 1.000 -0.000 -0.000
vn 0.993 0.037 -0.113
vn 0.206 0.302 -0.931
vn -0.206 0.302 -0.931
vn -0.993 0.037 -0.113
vn -1.000 0.000 0.000
vn 1.000 -0.000 -0.000
vn 0.993 -0.000 -0.119
vn 0.206 0.000 -0.979
vn -0.206 0.000 -0.979
vn -0.993 0.000 -0.119
vn -1.000 0.000 0.000
vn 1.000 -0.000 0.000
vn 0.993 -0.037 -0.113
vn 0.206 -0.302 -0.931
vn -0.206 -0.302 -0.931
vn -0.993 -0.037 -0.113
vn -1.000 0.000 0.000
vn 1.000 -0.000 0.000
vn 0.993 -0.070 -0.096
vn 0.206 -0.575 -0.792
vn -0.206 -0.575 -0.792
vn -0.993 -0.070 -0.096
vn -1.000 0.000 0.000
vn 1.000 -0.000 0.000
vn 0.993 -0.096 -0.070
vn 0.206 -0.792 -0.575
vn -0.206 -0.792 -0.575
vn -0.993 -0.096 -0.070
vn -1.000 0.000 0.000
vn 1.000 -0.000 0.000
vn 0.993 -0.113 -0.037
vn 0.206 -0.931 -0.302
vn -0.206 -0.931 -0.302
vn -0.993 -0.113 -0.037
vn -1.000 0.000 0.000
vn 1.000 -0.000 0.000
vn 0.993 -0.119 -0.000
vn 0.206 -0.979 -0.000
vn -0.206 -0.979 -0.000
vn -0.993 -0.119 -0.000
vn -1.000 0.000 0.000
vn 1.000 -0.000 0.000
vn 0.993 -0.113 0.037
vn 0.206 -0.931 0.302
vn -0.206 -0.931 0.302
vn -0.993 -0.113 0.037
vn -1.000 0.000 0.000
vn 1.000 -0.000 0.000
vn 0.993 -0.096 0.070
vn 0.206 -0.792 0.575
vn -0.206 -0.792 0.575
vn -0.993 -0.096 0.070
vn -1.000 0.000 0.000
vn 1.000 -0.000 0.000
vn 0.993 -0.070 0.096
vn 0.206 -0.575 0.792
vn -0.206 -0.575 0.792
vn -0.993 -0.070 0.096
vn -1.000 0.000 0.000
vn 1.000 -0.000 0.000
vn 0.993 -0.037 0.113
vn 0.206 -0.302 0.931
vn -0.206 -0.302 0.931
vn -0.993 -0.037 0.113
vn -1.000 0.000 0.000
vn 1.000 -0.000 0.000
vn 0.993 -0.000 0.119
vn 0.206 -0.000 0.979
vn -0.206 -0.000 0.979
vn -0.993 0.000 0.119
vn -1.000 0.000 0.000
vn 1.000 -0.000 0.000
vn 0.993 0.037 0.113
vn 0.206 0.302 0.931
vn -0.206 0.302 0.931
vn -0.993 0.037 0.113
vn -1.000 0.000 0.000
vn 1.000 -0.000 0.000
vn 0.993 0.070 0.096
vn 0.206 0.575 0.792
vn -0.206 0.575 0.792
vn -0.993 0.070 0.096
vn -1.000 0.000 0.000
vn 1.000 -0.000 0.000
vn 0.993 0.096 0.070
vn 0.206 0.792 0.575
vn -0.206 0.792 0.575
vn -0.993 0.096 0.070
vn -1.000 0.000 0.000
vn 1.000 -0.000 0.000
vn 0.993 0.113 0.037
vn 0.206 0.931 0.302
vn -0.206 0.931 0.302
vn -0.993 0.113 0.037
vn -1.000 0.000 0.000
vn 1.000 -0.000 0.000
vn 0.993 0.119 0.000
vn 0.206 0.979 0.000
vn -0.206 0.979 0.000
vn -0.993 0.119 0.000
vn -1.000 0.000 0.000
usemtl tin
f 1/1/1 2/2/2 3/3/3
f 1/1/1 3/3/3 4/4/4
f 5/5/5 6/6/6 7/7/7
f 5/5/5 7/7/7 8/8/8
f 9/9/9 10/10/10 11/11/11
f 9/9/9 11/11/11 12/12/12
f 13/13/13 14/14/14 15/15/15
f 13/13/13 15/15/15 16/16/16
f 17/17/17 18/18/18 19/19/19
f 17/17/17 19/19/19 20/20/20
f 21/21/21 22/22/22 23/23/23
f 21/21/21 23/23/23 24/24/24
f 25/25/25 26/26/26 27/27/27
f 25/25/25 27/27/27 28/28/28
f 29/29/29 30/30/30 31/31/31
f 29/29/29 31/31/31 32/32/32
f 33/33/33 34/34/34 35/35/35
f 33/33/33 35/35/35 36/36/36
f 37/37/37 38/38/38 39/39/39
f 37/37/37 39/39/39 40/40/40
f 41/41/41 42/42/42 43/43/43
f 41/41/41 43/43/43 44/44/44
f 45/45/45 46/46/46 47/47/47
f 45/45/45 47/47/47 48/48/48
f 49/49/49 50/50/50 51/51/51
f 49/49/49 51/51/51 52/52/52
f 53/53/53 54/54/54 55/55/55
f 53/53/53 55/55/55 56/56/56
f 57/57/57 58/58/58 59/59/59
f 57/57/57 59/59/59 60/60/60
f 61/61/61 62/62/62 63/63/63
f 61/61/61 63/63/63 64/64/64
f 65/65/65 66/66/66 67/67/67
f 65/65/65 67/67/67 68/68/68
f 69/69/69 70/70/70 71/71/71
f 69/69/69 71/71/71 72/72/72
f 73/73/73 74/74/74 75/75/75
f 73/73/73 75/75/75 76/76/76
f 77/77/77 78/78/78 79/79/79
f 77/77/77 79/79/79 80/80/80
f 81/81/81 82/82/82 83/83/83
f 81/81/81 83/83/83 84/84/84
f 85/85/85 86/86/86 87/87/87
f 85/85/85 87/87/87 88/88/88
f 89/89/89 90/90/90 91/91/91
f 89/89/89 91/91/91 92/92/92
f 93/93/93 94/94/94 95/95/95
f 93/93/93 95/95/95 96/96/96
f 97/97/97 98/98/98 99/99/99
f 97/97/97 99/99/99 100/100/100
f 101/101/101 102/102/102 103/103/103
f 101/101/101 103/103/103 104/104/104
f 105/105/105 106/106/106 107/107/107
f 105/105/105 107/107/107 108/108/108
f 109/109/109 110/110/110 111/111/111
f 109/109/109 111/111/111 112/112/112
f 113/113/113 114/114/114 115/115/115
f 113/113/113 115/115/115 116/116/116
f 117/117/117 118/118/118 119/119/119
f 117/117/117 119/119/119 120/120/120
f 121/121/121 122/122/122 126/126/126
f 121/121/121 126/126/126 125/125/125
f 122/122/122 123/123/123 127/127/127
f 122/122/122 127/127/127 126/126/126
f 123/123/123 124/124/124 128/128/128
f 123/123/123 128/128/128 127/127/127
f 125/125/125 126/126/126 130/130/130
f 125/125/125 130/130/130 129/129/129
f 126/126/126 127/127/127 131/131/131
f 126/126/126 131/131/131 130/130/130
f 127/127/127 128/128/128 132/132/132
f 127/127/127 132/132/132 131/131/131
f 129/129/129 130/130/130 134/134/134
f 129/129/129 134/134/134 133/133/133
f 130/130/130 131/131/131 135/135/135
f 130/130/130 135/135/135 134/134/134
f 131/131/131 132/132/132 136/136/136
f 131/131/131 136/136/136 135/135/135
f 137/137/137 138/138/138 142/142/142
f 137/137/137 142/142/142 141/141/141
f 138/138/138 139/139/139 143/143/143
f 138/138/138 143/143/143 142/142/142
f 139/139/139 140/140/140 144/144/144
f 139/139/139 144/144/144 143/143/143
f 141/141/141 142/142/142 146/146/146
f 141/141/141 146/146/146 145/145/145
f 142/142/142 143/143/143 147/147/147
f 142/142/142 147/147/147 146/146/146
f 143/143/143 144/144/144 148/148/148
f 143/143/143 148/148/148 147/147/147
f 145/145/145 146/146/146 150/150/150
f 145/145/145 150/150/150 149/149/149
f 146/146/146 147/147/147 151/151/151
f 146/146/146 151/151/151 150/150/150
f 147/147/147 148/148/148 152/152/152
f 147/147/147 152/152/152 151/151/151
f 153/153/153 154/154/154 158/158/158
f 153/153/153 158/158/158 157/157/157
f 154/154/154 155/155/155 159/159/159
f 154/154/154 159/159/159 158/158/158
f 155/155/155 156/156/156 160/160/160
f 155/155/155 160/160/160 159/159/159
f 157/157/157 158/158/158 162/162/162
f 157/157/157 162/162/162 161/161/161
f 158/158/158 159/159/159 163/163/163
f 158/158/158 163/163/163 162/162/162
f 159/159/159 160/160/160 164/164/164
f 159/159/159 164/164/164 163/163/163
f 161/161/161 162/162/162 166/166/166
f 161/161/161 166/166/166 165/165/165
f 162/162/162 163/163/163 167/167/167
f 162/162/162 167/167/167 166/166/166
f 163/163/163 164/164/164 168/168/168
f 163/163/163 168/168/168 167/167/167
f 169/169/169 170/170/170 174/174/174
f 169/169/169 174/174/174 173/173/173
f 170/170/170 171/171/171 175/175/175
f 170/170/170 175/175/175 174/174/174
f 171/171/171 172/172/172 176/176/176
f 171/171/171 176/176/176 175/175/175
f 173/173/173 174/174/174 178/178/178
f 173/173/173 178/178/178 177/177/177
f 174/174/174 175/175/175 179/179/179
f 174/174/174 179/179/179 178/178/178
f 175/175/175 176/176/176 180/180/180
f 175/175/175 180/180/180 179/179/179
f 177/177/177 178/178/178 182/182/182
f 177/177/177 182/182/182 181/181/181
f 178/178/178 179/179/179 183/183/183
f 178/178/178 183/183/183 182/182/182
f 179/179/179 180/180/180 184/184/184
f 179/179/179 184/184/184 183/183/183
f 185/185/185 186/186/186 190/190/190
f 185/185/185 190/190/190 189/189/189
f 186/186/186 187/187/187 191/191/191
f 186/186/186 191/191/191 190/190/190
f 187/187/187 188/188/188 192/192/192
f 187/187/187 192/192/192 191/191/191
f 189/189/189 190/190/190 194/194/194
f 189/189/189 194/194/194 193/193/193
f 190/190/190 191/191/191 195/195/195
f 190/190/190 195/195/195 194/194/194
f 191/191/191 192/192/192 196/196/196
f 191/191/191 196/196/196 195/195/195
f 193/193/193 194/194/194 198/198/198
f 193/193/193 198/198/198 197/197/197
f 194/194/194 195/195/195 199/199/199
f 194/194/194 199/199/199 198/198/198
f 195/195/195 196/196/196 200/200/200
f 195/195/195 200/200/200 199/199/199
f 201/201/201 202/202/202 206/206/206
f 201/201/201 206/206/206 205/205/205
f 202/202/202 203/203/203 207/207/207
f 202/202/202 207/207/207 206/206/206
f 203/203/203 204/204/204 208/208/208
f 203/203/203 208/208/208 207/207/207
f 205/205/205 206/206/206 210/210/210
f 205/205/205 210/210/210 209/209/209
f 206/206/206 207/207/207 211/211/211
f 206/206/206 211/211/211 210/210/210
f 207/207/207 208/208/208 212/212/212
f 207/207/207 212/212/212 211/211/211
f 209/209/209 210/210/210 214/214/214
f 209/209/209 214/214/214 213/213/213
f 210/210/210 211/211/211 215/215/215
f 210/210/210 215/215/215 214/214/214
f 211/211/211 212/212/212 216/216/216
f 211/211/211 216/216/216 215/215/215
f 217/217/217 218/218/218 222/222/222
f 217/217/217 222/222/222 221/221/221
f 218/218/218 219/219/219 223/223/223
f 218/218/218 223/223/223 222/222/222
f 219/219/219 220/220/220 224/224/224
f 219/219/219 224/224/224 223/223/223
f 221/221/221 222/222/222 226/226/226
f 221/221/221 226/226/226 225/225/225
f 222/222/222 223/223/223 227/227/227
f 222/222/222 227/227/227 226/226/226
f 223/223/223 224/224/224 228/228/228
f 223/223/223 228/228/228 227/227/227
f 225/225/225 226/226/226 230/230/230
f 225/225/225 230/230/230 229/229/229
f 226/226/226 227/227/227 231/231/231
f 226/226/226 231/231/231 230/230/230
f 227/227/227 228/228/228 232/232/232
f 227/227/227 232/232/232 231/231/231
f 233/233/233 234/234/234 238/238/238
f 233/233/233 238/238/238 237/237/237
f 234/234/234 235/235/235 239/239/239
f 234/234/234 239/239/239 238/238/238
f 235/235/235 236/236/236 240/240/240
f 235/235/235 240/240/240 239/239/239
f 237/237/237 238/238/238 242/242/242
f 237/237/237 242/242/242 241/241/241
f 238/238/238 239/239/239 243/243/243
f 238/238/238 243/243/243 242/242/242
f 239/239/239 240/240/240 244/244/244
f 239/239/239 244/244/244 243/243/243
f 241/241/241 242/242/242 246/246/246
f 241/241/241 246/246/246 245/245/245
f 242/242/242 243/243/243 247/247/247
f 242/242/242 247/247/247 246/246/246
f 243/243/243 244/244/244 248/248/248
f 243/243/243 248/248/248 247/247/247
f 249/249/249 250/250/250 254/254/254
f 249/249/249 254/254/254 253/253/253
f 250/250/250 251/251/251 255/255/255
f 250/250/250 255/255/255 254/254/254
f 251/251/251 252/252/252 256/256/256
f 251/251/251 256/256/256 255/255/255
f 253/253/253 254/254/254 258/258/258
f 253/253/253 258/258/258 257/257/257
f 254/254/254 255/255/255 259/259/259
f 254/254/254 259/259/259 258/258/258
f 255/255/255 256/256/256 260/260/260
f 255/255/255 260/260/260 259/259/259
f 257/257/257 258/258/258 262/262/262
f 257/257/257 262/262/262 261/261/261
f 258/258/258 259/259/259 263/263/263
f 258/258/258 263/263/263 262/262/262
f 259/259/259 260/260/260 264/264/264
f 259/259/259 264/264/264 263/263/263
f 265/265/265 266/266/266 270/270/270
f 265/265/265 270/270/270 269/269/269
f 266/266/266 267/267/267 271/271/271
f 266/266/266 271/271/271 270/270/270
f 267/267/267 268/268/268 272/272/272
f 267/267/267 272/272/272 271/271/271
f 269/269/269 270/270/270 274/274/274
f 269/269/269 274/274/274 273/273/273
f 270/270/270 271/271/271 275/275/275
f 270/270/270 275/275/275 274/274/274
f 271/271/271 272/272/272 276/276/276
f 271/271/271 276/276/276 275/275/275
f 273/273/273 274/274/274 278/278/278
f 273/273/273 278/278/278 277/277/277
f 274/274/274 275/275/275 279/279/279
f 274/274/274 279/279/279 278/278/278
f 275/275/275 276/276/276 280/280/280
f 275/275/275 280/280/280 279/279/279
f 281/281/281 282/282/282 286/286/286
f 281/281/281 286/286/286 285/285/285
f 282/282/282 283/283/283 287/287/287
f 282/282/282 287/287/287 286/286/286
f 283/283/283 284/284/284 288/288/288
f 283/283/283 288/288/288 287/287/287
f 285/285/285 286/286/286 290/290/290
f 285/285/285 290/290/290 289/289/289
f 286/286/286 287/287/287 291/291/291
f 286/286/286 291/291/291 290/290/290
f 287/287/287 288/288/288 292/292/292
f 287/287/287 292/292/292 291/291/291
f 289/289/289 290/290/290 294/294/294
f 289/289/289 294/294/294 293/293/293
f 290/290/290 291/291/291 295/295/295
f 290/290/290 295/295/295 294/294/294
f 291/291/291 292/292/292 296/296/296
f 291/291/291 296/296/296 295/295/295
f 297/297/297 298/298/298 302/302/302
f 297/297/297 302/302/302 301/301/301
f 298/298/298 299/299/299 303/303/303
f 298/298/298 303/303/303 302/302/302
f 299/299/299 300/300/300 304/304/304
f 299/299/299 304/304/304 303/303/303
f 301/301/301 302/302/302 306/306/306
f 301/301/301 306/306/306 305/305/305
f 302/302/302 303/303/303 307/307/307
f 302/302/302 307/307/307 306/306/306
f 303/303/303 304/304/304 308/308/308
f 303/303/303 308/308/308 307/307/307
f 305/305/305 306/306/306 310/310/310
f 305/305/305 310/310/310 309/309/309
f 306/306/306 307/307/307 311/311/311
f 306/306/306 311/311/311 310/310/310
f 307/307/307 308/308/308 312/312/312
f 307/307/307 312/312/312 311/311/311
f 313/313/313 314/314/314 323/323/323
f 313/313/313 323/323/323 322/322/322
f 314/314/314 315/315/315 324/324/324
f 314/314/314 324/324/324 323/323/323
f 315/315/315 316/316/316 325/325/325
f 315/315/315 325/325/325 324/324/324
f 316/316/316 317/317/317 326/326/326
f 316/316/316 326/326/326 325/325/325
f 317/317/317 318/318/318 327/327/327
f 317/317/317 327/327/327 326/326/326
f 318/318/318 319/319/319 328/328/328
f 318/318/318 328/328/328 327/327/327
f 319/319/319 320/320/320 329/329/329
f 319/319/319 329/329/329 328/328/328
f 320/320/320 321/321/321 330/330/330
f 320/320/320 330/330/330 329/329/329
f 331/331/331 333/333/333 332/332/332
f 331/331/331 334/334/334 333/333/333
f 331/331/331 335/335/335 334/334/334
f 331/331/331 336/336/336 335/335/335
f 331/331/331 337/337/337 336/336/336
f 331/331/331 338/338/338 337/337/337
f 331/331/331 339/339/339 338/338/338
f 331/331/331 332/332/332 339/339/339
f 340/340/340 341/341/341 342/342/342
f 340/340/340 342/342/342 343/343/343
f 340/340/340 343/343/343 344/344/344
f 340/340/340 344/344/344 345/345/345
f 340/340/340 345/345/345 346/346/346
f 340/340/340 346/346/346 347/347/347
f 340/340/340 347/347/347 348/348/348
f 340/340/340 348/348/348 341/341/341
usemtl brass
f 349/349/349 350/350/350 354/354/354
f 349/349/349 354/354/354 353/353/353
f 350/350/350 351/351/351 355/355/355
f 350/350/350 355/355/355 354/354/354
f 351/351/351 352/352/352 356/356/356
f 351/351/351 356/356/356 355/355/355
f 353/353/353 354/354/354 358/358/358
f 353/353/353 358/358/358 357/357/357
f 354/354/354 355/355/355 359/359/359
f 354/354/354 359/359/359 358/358/358
f 355/355/355 356/356/356 360/360/360
f 355/355/355 360/360/360 359/359/359
f 357/357/357 358/358/358 362/362/362
f 357/357/357 362/362/362 361/361/361
f 358/358/358 359/359/359 363/363/363
f 358/358/358 363/363/363 362/362/362
f 359/359/359 360/360/360 364/364/364
f 359/359/359 364/364/364 363/363/363
f 365/365/365 366/366/366 370/370/370
f 365/365/365 370/370/370 369/369/369
f 366/366/366 367/367/367 371/371/371
f 366/366/366 371/371/371 370/370/370
f 367/367/367 368/368/368 372/372/372
f 367/367/367 372/372/372 371/371/371
f 369/369/369 370/370/370 374/374/374
f 369/369/369 374/374/374 373/373/373
f 370/370/370 371/371/371 375/375/375
f 370/370/370 375/375/375 374/374/374
f 371/371/371 372/372/372 376/376/376
f 371/371/371 376/376/376 375/375/375
f 373/373/373 374/374/374 378/378/378
f 373/373/373 378/378/378 377/377/377
f 374/374/374 375/375/375 379/379/379
f 374/374/374 379/379/379 378/378/378
f 375/375/375 376/376/376 380/380/380
f 375/375/375 380/380/380 379/379/379
f 381/381/381 382/382/382 386/386/386
f 381/381/381 386/386/386 385/385/385
f 382/382/382 383/383/383 387/387/387
f 382/382/382 387/387/387 386/386/386
f 383/383/383 384/384/384 388/388/388
f 383/383/383 388/388/388 387/387/387
f 385/385/385 386/386/386 390/390/390
f 385/385/385 390/390/390 389/389/389
f 386/386/386 387/387/387 391/391/391
f 386/386/386 391/391/391 390/390/390
f 387/387/387 388/388/388 392/392/392
f 387/387/387 392/392/392 391/391/391
f 389/389/389 390/390/390 394/394/394
f 389/389/389 394/394/394 393/393/393
f 390/390/390 391/391/391 395/395/395
f 390/390/390 395/395/395 394/394/394
f 391/391/391 392/392/392 396/396/396
f 391/391/391 396/396/396 395/395/395
f 397/397/397 398/398/398 402/402/402
f 397/397/397 402/402/402 401/401/401
f 398/398/398 399/399/399 403/403/403
f 398/398/398 403/403/403 402/402/402
f 399/399/399 400/400/400 404/404/404
f 399/399/399 404/404/404 403/403/403
f 401/401/401 402/402/402 406/406/406
f 401/401/401 406/406/406 405/405/405
f 402/402/402 403/403/403 407/407/407
f 402/402/402 407/407/407 406/406/406
f 403/403/403 404/404/404 408/408/408
f 403/403/403 408/408/408 407/407/407
f 405/405/405 406/406/406 410/410/410
f 405/405/405 410/410/410 409/409/409
f 406/406/406 407/407/407 411/411/411
f 406/406/406 411/411/411 410/410/410
f 407/407/407 408/408/408 412/412/412
f 407/407/407 412/412/412 411/411/411
f 413/413/413 414/414/414 418/418/418
f 413/413/413 418/418/418 417/417/417
f 414/414/414 415/415/415 419/419/419
f 414/414/414 419/419/419 418/418/418
f 415/415/415 416/416/416 420/420/420
f 415/415/415 420/420/420 419/419/419
f 417/417/417 418/418/418 422/422/422
f 417/417/417 422/422/422 421/421/421
f 418/418/418 419/419/419 423/423/423
f 418/418/418 423/423/423 422/422/422
f 419/419/419 420/420/420 424/424/424
f 419/419/419 424/424/424 423/423/423
f 421/421/421 422/422/422 426/426/426
f 421/421/421 426/426/426 425/425/425
f 422/422/422 423/423/423 427/427/427
f 422/422/422 427/427/427 426/426/426
f 423/423/423 424/424/424 428/428/428
f 423/423/423 428/428/428 427/427/427
f 429/429/429 430/430/430 434/434/434
f 429/429/429 434/434/434 433/433/433
f 430/430/430 431/431/431 435/435/435
f 430/430/430 435/435/435 434/434/434
f 431/431/431 432/432/432 436/436/436
f 431/431/431 436/436/436 435/435/435
f 433/433/433 434/434/434 438/438/438
f 433/433/433 438/438/438 437/437/437
f 434/434/434 435/435/435 439/439/439
f 434/434/434 439/439/439 438/438/438
f 435/435/435 436/436/436 440/440/440
f 435/435/435 440/440/440 439/439/439
f 437/437/437 438/438/438 442/442/442
f 437/437/437 442/442/442 441/441/441
f 438/438/438 439/439/439 443/443/443
f 438/438/438 443/443/443 442/442/442
f 439/439/439 440/440/440 444/444/444
f 439/439/439 444/444/444 443/443/443
f 445/445/445 446/446/446 453/453/453
f 445/445/445 453/453/453 452/452/452
f 446/446/446 447/447/447 454/454/454
f 446/446/446 454/454/454 453/453/453
f 447/447/447 448/448/448 455/455/455
f 447/447/447 455/455/455 454/454/454
f 448/448/448 449/449/449 456/456/456
f 448/448/448 456/456/456 455/455/455
f 449/449/449 450/450/450 457/457/457
f 449/449/449 457/457/457 456/456/456
f 450/450/450 451/451/451 458/458/458
f 450/450/450 458/458/458 457/457/457
f 452/452/452 453/453/453 460/460/460
f 452/452/452 460/460/460 459/459/459
f 453/453/453 454/454/454 461/461/461
f 453/453/453 461/461/461 460/460/460
f 454/454/454 455/455/455 462/462/462
f 454/454/454 462/462/462 461/461/461
f 455/455/455 456/456/456 463/463/463
f 455/455/455 463/463/463 462/462/462
f 456/456/456 457/457/457 464/464/464
f 456/456/456 464/464/464 463/463/463
f 457/457/457 458/458/458 465/465/465
f 457/457/457 465/465/465 464/464/464
f 466/466/466 468/468/468 467/467/467
f 466/466/466 469/469/469 468/468/468
f 466/466/466 470/470/470 469/469/469
f 466/466/466 471/471/471 470/470/470
f 466/466/466 472/472/472 471/471/471
f 466/466/466 467/467/467 472/472/472
f 473/473/473 474/474/474 475/475/475
f 473/473/473 475/475/475 476/476/476
f 473/473/473 476/476/476 477/477/477
f 473/473/473 477/477/477 478/478/478
f 473/473/473 478/478/478 479/479/479
f 473/473/473 479/479/479 474/474/474
usemtl dial
f 480/480/480 486/486/486 487/487/487
f 480/480/480 487/487/487 481/481/481
f 481/481/481 487/487/487 488/488/488
f 481/481/481 488/488/488 482/482/482
f 482/482/482 488/488/488 489/489/489
f 482/482/482 489/489/489 483/483/483
f 483/483/483 489/489/489 490/490/490
f 483/483/483 490/490/490 484/484/484
f 484/484/484 490/490/490 491/491/491
f 484/484/484 491/491/491 485/485/485
f 486/486/486 492/492/492 493/493/493
f 486/486/486 493/493/493 487/487/487
f 487/487/487 493/493/493 494/494/494
f 487/487/487 494/494/494 488/488/488
f 488/488/488 494/494/494 495/495/495
f 488/488/488 495/495/495 489/489/489
f 489/489/489 495/495/495 496/496/496
f 489/489/489 496/496/496 490/490/490
f 490/490/490 496/496/496 497/497/497
f 490/490/490 497/497/497 491/491/491
f 492/492/492 498/498/498 499/499/499
f 492/492/492 499/499/499 493/493/493
f 493/493/493 499/499/499 500/500/500
f 493/493/493 500/500/500 494/494/494
f 494/494/494 500/500/500 501/501/501
f 494/494/494 501/501/501 495/495/495
f 495/495/495 501/501/501 502/502/502
f 495/495/495 502/502/502 496/496/496
f 496/496/496 502/502/502 503/503/503
f 496/496/496 503/503/503 497/497/497
f 498/498/498 504/504/504 505/505/505
f 498/498/498 505/505/505 499/499/499
f 499/499/499 505/505/505 506/506/506
f 499/499/499 506/506/506 500/500/500
f 500/500/500 506/506/506 507/507/507
f 500/500/500 507/507/507 501/501/501
f 501/501/501 507/507/507 508/508/508
f 501/501/501 508/508/508 502/502/502
f 502/502/502 508/508/508 509/509/509
f 502/502/502 509/509/509 503/503/503
f 504/504/504 510/510/510 511/511/511
f 504/504/504 511/511/511 505/505/505
f 505/505/505 511/511/511 512/512/512
f 505/505/505 512/512/512 506/506/506
f 506/506/506 512/512/512 513/513/513
f 506/506/506 513/513/513 507/507/507
f 507/507/507 513/513/513 514/514/514
f 507/507/507 514/514/514 508/508/508
f 508/508/508 514/514/514 515/515/515
f 508/508/508 515/515/515 509/509/509
f 510/510/510 516/516/516 517/517/517
f 510/510/510 517/517/517 511/511/511
f 511/511/511 517/517/517 518/518/518
f 511/511/511 518/518/518 512/512/512
f 512/512/512 518/518/518 519/519/519
f 512/512/512 519/519/519 513/513/513
f 513/513/513 519/519/519 520/520/520
f 513/513/513 520/520/520 514/514/514
f 514/514/514 520/520/520 521/521/521
f 514/514/514 521/521/521 515/515/515
f 516/516/516 522/522/522 523/523/523
f 516/516/516 523/523/523 517/517/517
f 517/517/517 523/523/523 524/524/524
f 517/517/517 524/524/524 518/518/518
f 518/518/518 524/524/524 525/525/525
f 518/518/518 525/525/525 519/519/519
f 519/519/519 525/525/525 526/526/526
f 519/519/519 526/526/526 520/520/520
f 520/520/520 526/526/526 527/527/527
f 520/520/520 527/527/527 521/521/521
f 522/522/522 528/528/528 529/529/529
f 522/522/522 529/529/529 523/523/523
f 523/523/523 529/529/529 530/530/530
f 523/523/523 530/530/530 524/524/524
f 524/524/524 530/530/530 531/531/531
f 524/524/524 531/531/531 525/525/525
f 525/525/525 531/531/531 532/532/532
f 525/525/525 532/532/532 526/526/526
f 526/526/526 532/532/532 533/533/533
f 526/526/526 533/533/533 527/527/527
f 528/528/528 534/534/534 535/535/535
f 528/528/528 535/535/535 529/529/529
f 529/529/529 535/535/535 536/536/536
f 529/529/529 536/536/536 530/530/530
f 530/530/530 536/536/536 537/537/537
f 530/530/530 537/537/537 531/531/531
f 531/531/531 537/537/537 538/538/538
f 531/531/531 538/538/538 532/532/532
f 532/532/532 538/538/538 539/539/539
f 532/532/532 539/539/539 533/533/533
f 534/534/534 540/540/540 541/541/541
f 534/534/534 541/541/541 535/535/535
f 535/535/535 541/541/541 542/542/542
f 535/535/535 542/542/542 536/536/536
f 536/536/536 542/542/542 543/543/543
f 536/536/536 543/543/543 537/537/537
f 537/537/537 543/543/543 544/544/544
f 537/537/537 544/544/544 538/538/538
f 538/538/538 544/544/544 545/545/545
f 538/538/538 545/545/545 539/539/539
f 540/540/540 546/546/546 547/547/547
f 540/540/540 547/547/547 541/541/541
f 541/541/541 547/547/547 548/548/548
f 541/541/541 548/548/548 542/542/542
f 542/542/542 548/548/548 549/549/549
f 542/542/542 549/549/549 543/543/543
f 543/543/543 549/549/549 550/550/550
f 543/543/543 550/550/550 544/544/544
f 544/544/544 550/550/550 551/551/551
f 544/544/544 551/551/551 545/545/545
f 546/546/546 552/552/552 553/553/553
f 546/546/546 553/553/553 547/547/547
f 547/547/547 553/553/553 554/554/554
f 547/547/547 554/554/554 548/548/548
f 548/548/548 554/554/554 555/555/555
f 548/548/548 555/555/555 549/549/549
f 549/549/549 555/555/555 556/556/556
f 549/549/549 556/556/556 550/550/550
f 550/550/550 556/556/556 557/557/557
f 550/550/550 557/557/557 551/551/551
f 552/552/552 558/558/558 559/559/559
f 552/552/552 559/559/559 553/553/553
f 553/553/553 559/559/559 560/560/560
f 553/553/553 560/560/560 554/554/554
f 554/554/554 560/560/560 561/561/561
f 554/554/554 561/561/561 555/555/555
f 555/555/555 561/561/561 562/562/562
f 555/555/555 562/562/562 556/556/556
f 556/556/556 562/562/562 563/563/563
f 556/556/556 563/563/563 557/557/557
f 558/558/558 564/564/564 565/565/565
f 558/558/558 565/565/565 559/559/559
f 559/559/559 565/565/565 566/566/566
f 559/559/559 566/566/566 560/560/560
f 560/560/560 566/566/566 567/567/567
f 560/560/560 567/567/567 561/561/561
f 561/561/561 567/567/567 568/568/568
f 561/561/561 568/568/568 562/562/562
f 562/562/562 568/568/568 569/569/569
f 562/562/562 569/569/569 563/563/563
f 564/564/564 570/570/570 571/571/571
f 564/564/564 571/571/571 565/565/565
f 565/565/565 571/571/571 572/572/572
f 565/565/565 572/572/572 566/566/566
f 566/566/566 572/572/572 573/573/573
f 566/566/566 573/573/573 567/567/567
f 567/567/567 573/573/573 574/574/574
f 567/567/567 574/574/574 568/568/568
f 568/568/568 574/574/574 575/575/575
f 568/568/568 575/575/575 569/569/569
f 570/570/570 576/576/576 577/577/577
f 570/570/570 577/577/577 571/571/571
f 571/571/571 577/577/577 578/578/578
f 571/571/571 578/578/578 572/572/572
f 572/572/572 578/578/578 579/579/579
f 572/572/572 579/579/579 573/573/573
f 573/573/573 579/579/579 580/580/580
f 573/573/573 580/580/580 574/574/574
f 574/574/574 580/580/580 581/581/581
f 574/574/574 581/581/581 575/575/575
f 576/576/576 582/582/582 583/583/583
f 576/576/576 583/583/583 577/577/577
f 577/577/577 583/583/583 584/584/584
f 577/577/577 584/584/584 578/578/578
f 578/578/578 584/584/584 585/585/585
f 578/578/578 585/585/585 579/579/579
f 579/579/579 585/585/585 586/586/586
f 579/579/579 586/586/586 580/580/580
f 580/580/580 586/586/586 587/587/587
f 580/580/580 587/587/587 581/581/581
f 582/582/582 588/588/588 589/589/589
f 582/582/582 589/589/589 583/583/583
f 583/583/583 589/589/589 590/590/590
f 583/583/583 590/590/590 584/584/584
f 584/584/584 590/590/590 591/591/591
f 584/584/584 591/591/591 585/585/585
f 585/585/585 591/591/591 592/592/592
f 585/585/585 592/592/592 586/586/586
f 586/586/586 592/592/592 593/593/593
f 586/586/586 593/593/593 587/587/587
f 588/588/588 594/594/594 595/595/595
f 588/588/588 595/595/595 589/589/589
f 589/589/589 595/595/595 596/596/596
f 589/589/589 596/596/596 590/590/590
f 590/590/590 596/596/596 597/597/597
f 590/590/590 597/597/597 591/591/591
f 591/591/591 597/597/597 598/598/598
f 591/591/591 598/598/598 592/592/592
f 592/592/592 598/598/598 599/599/599
f 592/592/592 599/599/599 593/593/593
f 594/594/594 600/600/600 601/601/601
f 594/594/594 601/601/601 595/595/595
f 595/595/595 601/601/601 602/602/602
f 595/595/595 602/602/602 596/596/596
f 596/596/596 602/602/602 603/603/603
f 596/596/596 603/603/603 597/597/597
f 597/597/597 603/603/603 604/604/604
f 597/597/597 604/604/604 598/598/598
f 598/598/598 604/604/604 605/605/605
f 598/598/598 605/605/605 599/599/599
f 606/606/606 612/612/612 613/613/613
f 606/606/606 613/613/613 607/607/607
f 607/607/607 613/613/613 614/614/614
f 607/607/607 614/614/614 608/608/608
f 608/608/608 614/614/614 615/615/615
f 608/608/608 615/615/615 609/609/609
f 609/609/609 615/615/615 616/616/616
f 609/609/609 616/616/616 610/610/610
f 610/610/610 616/616/616 617/617/617
f 610/610/610 617/617/617 611/611/611
f 612/612/612 618/618/618 619/619/619
f 612/612/612 619/619/619 613/613/613
f 613/613/613 619/619/619 620/620/620
f 613/613/613 620/620/620 614/614/614
f 614/614/614 620/620/620 621/621/621
f 614/614/614 621/621/621 615/615/615
f 615/615/615 621/621/621 622/622/622
f 615/615/615 622/622/622 616/616/616
f 616/616/616 622/622/622 623/623/623
f 616/616/616 623/623/623 617/617/617
f 618/618/618 624/624/624 625/625/625
f 618/618/618 625/625/625 619/619/619
f 619/619/619 625/625/625 626/626/626
f 619/619/619 626/626/626 620/620/620
f 620/620/620 626/626/626 627/627/627
f 620/620/620 627/627/627 621/621/621
f 621/621/621 627/627/627 628/628/628
f 621/621/621 628/628/628 622/622/622
f 622/622/622 628/628/628 629/629/629
f 622/622/622 629/629/629 623/623/623
f 624/624/624 630/630/630 631/631/631
f 624/624/624 631/631/631 625/625/625
f 625/625/625 631/631/631 632/632/632
f 625/625/625 632/632/632 626/626/626
f 626/626/626 632/632/632 633/633/633
f 626/626/626 633/633/633 627/627/627
f 627/627/627 633/633/633 634/634/634
f 627/627/627 634/634/634 628/628/628
f 628/628/628 634/634/634 635/635/635
f 628/628/628 635/635/635 629/629/629
f 630/630/630 636/636/636 637/637/637
f 630/630/630 637/637/637 631/631/631
f 631/631/631 637/637/637 638/638/638
f 631/631/631 638/638/638 632/632/632
f 632/632/632 638/638/638 639/639/639
f 632/632/632 639/639/639 633/633/633
f 633/633/633 639/639/639 640/640/640
f 633/633/633 640/640/640 634/634/634
f 634/634/634 640/640/640 641/641/641
f 634/634/634 641/641/641 635/635/635
f 636/636/636 642/642/642 643/643/643
f 636/636/636 643/643/643 637/637/637
f 637/637/637 643/643/643 644/644/644
f 637/637/637 644/644/644 638/638/638
f 638/638/638 644/644/644 645/645/645
f 638/638/638 645/645/645 639/639/639
f 639/639/639 645/645/645 646/646/646
f 639/639/639 646/646/646 640/640/640
f 640/640/640 646/646/646 647/647/647
f 640/640/640 647/647/647 641/641/641
f 642/642/642 648/648/648 649/649/649
f 642/642/642 649/649/649 643/643/643
f 643/643/643 649/649/649 650/650/650
f 643/643/643 650/650/650 644/644/644
f 644/644/644 650/650/650 651/651/651
f 644/644/644 651/651/651 645/645/645
f 645/645/645 651/651/651 652/652/652
f 645/645/645 652/652/652 646/646/646
f 646/646/646 652/652/652 653/653/653
f 646/646/646 653/653/653 647/647/647
f 648/648/648 654/654/654 655/655/655
f 648/648/648 655/655/655 649/649/649
f 649/649/649 655/655/655 656/656/656
f 649/649/649 656/656/656 650/650/650
f 650/650/650 656/656/656 657/657/657
f 650/650/650 657/657/657 651/651/651
f 651/651/651 657/657/657 658/658/658
f 651/651/651 658/658/658 652/652/652
f 652/652/652 658/658/658 659/659/659
f 652/652/652 659/659/659 653/653/653
f 654/654/654 660/660/660 661/661/661
f 654/654/654 661/661/661 655/655/655
f 655/655/655 661/661/661 662/662/662
f 655/655/655 662/662/662 656/656/656
f 656/656/656 662/662/662 663/663/663
f 656/656/656 663/663/663 657/657/657
f 657/657/657 663/663/663 664/664/664
f 657/657/657 664/664/664 658/658/658
f 658/658/658 664/664/664 665/665/665
f 658/658/658 665/665/665 659/659/659
f 660/660/660 666/666/666 667/667/667
f 660/660/660 667/667/667 661/661/661
f 661/661/661 667/667/667 668/668/668
f 661/661/661 668/668/668 662/662/662
f 662/662/662 668/668/668 669/669/669
f 662/662/662 669/669/669 663/663/663
f 663/663/663 669/669/669 670/670/670
f 663/663/663 670/670/670 664/664/664
f 664/664/664 670/670/670 671/671/671
f 664/664/664 671/671/671 665/665/665
f 666/666/666 672/672/672 673/673/673
f 666/666/666 673/673/673 667/667/667
f 667/667/667 673/673/673 674/674/674
f 667/667/667 674/674/674 668/668/668
f 668/668/668 674/674/674 675/675/675
f 668/668/668 675/675/675 669/669/669
f 669/669/669 675/675/675 676/676/676
f 669/669/669 676/676/676 670/670/670
f 670/670/670 676/676/676 677/677/677
f 670/670/670 677/677/677 671/671/671
f 672/672/672 678/678/678 679/679/679
f 672/672/672 679/679/679 673/673/673
f 673/673/673 679/679/679 680/680/680
f 673/673/673 680/680/680 674/674/674
f 674/674/674 680/680/680 681/681/681
f 674/674/674 681/681/681 675/675/675
f 675/675/675 681/681/681 682/682/682
f 675/675/675 682/682/682 676/676/676
f 676/676/676 682/682/682 683/683/683
f 676/676/676 683/683/683 677/677/677
f 678/678/678 684/684/684 685/685/685
f 678/678/678 685/685/685 679/679/679
f 679/679/679 685/685/685 686/686/686
f 679/679/679 686/686/686 680/680/680
f 680/680/680 686/686/686 687/687/687
f 680/680/680 687/687/687 681/681/681
f 681/681/681 687/687/687 688/688/688
f 681/681/681 688/688/688 682/682/682
f 682/682/682 688/688/688 689/689/689
f 682/682/682 689/689/689 683/683/683
f 684/684/684 690/690/690 691/691/691
f 684/684/684 691/691/691 685/685/685
f 685/685/685 691/691/691 692/692/692
f 685/685/685 692/692/692 686/686/686
f 686/686/686 692/692/692 693/693/693
f 686/686/686 693/693/693 687/687/687
f 687/687/687 693/693/693 694/694/694
f 687/687/687 694/694/694 688/688/688
f 688/688/688 694/694/694 695/695/695
f 688/688/688 695/695/695 689/689/689
f 690/690/690 696/696/696 697/697/697
f 690/690/690 697/697/697 691/691/691
f 691/691/691 697/697/697 698/698/698
f 691/691/691 698/698/698 692/692/692
f 692/692/692 698/698/698 699/699/699
f 692/692/692 699/699/699 693/693/693
f 693/693/693 699/699/699 700/700/700
f 693/693/693 700/700/700 694/694/694
f 694/694/694 700/700/700 701/701/701
f 694/694/694 701/701/701 695/695/695
f 696/696/696 702/702/702 703/703/703
f 696/696/696 703/703/703 697/697/697
f 697/697/697 703/703/703 704/704/704
f 697/697/697 704/704/704 698/698/698
f 698/698/698 704/704/704 705/705/705
f 698/698/698 705/705/705 699/699/699
f 699/699/699 705/705/705 706/706/706
f 699/699/699 706/706/706 700/700/700
f 700/700/700 706/706/706 707/707/707
f 700/700/700 707/707/707 701/701/701
f 702/702/702 708/708/708 709/709/709
f 702/702/702 709/709/709 703/703/703
f 703/703/703 709/709/709 710/710/710
f 703/703/703 710/710/710 704/704/704
f 704/704/704 710/710/710 711/711/711
f 704/704/704 711/711/711 705/705/705
f 705/705/705 711/711/711 712/712/712
f 705/705/705 712/712/712 706/706/706
f 706/706/706 712/712/712 713/713/713
f 706/706/706 713/713/713 707/707/707
f 708/708/708 714/714/714 715/715/715
f 708/708/708 715/715/715 709/709/709
f 709/709/709 715/715/715 716/716/716
f 709/709/709 716/716/716 710/710/710
f 710/710/710 716/716/716 717/717/717
f 710/710/710 717/717/717 711/711/711
f 711/711/711 717/717/717 718/718/718
f 711/711/711 718/718/718 712/712/712
f 712/712/712 718/718/718 719/719/719
f 712/712/712 719/719/719 713/713/713
f 714/714/714 720/720/720 721/721/721
f 714/714/714 721/721/721 715/715/715
f 715/715/715 721/721/721 722/722/722
f 715/715/715 722/722/722 716/716/716
f 716/716/716 722/722/722 723/723/723
f 716/716/716 723/723/723 717/717/717
f 717/717/717 723/723/723 724/724/724
f 717/717/717 724/724/724 718/718/718
f 718/718/718 724/724/724 725/725/725
f 718/718/718 725/725/725 719/719/719
f 720/720/720 726/726/726 727/727/727
f 720/720/720 727/727/727 721/721/721
f 721/721/721 727/727/727 728/728/728
f 721/721/721 728/728/728 722/722/722
f 722/722/722 728/728/728 729/729/729
f 722/722/722 729/729/729 723/723/723
f 723/723/723 729/729/729 730/730/730
f 723/723/723 730/730/730 724/724/724
f 724/724/724 730/730/730 731/731/731
f 724/724/724 731/731/731 725/725/725
f 732/732/732 738/738/738 739/739/739
f 732/732/732 739/739/739 733/733/733
f 733/733/733 739/739/739 740/740/740
f 733/733/733 740/740/740 734/734/734
f 734/734/734 740/740/740 741/741/741
f 734/734/734 741/741/741 735/735/735
f 735/735/735 741/741/741 742/742/742
f 735/735/735 742/742/742 736/736/736
f 736/736/736 742/742/742 743/743/743
f 736/736/736 743/743/743 737/737/737
f 738/738/738 744/744/744 745/745/745
f 738/738/738 745/745/745 739/739/739
f 739/739/739 745/745/745 746/746/746
f 739/739/739 746/746/746 740/740/740
f 740/740/740 746/746/746 747/747/747
f 740/740/740 747/747/747 741/741/741
f 741/741/741 747/747/747 748/748/748
f 741/741/741 748/748/748 742/742/742
f 742/742/742 748/748/748 749/749/749
f 742/742/742 749/749/749 743/743/743
f 744/744/744 750/750/750 751/751/751
f 744/744/744 751/751/751 745/745/745
f 745/745/745 751/751/751 752/752/752
f 745/745/745 752/752/752 746/746/746
f 746/746/746 752/752/752 753/753/753
f 746/746/746 753/753/753 747/747/747
f 747/747/747 753/753/753 754/754/754
f 747/747/747 754/754/754 748/748/748
f 748/748/748 754/754/754 755/755/755
f 748/748/748 755/755/755 749/749/749
f 750/750/750 756/756/756 757/757/757
f 750/750/750 757/757/757 751/751/751
f 751/751/751 757/757/757 758/758/758
f 751/751/751 758/758/758 752/752/752
f 752/752/752 758/758/758 759/759/759
f 752/752/752 759/759/759 753/753/753
f 753/753/753 759/759/759 760/760/760
f 753/753/753 760/760/760 754/754/754
f 754/754/754 760/760/760 761/761/761
f 754/754/754 761/761/761 755/755/755
f 756/756/756 762/762/762 763/763/763
f 756/756/756 763/763/763 757/757/757
f 757/757/757 763/763/763 764/764/764
f 757/757/757 764/764/764 758/758/758
f 758/758/758 764/764/764 765/765/765
f 758/758/758 765/765/765 759/759/759
f 759/759/759 765/765/765 766/766/766
f 759/759/759 766/766/766 760/760/760
f 760/760/760 766/766/766 767/767/767
f 760/760/760 767/767/767 761/761/761
f 762/762/762 768/768/768 769/769/769
f 762/762/762 769/769/769 763/763/763
f 763/763/763 769/769/769 770/770/770
f 763/763/763 770/770/770 764/764/764
f 764/764/764 770/770/770 771/771/771
f 764/764/764 771/771/771 765/765/765
f 765/765/765 771/771/771 772/772/772
f 765/765/765 772/772/772 766/766/766
f 766/766/766 772/772/772 773/773/773
f 766/766/766 773/773/773 767/767/767
f 768/768/768 774/774/774 775/775/775
f 768/768/768 775/775/775 769/769/769
f 769/769/769 775/775/775 776/776/776
f 769/769/769 776/776/776 770/770/770
f 770/770/770 776/776/776 777/777/777
f 770/770/770 777/777/777 771/771/771
f 771/771/771 777/777/777 778/778/778
f 771/771/771 778/778/778 772/772/772
f 772/772/772 778/778/778 779/779/779
f 772/772/772 779/779/779 773/773/773
f 774/774/774 780/780/780 781/781/781
f 774/774/774 781/781/781 775/775/775
f 775/775/775 781/781/781 782/782/782
f 775/775/775 782/782/782 776/776/776
f 776/776/776 782/782/782 783/783/783
f 776/776/776 783/783/783 777/777/777
f 777/777/777 783/783/783 784/784/784
f 777/777/777 784/784/784 778/778/778
f 778/778/778 784/784/784 785/785/785
f 778/778/778 785/785/785 779/779/779
f 780/780/780 786/786/786 787/787/787
f 780/780/780 787/787/787 781/781/781
f 781/781/781 787/787/787 788/788/788
f 781/781/781 788/788/788 782/782/782
f 782/782/782 788/788/788 789/789/789
f 782/782/782 789/789/789 783/783/783
f 783/783/783 789/789/789 790/790/790
f 783/783/783 790/790/790 784/784/784
f 784/784/784 790/790/790 791/791/791
f 784/784/784 791/791/791 785/785/785
f 786/786/786 792/792/792 793/793/793
f 786/786/786 793/793/793 787/787/787
f 787/787/787 793/793/793 794/794/794
f 787/787/787 794/794/794 788/788/788
f 788/788/788 794/794/794 795/795/795
f 788/788/788 795/795/795 789/789/789
f 789/789/789 795/795/795 796/796/796
f 789/789/789 796/796/796 790/790/790
f 790/790/790 796/796/796 797/797/797
f 790/790/790 797/797/797 791/791/791
f 792/792/792 798/798/798 799/799/799
f 792/792/792 799/799/799 793/793/793
f 793/793/793 799/799/799 800/800/800
f 793/793/793 800/800/800 794/794/794
f 794/794/794 800/800/800 801/801/801
f 794/794/794 801/801/801 795/795/795
f 795/795/795 801/801/801 802/802/802
f 795/795/795 802/802/802 796/796/796
f 796/796/796 802/802/802 803/803/803
f 796/796/796 803/803/803 797/797/797
f 798/798/798 804/804/804 805/805/805
f 798/798/798 805/805/805 799/799/799
f 799/799/799 805/805/805 806/806/806
f 799/799/799 806/806/806 800/800/800
f 800/800/800 806/806/806 807/807/807
f 800/800/800 807/807/807 801/801/801
f 801/801/801 807/807/807 808/808/808
f 801/801/801 808/808/808 802/802/802
f 802/802/802 808/808/808 809/809/809
f 802/802/802 809/809/809 803/803/803
f 804/804/804 810/810/810 811/811/811
f 804/804/804 811/811/811 805/805/805
f 805/805/805 811/811/811 812/812/812
f 805/805/805 812/812/812 806/806/806
f 806/806/806 812/812/812 813/813/813
f 806/806/806 813/813/813 807/807/807
f 807/807/807 813/813/813 814/814/814
f 807/807/807 814/814/814 808/808/808
f 808/808/808 814/814/814 815/815/815
f 808/808/808 815/815/815 809/809/809
f 810/810/810 816/816/816 817/817/817
f 810/810/810 817/817/817 811/811/811
f 811/811/811 817/817/817 818/818/818
f 811/811/811 818/818/818 812/812/812
f 812/812/812 818/818/818 819/819/819
f 812/812/812 819/819/819 813/813/813
f 813/813/813 819/819/819 820/820/820
f 813/813/813 820/820/820 814/814/814
f 814/814/814 820/820/820 821/821/821
f 814/814/814 821/821/821 815/815/815
f 816/816/816 822/822/822 823/823/823
f 816/816/816 823/823/823 817/817/817
f 817/817/817 823/823/823 824/824/824
f 817/817/817 824/824/824 818/818/818
f 818/818/818 824/824/824 825/825/825
f 818/818/818 825/825/825 819/819/819
f 819/819/819 825/825/825 826/826/826
f 819/819/819 826/826/826 820/820/820
f 820/820/820 826/826/826 827/827/827
f 820/820/820 827/827/827 821/821/821
f 822/822/822 828/828/828 829/829/829
f 822/822/822 829/829/829 823/823/823
f 823/823/823 829/829/829 830/830/830
f 823/823/823 830/830/830 824/824/824
f 824/824/824 830/830/830 831/831/831
f 824/824/824 831/831/831 825/825/825
f 825/825/825 831/831/831 832/832/832
f 825/825/825 832/832/832 826/826/826
f 826/826/826 832/832/832 833/833/833
f 826/826/826 833/833/833 827/827/827
f 828/828/828 834/834/834 835/835/835
f 828/828/828 835/835/835 829/829/829
f 829/829/829 835/835/835 836/836/836
f 829/829/829 836/836/836 830/830/830
f 830/830/830 836/836/836 837/837/837
f 830/830/830 837/837/837 831/831/831
f 831/831/831 837/837/837 838/838/838
f 831/831/831 838/838/838 832/832/832
f 832/832/832 838/838/838 839/839/839
f 832/832/832 839/839/839 833/833/833
f 834/834/834 840/840/840 841/841/841
f 834/834/834 841/841/841 835/835/835
f 835/835/835 841/841/841 842/842/842
f 835/835/835 842/842/842 836/836/836
f 836/836/836 842/842/842 843/843/843
f 836/836/836 843/843/843 837/837/837
f 837/837/837 843/843/843 844/844/844
f 837/837/837 844/844/844 838/838/838
f 838/838/838 844/844/844 845/845/845
f 838/838/838 845/845/845 839/839/839
f 840/840/840 846/846/846 847/847/847
f 840/840/840 847/847/847 841/841/841
f 841/841/841 847/847/847 848/848/848
f 841/841/841 848/848/848 842/842/842
f 842/842/842 848/848/848 849/849/849
f 842/842/842 849/849/849 843/843/843
f 843/843/843 849/849/849 850/850/850
f 843/843/843 850/850/850 844/844/844
f 844/844/844 850/850/850 851/851/851
f 844/844/844 851/851/851 845/845/845
f 846/846/846 852/852/852 853/853/853
f 846/846/846 853/853/853 847/847/847
f 847/847/847 853/853/853 854/854/854
f 847/847/847 854/854/854 848/848/848
f 848/848/848 854/854/854 855/855/855
f 848/848/848 855/855/855 849/849/849
f 849/849/849 855/855/855 856/856/856
f 849/849/849 856/856/856 850/850/850
f 850/850/850 856/856/856 857/857/857
f 850/850/850 857/857/857 851/851/851
