# Sinh tự động bởi tools/mesh_kit.py - đừng sửa tay
o pz_vial
v 0.0000 -0.0300 -0.0000
v 0.0160 -0.0300 -0.0000
v 0.0190 -0.0260 -0.0000
v 0.0190 0.0160 -0.0000
v 0.0120 0.0240 -0.0000
v 0.0080 0.0260 -0.0000
v 0.0080 0.0300 -0.0000
v 0.0000 0.0300 -0.0000
v 0.0000 -0.0300 -0.0000
v 0.0148 -0.0300 -0.0061
v 0.0176 -0.0260 -0.0073
v 0.0176 0.0160 -0.0073
v 0.0111 0.0240 -0.0046
v 0.0074 0.0260 -0.0031
v 0.0074 0.0300 -0.0031
v 0.0000 0.0300 -0.0000
v 0.0000 -0.0300 -0.0000
v 0.0113 -0.0300 -0.0113
v 0.0134 -0.0260 -0.0134
v 0.0134 0.0160 -0.0134
v 0.0085 0.0240 -0.0085
v 0.0057 0.0260 -0.0057
v 0.0057 0.0300 -0.0057
v 0.0000 0.0300 -0.0000
v 0.0000 -0.0300 -0.0000
v 0.0061 -0.0300 -0.0148
v 0.0073 -0.0260 -0.0176
v 0.0073 0.0160 -0.0176
v 0.0046 0.0240 -0.0111
v 0.0031 0.0260 -0.0074
v 0.0031 0.0300 -0.0074
v 0.0000 0.0300 -0.0000
v 0.0000 -0.0300 -0.0000
v 0.0000 -0.0300 -0.0160
v 0.0000 -0.0260 -0.0190
v 0.0000 0.0160 -0.0190
v 0.0000 0.0240 -0.0120
v 0.0000 0.0260 -0.0080
v 0.0000 0.0300 -0.0080
v 0.0000 0.0300 -0.0000
v -0.0000 -0.0300 -0.0000
v -0.0061 -0.0300 -0.0148
v -0.0073 -0.0260 -0.0176
v -0.0073 0.0160 -0.0176
v -0.0046 0.0240 -0.0111
v -0.0031 0.0260 -0.0074
v -0.0031 0.0300 -0.0074
v -0.0000 0.0300 -0.0000
v -0.0000 -0.0300 -0.0000
v -0.0113 -0.0300 -0.0113
v -0.0134 -0.0260 -0.0134
v -0.0134 0.0160 -0.0134
v -0.0085 0.0240 -0.0085
v -0.0057 0.0260 -0.0057
v -0.0057 0.0300 -0.0057
v -0.0000 0.0300 -0.0000
v -0.0000 -0.0300 -0.0000
v -0.0148 -0.0300 -0.0061
v -0.0176 -0.0260 -0.0073
v -0.0176 0.0160 -0.0073
v -0.0111 0.0240 -0.0046
v -0.0074 0.0260 -0.0031
v -0.0074 0.0300 -0.0031
v -0.0000 0.0300 -0.0000
v -0.0000 -0.0300 -0.0000
v -0.0160 -0.0300 -0.0000
v -0.0190 -0.0260 -0.0000
v -0.0190 0.0160 -0.0000
v -0.0120 0.0240 -0.0000
v -0.0080 0.0260 -0.0000
v -0.0080 0.0300 -0.0000
v -0.0000 0.0300 -0.0000
v -0.0000 -0.0300 0.0000
v -0.0148 -0.0300 0.0061
v -0.0176 -0.0260 0.0073
v -0.0176 0.0160 0.0073
v -0.0111 0.0240 0.0046
v -0.0074 0.0260 0.0031
v -0.0074 0.0300 0.0031
v -0.0000 0.0300 0.0000
v -0.0000 -0.0300 0.0000
v -0.0113 -0.0300 0.0113
v -0.0134 -0.0260 0.0134
v -0.0134 0.0160 0.0134
v -0.0085 0.0240 0.0085
v -0.0057 0.0260 0.0057
v -0.0057 0.0300 0.0057
v -0.0000 0.0300 0.0000
v -0.0000 -0.0300 0.0000
v -0.0061 -0.0300 0.0148
v -0.0073 -0.0260 0.0176
v -0.0073 0.0160 0.0176
v -0.0046 0.0240 0.0111
v -0.0031 0.0260 0.0074
v -0.0031 0.0300 0.0074
v -0.0000 0.0300 0.0000
v -0.0000 -0.0300 0.0000
v -0.0000 -0.0300 0.0160
v -0.0000 -0.0260 0.0190
v -0.0000 0.0160 0.0190
v -0.0000 0.0240 0.0120
v -0.0000 0.0260 0.0080
v -0.0000 0.0300 0.0080
v -0.0000 0.0300 0.0000
v 0.0000 -0.0300 0.0000
v 0.0061 -0.0300 0.0148
v 0.0073 -0.0260 0.0176
v 0.0073 0.0160 0.0176
v 0.0046 0.0240 0.0111
v 0.0031 0.0260 0.0074
v 0.0031 0.0300 0.0074
v 0.0000 0.0300 0.0000
v 0.0000 -0.0300 0.0000
v 0.0113 -0.0300 0.0113
v 0.0134 -0.0260 0.0134
v 0.0134 0.0160 0.0134
v 0.0085 0.0240 0.0085
v 0.0057 0.0260 0.0057
v 0.0057 0.0300 0.0057
v 0.0000 0.0300 0.0000
v 0.0000 -0.0300 0.0000
v 0.0148 -0.0300 0.0061
v 0.0176 -0.0260 0.0073
v 0.0176 0.0160 0.0073
v 0.0111 0.0240 0.0046
v 0.0074 0.0260 0.0031
v 0.0074 0.0300 0.0031
v 0.0000 0.0300 0.0000
v 0.0000 -0.0300 0.0000
v 0.0160 -0.0300 0.0000
v 0.0190 -0.0260 0.0000
v 0.0190 0.0160 0.0000
v 0.0120 0.0240 0.0000
v 0.0080 0.0260 0.0000
v 0.0080 0.0300 0.0000
v 0.0000 0.0300 0.0000
vt 0.0000 0.0000
vt 0.0000 0.0160
vt 0.0000 0.0210
vt 0.0000 0.0630
vt 0.0000 0.0736
vt 0.0000 0.0781
vt 0.0000 0.0821
vt 0.0000 0.0901
vt 0.0075 0.0000
vt 0.0075 0.0160
vt 0.0075 0.0210
vt 0.0075 0.0630
vt 0.0075 0.0736
vt 0.0075 0.0781
vt 0.0075 0.0821
vt 0.0075 0.0901
vt 0.0149 0.0000
vt 0.0149 0.0160
vt 0.0149 0.0210
vt 0.0149 0.0630
vt 0.0149 0.0736
vt 0.0149 0.0781
vt 0.0149 0.0821
vt 0.0149 0.0901
vt 0.0224 0.0000
vt 0.0224 0.0160
vt 0.0224 0.0210
vt 0.0224 0.0630
vt 0.0224 0.0736
vt 0.0224 0.0781
vt 0.0224 0.0821
vt 0.0224 0.0901
vt 0.0298 0.0000
vt 0.0298 0.0160
vt 0.0298 0.0210
vt 0.0298 0.0630
vt 0.0298 0.0736
vt 0.0298 0.0781
vt 0.0298 0.0821
vt 0.0298 0.0901
vt 0.0373 0.0000
vt 0.0373 0.0160
vt 0.0373 0.0210
vt 0.0373 0.0630
vt 0.0373 0.0736
vt 0.0373 0.0781
vt 0.0373 0.0821
vt 0.0373 0.0901
vt 0.0448 0.0000
vt 0.0448 0.0160
vt 0.0448 0.0210
vt 0.0448 0.0630
vt 0.0448 0.0736
vt 0.0448 0.0781
vt 0.0448 0.0821
vt 0.0448 0.0901
vt 0.0522 0.0000
vt 0.0522 0.0160
vt 0.0522 0.0210
vt 0.0522 0.0630
vt 0.0522 0.0736
vt 0.0522 0.0781
vt 0.0522 0.0821
vt 0.0522 0.0901
vt 0.0597 0.0000
vt 0.0597 0.0160
vt 0.0597 0.0210
vt 0.0597 0.0630
vt 0.0597 0.0736
vt 0.0597 0.0781
vt 0.0597 0.0821
vt 0.0597 0.0901
vt 0.0672 0.0000
vt 0.0672 0.0160
vt 0.0672 0.0210
vt 0.0672 0.0630
vt 0.0672 0.0736
vt 0.0672 0.0781
vt 0.0672 0.0821
vt 0.0672 0.0901
vt 0.0746 0.0000
vt 0.0746 0.0160
vt 0.0746 0.0210
vt 0.0746 0.0630
vt 0.0746 0.0736
vt 0.0746 0.0781
vt 0.0746 0.0821
vt 0.0746 0.0901
vt 0.0821 0.0000
vt 0.0821 0.0160
vt 0.0821 0.0210
vt 0.0821 0.0630
vt 0.0821 0.0736
vt 0.0821 0.0781
vt 0.0821 0.0821
vt 0.0821 0.0901
vt 0.0895 0.0000
vt 0.0895 0.0160
vt 0.0895 0.0210
vt 0.0895 0.0630
vt 0.0895 0.0736
vt 0.0895 0.0781
vt 0.0895 0.0821
vt 0.0895 0.0901
vt 0.0970 0.0000
vt 0.0970 0.0160
vt 0.0970 0.0210
vt 0.0970 0.0630
vt 0.0970 0.0736
vt 0.0970 0.0781
vt 0.0970 0.0821
vt 0.0970 0.0901
vt 0.1045 0.0000
vt 0.1045 0.0160
vt 0.1045 0.0210
vt 0.1045 0.0630
vt 0.1045 0.0736
vt 0.1045 0.0781
vt 0.1045 0.0821
vt 0.1045 0.0901
vt 0.1119 0.0000
vt 0.1119 0.0160
vt 0.1119 0.0210
vt 0.1119 0.0630
vt 0.1119 0.0736
vt 0.1119 0.0781
vt 0.1119 0.0821
vt 0.1119 0.0901
vt 0.1194 0.0000
vt 0.1194 0.0160
vt 0.1194 0.0210
vt 0.1194 0.0630
vt 0.1194 0.0736
vt 0.1194 0.0781
vt 0.1194 0.0821
vt 0.1194 0.0901
vn 0.000 -1.000 -0.000
vn 0.206 -0.979 -0.000
vn 0.998 -0.065 -0.000
vn 0.990 0.139 -0.000
vn 0.673 0.740 -0.000
vn 0.832 0.555 -0.000
vn 0.447 0.894 -0.000
vn 0.000 1.000 -0.000
vn 0.000 -1.000 -0.000
vn 0.190 -0.979 -0.079
vn 0.922 -0.065 -0.382
vn 0.915 0.139 -0.379
vn 0.621 0.740 -0.257
vn 0.769 0.555 -0.318
vn 0.413 0.894 -0.171
vn 0.000 1.000 -0.000
vn 0.000 -1.000 -0.000
vn 0.146 -0.979 -0.146
vn 0.706 -0.065 -0.706
vn 0.700 0.139 -0.700
vn 0.476 0.740 -0.476
vn 0.588 0.555 -0.588
vn 0.316 0.894 -0.316
vn 0.000 1.000 -0.000
vn 0.000 -1.000 -0.000
vn 0.079 -0.979 -0.190
vn 0.382 -0.065 -0.922
vn 0.379 0.139 -0.915
vn 0.257 0.740 -0.621
vn 0.318 0.555 -0.769
vn 0.171 0.894 -0.413
vn 0.000 1.000 -0.000
vn 0.000 -1.000 -0.000
vn 0.000 -0.979 -0.206
vn 0.000 -0.065 -0.998
vn 0.000 0.139 -0.990
vn 0.000 0.740 -0.673
vn 0.000 0.555 -0.832
vn 0.000 0.894 -0.447
vn 0.000 1.000 -0.000
vn -0.000 -1.000 -0.000
vn -0.079 -0.979 -0.190
vn -0.382 -0.065 -0.922
vn -0.379 0.139 -0.915
vn -0.257 0.740 -0.621
vn -0.318 0.555 -0.769
vn -0.171 0.894 -0.413
vn -0.000 1.000 -0.000
vn -0.000 -1.000 -0.000
vn -0.146 -0.979 -0.146
vn -0.706 -0.065 -0.706
vn -0.700 0.139 -0.700
vn -0.476 0.740 -0.476
vn -0.588 0.555 -0.588
vn -0.316 0.894 -0.316
vn -0.000 1.000 -0.000
vn -0.000 -1.000 -0.000
vn -0.190 -0.979 -0.079
vn -0.922 -0.065 -0.382
vn -0.915 0.139 -0.379
vn -0.621 0.740 -0.257
vn -0.769 0.555 -0.318
vn -0.413 0.894 -0.171
vn -0.000 1.000 -0.000
vn -0.000 -1.000 -0.000
vn -0.206 -0.979 -0.000
vn -0.998 -0.065 -0.000
vn -0.990 0.139 -0.000
vn -0.673 0.740 -0.000
vn -0.832 0.555 -0.000
vn -0.447 0.894 -0.000
vn -0.000 1.000 -0.000
vn -0.000 -1.000 0.000
vn -0.190 -0.979 0.079
vn -0.922 -0.065 0.382
vn -0.915 0.139 0.379
vn -0.621 0.740 0.257
vn -0.769 0.555 0.318
vn -0.413 0.894 0.171
vn -0.000 1.000 0.000
vn -0.000 -1.000 0.000
vn -0.146 -0.979 0.146
vn -0.706 -0.065 0.706
vn -0.700 0.139 0.700
vn -0.476 0.740 0.476
vn -0.588 0.555 0.588
vn -0.316 0.894 0.316
vn -0.000 1.000 0.000
vn -0.000 -1.000 0.000
vn -0.079 -0.979 0.190
vn -0.382 -0.065 0.922
vn -0.379 0.139 0.915
vn -0.257 0.740 0.621
vn -0.318 0.555 0.769
vn -0.171 0.894 0.413
vn -0.000 1.000 0.000
vn -0.000 -1.000 0.000
vn -0.000 -0.979 0.206
vn -0.000 -0.065 0.998
vn -0.000 0.139 0.990
vn -0.000 0.740 0.673
vn -0.000 0.555 0.832
vn -0.000 0.894 0.447
vn -0.000 1.000 0.000
vn 0.000 -1.000 0.000
vn 0.079 -0.979 0.190
vn 0.382 -0.065 0.922
vn 0.379 0.139 0.915
vn 0.257 0.740 0.621
vn 0.318 0.555 0.769
vn 0.171 0.894 0.413
vn 0.000 1.000 0.000
vn 0.000 -1.000 0.000
vn 0.146 -0.979 0.146
vn 0.706 -0.065 0.706
vn 0.700 0.139 0.700
vn 0.476 0.740 0.476
vn 0.588 0.555 0.588
vn 0.316 0.894 0.316
vn 0.000 1.000 0.000
vn 0.000 -1.000 0.000
vn 0.190 -0.979 0.079
vn 0.922 -0.065 0.382
vn 0.915 0.139 0.379
vn 0.621 0.740 0.257
vn 0.769 0.555 0.318
vn 0.413 0.894 0.171
vn 0.000 1.000 0.000
vn 0.000 -1.000 0.000
vn 0.206 -0.979 0.000
vn 0.998 -0.065 0.000
vn 0.990 0.139 0.000
vn 0.673 0.740 0.000
vn 0.832 0.555 0.000
vn 0.447 0.894 0.000
vn 0.000 1.000 0.000
v 0.0000 -0.0270 -0.0000
v 0.0170 -0.0270 -0.0000
v 0.0170 0.0120 -0.0000
v 0.0000 0.0120 -0.0000
v 0.0000 -0.0270 -0.0000
v 0.0153 -0.0270 -0.0074
v 0.0153 0.0120 -0.0074
v 0.0000 0.0120 -0.0000
v 0.0000 -0.0270 -0.0000
v 0.0106 -0.0270 -0.0133
v 0.0106 0.0120 -0.0133
v 0.0000 0.0120 -0.0000
v 0.0000 -0.0270 -0.0000
v 0.0038 -0.0270 -0.0166
v 0.0038 0.0120 -0.0166
v 0.0000 0.0120 -0.0000
v -0.0000 -0.0270 -0.0000
v -0.0038 -0.0270 -0.0166
v -0.0038 0.0120 -0.0166
v -0.0000 0.0120 -0.0000
v -0.0000 -0.0270 -0.0000
v -0.0106 -0.0270 -0.0133
v -0.0106 0.0120 -0.0133
v -0.0000 0.0120 -0.0000
v -0.0000 -0.0270 -0.0000
v -0.0153 -0.0270 -0.0074
v -0.0153 0.0120 -0.0074
v -0.0000 0.0120 -0.0000
v -0.0000 -0.0270 -0.0000
v -0.0170 -0.0270 -0.0000
v -0.0170 0.0120 -0.0000
v -0.0000 0.0120 -0.0000
v -0.0000 -0.0270 0.0000
v -0.0153 -0.0270 0.0074
v -0.0153 0.0120 0.0074
v -0.0000 0.0120 0.0000
v -0.0000 -0.0270 0.0000
v -0.0106 -0.0270 0.0133
v -0.0106 0.0120 0.0133
v -0.0000 0.0120 0.0000
v -0.0000 -0.0270 0.0000
v -0.0038 -0.0270 0.0166
v -0.0038 0.0120 0.0166
v -0.0000 0.0120 0.0000
v 0.0000 -0.0270 0.0000
v 0.0038 -0.0270 0.0166
v 0.0038 0.0120 0.0166
v 0.0000 0.0120 0.0000
v 0.0000 -0.0270 0.0000
v 0.0106 -0.0270 0.0133
v 0.0106 0.0120 0.0133
v 0.0000 0.0120 0.0000
v 0.0000 -0.0270 0.0000
v 0.0153 -0.0270 0.0074
v 0.0153 0.0120 0.0074
v 0.0000 0.0120 0.0000
v 0.0000 -0.0270 0.0000
v 0.0170 -0.0270 0.0000
v 0.0170 0.0120 0.0000
v 0.0000 0.0120 0.0000
vt 0.0000 0.0000
vt 0.0000 0.0170
vt 0.0000 0.0560
vt 0.0000 0.0730
vt 0.0076 0.0000
vt 0.0076 0.0170
vt 0.0076 0.0560
vt 0.0076 0.0730
vt 0.0153 0.0000
vt 0.0153 0.0170
vt 0.0153 0.0560
vt 0.0153 0.0730
vt 0.0229 0.0000
vt 0.0229 0.0170
vt 0.0229 0.0560
vt 0.0229 0.0730
vt 0.0305 0.0000
vt 0.0305 0.0170
vt 0.0305 0.0560
vt 0.0305 0.0730
vt 0.0381 0.0000
vt 0.0381 0.0170
vt 0.0381 0.0560
vt 0.0381 0.0730
vt 0.0458 0.0000
vt 0.0458 0.0170
vt 0.0458 0.0560
vt 0.0458 0.0730
vt 0.0534 0.0000
vt 0.0534 0.0170
vt 0.0534 0.0560
vt 0.0534 0.0730
vt 0.0610 0.0000
vt 0.0610 0.0170
vt 0.0610 0.0560
vt 0.0610 0.0730
vt 0.0687 0.0000
vt 0.0687 0.0170
vt 0.0687 0.0560
vt 0.0687 0.0730
vt 0.0763 0.0000
vt 0.0763 0.0170
vt 0.0763 0.0560
vt 0.0763 0.0730
vt 0.0839 0.0000
vt 0.0839 0.0170
vt 0.0839 0.0560
vt 0.0839 0.0730
vt 0.0916 0.0000
vt 0.0916 0.0170
vt 0.0916 0.0560
vt 0.0916 0.0730
vt 0.0992 0.0000
vt 0.0992 0.0170
vt 0.0992 0.0560
vt 0.0992 0.0730
vt 0.1068 0.0000
vt 0.1068 0.0170
vt 0.1068 0.0560
vt 0.1068 0.0730
vn 0.000 -1.000 -0.000
vn 0.917 -0.400 -0.000
vn 0.917 0.400 -0.000
vn 0.000 1.000 -0.000
vn 0.000 -1.000 -0.000
vn 0.826 -0.400 -0.398
vn 0.826 0.400 -0.398
vn 0.000 1.000 -0.000
vn 0.000 -1.000 -0.000
vn 0.572 -0.400 -0.717
vn 0.572 0.400 -0.717
vn 0.000 1.000 -0.000
vn 0.000 -1.000 -0.000
vn 0.204 -0.400 -0.894
vn 0.204 0.400 -0.894
vn 0.000 1.000 -0.000
vn -0.000 -1.000 -0.000
vn -0.204 -0.400 -0.894
vn -0.204 0.400 -0.894
vn -0.000 1.000 -0.000
vn -0.000 -1.000 -0.000
vn -0.572 -0.400 -0.717
vn -0.572 0.400 -0.717
vn -0.000 1.000 -0.000
vn -0.000 -1.000 -0.000
vn -0.826 -0.400 -0.398
vn -0.826 0.400 -0.398
vn -0.000 1.000 -0.000
vn -0.000 -1.000 -0.000
vn -0.917 -0.400 -0.000
vn -0.917 0.400 -0.000
vn -0.000 1.000 -0.000
vn -0.000 -1.000 0.000
vn -0.826 -0.400 0.398
vn -0.826 0.400 0.398
vn -0.000 1.000 0.000
vn -0.000 -1.000 0.000
vn -0.572 -0.400 0.717
vn -0.572 0.400 0.717
vn -0.000 1.000 0.000
vn -0.000 -1.000 0.000
vn -0.204 -0.400 0.894
vn -0.204 0.400 0.894
vn -0.000 1.000 0.000
vn 0.000 -1.000 0.000
vn 0.204 -0.400 0.894
vn 0.204 0.400 0.894
vn 0.000 1.000 0.000
vn 0.000 -1.000 0.000
vn 0.572 -0.400 0.717
vn 0.572 0.400 0.717
vn 0.000 1.000 0.000
vn 0.000 -1.000 0.000
vn 0.826 -0.400 0.398
vn 0.826 0.400 0.398
vn 0.000 1.000 0.000
vn 0.000 -1.000 0.000
vn 0.917 -0.400 0.000
vn 0.917 0.400 0.000
vn 0.000 1.000 0.000
v 0.0000 0.0280 -0.0000
v 0.0105 0.0280 -0.0000
v 0.0105 0.0440 -0.0000
v 0.0000 0.0450 -0.0000
v 0.0000 0.0280 -0.0000
v 0.0095 0.0280 -0.0046
v 0.0095 0.0440 -0.0046
v 0.0000 0.0450 -0.0000
v 0.0000 0.0280 -0.0000
v 0.0065 0.0280 -0.0082
v 0.0065 0.0440 -0.0082
v 0.0000 0.0450 -0.0000
v 0.0000 0.0280 -0.0000
v 0.0023 0.0280 -0.0102
v 0.0023 0.0440 -0.0102
v 0.0000 0.0450 -0.0000
v -0.0000 0.0280 -0.0000
v -0.0023 0.0280 -0.0102
v -0.0023 0.0440 -0.0102
v -0.0000 0.0450 -0.0000
v -0.0000 0.0280 -0.0000
v -0.0065 0.0280 -0.0082
v -0.0065 0.0440 -0.0082
v -0.0000 0.0450 -0.0000
v -0.0000 0.0280 -0.0000
v -0.0095 0.0280 -0.0046
v -0.0095 0.0440 -0.0046
v -0.0000 0.0450 -0.0000
v -0.0000 0.0280 -0.0000
v -0.0105 0.0280 -0.0000
v -0.0105 0.0440 -0.0000
v -0.0000 0.0450 -0.0000
v -0.0000 0.0280 0.0000
v -0.0095 0.0280 0.0046
v -0.0095 0.0440 0.0046
v -0.0000 0.0450 0.0000
v -0.0000 0.0280 0.0000
v -0.0065 0.0280 0.0082
v -0.0065 0.0440 0.0082
v -0.0000 0.0450 0.0000
v -0.0000 0.0280 0.0000
v -0.0023 0.0280 0.0102
v -0.0023 0.0440 0.0102
v -0.0000 0.0450 0.0000
v 0.0000 0.0280 0.0000
v 0.0023 0.0280 0.0102
v 0.0023 0.0440 0.0102
v 0.0000 0.0450 0.0000
v 0.0000 0.0280 0.0000
v 0.0065 0.0280 0.0082
v 0.0065 0.0440 0.0082
v 0.0000 0.0450 0.0000
v 0.0000 0.0280 0.0000
v 0.0095 0.0280 0.0046
v 0.0095 0.0440 0.0046
v 0.0000 0.0450 0.0000
v 0.0000 0.0280 0.0000
v 0.0105 0.0280 0.0000
v 0.0105 0.0440 0.0000
v 0.0000 0.0450 0.0000
vt 0.0000 0.0000
vt 0.0000 0.0105
vt 0.0000 0.0265
vt 0.0000 0.0370
vt 0.0047 0.0000
vt 0.0047 0.0105
vt 0.0047 0.0265
vt 0.0047 0.0370
vt 0.0094 0.0000
vt 0.0094 0.0105
vt 0.0094 0.0265
vt 0.0094 0.0370
vt 0.0141 0.0000
vt 0.0141 0.0105
vt 0.0141 0.0265
vt 0.0141 0.0370
vt 0.0188 0.0000
vt 0.0188 0.0105
vt 0.0188 0.0265
vt 0.0188 0.0370
vt 0.0236 0.0000
vt 0.0236 0.0105
vt 0.0236 0.0265
vt 0.0236 0.0370
vt 0.0283 0.0000
vt 0.0283 0.0105
vt 0.0283 0.0265
vt 0.0283 0.0370
vt 0.0330 0.0000
vt 0.0330 0.0105
vt 0.0330 0.0265
vt 0.0330 0.0370
vt 0.0377 0.0000
vt 0.0377 0.0105
vt 0.0377 0.0265
vt 0.0377 0.0370
vt 0.0424 0.0000
vt 0.0424 0.0105
vt 0.0424 0.0265
vt 0.0424 0.0370
vt 0.0471 0.0000
vt 0.0471 0.0105
vt 0.0471 0.0265
vt 0.0471 0.0370
vt 0.0518 0.0000
vt 0.0518 0.0105
vt 0.0518 0.0265
vt 0.0518 0.0370
vt 0.0565 0.0000
vt 0.0565 0.0105
vt 0.0565 0.0265
vt 0.0565 0.0370
vt 0.0613 0.0000
vt 0.0613 0.0105
vt 0.0613 0.0265
vt 0.0613 0.0370
vt 0.0660 0.0000
vt 0.0660 0.0105
vt 0.0660 0.0265
vt 0.0660 0.0370
vn 0.000 -1.000 -0.000
vn 0.836 -0.549 -0.000
vn 0.851 0.525 -0.000
vn 0.095 0.995 -0.000
vn 0.000 -1.000 -0.000
vn 0.753 -0.549 -0.363
vn 0.767 0.525 -0.369
vn 0.085 0.995 -0.041
vn 0.000 -1.000 -0.000
vn 0.521 -0.549 -0.654
vn 0.530 0.525 -0.665
vn 0.059 0.995 -0.074
vn 0.000 -1.000 -0.000
vn 0.186 -0.549 -0.815
vn 0.189 0.525 -0.829
vn 0.021 0.995 -0.092
vn -0.000 -1.000 -0.000
vn -0.186 -0.549 -0.815
vn -0.189 0.525 -0.829
vn -0.021 0.995 -0.092
vn -0.000 -1.000 -0.000
vn -0.521 -0.549 -0.654
vn -0.530 0.525 -0.665
vn -0.059 0.995 -0.074
vn -0.000 -1.000 -0.000
vn -0.753 -0.549 -0.363
vn -0.767 0.525 -0.369
vn -0.085 0.995 -0.041
vn -0.000 -1.000 -0.000
vn -0.836 -0.549 -0.000
vn -0.851 0.525 -0.000
vn -0.095 0.995 -0.000
vn -0.000 -1.000 0.000
vn -0.753 -0.549 0.363
vn -0.767 0.525 0.369
vn -0.085 0.995 0.041
vn -0.000 -1.000 0.000
vn -0.521 -0.549 0.654
vn -0.530 0.525 0.665
vn -0.059 0.995 0.074
vn -0.000 -1.000 0.000
vn -0.186 -0.549 0.815
vn -0.189 0.525 0.829
vn -0.021 0.995 0.092
vn 0.000 -1.000 0.000
vn 0.186 -0.549 0.815
vn 0.189 0.525 0.829
vn 0.021 0.995 0.092
vn 0.000 -1.000 0.000
vn 0.521 -0.549 0.654
vn 0.530 0.525 0.665
vn 0.059 0.995 0.074
vn 0.000 -1.000 0.000
vn 0.753 -0.549 0.363
vn 0.767 0.525 0.369
vn 0.085 0.995 0.041
vn 0.000 -1.000 0.000
vn 0.836 -0.549 0.000
vn 0.851 0.525 0.000
vn 0.095 0.995 0.000
usemtl glass
f 1/1/1 9/9/9 10/10/10
f 1/1/1 10/10/10 2/2/2
f 2/2/2 10/10/10 11/11/11
f 2/2/2 11/11/11 3/3/3
f 3/3/3 11/11/11 12/12/12
f 3/3/3 12/12/12 4/4/4
f 4/4/4 12/12/12 13/13/13
f 4/4/4 13/13/13 5/5/5
f 5/5/5 13/13/13 14/14/14
f 5/5/5 14/14/14 6/6/6
f 6/6/6 14/14/14 15/15/15
f 6/6/6 15/15/15 7/7/7
f 7/7/7 15/15/15 16/16/16
f 7/7/7 16/16/16 8/8/8
f 9/9/9 17/17/17 18/18/18
f 9/9/9 18/18/18 10/10/10
f 10/10/10 18/18/18 19/19/19
f 10/10/10 19/19/19 11/11/11
f 11/11/11 19/19/19 20/20/20
f 11/11/11 20/20/20 12/12/12
f 12/12/12 20/20/20 21/21/21
f 12/12/12 21/21/21 13/13/13
f 13/13/13 21/21/21 22/22/22
f 13/13/13 22/22/22 14/14/14
f 14/14/14 22/22/22 23/23/23
f 14/14/14 23/23/23 15/15/15
f 15/15/15 23/23/23 24/24/24
f 15/15/15 24/24/24 16/16/16
f 17/17/17 25/25/25 26/26/26
f 17/17/17 26/26/26 18/18/18
f 18/18/18 26/26/26 27/27/27
f 18/18/18 27/27/27 19/19/19
f 19/19/19 27/27/27 28/28/28
f 19/19/19 28/28/28 20/20/20
f 20/20/20 28/28/28 29/29/29
f 20/20/20 29/29/29 21/21/21
f 21/21/21 29/29/29 30/30/30
f 21/21/21 30/30/30 22/22/22
f 22/22/22 30/30/30 31/31/31
f 22/22/22 31/31/31 23/23/23
f 23/23/23 31/31/31 32/32/32
f 23/23/23 32/32/32 24/24/24
f 25/25/25 33/33/33 34/34/34
f 25/25/25 34/34/34 26/26/26
f 26/26/26 34/34/34 35/35/35
f 26/26/26 35/35/35 27/27/27
f 27/27/27 35/35/35 36/36/36
f 27/27/27 36/36/36 28/28/28
f 28/28/28 36/36/36 37/37/37
f 28/28/28 37/37/37 29/29/29
f 29/29/29 37/37/37 38/38/38
f 29/29/29 38/38/38 30/30/30
f 30/30/30 38/38/38 39/39/39
f 30/30/30 39/39/39 31/31/31
f 31/31/31 39/39/39 40/40/40
f 31/31/31 40/40/40 32/32/32
f 33/33/33 41/41/41 42/42/42
f 33/33/33 42/42/42 34/34/34
f 34/34/34 42/42/42 43/43/43
f 34/34/34 43/43/43 35/35/35
f 35/35/35 43/43/43 44/44/44
f 35/35/35 44/44/44 36/36/36
f 36/36/36 44/44/44 45/45/45
f 36/36/36 45/45/45 37/37/37
f 37/37/37 45/45/45 46/46/46
f 37/37/37 46/46/46 38/38/38
f 38/38/38 46/46/46 47/47/47
f 38/38/38 47/47/47 39/39/39
f 39/39/39 47/47/47 48/48/48
f 39/39/39 48/48/48 40/40/40
f 41/41/41 49/49/49 50/50/50
f 41/41/41 50/50/50 42/42/42
f 42/42/42 50/50/50 51/51/51
f 42/42/42 51/51/51 43/43/43
f 43/43/43 51/51/51 52/52/52
f 43/43/43 52/52/52 44/44/44
f 44/44/44 52/52/52 53/53/53
f 44/44/44 53/53/53 45/45/45
f 45/45/45 53/53/53 54/54/54
f 45/45/45 54/54/54 46/46/46
f 46/46/46 54/54/54 55/55/55
f 46/46/46 55/55/55 47/47/47
f 47/47/47 55/55/55 56/56/56
f 47/47/47 56/56/56 48/48/48
f 49/49/49 57/57/57 58/58/58
f 49/49/49 58/58/58 50/50/50
f 50/50/50 58/58/58 59/59/59
f 50/50/50 59/59/59 51/51/51
f 51/51/51 59/59/59 60/60/60
f 51/51/51 60/60/60 52/52/52
f 52/52/52 60/60/60 61/61/61
f 52/52/52 61/61/61 53/53/53
f 53/53/53 61/61/61 62/62/62
f 53/53/53 62/62/62 54/54/54
f 54/54/54 62/62/62 63/63/63
f 54/54/54 63/63/63 55/55/55
f 55/55/55 63/63/63 64/64/64
f 55/55/55 64/64/64 56/56/56
f 57/57/57 65/65/65 66/66/66
f 57/57/57 66/66/66 58/58/58
f 58/58/58 66/66/66 67/67/67
f 58/58/58 67/67/67 59/59/59
f 59/59/59 67/67/67 68/68/68
f 59/59/59 68/68/68 60/60/60
f 60/60/60 68/68/68 69/69/69
f 60/60/60 69/69/69 61/61/61
f 61/61/61 69/69/69 70/70/70
f 61/61/61 70/70/70 62/62/62
f 62/62/62 70/70/70 71/71/71
f 62/62/62 71/71/71 63/63/63
f 63/63/63 71/71/71 72/72/72
f 63/63/63 72/72/72 64/64/64
f 65/65/65 73/73/73 74/74/74
f 65/65/65 74/74/74 66/66/66
f 66/66/66 74/74/74 75/75/75
f 66/66/66 75/75/75 67/67/67
f 67/67/67 75/75/75 76/76/76
f 67/67/67 76/76/76 68/68/68
f 68/68/68 76/76/76 77/77/77
f 68/68/68 77/77/77 69/69/69
f 69/69/69 77/77/77 78/78/78
f 69/69/69 78/78/78 70/70/70
f 70/70/70 78/78/78 79/79/79
f 70/70/70 79/79/79 71/71/71
f 71/71/71 79/79/79 80/80/80
f 71/71/71 80/80/80 72/72/72
f 73/73/73 81/81/81 82/82/82
f 73/73/73 82/82/82 74/74/74
f 74/74/74 82/82/82 83/83/83
f 74/74/74 83/83/83 75/75/75
f 75/75/75 83/83/83 84/84/84
f 75/75/75 84/84/84 76/76/76
f 76/76/76 84/84/84 85/85/85
f 76/76/76 85/85/85 77/77/77
f 77/77/77 85/85/85 86/86/86
f 77/77/77 86/86/86 78/78/78
f 78/78/78 86/86/86 87/87/87
f 78/78/78 87/87/87 79/79/79
f 79/79/79 87/87/87 88/88/88
f 79/79/79 88/88/88 80/80/80
f 81/81/81 89/89/89 90/90/90
f 81/81/81 90/90/90 82/82/82
f 82/82/82 90/90/90 91/91/91
f 82/82/82 91/91/91 83/83/83
f 83/83/83 91/91/91 92/92/92
f 83/83/83 92/92/92 84/84/84
f 84/84/84 92/92/92 93/93/93
f 84/84/84 93/93/93 85/85/85
f 85/85/85 93/93/93 94/94/94
f 85/85/85 94/94/94 86/86/86
f 86/86/86 94/94/94 95/95/95
f 86/86/86 95/95/95 87/87/87
f 87/87/87 95/95/95 96/96/96
f 87/87/87 96/96/96 88/88/88
f 89/89/89 97/97/97 98/98/98
f 89/89/89 98/98/98 90/90/90
f 90/90/90 98/98/98 99/99/99
f 90/90/90 99/99/99 91/91/91
f 91/91/91 99/99/99 100/100/100
f 91/91/91 100/100/100 92/92/92
f 92/92/92 100/100/100 101/101/101
f 92/92/92 101/101/101 93/93/93
f 93/93/93 101/101/101 102/102/102
f 93/93/93 102/102/102 94/94/94
f 94/94/94 102/102/102 103/103/103
f 94/94/94 103/103/103 95/95/95
f 95/95/95 103/103/103 104/104/104
f 95/95/95 104/104/104 96/96/96
f 97/97/97 105/105/105 106/106/106
f 97/97/97 106/106/106 98/98/98
f 98/98/98 106/106/106 107/107/107
f 98/98/98 107/107/107 99/99/99
f 99/99/99 107/107/107 108/108/108
f 99/99/99 108/108/108 100/100/100
f 100/100/100 108/108/108 109/109/109
f 100/100/100 109/109/109 101/101/101
f 101/101/101 109/109/109 110/110/110
f 101/101/101 110/110/110 102/102/102
f 102/102/102 110/110/110 111/111/111
f 102/102/102 111/111/111 103/103/103
f 103/103/103 111/111/111 112/112/112
f 103/103/103 112/112/112 104/104/104
f 105/105/105 113/113/113 114/114/114
f 105/105/105 114/114/114 106/106/106
f 106/106/106 114/114/114 115/115/115
f 106/106/106 115/115/115 107/107/107
f 107/107/107 115/115/115 116/116/116
f 107/107/107 116/116/116 108/108/108
f 108/108/108 116/116/116 117/117/117
f 108/108/108 117/117/117 109/109/109
f 109/109/109 117/117/117 118/118/118
f 109/109/109 118/118/118 110/110/110
f 110/110/110 118/118/118 119/119/119
f 110/110/110 119/119/119 111/111/111
f 111/111/111 119/119/119 120/120/120
f 111/111/111 120/120/120 112/112/112
f 113/113/113 121/121/121 122/122/122
f 113/113/113 122/122/122 114/114/114
f 114/114/114 122/122/122 123/123/123
f 114/114/114 123/123/123 115/115/115
f 115/115/115 123/123/123 124/124/124
f 115/115/115 124/124/124 116/116/116
f 116/116/116 124/124/124 125/125/125
f 116/116/116 125/125/125 117/117/117
f 117/117/117 125/125/125 126/126/126
f 117/117/117 126/126/126 118/118/118
f 118/118/118 126/126/126 127/127/127
f 118/118/118 127/127/127 119/119/119
f 119/119/119 127/127/127 128/128/128
f 119/119/119 128/128/128 120/120/120
f 121/121/121 129/129/129 130/130/130
f 121/121/121 130/130/130 122/122/122
f 122/122/122 130/130/130 131/131/131
f 122/122/122 131/131/131 123/123/123
f 123/123/123 131/131/131 132/132/132
f 123/123/123 132/132/132 124/124/124
f 124/124/124 132/132/132 133/133/133
f 124/124/124 133/133/133 125/125/125
f 125/125/125 133/133/133 134/134/134
f 125/125/125 134/134/134 126/126/126
f 126/126/126 134/134/134 135/135/135
f 126/126/126 135/135/135 127/127/127
f 127/127/127 135/135/135 136/136/136
f 127/127/127 136/136/136 128/128/128
usemtl oil
f 137/137/137 141/141/141 142/142/142
f 137/137/137 142/142/142 138/138/138
f 138/138/138 142/142/142 143/143/143
f 138/138/138 143/143/143 139/139/139
f 139/139/139 143/143/143 144/144/144
f 139/139/139 144/144/144 140/140/140
f 141/141/141 145/145/145 146/146/146
f 141/141/141 146/146/146 142/142/142
f 142/142/142 146/146/146 147/147/147
f 142/142/142 147/147/147 143/143/143
f 143/143/143 147/147/147 148/148/148
f 143/143/143 148/148/148 144/144/144
f 145/145/145 149/149/149 150/150/150
f 145/145/145 150/150/150 146/146/146
f 146/146/146 150/150/150 151/151/151
f 146/146/146 151/151/151 147/147/147
f 147/147/147 151/151/151 152/152/152
f 147/147/147 152/152/152 148/148/148
f 149/149/149 153/153/153 154/154/154
f 149/149/149 154/154/154 150/150/150
f 150/150/150 154/154/154 155/155/155
f 150/150/150 155/155/155 151/151/151
f 151/151/151 155/155/155 156/156/156
f 151/151/151 156/156/156 152/152/152
f 153/153/153 157/157/157 158/158/158
f 153/153/153 158/158/158 154/154/154
f 154/154/154 158/158/158 159/159/159
f 154/154/154 159/159/159 155/155/155
f 155/155/155 159/159/159 160/160/160
f 155/155/155 160/160/160 156/156/156
f 157/157/157 161/161/161 162/162/162
f 157/157/157 162/162/162 158/158/158
f 158/158/158 162/162/162 163/163/163
f 158/158/158 163/163/163 159/159/159
f 159/159/159 163/163/163 164/164/164
f 159/159/159 164/164/164 160/160/160
f 161/161/161 165/165/165 166/166/166
f 161/161/161 166/166/166 162/162/162
f 162/162/162 166/166/166 167/167/167
f 162/162/162 167/167/167 163/163/163
f 163/163/163 167/167/167 168/168/168
f 163/163/163 168/168/168 164/164/164
f 165/165/165 169/169/169 170/170/170
f 165/165/165 170/170/170 166/166/166
f 166/166/166 170/170/170 171/171/171
f 166/166/166 171/171/171 167/167/167
f 167/167/167 171/171/171 172/172/172
f 167/167/167 172/172/172 168/168/168
f 169/169/169 173/173/173 174/174/174
f 169/169/169 174/174/174 170/170/170
f 170/170/170 174/174/174 175/175/175
f 170/170/170 175/175/175 171/171/171
f 171/171/171 175/175/175 176/176/176
f 171/171/171 176/176/176 172/172/172
f 173/173/173 177/177/177 178/178/178
f 173/173/173 178/178/178 174/174/174
f 174/174/174 178/178/178 179/179/179
f 174/174/174 179/179/179 175/175/175
f 175/175/175 179/179/179 180/180/180
f 175/175/175 180/180/180 176/176/176
f 177/177/177 181/181/181 182/182/182
f 177/177/177 182/182/182 178/178/178
f 178/178/178 182/182/182 183/183/183
f 178/178/178 183/183/183 179/179/179
f 179/179/179 183/183/183 184/184/184
f 179/179/179 184/184/184 180/180/180
f 181/181/181 185/185/185 186/186/186
f 181/181/181 186/186/186 182/182/182
f 182/182/182 186/186/186 187/187/187
f 182/182/182 187/187/187 183/183/183
f 183/183/183 187/187/187 188/188/188
f 183/183/183 188/188/188 184/184/184
f 185/185/185 189/189/189 190/190/190
f 185/185/185 190/190/190 186/186/186
f 186/186/186 190/190/190 191/191/191
f 186/186/186 191/191/191 187/187/187
f 187/187/187 191/191/191 192/192/192
f 187/187/187 192/192/192 188/188/188
f 189/189/189 193/193/193 194/194/194
f 189/189/189 194/194/194 190/190/190
f 190/190/190 194/194/194 195/195/195
f 190/190/190 195/195/195 191/191/191
f 191/191/191 195/195/195 196/196/196
f 191/191/191 196/196/196 192/192/192
usemtl cap
f 197/197/197 201/201/201 202/202/202
f 197/197/197 202/202/202 198/198/198
f 198/198/198 202/202/202 203/203/203
f 198/198/198 203/203/203 199/199/199
f 199/199/199 203/203/203 204/204/204
f 199/199/199 204/204/204 200/200/200
f 201/201/201 205/205/205 206/206/206
f 201/201/201 206/206/206 202/202/202
f 202/202/202 206/206/206 207/207/207
f 202/202/202 207/207/207 203/203/203
f 203/203/203 207/207/207 208/208/208
f 203/203/203 208/208/208 204/204/204
f 205/205/205 209/209/209 210/210/210
f 205/205/205 210/210/210 206/206/206
f 206/206/206 210/210/210 211/211/211
f 206/206/206 211/211/211 207/207/207
f 207/207/207 211/211/211 212/212/212
f 207/207/207 212/212/212 208/208/208
f 209/209/209 213/213/213 214/214/214
f 209/209/209 214/214/214 210/210/210
f 210/210/210 214/214/214 215/215/215
f 210/210/210 215/215/215 211/211/211
f 211/211/211 215/215/215 216/216/216
f 211/211/211 216/216/216 212/212/212
f 213/213/213 217/217/217 218/218/218
f 213/213/213 218/218/218 214/214/214
f 214/214/214 218/218/218 219/219/219
f 214/214/214 219/219/219 215/215/215
f 215/215/215 219/219/219 220/220/220
f 215/215/215 220/220/220 216/216/216
f 217/217/217 221/221/221 222/222/222
f 217/217/217 222/222/222 218/218/218
f 218/218/218 222/222/222 223/223/223
f 218/218/218 223/223/223 219/219/219
f 219/219/219 223/223/223 224/224/224
f 219/219/219 224/224/224 220/220/220
f 221/221/221 225/225/225 226/226/226
f 221/221/221 226/226/226 222/222/222
f 222/222/222 226/226/226 227/227/227
f 222/222/222 227/227/227 223/223/223
f 223/223/223 227/227/227 228/228/228
f 223/223/223 228/228/228 224/224/224
f 225/225/225 229/229/229 230/230/230
f 225/225/225 230/230/230 226/226/226
f 226/226/226 230/230/230 231/231/231
f 226/226/226 231/231/231 227/227/227
f 227/227/227 231/231/231 232/232/232
f 227/227/227 232/232/232 228/228/228
f 229/229/229 233/233/233 234/234/234
f 229/229/229 234/234/234 230/230/230
f 230/230/230 234/234/234 235/235/235
f 230/230/230 235/235/235 231/231/231
f 231/231/231 235/235/235 236/236/236
f 231/231/231 236/236/236 232/232/232
f 233/233/233 237/237/237 238/238/238
f 233/233/233 238/238/238 234/234/234
f 234/234/234 238/238/238 239/239/239
f 234/234/234 239/239/239 235/235/235
f 235/235/235 239/239/239 240/240/240
f 235/235/235 240/240/240 236/236/236
f 237/237/237 241/241/241 242/242/242
f 237/237/237 242/242/242 238/238/238
f 238/238/238 242/242/242 243/243/243
f 238/238/238 243/243/243 239/239/239
f 239/239/239 243/243/243 244/244/244
f 239/239/239 244/244/244 240/240/240
f 241/241/241 245/245/245 246/246/246
f 241/241/241 246/246/246 242/242/242
f 242/242/242 246/246/246 247/247/247
f 242/242/242 247/247/247 243/243/243
f 243/243/243 247/247/247 248/248/248
f 243/243/243 248/248/248 244/244/244
f 245/245/245 249/249/249 250/250/250
f 245/245/245 250/250/250 246/246/246
f 246/246/246 250/250/250 251/251/251
f 246/246/246 251/251/251 247/247/247
f 247/247/247 251/251/251 252/252/252
f 247/247/247 252/252/252 248/248/248
f 249/249/249 253/253/253 254/254/254
f 249/249/249 254/254/254 250/250/250
f 250/250/250 254/254/254 255/255/255
f 250/250/250 255/255/255 251/251/251
f 251/251/251 255/255/255 256/256/256
f 251/251/251 256/256/256 252/252/252
