# Sinh tự động bởi tools/mesh_kit.py - đừng sửa tay
o seat_frame_R
v 0.4058 0.3787 0.1858
v 0.4071 0.3774 0.1800
v 0.4071 0.3774 -0.2000
v 0.4058 0.3787 -0.2058
v 0.4071 0.3845 0.1871
v 0.4100 0.3845 0.1800
v 0.4100 0.3845 -0.2000
v 0.4071 0.3845 -0.2071
v 0.4071 0.3995 0.1871
v 0.4100 0.3995 0.1800
v 0.4100 0.3995 -0.2000
v 0.4071 0.3995 -0.2071
v 0.4058 0.4053 0.1858
v 0.4071 0.4066 0.1800
v 0.4071 0.4066 -0.2000
v 0.4058 0.4053 -0.2058
v -0.4058 0.3787 -0.2058
v -0.4071 0.3774 -0.2000
v -0.4071 0.3774 0.1800
v -0.4058 0.3787 0.1858
v -0.4071 0.3845 -0.2071
v -0.4100 0.3845 -0.2000
v -0.4100 0.3845 0.1800
v -0.4071 0.3845 0.1871
v -0.4071 0.3995 -0.2071
v -0.4100 0.3995 -0.2000
v -0.4100 0.3995 0.1800
v -0.4071 0.3995 0.1871
v -0.4058 0.4053 -0.2058
v -0.4071 0.4066 -0.2000
v -0.4071 0.4066 0.1800
v -0.4058 0.4053 0.1858
v -0.4058 0.4053 0.1858
v -0.4000 0.4066 0.1871
v 0.4000 0.4066 0.1871
v 0.4058 0.4053 0.1858
v -0.4071 0.4066 0.1800
v -0.4000 0.4095 0.1800
v 0.4000 0.4095 0.1800
v 0.4071 0.4066 0.1800
v -0.4071 0.4066 -0.2000
v -0.4000 0.4095 -0.2000
v 0.4000 0.4095 -0.2000
v 0.4071 0.4066 -0.2000
v -0.4058 0.4053 -0.2058
v -0.4000 0.4066 -0.2071
v 0.4000 0.4066 -0.2071
v 0.4058 0.4053 -0.2058
v -0.4058 0.3787 -0.2058
v -0.4000 0.3774 -0.2071
v 0.4000 0.3774 -0.2071
v 0.4058 0.3787 -0.2058
v -0.4071 0.3774 -0.2000
v -0.4000 0.3745 -0.2000
v 0.4000 0.3745 -0.2000
v 0.4071 0.3774 -0.2000
v -0.4071 0.3774 0.1800
v -0.4000 0.3745 0.1800
v 0.4000 0.3745 0.1800
v 0.4071 0.3774 0.1800
v -0.4058 0.3787 0.1858
v -0.4000 0.3774 0.1871
v 0.4000 0.3774 0.1871
v 0.4058 0.3787 0.1858
v -0.4058 0.3787 0.1858
v -0.4000 0.3774 0.1871
v 0.4000 0.3774 0.1871
v 0.4058 0.3787 0.1858
v -0.4071 0.3845 0.1871
v -0.4000 0.3845 0.1900
v 0.4000 0.3845 0.1900
v 0.4071 0.3845 0.1871
v -0.4071 0.3995 0.1871
v -0.4000 0.3995 0.1900
v 0.4000 0.3995 0.1900
v 0.4071 0.3995 0.1871
v -0.4058 0.4053 0.1858
v -0.4000 0.4066 0.1871
v 0.4000 0.4066 0.1871
v 0.4058 0.4053 0.1858
v 0.4058 0.3787 -0.2058
v 0.4000 0.3774 -0.2071
v -0.4000 0.3774 -0.2071
v -0.4058 0.3787 -0.2058
v 0.4071 0.3845 -0.2071
v 0.4000 0.3845 -0.2100
v -0.4000 0.3845 -0.2100
v -0.4071 0.3845 -0.2071
v 0.4071 0.3995 -0.2071
v 0.4000 0.3995 -0.2100
v -0.4000 0.3995 -0.2100
v -0.4071 0.3995 -0.2071
v 0.4058 0.4053 -0.2058
v 0.4000 0.4066 -0.2071
v -0.4000 0.4066 -0.2071
v -0.4058 0.4053 -0.2058
v -0.3750 0.0100 -0.1700
v -0.3779 0.0129 -0.1783
v -0.3854 0.0147 -0.1835
v -0.3946 0.0147 -0.1835
v -0.4021 0.0129 -0.1783
v -0.4050 0.0100 -0.1700
v -0.4021 0.0071 -0.1617
v -0.3946 0.0053 -0.1565
v -0.3854 0.0053 -0.1565
v -0.3779 0.0071 -0.1617
v -0.3750 0.0100 -0.1700
v -0.3750 0.2737 -0.0786
v -0.3779 0.2767 -0.0869
v -0.3854 0.2785 -0.0920
v -0.3946 0.2785 -0.0920
v -0.4021 0.2767 -0.0869
v -0.4050 0.2737 -0.0786
v -0.4021 0.2707 -0.0703
v -0.3946 0.2689 -0.0652
v -0.3854 0.2689 -0.0652
v -0.3779 0.2707 -0.0703
v -0.3750 0.2737 -0.0786
v -0.3750 0.3095 -0.0626
v -0.3779 0.3141 -0.0701
v -0.3854 0.3170 -0.0747
v -0.3946 0.3170 -0.0747
v -0.4021 0.3141 -0.0701
v -0.4050 0.3095 -0.0626
v -0.4021 0.3050 -0.0550
v -0.3946 0.3021 -0.0504
v -0.3854 0.3021 -0.0504
v -0.3779 0.3050 -0.0550
v -0.3750 0.3095 -0.0626
v -0.3750 0.3281 -0.0454
v -0.3779 0.3358 -0.0497
v -0.3854 0.3406 -0.0523
v -0.3946 0.3406 -0.0523
v -0.4021 0.3358 -0.0497
v -0.4050 0.3281 -0.0454
v -0.4021 0.3204 -0.0411
v -0.3946 0.3156 -0.0384
v -0.3854 0.3156 -0.0384
v -0.3779 0.3204 -0.0411
v -0.3750 0.3281 -0.0454
v -0.3750 0.3294 -0.0270
v -0.3779 0.3376 -0.0238
v -0.3854 0.3426 -0.0218
v -0.3946 0.3426 -0.0218
v -0.4021 0.3376 -0.0238
v -0.4050 0.3294 -0.0270
v -0.4021 0.3211 -0.0302
v -0.3946 0.3161 -0.0322
v -0.3854 0.3161 -0.0322
v -0.3779 0.3211 -0.0302
v -0.3750 0.3294 -0.0270
v -0.3750 0.3133 -0.0075
v -0.3779 0.3188 -0.0006
v -0.3854 0.3223 0.0036
v -0.3946 0.3223 0.0036
v -0.4021 0.3188 -0.0006
v -0.4050 0.3133 -0.0075
v -0.4021 0.3077 -0.0143
v -0.3946 0.3043 -0.0185
v -0.3854 0.3043 -0.0185
v -0.3779 0.3077 -0.0143
v -0.3750 0.3133 -0.0075
v -0.3750 0.2799 0.0133
v -0.3779 0.2840 0.0211
v -0.3854 0.2865 0.0259
v -0.3946 0.2865 0.0259
v -0.4021 0.2840 0.0211
v -0.4050 0.2799 0.0133
v -0.4021 0.2758 0.0054
v -0.3946 0.2733 0.0006
v -0.3854 0.2733 0.0006
v -0.3779 0.2758 0.0054
v -0.3750 0.2799 0.0133
v -0.3750 0.0100 0.1500
v -0.3779 0.0140 0.1579
v -0.3854 0.0164 0.1627
v -0.3946 0.0164 0.1627
v -0.4021 0.0140 0.1579
v -0.4050 0.0100 0.1500
v -0.4021 0.0060 0.1421
v -0.3946 0.0036 0.1373
v -0.3854 0.0036 0.1373
v -0.3779 0.0060 0.1421
v -0.3750 0.0100 0.1500
v -0.3900 0.0100 -0.1700
v -0.3750 0.0100 -0.1700
v -0.3779 0.0129 -0.1783
v -0.3854 0.0147 -0.1835
v -0.3946 0.0147 -0.1835
v -0.4021 0.0129 -0.1783
v -0.4050 0.0100 -0.1700
v -0.4021 0.0071 -0.1617
v -0.3946 0.0053 -0.1565
v -0.3854 0.0053 -0.1565
v -0.3779 0.0071 -0.1617
v -0.3900 0.0100 0.1500
v -0.3750 0.0100 0.1500
v -0.3779 0.0140 0.1579
v -0.3854 0.0164 0.1627
v -0.3946 0.0164 0.1627
v -0.4021 0.0140 0.1579
v -0.4050 0.0100 0.1500
v -0.4021 0.0060 0.1421
v -0.3946 0.0036 0.1373
v -0.3854 0.0036 0.1373
v -0.3779 0.0060 0.1421
v -0.3667 0.0017 -0.1367
v -0.3662 0.0012 -0.1390
v -0.3662 0.0012 -0.2010
v -0.3667 0.0017 -0.2033
v -0.3662 0.0040 -0.1362
v -0.3650 0.0040 -0.1390
v -0.3650 0.0040 -0.2010
v -0.3662 0.0040 -0.2038
v -0.3662 0.0080 -0.1362
v -0.3650 0.0080 -0.1390
v -0.3650 0.0080 -0.2010
v -0.3662 0.0080 -0.2038
v -0.3667 0.0103 -0.1367
v -0.3662 0.0108 -0.1390
v -0.3662 0.0108 -0.2010
v -0.3667 0.0103 -0.2033
v -0.4133 0.0017 -0.2033
v -0.4138 0.0012 -0.2010
v -0.4138 0.0012 -0.1390
v -0.4133 0.0017 -0.1367
v -0.4138 0.0040 -0.2038
v -0.4150 0.0040 -0.2010
v -0.4150 0.0040 -0.1390
v -0.4138 0.0040 -0.1362
v -0.4138 0.0080 -0.2038
v -0.4150 0.0080 -0.2010
v -0.4150 0.0080 -0.1390
v -0.4138 0.0080 -0.1362
v -0.4133 0.0103 -0.2033
v -0.4138 0.0108 -0.2010
v -0.4138 0.0108 -0.1390
v -0.4133 0.0103 -0.1367
v -0.4133 0.0103 -0.1367
v -0.4110 0.0108 -0.1362
v -0.3690 0.0108 -0.1362
v -0.3667 0.0103 -0.1367
v -0.4138 0.0108 -0.1390
v -0.4110 0.0120 -0.1390
v -0.3690 0.0120 -0.1390
v -0.3662 0.0108 -0.1390
v -0.4138 0.0108 -0.2010
v -0.4110 0.0120 -0.2010
v -0.3690 0.0120 -0.2010
v -0.3662 0.0108 -0.2010
v -0.4133 0.0103 -0.2033
v -0.4110 0.0108 -0.2038
v -0.3690 0.0108 -0.2038
v -0.3667 0.0103 -0.2033
v -0.4133 0.0017 -0.2033
v -0.4110 0.0012 -0.2038
v -0.3690 0.0012 -0.2038
v -0.3667 0.0017 -0.2033
v -0.4138 0.0012 -0.2010
v -0.4110 0.0000 -0.2010
v -0.3690 0.0000 -0.2010
v -0.3662 0.0012 -0.2010
v -0.4138 0.0012 -0.1390
v -0.4110 0.0000 -0.1390
v -0.3690 0.0000 -0.1390
v -0.3662 0.0012 -0.1390
v -0.4133 0.0017 -0.1367
v -0.4110 0.0012 -0.1362
v -0.3690 0.0012 -0.1362
v -0.3667 0.0017 -0.1367
v -0.4133 0.0017 -0.1367
v -0.4110 0.0012 -0.1362
v -0.3690 0.0012 -0.1362
v -0.3667 0.0017 -0.1367
v -0.4138 0.0040 -0.1362
v -0.4110 0.0040 -0.1350
v -0.3690 0.0040 -0.1350
v -0.3662 0.0040 -0.1362
v -0.4138 0.0080 -0.1362
v -0.4110 0.0080 -0.1350
v -0.3690 0.0080 -0.1350
v -0.3662 0.0080 -0.1362
v -0.4133 0.0103 -0.1367
v -0.4110 0.0108 -0.1362
v -0.3690 0.0108 -0.1362
v -0.3667 0.0103 -0.1367
v -0.3667 0.0017 -0.2033
v -0.3690 0.0012 -0.2038
v -0.4110 0.0012 -0.2038
v -0.4133 0.0017 -0.2033
v -0.3662 0.0040 -0.2038
v -0.3690 0.0040 -0.2050
v -0.4110 0.0040 -0.2050
v -0.4138 0.0040 -0.2038
v -0.3662 0.0080 -0.2038
v -0.3690 0.0080 -0.2050
v -0.4110 0.0080 -0.2050
v -0.4138 0.0080 -0.2038
v -0.3667 0.0103 -0.2033
v -0.3690 0.0108 -0.2038
v -0.4110 0.0108 -0.2038
v -0.4133 0.0103 -0.2033
v -0.3667 0.0017 0.1833
v -0.3662 0.0012 0.1810
v -0.3662 0.0012 0.1190
v -0.3667 0.0017 0.1167
v -0.3662 0.0040 0.1838
v -0.3650 0.0040 0.1810
v -0.3650 0.0040 0.1190
v -0.3662 0.0040 0.1162
v -0.3662 0.0080 0.1838
v -0.3650 0.0080 0.1810
v -0.3650 0.0080 0.1190
v -0.3662 0.0080 0.1162
v -0.3667 0.0103 0.1833
v -0.3662 0.0108 0.1810
v -0.3662 0.0108 0.1190
v -0.3667 0.0103 0.1167
v -0.4133 0.0017 0.1167
v -0.4138 0.0012 0.1190
v -0.4138 0.0012 0.1810
v -0.4133 0.0017 0.1833
v -0.4138 0.0040 0.1162
v -0.4150 0.0040 0.1190
v -0.4150 0.0040 0.1810
v -0.4138 0.0040 0.1838
v -0.4138 0.0080 0.1162
v -0.4150 0.0080 0.1190
v -0.4150 0.0080 0.1810
v -0.4138 0.0080 0.1838
v -0.4133 0.0103 0.1167
v -0.4138 0.0108 0.1190
v -0.4138 0.0108 0.1810
v -0.4133 0.0103 0.1833
v -0.4133 0.0103 0.1833
v -0.4110 0.0108 0.1838
v -0.3690 0.0108 0.1838
v -0.3667 0.0103 0.1833
v -0.4138 0.0108 0.1810
v -0.4110 0.0120 0.1810
v -0.3690 0.0120 0.1810
v -0.3662 0.0108 0.1810
v -0.4138 0.0108 0.1190
v -0.4110 0.0120 0.1190
v -0.3690 0.0120 0.1190
v -0.3662 0.0108 0.1190
v -0.4133 0.0103 0.1167
v -0.4110 0.0108 0.1162
v -0.3690 0.0108 0.1162
v -0.3667 0.0103 0.1167
v -0.4133 0.0017 0.1167
v -0.4110 0.0012 0.1162
v -0.3690 0.0012 0.1162
v -0.3667 0.0017 0.1167
v -0.4138 0.0012 0.1190
v -0.4110 0.0000 0.1190
v -0.3690 0.0000 0.1190
v -0.3662 0.0012 0.1190
v -0.4138 0.0012 0.1810
v -0.4110 0.0000 0.1810
v -0.3690 0.0000 0.1810
v -0.3662 0.0012 0.1810
v -0.4133 0.0017 0.1833
v -0.4110 0.0012 0.1838
v -0.3690 0.0012 0.1838
v -0.3667 0.0017 0.1833
v -0.4133 0.0017 0.1833
v -0.4110 0.0012 0.1838
v -0.3690 0.0012 0.1838
v -0.3667 0.0017 0.1833
v -0.4138 0.0040 0.1838
v -0.4110 0.0040 0.1850
v -0.3690 0.0040 0.1850
v -0.3662 0.0040 0.1838
v -0.4138 0.0080 0.1838
v -0.4110 0.0080 0.1850
v -0.3690 0.0080 0.1850
v -0.3662 0.0080 0.1838
v -0.4133 0.0103 0.1833
v -0.4110 0.0108 0.1838
v -0.3690 0.0108 0.1838
v -0.3667 0.0103 0.1833
v -0.3667 0.0017 0.1167
v -0.3690 0.0012 0.1162
v -0.4110 0.0012 0.1162
v -0.4133 0.0017 0.1167
v -0.3662 0.0040 0.1162
v -0.3690 0.0040 0.1150
v -0.4110 0.0040 0.1150
v -0.4138 0.0040 0.1162
v -0.3662 0.0080 0.1162
v -0.3690 0.0080 0.1150
v -0.4110 0.0080 0.1150
v -0.4138 0.0080 0.1162
v -0.3667 0.0103 0.1167
v -0.3690 0.0108 0.1162
v -0.4110 0.0108 0.1162
v -0.4133 0.0103 0.1167
v -0.3900 0.1310 0.1300
v -0.3900 0.1278 0.1378
v -0.3900 0.1200 0.1410
v -0.3900 0.1122 0.1378
v -0.3900 0.1090 0.1300
v -0.3900 0.1122 0.1222
v -0.3900 0.1200 0.1190
v -0.3900 0.1278 0.1222
v -0.3900 0.1310 0.1300
v 0.4000 0.1310 0.1300
v 0.4000 0.1278 0.1378
v 0.4000 0.1200 0.1410
v 0.4000 0.1122 0.1378
v 0.4000 0.1090 0.1300
v 0.4000 0.1122 0.1222
v 0.4000 0.1200 0.1190
v 0.4000 0.1278 0.1222
v 0.4000 0.1310 0.1300
v -0.3900 0.1200 0.1300
v -0.3900 0.1310 0.1300
v -0.3900 0.1278 0.1378
v -0.3900 0.1200 0.1410
v -0.3900 0.1122 0.1378
v -0.3900 0.1090 0.1300
v -0.3900 0.1122 0.1222
v -0.3900 0.1200 0.1190
v -0.3900 0.1278 0.1222
v 0.4000 0.1200 0.1300
v 0.4000 0.1310 0.1300
v 0.4000 0.1278 0.1378
v 0.4000 0.1200 0.1410
v 0.4000 0.1122 0.1378
v 0.4000 0.1090 0.1300
v 0.4000 0.1122 0.1222
v 0.4000 0.1200 0.1190
v 0.4000 0.1278 0.1222
v 0.4266 0.2734 0.1466
v 0.4277 0.2723 0.1420
v 0.4277 0.2723 -0.1420
v 0.4266 0.2734 -0.1466
v 0.4277 0.2780 0.1477
v 0.4300 0.2780 0.1420
v 0.4300 0.2780 -0.1420
v 0.4277 0.2780 -0.1477
v 0.4277 0.3820 0.1477
v 0.4300 0.3820 0.1420
v 0.4300 0.3820 -0.1420
v 0.4277 0.3820 -0.1477
v 0.4266 0.3866 0.1466
v 0.4277 0.3877 0.1420
v 0.4277 0.3877 -0.1420
v 0.4266 0.3866 -0.1466
v 0.3934 0.2734 -0.1466
v 0.3923 0.2723 -0.1420
v 0.3923 0.2723 0.1420
v 0.3934 0.2734 0.1466
v 0.3923 0.2780 -0.1477
v 0.3900 0.2780 -0.1420
v 0.3900 0.2780 0.1420
v 0.3923 0.2780 0.1477
v 0.3923 0.3820 -0.1477
v 0.3900 0.3820 -0.1420
v 0.3900 0.3820 0.1420
v 0.3923 0.3820 0.1477
v 0.3934 0.3866 -0.1466
v 0.3923 0.3877 -0.1420
v 0.3923 0.3877 0.1420
v 0.3934 0.3866 0.1466
v 0.3934 0.3866 0.1466
v 0.3980 0.3877 0.1477
v 0.4220 0.3877 0.1477
v 0.4266 0.3866 0.1466
v 0.3923 0.3877 0.1420
v 0.3980 0.3900 0.1420
v 0.4220 0.3900 0.1420
v 0.4277 0.3877 0.1420
v 0.3923 0.3877 -0.1420
v 0.3980 0.3900 -0.1420
v 0.4220 0.3900 -0.1420
v 0.4277 0.3877 -0.1420
v 0.3934 0.3866 -0.1466
v 0.3980 0.3877 -0.1477
v 0.4220 0.3877 -0.1477
v 0.4266 0.3866 -0.1466
v 0.3934 0.2734 -0.1466
v 0.3980 0.2723 -0.1477
v 0.4220 0.2723 -0.1477
v 0.4266 0.2734 -0.1466
v 0.3923 0.2723 -0.1420
v 0.3980 0.2700 -0.1420
v 0.4220 0.2700 -0.1420
v 0.4277 0.2723 -0.1420
v 0.3923 0.2723 0.1420
v 0.3980 0.2700 0.1420
v 0.4220 0.2700 0.1420
v 0.4277 0.2723 0.1420
v 0.3934 0.2734 0.1466
v 0.3980 0.2723 0.1477
v 0.4220 0.2723 0.1477
v 0.4266 0.2734 0.1466
v 0.3934 0.2734 0.1466
v 0.3980 0.2723 0.1477
v 0.4220 0.2723 0.1477
v 0.4266 0.2734 0.1466
v 0.3923 0.2780 0.1477
v 0.3980 0.2780 0.1500
v 0.4220 0.2780 0.1500
v 0.4277 0.2780 0.1477
v 0.3923 0.3820 0.1477
v 0.3980 0.3820 0.1500
v 0.4220 0.3820 0.1500
v 0.4277 0.3820 0.1477
v 0.3934 0.3866 0.1466
v 0.3980 0.3877 0.1477
v 0.4220 0.3877 0.1477
v 0.4266 0.3866 0.1466
v 0.4266 0.2734 -0.1466
v 0.4220 0.2723 -0.1477
v 0.3980 0.2723 -0.1477
v 0.3934 0.2734 -0.1466
v 0.4277 0.2780 -0.1477
v 0.4220 0.2780 -0.1500
v 0.3980 0.2780 -0.1500
v 0.3923 0.2780 -0.1477
v 0.4277 0.3820 -0.1477
v 0.4220 0.3820 -0.1500
v 0.3980 0.3820 -0.1500
v 0.3923 0.3820 -0.1477
v 0.4266 0.3866 -0.1466
v 0.4220 0.3877 -0.1477
v 0.3980 0.3877 -0.1477
v 0.3934 0.3866 -0.1466
v -0.3680 0.3900 0.1600
v -0.3715 0.3915 0.1516
v -0.3800 0.3921 0.1482
v -0.3885 0.3915 0.1516
v -0.3920 0.3900 0.1600
v -0.3885 0.3885 0.1684
v -0.3800 0.3879 0.1718
v -0.3715 0.3885 0.1684
v -0.3680 0.3900 0.1600
v -0.3680 0.5600 0.1900
v -0.3715 0.5615 0.1816
v -0.3800 0.5621 0.1782
v -0.3885 0.5615 0.1816
v -0.3920 0.5600 0.1900
v -0.3885 0.5585 0.1984
v -0.3800 0.5579 0.2018
v -0.3715 0.5585 0.1984
v -0.3680 0.5600 0.1900
v -0.3800 0.3900 0.1600
v -0.3680 0.3900 0.1600
v -0.3715 0.3915 0.1516
v -0.3800 0.3921 0.1482
v -0.3885 0.3915 0.1516
v -0.3920 0.3900 0.1600
v -0.3885 0.3885 0.1684
v -0.3800 0.3879 0.1718
v -0.3715 0.3885 0.1684
v -0.3800 0.5600 0.1900
v -0.3680 0.5600 0.1900
v -0.3715 0.5615 0.1816
v -0.3800 0.5621 0.1782
v -0.3885 0.5615 0.1816
v -0.3920 0.5600 0.1900
v -0.3885 0.5585 0.1984
v -0.3800 0.5579 0.2018
v -0.3715 0.5585 0.1984
v 0.3920 0.3900 0.1600
v 0.3885 0.3915 0.1516
v 0.3800 0.3921 0.1482
v 0.3715 0.3915 0.1516
v 0.3680 0.3900 0.1600
v 0.3715 0.3885 0.1684
v 0.3800 0.3879 0.1718
v 0.3885 0.3885 0.1684
v 0.3920 0.3900 0.1600
v 0.3920 0.5600 0.1900
v 0.3885 0.5615 0.1816
v 0.3800 0.5621 0.1782
v 0.3715 0.5615 0.1816
v 0.3680 0.5600 0.1900
v 0.3715 0.5585 0.1984
v 0.3800 0.5579 0.2018
v 0.3885 0.5585 0.1984
v 0.3920 0.5600 0.1900
v 0.3800 0.3900 0.1600
v 0.3920 0.3900 0.1600
v 0.3885 0.3915 0.1516
v 0.3800 0.3921 0.1482
v 0.3715 0.3915 0.1516
v 0.3680 0.3900 0.1600
v 0.3715 0.3885 0.1684
v 0.3800 0.3879 0.1718
v 0.3885 0.3885 0.1684
v 0.3800 0.5600 0.1900
v 0.3920 0.5600 0.1900
v 0.3885 0.5615 0.1816
v 0.3800 0.5621 0.1782
v 0.3715 0.5615 0.1816
v 0.3680 0.5600 0.1900
v 0.3715 0.5585 0.1984
v 0.3800 0.5579 0.2018
v 0.3885 0.5585 0.1984
vt 0.0000 0.0000
vt 0.0100 0.0000
vt 0.3900 0.0000
vt 0.4000 0.0000
vt 0.0000 0.0100
vt 0.0100 0.0100
vt 0.3900 0.0100
vt 0.4000 0.0100
vt 0.0000 0.0250
vt 0.0100 0.0250
vt 0.3900 0.0250
vt 0.4000 0.0250
vt 0.0000 0.0350
vt 0.0100 0.0350
vt 0.3900 0.0350
vt 0.4000 0.0350
vt 0.0000 0.0000
vt 0.0100 0.0000
vt 0.3900 0.0000
vt 0.4000 0.0000
vt 0.0000 0.0100
vt 0.0100 0.0100
vt 0.3900 0.0100
vt 0.4000 0.0100
vt 0.0000 0.0250
vt 0.0100 0.0250
vt 0.3900 0.0250
vt 0.4000 0.0250
vt 0.0000 0.0350
vt 0.0100 0.0350
vt 0.3900 0.0350
vt 0.4000 0.0350
vt 0.0000 0.0000
vt 0.0100 0.0000
vt 0.8100 0.0000
vt 0.8200 0.0000
vt 0.0000 0.0100
vt 0.0100 0.0100
vt 0.8100 0.0100
vt 0.8200 0.0100
vt 0.0000 0.3900
vt 0.0100 0.3900
vt 0.8100 0.3900
vt 0.8200 0.3900
vt 0.0000 0.4000
vt 0.0100 0.4000
vt 0.8100 0.4000
vt 0.8200 0.4000
vt 0.0000 0.0000
vt 0.0100 0.0000
vt 0.8100 0.0000
vt 0.8200 0.0000
vt 0.0000 0.0100
vt 0.0100 0.0100
vt 0.8100 0.0100
vt 0.8200 0.0100
vt 0.0000 0.3900
vt 0.0100 0.3900
vt 0.8100 0.3900
vt 0.8200 0.3900
vt 0.0000 0.4000
vt 0.0100 0.4000
vt 0.8100 0.4000
vt 0.8200 0.4000
vt 0.0000 0.0000
vt 0.0100 0.0000
vt 0.8100 0.0000
vt 0.8200 0.0000
vt 0.0000 0.0100
vt 0.0100 0.0100
vt 0.8100 0.0100
vt 0.8200 0.0100
vt 0.0000 0.0250
vt 0.0100 0.0250
vt 0.8100 0.0250
vt 0.8200 0.0250
vt 0.0000 0.0350
vt 0.0100 0.0350
vt 0.8100 0.0350
vt 0.8200 0.0350
vt 0.0000 0.0000
vt 0.0100 0.0000
vt 0.8100 0.0000
vt 0.8200 0.0000
vt 0.0000 0.0100
vt 0.0100 0.0100
vt 0.8100 0.0100
vt 0.8200 0.0100
vt 0.0000 0.0250
vt 0.0100 0.0250
vt 0.8100 0.0250
vt 0.8200 0.0250
vt 0.0000 0.0350
vt 0.0100 0.0350
vt 0.8100 0.0350
vt 0.8200 0.0350
vt 0.0000 0.0000
vt 0.0000 0.0094
vt 0.0000 0.0188
vt 0.0000 0.0283
vt 0.0000 0.0377
vt 0.0000 0.0471
vt 0.0000 0.0565
vt 0.0000 0.0660
vt 0.0000 0.0754
vt 0.0000 0.0848
vt 0.0000 0.0942
vt 0.2791 0.0000
vt 0.2791 0.0094
vt 0.2791 0.0188
vt 0.2791 0.0283
vt 0.2791 0.0377
vt 0.2791 0.0471
vt 0.2791 0.0565
vt 0.2791 0.0660
vt 0.2791 0.0754
vt 0.2791 0.0848
vt 0.2791 0.0942
vt 0.3184 0.0000
vt 0.3184 0.0094
vt 0.3184 0.0188
vt 0.3184 0.0283
vt 0.3184 0.0377
vt 0.3184 0.0471
vt 0.3184 0.0565
vt 0.3184 0.0660
vt 0.3184 0.0754
vt 0.3184 0.0848
vt 0.3184 0.0942
vt 0.3437 0.0000
vt 0.3437 0.0094
vt 0.3437 0.0188
vt 0.3437 0.0283
vt 0.3437 0.0377
vt 0.3437 0.0471
vt 0.3437 0.0565
vt 0.3437 0.0660
vt 0.3437 0.0754
vt 0.3437 0.0848
vt 0.3437 0.0942
vt 0.3621 0.0000
vt 0.3621 0.0094
vt 0.3621 0.0188
vt 0.3621 0.0283
vt 0.3621 0.0377
vt 0.3621 0.0471
vt 0.3621 0.0565
vt 0.3621 0.0660
vt 0.3621 0.0754
vt 0.3621 0.0848
vt 0.3621 0.0942
vt 0.3874 0.0000
vt 0.3874 0.0094
vt 0.3874 0.0188
vt 0.3874 0.0283
vt 0.3874 0.0377
vt 0.3874 0.0471
vt 0.3874 0.0565
vt 0.3874 0.0660
vt 0.3874 0.0754
vt 0.3874 0.0848
vt 0.3874 0.0942
vt 0.4267 0.0000
vt 0.4267 0.0094
vt 0.4267 0.0188
vt 0.4267 0.0283
vt 0.4267 0.0377
vt 0.4267 0.0471
vt 0.4267 0.0565
vt 0.4267 0.0660
vt 0.4267 0.0754
vt 0.4267 0.0848
vt 0.4267 0.0942
vt 0.7292 0.0000
vt 0.7292 0.0094
vt 0.7292 0.0188
vt 0.7292 0.0283
vt 0.7292 0.0377
vt 0.7292 0.0471
vt 0.7292 0.0565
vt 0.7292 0.0660
vt 0.7292 0.0754
vt 0.7292 0.0848
vt 0.7292 0.0942
vt 0.0000 0.0000
vt 0.0150 0.0000
vt 0.0121 0.0088
vt 0.0046 0.0143
vt -0.0046 0.0143
vt -0.0121 0.0088
vt -0.0150 0.0000
vt -0.0121 -0.0088
vt -0.0046 -0.0143
vt 0.0046 -0.0143
vt 0.0121 -0.0088
vt 0.0000 0.0000
vt 0.0150 0.0000
vt 0.0121 0.0088
vt 0.0046 0.0143
vt -0.0046 0.0143
vt -0.0121 0.0088
vt -0.0150 0.0000
vt -0.0121 -0.0088
vt -0.0046 -0.0143
vt 0.0046 -0.0143
vt 0.0121 -0.0088
vt 0.0000 0.0000
vt 0.0040 0.0000
vt 0.0660 0.0000
vt 0.0700 0.0000
vt 0.0000 0.0040
vt 0.0040 0.0040
vt 0.0660 0.0040
vt 0.0700 0.0040
vt 0.0000 0.0080
vt 0.0040 0.0080
vt 0.0660 0.0080
vt 0.0700 0.0080
vt 0.0000 0.0120
vt 0.0040 0.0120
vt 0.0660 0.0120
vt 0.0700 0.0120
vt 0.0000 0.0000
vt 0.0040 0.0000
vt 0.0660 0.0000
vt 0.0700 0.0000
vt 0.0000 0.0040
vt 0.0040 0.0040
vt 0.0660 0.0040
vt 0.0700 0.0040
vt 0.0000 0.0080
vt 0.0040 0.0080
vt 0.0660 0.0080
vt 0.0700 0.0080
vt 0.0000 0.0120
vt 0.0040 0.0120
vt 0.0660 0.0120
vt 0.0700 0.0120
vt 0.0000 0.0000
vt 0.0040 0.0000
vt 0.0460 0.0000
vt 0.0500 0.0000
vt 0.0000 0.0040
vt 0.0040 0.0040
vt 0.0460 0.0040
vt 0.0500 0.0040
vt 0.0000 0.0660
vt 0.0040 0.0660
vt 0.0460 0.0660
vt 0.0500 0.0660
vt 0.0000 0.0700
vt 0.0040 0.0700
vt 0.0460 0.0700
vt 0.0500 0.0700
vt 0.0000 0.0000
vt 0.0040 0.0000
vt 0.0460 0.0000
vt 0.0500 0.0000
vt 0.0000 0.0040
vt 0.0040 0.0040
vt 0.0460 0.0040
vt 0.0500 0.0040
vt 0.0000 0.0660
vt 0.0040 0.0660
vt 0.0460 0.0660
vt 0.0500 0.0660
vt 0.0000 0.0700
vt 0.0040 0.0700
vt 0.0460 0.0700
vt 0.0500 0.0700
vt 0.0000 0.0000
vt 0.0040 0.0000
vt 0.0460 0.0000
vt 0.0500 0.0000
vt 0.0000 0.0040
vt 0.0040 0.0040
vt 0.0460 0.0040
vt 0.0500 0.0040
vt 0.0000 0.0080
vt 0.0040 0.0080
vt 0.0460 0.0080
vt 0.0500 0.0080
vt 0.0000 0.0120
vt 0.0040 0.0120
vt 0.0460 0.0120
vt 0.0500 0.0120
vt 0.0000 0.0000
vt 0.0040 0.0000
vt 0.0460 0.0000
vt 0.0500 0.0000
vt 0.0000 0.0040
vt 0.0040 0.0040
vt 0.0460 0.0040
vt 0.0500 0.0040
vt 0.0000 0.0080
vt 0.0040 0.0080
vt 0.0460 0.0080
vt 0.0500 0.0080
vt 0.0000 0.0120
vt 0.0040 0.0120
vt 0.0460 0.0120
vt 0.0500 0.0120
vt 0.0000 0.0000
vt 0.0040 0.0000
vt 0.0660 0.0000
vt 0.0700 0.0000
vt 0.0000 0.0040
vt 0.0040 0.0040
vt 0.0660 0.0040
vt 0.0700 0.0040
vt 0.0000 0.0080
vt 0.0040 0.0080
vt 0.0660 0.0080
vt 0.0700 0.0080
vt 0.0000 0.0120
vt 0.0040 0.0120
vt 0.0660 0.0120
vt 0.0700 0.0120
vt 0.0000 0.0000
vt 0.0040 0.0000
vt 0.0660 0.0000
vt 0.0700 0.0000
vt 0.0000 0.0040
vt 0.0040 0.0040
vt 0.0660 0.0040
vt 0.0700 0.0040
vt 0.0000 0.0080
vt 0.0040 0.0080
vt 0.0660 0.0080
vt 0.0700 0.0080
vt 0.0000 0.0120
vt 0.0040 0.0120
vt 0.0660 0.0120
vt 0.0700 0.0120
vt 0.0000 0.0000
vt 0.0040 0.0000
vt 0.0460 0.0000
vt 0.0500 0.0000
vt 0.0000 0.0040
vt 0.0040 0.0040
vt 0.0460 0.0040
vt 0.0500 0.0040
vt 0.0000 0.0660
vt 0.0040 0.0660
vt 0.0460 0.0660
vt 0.0500 0.0660
vt 0.0000 0.0700
vt 0.0040 0.0700
vt 0.0460 0.0700
vt 0.0500 0.0700
vt 0.0000 0.0000
vt 0.0040 0.0000
vt 0.0460 0.0000
vt 0.0500 0.0000
vt 0.0000 0.0040
vt 0.0040 0.0040
vt 0.0460 0.0040
vt 0.0500 0.0040
vt 0.0000 0.0660
vt 0.0040 0.0660
vt 0.0460 0.0660
vt 0.0500 0.0660
vt 0.0000 0.0700
vt 0.0040 0.0700
vt 0.0460 0.0700
vt 0.0500 0.0700
vt 0.0000 0.0000
vt 0.0040 0.0000
vt 0.0460 0.0000
vt 0.0500 0.0000
vt 0.0000 0.0040
vt 0.0040 0.0040
vt 0.0460 0.0040
vt 0.0500 0.0040
vt 0.0000 0.0080
vt 0.0040 0.0080
vt 0.0460 0.0080
vt 0.0500 0.0080
vt 0.0000 0.0120
vt 0.0040 0.0120
vt 0.0460 0.0120
vt 0.0500 0.0120
vt 0.0000 0.0000
vt 0.0040 0.0000
vt 0.0460 0.0000
vt 0.0500 0.0000
vt 0.0000 0.0040
vt 0.0040 0.0040
vt 0.0460 0.0040
vt 0.0500 0.0040
vt 0.0000 0.0080
vt 0.0040 0.0080
vt 0.0460 0.0080
vt 0.0500 0.0080
vt 0.0000 0.0120
vt 0.0040 0.0120
vt 0.0460 0.0120
vt 0.0500 0.0120
vt 0.0000 0.0000
vt 0.0000 0.0086
vt 0.0000 0.0173
vt 0.0000 0.0259
vt 0.0000 0.0346
vt 0.0000 0.0432
vt 0.0000 0.0518
vt 0.0000 0.0605
vt 0.0000 0.0691
vt 0.7900 0.0000
vt 0.7900 0.0086
vt 0.7900 0.0173
vt 0.7900 0.0259
vt 0.7900 0.0346
vt 0.7900 0.0432
vt 0.7900 0.0518
vt 0.7900 0.0605
vt 0.7900 0.0691
vt 0.0000 0.0000
vt 0.0110 0.0000
vt 0.0078 0.0078
vt 0.0000 0.0110
vt -0.0078 0.0078
vt -0.0110 0.0000
vt -0.0078 -0.0078
vt -0.0000 -0.0110
vt 0.0078 -0.0078
vt 0.0000 0.0000
vt 0.0110 0.0000
vt 0.0078 0.0078
vt 0.0000 0.0110
vt -0.0078 0.0078
vt -0.0110 0.0000
vt -0.0078 -0.0078
vt -0.0000 -0.0110
vt 0.0078 -0.0078
vt 0.0000 0.0000
vt 0.0080 0.0000
vt 0.2920 0.0000
vt 0.3000 0.0000
vt 0.0000 0.0080
vt 0.0080 0.0080
vt 0.2920 0.0080
vt 0.3000 0.0080
vt 0.0000 0.1120
vt 0.0080 0.1120
vt 0.2920 0.1120
vt 0.3000 0.1120
vt 0.0000 0.1200
vt 0.0080 0.1200
vt 0.2920 0.1200
vt 0.3000 0.1200
vt 0.0000 0.0000
vt 0.0080 0.0000
vt 0.2920 0.0000
vt 0.3000 0.0000
vt 0.0000 0.0080
vt 0.0080 0.0080
vt 0.2920 0.0080
vt 0.3000 0.0080
vt 0.0000 0.1120
vt 0.0080 0.1120
vt 0.2920 0.1120
vt 0.3000 0.1120
vt 0.0000 0.1200
vt 0.0080 0.1200
vt 0.2920 0.1200
vt 0.3000 0.1200
vt 0.0000 0.0000
vt 0.0080 0.0000
vt 0.0320 0.0000
vt 0.0400 0.0000
vt 0.0000 0.0080
vt 0.0080 0.0080
vt 0.0320 0.0080
vt 0.0400 0.0080
vt 0.0000 0.2920
vt 0.0080 0.2920
vt 0.0320 0.2920
vt 0.0400 0.2920
vt 0.0000 0.3000
vt 0.0080 0.3000
vt 0.0320 0.3000
vt 0.0400 0.3000
vt 0.0000 0.0000
vt 0.0080 0.0000
vt 0.0320 0.0000
vt 0.0400 0.0000
vt 0.0000 0.0080
vt 0.0080 0.0080
vt 0.0320 0.0080
vt 0.0400 0.0080
vt 0.0000 0.2920
vt 0.0080 0.2920
vt 0.0320 0.2920
vt 0.0400 0.2920
vt 0.0000 0.3000
vt 0.0080 0.3000
vt 0.0320 0.3000
vt 0.0400 0.3000
vt 0.0000 0.0000
vt 0.0080 0.0000
vt 0.0320 0.0000
vt 0.0400 0.0000
vt 0.0000 0.0080
vt 0.0080 0.0080
vt 0.0320 0.0080
vt 0.0400 0.0080
vt 0.0000 0.1120
vt 0.0080 0.1120
vt 0.0320 0.1120
vt 0.0400 0.1120
vt 0.0000 0.1200
vt 0.0080 0.1200
vt 0.0320 0.1200
vt 0.0400 0.1200
vt 0.0000 0.0000
vt 0.0080 0.0000
vt 0.0320 0.0000
vt 0.0400 0.0000
vt 0.0000 0.0080
vt 0.0080 0.0080
vt 0.0320 0.0080
vt 0.0400 0.0080
vt 0.0000 0.1120
vt 0.0080 0.1120
vt 0.0320 0.1120
vt 0.0400 0.1120
vt 0.0000 0.1200
vt 0.0080 0.1200
vt 0.0320 0.1200
vt 0.0400 0.1200
vt 0.0000 0.0000
vt 0.0000 0.0094
vt 0.0000 0.0188
vt 0.0000 0.0283
vt 0.0000 0.0377
vt 0.0000 0.0471
vt 0.0000 0.0565
vt 0.0000 0.0660
vt 0.0000 0.0754
vt 0.1726 0.0000
vt 0.1726 0.0094
vt 0.1726 0.0188
vt 0.1726 0.0283
vt 0.1726 0.0377
vt 0.1726 0.0471
vt 0.1726 0.0565
vt 0.1726 0.0660
vt 0.1726 0.0754
vt 0.0000 0.0000
vt 0.0120 0.0000
vt 0.0085 0.0085
vt 0.0000 0.0120
vt -0.0085 0.0085
vt -0.0120 0.0000
vt -0.0085 -0.0085
vt -0.0000 -0.0120
vt 0.0085 -0.0085
vt 0.0000 0.0000
vt 0.0120 0.0000
vt 0.0085 0.0085
vt 0.0000 0.0120
vt -0.0085 0.0085
vt -0.0120 0.0000
vt -0.0085 -0.0085
vt -0.0000 -0.0120
vt 0.0085 -0.0085
vt 0.0000 0.0000
vt 0.0000 0.0094
vt 0.0000 0.0188
vt 0.0000 0.0283
vt 0.0000 0.0377
vt 0.0000 0.0471
vt 0.0000 0.0565
vt 0.0000 0.0660
vt 0.0000 0.0754
vt 0.1726 0.0000
vt 0.1726 0.0094
vt 0.1726 0.0188
vt 0.1726 0.0283
vt 0.1726 0.0377
vt 0.1726 0.0471
vt 0.1726 0.0565
vt 0.1726 0.0660
vt 0.1726 0.0754
vt 0.0000 0.0000
vt 0.0120 0.0000
vt 0.0085 0.0085
vt 0.0000 0.0120
vt -0.0085 0.0085
vt -0.0120 0.0000
vt -0.0085 -0.0085
vt -0.0000 -0.0120
vt 0.0085 -0.0085
vt 0.0000 0.0000
vt 0.0120 0.0000
vt 0.0085 0.0085
vt 0.0000 0.0120
vt -0.0085 0.0085
vt -0.0120 0.0000
vt -0.0085 -0.0085
vt -0.0000 -0.0120
vt 0.0085 -0.0085
vn 0.577 -0.577 0.577
vn 0.707 -0.707 0.000
vn 0.707 -0.707 0.000
vn 0.577 -0.577 -0.577
vn 0.707 0.000 0.707
vn 1.000 0.000 0.000
vn 1.000 0.000 0.000
vn 0.707 0.000 -0.707
vn 0.707 0.000 0.707
vn 1.000 0.000 0.000
vn 1.000 0.000 0.000
vn 0.707 0.000 -0.707
vn 0.577 0.577 0.577
vn 0.707 0.707 0.000
vn 0.707 0.707 0.000
vn 0.577 0.577 -0.577
vn -0.577 -0.577 -0.577
vn -0.707 -0.707 0.000
vn -0.707 -0.707 0.000
vn -0.577 -0.577 0.577
vn -0.707 0.000 -0.707
vn -1.000 0.000 0.000
vn -1.000 0.000 0.000
vn -0.707 0.000 0.707
vn -0.707 0.000 -0.707
vn -1.000 0.000 0.000
vn -1.000 0.000 0.000
vn -0.707 0.000 0.707
vn -0.577 0.577 -0.577
vn -0.707 0.707 0.000
vn -0.707 0.707 0.000
vn -0.577 0.577 0.577
vn -0.577 0.577 0.577
vn 0.000 0.707 0.707
vn 0.000 0.707 0.707
vn 0.577 0.577 0.577
vn -0.707 0.707 0.000
vn 0.000 1.000 0.000
vn 0.000 1.000 0.000
vn 0.707 0.707 0.000
vn -0.707 0.707 0.000
vn 0.000 1.000 0.000
vn 0.000 1.000 0.000
vn 0.707 0.707 0.000
vn -0.577 0.577 -0.577
vn 0.000 0.707 -0.707
vn 0.000 0.707 -0.707
vn 0.577 0.577 -0.577
vn -0.577 -0.577 -0.577
vn 0.000 -0.707 -0.707
vn 0.000 -0.707 -0.707
vn 0.577 -0.577 -0.577
vn -0.707 -0.707 0.000
vn 0.000 -1.000 0.000
vn 0.000 -1.000 0.000
vn 0.707 -0.707 0.000
vn -0.707 -0.707 0.000
vn 0.000 -1.000 0.000
vn 0.000 -1.000 0.000
vn 0.707 -0.707 0.000
vn -0.577 -0.577 0.577
vn 0.000 -0.707 0.707
vn 0.000 -0.707 0.707
vn 0.577 -0.577 0.577
vn -0.577 -0.577 0.577
vn 0.000 -0.707 0.707
vn 0.000 -0.707 0.707
vn 0.577 -0.577 0.577
vn -0.707 0.000 0.707
vn 0.000 0.000 1.000
vn 0.000 0.000 1.000
vn 0.707 0.000 0.707
vn -0.707 0.000 0.707
vn 0.000 0.000 1.000
vn 0.000 0.000 1.000
vn 0.707 0.000 0.707
vn -0.577 0.577 0.577
vn 0.000 0.707 0.707
vn 0.000 0.707 0.707
vn 0.577 0.577 0.577
vn 0.577 -0.577 -0.577
vn 0.000 -0.707 -0.707
vn 0.000 -0.707 -0.707
vn -0.577 -0.577 -0.577
vn 0.707 0.000 -0.707
vn 0.000 0.000 -1.000
vn 0.000 0.000 -1.000
vn -0.707 0.000 -0.707
vn 0.707 0.000 -0.707
vn 0.000 0.000 -1.000
vn 0.000 0.000 -1.000
vn -0.707 0.000 -0.707
vn 0.577 0.577 -0.577
vn 0.000 0.707 -0.707
vn 0.000 0.707 -0.707
vn -0.577 0.577 -0.577
vn 1.000 0.000 0.000
vn 0.809 0.193 -0.555
vn 0.309 0.312 -0.899
vn -0.309 0.312 -0.899
vn -0.809 0.193 -0.555
vn -1.000 0.000 -0.000
vn -0.809 -0.193 0.555
vn -0.309 -0.312 0.899
vn 0.309 -0.312 0.899
vn 0.809 -0.193 0.555
vn 1.000 -0.000 0.000
vn 1.000 0.000 0.000
vn 0.809 0.198 -0.553
vn 0.309 0.321 -0.895
vn -0.309 0.321 -0.895
vn -0.809 0.198 -0.553
vn -1.000 -0.000 -0.000
vn -0.809 -0.198 0.553
vn -0.309 -0.321 0.895
vn 0.309 -0.321 0.895
vn 0.809 -0.198 0.553
vn 1.000 0.000 0.000
vn 1.000 0.000 -0.000
vn 0.809 0.306 -0.502
vn 0.309 0.495 -0.812
vn -0.309 0.495 -0.812
vn -0.809 0.306 -0.502
vn -1.000 0.000 -0.000
vn -0.809 -0.306 0.502
vn -0.309 -0.495 0.812
vn 0.309 -0.495 0.812
vn 0.809 -0.306 0.502
vn 1.000 -0.000 0.000
vn 1.000 -0.000 -0.000
vn 0.809 0.514 -0.286
vn 0.309 0.831 -0.463
vn -0.309 0.831 -0.463
vn -0.809 0.514 -0.286
vn -1.000 0.000 0.000
vn -0.809 -0.514 0.286
vn -0.309 -0.831 0.463
vn 0.309 -0.831 0.463
vn 0.809 -0.514 0.286
vn 1.000 -0.000 -0.000
vn 1.000 -0.000 -0.000
vn 0.809 0.547 0.214
vn 0.309 0.886 0.346
vn -0.309 0.886 0.346
vn -0.809 0.547 0.214
vn -1.000 0.000 0.000
vn -0.809 -0.547 -0.214
vn -0.309 -0.886 -0.346
vn 0.309 -0.886 -0.346
vn 0.809 -0.547 -0.214
vn 1.000 -0.000 -0.000
vn 1.000 -0.000 -0.000
vn 0.809 0.371 0.456
vn 0.309 0.600 0.738
vn -0.309 0.600 0.738
vn -0.809 0.371 0.456
vn -1.000 0.000 0.000
vn -0.809 -0.371 -0.456
vn -0.309 -0.600 -0.738
vn 0.309 -0.600 -0.738
vn 0.809 -0.371 -0.456
vn 1.000 -0.000 -0.000
vn 1.000 -0.000 -0.000
vn 0.809 0.271 0.522
vn 0.309 0.438 0.844
vn -0.309 0.438 0.844
vn -0.809 0.271 0.522
vn -1.000 0.000 0.000
vn -0.809 -0.271 -0.522
vn -0.309 -0.438 -0.844
vn 0.309 -0.438 -0.844
vn 0.809 -0.271 -0.522
vn 1.000 -0.000 -0.000
vn 1.000 -0.000 -0.000
vn 0.809 0.266 0.524
vn 0.309 0.430 0.848
vn -0.309 0.430 0.848
vn -0.809 0.266 0.524
vn -1.000 0.000 0.000
vn -0.809 -0.266 -0.524
vn -0.309 -0.430 -0.848
vn 0.309 -0.430 -0.848
vn 0.809 -0.266 -0.524
vn 1.000 -0.000 -0.000
vn -0.000 -0.945 -0.328
vn -0.000 -0.945 -0.328
vn -0.000 -0.945 -0.328
vn -0.000 -0.945 -0.328
vn -0.000 -0.945 -0.328
vn -0.000 -0.945 -0.328
vn -0.000 -0.945 -0.328
vn -0.000 -0.945 -0.328
vn -0.000 -0.945 -0.328
vn -0.000 -0.945 -0.328
vn -0.000 -0.945 -0.328
vn 0.000 -0.892 0.452
vn 0.000 -0.892 0.452
vn 0.000 -0.892 0.452
vn 0.000 -0.892 0.452
vn 0.000 -0.892 0.452
vn 0.000 -0.892 0.452
vn 0.000 -0.892 0.452
vn 0.000 -0.892 0.452
vn 0.000 -0.892 0.452
vn 0.000 -0.892 0.452
vn 0.000 -0.892 0.452
vn 0.577 -0.577 0.577
vn 0.707 -0.707 0.000
vn 0.707 -0.707 0.000
vn 0.577 -0.577 -0.577
vn 0.707 0.000 0.707
vn 1.000 0.000 0.000
vn 1.000 0.000 0.000
vn 0.707 0.000 -0.707
vn 0.707 0.000 0.707
vn 1.000 0.000 0.000
vn 1.000 0.000 0.000
vn 0.707 0.000 -0.707
vn 0.577 0.577 0.577
vn 0.707 0.707 0.000
vn 0.707 0.707 0.000
vn 0.577 0.577 -0.577
vn -0.577 -0.577 -0.577
vn -0.707 -0.707 0.000
vn -0.707 -0.707 0.000
vn -0.577 -0.577 0.577
vn -0.707 0.000 -0.707
vn -1.000 0.000 0.000
vn -1.000 0.000 0.000
vn -0.707 0.000 0.707
vn -0.707 0.000 -0.707
vn -1.000 0.000 0.000
vn -1.000 0.000 0.000
vn -0.707 0.000 0.707
vn -0.577 0.577 -0.577
vn -0.707 0.707 0.000
vn -0.707 0.707 0.000
vn -0.577 0.577 0.577
vn -0.577 0.577 0.577
vn 0.000 0.707 0.707
vn 0.000 0.707 0.707
vn 0.577 0.577 0.577
vn -0.707 0.707 0.000
vn 0.000 1.000 0.000
vn 0.000 1.000 0.000
vn 0.707 0.707 0.000
vn -0.707 0.707 0.000
vn 0.000 1.000 0.000
vn 0.000 1.000 0.000
vn 0.707 0.707 0.000
vn -0.577 0.577 -0.577
vn 0.000 0.707 -0.707
vn 0.000 0.707 -0.707
vn 0.577 0.577 -0.577
vn -0.577 -0.577 -0.577
vn 0.000 -0.707 -0.707
vn 0.000 -0.707 -0.707
vn 0.577 -0.577 -0.577
vn -0.707 -0.707 0.000
vn 0.000 -1.000 0.000
vn 0.000 -1.000 0.000
vn 0.707 -0.707 0.000
vn -0.707 -0.707 0.000
vn 0.000 -1.000 0.000
vn 0.000 -1.000 0.000
vn 0.707 -0.707 0.000
vn -0.577 -0.577 0.577
vn 0.000 -0.707 0.707
vn 0.000 -0.707 0.707
vn 0.577 -0.577 0.577
vn -0.577 -0.577 0.577
vn 0.000 -0.707 0.707
vn 0.000 -0.707 0.707
vn 0.577 -0.577 0.577
vn -0.707 0.000 0.707
vn 0.000 0.000 1.000
vn 0.000 0.000 1.000
vn 0.707 0.000 0.707
vn -0.707 0.000 0.707
vn 0.000 0.000 1.000
vn 0.000 0.000 1.000
vn 0.707 0.000 0.707
vn -0.577 0.577 0.577
vn 0.000 0.707 0.707
vn 0.000 0.707 0.707
vn 0.577 0.577 0.577
vn 0.577 -0.577 -0.577
vn 0.000 -0.707 -0.707
vn 0.000 -0.707 -0.707
vn -0.577 -0.577 -0.577
vn 0.707 0.000 -0.707
vn 0.000 0.000 -1.000
vn 0.000 0.000 -1.000
vn -0.707 0.000 -0.707
vn 0.707 0.000 -0.707
vn 0.000 0.000 -1.000
vn 0.000 0.000 -1.000
vn -0.707 0.000 -0.707
vn 0.577 0.577 -0.577
vn 0.000 0.707 -0.707
vn 0.000 0.707 -0.707
vn -0.577 0.577 -0.577
vn 0.577 -0.577 0.577
vn 0.707 -0.707 0.000
vn 0.707 -0.707 0.000
vn 0.577 -0.577 -0.577
vn 0.707 0.000 0.707
vn 1.000 0.000 0.000
vn 1.000 0.000 0.000
vn 0.707 0.000 -0.707
vn 0.707 0.000 0.707
vn 1.000 0.000 0.000
vn 1.000 0.000 0.000
vn 0.707 0.000 -0.707
vn 0.577 0.577 0.577
vn 0.707 0.707 0.000
vn 0.707 0.707 0.000
vn 0.577 0.577 -0.577
vn -0.577 -0.577 -0.577
vn -0.707 -0.707 0.000
vn -0.707 -0.707 0.000
vn -0.577 -0.577 0.577
vn -0.707 0.000 -0.707
vn -1.000 0.000 0.000
vn -1.000 0.000 0.000
vn -0.707 0.000 0.707
vn -0.707 0.000 -0.707
vn -1.000 0.000 0.000
vn -1.000 0.000 0.000
vn -0.707 0.000 0.707
vn -0.577 0.577 -0.577
vn -0.707 0.707 0.000
vn -0.707 0.707 0.000
vn -0.577 0.577 0.577
vn -0.577 0.577 0.577
vn 0.000 0.707 0.707
vn 0.000 0.707 0.707
vn 0.577 0.577 0.577
vn -0.707 0.707 0.000
vn 0.000 1.000 0.000
vn 0.000 1.000 0.000
vn 0.707 0.707 0.000
vn -0.707 0.707 0.000
vn 0.000 1.000 0.000
vn 0.000 1.000 0.000
vn 0.707 0.707 0.000
vn -0.577 0.577 -0.577
vn 0.000 0.707 -0.707
vn 0.000 0.707 -0.707
vn 0.577 0.577 -0.577
vn -0.577 -0.577 -0.577
vn 0.000 -0.707 -0.707
vn 0.000 -0.707 -0.707
vn 0.577 -0.577 -0.577
vn -0.707 -0.707 0.000
vn 0.000 -1.000 0.000
vn 0.000 -1.000 0.000
vn 0.707 -0.707 0.000
vn -0.707 -0.707 0.000
vn 0.000 -1.000 0.000
vn 0.000 -1.000 0.000
vn 0.707 -0.707 0.000
vn -0.577 -0.577 0.577
vn 0.000 -0.707 0.707
vn 0.000 -0.707 0.707
vn 0.577 -0.577 0.577
vn -0.577 -0.577 0.577
vn 0.000 -0.707 0.707
vn 0.000 -0.707 0.707
vn 0.577 -0.577 0.577
vn -0.707 0.000 0.707
vn 0.000 0.000 1.000
vn 0.000 0.000 1.000
vn 0.707 0.000 0.707
vn -0.707 0.000 0.707
vn 0.000 0.000 1.000
vn 0.000 0.000 1.000
vn 0.707 0.000 0.707
vn -0.577 0.577 0.577
vn 0.000 0.707 0.707
vn 0.000 0.707 0.707
vn 0.577 0.577 0.577
vn 0.577 -0.577 -0.577
vn 0.000 -0.707 -0.707
vn 0.000 -0.707 -0.707
vn -0.577 -0.577 -0.577
vn 0.707 0.000 -0.707
vn 0.000 0.000 -1.000
vn 0.000 0.000 -1.000
vn -0.707 0.000 -0.707
vn 0.707 0.000 -0.707
vn 0.000 0.000 -1.000
vn 0.000 0.000 -1.000
vn -0.707 0.000 -0.707
vn 0.577 0.577 -0.577
vn 0.000 0.707 -0.707
vn 0.000 0.707 -0.707
vn -0.577 0.577 -0.577
vn 0.000 1.000 0.000
vn 0.000 0.707 0.707
vn 0.000 0.000 1.000
vn 0.000 -0.707 0.707
vn 0.000 -1.000 0.000
vn -0.000 -0.707 -0.707
vn -0.000 -0.000 -1.000
vn 0.000 0.707 -0.707
vn 0.000 1.000 -0.000
vn 0.000 1.000 0.000
vn 0.000 0.707 0.707
vn 0.000 0.000 1.000
vn 0.000 -0.707 0.707
vn 0.000 -1.000 0.000
vn -0.000 -0.707 -0.707
vn -0.000 -0.000 -1.000
vn 0.000 0.707 -0.707
vn 0.000 1.000 -0.000
vn -1.000 -0.000 -0.000
vn -1.000 -0.000 -0.000
vn -1.000 -0.000 -0.000
vn -1.000 -0.000 -0.000
vn -1.000 -0.000 -0.000
vn -1.000 -0.000 -0.000
vn -1.000 -0.000 -0.000
vn -1.000 -0.000 -0.000
vn -1.000 -0.000 -0.000
vn 1.000 0.000 0.000
vn 1.000 0.000 0.000
vn 1.000 0.000 0.000
vn 1.000 0.000 0.000
vn 1.000 0.000 0.000
vn 1.000 0.000 0.000
vn 1.000 0.000 0.000
vn 1.000 0.000 0.000
vn 1.000 0.000 0.000
vn 0.577 -0.577 0.577
vn 0.707 -0.707 0.000
vn 0.707 -0.707 0.000
vn 0.577 -0.577 -0.577
vn 0.707 0.000 0.707
vn 1.000 0.000 0.000
vn 1.000 0.000 0.000
vn 0.707 0.000 -0.707
vn 0.707 0.000 0.707
vn 1.000 0.000 0.000
vn 1.000 0.000 0.000
vn 0.707 0.000 -0.707
vn 0.577 0.577 0.577
vn 0.707 0.707 0.000
vn 0.707 0.707 0.000
vn 0.577 0.577 -0.577
vn -0.577 -0.577 -0.577
vn -0.707 -0.707 0.000
vn -0.707 -0.707 0.000
vn -0.577 -0.577 0.577
vn -0.707 0.000 -0.707
vn -1.000 0.000 0.000
vn -1.000 0.000 0.000
vn -0.707 0.000 0.707
vn -0.707 0.000 -0.707
vn -1.000 0.000 0.000
vn -1.000 0.000 0.000
vn -0.707 0.000 0.707
vn -0.577 0.577 -0.577
vn -0.707 0.707 0.000
vn -0.707 0.707 0.000
vn -0.577 0.577 0.577
vn -0.577 0.577 0.577
vn 0.000 0.707 0.707
vn 0.000 0.707 0.707
vn 0.577 0.577 0.577
vn -0.707 0.707 0.000
vn 0.000 1.000 0.000
vn 0.000 1.000 0.000
vn 0.707 0.707 0.000
vn -0.707 0.707 0.000
vn 0.000 1.000 0.000
vn 0.000 1.000 0.000
vn 0.707 0.707 0.000
vn -0.577 0.577 -0.577
vn 0.000 0.707 -0.707
vn 0.000 0.707 -0.707
vn 0.577 0.577 -0.577
vn -0.577 -0.577 -0.577
vn 0.000 -0.707 -0.707
vn 0.000 -0.707 -0.707
vn 0.577 -0.577 -0.577
vn -0.707 -0.707 0.000
vn 0.000 -1.000 0.000
vn 0.000 -1.000 0.000
vn 0.707 -0.707 0.000
vn -0.707 -0.707 0.000
vn 0.000 -1.000 0.000
vn 0.000 -1.000 0.000
vn 0.707 -0.707 0.000
vn -0.577 -0.577 0.577
vn 0.000 -0.707 0.707
vn 0.000 -0.707 0.707
vn 0.577 -0.577 0.577
vn -0.577 -0.577 0.577
vn 0.000 -0.707 0.707
vn 0.000 -0.707 0.707
vn 0.577 -0.577 0.577
vn -0.707 0.000 0.707
vn 0.000 0.000 1.000
vn 0.000 0.000 1.000
vn 0.707 0.000 0.707
vn -0.707 0.000 0.707
vn 0.000 0.000 1.000
vn 0.000 0.000 1.000
vn 0.707 0.000 0.707
vn -0.577 0.577 0.577
vn 0.000 0.707 0.707
vn 0.000 0.707 0.707
vn 0.577 0.577 0.577
vn 0.577 -0.577 -0.577
vn 0.000 -0.707 -0.707
vn 0.000 -0.707 -0.707
vn -0.577 -0.577 -0.577
vn 0.707 0.000 -0.707
vn 0.000 0.000 -1.000
vn 0.000 0.000 -1.000
vn -0.707 0.000 -0.707
vn 0.707 0.000 -0.707
vn 0.000 0.000 -1.000
vn 0.000 0.000 -1.000
vn -0.707 0.000 -0.707
vn 0.577 0.577 -0.577
vn 0.000 0.707 -0.707
vn 0.000 0.707 -0.707
vn -0.577 0.577 -0.577
vn 1.000 0.000 0.000
vn 0.707 0.123 -0.696
vn 0.000 0.174 -0.985
vn -0.707 0.123 -0.696
vn -1.000 0.000 -0.000
vn -0.707 -0.123 0.696
vn -0.000 -0.174 0.985
vn 0.707 -0.123 0.696
vn 1.000 -0.000 0.000
vn 1.000 0.000 0.000
vn 0.707 0.123 -0.696
vn 0.000 0.174 -0.985
vn -0.707 0.123 -0.696
vn -1.000 0.000 -0.000
vn -0.707 -0.123 0.696
vn -0.000 -0.174 0.985
vn 0.707 -0.123 0.696
vn 1.000 -0.000 0.000
vn -0.000 -0.985 -0.174
vn -0.000 -0.985 -0.174
vn -0.000 -0.985 -0.174
vn -0.000 -0.985 -0.174
vn -0.000 -0.985 -0.174
vn -0.000 -0.985 -0.174
vn -0.000 -0.985 -0.174
vn -0.000 -0.985 -0.174
vn -0.000 -0.985 -0.174
vn 0.000 0.985 0.174
vn 0.000 0.985 0.174
vn 0.000 0.985 0.174
vn 0.000 0.985 0.174
vn 0.000 0.985 0.174
vn 0.000 0.985 0.174
vn 0.000 0.985 0.174
vn 0.000 0.985 0.174
vn 0.000 0.985 0.174
vn 1.000 0.000 0.000
vn 0.707 0.123 -0.696
vn 0.000 0.174 -0.985
vn -0.707 0.123 -0.696
vn -1.000 0.000 -0.000
vn -0.707 -0.123 0.696
vn -0.000 -0.174 0.985
vn 0.707 -0.123 0.696
vn 1.000 -0.000 0.000
vn 1.000 0.000 0.000
vn 0.707 0.123 -0.696
vn 0.000 0.174 -0.985
vn -0.707 0.123 -0.696
vn -1.000 0.000 -0.000
vn -0.707 -0.123 0.696
vn -0.000 -0.174 0.985
vn 0.707 -0.123 0.696
vn 1.000 -0.000 0.000
vn -0.000 -0.985 -0.174
vn -0.000 -0.985 -0.174
vn -0.000 -0.985 -0.174
vn -0.000 -0.985 -0.174
vn -0.000 -0.985 -0.174
vn -0.000 -0.985 -0.174
vn -0.000 -0.985 -0.174
vn -0.000 -0.985 -0.174
vn -0.000 -0.985 -0.174
vn 0.000 0.985 0.174
vn 0.000 0.985 0.174
vn 0.000 0.985 0.174
vn 0.000 0.985 0.174
vn 0.000 0.985 0.174
vn 0.000 0.985 0.174
vn 0.000 0.985 0.174
vn 0.000 0.985 0.174
vn 0.000 0.985 0.174
usemtl frame
f 1/1/1 2/2/2 6/6/6
f 1/1/1 6/6/6 5/5/5
f 2/2/2 3/3/3 7/7/7
f 2/2/2 7/7/7 6/6/6
f 3/3/3 4/4/4 8/8/8
f 3/3/3 8/8/8 7/7/7
f 5/5/5 6/6/6 10/10/10
f 5/5/5 10/10/10 9/9/9
f 6/6/6 7/7/7 11/11/11
f 6/6/6 11/11/11 10/10/10
f 7/7/7 8/8/8 12/12/12
f 7/7/7 12/12/12 11/11/11
f 9/9/9 10/10/10 14/14/14
f 9/9/9 14/14/14 13/13/13
f 10/10/10 11/11/11 15/15/15
f 10/10/10 15/15/15 14/14/14
f 11/11/11 12/12/12 16/16/16
f 11/11/11 16/16/16 15/15/15
f 17/17/17 18/18/18 22/22/22
f 17/17/17 22/22/22 21/21/21
f 18/18/18 19/19/19 23/23/23
f 18/18/18 23/23/23 22/22/22
f 19/19/19 20/20/20 24/24/24
f 19/19/19 24/24/24 23/23/23
f 21/21/21 22/22/22 26/26/26
f 21/21/21 26/26/26 25/25/25
f 22/22/22 23/23/23 27/27/27
f 22/22/22 27/27/27 26/26/26
f 23/23/23 24/24/24 28/28/28
f 23/23/23 28/28/28 27/27/27
f 25/25/25 26/26/26 30/30/30
f 25/25/25 30/30/30 29/29/29
f 26/26/26 27/27/27 31/31/31
f 26/26/26 31/31/31 30/30/30
f 27/27/27 28/28/28 32/32/32
f 27/27/27 32/32/32 31/31/31
f 33/33/33 34/34/34 38/38/38
f 33/33/33 38/38/38 37/37/37
f 34/34/34 35/35/35 39/39/39
f 34/34/34 39/39/39 38/38/38
f 35/35/35 36/36/36 40/40/40
f 35/35/35 40/40/40 39/39/39
f 37/37/37 38/38/38 42/42/42
f 37/37/37 42/42/42 41/41/41
f 38/38/38 39/39/39 43/43/43
f 38/38/38 43/43/43 42/42/42
f 39/39/39 40/40/40 44/44/44
f 39/39/39 44/44/44 43/43/43
f 41/41/41 42/42/42 46/46/46
f 41/41/41 46/46/46 45/45/45
f 42/42/42 43/43/43 47/47/47
f 42/42/42 47/47/47 46/46/46
f 43/43/43 44/44/44 48/48/48
f 43/43/43 48/48/48 47/47/47
f 49/49/49 50/50/50 54/54/54
f 49/49/49 54/54/54 53/53/53
f 50/50/50 51/51/51 55/55/55
f 50/50/50 55/55/55 54/54/54
f 51/51/51 52/52/52 56/56/56
f 51/51/51 56/56/56 55/55/55
f 53/53/53 54/54/54 58/58/58
f 53/53/53 58/58/58 57/57/57
f 54/54/54 55/55/55 59/59/59
f 54/54/54 59/59/59 58/58/58
f 55/55/55 56/56/56 60/60/60
f 55/55/55 60/60/60 59/59/59
f 57/57/57 58/58/58 62/62/62
f 57/57/57 62/62/62 61/61/61
f 58/58/58 59/59/59 63/63/63
f 58/58/58 63/63/63 62/62/62
f 59/59/59 60/60/60 64/64/64
f 59/59/59 64/64/64 63/63/63
f 65/65/65 66/66/66 70/70/70
f 65/65/65 70/70/70 69/69/69
f 66/66/66 67/67/67 71/71/71
f 66/66/66 71/71/71 70/70/70
f 67/67/67 68/68/68 72/72/72
f 67/67/67 72/72/72 71/71/71
f 69/69/69 70/70/70 74/74/74
f 69/69/69 74/74/74 73/73/73
f 70/70/70 71/71/71 75/75/75
f 70/70/70 75/75/75 74/74/74
f 71/71/71 72/72/72 76/76/76
f 71/71/71 76/76/76 75/75/75
f 73/73/73 74/74/74 78/78/78
f 73/73/73 78/78/78 77/77/77
f 74/74/74 75/75/75 79/79/79
f 74/74/74 79/79/79 78/78/78
f 75/75/75 76/76/76 80/80/80
f 75/75/75 80/80/80 79/79/79
f 81/81/81 82/82/82 86/86/86
f 81/81/81 86/86/86 85/85/85
f 82/82/82 83/83/83 87/87/87
f 82/82/82 87/87/87 86/86/86
f 83/83/83 84/84/84 88/88/88
f 83/83/83 88/88/88 87/87/87
f 85/85/85 86/86/86 90/90/90
f 85/85/85 90/90/90 89/89/89
f 86/86/86 87/87/87 91/91/91
f 86/86/86 91/91/91 90/90/90
f 87/87/87 88/88/88 92/92/92
f 87/87/87 92/92/92 91/91/91
f 89/89/89 90/90/90 94/94/94
f 89/89/89 94/94/94 93/93/93
f 90/90/90 91/91/91 95/95/95
f 90/90/90 95/95/95 94/94/94
f 91/91/91 92/92/92 96/96/96
f 91/91/91 96/96/96 95/95/95
f 97/97/97 98/98/98 109/109/109
f 97/97/97 109/109/109 108/108/108
f 98/98/98 99/99/99 110/110/110
f 98/98/98 110/110/110 109/109/109
f 99/99/99 100/100/100 111/111/111
f 99/99/99 111/111/111 110/110/110
f 100/100/100 101/101/101 112/112/112
f 100/100/100 112/112/112 111/111/111
f 101/101/101 102/102/102 113/113/113
f 101/101/101 113/113/113 112/112/112
f 102/102/102 103/103/103 114/114/114
f 102/102/102 114/114/114 113/113/113
f 103/103/103 104/104/104 115/115/115
f 103/103/103 115/115/115 114/114/114
f 104/104/104 105/105/105 116/116/116
f 104/104/104 116/116/116 115/115/115
f 105/105/105 106/106/106 117/117/117
f 105/105/105 117/117/117 116/116/116
f 106/106/106 107/107/107 118/118/118
f 106/106/106 118/118/118 117/117/117
f 108/108/108 109/109/109 120/120/120
f 108/108/108 120/120/120 119/119/119
f 109/109/109 110/110/110 121/121/121
f 109/109/109 121/121/121 120/120/120
f 110/110/110 111/111/111 122/122/122
f 110/110/110 122/122/122 121/121/121
f 111/111/111 112/112/112 123/123/123
f 111/111/111 123/123/123 122/122/122
f 112/112/112 113/113/113 124/124/124
f 112/112/112 124/124/124 123/123/123
f 113/113/113 114/114/114 125/125/125
f 113/113/113 125/125/125 124/124/124
f 114/114/114 115/115/115 126/126/126
f 114/114/114 126/126/126 125/125/125
f 115/115/115 116/116/116 127/127/127
f 115/115/115 127/127/127 126/126/126
f 116/116/116 117/117/117 128/128/128
f 116/116/116 128/128/128 127/127/127
f 117/117/117 118/118/118 129/129/129
f 117/117/117 129/129/129 128/128/128
f 119/119/119 120/120/120 131/131/131
f 119/119/119 131/131/131 130/130/130
f 120/120/120 121/121/121 132/132/132
f 120/120/120 132/132/132 131/131/131
f 121/121/121 122/122/122 133/133/133
f 121/121/121 133/133/133 132/132/132
f 122/122/122 123/123/123 134/134/134
f 122/122/122 134/134/134 133/133/133
f 123/123/123 124/124/124 135/135/135
f 123/123/123 135/135/135 134/134/134
f 124/124/124 125/125/125 136/136/136
f 124/124/124 136/136/136 135/135/135
f 125/125/125 126/126/126 137/137/137
f 125/125/125 137/137/137 136/136/136
f 126/126/126 127/127/127 138/138/138
f 126/126/126 138/138/138 137/137/137
f 127/127/127 128/128/128 139/139/139
f 127/127/127 139/139/139 138/138/138
f 128/128/128 129/129/129 140/140/140
f 128/128/128 140/140/140 139/139/139
f 130/130/130 131/131/131 142/142/142
f 130/130/130 142/142/142 141/141/141
f 131/131/131 132/132/132 143/143/143
f 131/131/131 143/143/143 142/142/142
f 132/132/132 133/133/133 144/144/144
f 132/132/132 144/144/144 143/143/143
f 133/133/133 134/134/134 145/145/145
f 133/133/133 145/145/145 144/144/144
f 134/134/134 135/135/135 146/146/146
f 134/134/134 146/146/146 145/145/145
f 135/135/135 136/136/136 147/147/147
f 135/135/135 147/147/147 146/146/146
f 136/136/136 137/137/137 148/148/148
f 136/136/136 148/148/148 147/147/147
f 137/137/137 138/138/138 149/149/149
f 137/137/137 149/149/149 148/148/148
f 138/138/138 139/139/139 150/150/150
f 138/138/138 150/150/150 149/149/149
f 139/139/139 140/140/140 151/151/151
f 139/139/139 151/151/151 150/150/150
f 141/141/141 142/142/142 153/153/153
f 141/141/141 153/153/153 152/152/152
f 142/142/142 143/143/143 154/154/154
f 142/142/142 154/154/154 153/153/153
f 143/143/143 144/144/144 155/155/155
f 143/143/143 155/155/155 154/154/154
f 144/144/144 145/145/145 156/156/156
f 144/144/144 156/156/156 155/155/155
f 145/145/145 146/146/146 157/157/157
f 145/145/145 157/157/157 156/156/156
f 146/146/146 147/147/147 158/158/158
f 146/146/146 158/158/158 157/157/157
f 147/147/147 148/148/148 159/159/159
f 147/147/147 159/159/159 158/158/158
f 148/148/148 149/149/149 160/160/160
f 148/148/148 160/160/160 159/159/159
f 149/149/149 150/150/150 161/161/161
f 149/149/149 161/161/161 160/160/160
f 150/150/150 151/151/151 162/162/162
f 150/150/150 162/162/162 161/161/161
f 152/152/152 153/153/153 164/164/164
f 152/152/152 164/164/164 163/163/163
f 153/153/153 154/154/154 165/165/165
f 153/153/153 165/165/165 164/164/164
f 154/154/154 155/155/155 166/166/166
f 154/154/154 166/166/166 165/165/165
f 155/155/155 156/156/156 167/167/167
f 155/155/155 167/167/167 166/166/166
f 156/156/156 157/157/157 168/168/168
f 156/156/156 168/168/168 167/167/167
f 157/157/157 158/158/158 169/169/169
f 157/157/157 169/169/169 168/168/168
f 158/158/158 159/159/159 170/170/170
f 158/158/158 170/170/170 169/169/169
f 159/159/159 160/160/160 171/171/171
f 159/159/159 171/171/171 170/170/170
f 160/160/160 161/161/161 172/172/172
f 160/160/160 172/172/172 171/171/171
f 161/161/161 162/162/162 173/173/173
f 161/161/161 173/173/173 172/172/172
f 163/163/163 164/164/164 175/175/175
f 163/163/163 175/175/175 174/174/174
f 164/164/164 165/165/165 176/176/176
f 164/164/164 176/176/176 175/175/175
f 165/165/165 166/166/166 177/177/177
f 165/165/165 177/177/177 176/176/176
f 166/166/166 167/167/167 178/178/178
f 166/166/166 178/178/178 177/177/177
f 167/167/167 168/168/168 179/179/179
f 167/167/167 179/179/179 178/178/178
f 168/168/168 169/169/169 180/180/180
f 168/168/168 180/180/180 179/179/179
f 169/169/169 170/170/170 181/181/181
f 169/169/169 181/181/181 180/180/180
f 170/170/170 171/171/171 182/182/182
f 170/170/170 182/182/182 181/181/181
f 171/171/171 172/172/172 183/183/183
f 171/171/171 183/183/183 182/182/182
f 172/172/172 173/173/173 184/184/184
f 172/172/172 184/184/184 183/183/183
f 185/185/185 187/187/187 186/186/186
f 185/185/185 188/188/188 187/187/187
f 185/185/185 189/189/189 188/188/188
f 185/185/185 190/190/190 189/189/189
f 185/185/185 191/191/191 190/190/190
f 185/185/185 192/192/192 191/191/191
f 185/185/185 193/193/193 192/192/192
f 185/185/185 194/194/194 193/193/193
f 185/185/185 195/195/195 194/194/194
f 185/185/185 186/186/186 195/195/195
f 196/196/196 197/197/197 198/198/198
f 196/196/196 198/198/198 199/199/199
f 196/196/196 199/199/199 200/200/200
f 196/196/196 200/200/200 201/201/201
f 196/196/196 201/201/201 202/202/202
f 196/196/196 202/202/202 203/203/203
f 196/196/196 203/203/203 204/204/204
f 196/196/196 204/204/204 205/205/205
f 196/196/196 205/205/205 206/206/206
f 196/196/196 206/206/206 197/197/197
f 207/207/207 208/208/208 212/212/212
f 207/207/207 212/212/212 211/211/211
f 208/208/208 209/209/209 213/213/213
f 208/208/208 213/213/213 212/212/212
f 209/209/209 210/210/210 214/214/214
f 209/209/209 214/214/214 213/213/213
f 211/211/211 212/212/212 216/216/216
f 211/211/211 216/216/216 215/215/215
f 212/212/212 213/213/213 217/217/217
f 212/212/212 217/217/217 216/216/216
f 213/213/213 214/214/214 218/218/218
f 213/213/213 218/218/218 217/217/217
f 215/215/215 216/216/216 220/220/220
f 215/215/215 220/220/220 219/219/219
f 216/216/216 217/217/217 221/221/221
f 216/216/216 221/221/221 220/220/220
f 217/217/217 218/218/218 222/222/222
f 217/217/217 222/222/222 221/221/221
f 223/223/223 224/224/224 228/228/228
f 223/223/223 228/228/228 227/227/227
f 224/224/224 225/225/225 229/229/229
f 224/224/224 229/229/229 228/228/228
f 225/225/225 226/226/226 230/230/230
f 225/225/225 230/230/230 229/229/229
f 227/227/227 228/228/228 232/232/232
f 227/227/227 232/232/232 231/231/231
f 228/228/228 229/229/229 233/233/233
f 228/228/228 233/233/233 232/232/232
f 229/229/229 230/230/230 234/234/234
f 229/229/229 234/234/234 233/233/233
f 231/231/231 232/232/232 236/236/236
f 231/231/231 236/236/236 235/235/235
f 232/232/232 233/233/233 237/237/237
f 232/232/232 237/237/237 236/236/236
f 233/233/233 234/234/234 238/238/238
f 233/233/233 238/238/238 237/237/237
f 239/239/239 240/240/240 244/244/244
f 239/239/239 244/244/244 243/243/243
f 240/240/240 241/241/241 245/245/245
f 240/240/240 245/245/245 244/244/244
f 241/241/241 242/242/242 246/246/246
f 241/241/241 246/246/246 245/245/245
f 243/243/243 244/244/244 248/248/248
f 243/243/243 248/248/248 247/247/247
f 244/244/244 245/245/245 249/249/249
f 244/244/244 249/249/249 248/248/248
f 245/245/245 246/246/246 250/250/250
f 245/245/245 250/250/250 249/249/249
f 247/247/247 248/248/248 252/252/252
f 247/247/247 252/252/252 251/251/251
f 248/248/248 249/249/249 253/253/253
f 248/248/248 253/253/253 252/252/252
f 249/249/249 250/250/250 254/254/254
f 249/249/249 254/254/254 253/253/253
f 255/255/255 256/256/256 260/260/260
f 255/255/255 260/260/260 259/259/259
f 256/256/256 257/257/257 261/261/261
f 256/256/256 261/261/261 260/260/260
f 257/257/257 258/258/258 262/262/262
f 257/257/257 262/262/262 261/261/261
f 259/259/259 260/260/260 264/264/264
f 259/259/259 264/264/264 263/263/263
f 260/260/260 261/261/261 265/265/265
f 260/260/260 265/265/265 264/264/264
f 261/261/261 262/262/262 266/266/266
f 261/261/261 266/266/266 265/265/265
f 263/263/263 264/264/264 268/268/268
f 263/263/263 268/268/268 267/267/267
f 264/264/264 265/265/265 269/269/269
f 264/264/264 269/269/269 268/268/268
f 265/265/265 266/266/266 270/270/270
f 265/265/265 270/270/270 269/269/269
f 271/271/271 272/272/272 276/276/276
f 271/271/271 276/276/276 275/275/275
f 272/272/272 273/273/273 277/277/277
f 272/272/272 277/277/277 276/276/276
f 273/273/273 274/274/274 278/278/278
f 273/273/273 278/278/278 277/277/277
f 275/275/275 276/276/276 280/280/280
f 275/275/275 280/280/280 279/279/279
f 276/276/276 277/277/277 281/281/281
f 276/276/276 281/281/281 280/280/280
f 277/277/277 278/278/278 282/282/282
f 277/277/277 282/282/282 281/281/281
f 279/279/279 280/280/280 284/284/284
f 279/279/279 284/284/284 283/283/283
f 280/280/280 281/281/281 285/285/285
f 280/280/280 285/285/285 284/284/284
f 281/281/281 282/282/282 286/286/286
f 281/281/281 286/286/286 285/285/285
f 287/287/287 288/288/288 292/292/292
f 287/287/287 292/292/292 291/291/291
f 288/288/288 289/289/289 293/293/293
f 288/288/288 293/293/293 292/292/292
f 289/289/289 290/290/290 294/294/294
f 289/289/289 294/294/294 293/293/293
f 291/291/291 292/292/292 296/296/296
f 291/291/291 296/296/296 295/295/295
f 292/292/292 293/293/293 297/297/297
f 292/292/292 297/297/297 296/296/296
f 293/293/293 294/294/294 298/298/298
f 293/293/293 298/298/298 297/297/297
f 295/295/295 296/296/296 300/300/300
f 295/295/295 300/300/300 299/299/299
f 296/296/296 297/297/297 301/301/301
f 296/296/296 301/301/301 300/300/300
f 297/297/297 298/298/298 302/302/302
f 297/297/297 302/302/302 301/301/301
f 303/303/303 304/304/304 308/308/308
f 303/303/303 308/308/308 307/307/307
f 304/304/304 305/305/305 309/309/309
f 304/304/304 309/309/309 308/308/308
f 305/305/305 306/306/306 310/310/310
f 305/305/305 310/310/310 309/309/309
f 307/307/307 308/308/308 312/312/312
f 307/307/307 312/312/312 311/311/311
f 308/308/308 309/309/309 313/313/313
f 308/308/308 313/313/313 312/312/312
f 309/309/309 310/310/310 314/314/314
f 309/309/309 314/314/314 313/313/313
f 311/311/311 312/312/312 316/316/316
f 311/311/311 316/316/316 315/315/315
f 312/312/312 313/313/313 317/317/317
f 312/312/312 317/317/317 316/316/316
f 313/313/313 314/314/314 318/318/318
f 313/313/313 318/318/318 317/317/317
f 319/319/319 320/320/320 324/324/324
f 319/319/319 324/324/324 323/323/323
f 320/320/320 321/321/321 325/325/325
f 320/320/320 325/325/325 324/324/324
f 321/321/321 322/322/322 326/326/326
f 321/321/321 326/326/326 325/325/325
f 323/323/323 324/324/324 328/328/328
f 323/323/323 328/328/328 327/327/327
f 324/324/324 325/325/325 329/329/329
f 324/324/324 329/329/329 328/328/328
f 325/325/325 326/326/326 330/330/330
f 325/325/325 330/330/330 329/329/329
f 327/327/327 328/328/328 332/332/332
f 327/327/327 332/332/332 331/331/331
f 328/328/328 329/329/329 333/333/333
f 328/328/328 333/333/333 332/332/332
f 329/329/329 330/330/330 334/334/334
f 329/329/329 334/334/334 333/333/333
f 335/335/335 336/336/336 340/340/340
f 335/335/335 340/340/340 339/339/339
f 336/336/336 337/337/337 341/341/341
f 336/336/336 341/341/341 340/340/340
f 337/337/337 338/338/338 342/342/342
f 337/337/337 342/342/342 341/341/341
f 339/339/339 340/340/340 344/344/344
f 339/339/339 344/344/344 343/343/343
f 340/340/340 341/341/341 345/345/345
f 340/340/340 345/345/345 344/344/344
f 341/341/341 342/342/342 346/346/346
f 341/341/341 346/346/346 345/345/345
f 343/343/343 344/344/344 348/348/348
f 343/343/343 348/348/348 347/347/347
f 344/344/344 345/345/345 349/349/349
f 344/344/344 349/349/349 348/348/348
f 345/345/345 346/346/346 350/350/350
f 345/345/345 350/350/350 349/349/349
f 351/351/351 352/352/352 356/356/356
f 351/351/351 356/356/356 355/355/355
f 352/352/352 353/353/353 357/357/357
f 352/352/352 357/357/357 356/356/356
f 353/353/353 354/354/354 358/358/358
f 353/353/353 358/358/358 357/357/357
f 355/355/355 356/356/356 360/360/360
f 355/355/355 360/360/360 359/359/359
f 356/356/356 357/357/357 361/361/361
f 356/356/356 361/361/361 360/360/360
f 357/357/357 358/358/358 362/362/362
f 357/357/357 362/362/362 361/361/361
f 359/359/359 360/360/360 364/364/364
f 359/359/359 364/364/364 363/363/363
f 360/360/360 361/361/361 365/365/365
f 360/360/360 365/365/365 364/364/364
f 361/361/361 362/362/362 366/366/366
f 361/361/361 366/366/366 365/365/365
f 367/367/367 368/368/368 372/372/372
f 367/367/367 372/372/372 371/371/371
f 368/368/368 369/369/369 373/373/373
f 368/368/368 373/373/373 372/372/372
f 369/369/369 370/370/370 374/374/374
f 369/369/369 374/374/374 373/373/373
f 371/371/371 372/372/372 376/376/376
f 371/371/371 376/376/376 375/375/375
f 372/372/372 373/373/373 377/377/377
f 372/372/372 377/377/377 376/376/376
f 373/373/373 374/374/374 378/378/378
f 373/373/373 378/378/378 377/377/377
f 375/375/375 376/376/376 380/380/380
f 375/375/375 380/380/380 379/379/379
f 376/376/376 377/377/377 381/381/381
f 376/376/376 381/381/381 380/380/380
f 377/377/377 378/378/378 382/382/382
f 377/377/377 382/382/382 381/381/381
f 383/383/383 384/384/384 388/388/388
f 383/383/383 388/388/388 387/387/387
f 384/384/384 385/385/385 389/389/389
f 384/384/384 389/389/389 388/388/388
f 385/385/385 386/386/386 390/390/390
f 385/385/385 390/390/390 389/389/389
f 387/387/387 388/388/388 392/392/392
f 387/387/387 392/392/392 391/391/391
f 388/388/388 389/389/389 393/393/393
f 388/388/388 393/393/393 392/392/392
f 389/389/389 390/390/390 394/394/394
f 389/389/389 394/394/394 393/393/393
f 391/391/391 392/392/392 396/396/396
f 391/391/391 396/396/396 395/395/395
f 392/392/392 393/393/393 397/397/397
f 392/392/392 397/397/397 396/396/396
f 393/393/393 394/394/394 398/398/398
f 393/393/393 398/398/398 397/397/397
f 399/399/399 400/400/400 409/409/409
f 399/399/399 409/409/409 408/408/408
f 400/400/400 401/401/401 410/410/410
f 400/400/400 410/410/410 409/409/409
f 401/401/401 402/402/402 411/411/411
f 401/401/401 411/411/411 410/410/410
f 402/402/402 403/403/403 412/412/412
f 402/402/402 412/412/412 411/411/411
f 403/403/403 404/404/404 413/413/413
f 403/403/403 413/413/413 412/412/412
f 404/404/404 405/405/405 414/414/414
f 404/404/404 414/414/414 413/413/413
f 405/405/405 406/406/406 415/415/415
f 405/405/405 415/415/415 414/414/414
f 406/406/406 407/407/407 416/416/416
f 406/406/406 416/416/416 415/415/415
f 417/417/417 419/419/419 418/418/418
f 417/417/417 420/420/420 419/419/419
f 417/417/417 421/421/421 420/420/420
f 417/417/417 422/422/422 421/421/421
f 417/417/417 423/423/423 422/422/422
f 417/417/417 424/424/424 423/423/423
f 417/417/417 425/425/425 424/424/424
f 417/417/417 418/418/418 425/425/425
f 426/426/426 427/427/427 428/428/428
f 426/426/426 428/428/428 429/429/429
f 426/426/426 429/429/429 430/430/430
f 426/426/426 430/430/430 431/431/431
f 426/426/426 431/431/431 432/432/432
f 426/426/426 432/432/432 433/433/433
f 426/426/426 433/433/433 434/434/434
f 426/426/426 434/434/434 427/427/427
f 435/435/435 436/436/436 440/440/440
f 435/435/435 440/440/440 439/439/439
f 436/436/436 437/437/437 441/441/441
f 436/436/436 441/441/441 440/440/440
f 437/437/437 438/438/438 442/442/442
f 437/437/437 442/442/442 441/441/441
f 439/439/439 440/440/440 444/444/444
f 439/439/439 444/444/444 443/443/443
f 440/440/440 441/441/441 445/445/445
f 440/440/440 445/445/445 444/444/444
f 441/441/441 442/442/442 446/446/446
f 441/441/441 446/446/446 445/445/445
f 443/443/443 444/444/444 448/448/448
f 443/443/443 448/448/448 447/447/447
f 444/444/444 445/445/445 449/449/449
f 444/444/444 449/449/449 448/448/448
f 445/445/445 446/446/446 450/450/450
f 445/445/445 450/450/450 449/449/449
f 451/451/451 452/452/452 456/456/456
f 451/451/451 456/456/456 455/455/455
f 452/452/452 453/453/453 457/457/457
f 452/452/452 457/457/457 456/456/456
f 453/453/453 454/454/454 458/458/458
f 453/453/453 458/458/458 457/457/457
f 455/455/455 456/456/456 460/460/460
f 455/455/455 460/460/460 459/459/459
f 456/456/456 457/457/457 461/461/461
f 456/456/456 461/461/461 460/460/460
f 457/457/457 458/458/458 462/462/462
f 457/457/457 462/462/462 461/461/461
f 459/459/459 460/460/460 464/464/464
f 459/459/459 464/464/464 463/463/463
f 460/460/460 461/461/461 465/465/465
f 460/460/460 465/465/465 464/464/464
f 461/461/461 462/462/462 466/466/466
f 461/461/461 466/466/466 465/465/465
f 467/467/467 468/468/468 472/472/472
f 467/467/467 472/472/472 471/471/471
f 468/468/468 469/469/469 473/473/473
f 468/468/468 473/473/473 472/472/472
f 469/469/469 470/470/470 474/474/474
f 469/469/469 474/474/474 473/473/473
f 471/471/471 472/472/472 476/476/476
f 471/471/471 476/476/476 475/475/475
f 472/472/472 473/473/473 477/477/477
f 472/472/472 477/477/477 476/476/476
f 473/473/473 474/474/474 478/478/478
f 473/473/473 478/478/478 477/477/477
f 475/475/475 476/476/476 480/480/480
f 475/475/475 480/480/480 479/479/479
f 476/476/476 477/477/477 481/481/481
f 476/476/476 481/481/481 480/480/480
f 477/477/477 478/478/478 482/482/482
f 477/477/477 482/482/482 481/481/481
f 483/483/483 484/484/484 488/488/488
f 483/483/483 488/488/488 487/487/487
f 484/484/484 485/485/485 489/489/489
f 484/484/484 489/489/489 488/488/488
f 485/485/485 486/486/486 490/490/490
f 485/485/485 490/490/490 489/489/489
f 487/487/487 488/488/488 492/492/492
f 487/487/487 492/492/492 491/491/491
f 488/488/488 489/489/489 493/493/493
f 488/488/488 493/493/493 492/492/492
f 489/489/489 490/490/490 494/494/494
f 489/489/489 494/494/494 493/493/493
f 491/491/491 492/492/492 496/496/496
f 491/491/491 496/496/496 495/495/495
f 492/492/492 493/493/493 497/497/497
f 492/492/492 497/497/497 496/496/496
f 493/493/493 494/494/494 498/498/498
f 493/493/493 498/498/498 497/497/497
f 499/499/499 500/500/500 504/504/504
f 499/499/499 504/504/504 503/503/503
f 500/500/500 501/501/501 505/505/505
f 500/500/500 505/505/505 504/504/504
f 501/501/501 502/502/502 506/506/506
f 501/501/501 506/506/506 505/505/505
f 503/503/503 504/504/504 508/508/508
f 503/503/503 508/508/508 507/507/507
f 504/504/504 505/505/505 509/509/509
f 504/504/504 509/509/509 508/508/508
f 505/505/505 506/506/506 510/510/510
f 505/505/505 510/510/510 509/509/509
f 507/507/507 508/508/508 512/512/512
f 507/507/507 512/512/512 511/511/511
f 508/508/508 509/509/509 513/513/513
f 508/508/508 513/513/513 512/512/512
f 509/509/509 510/510/510 514/514/514
f 509/509/509 514/514/514 513/513/513
f 515/515/515 516/516/516 520/520/520
f 515/515/515 520/520/520 519/519/519
f 516/516/516 517/517/517 521/521/521
f 516/516/516 521/521/521 520/520/520
f 517/517/517 518/518/518 522/522/522
f 517/517/517 522/522/522 521/521/521
f 519/519/519 520/520/520 524/524/524
f 519/519/519 524/524/524 523/523/523
f 520/520/520 521/521/521 525/525/525
f 520/520/520 525/525/525 524/524/524
f 521/521/521 522/522/522 526/526/526
f 521/521/521 526/526/526 525/525/525
f 523/523/523 524/524/524 528/528/528
f 523/523/523 528/528/528 527/527/527
f 524/524/524 525/525/525 529/529/529
f 524/524/524 529/529/529 528/528/528
f 525/525/525 526/526/526 530/530/530
f 525/525/525 530/530/530 529/529/529
f 531/531/531 532/532/532 541/541/541
f 531/531/531 541/541/541 540/540/540
f 532/532/532 533/533/533 542/542/542
f 532/532/532 542/542/542 541/541/541
f 533/533/533 534/534/534 543/543/543
f 533/533/533 543/543/543 542/542/542
f 534/534/534 535/535/535 544/544/544
f 534/534/534 544/544/544 543/543/543
f 535/535/535 536/536/536 545/545/545
f 535/535/535 545/545/545 544/544/544
f 536/536/536 537/537/537 546/546/546
f 536/536/536 546/546/546 545/545/545
f 537/537/537 538/538/538 547/547/547
f 537/537/537 547/547/547 546/546/546
f 538/538/538 539/539/539 548/548/548
f 538/538/538 548/548/548 547/547/547
f 549/549/549 551/551/551 550/550/550
f 549/549/549 552/552/552 551/551/551
f 549/549/549 553/553/553 552/552/552
f 549/549/549 554/554/554 553/553/553
f 549/549/549 555/555/555 554/554/554
f 549/549/549 556/556/556 555/555/555
f 549/549/549 557/557/557 556/556/556
f 549/549/549 550/550/550 557/557/557
f 558/558/558 559/559/559 560/560/560
f 558/558/558 560/560/560 561/561/561
f 558/558/558 561/561/561 562/562/562
f 558/558/558 562/562/562 563/563/563
f 558/558/558 563/563/563 564/564/564
f 558/558/558 564/564/564 565/565/565
f 558/558/558 565/565/565 566/566/566
f 558/558/558 566/566/566 559/559/559
f 567/567/567 568/568/568 577/577/577
f 567/567/567 577/577/577 576/576/576
f 568/568/568 569/569/569 578/578/578
f 568/568/568 578/578/578 577/577/577
f 569/569/569 570/570/570 579/579/579
f 569/569/569 579/579/579 578/578/578
f 570/570/570 571/571/571 580/580/580
f 570/570/570 580/580/580 579/579/579
f 571/571/571 572/572/572 581/581/581
f 571/571/571 581/581/581 580/580/580
f 572/572/572 573/573/573 582/582/582
f 572/572/572 582/582/582 581/581/581
f 573/573/573 574/574/574 583/583/583
f 573/573/573 583/583/583 582/582/582
f 574/574/574 575/575/575 584/584/584
f 574/574/574 584/584/584 583/583/583
f 585/585/585 587/587/587 586/586/586
f 585/585/585 588/588/588 587/587/587
f 585/585/585 589/589/589 588/588/588
f 585/585/585 590/590/590 589/589/589
f 585/585/585 591/591/591 590/590/590
f 585/585/585 592/592/592 591/591/591
f 585/585/585 593/593/593 592/592/592
f 585/585/585 586/586/586 593/593/593
f 594/594/594 595/595/595 596/596/596
f 594/594/594 596/596/596 597/597/597
f 594/594/594 597/597/597 598/598/598
f 594/594/594 598/598/598 599/599/599
f 594/594/594 599/599/599 600/600/600
f 594/594/594 600/600/600 601/601/601
f 594/594/594 601/601/601 602/602/602
f 594/594/594 602/602/602 595/595/595
