# Sinh tự động bởi tools/mesh_kit.py - đừng sửa tay
o seat_frame_L
v -0.4058 0.3787 0.1858
v -0.4071 0.3774 0.1800
v -0.4071 0.3774 -0.2000
v -0.4058 0.3787 -0.2058
v -0.4071 0.3845 0.1871
v -0.4100 0.3845 0.1800
v -0.4100 0.3845 -0.2000
v -0.4071 0.3845 -0.2071
v -0.4071 0.3995 0.1871
v -0.4100 0.3995 0.1800
v -0.4100 0.3995 -0.2000
v -0.4071 0.3995 -0.2071
v -0.4058 0.4053 0.1858
v -0.4071 0.4066 0.1800
v -0.4071 0.4066 -0.2000
v -0.4058 0.4053 -0.2058
v 0.4058 0.3787 -0.2058
v 0.4071 0.3774 -0.2000
v 0.4071 0.3774 0.1800
v 0.4058 0.3787 0.1858
v 0.4071 0.3845 -0.2071
v 0.4100 0.3845 -0.2000
v 0.4100 0.3845 0.1800
v 0.4071 0.3845 0.1871
v 0.4071 0.3995 -0.2071
v 0.4100 0.3995 -0.2000
v 0.4100 0.3995 0.1800
v 0.4071 0.3995 0.1871
v 0.4058 0.4053 -0.2058
v 0.4071 0.4066 -0.2000
v 0.4071 0.4066 0.1800
v 0.4058 0.4053 0.1858
v 0.4058 0.4053 0.1858
v 0.4000 0.4066 0.1871
v -0.4000 0.4066 0.1871
v -0.4058 0.4053 0.1858
v 0.4071 0.4066 0.1800
v 0.4000 0.4095 0.1800
v -0.4000 0.4095 0.1800
v -0.4071 0.4066 0.1800
v 0.4071 0.4066 -0.2000
v 0.4000 0.4095 -0.2000
v -0.4000 0.4095 -0.2000
v -0.4071 0.4066 -0.2000
v 0.4058 0.4053 -0.2058
v 0.4000 0.4066 -0.2071
v -0.4000 0.4066 -0.2071
v -0.4058 0.4053 -0.2058
v 0.4058 0.3787 -0.2058
v 0.4000 0.3774 -0.2071
v -0.4000 0.3774 -0.2071
v -0.4058 0.3787 -0.2058
v 0.4071 0.3774 -0.2000
v 0.4000 0.3745 -0.2000
v -0.4000 0.3745 -0.2000
v -0.4071 0.3774 -0.2000
v 0.4071 0.3774 0.1800
v 0.4000 0.3745 0.1800
v -0.4000 0.3745 0.1800
v -0.4071 0.3774 0.1800
v 0.4058 0.3787 0.1858
v 0.4000 0.3774 0.1871
v -0.4000 0.3774 0.1871
v -0.4058 0.3787 0.1858
v 0.4058 0.3787 0.1858
v 0.4000 0.3774 0.1871
v -0.4000 0.3774 0.1871
v -0.4058 0.3787 0.1858
v 0.4071 0.3845 0.1871
v 0.4000 0.3845 0.1900
v -0.4000 0.3845 0.1900
v -0.4071 0.3845 0.1871
v 0.4071 0.3995 0.1871
v 0.4000 0.3995 0.1900
v -0.4000 0.3995 0.1900
v -0.4071 0.3995 0.1871
v 0.4058 0.4053 0.1858
v 0.4000 0.4066 0.1871
v -0.4000 0.4066 0.1871
v -0.4058 0.4053 0.1858
v -0.4058 0.3787 -0.2058
v -0.4000 0.3774 -0.2071
v 0.4000 0.3774 -0.2071
v 0.4058 0.3787 -0.2058
v -0.4071 0.3845 -0.2071
v -0.4000 0.3845 -0.2100
v 0.4000 0.3845 -0.2100
v 0.4071 0.3845 -0.2071
v -0.4071 0.3995 -0.2071
v -0.4000 0.3995 -0.2100
v 0.4000 0.3995 -0.2100
v 0.4071 0.3995 -0.2071
v -0.4058 0.4053 -0.2058
v -0.4000 0.4066 -0.2071
v 0.4000 0.4066 -0.2071
v 0.4058 0.4053 -0.2058
v 0.3750 0.0100 -0.1700
v 0.3779 0.0129 -0.1783
v 0.3854 0.0147 -0.1835
v 0.3946 0.0147 -0.1835
v 0.4021 0.0129 -0.1783
v 0.4050 0.0100 -0.1700
v 0.4021 0.0071 -0.1617
v 0.3946 0.0053 -0.1565
v 0.3854 0.0053 -0.1565
v 0.3779 0.0071 -0.1617
v 0.3750 0.0100 -0.1700
v 0.3750 0.2737 -0.0786
v 0.3779 0.2767 -0.0869
v 0.3854 0.2785 -0.0920
v 0.3946 0.2785 -0.0920
v 0.4021 0.2767 -0.0869
v 0.4050 0.2737 -0.0786
v 0.4021 0.2707 -0.0703
v 0.3946 0.2689 -0.0652
v 0.3854 0.2689 -0.0652
v 0.3779 0.2707 -0.0703
v 0.3750 0.2737 -0.0786
v 0.3750 0.3095 -0.0626
v 0.3779 0.3141 -0.0701
v 0.3854 0.3170 -0.0747
v 0.3946 0.3170 -0.0747
v 0.4021 0.3141 -0.0701
v 0.4050 0.3095 -0.0626
v 0.4021 0.3050 -0.0550
v 0.3946 0.3021 -0.0504
v 0.3854 0.3021 -0.0504
v 0.3779 0.3050 -0.0550
v 0.3750 0.3095 -0.0626
v 0.3750 0.3281 -0.0454
v 0.3779 0.3358 -0.0497
v 0.3854 0.3406 -0.0523
v 0.3946 0.3406 -0.0523
v 0.4021 0.3358 -0.0497
v 0.4050 0.3281 -0.0454
v 0.4021 0.3204 -0.0411
v 0.3946 0.3156 -0.0384
v 0.3854 0.3156 -0.0384
v 0.3779 0.3204 -0.0411
v 0.3750 0.3281 -0.0454
v 0.3750 0.3294 -0.0270
v 0.3779 0.3376 -0.0238
v 0.3854 0.3426 -0.0218
v 0.3946 0.3426 -0.0218
v 0.4021 0.3376 -0.0238
v 0.4050 0.3294 -0.0270
v 0.4021 0.3211 -0.0302
v 0.3946 0.3161 -0.0322
v 0.3854 0.3161 -0.0322
v 0.3779 0.3211 -0.0302
v 0.3750 0.3294 -0.0270
v 0.3750 0.3133 -0.0075
v 0.3779 0.3188 -0.0006
v 0.3854 0.3223 0.0036
v 0.3946 0.3223 0.0036
v 0.4021 0.3188 -0.0006
v 0.4050 0.3133 -0.0075
v 0.4021 0.3077 -0.0143
v 0.3946 0.3043 -0.0185
v 0.3854 0.3043 -0.0185
v 0.3779 0.3077 -0.0143
v 0.3750 0.3133 -0.0075
v 0.3750 0.2799 0.0133
v 0.3779 0.2840 0.0211
v 0.3854 0.2865 0.0259
v 0.3946 0.2865 0.0259
v 0.4021 0.2840 0.0211
v 0.4050 0.2799 0.0133
v 0.4021 0.2758 0.0054
v 0.3946 0.2733 0.0006
v 0.3854 0.2733 0.0006
v 0.3779 0.2758 0.0054
v 0.3750 0.2799 0.0133
v 0.3750 0.0100 0.1500
v 0.3779 0.0140 0.1579
v 0.3854 0.0164 0.1627
v 0.3946 0.0164 0.1627
v 0.4021 0.0140 0.1579
v 0.4050 0.0100 0.1500
v 0.4021 0.0060 0.1421
v 0.3946 0.0036 0.1373
v 0.3854 0.0036 0.1373
v 0.3779 0.0060 0.1421
v 0.3750 0.0100 0.1500
v 0.3900 0.0100 -0.1700
v 0.3750 0.0100 -0.1700
v 0.3779 0.0129 -0.1783
v 0.3854 0.0147 -0.1835
v 0.3946 0.0147 -0.1835
v 0.4021 0.0129 -0.1783
v 0.4050 0.0100 -0.1700
v 0.4021 0.0071 -0.1617
v 0.3946 0.0053 -0.1565
v 0.3854 0.0053 -0.1565
v 0.3779 0.0071 -0.1617
v 0.3900 0.0100 0.1500
v 0.3750 0.0100 0.1500
v 0.3779 0.0140 0.1579
v 0.3854 0.0164 0.1627
v 0.3946 0.0164 0.1627
v 0.4021 0.0140 0.1579
v 0.4050 0.0100 0.1500
v 0.4021 0.0060 0.1421
v 0.3946 0.0036 0.1373
v 0.3854 0.0036 0.1373
v 0.3779 0.0060 0.1421
v 0.3667 0.0017 -0.1367
v 0.3662 0.0012 -0.1390
v 0.3662 0.0012 -0.2010
v 0.3667 0.0017 -0.2033
v 0.3662 0.0040 -0.1362
v 0.3650 0.0040 -0.1390
v 0.3650 0.0040 -0.2010
v 0.3662 0.0040 -0.2038
v 0.3662 0.0080 -0.1362
v 0.3650 0.0080 -0.1390
v 0.3650 0.0080 -0.2010
v 0.3662 0.0080 -0.2038
v 0.3667 0.0103 -0.1367
v 0.3662 0.0108 -0.1390
v 0.3662 0.0108 -0.2010
v 0.3667 0.0103 -0.2033
v 0.4133 0.0017 -0.2033
v 0.4138 0.0012 -0.2010
v 0.4138 0.0012 -0.1390
v 0.4133 0.0017 -0.1367
v 0.4138 0.0040 -0.2038
v 0.4150 0.0040 -0.2010
v 0.4150 0.0040 -0.1390
v 0.4138 0.0040 -0.1362
v 0.4138 0.0080 -0.2038
v 0.4150 0.0080 -0.2010
v 0.4150 0.0080 -0.1390
v 0.4138 0.0080 -0.1362
v 0.4133 0.0103 -0.2033
v 0.4138 0.0108 -0.2010
v 0.4138 0.0108 -0.1390
v 0.4133 0.0103 -0.1367
v 0.4133 0.0103 -0.1367
v 0.4110 0.0108 -0.1362
v 0.3690 0.0108 -0.1362
v 0.3667 0.0103 -0.1367
v 0.4138 0.0108 -0.1390
v 0.4110 0.0120 -0.1390
v 0.3690 0.0120 -0.1390
v 0.3662 0.0108 -0.1390
v 0.4138 0.0108 -0.2010
v 0.4110 0.0120 -0.2010
v 0.3690 0.0120 -0.2010
v 0.3662 0.0108 -0.2010
v 0.4133 0.0103 -0.2033
v 0.4110 0.0108 -0.2038
v 0.3690 0.0108 -0.2038
v 0.3667 0.0103 -0.2033
v 0.4133 0.0017 -0.2033
v 0.4110 0.0012 -0.2038
v 0.3690 0.0012 -0.2038
v 0.3667 0.0017 -0.2033
v 0.4138 0.0012 -0.2010
v 0.4110 0.0000 -0.2010
v 0.3690 0.0000 -0.2010
v 0.3662 0.0012 -0.2010
v 0.4138 0.0012 -0.1390
v 0.4110 0.0000 -0.1390
v 0.3690 0.0000 -0.1390
v 0.3662 0.0012 -0.1390
v 0.4133 0.0017 -0.1367
v 0.4110 0.0012 -0.1362
v 0.3690 0.0012 -0.1362
v 0.3667 0.0017 -0.1367
v 0.4133 0.0017 -0.1367
v 0.4110 0.0012 -0.1362
v 0.3690 0.0012 -0.1362
v 0.3667 0.0017 -0.1367
v 0.4138 0.0040 -0.1362
v 0.4110 0.0040 -0.1350
v 0.3690 0.0040 -0.1350
v 0.3662 0.0040 -0.1362
v 0.4138 0.0080 -0.1362
v 0.4110 0.0080 -0.1350
v 0.3690 0.0080 -0.1350
v 0.3662 0.0080 -0.1362
v 0.4133 0.0103 -0.1367
v 0.4110 0.0108 -0.1362
v 0.3690 0.0108 -0.1362
v 0.3667 0.0103 -0.1367
v 0.3667 0.0017 -0.2033
v 0.3690 0.0012 -0.2038
v 0.4110 0.0012 -0.2038
v 0.4133 0.0017 -0.2033
v 0.3662 0.0040 -0.2038
v 0.3690 0.0040 -0.2050
v 0.4110 0.0040 -0.2050
v 0.4138 0.0040 -0.2038
v 0.3662 0.0080 -0.2038
v 0.3690 0.0080 -0.2050
v 0.4110 0.0080 -0.2050
v 0.4138 0.0080 -0.2038
v 0.3667 0.0103 -0.2033
v 0.3690 0.0108 -0.2038
v 0.4110 0.0108 -0.2038
v 0.4133 0.0103 -0.2033
v 0.3667 0.0017 0.1833
v 0.3662 0.0012 0.1810
v 0.3662 0.0012 0.1190
v 0.3667 0.0017 0.1167
v 0.3662 0.0040 0.1838
v 0.3650 0.0040 0.1810
v 0.3650 0.0040 0.1190
v 0.3662 0.0040 0.1162
v 0.3662 0.0080 0.1838
v 0.3650 0.0080 0.1810
v 0.3650 0.0080 0.1190
v 0.3662 0.0080 0.1162
v 0.3667 0.0103 0.1833
v 0.3662 0.0108 0.1810
v 0.3662 0.0108 0.1190
v 0.3667 0.0103 0.1167
v 0.4133 0.0017 0.1167
v 0.4138 0.0012 0.1190
v 0.4138 0.0012 0.1810
v 0.4133 0.0017 0.1833
v 0.4138 0.0040 0.1162
v 0.4150 0.0040 0.1190
v 0.4150 0.0040 0.1810
v 0.4138 0.0040 0.1838
v 0.4138 0.0080 0.1162
v 0.4150 0.0080 0.1190
v 0.4150 0.0080 0.1810
v 0.4138 0.0080 0.1838
v 0.4133 0.0103 0.1167
v 0.4138 0.0108 0.1190
v 0.4138 0.0108 0.1810
v 0.4133 0.0103 0.1833
v 0.4133 0.0103 0.1833
v 0.4110 0.0108 0.1838
v 0.3690 0.0108 0.1838
v 0.3667 0.0103 0.1833
v 0.4138 0.0108 0.1810
v 0.4110 0.0120 0.1810
v 0.3690 0.0120 0.1810
v 0.3662 0.0108 0.1810
v 0.4138 0.0108 0.1190
v 0.4110 0.0120 0.1190
v 0.3690 0.0120 0.1190
v 0.3662 0.0108 0.1190
v 0.4133 0.0103 0.1167
v 0.4110 0.0108 0.1162
v 0.3690 0.0108 0.1162
v 0.3667 0.0103 0.1167
v 0.4133 0.0017 0.1167
v 0.4110 0.0012 0.1162
v 0.3690 0.0012 0.1162
v 0.3667 0.0017 0.1167
v 0.4138 0.0012 0.1190
v 0.4110 0.0000 0.1190
v 0.3690 0.0000 0.1190
v 0.3662 0.0012 0.1190
v 0.4138 0.0012 0.1810
v 0.4110 0.0000 0.1810
v 0.3690 0.0000 0.1810
v 0.3662 0.0012 0.1810
v 0.4133 0.0017 0.1833
v 0.4110 0.0012 0.1838
v 0.3690 0.0012 0.1838
v 0.3667 0.0017 0.1833
v 0.4133 0.0017 0.1833
v 0.4110 0.0012 0.1838
v 0.3690 0.0012 0.1838
v 0.3667 0.0017 0.1833
v 0.4138 0.0040 0.1838
v 0.4110 0.0040 0.1850
v 0.3690 0.0040 0.1850
v 0.3662 0.0040 0.1838
v 0.4138 0.0080 0.1838
v 0.4110 0.0080 0.1850
v 0.3690 0.0080 0.1850
v 0.3662 0.0080 0.1838
v 0.4133 0.0103 0.1833
v 0.4110 0.0108 0.1838
v 0.3690 0.0108 0.1838
v 0.3667 0.0103 0.1833
v 0.3667 0.0017 0.1167
v 0.3690 0.0012 0.1162
v 0.4110 0.0012 0.1162
v 0.4133 0.0017 0.1167
v 0.3662 0.0040 0.1162
v 0.3690 0.0040 0.1150
v 0.4110 0.0040 0.1150
v 0.4138 0.0040 0.1162
v 0.3662 0.0080 0.1162
v 0.3690 0.0080 0.1150
v 0.4110 0.0080 0.1150
v 0.4138 0.0080 0.1162
v 0.3667 0.0103 0.1167
v 0.3690 0.0108 0.1162
v 0.4110 0.0108 0.1162
v 0.4133 0.0103 0.1167
v 0.3900 0.1310 0.1300
v 0.3900 0.1278 0.1378
v 0.3900 0.1200 0.1410
v 0.3900 0.1122 0.1378
v 0.3900 0.1090 0.1300
v 0.3900 0.1122 0.1222
v 0.3900 0.1200 0.1190
v 0.3900 0.1278 0.1222
v 0.3900 0.1310 0.1300
v -0.4000 0.1310 0.1300
v -0.4000 0.1278 0.1378
v -0.4000 0.1200 0.1410
v -0.4000 0.1122 0.1378
v -0.4000 0.1090 0.1300
v -0.4000 0.1122 0.1222
v -0.4000 0.1200 0.1190
v -0.4000 0.1278 0.1222
v -0.4000 0.1310 0.1300
v 0.3900 0.1200 0.1300
v 0.3900 0.1310 0.1300
v 0.3900 0.1278 0.1378
v 0.3900 0.1200 0.1410
v 0.3900 0.1122 0.1378
v 0.3900 0.1090 0.1300
v 0.3900 0.1122 0.1222
v 0.3900 0.1200 0.1190
v 0.3900 0.1278 0.1222
v -0.4000 0.1200 0.1300
v -0.4000 0.1310 0.1300
v -0.4000 0.1278 0.1378
v -0.4000 0.1200 0.1410
v -0.4000 0.1122 0.1378
v -0.4000 0.1090 0.1300
v -0.4000 0.1122 0.1222
v -0.4000 0.1200 0.1190
v -0.4000 0.1278 0.1222
v -0.4266 0.2734 0.1466
v -0.4277 0.2723 0.1420
v -0.4277 0.2723 -0.1420
v -0.4266 0.2734 -0.1466
v -0.4277 0.2780 0.1477
v -0.4300 0.2780 0.1420
v -0.4300 0.2780 -0.1420
v -0.4277 0.2780 -0.1477
v -0.4277 0.3820 0.1477
v -0.4300 0.3820 0.1420
v -0.4300 0.3820 -0.1420
v -0.4277 0.3820 -0.1477
v -0.4266 0.3866 0.1466
v -0.4277 0.3877 0.1420
v -0.4277 0.3877 -0.1420
v -0.4266 0.3866 -0.1466
v -0.3934 0.2734 -0.1466
v -0.3923 0.2723 -0.1420
v -0.3923 0.2723 0.1420
v -0.3934 0.2734 0.1466
v -0.3923 0.2780 -0.1477
v -0.3900 0.2780 -0.1420
v -0.3900 0.2780 0.1420
v -0.3923 0.2780 0.1477
v -0.3923 0.3820 -0.1477
v -0.3900 0.3820 -0.1420
v -0.3900 0.3820 0.1420
v -0.3923 0.3820 0.1477
v -0.3934 0.3866 -0.1466
v -0.3923 0.3877 -0.1420
v -0.3923 0.3877 0.1420
v -0.3934 0.3866 0.1466
v -0.3934 0.3866 0.1466
v -0.3980 0.3877 0.1477
v -0.4220 0.3877 0.1477
v -0.4266 0.3866 0.1466
v -0.3923 0.3877 0.1420
v -0.3980 0.3900 0.1420
v -0.4220 0.3900 0.1420
v -0.4277 0.3877 0.1420
v -0.3923 0.3877 -0.1420
v -0.3980 0.3900 -0.1420
v -0.4220 0.3900 -0.1420
v -0.4277 0.3877 -0.1420
v -0.3934 0.3866 -0.1466
v -0.3980 0.3877 -0.1477
v -0.4220 0.3877 -0.1477
v -0.4266 0.3866 -0.1466
v -0.3934 0.2734 -0.1466
v -0.3980 0.2723 -0.1477
v -0.4220 0.2723 -0.1477
v -0.4266 0.2734 -0.1466
v -0.3923 0.2723 -0.1420
v -0.3980 0.2700 -0.1420
v -0.4220 0.2700 -0.1420
v -0.4277 0.2723 -0.1420
v -0.3923 0.2723 0.1420
v -0.3980 0.2700 0.1420
v -0.4220 0.2700 0.1420
v -0.4277 0.2723 0.1420
v -0.3934 0.2734 0.1466
v -0.3980 0.2723 0.1477
v -0.4220 0.2723 0.1477
v -0.4266 0.2734 0.1466
v -0.3934 0.2734 0.1466
v -0.3980 0.2723 0.1477
v -0.4220 0.2723 0.1477
v -0.4266 0.2734 0.1466
v -0.3923 0.2780 0.1477
v -0.3980 0.2780 0.1500
v -0.4220 0.2780 0.1500
v -0.4277 0.2780 0.1477
v -0.3923 0.3820 0.1477
v -0.3980 0.3820 0.1500
v -0.4220 0.3820 0.1500
v -0.4277 0.3820 0.1477
v -0.3934 0.3866 0.1466
v -0.3980 0.3877 0.1477
v -0.4220 0.3877 0.1477
v -0.4266 0.3866 0.1466
v -0.4266 0.2734 -0.1466
v -0.4220 0.2723 -0.1477
v -0.3980 0.2723 -0.1477
v -0.3934 0.2734 -0.1466
v -0.4277 0.2780 -0.1477
v -0.4220 0.2780 -0.1500
v -0.3980 0.2780 -0.1500
v -0.3923 0.2780 -0.1477
v -0.4277 0.3820 -0.1477
v -0.4220 0.3820 -0.1500
v -0.3980 0.3820 -0.1500
v -0.3923 0.3820 -0.1477
v -0.4266 0.3866 -0.1466
v -0.4220 0.3877 -0.1477
v -0.3980 0.3877 -0.1477
v -0.3934 0.3866 -0.1466
v 0.3680 0.3900 0.1600
v 0.3715 0.3915 0.1516
v 0.3800 0.3921 0.1482
v 0.3885 0.3915 0.1516
v 0.3920 0.3900 0.1600
v 0.3885 0.3885 0.1684
v 0.3800 0.3879 0.1718
v 0.3715 0.3885 0.1684
v 0.3680 0.3900 0.1600
v 0.3680 0.5600 0.1900
v 0.3715 0.5615 0.1816
v 0.3800 0.5621 0.1782
v 0.3885 0.5615 0.1816
v 0.3920 0.5600 0.1900
v 0.3885 0.5585 0.1984
v 0.3800 0.5579 0.2018
v 0.3715 0.5585 0.1984
v 0.3680 0.5600 0.1900
v 0.3800 0.3900 0.1600
v 0.3680 0.3900 0.1600
v 0.3715 0.3915 0.1516
v 0.3800 0.3921 0.1482
v 0.3885 0.3915 0.1516
v 0.3920 0.3900 0.1600
v 0.3885 0.3885 0.1684
v 0.3800 0.3879 0.1718
v 0.3715 0.3885 0.1684
v 0.3800 0.5600 0.1900
v 0.3680 0.5600 0.1900
v 0.3715 0.5615 0.1816
v 0.3800 0.5621 0.1782
v 0.3885 0.5615 0.1816
v 0.3920 0.5600 0.1900
v 0.3885 0.5585 0.1984
v 0.3800 0.5579 0.2018
v 0.3715 0.5585 0.1984
v -0.3920 0.3900 0.1600
v -0.3885 0.3915 0.1516
v -0.3800 0.3921 0.1482
v -0.3715 0.3915 0.1516
v -0.3680 0.3900 0.1600
v -0.3715 0.3885 0.1684
v -0.3800 0.3879 0.1718
v -0.3885 0.3885 0.1684
v -0.3920 0.3900 0.1600
v -0.3920 0.5600 0.1900
v -0.3885 0.5615 0.1816
v -0.3800 0.5621 0.1782
v -0.3715 0.5615 0.1816
v -0.3680 0.5600 0.1900
v -0.3715 0.5585 0.1984
v -0.3800 0.5579 0.2018
v -0.3885 0.5585 0.1984
v -0.3920 0.5600 0.1900
v -0.3800 0.3900 0.1600
v -0.3920 0.3900 0.1600
v -0.3885 0.3915 0.1516
v -0.3800 0.3921 0.1482
v -0.3715 0.3915 0.1516
v -0.3680 0.3900 0.1600
v -0.3715 0.3885 0.1684
v -0.3800 0.3879 0.1718
v -0.3885 0.3885 0.1684
v -0.3800 0.5600 0.1900
v -0.3920 0.5600 0.1900
v -0.3885 0.5615 0.1816
v -0.3800 0.5621 0.1782
v -0.3715 0.5615 0.1816
v -0.3680 0.5600 0.1900
v -0.3715 0.5585 0.1984
v -0.3800 0.5579 0.2018
v -0.3885 0.5585 0.1984
vt 0.0000 0.0000
vt 0.0100 0.0000
vt 0.3900 0.0000
vt 0.4000 0.0000
vt 0.0000 0.0100
vt 0.0100 0.0100
vt 0.3900 0.0100
vt 0.4000 0.0100
vt 0.0000 0.0250
vt 0.0100 0.0250
vt 0.3900 0.0250
vt 0.4000 0.0250
vt 0.0000 0.0350
vt 0.0100 0.0350
vt 0.3900 0.0350
vt 0.4000 0.0350
vt 0.0000 0.0000
vt 0.0100 0.0000
vt 0.3900 0.0000
vt 0.4000 0.0000
vt 0.0000 0.0100
vt 0.0100 0.0100
vt 0.3900 0.0100
vt 0.4000 0.0100
vt 0.0000 0.0250
vt 0.0100 0.0250
vt 0.3900 0.0250
vt 0.4000 0.0250
vt 0.0000 0.0350
vt 0.0100 0.0350
vt 0.3900 0.0350
vt 0.4000 0.0350
vt 0.0000 0.0000
vt 0.0100 0.0000
vt 0.8100 0.0000
vt 0.8200 0.0000
vt 0.0000 0.0100
vt 0.0100 0.0100
vt 0.8100 0.0100
vt 0.8200 0.0100
vt 0.0000 0.3900
vt 0.0100 0.3900
vt 0.8100 0.3900
vt 0.8200 0.3900
vt 0.0000 0.4000
vt 0.0100 0.4000
vt 0.8100 0.4000
vt 0.8200 0.4000
vt 0.0000 0.0000
vt 0.0100 0.0000
vt 0.8100 0.0000
vt 0.8200 0.0000
vt 0.0000 0.0100
vt 0.0100 0.0100
vt 0.8100 0.0100
vt 0.8200 0.0100
vt 0.0000 0.3900
vt 0.0100 0.3900
vt 0.8100 0.3900
vt 0.8200 0.3900
vt 0.0000 0.4000
vt 0.0100 0.4000
vt 0.8100 0.4000
vt 0.8200 0.4000
vt 0.0000 0.0000
vt 0.0100 0.0000
vt 0.8100 0.0000
vt 0.8200 0.0000
vt 0.0000 0.0100
vt 0.0100 0.0100
vt 0.8100 0.0100
vt 0.8200 0.0100
vt 0.0000 0.0250
vt 0.0100 0.0250
vt 0.8100 0.0250
vt 0.8200 0.0250
vt 0.0000 0.0350
vt 0.0100 0.0350
vt 0.8100 0.0350
vt 0.8200 0.0350
vt 0.0000 0.0000
vt 0.0100 0.0000
vt 0.8100 0.0000
vt 0.8200 0.0000
vt 0.0000 0.0100
vt 0.0100 0.0100
vt 0.8100 0.0100
vt 0.8200 0.0100
vt 0.0000 0.0250
vt 0.0100 0.0250
vt 0.8100 0.0250
vt 0.8200 0.0250
vt 0.0000 0.0350
vt 0.0100 0.0350
vt 0.8100 0.0350
vt 0.8200 0.0350
vt 0.0000 0.0000
vt 0.0000 0.0094
vt 0.0000 0.0188
vt 0.0000 0.0283
vt 0.0000 0.0377
vt 0.0000 0.0471
vt 0.0000 0.0565
vt 0.0000 0.0660
vt 0.0000 0.0754
vt 0.0000 0.0848
vt 0.0000 0.0942
vt 0.2791 0.0000
vt 0.2791 0.0094
vt 0.2791 0.0188
vt 0.2791 0.0283
vt 0.2791 0.0377
vt 0.2791 0.0471
vt 0.2791 0.0565
vt 0.2791 0.0660
vt 0.2791 0.0754
vt 0.2791 0.0848
vt 0.2791 0.0942
vt 0.3184 0.0000
vt 0.3184 0.0094
vt 0.3184 0.0188
vt 0.3184 0.0283
vt 0.3184 0.0377
vt 0.3184 0.0471
vt 0.3184 0.0565
vt 0.3184 0.0660
vt 0.3184 0.0754
vt 0.3184 0.0848
vt 0.3184 0.0942
vt 0.3437 0.0000
vt 0.3437 0.0094
vt 0.3437 0.0188
vt 0.3437 0.0283
vt 0.3437 0.0377
vt 0.3437 0.0471
vt 0.3437 0.0565
vt 0.3437 0.0660
vt 0.3437 0.0754
vt 0.3437 0.0848
vt 0.3437 0.0942
vt 0.3621 0.0000
vt 0.3621 0.0094
vt 0.3621 0.0188
vt 0.3621 0.0283
vt 0.3621 0.0377
vt 0.3621 0.0471
vt 0.3621 0.0565
vt 0.3621 0.0660
vt 0.3621 0.0754
vt 0.3621 0.0848
vt 0.3621 0.0942
vt 0.3874 0.0000
vt 0.3874 0.0094
vt 0.3874 0.0188
vt 0.3874 0.0283
vt 0.3874 0.0377
vt 0.3874 0.0471
vt 0.3874 0.0565
vt 0.3874 0.0660
vt 0.3874 0.0754
vt 0.3874 0.0848
vt 0.3874 0.0942
vt 0.4267 0.0000
vt 0.4267 0.0094
vt 0.4267 0.0188
vt 0.4267 0.0283
vt 0.4267 0.0377
vt 0.4267 0.0471
vt 0.4267 0.0565
vt 0.4267 0.0660
vt 0.4267 0.0754
vt 0.4267 0.0848
vt 0.4267 0.0942
vt 0.7292 0.0000
vt 0.7292 0.0094
vt 0.7292 0.0188
vt 0.7292 0.0283
vt 0.7292 0.0377
vt 0.7292 0.0471
vt 0.7292 0.0565
vt 0.7292 0.0660
vt 0.7292 0.0754
vt 0.7292 0.0848
vt 0.7292 0.0942
vt 0.0000 0.0000
vt 0.0150 0.0000
vt 0.0121 0.0088
vt 0.0046 0.0143
vt -0.0046 0.0143
vt -0.0121 0.0088
vt -0.0150 0.0000
vt -0.0121 -0.0088
vt -0.0046 -0.0143
vt 0.0046 -0.0143
vt 0.0121 -0.0088
vt 0.0000 0.0000
vt 0.0150 0.0000
vt 0.0121 0.0088
vt 0.0046 0.0143
vt -0.0046 0.0143
vt -0.0121 0.0088
vt -0.0150 0.0000
vt -0.0121 -0.0088
vt -0.0046 -0.0143
vt 0.0046 -0.0143
vt 0.0121 -0.0088
vt 0.0000 0.0000
vt 0.0040 0.0000
vt 0.0660 0.0000
vt 0.0700 0.0000
vt 0.0000 0.0040
vt 0.0040 0.0040
vt 0.0660 0.0040
vt 0.0700 0.0040
vt 0.0000 0.0080
vt 0.0040 0.0080
vt 0.0660 0.0080
vt 0.0700 0.0080
vt 0.0000 0.0120
vt 0.0040 0.0120
vt 0.0660 0.0120
vt 0.0700 0.0120
vt 0.0000 0.0000
vt 0.0040 0.0000
vt 0.0660 0.0000
vt 0.0700 0.0000
vt 0.0000 0.0040
vt 0.0040 0.0040
vt 0.0660 0.0040
vt 0.0700 0.0040
vt 0.0000 0.0080
vt 0.0040 0.0080
vt 0.0660 0.0080
vt 0.0700 0.0080
vt 0.0000 0.0120
vt 0.0040 0.0120
vt 0.0660 0.0120
vt 0.0700 0.0120
vt 0.0000 0.0000
vt 0.0040 0.0000
vt 0.0460 0.0000
vt 0.0500 0.0000
vt 0.0000 0.0040
vt 0.0040 0.0040
vt 0.0460 0.0040
vt 0.0500 0.0040
vt 0.0000 0.0660
vt 0.0040 0.0660
vt 0.0460 0.0660
vt 0.0500 0.0660
vt 0.0000 0.0700
vt 0.0040 0.0700
vt 0.0460 0.0700
vt 0.0500 0.0700
vt 0.0000 0.0000
vt 0.0040 0.0000
vt 0.0460 0.0000
vt 0.0500 0.0000
vt 0.0000 0.0040
vt 0.0040 0.0040
vt 0.0460 0.0040
vt 0.0500 0.0040
vt 0.0000 0.0660
vt 0.0040 0.0660
vt 0.0460 0.0660
vt 0.0500 0.0660
vt 0.0000 0.0700
vt 0.0040 0.0700
vt 0.0460 0.0700
vt 0.0500 0.0700
vt 0.0000 0.0000
vt 0.0040 0.0000
vt 0.0460 0.0000
vt 0.0500 0.0000
vt 0.0000 0.0040
vt 0.0040 0.0040
vt 0.0460 0.0040
vt 0.0500 0.0040
vt 0.0000 0.0080
vt 0.0040 0.0080
vt 0.0460 0.0080
vt 0.0500 0.0080
vt 0.0000 0.0120
vt 0.0040 0.0120
vt 0.0460 0.0120
vt 0.0500 0.0120
vt 0.0000 0.0000
vt 0.0040 0.0000
vt 0.0460 0.0000
vt 0.0500 0.0000
vt 0.0000 0.0040
vt 0.0040 0.0040
vt 0.0460 0.0040
vt 0.0500 0.0040
vt 0.0000 0.0080
vt 0.0040 0.0080
vt 0.0460 0.0080
vt 0.0500 0.0080
vt 0.0000 0.0120
vt 0.0040 0.0120
vt 0.0460 0.0120
vt 0.0500 0.0120
vt 0.0000 0.0000
vt 0.0040 0.0000
vt 0.0660 0.0000
vt 0.0700 0.0000
vt 0.0000 0.0040
vt 0.0040 0.0040
vt 0.0660 0.0040
vt 0.0700 0.0040
vt 0.0000 0.0080
vt 0.0040 0.0080
vt 0.0660 0.0080
vt 0.0700 0.0080
vt 0.0000 0.0120
vt 0.0040 0.0120
vt 0.0660 0.0120
vt 0.0700 0.0120
vt 0.0000 0.0000
vt 0.0040 0.0000
vt 0.0660 0.0000
vt 0.0700 0.0000
vt 0.0000 0.0040
vt 0.0040 0.0040
vt 0.0660 0.0040
vt 0.0700 0.0040
vt 0.0000 0.0080
vt 0.0040 0.0080
vt 0.0660 0.0080
vt 0.0700 0.0080
vt 0.0000 0.0120
vt 0.0040 0.0120
vt 0.0660 0.0120
vt 0.0700 0.0120
vt 0.0000 0.0000
vt 0.0040 0.0000
vt 0.0460 0.0000
vt 0.0500 0.0000
vt 0.0000 0.0040
vt 0.0040 0.0040
vt 0.0460 0.0040
vt 0.0500 0.0040
vt 0.0000 0.0660
vt 0.0040 0.0660
vt 0.0460 0.0660
vt 0.0500 0.0660
vt 0.0000 0.0700
vt 0.0040 0.0700
vt 0.0460 0.0700
vt 0.0500 0.0700
vt 0.0000 0.0000
vt 0.0040 0.0000
vt 0.0460 0.0000
vt 0.0500 0.0000
vt 0.0000 0.0040
vt 0.0040 0.0040
vt 0.0460 0.0040
vt 0.0500 0.0040
vt 0.0000 0.0660
vt 0.0040 0.0660
vt 0.0460 0.0660
vt 0.0500 0.0660
vt 0.0000 0.0700
vt 0.0040 0.0700
vt 0.0460 0.0700
vt 0.0500 0.0700
vt 0.0000 0.0000
vt 0.0040 0.0000
vt 0.0460 0.0000
vt 0.0500 0.0000
vt 0.0000 0.0040
vt 0.0040 0.0040
vt 0.0460 0.0040
vt 0.0500 0.0040
vt 0.0000 0.0080
vt 0.0040 0.0080
vt 0.0460 0.0080
vt 0.0500 0.0080
vt 0.0000 0.0120
vt 0.0040 0.0120
vt 0.0460 0.0120
vt 0.0500 0.0120
vt 0.0000 0.0000
vt 0.0040 0.0000
vt 0.0460 0.0000
vt 0.0500 0.0000
vt 0.0000 0.0040
vt 0.0040 0.0040
vt 0.0460 0.0040
vt 0.0500 0.0040
vt 0.0000 0.0080
vt 0.0040 0.0080
vt 0.0460 0.0080
vt 0.0500 0.0080
vt 0.0000 0.0120
vt 0.0040 0.0120
vt 0.0460 0.0120
vt 0.0500 0.0120
vt 0.0000 0.0000
vt 0.0000 0.0086
vt 0.0000 0.0173
vt 0.0000 0.0259
vt 0.0000 0.0346
vt 0.0000 0.0432
vt 0.0000 0.0518
vt 0.0000 0.0605
vt 0.0000 0.0691
vt 0.7900 0.0000
vt 0.7900 0.0086
vt 0.7900 0.0173
vt 0.7900 0.0259
vt 0.7900 0.0346
vt 0.7900 0.0432
vt 0.7900 0.0518
vt 0.7900 0.0605
vt 0.7900 0.0691
vt 0.0000 0.0000
vt 0.0110 0.0000
vt 0.0078 0.0078
vt 0.0000 0.0110
vt -0.0078 0.0078
vt -0.0110 0.0000
vt -0.0078 -0.0078
vt -0.0000 -0.0110
vt 0.0078 -0.0078
vt 0.0000 0.0000
vt 0.0110 0.0000
vt 0.0078 0.0078
vt 0.0000 0.0110
vt -0.0078 0.0078
vt -0.0110 0.0000
vt -0.0078 -0.0078
vt -0.0000 -0.0110
vt 0.0078 -0.0078
vt 0.0000 0.0000
vt 0.0080 0.0000
vt 0.2920 0.0000
vt 0.3000 0.0000
vt 0.0000 0.0080
vt 0.0080 0.0080
vt 0.2920 0.0080
vt 0.3000 0.0080
vt 0.0000 0.1120
vt 0.0080 0.1120
vt 0.2920 0.1120
vt 0.3000 0.1120
vt 0.0000 0.1200
vt 0.0080 0.1200
vt 0.2920 0.1200
vt 0.3000 0.1200
vt 0.0000 0.0000
vt 0.0080 0.0000
vt 0.2920 0.0000
vt 0.3000 0.0000
vt 0.0000 0.0080
vt 0.0080 0.0080
vt 0.2920 0.0080
vt 0.3000 0.0080
vt 0.0000 0.1120
vt 0.0080 0.1120
vt 0.2920 0.1120
vt 0.3000 0.1120
vt 0.0000 0.1200
vt 0.0080 0.1200
vt 0.2920 0.1200
vt 0.3000 0.1200
vt 0.0000 0.0000
vt 0.0080 0.0000
vt 0.0320 0.0000
vt 0.0400 0.0000
vt 0.0000 0.0080
vt 0.0080 0.0080
vt 0.0320 0.0080
vt 0.0400 0.0080
vt 0.0000 0.2920
vt 0.0080 0.2920
vt 0.0320 0.2920
vt 0.0400 0.2920
vt 0.0000 0.3000
vt 0.0080 0.3000
vt 0.0320 0.3000
vt 0.0400 0.3000
vt 0.0000 0.0000
vt 0.0080 0.0000
vt 0.0320 0.0000
vt 0.0400 0.0000
vt 0.0000 0.0080
vt 0.0080 0.0080
vt 0.0320 0.0080
vt 0.0400 0.0080
vt 0.0000 0.2920
vt 0.0080 0.2920
vt 0.0320 0.2920
vt 0.0400 0.2920
vt 0.0000 0.3000
vt 0.0080 0.3000
vt 0.0320 0.3000
vt 0.0400 0.3000
vt 0.0000 0.0000
vt 0.0080 0.0000
vt 0.0320 0.0000
vt 0.0400 0.0000
vt 0.0000 0.0080
vt 0.0080 0.0080
vt 0.0320 0.0080
vt 0.0400 0.0080
vt 0.0000 0.1120
vt 0.0080 0.1120
vt 0.0320 0.1120
vt 0.0400 0.1120
vt 0.0000 0.1200
vt 0.0080 0.1200
vt 0.0320 0.1200
vt 0.0400 0.1200
vt 0.0000 0.0000
vt 0.0080 0.0000
vt 0.0320 0.0000
vt 0.0400 0.0000
vt 0.0000 0.0080
vt 0.0080 0.0080
vt 0.0320 0.0080
vt 0.0400 0.0080
vt 0.0000 0.1120
vt 0.0080 0.1120
vt 0.0320 0.1120
vt 0.0400 0.1120
vt 0.0000 0.1200
vt 0.0080 0.1200
vt 0.0320 0.1200
vt 0.0400 0.1200
vt 0.0000 0.0000
vt 0.0000 0.0094
vt 0.0000 0.0188
vt 0.0000 0.0283
vt 0.0000 0.0377
vt 0.0000 0.0471
vt 0.0000 0.0565
vt 0.0000 0.0660
vt 0.0000 0.0754
vt 0.1726 0.0000
vt 0.1726 0.0094
vt 0.1726 0.0188
vt 0.1726 0.0283
vt 0.1726 0.0377
vt 0.1726 0.0471
vt 0.1726 0.0565
vt 0.1726 0.0660
vt 0.1726 0.0754
vt 0.0000 0.0000
vt 0.0120 0.0000
vt 0.0085 0.0085
vt 0.0000 0.0120
vt -0.0085 0.0085
vt -0.0120 0.0000
vt -0.0085 -0.0085
vt -0.0000 -0.0120
vt 0.0085 -0.0085
vt 0.0000 0.0000
vt 0.0120 0.0000
vt 0.0085 0.0085
vt 0.0000 0.0120
vt -0.0085 0.0085
vt -0.0120 0.0000
vt -0.0085 -0.0085
vt -0.0000 -0.0120
vt 0.0085 -0.0085
vt 0.0000 0.0000
vt 0.0000 0.0094
vt 0.0000 0.0188
vt 0.0000 0.0283
vt 0.0000 0.0377
vt 0.0000 0.0471
vt 0.0000 0.0565
vt 0.0000 0.0660
vt 0.0000 0.0754
vt 0.1726 0.0000
vt 0.1726 0.0094
vt 0.1726 0.0188
vt 0.1726 0.0283
vt 0.1726 0.0377
vt 0.1726 0.0471
vt 0.1726 0.0565
vt 0.1726 0.0660
vt 0.1726 0.0754
vt 0.0000 0.0000
vt 0.0120 0.0000
vt 0.0085 0.0085
vt 0.0000 0.0120
vt -0.0085 0.0085
vt -0.0120 0.0000
vt -0.0085 -0.0085
vt -0.0000 -0.0120
vt 0.0085 -0.0085
vt 0.0000 0.0000
vt 0.0120 0.0000
vt 0.0085 0.0085
vt 0.0000 0.0120
vt -0.0085 0.0085
vt -0.0120 0.0000
vt -0.0085 -0.0085
vt -0.0000 -0.0120
vt 0.0085 -0.0085
vn -0.577 -0.577 0.577
vn -0.707 -0.707 0.000
vn -0.707 -0.707 0.000
vn -0.577 -0.577 -0.577
vn -0.707 0.000 0.707
vn -1.000 0.000 0.000
vn -1.000 0.000 0.000
vn -0.707 0.000 -0.707
vn -0.707 0.000 0.707
vn -1.000 0.000 0.000
vn -1.000 0.000 0.000
vn -0.707 0.000 -0.707
vn -0.577 0.577 0.577
vn -0.707 0.707 0.000
vn -0.707 0.707 0.000
vn -0.577 0.577 -0.577
vn 0.577 -0.577 -0.577
vn 0.707 -0.707 0.000
vn 0.707 -0.707 0.000
vn 0.577 -0.577 0.577
vn 0.707 0.000 -0.707
vn 1.000 0.000 0.000
vn 1.000 0.000 0.000
vn 0.707 0.000 0.707
vn 0.707 0.000 -0.707
vn 1.000 0.000 0.000
vn 1.000 0.000 0.000
vn 0.707 0.000 0.707
vn 0.577 0.577 -0.577
vn 0.707 0.707 0.000
vn 0.707 0.707 0.000
vn 0.577 0.577 0.577
vn 0.577 0.577 0.577
vn -0.000 0.707 0.707
vn -0.000 0.707 0.707
vn -0.577 0.577 0.577
vn 0.707 0.707 0.000
vn -0.000 1.000 0.000
vn -0.000 1.000 0.000
vn -0.707 0.707 0.000
vn 0.707 0.707 0.000
vn -0.000 1.000 0.000
vn -0.000 1.000 0.000
vn -0.707 0.707 0.000
vn 0.577 0.577 -0.577
vn -0.000 0.707 -0.707
vn -0.000 0.707 -0.707
vn -0.577 0.577 -0.577
vn 0.577 -0.577 -0.577
vn -0.000 -0.707 -0.707
vn -0.000 -0.707 -0.707
vn -0.577 -0.577 -0.577
vn 0.707 -0.707 0.000
vn -0.000 -1.000 0.000
vn -0.000 -1.000 0.000
vn -0.707 -0.707 0.000
vn 0.707 -0.707 0.000
vn -0.000 -1.000 0.000
vn -0.000 -1.000 0.000
vn -0.707 -0.707 0.000
vn 0.577 -0.577 0.577
vn -0.000 -0.707 0.707
vn -0.000 -0.707 0.707
vn -0.577 -0.577 0.577
vn 0.577 -0.577 0.577
vn -0.000 -0.707 0.707
vn -0.000 -0.707 0.707
vn -0.577 -0.577 0.577
vn 0.707 0.000 0.707
vn -0.000 0.000 1.000
vn -0.000 0.000 1.000
vn -0.707 0.000 0.707
vn 0.707 0.000 0.707
vn -0.000 0.000 1.000
vn -0.000 0.000 1.000
vn -0.707 0.000 0.707
vn 0.577 0.577 0.577
vn -0.000 0.707 0.707
vn -0.000 0.707 0.707
vn -0.577 0.577 0.577
vn -0.577 -0.577 -0.577
vn -0.000 -0.707 -0.707
vn -0.000 -0.707 -0.707
vn 0.577 -0.577 -0.577
vn -0.707 0.000 -0.707
vn -0.000 0.000 -1.000
vn -0.000 0.000 -1.000
vn 0.707 0.000 -0.707
vn -0.707 0.000 -0.707
vn -0.000 0.000 -1.000
vn -0.000 0.000 -1.000
vn 0.707 0.000 -0.707
vn -0.577 0.577 -0.577
vn -0.000 0.707 -0.707
vn -0.000 0.707 -0.707
vn 0.577 0.577 -0.577
vn -1.000 0.000 0.000
vn -0.809 0.193 -0.555
vn -0.309 0.312 -0.899
vn 0.309 0.312 -0.899
vn 0.809 0.193 -0.555
vn 1.000 0.000 -0.000
vn 0.809 -0.193 0.555
vn 0.309 -0.312 0.899
vn -0.309 -0.312 0.899
vn -0.809 -0.193 0.555
vn -1.000 -0.000 0.000
vn -1.000 0.000 0.000
vn -0.809 0.198 -0.553
vn -0.309 0.321 -0.895
vn 0.309 0.321 -0.895
vn 0.809 0.198 -0.553
vn 1.000 -0.000 -0.000
vn 0.809 -0.198 0.553
vn 0.309 -0.321 0.895
vn -0.309 -0.321 0.895
vn -0.809 -0.198 0.553
vn -1.000 0.000 0.000
vn -1.000 0.000 -0.000
vn -0.809 0.306 -0.502
vn -0.309 0.495 -0.812
vn 0.309 0.495 -0.812
vn 0.809 0.306 -0.502
vn 1.000 0.000 -0.000
vn 0.809 -0.306 0.502
vn 0.309 -0.495 0.812
vn -0.309 -0.495 0.812
vn -0.809 -0.306 0.502
vn -1.000 -0.000 0.000
vn -1.000 -0.000 -0.000
vn -0.809 0.514 -0.286
vn -0.309 0.831 -0.463
vn 0.309 0.831 -0.463
vn 0.809 0.514 -0.286
vn 1.000 0.000 0.000
vn 0.809 -0.514 0.286
vn 0.309 -0.831 0.463
vn -0.309 -0.831 0.463
vn -0.809 -0.514 0.286
vn -1.000 -0.000 -0.000
vn -1.000 -0.000 -0.000
vn -0.809 0.547 0.214
vn -0.309 0.886 0.346
vn 0.309 0.886 0.346
vn 0.809 0.547 0.214
vn 1.000 0.000 0.000
vn 0.809 -0.547 -0.214
vn 0.309 -0.886 -0.346
vn -0.309 -0.886 -0.346
vn -0.809 -0.547 -0.214
vn -1.000 -0.000 -0.000
vn -1.000 -0.000 -0.000
vn -0.809 0.371 0.456
vn -0.309 0.600 0.738
vn 0.309 0.600 0.738
vn 0.809 0.371 0.456
vn 1.000 0.000 0.000
vn 0.809 -0.371 -0.456
vn 0.309 -0.600 -0.738
vn -0.309 -0.600 -0.738
vn -0.809 -0.371 -0.456
vn -1.000 -0.000 -0.000
vn -1.000 -0.000 -0.000
vn -0.809 0.271 0.522
vn -0.309 0.438 0.844
vn 0.309 0.438 0.844
vn 0.809 0.271 0.522
vn 1.000 0.000 0.000
vn 0.809 -0.271 -0.522
vn 0.309 -0.438 -0.844
vn -0.309 -0.438 -0.844
vn -0.809 -0.271 -0.522
vn -1.000 -0.000 -0.000
vn -1.000 -0.000 -0.000
vn -0.809 0.266 0.524
vn -0.309 0.430 0.848
vn 0.309 0.430 0.848
vn 0.809 0.266 0.524
vn 1.000 0.000 0.000
vn 0.809 -0.266 -0.524
vn 0.309 -0.430 -0.848
vn -0.309 -0.430 -0.848
vn -0.809 -0.266 -0.524
vn -1.000 -0.000 -0.000
vn 0.000 -0.945 -0.328
vn 0.000 -0.945 -0.328
vn 0.000 -0.945 -0.328
vn 0.000 -0.945 -0.328
vn 0.000 -0.945 -0.328
vn 0.000 -0.945 -0.328
vn 0.000 -0.945 -0.328
vn 0.000 -0.945 -0.328
vn 0.000 -0.945 -0.328
vn 0.000 -0.945 -0.328
vn 0.000 -0.945 -0.328
vn -0.000 -0.892 0.452
vn -0.000 -0.892 0.452
vn -0.000 -0.892 0.452
vn -0.000 -0.892 0.452
vn -0.000 -0.892 0.452
vn -0.000 -0.892 0.452
vn -0.000 -0.892 0.452
vn -0.000 -0.892 0.452
vn -0.000 -0.892 0.452
vn -0.000 -0.892 0.452
vn -0.000 -0.892 0.452
vn -0.577 -0.577 0.577
vn -0.707 -0.707 0.000
vn -0.707 -0.707 0.000
vn -0.577 -0.577 -0.577
vn -0.707 0.000 0.707
vn -1.000 0.000 0.000
vn -1.000 0.000 0.000
vn -0.707 0.000 -0.707
vn -0.707 0.000 0.707
vn -1.000 0.000 0.000
vn -1.000 0.000 0.000
vn -0.707 0.000 -0.707
vn -0.577 0.577 0.577
vn -0.707 0.707 0.000
vn -0.707 0.707 0.000
vn -0.577 0.577 -0.577
vn 0.577 -0.577 -0.577
vn 0.707 -0.707 0.000
vn 0.707 -0.707 0.000
vn 0.577 -0.577 0.577
vn 0.707 0.000 -0.707
vn 1.000 0.000 0.000
vn 1.000 0.000 0.000
vn 0.707 0.000 0.707
vn 0.707 0.000 -0.707
vn 1.000 0.000 0.000
vn 1.000 0.000 0.000
vn 0.707 0.000 0.707
vn 0.577 0.577 -0.577
vn 0.707 0.707 0.000
vn 0.707 0.707 0.000
vn 0.577 0.577 0.577
vn 0.577 0.577 0.577
vn -0.000 0.707 0.707
vn -0.000 0.707 0.707
vn -0.577 0.577 0.577
vn 0.707 0.707 0.000
vn -0.000 1.000 0.000
vn -0.000 1.000 0.000
vn -0.707 0.707 0.000
vn 0.707 0.707 0.000
vn -0.000 1.000 0.000
vn -0.000 1.000 0.000
vn -0.707 0.707 0.000
vn 0.577 0.577 -0.577
vn -0.000 0.707 -0.707
vn -0.000 0.707 -0.707
vn -0.577 0.577 -0.577
vn 0.577 -0.577 -0.577
vn -0.000 -0.707 -0.707
vn -0.000 -0.707 -0.707
vn -0.577 -0.577 -0.577
vn 0.707 -0.707 0.000
vn -0.000 -1.000 0.000
vn -0.000 -1.000 0.000
vn -0.707 -0.707 0.000
vn 0.707 -0.707 0.000
vn -0.000 -1.000 0.000
vn -0.000 -1.000 0.000
vn -0.707 -0.707 0.000
vn 0.577 -0.577 0.577
vn -0.000 -0.707 0.707
vn -0.000 -0.707 0.707
vn -0.577 -0.577 0.577
vn 0.577 -0.577 0.577
vn -0.000 -0.707 0.707
vn -0.000 -0.707 0.707
vn -0.577 -0.577 0.577
vn 0.707 0.000 0.707
vn -0.000 0.000 1.000
vn -0.000 0.000 1.000
vn -0.707 0.000 0.707
vn 0.707 0.000 0.707
vn -0.000 0.000 1.000
vn -0.000 0.000 1.000
vn -0.707 0.000 0.707
vn 0.577 0.577 0.577
vn -0.000 0.707 0.707
vn -0.000 0.707 0.707
vn -0.577 0.577 0.577
vn -0.577 -0.577 -0.577
vn -0.000 -0.707 -0.707
vn -0.000 -0.707 -0.707
vn 0.577 -0.577 -0.577
vn -0.707 0.000 -0.707
vn -0.000 0.000 -1.000
vn -0.000 0.000 -1.000
vn 0.707 0.000 -0.707
vn -0.707 0.000 -0.707
vn -0.000 0.000 -1.000
vn -0.000 0.000 -1.000
vn 0.707 0.000 -0.707
vn -0.577 0.577 -0.577
vn -0.000 0.707 -0.707
vn -0.000 0.707 -0.707
vn 0.577 0.577 -0.577
vn -0.577 -0.577 0.577
vn -0.707 -0.707 0.000
vn -0.707 -0.707 0.000
vn -0.577 -0.577 -0.577
vn -0.707 0.000 0.707
vn -1.000 0.000 0.000
vn -1.000 0.000 0.000
vn -0.707 0.000 -0.707
vn -0.707 0.000 0.707
vn -1.000 0.000 0.000
vn -1.000 0.000 0.000
vn -0.707 0.000 -0.707
vn -0.577 0.577 0.577
vn -0.707 0.707 0.000
vn -0.707 0.707 0.000
vn -0.577 0.577 -0.577
vn 0.577 -0.577 -0.577
vn 0.707 -0.707 0.000
vn 0.707 -0.707 0.000
vn 0.577 -0.577 0.577
vn 0.707 0.000 -0.707
vn 1.000 0.000 0.000
vn 1.000 0.000 0.000
vn 0.707 0.000 0.707
vn 0.707 0.000 -0.707
vn 1.000 0.000 0.000
vn 1.000 0.000 0.000
vn 0.707 0.000 0.707
vn 0.577 0.577 -0.577
vn 0.707 0.707 0.000
vn 0.707 0.707 0.000
vn 0.577 0.577 0.577
vn 0.577 0.577 0.577
vn -0.000 0.707 0.707
vn -0.000 0.707 0.707
vn -0.577 0.577 0.577
vn 0.707 0.707 0.000
vn -0.000 1.000 0.000
vn -0.000 1.000 0.000
vn -0.707 0.707 0.000
vn 0.707 0.707 0.000
vn -0.000 1.000 0.000
vn -0.000 1.000 0.000
vn -0.707 0.707 0.000
vn 0.577 0.577 -0.577
vn -0.000 0.707 -0.707
vn -0.000 0.707 -0.707
vn -0.577 0.577 -0.577
vn 0.577 -0.577 -0.577
vn -0.000 -0.707 -0.707
vn -0.000 -0.707 -0.707
vn -0.577 -0.577 -0.577
vn 0.707 -0.707 0.000
vn -0.000 -1.000 0.000
vn -0.000 -1.000 0.000
vn -0.707 -0.707 0.000
vn 0.707 -0.707 0.000
vn -0.000 -1.000 0.000
vn -0.000 -1.000 0.000
vn -0.707 -0.707 0.000
vn 0.577 -0.577 0.577
vn -0.000 -0.707 0.707
vn -0.000 -0.707 0.707
vn -0.577 -0.577 0.577
vn 0.577 -0.577 0.577
vn -0.000 -0.707 0.707
vn -0.000 -0.707 0.707
vn -0.577 -0.577 0.577
vn 0.707 0.000 0.707
vn -0.000 0.000 1.000
vn -0.000 0.000 1.000
vn -0.707 0.000 0.707
vn 0.707 0.000 0.707
vn -0.000 0.000 1.000
vn -0.000 0.000 1.000
vn -0.707 0.000 0.707
vn 0.577 0.577 0.577
vn -0.000 0.707 0.707
vn -0.000 0.707 0.707
vn -0.577 0.577 0.577
vn -0.577 -0.577 -0.577
vn -0.000 -0.707 -0.707
vn -0.000 -0.707 -0.707
vn 0.577 -0.577 -0.577
vn -0.707 0.000 -0.707
vn -0.000 0.000 -1.000
vn -0.000 0.000 -1.000
vn 0.707 0.000 -0.707
vn -0.707 0.000 -0.707
vn -0.000 0.000 -1.000
vn -0.000 0.000 -1.000
vn 0.707 0.000 -0.707
vn -0.577 0.577 -0.577
vn -0.000 0.707 -0.707
vn -0.000 0.707 -0.707
vn 0.577 0.577 -0.577
vn -0.000 1.000 0.000
vn -0.000 0.707 0.707
vn -0.000 0.000 1.000
vn -0.000 -0.707 0.707
vn -0.000 -1.000 0.000
vn 0.000 -0.707 -0.707
vn 0.000 -0.000 -1.000
vn -0.000 0.707 -0.707
vn -0.000 1.000 -0.000
vn -0.000 1.000 0.000
vn -0.000 0.707 0.707
vn -0.000 0.000 1.000
vn -0.000 -0.707 0.707
vn -0.000 -1.000 0.000
vn 0.000 -0.707 -0.707
vn 0.000 -0.000 -1.000
vn -0.000 0.707 -0.707
vn -0.000 1.000 -0.000
vn 1.000 -0.000 -0.000
vn 1.000 -0.000 -0.000
vn 1.000 -0.000 -0.000
vn 1.000 -0.000 -0.000
vn 1.000 -0.000 -0.000
vn 1.000 -0.000 -0.000
vn 1.000 -0.000 -0.000
vn 1.000 -0.000 -0.000
vn 1.000 -0.000 -0.000
vn -1.000 0.000 0.000
vn -1.000 0.000 0.000
vn -1.000 0.000 0.000
vn -1.000 0.000 0.000
vn -1.000 0.000 0.000
vn -1.000 0.000 0.000
vn -1.000 0.000 0.000
vn -1.000 0.000 0.000
vn -1.000 0.000 0.000
vn -0.577 -0.577 0.577
vn -0.707 -0.707 0.000
vn -0.707 -0.707 0.000
vn -0.577 -0.577 -0.577
vn -0.707 0.000 0.707
vn -1.000 0.000 0.000
vn -1.000 0.000 0.000
vn -0.707 0.000 -0.707
vn -0.707 0.000 0.707
vn -1.000 0.000 0.000
vn -1.000 0.000 0.000
vn -0.707 0.000 -0.707
vn -0.577 0.577 0.577
vn -0.707 0.707 0.000
vn -0.707 0.707 0.000
vn -0.577 0.577 -0.577
vn 0.577 -0.577 -0.577
vn 0.707 -0.707 0.000
vn 0.707 -0.707 0.000
vn 0.577 -0.577 0.577
vn 0.707 0.000 -0.707
vn 1.000 0.000 0.000
vn 1.000 0.000 0.000
vn 0.707 0.000 0.707
vn 0.707 0.000 -0.707
vn 1.000 0.000 0.000
vn 1.000 0.000 0.000
vn 0.707 0.000 0.707
vn 0.577 0.577 -0.577
vn 0.707 0.707 0.000
vn 0.707 0.707 0.000
vn 0.577 0.577 0.577
vn 0.577 0.577 0.577
vn -0.000 0.707 0.707
vn -0.000 0.707 0.707
vn -0.577 0.577 0.577
vn 0.707 0.707 0.000
vn -0.000 1.000 0.000
vn -0.000 1.000 0.000
vn -0.707 0.707 0.000
vn 0.707 0.707 0.000
vn -0.000 1.000 0.000
vn -0.000 1.000 0.000
vn -0.707 0.707 0.000
vn 0.577 0.577 -0.577
vn -0.000 0.707 -0.707
vn -0.000 0.707 -0.707
vn -0.577 0.577 -0.577
vn 0.577 -0.577 -0.577
vn -0.000 -0.707 -0.707
vn -0.000 -0.707 -0.707
vn -0.577 -0.577 -0.577
vn 0.707 -0.707 0.000
vn -0.000 -1.000 0.000
vn -0.000 -1.000 0.000
vn -0.707 -0.707 0.000
vn 0.707 -0.707 0.000
vn -0.000 -1.000 0.000
vn -0.000 -1.000 0.000
vn -0.707 -0.707 0.000
vn 0.577 -0.577 0.577
vn -0.000 -0.707 0.707
vn -0.000 -0.707 0.707
vn -0.577 -0.577 0.577
vn 0.577 -0.577 0.577
vn -0.000 -0.707 0.707
vn -0.000 -0.707 0.707
vn -0.577 -0.577 0.577
vn 0.707 0.000 0.707
vn -0.000 0.000 1.000
vn -0.000 0.000 1.000
vn -0.707 0.000 0.707
vn 0.707 0.000 0.707
vn -0.000 0.000 1.000
vn -0.000 0.000 1.000
vn -0.707 0.000 0.707
vn 0.577 0.577 0.577
vn -0.000 0.707 0.707
vn -0.000 0.707 0.707
vn -0.577 0.577 0.577
vn -0.577 -0.577 -0.577
vn -0.000 -0.707 -0.707
vn -0.000 -0.707 -0.707
vn 0.577 -0.577 -0.577
vn -0.707 0.000 -0.707
vn -0.000 0.000 -1.000
vn -0.000 0.000 -1.000
vn 0.707 0.000 -0.707
vn -0.707 0.000 -0.707
vn -0.000 0.000 -1.000
vn -0.000 0.000 -1.000
vn 0.707 0.000 -0.707
vn -0.577 0.577 -0.577
vn -0.000 0.707 -0.707
vn -0.000 0.707 -0.707
vn 0.577 0.577 -0.577
vn -1.000 0.000 0.000
vn -0.707 0.123 -0.696
vn -0.000 0.174 -0.985
vn 0.707 0.123 -0.696
vn 1.000 0.000 -0.000
vn 0.707 -0.123 0.696
vn 0.000 -0.174 0.985
vn -0.707 -0.123 0.696
vn -1.000 -0.000 0.000
vn -1.000 0.000 0.000
vn -0.707 0.123 -0.696
vn -0.000 0.174 -0.985
vn 0.707 0.123 -0.696
vn 1.000 0.000 -0.000
vn 0.707 -0.123 0.696
vn 0.000 -0.174 0.985
vn -0.707 -0.123 0.696
vn -1.000 -0.000 0.000
vn 0.000 -0.985 -0.174
vn 0.000 -0.985 -0.174
vn 0.000 -0.985 -0.174
vn 0.000 -0.985 -0.174
vn 0.000 -0.985 -0.174
vn 0.000 -0.985 -0.174
vn 0.000 -0.985 -0.174
vn 0.000 -0.985 -0.174
vn 0.000 -0.985 -0.174
vn -0.000 0.985 0.174
vn -0.000 0.985 0.174
vn -0.000 0.985 0.174
vn -0.000 0.985 0.174
vn -0.000 0.985 0.174
vn -0.000 0.985 0.174
vn -0.000 0.985 0.174
vn -0.000 0.985 0.174
vn -0.000 0.985 0.174
vn -1.000 0.000 0.000
vn -0.707 0.123 -0.696
vn -0.000 0.174 -0.985
vn 0.707 0.123 -0.696
vn 1.000 0.000 -0.000
vn 0.707 -0.123 0.696
vn 0.000 -0.174 0.985
vn -0.707 -0.123 0.696
vn -1.000 -0.000 0.000
vn -1.000 0.000 0.000
vn -0.707 0.123 -0.696
vn -0.000 0.174 -0.985
vn 0.707 0.123 -0.696
vn 1.000 0.000 -0.000
vn 0.707 -0.123 0.696
vn 0.000 -0.174 0.985
vn -0.707 -0.123 0.696
vn -1.000 -0.000 0.000
vn 0.000 -0.985 -0.174
vn 0.000 -0.985 -0.174
vn 0.000 -0.985 -0.174
vn 0.000 -0.985 -0.174
vn 0.000 -0.985 -0.174
vn 0.000 -0.985 -0.174
vn 0.000 -0.985 -0.174
vn 0.000 -0.985 -0.174
vn 0.000 -0.985 -0.174
vn -0.000 0.985 0.174
vn -0.000 0.985 0.174
vn -0.000 0.985 0.174
vn -0.000 0.985 0.174
vn -0.000 0.985 0.174
vn -0.000 0.985 0.174
vn -0.000 0.985 0.174
vn -0.000 0.985 0.174
vn -0.000 0.985 0.174
usemtl frame
f 1/1/1 6/6/6 2/2/2
f 1/1/1 5/5/5 6/6/6
f 2/2/2 7/7/7 3/3/3
f 2/2/2 6/6/6 7/7/7
f 3/3/3 8/8/8 4/4/4
f 3/3/3 7/7/7 8/8/8
f 5/5/5 10/10/10 6/6/6
f 5/5/5 9/9/9 10/10/10
f 6/6/6 11/11/11 7/7/7
f 6/6/6 10/10/10 11/11/11
f 7/7/7 12/12/12 8/8/8
f 7/7/7 11/11/11 12/12/12
f 9/9/9 14/14/14 10/10/10
f 9/9/9 13/13/13 14/14/14
f 10/10/10 15/15/15 11/11/11
f 10/10/10 14/14/14 15/15/15
f 11/11/11 16/16/16 12/12/12
f 11/11/11 15/15/15 16/16/16
f 17/17/17 22/22/22 18/18/18
f 17/17/17 21/21/21 22/22/22
f 18/18/18 23/23/23 19/19/19
f 18/18/18 22/22/22 23/23/23
f 19/19/19 24/24/24 20/20/20
f 19/19/19 23/23/23 24/24/24
f 21/21/21 26/26/26 22/22/22
f 21/21/21 25/25/25 26/26/26
f 22/22/22 27/27/27 23/23/23
f 22/22/22 26/26/26 27/27/27
f 23/23/23 28/28/28 24/24/24
f 23/23/23 27/27/27 28/28/28
f 25/25/25 30/30/30 26/26/26
f 25/25/25 29/29/29 30/30/30
f 26/26/26 31/31/31 27/27/27
f 26/26/26 30/30/30 31/31/31
f 27/27/27 32/32/32 28/28/28
f 27/27/27 31/31/31 32/32/32
f 33/33/33 38/38/38 34/34/34
f 33/33/33 37/37/37 38/38/38
f 34/34/34 39/39/39 35/35/35
f 34/34/34 38/38/38 39/39/39
f 35/35/35 40/40/40 36/36/36
f 35/35/35 39/39/39 40/40/40
f 37/37/37 42/42/42 38/38/38
f 37/37/37 41/41/41 42/42/42
f 38/38/38 43/43/43 39/39/39
f 38/38/38 42/42/42 43/43/43
f 39/39/39 44/44/44 40/40/40
f 39/39/39 43/43/43 44/44/44
f 41/41/41 46/46/46 42/42/42
f 41/41/41 45/45/45 46/46/46
f 42/42/42 47/47/47 43/43/43
f 42/42/42 46/46/46 47/47/47
f 43/43/43 48/48/48 44/44/44
f 43/43/43 47/47/47 48/48/48
f 49/49/49 54/54/54 50/50/50
f 49/49/49 53/53/53 54/54/54
f 50/50/50 55/55/55 51/51/51
f 50/50/50 54/54/54 55/55/55
f 51/51/51 56/56/56 52/52/52
f 51/51/51 55/55/55 56/56/56
f 53/53/53 58/58/58 54/54/54
f 53/53/53 57/57/57 58/58/58
f 54/54/54 59/59/59 55/55/55
f 54/54/54 58/58/58 59/59/59
f 55/55/55 60/60/60 56/56/56
f 55/55/55 59/59/59 60/60/60
f 57/57/57 62/62/62 58/58/58
f 57/57/57 61/61/61 62/62/62
f 58/58/58 63/63/63 59/59/59
f 58/58/58 62/62/62 63/63/63
f 59/59/59 64/64/64 60/60/60
f 59/59/59 63/63/63 64/64/64
f 65/65/65 70/70/70 66/66/66
f 65/65/65 69/69/69 70/70/70
f 66/66/66 71/71/71 67/67/67
f 66/66/66 70/70/70 71/71/71
f 67/67/67 72/72/72 68/68/68
f 67/67/67 71/71/71 72/72/72
f 69/69/69 74/74/74 70/70/70
f 69/69/69 73/73/73 74/74/74
f 70/70/70 75/75/75 71/71/71
f 70/70/70 74/74/74 75/75/75
f 71/71/71 76/76/76 72/72/72
f 71/71/71 75/75/75 76/76/76
f 73/73/73 78/78/78 74/74/74
f 73/73/73 77/77/77 78/78/78
f 74/74/74 79/79/79 75/75/75
f 74/74/74 78/78/78 79/79/79
f 75/75/75 80/80/80 76/76/76
f 75/75/75 79/79/79 80/80/80
f 81/81/81 86/86/86 82/82/82
f 81/81/81 85/85/85 86/86/86
f 82/82/82 87/87/87 83/83/83
f 82/82/82 86/86/86 87/87/87
f 83/83/83 88/88/88 84/84/84
f 83/83/83 87/87/87 88/88/88
f 85/85/85 90/90/90 86/86/86
f 85/85/85 89/89/89 90/90/90
f 86/86/86 91/91/91 87/87/87
f 86/86/86 90/90/90 91/91/91
f 87/87/87 92/92/92 88/88/88
f 87/87/87 91/91/91 92/92/92
f 89/89/89 94/94/94 90/90/90
f 89/89/89 93/93/93 94/94/94
f 90/90/90 95/95/95 91/91/91
f 90/90/90 94/94/94 95/95/95
f 91/91/91 96/96/96 92/92/92
f 91/91/91 95/95/95 96/96/96
f 97/97/97 109/109/109 98/98/98
f 97/97/97 108/108/108 109/109/109
f 98/98/98 110/110/110 99/99/99
f 98/98/98 109/109/109 110/110/110
f 99/99/99 111/111/111 100/100/100
f 99/99/99 110/110/110 111/111/111
f 100/100/100 112/112/112 101/101/101
f 100/100/100 111/111/111 112/112/112
f 101/101/101 113/113/113 102/102/102
f 101/101/101 112/112/112 113/113/113
f 102/102/102 114/114/114 103/103/103
f 102/102/102 113/113/113 114/114/114
f 103/103/103 115/115/115 104/104/104
f 103/103/103 114/114/114 115/115/115
f 104/104/104 116/116/116 105/105/105
f 104/104/104 115/115/115 116/116/116
f 105/105/105 117/117/117 106/106/106
f 105/105/105 116/116/116 117/117/117
f 106/106/106 118/118/118 107/107/107
f 106/106/106 117/117/117 118/118/118
f 108/108/108 120/120/120 109/109/109
f 108/108/108 119/119/119 120/120/120
f 109/109/109 121/121/121 110/110/110
f 109/109/109 120/120/120 121/121/121
f 110/110/110 122/122/122 111/111/111
f 110/110/110 121/121/121 122/122/122
f 111/111/111 123/123/123 112/112/112
f 111/111/111 122/122/122 123/123/123
f 112/112/112 124/124/124 113/113/113
f 112/112/112 123/123/123 124/124/124
f 113/113/113 125/125/125 114/114/114
f 113/113/113 124/124/124 125/125/125
f 114/114/114 126/126/126 115/115/115
f 114/114/114 125/125/125 126/126/126
f 115/115/115 127/127/127 116/116/116
f 115/115/115 126/126/126 127/127/127
f 116/116/116 128/128/128 117/117/117
f 116/116/116 127/127/127 128/128/128
f 117/117/117 129/129/129 118/118/118
f 117/117/117 128/128/128 129/129/129
f 119/119/119 131/131/131 120/120/120
f 119/119/119 130/130/130 131/131/131
f 120/120/120 132/132/132 121/121/121
f 120/120/120 131/131/131 132/132/132
f 121/121/121 133/133/133 122/122/122
f 121/121/121 132/132/132 133/133/133
f 122/122/122 134/134/134 123/123/123
f 122/122/122 133/133/133 134/134/134
f 123/123/123 135/135/135 124/124/124
f 123/123/123 134/134/134 135/135/135
f 124/124/124 136/136/136 125/125/125
f 124/124/124 135/135/135 136/136/136
f 125/125/125 137/137/137 126/126/126
f 125/125/125 136/136/136 137/137/137
f 126/126/126 138/138/138 127/127/127
f 126/126/126 137/137/137 138/138/138
f 127/127/127 139/139/139 128/128/128
f 127/127/127 138/138/138 139/139/139
f 128/128/128 140/140/140 129/129/129
f 128/128/128 139/139/139 140/140/140
f 130/130/130 142/142/142 131/131/131
f 130/130/130 141/141/141 142/142/142
f 131/131/131 143/143/143 132/132/132
f 131/131/131 142/142/142 143/143/143
f 132/132/132 144/144/144 133/133/133
f 132/132/132 143/143/143 144/144/144
f 133/133/133 145/145/145 134/134/134
f 133/133/133 144/144/144 145/145/145
f 134/134/134 146/146/146 135/135/135
f 134/134/134 145/145/145 146/146/146
f 135/135/135 147/147/147 136/136/136
f 135/135/135 146/146/146 147/147/147
f 136/136/136 148/148/148 137/137/137
f 136/136/136 147/147/147 148/148/148
f 137/137/137 149/149/149 138/138/138
f 137/137/137 148/148/148 149/149/149
f 138/138/138 150/150/150 139/139/139
f 138/138/138 149/149/149 150/150/150
f 139/139/139 151/151/151 140/140/140
f 139/139/139 150/150/150 151/151/151
f 141/141/141 153/153/153 142/142/142
f 141/141/141 152/152/152 153/153/153
f 142/142/142 154/154/154 143/143/143
f 142/142/142 153/153/153 154/154/154
f 143/143/143 155/155/155 144/144/144
f 143/143/143 154/154/154 155/155/155
f 144/144/144 156/156/156 145/145/145
f 144/144/144 155/155/155 156/156/156
f 145/145/145 157/157/157 146/146/146
f 145/145/145 156/156/156 157/157/157
f 146/146/146 158/158/158 147/147/147
f 146/146/146 157/157/157 158/158/158
f 147/147/147 159/159/159 148/148/148
f 147/147/147 158/158/158 159/159/159
f 148/148/148 160/160/160 149/149/149
f 148/148/148 159/159/159 160/160/160
f 149/149/149 161/161/161 150/150/150
f 149/149/149 160/160/160 161/161/161
f 150/150/150 162/162/162 151/151/151
f 150/150/150 161/161/161 162/162/162
f 152/152/152 164/164/164 153/153/153
f 152/152/152 163/163/163 164/164/164
f 153/153/153 165/165/165 154/154/154
f 153/153/153 164/164/164 165/165/165
f 154/154/154 166/166/166 155/155/155
f 154/154/154 165/165/165 166/166/166
f 155/155/155 167/167/167 156/156/156
f 155/155/155 166/166/166 167/167/167
f 156/156/156 168/168/168 157/157/157
f 156/156/156 167/167/167 168/168/168
f 157/157/157 169/169/169 158/158/158
f 157/157/157 168/168/168 169/169/169
f 158/158/158 170/170/170 159/159/159
f 158/158/158 169/169/169 170/170/170
f 159/159/159 171/171/171 160/160/160
f 159/159/159 170/170/170 171/171/171
f 160/160/160 172/172/172 161/161/161
f 160/160/160 171/171/171 172/172/172
f 161/161/161 173/173/173 162/162/162
f 161/161/161 172/172/172 173/173/173
f 163/163/163 175/175/175 164/164/164
f 163/163/163 174/174/174 175/175/175
f 164/164/164 176/176/176 165/165/165
f 164/164/164 175/175/175 176/176/176
f 165/165/165 177/177/177 166/166/166
f 165/165/165 176/176/176 177/177/177
f 166/166/166 178/178/178 167/167/167
f 166/166/166 177/177/177 178/178/178
f 167/167/167 179/179/179 168/168/168
f 167/167/167 178/178/178 179/179/179
f 168/168/168 180/180/180 169/169/169
f 168/168/168 179/179/179 180/180/180
f 169/169/169 181/181/181 170/170/170
f 169/169/169 180/180/180 181/181/181
f 170/170/170 182/182/182 171/171/171
f 170/170/170 181/181/181 182/182/182
f 171/171/171 183/183/183 172/172/172
f 171/171/171 182/182/182 183/183/183
f 172/172/172 184/184/184 173/173/173
f 172/172/172 183/183/183 184/184/184
f 185/185/185 186/186/186 187/187/187
f 185/185/185 187/187/187 188/188/188
f 185/185/185 188/188/188 189/189/189
f 185/185/185 189/189/189 190/190/190
f 185/185/185 190/190/190 191/191/191
f 185/185/185 191/191/191 192/192/192
f 185/185/185 192/192/192 193/193/193
f 185/185/185 193/193/193 194/194/194
f 185/185/185 194/194/194 195/195/195
f 185/185/185 195/195/195 186/186/186
f 196/196/196 198/198/198 197/197/197
f 196/196/196 199/199/199 198/198/198
f 196/196/196 200/200/200 199/199/199
f 196/196/196 201/201/201 200/200/200
f 196/196/196 202/202/202 201/201/201
f 196/196/196 203/203/203 202/202/202
f 196/196/196 204/204/204 203/203/203
f 196/196/196 205/205/205 204/204/204
f 196/196/196 206/206/206 205/205/205
f 196/196/196 197/197/197 206/206/206
f 207/207/207 212/212/212 208/208/208
f 207/207/207 211/211/211 212/212/212
f 208/208/208 213/213/213 209/209/209
f 208/208/208 212/212/212 213/213/213
f 209/209/209 214/214/214 210/210/210
f 209/209/209 213/213/213 214/214/214
f 211/211/211 216/216/216 212/212/212
f 211/211/211 215/215/215 216/216/216
f 212/212/212 217/217/217 213/213/213
f 212/212/212 216/216/216 217/217/217
f 213/213/213 218/218/218 214/214/214
f 213/213/213 217/217/217 218/218/218
f 215/215/215 220/220/220 216/216/216
f 215/215/215 219/219/219 220/220/220
f 216/216/216 221/221/221 217/217/217
f 216/216/216 220/220/220 221/221/221
f 217/217/217 222/222/222 218/218/218
f 217/217/217 221/221/221 222/222/222
f 223/223/223 228/228/228 224/224/224
f 223/223/223 227/227/227 228/228/228
f 224/224/224 229/229/229 225/225/225
f 224/224/224 228/228/228 229/229/229
f 225/225/225 230/230/230 226/226/226
f 225/225/225 229/229/229 230/230/230
f 227/227/227 232/232/232 228/228/228
f 227/227/227 231/231/231 232/232/232
f 228/228/228 233/233/233 229/229/229
f 228/228/228 232/232/232 233/233/233
f 229/229/229 234/234/234 230/230/230
f 229/229/229 233/233/233 234/234/234
f 231/231/231 236/236/236 232/232/232
f 231/231/231 235/235/235 236/236/236
f 232/232/232 237/237/237 233/233/233
f 232/232/232 236/236/236 237/237/237
f 233/233/233 238/238/238 234/234/234
f 233/233/233 237/237/237 238/238/238
f 239/239/239 244/244/244 240/240/240
f 239/239/239 243/243/243 244/244/244
f 240/240/240 245/245/245 241/241/241
f 240/240/240 244/244/244 245/245/245
f 241/241/241 246/246/246 242/242/242
f 241/241/241 245/245/245 246/246/246
f 243/243/243 248/248/248 244/244/244
f 243/243/243 247/247/247 248/248/248
f 244/244/244 249/249/249 245/245/245
f 244/244/244 248/248/248 249/249/249
f 245/245/245 250/250/250 246/246/246
f 245/245/245 249/249/249 250/250/250
f 247/247/247 252/252/252 248/248/248
f 247/247/247 251/251/251 252/252/252
f 248/248/248 253/253/253 249/249/249
f 248/248/248 252/252/252 253/253/253
f 249/249/249 254/254/254 250/250/250
f 249/249/249 253/253/253 254/254/254
f 255/255/255 260/260/260 256/256/256
f 255/255/255 259/259/259 260/260/260
f 256/256/256 261/261/261 257/257/257
f 256/256/256 260/260/260 261/261/261
f 257/257/257 262/262/262 258/258/258
f 257/257/257 261/261/261 262/262/262
f 259/259/259 264/264/264 260/260/260
f 259/259/259 263/263/263 264/264/264
f 260/260/260 265/265/265 261/261/261
f 260/260/260 264/264/264 265/265/265
f 261/261/261 266/266/266 262/262/262
f 261/261/261 265/265/265 266/266/266
f 263/263/263 268/268/268 264/264/264
f 263/263/263 267/267/267 268/268/268
f 264/264/264 269/269/269 265/265/265
f 264/264/264 268/268/268 269/269/269
f 265/265/265 270/270/270 266/266/266
f 265/265/265 269/269/269 270/270/270
f 271/271/271 276/276/276 272/272/272
f 271/271/271 275/275/275 276/276/276
f 272/272/272 277/277/277 273/273/273
f 272/272/272 276/276/276 277/277/277
f 273/273/273 278/278/278 274/274/274
f 273/273/273 277/277/277 278/278/278
f 275/275/275 280/280/280 276/276/276
f 275/275/275 279/279/279 280/280/280
f 276/276/276 281/281/281 277/277/277
f 276/276/276 280/280/280 281/281/281
f 277/277/277 282/282/282 278/278/278
f 277/277/277 281/281/281 282/282/282
f 279/279/279 284/284/284 280/280/280
f 279/279/279 283/283/283 284/284/284
f 280/280/280 285/285/285 281/281/281
f 280/280/280 284/284/284 285/285/285
f 281/281/281 286/286/286 282/282/282
f 281/281/281 285/285/285 286/286/286
f 287/287/287 292/292/292 288/288/288
f 287/287/287 291/291/291 292/292/292
f 288/288/288 293/293/293 289/289/289
f 288/288/288 292/292/292 293/293/293
f 289/289/289 294/294/294 290/290/290
f 289/289/289 293/293/293 294/294/294
f 291/291/291 296/296/296 292/292/292
f 291/291/291 295/295/295 296/296/296
f 292/292/292 297/297/297 293/293/293
f 292/292/292 296/296/296 297/297/297
f 293/293/293 298/298/298 294/294/294
f 293/293/293 297/297/297 298/298/298
f 295/295/295 300/300/300 296/296/296
f 295/295/295 299/299/299 300/300/300
f 296/296/296 301/301/301 297/297/297
f 296/296/296 300/300/300 301/301/301
f 297/297/297 302/302/302 298/298/298
f 297/297/297 301/301/301 302/302/302
f 303/303/303 308/308/308 304/304/304
f 303/303/303 307/307/307 308/308/308
f 304/304/304 309/309/309 305/305/305
f 304/304/304 308/308/308 309/309/309
f 305/305/305 310/310/310 306/306/306
f 305/305/305 309/309/309 310/310/310
f 307/307/307 312/312/312 308/308/308
f 307/307/307 311/311/311 312/312/312
f 308/308/308 313/313/313 309/309/309
f 308/308/308 312/312/312 313/313/313
f 309/309/309 314/314/314 310/310/310
f 309/309/309 313/313/313 314/314/314
f 311/311/311 316/316/316 312/312/312
f 311/311/311 315/315/315 316/316/316
f 312/312/312 317/317/317 313/313/313
f 312/312/312 316/316/316 317/317/317
f 313/313/313 318/318/318 314/314/314
f 313/313/313 317/317/317 318/318/318
f 319/319/319 324/324/324 320/320/320
f 319/319/319 323/323/323 324/324/324
f 320/320/320 325/325/325 321/321/321
f 320/320/320 324/324/324 325/325/325
f 321/321/321 326/326/326 322/322/322
f 321/321/321 325/325/325 326/326/326
f 323/323/323 328/328/328 324/324/324
f 323/323/323 327/327/327 328/328/328
f 324/324/324 329/329/329 325/325/325
f 324/324/324 328/328/328 329/329/329
f 325/325/325 330/330/330 326/326/326
f 325/325/325 329/329/329 330/330/330
f 327/327/327 332/332/332 328/328/328
f 327/327/327 331/331/331 332/332/332
f 328/328/328 333/333/333 329/329/329
f 328/328/328 332/332/332 333/333/333
f 329/329/329 334/334/334 330/330/330
f 329/329/329 333/333/333 334/334/334
f 335/335/335 340/340/340 336/336/336
f 335/335/335 339/339/339 340/340/340
f 336/336/336 341/341/341 337/337/337
f 336/336/336 340/340/340 341/341/341
f 337/337/337 342/342/342 338/338/338
f 337/337/337 341/341/341 342/342/342
f 339/339/339 344/344/344 340/340/340
f 339/339/339 343/343/343 344/344/344
f 340/340/340 345/345/345 341/341/341
f 340/340/340 344/344/344 345/345/345
f 341/341/341 346/346/346 342/342/342
f 341/341/341 345/345/345 346/346/346
f 343/343/343 348/348/348 344/344/344
f 343/343/343 347/347/347 348/348/348
f 344/344/344 349/349/349 345/345/345
f 344/344/344 348/348/348 349/349/349
f 345/345/345 350/350/350 346/346/346
f 345/345/345 349/349/349 350/350/350
f 351/351/351 356/356/356 352/352/352
f 351/351/351 355/355/355 356/356/356
f 352/352/352 357/357/357 353/353/353
f 352/352/352 356/356/356 357/357/357
f 353/353/353 358/358/358 354/354/354
f 353/353/353 357/357/357 358/358/358
f 355/355/355 360/360/360 356/356/356
f 355/355/355 359/359/359 360/360/360
f 356/356/356 361/361/361 357/357/357
f 356/356/356 360/360/360 361/361/361
f 357/357/357 362/362/362 358/358/358
f 357/357/357 361/361/361 362/362/362
f 359/359/359 364/364/364 360/360/360
f 359/359/359 363/363/363 364/364/364
f 360/360/360 365/365/365 361/361/361
f 360/360/360 364/364/364 365/365/365
f 361/361/361 366/366/366 362/362/362
f 361/361/361 365/365/365 366/366/366
f 367/367/367 372/372/372 368/368/368
f 367/367/367 371/371/371 372/372/372
f 368/368/368 373/373/373 369/369/369
f 368/368/368 372/372/372 373/373/373
f 369/369/369 374/374/374 370/370/370
f 369/369/369 373/373/373 374/374/374
f 371/371/371 376/376/376 372/372/372
f 371/371/371 375/375/375 376/376/376
f 372/372/372 377/377/377 373/373/373
f 372/372/372 376/376/376 377/377/377
f 373/373/373 378/378/378 374/374/374
f 373/373/373 377/377/377 378/378/378
f 375/375/375 380/380/380 376/376/376
f 375/375/375 379/379/379 380/380/380
f 376/376/376 381/381/381 377/377/377
f 376/376/376 380/380/380 381/381/381
f 377/377/377 382/382/382 378/378/378
f 377/377/377 381/381/381 382/382/382
f 383/383/383 388/388/388 384/384/384
f 383/383/383 387/387/387 388/388/388
f 384/384/384 389/389/389 385/385/385
f 384/384/384 388/388/388 389/389/389
f 385/385/385 390/390/390 386/386/386
f 385/385/385 389/389/389 390/390/390
f 387/387/387 392/392/392 388/388/388
f 387/387/387 391/391/391 392/392/392
f 388/388/388 393/393/393 389/389/389
f 388/388/388 392/392/392 393/393/393
f 389/389/389 394/394/394 390/390/390
f 389/389/389 393/393/393 394/394/394
f 391/391/391 396/396/396 392/392/392
f 391/391/391 395/395/395 396/396/396
f 392/392/392 397/397/397 393/393/393
f 392/392/392 396/396/396 397/397/397
f 393/393/393 398/398/398 394/394/394
f 393/393/393 397/397/397 398/398/398
f 399/399/399 409/409/409 400/400/400
f 399/399/399 408/408/408 409/409/409
f 400/400/400 410/410/410 401/401/401
f 400/400/400 409/409/409 410/410/410
f 401/401/401 411/411/411 402/402/402
f 401/401/401 410/410/410 411/411/411
f 402/402/402 412/412/412 403/403/403
f 402/402/402 411/411/411 412/412/412
f 403/403/403 413/413/413 404/404/404
f 403/403/403 412/412/412 413/413/413
f 404/404/404 414/414/414 405/405/405
f 404/404/404 413/413/413 414/414/414
f 405/405/405 415/415/415 406/406/406
f 405/405/405 414/414/414 415/415/415
f 406/406/406 416/416/416 407/407/407
f 406/406/406 415/415/415 416/416/416
f 417/417/417 418/418/418 419/419/419
f 417/417/417 419/419/419 420/420/420
f 417/417/417 420/420/420 421/421/421
f 417/417/417 421/421/421 422/422/422
f 417/417/417 422/422/422 423/423/423
f 417/417/417 423/423/423 424/424/424
f 417/417/417 424/424/424 425/425/425
f 417/417/417 425/425/425 418/418/418
f 426/426/426 428/428/428 427/427/427
f 426/426/426 429/429/429 428/428/428
f 426/426/426 430/430/430 429/429/429
f 426/426/426 431/431/431 430/430/430
f 426/426/426 432/432/432 431/431/431
f 426/426/426 433/433/433 432/432/432
f 426/426/426 434/434/434 433/433/433
f 426/426/426 427/427/427 434/434/434
f 435/435/435 440/440/440 436/436/436
f 435/435/435 439/439/439 440/440/440
f 436/436/436 441/441/441 437/437/437
f 436/436/436 440/440/440 441/441/441
f 437/437/437 442/442/442 438/438/438
f 437/437/437 441/441/441 442/442/442
f 439/439/439 444/444/444 440/440/440
f 439/439/439 443/443/443 444/444/444
f 440/440/440 445/445/445 441/441/441
f 440/440/440 444/444/444 445/445/445
f 441/441/441 446/446/446 442/442/442
f 441/441/441 445/445/445 446/446/446
f 443/443/443 448/448/448 444/444/444
f 443/443/443 447/447/447 448/448/448
f 444/444/444 449/449/449 445/445/445
f 444/444/444 448/448/448 449/449/449
f 445/445/445 450/450/450 446/446/446
f 445/445/445 449/449/449 450/450/450
f 451/451/451 456/456/456 452/452/452
f 451/451/451 455/455/455 456/456/456
f 452/452/452 457/457/457 453/453/453
f 452/452/452 456/456/456 457/457/457
f 453/453/453 458/458/458 454/454/454
f 453/453/453 457/457/457 458/458/458
f 455/455/455 460/460/460 456/456/456
f 455/455/455 459/459/459 460/460/460
f 456/456/456 461/461/461 457/457/457
f 456/456/456 460/460/460 461/461/461
f 457/457/457 462/462/462 458/458/458
f 457/457/457 461/461/461 462/462/462
f 459/459/459 464/464/464 460/460/460
f 459/459/459 463/463/463 464/464/464
f 460/460/460 465/465/465 461/461/461
f 460/460/460 464/464/464 465/465/465
f 461/461/461 466/466/466 462/462/462
f 461/461/461 465/465/465 466/466/466
f 467/467/467 472/472/472 468/468/468
f 467/467/467 471/471/471 472/472/472
f 468/468/468 473/473/473 469/469/469
f 468/468/468 472/472/472 473/473/473
f 469/469/469 474/474/474 470/470/470
f 469/469/469 473/473/473 474/474/474
f 471/471/471 476/476/476 472/472/472
f 471/471/471 475/475/475 476/476/476
f 472/472/472 477/477/477 473/473/473
f 472/472/472 476/476/476 477/477/477
f 473/473/473 478/478/478 474/474/474
f 473/473/473 477/477/477 478/478/478
f 475/475/475 480/480/480 476/476/476
f 475/475/475 479/479/479 480/480/480
f 476/476/476 481/481/481 477/477/477
f 476/476/476 480/480/480 481/481/481
f 477/477/477 482/482/482 478/478/478
f 477/477/477 481/481/481 482/482/482
f 483/483/483 488/488/488 484/484/484
f 483/483/483 487/487/487 488/488/488
f 484/484/484 489/489/489 485/485/485
f 484/484/484 488/488/488 489/489/489
f 485/485/485 490/490/490 486/486/486
f 485/485/485 489/489/489 490/490/490
f 487/487/487 492/492/492 488/488/488
f 487/487/487 491/491/491 492/492/492
f 488/488/488 493/493/493 489/489/489
f 488/488/488 492/492/492 493/493/493
f 489/489/489 494/494/494 490/490/490
f 489/489/489 493/493/493 494/494/494
f 491/491/491 496/496/496 492/492/492
f 491/491/491 495/495/495 496/496/496
f 492/492/492 497/497/497 493/493/493
f 492/492/492 496/496/496 497/497/497
f 493/493/493 498/498/498 494/494/494
f 493/493/493 497/497/497 498/498/498
f 499/499/499 504/504/504 500/500/500
f 499/499/499 503/503/503 504/504/504
f 500/500/500 505/505/505 501/501/501
f 500/500/500 504/504/504 505/505/505
f 501/501/501 506/506/506 502/502/502
f 501/501/501 505/505/505 506/506/506
f 503/503/503 508/508/508 504/504/504
f 503/503/503 507/507/507 508/508/508
f 504/504/504 509/509/509 505/505/505
f 504/504/504 508/508/508 509/509/509
f 505/505/505 510/510/510 506/506/506
f 505/505/505 509/509/509 510/510/510
f 507/507/507 512/512/512 508/508/508
f 507/507/507 511/511/511 512/512/512
f 508/508/508 513/513/513 509/509/509
f 508/508/508 512/512/512 513/513/513
f 509/509/509 514/514/514 510/510/510
f 509/509/509 513/513/513 514/514/514
f 515/515/515 520/520/520 516/516/516
f 515/515/515 519/519/519 520/520/520
f 516/516/516 521/521/521 517/517/517
f 516/516/516 520/520/520 521/521/521
f 517/517/517 522/522/522 518/518/518
f 517/517/517 521/521/521 522/522/522
f 519/519/519 524/524/524 520/520/520
f 519/519/519 523/523/523 524/524/524
f 520/520/520 525/525/525 521/521/521
f 520/520/520 524/524/524 525/525/525
f 521/521/521 526/526/526 522/522/522
f 521/521/521 525/525/525 526/526/526
f 523/523/523 528/528/528 524/524/524
f 523/523/523 527/527/527 528/528/528
f 524/524/524 529/529/529 525/525/525
f 524/524/524 528/528/528 529/529/529
f 525/525/525 530/530/530 526/526/526
f 525/525/525 529/529/529 530/530/530
f 531/531/531 541/541/541 532/532/532
f 531/531/531 540/540/540 541/541/541
f 532/532/532 542/542/542 533/533/533
f 532/532/532 541/541/541 542/542/542
f 533/533/533 543/543/543 534/534/534
f 533/533/533 542/542/542 543/543/543
f 534/534/534 544/544/544 535/535/535
f 534/534/534 543/543/543 544/544/544
f 535/535/535 545/545/545 536/536/536
f 535/535/535 544/544/544 545/545/545
f 536/536/536 546/546/546 537/537/537
f 536/536/536 545/545/545 546/546/546
f 537/537/537 547/547/547 538/538/538
f 537/537/537 546/546/546 547/547/547
f 538/538/538 548/548/548 539/539/539
f 538/538/538 547/547/547 548/548/548
f 549/549/549 550/550/550 551/551/551
f 549/549/549 551/551/551 552/552/552
f 549/549/549 552/552/552 553/553/553
f 549/549/549 553/553/553 554/554/554
f 549/549/549 554/554/554 555/555/555
f 549/549/549 555/555/555 556/556/556
f 549/549/549 556/556/556 557/557/557
f 549/549/549 557/557/557 550/550/550
f 558/558/558 560/560/560 559/559/559
f 558/558/558 561/561/561 560/560/560
f 558/558/558 562/562/562 561/561/561
f 558/558/558 563/563/563 562/562/562
f 558/558/558 564/564/564 563/563/563
f 558/558/558 565/565/565 564/564/564
f 558/558/558 566/566/566 565/565/565
f 558/558/558 559/559/559 566/566/566
f 567/567/567 577/577/577 568/568/568
f 567/567/567 576/576/576 577/577/577
f 568/568/568 578/578/578 569/569/569
f 568/568/568 577/577/577 578/578/578
f 569/569/569 579/579/579 570/570/570
f 569/569/569 578/578/578 579/579/579
f 570/570/570 580/580/580 571/571/571
f 570/570/570 579/579/579 580/580/580
f 571/571/571 581/581/581 572/572/572
f 571/571/571 580/580/580 581/581/581
f 572/572/572 582/582/582 573/573/573
f 572/572/572 581/581/581 582/582/582
f 573/573/573 583/583/583 574/574/574
f 573/573/573 582/582/582 583/583/583
f 574/574/574 584/584/584 575/575/575
f 574/574/574 583/583/583 584/584/584
f 585/585/585 586/586/586 587/587/587
f 585/585/585 587/587/587 588/588/588
f 585/585/585 588/588/588 589/589/589
f 585/585/585 589/589/589 590/590/590
f 585/585/585 590/590/590 591/591/591
f 585/585/585 591/591/591 592/592/592
f 585/585/585 592/592/592 593/593/593
f 585/585/585 593/593/593 586/586/586
f 594/594/594 596/596/596 595/595/595
f 594/594/594 597/597/597 596/596/596
f 594/594/594 598/598/598 597/597/597
f 594/594/594 599/599/599 598/598/598
f 594/594/594 600/600/600 599/599/599
f 594/594/594 601/601/601 600/600/600
f 594/594/594 602/602/602 601/601/601
f 594/594/594 595/595/595 602/602/602
