# Sinh tự động bởi tools/mesh_kit.py - đừng sửa tay
o steering_wheel
v 0.2200 0.0170 0.0000
v 0.2100 0.0138 0.0000
v 0.2038 0.0053 0.0000
v 0.2038 -0.0053 0.0000
v 0.2100 -0.0138 0.0000
v 0.2200 -0.0170 0.0000
v 0.2300 -0.0138 -0.0000
v 0.2362 -0.0053 -0.0000
v 0.2362 0.0053 -0.0000
v 0.2300 0.0138 -0.0000
v 0.2200 0.0170 -0.0000
v 0.2173 0.0170 0.0344
v 0.2074 0.0138 0.0329
v 0.2013 0.0053 0.0319
v 0.2013 -0.0053 0.0319
v 0.2074 -0.0138 0.0329
v 0.2173 -0.0170 0.0344
v 0.2272 -0.0138 0.0360
v 0.2333 -0.0053 0.0369
v 0.2333 0.0053 0.0369
v 0.2272 0.0138 0.0360
v 0.2173 0.0170 0.0344
v 0.2092 0.0170 0.0680
v 0.1997 0.0138 0.0649
v 0.1939 0.0053 0.0630
v 0.1939 -0.0053 0.0630
v 0.1997 -0.0138 0.0649
v 0.2092 -0.0170 0.0680
v 0.2187 -0.0138 0.0711
v 0.2246 -0.0053 0.0730
v 0.2246 0.0053 0.0730
v 0.2187 0.0138 0.0711
v 0.2092 0.0170 0.0680
v 0.1960 0.0170 0.0999
v 0.1871 0.0138 0.0953
v 0.1816 0.0053 0.0925
v 0.1816 -0.0053 0.0925
v 0.1871 -0.0138 0.0953
v 0.1960 -0.0170 0.0999
v 0.2049 -0.0138 0.1044
v 0.2104 -0.0053 0.1072
v 0.2104 0.0053 0.1072
v 0.2049 0.0138 0.1044
v 0.1960 0.0170 0.0999
v 0.1780 0.0170 0.1293
v 0.1699 0.0138 0.1234
v 0.1649 0.0053 0.1198
v 0.1649 -0.0053 0.1198
v 0.1699 -0.0138 0.1234
v 0.1780 -0.0170 0.1293
v 0.1861 -0.0138 0.1352
v 0.1911 -0.0053 0.1388
v 0.1911 0.0053 0.1388
v 0.1861 0.0138 0.1352
v 0.1780 0.0170 0.1293
v 0.1556 0.0170 0.1556
v 0.1485 0.0138 0.1485
v 0.1441 0.0053 0.1441
v 0.1441 -0.0053 0.1441
v 0.1485 -0.0138 0.1485
v 0.1556 -0.0170 0.1556
v 0.1626 -0.0138 0.1626
v 0.1670 -0.0053 0.1670
v 0.1670 0.0053 0.1670
v 0.1626 0.0138 0.1626
v 0.1556 0.0170 0.1556
v 0.1293 0.0170 0.1780
v 0.1234 0.0138 0.1699
v 0.1198 0.0053 0.1649
v 0.1198 -0.0053 0.1649
v 0.1234 -0.0138 0.1699
v 0.1293 -0.0170 0.1780
v 0.1352 -0.0138 0.1861
v 0.1388 -0.0053 0.1911
v 0.1388 0.0053 0.1911
v 0.1352 0.0138 0.1861
v 0.1293 0.0170 0.1780
v 0.0999 0.0170 0.1960
v 0.0953 0.0138 0.1871
v 0.0925 0.0053 0.1816
v 0.0925 -0.0053 0.1816
v 0.0953 -0.0138 0.1871
v 0.0999 -0.0170 0.1960
v 0.1044 -0.0138 0.2049
v 0.1072 -0.0053 0.2104
v 0.1072 0.0053 0.2104
v 0.1044 0.0138 0.2049
v 0.0999 0.0170 0.1960
v 0.0680 0.0170 0.2092
v 0.0649 0.0138 0.1997
v 0.0630 0.0053 0.1939
v 0.0630 -0.0053 0.1939
v 0.0649 -0.0138 0.1997
v 0.0680 -0.0170 0.2092
v 0.0711 -0.0138 0.2187
v 0.0730 -0.0053 0.2246
v 0.0730 0.0053 0.2246
v 0.0711 0.0138 0.2187
v 0.0680 0.0170 0.2092
v 0.0344 0.0170 0.2173
v 0.0329 0.0138 0.2074
v 0.0319 0.0053 0.2013
v 0.0319 -0.0053 0.2013
v 0.0329 -0.0138 0.2074
v 0.0344 -0.0170 0.2173
v 0.0360 -0.0138 0.2272
v 0.0369 -0.0053 0.2333
v 0.0369 0.0053 0.2333
v 0.0360 0.0138 0.2272
v 0.0344 0.0170 0.2173
v 0.0000 0.0170 0.2200
v 0.0000 0.0138 0.2100
v 0.0000 0.0053 0.2038
v 0.0000 -0.0053 0.2038
v 0.0000 -0.0138 0.2100
v 0.0000 -0.0170 0.2200
v 0.0000 -0.0138 0.2300
v 0.0000 -0.0053 0.2362
v 0.0000 0.0053 0.2362
v 0.0000 0.0138 0.2300
v 0.0000 0.0170 0.2200
v -0.0344 0.0170 0.2173
v -0.0329 0.0138 0.2074
v -0.0319 0.0053 0.2013
v -0.0319 -0.0053 0.2013
v -0.0329 -0.0138 0.2074
v -0.0344 -0.0170 0.2173
v -0.0360 -0.0138 0.2272
v -0.0369 -0.0053 0.2333
v -0.0369 0.0053 0.2333
v -0.0360 0.0138 0.2272
v -0.0344 0.0170 0.2173
v -0.0680 0.0170 0.2092
v -0.0649 0.0138 0.1997
v -0.0630 0.0053 0.1939
v -0.0630 -0.0053 0.1939
v -0.0649 -0.0138 0.1997
v -0.0680 -0.0170 0.2092
v -0.0711 -0.0138 0.2187
v -0.0730 -0.0053 0.2246
v -0.0730 0.0053 0.2246
v -0.0711 0.0138 0.2187
v -0.0680 0.0170 0.2092
v -0.0999 0.0170 0.1960
v -0.0953 0.0138 0.1871
v -0.0925 0.0053 0.1816
v -0.0925 -0.0053 0.1816
v -0.0953 -0.0138 0.1871
v -0.0999 -0.0170 0.1960
v -0.1044 -0.0138 0.2049
v -0.1072 -0.0053 0.2104
v -0.1072 0.0053 0.2104
v -0.1044 0.0138 0.2049
v -0.0999 0.0170 0.1960
v -0.1293 0.0170 0.1780
v -0.1234 0.0138 0.1699
v -0.1198 0.0053 0.1649
v -0.1198 -0.0053 0.1649
v -0.1234 -0.0138 0.1699
v -0.1293 -0.0170 0.1780
v -0.1352 -0.0138 0.1861
v -0.1388 -0.0053 0.1911
v -0.1388 0.0053 0.1911
v -0.1352 0.0138 0.1861
v -0.1293 0.0170 0.1780
v -0.1556 0.0170 0.1556
v -0.1485 0.0138 0.1485
v -0.1441 0.0053 0.1441
v -0.1441 -0.0053 0.1441
v -0.1485 -0.0138 0.1485
v -0.1556 -0.0170 0.1556
v -0.1626 -0.0138 0.1626
v -0.1670 -0.0053 0.1670
v -0.1670 0.0053 0.1670
v -0.1626 0.0138 0.1626
v -0.1556 0.0170 0.1556
v -0.1780 0.0170 0.1293
v -0.1699 0.0138 0.1234
v -0.1649 0.0053 0.1198
v -0.1649 -0.0053 0.1198
v -0.1699 -0.0138 0.1234
v -0.1780 -0.0170 0.1293
v -0.1861 -0.0138 0.1352
v -0.1911 -0.0053 0.1388
v -0.1911 0.0053 0.1388
v -0.1861 0.0138 0.1352
v -0.1780 0.0170 0.1293
v -0.1960 0.0170 0.0999
v -0.1871 0.0138 0.0953
v -0.1816 0.0053 0.0925
v -0.1816 -0.0053 0.0925
v -0.1871 -0.0138 0.0953
v -0.1960 -0.0170 0.0999
v -0.2049 -0.0138 0.1044
v -0.2104 -0.0053 0.1072
v -0.2104 0.0053 0.1072
v -0.2049 0.0138 0.1044
v -0.1960 0.0170 0.0999
v -0.2092 0.0170 0.0680
v -0.1997 0.0138 0.0649
v -0.1939 0.0053 0.0630
v -0.1939 -0.0053 0.0630
v -0.1997 -0.0138 0.0649
v -0.2092 -0.0170 0.0680
v -0.2187 -0.0138 0.0711
v -0.2246 -0.0053 0.0730
v -0.2246 0.0053 0.0730
v -0.2187 0.0138 0.0711
v -0.2092 0.0170 0.0680
v -0.2173 0.0170 0.0344
v -0.2074 0.0138 0.0329
v -0.2013 0.0053 0.0319
v -0.2013 -0.0053 0.0319
v -0.2074 -0.0138 0.0329
v -0.2173 -0.0170 0.0344
v -0.2272 -0.0138 0.0360
v -0.2333 -0.0053 0.0369
v -0.2333 0.0053 0.0369
v -0.2272 0.0138 0.0360
v -0.2173 0.0170 0.0344
v -0.2200 0.0170 0.0000
v -0.2100 0.0138 0.0000
v -0.2038 0.0053 0.0000
v -0.2038 -0.0053 0.0000
v -0.2100 -0.0138 0.0000
v -0.2200 -0.0170 0.0000
v -0.2300 -0.0138 0.0000
v -0.2362 -0.0053 0.0000
v -0.2362 0.0053 0.0000
v -0.2300 0.0138 0.0000
v -0.2200 0.0170 0.0000
v -0.2173 0.0170 -0.0344
v -0.2074 0.0138 -0.0329
v -0.2013 0.0053 -0.0319
v -0.2013 -0.0053 -0.0319
v -0.2074 -0.0138 -0.0329
v -0.2173 -0.0170 -0.0344
v -0.2272 -0.0138 -0.0360
v -0.2333 -0.0053 -0.0369
v -0.2333 0.0053 -0.0369
v -0.2272 0.0138 -0.0360
v -0.2173 0.0170 -0.0344
v -0.2092 0.0170 -0.0680
v -0.1997 0.0138 -0.0649
v -0.1939 0.0053 -0.0630
v -0.1939 -0.0053 -0.0630
v -0.1997 -0.0138 -0.0649
v -0.2092 -0.0170 -0.0680
v -0.2187 -0.0138 -0.0711
v -0.2246 -0.0053 -0.0730
v -0.2246 0.0053 -0.0730
v -0.2187 0.0138 -0.0711
v -0.2092 0.0170 -0.0680
v -0.1960 0.0170 -0.0999
v -0.1871 0.0138 -0.0953
v -0.1816 0.0053 -0.0925
v -0.1816 -0.0053 -0.0925
v -0.1871 -0.0138 -0.0953
v -0.1960 -0.0170 -0.0999
v -0.2049 -0.0138 -0.1044
v -0.2104 -0.0053 -0.1072
v -0.2104 0.0053 -0.1072
v -0.2049 0.0138 -0.1044
v -0.1960 0.0170 -0.0999
v -0.1780 0.0170 -0.1293
v -0.1699 0.0138 -0.1234
v -0.1649 0.0053 -0.1198
v -0.1649 -0.0053 -0.1198
v -0.1699 -0.0138 -0.1234
v -0.1780 -0.0170 -0.1293
v -0.1861 -0.0138 -0.1352
v -0.1911 -0.0053 -0.1388
v -0.1911 0.0053 -0.1388
v -0.1861 0.0138 -0.1352
v -0.1780 0.0170 -0.1293
v -0.1556 0.0170 -0.1556
v -0.1485 0.0138 -0.1485
v -0.1441 0.0053 -0.1441
v -0.1441 -0.0053 -0.1441
v -0.1485 -0.0138 -0.1485
v -0.1556 -0.0170 -0.1556
v -0.1626 -0.0138 -0.1626
v -0.1670 -0.0053 -0.1670
v -0.1670 0.0053 -0.1670
v -0.1626 0.0138 -0.1626
v -0.1556 0.0170 -0.1556
v -0.1293 0.0170 -0.1780
v -0.1234 0.0138 -0.1699
v -0.1198 0.0053 -0.1649
v -0.1198 -0.0053 -0.1649
v -0.1234 -0.0138 -0.1699
v -0.1293 -0.0170 -0.1780
v -0.1352 -0.0138 -0.1861
v -0.1388 -0.0053 -0.1911
v -0.1388 0.0053 -0.1911
v -0.1352 0.0138 -0.1861
v -0.1293 0.0170 -0.1780
v -0.0999 0.0170 -0.1960
v -0.0953 0.0138 -0.1871
v -0.0925 0.0053 -0.1816
v -0.0925 -0.0053 -0.1816
v -0.0953 -0.0138 -0.1871
v -0.0999 -0.0170 -0.1960
v -0.1044 -0.0138 -0.2049
v -0.1072 -0.0053 -0.2104
v -0.1072 0.0053 -0.2104
v -0.1044 0.0138 -0.2049
v -0.0999 0.0170 -0.1960
v -0.0680 0.0170 -0.2092
v -0.0649 0.0138 -0.1997
v -0.0630 0.0053 -0.1939
v -0.0630 -0.0053 -0.1939
v -0.0649 -0.0138 -0.1997
v -0.0680 -0.0170 -0.2092
v -0.0711 -0.0138 -0.2187
v -0.0730 -0.0053 -0.2246
v -0.0730 0.0053 -0.2246
v -0.0711 0.0138 -0.2187
v -0.0680 0.0170 -0.2092
v -0.0344 0.0170 -0.2173
v -0.0329 0.0138 -0.2074
v -0.0319 0.0053 -0.2013
v -0.0319 -0.0053 -0.2013
v -0.0329 -0.0138 -0.2074
v -0.0344 -0.0170 -0.2173
v -0.0360 -0.0138 -0.2272
v -0.0369 -0.0053 -0.2333
v -0.0369 0.0053 -0.2333
v -0.0360 0.0138 -0.2272
v -0.0344 0.0170 -0.2173
v -0.0000 0.0170 -0.2200
v -0.0000 0.0138 -0.2100
v -0.0000 0.0053 -0.2038
v -0.0000 -0.0053 -0.2038
v -0.0000 -0.0138 -0.2100
v -0.0000 -0.0170 -0.2200
v -0.0000 -0.0138 -0.2300
v -0.0000 -0.0053 -0.2362
v -0.0000 0.0053 -0.2362
v -0.0000 0.0138 -0.2300
v -0.0000 0.0170 -0.2200
v 0.0344 0.0170 -0.2173
v 0.0329 0.0138 -0.2074
v 0.0319 0.0053 -0.2013
v 0.0319 -0.0053 -0.2013
v 0.0329 -0.0138 -0.2074
v 0.0344 -0.0170 -0.2173
v 0.0360 -0.0138 -0.2272
v 0.0369 -0.0053 -0.2333
v 0.0369 0.0053 -0.2333
v 0.0360 0.0138 -0.2272
v 0.0344 0.0170 -0.2173
v 0.0680 0.0170 -0.2092
v 0.0649 0.0138 -0.1997
v 0.0630 0.0053 -0.1939
v 0.0630 -0.0053 -0.1939
v 0.0649 -0.0138 -0.1997
v 0.0680 -0.0170 -0.2092
v 0.0711 -0.0138 -0.2187
v 0.0730 -0.0053 -0.2246
v 0.0730 0.0053 -0.2246
v 0.0711 0.0138 -0.2187
v 0.0680 0.0170 -0.2092
v 0.0999 0.0170 -0.1960
v 0.0953 0.0138 -0.1871
v 0.0925 0.0053 -0.1816
v 0.0925 -0.0053 -0.1816
v 0.0953 -0.0138 -0.1871
v 0.0999 -0.0170 -0.1960
v 0.1044 -0.0138 -0.2049
v 0.1072 -0.0053 -0.2104
v 0.1072 0.0053 -0.2104
v 0.1044 0.0138 -0.2049
v 0.0999 0.0170 -0.1960
v 0.1293 0.0170 -0.1780
v 0.1234 0.0138 -0.1699
v 0.1198 0.0053 -0.1649
v 0.1198 -0.0053 -0.1649
v 0.1234 -0.0138 -0.1699
v 0.1293 -0.0170 -0.1780
v 0.1352 -0.0138 -0.1861
v 0.1388 -0.0053 -0.1911
v 0.1388 0.0053 -0.1911
v 0.1352 0.0138 -0.1861
v 0.1293 0.0170 -0.1780
v 0.1556 0.0170 -0.1556
v 0.1485 0.0138 -0.1485
v 0.1441 0.0053 -0.1441
v 0.1441 -0.0053 -0.1441
v 0.1485 -0.0138 -0.1485
v 0.1556 -0.0170 -0.1556
v 0.1626 -0.0138 -0.1626
v 0.1670 -0.0053 -0.1670
v 0.1670 0.0053 -0.1670
v 0.1626 0.0138 -0.1626
v 0.1556 0.0170 -0.1556
v 0.1780 0.0170 -0.1293
v 0.1699 0.0138 -0.1234
v 0.1649 0.0053 -0.1198
v 0.1649 -0.0053 -0.1198
v 0.1699 -0.0138 -0.1234
v 0.1780 -0.0170 -0.1293
v 0.1861 -0.0138 -0.1352
v 0.1911 -0.0053 -0.1388
v 0.1911 0.0053 -0.1388
v 0.1861 0.0138 -0.1352
v 0.1780 0.0170 -0.1293
v 0.1960 0.0170 -0.0999
v 0.1871 0.0138 -0.0953
v 0.1816 0.0053 -0.0925
v 0.1816 -0.0053 -0.0925
v 0.1871 -0.0138 -0.0953
v 0.1960 -0.0170 -0.0999
v 0.2049 -0.0138 -0.1044
v 0.2104 -0.0053 -0.1072
v 0.2104 0.0053 -0.1072
v 0.2049 0.0138 -0.1044
v 0.1960 0.0170 -0.0999
v 0.2092 0.0170 -0.0680
v 0.1997 0.0138 -0.0649
v 0.1939 0.0053 -0.0630
v 0.1939 -0.0053 -0.0630
v 0.1997 -0.0138 -0.0649
v 0.2092 -0.0170 -0.0680
v 0.2187 -0.0138 -0.0711
v 0.2246 -0.0053 -0.0730
v 0.2246 0.0053 -0.0730
v 0.2187 0.0138 -0.0711
v 0.2092 0.0170 -0.0680
v 0.2173 0.0170 -0.0344
v 0.2074 0.0138 -0.0329
v 0.2013 0.0053 -0.0319
v 0.2013 -0.0053 -0.0319
v 0.2074 -0.0138 -0.0329
v 0.2173 -0.0170 -0.0344
v 0.2272 -0.0138 -0.0360
v 0.2333 -0.0053 -0.0369
v 0.2333 0.0053 -0.0369
v 0.2272 0.0138 -0.0360
v 0.2173 0.0170 -0.0344
v 0.2200 0.0170 0.0000
v 0.2100 0.0138 0.0000
v 0.2038 0.0053 0.0000
v 0.2038 -0.0053 0.0000
v 0.2100 -0.0138 0.0000
v 0.2200 -0.0170 0.0000
v 0.2300 -0.0138 -0.0000
v 0.2362 -0.0053 -0.0000
v 0.2362 0.0053 -0.0000
v 0.2300 0.0138 -0.0000
v 0.2200 0.0170 -0.0000
vt 0.0000 0.0000
vt 0.0000 0.0107
vt 0.0000 0.0214
vt 0.0000 0.0320
vt 0.0000 0.0427
vt 0.0000 0.0534
vt 0.0000 0.0641
vt 0.0000 0.0748
vt 0.0000 0.0855
vt 0.0000 0.0961
vt 0.0000 0.1068
vt 0.0345 0.0000
vt 0.0345 0.0107
vt 0.0345 0.0214
vt 0.0345 0.0320
vt 0.0345 0.0427
vt 0.0345 0.0534
vt 0.0345 0.0641
vt 0.0345 0.0748
vt 0.0345 0.0855
vt 0.0345 0.0961
vt 0.0345 0.1068
vt 0.0690 0.0000
vt 0.0690 0.0107
vt 0.0690 0.0214
vt 0.0690 0.0320
vt 0.0690 0.0427
vt 0.0690 0.0534
vt 0.0690 0.0641
vt 0.0690 0.0748
vt 0.0690 0.0855
vt 0.0690 0.0961
vt 0.0690 0.1068
vt 0.1036 0.0000
vt 0.1036 0.0107
vt 0.1036 0.0214
vt 0.1036 0.0320
vt 0.1036 0.0427
vt 0.1036 0.0534
vt 0.1036 0.0641
vt 0.1036 0.0748
vt 0.1036 0.0855
vt 0.1036 0.0961
vt 0.1036 0.1068
vt 0.1381 0.0000
vt 0.1381 0.0107
vt 0.1381 0.0214
vt 0.1381 0.0320
vt 0.1381 0.0427
vt 0.1381 0.0534
vt 0.1381 0.0641
vt 0.1381 0.0748
vt 0.1381 0.0855
vt 0.1381 0.0961
vt 0.1381 0.1068
vt 0.1726 0.0000
vt 0.1726 0.0107
vt 0.1726 0.0214
vt 0.1726 0.0320
vt 0.1726 0.0427
vt 0.1726 0.0534
vt 0.1726 0.0641
vt 0.1726 0.0748
vt 0.1726 0.0855
vt 0.1726 0.0961
vt 0.1726 0.1068
vt 0.2071 0.0000
vt 0.2071 0.0107
vt 0.2071 0.0214
vt 0.2071 0.0320
vt 0.2071 0.0427
vt 0.2071 0.0534
vt 0.2071 0.0641
vt 0.2071 0.0748
vt 0.2071 0.0855
vt 0.2071 0.0961
vt 0.2071 0.1068
vt 0.2417 0.0000
vt 0.2417 0.0107
vt 0.2417 0.0214
vt 0.2417 0.0320
vt 0.2417 0.0427
vt 0.2417 0.0534
vt 0.2417 0.0641
vt 0.2417 0.0748
vt 0.2417 0.0855
vt 0.2417 0.0961
vt 0.2417 0.1068
vt 0.2762 0.0000
vt 0.2762 0.0107
vt 0.2762 0.0214
vt 0.2762 0.0320
vt 0.2762 0.0427
vt 0.2762 0.0534
vt 0.2762 0.0641
vt 0.2762 0.0748
vt 0.2762 0.0855
vt 0.2762 0.0961
vt 0.2762 0.1068
vt 0.3107 0.0000
vt 0.3107 0.0107
vt 0.3107 0.0214
vt 0.3107 0.0320
vt 0.3107 0.0427
vt 0.3107 0.0534
vt 0.3107 0.0641
vt 0.3107 0.0748
vt 0.3107 0.0855
vt 0.3107 0.0961
vt 0.3107 0.1068
vt 0.3452 0.0000
vt 0.3452 0.0107
vt 0.3452 0.0214
vt 0.3452 0.0320
vt 0.3452 0.0427
vt 0.3452 0.0534
vt 0.3452 0.0641
vt 0.3452 0.0748
vt 0.3452 0.0855
vt 0.3452 0.0961
vt 0.3452 0.1068
vt 0.3797 0.0000
vt 0.3797 0.0107
vt 0.3797 0.0214
vt 0.3797 0.0320
vt 0.3797 0.0427
vt 0.3797 0.0534
vt 0.3797 0.0641
vt 0.3797 0.0748
vt 0.3797 0.0855
vt 0.3797 0.0961
vt 0.3797 0.1068
vt 0.4143 0.0000
vt 0.4143 0.0107
vt 0.4143 0.0214
vt 0.4143 0.0320
vt 0.4143 0.0427
vt 0.4143 0.0534
vt 0.4143 0.0641
vt 0.4143 0.0748
vt 0.4143 0.0855
vt 0.4143 0.0961
vt 0.4143 0.1068
vt 0.4488 0.0000
vt 0.4488 0.0107
vt 0.4488 0.0214
vt 0.4488 0.0320
vt 0.4488 0.0427
vt 0.4488 0.0534
vt 0.4488 0.0641
vt 0.4488 0.0748
vt 0.4488 0.0855
vt 0.4488 0.0961
vt 0.4488 0.1068
vt 0.4833 0.0000
vt 0.4833 0.0107
vt 0.4833 0.0214
vt 0.4833 0.0320
vt 0.4833 0.0427
vt 0.4833 0.0534
vt 0.4833 0.0641
vt 0.4833 0.0748
vt 0.4833 0.0855
vt 0.4833 0.0961
vt 0.4833 0.1068
vt 0.5178 0.0000
vt 0.5178 0.0107
vt 0.5178 0.0214
vt 0.5178 0.0320
vt 0.5178 0.0427
vt 0.5178 0.0534
vt 0.5178 0.0641
vt 0.5178 0.0748
vt 0.5178 0.0855
vt 0.5178 0.0961
vt 0.5178 0.1068
vt 0.5524 0.0000
vt 0.5524 0.0107
vt 0.5524 0.0214
vt 0.5524 0.0320
vt 0.5524 0.0427
vt 0.5524 0.0534
vt 0.5524 0.0641
vt 0.5524 0.0748
vt 0.5524 0.0855
vt 0.5524 0.0961
vt 0.5524 0.1068
vt 0.5869 0.0000
vt 0.5869 0.0107
vt 0.5869 0.0214
vt 0.5869 0.0320
vt 0.5869 0.0427
vt 0.5869 0.0534
vt 0.5869 0.0641
vt 0.5869 0.0748
vt 0.5869 0.0855
vt 0.5869 0.0961
vt 0.5869 0.1068
vt 0.6214 0.0000
vt 0.6214 0.0107
vt 0.6214 0.0214
vt 0.6214 0.0320
vt 0.6214 0.0427
vt 0.6214 0.0534
vt 0.6214 0.0641
vt 0.6214 0.0748
vt 0.6214 0.0855
vt 0.6214 0.0961
vt 0.6214 0.1068
vt 0.6559 0.0000
vt 0.6559 0.0107
vt 0.6559 0.0214
vt 0.6559 0.0320
vt 0.6559 0.0427
vt 0.6559 0.0534
vt 0.6559 0.0641
vt 0.6559 0.0748
vt 0.6559 0.0855
vt 0.6559 0.0961
vt 0.6559 0.1068
vt 0.6904 0.0000
vt 0.6904 0.0107
vt 0.6904 0.0214
vt 0.6904 0.0320
vt 0.6904 0.0427
vt 0.6904 0.0534
vt 0.6904 0.0641
vt 0.6904 0.0748
vt 0.6904 0.0855
vt 0.6904 0.0961
vt 0.6904 0.1068
vt 0.7250 0.0000
vt 0.7250 0.0107
vt 0.7250 0.0214
vt 0.7250 0.0320
vt 0.7250 0.0427
vt 0.7250 0.0534
vt 0.7250 0.0641
vt 0.7250 0.0748
vt 0.7250 0.0855
vt 0.7250 0.0961
vt 0.7250 0.1068
vt 0.7595 0.0000
vt 0.7595 0.0107
vt 0.7595 0.0214
vt 0.7595 0.0320
vt 0.7595 0.0427
vt 0.7595 0.0534
vt 0.7595 0.0641
vt 0.7595 0.0748
vt 0.7595 0.0855
vt 0.7595 0.0961
vt 0.7595 0.1068
vt 0.7940 0.0000
vt 0.7940 0.0107
vt 0.7940 0.0214
vt 0.7940 0.0320
vt 0.7940 0.0427
vt 0.7940 0.0534
vt 0.7940 0.0641
vt 0.7940 0.0748
vt 0.7940 0.0855
vt 0.7940 0.0961
vt 0.7940 0.1068
vt 0.8285 0.0000
vt 0.8285 0.0107
vt 0.8285 0.0214
vt 0.8285 0.0320
vt 0.8285 0.0427
vt 0.8285 0.0534
vt 0.8285 0.0641
vt 0.8285 0.0748
vt 0.8285 0.0855
vt 0.8285 0.0961
vt 0.8285 0.1068
vt 0.8631 0.0000
vt 0.8631 0.0107
vt 0.8631 0.0214
vt 0.8631 0.0320
vt 0.8631 0.0427
vt 0.8631 0.0534
vt 0.8631 0.0641
vt 0.8631 0.0748
vt 0.8631 0.0855
vt 0.8631 0.0961
vt 0.8631 0.1068
vt 0.8976 0.0000
vt 0.8976 0.0107
vt 0.8976 0.0214
vt 0.8976 0.0320
vt 0.8976 0.0427
vt 0.8976 0.0534
vt 0.8976 0.0641
vt 0.8976 0.0748
vt 0.8976 0.0855
vt 0.8976 0.0961
vt 0.8976 0.1068
vt 0.9321 0.0000
vt 0.9321 0.0107
vt 0.9321 0.0214
vt 0.9321 0.0320
vt 0.9321 0.0427
vt 0.9321 0.0534
vt 0.9321 0.0641
vt 0.9321 0.0748
vt 0.9321 0.0855
vt 0.9321 0.0961
vt 0.9321 0.1068
vt 0.9666 0.0000
vt 0.9666 0.0107
vt 0.9666 0.0214
vt 0.9666 0.0320
vt 0.9666 0.0427
vt 0.9666 0.0534
vt 0.9666 0.0641
vt 0.9666 0.0748
vt 0.9666 0.0855
vt 0.9666 0.0961
vt 0.9666 0.1068
vt 1.0011 0.0000
vt 1.0011 0.0107
vt 1.0011 0.0214
vt 1.0011 0.0320
vt 1.0011 0.0427
vt 1.0011 0.0534
vt 1.0011 0.0641
vt 1.0011 0.0748
vt 1.0011 0.0855
vt 1.0011 0.0961
vt 1.0011 0.1068
vt 1.0357 0.0000
vt 1.0357 0.0107
vt 1.0357 0.0214
vt 1.0357 0.0320
vt 1.0357 0.0427
vt 1.0357 0.0534
vt 1.0357 0.0641
vt 1.0357 0.0748
vt 1.0357 0.0855
vt 1.0357 0.0961
vt 1.0357 0.1068
vt 1.0702 0.0000
vt 1.0702 0.0107
vt 1.0702 0.0214
vt 1.0702 0.0320
vt 1.0702 0.0427
vt 1.0702 0.0534
vt 1.0702 0.0641
vt 1.0702 0.0748
vt 1.0702 0.0855
vt 1.0702 0.0961
vt 1.0702 0.1068
vt 1.1047 0.0000
vt 1.1047 0.0107
vt 1.1047 0.0214
vt 1.1047 0.0320
vt 1.1047 0.0427
vt 1.1047 0.0534
vt 1.1047 0.0641
vt 1.1047 0.0748
vt 1.1047 0.0855
vt 1.1047 0.0961
vt 1.1047 0.1068
vt 1.1392 0.0000
vt 1.1392 0.0107
vt 1.1392 0.0214
vt 1.1392 0.0320
vt 1.1392 0.0427
vt 1.1392 0.0534
vt 1.1392 0.0641
vt 1.1392 0.0748
vt 1.1392 0.0855
vt 1.1392 0.0961
vt 1.1392 0.1068
vt 1.1737 0.0000
vt 1.1737 0.0107
vt 1.1737 0.0214
vt 1.1737 0.0320
vt 1.1737 0.0427
vt 1.1737 0.0534
vt 1.1737 0.0641
vt 1.1737 0.0748
vt 1.1737 0.0855
vt 1.1737 0.0961
vt 1.1737 0.1068
vt 1.2083 0.0000
vt 1.2083 0.0107
vt 1.2083 0.0214
vt 1.2083 0.0320
vt 1.2083 0.0427
vt 1.2083 0.0534
vt 1.2083 0.0641
vt 1.2083 0.0748
vt 1.2083 0.0855
vt 1.2083 0.0961
vt 1.2083 0.1068
vt 1.2428 0.0000
vt 1.2428 0.0107
vt 1.2428 0.0214
vt 1.2428 0.0320
vt 1.2428 0.0427
vt 1.2428 0.0534
vt 1.2428 0.0641
vt 1.2428 0.0748
vt 1.2428 0.0855
vt 1.2428 0.0961
vt 1.2428 0.1068
vt 1.2773 0.0000
vt 1.2773 0.0107
vt 1.2773 0.0214
vt 1.2773 0.0320
vt 1.2773 0.0427
vt 1.2773 0.0534
vt 1.2773 0.0641
vt 1.2773 0.0748
vt 1.2773 0.0855
vt 1.2773 0.0961
vt 1.2773 0.1068
vt 1.3118 0.0000
vt 1.3118 0.0107
vt 1.3118 0.0214
vt 1.3118 0.0320
vt 1.3118 0.0427
vt 1.3118 0.0534
vt 1.3118 0.0641
vt 1.3118 0.0748
vt 1.3118 0.0855
vt 1.3118 0.0961
vt 1.3118 0.1068
vt 1.3464 0.0000
vt 1.3464 0.0107
vt 1.3464 0.0214
vt 1.3464 0.0320
vt 1.3464 0.0427
vt 1.3464 0.0534
vt 1.3464 0.0641
vt 1.3464 0.0748
vt 1.3464 0.0855
vt 1.3464 0.0961
vt 1.3464 0.1068
vt 1.3809 0.0000
vt 1.3809 0.0107
vt 1.3809 0.0214
vt 1.3809 0.0320
vt 1.3809 0.0427
vt 1.3809 0.0534
vt 1.3809 0.0641
vt 1.3809 0.0748
vt 1.3809 0.0855
vt 1.3809 0.0961
vt 1.3809 0.1068
vn 0.000 1.000 0.000
vn -0.588 0.809 0.000
vn -0.951 0.309 0.000
vn -0.951 -0.309 0.000
vn -0.588 -0.809 0.000
vn -0.000 -1.000 0.000
vn 0.588 -0.809 -0.000
vn 0.951 -0.309 -0.000
vn 0.951 0.309 -0.000
vn 0.588 0.809 -0.000
vn 0.000 1.000 -0.000
vn 0.000 1.000 -0.000
vn -0.581 0.809 -0.092
vn -0.939 0.309 -0.149
vn -0.939 -0.309 -0.149
vn -0.581 -0.809 -0.092
vn -0.000 -1.000 -0.000
vn 0.581 -0.809 0.092
vn 0.939 -0.309 0.149
vn 0.939 0.309 0.149
vn 0.581 0.809 0.092
vn 0.000 1.000 0.000
vn 0.000 1.000 -0.000
vn -0.559 0.809 -0.182
vn -0.905 0.309 -0.294
vn -0.905 -0.309 -0.294
vn -0.559 -0.809 -0.182
vn -0.000 -1.000 -0.000
vn 0.559 -0.809 0.182
vn 0.905 -0.309 0.294
vn 0.905 0.309 0.294
vn 0.559 0.809 0.182
vn 0.000 1.000 0.000
vn 0.000 1.000 -0.000
vn -0.524 0.809 -0.267
vn -0.847 0.309 -0.432
vn -0.847 -0.309 -0.432
vn -0.524 -0.809 -0.267
vn -0.000 -1.000 -0.000
vn 0.524 -0.809 0.267
vn 0.847 -0.309 0.432
vn 0.847 0.309 0.432
vn 0.524 0.809 0.267
vn 0.000 1.000 0.000
vn 0.000 1.000 -0.000
vn -0.476 0.809 -0.345
vn -0.769 0.309 -0.559
vn -0.769 -0.309 -0.559
vn -0.476 -0.809 -0.345
vn -0.000 -1.000 -0.000
vn 0.476 -0.809 0.345
vn 0.769 -0.309 0.559
vn 0.769 0.309 0.559
vn 0.476 0.809 0.345
vn 0.000 1.000 0.000
vn 0.000 1.000 -0.000
vn -0.416 0.809 -0.416
vn -0.672 0.309 -0.672
vn -0.672 -0.309 -0.672
vn -0.416 -0.809 -0.416
vn -0.000 -1.000 -0.000
vn 0.416 -0.809 0.416
vn 0.672 -0.309 0.672
vn 0.672 0.309 0.672
vn 0.416 0.809 0.416
vn 0.000 1.000 0.000
vn 0.000 1.000 -0.000
vn -0.345 0.809 -0.476
vn -0.559 0.309 -0.769
vn -0.559 -0.309 -0.769
vn -0.345 -0.809 -0.476
vn -0.000 -1.000 -0.000
vn 0.345 -0.809 0.476
vn 0.559 -0.309 0.769
vn 0.559 0.309 0.769
vn 0.345 0.809 0.476
vn 0.000 1.000 0.000
vn 0.000 1.000 -0.000
vn -0.267 0.809 -0.524
vn -0.432 0.309 -0.847
vn -0.432 -0.309 -0.847
vn -0.267 -0.809 -0.524
vn -0.000 -1.000 -0.000
vn 0.267 -0.809 0.524
vn 0.432 -0.309 0.847
vn 0.432 0.309 0.847
vn 0.267 0.809 0.524
vn 0.000 1.000 0.000
vn 0.000 1.000 -0.000
vn -0.182 0.809 -0.559
vn -0.294 0.309 -0.905
vn -0.294 -0.309 -0.905
vn -0.182 -0.809 -0.559
vn -0.000 -1.000 -0.000
vn 0.182 -0.809 0.559
vn 0.294 -0.309 0.905
vn 0.294 0.309 0.905
vn 0.182 0.809 0.559
vn 0.000 1.000 0.000
vn 0.000 1.000 -0.000
vn -0.092 0.809 -0.581
vn -0.149 0.309 -0.939
vn -0.149 -0.309 -0.939
vn -0.092 -0.809 -0.581
vn -0.000 -1.000 -0.000
vn 0.092 -0.809 0.581
vn 0.149 -0.309 0.939
vn 0.149 0.309 0.939
vn 0.092 0.809 0.581
vn 0.000 1.000 0.000
vn 0.000 1.000 -0.000
vn 0.000 0.809 -0.588
vn 0.000 0.309 -0.951
vn -0.000 -0.309 -0.951
vn -0.000 -0.809 -0.588
vn -0.000 -1.000 -0.000
vn 0.000 -0.809 0.588
vn 0.000 -0.309 0.951
vn 0.000 0.309 0.951
vn 0.000 0.809 0.588
vn 0.000 1.000 0.000
vn 0.000 1.000 0.000
vn 0.092 0.809 -0.581
vn 0.149 0.309 -0.939
vn 0.149 -0.309 -0.939
vn 0.092 -0.809 -0.581
vn 0.000 -1.000 -0.000
vn -0.092 -0.809 0.581
vn -0.149 -0.309 0.939
vn -0.149 0.309 0.939
vn -0.092 0.809 0.581
vn -0.000 1.000 0.000
vn 0.000 1.000 0.000
vn 0.182 0.809 -0.559
vn 0.294 0.309 -0.905
vn 0.294 -0.309 -0.905
vn 0.182 -0.809 -0.559
vn 0.000 -1.000 -0.000
vn -0.182 -0.809 0.559
vn -0.294 -0.309 0.905
vn -0.294 0.309 0.905
vn -0.182 0.809 0.559
vn -0.000 1.000 0.000
vn 0.000 1.000 0.000
vn 0.267 0.809 -0.524
vn 0.432 0.309 -0.847
vn 0.432 -0.309 -0.847
vn 0.267 -0.809 -0.524
vn 0.000 -1.000 -0.000
vn -0.267 -0.809 0.524
vn -0.432 -0.309 0.847
vn -0.432 0.309 0.847
vn -0.267 0.809 0.524
vn -0.000 1.000 0.000
vn 0.000 1.000 0.000
vn 0.345 0.809 -0.476
vn 0.559 0.309 -0.769
vn 0.559 -0.309 -0.769
vn 0.345 -0.809 -0.476
vn 0.000 -1.000 -0.000
vn -0.345 -0.809 0.476
vn -0.559 -0.309 0.769
vn -0.559 0.309 0.769
vn -0.345 0.809 0.476
vn -0.000 1.000 0.000
vn 0.000 1.000 0.000
vn 0.416 0.809 -0.416
vn 0.672 0.309 -0.672
vn 0.672 -0.309 -0.672
vn 0.416 -0.809 -0.416
vn 0.000 -1.000 -0.000
vn -0.416 -0.809 0.416
vn -0.672 -0.309 0.672
vn -0.672 0.309 0.672
vn -0.416 0.809 0.416
vn -0.000 1.000 0.000
vn 0.000 1.000 0.000
vn 0.476 0.809 -0.345
vn 0.769 0.309 -0.559
vn 0.769 -0.309 -0.559
vn 0.476 -0.809 -0.345
vn 0.000 -1.000 -0.000
vn -0.476 -0.809 0.345
vn -0.769 -0.309 0.559
vn -0.769 0.309 0.559
vn -0.476 0.809 0.345
vn -0.000 1.000 0.000
vn 0.000 1.000 0.000
vn 0.524 0.809 -0.267
vn 0.847 0.309 -0.432
vn 0.847 -0.309 -0.432
vn 0.524 -0.809 -0.267
vn 0.000 -1.000 -0.000
vn -0.524 -0.809 0.267
vn -0.847 -0.309 0.432
vn -0.847 0.309 0.432
vn -0.524 0.809 0.267
vn -0.000 1.000 0.000
vn 0.000 1.000 0.000
vn 0.559 0.809 -0.182
vn 0.905 0.309 -0.294
vn 0.905 -0.309 -0.294
vn 0.559 -0.809 -0.182
vn 0.000 -1.000 -0.000
vn -0.559 -0.809 0.182
vn -0.905 -0.309 0.294
vn -0.905 0.309 0.294
vn -0.559 0.809 0.182
vn -0.000 1.000 0.000
vn 0.000 1.000 0.000
vn 0.581 0.809 -0.092
vn 0.939 0.309 -0.149
vn 0.939 -0.309 -0.149
vn 0.581 -0.809 -0.092
vn 0.000 -1.000 -0.000
vn -0.581 -0.809 0.092
vn -0.939 -0.309 0.149
vn -0.939 0.309 0.149
vn -0.581 0.809 0.092
vn -0.000 1.000 0.000
vn 0.000 1.000 0.000
vn 0.588 0.809 -0.000
vn 0.951 0.309 -0.000
vn 0.951 -0.309 -0.000
vn 0.588 -0.809 -0.000
vn 0.000 -1.000 -0.000
vn -0.588 -0.809 0.000
vn -0.951 -0.309 0.000
vn -0.951 0.309 0.000
vn -0.588 0.809 0.000
vn -0.000 1.000 0.000
vn 0.000 1.000 0.000
vn 0.581 0.809 0.092
vn 0.939 0.309 0.149
vn 0.939 -0.309 0.149
vn 0.581 -0.809 0.092
vn 0.000 -1.000 0.000
vn -0.581 -0.809 -0.092
vn -0.939 -0.309 -0.149
vn -0.939 0.309 -0.149
vn -0.581 0.809 -0.092
vn -0.000 1.000 -0.000
vn 0.000 1.000 0.000
vn 0.559 0.809 0.182
vn 0.905 0.309 0.294
vn 0.905 -0.309 0.294
vn 0.559 -0.809 0.182
vn 0.000 -1.000 0.000
vn -0.559 -0.809 -0.182
vn -0.905 -0.309 -0.294
vn -0.905 0.309 -0.294
vn -0.559 0.809 -0.182
vn -0.000 1.000 -0.000
vn 0.000 1.000 0.000
vn 0.524 0.809 0.267
vn 0.847 0.309 0.432
vn 0.847 -0.309 0.432
vn 0.524 -0.809 0.267
vn 0.000 -1.000 0.000
vn -0.524 -0.809 -0.267
vn -0.847 -0.309 -0.432
vn -0.847 0.309 -0.432
vn -0.524 0.809 -0.267
vn -0.000 1.000 -0.000
vn 0.000 1.000 0.000
vn 0.476 0.809 0.345
vn 0.769 0.309 0.559
vn 0.769 -0.309 0.559
vn 0.476 -0.809 0.345
vn 0.000 -1.000 0.000
vn -0.476 -0.809 -0.345
vn -0.769 -0.309 -0.559
vn -0.769 0.309 -0.559
vn -0.476 0.809 -0.345
vn -0.000 1.000 -0.000
vn 0.000 1.000 0.000
vn 0.416 0.809 0.416
vn 0.672 0.309 0.672
vn 0.672 -0.309 0.672
vn 0.416 -0.809 0.416
vn 0.000 -1.000 0.000
vn -0.416 -0.809 -0.416
vn -0.672 -0.309 -0.672
vn -0.672 0.309 -0.672
vn -0.416 0.809 -0.416
vn -0.000 1.000 -0.000
vn 0.000 1.000 0.000
vn 0.345 0.809 0.476
vn 0.559 0.309 0.769
vn 0.559 -0.309 0.769
vn 0.345 -0.809 0.476
vn 0.000 -1.000 0.000
vn -0.345 -0.809 -0.476
vn -0.559 -0.309 -0.769
vn -0.559 0.309 -0.769
vn -0.345 0.809 -0.476
vn -0.000 1.000 -0.000
vn 0.000 1.000 0.000
vn 0.267 0.809 0.524
vn 0.432 0.309 0.847
vn 0.432 -0.309 0.847
vn 0.267 -0.809 0.524
vn 0.000 -1.000 0.000
vn -0.267 -0.809 -0.524
vn -0.432 -0.309 -0.847
vn -0.432 0.309 -0.847
vn -0.267 0.809 -0.524
vn -0.000 1.000 -0.000
vn 0.000 1.000 0.000
vn 0.182 0.809 0.559
vn 0.294 0.309 0.905
vn 0.294 -0.309 0.905
vn 0.182 -0.809 0.559
vn 0.000 -1.000 0.000
vn -0.182 -0.809 -0.559
vn -0.294 -0.309 -0.905
vn -0.294 0.309 -0.905
vn -0.182 0.809 -0.559
vn -0.000 1.000 -0.000
vn 0.000 1.000 0.000
vn 0.092 0.809 0.581
vn 0.149 0.309 0.939
vn 0.149 -0.309 0.939
vn 0.092 -0.809 0.581
vn 0.000 -1.000 0.000
vn -0.092 -0.809 -0.581
vn -0.149 -0.309 -0.939
vn -0.149 0.309 -0.939
vn -0.092 0.809 -0.581
vn -0.000 1.000 -0.000
vn 0.000 1.000 0.000
vn 0.000 0.809 0.588
vn 0.000 0.309 0.951
vn 0.000 -0.309 0.951
vn 0.000 -0.809 0.588
vn 0.000 -1.000 0.000
vn -0.000 -0.809 -0.588
vn -0.000 -0.309 -0.951
vn -0.000 0.309 -0.951
vn -0.000 0.809 -0.588
vn -0.000 1.000 -0.000
vn 0.000 1.000 0.000
vn -0.092 0.809 0.581
vn -0.149 0.309 0.939
vn -0.149 -0.309 0.939
vn -0.092 -0.809 0.581
vn -0.000 -1.000 0.000
vn 0.092 -0.809 -0.581
vn 0.149 -0.309 -0.939
vn 0.149 0.309 -0.939
vn 0.092 0.809 -0.581
vn 0.000 1.000 -0.000
vn 0.000 1.000 0.000
vn -0.182 0.809 0.559
vn -0.294 0.309 0.905
vn -0.294 -0.309 0.905
vn -0.182 -0.809 0.559
vn -0.000 -1.000 0.000
vn 0.182 -0.809 -0.559
vn 0.294 -0.309 -0.905
vn 0.294 0.309 -0.905
vn 0.182 0.809 -0.559
vn 0.000 1.000 -0.000
vn 0.000 1.000 0.000
vn -0.267 0.809 0.524
vn -0.432 0.309 0.847
vn -0.432 -0.309 0.847
vn -0.267 -0.809 0.524
vn -0.000 -1.000 0.000
vn 0.267 -0.809 -0.524
vn 0.432 -0.309 -0.847
vn 0.432 0.309 -0.847
vn 0.267 0.809 -0.524
vn 0.000 1.000 -0.000
vn 0.000 1.000 0.000
vn -0.345 0.809 0.476
vn -0.559 0.309 0.769
vn -0.559 -0.309 0.769
vn -0.345 -0.809 0.476
vn -0.000 -1.000 0.000
vn 0.345 -0.809 -0.476
vn 0.559 -0.309 -0.769
vn 0.559 0.309 -0.769
vn 0.345 0.809 -0.476
vn 0.000 1.000 -0.000
vn 0.000 1.000 0.000
vn -0.416 0.809 0.416
vn -0.672 0.309 0.672
vn -0.672 -0.309 0.672
vn -0.416 -0.809 0.416
vn -0.000 -1.000 0.000
vn 0.416 -0.809 -0.416
vn 0.672 -0.309 -0.672
vn 0.672 0.309 -0.672
vn 0.416 0.809 -0.416
vn 0.000 1.000 -0.000
vn 0.000 1.000 0.000
vn -0.476 0.809 0.345
vn -0.769 0.309 0.559
vn -0.769 -0.309 0.559
vn -0.476 -0.809 0.345
vn -0.000 -1.000 0.000
vn 0.476 -0.809 -0.345
vn 0.769 -0.309 -0.559
vn 0.769 0.309 -0.559
vn 0.476 0.809 -0.345
vn 0.000 1.000 -0.000
vn 0.000 1.000 0.000
vn -0.524 0.809 0.267
vn -0.847 0.309 0.432
vn -0.847 -0.309 0.432
vn -0.524 -0.809 0.267
vn -0.000 -1.000 0.000
vn 0.524 -0.809 -0.267
vn 0.847 -0.309 -0.432
vn 0.847 0.309 -0.432
vn 0.524 0.809 -0.267
vn 0.000 1.000 -0.000
vn 0.000 1.000 0.000
vn -0.559 0.809 0.182
vn -0.905 0.309 0.294
vn -0.905 -0.309 0.294
vn -0.559 -0.809 0.182
vn -0.000 -1.000 0.000
vn 0.559 -0.809 -0.182
vn 0.905 -0.309 -0.294
vn 0.905 0.309 -0.294
vn 0.559 0.809 -0.182
vn 0.000 1.000 -0.000
vn 0.000 1.000 0.000
vn -0.581 0.809 0.092
vn -0.939 0.309 0.149
vn -0.939 -0.309 0.149
vn -0.581 -0.809 0.092
vn -0.000 -1.000 0.000
vn 0.581 -0.809 -0.092
vn 0.939 -0.309 -0.149
vn 0.939 0.309 -0.149
vn 0.581 0.809 -0.092
vn 0.000 1.000 -0.000
vn 0.000 1.000 0.000
vn -0.588 0.809 0.000
vn -0.951 0.309 0.000
vn -0.951 -0.309 0.000
vn -0.588 -0.809 0.000
vn -0.000 -1.000 0.000
vn 0.588 -0.809 -0.000
vn 0.951 -0.309 -0.000
vn 0.951 0.309 -0.000
vn 0.588 0.809 -0.000
vn 0.000 1.000 -0.000
v 0.0000 0.0010 0.0394
v -0.0078 -0.0022 0.0395
v -0.0110 -0.0100 0.0400
v -0.0078 -0.0178 0.0405
v 0.0000 -0.0210 0.0406
v 0.0078 -0.0178 0.0405
v 0.0110 -0.0100 0.0400
v 0.0078 -0.0022 0.0395
v 0.0000 0.0010 0.0394
v 0.0000 0.0110 0.2094
v -0.0078 0.0078 0.2095
v -0.0110 0.0000 0.2100
v -0.0078 -0.0078 0.2105
v 0.0000 -0.0110 0.2106
v 0.0078 -0.0078 0.2105
v 0.0110 -0.0000 0.2100
v 0.0078 0.0078 0.2095
v 0.0000 0.0110 0.2094
v 0.0000 -0.0100 0.0400
v 0.0000 0.0010 0.0394
v -0.0078 -0.0022 0.0395
v -0.0110 -0.0100 0.0400
v -0.0078 -0.0178 0.0405
v 0.0000 -0.0210 0.0406
v 0.0078 -0.0178 0.0405
v 0.0110 -0.0100 0.0400
v 0.0078 -0.0022 0.0395
v 0.0000 0.0000 0.2100
v 0.0000 0.0110 0.2094
v -0.0078 0.0078 0.2095
v -0.0110 0.0000 0.2100
v -0.0078 -0.0078 0.2105
v 0.0000 -0.0110 0.2106
v 0.0078 -0.0078 0.2105
v 0.0110 -0.0000 0.2100
v 0.0078 0.0078 0.2095
v -0.0341 0.0010 -0.0197
v -0.0304 -0.0022 -0.0265
v -0.0291 -0.0100 -0.0295
v -0.0311 -0.0178 -0.0270
v -0.0352 -0.0210 -0.0203
v -0.0389 -0.0178 -0.0135
v -0.0401 -0.0100 -0.0105
v -0.0381 -0.0022 -0.0130
v -0.0341 0.0010 -0.0197
v -0.1813 0.0110 -0.1047
v -0.1776 0.0078 -0.1115
v -0.1764 0.0000 -0.1145
v -0.1784 -0.0078 -0.1120
v -0.1824 -0.0110 -0.1053
v -0.1861 -0.0078 -0.0985
v -0.1874 -0.0000 -0.0955
v -0.1854 0.0078 -0.0980
v -0.1813 0.0110 -0.1047
v -0.0346 -0.0100 -0.0200
v -0.0341 0.0010 -0.0197
v -0.0304 -0.0022 -0.0265
v -0.0291 -0.0100 -0.0295
v -0.0311 -0.0178 -0.0270
v -0.0352 -0.0210 -0.0203
v -0.0389 -0.0178 -0.0135
v -0.0401 -0.0100 -0.0105
v -0.0381 -0.0022 -0.0130
v -0.1819 0.0000 -0.1050
v -0.1813 0.0110 -0.1047
v -0.1776 0.0078 -0.1115
v -0.1764 0.0000 -0.1145
v -0.1784 -0.0078 -0.1120
v -0.1824 -0.0110 -0.1053
v -0.1861 -0.0078 -0.0985
v -0.1874 -0.0000 -0.0955
v -0.1854 0.0078 -0.0980
v 0.0341 0.0010 -0.0197
v 0.0381 -0.0022 -0.0130
v 0.0401 -0.0100 -0.0105
v 0.0389 -0.0178 -0.0135
v 0.0352 -0.0210 -0.0203
v 0.0311 -0.0178 -0.0270
v 0.0291 -0.0100 -0.0295
v 0.0304 -0.0022 -0.0265
v 0.0341 0.0010 -0.0197
v 0.1813 0.0110 -0.1047
v 0.1854 0.0078 -0.0980
v 0.1874 0.0000 -0.0955
v 0.1861 -0.0078 -0.0985
v 0.1824 -0.0110 -0.1053
v 0.1784 -0.0078 -0.1120
v 0.1764 -0.0000 -0.1145
v 0.1776 0.0078 -0.1115
v 0.1813 0.0110 -0.1047
v 0.0346 -0.0100 -0.0200
v 0.0341 0.0010 -0.0197
v 0.0381 -0.0022 -0.0130
v 0.0401 -0.0100 -0.0105
v 0.0389 -0.0178 -0.0135
v 0.0352 -0.0210 -0.0203
v 0.0311 -0.0178 -0.0270
v 0.0291 -0.0100 -0.0295
v 0.0304 -0.0022 -0.0265
v 0.1819 0.0000 -0.1050
v 0.1813 0.0110 -0.1047
v 0.1854 0.0078 -0.0980
v 0.1874 0.0000 -0.0955
v 0.1861 -0.0078 -0.0985
v 0.1824 -0.0110 -0.1053
v 0.1784 -0.0078 -0.1120
v 0.1764 -0.0000 -0.1145
v 0.1776 0.0078 -0.1115
v 0.0000 -0.0350 -0.0000
v 0.0500 -0.0300 -0.0000
v 0.0550 -0.0050 -0.0000
v 0.0400 0.0120 -0.0000
v 0.0000 0.0160 -0.0000
v 0.0000 -0.0350 -0.0000
v 0.0470 -0.0300 -0.0171
v 0.0517 -0.0050 -0.0188
v 0.0376 0.0120 -0.0137
v 0.0000 0.0160 -0.0000
v 0.0000 -0.0350 -0.0000
v 0.0383 -0.0300 -0.0321
v 0.0421 -0.0050 -0.0354
v 0.0306 0.0120 -0.0257
v 0.0000 0.0160 -0.0000
v 0.0000 -0.0350 -0.0000
v 0.0250 -0.0300 -0.0433
v 0.0275 -0.0050 -0.0476
v 0.0200 0.0120 -0.0346
v 0.0000 0.0160 -0.0000
v 0.0000 -0.0350 -0.0000
v 0.0087 -0.0300 -0.0492
v 0.0096 -0.0050 -0.0542
v 0.0069 0.0120 -0.0394
v 0.0000 0.0160 -0.0000
v -0.0000 -0.0350 -0.0000
v -0.0087 -0.0300 -0.0492
v -0.0096 -0.0050 -0.0542
v -0.0069 0.0120 -0.0394
v -0.0000 0.0160 -0.0000
v -0.0000 -0.0350 -0.0000
v -0.0250 -0.0300 -0.0433
v -0.0275 -0.0050 -0.0476
v -0.0200 0.0120 -0.0346
v -0.0000 0.0160 -0.0000
v -0.0000 -0.0350 -0.0000
v -0.0383 -0.0300 -0.0321
v -0.0421 -0.0050 -0.0354
v -0.0306 0.0120 -0.0257
v -0.0000 0.0160 -0.0000
v -0.0000 -0.0350 -0.0000
v -0.0470 -0.0300 -0.0171
v -0.0517 -0.0050 -0.0188
v -0.0376 0.0120 -0.0137
v -0.0000 0.0160 -0.0000
v -0.0000 -0.0350 -0.0000
v -0.0500 -0.0300 -0.0000
v -0.0550 -0.0050 -0.0000
v -0.0400 0.0120 -0.0000
v -0.0000 0.0160 -0.0000
v -0.0000 -0.0350 0.0000
v -0.0470 -0.0300 0.0171
v -0.0517 -0.0050 0.0188
v -0.0376 0.0120 0.0137
v -0.0000 0.0160 0.0000
v -0.0000 -0.0350 0.0000
v -0.0383 -0.0300 0.0321
v -0.0421 -0.0050 0.0354
v -0.0306 0.0120 0.0257
v -0.0000 0.0160 0.0000
v -0.0000 -0.0350 0.0000
v -0.0250 -0.0300 0.0433
v -0.0275 -0.0050 0.0476
v -0.0200 0.0120 0.0346
v -0.0000 0.0160 0.0000
v -0.0000 -0.0350 0.0000
v -0.0087 -0.0300 0.0492
v -0.0096 -0.0050 0.0542
v -0.0069 0.0120 0.0394
v -0.0000 0.0160 0.0000
v 0.0000 -0.0350 0.0000
v 0.0087 -0.0300 0.0492
v 0.0096 -0.0050 0.0542
v 0.0069 0.0120 0.0394
v 0.0000 0.0160 0.0000
v 0.0000 -0.0350 0.0000
v 0.0250 -0.0300 0.0433
v 0.0275 -0.0050 0.0476
v 0.0200 0.0120 0.0346
v 0.0000 0.0160 0.0000
v 0.0000 -0.0350 0.0000
v 0.0383 -0.0300 0.0321
v 0.0421 -0.0050 0.0354
v 0.0306 0.0120 0.0257
v 0.0000 0.0160 0.0000
v 0.0000 -0.0350 0.0000
v 0.0470 -0.0300 0.0171
v 0.0517 -0.0050 0.0188
v 0.0376 0.0120 0.0137
v 0.0000 0.0160 0.0000
v 0.0000 -0.0350 0.0000
v 0.0500 -0.0300 0.0000
v 0.0550 -0.0050 0.0000
v 0.0400 0.0120 0.0000
v 0.0000 0.0160 0.0000
vt 0.0000 0.0000
vt 0.0000 0.0086
vt 0.0000 0.0173
vt 0.0000 0.0259
vt 0.0000 0.0346
vt 0.0000 0.0432
vt 0.0000 0.0518
vt 0.0000 0.0605
vt 0.0000 0.0691
vt 0.1703 0.0000
vt 0.1703 0.0086
vt 0.1703 0.0173
vt 0.1703 0.0259
vt 0.1703 0.0346
vt 0.1703 0.0432
vt 0.1703 0.0518
vt 0.1703 0.0605
vt 0.1703 0.0691
vt 0.0000 0.0000
vt 0.0110 0.0000
vt 0.0078 0.0078
vt 0.0000 0.0110
vt -0.0078 0.0078
vt -0.0110 0.0000
vt -0.0078 -0.0078
vt -0.0000 -0.0110
vt 0.0078 -0.0078
vt 0.0000 0.0000
vt 0.0110 0.0000
vt 0.0078 0.0078
vt 0.0000 0.0110
vt -0.0078 0.0078
vt -0.0110 0.0000
vt -0.0078 -0.0078
vt -0.0000 -0.0110
vt 0.0078 -0.0078
vt 0.0000 0.0000
vt 0.0000 0.0086
vt 0.0000 0.0173
vt 0.0000 0.0259
vt 0.0000 0.0346
vt 0.0000 0.0432
vt 0.0000 0.0518
vt 0.0000 0.0605
vt 0.0000 0.0691
vt 0.1703 0.0000
vt 0.1703 0.0086
vt 0.1703 0.0173
vt 0.1703 0.0259
vt 0.1703 0.0346
vt 0.1703 0.0432
vt 0.1703 0.0518
vt 0.1703 0.0605
vt 0.1703 0.0691
vt 0.0000 0.0000
vt 0.0110 0.0000
vt 0.0078 0.0078
vt 0.0000 0.0110
vt -0.0078 0.0078
vt -0.0110 0.0000
vt -0.0078 -0.0078
vt -0.0000 -0.0110
vt 0.0078 -0.0078
vt 0.0000 0.0000
vt 0.0110 0.0000
vt 0.0078 0.0078
vt 0.0000 0.0110
vt -0.0078 0.0078
vt -0.0110 0.0000
vt -0.0078 -0.0078
vt -0.0000 -0.0110
vt 0.0078 -0.0078
vt 0.0000 0.0000
vt 0.0000 0.0086
vt 0.0000 0.0173
vt 0.0000 0.0259
vt 0.0000 0.0346
vt 0.0000 0.0432
vt 0.0000 0.0518
vt 0.0000 0.0605
vt 0.0000 0.0691
vt 0.1703 0.0000
vt 0.1703 0.0086
vt 0.1703 0.0173
vt 0.1703 0.0259
vt 0.1703 0.0346
vt 0.1703 0.0432
vt 0.1703 0.0518
vt 0.1703 0.0605
vt 0.1703 0.0691
vt 0.0000 0.0000
vt 0.0110 0.0000
vt 0.0078 0.0078
vt 0.0000 0.0110
vt -0.0078 0.0078
vt -0.0110 0.0000
vt -0.0078 -0.0078
vt -0.0000 -0.0110
vt 0.0078 -0.0078
vt 0.0000 0.0000
vt 0.0110 0.0000
vt 0.0078 0.0078
vt 0.0000 0.0110
vt -0.0078 0.0078
vt -0.0110 0.0000
vt -0.0078 -0.0078
vt -0.0000 -0.0110
vt 0.0078 -0.0078
vt 0.0000 0.0000
vt 0.0000 0.0502
vt 0.0000 0.0757
vt 0.0000 0.0984
vt 0.0000 0.1386
vt 0.0192 0.0000
vt 0.0192 0.0502
vt 0.0192 0.0757
vt 0.0192 0.0984
vt 0.0192 0.1386
vt 0.0384 0.0000
vt 0.0384 0.0502
vt 0.0384 0.0757
vt 0.0384 0.0984
vt 0.0384 0.1386
vt 0.0576 0.0000
vt 0.0576 0.0502
vt 0.0576 0.0757
vt 0.0576 0.0984
vt 0.0576 0.1386
vt 0.0768 0.0000
vt 0.0768 0.0502
vt 0.0768 0.0757
vt 0.0768 0.0984
vt 0.0768 0.1386
vt 0.0960 0.0000
vt 0.0960 0.0502
vt 0.0960 0.0757
vt 0.0960 0.0984
vt 0.0960 0.1386
vt 0.1152 0.0000
vt 0.1152 0.0502
vt 0.1152 0.0757
vt 0.1152 0.0984
vt 0.1152 0.1386
vt 0.1344 0.0000
vt 0.1344 0.0502
vt 0.1344 0.0757
vt 0.1344 0.0984
vt 0.1344 0.1386
vt 0.1536 0.0000
vt 0.1536 0.0502
vt 0.1536 0.0757
vt 0.1536 0.0984
vt 0.1536 0.1386
vt 0.1728 0.0000
vt 0.1728 0.0502
vt 0.1728 0.0757
vt 0.1728 0.0984
vt 0.1728 0.1386
vt 0.1920 0.0000
vt 0.1920 0.0502
vt 0.1920 0.0757
vt 0.1920 0.0984
vt 0.1920 0.1386
vt 0.2112 0.0000
vt 0.2112 0.0502
vt 0.2112 0.0757
vt 0.2112 0.0984
vt 0.2112 0.1386
vt 0.2304 0.0000
vt 0.2304 0.0502
vt 0.2304 0.0757
vt 0.2304 0.0984
vt 0.2304 0.1386
vt 0.2496 0.0000
vt 0.2496 0.0502
vt 0.2496 0.0757
vt 0.2496 0.0984
vt 0.2496 0.1386
vt 0.2688 0.0000
vt 0.2688 0.0502
vt 0.2688 0.0757
vt 0.2688 0.0984
vt 0.2688 0.1386
vt 0.2880 0.0000
vt 0.2880 0.0502
vt 0.2880 0.0757
vt 0.2880 0.0984
vt 0.2880 0.1386
vt 0.3072 0.0000
vt 0.3072 0.0502
vt 0.3072 0.0757
vt 0.3072 0.0984
vt 0.3072 0.1386
vt 0.3264 0.0000
vt 0.3264 0.0502
vt 0.3264 0.0757
vt 0.3264 0.0984
vt 0.3264 0.1386
vt 0.3456 0.0000
vt 0.3456 0.0502
vt 0.3456 0.0757
vt 0.3456 0.0984
vt 0.3456 0.1386
vn -0.000 0.998 -0.059
vn -0.707 0.706 -0.042
vn -1.000 0.000 0.000
vn -0.707 -0.706 0.042
vn -0.000 -0.998 0.059
vn 0.707 -0.706 0.042
vn 1.000 -0.000 -0.000
vn 0.707 0.706 -0.042
vn 0.000 0.998 -0.059
vn -0.000 0.998 -0.059
vn -0.707 0.706 -0.042
vn -1.000 0.000 0.000
vn -0.707 -0.706 0.042
vn -0.000 -0.998 0.059
vn 0.707 -0.706 0.042
vn 1.000 -0.000 -0.000
vn 0.707 0.706 -0.042
vn 0.000 0.998 -0.059
vn -0.000 -0.059 -0.998
vn -0.000 -0.059 -0.998
vn -0.000 -0.059 -0.998
vn -0.000 -0.059 -0.998
vn -0.000 -0.059 -0.998
vn -0.000 -0.059 -0.998
vn -0.000 -0.059 -0.998
vn -0.000 -0.059 -0.998
vn -0.000 -0.059 -0.998
vn 0.000 0.059 0.998
vn 0.000 0.059 0.998
vn 0.000 0.059 0.998
vn 0.000 0.059 0.998
vn 0.000 0.059 0.998
vn 0.000 0.059 0.998
vn 0.000 0.059 0.998
vn 0.000 0.059 0.998
vn 0.000 0.059 0.998
vn 0.051 0.998 0.029
vn 0.390 0.706 -0.592
vn 0.500 0.000 -0.866
vn 0.318 -0.706 -0.633
vn -0.051 -0.998 -0.029
vn -0.390 -0.706 0.592
vn -0.500 -0.000 0.866
vn -0.318 0.706 0.633
vn 0.051 0.998 0.029
vn 0.051 0.998 0.029
vn 0.390 0.706 -0.592
vn 0.500 0.000 -0.866
vn 0.318 -0.706 -0.633
vn -0.051 -0.998 -0.029
vn -0.390 -0.706 0.592
vn -0.500 -0.000 0.866
vn -0.318 0.706 0.633
vn 0.051 0.998 0.029
vn 0.865 -0.059 0.499
vn 0.865 -0.059 0.499
vn 0.865 -0.059 0.499
vn 0.865 -0.059 0.499
vn 0.865 -0.059 0.499
vn 0.865 -0.059 0.499
vn 0.865 -0.059 0.499
vn 0.865 -0.059 0.499
vn 0.865 -0.059 0.499
vn -0.865 0.059 -0.499
vn -0.865 0.059 -0.499
vn -0.865 0.059 -0.499
vn -0.865 0.059 -0.499
vn -0.865 0.059 -0.499
vn -0.865 0.059 -0.499
vn -0.865 0.059 -0.499
vn -0.865 0.059 -0.499
vn -0.865 0.059 -0.499
vn -0.051 0.998 0.029
vn 0.318 0.706 0.633
vn 0.500 0.000 0.866
vn 0.390 -0.706 0.592
vn 0.051 -0.998 -0.029
vn -0.318 -0.706 -0.633
vn -0.500 -0.000 -0.866
vn -0.390 0.706 -0.592
vn -0.051 0.998 0.029
vn -0.051 0.998 0.029
vn 0.318 0.706 0.633
vn 0.500 0.000 0.866
vn 0.390 -0.706 0.592
vn 0.051 -0.998 -0.029
vn -0.318 -0.706 -0.633
vn -0.500 -0.000 -0.866
vn -0.390 0.706 -0.592
vn -0.051 0.998 0.029
vn -0.865 -0.059 0.499
vn -0.865 -0.059 0.499
vn -0.865 -0.059 0.499
vn -0.865 -0.059 0.499
vn -0.865 -0.059 0.499
vn -0.865 -0.059 0.499
vn -0.865 -0.059 0.499
vn -0.865 -0.059 0.499
vn -0.865 -0.059 0.499
vn 0.865 0.059 -0.499
vn 0.865 0.059 -0.499
vn 0.865 0.059 -0.499
vn 0.865 0.059 -0.499
vn 0.865 0.059 -0.499
vn 0.865 0.059 -0.499
vn 0.865 0.059 -0.499
vn 0.865 0.059 -0.499
vn 0.865 0.059 -0.499
vn 0.100 -0.995 -0.000
vn 0.479 -0.878 -0.000
vn 0.973 0.232 -0.000
vn 0.357 0.934 -0.000
vn 0.100 0.995 -0.000
vn 0.094 -0.995 -0.034
vn 0.450 -0.878 -0.164
vn 0.914 0.232 -0.333
vn 0.335 0.934 -0.122
vn 0.094 0.995 -0.034
vn 0.076 -0.995 -0.064
vn 0.367 -0.878 -0.308
vn 0.745 0.232 -0.625
vn 0.273 0.934 -0.229
vn 0.076 0.995 -0.064
vn 0.050 -0.995 -0.086
vn 0.239 -0.878 -0.415
vn 0.486 0.232 -0.842
vn 0.178 0.934 -0.309
vn 0.050 0.995 -0.086
vn 0.017 -0.995 -0.098
vn 0.083 -0.878 -0.472
vn 0.169 0.232 -0.958
vn 0.062 0.934 -0.351
vn 0.017 0.995 -0.098
vn -0.017 -0.995 -0.098
vn -0.083 -0.878 -0.472
vn -0.169 0.232 -0.958
vn -0.062 0.934 -0.351
vn -0.017 0.995 -0.098
vn -0.050 -0.995 -0.086
vn -0.239 -0.878 -0.415
vn -0.486 0.232 -0.842
vn -0.178 0.934 -0.309
vn -0.050 0.995 -0.086
vn -0.076 -0.995 -0.064
vn -0.367 -0.878 -0.308
vn -0.745 0.232 -0.625
vn -0.273 0.934 -0.229
vn -0.076 0.995 -0.064
vn -0.094 -0.995 -0.034
vn -0.450 -0.878 -0.164
vn -0.914 0.232 -0.333
vn -0.335 0.934 -0.122
vn -0.094 0.995 -0.034
vn -0.100 -0.995 -0.000
vn -0.479 -0.878 -0.000
vn -0.973 0.232 -0.000
vn -0.357 0.934 -0.000
vn -0.100 0.995 -0.000
vn -0.094 -0.995 0.034
vn -0.450 -0.878 0.164
vn -0.914 0.232 0.333
vn -0.335 0.934 0.122
vn -0.094 0.995 0.034
vn -0.076 -0.995 0.064
vn -0.367 -0.878 0.308
vn -0.745 0.232 0.625
vn -0.273 0.934 0.229
vn -0.076 0.995 0.064
vn -0.050 -0.995 0.086
vn -0.239 -0.878 0.415
vn -0.486 0.232 0.842
vn -0.178 0.934 0.309
vn -0.050 0.995 0.086
vn -0.017 -0.995 0.098
vn -0.083 -0.878 0.472
vn -0.169 0.232 0.958
vn -0.062 0.934 0.351
vn -0.017 0.995 0.098
vn 0.017 -0.995 0.098
vn 0.083 -0.878 0.472
vn 0.169 0.232 0.958
vn 0.062 0.934 0.351
vn 0.017 0.995 0.098
vn 0.050 -0.995 0.086
vn 0.239 -0.878 0.415
vn 0.486 0.232 0.842
vn 0.178 0.934 0.309
vn 0.050 0.995 0.086
vn 0.076 -0.995 0.064
vn 0.367 -0.878 0.308
vn 0.745 0.232 0.625
vn 0.273 0.934 0.229
vn 0.076 0.995 0.064
vn 0.094 -0.995 0.034
vn 0.450 -0.878 0.164
vn 0.914 0.232 0.333
vn 0.335 0.934 0.122
vn 0.094 0.995 0.034
vn 0.100 -0.995 0.000
vn 0.479 -0.878 0.000
vn 0.973 0.232 0.000
vn 0.357 0.934 0.000
vn 0.100 0.995 0.000
v 0.0000 0.0160 -0.0000
v 0.0250 0.0160 -0.0000
v 0.0000 0.0190 -0.0000
v 0.0000 0.0160 -0.0000
v 0.0225 0.0160 -0.0108
v 0.0000 0.0190 -0.0000
v 0.0000 0.0160 -0.0000
v 0.0156 0.0160 -0.0195
v 0.0000 0.0190 -0.0000
v 0.0000 0.0160 -0.0000
v 0.0056 0.0160 -0.0244
v 0.0000 0.0190 -0.0000
v -0.0000 0.0160 -0.0000
v -0.0056 0.0160 -0.0244
v -0.0000 0.0190 -0.0000
v -0.0000 0.0160 -0.0000
v -0.0156 0.0160 -0.0195
v -0.0000 0.0190 -0.0000
v -0.0000 0.0160 -0.0000
v -0.0225 0.0160 -0.0108
v -0.0000 0.0190 -0.0000
v -0.0000 0.0160 -0.0000
v -0.0250 0.0160 -0.0000
v -0.0000 0.0190 -0.0000
v -0.0000 0.0160 0.0000
v -0.0225 0.0160 0.0108
v -0.0000 0.0190 0.0000
v -0.0000 0.0160 0.0000
v -0.0156 0.0160 0.0195
v -0.0000 0.0190 0.0000
v -0.0000 0.0160 0.0000
v -0.0056 0.0160 0.0244
v -0.0000 0.0190 0.0000
v 0.0000 0.0160 0.0000
v 0.0056 0.0160 0.0244
v 0.0000 0.0190 0.0000
v 0.0000 0.0160 0.0000
v 0.0156 0.0160 0.0195
v 0.0000 0.0190 0.0000
v 0.0000 0.0160 0.0000
v 0.0225 0.0160 0.0108
v 0.0000 0.0190 0.0000
v 0.0000 0.0160 0.0000
v 0.0250 0.0160 0.0000
v 0.0000 0.0190 0.0000
vt 0.0000 0.0000
vt 0.0000 0.0250
vt 0.0000 0.0502
vt 0.0112 0.0000
vt 0.0112 0.0250
vt 0.0112 0.0502
vt 0.0224 0.0000
vt 0.0224 0.0250
vt 0.0224 0.0502
vt 0.0337 0.0000
vt 0.0337 0.0250
vt 0.0337 0.0502
vt 0.0449 0.0000
vt 0.0449 0.0250
vt 0.0449 0.0502
vt 0.0561 0.0000
vt 0.0561 0.0250
vt 0.0561 0.0502
vt 0.0673 0.0000
vt 0.0673 0.0250
vt 0.0673 0.0502
vt 0.0785 0.0000
vt 0.0785 0.0250
vt 0.0785 0.0502
vt 0.0898 0.0000
vt 0.0898 0.0250
vt 0.0898 0.0502
vt 0.1010 0.0000
vt 0.1010 0.0250
vt 0.1010 0.0502
vt 0.1122 0.0000
vt 0.1122 0.0250
vt 0.1122 0.0502
vt 0.1234 0.0000
vt 0.1234 0.0250
vt 0.1234 0.0502
vt 0.1346 0.0000
vt 0.1346 0.0250
vt 0.1346 0.0502
vt 0.1459 0.0000
vt 0.1459 0.0250
vt 0.1459 0.0502
vt 0.1571 0.0000
vt 0.1571 0.0250
vt 0.1571 0.0502
vn 0.000 -1.000 -0.000
vn 1.000 -0.000 -0.000
vn 0.119 0.993 -0.000
vn 0.000 -1.000 -0.000
vn 0.901 -0.000 -0.434
vn 0.107 0.993 -0.052
vn 0.000 -1.000 -0.000
vn 0.623 -0.000 -0.782
vn 0.074 0.993 -0.093
vn 0.000 -1.000 -0.000
vn 0.223 -0.000 -0.975
vn 0.027 0.993 -0.116
vn -0.000 -1.000 -0.000
vn -0.223 -0.000 -0.975
vn -0.027 0.993 -0.116
vn -0.000 -1.000 -0.000
vn -0.623 -0.000 -0.782
vn -0.074 0.993 -0.093
vn -0.000 -1.000 -0.000
vn -0.901 -0.000 -0.434
vn -0.107 0.993 -0.052
vn -0.000 -1.000 -0.000
vn -1.000 -0.000 -0.000
vn -0.119 0.993 -0.000
vn -0.000 -1.000 0.000
vn -0.901 -0.000 0.434
vn -0.107 0.993 0.052
vn -0.000 -1.000 0.000
vn -0.623 -0.000 0.782
vn -0.074 0.993 0.093
vn -0.000 -1.000 0.000
vn -0.223 -0.000 0.975
vn -0.027 0.993 0.116
vn 0.000 -1.000 0.000
vn 0.223 -0.000 0.975
vn 0.027 0.993 0.116
vn 0.000 -1.000 0.000
vn 0.623 -0.000 0.782
vn 0.074 0.993 0.093
vn 0.000 -1.000 0.000
vn 0.901 -0.000 0.434
vn 0.107 0.993 0.052
vn 0.000 -1.000 0.000
vn 1.000 -0.000 0.000
vn 0.119 0.993 0.000
v 0.0320 -0.0400 0.0000
v 0.0277 -0.0400 0.0160
v 0.0160 -0.0400 0.0277
v 0.0000 -0.0400 0.0320
v -0.0160 -0.0400 0.0277
v -0.0277 -0.0400 0.0160
v -0.0320 -0.0400 0.0000
v -0.0277 -0.0400 -0.0160
v -0.0160 -0.0400 -0.0277
v -0.0000 -0.0400 -0.0320
v 0.0160 -0.0400 -0.0277
v 0.0277 -0.0400 -0.0160
v 0.0320 -0.0400 -0.0000
v 0.0320 -0.6200 0.0000
v 0.0277 -0.6200 0.0160
v 0.0160 -0.6200 0.0277
v 0.0000 -0.6200 0.0320
v -0.0160 -0.6200 0.0277
v -0.0277 -0.6200 0.0160
v -0.0320 -0.6200 0.0000
v -0.0277 -0.6200 -0.0160
v -0.0160 -0.6200 -0.0277
v -0.0000 -0.6200 -0.0320
v 0.0160 -0.6200 -0.0277
v 0.0277 -0.6200 -0.0160
v 0.0320 -0.6200 -0.0000
v 0.0000 -0.0400 0.0000
v 0.0320 -0.0400 0.0000
v 0.0277 -0.0400 0.0160
v 0.0160 -0.0400 0.0277
v 0.0000 -0.0400 0.0320
v -0.0160 -0.0400 0.0277
v -0.0277 -0.0400 0.0160
v -0.0320 -0.0400 0.0000
v -0.0277 -0.0400 -0.0160
v -0.0160 -0.0400 -0.0277
v -0.0000 -0.0400 -0.0320
v 0.0160 -0.0400 -0.0277
v 0.0277 -0.0400 -0.0160
v 0.0000 -0.6200 0.0000
v 0.0320 -0.6200 0.0000
v 0.0277 -0.6200 0.0160
v 0.0160 -0.6200 0.0277
v 0.0000 -0.6200 0.0320
v -0.0160 -0.6200 0.0277
v -0.0277 -0.6200 0.0160
v -0.0320 -0.6200 0.0000
v -0.0277 -0.6200 -0.0160
v -0.0160 -0.6200 -0.0277
v -0.0000 -0.6200 -0.0320
v 0.0160 -0.6200 -0.0277
v 0.0277 -0.6200 -0.0160
v 0.0000 -0.6600 -0.0000
v 0.0700 -0.6600 -0.0000
v 0.0600 -0.6000 -0.0000
v 0.0330 -0.5600 -0.0000
v 0.0000 -0.6600 -0.0000
v 0.0631 -0.6600 -0.0304
v 0.0541 -0.6000 -0.0260
v 0.0297 -0.5600 -0.0143
v 0.0000 -0.6600 -0.0000
v 0.0436 -0.6600 -0.0547
v 0.0374 -0.6000 -0.0469
v 0.0206 -0.5600 -0.0258
v 0.0000 -0.6600 -0.0000
v 0.0156 -0.6600 -0.0682
v 0.0134 -0.6000 -0.0585
v 0.0073 -0.5600 -0.0322
v -0.0000 -0.6600 -0.0000
v -0.0156 -0.6600 -0.0682
v -0.0134 -0.6000 -0.0585
v -0.0073 -0.5600 -0.0322
v -0.0000 -0.6600 -0.0000
v -0.0436 -0.6600 -0.0547
v -0.0374 -0.6000 -0.0469
v -0.0206 -0.5600 -0.0258
v -0.0000 -0.6600 -0.0000
v -0.0631 -0.6600 -0.0304
v -0.0541 -0.6000 -0.0260
v -0.0297 -0.5600 -0.0143
v -0.0000 -0.6600 -0.0000
v -0.0700 -0.6600 -0.0000
v -0.0600 -0.6000 -0.0000
v -0.0330 -0.5600 -0.0000
v -0.0000 -0.6600 0.0000
v -0.0631 -0.6600 0.0304
v -0.0541 -0.6000 0.0260
v -0.0297 -0.5600 0.0143
v -0.0000 -0.6600 0.0000
v -0.0436 -0.6600 0.0547
v -0.0374 -0.6000 0.0469
v -0.0206 -0.5600 0.0258
v -0.0000 -0.6600 0.0000
v -0.0156 -0.6600 0.0682
v -0.0134 -0.6000 0.0585
v -0.0073 -0.5600 0.0322
v 0.0000 -0.6600 0.0000
v 0.0156 -0.6600 0.0682
v 0.0134 -0.6000 0.0585
v 0.0073 -0.5600 0.0322
v 0.0000 -0.6600 0.0000
v 0.0436 -0.6600 0.0547
v 0.0374 -0.6000 0.0469
v 0.0206 -0.5600 0.0258
v 0.0000 -0.6600 0.0000
v 0.0631 -0.6600 0.0304
v 0.0541 -0.6000 0.0260
v 0.0297 -0.5600 0.0143
v 0.0000 -0.6600 0.0000
v 0.0700 -0.6600 0.0000
v 0.0600 -0.6000 0.0000
v 0.0330 -0.5600 0.0000
vt 0.0000 0.0000
vt 0.0000 0.0168
vt 0.0000 0.0335
vt 0.0000 0.0503
vt 0.0000 0.0670
vt 0.0000 0.0838
vt 0.0000 0.1005
vt 0.0000 0.1173
vt 0.0000 0.1340
vt 0.0000 0.1508
vt 0.0000 0.1676
vt 0.0000 0.1843
vt 0.0000 0.2011
vt 0.5800 0.0000
vt 0.5800 0.0168
vt 0.5800 0.0335
vt 0.5800 0.0503
vt 0.5800 0.0670
vt 0.5800 0.0838
vt 0.5800 0.1005
vt 0.5800 0.1173
vt 0.5800 0.1340
vt 0.5800 0.1508
vt 0.5800 0.1676
vt 0.5800 0.1843
vt 0.5800 0.2011
vt 0.0000 0.0000
vt 0.0320 0.0000
vt 0.0277 0.0160
vt 0.0160 0.0277
vt 0.0000 0.0320
vt -0.0160 0.0277
vt -0.0277 0.0160
vt -0.0320 0.0000
vt -0.0277 -0.0160
vt -0.0160 -0.0277
vt -0.0000 -0.0320
vt 0.0160 -0.0277
vt 0.0277 -0.0160
vt 0.0000 0.0000
vt 0.0320 0.0000
vt 0.0277 0.0160
vt 0.0160 0.0277
vt 0.0000 0.0320
vt -0.0160 0.0277
vt -0.0277 0.0160
vt -0.0320 0.0000
vt -0.0277 -0.0160
vt -0.0160 -0.0277
vt -0.0000 -0.0320
vt 0.0160 -0.0277
vt 0.0277 -0.0160
vt 0.0000 0.0000
vt 0.0000 0.0700
vt 0.0000 0.1308
vt 0.0000 0.1791
vt 0.0314 0.0000
vt 0.0314 0.0700
vt 0.0314 0.1308
vt 0.0314 0.1791
vt 0.0628 0.0000
vt 0.0628 0.0700
vt 0.0628 0.1308
vt 0.0628 0.1791
vt 0.0942 0.0000
vt 0.0942 0.0700
vt 0.0942 0.1308
vt 0.0942 0.1791
vt 0.1257 0.0000
vt 0.1257 0.0700
vt 0.1257 0.1308
vt 0.1257 0.1791
vt 0.1571 0.0000
vt 0.1571 0.0700
vt 0.1571 0.1308
vt 0.1571 0.1791
vt 0.1885 0.0000
vt 0.1885 0.0700
vt 0.1885 0.1308
vt 0.1885 0.1791
vt 0.2199 0.0000
vt 0.2199 0.0700
vt 0.2199 0.1308
vt 0.2199 0.1791
vt 0.2513 0.0000
vt 0.2513 0.0700
vt 0.2513 0.1308
vt 0.2513 0.1791
vt 0.2827 0.0000
vt 0.2827 0.0700
vt 0.2827 0.1308
vt 0.2827 0.1791
vt 0.3142 0.0000
vt 0.3142 0.0700
vt 0.3142 0.1308
vt 0.3142 0.1791
vt 0.3456 0.0000
vt 0.3456 0.0700
vt 0.3456 0.1308
vt 0.3456 0.1791
vt 0.3770 0.0000
vt 0.3770 0.0700
vt 0.3770 0.1308
vt 0.3770 0.1791
vt 0.4084 0.0000
vt 0.4084 0.0700
vt 0.4084 0.1308
vt 0.4084 0.1791
vt 0.4398 0.0000
vt 0.4398 0.0700
vt 0.4398 0.1308
vt 0.4398 0.1791
vn 1.000 0.000 0.000
vn 0.866 0.000 0.500
vn 0.500 0.000 0.866
vn 0.000 0.000 1.000
vn -0.500 0.000 0.866
vn -0.866 0.000 0.500
vn -1.000 0.000 0.000
vn -0.866 -0.000 -0.500
vn -0.500 -0.000 -0.866
vn -0.000 -0.000 -1.000
vn 0.500 0.000 -0.866
vn 0.866 0.000 -0.500
vn 1.000 0.000 -0.000
vn 1.000 0.000 0.000
vn 0.866 0.000 0.500
vn 0.500 0.000 0.866
vn 0.000 0.000 1.000
vn -0.500 0.000 0.866
vn -0.866 0.000 0.500
vn -1.000 0.000 0.000
vn -0.866 -0.000 -0.500
vn -0.500 -0.000 -0.866
vn -0.000 -0.000 -1.000
vn 0.500 0.000 -0.866
vn 0.866 0.000 -0.500
vn 1.000 0.000 -0.000
vn -0.000 1.000 -0.000
vn -0.000 1.000 -0.000
vn -0.000 1.000 -0.000
vn -0.000 1.000 -0.000
vn -0.000 1.000 -0.000
vn -0.000 1.000 -0.000
vn -0.000 1.000 -0.000
vn -0.000 1.000 -0.000
vn -0.000 1.000 -0.000
vn -0.000 1.000 -0.000
vn -0.000 1.000 -0.000
vn -0.000 1.000 -0.000
vn -0.000 1.000 -0.000
vn 0.000 -1.000 0.000
vn 0.000 -1.000 0.000
vn 0.000 -1.000 0.000
vn 0.000 -1.000 0.000
vn 0.000 -1.000 0.000
vn 0.000 -1.000 0.000
vn 0.000 -1.000 0.000
vn 0.000 -1.000 0.000
vn 0.000 -1.000 0.000
vn 0.000 -1.000 0.000
vn 0.000 -1.000 0.000
vn 0.000 -1.000 0.000
vn 0.000 -1.000 0.000
vn 0.000 -1.000 -0.000
vn 0.707 -0.707 -0.000
vn 0.938 0.347 -0.000
vn 0.829 0.559 -0.000
vn 0.000 -1.000 -0.000
vn 0.637 -0.707 -0.307
vn 0.845 0.347 -0.407
vn 0.747 0.559 -0.360
vn 0.000 -1.000 -0.000
vn 0.441 -0.707 -0.553
vn 0.585 0.347 -0.733
vn 0.517 0.559 -0.648
vn 0.000 -1.000 -0.000
vn 0.157 -0.707 -0.689
vn 0.209 0.347 -0.914
vn 0.184 0.559 -0.808
vn -0.000 -1.000 -0.000
vn -0.157 -0.707 -0.689
vn -0.209 0.347 -0.914
vn -0.184 0.559 -0.808
vn -0.000 -1.000 -0.000
vn -0.441 -0.707 -0.553
vn -0.585 0.347 -0.733
vn -0.517 0.559 -0.648
vn -0.000 -1.000 -0.000
vn -0.637 -0.707 -0.307
vn -0.845 0.347 -0.407
vn -0.747 0.559 -0.360
vn -0.000 -1.000 -0.000
vn -0.707 -0.707 -0.000
vn -0.938 0.347 -0.000
vn -0.829 0.559 -0.000
vn -0.000 -1.000 0.000
vn -0.637 -0.707 0.307
vn -0.845 0.347 0.407
vn -0.747 0.559 0.360
vn -0.000 -1.000 0.000
vn -0.441 -0.707 0.553
vn -0.585 0.347 0.733
vn -0.517 0.559 0.648
vn -0.000 -1.000 0.000
vn -0.157 -0.707 0.689
vn -0.209 0.347 0.914
vn -0.184 0.559 0.808
vn 0.000 -1.000 0.000
vn 0.157 -0.707 0.689
vn 0.209 0.347 0.914
vn 0.184 0.559 0.808
vn 0.000 -1.000 0.000
vn 0.441 -0.707 0.553
vn 0.585 0.347 0.733
vn 0.517 0.559 0.648
vn 0.000 -1.000 0.000
vn 0.637 -0.707 0.307
vn 0.845 0.347 0.407
vn 0.747 0.559 0.360
vn 0.000 -1.000 0.000
vn 0.707 -0.707 0.000
vn 0.938 0.347 0.000
vn 0.829 0.559 0.000
usemtl grip
f 1/1/1 2/2/2 13/13/13
f 1/1/1 13/13/13 12/12/12
f 2/2/2 3/3/3 14/14/14
f 2/2/2 14/14/14 13/13/13
f 3/3/3 4/4/4 15/15/15
f 3/3/3 15/15/15 14/14/14
f 4/4/4 5/5/5 16/16/16
f 4/4/4 16/16/16 15/15/15
f 5/5/5 6/6/6 17/17/17
f 5/5/5 17/17/17 16/16/16
f 6/6/6 7/7/7 18/18/18
f 6/6/6 18/18/18 17/17/17
f 7/7/7 8/8/8 19/19/19
f 7/7/7 19/19/19 18/18/18
f 8/8/8 9/9/9 20/20/20
f 8/8/8 20/20/20 19/19/19
f 9/9/9 10/10/10 21/21/21
f 9/9/9 21/21/21 20/20/20
f 10/10/10 11/11/11 22/22/22
f 10/10/10 22/22/22 21/21/21
f 12/12/12 13/13/13 24/24/24
f 12/12/12 24/24/24 23/23/23
f 13/13/13 14/14/14 25/25/25
f 13/13/13 25/25/25 24/24/24
f 14/14/14 15/15/15 26/26/26
f 14/14/14 26/26/26 25/25/25
f 15/15/15 16/16/16 27/27/27
f 15/15/15 27/27/27 26/26/26
f 16/16/16 17/17/17 28/28/28
f 16/16/16 28/28/28 27/27/27
f 17/17/17 18/18/18 29/29/29
f 17/17/17 29/29/29 28/28/28
f 18/18/18 19/19/19 30/30/30
f 18/18/18 30/30/30 29/29/29
f 19/19/19 20/20/20 31/31/31
f 19/19/19 31/31/31 30/30/30
f 20/20/20 21/21/21 32/32/32
f 20/20/20 32/32/32 31/31/31
f 21/21/21 22/22/22 33/33/33
f 21/21/21 33/33/33 32/32/32
f 23/23/23 24/24/24 35/35/35
f 23/23/23 35/35/35 34/34/34
f 24/24/24 25/25/25 36/36/36
f 24/24/24 36/36/36 35/35/35
f 25/25/25 26/26/26 37/37/37
f 25/25/25 37/37/37 36/36/36
f 26/26/26 27/27/27 38/38/38
f 26/26/26 38/38/38 37/37/37
f 27/27/27 28/28/28 39/39/39
f 27/27/27 39/39/39 38/38/38
f 28/28/28 29/29/29 40/40/40
f 28/28/28 40/40/40 39/39/39
f 29/29/29 30/30/30 41/41/41
f 29/29/29 41/41/41 40/40/40
f 30/30/30 31/31/31 42/42/42
f 30/30/30 42/42/42 41/41/41
f 31/31/31 32/32/32 43/43/43
f 31/31/31 43/43/43 42/42/42
f 32/32/32 33/33/33 44/44/44
f 32/32/32 44/44/44 43/43/43
f 34/34/34 35/35/35 46/46/46
f 34/34/34 46/46/46 45/45/45
f 35/35/35 36/36/36 47/47/47
f 35/35/35 47/47/47 46/46/46
f 36/36/36 37/37/37 48/48/48
f 36/36/36 48/48/48 47/47/47
f 37/37/37 38/38/38 49/49/49
f 37/37/37 49/49/49 48/48/48
f 38/38/38 39/39/39 50/50/50
f 38/38/38 50/50/50 49/49/49
f 39/39/39 40/40/40 51/51/51
f 39/39/39 51/51/51 50/50/50
f 40/40/40 41/41/41 52/52/52
f 40/40/40 52/52/52 51/51/51
f 41/41/41 42/42/42 53/53/53
f 41/41/41 53/53/53 52/52/52
f 42/42/42 43/43/43 54/54/54
f 42/42/42 54/54/54 53/53/53
f 43/43/43 44/44/44 55/55/55
f 43/43/43 55/55/55 54/54/54
f 45/45/45 46/46/46 57/57/57
f 45/45/45 57/57/57 56/56/56
f 46/46/46 47/47/47 58/58/58
f 46/46/46 58/58/58 57/57/57
f 47/47/47 48/48/48 59/59/59
f 47/47/47 59/59/59 58/58/58
f 48/48/48 49/49/49 60/60/60
f 48/48/48 60/60/60 59/59/59
f 49/49/49 50/50/50 61/61/61
f 49/49/49 61/61/61 60/60/60
f 50/50/50 51/51/51 62/62/62
f 50/50/50 62/62/62 61/61/61
f 51/51/51 52/52/52 63/63/63
f 51/51/51 63/63/63 62/62/62
f 52/52/52 53/53/53 64/64/64
f 52/52/52 64/64/64 63/63/63
f 53/53/53 54/54/54 65/65/65
f 53/53/53 65/65/65 64/64/64
f 54/54/54 55/55/55 66/66/66
f 54/54/54 66/66/66 65/65/65
f 56/56/56 57/57/57 68/68/68
f 56/56/56 68/68/68 67/67/67
f 57/57/57 58/58/58 69/69/69
f 57/57/57 69/69/69 68/68/68
f 58/58/58 59/59/59 70/70/70
f 58/58/58 70/70/70 69/69/69
f 59/59/59 60/60/60 71/71/71
f 59/59/59 71/71/71 70/70/70
f 60/60/60 61/61/61 72/72/72
f 60/60/60 72/72/72 71/71/71
f 61/61/61 62/62/62 73/73/73
f 61/61/61 73/73/73 72/72/72
f 62/62/62 63/63/63 74/74/74
f 62/62/62 74/74/74 73/73/73
f 63/63/63 64/64/64 75/75/75
f 63/63/63 75/75/75 74/74/74
f 64/64/64 65/65/65 76/76/76
f 64/64/64 76/76/76 75/75/75
f 65/65/65 66/66/66 77/77/77
f 65/65/65 77/77/77 76/76/76
f 67/67/67 68/68/68 79/79/79
f 67/67/67 79/79/79 78/78/78
f 68/68/68 69/69/69 80/80/80
f 68/68/68 80/80/80 79/79/79
f 69/69/69 70/70/70 81/81/81
f 69/69/69 81/81/81 80/80/80
f 70/70/70 71/71/71 82/82/82
f 70/70/70 82/82/82 81/81/81
f 71/71/71 72/72/72 83/83/83
f 71/71/71 83/83/83 82/82/82
f 72/72/72 73/73/73 84/84/84
f 72/72/72 84/84/84 83/83/83
f 73/73/73 74/74/74 85/85/85
f 73/73/73 85/85/85 84/84/84
f 74/74/74 75/75/75 86/86/86
f 74/74/74 86/86/86 85/85/85
f 75/75/75 76/76/76 87/87/87
f 75/75/75 87/87/87 86/86/86
f 76/76/76 77/77/77 88/88/88
f 76/76/76 88/88/88 87/87/87
f 78/78/78 79/79/79 90/90/90
f 78/78/78 90/90/90 89/89/89
f 79/79/79 80/80/80 91/91/91
f 79/79/79 91/91/91 90/90/90
f 80/80/80 81/81/81 92/92/92
f 80/80/80 92/92/92 91/91/91
f 81/81/81 82/82/82 93/93/93
f 81/81/81 93/93/93 92/92/92
f 82/82/82 83/83/83 94/94/94
f 82/82/82 94/94/94 93/93/93
f 83/83/83 84/84/84 95/95/95
f 83/83/83 95/95/95 94/94/94
f 84/84/84 85/85/85 96/96/96
f 84/84/84 96/96/96 95/95/95
f 85/85/85 86/86/86 97/97/97
f 85/85/85 97/97/97 96/96/96
f 86/86/86 87/87/87 98/98/98
f 86/86/86 98/98/98 97/97/97
f 87/87/87 88/88/88 99/99/99
f 87/87/87 99/99/99 98/98/98
f 89/89/89 90/90/90 101/101/101
f 89/89/89 101/101/101 100/100/100
f 90/90/90 91/91/91 102/102/102
f 90/90/90 102/102/102 101/101/101
f 91/91/91 92/92/92 103/103/103
f 91/91/91 103/103/103 102/102/102
f 92/92/92 93/93/93 104/104/104
f 92/92/92 104/104/104 103/103/103
f 93/93/93 94/94/94 105/105/105
f 93/93/93 105/105/105 104/104/104
f 94/94/94 95/95/95 106/106/106
f 94/94/94 106/106/106 105/105/105
f 95/95/95 96/96/96 107/107/107
f 95/95/95 107/107/107 106/106/106
f 96/96/96 97/97/97 108/108/108
f 96/96/96 108/108/108 107/107/107
f 97/97/97 98/98/98 109/109/109
f 97/97/97 109/109/109 108/108/108
f 98/98/98 99/99/99 110/110/110
f 98/98/98 110/110/110 109/109/109
f 100/100/100 101/101/101 112/112/112
f 100/100/100 112/112/112 111/111/111
f 101/101/101 102/102/102 113/113/113
f 101/101/101 113/113/113 112/112/112
f 102/102/102 103/103/103 114/114/114
f 102/102/102 114/114/114 113/113/113
f 103/103/103 104/104/104 115/115/115
f 103/103/103 115/115/115 114/114/114
f 104/104/104 105/105/105 116/116/116
f 104/104/104 116/116/116 115/115/115
f 105/105/105 106/106/106 117/117/117
f 105/105/105 117/117/117 116/116/116
f 106/106/106 107/107/107 118/118/118
f 106/106/106 118/118/118 117/117/117
f 107/107/107 108/108/108 119/119/119
f 107/107/107 119/119/119 118/118/118
f 108/108/108 109/109/109 120/120/120
f 108/108/108 120/120/120 119/119/119
f 109/109/109 110/110/110 121/121/121
f 109/109/109 121/121/121 120/120/120
f 111/111/111 112/112/112 123/123/123
f 111/111/111 123/123/123 122/122/122
f 112/112/112 113/113/113 124/124/124
f 112/112/112 124/124/124 123/123/123
f 113/113/113 114/114/114 125/125/125
f 113/113/113 125/125/125 124/124/124
f 114/114/114 115/115/115 126/126/126
f 114/114/114 126/126/126 125/125/125
f 115/115/115 116/116/116 127/127/127
f 115/115/115 127/127/127 126/126/126
f 116/116/116 117/117/117 128/128/128
f 116/116/116 128/128/128 127/127/127
f 117/117/117 118/118/118 129/129/129
f 117/117/117 129/129/129 128/128/128
f 118/118/118 119/119/119 130/130/130
f 118/118/118 130/130/130 129/129/129
f 119/119/119 120/120/120 131/131/131
f 119/119/119 131/131/131 130/130/130
f 120/120/120 121/121/121 132/132/132
f 120/120/120 132/132/132 131/131/131
f 122/122/122 123/123/123 134/134/134
f 122/122/122 134/134/134 133/133/133
f 123/123/123 124/124/124 135/135/135
f 123/123/123 135/135/135 134/134/134
f 124/124/124 125/125/125 136/136/136
f 124/124/124 136/136/136 135/135/135
f 125/125/125 126/126/126 137/137/137
f 125/125/125 137/137/137 136/136/136
f 126/126/126 127/127/127 138/138/138
f 126/126/126 138/138/138 137/137/137
f 127/127/127 128/128/128 139/139/139
f 127/127/127 139/139/139 138/138/138
f 128/128/128 129/129/129 140/140/140
f 128/128/128 140/140/140 139/139/139
f 129/129/129 130/130/130 141/141/141
f 129/129/129 141/141/141 140/140/140
f 130/130/130 131/131/131 142/142/142
f 130/130/130 142/142/142 141/141/141
f 131/131/131 132/132/132 143/143/143
f 131/131/131 143/143/143 142/142/142
f 133/133/133 134/134/134 145/145/145
f 133/133/133 145/145/145 144/144/144
f 134/134/134 135/135/135 146/146/146
f 134/134/134 146/146/146 145/145/145
f 135/135/135 136/136/136 147/147/147
f 135/135/135 147/147/147 146/146/146
f 136/136/136 137/137/137 148/148/148
f 136/136/136 148/148/148 147/147/147
f 137/137/137 138/138/138 149/149/149
f 137/137/137 149/149/149 148/148/148
f 138/138/138 139/139/139 150/150/150
f 138/138/138 150/150/150 149/149/149
f 139/139/139 140/140/140 151/151/151
f 139/139/139 151/151/151 150/150/150
f 140/140/140 141/141/141 152/152/152
f 140/140/140 152/152/152 151/151/151
f 141/141/141 142/142/142 153/153/153
f 141/141/141 153/153/153 152/152/152
f 142/142/142 143/143/143 154/154/154
f 142/142/142 154/154/154 153/153/153
f 144/144/144 145/145/145 156/156/156
f 144/144/144 156/156/156 155/155/155
f 145/145/145 146/146/146 157/157/157
f 145/145/145 157/157/157 156/156/156
f 146/146/146 147/147/147 158/158/158
f 146/146/146 158/158/158 157/157/157
f 147/147/147 148/148/148 159/159/159
f 147/147/147 159/159/159 158/158/158
f 148/148/148 149/149/149 160/160/160
f 148/148/148 160/160/160 159/159/159
f 149/149/149 150/150/150 161/161/161
f 149/149/149 161/161/161 160/160/160
f 150/150/150 151/151/151 162/162/162
f 150/150/150 162/162/162 161/161/161
f 151/151/151 152/152/152 163/163/163
f 151/151/151 163/163/163 162/162/162
f 152/152/152 153/153/153 164/164/164
f 152/152/152 164/164/164 163/163/163
f 153/153/153 154/154/154 165/165/165
f 153/153/153 165/165/165 164/164/164
f 155/155/155 156/156/156 167/167/167
f 155/155/155 167/167/167 166/166/166
f 156/156/156 157/157/157 168/168/168
f 156/156/156 168/168/168 167/167/167
f 157/157/157 158/158/158 169/169/169
f 157/157/157 169/169/169 168/168/168
f 158/158/158 159/159/159 170/170/170
f 158/158/158 170/170/170 169/169/169
f 159/159/159 160/160/160 171/171/171
f 159/159/159 171/171/171 170/170/170
f 160/160/160 161/161/161 172/172/172
f 160/160/160 172/172/172 171/171/171
f 161/161/161 162/162/162 173/173/173
f 161/161/161 173/173/173 172/172/172
f 162/162/162 163/163/163 174/174/174
f 162/162/162 174/174/174 173/173/173
f 163/163/163 164/164/164 175/175/175
f 163/163/163 175/175/175 174/174/174
f 164/164/164 165/165/165 176/176/176
f 164/164/164 176/176/176 175/175/175
f 166/166/166 167/167/167 178/178/178
f 166/166/166 178/178/178 177/177/177
f 167/167/167 168/168/168 179/179/179
f 167/167/167 179/179/179 178/178/178
f 168/168/168 169/169/169 180/180/180
f 168/168/168 180/180/180 179/179/179
f 169/169/169 170/170/170 181/181/181
f 169/169/169 181/181/181 180/180/180
f 170/170/170 171/171/171 182/182/182
f 170/170/170 182/182/182 181/181/181
f 171/171/171 172/172/172 183/183/183
f 171/171/171 183/183/183 182/182/182
f 172/172/172 173/173/173 184/184/184
f 172/172/172 184/184/184 183/183/183
f 173/173/173 174/174/174 185/185/185
f 173/173/173 185/185/185 184/184/184
f 174/174/174 175/175/175 186/186/186
f 174/174/174 186/186/186 185/185/185
f 175/175/175 176/176/176 187/187/187
f 175/175/175 187/187/187 186/186/186
f 177/177/177 178/178/178 189/189/189
f 177/177/177 189/189/189 188/188/188
f 178/178/178 179/179/179 190/190/190
f 178/178/178 190/190/190 189/189/189
f 179/179/179 180/180/180 191/191/191
f 179/179/179 191/191/191 190/190/190
f 180/180/180 181/181/181 192/192/192
f 180/180/180 192/192/192 191/191/191
f 181/181/181 182/182/182 193/193/193
f 181/181/181 193/193/193 192/192/192
f 182/182/182 183/183/183 194/194/194
f 182/182/182 194/194/194 193/193/193
f 183/183/183 184/184/184 195/195/195
f 183/183/183 195/195/195 194/194/194
f 184/184/184 185/185/185 196/196/196
f 184/184/184 196/196/196 195/195/195
f 185/185/185 186/186/186 197/197/197
f 185/185/185 197/197/197 196/196/196
f 186/186/186 187/187/187 198/198/198
f 186/186/186 198/198/198 197/197/197
f 188/188/188 189/189/189 200/200/200
f 188/188/188 200/200/200 199/199/199
f 189/189/189 190/190/190 201/201/201
f 189/189/189 201/201/201 200/200/200
f 190/190/190 191/191/191 202/202/202
f 190/190/190 202/202/202 201/201/201
f 191/191/191 192/192/192 203/203/203
f 191/191/191 203/203/203 202/202/202
f 192/192/192 193/193/193 204/204/204
f 192/192/192 204/204/204 203/203/203
f 193/193/193 194/194/194 205/205/205
f 193/193/193 205/205/205 204/204/204
f 194/194/194 195/195/195 206/206/206
f 194/194/194 206/206/206 205/205/205
f 195/195/195 196/196/196 207/207/207
f 195/195/195 207/207/207 206/206/206
f 196/196/196 197/197/197 208/208/208
f 196/196/196 208/208/208 207/207/207
f 197/197/197 198/198/198 209/209/209
f 197/197/197 209/209/209 208/208/208
f 199/199/199 200/200/200 211/211/211
f 199/199/199 211/211/211 210/210/210
f 200/200/200 201/201/201 212/212/212
f 200/200/200 212/212/212 211/211/211
f 201/201/201 202/202/202 213/213/213
f 201/201/201 213/213/213 212/212/212
f 202/202/202 203/203/203 214/214/214
f 202/202/202 214/214/214 213/213/213
f 203/203/203 204/204/204 215/215/215
f 203/203/203 215/215/215 214/214/214
f 204/204/204 205/205/205 216/216/216
f 204/204/204 216/216/216 215/215/215
f 205/205/205 206/206/206 217/217/217
f 205/205/205 217/217/217 216/216/216
f 206/206/206 207/207/207 218/218/218
f 206/206/206 218/218/218 217/217/217
f 207/207/207 208/208/208 219/219/219
f 207/207/207 219/219/219 218/218/218
f 208/208/208 209/209/209 220/220/220
f 208/208/208 220/220/220 219/219/219
f 210/210/210 211/211/211 222/222/222
f 210/210/210 222/222/222 221/221/221
f 211/211/211 212/212/212 223/223/223
f 211/211/211 223/223/223 222/222/222
f 212/212/212 213/213/213 224/224/224
f 212/212/212 224/224/224 223/223/223
f 213/213/213 214/214/214 225/225/225
f 213/213/213 225/225/225 224/224/224
f 214/214/214 215/215/215 226/226/226
f 214/214/214 226/226/226 225/225/225
f 215/215/215 216/216/216 227/227/227
f 215/215/215 227/227/227 226/226/226
f 216/216/216 217/217/217 228/228/228
f 216/216/216 228/228/228 227/227/227
f 217/217/217 218/218/218 229/229/229
f 217/217/217 229/229/229 228/228/228
f 218/218/218 219/219/219 230/230/230
f 218/218/218 230/230/230 229/229/229
f 219/219/219 220/220/220 231/231/231
f 219/219/219 231/231/231 230/230/230
f 221/221/221 222/222/222 233/233/233
f 221/221/221 233/233/233 232/232/232
f 222/222/222 223/223/223 234/234/234
f 222/222/222 234/234/234 233/233/233
f 223/223/223 224/224/224 235/235/235
f 223/223/223 235/235/235 234/234/234
f 224/224/224 225/225/225 236/236/236
f 224/224/224 236/236/236 235/235/235
f 225/225/225 226/226/226 237/237/237
f 225/225/225 237/237/237 236/236/236
f 226/226/226 227/227/227 238/238/238
f 226/226/226 238/238/238 237/237/237
f 227/227/227 228/228/228 239/239/239
f 227/227/227 239/239/239 238/238/238
f 228/228/228 229/229/229 240/240/240
f 228/228/228 240/240/240 239/239/239
f 229/229/229 230/230/230 241/241/241
f 229/229/229 241/241/241 240/240/240
f 230/230/230 231/231/231 242/242/242
f 230/230/230 242/242/242 241/241/241
f 232/232/232 233/233/233 244/244/244
f 232/232/232 244/244/244 243/243/243
f 233/233/233 234/234/234 245/245/245
f 233/233/233 245/245/245 244/244/244
f 234/234/234 235/235/235 246/246/246
f 234/234/234 246/246/246 245/245/245
f 235/235/235 236/236/236 247/247/247
f 235/235/235 247/247/247 246/246/246
f 236/236/236 237/237/237 248/248/248
f 236/236/236 248/248/248 247/247/247
f 237/237/237 238/238/238 249/249/249
f 237/237/237 249/249/249 248/248/248
f 238/238/238 239/239/239 250/250/250
f 238/238/238 250/250/250 249/249/249
f 239/239/239 240/240/240 251/251/251
f 239/239/239 251/251/251 250/250/250
f 240/240/240 241/241/241 252/252/252
f 240/240/240 252/252/252 251/251/251
f 241/241/241 242/242/242 253/253/253
f 241/241/241 253/253/253 252/252/252
f 243/243/243 244/244/244 255/255/255
f 243/243/243 255/255/255 254/254/254
f 244/244/244 245/245/245 256/256/256
f 244/244/244 256/256/256 255/255/255
f 245/245/245 246/246/246 257/257/257
f 245/245/245 257/257/257 256/256/256
f 246/246/246 247/247/247 258/258/258
f 246/246/246 258/258/258 257/257/257
f 247/247/247 248/248/248 259/259/259
f 247/247/247 259/259/259 258/258/258
f 248/248/248 249/249/249 260/260/260
f 248/248/248 260/260/260 259/259/259
f 249/249/249 250/250/250 261/261/261
f 249/249/249 261/261/261 260/260/260
f 250/250/250 251/251/251 262/262/262
f 250/250/250 262/262/262 261/261/261
f 251/251/251 252/252/252 263/263/263
f 251/251/251 263/263/263 262/262/262
f 252/252/252 253/253/253 264/264/264
f 252/252/252 264/264/264 263/263/263
f 254/254/254 255/255/255 266/266/266
f 254/254/254 266/266/266 265/265/265
f 255/255/255 256/256/256 267/267/267
f 255/255/255 267/267/267 266/266/266
f 256/256/256 257/257/257 268/268/268
f 256/256/256 268/268/268 267/267/267
f 257/257/257 258/258/258 269/269/269
f 257/257/257 269/269/269 268/268/268
f 258/258/258 259/259/259 270/270/270
f 258/258/258 270/270/270 269/269/269
f 259/259/259 260/260/260 271/271/271
f 259/259/259 271/271/271 270/270/270
f 260/260/260 261/261/261 272/272/272
f 260/260/260 272/272/272 271/271/271
f 261/261/261 262/262/262 273/273/273
f 261/261/261 273/273/273 272/272/272
f 262/262/262 263/263/263 274/274/274
f 262/262/262 274/274/274 273/273/273
f 263/263/263 264/264/264 275/275/275
f 263/263/263 275/275/275 274/274/274
f 265/265/265 266/266/266 277/277/277
f 265/265/265 277/277/277 276/276/276
f 266/266/266 267/267/267 278/278/278
f 266/266/266 278/278/278 277/277/277
f 267/267/267 268/268/268 279/279/279
f 267/267/267 279/279/279 278/278/278
f 268/268/268 269/269/269 280/280/280
f 268/268/268 280/280/280 279/279/279
f 269/269/269 270/270/270 281/281/281
f 269/269/269 281/281/281 280/280/280
f 270/270/270 271/271/271 282/282/282
f 270/270/270 282/282/282 281/281/281
f 271/271/271 272/272/272 283/283/283
f 271/271/271 283/283/283 282/282/282
f 272/272/272 273/273/273 284/284/284
f 272/272/272 284/284/284 283/283/283
f 273/273/273 274/274/274 285/285/285
f 273/273/273 285/285/285 284/284/284
f 274/274/274 275/275/275 286/286/286
f 274/274/274 286/286/286 285/285/285
f 276/276/276 277/277/277 288/288/288
f 276/276/276 288/288/288 287/287/287
f 277/277/277 278/278/278 289/289/289
f 277/277/277 289/289/289 288/288/288
f 278/278/278 279/279/279 290/290/290
f 278/278/278 290/290/290 289/289/289
f 279/279/279 280/280/280 291/291/291
f 279/279/279 291/291/291 290/290/290
f 280/280/280 281/281/281 292/292/292
f 280/280/280 292/292/292 291/291/291
f 281/281/281 282/282/282 293/293/293
f 281/281/281 293/293/293 292/292/292
f 282/282/282 283/283/283 294/294/294
f 282/282/282 294/294/294 293/293/293
f 283/283/283 284/284/284 295/295/295
f 283/283/283 295/295/295 294/294/294
f 284/284/284 285/285/285 296/296/296
f 284/284/284 296/296/296 295/295/295
f 285/285/285 286/286/286 297/297/297
f 285/285/285 297/297/297 296/296/296
f 287/287/287 288/288/288 299/299/299
f 287/287/287 299/299/299 298/298/298
f 288/288/288 289/289/289 300/300/300
f 288/288/288 300/300/300 299/299/299
f 289/289/289 290/290/290 301/301/301
f 289/289/289 301/301/301 300/300/300
f 290/290/290 291/291/291 302/302/302
f 290/290/290 302/302/302 301/301/301
f 291/291/291 292/292/292 303/303/303
f 291/291/291 303/303/303 302/302/302
f 292/292/292 293/293/293 304/304/304
f 292/292/292 304/304/304 303/303/303
f 293/293/293 294/294/294 305/305/305
f 293/293/293 305/305/305 304/304/304
f 294/294/294 295/295/295 306/306/306
f 294/294/294 306/306/306 305/305/305
f 295/295/295 296/296/296 307/307/307
f 295/295/295 307/307/307 306/306/306
f 296/296/296 297/297/297 308/308/308
f 296/296/296 308/308/308 307/307/307
f 298/298/298 299/299/299 310/310/310
f 298/298/298 310/310/310 309/309/309
f 299/299/299 300/300/300 311/311/311
f 299/299/299 311/311/311 310/310/310
f 300/300/300 301/301/301 312/312/312
f 300/300/300 312/312/312 311/311/311
f 301/301/301 302/302/302 313/313/313
f 301/301/301 313/313/313 312/312/312
f 302/302/302 303/303/303 314/314/314
f 302/302/302 314/314/314 313/313/313
f 303/303/303 304/304/304 315/315/315
f 303/303/303 315/315/315 314/314/314
f 304/304/304 305/305/305 316/316/316
f 304/304/304 316/316/316 315/315/315
f 305/305/305 306/306/306 317/317/317
f 305/305/305 317/317/317 316/316/316
f 306/306/306 307/307/307 318/318/318
f 306/306/306 318/318/318 317/317/317
f 307/307/307 308/308/308 319/319/319
f 307/307/307 319/319/319 318/318/318
f 309/309/309 310/310/310 321/321/321
f 309/309/309 321/321/321 320/320/320
f 310/310/310 311/311/311 322/322/322
f 310/310/310 322/322/322 321/321/321
f 311/311/311 312/312/312 323/323/323
f 311/311/311 323/323/323 322/322/322
f 312/312/312 313/313/313 324/324/324
f 312/312/312 324/324/324 323/323/323
f 313/313/313 314/314/314 325/325/325
f 313/313/313 325/325/325 324/324/324
f 314/314/314 315/315/315 326/326/326
f 314/314/314 326/326/326 325/325/325
f 315/315/315 316/316/316 327/327/327
f 315/315/315 327/327/327 326/326/326
f 316/316/316 317/317/317 328/328/328
f 316/316/316 328/328/328 327/327/327
f 317/317/317 318/318/318 329/329/329
f 317/317/317 329/329/329 328/328/328
f 318/318/318 319/319/319 330/330/330
f 318/318/318 330/330/330 329/329/329
f 320/320/320 321/321/321 332/332/332
f 320/320/320 332/332/332 331/331/331
f 321/321/321 322/322/322 333/333/333
f 321/321/321 333/333/333 332/332/332
f 322/322/322 323/323/323 334/334/334
f 322/322/322 334/334/334 333/333/333
f 323/323/323 324/324/324 335/335/335
f 323/323/323 335/335/335 334/334/334
f 324/324/324 325/325/325 336/336/336
f 324/324/324 336/336/336 335/335/335
f 325/325/325 326/326/326 337/337/337
f 325/325/325 337/337/337 336/336/336
f 326/326/326 327/327/327 338/338/338
f 326/326/326 338/338/338 337/337/337
f 327/327/327 328/328/328 339/339/339
f 327/327/327 339/339/339 338/338/338
f 328/328/328 329/329/329 340/340/340
f 328/328/328 340/340/340 339/339/339
f 329/329/329 330/330/330 341/341/341
f 329/329/329 341/341/341 340/340/340
f 331/331/331 332/332/332 343/343/343
f 331/331/331 343/343/343 342/342/342
f 332/332/332 333/333/333 344/344/344
f 332/332/332 344/344/344 343/343/343
f 333/333/333 334/334/334 345/345/345
f 333/333/333 345/345/345 344/344/344
f 334/334/334 335/335/335 346/346/346
f 334/334/334 346/346/346 345/345/345
f 335/335/335 336/336/336 347/347/347
f 335/335/335 347/347/347 346/346/346
f 336/336/336 337/337/337 348/348/348
f 336/336/336 348/348/348 347/347/347
f 337/337/337 338/338/338 349/349/349
f 337/337/337 349/349/349 348/348/348
f 338/338/338 339/339/339 350/350/350
f 338/338/338 350/350/350 349/349/349
f 339/339/339 340/340/340 351/351/351
f 339/339/339 351/351/351 350/350/350
f 340/340/340 341/341/341 352/352/352
f 340/340/340 352/352/352 351/351/351
f 342/342/342 343/343/343 354/354/354
f 342/342/342 354/354/354 353/353/353
f 343/343/343 344/344/344 355/355/355
f 343/343/343 355/355/355 354/354/354
f 344/344/344 345/345/345 356/356/356
f 344/344/344 356/356/356 355/355/355
f 345/345/345 346/346/346 357/357/357
f 345/345/345 357/357/357 356/356/356
f 346/346/346 347/347/347 358/358/358
f 346/346/346 358/358/358 357/357/357
f 347/347/347 348/348/348 359/359/359
f 347/347/347 359/359/359 358/358/358
f 348/348/348 349/349/349 360/360/360
f 348/348/348 360/360/360 359/359/359
f 349/349/349 350/350/350 361/361/361
f 349/349/349 361/361/361 360/360/360
f 350/350/350 351/351/351 362/362/362
f 350/350/350 362/362/362 361/361/361
f 351/351/351 352/352/352 363/363/363
f 351/351/351 363/363/363 362/362/362
f 353/353/353 354/354/354 365/365/365
f 353/353/353 365/365/365 364/364/364
f 354/354/354 355/355/355 366/366/366
f 354/354/354 366/366/366 365/365/365
f 355/355/355 356/356/356 367/367/367
f 355/355/355 367/367/367 366/366/366
f 356/356/356 357/357/357 368/368/368
f 356/356/356 368/368/368 367/367/367
f 357/357/357 358/358/358 369/369/369
f 357/357/357 369/369/369 368/368/368
f 358/358/358 359/359/359 370/370/370
f 358/358/358 370/370/370 369/369/369
f 359/359/359 360/360/360 371/371/371
f 359/359/359 371/371/371 370/370/370
f 360/360/360 361/361/361 372/372/372
f 360/360/360 372/372/372 371/371/371
f 361/361/361 362/362/362 373/373/373
f 361/361/361 373/373/373 372/372/372
f 362/362/362 363/363/363 374/374/374
f 362/362/362 374/374/374 373/373/373
f 364/364/364 365/365/365 376/376/376
f 364/364/364 376/376/376 375/375/375
f 365/365/365 366/366/366 377/377/377
f 365/365/365 377/377/377 376/376/376
f 366/366/366 367/367/367 378/378/378
f 366/366/366 378/378/378 377/377/377
f 367/367/367 368/368/368 379/379/379
f 367/367/367 379/379/379 378/378/378
f 368/368/368 369/369/369 380/380/380
f 368/368/368 380/380/380 379/379/379
f 369/369/369 370/370/370 381/381/381
f 369/369/369 381/381/381 380/380/380
f 370/370/370 371/371/371 382/382/382
f 370/370/370 382/382/382 381/381/381
f 371/371/371 372/372/372 383/383/383
f 371/371/371 383/383/383 382/382/382
f 372/372/372 373/373/373 384/384/384
f 372/372/372 384/384/384 383/383/383
f 373/373/373 374/374/374 385/385/385
f 373/373/373 385/385/385 384/384/384
f 375/375/375 376/376/376 387/387/387
f 375/375/375 387/387/387 386/386/386
f 376/376/376 377/377/377 388/388/388
f 376/376/376 388/388/388 387/387/387
f 377/377/377 378/378/378 389/389/389
f 377/377/377 389/389/389 388/388/388
f 378/378/378 379/379/379 390/390/390
f 378/378/378 390/390/390 389/389/389
f 379/379/379 380/380/380 391/391/391
f 379/379/379 391/391/391 390/390/390
f 380/380/380 381/381/381 392/392/392
f 380/380/380 392/392/392 391/391/391
f 381/381/381 382/382/382 393/393/393
f 381/381/381 393/393/393 392/392/392
f 382/382/382 383/383/383 394/394/394
f 382/382/382 394/394/394 393/393/393
f 383/383/383 384/384/384 395/395/395
f 383/383/383 395/395/395 394/394/394
f 384/384/384 385/385/385 396/396/396
f 384/384/384 396/396/396 395/395/395
f 386/386/386 387/387/387 398/398/398
f 386/386/386 398/398/398 397/397/397
f 387/387/387 388/388/388 399/399/399
f 387/387/387 399/399/399 398/398/398
f 388/388/388 389/389/389 400/400/400
f 388/388/388 400/400/400 399/399/399
f 389/389/389 390/390/390 401/401/401
f 389/389/389 401/401/401 400/400/400
f 390/390/390 391/391/391 402/402/402
f 390/390/390 402/402/402 401/401/401
f 391/391/391 392/392/392 403/403/403
f 391/391/391 403/403/403 402/402/402
f 392/392/392 393/393/393 404/404/404
f 392/392/392 404/404/404 403/403/403
f 393/393/393 394/394/394 405/405/405
f 393/393/393 405/405/405 404/404/404
f 394/394/394 395/395/395 406/406/406
f 394/394/394 406/406/406 405/405/405
f 395/395/395 396/396/396 407/407/407
f 395/395/395 407/407/407 406/406/406
f 397/397/397 398/398/398 409/409/409
f 397/397/397 409/409/409 408/408/408
f 398/398/398 399/399/399 410/410/410
f 398/398/398 410/410/410 409/409/409
f 399/399/399 400/400/400 411/411/411
f 399/399/399 411/411/411 410/410/410
f 400/400/400 401/401/401 412/412/412
f 400/400/400 412/412/412 411/411/411
f 401/401/401 402/402/402 413/413/413
f 401/401/401 413/413/413 412/412/412
f 402/402/402 403/403/403 414/414/414
f 402/402/402 414/414/414 413/413/413
f 403/403/403 404/404/404 415/415/415
f 403/403/403 415/415/415 414/414/414
f 404/404/404 405/405/405 416/416/416
f 404/404/404 416/416/416 415/415/415
f 405/405/405 406/406/406 417/417/417
f 405/405/405 417/417/417 416/416/416
f 406/406/406 407/407/407 418/418/418
f 406/406/406 418/418/418 417/417/417
f 408/408/408 409/409/409 420/420/420
f 408/408/408 420/420/420 419/419/419
f 409/409/409 410/410/410 421/421/421
f 409/409/409 421/421/421 420/420/420
f 410/410/410 411/411/411 422/422/422
f 410/410/410 422/422/422 421/421/421
f 411/411/411 412/412/412 423/423/423
f 411/411/411 423/423/423 422/422/422
f 412/412/412 413/413/413 424/424/424
f 412/412/412 424/424/424 423/423/423
f 413/413/413 414/414/414 425/425/425
f 413/413/413 425/425/425 424/424/424
f 414/414/414 415/415/415 426/426/426
f 414/414/414 426/426/426 425/425/425
f 415/415/415 416/416/416 427/427/427
f 415/415/415 427/427/427 426/426/426
f 416/416/416 417/417/417 428/428/428
f 416/416/416 428/428/428 427/427/427
f 417/417/417 418/418/418 429/429/429
f 417/417/417 429/429/429 428/428/428
f 419/419/419 420/420/420 431/431/431
f 419/419/419 431/431/431 430/430/430
f 420/420/420 421/421/421 432/432/432
f 420/420/420 432/432/432 431/431/431
f 421/421/421 422/422/422 433/433/433
f 421/421/421 433/433/433 432/432/432
f 422/422/422 423/423/423 434/434/434
f 422/422/422 434/434/434 433/433/433
f 423/423/423 424/424/424 435/435/435
f 423/423/423 435/435/435 434/434/434
f 424/424/424 425/425/425 436/436/436
f 424/424/424 436/436/436 435/435/435
f 425/425/425 426/426/426 437/437/437
f 425/425/425 437/437/437 436/436/436
f 426/426/426 427/427/427 438/438/438
f 426/426/426 438/438/438 437/437/437
f 427/427/427 428/428/428 439/439/439
f 427/427/427 439/439/439 438/438/438
f 428/428/428 429/429/429 440/440/440
f 428/428/428 440/440/440 439/439/439
f 430/430/430 431/431/431 442/442/442
f 430/430/430 442/442/442 441/441/441
f 431/431/431 432/432/432 443/443/443
f 431/431/431 443/443/443 442/442/442
f 432/432/432 433/433/433 444/444/444
f 432/432/432 444/444/444 443/443/443
f 433/433/433 434/434/434 445/445/445
f 433/433/433 445/445/445 444/444/444
f 434/434/434 435/435/435 446/446/446
f 434/434/434 446/446/446 445/445/445
f 435/435/435 436/436/436 447/447/447
f 435/435/435 447/447/447 446/446/446
f 436/436/436 437/437/437 448/448/448
f 436/436/436 448/448/448 447/447/447
f 437/437/437 438/438/438 449/449/449
f 437/437/437 449/449/449 448/448/448
f 438/438/438 439/439/439 450/450/450
f 438/438/438 450/450/450 449/449/449
f 439/439/439 440/440/440 451/451/451
f 439/439/439 451/451/451 450/450/450
usemtl spoke
f 452/452/452 453/453/453 462/462/462
f 452/452/452 462/462/462 461/461/461
f 453/453/453 454/454/454 463/463/463
f 453/453/453 463/463/463 462/462/462
f 454/454/454 455/455/455 464/464/464
f 454/454/454 464/464/464 463/463/463
f 455/455/455 456/456/456 465/465/465
f 455/455/455 465/465/465 464/464/464
f 456/456/456 457/457/457 466/466/466
f 456/456/456 466/466/466 465/465/465
f 457/457/457 458/458/458 467/467/467
f 457/457/457 467/467/467 466/466/466
f 458/458/458 459/459/459 468/468/468
f 458/458/458 468/468/468 467/467/467
f 459/459/459 460/460/460 469/469/469
f 459/459/459 469/469/469 468/468/468
f 470/470/470 472/472/472 471/471/471
f 470/470/470 473/473/473 472/472/472
f 470/470/470 474/474/474 473/473/473
f 470/470/470 475/475/475 474/474/474
f 470/470/470 476/476/476 475/475/475
f 470/470/470 477/477/477 476/476/476
f 470/470/470 478/478/478 477/477/477
f 470/470/470 471/471/471 478/478/478
f 479/479/479 480/480/480 481/481/481
f 479/479/479 481/481/481 482/482/482
f 479/479/479 482/482/482 483/483/483
f 479/479/479 483/483/483 484/484/484
f 479/479/479 484/484/484 485/485/485
f 479/479/479 485/485/485 486/486/486
f 479/479/479 486/486/486 487/487/487
f 479/479/479 487/487/487 480/480/480
f 488/488/488 489/489/489 498/498/498
f 488/488/488 498/498/498 497/497/497
f 489/489/489 490/490/490 499/499/499
f 489/489/489 499/499/499 498/498/498
f 490/490/490 491/491/491 500/500/500
f 490/490/490 500/500/500 499/499/499
f 491/491/491 492/492/492 501/501/501
f 491/491/491 501/501/501 500/500/500
f 492/492/492 493/493/493 502/502/502
f 492/492/492 502/502/502 501/501/501
f 493/493/493 494/494/494 503/503/503
f 493/493/493 503/503/503 502/502/502
f 494/494/494 495/495/495 504/504/504
f 494/494/494 504/504/504 503/503/503
f 495/495/495 496/496/496 505/505/505
f 495/495/495 505/505/505 504/504/504
f 506/506/506 508/508/508 507/507/507
f 506/506/506 509/509/509 508/508/508
f 506/506/506 510/510/510 509/509/509
f 506/506/506 511/511/511 510/510/510
f 506/506/506 512/512/512 511/511/511
f 506/506/506 513/513/513 512/512/512
f 506/506/506 514/514/514 513/513/513
f 506/506/506 507/507/507 514/514/514
f 515/515/515 516/516/516 517/517/517
f 515/515/515 517/517/517 518/518/518
f 515/515/515 518/518/518 519/519/519
f 515/515/515 519/519/519 520/520/520
f 515/515/515 520/520/520 521/521/521
f 515/515/515 521/521/521 522/522/522
f 515/515/515 522/522/522 523/523/523
f 515/515/515 523/523/523 516/516/516
f 524/524/524 525/525/525 534/534/534
f 524/524/524 534/534/534 533/533/533
f 525/525/525 526/526/526 535/535/535
f 525/525/525 535/535/535 534/534/534
f 526/526/526 527/527/527 536/536/536
f 526/526/526 536/536/536 535/535/535
f 527/527/527 528/528/528 537/537/537
f 527/527/527 537/537/537 536/536/536
f 528/528/528 529/529/529 538/538/538
f 528/528/528 538/538/538 537/537/537
f 529/529/529 530/530/530 539/539/539
f 529/529/529 539/539/539 538/538/538
f 530/530/530 531/531/531 540/540/540
f 530/530/530 540/540/540 539/539/539
f 531/531/531 532/532/532 541/541/541
f 531/531/531 541/541/541 540/540/540
f 542/542/542 544/544/544 543/543/543
f 542/542/542 545/545/545 544/544/544
f 542/542/542 546/546/546 545/545/545
f 542/542/542 547/547/547 546/546/546
f 542/542/542 548/548/548 547/547/547
f 542/542/542 549/549/549 548/548/548
f 542/542/542 550/550/550 549/549/549
f 542/542/542 543/543/543 550/550/550
f 551/551/551 552/552/552 553/553/553
f 551/551/551 553/553/553 554/554/554
f 551/551/551 554/554/554 555/555/555
f 551/551/551 555/555/555 556/556/556
f 551/551/551 556/556/556 557/557/557
f 551/551/551 557/557/557 558/558/558
f 551/551/551 558/558/558 559/559/559
f 551/551/551 559/559/559 552/552/552
f 560/560/560 565/565/565 566/566/566
f 560/560/560 566/566/566 561/561/561
f 561/561/561 566/566/566 567/567/567
f 561/561/561 567/567/567 562/562/562
f 562/562/562 567/567/567 568/568/568
f 562/562/562 568/568/568 563/563/563
f 563/563/563 568/568/568 569/569/569
f 563/563/563 569/569/569 564/564/564
f 565/565/565 570/570/570 571/571/571
f 565/565/565 571/571/571 566/566/566
f 566/566/566 571/571/571 572/572/572
f 566/566/566 572/572/572 567/567/567
f 567/567/567 572/572/572 573/573/573
f 567/567/567 573/573/573 568/568/568
f 568/568/568 573/573/573 574/574/574
f 568/568/568 574/574/574 569/569/569
f 570/570/570 575/575/575 576/576/576
f 570/570/570 576/576/576 571/571/571
f 571/571/571 576/576/576 577/577/577
f 571/571/571 577/577/577 572/572/572
f 572/572/572 577/577/577 578/578/578
f 572/572/572 578/578/578 573/573/573
f 573/573/573 578/578/578 579/579/579
f 573/573/573 579/579/579 574/574/574
f 575/575/575 580/580/580 581/581/581
f 575/575/575 581/581/581 576/576/576
f 576/576/576 581/581/581 582/582/582
f 576/576/576 582/582/582 577/577/577
f 577/577/577 582/582/582 583/583/583
f 577/577/577 583/583/583 578/578/578
f 578/578/578 583/583/583 584/584/584
f 578/578/578 584/584/584 579/579/579
f 580/580/580 585/585/585 586/586/586
f 580/580/580 586/586/586 581/581/581
f 581/581/581 586/586/586 587/587/587
f 581/581/581 587/587/587 582/582/582
f 582/582/582 587/587/587 588/588/588
f 582/582/582 588/588/588 583/583/583
f 583/583/583 588/588/588 589/589/589
f 583/583/583 589/589/589 584/584/584
f 585/585/585 590/590/590 591/591/591
f 585/585/585 591/591/591 586/586/586
f 586/586/586 591/591/591 592/592/592
f 586/586/586 592/592/592 587/587/587
f 587/587/587 592/592/592 593/593/593
f 587/587/587 593/593/593 588/588/588
f 588/588/588 593/593/593 594/594/594
f 588/588/588 594/594/594 589/589/589
f 590/590/590 595/595/595 596/596/596
f 590/590/590 596/596/596 591/591/591
f 591/591/591 596/596/596 597/597/597
f 591/591/591 597/597/597 592/592/592
f 592/592/592 597/597/597 598/598/598
f 592/592/592 598/598/598 593/593/593
f 593/593/593 598/598/598 599/599/599
f 593/593/593 599/599/599 594/594/594
f 595/595/595 600/600/600 601/601/601
f 595/595/595 601/601/601 596/596/596
f 596/596/596 601/601/601 602/602/602
f 596/596/596 602/602/602 597/597/597
f 597/597/597 602/602/602 603/603/603
f 597/597/597 603/603/603 598/598/598
f 598/598/598 603/603/603 604/604/604
f 598/598/598 604/604/604 599/599/599
f 600/600/600 605/605/605 606/606/606
f 600/600/600 606/606/606 601/601/601
f 601/601/601 606/606/606 607/607/607
f 601/601/601 607/607/607 602/602/602
f 602/602/602 607/607/607 608/608/608
f 602/602/602 608/608/608 603/603/603
f 603/603/603 608/608/608 609/609/609
f 603/603/603 609/609/609 604/604/604
f 605/605/605 610/610/610 611/611/611
f 605/605/605 611/611/611 606/606/606
f 606/606/606 611/611/611 612/612/612
f 606/606/606 612/612/612 607/607/607
f 607/607/607 612/612/612 613/613/613
f 607/607/607 613/613/613 608/608/608
f 608/608/608 613/613/613 614/614/614
f 608/608/608 614/614/614 609/609/609
f 610/610/610 615/615/615 616/616/616
f 610/610/610 616/616/616 611/611/611
f 611/611/611 616/616/616 617/617/617
f 611/611/611 617/617/617 612/612/612
f 612/612/612 617/617/617 618/618/618
f 612/612/612 618/618/618 613/613/613
f 613/613/613 618/618/618 619/619/619
f 613/613/613 619/619/619 614/614/614
f 615/615/615 620/620/620 621/621/621
f 615/615/615 621/621/621 616/616/616
f 616/616/616 621/621/621 622/622/622
f 616/616/616 622/622/622 617/617/617
f 617/617/617 622/622/622 623/623/623
f 617/617/617 623/623/623 618/618/618
f 618/618/618 623/623/623 624/624/624
f 618/618/618 624/624/624 619/619/619
f 620/620/620 625/625/625 626/626/626
f 620/620/620 626/626/626 621/621/621
f 621/621/621 626/626/626 627/627/627
f 621/621/621 627/627/627 622/622/622
f 622/622/622 627/627/627 628/628/628
f 622/622/622 628/628/628 623/623/623
f 623/623/623 628/628/628 629/629/629
f 623/623/623 629/629/629 624/624/624
f 625/625/625 630/630/630 631/631/631
f 625/625/625 631/631/631 626/626/626
f 626/626/626 631/631/631 632/632/632
f 626/626/626 632/632/632 627/627/627
f 627/627/627 632/632/632 633/633/633
f 627/627/627 633/633/633 628/628/628
f 628/628/628 633/633/633 634/634/634
f 628/628/628 634/634/634 629/629/629
f 630/630/630 635/635/635 636/636/636
f 630/630/630 636/636/636 631/631/631
f 631/631/631 636/636/636 637/637/637
f 631/631/631 637/637/637 632/632/632
f 632/632/632 637/637/637 638/638/638
f 632/632/632 638/638/638 633/633/633
f 633/633/633 638/638/638 639/639/639
f 633/633/633 639/639/639 634/634/634
f 635/635/635 640/640/640 641/641/641
f 635/635/635 641/641/641 636/636/636
f 636/636/636 641/641/641 642/642/642
f 636/636/636 642/642/642 637/637/637
f 637/637/637 642/642/642 643/643/643
f 637/637/637 643/643/643 638/638/638
f 638/638/638 643/643/643 644/644/644
f 638/638/638 644/644/644 639/639/639
f 640/640/640 645/645/645 646/646/646
f 640/640/640 646/646/646 641/641/641
f 641/641/641 646/646/646 647/647/647
f 641/641/641 647/647/647 642/642/642
f 642/642/642 647/647/647 648/648/648
f 642/642/642 648/648/648 643/643/643
f 643/643/643 648/648/648 649/649/649
f 643/643/643 649/649/649 644/644/644
f 645/645/645 650/650/650 651/651/651
f 645/645/645 651/651/651 646/646/646
f 646/646/646 651/651/651 652/652/652
f 646/646/646 652/652/652 647/647/647
f 647/647/647 652/652/652 653/653/653
f 647/647/647 653/653/653 648/648/648
f 648/648/648 653/653/653 654/654/654
f 648/648/648 654/654/654 649/649/649
usemtl chrome
f 655/655/655 658/658/658 659/659/659
f 655/655/655 659/659/659 656/656/656
f 656/656/656 659/659/659 660/660/660
f 656/656/656 660/660/660 657/657/657
f 658/658/658 661/661/661 662/662/662
f 658/658/658 662/662/662 659/659/659
f 659/659/659 662/662/662 663/663/663
f 659/659/659 663/663/663 660/660/660
f 661/661/661 664/664/664 665/665/665
f 661/661/661 665/665/665 662/662/662
f 662/662/662 665/665/665 666/666/666
f 662/662/662 666/666/666 663/663/663
f 664/664/664 667/667/667 668/668/668
f 664/664/664 668/668/668 665/665/665
f 665/665/665 668/668/668 669/669/669
f 665/665/665 669/669/669 666/666/666
f 667/667/667 670/670/670 671/671/671
f 667/667/667 671/671/671 668/668/668
f 668/668/668 671/671/671 672/672/672
f 668/668/668 672/672/672 669/669/669
f 670/670/670 673/673/673 674/674/674
f 670/670/670 674/674/674 671/671/671
f 671/671/671 674/674/674 675/675/675
f 671/671/671 675/675/675 672/672/672
f 673/673/673 676/676/676 677/677/677
f 673/673/673 677/677/677 674/674/674
f 674/674/674 677/677/677 678/678/678
f 674/674/674 678/678/678 675/675/675
f 676/676/676 679/679/679 680/680/680
f 676/676/676 680/680/680 677/677/677
f 677/677/677 680/680/680 681/681/681
f 677/677/677 681/681/681 678/678/678
f 679/679/679 682/682/682 683/683/683
f 679/679/679 683/683/683 680/680/680
f 680/680/680 683/683/683 684/684/684
f 680/680/680 684/684/684 681/681/681
f 682/682/682 685/685/685 686/686/686
f 682/682/682 686/686/686 683/683/683
f 683/683/683 686/686/686 687/687/687
f 683/683/683 687/687/687 684/684/684
f 685/685/685 688/688/688 689/689/689
f 685/685/685 689/689/689 686/686/686
f 686/686/686 689/689/689 690/690/690
f 686/686/686 690/690/690 687/687/687
f 688/688/688 691/691/691 692/692/692
f 688/688/688 692/692/692 689/689/689
f 689/689/689 692/692/692 693/693/693
f 689/689/689 693/693/693 690/690/690
f 691/691/691 694/694/694 695/695/695
f 691/691/691 695/695/695 692/692/692
f 692/692/692 695/695/695 696/696/696
f 692/692/692 696/696/696 693/693/693
f 694/694/694 697/697/697 698/698/698
f 694/694/694 698/698/698 695/695/695
f 695/695/695 698/698/698 699/699/699
f 695/695/695 699/699/699 696/696/696
usemtl column
f 700/700/700 701/701/701 714/714/714
f 700/700/700 714/714/714 713/713/713
f 701/701/701 702/702/702 715/715/715
f 701/701/701 715/715/715 714/714/714
f 702/702/702 703/703/703 716/716/716
f 702/702/702 716/716/716 715/715/715
f 703/703/703 704/704/704 717/717/717
f 703/703/703 717/717/717 716/716/716
f 704/704/704 705/705/705 718/718/718
f 704/704/704 718/718/718 717/717/717
f 705/705/705 706/706/706 719/719/719
f 705/705/705 719/719/719 718/718/718
f 706/706/706 707/707/707 720/720/720
f 706/706/706 720/720/720 719/719/719
f 707/707/707 708/708/708 721/721/721
f 707/707/707 721/721/721 720/720/720
f 708/708/708 709/709/709 722/722/722
f 708/708/708 722/722/722 721/721/721
f 709/709/709 710/710/710 723/723/723
f 709/709/709 723/723/723 722/722/722
f 710/710/710 711/711/711 724/724/724
f 710/710/710 724/724/724 723/723/723
f 711/711/711 712/712/712 725/725/725
f 711/711/711 725/725/725 724/724/724
f 726/726/726 728/728/728 727/727/727
f 726/726/726 729/729/729 728/728/728
f 726/726/726 730/730/730 729/729/729
f 726/726/726 731/731/731 730/730/730
f 726/726/726 732/732/732 731/731/731
f 726/726/726 733/733/733 732/732/732
f 726/726/726 734/734/734 733/733/733
f 726/726/726 735/735/735 734/734/734
f 726/726/726 736/736/736 735/735/735
f 726/726/726 737/737/737 736/736/736
f 726/726/726 738/738/738 737/737/737
f 726/726/726 727/727/727 738/738/738
f 739/739/739 740/740/740 741/741/741
f 739/739/739 741/741/741 742/742/742
f 739/739/739 742/742/742 743/743/743
f 739/739/739 743/743/743 744/744/744
f 739/739/739 744/744/744 745/745/745
f 739/739/739 745/745/745 746/746/746
f 739/739/739 746/746/746 747/747/747
f 739/739/739 747/747/747 748/748/748
f 739/739/739 748/748/748 749/749/749
f 739/739/739 749/749/749 750/750/750
f 739/739/739 750/750/750 751/751/751
f 739/739/739 751/751/751 740/740/740
f 752/752/752 756/756/756 757/757/757
f 752/752/752 757/757/757 753/753/753
f 753/753/753 757/757/757 758/758/758
f 753/753/753 758/758/758 754/754/754
f 754/754/754 758/758/758 759/759/759
f 754/754/754 759/759/759 755/755/755
f 756/756/756 760/760/760 761/761/761
f 756/756/756 761/761/761 757/757/757
f 757/757/757 761/761/761 762/762/762
f 757/757/757 762/762/762 758/758/758
f 758/758/758 762/762/762 763/763/763
f 758/758/758 763/763/763 759/759/759
f 760/760/760 764/764/764 765/765/765
f 760/760/760 765/765/765 761/761/761
f 761/761/761 765/765/765 766/766/766
f 761/761/761 766/766/766 762/762/762
f 762/762/762 766/766/766 767/767/767
f 762/762/762 767/767/767 763/763/763
f 764/764/764 768/768/768 769/769/769
f 764/764/764 769/769/769 765/765/765
f 765/765/765 769/769/769 770/770/770
f 765/765/765 770/770/770 766/766/766
f 766/766/766 770/770/770 771/771/771
f 766/766/766 771/771/771 767/767/767
f 768/768/768 772/772/772 773/773/773
f 768/768/768 773/773/773 769/769/769
f 769/769/769 773/773/773 774/774/774
f 769/769/769 774/774/774 770/770/770
f 770/770/770 774/774/774 775/775/775
f 770/770/770 775/775/775 771/771/771
f 772/772/772 776/776/776 777/777/777
f 772/772/772 777/777/777 773/773/773
f 773/773/773 777/777/777 778/778/778
f 773/773/773 778/778/778 774/774/774
f 774/774/774 778/778/778 779/779/779
f 774/774/774 779/779/779 775/775/775
f 776/776/776 780/780/780 781/781/781
f 776/776/776 781/781/781 777/777/777
f 777/777/777 781/781/781 782/782/782
f 777/777/777 782/782/782 778/778/778
f 778/778/778 782/782/782 783/783/783
f 778/778/778 783/783/783 779/779/779
f 780/780/780 784/784/784 785/785/785
f 780/780/780 785/785/785 781/781/781
f 781/781/781 785/785/785 786/786/786
f 781/781/781 786/786/786 782/782/782
f 782/782/782 786/786/786 787/787/787
f 782/782/782 787/787/787 783/783/783
f 784/784/784 788/788/788 789/789/789
f 784/784/784 789/789/789 785/785/785
f 785/785/785 789/789/789 790/790/790
f 785/785/785 790/790/790 786/786/786
f 786/786/786 790/790/790 791/791/791
f 786/786/786 791/791/791 787/787/787
f 788/788/788 792/792/792 793/793/793
f 788/788/788 793/793/793 789/789/789
f 789/789/789 793/793/793 794/794/794
f 789/789/789 794/794/794 790/790/790
f 790/790/790 794/794/794 795/795/795
f 790/790/790 795/795/795 791/791/791
f 792/792/792 796/796/796 797/797/797
f 792/792/792 797/797/797 793/793/793
f 793/793/793 797/797/797 798/798/798
f 793/793/793 798/798/798 794/794/794
f 794/794/794 798/798/798 799/799/799
f 794/794/794 799/799/799 795/795/795
f 796/796/796 800/800/800 801/801/801
f 796/796/796 801/801/801 797/797/797
f 797/797/797 801/801/801 802/802/802
f 797/797/797 802/802/802 798/798/798
f 798/798/798 802/802/802 803/803/803
f 798/798/798 803/803/803 799/799/799
f 800/800/800 804/804/804 805/805/805
f 800/800/800 805/805/805 801/801/801
f 801/801/801 805/805/805 806/806/806
f 801/801/801 806/806/806 802/802/802
f 802/802/802 806/806/806 807/807/807
f 802/802/802 807/807/807 803/803/803
f 804/804/804 808/808/808 809/809/809
f 804/804/804 809/809/809 805/805/805
f 805/805/805 809/809/809 810/810/810
f 805/805/805 810/810/810 806/806/806
f 806/806/806 810/810/810 811/811/811
f 806/806/806 811/811/811 807/807/807
